<?xml version="1.0" encoding="UTF-8" standalone="no"?>
<!DOCTYPE svg PUBLIC "-//W3C//DTD SVG 1.1//EN"
 "http://www.w3.org/Graphics/SVG/1.1/DTD/svg11.dtd">
<!-- Generated by graphviz version 2.43.0 (0)
 -->
<!-- Title: Button.h Pages: 1 -->
<svg width="1120pt" height="247pt"
 viewBox="0.00 0.00 1119.50 247.00" xmlns="http://www.w3.org/2000/svg" xmlns:xlink="http://www.w3.org/1999/xlink">
<g id="graph0" class="graph" transform="scale(1 1) rotate(0) translate(4 243)">
<title>Button.h</title>
<!-- Node1 -->
<g id="Node000001" class="node">
<title>Node1</title>
<g id="a_Node000001"><a xlink:title=" ">
<polygon fill="#999999" stroke="#666666" points="354,-239 296,-239 296,-220 354,-220 354,-239"/>
<text text-anchor="middle" x="325" y="-227" font-family="Helvetica,sans-Serif" font-size="10.00">Button.h</text>
</a>
</g>
</g>
<!-- Node2 -->
<g id="Node000002" class="node">
<title>Node2</title>
<g id="a_Node000002"><a xlink:href="_i_executor_8h.html" target="_top" xlink:title=" ">
<polygon fill="white" stroke="#666666" points="269,-129 199,-129 199,-110 269,-110 269,-129"/>
<text text-anchor="middle" x="234" y="-117" font-family="Helvetica,sans-Serif" font-size="10.00">IExecutor.h</text>
</a>
</g>
</g>
<!-- Node1&#45;&gt;Node2 -->
<g id="edge1_Node000001_Node000002" class="edge">
<title>Node1&#45;&gt;Node2</title>
<g id="a_edge1_Node000001_Node000002"><a xlink:title=" ">
<path fill="none" stroke="#63b8ff" d="M317.55,-219.66C302.35,-201.61 267.52,-160.28 247.97,-137.08"/>
<polygon fill="#63b8ff" stroke="#63b8ff" points="250.42,-134.55 241.3,-129.16 245.06,-139.06 250.42,-134.55"/>
</a>
</g>
</g>
<!-- Node3 -->
<g id="Node000003" class="node">
<title>Node3</title>
<g id="a_Node000003"><a xlink:href="_object_register_record_8h.html" target="_top" xlink:title=" ">
<polygon fill="white" stroke="#666666" points="214.5,-184 83.5,-184 83.5,-165 214.5,-165 214.5,-184"/>
<text text-anchor="middle" x="149" y="-172" font-family="Helvetica,sans-Serif" font-size="10.00">ObjectRegisterRecord.h</text>
</a>
</g>
</g>
<!-- Node1&#45;&gt;Node3 -->
<g id="edge2_Node000001_Node000003" class="edge">
<title>Node1&#45;&gt;Node3</title>
<g id="a_edge2_Node000001_Node000003"><a xlink:title=" ">
<path fill="none" stroke="#63b8ff" d="M296.72,-219.98C267.05,-211.05 220.21,-196.94 187.25,-187.02"/>
<polygon fill="#63b8ff" stroke="#63b8ff" points="188.08,-183.61 177.5,-184.08 186.07,-190.32 188.08,-183.61"/>
</a>
</g>
</g>
<!-- Node13 -->
<g id="Node000013" class="node">
<title>Node13</title>
<g id="a_Node000013"><a xlink:href="_task_scheduler_8h.html" target="_top" xlink:title=" ">
<polygon fill="white" stroke="#666666" points="420.5,-184 325.5,-184 325.5,-165 420.5,-165 420.5,-184"/>
<text text-anchor="middle" x="373" y="-172" font-family="Helvetica,sans-Serif" font-size="10.00">TaskScheduler.h</text>
</a>
</g>
</g>
<!-- Node1&#45;&gt;Node13 -->
<g id="edge13_Node000001_Node000013" class="edge">
<title>Node1&#45;&gt;Node13</title>
<g id="a_edge13_Node000001_Node000013"><a xlink:title=" ">
<path fill="none" stroke="#63b8ff" d="M332.93,-219.75C339.85,-212.11 350.07,-200.82 358.45,-191.56"/>
<polygon fill="#63b8ff" stroke="#63b8ff" points="361.1,-193.85 365.22,-184.09 355.91,-189.15 361.1,-193.85"/>
</a>
</g>
</g>
<!-- Node23 -->
<g id="Node000023" class="node">
<title>Node23</title>
<g id="a_Node000023"><a xlink:title=" ">
<polygon fill="#e0e0e0" stroke="#999999" points="517,-184 439,-184 439,-165 517,-165 517,-184"/>
<text text-anchor="middle" x="478" y="-172" font-family="Helvetica,sans-Serif" font-size="10.00">driver/gpio.h</text>
</a>
</g>
</g>
<!-- Node1&#45;&gt;Node23 -->
<g id="edge28_Node000001_Node000023" class="edge">
<title>Node1&#45;&gt;Node23</title>
<g id="a_edge28_Node000001_Node000023"><a xlink:title=" ">
<path fill="none" stroke="#63b8ff" d="M349.58,-219.98C375.05,-211.16 415.04,-197.31 443.63,-187.41"/>
<polygon fill="#63b8ff" stroke="#63b8ff" points="444.92,-190.66 453.23,-184.08 442.63,-184.05 444.92,-190.66"/>
</a>
</g>
</g>
<!-- Node4 -->
<g id="Node000004" class="node">
<title>Node4</title>
<g id="a_Node000004"><a xlink:href="_clear_queue_8h.html" target="_top" xlink:title=" ">
<polygon fill="white" stroke="#666666" points="401.5,-74 318.5,-74 318.5,-55 401.5,-55 401.5,-74"/>
<text text-anchor="middle" x="360" y="-62" font-family="Helvetica,sans-Serif" font-size="10.00">ClearQueue.h</text>
</a>
</g>
</g>
<!-- Node3&#45;&gt;Node4 -->
<g id="edge3_Node000003_Node000004" class="edge">
<title>Node3&#45;&gt;Node4</title>
<g id="a_edge3_Node000003_Node000004"><a xlink:title=" ">
<path fill="none" stroke="#63b8ff" d="M152.26,-164.62C157.82,-150.77 170.44,-124.16 190,-110 208.82,-96.37 265.41,-83.21 308.17,-74.78"/>
<polygon fill="#63b8ff" stroke="#63b8ff" points="309.01,-78.19 318.16,-72.85 307.68,-71.31 309.01,-78.19"/>
</a>
</g>
</g>
<!-- Node7 -->
<g id="Node000007" class="node">
<title>Node7</title>
<g id="a_Node000007"><a xlink:href="_logger_8h.html" target="_top" xlink:title=" ">
<polygon fill="white" stroke="#666666" points="67,-129 9,-129 9,-110 67,-110 67,-129"/>
<text text-anchor="middle" x="38" y="-117" font-family="Helvetica,sans-Serif" font-size="10.00">Logger.h</text>
</a>
</g>
</g>
<!-- Node3&#45;&gt;Node7 -->
<g id="edge6_Node000003_Node000007" class="edge">
<title>Node3&#45;&gt;Node7</title>
<g id="a_edge6_Node000003_Node000007"><a xlink:title=" ">
<path fill="none" stroke="#63b8ff" d="M131.17,-164.98C113.39,-156.5 85.85,-143.35 65.32,-133.54"/>
<polygon fill="#63b8ff" stroke="#63b8ff" points="66.69,-130.32 56.16,-129.17 63.67,-136.64 66.69,-130.32"/>
</a>
</g>
</g>
<!-- Node12 -->
<g id="Node000012" class="node">
<title>Node12</title>
<g id="a_Node000012"><a xlink:href="_type_id_8h.html" target="_top" xlink:title=" ">
<polygon fill="white" stroke="#666666" points="142.5,-129 85.5,-129 85.5,-110 142.5,-110 142.5,-129"/>
<text text-anchor="middle" x="114" y="-117" font-family="Helvetica,sans-Serif" font-size="10.00">TypeId.h</text>
</a>
</g>
</g>
<!-- Node3&#45;&gt;Node12 -->
<g id="edge12_Node000003_Node000012" class="edge">
<title>Node3&#45;&gt;Node12</title>
<g id="a_edge12_Node000003_Node000012"><a xlink:title=" ">
<path fill="none" stroke="#63b8ff" d="M143.22,-164.75C138.38,-157.42 131.32,-146.73 125.36,-137.7"/>
<polygon fill="#63b8ff" stroke="#63b8ff" points="128.1,-135.5 119.67,-129.09 122.26,-139.36 128.1,-135.5"/>
</a>
</g>
</g>
<!-- Node5 -->
<g id="Node000005" class="node">
<title>Node5</title>
<g id="a_Node000005"><a xlink:title=" ">
<polygon fill="#e0e0e0" stroke="#999999" points="211.5,-19 148.5,-19 148.5,0 211.5,0 211.5,-19"/>
<text text-anchor="middle" x="180" y="-7" font-family="Helvetica,sans-Serif" font-size="10.00">Arduino.h</text>
</a>
</g>
</g>
<!-- Node4&#45;&gt;Node5 -->
<g id="edge4_Node000004_Node000005" class="edge">
<title>Node4&#45;&gt;Node5</title>
<g id="a_edge4_Node000004_Node000005"><a xlink:title=" ">
<path fill="none" stroke="#63b8ff" d="M331.08,-54.98C300.73,-46.05 252.83,-31.94 219.12,-22.02"/>
<polygon fill="#63b8ff" stroke="#63b8ff" points="219.73,-18.55 209.15,-19.08 217.75,-25.26 219.73,-18.55"/>
</a>
</g>
</g>
<!-- Node6 -->
<g id="Node000006" class="node">
<title>Node6</title>
<g id="a_Node000006"><a xlink:title=" ">
<polygon fill="#e0e0e0" stroke="#999999" points="732.5,-19 667.5,-19 667.5,0 732.5,0 732.5,-19"/>
<text text-anchor="middle" x="700" y="-7" font-family="Helvetica,sans-Serif" font-size="10.00">functional</text>
</a>
</g>
</g>
<!-- Node4&#45;&gt;Node6 -->
<g id="edge5_Node000004_Node000006" class="edge">
<title>Node4&#45;&gt;Node6</title>
<g id="a_edge5_Node000004_Node000006"><a xlink:title=" ">
<path fill="none" stroke="#63b8ff" d="M401.69,-57C466.66,-46.87 591.41,-27.43 657.11,-17.19"/>
<polygon fill="#63b8ff" stroke="#63b8ff" points="657.79,-20.62 667.13,-15.62 656.71,-13.71 657.79,-20.62"/>
</a>
</g>
</g>
<!-- Node7&#45;&gt;Node5 -->
<g id="edge10_Node000007_Node000005" class="edge">
<title>Node7&#45;&gt;Node5</title>
<g id="a_edge10_Node000007_Node000005"><a xlink:title=" ">
<path fill="none" stroke="#63b8ff" d="M49.62,-109.66C73.98,-91.14 130.59,-48.08 160.57,-25.28"/>
<polygon fill="#63b8ff" stroke="#63b8ff" points="162.78,-28 168.62,-19.16 158.54,-22.43 162.78,-28"/>
</a>
</g>
</g>
<!-- Node8 -->
<g id="Node000008" class="node">
<title>Node8</title>
<g id="a_Node000008"><a xlink:href="_common_8h.html" target="_top" xlink:title=" ">
<polygon fill="white" stroke="#666666" points="300,-74 230,-74 230,-55 300,-55 300,-74"/>
<text text-anchor="middle" x="265" y="-62" font-family="Helvetica,sans-Serif" font-size="10.00">Common.h</text>
</a>
</g>
</g>
<!-- Node7&#45;&gt;Node8 -->
<g id="edge7_Node000007_Node000008" class="edge">
<title>Node7&#45;&gt;Node8</title>
<g id="a_edge7_Node000007_Node000008"><a xlink:title=" ">
<path fill="none" stroke="#63b8ff" d="M67.21,-111.68C105.95,-102.63 174.71,-86.58 220.08,-75.99"/>
<polygon fill="#63b8ff" stroke="#63b8ff" points="221,-79.37 229.95,-73.68 219.41,-72.55 221,-79.37"/>
</a>
</g>
</g>
<!-- Node11 -->
<g id="Node000011" class="node">
<title>Node11</title>
<g id="a_Node000011"><a xlink:title=" ">
<polygon fill="#e0e0e0" stroke="#999999" points="76,-74 0,-74 0,-55 76,-55 76,-74"/>
<text text-anchor="middle" x="38" y="-62" font-family="Helvetica,sans-Serif" font-size="10.00">pgmspace.h</text>
</a>
</g>
</g>
<!-- Node7&#45;&gt;Node11 -->
<g id="edge11_Node000007_Node000011" class="edge">
<title>Node7&#45;&gt;Node11</title>
<g id="a_edge11_Node000007_Node000011"><a xlink:title=" ">
<path fill="none" stroke="#63b8ff" d="M38,-109.75C38,-102.8 38,-92.85 38,-84.13"/>
<polygon fill="#63b8ff" stroke="#63b8ff" points="41.5,-84.09 38,-74.09 34.5,-84.09 41.5,-84.09"/>
</a>
</g>
</g>
<!-- Node9 -->
<g id="Node000009" class="node">
<title>Node9</title>
<g id="a_Node000009"><a xlink:title=" ">
<polygon fill="#e0e0e0" stroke="#999999" points="411,-19 353,-19 353,0 411,0 411,-19"/>
<text text-anchor="middle" x="382" y="-7" font-family="Helvetica,sans-Serif" font-size="10.00">memory</text>
</a>
</g>
</g>
<!-- Node8&#45;&gt;Node9 -->
<g id="edge8_Node000008_Node000009" class="edge">
<title>Node8&#45;&gt;Node9</title>
<g id="a_edge8_Node000008_Node000009"><a xlink:title=" ">
<path fill="none" stroke="#63b8ff" d="M283.8,-54.98C302.62,-46.46 331.82,-33.23 353.5,-23.41"/>
<polygon fill="#63b8ff" stroke="#63b8ff" points="355.2,-26.48 362.86,-19.17 352.31,-20.11 355.2,-26.48"/>
</a>
</g>
</g>
<!-- Node10 -->
<g id="Node000010" class="node">
<title>Node10</title>
<g id="a_Node000010"><a xlink:title=" ">
<polygon fill="#e0e0e0" stroke="#999999" points="287.5,-19 242.5,-19 242.5,0 287.5,0 287.5,-19"/>
<text text-anchor="middle" x="265" y="-7" font-family="Helvetica,sans-Serif" font-size="10.00">utility</text>
</a>
</g>
</g>
<!-- Node8&#45;&gt;Node10 -->
<g id="edge9_Node000008_Node000010" class="edge">
<title>Node8&#45;&gt;Node10</title>
<g id="a_edge9_Node000008_Node000010"><a xlink:title=" ">
<path fill="none" stroke="#63b8ff" d="M265,-54.75C265,-47.8 265,-37.85 265,-29.13"/>
<polygon fill="#63b8ff" stroke="#63b8ff" points="268.5,-29.09 265,-19.09 261.5,-29.09 268.5,-29.09"/>
</a>
</g>
</g>
<!-- Node13&#45;&gt;Node2 -->
<g id="edge22_Node000013_Node000002" class="edge">
<title>Node13&#45;&gt;Node2</title>
<g id="a_edge22_Node000013_Node000002"><a xlink:title=" ">
<path fill="none" stroke="#63b8ff" d="M350.67,-164.98C327.8,-156.27 292.04,-142.63 266.14,-132.75"/>
<polygon fill="#63b8ff" stroke="#63b8ff" points="267.33,-129.46 256.74,-129.17 264.84,-136 267.33,-129.46"/>
</a>
</g>
</g>
<!-- Node13&#45;&gt;Node6 -->
<g id="edge26_Node000013_Node000006" class="edge">
<title>Node13&#45;&gt;Node6</title>
<g id="a_edge26_Node000013_Node000006"><a xlink:title=" ">
<path fill="none" stroke="#63b8ff" d="M420.57,-166.32C423.76,-165.87 426.93,-165.42 430,-165 539.5,-149.95 851.83,-161.78 919,-74 924.13,-67.29 924.34,-61.54 919,-55 897.22,-28.34 800.4,-17.26 743.04,-12.97"/>
<polygon fill="#63b8ff" stroke="#63b8ff" points="743.04,-9.46 732.82,-12.24 742.55,-16.44 743.04,-9.46"/>
</a>
</g>
</g>
<!-- Node13&#45;&gt;Node8 -->
<g id="edge21_Node000013_Node000008" class="edge">
<title>Node13&#45;&gt;Node8</title>
<g id="a_edge21_Node000013_Node000008"><a xlink:title=" ">
<path fill="none" stroke="#63b8ff" d="M360.09,-164.73C348.06,-156.27 329.94,-142.75 316,-129 301.28,-114.48 286.73,-95.82 276.97,-82.5"/>
<polygon fill="#63b8ff" stroke="#63b8ff" points="279.71,-80.31 271.02,-74.24 274.02,-84.4 279.71,-80.31"/>
</a>
</g>
</g>
<!-- Node13&#45;&gt;Node9 -->
<g id="edge27_Node000013_Node000009" class="edge">
<title>Node13&#45;&gt;Node9</title>
<g id="a_edge27_Node000013_Node000009"><a xlink:title=" ">
<path fill="none" stroke="#63b8ff" d="M390.77,-164.96C404.01,-157.51 421.12,-145.33 429,-129 446.22,-93.32 416.37,-49.59 396.87,-26.52"/>
<polygon fill="#63b8ff" stroke="#63b8ff" points="399.49,-24.2 390.25,-19.01 394.23,-28.83 399.49,-24.2"/>
</a>
</g>
</g>
<!-- Node14 -->
<g id="Node000014" class="node">
<title>Node14</title>
<g id="a_Node000014"><a xlink:href="_e_s_p8266_task_8h.html" target="_top" xlink:title=" ">
<polygon fill="white" stroke="#666666" points="707.5,-129 618.5,-129 618.5,-110 707.5,-110 707.5,-129"/>
<text text-anchor="middle" x="663" y="-117" font-family="Helvetica,sans-Serif" font-size="10.00">ESP8266Task.h</text>
</a>
</g>
</g>
<!-- Node13&#45;&gt;Node14 -->
<g id="edge14_Node000013_Node000014" class="edge">
<title>Node13&#45;&gt;Node14</title>
<g id="a_edge14_Node000013_Node000014"><a xlink:title=" ">
<path fill="none" stroke="#63b8ff" d="M419.59,-164.98C471.04,-155.58 553.77,-140.46 608.26,-130.5"/>
<polygon fill="#63b8ff" stroke="#63b8ff" points="609.22,-133.89 618.43,-128.65 607.96,-127 609.22,-133.89"/>
</a>
</g>
</g>
<!-- Node21 -->
<g id="Node000021" class="node">
<title>Node21</title>
<g id="a_Node000021"><a xlink:href="_i_scheduler_connection_kit_8h.html" target="_top" xlink:title=" ">
<polygon fill="white" stroke="#666666" points="1111.5,-129 966.5,-129 966.5,-110 1111.5,-110 1111.5,-129"/>
<text text-anchor="middle" x="1039" y="-117" font-family="Helvetica,sans-Serif" font-size="10.00">ISchedulerConnectionKit.h</text>
</a>
</g>
</g>
<!-- Node13&#45;&gt;Node21 -->
<g id="edge23_Node000013_Node000021" class="edge">
<title>Node13&#45;&gt;Node21</title>
<g id="a_edge23_Node000013_Node000021"><a xlink:title=" ">
<path fill="none" stroke="#63b8ff" d="M420.55,-166.12C423.74,-165.71 426.92,-165.34 430,-165 661.18,-139.83 720.25,-148.31 952,-129 953.32,-128.89 954.65,-128.78 955.99,-128.66"/>
<polygon fill="#63b8ff" stroke="#63b8ff" points="956.73,-132.11 966.38,-127.75 956.12,-125.14 956.73,-132.11"/>
</a>
</g>
</g>
<!-- Node22 -->
<g id="Node000022" class="node">
<title>Node22</title>
<g id="a_Node000022"><a xlink:href="_iterable_queue_8h.html" target="_top" xlink:title=" ">
<polygon fill="white" stroke="#666666" points="420.5,-129 325.5,-129 325.5,-110 420.5,-110 420.5,-129"/>
<text text-anchor="middle" x="373" y="-117" font-family="Helvetica,sans-Serif" font-size="10.00">IterableQueue.h</text>
</a>
</g>
</g>
<!-- Node13&#45;&gt;Node22 -->
<g id="edge24_Node000013_Node000022" class="edge">
<title>Node13&#45;&gt;Node22</title>
<g id="a_edge24_Node000013_Node000022"><a xlink:title=" ">
<path fill="none" stroke="#63b8ff" d="M373,-164.75C373,-157.8 373,-147.85 373,-139.13"/>
<polygon fill="#63b8ff" stroke="#63b8ff" points="376.5,-139.09 373,-129.09 369.5,-139.09 376.5,-139.09"/>
</a>
</g>
</g>
<!-- Node15 -->
<g id="Node000015" class="node">
<title>Node15</title>
<g id="a_Node000015"><a xlink:title=" ">
<polygon fill="#e0e0e0" stroke="#999999" points="838,-74 782,-74 782,-55 838,-55 838,-74"/>
<text text-anchor="middle" x="810" y="-62" font-family="Helvetica,sans-Serif" font-size="10.00">stddef.h</text>
</a>
</g>
</g>
<!-- Node14&#45;&gt;Node15 -->
<g id="edge15_Node000014_Node000015" class="edge">
<title>Node14&#45;&gt;Node15</title>
<g id="a_edge15_Node000014_Node000015"><a xlink:title=" ">
<path fill="none" stroke="#63b8ff" d="M686.62,-109.98C710.9,-101.23 748.95,-87.51 776.37,-77.62"/>
<polygon fill="#63b8ff" stroke="#63b8ff" points="777.73,-80.85 785.95,-74.17 775.36,-74.27 777.73,-80.85"/>
</a>
</g>
</g>
<!-- Node16 -->
<g id="Node000016" class="node">
<title>Node16</title>
<g id="a_Node000016"><a xlink:title=" ">
<polygon fill="#e0e0e0" stroke="#999999" points="909.5,-74 856.5,-74 856.5,-55 909.5,-55 909.5,-74"/>
<text text-anchor="middle" x="883" y="-62" font-family="Helvetica,sans-Serif" font-size="10.00">stdint.h</text>
</a>
</g>
</g>
<!-- Node14&#45;&gt;Node16 -->
<g id="edge16_Node000014_Node000016" class="edge">
<title>Node14&#45;&gt;Node16</title>
<g id="a_edge16_Node000014_Node000016"><a xlink:title=" ">
<path fill="none" stroke="#63b8ff" d="M698.35,-109.98C738.99,-100.19 805.39,-84.2 846.51,-74.29"/>
<polygon fill="#63b8ff" stroke="#63b8ff" points="847.49,-77.66 856.39,-71.91 845.85,-70.85 847.49,-77.66"/>
</a>
</g>
</g>
<!-- Node17 -->
<g id="Node000017" class="node">
<title>Node17</title>
<g id="a_Node000017"><a xlink:title=" ">
<polygon fill="#e0e0e0" stroke="#999999" points="521.5,-74 458.5,-74 458.5,-55 521.5,-55 521.5,-74"/>
<text text-anchor="middle" x="490" y="-62" font-family="Helvetica,sans-Serif" font-size="10.00">c_types.h</text>
</a>
</g>
</g>
<!-- Node14&#45;&gt;Node17 -->
<g id="edge17_Node000014_Node000017" class="edge">
<title>Node14&#45;&gt;Node17</title>
<g id="a_edge17_Node000014_Node000017"><a xlink:title=" ">
<path fill="none" stroke="#63b8ff" d="M635.2,-109.98C606.03,-101.05 560,-86.94 527.6,-77.02"/>
<polygon fill="#63b8ff" stroke="#63b8ff" points="528.6,-73.66 518.01,-74.08 526.55,-80.36 528.6,-73.66"/>
</a>
</g>
</g>
<!-- Node18 -->
<g id="Node000018" class="node">
<title>Node18</title>
<g id="a_Node000018"><a xlink:title=" ">
<polygon fill="#e0e0e0" stroke="#999999" points="614,-74 540,-74 540,-55 614,-55 614,-74"/>
<text text-anchor="middle" x="577" y="-62" font-family="Helvetica,sans-Serif" font-size="10.00">eagle_soc.h</text>
</a>
</g>
</g>
<!-- Node14&#45;&gt;Node18 -->
<g id="edge18_Node000014_Node000018" class="edge">
<title>Node14&#45;&gt;Node18</title>
<g id="a_edge18_Node000014_Node000018"><a xlink:title=" ">
<path fill="none" stroke="#63b8ff" d="M649.18,-109.98C635.85,-101.77 615.42,-89.18 599.69,-79.49"/>
<polygon fill="#63b8ff" stroke="#63b8ff" points="601.42,-76.44 591.07,-74.17 597.75,-82.4 601.42,-76.44"/>
</a>
</g>
</g>
<!-- Node19 -->
<g id="Node000019" class="node">
<title>Node19</title>
<g id="a_Node000019"><a xlink:title=" ">
<polygon fill="#e0e0e0" stroke="#999999" points="694,-74 632,-74 632,-55 694,-55 694,-74"/>
<text text-anchor="middle" x="663" y="-62" font-family="Helvetica,sans-Serif" font-size="10.00">ets_sys.h</text>
</a>
</g>
</g>
<!-- Node14&#45;&gt;Node19 -->
<g id="edge19_Node000014_Node000019" class="edge">
<title>Node14&#45;&gt;Node19</title>
<g id="a_edge19_Node000014_Node000019"><a xlink:title=" ">
<path fill="none" stroke="#63b8ff" d="M663,-109.75C663,-102.8 663,-92.85 663,-84.13"/>
<polygon fill="#63b8ff" stroke="#63b8ff" points="666.5,-84.09 663,-74.09 659.5,-84.09 666.5,-84.09"/>
</a>
</g>
</g>
<!-- Node20 -->
<g id="Node000020" class="node">
<title>Node20</title>
<g id="a_Node000020"><a xlink:title=" ">
<polygon fill="#e0e0e0" stroke="#999999" points="764,-74 712,-74 712,-55 764,-55 764,-74"/>
<text text-anchor="middle" x="738" y="-62" font-family="Helvetica,sans-Serif" font-size="10.00">osapi.h</text>
</a>
</g>
</g>
<!-- Node14&#45;&gt;Node20 -->
<g id="edge20_Node000014_Node000020" class="edge">
<title>Node14&#45;&gt;Node20</title>
<g id="a_edge20_Node000014_Node000020"><a xlink:title=" ">
<path fill="none" stroke="#63b8ff" d="M675.05,-109.98C686.46,-101.92 703.83,-89.65 717.43,-80.03"/>
<polygon fill="#63b8ff" stroke="#63b8ff" points="719.58,-82.8 725.73,-74.17 715.54,-77.08 719.58,-82.8"/>
</a>
</g>
</g>
<!-- Node22&#45;&gt;Node4 -->
<g id="edge25_Node000022_Node000004" class="edge">
<title>Node22&#45;&gt;Node4</title>
<g id="a_edge25_Node000022_Node000004"><a xlink:title=" ">
<path fill="none" stroke="#63b8ff" d="M370.85,-109.75C369.13,-102.72 366.65,-92.62 364.5,-83.84"/>
<polygon fill="#63b8ff" stroke="#63b8ff" points="367.89,-82.97 362.11,-74.09 361.09,-84.63 367.89,-82.97"/>
</a>
</g>
</g>
</g>
</svg>
