<?xml version="1.0" encoding="UTF-8" standalone="no"?>
<!DOCTYPE svg PUBLIC "-//W3C//DTD SVG 1.1//EN"
 "http://www.w3.org/Graphics/SVG/1.1/DTD/svg11.dtd">
<!-- Generated by graphviz version 2.43.0 (0)
 -->
<!-- Title: CBORObject.h Pages: 1 -->
<svg width="485pt" height="247pt"
 viewBox="0.00 0.00 485.48 247.00" xmlns="http://www.w3.org/2000/svg" xmlns:xlink="http://www.w3.org/1999/xlink">
<g id="graph0" class="graph" transform="scale(1 1) rotate(0) translate(4 243)">
<title>CBORObject.h</title>
<!-- Node1 -->
<g id="Node000001" class="node">
<title>Node1</title>
<g id="a_Node000001"><a xlink:title=" ">
<polygon fill="#999999" stroke="#666666" points="131.98,-239 46.98,-239 46.98,-220 131.98,-220 131.98,-239"/>
<text text-anchor="middle" x="89.48" y="-227" font-family="Helvetica,sans-Serif" font-size="10.00">CBORObject.h</text>
</a>
</g>
</g>
<!-- Node2 -->
<g id="Node000002" class="node">
<title>Node2</title>
<g id="a_Node000002"><a xlink:title=" ">
<polygon fill="#e0e0e0" stroke="#999999" points="74.98,-74 11.98,-74 11.98,-55 74.98,-55 74.98,-74"/>
<text text-anchor="middle" x="43.48" y="-62" font-family="Helvetica,sans-Serif" font-size="10.00">Arduino.h</text>
</a>
</g>
</g>
<!-- Node1&#45;&gt;Node2 -->
<g id="edge1_Node000001_Node000002" class="edge">
<title>Node1&#45;&gt;Node2</title>
<g id="a_edge1_Node000001_Node000002"><a xlink:title=" ">
<path fill="none" stroke="#63b8ff" d="M85.41,-219.94C77.52,-203 60.19,-163.8 51.48,-129 47.81,-114.31 45.78,-97.26 44.68,-84.53"/>
<polygon fill="#63b8ff" stroke="#63b8ff" points="48.15,-83.96 43.92,-74.25 41.17,-84.48 48.15,-83.96"/>
</a>
</g>
</g>
<!-- Node3 -->
<g id="Node000003" class="node">
<title>Node3</title>
<g id="a_Node000003"><a xlink:href="_bytes_8h.html" target="_top" xlink:title=" ">
<polygon fill="white" stroke="#666666" points="237.98,-184 184.98,-184 184.98,-165 237.98,-165 237.98,-184"/>
<text text-anchor="middle" x="211.48" y="-172" font-family="Helvetica,sans-Serif" font-size="10.00">Bytes.h</text>
</a>
</g>
</g>
<!-- Node1&#45;&gt;Node3 -->
<g id="edge2_Node000001_Node000003" class="edge">
<title>Node1&#45;&gt;Node3</title>
<g id="a_edge2_Node000001_Node000003"><a xlink:title=" ">
<path fill="none" stroke="#63b8ff" d="M109.08,-219.98C128.8,-211.42 159.44,-198.11 182.07,-188.28"/>
<polygon fill="#63b8ff" stroke="#63b8ff" points="183.75,-191.37 191.52,-184.17 180.96,-184.94 183.75,-191.37"/>
</a>
</g>
</g>
<!-- Node5 -->
<g id="Node000005" class="node">
<title>Node5</title>
<g id="a_Node000005"><a xlink:title=" ">
<polygon fill="#e0e0e0" stroke="#999999" points="97.48,-19 39.48,-19 39.48,0 97.48,0 97.48,-19"/>
<text text-anchor="middle" x="68.48" y="-7" font-family="Helvetica,sans-Serif" font-size="10.00">memory</text>
</a>
</g>
</g>
<!-- Node1&#45;&gt;Node5 -->
<g id="edge16_Node000001_Node000005" class="edge">
<title>Node1&#45;&gt;Node5</title>
<g id="a_edge16_Node000001_Node000005"><a xlink:title=" ">
<path fill="none" stroke="#63b8ff" d="M82.28,-219.85C64.22,-197.5 17.42,-135.31 2.48,-74 0.48,-65.8 -1.48,-62.46 2.48,-55 9.79,-41.25 23.45,-30.99 36.45,-23.8"/>
<polygon fill="#63b8ff" stroke="#63b8ff" points="38.37,-26.75 45.71,-19.11 35.2,-20.51 38.37,-26.75"/>
</a>
</g>
</g>
<!-- Node7 -->
<g id="Node000007" class="node">
<title>Node7</title>
<g id="a_Node000007"><a xlink:href="_logger_8h.html" target="_top" xlink:title=" ">
<polygon fill="white" stroke="#666666" points="118.48,-129 60.48,-129 60.48,-110 118.48,-110 118.48,-129"/>
<text text-anchor="middle" x="89.48" y="-117" font-family="Helvetica,sans-Serif" font-size="10.00">Logger.h</text>
</a>
</g>
</g>
<!-- Node1&#45;&gt;Node7 -->
<g id="edge14_Node000001_Node000007" class="edge">
<title>Node1&#45;&gt;Node7</title>
<g id="a_edge14_Node000001_Node000007"><a xlink:title=" ">
<path fill="none" stroke="#63b8ff" d="M89.48,-219.66C89.48,-202.17 89.48,-162.8 89.48,-139.27"/>
<polygon fill="#63b8ff" stroke="#63b8ff" points="92.98,-139.16 89.48,-129.16 85.98,-139.16 92.98,-139.16"/>
</a>
</g>
</g>
<!-- Node13 -->
<g id="Node000013" class="node">
<title>Node13</title>
<g id="a_Node000013"><a xlink:title=" ">
<polygon fill="#e0e0e0" stroke="#999999" points="316.98,-184 255.98,-184 255.98,-165 316.98,-165 316.98,-184"/>
<text text-anchor="middle" x="286.48" y="-172" font-family="Helvetica,sans-Serif" font-size="10.00">cn&#45;cbor.h</text>
</a>
</g>
</g>
<!-- Node1&#45;&gt;Node13 -->
<g id="edge15_Node000001_Node000013" class="edge">
<title>Node1&#45;&gt;Node13</title>
<g id="a_edge15_Node000001_Node000013"><a xlink:title=" ">
<path fill="none" stroke="#63b8ff" d="M121.13,-219.98C155.04,-210.86 208.94,-196.36 245.93,-186.41"/>
<polygon fill="#63b8ff" stroke="#63b8ff" points="247.13,-189.71 255.88,-183.73 245.32,-182.95 247.13,-189.71"/>
</a>
</g>
</g>
<!-- Node4 -->
<g id="Node000004" class="node">
<title>Node4</title>
<g id="a_Node000004"><a xlink:href="_common_8h.html" target="_top" xlink:title=" ">
<polygon fill="white" stroke="#666666" points="257.48,-74 187.48,-74 187.48,-55 257.48,-55 257.48,-74"/>
<text text-anchor="middle" x="222.48" y="-62" font-family="Helvetica,sans-Serif" font-size="10.00">Common.h</text>
</a>
</g>
</g>
<!-- Node3&#45;&gt;Node4 -->
<g id="edge3_Node000003_Node000004" class="edge">
<title>Node3&#45;&gt;Node4</title>
<g id="a_edge3_Node000003_Node000004"><a xlink:title=" ">
<path fill="none" stroke="#63b8ff" d="M238.29,-167.74C258.71,-161.79 285.47,-150.27 298.48,-129 311.91,-107.05 283.68,-89.07 257.9,-77.91"/>
<polygon fill="#63b8ff" stroke="#63b8ff" points="259.17,-74.65 248.59,-74.12 256.53,-81.13 259.17,-74.65"/>
</a>
</g>
</g>
<!-- Node3&#45;&gt;Node7 -->
<g id="edge6_Node000003_Node000007" class="edge">
<title>Node3&#45;&gt;Node7</title>
<g id="a_edge6_Node000003_Node000007"><a xlink:title=" ">
<path fill="none" stroke="#63b8ff" d="M191.88,-164.98C172.17,-156.42 141.53,-143.11 118.9,-133.28"/>
<polygon fill="#63b8ff" stroke="#63b8ff" points="120.01,-129.94 109.44,-129.17 117.22,-136.37 120.01,-129.94"/>
</a>
</g>
</g>
<!-- Node9 -->
<g id="Node000009" class="node">
<title>Node9</title>
<g id="a_Node000009"><a xlink:title=" ">
<polygon fill="#e0e0e0" stroke="#999999" points="409.48,-129 345.48,-129 345.48,-110 409.48,-110 409.48,-129"/>
<text text-anchor="middle" x="377.48" y="-117" font-family="Helvetica,sans-Serif" font-size="10.00">WString.h</text>
</a>
</g>
</g>
<!-- Node3&#45;&gt;Node9 -->
<g id="edge10_Node000003_Node000009" class="edge">
<title>Node3&#45;&gt;Node9</title>
<g id="a_edge10_Node000003_Node000009"><a xlink:title=" ">
<path fill="none" stroke="#63b8ff" d="M238.15,-164.98C266.02,-156.09 309.94,-142.07 341,-132.15"/>
<polygon fill="#63b8ff" stroke="#63b8ff" points="342.14,-135.46 350.6,-129.08 340.01,-128.79 342.14,-135.46"/>
</a>
</g>
</g>
<!-- Node10 -->
<g id="Node000010" class="node">
<title>Node10</title>
<g id="a_Node000010"><a xlink:title=" ">
<polygon fill="#e0e0e0" stroke="#999999" points="477.48,-129 427.48,-129 427.48,-110 477.48,-110 477.48,-129"/>
<text text-anchor="middle" x="452.48" y="-117" font-family="Helvetica,sans-Serif" font-size="10.00">stdio.h</text>
</a>
</g>
</g>
<!-- Node3&#45;&gt;Node10 -->
<g id="edge11_Node000003_Node000010" class="edge">
<title>Node3&#45;&gt;Node10</title>
<g id="a_edge11_Node000003_Node000010"><a xlink:title=" ">
<path fill="none" stroke="#63b8ff" d="M238.2,-167.11C241.33,-166.39 244.47,-165.67 247.48,-165 320.17,-148.77 341.1,-146.58 417.18,-129.23"/>
<polygon fill="#63b8ff" stroke="#63b8ff" points="418.29,-132.57 427.26,-126.92 416.73,-125.74 418.29,-132.57"/>
</a>
</g>
</g>
<!-- Node11 -->
<g id="Node000011" class="node">
<title>Node11</title>
<g id="a_Node000011"><a xlink:title=" ">
<polygon fill="#e0e0e0" stroke="#999999" points="201.98,-129 136.98,-129 136.98,-110 201.98,-110 201.98,-129"/>
<text text-anchor="middle" x="169.48" y="-117" font-family="Helvetica,sans-Serif" font-size="10.00">functional</text>
</a>
</g>
</g>
<!-- Node3&#45;&gt;Node11 -->
<g id="edge12_Node000003_Node000011" class="edge">
<title>Node3&#45;&gt;Node11</title>
<g id="a_edge12_Node000003_Node000011"><a xlink:title=" ">
<path fill="none" stroke="#63b8ff" d="M204.55,-164.75C198.61,-157.26 189.91,-146.28 182.66,-137.13"/>
<polygon fill="#63b8ff" stroke="#63b8ff" points="185.24,-134.75 176.29,-129.09 179.76,-139.1 185.24,-134.75"/>
</a>
</g>
</g>
<!-- Node12 -->
<g id="Node000012" class="node">
<title>Node12</title>
<g id="a_Node000012"><a xlink:title=" ">
<polygon fill="#e0e0e0" stroke="#999999" points="288.98,-129 219.98,-129 219.98,-110 288.98,-110 288.98,-129"/>
<text text-anchor="middle" x="254.48" y="-117" font-family="Helvetica,sans-Serif" font-size="10.00">type_traits</text>
</a>
</g>
</g>
<!-- Node3&#45;&gt;Node12 -->
<g id="edge13_Node000003_Node000012" class="edge">
<title>Node3&#45;&gt;Node12</title>
<g id="a_edge13_Node000003_Node000012"><a xlink:title=" ">
<path fill="none" stroke="#63b8ff" d="M218.58,-164.75C224.66,-157.26 233.57,-146.28 240.99,-137.13"/>
<polygon fill="#63b8ff" stroke="#63b8ff" points="243.93,-139.06 247.51,-129.09 238.5,-134.65 243.93,-139.06"/>
</a>
</g>
</g>
<!-- Node4&#45;&gt;Node5 -->
<g id="edge4_Node000004_Node000005" class="edge">
<title>Node4&#45;&gt;Node5</title>
<g id="a_edge4_Node000004_Node000005"><a xlink:title=" ">
<path fill="none" stroke="#63b8ff" d="M197.74,-54.98C172.11,-46.16 131.85,-32.31 103.08,-22.41"/>
<polygon fill="#63b8ff" stroke="#63b8ff" points="104.01,-19.03 93.42,-19.08 101.74,-25.65 104.01,-19.03"/>
</a>
</g>
</g>
<!-- Node6 -->
<g id="Node000006" class="node">
<title>Node6</title>
<g id="a_Node000006"><a xlink:title=" ">
<polygon fill="#e0e0e0" stroke="#999999" points="244.98,-19 199.98,-19 199.98,0 244.98,0 244.98,-19"/>
<text text-anchor="middle" x="222.48" y="-7" font-family="Helvetica,sans-Serif" font-size="10.00">utility</text>
</a>
</g>
</g>
<!-- Node4&#45;&gt;Node6 -->
<g id="edge5_Node000004_Node000006" class="edge">
<title>Node4&#45;&gt;Node6</title>
<g id="a_edge5_Node000004_Node000006"><a xlink:title=" ">
<path fill="none" stroke="#63b8ff" d="M222.48,-54.75C222.48,-47.8 222.48,-37.85 222.48,-29.13"/>
<polygon fill="#63b8ff" stroke="#63b8ff" points="225.98,-29.09 222.48,-19.09 218.98,-29.09 225.98,-29.09"/>
</a>
</g>
</g>
<!-- Node7&#45;&gt;Node2 -->
<g id="edge8_Node000007_Node000002" class="edge">
<title>Node7&#45;&gt;Node2</title>
<g id="a_edge8_Node000007_Node000002"><a xlink:title=" ">
<path fill="none" stroke="#63b8ff" d="M81.89,-109.75C75.32,-102.18 65.66,-91.05 57.67,-81.84"/>
<polygon fill="#63b8ff" stroke="#63b8ff" points="60.14,-79.35 50.94,-74.09 54.85,-83.94 60.14,-79.35"/>
</a>
</g>
</g>
<!-- Node7&#45;&gt;Node4 -->
<g id="edge7_Node000007_Node000004" class="edge">
<title>Node7&#45;&gt;Node4</title>
<g id="a_edge7_Node000007_Node000004"><a xlink:title=" ">
<path fill="none" stroke="#63b8ff" d="M110.85,-109.98C132.63,-101.3 166.64,-87.75 191.4,-77.88"/>
<polygon fill="#63b8ff" stroke="#63b8ff" points="192.73,-81.12 200.72,-74.17 190.14,-74.62 192.73,-81.12"/>
</a>
</g>
</g>
<!-- Node8 -->
<g id="Node000008" class="node">
<title>Node8</title>
<g id="a_Node000008"><a xlink:title=" ">
<polygon fill="#e0e0e0" stroke="#999999" points="169.48,-74 93.48,-74 93.48,-55 169.48,-55 169.48,-74"/>
<text text-anchor="middle" x="131.48" y="-62" font-family="Helvetica,sans-Serif" font-size="10.00">pgmspace.h</text>
</a>
</g>
</g>
<!-- Node7&#45;&gt;Node8 -->
<g id="edge9_Node000007_Node000008" class="edge">
<title>Node7&#45;&gt;Node8</title>
<g id="a_edge9_Node000007_Node000008"><a xlink:title=" ">
<path fill="none" stroke="#63b8ff" d="M96.42,-109.75C102.35,-102.26 111.05,-91.28 118.31,-82.13"/>
<polygon fill="#63b8ff" stroke="#63b8ff" points="121.21,-84.1 124.68,-74.09 115.72,-79.75 121.21,-84.1"/>
</a>
</g>
</g>
</g>
</svg>
