<?xml version="1.0" encoding="UTF-8" standalone="no"?>
<!DOCTYPE svg PUBLIC "-//W3C//DTD SVG 1.1//EN"
 "http://www.w3.org/Graphics/SVG/1.1/DTD/svg11.dtd">
<!-- Generated by graphviz version 2.43.0 (0)
 -->
<!-- Title: CallbackMQTTDevice.h Pages: 1 -->
<svg width="537pt" height="302pt"
 viewBox="0.00 0.00 536.52 302.00" xmlns="http://www.w3.org/2000/svg" xmlns:xlink="http://www.w3.org/1999/xlink">
<g id="graph0" class="graph" transform="scale(1 1) rotate(0) translate(4 298)">
<title>CallbackMQTTDevice.h</title>
<!-- Node1 -->
<g id="Node000001" class="node">
<title>Node1</title>
<g id="a_Node000001"><a xlink:title=" ">
<polygon fill="#999999" stroke="#666666" points="247.52,-294 117.52,-294 117.52,-275 247.52,-275 247.52,-294"/>
<text text-anchor="middle" x="182.52" y="-282" font-family="Helvetica,sans-Serif" font-size="10.00">CallbackMQTTDevice.h</text>
</a>
</g>
</g>
<!-- Node2 -->
<g id="Node000002" class="node">
<title>Node2</title>
<g id="a_Node000002"><a xlink:title=" ">
<polygon fill="#e0e0e0" stroke="#999999" points="86.02,-74 21.02,-74 21.02,-55 86.02,-55 86.02,-74"/>
<text text-anchor="middle" x="53.52" y="-62" font-family="Helvetica,sans-Serif" font-size="10.00">functional</text>
</a>
</g>
</g>
<!-- Node1&#45;&gt;Node2 -->
<g id="edge1_Node000001_Node000002" class="edge">
<title>Node1&#45;&gt;Node2</title>
<g id="a_edge1_Node000001_Node000002"><a xlink:title=" ">
<path fill="none" stroke="#63b8ff" d="M163.57,-274.99C123.69,-255.82 32.3,-204.91 2.52,-129 -0.57,-121.14 -0.98,-117.69 2.52,-110 8.14,-97.63 19.09,-87.36 29.4,-79.81"/>
<polygon fill="#63b8ff" stroke="#63b8ff" points="31.48,-82.63 37.79,-74.12 27.55,-76.84 31.48,-82.63"/>
</a>
</g>
</g>
<!-- Node3 -->
<g id="Node000003" class="node">
<title>Node3</title>
<g id="a_Node000003"><a xlink:href="_m_q_t_t_device_8h.html" target="_top" xlink:title=" ">
<polygon fill="white" stroke="#666666" points="226.52,-239 138.52,-239 138.52,-220 226.52,-220 226.52,-239"/>
<text text-anchor="middle" x="182.52" y="-227" font-family="Helvetica,sans-Serif" font-size="10.00">MQTTDevice.h</text>
</a>
</g>
</g>
<!-- Node1&#45;&gt;Node3 -->
<g id="edge2_Node000001_Node000003" class="edge">
<title>Node1&#45;&gt;Node3</title>
<g id="a_edge2_Node000001_Node000003"><a xlink:title=" ">
<path fill="none" stroke="#63b8ff" d="M182.52,-274.75C182.52,-267.8 182.52,-257.85 182.52,-249.13"/>
<polygon fill="#63b8ff" stroke="#63b8ff" points="186.02,-249.09 182.52,-239.09 179.02,-249.09 186.02,-249.09"/>
</a>
</g>
</g>
<!-- Node8 -->
<g id="Node000008" class="node">
<title>Node8</title>
<g id="a_Node000008"><a xlink:href="_logger_8h.html" target="_top" xlink:title=" ">
<polygon fill="white" stroke="#666666" points="485.52,-129 427.52,-129 427.52,-110 485.52,-110 485.52,-129"/>
<text text-anchor="middle" x="456.52" y="-117" font-family="Helvetica,sans-Serif" font-size="10.00">Logger.h</text>
</a>
</g>
</g>
<!-- Node1&#45;&gt;Node8 -->
<g id="edge19_Node000001_Node000008" class="edge">
<title>Node1&#45;&gt;Node8</title>
<g id="a_edge19_Node000001_Node000008"><a xlink:title=" ">
<path fill="none" stroke="#63b8ff" d="M196.86,-274.97C241.52,-248.4 378.33,-167.01 433.3,-134.31"/>
<polygon fill="#63b8ff" stroke="#63b8ff" points="435.18,-137.27 441.98,-129.15 431.6,-131.25 435.18,-137.27"/>
</a>
</g>
</g>
<!-- Node4 -->
<g id="Node000004" class="node">
<title>Node4</title>
<g id="a_Node000004"><a xlink:href="_bytes_8h.html" target="_top" xlink:title=" ">
<polygon fill="white" stroke="#666666" points="281.02,-184 228.02,-184 228.02,-165 281.02,-165 281.02,-184"/>
<text text-anchor="middle" x="254.52" y="-172" font-family="Helvetica,sans-Serif" font-size="10.00">Bytes.h</text>
</a>
</g>
</g>
<!-- Node3&#45;&gt;Node4 -->
<g id="edge3_Node000003_Node000004" class="edge">
<title>Node3&#45;&gt;Node4</title>
<g id="a_edge3_Node000003_Node000004"><a xlink:title=" ">
<path fill="none" stroke="#63b8ff" d="M194.09,-219.98C204.94,-212 221.4,-199.88 234.4,-190.31"/>
<polygon fill="#63b8ff" stroke="#63b8ff" points="236.76,-192.92 242.74,-184.17 232.61,-187.28 236.76,-192.92"/>
</a>
</g>
</g>
<!-- Node14 -->
<g id="Node000014" class="node">
<title>Node14</title>
<g id="a_Node000014"><a xlink:href="_iterable_queue_8h.html" target="_top" xlink:title=" ">
<polygon fill="white" stroke="#666666" points="158.02,-184 63.02,-184 63.02,-165 158.02,-165 158.02,-184"/>
<text text-anchor="middle" x="110.52" y="-172" font-family="Helvetica,sans-Serif" font-size="10.00">IterableQueue.h</text>
</a>
</g>
</g>
<!-- Node3&#45;&gt;Node14 -->
<g id="edge15_Node000003_Node000014" class="edge">
<title>Node3&#45;&gt;Node14</title>
<g id="a_edge15_Node000003_Node000014"><a xlink:title=" ">
<path fill="none" stroke="#63b8ff" d="M170.95,-219.98C160.1,-212 143.64,-199.88 130.63,-190.31"/>
<polygon fill="#63b8ff" stroke="#63b8ff" points="132.43,-187.28 122.3,-184.17 128.28,-192.92 132.43,-187.28"/>
</a>
</g>
</g>
<!-- Node4&#45;&gt;Node2 -->
<g id="edge13_Node000004_Node000002" class="edge">
<title>Node4&#45;&gt;Node2</title>
<g id="a_edge13_Node000004_Node000002"><a xlink:title=" ">
<path fill="none" stroke="#63b8ff" d="M227.91,-164.97C204.69,-157.05 170.44,-144.22 142.52,-129 116.69,-114.92 89.51,-94.62 72.09,-80.78"/>
<polygon fill="#63b8ff" stroke="#63b8ff" points="73.91,-77.75 63.92,-74.21 69.52,-83.21 73.91,-77.75"/>
</a>
</g>
</g>
<!-- Node5 -->
<g id="Node000005" class="node">
<title>Node5</title>
<g id="a_Node000005"><a xlink:href="_common_8h.html" target="_top" xlink:title=" ">
<polygon fill="white" stroke="#666666" points="434.52,-74 364.52,-74 364.52,-55 434.52,-55 434.52,-74"/>
<text text-anchor="middle" x="399.52" y="-62" font-family="Helvetica,sans-Serif" font-size="10.00">Common.h</text>
</a>
</g>
</g>
<!-- Node4&#45;&gt;Node5 -->
<g id="edge4_Node000004_Node000005" class="edge">
<title>Node4&#45;&gt;Node5</title>
<g id="a_edge4_Node000004_Node000005"><a xlink:title=" ">
<path fill="none" stroke="#63b8ff" d="M281.21,-171.1C309.68,-167.13 354.2,-156.63 380.52,-129 392.04,-116.9 396.6,-98.1 398.4,-84.09"/>
<polygon fill="#63b8ff" stroke="#63b8ff" points="401.88,-84.38 399.32,-74.11 394.91,-83.74 401.88,-84.38"/>
</a>
</g>
</g>
<!-- Node4&#45;&gt;Node8 -->
<g id="edge7_Node000004_Node000008" class="edge">
<title>Node4&#45;&gt;Node8</title>
<g id="a_edge7_Node000004_Node000008"><a xlink:title=" ">
<path fill="none" stroke="#63b8ff" d="M281.34,-166.46C316.27,-157.3 377.56,-141.22 417.6,-130.71"/>
<polygon fill="#63b8ff" stroke="#63b8ff" points="418.51,-134.09 427.29,-128.17 416.73,-127.32 418.51,-134.09"/>
</a>
</g>
</g>
<!-- Node11 -->
<g id="Node000011" class="node">
<title>Node11</title>
<g id="a_Node000011"><a xlink:title=" ">
<polygon fill="#e0e0e0" stroke="#999999" points="371.52,-129 307.52,-129 307.52,-110 371.52,-110 371.52,-129"/>
<text text-anchor="middle" x="339.52" y="-117" font-family="Helvetica,sans-Serif" font-size="10.00">WString.h</text>
</a>
</g>
</g>
<!-- Node4&#45;&gt;Node11 -->
<g id="edge11_Node000004_Node000011" class="edge">
<title>Node4&#45;&gt;Node11</title>
<g id="a_edge11_Node000004_Node000011"><a xlink:title=" ">
<path fill="none" stroke="#63b8ff" d="M268.18,-164.98C281.36,-156.77 301.55,-144.18 317.09,-134.49"/>
<polygon fill="#63b8ff" stroke="#63b8ff" points="318.98,-137.43 325.61,-129.17 315.28,-131.49 318.98,-137.43"/>
</a>
</g>
</g>
<!-- Node12 -->
<g id="Node000012" class="node">
<title>Node12</title>
<g id="a_Node000012"><a xlink:title=" ">
<polygon fill="#e0e0e0" stroke="#999999" points="201.52,-129 151.52,-129 151.52,-110 201.52,-110 201.52,-129"/>
<text text-anchor="middle" x="176.52" y="-117" font-family="Helvetica,sans-Serif" font-size="10.00">stdio.h</text>
</a>
</g>
</g>
<!-- Node4&#45;&gt;Node12 -->
<g id="edge12_Node000004_Node000012" class="edge">
<title>Node4&#45;&gt;Node12</title>
<g id="a_edge12_Node000004_Node000012"><a xlink:title=" ">
<path fill="none" stroke="#63b8ff" d="M241.99,-164.98C230.12,-156.92 212.05,-144.65 197.91,-135.03"/>
<polygon fill="#63b8ff" stroke="#63b8ff" points="199.52,-131.9 189.28,-129.17 195.58,-137.69 199.52,-131.9"/>
</a>
</g>
</g>
<!-- Node13 -->
<g id="Node000013" class="node">
<title>Node13</title>
<g id="a_Node000013"><a xlink:title=" ">
<polygon fill="#e0e0e0" stroke="#999999" points="289.02,-129 220.02,-129 220.02,-110 289.02,-110 289.02,-129"/>
<text text-anchor="middle" x="254.52" y="-117" font-family="Helvetica,sans-Serif" font-size="10.00">type_traits</text>
</a>
</g>
</g>
<!-- Node4&#45;&gt;Node13 -->
<g id="edge14_Node000004_Node000013" class="edge">
<title>Node4&#45;&gt;Node13</title>
<g id="a_edge14_Node000004_Node000013"><a xlink:title=" ">
<path fill="none" stroke="#63b8ff" d="M254.52,-164.75C254.52,-157.8 254.52,-147.85 254.52,-139.13"/>
<polygon fill="#63b8ff" stroke="#63b8ff" points="258.02,-139.09 254.52,-129.09 251.02,-139.09 258.02,-139.09"/>
</a>
</g>
</g>
<!-- Node6 -->
<g id="Node000006" class="node">
<title>Node6</title>
<g id="a_Node000006"><a xlink:title=" ">
<polygon fill="#e0e0e0" stroke="#999999" points="393.52,-19 335.52,-19 335.52,0 393.52,0 393.52,-19"/>
<text text-anchor="middle" x="364.52" y="-7" font-family="Helvetica,sans-Serif" font-size="10.00">memory</text>
</a>
</g>
</g>
<!-- Node5&#45;&gt;Node6 -->
<g id="edge5_Node000005_Node000006" class="edge">
<title>Node5&#45;&gt;Node6</title>
<g id="a_edge5_Node000005_Node000006"><a xlink:title=" ">
<path fill="none" stroke="#63b8ff" d="M393.74,-54.75C388.9,-47.42 381.84,-36.73 375.87,-27.7"/>
<polygon fill="#63b8ff" stroke="#63b8ff" points="378.62,-25.5 370.19,-19.09 372.78,-29.36 378.62,-25.5"/>
</a>
</g>
</g>
<!-- Node7 -->
<g id="Node000007" class="node">
<title>Node7</title>
<g id="a_Node000007"><a xlink:title=" ">
<polygon fill="#e0e0e0" stroke="#999999" points="457.02,-19 412.02,-19 412.02,0 457.02,0 457.02,-19"/>
<text text-anchor="middle" x="434.52" y="-7" font-family="Helvetica,sans-Serif" font-size="10.00">utility</text>
</a>
</g>
</g>
<!-- Node5&#45;&gt;Node7 -->
<g id="edge6_Node000005_Node000007" class="edge">
<title>Node5&#45;&gt;Node7</title>
<g id="a_edge6_Node000005_Node000007"><a xlink:title=" ">
<path fill="none" stroke="#63b8ff" d="M405.3,-54.75C410.14,-47.42 417.2,-36.73 423.16,-27.7"/>
<polygon fill="#63b8ff" stroke="#63b8ff" points="426.26,-29.36 428.85,-19.09 420.42,-25.5 426.26,-29.36"/>
</a>
</g>
</g>
<!-- Node8&#45;&gt;Node5 -->
<g id="edge8_Node000008_Node000005" class="edge">
<title>Node8&#45;&gt;Node5</title>
<g id="a_edge8_Node000008_Node000005"><a xlink:title=" ">
<path fill="none" stroke="#63b8ff" d="M447.36,-109.98C439.02,-102.23 426.49,-90.58 416.34,-81.14"/>
<polygon fill="#63b8ff" stroke="#63b8ff" points="418.55,-78.42 408.84,-74.17 413.78,-83.54 418.55,-78.42"/>
</a>
</g>
</g>
<!-- Node9 -->
<g id="Node000009" class="node">
<title>Node9</title>
<g id="a_Node000009"><a xlink:title=" ">
<polygon fill="#e0e0e0" stroke="#999999" points="257.02,-74 194.02,-74 194.02,-55 257.02,-55 257.02,-74"/>
<text text-anchor="middle" x="225.52" y="-62" font-family="Helvetica,sans-Serif" font-size="10.00">Arduino.h</text>
</a>
</g>
</g>
<!-- Node8&#45;&gt;Node9 -->
<g id="edge9_Node000008_Node000009" class="edge">
<title>Node8&#45;&gt;Node9</title>
<g id="a_edge9_Node000008_Node000009"><a xlink:title=" ">
<path fill="none" stroke="#63b8ff" d="M427.26,-111.79C386.74,-102.49 313.32,-85.65 267.11,-75.04"/>
<polygon fill="#63b8ff" stroke="#63b8ff" points="267.65,-71.58 257.12,-72.75 266.09,-78.4 267.65,-71.58"/>
</a>
</g>
</g>
<!-- Node10 -->
<g id="Node000010" class="node">
<title>Node10</title>
<g id="a_Node000010"><a xlink:title=" ">
<polygon fill="#e0e0e0" stroke="#999999" points="528.52,-74 452.52,-74 452.52,-55 528.52,-55 528.52,-74"/>
<text text-anchor="middle" x="490.52" y="-62" font-family="Helvetica,sans-Serif" font-size="10.00">pgmspace.h</text>
</a>
</g>
</g>
<!-- Node8&#45;&gt;Node10 -->
<g id="edge10_Node000008_Node000010" class="edge">
<title>Node8&#45;&gt;Node10</title>
<g id="a_edge10_Node000008_Node000010"><a xlink:title=" ">
<path fill="none" stroke="#63b8ff" d="M462.13,-109.75C466.84,-102.42 473.69,-91.73 479.49,-82.7"/>
<polygon fill="#63b8ff" stroke="#63b8ff" points="482.55,-84.4 485.01,-74.09 476.66,-80.62 482.55,-84.4"/>
</a>
</g>
</g>
<!-- Node15 -->
<g id="Node000015" class="node">
<title>Node15</title>
<g id="a_Node000015"><a xlink:href="_clear_queue_8h.html" target="_top" xlink:title=" ">
<polygon fill="white" stroke="#666666" points="95.02,-129 12.02,-129 12.02,-110 95.02,-110 95.02,-129"/>
<text text-anchor="middle" x="53.52" y="-117" font-family="Helvetica,sans-Serif" font-size="10.00">ClearQueue.h</text>
</a>
</g>
</g>
<!-- Node14&#45;&gt;Node15 -->
<g id="edge16_Node000014_Node000015" class="edge">
<title>Node14&#45;&gt;Node15</title>
<g id="a_edge16_Node000014_Node000015"><a xlink:title=" ">
<path fill="none" stroke="#63b8ff" d="M101.36,-164.98C93.02,-157.23 80.49,-145.58 70.34,-136.14"/>
<polygon fill="#63b8ff" stroke="#63b8ff" points="72.55,-133.42 62.84,-129.17 67.78,-138.54 72.55,-133.42"/>
</a>
</g>
</g>
<!-- Node15&#45;&gt;Node2 -->
<g id="edge18_Node000015_Node000002" class="edge">
<title>Node15&#45;&gt;Node2</title>
<g id="a_edge18_Node000015_Node000002"><a xlink:title=" ">
<path fill="none" stroke="#63b8ff" d="M53.52,-109.75C53.52,-102.8 53.52,-92.85 53.52,-84.13"/>
<polygon fill="#63b8ff" stroke="#63b8ff" points="57.02,-84.09 53.52,-74.09 50.02,-84.09 57.02,-84.09"/>
</a>
</g>
</g>
<!-- Node15&#45;&gt;Node9 -->
<g id="edge17_Node000015_Node000009" class="edge">
<title>Node15&#45;&gt;Node9</title>
<g id="a_edge17_Node000015_Node000009"><a xlink:title=" ">
<path fill="none" stroke="#63b8ff" d="M81.15,-109.98C110.03,-101.09 155.53,-87.07 187.72,-77.15"/>
<polygon fill="#63b8ff" stroke="#63b8ff" points="189.14,-80.37 197.67,-74.08 187.08,-73.68 189.14,-80.37"/>
</a>
</g>
</g>
</g>
</svg>
