<?xml version="1.0" encoding="UTF-8" standalone="no"?>
<!DOCTYPE svg PUBLIC "-//W3C//DTD SVG 1.1//EN"
 "http://www.w3.org/Graphics/SVG/1.1/DTD/svg11.dtd">
<!-- Generated by graphviz version 2.43.0 (0)
 -->
<!-- Title: DataChannels.cpp Pages: 1 -->
<svg width="575pt" height="302pt"
 viewBox="0.00 0.00 575.00 302.00" xmlns="http://www.w3.org/2000/svg" xmlns:xlink="http://www.w3.org/1999/xlink">
<g id="graph0" class="graph" transform="scale(1 1) rotate(0) translate(4 298)">
<title>DataChannels.cpp</title>
<!-- Node1 -->
<g id="Node000001" class="node">
<title>Node1</title>
<g id="a_Node000001"><a xlink:title=" ">
<polygon fill="#999999" stroke="#666666" points="256.5,-294 151.5,-294 151.5,-275 256.5,-275 256.5,-294"/>
<text text-anchor="middle" x="204" y="-282" font-family="Helvetica,sans-Serif" font-size="10.00">DataChannels.cpp</text>
</a>
</g>
</g>
<!-- Node2 -->
<g id="Node000002" class="node">
<title>Node2</title>
<g id="a_Node000002"><a xlink:href="_data_channels_8h.html" target="_top" xlink:title=" ">
<polygon fill="white" stroke="#666666" points="348,-239 254,-239 254,-220 348,-220 348,-239"/>
<text text-anchor="middle" x="301" y="-227" font-family="Helvetica,sans-Serif" font-size="10.00">DataChannels.h</text>
</a>
</g>
</g>
<!-- Node1&#45;&gt;Node2 -->
<g id="edge1_Node000001_Node000002" class="edge">
<title>Node1&#45;&gt;Node2</title>
<g id="a_edge1_Node000001_Node000002"><a xlink:title=" ">
<path fill="none" stroke="#63b8ff" d="M219.58,-274.98C234.77,-266.69 258.1,-253.94 275.9,-244.22"/>
<polygon fill="#63b8ff" stroke="#63b8ff" points="278.03,-247.04 285.13,-239.17 274.68,-240.89 278.03,-247.04"/>
</a>
</g>
</g>
<!-- Node7 -->
<g id="Node000007" class="node">
<title>Node7</title>
<g id="a_Node000007"><a xlink:href="_logger_8h.html" target="_top" xlink:title=" ">
<polygon fill="white" stroke="#666666" points="58,-129 0,-129 0,-110 58,-110 58,-129"/>
<text text-anchor="middle" x="29" y="-117" font-family="Helvetica,sans-Serif" font-size="10.00">Logger.h</text>
</a>
</g>
</g>
<!-- Node1&#45;&gt;Node7 -->
<g id="edge22_Node000001_Node000007" class="edge">
<title>Node1&#45;&gt;Node7</title>
<g id="a_edge22_Node000001_Node000007"><a xlink:title=" ">
<path fill="none" stroke="#63b8ff" d="M194.59,-274.74C166.34,-248.42 81.99,-169.85 45.8,-136.14"/>
<polygon fill="#63b8ff" stroke="#63b8ff" points="48.16,-133.56 38.46,-129.31 43.39,-138.68 48.16,-133.56"/>
</a>
</g>
</g>
<!-- Node3 -->
<g id="Node000003" class="node">
<title>Node3</title>
<g id="a_Node000003"><a xlink:href="_bytes_8h.html" target="_top" xlink:title=" ">
<polygon fill="white" stroke="#666666" points="287.5,-184 234.5,-184 234.5,-165 287.5,-165 287.5,-184"/>
<text text-anchor="middle" x="261" y="-172" font-family="Helvetica,sans-Serif" font-size="10.00">Bytes.h</text>
</a>
</g>
</g>
<!-- Node2&#45;&gt;Node3 -->
<g id="edge2_Node000002_Node000003" class="edge">
<title>Node2&#45;&gt;Node3</title>
<g id="a_edge2_Node000002_Node000003"><a xlink:title=" ">
<path fill="none" stroke="#63b8ff" d="M294.39,-219.75C288.74,-212.26 280.46,-201.28 273.55,-192.13"/>
<polygon fill="#63b8ff" stroke="#63b8ff" points="276.3,-189.96 267.48,-184.09 270.71,-194.18 276.3,-189.96"/>
</a>
</g>
</g>
<!-- Node14 -->
<g id="Node000014" class="node">
<title>Node14</title>
<g id="a_Node000014"><a xlink:href="_limited_queue_8h.html" target="_top" xlink:title=" ">
<polygon fill="white" stroke="#666666" points="567,-184 473,-184 473,-165 567,-165 567,-184"/>
<text text-anchor="middle" x="520" y="-172" font-family="Helvetica,sans-Serif" font-size="10.00">LimitedQueue.h</text>
</a>
</g>
</g>
<!-- Node2&#45;&gt;Node14 -->
<g id="edge14_Node000002_Node000014" class="edge">
<title>Node2&#45;&gt;Node14</title>
<g id="a_edge14_Node000002_Node000014"><a xlink:title=" ">
<path fill="none" stroke="#63b8ff" d="M336.19,-219.98C373.83,-210.87 433.66,-196.4 474.77,-186.45"/>
<polygon fill="#63b8ff" stroke="#63b8ff" points="475.64,-189.84 484.54,-184.08 474,-183.03 475.64,-189.84"/>
</a>
</g>
</g>
<!-- Node16 -->
<g id="Node000016" class="node">
<title>Node16</title>
<g id="a_Node000016"><a xlink:href="_map_8h.html" target="_top" xlink:title=" ">
<polygon fill="white" stroke="#666666" points="423.5,-184 376.5,-184 376.5,-165 423.5,-165 423.5,-184"/>
<text text-anchor="middle" x="400" y="-172" font-family="Helvetica,sans-Serif" font-size="10.00">Map.h</text>
</a>
</g>
</g>
<!-- Node2&#45;&gt;Node16 -->
<g id="edge18_Node000002_Node000016" class="edge">
<title>Node2&#45;&gt;Node16</title>
<g id="a_edge18_Node000002_Node000016"><a xlink:title=" ">
<path fill="none" stroke="#63b8ff" d="M316.91,-219.98C332.55,-211.61 356.66,-198.7 374.88,-188.95"/>
<polygon fill="#63b8ff" stroke="#63b8ff" points="376.64,-191.98 383.8,-184.17 373.34,-185.8 376.64,-191.98"/>
</a>
</g>
</g>
<!-- Node4 -->
<g id="Node000004" class="node">
<title>Node4</title>
<g id="a_Node000004"><a xlink:href="_common_8h.html" target="_top" xlink:title=" ">
<polygon fill="white" stroke="#666666" points="334,-74 264,-74 264,-55 334,-55 334,-74"/>
<text text-anchor="middle" x="299" y="-62" font-family="Helvetica,sans-Serif" font-size="10.00">Common.h</text>
</a>
</g>
</g>
<!-- Node3&#45;&gt;Node4 -->
<g id="edge3_Node000003_Node000004" class="edge">
<title>Node3&#45;&gt;Node4</title>
<g id="a_edge3_Node000003_Node000004"><a xlink:title=" ">
<path fill="none" stroke="#63b8ff" d="M273.49,-164.93C283.87,-156.99 297.88,-144.14 304,-129 309.83,-114.58 307.74,-96.84 304.68,-83.78"/>
<polygon fill="#63b8ff" stroke="#63b8ff" points="308.05,-82.81 302.03,-74.09 301.29,-84.66 308.05,-82.81"/>
</a>
</g>
</g>
<!-- Node3&#45;&gt;Node7 -->
<g id="edge6_Node000003_Node000007" class="edge">
<title>Node3&#45;&gt;Node7</title>
<g id="a_edge6_Node000003_Node000007"><a xlink:title=" ">
<path fill="none" stroke="#63b8ff" d="M234.39,-167.42C193.58,-158.1 115.33,-140.22 68.08,-129.43"/>
<polygon fill="#63b8ff" stroke="#63b8ff" points="68.74,-125.99 58.21,-127.17 67.18,-132.81 68.74,-125.99"/>
</a>
</g>
</g>
<!-- Node10 -->
<g id="Node000010" class="node">
<title>Node10</title>
<g id="a_Node000010"><a xlink:title=" ">
<polygon fill="#e0e0e0" stroke="#999999" points="140,-129 76,-129 76,-110 140,-110 140,-129"/>
<text text-anchor="middle" x="108" y="-117" font-family="Helvetica,sans-Serif" font-size="10.00">WString.h</text>
</a>
</g>
</g>
<!-- Node3&#45;&gt;Node10 -->
<g id="edge10_Node000003_Node000010" class="edge">
<title>Node3&#45;&gt;Node10</title>
<g id="a_edge10_Node000003_Node000010"><a xlink:title=" ">
<path fill="none" stroke="#63b8ff" d="M236.42,-164.98C210.95,-156.16 170.96,-142.31 142.37,-132.41"/>
<polygon fill="#63b8ff" stroke="#63b8ff" points="143.37,-129.05 132.77,-129.08 141.08,-135.66 143.37,-129.05"/>
</a>
</g>
</g>
<!-- Node11 -->
<g id="Node000011" class="node">
<title>Node11</title>
<g id="a_Node000011"><a xlink:title=" ">
<polygon fill="#e0e0e0" stroke="#999999" points="208,-129 158,-129 158,-110 208,-110 208,-129"/>
<text text-anchor="middle" x="183" y="-117" font-family="Helvetica,sans-Serif" font-size="10.00">stdio.h</text>
</a>
</g>
</g>
<!-- Node3&#45;&gt;Node11 -->
<g id="edge11_Node000003_Node000011" class="edge">
<title>Node3&#45;&gt;Node11</title>
<g id="a_edge11_Node000003_Node000011"><a xlink:title=" ">
<path fill="none" stroke="#63b8ff" d="M248.47,-164.98C236.6,-156.92 218.54,-144.65 204.39,-135.03"/>
<polygon fill="#63b8ff" stroke="#63b8ff" points="206,-131.9 195.76,-129.17 202.06,-137.69 206,-131.9"/>
</a>
</g>
</g>
<!-- Node12 -->
<g id="Node000012" class="node">
<title>Node12</title>
<g id="a_Node000012"><a xlink:title=" ">
<polygon fill="#e0e0e0" stroke="#999999" points="461.5,-19 396.5,-19 396.5,0 461.5,0 461.5,-19"/>
<text text-anchor="middle" x="429" y="-7" font-family="Helvetica,sans-Serif" font-size="10.00">functional</text>
</a>
</g>
</g>
<!-- Node3&#45;&gt;Node12 -->
<g id="edge12_Node000003_Node000012" class="edge">
<title>Node3&#45;&gt;Node12</title>
<g id="a_edge12_Node000003_Node000012"><a xlink:title=" ">
<path fill="none" stroke="#63b8ff" d="M273.72,-164.92C286.03,-156.38 304.98,-142.62 320,-129 357.09,-95.36 395.64,-50.78 415.45,-27.04"/>
<polygon fill="#63b8ff" stroke="#63b8ff" points="418.4,-28.96 422.08,-19.03 413.01,-24.5 418.4,-28.96"/>
</a>
</g>
</g>
<!-- Node13 -->
<g id="Node000013" class="node">
<title>Node13</title>
<g id="a_Node000013"><a xlink:title=" ">
<polygon fill="#e0e0e0" stroke="#999999" points="295.5,-129 226.5,-129 226.5,-110 295.5,-110 295.5,-129"/>
<text text-anchor="middle" x="261" y="-117" font-family="Helvetica,sans-Serif" font-size="10.00">type_traits</text>
</a>
</g>
</g>
<!-- Node3&#45;&gt;Node13 -->
<g id="edge13_Node000003_Node000013" class="edge">
<title>Node3&#45;&gt;Node13</title>
<g id="a_edge13_Node000003_Node000013"><a xlink:title=" ">
<path fill="none" stroke="#63b8ff" d="M261,-164.75C261,-157.8 261,-147.85 261,-139.13"/>
<polygon fill="#63b8ff" stroke="#63b8ff" points="264.5,-139.09 261,-129.09 257.5,-139.09 264.5,-139.09"/>
</a>
</g>
</g>
<!-- Node5 -->
<g id="Node000005" class="node">
<title>Node5</title>
<g id="a_Node000005"><a xlink:title=" ">
<polygon fill="#e0e0e0" stroke="#999999" points="352,-19 294,-19 294,0 352,0 352,-19"/>
<text text-anchor="middle" x="323" y="-7" font-family="Helvetica,sans-Serif" font-size="10.00">memory</text>
</a>
</g>
</g>
<!-- Node4&#45;&gt;Node5 -->
<g id="edge4_Node000004_Node000005" class="edge">
<title>Node4&#45;&gt;Node5</title>
<g id="a_edge4_Node000004_Node000005"><a xlink:title=" ">
<path fill="none" stroke="#63b8ff" d="M302.96,-54.75C306.21,-47.57 310.92,-37.18 314.95,-28.27"/>
<polygon fill="#63b8ff" stroke="#63b8ff" points="318.17,-29.64 319.11,-19.09 311.8,-26.75 318.17,-29.64"/>
</a>
</g>
</g>
<!-- Node6 -->
<g id="Node000006" class="node">
<title>Node6</title>
<g id="a_Node000006"><a xlink:title=" ">
<polygon fill="#e0e0e0" stroke="#999999" points="275.5,-19 230.5,-19 230.5,0 275.5,0 275.5,-19"/>
<text text-anchor="middle" x="253" y="-7" font-family="Helvetica,sans-Serif" font-size="10.00">utility</text>
</a>
</g>
</g>
<!-- Node4&#45;&gt;Node6 -->
<g id="edge5_Node000004_Node000006" class="edge">
<title>Node4&#45;&gt;Node6</title>
<g id="a_edge5_Node000004_Node000006"><a xlink:title=" ">
<path fill="none" stroke="#63b8ff" d="M291.4,-54.75C284.84,-47.18 275.18,-36.05 267.19,-26.84"/>
<polygon fill="#63b8ff" stroke="#63b8ff" points="269.65,-24.35 260.45,-19.09 264.37,-28.94 269.65,-24.35"/>
</a>
</g>
</g>
<!-- Node7&#45;&gt;Node4 -->
<g id="edge7_Node000007_Node000004" class="edge">
<title>Node7&#45;&gt;Node4</title>
<g id="a_edge7_Node000007_Node000004"><a xlink:title=" ">
<path fill="none" stroke="#63b8ff" d="M58.03,-111.91C61.05,-111.25 64.09,-110.6 67,-110 131.77,-96.55 207.02,-82.38 253.84,-73.74"/>
<polygon fill="#63b8ff" stroke="#63b8ff" points="254.75,-77.13 263.95,-71.88 253.48,-70.25 254.75,-77.13"/>
</a>
</g>
</g>
<!-- Node8 -->
<g id="Node000008" class="node">
<title>Node8</title>
<g id="a_Node000008"><a xlink:title=" ">
<polygon fill="#e0e0e0" stroke="#999999" points="148.5,-19 85.5,-19 85.5,0 148.5,0 148.5,-19"/>
<text text-anchor="middle" x="117" y="-7" font-family="Helvetica,sans-Serif" font-size="10.00">Arduino.h</text>
</a>
</g>
</g>
<!-- Node7&#45;&gt;Node8 -->
<g id="edge8_Node000007_Node000008" class="edge">
<title>Node7&#45;&gt;Node8</title>
<g id="a_edge8_Node000007_Node000008"><a xlink:title=" ">
<path fill="none" stroke="#63b8ff" d="M29.69,-109.85C31.12,-96.77 35.42,-71.74 48,-55 58.09,-41.57 73.5,-31.08 87.21,-23.66"/>
<polygon fill="#63b8ff" stroke="#63b8ff" points="89.01,-26.68 96.34,-19.02 85.83,-20.44 89.01,-26.68"/>
</a>
</g>
</g>
<!-- Node9 -->
<g id="Node000009" class="node">
<title>Node9</title>
<g id="a_Node000009"><a xlink:title=" ">
<polygon fill="#e0e0e0" stroke="#999999" points="133,-74 57,-74 57,-55 133,-55 133,-74"/>
<text text-anchor="middle" x="95" y="-62" font-family="Helvetica,sans-Serif" font-size="10.00">pgmspace.h</text>
</a>
</g>
</g>
<!-- Node7&#45;&gt;Node9 -->
<g id="edge9_Node000007_Node000009" class="edge">
<title>Node7&#45;&gt;Node9</title>
<g id="a_edge9_Node000007_Node000009"><a xlink:title=" ">
<path fill="none" stroke="#63b8ff" d="M39.6,-109.98C49.46,-102.07 64.35,-90.11 76.22,-80.58"/>
<polygon fill="#63b8ff" stroke="#63b8ff" points="78.6,-83.16 84.2,-74.17 74.21,-77.7 78.6,-83.16"/>
</a>
</g>
</g>
<!-- Node15 -->
<g id="Node000015" class="node">
<title>Node15</title>
<g id="a_Node000015"><a xlink:href="_clear_queue_8h.html" target="_top" xlink:title=" ">
<polygon fill="white" stroke="#666666" points="495.5,-74 412.5,-74 412.5,-55 495.5,-55 495.5,-74"/>
<text text-anchor="middle" x="454" y="-62" font-family="Helvetica,sans-Serif" font-size="10.00">ClearQueue.h</text>
</a>
</g>
</g>
<!-- Node14&#45;&gt;Node15 -->
<g id="edge15_Node000014_Node000015" class="edge">
<title>Node14&#45;&gt;Node15</title>
<g id="a_edge15_Node000014_Node000015"><a xlink:title=" ">
<path fill="none" stroke="#63b8ff" d="M525.46,-164.66C532.64,-151.78 543.22,-127.49 533,-110 524.32,-95.14 508.65,-84.86 493.54,-77.95"/>
<polygon fill="#63b8ff" stroke="#63b8ff" points="494.85,-74.71 484.27,-74.08 492.15,-81.17 494.85,-74.71"/>
</a>
</g>
</g>
<!-- Node15&#45;&gt;Node8 -->
<g id="edge16_Node000015_Node000008" class="edge">
<title>Node15&#45;&gt;Node8</title>
<g id="a_edge16_Node000015_Node000008"><a xlink:title=" ">
<path fill="none" stroke="#63b8ff" d="M412.34,-56.95C347.61,-46.77 223.62,-27.27 158.81,-17.08"/>
<polygon fill="#63b8ff" stroke="#63b8ff" points="158.98,-13.56 148.56,-15.46 157.89,-20.47 158.98,-13.56"/>
</a>
</g>
</g>
<!-- Node15&#45;&gt;Node12 -->
<g id="edge17_Node000015_Node000012" class="edge">
<title>Node15&#45;&gt;Node12</title>
<g id="a_edge17_Node000015_Node000012"><a xlink:title=" ">
<path fill="none" stroke="#63b8ff" d="M449.87,-54.75C446.49,-47.57 441.58,-37.18 437.38,-28.27"/>
<polygon fill="#63b8ff" stroke="#63b8ff" points="440.48,-26.64 433.05,-19.09 434.15,-29.63 440.48,-26.64"/>
</a>
</g>
</g>
<!-- Node16&#45;&gt;Node4 -->
<g id="edge19_Node000016_Node000004" class="edge">
<title>Node16&#45;&gt;Node4</title>
<g id="a_edge19_Node000016_Node000004"><a xlink:title=" ">
<path fill="none" stroke="#63b8ff" d="M391.73,-164.66C374.71,-146.46 335.52,-104.55 313.93,-81.47"/>
<polygon fill="#63b8ff" stroke="#63b8ff" points="316.48,-79.07 307.1,-74.16 311.37,-83.85 316.48,-79.07"/>
</a>
</g>
</g>
<!-- Node17 -->
<g id="Node000017" class="node">
<title>Node17</title>
<g id="a_Node000017"><a xlink:href="_iterable_queue_8h.html" target="_top" xlink:title=" ">
<polygon fill="white" stroke="#666666" points="523.5,-129 428.5,-129 428.5,-110 523.5,-110 523.5,-129"/>
<text text-anchor="middle" x="476" y="-117" font-family="Helvetica,sans-Serif" font-size="10.00">IterableQueue.h</text>
</a>
</g>
</g>
<!-- Node16&#45;&gt;Node17 -->
<g id="edge20_Node000016_Node000017" class="edge">
<title>Node16&#45;&gt;Node17</title>
<g id="a_edge20_Node000016_Node000017"><a xlink:title=" ">
<path fill="none" stroke="#63b8ff" d="M412.21,-164.98C423.78,-156.92 441.38,-144.65 455.16,-135.03"/>
<polygon fill="#63b8ff" stroke="#63b8ff" points="457.37,-137.76 463.57,-129.17 453.36,-132.02 457.37,-137.76"/>
</a>
</g>
</g>
<!-- Node17&#45;&gt;Node15 -->
<g id="edge21_Node000017_Node000015" class="edge">
<title>Node17&#45;&gt;Node15</title>
<g id="a_edge21_Node000017_Node000015"><a xlink:title=" ">
<path fill="none" stroke="#63b8ff" d="M472.37,-109.75C469.42,-102.65 465.17,-92.4 461.49,-83.56"/>
<polygon fill="#63b8ff" stroke="#63b8ff" points="464.63,-81.98 457.57,-74.09 458.17,-84.67 464.63,-81.98"/>
</a>
</g>
</g>
</g>
</svg>
