<?xml version="1.0" encoding="UTF-8" standalone="no"?>
<!DOCTYPE svg PUBLIC "-//W3C//DTD SVG 1.1//EN"
 "http://www.w3.org/Graphics/SVG/1.1/DTD/svg11.dtd">
<!-- Generated by graphviz version 2.43.0 (0)
 -->
<!-- Title: Date.h Pages: 1 -->
<svg width="1301pt" height="357pt"
 viewBox="0.00 0.00 1301.00 357.00" xmlns="http://www.w3.org/2000/svg" xmlns:xlink="http://www.w3.org/1999/xlink">
<g id="graph0" class="graph" transform="scale(1 1) rotate(0) translate(4 353)">
<title>Date.h</title>
<!-- Node1 -->
<g id="Node000001" class="node">
<title>Node1</title>
<g id="a_Node000001"><a xlink:title=" ">
<polygon fill="#999999" stroke="#666666" points="659.5,-349 610.5,-349 610.5,-330 659.5,-330 659.5,-349"/>
<text text-anchor="middle" x="635" y="-337" font-family="Helvetica,sans-Serif" font-size="10.00">Date.h</text>
</a>
</g>
</g>
<!-- Node2 -->
<g id="Node000002" class="node">
<title>Node2</title>
<g id="a_Node000002"><a xlink:title=" ">
<polygon fill="#e0e0e0" stroke="#999999" points="284.5,-294 195.5,-294 195.5,-275 284.5,-275 284.5,-294"/>
<text text-anchor="middle" x="240" y="-282" font-family="Helvetica,sans-Serif" font-size="10.00">ESP8266WiFi.h</text>
</a>
</g>
</g>
<!-- Node1&#45;&gt;Node2 -->
<g id="edge1_Node000001_Node000002" class="edge">
<title>Node1&#45;&gt;Node2</title>
<g id="a_edge1_Node000001_Node000002"><a xlink:title=" ">
<path fill="none" stroke="#63b8ff" d="M610.15,-335.49C555.32,-328.78 419.6,-311.93 294.88,-294.09"/>
<polygon fill="#63b8ff" stroke="#63b8ff" points="295.17,-290.6 284.78,-292.64 294.18,-297.53 295.17,-290.6"/>
</a>
</g>
</g>
<!-- Node3 -->
<g id="Node000003" class="node">
<title>Node3</title>
<g id="a_Node000003"><a xlink:title=" ">
<polygon fill="#e0e0e0" stroke="#999999" points="375,-294 303,-294 303,-275 375,-275 375,-294"/>
<text text-anchor="middle" x="339" y="-282" font-family="Helvetica,sans-Serif" font-size="10.00">coredecls.h</text>
</a>
</g>
</g>
<!-- Node1&#45;&gt;Node3 -->
<g id="edge2_Node000001_Node000003" class="edge">
<title>Node1&#45;&gt;Node3</title>
<g id="a_edge2_Node000001_Node000003"><a xlink:title=" ">
<path fill="none" stroke="#63b8ff" d="M610.27,-334.07C560.78,-325.21 448.87,-305.17 385.34,-293.8"/>
<polygon fill="#63b8ff" stroke="#63b8ff" points="385.65,-290.3 375.19,-291.98 384.42,-297.19 385.65,-290.3"/>
</a>
</g>
</g>
<!-- Node4 -->
<g id="Node000004" class="node">
<title>Node4</title>
<g id="a_Node000004"><a xlink:href="_date_events_8h.html" target="_top" xlink:title="Date and time event definitions for the Uniot event system.">
<polygon fill="white" stroke="#666666" points="82,-239 0,-239 0,-220 82,-220 82,-239"/>
<text text-anchor="middle" x="41" y="-227" font-family="Helvetica,sans-Serif" font-size="10.00">DateEvents.h</text>
</a>
</g>
</g>
<!-- Node1&#45;&gt;Node4 -->
<g id="edge3_Node000001_Node000004" class="edge">
<title>Node1&#45;&gt;Node4</title>
<g id="a_edge3_Node000001_Node000004"><a xlink:title=" ">
<path fill="none" stroke="#63b8ff" d="M610.49,-335.47C570.29,-330.05 488.19,-317.03 422,-294 404.17,-287.8 402.06,-280.51 384,-275 330.65,-258.71 174.06,-242.62 92.19,-235.03"/>
<polygon fill="#63b8ff" stroke="#63b8ff" points="92.39,-231.53 82.11,-234.1 91.75,-238.5 92.39,-231.53"/>
</a>
</g>
</g>
<!-- Node8 -->
<g id="Node000008" class="node">
<title>Node8</title>
<g id="a_Node000008"><a xlink:href="_c_b_o_r_storage_8h.html" target="_top" xlink:title=" ">
<polygon fill="white" stroke="#666666" points="522.5,-294 431.5,-294 431.5,-275 522.5,-275 522.5,-294"/>
<text text-anchor="middle" x="477" y="-282" font-family="Helvetica,sans-Serif" font-size="10.00">CBORStorage.h</text>
</a>
</g>
</g>
<!-- Node1&#45;&gt;Node8 -->
<g id="edge7_Node000001_Node000008" class="edge">
<title>Node1&#45;&gt;Node8</title>
<g id="a_edge7_Node000001_Node000008"><a xlink:title=" ">
<path fill="none" stroke="#63b8ff" d="M610.31,-330.22C583.96,-321.38 541.97,-307.29 512.16,-297.29"/>
<polygon fill="#63b8ff" stroke="#63b8ff" points="513.15,-293.94 502.56,-294.07 510.93,-300.57 513.15,-293.94"/>
</a>
</g>
</g>
<!-- Node22 -->
<g id="Node000022" class="node">
<title>Node22</title>
<g id="a_Node000022"><a xlink:href="_event_emitter_8h.html" target="_top" xlink:title=" ">
<polygon fill="white" stroke="#666666" points="629.5,-294 540.5,-294 540.5,-275 629.5,-275 629.5,-294"/>
<text text-anchor="middle" x="585" y="-282" font-family="Helvetica,sans-Serif" font-size="10.00">EventEmitter.h</text>
</a>
</g>
</g>
<!-- Node1&#45;&gt;Node22 -->
<g id="edge28_Node000001_Node000022" class="edge">
<title>Node1&#45;&gt;Node22</title>
<g id="a_edge28_Node000001_Node000022"><a xlink:title=" ">
<path fill="none" stroke="#63b8ff" d="M626.74,-329.75C619.54,-322.11 608.89,-310.82 600.15,-301.56"/>
<polygon fill="#63b8ff" stroke="#63b8ff" points="602.51,-298.96 593.1,-294.09 597.42,-303.76 602.51,-298.96"/>
</a>
</g>
</g>
<!-- Node27 -->
<g id="Node000027" class="node">
<title>Node27</title>
<g id="a_Node000027"><a xlink:href="_i_executor_8h.html" target="_top" xlink:title=" ">
<polygon fill="white" stroke="#666666" points="1293,-184 1223,-184 1223,-165 1293,-165 1293,-184"/>
<text text-anchor="middle" x="1258" y="-172" font-family="Helvetica,sans-Serif" font-size="10.00">IExecutor.h</text>
</a>
</g>
</g>
<!-- Node1&#45;&gt;Node27 -->
<g id="edge38_Node000001_Node000027" class="edge">
<title>Node1&#45;&gt;Node27</title>
<g id="a_edge38_Node000001_Node000027"><a xlink:title=" ">
<path fill="none" stroke="#63b8ff" d="M659.81,-332.01C754.58,-307.21 1094.54,-218.27 1215.17,-186.71"/>
<polygon fill="#63b8ff" stroke="#63b8ff" points="1216.36,-190.01 1225.15,-184.1 1214.59,-183.24 1216.36,-190.01"/>
</a>
</g>
</g>
<!-- Node28 -->
<g id="Node000028" class="node">
<title>Node28</title>
<g id="a_Node000028"><a xlink:href="_simple_n_t_p_8h.html" target="_top" xlink:title=" ">
<polygon fill="white" stroke="#666666" points="724.5,-294 647.5,-294 647.5,-275 724.5,-275 724.5,-294"/>
<text text-anchor="middle" x="686" y="-282" font-family="Helvetica,sans-Serif" font-size="10.00">SimpleNTP.h</text>
</a>
</g>
</g>
<!-- Node1&#45;&gt;Node28 -->
<g id="edge39_Node000001_Node000028" class="edge">
<title>Node1&#45;&gt;Node28</title>
<g id="a_edge39_Node000001_Node000028"><a xlink:title=" ">
<path fill="none" stroke="#63b8ff" d="M643.42,-329.75C650.77,-322.11 661.63,-310.82 670.54,-301.56"/>
<polygon fill="#63b8ff" stroke="#63b8ff" points="673.32,-303.72 677.74,-294.09 668.28,-298.87 673.32,-303.72"/>
</a>
</g>
</g>
<!-- Node30 -->
<g id="Node000030" class="node">
<title>Node30</title>
<g id="a_Node000030"><a xlink:title=" ">
<polygon fill="#e0e0e0" stroke="#999999" points="785,-239 737,-239 737,-220 785,-220 785,-239"/>
<text text-anchor="middle" x="761" y="-227" font-family="Helvetica,sans-Serif" font-size="10.00">time.h</text>
</a>
</g>
</g>
<!-- Node1&#45;&gt;Node30 -->
<g id="edge58_Node000001_Node000030" class="edge">
<title>Node1&#45;&gt;Node30</title>
<g id="a_edge58_Node000001_Node000030"><a xlink:title=" ">
<path fill="none" stroke="#63b8ff" d="M659.52,-332.93C681.58,-326.78 713.56,-314.86 734,-294 746.17,-281.58 753.22,-262.82 757.04,-248.91"/>
<polygon fill="#63b8ff" stroke="#63b8ff" points="760.49,-249.55 759.45,-239.01 753.69,-247.9 760.49,-249.55"/>
</a>
</g>
</g>
<!-- Node31 -->
<g id="Node000031" class="node">
<title>Node31</title>
<g id="a_Node000031"><a xlink:href="_singleton_8h.html" target="_top" xlink:title=" ">
<polygon fill="white" stroke="#666666" points="1026.5,-294 955.5,-294 955.5,-275 1026.5,-275 1026.5,-294"/>
<text text-anchor="middle" x="991" y="-282" font-family="Helvetica,sans-Serif" font-size="10.00">Singleton.h</text>
</a>
</g>
</g>
<!-- Node1&#45;&gt;Node31 -->
<g id="edge43_Node000001_Node000031" class="edge">
<title>Node1&#45;&gt;Node31</title>
<g id="a_edge43_Node000001_Node000031"><a xlink:title=" ">
<path fill="none" stroke="#63b8ff" d="M659.62,-335.12C711.64,-327.95 836.53,-310.47 941,-294 942.3,-293.8 943.61,-293.59 944.94,-293.37"/>
<polygon fill="#63b8ff" stroke="#63b8ff" points="945.93,-296.76 955.24,-291.69 944.8,-289.85 945.93,-296.76"/>
</a>
</g>
</g>
<!-- Node32 -->
<g id="Node000032" class="node">
<title>Node32</title>
<g id="a_Node000032"><a xlink:href="_task_scheduler_8h.html" target="_top" xlink:title=" ">
<polygon fill="white" stroke="#666666" points="898.5,-239 803.5,-239 803.5,-220 898.5,-220 898.5,-239"/>
<text text-anchor="middle" x="851" y="-227" font-family="Helvetica,sans-Serif" font-size="10.00">TaskScheduler.h</text>
</a>
</g>
</g>
<!-- Node1&#45;&gt;Node32 -->
<g id="edge44_Node000001_Node000032" class="edge">
<title>Node1&#45;&gt;Node32</title>
<g id="a_edge44_Node000001_Node000032"><a xlink:title=" ">
<path fill="none" stroke="#63b8ff" d="M659.83,-331C684.38,-323.17 722.71,-309.84 754,-294 782.21,-279.71 812.33,-259.04 831.39,-245.21"/>
<polygon fill="#63b8ff" stroke="#63b8ff" points="833.58,-247.94 839.56,-239.2 829.43,-242.3 833.58,-247.94"/>
</a>
</g>
</g>
<!-- Node5 -->
<g id="Node000005" class="node">
<title>Node5</title>
<g id="a_Node000005"><a xlink:href="_common_8h.html" target="_top" xlink:title=" ">
<polygon fill="white" stroke="#666666" points="283,-74 213,-74 213,-55 283,-55 283,-74"/>
<text text-anchor="middle" x="248" y="-62" font-family="Helvetica,sans-Serif" font-size="10.00">Common.h</text>
</a>
</g>
</g>
<!-- Node4&#45;&gt;Node5 -->
<g id="edge4_Node000004_Node000005" class="edge">
<title>Node4&#45;&gt;Node5</title>
<g id="a_edge4_Node000004_Node000005"><a xlink:title=" ">
<path fill="none" stroke="#63b8ff" d="M34.37,-219.94C18.82,-198.78 -16.64,-143.32 11,-110 34.88,-81.22 140.86,-70.94 202.72,-67.35"/>
<polygon fill="#63b8ff" stroke="#63b8ff" points="203.19,-70.83 212.99,-66.79 202.81,-63.84 203.19,-70.83"/>
</a>
</g>
</g>
<!-- Node6 -->
<g id="Node000006" class="node">
<title>Node6</title>
<g id="a_Node000006"><a xlink:title=" ">
<polygon fill="#e0e0e0" stroke="#999999" points="344,-19 286,-19 286,0 344,0 344,-19"/>
<text text-anchor="middle" x="315" y="-7" font-family="Helvetica,sans-Serif" font-size="10.00">memory</text>
</a>
</g>
</g>
<!-- Node5&#45;&gt;Node6 -->
<g id="edge5_Node000005_Node000006" class="edge">
<title>Node5&#45;&gt;Node6</title>
<g id="a_edge5_Node000005_Node000006"><a xlink:title=" ">
<path fill="none" stroke="#63b8ff" d="M258.76,-54.98C268.77,-47.07 283.89,-35.11 295.93,-25.58"/>
<polygon fill="#63b8ff" stroke="#63b8ff" points="298.37,-28.12 304.04,-19.17 294.03,-22.63 298.37,-28.12"/>
</a>
</g>
</g>
<!-- Node7 -->
<g id="Node000007" class="node">
<title>Node7</title>
<g id="a_Node000007"><a xlink:title=" ">
<polygon fill="#e0e0e0" stroke="#999999" points="267.5,-19 222.5,-19 222.5,0 267.5,0 267.5,-19"/>
<text text-anchor="middle" x="245" y="-7" font-family="Helvetica,sans-Serif" font-size="10.00">utility</text>
</a>
</g>
</g>
<!-- Node5&#45;&gt;Node7 -->
<g id="edge6_Node000005_Node000007" class="edge">
<title>Node5&#45;&gt;Node7</title>
<g id="a_edge6_Node000005_Node000007"><a xlink:title=" ">
<path fill="none" stroke="#63b8ff" d="M247.5,-54.75C247.11,-47.8 246.55,-37.85 246.05,-29.13"/>
<polygon fill="#63b8ff" stroke="#63b8ff" points="249.55,-28.88 245.49,-19.09 242.56,-29.27 249.55,-28.88"/>
</a>
</g>
</g>
<!-- Node9 -->
<g id="Node000009" class="node">
<title>Node9</title>
<g id="a_Node000009"><a xlink:href="_storage_8h.html" target="_top" xlink:title=" ">
<polygon fill="white" stroke="#666666" points="217.5,-239 154.5,-239 154.5,-220 217.5,-220 217.5,-239"/>
<text text-anchor="middle" x="186" y="-227" font-family="Helvetica,sans-Serif" font-size="10.00">Storage.h</text>
</a>
</g>
</g>
<!-- Node8&#45;&gt;Node9 -->
<g id="edge8_Node000008_Node000009" class="edge">
<title>Node8&#45;&gt;Node9</title>
<g id="a_edge8_Node000008_Node000009"><a xlink:title=" ">
<path fill="none" stroke="#63b8ff" d="M431.21,-275.16C375.27,-264.97 281.45,-247.89 227.53,-238.06"/>
<polygon fill="#63b8ff" stroke="#63b8ff" points="228.09,-234.61 217.62,-236.26 226.83,-241.49 228.09,-234.61"/>
</a>
</g>
</g>
<!-- Node20 -->
<g id="Node000020" class="node">
<title>Node20</title>
<g id="a_Node000020"><a xlink:href="_c_b_o_r_object_8h.html" target="_top" xlink:title=" ">
<polygon fill="white" stroke="#666666" points="409.5,-239 324.5,-239 324.5,-220 409.5,-220 409.5,-239"/>
<text text-anchor="middle" x="367" y="-227" font-family="Helvetica,sans-Serif" font-size="10.00">CBORObject.h</text>
</a>
</g>
</g>
<!-- Node8&#45;&gt;Node20 -->
<g id="edge22_Node000008_Node000020" class="edge">
<title>Node8&#45;&gt;Node20</title>
<g id="a_edge22_Node000008_Node000020"><a xlink:title=" ">
<path fill="none" stroke="#63b8ff" d="M459.33,-274.98C441.71,-266.5 414.42,-253.35 394.07,-243.54"/>
<polygon fill="#63b8ff" stroke="#63b8ff" points="395.52,-240.36 384.99,-239.17 392.48,-246.66 395.52,-240.36"/>
</a>
</g>
</g>
<!-- Node10 -->
<g id="Node000010" class="node">
<title>Node10</title>
<g id="a_Node000010"><a xlink:title=" ">
<polygon fill="#e0e0e0" stroke="#999999" points="141.5,-184 104.5,-184 104.5,-165 141.5,-165 141.5,-184"/>
<text text-anchor="middle" x="123" y="-172" font-family="Helvetica,sans-Serif" font-size="10.00">FS.h</text>
</a>
</g>
</g>
<!-- Node9&#45;&gt;Node10 -->
<g id="edge9_Node000009_Node000010" class="edge">
<title>Node9&#45;&gt;Node10</title>
<g id="a_edge9_Node000009_Node000010"><a xlink:title=" ">
<path fill="none" stroke="#63b8ff" d="M175.88,-219.98C166.56,-212.15 152.53,-200.34 141.26,-190.86"/>
<polygon fill="#63b8ff" stroke="#63b8ff" points="143.21,-187.93 133.31,-184.17 138.71,-193.29 143.21,-187.93"/>
</a>
</g>
</g>
<!-- Node11 -->
<g id="Node000011" class="node">
<title>Node11</title>
<g id="a_Node000011"><a xlink:title=" ">
<polygon fill="#e0e0e0" stroke="#999999" points="86,-184 28,-184 28,-165 86,-165 86,-184"/>
<text text-anchor="middle" x="57" y="-172" font-family="Helvetica,sans-Serif" font-size="10.00">SPIFFS.h</text>
</a>
</g>
</g>
<!-- Node9&#45;&gt;Node11 -->
<g id="edge10_Node000009_Node000011" class="edge">
<title>Node9&#45;&gt;Node11</title>
<g id="a_edge10_Node000009_Node000011"><a xlink:title=" ">
<path fill="none" stroke="#63b8ff" d="M165.27,-219.98C144.24,-211.34 111.45,-197.87 87.46,-188.02"/>
<polygon fill="#63b8ff" stroke="#63b8ff" points="88.68,-184.73 78.1,-184.17 86.02,-191.21 88.68,-184.73"/>
</a>
</g>
</g>
<!-- Node12 -->
<g id="Node000012" class="node">
<title>Node12</title>
<g id="a_Node000012"><a xlink:href="_bytes_8h.html" target="_top" xlink:title=" ">
<polygon fill="white" stroke="#666666" points="212.5,-184 159.5,-184 159.5,-165 212.5,-165 212.5,-184"/>
<text text-anchor="middle" x="186" y="-172" font-family="Helvetica,sans-Serif" font-size="10.00">Bytes.h</text>
</a>
</g>
</g>
<!-- Node9&#45;&gt;Node12 -->
<g id="edge11_Node000009_Node000012" class="edge">
<title>Node9&#45;&gt;Node12</title>
<g id="a_edge11_Node000009_Node000012"><a xlink:title=" ">
<path fill="none" stroke="#63b8ff" d="M186,-219.75C186,-212.8 186,-202.85 186,-194.13"/>
<polygon fill="#63b8ff" stroke="#63b8ff" points="189.5,-194.09 186,-184.09 182.5,-194.09 189.5,-194.09"/>
</a>
</g>
</g>
<!-- Node13 -->
<g id="Node000013" class="node">
<title>Node13</title>
<g id="a_Node000013"><a xlink:href="_logger_8h.html" target="_top" xlink:title=" ">
<polygon fill="white" stroke="#666666" points="401,-129 343,-129 343,-110 401,-110 401,-129"/>
<text text-anchor="middle" x="372" y="-117" font-family="Helvetica,sans-Serif" font-size="10.00">Logger.h</text>
</a>
</g>
</g>
<!-- Node9&#45;&gt;Node13 -->
<g id="edge21_Node000009_Node000013" class="edge">
<title>Node9&#45;&gt;Node13</title>
<g id="a_edge21_Node000009_Node000013"><a xlink:title=" ">
<path fill="none" stroke="#63b8ff" d="M200.91,-219.84C233.09,-201.16 309.32,-156.9 348.24,-134.3"/>
<polygon fill="#63b8ff" stroke="#63b8ff" points="350.39,-137.1 357.28,-129.05 346.88,-131.04 350.39,-137.1"/>
</a>
</g>
</g>
<!-- Node12&#45;&gt;Node5 -->
<g id="edge12_Node000012_Node000005" class="edge">
<title>Node12&#45;&gt;Node5</title>
<g id="a_edge12_Node000012_Node000005"><a xlink:title=" ">
<path fill="none" stroke="#63b8ff" d="M159.43,-166.9C112.63,-155.22 20.2,-131.85 18,-129 12.85,-122.31 12.63,-116.51 18,-110 40.94,-82.2 142.37,-71.56 202.6,-67.65"/>
<polygon fill="#63b8ff" stroke="#63b8ff" points="202.85,-71.14 212.62,-67.04 202.43,-64.15 202.85,-71.14"/>
</a>
</g>
</g>
<!-- Node12&#45;&gt;Node13 -->
<g id="edge13_Node000012_Node000013" class="edge">
<title>Node12&#45;&gt;Node13</title>
<g id="a_edge13_Node000012_Node000013"><a xlink:title=" ">
<path fill="none" stroke="#63b8ff" d="M212.65,-165.91C244.23,-156.91 297.13,-141.84 333.24,-131.54"/>
<polygon fill="#63b8ff" stroke="#63b8ff" points="334.29,-134.88 342.95,-128.78 332.37,-128.15 334.29,-134.88"/>
</a>
</g>
</g>
<!-- Node16 -->
<g id="Node000016" class="node">
<title>Node16</title>
<g id="a_Node000016"><a xlink:title=" ">
<polygon fill="#e0e0e0" stroke="#999999" points="91,-129 27,-129 27,-110 91,-110 91,-129"/>
<text text-anchor="middle" x="59" y="-117" font-family="Helvetica,sans-Serif" font-size="10.00">WString.h</text>
</a>
</g>
</g>
<!-- Node12&#45;&gt;Node16 -->
<g id="edge17_Node000012_Node000016" class="edge">
<title>Node12&#45;&gt;Node16</title>
<g id="a_edge17_Node000012_Node000016"><a xlink:title=" ">
<path fill="none" stroke="#63b8ff" d="M165.6,-164.98C144.98,-156.38 112.89,-142.99 89.31,-133.15"/>
<polygon fill="#63b8ff" stroke="#63b8ff" points="90.35,-129.79 79.78,-129.17 87.66,-136.25 90.35,-129.79"/>
</a>
</g>
</g>
<!-- Node17 -->
<g id="Node000017" class="node">
<title>Node17</title>
<g id="a_Node000017"><a xlink:title=" ">
<polygon fill="#e0e0e0" stroke="#999999" points="159,-129 109,-129 109,-110 159,-110 159,-129"/>
<text text-anchor="middle" x="134" y="-117" font-family="Helvetica,sans-Serif" font-size="10.00">stdio.h</text>
</a>
</g>
</g>
<!-- Node12&#45;&gt;Node17 -->
<g id="edge18_Node000012_Node000017" class="edge">
<title>Node12&#45;&gt;Node17</title>
<g id="a_edge18_Node000012_Node000017"><a xlink:title=" ">
<path fill="none" stroke="#63b8ff" d="M177.41,-164.75C169.84,-157.03 158.62,-145.6 149.49,-136.28"/>
<polygon fill="#63b8ff" stroke="#63b8ff" points="151.93,-133.78 142.43,-129.09 146.93,-138.68 151.93,-133.78"/>
</a>
</g>
</g>
<!-- Node18 -->
<g id="Node000018" class="node">
<title>Node18</title>
<g id="a_Node000018"><a xlink:title=" ">
<polygon fill="#e0e0e0" stroke="#999999" points="581.5,-74 516.5,-74 516.5,-55 581.5,-55 581.5,-74"/>
<text text-anchor="middle" x="549" y="-62" font-family="Helvetica,sans-Serif" font-size="10.00">functional</text>
</a>
</g>
</g>
<!-- Node12&#45;&gt;Node18 -->
<g id="edge19_Node000012_Node000018" class="edge">
<title>Node12&#45;&gt;Node18</title>
<g id="a_edge19_Node000012_Node000018"><a xlink:title=" ">
<path fill="none" stroke="#63b8ff" d="M202.89,-164.92C229.94,-151.49 284.92,-125.43 334,-110 338.13,-108.7 444.91,-86.79 506.4,-74.21"/>
<polygon fill="#63b8ff" stroke="#63b8ff" points="507.13,-77.63 516.22,-72.2 505.73,-70.77 507.13,-77.63"/>
</a>
</g>
</g>
<!-- Node19 -->
<g id="Node000019" class="node">
<title>Node19</title>
<g id="a_Node000019"><a xlink:title=" ">
<polygon fill="#e0e0e0" stroke="#999999" points="246.5,-129 177.5,-129 177.5,-110 246.5,-110 246.5,-129"/>
<text text-anchor="middle" x="212" y="-117" font-family="Helvetica,sans-Serif" font-size="10.00">type_traits</text>
</a>
</g>
</g>
<!-- Node12&#45;&gt;Node19 -->
<g id="edge20_Node000012_Node000019" class="edge">
<title>Node12&#45;&gt;Node19</title>
<g id="a_edge20_Node000012_Node000019"><a xlink:title=" ">
<path fill="none" stroke="#63b8ff" d="M190.29,-164.75C193.81,-157.57 198.91,-147.18 203.28,-138.27"/>
<polygon fill="#63b8ff" stroke="#63b8ff" points="206.52,-139.61 207.79,-129.09 200.24,-136.53 206.52,-139.61"/>
</a>
</g>
</g>
<!-- Node13&#45;&gt;Node5 -->
<g id="edge14_Node000013_Node000005" class="edge">
<title>Node13&#45;&gt;Node5</title>
<g id="a_edge14_Node000013_Node000005"><a xlink:title=" ">
<path fill="none" stroke="#63b8ff" d="M352.08,-109.98C331.95,-101.38 300.62,-87.99 277.59,-78.15"/>
<polygon fill="#63b8ff" stroke="#63b8ff" points="278.86,-74.88 268.29,-74.17 276.1,-81.32 278.86,-74.88"/>
</a>
</g>
</g>
<!-- Node14 -->
<g id="Node000014" class="node">
<title>Node14</title>
<g id="a_Node000014"><a xlink:title=" ">
<polygon fill="#e0e0e0" stroke="#999999" points="498.5,-74 435.5,-74 435.5,-55 498.5,-55 498.5,-74"/>
<text text-anchor="middle" x="467" y="-62" font-family="Helvetica,sans-Serif" font-size="10.00">Arduino.h</text>
</a>
</g>
</g>
<!-- Node13&#45;&gt;Node14 -->
<g id="edge15_Node000013_Node000014" class="edge">
<title>Node13&#45;&gt;Node14</title>
<g id="a_edge15_Node000013_Node000014"><a xlink:title=" ">
<path fill="none" stroke="#63b8ff" d="M387.26,-109.98C402.13,-101.69 424.98,-88.94 442.42,-79.22"/>
<polygon fill="#63b8ff" stroke="#63b8ff" points="444.43,-82.1 451.46,-74.17 441.02,-75.99 444.43,-82.1"/>
</a>
</g>
</g>
<!-- Node15 -->
<g id="Node000015" class="node">
<title>Node15</title>
<g id="a_Node000015"><a xlink:title=" ">
<polygon fill="#e0e0e0" stroke="#999999" points="417,-74 341,-74 341,-55 417,-55 417,-74"/>
<text text-anchor="middle" x="379" y="-62" font-family="Helvetica,sans-Serif" font-size="10.00">pgmspace.h</text>
</a>
</g>
</g>
<!-- Node13&#45;&gt;Node15 -->
<g id="edge16_Node000013_Node000015" class="edge">
<title>Node13&#45;&gt;Node15</title>
<g id="a_edge16_Node000013_Node000015"><a xlink:title=" ">
<path fill="none" stroke="#63b8ff" d="M373.16,-109.75C374.07,-102.8 375.39,-92.85 376.54,-84.13"/>
<polygon fill="#63b8ff" stroke="#63b8ff" points="380.03,-84.46 377.87,-74.09 373.09,-83.54 380.03,-84.46"/>
</a>
</g>
</g>
<!-- Node20&#45;&gt;Node6 -->
<g id="edge27_Node000020_Node000006" class="edge">
<title>Node20&#45;&gt;Node6</title>
<g id="a_edge27_Node000020_Node000006"><a xlink:title=" ">
<path fill="none" stroke="#63b8ff" d="M342.53,-219.86C326.73,-212.85 307.41,-201.27 298,-184 270.29,-133.16 293.49,-61.42 306.98,-28.4"/>
<polygon fill="#63b8ff" stroke="#63b8ff" points="310.24,-29.69 310.94,-19.12 303.8,-26.94 310.24,-29.69"/>
</a>
</g>
</g>
<!-- Node20&#45;&gt;Node12 -->
<g id="edge24_Node000020_Node000012" class="edge">
<title>Node20&#45;&gt;Node12</title>
<g id="a_edge24_Node000020_Node000012"><a xlink:title=" ">
<path fill="none" stroke="#63b8ff" d="M337.92,-219.98C306.58,-210.81 256.65,-196.19 222.65,-186.23"/>
<polygon fill="#63b8ff" stroke="#63b8ff" points="223.23,-182.75 212.65,-183.3 221.26,-189.47 223.23,-182.75"/>
</a>
</g>
</g>
<!-- Node20&#45;&gt;Node13 -->
<g id="edge25_Node000020_Node000013" class="edge">
<title>Node20&#45;&gt;Node13</title>
<g id="a_edge25_Node000020_Node000013"><a xlink:title=" ">
<path fill="none" stroke="#63b8ff" d="M369.57,-219.73C372.05,-210.83 375.6,-196.59 377,-184 378.66,-169.02 377.14,-151.99 375.35,-139.35"/>
<polygon fill="#63b8ff" stroke="#63b8ff" points="378.75,-138.46 373.71,-129.14 371.84,-139.57 378.75,-138.46"/>
</a>
</g>
</g>
<!-- Node20&#45;&gt;Node14 -->
<g id="edge23_Node000020_Node000014" class="edge">
<title>Node20&#45;&gt;Node14</title>
<g id="a_edge23_Node000020_Node000014"><a xlink:title=" ">
<path fill="none" stroke="#63b8ff" d="M372.38,-219.74C388.25,-193.87 435.11,-117.48 456.34,-82.88"/>
<polygon fill="#63b8ff" stroke="#63b8ff" points="459.35,-84.66 461.6,-74.31 453.38,-81 459.35,-84.66"/>
</a>
</g>
</g>
<!-- Node21 -->
<g id="Node000021" class="node">
<title>Node21</title>
<g id="a_Node000021"><a xlink:title=" ">
<polygon fill="#e0e0e0" stroke="#999999" points="368.5,-184 307.5,-184 307.5,-165 368.5,-165 368.5,-184"/>
<text text-anchor="middle" x="338" y="-172" font-family="Helvetica,sans-Serif" font-size="10.00">cn&#45;cbor.h</text>
</a>
</g>
</g>
<!-- Node20&#45;&gt;Node21 -->
<g id="edge26_Node000020_Node000021" class="edge">
<title>Node20&#45;&gt;Node21</title>
<g id="a_edge26_Node000020_Node000021"><a xlink:title=" ">
<path fill="none" stroke="#63b8ff" d="M362.21,-219.75C358.24,-212.49 352.47,-201.95 347.57,-192.98"/>
<polygon fill="#63b8ff" stroke="#63b8ff" points="350.57,-191.18 342.7,-184.09 344.43,-194.54 350.57,-191.18"/>
</a>
</g>
</g>
<!-- Node22&#45;&gt;Node12 -->
<g id="edge29_Node000022_Node000012" class="edge">
<title>Node22&#45;&gt;Node12</title>
<g id="a_edge29_Node000022_Node000012"><a xlink:title=" ">
<path fill="none" stroke="#63b8ff" d="M540.3,-276.3C464.96,-264.15 320.34,-240.71 315,-239 276.01,-226.49 234.02,-203.94 208.88,-189.35"/>
<polygon fill="#63b8ff" stroke="#63b8ff" points="210.51,-186.25 200.12,-184.19 206.96,-192.28 210.51,-186.25"/>
</a>
</g>
</g>
<!-- Node23 -->
<g id="Node000023" class="node">
<title>Node23</title>
<g id="a_Node000023"><a xlink:href="_iterable_queue_8h.html" target="_top" xlink:title=" ">
<polygon fill="white" stroke="#666666" points="710.5,-184 615.5,-184 615.5,-165 710.5,-165 710.5,-184"/>
<text text-anchor="middle" x="663" y="-172" font-family="Helvetica,sans-Serif" font-size="10.00">IterableQueue.h</text>
</a>
</g>
</g>
<!-- Node22&#45;&gt;Node23 -->
<g id="edge30_Node000022_Node000023" class="edge">
<title>Node22&#45;&gt;Node23</title>
<g id="a_edge30_Node000022_Node000023"><a xlink:title=" ">
<path fill="none" stroke="#63b8ff" d="M591.38,-274.66C604.36,-256.69 634.01,-215.64 650.81,-192.38"/>
<polygon fill="#63b8ff" stroke="#63b8ff" points="653.73,-194.31 656.75,-184.16 648.05,-190.22 653.73,-194.31"/>
</a>
</g>
</g>
<!-- Node25 -->
<g id="Node000025" class="node">
<title>Node25</title>
<g id="a_Node000025"><a xlink:href="_event_entity_8h.html" target="_top" xlink:title=" ">
<polygon fill="white" stroke="#666666" points="559,-239 479,-239 479,-220 559,-220 559,-239"/>
<text text-anchor="middle" x="519" y="-227" font-family="Helvetica,sans-Serif" font-size="10.00">EventEntity.h</text>
</a>
</g>
</g>
<!-- Node22&#45;&gt;Node25 -->
<g id="edge34_Node000022_Node000025" class="edge">
<title>Node22&#45;&gt;Node25</title>
<g id="a_edge34_Node000022_Node000025"><a xlink:title=" ">
<path fill="none" stroke="#63b8ff" d="M574.4,-274.98C564.54,-267.07 549.65,-255.11 537.78,-245.58"/>
<polygon fill="#63b8ff" stroke="#63b8ff" points="539.79,-242.7 529.8,-239.17 535.4,-248.16 539.79,-242.7"/>
</a>
</g>
</g>
<!-- Node24 -->
<g id="Node000024" class="node">
<title>Node24</title>
<g id="a_Node000024"><a xlink:href="_clear_queue_8h.html" target="_top" xlink:title=" ">
<polygon fill="white" stroke="#666666" points="578.5,-129 495.5,-129 495.5,-110 578.5,-110 578.5,-129"/>
<text text-anchor="middle" x="537" y="-117" font-family="Helvetica,sans-Serif" font-size="10.00">ClearQueue.h</text>
</a>
</g>
</g>
<!-- Node23&#45;&gt;Node24 -->
<g id="edge31_Node000023_Node000024" class="edge">
<title>Node23&#45;&gt;Node24</title>
<g id="a_edge31_Node000023_Node000024"><a xlink:title=" ">
<path fill="none" stroke="#63b8ff" d="M642.76,-164.98C622.3,-156.38 590.47,-142.99 567.07,-133.15"/>
<polygon fill="#63b8ff" stroke="#63b8ff" points="568.19,-129.82 557.61,-129.17 565.47,-136.27 568.19,-129.82"/>
</a>
</g>
</g>
<!-- Node24&#45;&gt;Node14 -->
<g id="edge32_Node000024_Node000014" class="edge">
<title>Node24&#45;&gt;Node14</title>
<g id="a_edge32_Node000024_Node000014"><a xlink:title=" ">
<path fill="none" stroke="#63b8ff" d="M525.75,-109.98C515.2,-102 499.2,-89.88 486.56,-80.31"/>
<polygon fill="#63b8ff" stroke="#63b8ff" points="488.54,-77.42 478.45,-74.17 484.31,-83 488.54,-77.42"/>
</a>
</g>
</g>
<!-- Node24&#45;&gt;Node18 -->
<g id="edge33_Node000024_Node000018" class="edge">
<title>Node24&#45;&gt;Node18</title>
<g id="a_edge33_Node000024_Node000018"><a xlink:title=" ">
<path fill="none" stroke="#63b8ff" d="M538.98,-109.75C540.57,-102.72 542.86,-92.62 544.85,-83.84"/>
<polygon fill="#63b8ff" stroke="#63b8ff" points="548.26,-84.62 547.06,-74.09 541.43,-83.07 548.26,-84.62"/>
</a>
</g>
</g>
<!-- Node25&#45;&gt;Node13 -->
<g id="edge36_Node000025_Node000013" class="edge">
<title>Node25&#45;&gt;Node13</title>
<g id="a_edge36_Node000025_Node000013"><a xlink:title=" ">
<path fill="none" stroke="#63b8ff" d="M507.22,-219.84C482.17,-201.44 423.36,-158.23 392.2,-135.34"/>
<polygon fill="#63b8ff" stroke="#63b8ff" points="393.97,-132.3 383.84,-129.2 389.82,-137.94 393.97,-132.3"/>
</a>
</g>
</g>
<!-- Node25&#45;&gt;Node23 -->
<g id="edge35_Node000025_Node000023" class="edge">
<title>Node25&#45;&gt;Node23</title>
<g id="a_edge35_Node000025_Node000023"><a xlink:title=" ">
<path fill="none" stroke="#63b8ff" d="M542.14,-219.98C565.82,-211.27 602.87,-197.63 629.71,-187.75"/>
<polygon fill="#63b8ff" stroke="#63b8ff" points="631.27,-190.91 639.44,-184.17 628.85,-184.34 631.27,-190.91"/>
</a>
</g>
</g>
<!-- Node26 -->
<g id="Node000026" class="node">
<title>Node26</title>
<g id="a_Node000026"><a xlink:href="_type_id_8h.html" target="_top" xlink:title=" ">
<polygon fill="white" stroke="#666666" points="558.5,-184 501.5,-184 501.5,-165 558.5,-165 558.5,-184"/>
<text text-anchor="middle" x="530" y="-172" font-family="Helvetica,sans-Serif" font-size="10.00">TypeId.h</text>
</a>
</g>
</g>
<!-- Node25&#45;&gt;Node26 -->
<g id="edge37_Node000025_Node000026" class="edge">
<title>Node25&#45;&gt;Node26</title>
<g id="a_edge37_Node000025_Node000026"><a xlink:title=" ">
<path fill="none" stroke="#63b8ff" d="M520.82,-219.75C522.26,-212.8 524.32,-202.85 526.13,-194.13"/>
<polygon fill="#63b8ff" stroke="#63b8ff" points="529.61,-194.59 528.22,-184.09 522.76,-193.17 529.61,-194.59"/>
</a>
</g>
</g>
<!-- Node28&#45;&gt;Node13 -->
<g id="edge40_Node000028_Node000013" class="edge">
<title>Node28&#45;&gt;Node13</title>
<g id="a_edge40_Node000028_Node000013"><a xlink:title=" ">
<path fill="none" stroke="#63b8ff" d="M677.86,-274.86C653.26,-248.83 580.53,-172.46 567,-165 553.46,-157.53 464.35,-138.91 411.4,-128.28"/>
<polygon fill="#63b8ff" stroke="#63b8ff" points="411.81,-124.79 401.32,-126.26 410.44,-131.65 411.81,-124.79"/>
</a>
</g>
</g>
<!-- Node29 -->
<g id="Node000029" class="node">
<title>Node29</title>
<g id="a_Node000029"><a xlink:title=" ">
<polygon fill="#e0e0e0" stroke="#999999" points="719,-239 653,-239 653,-220 719,-220 719,-239"/>
<text text-anchor="middle" x="686" y="-227" font-family="Helvetica,sans-Serif" font-size="10.00">WiFiUdp.h</text>
</a>
</g>
</g>
<!-- Node28&#45;&gt;Node29 -->
<g id="edge41_Node000028_Node000029" class="edge">
<title>Node28&#45;&gt;Node29</title>
<g id="a_edge41_Node000028_Node000029"><a xlink:title=" ">
<path fill="none" stroke="#63b8ff" d="M686,-274.75C686,-267.8 686,-257.85 686,-249.13"/>
<polygon fill="#63b8ff" stroke="#63b8ff" points="689.5,-249.09 686,-239.09 682.5,-249.09 689.5,-249.09"/>
</a>
</g>
</g>
<!-- Node28&#45;&gt;Node30 -->
<g id="edge42_Node000028_Node000030" class="edge">
<title>Node28&#45;&gt;Node30</title>
<g id="a_edge42_Node000028_Node000030"><a xlink:title=" ">
<path fill="none" stroke="#63b8ff" d="M698.05,-274.98C709.46,-266.92 726.83,-254.65 740.43,-245.03"/>
<polygon fill="#63b8ff" stroke="#63b8ff" points="742.58,-247.8 748.73,-239.17 738.54,-242.08 742.58,-247.8"/>
</a>
</g>
</g>
<!-- Node32&#45;&gt;Node5 -->
<g id="edge52_Node000032_Node000005" class="edge">
<title>Node32&#45;&gt;Node5</title>
<g id="a_edge52_Node000032_Node000005"><a xlink:title=" ">
<path fill="none" stroke="#63b8ff" d="M830.46,-219.86C810.44,-211.28 779.26,-197.48 753,-184 737.94,-176.27 735.97,-170.6 720,-165 620.71,-130.15 588.98,-150.59 486,-129 466.77,-124.97 352.51,-94 289.56,-76.85"/>
<polygon fill="#63b8ff" stroke="#63b8ff" points="290.11,-73.37 279.55,-74.12 288.27,-80.13 290.11,-73.37"/>
</a>
</g>
</g>
<!-- Node32&#45;&gt;Node6 -->
<g id="edge57_Node000032_Node000006" class="edge">
<title>Node32&#45;&gt;Node6</title>
<g id="a_edge57_Node000032_Node000006"><a xlink:title=" ">
<path fill="none" stroke="#63b8ff" d="M882.11,-219.98C954.65,-199.37 1126.59,-145.87 1095,-110 1045.44,-53.72 506.34,-20.75 354.56,-12.54"/>
<polygon fill="#63b8ff" stroke="#63b8ff" points="354.48,-9.03 344.31,-11.99 354.11,-16.02 354.48,-9.03"/>
</a>
</g>
</g>
<!-- Node32&#45;&gt;Node18 -->
<g id="edge56_Node000032_Node000018" class="edge">
<title>Node32&#45;&gt;Node18</title>
<g id="a_edge56_Node000032_Node000018"><a xlink:title=" ">
<path fill="none" stroke="#63b8ff" d="M840.17,-219.91C822.74,-206.47 786.98,-180.4 753,-165 699.56,-140.78 677.96,-156.24 626,-129 602.18,-116.51 578.93,-95.81 564.32,-81.46"/>
<polygon fill="#63b8ff" stroke="#63b8ff" points="566.67,-78.86 557.15,-74.23 561.71,-83.79 566.67,-78.86"/>
</a>
</g>
</g>
<!-- Node32&#45;&gt;Node23 -->
<g id="edge55_Node000032_Node000023" class="edge">
<title>Node32&#45;&gt;Node23</title>
<g id="a_edge55_Node000032_Node000023"><a xlink:title=" ">
<path fill="none" stroke="#63b8ff" d="M820.79,-219.98C788.96,-211.01 738.64,-196.82 703.4,-186.89"/>
<polygon fill="#63b8ff" stroke="#63b8ff" points="704.02,-183.43 693.44,-184.08 702.12,-190.16 704.02,-183.43"/>
</a>
</g>
</g>
<!-- Node32&#45;&gt;Node27 -->
<g id="edge53_Node000032_Node000027" class="edge">
<title>Node32&#45;&gt;Node27</title>
<g id="a_edge53_Node000032_Node000027"><a xlink:title=" ">
<path fill="none" stroke="#63b8ff" d="M898.72,-221.87C903.54,-221.23 908.37,-220.59 913,-220 1043.37,-203.27 1079.15,-204.71 1212.76,-184.09"/>
<polygon fill="#63b8ff" stroke="#63b8ff" points="1213.63,-187.5 1222.98,-182.5 1212.56,-180.58 1213.63,-187.5"/>
</a>
</g>
</g>
<!-- Node33 -->
<g id="Node000033" class="node">
<title>Node33</title>
<g id="a_Node000033"><a xlink:href="_e_s_p8266_task_8h.html" target="_top" xlink:title=" ">
<polygon fill="white" stroke="#666666" points="895.5,-184 806.5,-184 806.5,-165 895.5,-165 895.5,-184"/>
<text text-anchor="middle" x="851" y="-172" font-family="Helvetica,sans-Serif" font-size="10.00">ESP8266Task.h</text>
</a>
</g>
</g>
<!-- Node32&#45;&gt;Node33 -->
<g id="edge45_Node000032_Node000033" class="edge">
<title>Node32&#45;&gt;Node33</title>
<g id="a_edge45_Node000032_Node000033"><a xlink:title=" ">
<path fill="none" stroke="#63b8ff" d="M851,-219.75C851,-212.8 851,-202.85 851,-194.13"/>
<polygon fill="#63b8ff" stroke="#63b8ff" points="854.5,-194.09 851,-184.09 847.5,-194.09 854.5,-194.09"/>
</a>
</g>
</g>
<!-- Node40 -->
<g id="Node000040" class="node">
<title>Node40</title>
<g id="a_Node000040"><a xlink:href="_i_scheduler_connection_kit_8h.html" target="_top" xlink:title=" ">
<polygon fill="white" stroke="#666666" points="1204.5,-184 1059.5,-184 1059.5,-165 1204.5,-165 1204.5,-184"/>
<text text-anchor="middle" x="1132" y="-172" font-family="Helvetica,sans-Serif" font-size="10.00">ISchedulerConnectionKit.h</text>
</a>
</g>
</g>
<!-- Node32&#45;&gt;Node40 -->
<g id="edge54_Node000032_Node000040" class="edge">
<title>Node32&#45;&gt;Node40</title>
<g id="a_edge54_Node000032_Node000040"><a xlink:title=" ">
<path fill="none" stroke="#63b8ff" d="M896.15,-219.98C945.26,-210.72 1023.82,-195.9 1076.62,-185.94"/>
<polygon fill="#63b8ff" stroke="#63b8ff" points="1077.32,-189.37 1086.5,-184.08 1076.02,-182.5 1077.32,-189.37"/>
</a>
</g>
</g>
<!-- Node34 -->
<g id="Node000034" class="node">
<title>Node34</title>
<g id="a_Node000034"><a xlink:title=" ">
<polygon fill="#e0e0e0" stroke="#999999" points="841,-129 785,-129 785,-110 841,-110 841,-129"/>
<text text-anchor="middle" x="813" y="-117" font-family="Helvetica,sans-Serif" font-size="10.00">stddef.h</text>
</a>
</g>
</g>
<!-- Node33&#45;&gt;Node34 -->
<g id="edge46_Node000033_Node000034" class="edge">
<title>Node33&#45;&gt;Node34</title>
<g id="a_edge46_Node000033_Node000034"><a xlink:title=" ">
<path fill="none" stroke="#63b8ff" d="M844.73,-164.75C839.41,-157.34 831.64,-146.5 825.12,-137.41"/>
<polygon fill="#63b8ff" stroke="#63b8ff" points="827.83,-135.18 819.16,-129.09 822.14,-139.26 827.83,-135.18"/>
</a>
</g>
</g>
<!-- Node35 -->
<g id="Node000035" class="node">
<title>Node35</title>
<g id="a_Node000035"><a xlink:title=" ">
<polygon fill="#e0e0e0" stroke="#999999" points="912.5,-129 859.5,-129 859.5,-110 912.5,-110 912.5,-129"/>
<text text-anchor="middle" x="886" y="-117" font-family="Helvetica,sans-Serif" font-size="10.00">stdint.h</text>
</a>
</g>
</g>
<!-- Node33&#45;&gt;Node35 -->
<g id="edge47_Node000033_Node000035" class="edge">
<title>Node33&#45;&gt;Node35</title>
<g id="a_edge47_Node000033_Node000035"><a xlink:title=" ">
<path fill="none" stroke="#63b8ff" d="M856.78,-164.75C861.62,-157.42 868.68,-146.73 874.64,-137.7"/>
<polygon fill="#63b8ff" stroke="#63b8ff" points="877.74,-139.36 880.33,-129.09 871.9,-135.5 877.74,-139.36"/>
</a>
</g>
</g>
<!-- Node36 -->
<g id="Node000036" class="node">
<title>Node36</title>
<g id="a_Node000036"><a xlink:title=" ">
<polygon fill="#e0e0e0" stroke="#999999" points="993.5,-129 930.5,-129 930.5,-110 993.5,-110 993.5,-129"/>
<text text-anchor="middle" x="962" y="-117" font-family="Helvetica,sans-Serif" font-size="10.00">c_types.h</text>
</a>
</g>
</g>
<!-- Node33&#45;&gt;Node36 -->
<g id="edge48_Node000033_Node000036" class="edge">
<title>Node33&#45;&gt;Node36</title>
<g id="a_edge48_Node000033_Node000036"><a xlink:title=" ">
<path fill="none" stroke="#63b8ff" d="M868.83,-164.98C886.61,-156.5 914.15,-143.35 934.68,-133.54"/>
<polygon fill="#63b8ff" stroke="#63b8ff" points="936.33,-136.64 943.84,-129.17 933.31,-130.32 936.33,-136.64"/>
</a>
</g>
</g>
<!-- Node37 -->
<g id="Node000037" class="node">
<title>Node37</title>
<g id="a_Node000037"><a xlink:title=" ">
<polygon fill="#e0e0e0" stroke="#999999" points="1086,-129 1012,-129 1012,-110 1086,-110 1086,-129"/>
<text text-anchor="middle" x="1049" y="-117" font-family="Helvetica,sans-Serif" font-size="10.00">eagle_soc.h</text>
</a>
</g>
</g>
<!-- Node33&#45;&gt;Node37 -->
<g id="edge49_Node000033_Node000037" class="edge">
<title>Node33&#45;&gt;Node37</title>
<g id="a_edge49_Node000033_Node000037"><a xlink:title=" ">
<path fill="none" stroke="#63b8ff" d="M882.81,-164.98C916.49,-155.97 969.8,-141.7 1006.92,-131.76"/>
<polygon fill="#63b8ff" stroke="#63b8ff" points="1008.18,-135.05 1016.94,-129.08 1006.37,-128.29 1008.18,-135.05"/>
</a>
</g>
</g>
<!-- Node38 -->
<g id="Node000038" class="node">
<title>Node38</title>
<g id="a_Node000038"><a xlink:title=" ">
<polygon fill="#e0e0e0" stroke="#999999" points="697,-129 635,-129 635,-110 697,-110 697,-129"/>
<text text-anchor="middle" x="666" y="-117" font-family="Helvetica,sans-Serif" font-size="10.00">ets_sys.h</text>
</a>
</g>
</g>
<!-- Node33&#45;&gt;Node38 -->
<g id="edge50_Node000033_Node000038" class="edge">
<title>Node33&#45;&gt;Node38</title>
<g id="a_edge50_Node000033_Node000038"><a xlink:title=" ">
<path fill="none" stroke="#63b8ff" d="M821.28,-164.98C789.95,-156.01 740.43,-141.82 705.76,-131.89"/>
<polygon fill="#63b8ff" stroke="#63b8ff" points="706.53,-128.47 695.96,-129.08 704.61,-135.2 706.53,-128.47"/>
</a>
</g>
</g>
<!-- Node39 -->
<g id="Node000039" class="node">
<title>Node39</title>
<g id="a_Node000039"><a xlink:title=" ">
<polygon fill="#e0e0e0" stroke="#999999" points="767,-129 715,-129 715,-110 767,-110 767,-129"/>
<text text-anchor="middle" x="741" y="-117" font-family="Helvetica,sans-Serif" font-size="10.00">osapi.h</text>
</a>
</g>
</g>
<!-- Node33&#45;&gt;Node39 -->
<g id="edge51_Node000033_Node000039" class="edge">
<title>Node33&#45;&gt;Node39</title>
<g id="a_edge51_Node000033_Node000039"><a xlink:title=" ">
<path fill="none" stroke="#63b8ff" d="M833.33,-164.98C815.71,-156.5 788.42,-143.35 768.07,-133.54"/>
<polygon fill="#63b8ff" stroke="#63b8ff" points="769.52,-130.36 758.99,-129.17 766.48,-136.66 769.52,-130.36"/>
</a>
</g>
</g>
</g>
</svg>
