<?xml version="1.0" encoding="UTF-8" standalone="no"?>
<!DOCTYPE svg PUBLIC "-//W3C//DTD SVG 1.1//EN"
 "http://www.w3.org/Graphics/SVG/1.1/DTD/svg11.dtd">
<!-- Generated by graphviz version 2.43.0 (0)
 -->
<!-- Title: ESP8266Task.h Pages: 1 -->
<svg width="632pt" height="412pt"
 viewBox="0.00 0.00 632.41 412.00" xmlns="http://www.w3.org/2000/svg" xmlns:xlink="http://www.w3.org/1999/xlink">
<g id="graph0" class="graph" transform="scale(1 1) rotate(0) translate(4 408)">
<title>ESP8266Task.h</title>
<!-- Node1 -->
<g id="Node000001" class="node">
<title>Node1</title>
<g id="a_Node000001"><a xlink:title=" ">
<polygon fill="#999999" stroke="#666666" points="348.37,-404 259.37,-404 259.37,-385 348.37,-385 348.37,-404"/>
<text text-anchor="middle" x="303.87" y="-392" font-family="Helvetica,sans-Serif" font-size="10.00">ESP8266Task.h</text>
</a>
</g>
</g>
<!-- Node2 -->
<g id="Node000002" class="node">
<title>Node2</title>
<g id="a_Node000002"><a xlink:href="_task_scheduler_8h.html" target="_top" xlink:title=" ">
<polygon fill="white" stroke="#666666" points="351.37,-349 256.37,-349 256.37,-330 351.37,-330 351.37,-349"/>
<text text-anchor="middle" x="303.87" y="-337" font-family="Helvetica,sans-Serif" font-size="10.00">TaskScheduler.h</text>
</a>
</g>
</g>
<!-- Node1&#45;&gt;Node2 -->
<g id="edge1_Node000001_Node000002" class="edge">
<title>Node1&#45;&gt;Node2</title>
<g id="a_edge1_Node000001_Node000002"><a xlink:title=" ">
<path fill="none" stroke="#63b8ff" d="M303.87,-374.66C303.87,-365.93 303.87,-355.99 303.87,-349.09"/>
<polygon fill="#63b8ff" stroke="#63b8ff" points="300.37,-374.75 303.87,-384.75 307.37,-374.75 300.37,-374.75"/>
</a>
</g>
</g>
<!-- Node3 -->
<g id="Node000003" class="node">
<title>Node3</title>
<g id="a_Node000003"><a xlink:href="_button_8h.html" target="_top" xlink:title=" ">
<polygon fill="white" stroke="#666666" points="195.87,-239 137.87,-239 137.87,-220 195.87,-220 195.87,-239"/>
<text text-anchor="middle" x="166.87" y="-227" font-family="Helvetica,sans-Serif" font-size="10.00">Button.h</text>
</a>
</g>
</g>
<!-- Node2&#45;&gt;Node3 -->
<g id="edge2_Node000002_Node000003" class="edge">
<title>Node2&#45;&gt;Node3</title>
<g id="a_edge2_Node000002_Node000003"><a xlink:title=" ">
<path fill="none" stroke="#63b8ff" d="M266.95,-326.33C248.44,-318.98 226.48,-308.25 209.87,-294 191.47,-278.23 177.5,-252.79 170.96,-239.4"/>
<polygon fill="#63b8ff" stroke="#63b8ff" points="265.96,-329.7 276.55,-329.97 268.44,-323.15 265.96,-329.7"/>
</a>
</g>
</g>
<!-- Node6 -->
<g id="Node000006" class="node">
<title>Node6</title>
<g id="a_Node000006"><a xlink:href="_uniot_8h.html" target="_top" xlink:title="Main API interface for the Uniot IoT platform.">
<polygon fill="white" stroke="#666666" points="396.87,-74 344.87,-74 344.87,-55 396.87,-55 396.87,-74"/>
<text text-anchor="middle" x="370.87" y="-62" font-family="Helvetica,sans-Serif" font-size="10.00">Uniot.h</text>
</a>
</g>
</g>
<!-- Node2&#45;&gt;Node6 -->
<g id="edge25_Node000002_Node000006" class="edge">
<title>Node2&#45;&gt;Node6</title>
<g id="a_edge25_Node000002_Node000006"><a xlink:title=" ">
<path fill="none" stroke="#63b8ff" d="M246.09,-329.98C158.16,-315.35 0.87,-282 0.87,-230.5 0.87,-230.5 0.87,-230.5 0.87,-173.5 0.87,-144.04 -2.6,-129.05 19.87,-110 68.84,-68.5 271.8,-65.1 344.67,-65.25"/>
<polygon fill="#63b8ff" stroke="#63b8ff" points="245.76,-333.47 256.19,-331.62 246.89,-326.56 245.76,-333.47"/>
</a>
</g>
</g>
<!-- Node10 -->
<g id="Node000010" class="node">
<title>Node10</title>
<g id="a_Node000010"><a xlink:href="_date_8h.html" target="_top" xlink:title=" ">
<polygon fill="white" stroke="#666666" points="438.37,-239 389.37,-239 389.37,-220 438.37,-220 438.37,-239"/>
<text text-anchor="middle" x="413.87" y="-227" font-family="Helvetica,sans-Serif" font-size="10.00">Date.h</text>
</a>
</g>
</g>
<!-- Node2&#45;&gt;Node10 -->
<g id="edge10_Node000002_Node000010" class="edge">
<title>Node2&#45;&gt;Node10</title>
<g id="a_edge10_Node000002_Node000010"><a xlink:title=" ">
<path fill="none" stroke="#63b8ff" d="M361.06,-327.2C379.58,-320.63 398.3,-310.28 409.87,-294 421.52,-277.62 418.63,-252.43 415.98,-239.24"/>
<polygon fill="#63b8ff" stroke="#63b8ff" points="359.88,-323.9 351.44,-330.3 362.03,-330.56 359.88,-323.9"/>
</a>
</g>
</g>
<!-- Node12 -->
<g id="Node000012" class="node">
<title>Node12</title>
<g id="a_Node000012"><a xlink:href="_m_q_t_t_kit_8h.html" target="_top" xlink:title=" ">
<polygon fill="white" stroke="#666666" points="342.87,-184 274.87,-184 274.87,-165 342.87,-165 342.87,-184"/>
<text text-anchor="middle" x="308.87" y="-172" font-family="Helvetica,sans-Serif" font-size="10.00">MQTTKit.h</text>
</a>
</g>
</g>
<!-- Node2&#45;&gt;Node12 -->
<g id="edge20_Node000002_Node000012" class="edge">
<title>Node2&#45;&gt;Node12</title>
<g id="a_edge20_Node000002_Node000012"><a xlink:title=" ">
<path fill="none" stroke="#63b8ff" d="M285.63,-322.97C261.28,-300.27 223.35,-256.71 242.87,-220 251.95,-202.92 270.84,-191.21 286.09,-184.11"/>
<polygon fill="#63b8ff" stroke="#63b8ff" points="283.49,-325.75 293.27,-329.84 288.17,-320.55 283.49,-325.75"/>
</a>
</g>
</g>
<!-- Node14 -->
<g id="Node000014" class="node">
<title>Node14</title>
<g id="a_Node000014"><a xlink:href="_top_device_8h.html" target="_top" xlink:title=" ">
<polygon fill="white" stroke="#666666" points="512.87,-184 436.87,-184 436.87,-165 512.87,-165 512.87,-184"/>
<text text-anchor="middle" x="474.87" y="-172" font-family="Helvetica,sans-Serif" font-size="10.00">TopDevice.h</text>
</a>
</g>
</g>
<!-- Node2&#45;&gt;Node14 -->
<g id="edge24_Node000002_Node000014" class="edge">
<title>Node2&#45;&gt;Node14</title>
<g id="a_edge24_Node000002_Node000014"><a xlink:title=" ">
<path fill="none" stroke="#63b8ff" d="M361.33,-328.62C384.44,-322.13 409.82,-311.46 427.87,-294 460.32,-262.61 470.9,-206 473.85,-184.3"/>
<polygon fill="#63b8ff" stroke="#63b8ff" points="360.4,-325.25 351.6,-331.16 362.16,-332.03 360.4,-325.25"/>
</a>
</g>
</g>
<!-- Node15 -->
<g id="Node000015" class="node">
<title>Node15</title>
<g id="a_Node000015"><a xlink:href="_network_scheduler_8h.html" target="_top" xlink:title="Complete WiFi network management and configuration system.">
<polygon fill="white" stroke="#666666" points="365.87,-239 251.87,-239 251.87,-220 365.87,-220 365.87,-239"/>
<text text-anchor="middle" x="308.87" y="-227" font-family="Helvetica,sans-Serif" font-size="10.00">NetworkScheduler.h</text>
</a>
</g>
</g>
<!-- Node2&#45;&gt;Node15 -->
<g id="edge21_Node000002_Node000015" class="edge">
<title>Node2&#45;&gt;Node15</title>
<g id="a_edge21_Node000002_Node000015"><a xlink:title=" ">
<path fill="none" stroke="#63b8ff" d="M291.48,-321.41C283.82,-308.75 276.26,-290.98 280.87,-275 284.81,-261.32 294.35,-247.79 301.2,-239.3"/>
<polygon fill="#63b8ff" stroke="#63b8ff" points="288.72,-323.58 297.15,-329.99 294.55,-319.72 288.72,-323.58"/>
</a>
</g>
</g>
<!-- Node16 -->
<g id="Node000016" class="node">
<title>Node16</title>
<g id="a_Node000016"><a xlink:href="_wi_fi_network_scan_8h.html" target="_top" xlink:title="Platform&#45;specific WiFi network scanning utilities.">
<polygon fill="white" stroke="#666666" points="401.37,-294 290.37,-294 290.37,-275 401.37,-275 401.37,-294"/>
<text text-anchor="middle" x="345.87" y="-282" font-family="Helvetica,sans-Serif" font-size="10.00">WiFiNetworkScan.h</text>
</a>
</g>
</g>
<!-- Node2&#45;&gt;Node16 -->
<g id="edge26_Node000002_Node000016" class="edge">
<title>Node2&#45;&gt;Node16</title>
<g id="a_edge26_Node000002_Node000016"><a xlink:title=" ">
<path fill="none" stroke="#63b8ff" d="M317.2,-321.67C324.48,-312.5 333.17,-301.52 339.06,-294.09"/>
<polygon fill="#63b8ff" stroke="#63b8ff" points="314.27,-319.74 310.8,-329.75 319.76,-324.08 314.27,-319.74"/>
</a>
</g>
</g>
<!-- Node17 -->
<g id="Node000017" class="node">
<title>Node17</title>
<g id="a_Node000017"><a xlink:href="un_lisp_8h.html" target="_top" xlink:title=" ">
<polygon fill="white" stroke="#666666" points="599.37,-239 542.37,-239 542.37,-220 599.37,-220 599.37,-239"/>
<text text-anchor="middle" x="570.87" y="-227" font-family="Helvetica,sans-Serif" font-size="10.00">unLisp.h</text>
</a>
</g>
</g>
<!-- Node2&#45;&gt;Node17 -->
<g id="edge28_Node000002_Node000017" class="edge">
<title>Node2&#45;&gt;Node17</title>
<g id="a_edge28_Node000002_Node000017"><a xlink:title=" ">
<path fill="none" stroke="#63b8ff" d="M361.69,-330.47C398.49,-323.9 446.47,-312.58 485.87,-294 516.52,-279.54 547.02,-253.06 561.75,-239.31"/>
<polygon fill="#63b8ff" stroke="#63b8ff" points="360.88,-327.06 351.62,-332.2 362.07,-333.95 360.88,-327.06"/>
</a>
</g>
</g>
<!-- Node4 -->
<g id="Node000004" class="node">
<title>Node4</title>
<g id="a_Node000004"><a xlink:href="_lisp_primitives_8h.html" target="_top" xlink:title=" ">
<polygon fill="white" stroke="#666666" points="124.37,-184 29.37,-184 29.37,-165 124.37,-165 124.37,-184"/>
<text text-anchor="middle" x="76.87" y="-172" font-family="Helvetica,sans-Serif" font-size="10.00">LispPrimitives.h</text>
</a>
</g>
</g>
<!-- Node3&#45;&gt;Node4 -->
<g id="edge3_Node000003_Node000004" class="edge">
<title>Node3&#45;&gt;Node4</title>
<g id="a_edge3_Node000003_Node000004"><a xlink:title=" ">
<path fill="none" stroke="#63b8ff" d="M143.43,-214.7C127.03,-205.04 105.64,-192.44 91.59,-184.17"/>
<polygon fill="#63b8ff" stroke="#63b8ff" points="142.02,-217.93 152.41,-219.98 145.57,-211.89 142.02,-217.93"/>
</a>
</g>
</g>
<!-- Node9 -->
<g id="Node000009" class="node">
<title>Node9</title>
<g id="a_Node000009"><a xlink:href="_network_controller_8h.html" target="_top" xlink:title="High&#45;level network management controller with user interface.">
<polygon fill="white" stroke="#666666" points="256.87,-184 142.87,-184 142.87,-165 256.87,-165 256.87,-184"/>
<text text-anchor="middle" x="199.87" y="-172" font-family="Helvetica,sans-Serif" font-size="10.00">NetworkController.h</text>
</a>
</g>
</g>
<!-- Node3&#45;&gt;Node9 -->
<g id="edge8_Node000003_Node000009" class="edge">
<title>Node3&#45;&gt;Node9</title>
<g id="a_edge8_Node000003_Node000009"><a xlink:title=" ">
<path fill="none" stroke="#63b8ff" d="M177.7,-211.1C183.34,-202.04 189.99,-191.37 194.52,-184.09"/>
<polygon fill="#63b8ff" stroke="#63b8ff" points="174.63,-209.41 172.32,-219.75 180.57,-213.11 174.63,-209.41"/>
</a>
</g>
</g>
<!-- Node5 -->
<g id="Node000005" class="node">
<title>Node5</title>
<g id="a_Node000005"><a xlink:href="_app_kit_8h.html" target="_top" xlink:title=" ">
<polygon fill="white" stroke="#666666" points="456.87,-129 398.87,-129 398.87,-110 456.87,-110 456.87,-129"/>
<text text-anchor="middle" x="427.87" y="-117" font-family="Helvetica,sans-Serif" font-size="10.00">AppKit.h</text>
</a>
</g>
</g>
<!-- Node4&#45;&gt;Node5 -->
<g id="edge4_Node000004_Node000005" class="edge">
<title>Node4&#45;&gt;Node5</title>
<g id="a_edge4_Node000004_Node000005"><a xlink:title=" ">
<path fill="none" stroke="#63b8ff" d="M134.91,-164.74C210.82,-153.27 340.94,-133.63 398.73,-124.9"/>
<polygon fill="#63b8ff" stroke="#63b8ff" points="133.94,-161.34 124.57,-166.3 134.98,-168.26 133.94,-161.34"/>
</a>
</g>
</g>
<!-- Node8 -->
<g id="Node000008" class="node">
<title>Node8</title>
<g id="a_Node000008"><a xlink:href="_lisp_primitives_8cpp.html" target="_top" xlink:title=" ">
<polygon fill="white" stroke="#666666" points="134.87,-129 28.87,-129 28.87,-110 134.87,-110 134.87,-129"/>
<text text-anchor="middle" x="81.87" y="-117" font-family="Helvetica,sans-Serif" font-size="10.00">LispPrimitives.cpp</text>
</a>
</g>
</g>
<!-- Node4&#45;&gt;Node8 -->
<g id="edge7_Node000004_Node000008" class="edge">
<title>Node4&#45;&gt;Node8</title>
<g id="a_edge7_Node000004_Node000008"><a xlink:title=" ">
<path fill="none" stroke="#63b8ff" d="M78.65,-154.66C79.47,-145.93 80.41,-135.99 81.06,-129.09"/>
<polygon fill="#63b8ff" stroke="#63b8ff" points="75.15,-154.46 77.69,-164.75 82.12,-155.12 75.15,-154.46"/>
</a>
</g>
</g>
<!-- Node5&#45;&gt;Node6 -->
<g id="edge5_Node000005_Node000006" class="edge">
<title>Node5&#45;&gt;Node6</title>
<g id="a_edge5_Node000005_Node000006"><a xlink:title=" ">
<path fill="none" stroke="#63b8ff" d="M411.25,-103.04C401.13,-93.64 388.59,-81.98 380.19,-74.17"/>
<polygon fill="#63b8ff" stroke="#63b8ff" points="409,-105.74 418.71,-109.98 413.77,-100.61 409,-105.74"/>
</a>
</g>
</g>
<!-- Node7 -->
<g id="Node000007" class="node">
<title>Node7</title>
<g id="a_Node000007"><a xlink:href="_uniot_8cpp.html" target="_top" xlink:title=" ">
<polygon fill="white" stroke="#666666" points="402.37,-19 339.37,-19 339.37,0 402.37,0 402.37,-19"/>
<text text-anchor="middle" x="370.87" y="-7" font-family="Helvetica,sans-Serif" font-size="10.00">Uniot.cpp</text>
</a>
</g>
</g>
<!-- Node6&#45;&gt;Node7 -->
<g id="edge6_Node000006_Node000007" class="edge">
<title>Node6&#45;&gt;Node7</title>
<g id="a_edge6_Node000006_Node000007"><a xlink:title=" ">
<path fill="none" stroke="#63b8ff" d="M370.87,-44.66C370.87,-35.93 370.87,-25.99 370.87,-19.09"/>
<polygon fill="#63b8ff" stroke="#63b8ff" points="367.37,-44.75 370.87,-54.75 374.37,-44.75 367.37,-44.75"/>
</a>
</g>
</g>
<!-- Node9&#45;&gt;Node5 -->
<g id="edge9_Node000009_Node000005" class="edge">
<title>Node9&#45;&gt;Node5</title>
<g id="a_edge9_Node000009_Node000005"><a xlink:title=" ">
<path fill="none" stroke="#63b8ff" d="M246.44,-162.67C292.03,-152.08 360.08,-136.26 398.58,-127.31"/>
<polygon fill="#63b8ff" stroke="#63b8ff" points="245.45,-159.31 236.5,-164.98 247.03,-166.13 245.45,-159.31"/>
</a>
</g>
</g>
<!-- Node10&#45;&gt;Node5 -->
<g id="edge11_Node000010_Node000005" class="edge">
<title>Node10&#45;&gt;Node5</title>
<g id="a_edge11_Node000010_Node000005"><a xlink:title=" ">
<path fill="none" stroke="#63b8ff" d="M416.33,-209.48C419.4,-185.84 424.5,-146.5 426.75,-129.16"/>
<polygon fill="#63b8ff" stroke="#63b8ff" points="412.83,-209.29 415.01,-219.66 419.77,-210.19 412.83,-209.29"/>
</a>
</g>
</g>
<!-- Node10&#45;&gt;Node6 -->
<g id="edge19_Node000010_Node000006" class="edge">
<title>Node10&#45;&gt;Node6</title>
<g id="a_edge19_Node000010_Node000006"><a xlink:title=" ">
<path fill="none" stroke="#63b8ff" d="M408.94,-209.83C399.67,-174.67 379.94,-99.9 373.19,-74.31"/>
<polygon fill="#63b8ff" stroke="#63b8ff" points="405.62,-210.96 411.56,-219.74 412.39,-209.17 405.62,-210.96"/>
</a>
</g>
</g>
<!-- Node11 -->
<g id="Node000011" class="node">
<title>Node11</title>
<g id="a_Node000011"><a xlink:href="_lisp_device_8h.html" target="_top" xlink:title=" ">
<polygon fill="white" stroke="#666666" points="610.37,-184 531.37,-184 531.37,-165 610.37,-165 610.37,-184"/>
<text text-anchor="middle" x="570.87" y="-172" font-family="Helvetica,sans-Serif" font-size="10.00">LispDevice.h</text>
</a>
</g>
</g>
<!-- Node10&#45;&gt;Node11 -->
<g id="edge12_Node000010_Node000011" class="edge">
<title>Node10&#45;&gt;Node11</title>
<g id="a_edge12_Node000010_Node000011"><a xlink:title=" ">
<path fill="none" stroke="#63b8ff" d="M448.22,-216.9C477.55,-207 519.06,-192.99 545.47,-184.07"/>
<polygon fill="#63b8ff" stroke="#63b8ff" points="446.75,-213.7 438.4,-220.22 448.99,-220.34 446.75,-213.7"/>
</a>
</g>
</g>
<!-- Node10&#45;&gt;Node12 -->
<g id="edge14_Node000010_Node000012" class="edge">
<title>Node10&#45;&gt;Node12</title>
<g id="a_edge14_Node000010_Node000012"><a xlink:title=" ">
<path fill="none" stroke="#63b8ff" d="M387.85,-215.37C368.56,-205.63 342.82,-192.64 326.05,-184.17"/>
<polygon fill="#63b8ff" stroke="#63b8ff" points="386.49,-218.6 397,-219.98 389.65,-212.35 386.49,-218.6"/>
</a>
</g>
</g>
<!-- Node10&#45;&gt;Node14 -->
<g id="edge17_Node000010_Node000014" class="edge">
<title>Node10&#45;&gt;Node14</title>
<g id="a_edge17_Node000010_Node000014"><a xlink:title=" ">
<path fill="none" stroke="#63b8ff" d="M431.34,-213.32C442.21,-203.87 455.81,-192.06 464.89,-184.17"/>
<polygon fill="#63b8ff" stroke="#63b8ff" points="428.92,-210.78 423.67,-219.98 433.51,-216.07 428.92,-210.78"/>
</a>
</g>
</g>
<!-- Node11&#45;&gt;Node5 -->
<g id="edge13_Node000011_Node000005" class="edge">
<title>Node11&#45;&gt;Node5</title>
<g id="a_edge13_Node000011_Node000005"><a xlink:title=" ">
<path fill="none" stroke="#63b8ff" d="M538.28,-161.42C511.75,-151.59 474.94,-137.95 451.26,-129.17"/>
<polygon fill="#63b8ff" stroke="#63b8ff" points="537.3,-164.79 547.89,-164.98 539.73,-158.23 537.3,-164.79"/>
</a>
</g>
</g>
<!-- Node12&#45;&gt;Node5 -->
<g id="edge15_Node000012_Node000005" class="edge">
<title>Node12&#45;&gt;Node5</title>
<g id="a_edge15_Node000012_Node000005"><a xlink:title=" ">
<path fill="none" stroke="#63b8ff" d="M337.16,-160.9C359.14,-151.11 389.04,-137.79 408.4,-129.17"/>
<polygon fill="#63b8ff" stroke="#63b8ff" points="335.7,-157.72 327.99,-164.98 338.55,-164.11 335.7,-157.72"/>
</a>
</g>
</g>
<!-- Node13 -->
<g id="Node000013" class="node">
<title>Node13</title>
<g id="a_Node000013"><a xlink:href="_m_q_t_t_device_8cpp.html" target="_top" xlink:title=" ">
<polygon fill="white" stroke="#666666" points="342.37,-129 243.37,-129 243.37,-110 342.37,-110 342.37,-129"/>
<text text-anchor="middle" x="292.87" y="-117" font-family="Helvetica,sans-Serif" font-size="10.00">MQTTDevice.cpp</text>
</a>
</g>
</g>
<!-- Node12&#45;&gt;Node13 -->
<g id="edge16_Node000012_Node000013" class="edge">
<title>Node12&#45;&gt;Node13</title>
<g id="a_edge16_Node000012_Node000013"><a xlink:title=" ">
<path fill="none" stroke="#63b8ff" d="M303.27,-154.95C300.61,-146.15 297.57,-136.06 295.46,-129.09"/>
<polygon fill="#63b8ff" stroke="#63b8ff" points="299.99,-156.19 306.23,-164.75 306.69,-154.16 299.99,-156.19"/>
</a>
</g>
</g>
<!-- Node14&#45;&gt;Node5 -->
<g id="edge18_Node000014_Node000005" class="edge">
<title>Node14&#45;&gt;Node5</title>
<g id="a_edge18_Node000014_Node000005"><a xlink:title=" ">
<path fill="none" stroke="#63b8ff" d="M460.45,-157.24C452.21,-147.95 442.21,-136.68 435.48,-129.09"/>
<polygon fill="#63b8ff" stroke="#63b8ff" points="457.85,-159.59 467.11,-164.75 463.09,-154.94 457.85,-159.59"/>
</a>
</g>
</g>
<!-- Node15&#45;&gt;Node9 -->
<g id="edge23_Node000015_Node000009" class="edge">
<title>Node15&#45;&gt;Node9</title>
<g id="a_edge23_Node000015_Node000009"><a xlink:title=" ">
<path fill="none" stroke="#63b8ff" d="M282.13,-215.5C262.08,-205.75 235.19,-192.68 217.7,-184.17"/>
<polygon fill="#63b8ff" stroke="#63b8ff" points="280.83,-218.76 291.36,-219.98 283.89,-212.46 280.83,-218.76"/>
</a>
</g>
</g>
<!-- Node15&#45;&gt;Node12 -->
<g id="edge22_Node000015_Node000012" class="edge">
<title>Node15&#45;&gt;Node12</title>
<g id="a_edge22_Node000015_Node000012"><a xlink:title=" ">
<path fill="none" stroke="#63b8ff" d="M308.87,-209.66C308.87,-200.93 308.87,-190.99 308.87,-184.09"/>
<polygon fill="#63b8ff" stroke="#63b8ff" points="305.37,-209.75 308.87,-219.75 312.37,-209.75 305.37,-209.75"/>
</a>
</g>
</g>
<!-- Node16&#45;&gt;Node15 -->
<g id="edge27_Node000016_Node000015" class="edge">
<title>Node16&#45;&gt;Node15</title>
<g id="a_edge27_Node000016_Node000015"><a xlink:title=" ">
<path fill="none" stroke="#63b8ff" d="M333.92,-266.39C327.56,-257.27 320,-246.45 314.86,-239.09"/>
<polygon fill="#63b8ff" stroke="#63b8ff" points="331.16,-268.55 339.76,-274.75 336.9,-264.55 331.16,-268.55"/>
</a>
</g>
</g>
<!-- Node17&#45;&gt;Node5 -->
<g id="edge29_Node000017_Node000005" class="edge">
<title>Node17&#45;&gt;Node5</title>
<g id="a_edge29_Node000017_Node000005"><a xlink:title=" ">
<path fill="none" stroke="#63b8ff" d="M594.73,-214.03C613.04,-201.1 633.12,-181.68 619.87,-165 599.86,-139.82 505.69,-127.62 457.08,-122.92"/>
<polygon fill="#63b8ff" stroke="#63b8ff" points="592.42,-211.36 586.04,-219.81 596.3,-217.18 592.42,-211.36"/>
</a>
</g>
</g>
<!-- Node17&#45;&gt;Node11 -->
<g id="edge30_Node000017_Node000011" class="edge">
<title>Node17&#45;&gt;Node11</title>
<g id="a_edge30_Node000017_Node000011"><a xlink:title=" ">
<path fill="none" stroke="#63b8ff" d="M570.87,-209.66C570.87,-200.93 570.87,-190.99 570.87,-184.09"/>
<polygon fill="#63b8ff" stroke="#63b8ff" points="567.37,-209.75 570.87,-219.75 574.37,-209.75 567.37,-209.75"/>
</a>
</g>
</g>
</g>
</svg>
