<?xml version="1.0" encoding="UTF-8" standalone="no"?>
<!DOCTYPE svg PUBLIC "-//W3C//DTD SVG 1.1//EN"
 "http://www.w3.org/Graphics/SVG/1.1/DTD/svg11.dtd">
<!-- Generated by graphviz version 2.43.0 (0)
 -->
<!-- Title: Graphical Class Hierarchy Pages: 1 -->
<svg width="872pt" height="630pt"
 viewBox="0.00 0.00 872.00 630.00" xmlns="http://www.w3.org/2000/svg" xmlns:xlink="http://www.w3.org/1999/xlink">
<g id="graph0" class="graph" transform="scale(1 1) rotate(0) translate(4 626)">
<title>Graphical Class Hierarchy</title>
<!-- Node0 -->
<g id="Node000000" class="node">
<title>Node0</title>
<g id="a_Node000000"><a xlink:href="classuniot_1_1_i_c_o_s_e_signer.html" target="_top" xlink:title="Interface for CBOR Object Signing and Encryption (COSE) signing operations.">
<polygon fill="white" stroke="#666666" points="448,-622 341,-622 341,-603 448,-603 448,-622"/>
<text text-anchor="middle" x="394.5" y="-610" font-family="Helvetica,sans-Serif" font-size="10.00">uniot::ICOSESigner</text>
</a>
</g>
</g>
<!-- Node1 -->
<g id="Node000001" class="node">
<title>Node1</title>
<g id="a_Node000001"><a xlink:href="classuniot_1_1_credentials.html" target="_top" xlink:title="Manages device identity and cryptographic credentials for Uniot devices.">
<polygon fill="white" stroke="#666666" points="640,-622 537,-622 537,-603 640,-603 640,-622"/>
<text text-anchor="middle" x="588.5" y="-610" font-family="Helvetica,sans-Serif" font-size="10.00">uniot::Credentials</text>
</a>
</g>
</g>
<!-- Node0&#45;&gt;Node1 -->
<g id="edge27_Node000000_Node000001" class="edge">
<title>Node0&#45;&gt;Node1</title>
<g id="a_edge27_Node000000_Node000001"><a xlink:title=" ">
<path fill="none" stroke="#63b8ff" d="M458.51,-612.5C483.93,-612.5 512.87,-612.5 536.89,-612.5"/>
<polygon fill="#63b8ff" stroke="#63b8ff" points="458.22,-609 448.22,-612.5 458.22,-616 458.22,-609"/>
</a>
</g>
</g>
<!-- Node20 -->
<g id="Node000020" class="node">
<title>Node20</title>
<g id="a_Node000020"><a xlink:href="classuniot_1_1_i_event_bus_connection_kit.html" target="_top" xlink:title=" ">
<polygon fill="white" stroke="#666666" points="664,-511 513,-511 513,-470 664,-470 664,-511"/>
<text text-anchor="start" x="521" y="-499" font-family="Helvetica,sans-Serif" font-size="10.00">uniot::IEventBusConnection</text>
<text text-anchor="start" x="521" y="-488" font-family="Helvetica,sans-Serif" font-size="10.00">Kit&lt; unsigned int, int,</text>
<text text-anchor="middle" x="588.5" y="-477" font-family="Helvetica,sans-Serif" font-size="10.00"> Bytes &gt;</text>
</a>
</g>
</g>
<!-- Node19 -->
<g id="Node000019" class="node">
<title>Node19</title>
<g id="a_Node000019"><a xlink:href="classuniot_1_1_app_kit.html" target="_top" xlink:title=" ">
<polygon fill="white" stroke="#666666" points="826,-500 746,-500 746,-481 826,-481 826,-500"/>
<text text-anchor="middle" x="786" y="-488" font-family="Helvetica,sans-Serif" font-size="10.00">uniot::AppKit</text>
</a>
</g>
</g>
<!-- Node20&#45;&gt;Node19 -->
<g id="edge28_Node000020_Node000019" class="edge">
<title>Node20&#45;&gt;Node19</title>
<g id="a_edge28_Node000020_Node000019"><a xlink:title=" ">
<path fill="none" stroke="#63b8ff" d="M674.45,-490.5C699.33,-490.5 725.33,-490.5 745.86,-490.5"/>
<polygon fill="#63b8ff" stroke="#63b8ff" points="674.25,-487 664.25,-490.5 674.25,-494 674.25,-487"/>
</a>
</g>
</g>
<!-- Node4 -->
<g id="Node000004" class="node">
<title>Node4</title>
<g id="a_Node000004"><a xlink:href="classuniot_1_1_i_executor.html" target="_top" xlink:title="Interface for executing tasks in the scheduler system.">
<polygon fill="white" stroke="#666666" points="253.5,-105 161.5,-105 161.5,-86 253.5,-86 253.5,-105"/>
<text text-anchor="middle" x="207.5" y="-93" font-family="Helvetica,sans-Serif" font-size="10.00">uniot::IExecutor</text>
</a>
</g>
</g>
<!-- Node5 -->
<g id="Node000005" class="node">
<title>Node5</title>
<g id="a_Node000005"><a xlink:href="classuniot_1_1_event_bus.html" target="_top" xlink:title=" ">
<polygon fill="white" stroke="#666666" points="469,-153.5 320,-153.5 320,-123.5 469,-123.5 469,-153.5"/>
<text text-anchor="start" x="328" y="-141.5" font-family="Helvetica,sans-Serif" font-size="10.00">uniot::EventBus&lt; unsigned</text>
<text text-anchor="middle" x="394.5" y="-130.5" font-family="Helvetica,sans-Serif" font-size="10.00"> int, int, Bytes &gt;</text>
</a>
</g>
</g>
<!-- Node4&#45;&gt;Node5 -->
<g id="edge29_Node000004_Node000005" class="edge">
<title>Node4&#45;&gt;Node5</title>
<g id="a_edge29_Node000004_Node000005"><a xlink:title=" ">
<path fill="none" stroke="#63b8ff" d="M259.45,-107.34C280.93,-112.34 306.18,-118.2 328.94,-123.49"/>
<polygon fill="#63b8ff" stroke="#63b8ff" points="260.09,-103.9 249.56,-105.04 258.51,-110.72 260.09,-103.9"/>
</a>
</g>
</g>
<!-- Node6 -->
<g id="Node000006" class="node">
<title>Node6</title>
<g id="a_Node000006"><a xlink:href="classuniot_1_1_button.html" target="_top" xlink:title=" ">
<polygon fill="white" stroke="#666666" points="434.5,-19 354.5,-19 354.5,0 434.5,0 434.5,-19"/>
<text text-anchor="middle" x="394.5" y="-7" font-family="Helvetica,sans-Serif" font-size="10.00">uniot::Button</text>
</a>
</g>
</g>
<!-- Node4&#45;&gt;Node6 -->
<g id="edge30_Node000004_Node000006" class="edge">
<title>Node4&#45;&gt;Node6</title>
<g id="a_edge30_Node000004_Node000006"><a xlink:title=" ">
<path fill="none" stroke="#63b8ff" d="M235.08,-80.96C249.67,-72.83 267.99,-62.38 284,-52.5 300.36,-42.4 302.45,-36.35 320,-28.5 330.71,-23.71 342.85,-19.96 354.14,-17.09"/>
<polygon fill="#63b8ff" stroke="#63b8ff" points="233.15,-78.03 226.1,-85.94 236.54,-84.15 233.15,-78.03"/>
</a>
</g>
</g>
<!-- Node29 -->
<g id="Node000029" class="node">
<title>Node29</title>
<g id="a_Node000029"><a xlink:href="classuniot_1_1_config_captive_portal.html" target="_top" xlink:title="Complete captive portal implementation for device configuration.">
<polygon fill="white" stroke="#666666" points="466.5,-105 322.5,-105 322.5,-86 466.5,-86 466.5,-105"/>
<text text-anchor="middle" x="394.5" y="-93" font-family="Helvetica,sans-Serif" font-size="10.00">uniot::ConfigCaptivePortal</text>
</a>
</g>
</g>
<!-- Node4&#45;&gt;Node29 -->
<g id="edge31_Node000004_Node000029" class="edge">
<title>Node4&#45;&gt;Node29</title>
<g id="a_edge31_Node000004_Node000029"><a xlink:title=" ">
<path fill="none" stroke="#63b8ff" d="M263.98,-95.5C282.34,-95.5 303.03,-95.5 322.4,-95.5"/>
<polygon fill="#63b8ff" stroke="#63b8ff" points="263.76,-92 253.76,-95.5 263.76,-99 263.76,-92"/>
</a>
</g>
</g>
<!-- Node3 -->
<g id="Node000003" class="node">
<title>Node3</title>
<g id="a_Node000003"><a xlink:href="classuniot_1_1_date.html" target="_top" xlink:title=" ">
<polygon fill="white" stroke="#666666" points="624,-191 553,-191 553,-172 624,-172 624,-191"/>
<text text-anchor="middle" x="588.5" y="-179" font-family="Helvetica,sans-Serif" font-size="10.00">uniot::Date</text>
</a>
</g>
</g>
<!-- Node4&#45;&gt;Node3 -->
<g id="edge32_Node000004_Node000003" class="edge">
<title>Node4&#45;&gt;Node3</title>
<g id="a_edge32_Node000004_Node000003"><a xlink:title=" ">
<path fill="none" stroke="#63b8ff" d="M228.21,-111.33C249.47,-127.4 284.99,-151.44 320,-162.5 400.36,-187.89 500.8,-186.87 552.76,-184.1"/>
<polygon fill="#63b8ff" stroke="#63b8ff" points="230.33,-108.54 220.28,-105.2 226.05,-114.08 230.33,-108.54"/>
</a>
</g>
</g>
<!-- Node30 -->
<g id="Node000030" class="node">
<title>Node30</title>
<g id="a_Node000030"><a xlink:href="classuniot_1_1_event_bus.html" target="_top" xlink:title=" ">
<polygon fill="white" stroke="#666666" points="461.5,-67.5 327.5,-67.5 327.5,-37.5 461.5,-37.5 461.5,-67.5"/>
<text text-anchor="start" x="335.5" y="-55.5" font-family="Helvetica,sans-Serif" font-size="10.00">uniot::EventBus&lt; T</text>
<text text-anchor="middle" x="394.5" y="-44.5" font-family="Helvetica,sans-Serif" font-size="10.00">_topic, T_msg, T_data &gt;</text>
</a>
</g>
</g>
<!-- Node4&#45;&gt;Node30 -->
<g id="edge33_Node000004_Node000030" class="edge">
<title>Node4&#45;&gt;Node30</title>
<g id="a_edge33_Node000004_Node000030"><a xlink:title=" ">
<path fill="none" stroke="#63b8ff" d="M259.45,-83.66C280.93,-78.66 306.18,-72.8 328.94,-67.51"/>
<polygon fill="#63b8ff" stroke="#63b8ff" points="258.51,-80.28 249.56,-85.96 260.09,-87.1 258.51,-80.28"/>
</a>
</g>
</g>
<!-- Node18 -->
<g id="Node000018" class="node">
<title>Node18</title>
<g id="a_Node000018"><a xlink:href="classuniot_1_1_i_scheduler_connection_kit.html" target="_top" xlink:title="Interface for connecting components to the TaskScheduler.">
<polygon fill="white" stroke="#666666" points="672,-365 505,-365 505,-346 672,-346 672,-365"/>
<text text-anchor="middle" x="588.5" y="-353" font-family="Helvetica,sans-Serif" font-size="10.00">uniot::ISchedulerConnectionKit</text>
</a>
</g>
</g>
<!-- Node18&#45;&gt;Node19 -->
<g id="edge34_Node000018_Node000019" class="edge">
<title>Node18&#45;&gt;Node19</title>
<g id="a_edge34_Node000018_Node000019"><a xlink:title=" ">
<path fill="none" stroke="#63b8ff" d="M664.54,-369.61C667.14,-371.08 669.64,-372.71 672,-374.5 698.62,-394.69 685.29,-415.99 708,-440.5 724.25,-458.04 747.89,-472.19 764.68,-480.9"/>
<polygon fill="#63b8ff" stroke="#63b8ff" points="665.87,-366.36 655.34,-365.14 662.81,-372.66 665.87,-366.36"/>
</a>
</g>
</g>
<!-- Node17 -->
<g id="Node000017" class="node">
<title>Node17</title>
<g id="a_Node000017"><a xlink:href="classuniot_1_1_m_q_t_t_kit.html" target="_top" xlink:title=" ">
<polygon fill="white" stroke="#666666" points="830.5,-309 741.5,-309 741.5,-290 830.5,-290 830.5,-309"/>
<text text-anchor="middle" x="786" y="-297" font-family="Helvetica,sans-Serif" font-size="10.00">uniot::MQTTKit</text>
</a>
</g>
</g>
<!-- Node18&#45;&gt;Node17 -->
<g id="edge35_Node000018_Node000017" class="edge">
<title>Node18&#45;&gt;Node17</title>
<g id="a_edge35_Node000018_Node000017"><a xlink:title=" ">
<path fill="none" stroke="#63b8ff" d="M626.56,-342.77C649.81,-334.99 680.49,-325.11 708,-317.5 718.72,-314.53 730.36,-311.64 741.27,-309.08"/>
<polygon fill="#63b8ff" stroke="#63b8ff" points="625.44,-339.45 617.08,-345.96 627.68,-346.08 625.44,-339.45"/>
</a>
</g>
</g>
<!-- Node22 -->
<g id="Node000022" class="node">
<title>Node22</title>
<g id="a_Node000022"><a xlink:href="classuniot_1_1_network_controller.html" target="_top" xlink:title="Network management controller with user interface integration.">
<polygon fill="white" stroke="#666666" points="854.5,-383 717.5,-383 717.5,-364 854.5,-364 854.5,-383"/>
<text text-anchor="middle" x="786" y="-371" font-family="Helvetica,sans-Serif" font-size="10.00">uniot::NetworkController</text>
</a>
</g>
</g>
<!-- Node18&#45;&gt;Node22 -->
<g id="edge36_Node000018_Node000022" class="edge">
<title>Node18&#45;&gt;Node22</title>
<g id="a_edge36_Node000018_Node000022"><a xlink:title=" ">
<path fill="none" stroke="#63b8ff" d="M682.1,-364.03C694.02,-365.12 706.04,-366.23 717.45,-367.28"/>
<polygon fill="#63b8ff" stroke="#63b8ff" points="682.41,-360.54 672.13,-363.11 681.76,-367.51 682.41,-360.54"/>
</a>
</g>
</g>
<!-- Node23 -->
<g id="Node000023" class="node">
<title>Node23</title>
<g id="a_Node000023"><a xlink:href="classuniot_1_1_network_scheduler.html" target="_top" xlink:title="Complete WiFi network management and configuration scheduler.">
<polygon fill="white" stroke="#666666" points="854.5,-346 717.5,-346 717.5,-327 854.5,-327 854.5,-346"/>
<text text-anchor="middle" x="786" y="-334" font-family="Helvetica,sans-Serif" font-size="10.00">uniot::NetworkScheduler</text>
</a>
</g>
</g>
<!-- Node18&#45;&gt;Node23 -->
<g id="edge37_Node000018_Node000023" class="edge">
<title>Node18&#45;&gt;Node23</title>
<g id="a_edge37_Node000018_Node000023"><a xlink:title=" ">
<path fill="none" stroke="#63b8ff" d="M682.1,-346.5C694.02,-345.34 706.04,-344.17 717.45,-343.07"/>
<polygon fill="#63b8ff" stroke="#63b8ff" points="681.74,-343.02 672.13,-347.47 682.42,-349.99 681.74,-343.02"/>
</a>
</g>
</g>
<!-- Node8 -->
<g id="Node000008" class="node">
<title>Node8</title>
<g id="a_Node000008"><a xlink:href="classuniot_1_1_i_with_type.html" target="_top" xlink:title="Interface for objects that expose their runtime type information.">
<polygon fill="white" stroke="#666666" points="95,-149 0,-149 0,-130 95,-130 95,-149"/>
<text text-anchor="middle" x="47.5" y="-137" font-family="Helvetica,sans-Serif" font-size="10.00">uniot::IWithType</text>
</a>
</g>
</g>
<!-- Node9 -->
<g id="Node000009" class="node">
<title>Node9</title>
<g id="a_Node000009"><a xlink:href="classuniot_1_1_event_entity.html" target="_top" xlink:title="Entity that can connect to and interact with EventBus instances.">
<polygon fill="white" stroke="#666666" points="264,-289 151,-289 151,-248 264,-248 264,-289"/>
<text text-anchor="start" x="159" y="-277" font-family="Helvetica,sans-Serif" font-size="10.00">uniot::EventEntity</text>
<text text-anchor="start" x="159" y="-266" font-family="Helvetica,sans-Serif" font-size="10.00">&lt; T_topic, T_msg, T</text>
<text text-anchor="middle" x="207.5" y="-255" font-family="Helvetica,sans-Serif" font-size="10.00">_data &gt;</text>
</a>
</g>
</g>
<!-- Node8&#45;&gt;Node9 -->
<g id="edge38_Node000008_Node000009" class="edge">
<title>Node8&#45;&gt;Node9</title>
<g id="a_edge38_Node000008_Node000009"><a xlink:title=" ">
<path fill="none" stroke="#63b8ff" d="M68.44,-155.78C97.07,-179.16 149.83,-222.23 181.19,-247.83"/>
<polygon fill="#63b8ff" stroke="#63b8ff" points="70.34,-152.81 60.38,-149.2 65.91,-158.23 70.34,-152.81"/>
</a>
</g>
</g>
<!-- Node7 -->
<g id="Node000007" class="node">
<title>Node7</title>
<g id="a_Node000007"><a xlink:href="classuniot_1_1_object_register_record.html" target="_top" xlink:title=" ">
<polygon fill="white" stroke="#666666" points="284,-44 131,-44 131,-25 284,-25 284,-44"/>
<text text-anchor="middle" x="207.5" y="-32" font-family="Helvetica,sans-Serif" font-size="10.00">uniot::ObjectRegisterRecord</text>
</a>
</g>
</g>
<!-- Node8&#45;&gt;Node7 -->
<g id="edge51_Node000008_Node000007" class="edge">
<title>Node8&#45;&gt;Node7</title>
<g id="a_edge51_Node000008_Node000007"><a xlink:title=" ">
<path fill="none" stroke="#63b8ff" d="M67.63,-123.63C83.99,-110.36 108.41,-91.3 131,-76.5 149.57,-64.34 171.9,-52.2 187.44,-44.12"/>
<polygon fill="#63b8ff" stroke="#63b8ff" points="65.39,-120.94 59.86,-129.98 69.82,-126.36 65.39,-120.94"/>
</a>
</g>
</g>
<!-- Node10 -->
<g id="Node000010" class="node">
<title>Node10</title>
<g id="a_Node000010"><a xlink:href="classuniot_1_1_event_emitter.html" target="_top" xlink:title=" ">
<polygon fill="white" stroke="#666666" points="450,-289 339,-289 339,-248 450,-248 450,-289"/>
<text text-anchor="start" x="347" y="-277" font-family="Helvetica,sans-Serif" font-size="10.00">uniot::EventEmitter</text>
<text text-anchor="start" x="347" y="-266" font-family="Helvetica,sans-Serif" font-size="10.00">&lt; unsigned int, int,</text>
<text text-anchor="middle" x="394.5" y="-255" font-family="Helvetica,sans-Serif" font-size="10.00"> Bytes &gt;</text>
</a>
</g>
</g>
<!-- Node9&#45;&gt;Node10 -->
<g id="edge39_Node000009_Node000010" class="edge">
<title>Node9&#45;&gt;Node10</title>
<g id="a_edge39_Node000009_Node000010"><a xlink:title=" ">
<path fill="none" stroke="#63b8ff" d="M274.23,-268.5C295.43,-268.5 318.69,-268.5 338.99,-268.5"/>
<polygon fill="#63b8ff" stroke="#63b8ff" points="274.01,-265 264.01,-268.5 274.01,-272 274.01,-265"/>
</a>
</g>
</g>
<!-- Node26 -->
<g id="Node000026" class="node">
<title>Node26</title>
<g id="a_Node000026"><a xlink:href="classuniot_1_1_event_emitter.html" target="_top" xlink:title=" ">
<polygon fill="white" stroke="#666666" points="451,-381 338,-381 338,-340 451,-340 451,-381"/>
<text text-anchor="start" x="346" y="-369" font-family="Helvetica,sans-Serif" font-size="10.00">uniot::EventEmitter</text>
<text text-anchor="start" x="346" y="-358" font-family="Helvetica,sans-Serif" font-size="10.00">&lt; T_topic, T_msg, T</text>
<text text-anchor="middle" x="394.5" y="-347" font-family="Helvetica,sans-Serif" font-size="10.00">_data &gt;</text>
</a>
</g>
</g>
<!-- Node9&#45;&gt;Node26 -->
<g id="edge48_Node000009_Node000026" class="edge">
<title>Node9&#45;&gt;Node26</title>
<g id="a_edge48_Node000009_Node000026"><a xlink:title=" ">
<path fill="none" stroke="#63b8ff" d="M259.23,-293.73C288.43,-308.25 324.66,-326.26 352.12,-339.92"/>
<polygon fill="#63b8ff" stroke="#63b8ff" points="260.53,-290.47 250.02,-289.15 257.41,-296.73 260.53,-290.47"/>
</a>
</g>
</g>
<!-- Node10&#45;&gt;Node3 -->
<g id="edge46_Node000010_Node000003" class="edge">
<title>Node10&#45;&gt;Node3</title>
<g id="a_edge46_Node000010_Node000003"><a xlink:title=" ">
<path fill="none" stroke="#63b8ff" d="M459.09,-243.27C462.5,-241.43 465.83,-239.5 469,-237.5 487.1,-226.08 486.26,-215.85 505,-205.5 519.75,-197.35 537.56,-191.72 552.84,-187.97"/>
<polygon fill="#63b8ff" stroke="#63b8ff" points="457.24,-240.29 449.92,-247.95 460.42,-246.52 457.24,-240.29"/>
</a>
</g>
</g>
<!-- Node10&#45;&gt;Node23 -->
<g id="edge47_Node000010_Node000023" class="edge">
<title>Node10&#45;&gt;Node23</title>
<g id="a_edge47_Node000010_Node000023"><a xlink:title=" ">
<path fill="none" stroke="#63b8ff" d="M460.06,-286.98C474.76,-290.8 490.35,-294.55 505,-297.5 576.93,-311.98 660.34,-322.85 717.29,-329.39"/>
<polygon fill="#63b8ff" stroke="#63b8ff" points="460.62,-283.51 450.06,-284.33 458.83,-290.27 460.62,-283.51"/>
</a>
</g>
</g>
<!-- Node11 -->
<g id="Node000011" class="node">
<title>Node11</title>
<g id="a_Node000011"><a xlink:href="classuniot_1_1_event_listener.html" target="_top" xlink:title=" ">
<polygon fill="white" stroke="#666666" points="645.5,-289 531.5,-289 531.5,-248 645.5,-248 645.5,-289"/>
<text text-anchor="start" x="539.5" y="-277" font-family="Helvetica,sans-Serif" font-size="10.00">uniot::EventListener</text>
<text text-anchor="start" x="539.5" y="-266" font-family="Helvetica,sans-Serif" font-size="10.00">&lt; unsigned int, int,</text>
<text text-anchor="middle" x="588.5" y="-255" font-family="Helvetica,sans-Serif" font-size="10.00"> Bytes &gt;</text>
</a>
</g>
</g>
<!-- Node10&#45;&gt;Node11 -->
<g id="edge40_Node000010_Node000011" class="edge">
<title>Node10&#45;&gt;Node11</title>
<g id="a_edge40_Node000010_Node000011"><a xlink:title=" ">
<path fill="none" stroke="#63b8ff" d="M460.04,-268.5C483.1,-268.5 508.88,-268.5 531.19,-268.5"/>
<polygon fill="#63b8ff" stroke="#63b8ff" points="460.01,-265 450.01,-268.5 460.01,-272 460.01,-265"/>
</a>
</g>
</g>
<!-- Node11&#45;&gt;Node17 -->
<g id="edge43_Node000011_Node000017" class="edge">
<title>Node11&#45;&gt;Node17</title>
<g id="a_edge43_Node000011_Node000017"><a xlink:title=" ">
<path fill="none" stroke="#63b8ff" d="M655.74,-279C684,-283.48 716.2,-288.59 741.39,-292.59"/>
<polygon fill="#63b8ff" stroke="#63b8ff" points="655.95,-275.49 645.52,-277.38 654.85,-282.41 655.95,-275.49"/>
</a>
</g>
</g>
<!-- Node11&#45;&gt;Node22 -->
<g id="edge44_Node000011_Node000022" class="edge">
<title>Node11&#45;&gt;Node22</title>
<g id="a_edge44_Node000011_Node000022"><a xlink:title=" ">
<path fill="none" stroke="#63b8ff" d="M619.91,-295.69C642.69,-314.73 675.42,-339.36 708,-354.5 716.24,-358.33 725.35,-361.45 734.33,-363.96"/>
<polygon fill="#63b8ff" stroke="#63b8ff" points="622.18,-293.02 612.29,-289.22 617.65,-298.36 622.18,-293.02"/>
</a>
</g>
</g>
<!-- Node12 -->
<g id="Node000012" class="node">
<title>Node12</title>
<g id="a_Node000012"><a xlink:href="classuniot_1_1_callback_event_listener.html" target="_top" xlink:title=" ">
<polygon fill="white" stroke="#666666" points="864,-271.5 708,-271.5 708,-241.5 864,-241.5 864,-271.5"/>
<text text-anchor="start" x="716" y="-259.5" font-family="Helvetica,sans-Serif" font-size="10.00">uniot::CallbackEventListener</text>
<text text-anchor="middle" x="786" y="-248.5" font-family="Helvetica,sans-Serif" font-size="10.00">&lt; unsigned int, int, Bytes &gt;</text>
</a>
</g>
</g>
<!-- Node11&#45;&gt;Node12 -->
<g id="edge41_Node000011_Node000012" class="edge">
<title>Node11&#45;&gt;Node12</title>
<g id="a_edge41_Node000011_Node000012"><a xlink:title=" ">
<path fill="none" stroke="#63b8ff" d="M655.75,-264.43C672.49,-263.41 690.61,-262.29 707.84,-261.24"/>
<polygon fill="#63b8ff" stroke="#63b8ff" points="655.29,-260.96 645.52,-265.06 655.72,-267.94 655.29,-260.96"/>
</a>
</g>
</g>
<!-- Node13 -->
<g id="Node000013" class="node">
<title>Node13</title>
<g id="a_Node000013"><a xlink:href="classuniot_1_1_lisp_device.html" target="_top" xlink:title=" ">
<polygon fill="white" stroke="#666666" points="836.5,-186 735.5,-186 735.5,-167 836.5,-167 836.5,-186"/>
<text text-anchor="middle" x="786" y="-174" font-family="Helvetica,sans-Serif" font-size="10.00">uniot::LispDevice</text>
</a>
</g>
</g>
<!-- Node11&#45;&gt;Node13 -->
<g id="edge42_Node000011_Node000013" class="edge">
<title>Node11&#45;&gt;Node13</title>
<g id="a_edge42_Node000011_Node000013"><a xlink:title=" ">
<path fill="none" stroke="#63b8ff" d="M655.14,-243.75C661.03,-240.62 666.74,-237.2 672,-233.5 691.29,-219.92 687.62,-206.37 708,-194.5 716.3,-189.66 725.82,-186.12 735.27,-183.54"/>
<polygon fill="#63b8ff" stroke="#63b8ff" points="653.17,-240.83 645.8,-248.44 656.31,-247.08 653.17,-240.83"/>
</a>
</g>
</g>
<!-- Node24 -->
<g id="Node000024" class="node">
<title>Node24</title>
<g id="a_Node000024"><a xlink:href="classuniot_1_1un_lisp.html" target="_top" xlink:title=" ">
<polygon fill="white" stroke="#666666" points="825.5,-223 746.5,-223 746.5,-204 825.5,-204 825.5,-223"/>
<text text-anchor="middle" x="786" y="-211" font-family="Helvetica,sans-Serif" font-size="10.00">uniot::unLisp</text>
</a>
</g>
</g>
<!-- Node11&#45;&gt;Node24 -->
<g id="edge45_Node000011_Node000024" class="edge">
<title>Node11&#45;&gt;Node24</title>
<g id="a_edge45_Node000011_Node000024"><a xlink:title=" ">
<path fill="none" stroke="#63b8ff" d="M655.54,-247.76C672.58,-242.59 690.93,-237.2 708,-232.5 720.35,-229.1 733.88,-225.67 746.12,-222.67"/>
<polygon fill="#63b8ff" stroke="#63b8ff" points="654.23,-244.5 645.68,-250.77 656.27,-251.2 654.23,-244.5"/>
</a>
</g>
</g>
<!-- Node27 -->
<g id="Node000027" class="node">
<title>Node27</title>
<g id="a_Node000027"><a xlink:href="classuniot_1_1_event_listener.html" target="_top" xlink:title=" ">
<polygon fill="white" stroke="#666666" points="664.5,-413.5 512.5,-413.5 512.5,-383.5 664.5,-383.5 664.5,-413.5"/>
<text text-anchor="start" x="520.5" y="-401.5" font-family="Helvetica,sans-Serif" font-size="10.00">uniot::EventListener</text>
<text text-anchor="middle" x="588.5" y="-390.5" font-family="Helvetica,sans-Serif" font-size="10.00">&lt; T_topic, T_msg, T_data &gt;</text>
</a>
</g>
</g>
<!-- Node26&#45;&gt;Node27 -->
<g id="edge49_Node000026_Node000027" class="edge">
<title>Node26&#45;&gt;Node27</title>
<g id="a_edge49_Node000026_Node000027"><a xlink:title=" ">
<path fill="none" stroke="#63b8ff" d="M461.13,-373.49C477.65,-376.76 495.5,-380.29 512.45,-383.65"/>
<polygon fill="#63b8ff" stroke="#63b8ff" points="461.52,-370 451.03,-371.49 460.16,-376.87 461.52,-370"/>
</a>
</g>
</g>
<!-- Node28 -->
<g id="Node000028" class="node">
<title>Node28</title>
<g id="a_Node000028"><a xlink:href="classuniot_1_1_callback_event_listener.html" target="_top" xlink:title=" ">
<polygon fill="white" stroke="#666666" points="864,-431.5 708,-431.5 708,-401.5 864,-401.5 864,-431.5"/>
<text text-anchor="start" x="716" y="-419.5" font-family="Helvetica,sans-Serif" font-size="10.00">uniot::CallbackEventListener</text>
<text text-anchor="middle" x="786" y="-408.5" font-family="Helvetica,sans-Serif" font-size="10.00">&lt; T_topic, T_msg, T_data &gt;</text>
</a>
</g>
</g>
<!-- Node27&#45;&gt;Node28 -->
<g id="edge50_Node000027_Node000028" class="edge">
<title>Node27&#45;&gt;Node28</title>
<g id="a_edge50_Node000027_Node000028"><a xlink:title=" ">
<path fill="none" stroke="#63b8ff" d="M674.62,-406.34C685.69,-407.36 696.98,-408.4 707.91,-409.4"/>
<polygon fill="#63b8ff" stroke="#63b8ff" points="674.81,-402.84 664.53,-405.41 674.16,-409.81 674.81,-402.84"/>
</a>
</g>
</g>
<!-- Node7&#45;&gt;Node6 -->
<g id="edge52_Node000007_Node000006" class="edge">
<title>Node7&#45;&gt;Node6</title>
<g id="a_edge52_Node000007_Node000006"><a xlink:title=" ">
<path fill="none" stroke="#63b8ff" d="M288.94,-23.63C311.59,-20.57 335.22,-17.38 354.28,-14.8"/>
<polygon fill="#63b8ff" stroke="#63b8ff" points="288.41,-20.17 278.97,-24.98 289.35,-27.11 288.41,-20.17"/>
</a>
</g>
</g>
<!-- Node14 -->
<g id="Node000014" class="node">
<title>Node14</title>
<g id="a_Node000014"><a xlink:href="classuniot_1_1_m_q_t_t_device.html" target="_top" xlink:title=" ">
<polygon fill="white" stroke="#666666" points="643.5,-117 533.5,-117 533.5,-98 643.5,-98 643.5,-117"/>
<text text-anchor="middle" x="588.5" y="-105" font-family="Helvetica,sans-Serif" font-size="10.00">uniot::MQTTDevice</text>
</a>
</g>
</g>
<!-- Node14&#45;&gt;Node13 -->
<g id="edge54_Node000014_Node000013" class="edge">
<title>Node14&#45;&gt;Node13</title>
<g id="a_edge54_Node000014_Node000013"><a xlink:title=" ">
<path fill="none" stroke="#63b8ff" d="M653.36,-119.62C659.73,-121.36 666.04,-123.32 672,-125.5 688.99,-131.71 691.63,-136.8 708,-144.5 725.29,-152.63 745.22,-160.89 760.47,-166.98"/>
<polygon fill="#63b8ff" stroke="#63b8ff" points="653.92,-116.15 643.36,-117.04 652.17,-122.92 653.92,-116.15"/>
</a>
</g>
</g>
<!-- Node15 -->
<g id="Node000015" class="node">
<title>Node15</title>
<g id="a_Node000015"><a xlink:href="classuniot_1_1_callback_m_q_t_t_device.html" target="_top" xlink:title=" ">
<polygon fill="white" stroke="#666666" points="862,-136 710,-136 710,-117 862,-117 862,-136"/>
<text text-anchor="middle" x="786" y="-124" font-family="Helvetica,sans-Serif" font-size="10.00">uniot::CallbackMQTTDevice</text>
</a>
</g>
</g>
<!-- Node14&#45;&gt;Node15 -->
<g id="edge53_Node000014_Node000015" class="edge">
<title>Node14&#45;&gt;Node15</title>
<g id="a_edge53_Node000014_Node000015"><a xlink:title=" ">
<path fill="none" stroke="#63b8ff" d="M653.75,-113.74C671.69,-115.49 691.33,-117.4 709.83,-119.19"/>
<polygon fill="#63b8ff" stroke="#63b8ff" points="653.99,-110.25 643.7,-112.77 653.31,-117.22 653.99,-110.25"/>
</a>
</g>
</g>
<!-- Node16 -->
<g id="Node000016" class="node">
<title>Node16</title>
<g id="a_Node000016"><a xlink:href="classuniot_1_1_top_device.html" target="_top" xlink:title=" ">
<polygon fill="white" stroke="#666666" points="835,-99 737,-99 737,-80 835,-80 835,-99"/>
<text text-anchor="middle" x="786" y="-87" font-family="Helvetica,sans-Serif" font-size="10.00">uniot::TopDevice</text>
</a>
</g>
</g>
<!-- Node14&#45;&gt;Node16 -->
<g id="edge55_Node000014_Node000016" class="edge">
<title>Node14&#45;&gt;Node16</title>
<g id="a_edge55_Node000014_Node000016"><a xlink:title=" ">
<path fill="none" stroke="#63b8ff" d="M653.84,-101.58C680.83,-99.09 711.7,-96.25 736.7,-93.95"/>
<polygon fill="#63b8ff" stroke="#63b8ff" points="653.33,-98.11 643.7,-102.51 653.98,-105.08 653.33,-98.11"/>
</a>
</g>
</g>
<!-- Node21 -->
<g id="Node000021" class="node">
<title>Node21</title>
<g id="a_Node000021"><a xlink:href="classuniot_1_1_singleton.html" target="_top" xlink:title=" ">
<polygon fill="white" stroke="#666666" points="662.5,-548 514.5,-548 514.5,-529 662.5,-529 662.5,-548"/>
<text text-anchor="middle" x="588.5" y="-536" font-family="Helvetica,sans-Serif" font-size="10.00">uniot::Singleton&lt; AppKit &gt;</text>
</a>
</g>
</g>
<!-- Node21&#45;&gt;Node19 -->
<g id="edge56_Node000021_Node000019" class="edge">
<title>Node21&#45;&gt;Node19</title>
<g id="a_edge56_Node000021_Node000019"><a xlink:title=" ">
<path fill="none" stroke="#63b8ff" d="M644.74,-526.8C653.87,-524.77 663.21,-522.62 672,-520.5 698.44,-514.11 728.16,-506.19 750.48,-500.09"/>
<polygon fill="#63b8ff" stroke="#63b8ff" points="643.98,-523.39 634.97,-528.96 645.49,-530.22 643.98,-523.39"/>
</a>
</g>
</g>
<!-- Node31 -->
<g id="Node000031" class="node">
<title>Node31</title>
<g id="a_Node000031"><a xlink:href="classuniot_1_1_singleton.html" target="_top" xlink:title=" ">
<polygon fill="white" stroke="#666666" points="464,-229 325,-229 325,-210 464,-210 464,-229"/>
<text text-anchor="middle" x="394.5" y="-217" font-family="Helvetica,sans-Serif" font-size="10.00">uniot::Singleton&lt; Date &gt;</text>
</a>
</g>
</g>
<!-- Node31&#45;&gt;Node3 -->
<g id="edge57_Node000031_Node000003" class="edge">
<title>Node31&#45;&gt;Node3</title>
<g id="a_edge57_Node000031_Node000003"><a xlink:title=" ">
<path fill="none" stroke="#63b8ff" d="M453.77,-207.97C486.19,-201.55 525.43,-193.78 552.99,-188.33"/>
<polygon fill="#63b8ff" stroke="#63b8ff" points="453.08,-204.54 443.95,-209.91 454.44,-211.4 453.08,-204.54"/>
</a>
</g>
</g>
<!-- Node25 -->
<g id="Node000025" class="node">
<title>Node25</title>
<g id="a_Node000025"><a xlink:href="classuniot_1_1_singleton.html" target="_top" xlink:title=" ">
<polygon fill="white" stroke="#666666" points="662,-154 515,-154 515,-135 662,-135 662,-154"/>
<text text-anchor="middle" x="588.5" y="-142" font-family="Helvetica,sans-Serif" font-size="10.00">uniot::Singleton&lt; unLisp &gt;</text>
</a>
</g>
</g>
<!-- Node25&#45;&gt;Node24 -->
<g id="edge58_Node000025_Node000024" class="edge">
<title>Node25&#45;&gt;Node24</title>
<g id="a_edge58_Node000025_Node000024"><a xlink:title=" ">
<path fill="none" stroke="#63b8ff" d="M660.26,-157.36C664.31,-158.89 668.25,-160.59 672,-162.5 691.08,-172.21 689.05,-184.53 708,-194.5 719.82,-200.72 733.74,-204.95 746.47,-207.81"/>
<polygon fill="#63b8ff" stroke="#63b8ff" points="661.26,-154 650.66,-154.12 659.02,-160.64 661.26,-154"/>
</a>
</g>
</g>
<!-- Node33 -->
<g id="Node000033" class="node">
<title>Node33</title>
<g id="a_Node000033"><a xlink:href="classuniot_1_1_storage.html" target="_top" xlink:title=" ">
<polygon fill="white" stroke="#666666" points="250,-451 165,-451 165,-432 250,-432 250,-451"/>
<text text-anchor="middle" x="207.5" y="-439" font-family="Helvetica,sans-Serif" font-size="10.00">uniot::Storage</text>
</a>
</g>
</g>
<!-- Node2 -->
<g id="Node000002" class="node">
<title>Node2</title>
<g id="a_Node000002"><a xlink:href="classuniot_1_1_c_b_o_r_storage.html" target="_top" xlink:title=" ">
<polygon fill="white" stroke="#666666" points="451,-451 338,-451 338,-432 451,-432 451,-451"/>
<text text-anchor="middle" x="394.5" y="-439" font-family="Helvetica,sans-Serif" font-size="10.00">uniot::CBORStorage</text>
</a>
</g>
</g>
<!-- Node33&#45;&gt;Node2 -->
<g id="edge59_Node000033_Node000002" class="edge">
<title>Node33&#45;&gt;Node2</title>
<g id="a_edge59_Node000033_Node000002"><a xlink:title=" ">
<path fill="none" stroke="#63b8ff" d="M260.06,-441.5C284.23,-441.5 313.06,-441.5 337.74,-441.5"/>
<polygon fill="#63b8ff" stroke="#63b8ff" points="260.02,-438 250.02,-441.5 260.02,-445 260.02,-438"/>
</a>
</g>
</g>
<!-- Node2&#45;&gt;Node1 -->
<g id="edge60_Node000002_Node000001" class="edge">
<title>Node2&#45;&gt;Node1</title>
<g id="a_edge60_Node000002_Node000001"><a xlink:title=" ">
<path fill="none" stroke="#63b8ff" d="M403.58,-460.69C418.48,-493.63 453.55,-560.63 505,-594.5 514.43,-600.71 525.65,-604.81 536.73,-607.51"/>
<polygon fill="#63b8ff" stroke="#63b8ff" points="406.67,-459.04 399.45,-451.28 400.26,-461.85 406.67,-459.04"/>
</a>
</g>
</g>
<!-- Node2&#45;&gt;Node3 -->
<g id="edge61_Node000002_Node000003" class="edge">
<title>Node2&#45;&gt;Node3</title>
<g id="a_edge61_Node000002_Node000003"><a xlink:title=" ">
<path fill="none" stroke="#63b8ff" d="M426.11,-426.96C441.31,-418.19 458.6,-405.59 469,-389.5 514.26,-319.53 448.78,-267.01 505,-205.5 517.08,-192.29 535.96,-186.19 552.61,-183.44"/>
<polygon fill="#63b8ff" stroke="#63b8ff" points="424.11,-424.06 417,-431.92 427.45,-430.21 424.11,-424.06"/>
</a>
</g>
</g>
<!-- Node2&#45;&gt;Node22 -->
<g id="edge63_Node000002_Node000022" class="edge">
<title>Node2&#45;&gt;Node22</title>
<g id="a_edge63_Node000002_Node000022"><a xlink:title=" ">
<path fill="none" stroke="#63b8ff" d="M461.32,-448.11C518.98,-451.34 603.97,-449.8 672,-422.5 691.33,-414.74 689.42,-401.9 708,-392.5 715.62,-388.65 724.06,-385.55 732.49,-383.06"/>
<polygon fill="#63b8ff" stroke="#63b8ff" points="461.43,-444.61 451.23,-447.48 461,-451.59 461.43,-444.61"/>
</a>
</g>
</g>
<!-- Node2&#45;&gt;Node13 -->
<g id="edge62_Node000002_Node000013" class="edge">
<title>Node2&#45;&gt;Node13</title>
<g id="a_edge62_Node000002_Node000013"><a xlink:title=" ">
<path fill="none" stroke="#63b8ff" d="M425.54,-426.96C440.73,-418.13 458.2,-405.48 469,-389.5 507.65,-332.35 455.82,-286.89 505,-238.5 509.2,-234.36 660.61,-202.38 738.99,-186.04"/>
<polygon fill="#63b8ff" stroke="#63b8ff" points="423.53,-424.07 416.45,-431.95 426.9,-430.2 423.53,-424.07"/>
</a>
</g>
</g>
<!-- Node32 -->
<g id="Node000032" class="node">
<title>Node32</title>
<g id="a_Node000032"><a xlink:href="classuniot_1_1_wifi_storage.html" target="_top" xlink:title=" ">
<polygon fill="white" stroke="#666666" points="640.5,-585 536.5,-585 536.5,-566 640.5,-566 640.5,-585"/>
<text text-anchor="middle" x="588.5" y="-573" font-family="Helvetica,sans-Serif" font-size="10.00">uniot::WifiStorage</text>
</a>
</g>
</g>
<!-- Node2&#45;&gt;Node32 -->
<g id="edge64_Node000002_Node000032" class="edge">
<title>Node2&#45;&gt;Node32</title>
<g id="a_edge64_Node000002_Node000032"><a xlink:title=" ">
<path fill="none" stroke="#63b8ff" d="M407.28,-459.65C425.14,-485.64 461.63,-532.98 505,-557.5 514.57,-562.91 525.62,-566.7 536.45,-569.34"/>
<polygon fill="#63b8ff" stroke="#63b8ff" points="410.04,-457.49 401.56,-451.13 404.22,-461.39 410.04,-457.49"/>
</a>
</g>
</g>
</g>
</svg>
