<?xml version="1.0" encoding="UTF-8" standalone="no"?>
<!DOCTYPE svg PUBLIC "-//W3C//DTD SVG 1.1//EN"
 "http://www.w3.org/Graphics/SVG/1.1/DTD/svg11.dtd">
<!-- Generated by graphviz version 2.43.0 (0)
 -->
<!-- Title: Array.h Pages: 1 -->
<svg width="253pt" height="467pt"
 viewBox="0.00 0.00 252.50 467.00" xmlns="http://www.w3.org/2000/svg" xmlns:xlink="http://www.w3.org/1999/xlink">
<g id="graph0" class="graph" transform="scale(1 1) rotate(0) translate(4 463)">
<title>Array.h</title>
<!-- Node1 -->
<g id="Node000001" class="node">
<title>Node1</title>
<g id="a_Node000001"><a xlink:title=" ">
<polygon fill="#999999" stroke="#666666" points="124,-459 74,-459 74,-440 124,-440 124,-459"/>
<text text-anchor="middle" x="99" y="-447" font-family="Helvetica,sans-Serif" font-size="10.00">Array.h</text>
</a>
</g>
</g>
<!-- Node2 -->
<g id="Node000002" class="node">
<title>Node2</title>
<g id="a_Node000002"><a xlink:href="_register_8h.html" target="_top" xlink:title=" ">
<polygon fill="white" stroke="#666666" points="131.5,-404 66.5,-404 66.5,-385 131.5,-385 131.5,-404"/>
<text text-anchor="middle" x="99" y="-392" font-family="Helvetica,sans-Serif" font-size="10.00">Register.h</text>
</a>
</g>
</g>
<!-- Node1&#45;&gt;Node2 -->
<g id="edge1_Node000001_Node000002" class="edge">
<title>Node1&#45;&gt;Node2</title>
<g id="a_edge1_Node000001_Node000002"><a xlink:title=" ">
<path fill="none" stroke="#63b8ff" d="M99,-429.66C99,-420.93 99,-410.99 99,-404.09"/>
<polygon fill="#63b8ff" stroke="#63b8ff" points="95.5,-429.75 99,-439.75 102.5,-429.75 95.5,-429.75"/>
</a>
</g>
</g>
<!-- Node3 -->
<g id="Node000003" class="node">
<title>Node3</title>
<g id="a_Node000003"><a xlink:href="_gpio_register_8h.html" target="_top" xlink:title=" ">
<polygon fill="white" stroke="#666666" points="88,-349 0,-349 0,-330 88,-330 88,-349"/>
<text text-anchor="middle" x="44" y="-337" font-family="Helvetica,sans-Serif" font-size="10.00">GpioRegister.h</text>
</a>
</g>
</g>
<!-- Node2&#45;&gt;Node3 -->
<g id="edge2_Node000002_Node000003" class="edge">
<title>Node2&#45;&gt;Node3</title>
<g id="a_edge2_Node000002_Node000003"><a xlink:title=" ">
<path fill="none" stroke="#63b8ff" d="M82.71,-377.8C72.96,-368.41 60.95,-356.83 52.91,-349.09"/>
<polygon fill="#63b8ff" stroke="#63b8ff" points="80.29,-380.33 89.92,-384.75 85.15,-375.29 80.29,-380.33"/>
</a>
</g>
</g>
<!-- Node11 -->
<g id="Node000011" class="node">
<title>Node11</title>
<g id="a_Node000011"><a xlink:href="_object_register_8h.html" target="_top" xlink:title=" ">
<polygon fill="white" stroke="#666666" points="202.5,-349 105.5,-349 105.5,-330 202.5,-330 202.5,-349"/>
<text text-anchor="middle" x="154" y="-337" font-family="Helvetica,sans-Serif" font-size="10.00">ObjectRegister.h</text>
</a>
</g>
</g>
<!-- Node2&#45;&gt;Node11 -->
<g id="edge12_Node000002_Node000011" class="edge">
<title>Node2&#45;&gt;Node11</title>
<g id="a_edge12_Node000002_Node000011"><a xlink:title=" ">
<path fill="none" stroke="#63b8ff" d="M115.29,-377.8C125.04,-368.41 137.05,-356.83 145.09,-349.09"/>
<polygon fill="#63b8ff" stroke="#63b8ff" points="112.85,-375.29 108.08,-384.75 117.71,-380.33 112.85,-375.29"/>
</a>
</g>
</g>
<!-- Node4 -->
<g id="Node000004" class="node">
<title>Node4</title>
<g id="a_Node000004"><a xlink:href="_register_manager_8h.html" target="_top" xlink:title=" ">
<polygon fill="white" stroke="#666666" points="153,-294 45,-294 45,-275 153,-275 153,-294"/>
<text text-anchor="middle" x="99" y="-282" font-family="Helvetica,sans-Serif" font-size="10.00">RegisterManager.h</text>
</a>
</g>
</g>
<!-- Node3&#45;&gt;Node4 -->
<g id="edge3_Node000003_Node000004" class="edge">
<title>Node3&#45;&gt;Node4</title>
<g id="a_edge3_Node000003_Node000004"><a xlink:title=" ">
<path fill="none" stroke="#63b8ff" d="M60.29,-322.8C70.04,-313.41 82.05,-301.83 90.09,-294.09"/>
<polygon fill="#63b8ff" stroke="#63b8ff" points="57.85,-320.29 53.08,-329.75 62.71,-325.33 57.85,-320.29"/>
</a>
</g>
</g>
<!-- Node5 -->
<g id="Node000005" class="node">
<title>Node5</title>
<g id="a_Node000005"><a xlink:href="_register_manager_proxy_8h.html" target="_top" xlink:title=" ">
<polygon fill="white" stroke="#666666" points="166.5,-239 31.5,-239 31.5,-220 166.5,-220 166.5,-239"/>
<text text-anchor="middle" x="99" y="-227" font-family="Helvetica,sans-Serif" font-size="10.00">RegisterManagerProxy.h</text>
</a>
</g>
</g>
<!-- Node4&#45;&gt;Node5 -->
<g id="edge4_Node000004_Node000005" class="edge">
<title>Node4&#45;&gt;Node5</title>
<g id="a_edge4_Node000004_Node000005"><a xlink:title=" ">
<path fill="none" stroke="#63b8ff" d="M99,-264.66C99,-255.93 99,-245.99 99,-239.09"/>
<polygon fill="#63b8ff" stroke="#63b8ff" points="95.5,-264.75 99,-274.75 102.5,-264.75 95.5,-264.75"/>
</a>
</g>
</g>
<!-- Node6 -->
<g id="Node000006" class="node">
<title>Node6</title>
<g id="a_Node000006"><a xlink:href="_primitive_expeditor_8h.html" target="_top" xlink:title=" ">
<polygon fill="white" stroke="#666666" points="157,-184 41,-184 41,-165 157,-165 157,-184"/>
<text text-anchor="middle" x="99" y="-172" font-family="Helvetica,sans-Serif" font-size="10.00">PrimitiveExpeditor.h</text>
</a>
</g>
</g>
<!-- Node5&#45;&gt;Node6 -->
<g id="edge5_Node000005_Node000006" class="edge">
<title>Node5&#45;&gt;Node6</title>
<g id="a_edge5_Node000005_Node000006"><a xlink:title=" ">
<path fill="none" stroke="#63b8ff" d="M99,-209.66C99,-200.93 99,-190.99 99,-184.09"/>
<polygon fill="#63b8ff" stroke="#63b8ff" points="95.5,-209.75 99,-219.75 102.5,-209.75 95.5,-209.75"/>
</a>
</g>
</g>
<!-- Node7 -->
<g id="Node000007" class="node">
<title>Node7</title>
<g id="a_Node000007"><a xlink:href="_lisp_primitives_8h.html" target="_top" xlink:title=" ">
<polygon fill="white" stroke="#666666" points="108.5,-74 13.5,-74 13.5,-55 108.5,-55 108.5,-74"/>
<text text-anchor="middle" x="61" y="-62" font-family="Helvetica,sans-Serif" font-size="10.00">LispPrimitives.h</text>
</a>
</g>
</g>
<!-- Node6&#45;&gt;Node7 -->
<g id="edge6_Node000006_Node000007" class="edge">
<title>Node6&#45;&gt;Node7</title>
<g id="a_edge6_Node000006_Node000007"><a xlink:title=" ">
<path fill="none" stroke="#63b8ff" d="M92.53,-155.12C84.24,-131.56 70.2,-91.66 64.05,-74.16"/>
<polygon fill="#63b8ff" stroke="#63b8ff" points="89.27,-156.39 95.89,-164.66 95.87,-154.07 89.27,-156.39"/>
</a>
</g>
</g>
<!-- Node9 -->
<g id="Node000009" class="node">
<title>Node9</title>
<g id="a_Node000009"><a xlink:href="un_lisp_8h.html" target="_top" xlink:title=" ">
<polygon fill="white" stroke="#666666" points="165.5,-129 108.5,-129 108.5,-110 165.5,-110 165.5,-129"/>
<text text-anchor="middle" x="137" y="-117" font-family="Helvetica,sans-Serif" font-size="10.00">unLisp.h</text>
</a>
</g>
</g>
<!-- Node6&#45;&gt;Node9 -->
<g id="edge8_Node000006_Node000009" class="edge">
<title>Node6&#45;&gt;Node9</title>
<g id="a_edge8_Node000006_Node000009"><a xlink:title=" ">
<path fill="none" stroke="#63b8ff" d="M111.27,-156.39C117.81,-147.27 125.57,-136.45 130.84,-129.09"/>
<polygon fill="#63b8ff" stroke="#63b8ff" points="108.26,-154.58 105.27,-164.75 113.95,-158.66 108.26,-154.58"/>
</a>
</g>
</g>
<!-- Node8 -->
<g id="Node000008" class="node">
<title>Node8</title>
<g id="a_Node000008"><a xlink:href="_app_kit_8h.html" target="_top" xlink:title=" ">
<polygon fill="white" stroke="#666666" points="166,-19 108,-19 108,0 166,0 166,-19"/>
<text text-anchor="middle" x="137" y="-7" font-family="Helvetica,sans-Serif" font-size="10.00">AppKit.h</text>
</a>
</g>
</g>
<!-- Node7&#45;&gt;Node8 -->
<g id="edge7_Node000007_Node000008" class="edge">
<title>Node7&#45;&gt;Node8</title>
<g id="a_edge7_Node000007_Node000008"><a xlink:title=" ">
<path fill="none" stroke="#63b8ff" d="M81.58,-49.15C95.31,-39.57 112.93,-27.29 124.57,-19.17"/>
<polygon fill="#63b8ff" stroke="#63b8ff" points="79.41,-46.39 73.21,-54.98 83.42,-52.14 79.41,-46.39"/>
</a>
</g>
</g>
<!-- Node9&#45;&gt;Node8 -->
<g id="edge9_Node000009_Node000008" class="edge">
<title>Node9&#45;&gt;Node8</title>
<g id="a_edge9_Node000009_Node000008"><a xlink:title=" ">
<path fill="none" stroke="#63b8ff" d="M137,-99.48C137,-75.84 137,-36.5 137,-19.16"/>
<polygon fill="#63b8ff" stroke="#63b8ff" points="133.5,-99.66 137,-109.66 140.5,-99.66 133.5,-99.66"/>
</a>
</g>
</g>
<!-- Node10 -->
<g id="Node000010" class="node">
<title>Node10</title>
<g id="a_Node000010"><a xlink:href="_lisp_device_8h.html" target="_top" xlink:title=" ">
<polygon fill="white" stroke="#666666" points="244.5,-74 165.5,-74 165.5,-55 244.5,-55 244.5,-74"/>
<text text-anchor="middle" x="205" y="-62" font-family="Helvetica,sans-Serif" font-size="10.00">LispDevice.h</text>
</a>
</g>
</g>
<!-- Node9&#45;&gt;Node10 -->
<g id="edge10_Node000009_Node000010" class="edge">
<title>Node9&#45;&gt;Node10</title>
<g id="a_edge10_Node000009_Node000010"><a xlink:title=" ">
<path fill="none" stroke="#63b8ff" d="M156.12,-103.6C168.3,-94.11 183.66,-82.13 193.88,-74.17"/>
<polygon fill="#63b8ff" stroke="#63b8ff" points="153.66,-101.08 147.93,-109.98 157.96,-106.6 153.66,-101.08"/>
</a>
</g>
</g>
<!-- Node10&#45;&gt;Node8 -->
<g id="edge11_Node000010_Node000008" class="edge">
<title>Node10&#45;&gt;Node8</title>
<g id="a_edge11_Node000010_Node000008"><a xlink:title=" ">
<path fill="none" stroke="#63b8ff" d="M185.88,-48.6C173.7,-39.11 158.34,-27.13 148.12,-19.17"/>
<polygon fill="#63b8ff" stroke="#63b8ff" points="184.04,-51.6 194.07,-54.98 188.34,-46.08 184.04,-51.6"/>
</a>
</g>
</g>
<!-- Node11&#45;&gt;Node4 -->
<g id="edge13_Node000011_Node000004" class="edge">
<title>Node11&#45;&gt;Node4</title>
<g id="a_edge13_Node000011_Node000004"><a xlink:title=" ">
<path fill="none" stroke="#63b8ff" d="M137.71,-322.8C127.96,-313.41 115.95,-301.83 107.91,-294.09"/>
<polygon fill="#63b8ff" stroke="#63b8ff" points="135.29,-325.33 144.92,-329.75 140.15,-320.29 135.29,-325.33"/>
</a>
</g>
</g>
</g>
</svg>
