<?xml version="1.0" encoding="UTF-8" standalone="no"?>
<!DOCTYPE svg PUBLIC "-//W3C//DTD SVG 1.1//EN"
 "http://www.w3.org/Graphics/SVG/1.1/DTD/svg11.dtd">
<!-- Generated by graphviz version 2.43.0 (0)
 -->
<!-- Title: CBORStorage.h Pages: 1 -->
<svg width="524pt" height="247pt"
 viewBox="0.00 0.00 523.50 247.00" xmlns="http://www.w3.org/2000/svg" xmlns:xlink="http://www.w3.org/1999/xlink">
<g id="graph0" class="graph" transform="scale(1 1) rotate(0) translate(4 243)">
<title>CBORStorage.h</title>
<!-- Node1 -->
<g id="Node000001" class="node">
<title>Node1</title>
<g id="a_Node000001"><a xlink:title=" ">
<polygon fill="#999999" stroke="#666666" points="345,-239 254,-239 254,-220 345,-220 345,-239"/>
<text text-anchor="middle" x="299.5" y="-227" font-family="Helvetica,sans-Serif" font-size="10.00">CBORStorage.h</text>
</a>
</g>
</g>
<!-- Node2 -->
<g id="Node000002" class="node">
<title>Node2</title>
<g id="a_Node000002"><a xlink:href="_credentials_8h.html" target="_top" xlink:title=" ">
<polygon fill="white" stroke="#666666" points="171,-184 90,-184 90,-165 171,-165 171,-184"/>
<text text-anchor="middle" x="130.5" y="-172" font-family="Helvetica,sans-Serif" font-size="10.00">Credentials.h</text>
</a>
</g>
</g>
<!-- Node1&#45;&gt;Node2 -->
<g id="edge1_Node000001_Node000002" class="edge">
<title>Node1&#45;&gt;Node2</title>
<g id="a_edge1_Node000001_Node000002"><a xlink:title=" ">
<path fill="none" stroke="#63b8ff" d="M262.6,-216.93C231.03,-207.03 186.32,-193.01 157.87,-184.08"/>
<polygon fill="#63b8ff" stroke="#63b8ff" points="261.76,-220.33 272.35,-219.98 263.85,-213.65 261.76,-220.33"/>
</a>
</g>
</g>
<!-- Node8 -->
<g id="Node000008" class="node">
<title>Node8</title>
<g id="a_Node000008"><a xlink:href="_network_controller_8h.html" target="_top" xlink:title=" ">
<polygon fill="white" stroke="#666666" points="515.5,-74 401.5,-74 401.5,-55 515.5,-55 515.5,-74"/>
<text text-anchor="middle" x="458.5" y="-62" font-family="Helvetica,sans-Serif" font-size="10.00">NetworkController.h</text>
</a>
</g>
</g>
<!-- Node1&#45;&gt;Node8 -->
<g id="edge21_Node000001_Node000008" class="edge">
<title>Node1&#45;&gt;Node8</title>
<g id="a_edge21_Node000001_Node000008"><a xlink:title=" ">
<path fill="none" stroke="#63b8ff" d="M324.5,-214.91C338.02,-206.9 354.56,-196 367.5,-184 406.11,-148.2 440.71,-94.66 453.38,-74.03"/>
<polygon fill="#63b8ff" stroke="#63b8ff" points="322.62,-211.95 315.7,-219.97 326.11,-218.02 322.62,-211.95"/>
</a>
</g>
</g>
<!-- Node11 -->
<g id="Node000011" class="node">
<title>Node11</title>
<g id="a_Node000011"><a xlink:href="_date_8h.html" target="_top" xlink:title=" ">
<polygon fill="white" stroke="#666666" points="224,-129 175,-129 175,-110 224,-110 224,-129"/>
<text text-anchor="middle" x="199.5" y="-117" font-family="Helvetica,sans-Serif" font-size="10.00">Date.h</text>
</a>
</g>
</g>
<!-- Node1&#45;&gt;Node11 -->
<g id="edge12_Node000001_Node000011" class="edge">
<title>Node1&#45;&gt;Node11</title>
<g id="a_edge12_Node000001_Node000011"><a xlink:title=" ">
<path fill="none" stroke="#63b8ff" d="M280.78,-213.21C271.07,-204.95 259.23,-194.34 249.5,-184 232.19,-165.61 214.5,-141.69 205.53,-129.1"/>
<polygon fill="#63b8ff" stroke="#63b8ff" points="278.75,-216.07 288.66,-219.81 283.24,-210.7 278.75,-216.07"/>
</a>
</g>
</g>
<!-- Node12 -->
<g id="Node000012" class="node">
<title>Node12</title>
<g id="a_Node000012"><a xlink:href="_lisp_device_8h.html" target="_top" xlink:title=" ">
<polygon fill="white" stroke="#666666" points="383,-74 304,-74 304,-55 383,-55 383,-74"/>
<text text-anchor="middle" x="343.5" y="-62" font-family="Helvetica,sans-Serif" font-size="10.00">LispDevice.h</text>
</a>
</g>
</g>
<!-- Node1&#45;&gt;Node12 -->
<g id="edge20_Node000001_Node000012" class="edge">
<title>Node1&#45;&gt;Node12</title>
<g id="a_edge20_Node000001_Node000012"><a xlink:title=" ">
<path fill="none" stroke="#63b8ff" d="M321.15,-213.67C331.07,-205.88 342.2,-195.55 349.5,-184 363.09,-162.48 361.91,-154.2 365.5,-129 366.69,-120.64 367.42,-118.22 365.5,-110 362.4,-96.74 354.75,-82.9 349.34,-74.24"/>
<polygon fill="#63b8ff" stroke="#63b8ff" points="318.81,-211.05 312.88,-219.83 322.99,-216.66 318.81,-211.05"/>
</a>
</g>
</g>
<!-- Node14 -->
<g id="Node000014" class="node">
<title>Node14</title>
<g id="a_Node000014"><a xlink:href="_wifi_storage_8h.html" target="_top" xlink:title=" ">
<polygon fill="white" stroke="#666666" points="340.5,-184 258.5,-184 258.5,-165 340.5,-165 340.5,-184"/>
<text text-anchor="middle" x="299.5" y="-172" font-family="Helvetica,sans-Serif" font-size="10.00">WifiStorage.h</text>
</a>
</g>
</g>
<!-- Node1&#45;&gt;Node14 -->
<g id="edge22_Node000001_Node000014" class="edge">
<title>Node1&#45;&gt;Node14</title>
<g id="a_edge22_Node000001_Node000014"><a xlink:title=" ">
<path fill="none" stroke="#63b8ff" d="M299.5,-209.66C299.5,-200.93 299.5,-190.99 299.5,-184.09"/>
<polygon fill="#63b8ff" stroke="#63b8ff" points="296,-209.75 299.5,-219.75 303,-209.75 296,-209.75"/>
</a>
</g>
</g>
<!-- Node3 -->
<g id="Node000003" class="node">
<title>Node3</title>
<g id="a_Node000003"><a xlink:href="_m_q_t_t_path_8h.html" target="_top" xlink:title=" ">
<polygon fill="white" stroke="#666666" points="157,-129 82,-129 82,-110 157,-110 157,-129"/>
<text text-anchor="middle" x="119.5" y="-117" font-family="Helvetica,sans-Serif" font-size="10.00">MQTTPath.h</text>
</a>
</g>
</g>
<!-- Node2&#45;&gt;Node3 -->
<g id="edge2_Node000002_Node000003" class="edge">
<title>Node2&#45;&gt;Node3</title>
<g id="a_edge2_Node000002_Node000003"><a xlink:title=" ">
<path fill="none" stroke="#63b8ff" d="M126.65,-154.95C124.82,-146.15 122.73,-136.06 121.28,-129.09"/>
<polygon fill="#63b8ff" stroke="#63b8ff" points="123.22,-155.67 128.68,-164.75 130.08,-154.25 123.22,-155.67"/>
</a>
</g>
</g>
<!-- Node7 -->
<g id="Node000007" class="node">
<title>Node7</title>
<g id="a_Node000007"><a xlink:href="_network_scheduler_8h.html" target="_top" xlink:title=" ">
<polygon fill="white" stroke="#666666" points="356.5,-129 242.5,-129 242.5,-110 356.5,-110 356.5,-129"/>
<text text-anchor="middle" x="299.5" y="-117" font-family="Helvetica,sans-Serif" font-size="10.00">NetworkScheduler.h</text>
</a>
</g>
</g>
<!-- Node2&#45;&gt;Node7 -->
<g id="edge6_Node000002_Node000007" class="edge">
<title>Node2&#45;&gt;Node7</title>
<g id="a_edge6_Node000002_Node000007"><a xlink:title=" ">
<path fill="none" stroke="#63b8ff" d="M167.4,-161.93C198.97,-152.03 243.68,-138.01 272.13,-129.08"/>
<polygon fill="#63b8ff" stroke="#63b8ff" points="166.15,-158.65 157.65,-164.98 168.24,-165.33 166.15,-158.65"/>
</a>
</g>
</g>
<!-- Node9 -->
<g id="Node000009" class="node">
<title>Node9</title>
<g id="a_Node000009"><a xlink:href="_uniot_8h.html" target="_top" xlink:title=" ">
<polygon fill="white" stroke="#666666" points="67.5,-74 15.5,-74 15.5,-55 67.5,-55 67.5,-74"/>
<text text-anchor="middle" x="41.5" y="-62" font-family="Helvetica,sans-Serif" font-size="10.00">Uniot.h</text>
</a>
</g>
</g>
<!-- Node2&#45;&gt;Node9 -->
<g id="edge10_Node000002_Node000009" class="edge">
<title>Node2&#45;&gt;Node9</title>
<g id="a_edge10_Node000002_Node000009"><a xlink:title=" ">
<path fill="none" stroke="#63b8ff" d="M106.93,-159.14C95.47,-151.3 82.13,-140.79 72.5,-129 58.37,-111.71 48.66,-86.91 44.23,-74.02"/>
<polygon fill="#63b8ff" stroke="#63b8ff" points="105.32,-162.27 115.61,-164.83 109.16,-156.42 105.32,-162.27"/>
</a>
</g>
</g>
<!-- Node4 -->
<g id="Node000004" class="node">
<title>Node4</title>
<g id="a_Node000004"><a xlink:href="_m_q_t_t_kit_8h.html" target="_top" xlink:title=" ">
<polygon fill="white" stroke="#666666" points="153.5,-74 85.5,-74 85.5,-55 153.5,-55 153.5,-74"/>
<text text-anchor="middle" x="119.5" y="-62" font-family="Helvetica,sans-Serif" font-size="10.00">MQTTKit.h</text>
</a>
</g>
</g>
<!-- Node3&#45;&gt;Node4 -->
<g id="edge3_Node000003_Node000004" class="edge">
<title>Node3&#45;&gt;Node4</title>
<g id="a_edge3_Node000003_Node000004"><a xlink:title=" ">
<path fill="none" stroke="#63b8ff" d="M119.5,-99.66C119.5,-90.93 119.5,-80.99 119.5,-74.09"/>
<polygon fill="#63b8ff" stroke="#63b8ff" points="116,-99.75 119.5,-109.75 123,-99.75 116,-99.75"/>
</a>
</g>
</g>
<!-- Node5 -->
<g id="Node000005" class="node">
<title>Node5</title>
<g id="a_Node000005"><a xlink:href="_app_kit_8h.html" target="_top" xlink:title=" ">
<polygon fill="white" stroke="#666666" points="304.5,-19 246.5,-19 246.5,0 304.5,0 304.5,-19"/>
<text text-anchor="middle" x="275.5" y="-7" font-family="Helvetica,sans-Serif" font-size="10.00">AppKit.h</text>
</a>
</g>
</g>
<!-- Node4&#45;&gt;Node5 -->
<g id="edge4_Node000004_Node000005" class="edge">
<title>Node4&#45;&gt;Node5</title>
<g id="a_edge4_Node000004_Node000005"><a xlink:title=" ">
<path fill="none" stroke="#63b8ff" d="M154.32,-51.67C183.41,-41.79 224.2,-27.93 250.24,-19.08"/>
<polygon fill="#63b8ff" stroke="#63b8ff" points="152.91,-48.45 144.56,-54.98 155.16,-55.08 152.91,-48.45"/>
</a>
</g>
</g>
<!-- Node6 -->
<g id="Node000006" class="node">
<title>Node6</title>
<g id="a_Node000006"><a xlink:href="_m_q_t_t_device_8cpp.html" target="_top" xlink:title=" ">
<polygon fill="white" stroke="#666666" points="180,-19 81,-19 81,0 180,0 180,-19"/>
<text text-anchor="middle" x="130.5" y="-7" font-family="Helvetica,sans-Serif" font-size="10.00">MQTTDevice.cpp</text>
</a>
</g>
</g>
<!-- Node4&#45;&gt;Node6 -->
<g id="edge5_Node000004_Node000006" class="edge">
<title>Node4&#45;&gt;Node6</title>
<g id="a_edge5_Node000004_Node000006"><a xlink:title=" ">
<path fill="none" stroke="#63b8ff" d="M123.35,-44.95C125.18,-36.15 127.27,-26.06 128.72,-19.09"/>
<polygon fill="#63b8ff" stroke="#63b8ff" points="119.92,-44.25 121.32,-54.75 126.78,-45.67 119.92,-44.25"/>
</a>
</g>
</g>
<!-- Node7&#45;&gt;Node4 -->
<g id="edge7_Node000007_Node000004" class="edge">
<title>Node7&#45;&gt;Node4</title>
<g id="a_edge7_Node000007_Node000004"><a xlink:title=" ">
<path fill="none" stroke="#63b8ff" d="M260.63,-107.06C226.99,-97.15 179.08,-83.04 148.65,-74.08"/>
<polygon fill="#63b8ff" stroke="#63b8ff" points="260,-110.52 270.58,-109.98 261.98,-103.8 260,-110.52"/>
</a>
</g>
</g>
<!-- Node7&#45;&gt;Node8 -->
<g id="edge8_Node000007_Node000008" class="edge">
<title>Node7&#45;&gt;Node8</title>
<g id="a_edge8_Node000007_Node000008"><a xlink:title=" ">
<path fill="none" stroke="#63b8ff" d="M334.6,-106.8C364.28,-96.91 406.1,-82.97 432.75,-74.08"/>
<polygon fill="#63b8ff" stroke="#63b8ff" points="333.43,-103.5 325.05,-109.98 335.64,-110.14 333.43,-103.5"/>
</a>
</g>
</g>
<!-- Node8&#45;&gt;Node5 -->
<g id="edge9_Node000008_Node000005" class="edge">
<title>Node8&#45;&gt;Node5</title>
<g id="a_edge9_Node000008_Node000005"><a xlink:title=" ">
<path fill="none" stroke="#63b8ff" d="M419.37,-52.17C384.92,-42.19 335.55,-27.89 304.53,-18.91"/>
<polygon fill="#63b8ff" stroke="#63b8ff" points="418.52,-55.56 429.1,-54.98 420.47,-48.84 418.52,-55.56"/>
</a>
</g>
</g>
<!-- Node10 -->
<g id="Node000010" class="node">
<title>Node10</title>
<g id="a_Node000010"><a xlink:href="_uniot_8cpp.html" target="_top" xlink:title=" ">
<polygon fill="white" stroke="#666666" points="63,-19 0,-19 0,0 63,0 63,-19"/>
<text text-anchor="middle" x="31.5" y="-7" font-family="Helvetica,sans-Serif" font-size="10.00">Uniot.cpp</text>
</a>
</g>
</g>
<!-- Node9&#45;&gt;Node10 -->
<g id="edge11_Node000009_Node000010" class="edge">
<title>Node9&#45;&gt;Node10</title>
<g id="a_edge11_Node000009_Node000010"><a xlink:title=" ">
<path fill="none" stroke="#63b8ff" d="M37.95,-44.66C36.3,-35.93 34.42,-25.99 33.12,-19.09"/>
<polygon fill="#63b8ff" stroke="#63b8ff" points="34.56,-45.57 39.85,-54.75 41.43,-44.27 34.56,-45.57"/>
</a>
</g>
</g>
<!-- Node11&#45;&gt;Node4 -->
<g id="edge16_Node000011_Node000004" class="edge">
<title>Node11&#45;&gt;Node4</title>
<g id="a_edge16_Node000011_Node000004"><a xlink:title=" ">
<path fill="none" stroke="#63b8ff" d="M178.25,-104.42C163.74,-94.81 144.96,-82.37 132.59,-74.17"/>
<polygon fill="#63b8ff" stroke="#63b8ff" points="176.38,-107.38 186.65,-109.98 180.24,-101.54 176.38,-107.38"/>
</a>
</g>
</g>
<!-- Node11&#45;&gt;Node5 -->
<g id="edge13_Node000011_Node000005" class="edge">
<title>Node11&#45;&gt;Node5</title>
<g id="a_edge13_Node000011_Node000005"><a xlink:title=" ">
<path fill="none" stroke="#63b8ff" d="M223.94,-104.38C235.3,-96.71 248.12,-86.27 256.5,-74 268.31,-56.71 272.93,-31.91 274.62,-19.02"/>
<polygon fill="#63b8ff" stroke="#63b8ff" points="221.8,-101.6 215.26,-109.93 225.57,-107.49 221.8,-101.6"/>
</a>
</g>
</g>
<!-- Node11&#45;&gt;Node9 -->
<g id="edge19_Node000011_Node000009" class="edge">
<title>Node11&#45;&gt;Node9</title>
<g id="a_edge19_Node000011_Node000009"><a xlink:title=" ">
<path fill="none" stroke="#63b8ff" d="M165.32,-107.03C135.78,-97.13 93.76,-83.03 67.06,-74.07"/>
<polygon fill="#63b8ff" stroke="#63b8ff" points="164.22,-110.36 174.81,-110.22 166.44,-103.72 164.22,-110.36"/>
</a>
</g>
</g>
<!-- Node11&#45;&gt;Node12 -->
<g id="edge14_Node000011_Node000012" class="edge">
<title>Node11&#45;&gt;Node12</title>
<g id="a_edge14_Node000011_Node000012"><a xlink:title=" ">
<path fill="none" stroke="#63b8ff" d="M232.32,-106.42C259.03,-96.59 296.1,-82.95 319.94,-74.17"/>
<polygon fill="#63b8ff" stroke="#63b8ff" points="230.81,-103.25 222.64,-109.98 233.23,-109.82 230.81,-103.25"/>
</a>
</g>
</g>
<!-- Node13 -->
<g id="Node000013" class="node">
<title>Node13</title>
<g id="a_Node000013"><a xlink:href="_top_device_8h.html" target="_top" xlink:title=" ">
<polygon fill="white" stroke="#666666" points="247.5,-74 171.5,-74 171.5,-55 247.5,-55 247.5,-74"/>
<text text-anchor="middle" x="209.5" y="-62" font-family="Helvetica,sans-Serif" font-size="10.00">TopDevice.h</text>
</a>
</g>
</g>
<!-- Node11&#45;&gt;Node13 -->
<g id="edge17_Node000011_Node000013" class="edge">
<title>Node11&#45;&gt;Node13</title>
<g id="a_edge17_Node000011_Node000013"><a xlink:title=" ">
<path fill="none" stroke="#63b8ff" d="M203.05,-99.66C204.7,-90.93 206.58,-80.99 207.88,-74.09"/>
<polygon fill="#63b8ff" stroke="#63b8ff" points="199.57,-99.27 201.15,-109.75 206.44,-100.57 199.57,-99.27"/>
</a>
</g>
</g>
<!-- Node12&#45;&gt;Node5 -->
<g id="edge15_Node000012_Node000005" class="edge">
<title>Node12&#45;&gt;Node5</title>
<g id="a_edge15_Node000012_Node000005"><a xlink:title=" ">
<path fill="none" stroke="#63b8ff" d="M324.38,-48.6C312.2,-39.11 296.84,-27.13 286.62,-19.17"/>
<polygon fill="#63b8ff" stroke="#63b8ff" points="322.54,-51.6 332.57,-54.98 326.84,-46.08 322.54,-51.6"/>
</a>
</g>
</g>
<!-- Node13&#45;&gt;Node5 -->
<g id="edge18_Node000013_Node000005" class="edge">
<title>Node13&#45;&gt;Node5</title>
<g id="a_edge18_Node000013_Node000005"><a xlink:title=" ">
<path fill="none" stroke="#63b8ff" d="M228.05,-48.6C239.88,-39.11 254.79,-27.13 264.7,-19.17"/>
<polygon fill="#63b8ff" stroke="#63b8ff" points="225.71,-45.99 220.1,-54.98 230.09,-51.45 225.71,-45.99"/>
</a>
</g>
</g>
<!-- Node14&#45;&gt;Node7 -->
<g id="edge23_Node000014_Node000007" class="edge">
<title>Node14&#45;&gt;Node7</title>
<g id="a_edge23_Node000014_Node000007"><a xlink:title=" ">
<path fill="none" stroke="#63b8ff" d="M299.5,-154.66C299.5,-145.93 299.5,-135.99 299.5,-129.09"/>
<polygon fill="#63b8ff" stroke="#63b8ff" points="296,-154.75 299.5,-164.75 303,-154.75 296,-154.75"/>
</a>
</g>
</g>
</g>
</svg>
