<?xml version="1.0" encoding="UTF-8" standalone="no"?>
<!DOCTYPE svg PUBLIC "-//W3C//DTD SVG 1.1//EN"
 "http://www.w3.org/Graphics/SVG/1.1/DTD/svg11.dtd">
<!-- Generated by graphviz version 2.43.0 (0)
 -->
<!-- Title: COSE.h Pages: 1 -->
<svg width="333pt" height="302pt"
 viewBox="0.00 0.00 333.00 302.00" xmlns="http://www.w3.org/2000/svg" xmlns:xlink="http://www.w3.org/1999/xlink">
<g id="graph0" class="graph" transform="scale(1 1) rotate(0) translate(4 298)">
<title>COSE.h</title>
<!-- Node1 -->
<g id="Node000001" class="node">
<title>Node1</title>
<g id="a_Node000001"><a xlink:title=" ">
<polygon fill="#999999" stroke="#666666" points="108.5,-294 56.5,-294 56.5,-275 108.5,-275 108.5,-294"/>
<text text-anchor="middle" x="82.5" y="-282" font-family="Helvetica,sans-Serif" font-size="10.00">COSE.h</text>
</a>
</g>
</g>
<!-- Node2 -->
<g id="Node000002" class="node">
<title>Node2</title>
<g id="a_Node000002"><a xlink:href="_c_o_s_e_message_8h.html" target="_top" xlink:title=" ">
<polygon fill="white" stroke="#666666" points="95,-184 0,-184 0,-165 95,-165 95,-184"/>
<text text-anchor="middle" x="47.5" y="-172" font-family="Helvetica,sans-Serif" font-size="10.00">COSEMessage.h</text>
</a>
</g>
</g>
<!-- Node1&#45;&gt;Node2 -->
<g id="edge1_Node000001_Node000002" class="edge">
<title>Node1&#45;&gt;Node2</title>
<g id="a_edge1_Node000001_Node000002"><a xlink:title=" ">
<path fill="none" stroke="#63b8ff" d="M76.33,-265.48C73.59,-257.39 70.35,-247.73 67.5,-239 61.12,-219.44 53.95,-196.38 50.16,-184.15"/>
<polygon fill="#63b8ff" stroke="#63b8ff" points="73.04,-266.65 79.57,-274.99 79.66,-264.39 73.04,-266.65"/>
</a>
</g>
</g>
<!-- Node6 -->
<g id="Node000006" class="node">
<title>Node6</title>
<g id="a_Node000006"><a xlink:href="_i_c_o_s_e_signer_8h.html" target="_top" xlink:title=" ">
<polygon fill="white" stroke="#666666" points="161,-239 76,-239 76,-220 161,-220 161,-239"/>
<text text-anchor="middle" x="118.5" y="-227" font-family="Helvetica,sans-Serif" font-size="10.00">ICOSESigner.h</text>
</a>
</g>
</g>
<!-- Node1&#45;&gt;Node6 -->
<g id="edge5_Node000001_Node000006" class="edge">
<title>Node1&#45;&gt;Node6</title>
<g id="a_edge5_Node000001_Node000006"><a xlink:title=" ">
<path fill="none" stroke="#63b8ff" d="M94.12,-266.39C100.32,-257.27 107.67,-246.45 112.67,-239.09"/>
<polygon fill="#63b8ff" stroke="#63b8ff" points="91.17,-264.51 88.44,-274.75 96.96,-268.44 91.17,-264.51"/>
</a>
</g>
</g>
<!-- Node3 -->
<g id="Node000003" class="node">
<title>Node3</title>
<g id="a_Node000003"><a xlink:href="_m_q_t_t_kit_8h.html" target="_top" xlink:title=" ">
<polygon fill="white" stroke="#666666" points="111.5,-74 43.5,-74 43.5,-55 111.5,-55 111.5,-74"/>
<text text-anchor="middle" x="77.5" y="-62" font-family="Helvetica,sans-Serif" font-size="10.00">MQTTKit.h</text>
</a>
</g>
</g>
<!-- Node2&#45;&gt;Node3 -->
<g id="edge2_Node000002_Node000003" class="edge">
<title>Node2&#45;&gt;Node3</title>
<g id="a_edge2_Node000002_Node000003"><a xlink:title=" ">
<path fill="none" stroke="#63b8ff" d="M37.04,-155.74C30.8,-142.74 25.21,-124.85 31.5,-110 38.01,-94.65 52.68,-82.01 63.72,-74.18"/>
<polygon fill="#63b8ff" stroke="#63b8ff" points="33.96,-157.41 41.75,-164.6 40.14,-154.12 33.96,-157.41"/>
</a>
</g>
</g>
<!-- Node4 -->
<g id="Node000004" class="node">
<title>Node4</title>
<g id="a_Node000004"><a xlink:href="_app_kit_8h.html" target="_top" xlink:title=" ">
<polygon fill="white" stroke="#666666" points="209.5,-19 151.5,-19 151.5,0 209.5,0 209.5,-19"/>
<text text-anchor="middle" x="180.5" y="-7" font-family="Helvetica,sans-Serif" font-size="10.00">AppKit.h</text>
</a>
</g>
</g>
<!-- Node3&#45;&gt;Node4 -->
<g id="edge3_Node000003_Node000004" class="edge">
<title>Node3&#45;&gt;Node4</title>
<g id="a_edge3_Node000003_Node000004"><a xlink:title=" ">
<path fill="none" stroke="#63b8ff" d="M103.02,-50.37C121.94,-40.63 147.2,-27.64 163.65,-19.17"/>
<polygon fill="#63b8ff" stroke="#63b8ff" points="101.34,-47.3 94.05,-54.98 104.54,-53.52 101.34,-47.3"/>
</a>
</g>
</g>
<!-- Node5 -->
<g id="Node000005" class="node">
<title>Node5</title>
<g id="a_Node000005"><a xlink:href="_m_q_t_t_device_8cpp.html" target="_top" xlink:title=" ">
<polygon fill="white" stroke="#666666" points="127,-19 28,-19 28,0 127,0 127,-19"/>
<text text-anchor="middle" x="77.5" y="-7" font-family="Helvetica,sans-Serif" font-size="10.00">MQTTDevice.cpp</text>
</a>
</g>
</g>
<!-- Node3&#45;&gt;Node5 -->
<g id="edge4_Node000003_Node000005" class="edge">
<title>Node3&#45;&gt;Node5</title>
<g id="a_edge4_Node000003_Node000005"><a xlink:title=" ">
<path fill="none" stroke="#63b8ff" d="M77.5,-44.66C77.5,-35.93 77.5,-25.99 77.5,-19.09"/>
<polygon fill="#63b8ff" stroke="#63b8ff" points="74,-44.75 77.5,-54.75 81,-44.75 74,-44.75"/>
</a>
</g>
</g>
<!-- Node6&#45;&gt;Node2 -->
<g id="edge6_Node000006_Node000002" class="edge">
<title>Node6&#45;&gt;Node2</title>
<g id="a_edge6_Node000006_Node000002"><a xlink:title=" ">
<path fill="none" stroke="#63b8ff" d="M98.91,-213.88C86.13,-204.34 69.89,-192.21 59.11,-184.17"/>
<polygon fill="#63b8ff" stroke="#63b8ff" points="96.99,-216.81 107.09,-219.98 101.17,-211.2 96.99,-216.81"/>
</a>
</g>
</g>
<!-- Node7 -->
<g id="Node000007" class="node">
<title>Node7</title>
<g id="a_Node000007"><a xlink:href="_credentials_8h.html" target="_top" xlink:title=" ">
<polygon fill="white" stroke="#666666" points="212,-184 131,-184 131,-165 212,-165 212,-184"/>
<text text-anchor="middle" x="171.5" y="-172" font-family="Helvetica,sans-Serif" font-size="10.00">Credentials.h</text>
</a>
</g>
</g>
<!-- Node6&#45;&gt;Node7 -->
<g id="edge7_Node000006_Node000007" class="edge">
<title>Node6&#45;&gt;Node7</title>
<g id="a_edge7_Node000006_Node000007"><a xlink:title=" ">
<path fill="none" stroke="#63b8ff" d="M134.48,-212.52C143.82,-203.18 155.25,-191.75 162.91,-184.09"/>
<polygon fill="#63b8ff" stroke="#63b8ff" points="131.85,-210.2 127.25,-219.75 136.8,-215.15 131.85,-210.2"/>
</a>
</g>
</g>
<!-- Node8 -->
<g id="Node000008" class="node">
<title>Node8</title>
<g id="a_Node000008"><a xlink:href="_m_q_t_t_path_8h.html" target="_top" xlink:title=" ">
<polygon fill="white" stroke="#666666" points="115,-129 40,-129 40,-110 115,-110 115,-129"/>
<text text-anchor="middle" x="77.5" y="-117" font-family="Helvetica,sans-Serif" font-size="10.00">MQTTPath.h</text>
</a>
</g>
</g>
<!-- Node7&#45;&gt;Node8 -->
<g id="edge8_Node000007_Node000008" class="edge">
<title>Node7&#45;&gt;Node8</title>
<g id="a_edge8_Node000007_Node000008"><a xlink:title=" ">
<path fill="none" stroke="#63b8ff" d="M147.5,-159.97C130.31,-150.28 107.69,-137.52 92.88,-129.17"/>
<polygon fill="#63b8ff" stroke="#63b8ff" points="145.97,-163.12 156.4,-164.98 149.41,-157.02 145.97,-163.12"/>
</a>
</g>
</g>
<!-- Node9 -->
<g id="Node000009" class="node">
<title>Node9</title>
<g id="a_Node000009"><a xlink:href="_network_scheduler_8h.html" target="_top" xlink:title=" ">
<polygon fill="white" stroke="#666666" points="247.5,-129 133.5,-129 133.5,-110 247.5,-110 247.5,-129"/>
<text text-anchor="middle" x="190.5" y="-117" font-family="Helvetica,sans-Serif" font-size="10.00">NetworkScheduler.h</text>
</a>
</g>
</g>
<!-- Node7&#45;&gt;Node9 -->
<g id="edge10_Node000007_Node000009" class="edge">
<title>Node7&#45;&gt;Node9</title>
<g id="a_edge10_Node000007_Node000009"><a xlink:title=" ">
<path fill="none" stroke="#63b8ff" d="M178.05,-155.24C181.22,-146.37 184.89,-136.14 187.42,-129.09"/>
<polygon fill="#63b8ff" stroke="#63b8ff" points="174.72,-154.15 174.64,-164.75 181.31,-156.52 174.72,-154.15"/>
</a>
</g>
</g>
<!-- Node11 -->
<g id="Node000011" class="node">
<title>Node11</title>
<g id="a_Node000011"><a xlink:href="_uniot_8h.html" target="_top" xlink:title=" ">
<polygon fill="white" stroke="#666666" points="318.5,-129 266.5,-129 266.5,-110 318.5,-110 318.5,-129"/>
<text text-anchor="middle" x="292.5" y="-117" font-family="Helvetica,sans-Serif" font-size="10.00">Uniot.h</text>
</a>
</g>
</g>
<!-- Node7&#45;&gt;Node11 -->
<g id="edge14_Node000007_Node000011" class="edge">
<title>Node7&#45;&gt;Node11</title>
<g id="a_edge14_Node000007_Node000011"><a xlink:title=" ">
<path fill="none" stroke="#63b8ff" d="M200.27,-160.9C222.62,-151.11 253.02,-137.79 272.71,-129.17"/>
<polygon fill="#63b8ff" stroke="#63b8ff" points="198.7,-157.77 190.94,-164.98 201.5,-164.18 198.7,-157.77"/>
</a>
</g>
</g>
<!-- Node8&#45;&gt;Node3 -->
<g id="edge9_Node000008_Node000003" class="edge">
<title>Node8&#45;&gt;Node3</title>
<g id="a_edge9_Node000008_Node000003"><a xlink:title=" ">
<path fill="none" stroke="#63b8ff" d="M77.5,-99.66C77.5,-90.93 77.5,-80.99 77.5,-74.09"/>
<polygon fill="#63b8ff" stroke="#63b8ff" points="74,-99.75 77.5,-109.75 81,-99.75 74,-99.75"/>
</a>
</g>
</g>
<!-- Node9&#45;&gt;Node3 -->
<g id="edge11_Node000009_Node000003" class="edge">
<title>Node9&#45;&gt;Node3</title>
<g id="a_edge11_Node000009_Node000003"><a xlink:title=" ">
<path fill="none" stroke="#63b8ff" d="M163.07,-105.63C142.25,-95.87 114.2,-82.71 95.99,-74.17"/>
<polygon fill="#63b8ff" stroke="#63b8ff" points="161.8,-108.91 172.34,-109.98 164.78,-102.57 161.8,-108.91"/>
</a>
</g>
</g>
<!-- Node10 -->
<g id="Node000010" class="node">
<title>Node10</title>
<g id="a_Node000010"><a xlink:href="_network_controller_8h.html" target="_top" xlink:title=" ">
<polygon fill="white" stroke="#666666" points="243.5,-74 129.5,-74 129.5,-55 243.5,-55 243.5,-74"/>
<text text-anchor="middle" x="186.5" y="-62" font-family="Helvetica,sans-Serif" font-size="10.00">NetworkController.h</text>
</a>
</g>
</g>
<!-- Node9&#45;&gt;Node10 -->
<g id="edge12_Node000009_Node000010" class="edge">
<title>Node9&#45;&gt;Node10</title>
<g id="a_edge12_Node000009_Node000010"><a xlink:title=" ">
<path fill="none" stroke="#63b8ff" d="M189.08,-99.66C188.42,-90.93 187.67,-80.99 187.15,-74.09"/>
<polygon fill="#63b8ff" stroke="#63b8ff" points="185.6,-100.04 189.84,-109.75 192.58,-99.51 185.6,-100.04"/>
</a>
</g>
</g>
<!-- Node10&#45;&gt;Node4 -->
<g id="edge13_Node000010_Node000004" class="edge">
<title>Node10&#45;&gt;Node4</title>
<g id="a_edge13_Node000010_Node000004"><a xlink:title=" ">
<path fill="none" stroke="#63b8ff" d="M184.37,-44.66C183.38,-35.93 182.25,-25.99 181.47,-19.09"/>
<polygon fill="#63b8ff" stroke="#63b8ff" points="180.91,-45.21 185.51,-54.75 187.86,-44.42 180.91,-45.21"/>
</a>
</g>
</g>
<!-- Node12 -->
<g id="Node000012" class="node">
<title>Node12</title>
<g id="a_Node000012"><a xlink:href="_uniot_8cpp.html" target="_top" xlink:title=" ">
<polygon fill="white" stroke="#666666" points="325,-74 262,-74 262,-55 325,-55 325,-74"/>
<text text-anchor="middle" x="293.5" y="-62" font-family="Helvetica,sans-Serif" font-size="10.00">Uniot.cpp</text>
</a>
</g>
</g>
<!-- Node11&#45;&gt;Node12 -->
<g id="edge15_Node000011_Node000012" class="edge">
<title>Node11&#45;&gt;Node12</title>
<g id="a_edge15_Node000011_Node000012"><a xlink:title=" ">
<path fill="none" stroke="#63b8ff" d="M292.86,-99.66C293.02,-90.93 293.21,-80.99 293.34,-74.09"/>
<polygon fill="#63b8ff" stroke="#63b8ff" points="289.35,-99.68 292.67,-109.75 296.35,-99.82 289.35,-99.68"/>
</a>
</g>
</g>
</g>
</svg>
