<?xml version="1.0" encoding="UTF-8" standalone="no"?>
<!DOCTYPE svg PUBLIC "-//W3C//DTD SVG 1.1//EN"
 "http://www.w3.org/Graphics/SVG/1.1/DTD/svg11.dtd">
<!-- Generated by graphviz version 2.43.0 (0)
 -->
<!-- Title: CallbackEventListener.h Pages: 1 -->
<svg width="230pt" height="82pt"
 viewBox="0.00 0.00 229.50 82.00" xmlns="http://www.w3.org/2000/svg" xmlns:xlink="http://www.w3.org/1999/xlink">
<g id="graph0" class="graph" transform="scale(1 1) rotate(0) translate(4 78)">
<title>CallbackEventListener.h</title>
<!-- Node1 -->
<g id="Node000001" class="node">
<title>Node1</title>
<g id="a_Node000001"><a xlink:title=" ">
<polygon fill="#999999" stroke="#666666" points="156,-74 22,-74 22,-55 156,-55 156,-74"/>
<text text-anchor="middle" x="89" y="-62" font-family="Helvetica,sans-Serif" font-size="10.00">CallbackEventListener.h</text>
</a>
</g>
</g>
<!-- Node2 -->
<g id="Node000002" class="node">
<title>Node2</title>
<g id="a_Node000002"><a xlink:href="_app_kit_8h.html" target="_top" xlink:title=" ">
<polygon fill="white" stroke="#666666" points="58,-19 0,-19 0,0 58,0 58,-19"/>
<text text-anchor="middle" x="29" y="-7" font-family="Helvetica,sans-Serif" font-size="10.00">AppKit.h</text>
</a>
</g>
</g>
<!-- Node1&#45;&gt;Node2 -->
<g id="edge1_Node000001_Node000002" class="edge">
<title>Node1&#45;&gt;Node2</title>
<g id="a_edge1_Node000001_Node000002"><a xlink:title=" ">
<path fill="none" stroke="#63b8ff" d="M71.82,-48.32C61.12,-38.87 47.74,-27.06 38.82,-19.17"/>
<polygon fill="#63b8ff" stroke="#63b8ff" points="69.55,-50.99 79.36,-54.98 74.18,-45.74 69.55,-50.99"/>
</a>
</g>
</g>
<!-- Node3 -->
<g id="Node000003" class="node">
<title>Node3</title>
<g id="a_Node000003"><a xlink:href="_callback_event_listener_8cpp.html" target="_top" xlink:title=" ">
<polygon fill="white" stroke="#666666" points="221.5,-19 76.5,-19 76.5,0 221.5,0 221.5,-19"/>
<text text-anchor="middle" x="149" y="-7" font-family="Helvetica,sans-Serif" font-size="10.00">CallbackEventListener.cpp</text>
</a>
</g>
</g>
<!-- Node1&#45;&gt;Node3 -->
<g id="edge2_Node000001_Node000003" class="edge">
<title>Node1&#45;&gt;Node3</title>
<g id="a_edge2_Node000001_Node000003"><a xlink:title=" ">
<path fill="none" stroke="#63b8ff" d="M106.18,-48.32C116.88,-38.87 130.26,-27.06 139.18,-19.17"/>
<polygon fill="#63b8ff" stroke="#63b8ff" points="103.82,-45.74 98.64,-54.98 108.45,-50.99 103.82,-45.74"/>
</a>
</g>
</g>
</g>
</svg>
