<?xml version="1.0" encoding="UTF-8" standalone="no"?>
<!DOCTYPE svg PUBLIC "-//W3C//DTD SVG 1.1//EN"
 "http://www.w3.org/Graphics/SVG/1.1/DTD/svg11.dtd">
<!-- Generated by graphviz version 2.43.0 (0)
 -->
<!-- Title: CallbackMQTTDevice.h Pages: 1 -->
<svg width="509pt" height="247pt"
 viewBox="0.00 0.00 508.63 247.00" xmlns="http://www.w3.org/2000/svg" xmlns:xlink="http://www.w3.org/1999/xlink">
<g id="graph0" class="graph" transform="scale(1 1) rotate(0) translate(4 243)">
<title>CallbackMQTTDevice.h</title>
<!-- Node1 -->
<g id="Node000001" class="node">
<title>Node1</title>
<g id="a_Node000001"><a xlink:title=" ">
<polygon fill="#999999" stroke="#666666" points="212.63,-239 82.63,-239 82.63,-220 212.63,-220 212.63,-239"/>
<text text-anchor="middle" x="147.63" y="-227" font-family="Helvetica,sans-Serif" font-size="10.00">CallbackMQTTDevice.h</text>
</a>
</g>
</g>
<!-- Node2 -->
<g id="Node000002" class="node">
<title>Node2</title>
<g id="a_Node000002"><a xlink:title=" ">
<polygon fill="#e0e0e0" stroke="#999999" points="90.13,-19 25.13,-19 25.13,0 90.13,0 90.13,-19"/>
<text text-anchor="middle" x="57.63" y="-7" font-family="Helvetica,sans-Serif" font-size="10.00">functional</text>
</a>
</g>
</g>
<!-- Node1&#45;&gt;Node2 -->
<g id="edge1_Node000001_Node000002" class="edge">
<title>Node1&#45;&gt;Node2</title>
<g id="a_edge1_Node000001_Node000002"><a xlink:title=" ">
<path fill="none" stroke="#63b8ff" d="M131.15,-219.86C104.33,-204.96 51.37,-171.85 22.63,-129 3.88,-101.05 -7.3,-85.63 6.63,-55 12.25,-42.63 23.2,-32.36 33.51,-24.81"/>
<polygon fill="#63b8ff" stroke="#63b8ff" points="35.59,-27.63 41.9,-19.12 31.66,-21.84 35.59,-27.63"/>
</a>
</g>
</g>
<!-- Node3 -->
<g id="Node000003" class="node">
<title>Node3</title>
<g id="a_Node000003"><a xlink:href="_m_q_t_t_device_8h.html" target="_top" xlink:title=" ">
<polygon fill="white" stroke="#666666" points="191.63,-184 103.63,-184 103.63,-165 191.63,-165 191.63,-184"/>
<text text-anchor="middle" x="147.63" y="-172" font-family="Helvetica,sans-Serif" font-size="10.00">MQTTDevice.h</text>
</a>
</g>
</g>
<!-- Node1&#45;&gt;Node3 -->
<g id="edge2_Node000001_Node000003" class="edge">
<title>Node1&#45;&gt;Node3</title>
<g id="a_edge2_Node000001_Node000003"><a xlink:title=" ">
<path fill="none" stroke="#63b8ff" d="M147.63,-219.75C147.63,-212.8 147.63,-202.85 147.63,-194.13"/>
<polygon fill="#63b8ff" stroke="#63b8ff" points="151.13,-194.09 147.63,-184.09 144.13,-194.09 151.13,-194.09"/>
</a>
</g>
</g>
<!-- Node8 -->
<g id="Node000008" class="node">
<title>Node8</title>
<g id="a_Node000008"><a xlink:href="_logger_8h.html" target="_top" xlink:title=" ">
<polygon fill="white" stroke="#666666" points="383.63,-74 325.63,-74 325.63,-55 383.63,-55 383.63,-74"/>
<text text-anchor="middle" x="354.63" y="-62" font-family="Helvetica,sans-Serif" font-size="10.00">Logger.h</text>
</a>
</g>
</g>
<!-- Node1&#45;&gt;Node8 -->
<g id="edge16_Node000001_Node000008" class="edge">
<title>Node1&#45;&gt;Node8</title>
<g id="a_edge16_Node000001_Node000008"><a xlink:title=" ">
<path fill="none" stroke="#63b8ff" d="M158.47,-219.97C191.85,-193.68 293.43,-113.69 335.78,-80.34"/>
<polygon fill="#63b8ff" stroke="#63b8ff" points="337.96,-83.08 343.65,-74.15 333.63,-77.58 337.96,-83.08"/>
</a>
</g>
</g>
<!-- Node4 -->
<g id="Node000004" class="node">
<title>Node4</title>
<g id="a_Node000004"><a xlink:href="_bytes_8h.html" target="_top" xlink:title=" ">
<polygon fill="white" stroke="#666666" points="242.13,-129 189.13,-129 189.13,-110 242.13,-110 242.13,-129"/>
<text text-anchor="middle" x="215.63" y="-117" font-family="Helvetica,sans-Serif" font-size="10.00">Bytes.h</text>
</a>
</g>
</g>
<!-- Node3&#45;&gt;Node4 -->
<g id="edge3_Node000003_Node000004" class="edge">
<title>Node3&#45;&gt;Node4</title>
<g id="a_edge3_Node000003_Node000004"><a xlink:title=" ">
<path fill="none" stroke="#63b8ff" d="M158.55,-164.98C168.7,-157.07 184.05,-145.11 196.27,-135.58"/>
<polygon fill="#63b8ff" stroke="#63b8ff" points="198.77,-138.08 204.5,-129.17 194.46,-132.56 198.77,-138.08"/>
</a>
</g>
</g>
<!-- Node12 -->
<g id="Node000012" class="node">
<title>Node12</title>
<g id="a_Node000012"><a xlink:href="_iterable_queue_8h.html" target="_top" xlink:title=" ">
<polygon fill="white" stroke="#666666" points="127.13,-129 32.13,-129 32.13,-110 127.13,-110 127.13,-129"/>
<text text-anchor="middle" x="79.63" y="-117" font-family="Helvetica,sans-Serif" font-size="10.00">IterableQueue.h</text>
</a>
</g>
</g>
<!-- Node3&#45;&gt;Node12 -->
<g id="edge12_Node000003_Node000012" class="edge">
<title>Node3&#45;&gt;Node12</title>
<g id="a_edge12_Node000003_Node000012"><a xlink:title=" ">
<path fill="none" stroke="#63b8ff" d="M136.7,-164.98C126.55,-157.07 111.21,-145.11 98.98,-135.58"/>
<polygon fill="#63b8ff" stroke="#63b8ff" points="100.79,-132.56 90.75,-129.17 96.49,-138.08 100.79,-132.56"/>
</a>
</g>
</g>
<!-- Node4&#45;&gt;Node2 -->
<g id="edge10_Node000004_Node000002" class="edge">
<title>Node4&#45;&gt;Node2</title>
<g id="a_edge10_Node000004_Node000002"><a xlink:title=" ">
<path fill="none" stroke="#63b8ff" d="M202.02,-109.99C188.01,-101.17 165.62,-86.89 146.63,-74 122.69,-57.75 95.7,-38.34 77.79,-25.29"/>
<polygon fill="#63b8ff" stroke="#63b8ff" points="79.45,-22.17 69.31,-19.1 75.32,-27.83 79.45,-22.17"/>
</a>
</g>
</g>
<!-- Node5 -->
<g id="Node000005" class="node">
<title>Node5</title>
<g id="a_Node000005"><a xlink:href="_common_8h.html" target="_top" xlink:title=" ">
<polygon fill="white" stroke="#666666" points="471.63,-74 401.63,-74 401.63,-55 471.63,-55 471.63,-74"/>
<text text-anchor="middle" x="436.63" y="-62" font-family="Helvetica,sans-Serif" font-size="10.00">Common.h</text>
</a>
</g>
</g>
<!-- Node4&#45;&gt;Node5 -->
<g id="edge4_Node000004_Node000005" class="edge">
<title>Node4&#45;&gt;Node5</title>
<g id="a_edge4_Node000004_Node000005"><a xlink:title=" ">
<path fill="none" stroke="#63b8ff" d="M242.29,-112.11C279.32,-103.23 346.84,-87.03 391.73,-76.27"/>
<polygon fill="#63b8ff" stroke="#63b8ff" points="392.59,-79.66 401.5,-73.92 390.96,-72.85 392.59,-79.66"/>
</a>
</g>
</g>
<!-- Node4&#45;&gt;Node8 -->
<g id="edge7_Node000004_Node000008" class="edge">
<title>Node4&#45;&gt;Node8</title>
<g id="a_edge7_Node000004_Node000008"><a xlink:title=" ">
<path fill="none" stroke="#63b8ff" d="M237.96,-109.98C260.82,-101.27 296.58,-87.63 322.49,-77.75"/>
<polygon fill="#63b8ff" stroke="#63b8ff" points="323.79,-81 331.89,-74.17 321.3,-74.46 323.79,-81"/>
</a>
</g>
</g>
<!-- Node10 -->
<g id="Node000010" class="node">
<title>Node10</title>
<g id="a_Node000010"><a xlink:title=" ">
<polygon fill="#e0e0e0" stroke="#999999" points="219.63,-74 155.63,-74 155.63,-55 219.63,-55 219.63,-74"/>
<text text-anchor="middle" x="187.63" y="-62" font-family="Helvetica,sans-Serif" font-size="10.00">WString.h</text>
</a>
</g>
</g>
<!-- Node4&#45;&gt;Node10 -->
<g id="edge9_Node000004_Node000010" class="edge">
<title>Node4&#45;&gt;Node10</title>
<g id="a_edge9_Node000004_Node000010"><a xlink:title=" ">
<path fill="none" stroke="#63b8ff" d="M211,-109.75C207.17,-102.49 201.6,-91.95 196.86,-82.98"/>
<polygon fill="#63b8ff" stroke="#63b8ff" points="199.93,-81.3 192.17,-74.09 193.74,-84.57 199.93,-81.3"/>
</a>
</g>
</g>
<!-- Node11 -->
<g id="Node000011" class="node">
<title>Node11</title>
<g id="a_Node000011"><a xlink:title=" ">
<polygon fill="#e0e0e0" stroke="#999999" points="307.13,-74 238.13,-74 238.13,-55 307.13,-55 307.13,-74"/>
<text text-anchor="middle" x="272.63" y="-62" font-family="Helvetica,sans-Serif" font-size="10.00">type_traits</text>
</a>
</g>
</g>
<!-- Node4&#45;&gt;Node11 -->
<g id="edge11_Node000004_Node000011" class="edge">
<title>Node4&#45;&gt;Node11</title>
<g id="a_edge11_Node000004_Node000011"><a xlink:title=" ">
<path fill="none" stroke="#63b8ff" d="M224.79,-109.98C233.13,-102.23 245.66,-90.58 255.8,-81.14"/>
<polygon fill="#63b8ff" stroke="#63b8ff" points="258.36,-83.54 263.3,-74.17 253.6,-78.42 258.36,-83.54"/>
</a>
</g>
</g>
<!-- Node6 -->
<g id="Node000006" class="node">
<title>Node6</title>
<g id="a_Node000006"><a xlink:title=" ">
<polygon fill="#e0e0e0" stroke="#999999" points="500.63,-19 442.63,-19 442.63,0 500.63,0 500.63,-19"/>
<text text-anchor="middle" x="471.63" y="-7" font-family="Helvetica,sans-Serif" font-size="10.00">memory</text>
</a>
</g>
</g>
<!-- Node5&#45;&gt;Node6 -->
<g id="edge5_Node000005_Node000006" class="edge">
<title>Node5&#45;&gt;Node6</title>
<g id="a_edge5_Node000005_Node000006"><a xlink:title=" ">
<path fill="none" stroke="#63b8ff" d="M442.41,-54.75C447.25,-47.42 454.31,-36.73 460.27,-27.7"/>
<polygon fill="#63b8ff" stroke="#63b8ff" points="463.37,-29.36 465.96,-19.09 457.52,-25.5 463.37,-29.36"/>
</a>
</g>
</g>
<!-- Node7 -->
<g id="Node000007" class="node">
<title>Node7</title>
<g id="a_Node000007"><a xlink:title=" ">
<polygon fill="#e0e0e0" stroke="#999999" points="424.13,-19 379.13,-19 379.13,0 424.13,0 424.13,-19"/>
<text text-anchor="middle" x="401.63" y="-7" font-family="Helvetica,sans-Serif" font-size="10.00">utility</text>
</a>
</g>
</g>
<!-- Node5&#45;&gt;Node7 -->
<g id="edge6_Node000005_Node000007" class="edge">
<title>Node5&#45;&gt;Node7</title>
<g id="a_edge6_Node000005_Node000007"><a xlink:title=" ">
<path fill="none" stroke="#63b8ff" d="M430.85,-54.75C426.01,-47.42 418.95,-36.73 412.98,-27.7"/>
<polygon fill="#63b8ff" stroke="#63b8ff" points="415.73,-25.5 407.3,-19.09 409.89,-29.36 415.73,-25.5"/>
</a>
</g>
</g>
<!-- Node9 -->
<g id="Node000009" class="node">
<title>Node9</title>
<g id="a_Node000009"><a xlink:title=" ">
<polygon fill="#e0e0e0" stroke="#999999" points="284.13,-19 221.13,-19 221.13,0 284.13,0 284.13,-19"/>
<text text-anchor="middle" x="252.63" y="-7" font-family="Helvetica,sans-Serif" font-size="10.00">Arduino.h</text>
</a>
</g>
</g>
<!-- Node8&#45;&gt;Node9 -->
<g id="edge8_Node000008_Node000009" class="edge">
<title>Node8&#45;&gt;Node9</title>
<g id="a_edge8_Node000008_Node000009"><a xlink:title=" ">
<path fill="none" stroke="#63b8ff" d="M338.24,-54.98C322.05,-46.57 297.06,-33.59 278.25,-23.81"/>
<polygon fill="#63b8ff" stroke="#63b8ff" points="279.8,-20.68 269.31,-19.17 276.57,-26.89 279.8,-20.68"/>
</a>
</g>
</g>
<!-- Node13 -->
<g id="Node000013" class="node">
<title>Node13</title>
<g id="a_Node000013"><a xlink:href="_clear_queue_8h.html" target="_top" xlink:title=" ">
<polygon fill="white" stroke="#666666" points="99.13,-74 16.13,-74 16.13,-55 99.13,-55 99.13,-74"/>
<text text-anchor="middle" x="57.63" y="-62" font-family="Helvetica,sans-Serif" font-size="10.00">ClearQueue.h</text>
</a>
</g>
</g>
<!-- Node12&#45;&gt;Node13 -->
<g id="edge13_Node000012_Node000013" class="edge">
<title>Node12&#45;&gt;Node13</title>
<g id="a_edge13_Node000012_Node000013"><a xlink:title=" ">
<path fill="none" stroke="#63b8ff" d="M75.99,-109.75C73.05,-102.65 68.79,-92.4 65.12,-83.56"/>
<polygon fill="#63b8ff" stroke="#63b8ff" points="68.26,-81.98 61.19,-74.09 61.79,-84.67 68.26,-81.98"/>
</a>
</g>
</g>
<!-- Node13&#45;&gt;Node2 -->
<g id="edge15_Node000013_Node000002" class="edge">
<title>Node13&#45;&gt;Node2</title>
<g id="a_edge15_Node000013_Node000002"><a xlink:title=" ">
<path fill="none" stroke="#63b8ff" d="M57.63,-54.75C57.63,-47.8 57.63,-37.85 57.63,-29.13"/>
<polygon fill="#63b8ff" stroke="#63b8ff" points="61.13,-29.09 57.63,-19.09 54.13,-29.09 61.13,-29.09"/>
</a>
</g>
</g>
<!-- Node13&#45;&gt;Node9 -->
<g id="edge14_Node000013_Node000009" class="edge">
<title>Node13&#45;&gt;Node9</title>
<g id="a_edge14_Node000013_Node000009"><a xlink:title=" ">
<path fill="none" stroke="#63b8ff" d="M88.96,-54.98C122.12,-45.97 174.62,-31.7 211.19,-21.76"/>
<polygon fill="#63b8ff" stroke="#63b8ff" points="212.32,-25.08 221.05,-19.08 210.48,-18.33 212.32,-25.08"/>
</a>
</g>
</g>
</g>
</svg>
