<?xml version="1.0" encoding="UTF-8" standalone="no"?>
<!DOCTYPE svg PUBLIC "-//W3C//DTD SVG 1.1//EN"
 "http://www.w3.org/Graphics/SVG/1.1/DTD/svg11.dtd">
<!-- Generated by graphviz version 2.43.0 (0)
 -->
<!-- Title: Credentials.h Pages: 1 -->
<svg width="305pt" height="192pt"
 viewBox="0.00 0.00 305.00 192.00" xmlns="http://www.w3.org/2000/svg" xmlns:xlink="http://www.w3.org/1999/xlink">
<g id="graph0" class="graph" transform="scale(1 1) rotate(0) translate(4 188)">
<title>Credentials.h</title>
<!-- Node1 -->
<g id="Node000001" class="node">
<title>Node1</title>
<g id="a_Node000001"><a xlink:title=" ">
<polygon fill="#999999" stroke="#666666" points="201,-184 120,-184 120,-165 201,-165 201,-184"/>
<text text-anchor="middle" x="160.5" y="-172" font-family="Helvetica,sans-Serif" font-size="10.00">Credentials.h</text>
</a>
</g>
</g>
<!-- Node2 -->
<g id="Node000002" class="node">
<title>Node2</title>
<g id="a_Node000002"><a xlink:href="_m_q_t_t_path_8h.html" target="_top" xlink:title=" ">
<polygon fill="white" stroke="#666666" points="85,-129 10,-129 10,-110 85,-110 85,-129"/>
<text text-anchor="middle" x="47.5" y="-117" font-family="Helvetica,sans-Serif" font-size="10.00">MQTTPath.h</text>
</a>
</g>
</g>
<!-- Node1&#45;&gt;Node2 -->
<g id="edge1_Node000001_Node000002" class="edge">
<title>Node1&#45;&gt;Node2</title>
<g id="a_edge1_Node000001_Node000002"><a xlink:title=" ">
<path fill="none" stroke="#63b8ff" d="M133.07,-160.63C112.25,-150.87 84.2,-137.71 65.99,-129.17"/>
<polygon fill="#63b8ff" stroke="#63b8ff" points="131.8,-163.91 142.34,-164.98 134.78,-157.57 131.8,-163.91"/>
</a>
</g>
</g>
<!-- Node6 -->
<g id="Node000006" class="node">
<title>Node6</title>
<g id="a_Node000006"><a xlink:href="_network_scheduler_8h.html" target="_top" xlink:title=" ">
<polygon fill="white" stroke="#666666" points="217.5,-129 103.5,-129 103.5,-110 217.5,-110 217.5,-129"/>
<text text-anchor="middle" x="160.5" y="-117" font-family="Helvetica,sans-Serif" font-size="10.00">NetworkScheduler.h</text>
</a>
</g>
</g>
<!-- Node1&#45;&gt;Node6 -->
<g id="edge5_Node000001_Node000006" class="edge">
<title>Node1&#45;&gt;Node6</title>
<g id="a_edge5_Node000001_Node000006"><a xlink:title=" ">
<path fill="none" stroke="#63b8ff" d="M160.5,-154.66C160.5,-145.93 160.5,-135.99 160.5,-129.09"/>
<polygon fill="#63b8ff" stroke="#63b8ff" points="157,-154.75 160.5,-164.75 164,-154.75 157,-154.75"/>
</a>
</g>
</g>
<!-- Node8 -->
<g id="Node000008" class="node">
<title>Node8</title>
<g id="a_Node000008"><a xlink:href="_uniot_8h.html" target="_top" xlink:title=" ">
<polygon fill="white" stroke="#666666" points="289.5,-129 237.5,-129 237.5,-110 289.5,-110 289.5,-129"/>
<text text-anchor="middle" x="263.5" y="-117" font-family="Helvetica,sans-Serif" font-size="10.00">Uniot.h</text>
</a>
</g>
</g>
<!-- Node1&#45;&gt;Node8 -->
<g id="edge9_Node000001_Node000008" class="edge">
<title>Node1&#45;&gt;Node8</title>
<g id="a_edge9_Node000001_Node000008"><a xlink:title=" ">
<path fill="none" stroke="#63b8ff" d="M186.02,-160.37C204.94,-150.63 230.2,-137.64 246.65,-129.17"/>
<polygon fill="#63b8ff" stroke="#63b8ff" points="184.34,-157.3 177.05,-164.98 187.54,-163.52 184.34,-157.3"/>
</a>
</g>
</g>
<!-- Node3 -->
<g id="Node000003" class="node">
<title>Node3</title>
<g id="a_Node000003"><a xlink:href="_m_q_t_t_kit_8h.html" target="_top" xlink:title=" ">
<polygon fill="white" stroke="#666666" points="83.5,-74 15.5,-74 15.5,-55 83.5,-55 83.5,-74"/>
<text text-anchor="middle" x="49.5" y="-62" font-family="Helvetica,sans-Serif" font-size="10.00">MQTTKit.h</text>
</a>
</g>
</g>
<!-- Node2&#45;&gt;Node3 -->
<g id="edge2_Node000002_Node000003" class="edge">
<title>Node2&#45;&gt;Node3</title>
<g id="a_edge2_Node000002_Node000003"><a xlink:title=" ">
<path fill="none" stroke="#63b8ff" d="M48.21,-99.66C48.54,-90.93 48.92,-80.99 49.18,-74.09"/>
<polygon fill="#63b8ff" stroke="#63b8ff" points="44.71,-99.62 47.83,-109.75 51.7,-99.89 44.71,-99.62"/>
</a>
</g>
</g>
<!-- Node4 -->
<g id="Node000004" class="node">
<title>Node4</title>
<g id="a_Node000004"><a xlink:href="_app_kit_8h.html" target="_top" xlink:title=" ">
<polygon fill="white" stroke="#666666" points="181.5,-19 123.5,-19 123.5,0 181.5,0 181.5,-19"/>
<text text-anchor="middle" x="152.5" y="-7" font-family="Helvetica,sans-Serif" font-size="10.00">AppKit.h</text>
</a>
</g>
</g>
<!-- Node3&#45;&gt;Node4 -->
<g id="edge3_Node000003_Node000004" class="edge">
<title>Node3&#45;&gt;Node4</title>
<g id="a_edge3_Node000003_Node000004"><a xlink:title=" ">
<path fill="none" stroke="#63b8ff" d="M75.02,-50.37C93.94,-40.63 119.2,-27.64 135.65,-19.17"/>
<polygon fill="#63b8ff" stroke="#63b8ff" points="73.34,-47.3 66.05,-54.98 76.54,-53.52 73.34,-47.3"/>
</a>
</g>
</g>
<!-- Node5 -->
<g id="Node000005" class="node">
<title>Node5</title>
<g id="a_Node000005"><a xlink:href="_m_q_t_t_device_8cpp.html" target="_top" xlink:title=" ">
<polygon fill="white" stroke="#666666" points="99,-19 0,-19 0,0 99,0 99,-19"/>
<text text-anchor="middle" x="49.5" y="-7" font-family="Helvetica,sans-Serif" font-size="10.00">MQTTDevice.cpp</text>
</a>
</g>
</g>
<!-- Node3&#45;&gt;Node5 -->
<g id="edge4_Node000003_Node000005" class="edge">
<title>Node3&#45;&gt;Node5</title>
<g id="a_edge4_Node000003_Node000005"><a xlink:title=" ">
<path fill="none" stroke="#63b8ff" d="M49.5,-44.66C49.5,-35.93 49.5,-25.99 49.5,-19.09"/>
<polygon fill="#63b8ff" stroke="#63b8ff" points="46,-44.75 49.5,-54.75 53,-44.75 46,-44.75"/>
</a>
</g>
</g>
<!-- Node6&#45;&gt;Node3 -->
<g id="edge6_Node000006_Node000003" class="edge">
<title>Node6&#45;&gt;Node3</title>
<g id="a_edge6_Node000006_Node000003"><a xlink:title=" ">
<path fill="none" stroke="#63b8ff" d="M133.55,-105.63C113.11,-95.87 85.55,-82.71 67.66,-74.17"/>
<polygon fill="#63b8ff" stroke="#63b8ff" points="132.13,-108.83 142.67,-109.98 135.15,-102.52 132.13,-108.83"/>
</a>
</g>
</g>
<!-- Node7 -->
<g id="Node000007" class="node">
<title>Node7</title>
<g id="a_Node000007"><a xlink:href="_network_controller_8h.html" target="_top" xlink:title=" ">
<polygon fill="white" stroke="#666666" points="215.5,-74 101.5,-74 101.5,-55 215.5,-55 215.5,-74"/>
<text text-anchor="middle" x="158.5" y="-62" font-family="Helvetica,sans-Serif" font-size="10.00">NetworkController.h</text>
</a>
</g>
</g>
<!-- Node6&#45;&gt;Node7 -->
<g id="edge7_Node000006_Node000007" class="edge">
<title>Node6&#45;&gt;Node7</title>
<g id="a_edge7_Node000006_Node000007"><a xlink:title=" ">
<path fill="none" stroke="#63b8ff" d="M159.79,-99.66C159.46,-90.93 159.08,-80.99 158.82,-74.09"/>
<polygon fill="#63b8ff" stroke="#63b8ff" points="156.3,-99.89 160.17,-109.75 163.29,-99.62 156.3,-99.89"/>
</a>
</g>
</g>
<!-- Node7&#45;&gt;Node4 -->
<g id="edge8_Node000007_Node000004" class="edge">
<title>Node7&#45;&gt;Node4</title>
<g id="a_edge8_Node000007_Node000004"><a xlink:title=" ">
<path fill="none" stroke="#63b8ff" d="M156.37,-44.66C155.38,-35.93 154.25,-25.99 153.47,-19.09"/>
<polygon fill="#63b8ff" stroke="#63b8ff" points="152.91,-45.21 157.51,-54.75 159.86,-44.42 152.91,-45.21"/>
</a>
</g>
</g>
<!-- Node9 -->
<g id="Node000009" class="node">
<title>Node9</title>
<g id="a_Node000009"><a xlink:href="_uniot_8cpp.html" target="_top" xlink:title=" ">
<polygon fill="white" stroke="#666666" points="297,-74 234,-74 234,-55 297,-55 297,-74"/>
<text text-anchor="middle" x="265.5" y="-62" font-family="Helvetica,sans-Serif" font-size="10.00">Uniot.cpp</text>
</a>
</g>
</g>
<!-- Node8&#45;&gt;Node9 -->
<g id="edge10_Node000008_Node000009" class="edge">
<title>Node8&#45;&gt;Node9</title>
<g id="a_edge10_Node000008_Node000009"><a xlink:title=" ">
<path fill="none" stroke="#63b8ff" d="M264.21,-99.66C264.54,-90.93 264.92,-80.99 265.18,-74.09"/>
<polygon fill="#63b8ff" stroke="#63b8ff" points="260.71,-99.62 263.83,-109.75 267.7,-99.89 260.71,-99.62"/>
</a>
</g>
</g>
</g>
</svg>
