<?xml version="1.0" encoding="UTF-8" standalone="no"?>
<!DOCTYPE svg PUBLIC "-//W3C//DTD SVG 1.1//EN"
 "http://www.w3.org/Graphics/SVG/1.1/DTD/svg11.dtd">
<!-- Generated by graphviz version 2.43.0 (0)
 -->
<!-- Title: Credentials.h Pages: 1 -->
<svg width="709pt" height="302pt"
 viewBox="0.00 0.00 708.50 302.00" xmlns="http://www.w3.org/2000/svg" xmlns:xlink="http://www.w3.org/1999/xlink">
<g id="graph0" class="graph" transform="scale(1 1) rotate(0) translate(4 298)">
<title>Credentials.h</title>
<!-- Node1 -->
<g id="Node000001" class="node">
<title>Node1</title>
<g id="a_Node000001"><a xlink:title=" ">
<polygon fill="#999999" stroke="#666666" points="447.5,-294 366.5,-294 366.5,-275 447.5,-275 447.5,-294"/>
<text text-anchor="middle" x="407" y="-282" font-family="Helvetica,sans-Serif" font-size="10.00">Credentials.h</text>
</a>
</g>
</g>
<!-- Node2 -->
<g id="Node000002" class="node">
<title>Node2</title>
<g id="a_Node000002"><a xlink:title=" ">
<polygon fill="#e0e0e0" stroke="#999999" points="173.5,-19 110.5,-19 110.5,0 173.5,0 173.5,-19"/>
<text text-anchor="middle" x="142" y="-7" font-family="Helvetica,sans-Serif" font-size="10.00">Arduino.h</text>
</a>
</g>
</g>
<!-- Node1&#45;&gt;Node2 -->
<g id="edge1_Node000001_Node000002" class="edge">
<title>Node1&#45;&gt;Node2</title>
<g id="a_edge1_Node000001_Node000002"><a xlink:title=" ">
<path fill="none" stroke="#63b8ff" d="M366.49,-281.37C263.54,-274.85 0,-250.8 0,-175.5 0,-175.5 0,-175.5 0,-118.5 0,-67.32 59.17,-37.21 101.12,-22.3"/>
<polygon fill="#63b8ff" stroke="#63b8ff" points="102.49,-25.53 110.84,-19 100.24,-18.9 102.49,-25.53"/>
</a>
</g>
</g>
<!-- Node3 -->
<g id="Node000003" class="node">
<title>Node3</title>
<g id="a_Node000003"><a xlink:href="_c_b_o_r_storage_8h.html" target="_top" xlink:title=" ">
<polygon fill="white" stroke="#666666" points="256.5,-239 165.5,-239 165.5,-220 256.5,-220 256.5,-239"/>
<text text-anchor="middle" x="211" y="-227" font-family="Helvetica,sans-Serif" font-size="10.00">CBORStorage.h</text>
</a>
</g>
</g>
<!-- Node1&#45;&gt;Node3 -->
<g id="edge2_Node000001_Node000003" class="edge">
<title>Node1&#45;&gt;Node3</title>
<g id="a_edge2_Node000001_Node000003"><a xlink:title=" ">
<path fill="none" stroke="#63b8ff" d="M375.51,-274.98C342.18,-265.97 289.4,-251.7 252.65,-241.76"/>
<polygon fill="#63b8ff" stroke="#63b8ff" points="253.3,-238.31 242.74,-239.08 251.48,-245.07 253.3,-238.31"/>
</a>
</g>
</g>
<!-- Node17 -->
<g id="Node000017" class="node">
<title>Node17</title>
<g id="a_Node000017"><a xlink:title=" ">
<polygon fill="#e0e0e0" stroke="#999999" points="436,-239 378,-239 378,-220 436,-220 436,-239"/>
<text text-anchor="middle" x="407" y="-227" font-family="Helvetica,sans-Serif" font-size="10.00">Crypto.h</text>
</a>
</g>
</g>
<!-- Node1&#45;&gt;Node17 -->
<g id="edge22_Node000001_Node000017" class="edge">
<title>Node1&#45;&gt;Node17</title>
<g id="a_edge22_Node000001_Node000017"><a xlink:title=" ">
<path fill="none" stroke="#63b8ff" d="M407,-274.75C407,-267.8 407,-257.85 407,-249.13"/>
<polygon fill="#63b8ff" stroke="#63b8ff" points="410.5,-249.09 407,-239.09 403.5,-249.09 410.5,-249.09"/>
</a>
</g>
</g>
<!-- Node18 -->
<g id="Node000018" class="node">
<title>Node18</title>
<g id="a_Node000018"><a xlink:title=" ">
<polygon fill="#e0e0e0" stroke="#999999" points="522,-239 454,-239 454,-220 522,-220 522,-239"/>
<text text-anchor="middle" x="488" y="-227" font-family="Helvetica,sans-Serif" font-size="10.00">Ed25519.h</text>
</a>
</g>
</g>
<!-- Node1&#45;&gt;Node18 -->
<g id="edge23_Node000001_Node000018" class="edge">
<title>Node1&#45;&gt;Node18</title>
<g id="a_edge23_Node000001_Node000018"><a xlink:title=" ">
<path fill="none" stroke="#63b8ff" d="M420.01,-274.98C432.46,-266.84 451.46,-254.41 466.21,-244.76"/>
<polygon fill="#63b8ff" stroke="#63b8ff" points="468.3,-247.57 474.75,-239.17 464.46,-241.72 468.3,-247.57"/>
</a>
</g>
</g>
<!-- Node19 -->
<g id="Node000019" class="node">
<title>Node19</title>
<g id="a_Node000019"><a xlink:href="_i_c_o_s_e_signer_8h.html" target="_top" xlink:title=" ">
<polygon fill="white" stroke="#666666" points="359.5,-239 274.5,-239 274.5,-220 359.5,-220 359.5,-239"/>
<text text-anchor="middle" x="317" y="-227" font-family="Helvetica,sans-Serif" font-size="10.00">ICOSESigner.h</text>
</a>
</g>
</g>
<!-- Node1&#45;&gt;Node19 -->
<g id="edge24_Node000001_Node000019" class="edge">
<title>Node1&#45;&gt;Node19</title>
<g id="a_edge24_Node000001_Node000019"><a xlink:title=" ">
<path fill="none" stroke="#63b8ff" d="M392.54,-274.98C378.58,-266.77 357.21,-254.18 340.75,-244.49"/>
<polygon fill="#63b8ff" stroke="#63b8ff" points="342.12,-241.23 331.72,-239.17 338.56,-247.26 342.12,-241.23"/>
</a>
</g>
</g>
<!-- Node21 -->
<g id="Node000021" class="node">
<title>Node21</title>
<g id="a_Node000021"><a xlink:title=" ">
<polygon fill="#e0e0e0" stroke="#999999" points="587.5,-239 540.5,-239 540.5,-220 587.5,-220 587.5,-239"/>
<text text-anchor="middle" x="564" y="-227" font-family="Helvetica,sans-Serif" font-size="10.00">RNG.h</text>
</a>
</g>
</g>
<!-- Node1&#45;&gt;Node21 -->
<g id="edge27_Node000001_Node000021" class="edge">
<title>Node1&#45;&gt;Node21</title>
<g id="a_edge27_Node000001_Node000021"><a xlink:title=" ">
<path fill="none" stroke="#63b8ff" d="M432.22,-274.98C458.9,-265.98 501.11,-251.73 530.55,-241.79"/>
<polygon fill="#63b8ff" stroke="#63b8ff" points="532.02,-244.99 540.38,-238.47 529.78,-238.36 532.02,-244.99"/>
</a>
</g>
</g>
<!-- Node22 -->
<g id="Node000022" class="node">
<title>Node22</title>
<g id="a_Node000022"><a xlink:title=" ">
<polygon fill="#e0e0e0" stroke="#999999" points="700.5,-239 605.5,-239 605.5,-220 700.5,-220 700.5,-239"/>
<text text-anchor="middle" x="653" y="-227" font-family="Helvetica,sans-Serif" font-size="10.00">user_interface.h</text>
</a>
</g>
</g>
<!-- Node1&#45;&gt;Node22 -->
<g id="edge28_Node000001_Node000022" class="edge">
<title>Node1&#45;&gt;Node22</title>
<g id="a_edge28_Node000001_Node000022"><a xlink:title=" ">
<path fill="none" stroke="#63b8ff" d="M446.52,-274.98C489.17,-265.8 557.15,-251.15 603.36,-241.19"/>
<polygon fill="#63b8ff" stroke="#63b8ff" points="604.13,-244.61 613.17,-239.08 602.65,-237.77 604.13,-244.61"/>
</a>
</g>
</g>
<!-- Node4 -->
<g id="Node000004" class="node">
<title>Node4</title>
<g id="a_Node000004"><a xlink:href="_storage_8h.html" target="_top" xlink:title=" ">
<polygon fill="white" stroke="#666666" points="185.5,-184 122.5,-184 122.5,-165 185.5,-165 185.5,-184"/>
<text text-anchor="middle" x="154" y="-172" font-family="Helvetica,sans-Serif" font-size="10.00">Storage.h</text>
</a>
</g>
</g>
<!-- Node3&#45;&gt;Node4 -->
<g id="edge3_Node000003_Node000004" class="edge">
<title>Node3&#45;&gt;Node4</title>
<g id="a_edge3_Node000003_Node000004"><a xlink:title=" ">
<path fill="none" stroke="#63b8ff" d="M201.84,-219.98C193.5,-212.23 180.97,-200.58 170.82,-191.14"/>
<polygon fill="#63b8ff" stroke="#63b8ff" points="173.03,-188.42 163.32,-184.17 168.26,-193.54 173.03,-188.42"/>
</a>
</g>
</g>
<!-- Node15 -->
<g id="Node000015" class="node">
<title>Node15</title>
<g id="a_Node000015"><a xlink:href="_c_b_o_r_object_8h.html" target="_top" xlink:title=" ">
<polygon fill="white" stroke="#666666" points="288.5,-184 203.5,-184 203.5,-165 288.5,-165 288.5,-184"/>
<text text-anchor="middle" x="246" y="-172" font-family="Helvetica,sans-Serif" font-size="10.00">CBORObject.h</text>
</a>
</g>
</g>
<!-- Node3&#45;&gt;Node15 -->
<g id="edge16_Node000003_Node000015" class="edge">
<title>Node3&#45;&gt;Node15</title>
<g id="a_edge16_Node000003_Node000015"><a xlink:title=" ">
<path fill="none" stroke="#63b8ff" d="M216.78,-219.75C221.62,-212.42 228.68,-201.73 234.64,-192.7"/>
<polygon fill="#63b8ff" stroke="#63b8ff" points="237.74,-194.36 240.33,-184.09 231.9,-190.5 237.74,-194.36"/>
</a>
</g>
</g>
<!-- Node5 -->
<g id="Node000005" class="node">
<title>Node5</title>
<g id="a_Node000005"><a xlink:title=" ">
<polygon fill="#e0e0e0" stroke="#999999" points="124,-129 66,-129 66,-110 124,-110 124,-129"/>
<text text-anchor="middle" x="95" y="-117" font-family="Helvetica,sans-Serif" font-size="10.00">SPIFFS.h</text>
</a>
</g>
</g>
<!-- Node4&#45;&gt;Node5 -->
<g id="edge4_Node000004_Node000005" class="edge">
<title>Node4&#45;&gt;Node5</title>
<g id="a_edge4_Node000004_Node000005"><a xlink:title=" ">
<path fill="none" stroke="#63b8ff" d="M144.52,-164.98C135.8,-157.15 122.66,-145.34 112.1,-135.86"/>
<polygon fill="#63b8ff" stroke="#63b8ff" points="114.43,-133.25 104.65,-129.17 109.75,-138.46 114.43,-133.25"/>
</a>
</g>
</g>
<!-- Node6 -->
<g id="Node000006" class="node">
<title>Node6</title>
<g id="a_Node000006"><a xlink:title=" ">
<polygon fill="#e0e0e0" stroke="#999999" points="179.5,-129 142.5,-129 142.5,-110 179.5,-110 179.5,-129"/>
<text text-anchor="middle" x="161" y="-117" font-family="Helvetica,sans-Serif" font-size="10.00">FS.h</text>
</a>
</g>
</g>
<!-- Node4&#45;&gt;Node6 -->
<g id="edge5_Node000004_Node000006" class="edge">
<title>Node4&#45;&gt;Node6</title>
<g id="a_edge5_Node000004_Node000006"><a xlink:title=" ">
<path fill="none" stroke="#63b8ff" d="M155.16,-164.75C156.07,-157.8 157.39,-147.85 158.54,-139.13"/>
<polygon fill="#63b8ff" stroke="#63b8ff" points="162.03,-139.46 159.87,-129.09 155.09,-138.54 162.03,-139.46"/>
</a>
</g>
</g>
<!-- Node7 -->
<g id="Node000007" class="node">
<title>Node7</title>
<g id="a_Node000007"><a xlink:href="_bytes_8h.html" target="_top" xlink:title=" ">
<polygon fill="white" stroke="#666666" points="335.5,-129 282.5,-129 282.5,-110 335.5,-110 335.5,-129"/>
<text text-anchor="middle" x="309" y="-117" font-family="Helvetica,sans-Serif" font-size="10.00">Bytes.h</text>
</a>
</g>
</g>
<!-- Node4&#45;&gt;Node7 -->
<g id="edge6_Node000004_Node000007" class="edge">
<title>Node4&#45;&gt;Node7</title>
<g id="a_edge6_Node000004_Node000007"><a xlink:title=" ">
<path fill="none" stroke="#63b8ff" d="M178.9,-164.98C204.7,-156.16 245.22,-142.31 274.18,-132.41"/>
<polygon fill="#63b8ff" stroke="#63b8ff" points="275.57,-135.63 283.9,-129.08 273.31,-129.01 275.57,-135.63"/>
</a>
</g>
</g>
<!-- Node11 -->
<g id="Node000011" class="node">
<title>Node11</title>
<g id="a_Node000011"><a xlink:href="_logger_8h.html" target="_top" xlink:title=" ">
<polygon fill="white" stroke="#666666" points="171,-74 113,-74 113,-55 171,-55 171,-74"/>
<text text-anchor="middle" x="142" y="-62" font-family="Helvetica,sans-Serif" font-size="10.00">Logger.h</text>
</a>
</g>
</g>
<!-- Node4&#45;&gt;Node11 -->
<g id="edge15_Node000004_Node000011" class="edge">
<title>Node4&#45;&gt;Node11</title>
<g id="a_edge15_Node000004_Node000011"><a xlink:title=" ">
<path fill="none" stroke="#63b8ff" d="M122.35,-168.18C99.9,-162.57 71.31,-151.3 57,-129 41.99,-105.6 74.23,-87.72 103.22,-76.98"/>
<polygon fill="#63b8ff" stroke="#63b8ff" points="104.56,-80.22 112.85,-73.62 102.26,-73.61 104.56,-80.22"/>
</a>
</g>
</g>
<!-- Node8 -->
<g id="Node000008" class="node">
<title>Node8</title>
<g id="a_Node000008"><a xlink:href="_common_8h.html" target="_top" xlink:title=" ">
<polygon fill="white" stroke="#666666" points="297,-74 227,-74 227,-55 297,-55 297,-74"/>
<text text-anchor="middle" x="262" y="-62" font-family="Helvetica,sans-Serif" font-size="10.00">Common.h</text>
</a>
</g>
</g>
<!-- Node7&#45;&gt;Node8 -->
<g id="edge7_Node000007_Node000008" class="edge">
<title>Node7&#45;&gt;Node8</title>
<g id="a_edge7_Node000007_Node000008"><a xlink:title=" ">
<path fill="none" stroke="#63b8ff" d="M301.24,-109.75C294.53,-102.18 284.66,-91.05 276.49,-81.84"/>
<polygon fill="#63b8ff" stroke="#63b8ff" points="278.87,-79.25 269.62,-74.09 273.63,-83.89 278.87,-79.25"/>
</a>
</g>
</g>
<!-- Node7&#45;&gt;Node11 -->
<g id="edge10_Node000007_Node000011" class="edge">
<title>Node7&#45;&gt;Node11</title>
<g id="a_edge10_Node000007_Node000011"><a xlink:title=" ">
<path fill="none" stroke="#63b8ff" d="M282.17,-109.98C254.13,-101.09 209.95,-87.07 178.7,-77.15"/>
<polygon fill="#63b8ff" stroke="#63b8ff" points="179.63,-73.77 169.04,-74.08 177.51,-80.44 179.63,-73.77"/>
</a>
</g>
</g>
<!-- Node12 -->
<g id="Node000012" class="node">
<title>Node12</title>
<g id="a_Node000012"><a xlink:title=" ">
<polygon fill="#e0e0e0" stroke="#999999" points="379,-74 315,-74 315,-55 379,-55 379,-74"/>
<text text-anchor="middle" x="347" y="-62" font-family="Helvetica,sans-Serif" font-size="10.00">WString.h</text>
</a>
</g>
</g>
<!-- Node7&#45;&gt;Node12 -->
<g id="edge12_Node000007_Node000012" class="edge">
<title>Node7&#45;&gt;Node12</title>
<g id="a_edge12_Node000007_Node000012"><a xlink:title=" ">
<path fill="none" stroke="#63b8ff" d="M315.27,-109.75C320.59,-102.34 328.36,-91.5 334.88,-82.41"/>
<polygon fill="#63b8ff" stroke="#63b8ff" points="337.86,-84.26 340.84,-74.09 332.17,-80.18 337.86,-84.26"/>
</a>
</g>
</g>
<!-- Node13 -->
<g id="Node000013" class="node">
<title>Node13</title>
<g id="a_Node000013"><a xlink:title=" ">
<polygon fill="#e0e0e0" stroke="#999999" points="462.5,-74 397.5,-74 397.5,-55 462.5,-55 462.5,-74"/>
<text text-anchor="middle" x="430" y="-62" font-family="Helvetica,sans-Serif" font-size="10.00">functional</text>
</a>
</g>
</g>
<!-- Node7&#45;&gt;Node13 -->
<g id="edge13_Node000007_Node000013" class="edge">
<title>Node7&#45;&gt;Node13</title>
<g id="a_edge13_Node000007_Node000013"><a xlink:title=" ">
<path fill="none" stroke="#63b8ff" d="M328.44,-109.98C347.99,-101.42 378.38,-88.11 400.82,-78.28"/>
<polygon fill="#63b8ff" stroke="#63b8ff" points="402.45,-81.39 410.21,-74.17 399.64,-74.98 402.45,-81.39"/>
</a>
</g>
</g>
<!-- Node14 -->
<g id="Node000014" class="node">
<title>Node14</title>
<g id="a_Node000014"><a xlink:title=" ">
<polygon fill="#e0e0e0" stroke="#999999" points="549.5,-74 480.5,-74 480.5,-55 549.5,-55 549.5,-74"/>
<text text-anchor="middle" x="515" y="-62" font-family="Helvetica,sans-Serif" font-size="10.00">type_traits</text>
</a>
</g>
</g>
<!-- Node7&#45;&gt;Node14 -->
<g id="edge14_Node000007_Node000014" class="edge">
<title>Node7&#45;&gt;Node14</title>
<g id="a_edge14_Node000007_Node000014"><a xlink:title=" ">
<path fill="none" stroke="#63b8ff" d="M335.51,-111.68C370.04,-102.79 430.86,-87.15 472.02,-76.56"/>
<polygon fill="#63b8ff" stroke="#63b8ff" points="472.97,-79.93 481.78,-74.05 471.22,-73.15 472.97,-79.93"/>
</a>
</g>
</g>
<!-- Node9 -->
<g id="Node000009" class="node">
<title>Node9</title>
<g id="a_Node000009"><a xlink:title=" ">
<polygon fill="#e0e0e0" stroke="#999999" points="484,-19 426,-19 426,0 484,0 484,-19"/>
<text text-anchor="middle" x="455" y="-7" font-family="Helvetica,sans-Serif" font-size="10.00">memory</text>
</a>
</g>
</g>
<!-- Node8&#45;&gt;Node9 -->
<g id="edge8_Node000008_Node000009" class="edge">
<title>Node8&#45;&gt;Node9</title>
<g id="a_edge8_Node000008_Node000009"><a xlink:title=" ">
<path fill="none" stroke="#63b8ff" d="M293.01,-54.98C326.51,-45.78 379.96,-31.11 416.22,-21.15"/>
<polygon fill="#63b8ff" stroke="#63b8ff" points="417.25,-24.5 425.96,-18.47 415.39,-17.75 417.25,-24.5"/>
</a>
</g>
</g>
<!-- Node10 -->
<g id="Node000010" class="node">
<title>Node10</title>
<g id="a_Node000010"><a xlink:title=" ">
<polygon fill="#e0e0e0" stroke="#999999" points="284.5,-19 239.5,-19 239.5,0 284.5,0 284.5,-19"/>
<text text-anchor="middle" x="262" y="-7" font-family="Helvetica,sans-Serif" font-size="10.00">utility</text>
</a>
</g>
</g>
<!-- Node8&#45;&gt;Node10 -->
<g id="edge9_Node000008_Node000010" class="edge">
<title>Node8&#45;&gt;Node10</title>
<g id="a_edge9_Node000008_Node000010"><a xlink:title=" ">
<path fill="none" stroke="#63b8ff" d="M262,-54.75C262,-47.8 262,-37.85 262,-29.13"/>
<polygon fill="#63b8ff" stroke="#63b8ff" points="265.5,-29.09 262,-19.09 258.5,-29.09 265.5,-29.09"/>
</a>
</g>
</g>
<!-- Node11&#45;&gt;Node2 -->
<g id="edge11_Node000011_Node000002" class="edge">
<title>Node11&#45;&gt;Node2</title>
<g id="a_edge11_Node000011_Node000002"><a xlink:title=" ">
<path fill="none" stroke="#63b8ff" d="M142,-54.75C142,-47.8 142,-37.85 142,-29.13"/>
<polygon fill="#63b8ff" stroke="#63b8ff" points="145.5,-29.09 142,-19.09 138.5,-29.09 145.5,-29.09"/>
</a>
</g>
</g>
<!-- Node15&#45;&gt;Node2 -->
<g id="edge17_Node000015_Node000002" class="edge">
<title>Node15&#45;&gt;Node2</title>
<g id="a_edge17_Node000015_Node000002"><a xlink:title=" ">
<path fill="none" stroke="#63b8ff" d="M241.92,-164.81C232.34,-144.72 207.12,-93.8 180,-55 173.1,-45.13 164.45,-34.87 157.14,-26.68"/>
<polygon fill="#63b8ff" stroke="#63b8ff" points="159.72,-24.32 150.4,-19.29 154.55,-29.03 159.72,-24.32"/>
</a>
</g>
</g>
<!-- Node15&#45;&gt;Node7 -->
<g id="edge18_Node000015_Node000007" class="edge">
<title>Node15&#45;&gt;Node7</title>
<g id="a_edge18_Node000015_Node000007"><a xlink:title=" ">
<path fill="none" stroke="#63b8ff" d="M256.12,-164.98C265.44,-157.15 279.47,-145.34 290.74,-135.86"/>
<polygon fill="#63b8ff" stroke="#63b8ff" points="293.29,-138.29 298.69,-129.17 288.79,-132.93 293.29,-138.29"/>
</a>
</g>
</g>
<!-- Node15&#45;&gt;Node9 -->
<g id="edge21_Node000015_Node000009" class="edge">
<title>Node15&#45;&gt;Node9</title>
<g id="a_edge21_Node000015_Node000009"><a xlink:title=" ">
<path fill="none" stroke="#63b8ff" d="M288.54,-166.29C366.36,-152.15 526.64,-118.24 559,-74 579.32,-46.22 531.8,-28.1 494.47,-18.58"/>
<polygon fill="#63b8ff" stroke="#63b8ff" points="494.81,-15.07 484.27,-16.13 493.17,-21.87 494.81,-15.07"/>
</a>
</g>
</g>
<!-- Node15&#45;&gt;Node11 -->
<g id="edge19_Node000015_Node000011" class="edge">
<title>Node15&#45;&gt;Node11</title>
<g id="a_edge19_Node000015_Node000011"><a xlink:title=" ">
<path fill="none" stroke="#63b8ff" d="M238.29,-164.72C227.33,-152.31 206.52,-129.06 188,-110 178.51,-100.24 167.57,-89.63 158.74,-81.22"/>
<polygon fill="#63b8ff" stroke="#63b8ff" points="161,-78.53 151.33,-74.2 156.18,-83.62 161,-78.53"/>
</a>
</g>
</g>
<!-- Node16 -->
<g id="Node000016" class="node">
<title>Node16</title>
<g id="a_Node000016"><a xlink:title=" ">
<polygon fill="#e0e0e0" stroke="#999999" points="667.5,-129 606.5,-129 606.5,-110 667.5,-110 667.5,-129"/>
<text text-anchor="middle" x="637" y="-117" font-family="Helvetica,sans-Serif" font-size="10.00">cn&#45;cbor.h</text>
</a>
</g>
</g>
<!-- Node15&#45;&gt;Node16 -->
<g id="edge20_Node000015_Node000016" class="edge">
<title>Node15&#45;&gt;Node16</title>
<g id="a_edge20_Node000015_Node000016"><a xlink:title=" ">
<path fill="none" stroke="#63b8ff" d="M288.73,-168.82C354.18,-161.47 483.13,-146.27 592,-129 593.28,-128.8 594.58,-128.59 595.89,-128.37"/>
<polygon fill="#63b8ff" stroke="#63b8ff" points="596.81,-131.76 606.06,-126.59 595.6,-124.86 596.81,-131.76"/>
</a>
</g>
</g>
<!-- Node19&#45;&gt;Node7 -->
<g id="edge25_Node000019_Node000007" class="edge">
<title>Node19&#45;&gt;Node7</title>
<g id="a_edge25_Node000019_Node000007"><a xlink:title=" ">
<path fill="none" stroke="#63b8ff" d="M316.35,-219.66C315.05,-202.17 312.13,-162.8 310.39,-139.27"/>
<polygon fill="#63b8ff" stroke="#63b8ff" points="313.87,-138.87 309.64,-129.16 306.89,-139.39 313.87,-138.87"/>
</a>
</g>
</g>
<!-- Node20 -->
<g id="Node000020" class="node">
<title>Node20</title>
<g id="a_Node000020"><a xlink:href="_c_o_s_e_8h.html" target="_top" xlink:title=" ">
<polygon fill="white" stroke="#666666" points="397,-184 345,-184 345,-165 397,-165 397,-184"/>
<text text-anchor="middle" x="371" y="-172" font-family="Helvetica,sans-Serif" font-size="10.00">COSE.h</text>
</a>
</g>
</g>
<!-- Node19&#45;&gt;Node20 -->
<g id="edge26_Node000019_Node000020" class="edge">
<title>Node19&#45;&gt;Node20</title>
<g id="a_edge26_Node000019_Node000020"><a xlink:title=" ">
<path fill="none" stroke="#63b8ff" d="M325.92,-219.75C333.78,-212.03 345.43,-200.6 354.92,-191.28"/>
<polygon fill="#63b8ff" stroke="#63b8ff" points="357.56,-193.59 362.25,-184.09 352.66,-188.6 357.56,-193.59"/>
</a>
</g>
</g>
</g>
</svg>
