<?xml version="1.0" encoding="UTF-8" standalone="no"?>
<!DOCTYPE svg PUBLIC "-//W3C//DTD SVG 1.1//EN"
 "http://www.w3.org/Graphics/SVG/1.1/DTD/svg11.dtd">
<!-- Generated by graphviz version 2.43.0 (0)
 -->
<!-- Title: DataChannels.cpp Pages: 1 -->
<svg width="507pt" height="302pt"
 viewBox="0.00 0.00 507.00 302.00" xmlns="http://www.w3.org/2000/svg" xmlns:xlink="http://www.w3.org/1999/xlink">
<g id="graph0" class="graph" transform="scale(1 1) rotate(0) translate(4 298)">
<title>DataChannels.cpp</title>
<!-- Node1 -->
<g id="Node000001" class="node">
<title>Node1</title>
<g id="a_Node000001"><a xlink:title=" ">
<polygon fill="#999999" stroke="#666666" points="358.5,-294 253.5,-294 253.5,-275 358.5,-275 358.5,-294"/>
<text text-anchor="middle" x="306" y="-282" font-family="Helvetica,sans-Serif" font-size="10.00">DataChannels.cpp</text>
</a>
</g>
</g>
<!-- Node2 -->
<g id="Node000002" class="node">
<title>Node2</title>
<g id="a_Node000002"><a xlink:href="_data_channels_8h.html" target="_top" xlink:title=" ">
<polygon fill="white" stroke="#666666" points="316,-239 222,-239 222,-220 316,-220 316,-239"/>
<text text-anchor="middle" x="269" y="-227" font-family="Helvetica,sans-Serif" font-size="10.00">DataChannels.h</text>
</a>
</g>
</g>
<!-- Node1&#45;&gt;Node2 -->
<g id="edge1_Node000001_Node000002" class="edge">
<title>Node1&#45;&gt;Node2</title>
<g id="a_edge1_Node000001_Node000002"><a xlink:title=" ">
<path fill="none" stroke="#63b8ff" d="M299.89,-274.75C294.72,-267.34 287.15,-256.5 280.81,-247.41"/>
<polygon fill="#63b8ff" stroke="#63b8ff" points="283.59,-245.29 275,-239.09 277.85,-249.29 283.59,-245.29"/>
</a>
</g>
</g>
<!-- Node7 -->
<g id="Node000007" class="node">
<title>Node7</title>
<g id="a_Node000007"><a xlink:href="_logger_8h.html" target="_top" xlink:title=" ">
<polygon fill="white" stroke="#666666" points="499,-129 441,-129 441,-110 499,-110 499,-129"/>
<text text-anchor="middle" x="470" y="-117" font-family="Helvetica,sans-Serif" font-size="10.00">Logger.h</text>
</a>
</g>
</g>
<!-- Node1&#45;&gt;Node7 -->
<g id="edge19_Node000001_Node000007" class="edge">
<title>Node1&#45;&gt;Node7</title>
<g id="a_edge19_Node000001_Node000007"><a xlink:title=" ">
<path fill="none" stroke="#63b8ff" d="M314.82,-274.74C341.18,-248.53 419.68,-170.51 453.83,-136.57"/>
<polygon fill="#63b8ff" stroke="#63b8ff" points="456.51,-138.84 461.14,-129.31 451.58,-133.87 456.51,-138.84"/>
</a>
</g>
</g>
<!-- Node3 -->
<g id="Node000003" class="node">
<title>Node3</title>
<g id="a_Node000003"><a xlink:href="_bytes_8h.html" target="_top" xlink:title=" ">
<polygon fill="white" stroke="#666666" points="321.5,-184 268.5,-184 268.5,-165 321.5,-165 321.5,-184"/>
<text text-anchor="middle" x="295" y="-172" font-family="Helvetica,sans-Serif" font-size="10.00">Bytes.h</text>
</a>
</g>
</g>
<!-- Node2&#45;&gt;Node3 -->
<g id="edge2_Node000002_Node000003" class="edge">
<title>Node2&#45;&gt;Node3</title>
<g id="a_edge2_Node000002_Node000003"><a xlink:title=" ">
<path fill="none" stroke="#63b8ff" d="M273.29,-219.75C276.81,-212.57 281.91,-202.18 286.28,-193.27"/>
<polygon fill="#63b8ff" stroke="#63b8ff" points="289.52,-194.61 290.79,-184.09 283.24,-191.53 289.52,-194.61"/>
</a>
</g>
</g>
<!-- Node12 -->
<g id="Node000012" class="node">
<title>Node12</title>
<g id="a_Node000012"><a xlink:href="_limited_queue_8h.html" target="_top" xlink:title=" ">
<polygon fill="white" stroke="#666666" points="94,-184 0,-184 0,-165 94,-165 94,-184"/>
<text text-anchor="middle" x="47" y="-172" font-family="Helvetica,sans-Serif" font-size="10.00">LimitedQueue.h</text>
</a>
</g>
</g>
<!-- Node2&#45;&gt;Node12 -->
<g id="edge11_Node000002_Node000012" class="edge">
<title>Node2&#45;&gt;Node12</title>
<g id="a_edge11_Node000002_Node000012"><a xlink:title=" ">
<path fill="none" stroke="#63b8ff" d="M233.33,-219.98C195.17,-210.87 134.53,-196.4 92.85,-186.45"/>
<polygon fill="#63b8ff" stroke="#63b8ff" points="93.49,-183 82.95,-184.08 91.86,-189.81 93.49,-183"/>
</a>
</g>
</g>
<!-- Node14 -->
<g id="Node000014" class="node">
<title>Node14</title>
<g id="a_Node000014"><a xlink:href="_map_8h.html" target="_top" xlink:title=" ">
<polygon fill="white" stroke="#666666" points="203.5,-184 156.5,-184 156.5,-165 203.5,-165 203.5,-184"/>
<text text-anchor="middle" x="180" y="-172" font-family="Helvetica,sans-Serif" font-size="10.00">Map.h</text>
</a>
</g>
</g>
<!-- Node2&#45;&gt;Node14 -->
<g id="edge15_Node000002_Node000014" class="edge">
<title>Node2&#45;&gt;Node14</title>
<g id="a_edge15_Node000002_Node000014"><a xlink:title=" ">
<path fill="none" stroke="#63b8ff" d="M254.7,-219.98C240.9,-211.77 219.76,-199.18 203.49,-189.49"/>
<polygon fill="#63b8ff" stroke="#63b8ff" points="204.94,-186.28 194.56,-184.17 201.36,-192.29 204.94,-186.28"/>
</a>
</g>
</g>
<!-- Node4 -->
<g id="Node000004" class="node">
<title>Node4</title>
<g id="a_Node000004"><a xlink:href="_common_8h.html" target="_top" xlink:title=" ">
<polygon fill="white" stroke="#666666" points="215,-129 145,-129 145,-110 215,-110 215,-129"/>
<text text-anchor="middle" x="180" y="-117" font-family="Helvetica,sans-Serif" font-size="10.00">Common.h</text>
</a>
</g>
</g>
<!-- Node3&#45;&gt;Node4 -->
<g id="edge3_Node000003_Node000004" class="edge">
<title>Node3&#45;&gt;Node4</title>
<g id="a_edge3_Node000003_Node000004"><a xlink:title=" ">
<path fill="none" stroke="#63b8ff" d="M276.52,-164.98C258.02,-156.46 229.32,-143.23 208.02,-133.41"/>
<polygon fill="#63b8ff" stroke="#63b8ff" points="209.36,-130.18 198.81,-129.17 206.43,-136.53 209.36,-130.18"/>
</a>
</g>
</g>
<!-- Node3&#45;&gt;Node7 -->
<g id="edge6_Node000003_Node000007" class="edge">
<title>Node3&#45;&gt;Node7</title>
<g id="a_edge6_Node000003_Node000007"><a xlink:title=" ">
<path fill="none" stroke="#63b8ff" d="M321.58,-165.45C350.95,-156.55 398.51,-142.15 431.86,-132.05"/>
<polygon fill="#63b8ff" stroke="#63b8ff" points="433.16,-135.31 441.72,-129.07 431.13,-128.61 433.16,-135.31"/>
</a>
</g>
</g>
<!-- Node9 -->
<g id="Node000009" class="node">
<title>Node9</title>
<g id="a_Node000009"><a xlink:title=" ">
<polygon fill="#e0e0e0" stroke="#999999" points="297,-129 233,-129 233,-110 297,-110 297,-129"/>
<text text-anchor="middle" x="265" y="-117" font-family="Helvetica,sans-Serif" font-size="10.00">WString.h</text>
</a>
</g>
</g>
<!-- Node3&#45;&gt;Node9 -->
<g id="edge8_Node000003_Node000009" class="edge">
<title>Node3&#45;&gt;Node9</title>
<g id="a_edge8_Node000003_Node000009"><a xlink:title=" ">
<path fill="none" stroke="#63b8ff" d="M290.05,-164.75C285.94,-157.49 279.97,-146.95 274.9,-137.98"/>
<polygon fill="#63b8ff" stroke="#63b8ff" points="277.83,-136.07 269.86,-129.09 271.74,-139.52 277.83,-136.07"/>
</a>
</g>
</g>
<!-- Node10 -->
<g id="Node000010" class="node">
<title>Node10</title>
<g id="a_Node000010"><a xlink:title=" ">
<polygon fill="#e0e0e0" stroke="#999999" points="212.5,-19 147.5,-19 147.5,0 212.5,0 212.5,-19"/>
<text text-anchor="middle" x="180" y="-7" font-family="Helvetica,sans-Serif" font-size="10.00">functional</text>
</a>
</g>
</g>
<!-- Node3&#45;&gt;Node10 -->
<g id="edge9_Node000003_Node000010" class="edge">
<title>Node3&#45;&gt;Node10</title>
<g id="a_edge9_Node000003_Node000010"><a xlink:title=" ">
<path fill="none" stroke="#63b8ff" d="M297.83,-164.75C300.55,-155.86 304.46,-141.64 306,-129 310.23,-94.25 304.17,-79.33 279,-55 263.31,-39.83 241.55,-29.28 222.43,-22.27"/>
<polygon fill="#63b8ff" stroke="#63b8ff" points="223.31,-18.87 212.72,-18.93 221.03,-25.49 223.31,-18.87"/>
</a>
</g>
</g>
<!-- Node11 -->
<g id="Node000011" class="node">
<title>Node11</title>
<g id="a_Node000011"><a xlink:title=" ">
<polygon fill="#e0e0e0" stroke="#999999" points="422.5,-129 353.5,-129 353.5,-110 422.5,-110 422.5,-129"/>
<text text-anchor="middle" x="388" y="-117" font-family="Helvetica,sans-Serif" font-size="10.00">type_traits</text>
</a>
</g>
</g>
<!-- Node3&#45;&gt;Node11 -->
<g id="edge10_Node000003_Node000011" class="edge">
<title>Node3&#45;&gt;Node11</title>
<g id="a_edge10_Node000003_Node000011"><a xlink:title=" ">
<path fill="none" stroke="#63b8ff" d="M309.94,-164.98C324.5,-156.69 346.87,-143.94 363.93,-134.22"/>
<polygon fill="#63b8ff" stroke="#63b8ff" points="365.83,-137.16 372.79,-129.17 362.36,-131.08 365.83,-137.16"/>
</a>
</g>
</g>
<!-- Node5 -->
<g id="Node000005" class="node">
<title>Node5</title>
<g id="a_Node000005"><a xlink:title=" ">
<polygon fill="#e0e0e0" stroke="#999999" points="270,-74 212,-74 212,-55 270,-55 270,-74"/>
<text text-anchor="middle" x="241" y="-62" font-family="Helvetica,sans-Serif" font-size="10.00">memory</text>
</a>
</g>
</g>
<!-- Node4&#45;&gt;Node5 -->
<g id="edge4_Node000004_Node000005" class="edge">
<title>Node4&#45;&gt;Node5</title>
<g id="a_edge4_Node000004_Node000005"><a xlink:title=" ">
<path fill="none" stroke="#63b8ff" d="M189.8,-109.98C198.82,-102.15 212.41,-90.34 223.32,-80.86"/>
<polygon fill="#63b8ff" stroke="#63b8ff" points="225.77,-83.37 231.02,-74.17 221.18,-78.09 225.77,-83.37"/>
</a>
</g>
</g>
<!-- Node6 -->
<g id="Node000006" class="node">
<title>Node6</title>
<g id="a_Node000006"><a xlink:title=" ">
<polygon fill="#e0e0e0" stroke="#999999" points="193.5,-74 148.5,-74 148.5,-55 193.5,-55 193.5,-74"/>
<text text-anchor="middle" x="171" y="-62" font-family="Helvetica,sans-Serif" font-size="10.00">utility</text>
</a>
</g>
</g>
<!-- Node4&#45;&gt;Node6 -->
<g id="edge5_Node000004_Node000006" class="edge">
<title>Node4&#45;&gt;Node6</title>
<g id="a_edge5_Node000004_Node000006"><a xlink:title=" ">
<path fill="none" stroke="#63b8ff" d="M178.51,-109.75C177.33,-102.8 175.64,-92.85 174.16,-84.13"/>
<polygon fill="#63b8ff" stroke="#63b8ff" points="177.58,-83.36 172.46,-74.09 170.68,-84.53 177.58,-83.36"/>
</a>
</g>
</g>
<!-- Node8 -->
<g id="Node000008" class="node">
<title>Node8</title>
<g id="a_Node000008"><a xlink:title=" ">
<polygon fill="#e0e0e0" stroke="#999999" points="341.5,-19 278.5,-19 278.5,0 341.5,0 341.5,-19"/>
<text text-anchor="middle" x="310" y="-7" font-family="Helvetica,sans-Serif" font-size="10.00">Arduino.h</text>
</a>
</g>
</g>
<!-- Node7&#45;&gt;Node8 -->
<g id="edge7_Node000007_Node000008" class="edge">
<title>Node7&#45;&gt;Node8</title>
<g id="a_edge7_Node000007_Node000008"><a xlink:title=" ">
<path fill="none" stroke="#63b8ff" d="M457.18,-109.84C429.79,-91.36 365.35,-47.86 331.55,-25.05"/>
<polygon fill="#63b8ff" stroke="#63b8ff" points="333.13,-21.89 322.88,-19.2 329.21,-27.69 333.13,-21.89"/>
</a>
</g>
</g>
<!-- Node13 -->
<g id="Node000013" class="node">
<title>Node13</title>
<g id="a_Node000013"><a xlink:href="_clear_queue_8h.html" target="_top" xlink:title=" ">
<polygon fill="white" stroke="#666666" points="125.5,-74 42.5,-74 42.5,-55 125.5,-55 125.5,-74"/>
<text text-anchor="middle" x="84" y="-62" font-family="Helvetica,sans-Serif" font-size="10.00">ClearQueue.h</text>
</a>
</g>
</g>
<!-- Node12&#45;&gt;Node13 -->
<g id="edge12_Node000012_Node000013" class="edge">
<title>Node12&#45;&gt;Node13</title>
<g id="a_edge12_Node000012_Node000013"><a xlink:title=" ">
<path fill="none" stroke="#63b8ff" d="M38.77,-164.63C28.22,-152.13 12.37,-128.76 22,-110 28.96,-96.44 42.19,-86.07 54.65,-78.78"/>
<polygon fill="#63b8ff" stroke="#63b8ff" points="56.35,-81.84 63.48,-74 53.02,-75.68 56.35,-81.84"/>
</a>
</g>
</g>
<!-- Node13&#45;&gt;Node8 -->
<g id="edge13_Node000013_Node000008" class="edge">
<title>Node13&#45;&gt;Node8</title>
<g id="a_edge13_Node000013_Node000008"><a xlink:title=" ">
<path fill="none" stroke="#63b8ff" d="M120.31,-54.98C160.74,-45.5 225.97,-30.21 268.42,-20.25"/>
<polygon fill="#63b8ff" stroke="#63b8ff" points="269.23,-23.66 278.16,-17.97 267.63,-16.84 269.23,-23.66"/>
</a>
</g>
</g>
<!-- Node13&#45;&gt;Node10 -->
<g id="edge14_Node000013_Node000010" class="edge">
<title>Node13&#45;&gt;Node10</title>
<g id="a_edge14_Node000013_Node000010"><a xlink:title=" ">
<path fill="none" stroke="#63b8ff" d="M99.42,-54.98C114.45,-46.69 137.54,-33.94 155.16,-24.22"/>
<polygon fill="#63b8ff" stroke="#63b8ff" points="157.23,-27.07 164.3,-19.17 153.85,-20.94 157.23,-27.07"/>
</a>
</g>
</g>
<!-- Node14&#45;&gt;Node4 -->
<g id="edge16_Node000014_Node000004" class="edge">
<title>Node14&#45;&gt;Node4</title>
<g id="a_edge16_Node000014_Node000004"><a xlink:title=" ">
<path fill="none" stroke="#63b8ff" d="M180,-164.75C180,-157.8 180,-147.85 180,-139.13"/>
<polygon fill="#63b8ff" stroke="#63b8ff" points="183.5,-139.09 180,-129.09 176.5,-139.09 183.5,-139.09"/>
</a>
</g>
</g>
<!-- Node15 -->
<g id="Node000015" class="node">
<title>Node15</title>
<g id="a_Node000015"><a xlink:href="_iterable_queue_8h.html" target="_top" xlink:title=" ">
<polygon fill="white" stroke="#666666" points="126.5,-129 31.5,-129 31.5,-110 126.5,-110 126.5,-129"/>
<text text-anchor="middle" x="79" y="-117" font-family="Helvetica,sans-Serif" font-size="10.00">IterableQueue.h</text>
</a>
</g>
</g>
<!-- Node14&#45;&gt;Node15 -->
<g id="edge17_Node000014_Node000015" class="edge">
<title>Node14&#45;&gt;Node15</title>
<g id="a_edge17_Node000014_Node000015"><a xlink:title=" ">
<path fill="none" stroke="#63b8ff" d="M163.77,-164.98C147.82,-156.61 123.22,-143.7 104.62,-133.95"/>
<polygon fill="#63b8ff" stroke="#63b8ff" points="106,-130.72 95.52,-129.17 102.75,-136.92 106,-130.72"/>
</a>
</g>
</g>
<!-- Node15&#45;&gt;Node13 -->
<g id="edge18_Node000015_Node000013" class="edge">
<title>Node15&#45;&gt;Node13</title>
<g id="a_edge18_Node000015_Node000013"><a xlink:title=" ">
<path fill="none" stroke="#63b8ff" d="M79.83,-109.75C80.48,-102.8 81.42,-92.85 82.24,-84.13"/>
<polygon fill="#63b8ff" stroke="#63b8ff" points="85.73,-84.37 83.19,-74.09 78.77,-83.72 85.73,-84.37"/>
</a>
</g>
</g>
</g>
</svg>
