<?xml version="1.0" encoding="UTF-8" standalone="no"?>
<!DOCTYPE svg PUBLIC "-//W3C//DTD SVG 1.1//EN"
 "http://www.w3.org/Graphics/SVG/1.1/DTD/svg11.dtd">
<!-- Generated by graphviz version 2.43.0 (0)
 -->
<!-- Title: EventListener.h Pages: 1 -->
<svg width="593pt" height="302pt"
 viewBox="0.00 0.00 592.62 302.00" xmlns="http://www.w3.org/2000/svg" xmlns:xlink="http://www.w3.org/1999/xlink">
<g id="graph0" class="graph" transform="scale(1 1) rotate(0) translate(4 298)">
<title>EventListener.h</title>
<!-- Node1 -->
<g id="Node000001" class="node">
<title>Node1</title>
<g id="a_Node000001"><a xlink:title=" ">
<polygon fill="#999999" stroke="#666666" points="532.5,-294 440.5,-294 440.5,-275 532.5,-275 532.5,-294"/>
<text text-anchor="middle" x="486.5" y="-282" font-family="Helvetica,sans-Serif" font-size="10.00">EventListener.h</text>
</a>
</g>
</g>
<!-- Node2 -->
<g id="Node000002" class="node">
<title>Node2</title>
<g id="a_Node000002"><a xlink:href="_bytes_8h.html" target="_top" xlink:title=" ">
<polygon fill="white" stroke="#666666" points="317,-184 264,-184 264,-165 317,-165 317,-184"/>
<text text-anchor="middle" x="290.5" y="-172" font-family="Helvetica,sans-Serif" font-size="10.00">Bytes.h</text>
</a>
</g>
</g>
<!-- Node1&#45;&gt;Node2 -->
<g id="edge1_Node000001_Node000002" class="edge">
<title>Node1&#45;&gt;Node2</title>
<g id="a_edge1_Node000001_Node000002"><a xlink:title=" ">
<path fill="none" stroke="#63b8ff" d="M461.8,-274.87C439.86,-266.8 407.21,-253.8 380.5,-239 354.58,-224.64 327.05,-204.39 309.37,-190.65"/>
<polygon fill="#63b8ff" stroke="#63b8ff" points="311.1,-187.56 301.08,-184.12 306.77,-193.06 311.1,-187.56"/>
</a>
</g>
</g>
<!-- Node11 -->
<g id="Node000011" class="node">
<title>Node11</title>
<g id="a_Node000011"><a xlink:href="_clear_queue_8h.html" target="_top" xlink:title=" ">
<polygon fill="white" stroke="#666666" points="523,-74 440,-74 440,-55 523,-55 523,-74"/>
<text text-anchor="middle" x="481.5" y="-62" font-family="Helvetica,sans-Serif" font-size="10.00">ClearQueue.h</text>
</a>
</g>
</g>
<!-- Node1&#45;&gt;Node11 -->
<g id="edge10_Node000001_Node000011" class="edge">
<title>Node1&#45;&gt;Node11</title>
<g id="a_edge10_Node000001_Node000011"><a xlink:title=" ">
<path fill="none" stroke="#63b8ff" d="M497.22,-274.89C528.07,-249.06 612.49,-170.29 574.5,-110 564.77,-94.56 548.03,-84.35 531.41,-77.67"/>
<polygon fill="#63b8ff" stroke="#63b8ff" points="532.29,-74.26 521.7,-74.13 529.89,-80.84 532.29,-74.26"/>
</a>
</g>
</g>
<!-- Node12 -->
<g id="Node000012" class="node">
<title>Node12</title>
<g id="a_Node000012"><a xlink:href="_iterable_queue_8h.html" target="_top" xlink:title=" ">
<polygon fill="white" stroke="#666666" points="565,-129 470,-129 470,-110 565,-110 565,-129"/>
<text text-anchor="middle" x="517.5" y="-117" font-family="Helvetica,sans-Serif" font-size="10.00">IterableQueue.h</text>
</a>
</g>
</g>
<!-- Node1&#45;&gt;Node12 -->
<g id="edge13_Node000001_Node000012" class="edge">
<title>Node1&#45;&gt;Node12</title>
<g id="a_edge13_Node000001_Node000012"><a xlink:title=" ">
<path fill="none" stroke="#63b8ff" d="M488.17,-274.74C493.02,-249.2 507.24,-174.43 513.94,-139.23"/>
<polygon fill="#63b8ff" stroke="#63b8ff" points="517.4,-139.78 515.83,-129.31 510.52,-138.48 517.4,-139.78"/>
</a>
</g>
</g>
<!-- Node13 -->
<g id="Node000013" class="node">
<title>Node13</title>
<g id="a_Node000013"><a xlink:href="_event_emitter_8h.html" target="_top" xlink:title=" ">
<polygon fill="white" stroke="#666666" points="478,-239 389,-239 389,-220 478,-220 478,-239"/>
<text text-anchor="middle" x="433.5" y="-227" font-family="Helvetica,sans-Serif" font-size="10.00">EventEmitter.h</text>
</a>
</g>
</g>
<!-- Node1&#45;&gt;Node13 -->
<g id="edge15_Node000001_Node000013" class="edge">
<title>Node1&#45;&gt;Node13</title>
<g id="a_edge15_Node000001_Node000013"><a xlink:title=" ">
<path fill="none" stroke="#63b8ff" d="M477.75,-274.75C470.03,-267.03 458.6,-255.6 449.28,-246.28"/>
<polygon fill="#63b8ff" stroke="#63b8ff" points="451.64,-243.69 442.09,-239.09 446.69,-248.64 451.64,-243.69"/>
</a>
</g>
</g>
<!-- Node3 -->
<g id="Node000003" class="node">
<title>Node3</title>
<g id="a_Node000003"><a xlink:href="_common_8h.html" target="_top" xlink:title=" ">
<polygon fill="white" stroke="#666666" points="92.5,-129 22.5,-129 22.5,-110 92.5,-110 92.5,-129"/>
<text text-anchor="middle" x="57.5" y="-117" font-family="Helvetica,sans-Serif" font-size="10.00">Common.h</text>
</a>
</g>
</g>
<!-- Node2&#45;&gt;Node3 -->
<g id="edge2_Node000002_Node000003" class="edge">
<title>Node2&#45;&gt;Node3</title>
<g id="a_edge2_Node000002_Node000003"><a xlink:title=" ">
<path fill="none" stroke="#63b8ff" d="M263.77,-167.42C224.38,-158.46 150.24,-141.59 102.4,-130.71"/>
<polygon fill="#63b8ff" stroke="#63b8ff" points="103.14,-127.29 92.61,-128.49 101.59,-134.12 103.14,-127.29"/>
</a>
</g>
</g>
<!-- Node6 -->
<g id="Node000006" class="node">
<title>Node6</title>
<g id="a_Node000006"><a xlink:href="_logger_8h.html" target="_top" xlink:title=" ">
<polygon fill="white" stroke="#666666" points="376.5,-129 318.5,-129 318.5,-110 376.5,-110 376.5,-129"/>
<text text-anchor="middle" x="347.5" y="-117" font-family="Helvetica,sans-Serif" font-size="10.00">Logger.h</text>
</a>
</g>
</g>
<!-- Node2&#45;&gt;Node6 -->
<g id="edge5_Node000002_Node000006" class="edge">
<title>Node2&#45;&gt;Node6</title>
<g id="a_edge5_Node000002_Node000006"><a xlink:title=" ">
<path fill="none" stroke="#63b8ff" d="M299.66,-164.98C308,-157.23 320.53,-145.58 330.68,-136.14"/>
<polygon fill="#63b8ff" stroke="#63b8ff" points="333.24,-138.54 338.18,-129.17 328.47,-133.42 333.24,-138.54"/>
</a>
</g>
</g>
<!-- Node8 -->
<g id="Node000008" class="node">
<title>Node8</title>
<g id="a_Node000008"><a xlink:title=" ">
<polygon fill="#e0e0e0" stroke="#999999" points="262.5,-129 198.5,-129 198.5,-110 262.5,-110 262.5,-129"/>
<text text-anchor="middle" x="230.5" y="-117" font-family="Helvetica,sans-Serif" font-size="10.00">WString.h</text>
</a>
</g>
</g>
<!-- Node2&#45;&gt;Node8 -->
<g id="edge7_Node000002_Node000008" class="edge">
<title>Node2&#45;&gt;Node8</title>
<g id="a_edge7_Node000002_Node000008"><a xlink:title=" ">
<path fill="none" stroke="#63b8ff" d="M280.86,-164.98C271.99,-157.15 258.63,-145.34 247.89,-135.86"/>
<polygon fill="#63b8ff" stroke="#63b8ff" points="250.13,-133.17 240.32,-129.17 245.49,-138.41 250.13,-133.17"/>
</a>
</g>
</g>
<!-- Node9 -->
<g id="Node000009" class="node">
<title>Node9</title>
<g id="a_Node000009"><a xlink:title=" ">
<polygon fill="#e0e0e0" stroke="#999999" points="342,-19 277,-19 277,0 342,0 342,-19"/>
<text text-anchor="middle" x="309.5" y="-7" font-family="Helvetica,sans-Serif" font-size="10.00">functional</text>
</a>
</g>
</g>
<!-- Node2&#45;&gt;Node9 -->
<g id="edge8_Node000002_Node000009" class="edge">
<title>Node2&#45;&gt;Node9</title>
<g id="a_edge8_Node000002_Node000009"><a xlink:title=" ">
<path fill="none" stroke="#63b8ff" d="M291.52,-164.74C294.49,-139.31 303.14,-65.08 307.26,-29.69"/>
<polygon fill="#63b8ff" stroke="#63b8ff" points="310.79,-29.64 308.47,-19.31 303.84,-28.83 310.79,-29.64"/>
</a>
</g>
</g>
<!-- Node10 -->
<g id="Node000010" class="node">
<title>Node10</title>
<g id="a_Node000010"><a xlink:title=" ">
<polygon fill="#e0e0e0" stroke="#999999" points="180,-129 111,-129 111,-110 180,-110 180,-129"/>
<text text-anchor="middle" x="145.5" y="-117" font-family="Helvetica,sans-Serif" font-size="10.00">type_traits</text>
</a>
</g>
</g>
<!-- Node2&#45;&gt;Node10 -->
<g id="edge9_Node000002_Node000010" class="edge">
<title>Node2&#45;&gt;Node10</title>
<g id="a_edge9_Node000002_Node000010"><a xlink:title=" ">
<path fill="none" stroke="#63b8ff" d="M267.2,-164.98C243.25,-156.23 205.72,-142.51 178.67,-132.62"/>
<polygon fill="#63b8ff" stroke="#63b8ff" points="179.81,-129.32 169.22,-129.17 177.41,-135.89 179.81,-129.32"/>
</a>
</g>
</g>
<!-- Node4 -->
<g id="Node000004" class="node">
<title>Node4</title>
<g id="a_Node000004"><a xlink:title=" ">
<polygon fill="#e0e0e0" stroke="#999999" points="121.5,-74 63.5,-74 63.5,-55 121.5,-55 121.5,-74"/>
<text text-anchor="middle" x="92.5" y="-62" font-family="Helvetica,sans-Serif" font-size="10.00">memory</text>
</a>
</g>
</g>
<!-- Node3&#45;&gt;Node4 -->
<g id="edge3_Node000003_Node000004" class="edge">
<title>Node3&#45;&gt;Node4</title>
<g id="a_edge3_Node000003_Node000004"><a xlink:title=" ">
<path fill="none" stroke="#63b8ff" d="M63.28,-109.75C68.12,-102.42 75.18,-91.73 81.14,-82.7"/>
<polygon fill="#63b8ff" stroke="#63b8ff" points="84.24,-84.36 86.83,-74.09 78.4,-80.5 84.24,-84.36"/>
</a>
</g>
</g>
<!-- Node5 -->
<g id="Node000005" class="node">
<title>Node5</title>
<g id="a_Node000005"><a xlink:title=" ">
<polygon fill="#e0e0e0" stroke="#999999" points="45,-74 0,-74 0,-55 45,-55 45,-74"/>
<text text-anchor="middle" x="22.5" y="-62" font-family="Helvetica,sans-Serif" font-size="10.00">utility</text>
</a>
</g>
</g>
<!-- Node3&#45;&gt;Node5 -->
<g id="edge4_Node000003_Node000005" class="edge">
<title>Node3&#45;&gt;Node5</title>
<g id="a_edge4_Node000003_Node000005"><a xlink:title=" ">
<path fill="none" stroke="#63b8ff" d="M51.72,-109.75C46.88,-102.42 39.82,-91.73 33.86,-82.7"/>
<polygon fill="#63b8ff" stroke="#63b8ff" points="36.6,-80.5 28.17,-74.09 30.76,-84.36 36.6,-80.5"/>
</a>
</g>
</g>
<!-- Node7 -->
<g id="Node000007" class="node">
<title>Node7</title>
<g id="a_Node000007"><a xlink:title=" ">
<polygon fill="#e0e0e0" stroke="#999999" points="432,-19 369,-19 369,0 432,0 432,-19"/>
<text text-anchor="middle" x="400.5" y="-7" font-family="Helvetica,sans-Serif" font-size="10.00">Arduino.h</text>
</a>
</g>
</g>
<!-- Node6&#45;&gt;Node7 -->
<g id="edge6_Node000006_Node000007" class="edge">
<title>Node6&#45;&gt;Node7</title>
<g id="a_edge6_Node000006_Node000007"><a xlink:title=" ">
<path fill="none" stroke="#63b8ff" d="M351.84,-109.66C360.54,-91.93 380.27,-51.73 391.76,-28.32"/>
<polygon fill="#63b8ff" stroke="#63b8ff" points="394.99,-29.68 396.25,-19.16 388.7,-26.59 394.99,-29.68"/>
</a>
</g>
</g>
<!-- Node11&#45;&gt;Node7 -->
<g id="edge11_Node000011_Node000007" class="edge">
<title>Node11&#45;&gt;Node7</title>
<g id="a_edge11_Node000011_Node000007"><a xlink:title=" ">
<path fill="none" stroke="#63b8ff" d="M468.49,-54.98C456.04,-46.84 437.04,-34.41 422.29,-24.76"/>
<polygon fill="#63b8ff" stroke="#63b8ff" points="424.04,-21.72 413.75,-19.17 420.2,-27.57 424.04,-21.72"/>
</a>
</g>
</g>
<!-- Node11&#45;&gt;Node9 -->
<g id="edge12_Node000011_Node000009" class="edge">
<title>Node11&#45;&gt;Node9</title>
<g id="a_edge12_Node000011_Node000009"><a xlink:title=" ">
<path fill="none" stroke="#63b8ff" d="M453.87,-54.98C424.99,-46.09 379.49,-32.07 347.3,-22.15"/>
<polygon fill="#63b8ff" stroke="#63b8ff" points="347.94,-18.68 337.35,-19.08 345.88,-25.37 347.94,-18.68"/>
</a>
</g>
</g>
<!-- Node12&#45;&gt;Node11 -->
<g id="edge14_Node000012_Node000011" class="edge">
<title>Node12&#45;&gt;Node11</title>
<g id="a_edge14_Node000012_Node000011"><a xlink:title=" ">
<path fill="none" stroke="#63b8ff" d="M511.56,-109.75C506.52,-102.34 499.16,-91.5 492.99,-82.41"/>
<polygon fill="#63b8ff" stroke="#63b8ff" points="495.85,-80.39 487.33,-74.09 490.06,-84.33 495.85,-80.39"/>
</a>
</g>
</g>
<!-- Node13&#45;&gt;Node2 -->
<g id="edge16_Node000013_Node000002" class="edge">
<title>Node13&#45;&gt;Node2</title>
<g id="a_edge16_Node000013_Node000002"><a xlink:title=" ">
<path fill="none" stroke="#63b8ff" d="M410.52,-219.98C387,-211.27 350.21,-197.63 323.56,-187.75"/>
<polygon fill="#63b8ff" stroke="#63b8ff" points="324.49,-184.36 313.89,-184.17 322.05,-190.93 324.49,-184.36"/>
</a>
</g>
</g>
<!-- Node13&#45;&gt;Node12 -->
<g id="edge17_Node000013_Node000012" class="edge">
<title>Node13&#45;&gt;Node12</title>
<g id="a_edge17_Node000013_Node000012"><a xlink:title=" ">
<path fill="none" stroke="#63b8ff" d="M440.37,-219.66C454.41,-201.61 486.56,-160.28 504.61,-137.08"/>
<polygon fill="#63b8ff" stroke="#63b8ff" points="507.39,-139.2 510.77,-129.16 501.86,-134.9 507.39,-139.2"/>
</a>
</g>
</g>
<!-- Node14 -->
<g id="Node000014" class="node">
<title>Node14</title>
<g id="a_Node000014"><a xlink:href="_event_entity_8h.html" target="_top" xlink:title=" ">
<polygon fill="white" stroke="#666666" points="457.5,-184 377.5,-184 377.5,-165 457.5,-165 457.5,-184"/>
<text text-anchor="middle" x="417.5" y="-172" font-family="Helvetica,sans-Serif" font-size="10.00">EventEntity.h</text>
</a>
</g>
</g>
<!-- Node13&#45;&gt;Node14 -->
<g id="edge18_Node000013_Node000014" class="edge">
<title>Node13&#45;&gt;Node14</title>
<g id="a_edge18_Node000013_Node000014"><a xlink:title=" ">
<path fill="none" stroke="#63b8ff" d="M430.86,-219.75C428.74,-212.72 425.69,-202.62 423.04,-193.84"/>
<polygon fill="#63b8ff" stroke="#63b8ff" points="426.33,-192.65 420.09,-184.09 419.63,-194.67 426.33,-192.65"/>
</a>
</g>
</g>
<!-- Node14&#45;&gt;Node6 -->
<g id="edge20_Node000014_Node000006" class="edge">
<title>Node14&#45;&gt;Node6</title>
<g id="a_edge20_Node000014_Node000006"><a xlink:title=" ">
<path fill="none" stroke="#63b8ff" d="M406.25,-164.98C395.7,-157 379.7,-144.88 367.06,-135.31"/>
<polygon fill="#63b8ff" stroke="#63b8ff" points="369.04,-132.42 358.95,-129.17 364.81,-138 369.04,-132.42"/>
</a>
</g>
</g>
<!-- Node14&#45;&gt;Node12 -->
<g id="edge19_Node000014_Node000012" class="edge">
<title>Node14&#45;&gt;Node12</title>
<g id="a_edge19_Node000014_Node000012"><a xlink:title=" ">
<path fill="none" stroke="#63b8ff" d="M433.57,-164.98C449.36,-156.61 473.72,-143.7 492.13,-133.95"/>
<polygon fill="#63b8ff" stroke="#63b8ff" points="493.94,-136.95 501.14,-129.17 490.67,-130.76 493.94,-136.95"/>
</a>
</g>
</g>
<!-- Node15 -->
<g id="Node000015" class="node">
<title>Node15</title>
<g id="a_Node000015"><a xlink:href="_type_id_8h.html" target="_top" xlink:title=" ">
<polygon fill="white" stroke="#666666" points="452,-129 395,-129 395,-110 452,-110 452,-129"/>
<text text-anchor="middle" x="423.5" y="-117" font-family="Helvetica,sans-Serif" font-size="10.00">TypeId.h</text>
</a>
</g>
</g>
<!-- Node14&#45;&gt;Node15 -->
<g id="edge21_Node000014_Node000015" class="edge">
<title>Node14&#45;&gt;Node15</title>
<g id="a_edge21_Node000014_Node000015"><a xlink:title=" ">
<path fill="none" stroke="#63b8ff" d="M418.49,-164.75C419.28,-157.8 420.4,-147.85 421.39,-139.13"/>
<polygon fill="#63b8ff" stroke="#63b8ff" points="424.88,-139.42 422.53,-129.09 417.92,-138.63 424.88,-139.42"/>
</a>
</g>
</g>
</g>
</svg>
