<?xml version="1.0" encoding="UTF-8" standalone="no"?>
<!DOCTYPE svg PUBLIC "-//W3C//DTD SVG 1.1//EN"
 "http://www.w3.org/Graphics/SVG/1.1/DTD/svg11.dtd">
<!-- Generated by graphviz version 2.43.0 (0)
 -->
<!-- Title: EventEntity.cpp Pages: 1 -->
<svg width="883pt" height="357pt"
 viewBox="0.00 0.00 882.60 357.00" xmlns="http://www.w3.org/2000/svg" xmlns:xlink="http://www.w3.org/1999/xlink">
<g id="graph0" class="graph" transform="scale(1 1) rotate(0) translate(4 353)">
<title>EventEntity.cpp</title>
<!-- Node1 -->
<g id="Node000001" class="node">
<title>Node1</title>
<g id="a_Node000001"><a xlink:title=" ">
<polygon fill="#999999" stroke="#666666" points="92,-349 0,-349 0,-330 92,-330 92,-349"/>
<text text-anchor="middle" x="46" y="-337" font-family="Helvetica,sans-Serif" font-size="10.00">EventEntity.cpp</text>
</a>
</g>
</g>
<!-- Node2 -->
<g id="Node000002" class="node">
<title>Node2</title>
<g id="a_Node000002"><a xlink:href="_event_entity_8h.html" target="_top" xlink:title=" ">
<polygon fill="white" stroke="#666666" points="392,-184 312,-184 312,-165 392,-165 392,-184"/>
<text text-anchor="middle" x="352" y="-172" font-family="Helvetica,sans-Serif" font-size="10.00">EventEntity.h</text>
</a>
</g>
</g>
<!-- Node1&#45;&gt;Node2 -->
<g id="edge1_Node000001_Node000002" class="edge">
<title>Node1&#45;&gt;Node2</title>
<g id="a_edge1_Node000001_Node000002"><a xlink:title=" ">
<path fill="none" stroke="#63b8ff" d="M44.36,-329.85C40.75,-307.99 34.72,-250.12 65,-220 97.45,-187.72 228.24,-178.84 301.56,-176.41"/>
<polygon fill="#63b8ff" stroke="#63b8ff" points="302.05,-179.9 311.94,-176.1 301.84,-172.9 302.05,-179.9"/>
</a>
</g>
</g>
<!-- Node5 -->
<g id="Node000005" class="node">
<title>Node5</title>
<g id="a_Node000005"><a xlink:title=" ">
<polygon fill="#e0e0e0" stroke="#999999" points="460.5,-19 397.5,-19 397.5,0 460.5,0 460.5,-19"/>
<text text-anchor="middle" x="429" y="-7" font-family="Helvetica,sans-Serif" font-size="10.00">Arduino.h</text>
</a>
</g>
</g>
<!-- Node1&#45;&gt;Node5 -->
<g id="edge9_Node000001_Node000005" class="edge">
<title>Node1&#45;&gt;Node5</title>
<g id="a_edge9_Node000001_Node000005"><a xlink:title=" ">
<path fill="none" stroke="#63b8ff" d="M40.72,-329.9C30.27,-312.07 8,-269.46 8,-230.5 8,-230.5 8,-230.5 8,-118.5 8,-40.73 280.97,-18.18 387.3,-12.34"/>
<polygon fill="#63b8ff" stroke="#63b8ff" points="387.55,-15.84 397.36,-11.82 387.19,-8.85 387.55,-15.84"/>
</a>
</g>
</g>
<!-- Node9 -->
<g id="Node000009" class="node">
<title>Node9</title>
<g id="a_Node000009"><a xlink:href="_event_bus_8h.html" target="_top" xlink:title=" ">
<polygon fill="white" stroke="#666666" points="269.5,-294 198.5,-294 198.5,-275 269.5,-275 269.5,-294"/>
<text text-anchor="middle" x="234" y="-282" font-family="Helvetica,sans-Serif" font-size="10.00">EventBus.h</text>
</a>
</g>
</g>
<!-- Node1&#45;&gt;Node9 -->
<g id="edge10_Node000001_Node000009" class="edge">
<title>Node1&#45;&gt;Node9</title>
<g id="a_edge10_Node000001_Node000009"><a xlink:title=" ">
<path fill="none" stroke="#63b8ff" d="M76.21,-329.98C108.04,-321.01 158.36,-306.82 193.6,-296.89"/>
<polygon fill="#63b8ff" stroke="#63b8ff" points="194.88,-300.16 203.56,-294.08 192.98,-293.43 194.88,-300.16"/>
</a>
</g>
</g>
<!-- Node3 -->
<g id="Node000003" class="node">
<title>Node3</title>
<g id="a_Node000003"><a xlink:href="_iterable_queue_8h.html" target="_top" xlink:title=" ">
<polygon fill="white" stroke="#666666" points="521.5,-129 426.5,-129 426.5,-110 521.5,-110 521.5,-129"/>
<text text-anchor="middle" x="474" y="-117" font-family="Helvetica,sans-Serif" font-size="10.00">IterableQueue.h</text>
</a>
</g>
</g>
<!-- Node2&#45;&gt;Node3 -->
<g id="edge2_Node000002_Node000003" class="edge">
<title>Node2&#45;&gt;Node3</title>
<g id="a_edge2_Node000002_Node000003"><a xlink:title=" ">
<path fill="none" stroke="#63b8ff" d="M371.6,-164.98C391.32,-156.42 421.95,-143.11 444.58,-133.28"/>
<polygon fill="#63b8ff" stroke="#63b8ff" points="446.26,-136.37 454.04,-129.17 443.48,-129.94 446.26,-136.37"/>
</a>
</g>
</g>
<!-- Node7 -->
<g id="Node000007" class="node">
<title>Node7</title>
<g id="a_Node000007"><a xlink:href="_logger_8h.html" target="_top" xlink:title=" ">
<polygon fill="white" stroke="#666666" points="598,-129 540,-129 540,-110 598,-110 598,-129"/>
<text text-anchor="middle" x="569" y="-117" font-family="Helvetica,sans-Serif" font-size="10.00">Logger.h</text>
</a>
</g>
</g>
<!-- Node2&#45;&gt;Node7 -->
<g id="edge6_Node000002_Node000007" class="edge">
<title>Node2&#45;&gt;Node7</title>
<g id="a_edge6_Node000002_Node000007"><a xlink:title=" ">
<path fill="none" stroke="#63b8ff" d="M386.86,-164.98C425.96,-155.44 489.21,-139.99 529.95,-130.04"/>
<polygon fill="#63b8ff" stroke="#63b8ff" points="530.9,-133.41 539.79,-127.63 529.24,-126.61 530.9,-133.41"/>
</a>
</g>
</g>
<!-- Node8 -->
<g id="Node000008" class="node">
<title>Node8</title>
<g id="a_Node000008"><a xlink:href="_type_id_8h.html" target="_top" xlink:title=" ">
<polygon fill="white" stroke="#666666" points="369.5,-129 312.5,-129 312.5,-110 369.5,-110 369.5,-129"/>
<text text-anchor="middle" x="341" y="-117" font-family="Helvetica,sans-Serif" font-size="10.00">TypeId.h</text>
</a>
</g>
</g>
<!-- Node2&#45;&gt;Node8 -->
<g id="edge8_Node000002_Node000008" class="edge">
<title>Node2&#45;&gt;Node8</title>
<g id="a_edge8_Node000002_Node000008"><a xlink:title=" ">
<path fill="none" stroke="#63b8ff" d="M350.18,-164.75C348.74,-157.8 346.68,-147.85 344.87,-139.13"/>
<polygon fill="#63b8ff" stroke="#63b8ff" points="348.24,-138.17 342.78,-129.09 341.39,-139.59 348.24,-138.17"/>
</a>
</g>
</g>
<!-- Node4 -->
<g id="Node000004" class="node">
<title>Node4</title>
<g id="a_Node000004"><a xlink:href="_clear_queue_8h.html" target="_top" xlink:title=" ">
<polygon fill="white" stroke="#666666" points="470.5,-74 387.5,-74 387.5,-55 470.5,-55 470.5,-74"/>
<text text-anchor="middle" x="429" y="-62" font-family="Helvetica,sans-Serif" font-size="10.00">ClearQueue.h</text>
</a>
</g>
</g>
<!-- Node3&#45;&gt;Node4 -->
<g id="edge3_Node000003_Node000004" class="edge">
<title>Node3&#45;&gt;Node4</title>
<g id="a_edge3_Node000003_Node000004"><a xlink:title=" ">
<path fill="none" stroke="#63b8ff" d="M466.57,-109.75C460.15,-102.18 450.69,-91.05 442.88,-81.84"/>
<polygon fill="#63b8ff" stroke="#63b8ff" points="445.43,-79.45 436.29,-74.09 440.1,-83.98 445.43,-79.45"/>
</a>
</g>
</g>
<!-- Node4&#45;&gt;Node5 -->
<g id="edge4_Node000004_Node000005" class="edge">
<title>Node4&#45;&gt;Node5</title>
<g id="a_edge4_Node000004_Node000005"><a xlink:title=" ">
<path fill="none" stroke="#63b8ff" d="M429,-54.75C429,-47.8 429,-37.85 429,-29.13"/>
<polygon fill="#63b8ff" stroke="#63b8ff" points="432.5,-29.09 429,-19.09 425.5,-29.09 432.5,-29.09"/>
</a>
</g>
</g>
<!-- Node6 -->
<g id="Node000006" class="node">
<title>Node6</title>
<g id="a_Node000006"><a xlink:title=" ">
<polygon fill="#e0e0e0" stroke="#999999" points="745.5,-19 680.5,-19 680.5,0 745.5,0 745.5,-19"/>
<text text-anchor="middle" x="713" y="-7" font-family="Helvetica,sans-Serif" font-size="10.00">functional</text>
</a>
</g>
</g>
<!-- Node4&#45;&gt;Node6 -->
<g id="edge5_Node000004_Node000006" class="edge">
<title>Node4&#45;&gt;Node6</title>
<g id="a_edge5_Node000004_Node000006"><a xlink:title=" ">
<path fill="none" stroke="#63b8ff" d="M470.6,-55.74C524.01,-45.77 616.22,-28.56 670.2,-18.49"/>
<polygon fill="#63b8ff" stroke="#63b8ff" points="670.95,-21.91 680.14,-16.63 669.67,-15.03 670.95,-21.91"/>
</a>
</g>
</g>
<!-- Node7&#45;&gt;Node5 -->
<g id="edge7_Node000007_Node000005" class="edge">
<title>Node7&#45;&gt;Node5</title>
<g id="a_edge7_Node000007_Node000005"><a xlink:title=" ">
<path fill="none" stroke="#63b8ff" d="M557.54,-109.66C533.53,-91.14 477.71,-48.08 448.15,-25.28"/>
<polygon fill="#63b8ff" stroke="#63b8ff" points="450.28,-22.5 440.22,-19.16 446,-28.04 450.28,-22.5"/>
</a>
</g>
</g>
<!-- Node9&#45;&gt;Node4 -->
<g id="edge19_Node000009_Node000004" class="edge">
<title>Node9&#45;&gt;Node4</title>
<g id="a_edge19_Node000009_Node000004"><a xlink:title=" ">
<path fill="none" stroke="#63b8ff" d="M265.42,-274.97C283.34,-268.32 304.3,-257.09 315,-239 319.3,-231.73 316.35,-228.34 315,-220 312.3,-203.35 305.7,-200.65 303,-184 297.73,-151.54 284.01,-136.85 303,-110 319.81,-86.24 350.41,-75.08 377.24,-69.88"/>
<polygon fill="#63b8ff" stroke="#63b8ff" points="378.04,-73.29 387.31,-68.16 376.86,-66.39 378.04,-73.29"/>
</a>
</g>
</g>
<!-- Node10 -->
<g id="Node000010" class="node">
<title>Node10</title>
<g id="a_Node000010"><a xlink:href="_bytes_8h.html" target="_top" xlink:title=" ">
<polygon fill="white" stroke="#666666" points="677.5,-184 624.5,-184 624.5,-165 677.5,-165 677.5,-184"/>
<text text-anchor="middle" x="651" y="-172" font-family="Helvetica,sans-Serif" font-size="10.00">Bytes.h</text>
</a>
</g>
</g>
<!-- Node9&#45;&gt;Node10 -->
<g id="edge11_Node000009_Node000010" class="edge">
<title>Node9&#45;&gt;Node10</title>
<g id="a_edge11_Node000009_Node000010"><a xlink:title=" ">
<path fill="none" stroke="#63b8ff" d="M269.84,-283.87C331.03,-283.36 458.66,-277.28 558,-239 587.16,-227.76 616.16,-205.8 633.84,-190.89"/>
<polygon fill="#63b8ff" stroke="#63b8ff" points="636.28,-193.4 641.55,-184.21 631.7,-188.11 636.28,-193.4"/>
</a>
</g>
</g>
<!-- Node16 -->
<g id="Node000016" class="node">
<title>Node16</title>
<g id="a_Node000016"><a xlink:href="_data_channels_8h.html" target="_top" xlink:title=" ">
<polygon fill="white" stroke="#666666" points="549,-239 455,-239 455,-220 549,-220 549,-239"/>
<text text-anchor="middle" x="502" y="-227" font-family="Helvetica,sans-Serif" font-size="10.00">DataChannels.h</text>
</a>
</g>
</g>
<!-- Node9&#45;&gt;Node16 -->
<g id="edge20_Node000009_Node000016" class="edge">
<title>Node9&#45;&gt;Node16</title>
<g id="a_edge20_Node000009_Node000016"><a xlink:title=" ">
<path fill="none" stroke="#63b8ff" d="M269.59,-276.46C315.47,-267.39 395.66,-251.53 448.79,-241.02"/>
<polygon fill="#63b8ff" stroke="#63b8ff" points="449.58,-244.43 458.71,-239.06 448.23,-237.57 449.58,-244.43"/>
</a>
</g>
</g>
<!-- Node19 -->
<g id="Node000019" class="node">
<title>Node19</title>
<g id="a_Node000019"><a xlink:href="_i_executor_8h.html" target="_top" xlink:title=" ">
<polygon fill="white" stroke="#666666" points="144,-239 74,-239 74,-220 144,-220 144,-239"/>
<text text-anchor="middle" x="109" y="-227" font-family="Helvetica,sans-Serif" font-size="10.00">IExecutor.h</text>
</a>
</g>
</g>
<!-- Node9&#45;&gt;Node19 -->
<g id="edge27_Node000009_Node000019" class="edge">
<title>Node9&#45;&gt;Node19</title>
<g id="a_edge27_Node000009_Node000019"><a xlink:title=" ">
<path fill="none" stroke="#63b8ff" d="M213.92,-274.98C193.63,-266.38 162.04,-252.99 138.83,-243.15"/>
<polygon fill="#63b8ff" stroke="#63b8ff" points="140.02,-239.85 129.45,-239.17 137.29,-246.3 140.02,-239.85"/>
</a>
</g>
</g>
<!-- Node20 -->
<g id="Node000020" class="node">
<title>Node20</title>
<g id="a_Node000020"><a xlink:href="_i_event_bus_connection_kit_8h.html" target="_top" xlink:title="Defines the interface for components that can connect to an EventBus.">
<polygon fill="white" stroke="#666666" points="305.5,-239 162.5,-239 162.5,-220 305.5,-220 305.5,-239"/>
<text text-anchor="middle" x="234" y="-227" font-family="Helvetica,sans-Serif" font-size="10.00">IEventBusConnectionKit.h</text>
</a>
</g>
</g>
<!-- Node9&#45;&gt;Node20 -->
<g id="edge28_Node000009_Node000020" class="edge">
<title>Node9&#45;&gt;Node20</title>
<g id="a_edge28_Node000009_Node000020"><a xlink:title=" ">
<path fill="none" stroke="#63b8ff" d="M228.83,-274.75C227.34,-267.8 226.9,-257.85 227.52,-249.13"/>
<polygon fill="#63b8ff" stroke="#63b8ff" points="231.01,-249.47 228.87,-239.09 224.07,-248.53 231.01,-249.47"/>
</a>
</g>
</g>
<!-- Node10&#45;&gt;Node6 -->
<g id="edge17_Node000010_Node000006" class="edge">
<title>Node10&#45;&gt;Node6</title>
<g id="a_edge17_Node000010_Node000006"><a xlink:title=" ">
<path fill="none" stroke="#63b8ff" d="M677.68,-172.01C729.71,-168.5 841.65,-157.7 865,-129 903.64,-81.5 809.35,-41.35 752.45,-22.32"/>
<polygon fill="#63b8ff" stroke="#63b8ff" points="753.23,-18.89 742.64,-19.12 751.06,-25.55 753.23,-18.89"/>
</a>
</g>
</g>
<!-- Node10&#45;&gt;Node7 -->
<g id="edge15_Node000010_Node000007" class="edge">
<title>Node10&#45;&gt;Node7</title>
<g id="a_edge15_Node000010_Node000007"><a xlink:title=" ">
<path fill="none" stroke="#63b8ff" d="M637.83,-164.98C625.23,-156.84 606,-144.41 591.06,-134.76"/>
<polygon fill="#63b8ff" stroke="#63b8ff" points="592.71,-131.66 582.41,-129.17 588.91,-137.54 592.71,-131.66"/>
</a>
</g>
</g>
<!-- Node11 -->
<g id="Node000011" class="node">
<title>Node11</title>
<g id="a_Node000011"><a xlink:href="_common_8h.html" target="_top" xlink:title=" ">
<polygon fill="white" stroke="#666666" points="686,-129 616,-129 616,-110 686,-110 686,-129"/>
<text text-anchor="middle" x="651" y="-117" font-family="Helvetica,sans-Serif" font-size="10.00">Common.h</text>
</a>
</g>
</g>
<!-- Node10&#45;&gt;Node11 -->
<g id="edge12_Node000010_Node000011" class="edge">
<title>Node10&#45;&gt;Node11</title>
<g id="a_edge12_Node000010_Node000011"><a xlink:title=" ">
<path fill="none" stroke="#63b8ff" d="M651,-164.75C651,-157.8 651,-147.85 651,-139.13"/>
<polygon fill="#63b8ff" stroke="#63b8ff" points="654.5,-139.09 651,-129.09 647.5,-139.09 654.5,-139.09"/>
</a>
</g>
</g>
<!-- Node14 -->
<g id="Node000014" class="node">
<title>Node14</title>
<g id="a_Node000014"><a xlink:title=" ">
<polygon fill="#e0e0e0" stroke="#999999" points="768,-129 704,-129 704,-110 768,-110 768,-129"/>
<text text-anchor="middle" x="736" y="-117" font-family="Helvetica,sans-Serif" font-size="10.00">WString.h</text>
</a>
</g>
</g>
<!-- Node10&#45;&gt;Node14 -->
<g id="edge16_Node000010_Node000014" class="edge">
<title>Node10&#45;&gt;Node14</title>
<g id="a_edge16_Node000010_Node000014"><a xlink:title=" ">
<path fill="none" stroke="#63b8ff" d="M664.66,-164.98C677.84,-156.77 698.03,-144.18 713.57,-134.49"/>
<polygon fill="#63b8ff" stroke="#63b8ff" points="715.46,-137.43 722.09,-129.17 711.76,-131.49 715.46,-137.43"/>
</a>
</g>
</g>
<!-- Node15 -->
<g id="Node000015" class="node">
<title>Node15</title>
<g id="a_Node000015"><a xlink:title=" ">
<polygon fill="#e0e0e0" stroke="#999999" points="855.5,-129 786.5,-129 786.5,-110 855.5,-110 855.5,-129"/>
<text text-anchor="middle" x="821" y="-117" font-family="Helvetica,sans-Serif" font-size="10.00">type_traits</text>
</a>
</g>
</g>
<!-- Node10&#45;&gt;Node15 -->
<g id="edge18_Node000010_Node000015" class="edge">
<title>Node10&#45;&gt;Node15</title>
<g id="a_edge18_Node000010_Node000015"><a xlink:title=" ">
<path fill="none" stroke="#63b8ff" d="M677.56,-165.22C706.04,-156.34 751.49,-142.17 783.59,-132.16"/>
<polygon fill="#63b8ff" stroke="#63b8ff" points="784.99,-135.39 793.5,-129.07 782.91,-128.71 784.99,-135.39"/>
</a>
</g>
</g>
<!-- Node12 -->
<g id="Node000012" class="node">
<title>Node12</title>
<g id="a_Node000012"><a xlink:title=" ">
<polygon fill="#e0e0e0" stroke="#999999" points="645,-74 587,-74 587,-55 645,-55 645,-74"/>
<text text-anchor="middle" x="616" y="-62" font-family="Helvetica,sans-Serif" font-size="10.00">memory</text>
</a>
</g>
</g>
<!-- Node11&#45;&gt;Node12 -->
<g id="edge13_Node000011_Node000012" class="edge">
<title>Node11&#45;&gt;Node12</title>
<g id="a_edge13_Node000011_Node000012"><a xlink:title=" ">
<path fill="none" stroke="#63b8ff" d="M645.22,-109.75C640.38,-102.42 633.32,-91.73 627.36,-82.7"/>
<polygon fill="#63b8ff" stroke="#63b8ff" points="630.1,-80.5 621.67,-74.09 624.26,-84.36 630.1,-80.5"/>
</a>
</g>
</g>
<!-- Node13 -->
<g id="Node000013" class="node">
<title>Node13</title>
<g id="a_Node000013"><a xlink:title=" ">
<polygon fill="#e0e0e0" stroke="#999999" points="708.5,-74 663.5,-74 663.5,-55 708.5,-55 708.5,-74"/>
<text text-anchor="middle" x="686" y="-62" font-family="Helvetica,sans-Serif" font-size="10.00">utility</text>
</a>
</g>
</g>
<!-- Node11&#45;&gt;Node13 -->
<g id="edge14_Node000011_Node000013" class="edge">
<title>Node11&#45;&gt;Node13</title>
<g id="a_edge14_Node000011_Node000013"><a xlink:title=" ">
<path fill="none" stroke="#63b8ff" d="M656.78,-109.75C661.62,-102.42 668.68,-91.73 674.64,-82.7"/>
<polygon fill="#63b8ff" stroke="#63b8ff" points="677.74,-84.36 680.33,-74.09 671.9,-80.5 677.74,-84.36"/>
</a>
</g>
</g>
<!-- Node16&#45;&gt;Node10 -->
<g id="edge21_Node000016_Node000010" class="edge">
<title>Node16&#45;&gt;Node10</title>
<g id="a_edge21_Node000016_Node000010"><a xlink:title=" ">
<path fill="none" stroke="#63b8ff" d="M525.94,-219.98C550.56,-211.23 589.12,-197.51 616.92,-187.62"/>
<polygon fill="#63b8ff" stroke="#63b8ff" points="618.38,-190.82 626.62,-184.17 616.03,-184.22 618.38,-190.82"/>
</a>
</g>
</g>
<!-- Node17 -->
<g id="Node000017" class="node">
<title>Node17</title>
<g id="a_Node000017"><a xlink:href="_limited_queue_8h.html" target="_top" xlink:title=" ">
<polygon fill="white" stroke="#666666" points="504,-184 410,-184 410,-165 504,-165 504,-184"/>
<text text-anchor="middle" x="457" y="-172" font-family="Helvetica,sans-Serif" font-size="10.00">LimitedQueue.h</text>
</a>
</g>
</g>
<!-- Node16&#45;&gt;Node17 -->
<g id="edge22_Node000016_Node000017" class="edge">
<title>Node16&#45;&gt;Node17</title>
<g id="a_edge22_Node000016_Node000017"><a xlink:title=" ">
<path fill="none" stroke="#63b8ff" d="M494.57,-219.75C488.15,-212.18 478.69,-201.05 470.88,-191.84"/>
<polygon fill="#63b8ff" stroke="#63b8ff" points="473.43,-189.45 464.29,-184.09 468.1,-193.98 473.43,-189.45"/>
</a>
</g>
</g>
<!-- Node18 -->
<g id="Node000018" class="node">
<title>Node18</title>
<g id="a_Node000018"><a xlink:href="_map_8h.html" target="_top" xlink:title=" ">
<polygon fill="white" stroke="#666666" points="569.5,-184 522.5,-184 522.5,-165 569.5,-165 569.5,-184"/>
<text text-anchor="middle" x="546" y="-172" font-family="Helvetica,sans-Serif" font-size="10.00">Map.h</text>
</a>
</g>
</g>
<!-- Node16&#45;&gt;Node18 -->
<g id="edge24_Node000016_Node000018" class="edge">
<title>Node16&#45;&gt;Node18</title>
<g id="a_edge24_Node000016_Node000018"><a xlink:title=" ">
<path fill="none" stroke="#63b8ff" d="M509.27,-219.75C515.54,-212.18 524.79,-201.05 532.43,-191.84"/>
<polygon fill="#63b8ff" stroke="#63b8ff" points="535.17,-194.02 538.87,-184.09 529.79,-189.55 535.17,-194.02"/>
</a>
</g>
</g>
<!-- Node17&#45;&gt;Node4 -->
<g id="edge23_Node000017_Node000004" class="edge">
<title>Node17&#45;&gt;Node4</title>
<g id="a_edge23_Node000017_Node000004"><a xlink:title=" ">
<path fill="none" stroke="#63b8ff" d="M446.01,-164.99C436.55,-156.9 423.57,-143.81 418,-129 412.52,-114.44 416.24,-96.96 420.78,-84.03"/>
<polygon fill="#63b8ff" stroke="#63b8ff" points="424.17,-84.99 424.61,-74.4 417.66,-82.4 424.17,-84.99"/>
</a>
</g>
</g>
<!-- Node18&#45;&gt;Node3 -->
<g id="edge26_Node000018_Node000003" class="edge">
<title>Node18&#45;&gt;Node3</title>
<g id="a_edge26_Node000018_Node000003"><a xlink:title=" ">
<path fill="none" stroke="#63b8ff" d="M534.43,-164.98C523.58,-157 507.12,-144.88 494.12,-135.31"/>
<polygon fill="#63b8ff" stroke="#63b8ff" points="495.91,-132.28 485.78,-129.17 491.76,-137.92 495.91,-132.28"/>
</a>
</g>
</g>
<!-- Node18&#45;&gt;Node11 -->
<g id="edge25_Node000018_Node000011" class="edge">
<title>Node18&#45;&gt;Node11</title>
<g id="a_edge25_Node000018_Node000011"><a xlink:title=" ">
<path fill="none" stroke="#63b8ff" d="M562.87,-164.98C579.61,-156.54 605.5,-143.47 624.89,-133.68"/>
<polygon fill="#63b8ff" stroke="#63b8ff" points="626.47,-136.8 633.82,-129.17 623.32,-130.55 626.47,-136.8"/>
</a>
</g>
</g>
<!-- Node20&#45;&gt;Node9 -->
<g id="edge29_Node000020_Node000009" class="edge">
<title>Node20&#45;&gt;Node9</title>
<g id="a_edge29_Node000020_Node000009"><a xlink:title=" ">
<path fill="none" stroke="#63b8ff" d="M239.13,-239.09C240.64,-245.99 241.09,-255.93 240.49,-264.66"/>
<polygon fill="#63b8ff" stroke="#63b8ff" points="237,-264.38 239.17,-274.75 243.94,-265.29 237,-264.38"/>
</a>
</g>
</g>
</g>
</svg>
