<?xml version="1.0" encoding="UTF-8" standalone="no"?>
<!DOCTYPE svg PUBLIC "-//W3C//DTD SVG 1.1//EN"
 "http://www.w3.org/Graphics/SVG/1.1/DTD/svg11.dtd">
<!-- Generated by graphviz version 2.43.0 (0)
 -->
<!-- Title: EventBus.h Pages: 1 -->
<svg width="802pt" height="302pt"
 viewBox="0.00 0.00 801.50 302.00" xmlns="http://www.w3.org/2000/svg" xmlns:xlink="http://www.w3.org/1999/xlink">
<g id="graph0" class="graph" transform="scale(1 1) rotate(0) translate(4 298)">
<title>EventBus.h</title>
<!-- Node1 -->
<g id="Node000001" class="node">
<title>Node1</title>
<g id="a_Node000001"><a xlink:title=" ">
<polygon fill="#999999" stroke="#666666" points="600.5,-294 529.5,-294 529.5,-275 600.5,-275 600.5,-294"/>
<text text-anchor="middle" x="565" y="-282" font-family="Helvetica,sans-Serif" font-size="10.00">EventBus.h</text>
</a>
</g>
</g>
<!-- Node2 -->
<g id="Node000002" class="node">
<title>Node2</title>
<g id="a_Node000002"><a xlink:href="_bytes_8h.html" target="_top" xlink:title=" ">
<polygon fill="white" stroke="#666666" points="257.5,-184 204.5,-184 204.5,-165 257.5,-165 257.5,-184"/>
<text text-anchor="middle" x="231" y="-172" font-family="Helvetica,sans-Serif" font-size="10.00">Bytes.h</text>
</a>
</g>
</g>
<!-- Node1&#45;&gt;Node2 -->
<g id="edge1_Node000001_Node000002" class="edge">
<title>Node1&#45;&gt;Node2</title>
<g id="a_edge1_Node000001_Node000002"><a xlink:title=" ">
<path fill="none" stroke="#63b8ff" d="M529.28,-278.71C487.23,-272.42 415.69,-259.68 357,-239 319.47,-225.78 278.84,-203.77 254.15,-189.45"/>
<polygon fill="#63b8ff" stroke="#63b8ff" points="255.6,-186.24 245.21,-184.19 252.05,-192.27 255.6,-186.24"/>
</a>
</g>
</g>
<!-- Node11 -->
<g id="Node000011" class="node">
<title>Node11</title>
<g id="a_Node000011"><a xlink:href="_clear_queue_8h.html" target="_top" xlink:title=" ">
<polygon fill="white" stroke="#666666" points="442.5,-74 359.5,-74 359.5,-55 442.5,-55 442.5,-74"/>
<text text-anchor="middle" x="401" y="-62" font-family="Helvetica,sans-Serif" font-size="10.00">ClearQueue.h</text>
</a>
</g>
</g>
<!-- Node1&#45;&gt;Node11 -->
<g id="edge10_Node000001_Node000011" class="edge">
<title>Node1&#45;&gt;Node11</title>
<g id="a_edge10_Node000001_Node000011"><a xlink:title=" ">
<path fill="none" stroke="#63b8ff" d="M562.62,-274.84C553.06,-240.18 517.92,-113.2 515,-110 498.73,-92.17 474.45,-81.4 452.48,-74.94"/>
<polygon fill="#63b8ff" stroke="#63b8ff" points="453.15,-71.49 442.58,-72.26 451.32,-78.25 453.15,-71.49"/>
</a>
</g>
</g>
<!-- Node12 -->
<g id="Node000012" class="node">
<title>Node12</title>
<g id="a_Node000012"><a xlink:href="_data_channels_8h.html" target="_top" xlink:title=" ">
<polygon fill="white" stroke="#666666" points="460,-239 366,-239 366,-220 460,-220 460,-239"/>
<text text-anchor="middle" x="413" y="-227" font-family="Helvetica,sans-Serif" font-size="10.00">DataChannels.h</text>
</a>
</g>
</g>
<!-- Node1&#45;&gt;Node12 -->
<g id="edge13_Node000001_Node000012" class="edge">
<title>Node1&#45;&gt;Node12</title>
<g id="a_edge13_Node000001_Node000012"><a xlink:title=" ">
<path fill="none" stroke="#63b8ff" d="M540.58,-274.98C515.28,-266.16 475.55,-252.31 447.14,-242.41"/>
<polygon fill="#63b8ff" stroke="#63b8ff" points="448.21,-239.07 437.61,-239.08 445.9,-245.68 448.21,-239.07"/>
</a>
</g>
</g>
<!-- Node16 -->
<g id="Node000016" class="node">
<title>Node16</title>
<g id="a_Node000016"><a xlink:href="_i_executor_8h.html" target="_top" xlink:title=" ">
<polygon fill="white" stroke="#666666" points="632,-239 562,-239 562,-220 632,-220 632,-239"/>
<text text-anchor="middle" x="597" y="-227" font-family="Helvetica,sans-Serif" font-size="10.00">IExecutor.h</text>
</a>
</g>
</g>
<!-- Node1&#45;&gt;Node16 -->
<g id="edge21_Node000001_Node000016" class="edge">
<title>Node1&#45;&gt;Node16</title>
<g id="a_edge21_Node000001_Node000016"><a xlink:title=" ">
<path fill="none" stroke="#63b8ff" d="M570.28,-274.75C574.71,-267.42 581.16,-256.73 586.62,-247.7"/>
<polygon fill="#63b8ff" stroke="#63b8ff" points="589.64,-249.46 591.81,-239.09 583.65,-245.84 589.64,-249.46"/>
</a>
</g>
</g>
<!-- Node17 -->
<g id="Node000017" class="node">
<title>Node17</title>
<g id="a_Node000017"><a xlink:href="_i_event_bus_connection_kit_8h.html" target="_top" xlink:title="Defines the interface for components that can connect to an EventBus.">
<polygon fill="white" stroke="#666666" points="793.5,-239 650.5,-239 650.5,-220 793.5,-220 793.5,-239"/>
<text text-anchor="middle" x="722" y="-227" font-family="Helvetica,sans-Serif" font-size="10.00">IEventBusConnectionKit.h</text>
</a>
</g>
</g>
<!-- Node1&#45;&gt;Node17 -->
<g id="edge22_Node000001_Node000017" class="edge">
<title>Node1&#45;&gt;Node17</title>
<g id="a_edge22_Node000001_Node000017"><a xlink:title=" ">
<path fill="none" stroke="#63b8ff" d="M585.11,-274.98C609.51,-266.09 650.84,-252.07 681.8,-242.15"/>
<polygon fill="#63b8ff" stroke="#63b8ff" points="682.98,-245.44 691.45,-239.08 680.86,-238.77 682.98,-245.44"/>
</a>
</g>
</g>
<!-- Node3 -->
<g id="Node000003" class="node">
<title>Node3</title>
<g id="a_Node000003"><a xlink:href="_common_8h.html" target="_top" xlink:title=" ">
<polygon fill="white" stroke="#666666" points="354,-129 284,-129 284,-110 354,-110 354,-129"/>
<text text-anchor="middle" x="319" y="-117" font-family="Helvetica,sans-Serif" font-size="10.00">Common.h</text>
</a>
</g>
</g>
<!-- Node2&#45;&gt;Node3 -->
<g id="edge2_Node000002_Node000003" class="edge">
<title>Node2&#45;&gt;Node3</title>
<g id="a_edge2_Node000002_Node000003"><a xlink:title=" ">
<path fill="none" stroke="#63b8ff" d="M245.14,-164.98C258.79,-156.77 279.69,-144.18 295.78,-134.49"/>
<polygon fill="#63b8ff" stroke="#63b8ff" points="297.84,-137.33 304.6,-129.17 294.23,-131.33 297.84,-137.33"/>
</a>
</g>
</g>
<!-- Node6 -->
<g id="Node000006" class="node">
<title>Node6</title>
<g id="a_Node000006"><a xlink:href="_logger_8h.html" target="_top" xlink:title=" ">
<polygon fill="white" stroke="#666666" points="58,-74 0,-74 0,-55 58,-55 58,-74"/>
<text text-anchor="middle" x="29" y="-62" font-family="Helvetica,sans-Serif" font-size="10.00">Logger.h</text>
</a>
</g>
</g>
<!-- Node2&#45;&gt;Node6 -->
<g id="edge5_Node000002_Node000006" class="edge">
<title>Node2&#45;&gt;Node6</title>
<g id="a_edge5_Node000002_Node000006"><a xlink:title=" ">
<path fill="none" stroke="#63b8ff" d="M204.39,-171.64C170.7,-168.12 112.24,-157.98 72,-129 56,-117.48 44.13,-98.04 36.96,-83.7"/>
<polygon fill="#63b8ff" stroke="#63b8ff" points="39.98,-81.92 32.57,-74.35 33.65,-84.89 39.98,-81.92"/>
</a>
</g>
</g>
<!-- Node8 -->
<g id="Node000008" class="node">
<title>Node8</title>
<g id="a_Node000008"><a xlink:title=" ">
<polygon fill="#e0e0e0" stroke="#999999" points="178,-129 114,-129 114,-110 178,-110 178,-129"/>
<text text-anchor="middle" x="146" y="-117" font-family="Helvetica,sans-Serif" font-size="10.00">WString.h</text>
</a>
</g>
</g>
<!-- Node2&#45;&gt;Node8 -->
<g id="edge7_Node000002_Node000008" class="edge">
<title>Node2&#45;&gt;Node8</title>
<g id="a_edge7_Node000002_Node000008"><a xlink:title=" ">
<path fill="none" stroke="#63b8ff" d="M217.34,-164.98C204.16,-156.77 183.97,-144.18 168.43,-134.49"/>
<polygon fill="#63b8ff" stroke="#63b8ff" points="170.24,-131.49 159.91,-129.17 166.54,-137.43 170.24,-131.49"/>
</a>
</g>
</g>
<!-- Node9 -->
<g id="Node000009" class="node">
<title>Node9</title>
<g id="a_Node000009"><a xlink:title=" ">
<polygon fill="#e0e0e0" stroke="#999999" points="360.5,-19 295.5,-19 295.5,0 360.5,0 360.5,-19"/>
<text text-anchor="middle" x="328" y="-7" font-family="Helvetica,sans-Serif" font-size="10.00">functional</text>
</a>
</g>
</g>
<!-- Node2&#45;&gt;Node9 -->
<g id="edge8_Node000002_Node000009" class="edge">
<title>Node2&#45;&gt;Node9</title>
<g id="a_edge8_Node000002_Node000009"><a xlink:title=" ">
<path fill="none" stroke="#63b8ff" d="M204.34,-170.81C160.67,-165.24 81.02,-149.46 105,-110 143.19,-47.17 231.99,-23.8 285.29,-15.27"/>
<polygon fill="#63b8ff" stroke="#63b8ff" points="286.08,-18.69 295.45,-13.75 285.05,-11.76 286.08,-18.69"/>
</a>
</g>
</g>
<!-- Node10 -->
<g id="Node000010" class="node">
<title>Node10</title>
<g id="a_Node000010"><a xlink:title=" ">
<polygon fill="#e0e0e0" stroke="#999999" points="265.5,-129 196.5,-129 196.5,-110 265.5,-110 265.5,-129"/>
<text text-anchor="middle" x="231" y="-117" font-family="Helvetica,sans-Serif" font-size="10.00">type_traits</text>
</a>
</g>
</g>
<!-- Node2&#45;&gt;Node10 -->
<g id="edge9_Node000002_Node000010" class="edge">
<title>Node2&#45;&gt;Node10</title>
<g id="a_edge9_Node000002_Node000010"><a xlink:title=" ">
<path fill="none" stroke="#63b8ff" d="M231,-164.75C231,-157.8 231,-147.85 231,-139.13"/>
<polygon fill="#63b8ff" stroke="#63b8ff" points="234.5,-139.09 231,-129.09 227.5,-139.09 234.5,-139.09"/>
</a>
</g>
</g>
<!-- Node4 -->
<g id="Node000004" class="node">
<title>Node4</title>
<g id="a_Node000004"><a xlink:title=" ">
<polygon fill="#e0e0e0" stroke="#999999" points="278,-74 220,-74 220,-55 278,-55 278,-74"/>
<text text-anchor="middle" x="249" y="-62" font-family="Helvetica,sans-Serif" font-size="10.00">memory</text>
</a>
</g>
</g>
<!-- Node3&#45;&gt;Node4 -->
<g id="edge3_Node000003_Node000004" class="edge">
<title>Node3&#45;&gt;Node4</title>
<g id="a_edge3_Node000003_Node000004"><a xlink:title=" ">
<path fill="none" stroke="#63b8ff" d="M307.75,-109.98C297.2,-102 281.2,-89.88 268.56,-80.31"/>
<polygon fill="#63b8ff" stroke="#63b8ff" points="270.54,-77.42 260.45,-74.17 266.31,-83 270.54,-77.42"/>
</a>
</g>
</g>
<!-- Node5 -->
<g id="Node000005" class="node">
<title>Node5</title>
<g id="a_Node000005"><a xlink:title=" ">
<polygon fill="#e0e0e0" stroke="#999999" points="341.5,-74 296.5,-74 296.5,-55 341.5,-55 341.5,-74"/>
<text text-anchor="middle" x="319" y="-62" font-family="Helvetica,sans-Serif" font-size="10.00">utility</text>
</a>
</g>
</g>
<!-- Node3&#45;&gt;Node5 -->
<g id="edge4_Node000003_Node000005" class="edge">
<title>Node3&#45;&gt;Node5</title>
<g id="a_edge4_Node000003_Node000005"><a xlink:title=" ">
<path fill="none" stroke="#63b8ff" d="M319,-109.75C319,-102.8 319,-92.85 319,-84.13"/>
<polygon fill="#63b8ff" stroke="#63b8ff" points="322.5,-84.09 319,-74.09 315.5,-84.09 322.5,-84.09"/>
</a>
</g>
</g>
<!-- Node7 -->
<g id="Node000007" class="node">
<title>Node7</title>
<g id="a_Node000007"><a xlink:title=" ">
<polygon fill="#e0e0e0" stroke="#999999" points="205.5,-19 142.5,-19 142.5,0 205.5,0 205.5,-19"/>
<text text-anchor="middle" x="174" y="-7" font-family="Helvetica,sans-Serif" font-size="10.00">Arduino.h</text>
</a>
</g>
</g>
<!-- Node6&#45;&gt;Node7 -->
<g id="edge6_Node000006_Node000007" class="edge">
<title>Node6&#45;&gt;Node7</title>
<g id="a_edge6_Node000006_Node000007"><a xlink:title=" ">
<path fill="none" stroke="#63b8ff" d="M52.3,-54.98C76.25,-46.23 113.78,-32.51 140.83,-22.62"/>
<polygon fill="#63b8ff" stroke="#63b8ff" points="142.09,-25.89 150.28,-19.17 139.69,-19.32 142.09,-25.89"/>
</a>
</g>
</g>
<!-- Node11&#45;&gt;Node7 -->
<g id="edge11_Node000011_Node000007" class="edge">
<title>Node11&#45;&gt;Node7</title>
<g id="a_edge11_Node000011_Node000007"><a xlink:title=" ">
<path fill="none" stroke="#63b8ff" d="M364.53,-54.98C323.8,-45.48 258.03,-30.12 215.4,-20.17"/>
<polygon fill="#63b8ff" stroke="#63b8ff" points="216.16,-16.75 205.62,-17.88 214.56,-23.56 216.16,-16.75"/>
</a>
</g>
</g>
<!-- Node11&#45;&gt;Node9 -->
<g id="edge12_Node000011_Node000009" class="edge">
<title>Node11&#45;&gt;Node9</title>
<g id="a_edge12_Node000011_Node000009"><a xlink:title=" ">
<path fill="none" stroke="#63b8ff" d="M389.27,-54.98C378.27,-47 361.58,-34.88 348.4,-25.31"/>
<polygon fill="#63b8ff" stroke="#63b8ff" points="350.09,-22.21 339.94,-19.17 345.98,-27.88 350.09,-22.21"/>
</a>
</g>
</g>
<!-- Node12&#45;&gt;Node2 -->
<g id="edge14_Node000012_Node000002" class="edge">
<title>Node12&#45;&gt;Node2</title>
<g id="a_edge14_Node000012_Node000002"><a xlink:title=" ">
<path fill="none" stroke="#63b8ff" d="M383.76,-219.98C352.02,-210.74 301.32,-195.98 267.12,-186.02"/>
<polygon fill="#63b8ff" stroke="#63b8ff" points="268.09,-182.65 257.51,-183.22 266.13,-189.38 268.09,-182.65"/>
</a>
</g>
</g>
<!-- Node13 -->
<g id="Node000013" class="node">
<title>Node13</title>
<g id="a_Node000013"><a xlink:href="_limited_queue_8h.html" target="_top" xlink:title=" ">
<polygon fill="white" stroke="#666666" points="416,-184 322,-184 322,-165 416,-165 416,-184"/>
<text text-anchor="middle" x="369" y="-172" font-family="Helvetica,sans-Serif" font-size="10.00">LimitedQueue.h</text>
</a>
</g>
</g>
<!-- Node12&#45;&gt;Node13 -->
<g id="edge15_Node000012_Node000013" class="edge">
<title>Node12&#45;&gt;Node13</title>
<g id="a_edge15_Node000012_Node000013"><a xlink:title=" ">
<path fill="none" stroke="#63b8ff" d="M405.73,-219.75C399.46,-212.18 390.21,-201.05 382.57,-191.84"/>
<polygon fill="#63b8ff" stroke="#63b8ff" points="385.21,-189.55 376.13,-184.09 379.83,-194.02 385.21,-189.55"/>
</a>
</g>
</g>
<!-- Node14 -->
<g id="Node000014" class="node">
<title>Node14</title>
<g id="a_Node000014"><a xlink:href="_map_8h.html" target="_top" xlink:title=" ">
<polygon fill="white" stroke="#666666" points="481.5,-184 434.5,-184 434.5,-165 481.5,-165 481.5,-184"/>
<text text-anchor="middle" x="458" y="-172" font-family="Helvetica,sans-Serif" font-size="10.00">Map.h</text>
</a>
</g>
</g>
<!-- Node12&#45;&gt;Node14 -->
<g id="edge17_Node000012_Node000014" class="edge">
<title>Node12&#45;&gt;Node14</title>
<g id="a_edge17_Node000012_Node000014"><a xlink:title=" ">
<path fill="none" stroke="#63b8ff" d="M420.43,-219.75C426.85,-212.18 436.31,-201.05 444.12,-191.84"/>
<polygon fill="#63b8ff" stroke="#63b8ff" points="446.9,-193.98 450.71,-184.09 441.57,-189.45 446.9,-193.98"/>
</a>
</g>
</g>
<!-- Node13&#45;&gt;Node11 -->
<g id="edge16_Node000013_Node000011" class="edge">
<title>Node13&#45;&gt;Node11</title>
<g id="a_edge16_Node000013_Node000011"><a xlink:title=" ">
<path fill="none" stroke="#63b8ff" d="M371.62,-164.66C376.82,-147.09 388.57,-107.45 395.53,-83.95"/>
<polygon fill="#63b8ff" stroke="#63b8ff" points="398.95,-84.74 398.43,-74.16 392.24,-82.75 398.95,-84.74"/>
</a>
</g>
</g>
<!-- Node14&#45;&gt;Node3 -->
<g id="edge18_Node000014_Node000003" class="edge">
<title>Node14&#45;&gt;Node3</title>
<g id="a_edge18_Node000014_Node000003"><a xlink:title=" ">
<path fill="none" stroke="#63b8ff" d="M435.67,-164.98C412.8,-156.27 377.04,-142.63 351.14,-132.75"/>
<polygon fill="#63b8ff" stroke="#63b8ff" points="352.33,-129.46 341.74,-129.17 349.84,-136 352.33,-129.46"/>
</a>
</g>
</g>
<!-- Node15 -->
<g id="Node000015" class="node">
<title>Node15</title>
<g id="a_Node000015"><a xlink:href="_iterable_queue_8h.html" target="_top" xlink:title=" ">
<polygon fill="white" stroke="#666666" points="505.5,-129 410.5,-129 410.5,-110 505.5,-110 505.5,-129"/>
<text text-anchor="middle" x="458" y="-117" font-family="Helvetica,sans-Serif" font-size="10.00">IterableQueue.h</text>
</a>
</g>
</g>
<!-- Node14&#45;&gt;Node15 -->
<g id="edge19_Node000014_Node000015" class="edge">
<title>Node14&#45;&gt;Node15</title>
<g id="a_edge19_Node000014_Node000015"><a xlink:title=" ">
<path fill="none" stroke="#63b8ff" d="M458,-164.75C458,-157.8 458,-147.85 458,-139.13"/>
<polygon fill="#63b8ff" stroke="#63b8ff" points="461.5,-139.09 458,-129.09 454.5,-139.09 461.5,-139.09"/>
</a>
</g>
</g>
<!-- Node15&#45;&gt;Node11 -->
<g id="edge20_Node000015_Node000011" class="edge">
<title>Node15&#45;&gt;Node11</title>
<g id="a_edge20_Node000015_Node000011"><a xlink:title=" ">
<path fill="none" stroke="#63b8ff" d="M448.84,-109.98C440.5,-102.23 427.97,-90.58 417.82,-81.14"/>
<polygon fill="#63b8ff" stroke="#63b8ff" points="420.03,-78.42 410.32,-74.17 415.26,-83.54 420.03,-78.42"/>
</a>
</g>
</g>
<!-- Node17&#45;&gt;Node1 -->
<g id="edge23_Node000017_Node000001" class="edge">
<title>Node17&#45;&gt;Node1</title>
<g id="a_edge23_Node000017_Node000001"><a xlink:title=" ">
<path fill="none" stroke="#63b8ff" d="M701.46,-239.17C676.95,-248.1 635.75,-262.07 604.94,-271.94"/>
<polygon fill="#63b8ff" stroke="#63b8ff" points="603.81,-268.62 595.34,-274.98 605.93,-275.3 603.81,-268.62"/>
</a>
</g>
</g>
</g>
</svg>
