<?xml version="1.0" encoding="UTF-8" standalone="no"?>
<!DOCTYPE svg PUBLIC "-//W3C//DTD SVG 1.1//EN"
 "http://www.w3.org/Graphics/SVG/1.1/DTD/svg11.dtd">
<!-- Generated by graphviz version 2.43.0 (0)
 -->
<!-- Title: EventListener.cpp Pages: 1 -->
<svg width="907pt" height="357pt"
 viewBox="0.00 0.00 906.88 357.00" xmlns="http://www.w3.org/2000/svg" xmlns:xlink="http://www.w3.org/1999/xlink">
<g id="graph0" class="graph" transform="scale(1 1) rotate(0) translate(4 353)">
<title>EventListener.cpp</title>
<!-- Node1 -->
<g id="Node000001" class="node">
<title>Node1</title>
<g id="a_Node000001"><a xlink:title=" ">
<polygon fill="#999999" stroke="#666666" points="693.38,-349 590.38,-349 590.38,-330 693.38,-330 693.38,-349"/>
<text text-anchor="middle" x="641.88" y="-337" font-family="Helvetica,sans-Serif" font-size="10.00">EventListener.cpp</text>
</a>
</g>
</g>
<!-- Node2 -->
<g id="Node000002" class="node">
<title>Node2</title>
<g id="a_Node000002"><a xlink:href="_event_listener_8h.html" target="_top" xlink:title=" ">
<polygon fill="white" stroke="#666666" points="329.88,-294 237.88,-294 237.88,-275 329.88,-275 329.88,-294"/>
<text text-anchor="middle" x="283.88" y="-282" font-family="Helvetica,sans-Serif" font-size="10.00">EventListener.h</text>
</a>
</g>
</g>
<!-- Node1&#45;&gt;Node2 -->
<g id="edge1_Node000001_Node000002" class="edge">
<title>Node1&#45;&gt;Node2</title>
<g id="a_edge1_Node000001_Node000002"><a xlink:title=" ">
<path fill="none" stroke="#63b8ff" d="M590.2,-330.85C523.81,-321.02 408.95,-304.02 340.32,-293.86"/>
<polygon fill="#63b8ff" stroke="#63b8ff" points="340.54,-290.35 330.13,-292.35 339.51,-297.27 340.54,-290.35"/>
</a>
</g>
</g>
<!-- Node8 -->
<g id="Node000008" class="node">
<title>Node8</title>
<g id="a_Node000008"><a xlink:title=" ">
<polygon fill="#e0e0e0" stroke="#999999" points="413.38,-19 350.38,-19 350.38,0 413.38,0 413.38,-19"/>
<text text-anchor="middle" x="381.88" y="-7" font-family="Helvetica,sans-Serif" font-size="10.00">Arduino.h</text>
</a>
</g>
</g>
<!-- Node1&#45;&gt;Node8 -->
<g id="edge23_Node000001_Node000008" class="edge">
<title>Node1&#45;&gt;Node8</title>
<g id="a_edge23_Node000001_Node000008"><a xlink:title=" ">
<path fill="none" stroke="#63b8ff" d="M693.58,-338.74C768.62,-336.06 898.88,-318.7 898.88,-230.5 898.88,-230.5 898.88,-230.5 898.88,-118.5 898.88,-21.61 546.53,-11.09 423.59,-10.37"/>
<polygon fill="#63b8ff" stroke="#63b8ff" points="423.45,-6.87 413.44,-10.33 423.43,-13.87 423.45,-6.87"/>
</a>
</g>
</g>
<!-- Node17 -->
<g id="Node000017" class="node">
<title>Node17</title>
<g id="a_Node000017"><a xlink:href="_event_bus_8h.html" target="_top" xlink:title=" ">
<polygon fill="white" stroke="#666666" points="677.38,-294 606.38,-294 606.38,-275 677.38,-275 677.38,-294"/>
<text text-anchor="middle" x="641.88" y="-282" font-family="Helvetica,sans-Serif" font-size="10.00">EventBus.h</text>
</a>
</g>
</g>
<!-- Node1&#45;&gt;Node17 -->
<g id="edge24_Node000001_Node000017" class="edge">
<title>Node1&#45;&gt;Node17</title>
<g id="a_edge24_Node000001_Node000017"><a xlink:title=" ">
<path fill="none" stroke="#63b8ff" d="M641.88,-329.75C641.88,-322.8 641.88,-312.85 641.88,-304.13"/>
<polygon fill="#63b8ff" stroke="#63b8ff" points="645.38,-304.09 641.88,-294.09 638.38,-304.09 645.38,-304.09"/>
</a>
</g>
</g>
<!-- Node3 -->
<g id="Node000003" class="node">
<title>Node3</title>
<g id="a_Node000003"><a xlink:href="_bytes_8h.html" target="_top" xlink:title=" ">
<polygon fill="white" stroke="#666666" points="386.38,-184 333.38,-184 333.38,-165 386.38,-165 386.38,-184"/>
<text text-anchor="middle" x="359.88" y="-172" font-family="Helvetica,sans-Serif" font-size="10.00">Bytes.h</text>
</a>
</g>
</g>
<!-- Node2&#45;&gt;Node3 -->
<g id="edge2_Node000002_Node000003" class="edge">
<title>Node2&#45;&gt;Node3</title>
<g id="a_edge2_Node000002_Node000003"><a xlink:title=" ">
<path fill="none" stroke="#63b8ff" d="M298.15,-274.94C310.28,-267.01 327.34,-254.16 337.88,-239 347.24,-225.53 352.96,-207.7 356.21,-194.36"/>
<polygon fill="#63b8ff" stroke="#63b8ff" points="359.67,-194.92 358.38,-184.41 352.83,-193.43 359.67,-194.92"/>
</a>
</g>
</g>
<!-- Node12 -->
<g id="Node000012" class="node">
<title>Node12</title>
<g id="a_Node000012"><a xlink:href="_clear_queue_8h.html" target="_top" xlink:title=" ">
<polygon fill="white" stroke="#666666" points="417.38,-74 334.38,-74 334.38,-55 417.38,-55 417.38,-74"/>
<text text-anchor="middle" x="375.88" y="-62" font-family="Helvetica,sans-Serif" font-size="10.00">ClearQueue.h</text>
</a>
</g>
</g>
<!-- Node2&#45;&gt;Node12 -->
<g id="edge11_Node000002_Node000012" class="edge">
<title>Node2&#45;&gt;Node12</title>
<g id="a_edge11_Node000002_Node000012"><a xlink:title=" ">
<path fill="none" stroke="#63b8ff" d="M243.92,-274.95C152.5,-253.71 -58.46,-194.09 15.88,-110 35.93,-87.32 228.97,-73.6 323.81,-68.18"/>
<polygon fill="#63b8ff" stroke="#63b8ff" points="324.26,-71.66 334.05,-67.61 323.87,-64.67 324.26,-71.66"/>
</a>
</g>
</g>
<!-- Node13 -->
<g id="Node000013" class="node">
<title>Node13</title>
<g id="a_Node000013"><a xlink:href="_iterable_queue_8h.html" target="_top" xlink:title=" ">
<polygon fill="white" stroke="#666666" points="195.38,-129 100.38,-129 100.38,-110 195.38,-110 195.38,-129"/>
<text text-anchor="middle" x="147.88" y="-117" font-family="Helvetica,sans-Serif" font-size="10.00">IterableQueue.h</text>
</a>
</g>
</g>
<!-- Node2&#45;&gt;Node13 -->
<g id="edge14_Node000002_Node000013" class="edge">
<title>Node2&#45;&gt;Node13</title>
<g id="a_edge14_Node000002_Node000013"><a xlink:title=" ">
<path fill="none" stroke="#63b8ff" d="M268.88,-274.83C243.94,-259.64 194.03,-225.82 166.88,-184 158.07,-170.43 153.2,-152.6 150.61,-139.3"/>
<polygon fill="#63b8ff" stroke="#63b8ff" points="154.05,-138.65 148.93,-129.37 147.15,-139.82 154.05,-138.65"/>
</a>
</g>
</g>
<!-- Node14 -->
<g id="Node000014" class="node">
<title>Node14</title>
<g id="a_Node000014"><a xlink:href="_event_emitter_8h.html" target="_top" xlink:title=" ">
<polygon fill="white" stroke="#666666" points="328.38,-239 239.38,-239 239.38,-220 328.38,-220 328.38,-239"/>
<text text-anchor="middle" x="283.88" y="-227" font-family="Helvetica,sans-Serif" font-size="10.00">EventEmitter.h</text>
</a>
</g>
</g>
<!-- Node2&#45;&gt;Node14 -->
<g id="edge16_Node000002_Node000014" class="edge">
<title>Node2&#45;&gt;Node14</title>
<g id="a_edge16_Node000002_Node000014"><a xlink:title=" ">
<path fill="none" stroke="#63b8ff" d="M283.88,-274.75C283.88,-267.8 283.88,-257.85 283.88,-249.13"/>
<polygon fill="#63b8ff" stroke="#63b8ff" points="287.38,-249.09 283.88,-239.09 280.38,-249.09 287.38,-249.09"/>
</a>
</g>
</g>
<!-- Node4 -->
<g id="Node000004" class="node">
<title>Node4</title>
<g id="a_Node000004"><a xlink:href="_common_8h.html" target="_top" xlink:title=" ">
<polygon fill="white" stroke="#666666" points="567.88,-129 497.88,-129 497.88,-110 567.88,-110 567.88,-129"/>
<text text-anchor="middle" x="532.88" y="-117" font-family="Helvetica,sans-Serif" font-size="10.00">Common.h</text>
</a>
</g>
</g>
<!-- Node3&#45;&gt;Node4 -->
<g id="edge3_Node000003_Node000004" class="edge">
<title>Node3&#45;&gt;Node4</title>
<g id="a_edge3_Node000003_Node000004"><a xlink:title=" ">
<path fill="none" stroke="#63b8ff" d="M386.53,-165.33C415.65,-156.41 462.51,-142.06 495.35,-132"/>
<polygon fill="#63b8ff" stroke="#63b8ff" points="496.51,-135.3 505.05,-129.03 494.46,-128.61 496.51,-135.3"/>
</a>
</g>
</g>
<!-- Node7 -->
<g id="Node000007" class="node">
<title>Node7</title>
<g id="a_Node000007"><a xlink:href="_logger_8h.html" target="_top" xlink:title=" ">
<polygon fill="white" stroke="#666666" points="271.88,-129 213.88,-129 213.88,-110 271.88,-110 271.88,-129"/>
<text text-anchor="middle" x="242.88" y="-117" font-family="Helvetica,sans-Serif" font-size="10.00">Logger.h</text>
</a>
</g>
</g>
<!-- Node3&#45;&gt;Node7 -->
<g id="edge6_Node000003_Node000007" class="edge">
<title>Node3&#45;&gt;Node7</title>
<g id="a_edge6_Node000003_Node000007"><a xlink:title=" ">
<path fill="none" stroke="#63b8ff" d="M341.08,-164.98C322.26,-156.46 293.05,-143.23 271.38,-133.41"/>
<polygon fill="#63b8ff" stroke="#63b8ff" points="272.57,-130.11 262.02,-129.17 269.68,-136.48 272.57,-130.11"/>
</a>
</g>
</g>
<!-- Node9 -->
<g id="Node000009" class="node">
<title>Node9</title>
<g id="a_Node000009"><a xlink:title=" ">
<polygon fill="#e0e0e0" stroke="#999999" points="391.88,-129 327.88,-129 327.88,-110 391.88,-110 391.88,-129"/>
<text text-anchor="middle" x="359.88" y="-117" font-family="Helvetica,sans-Serif" font-size="10.00">WString.h</text>
</a>
</g>
</g>
<!-- Node3&#45;&gt;Node9 -->
<g id="edge8_Node000003_Node000009" class="edge">
<title>Node3&#45;&gt;Node9</title>
<g id="a_edge8_Node000003_Node000009"><a xlink:title=" ">
<path fill="none" stroke="#63b8ff" d="M359.88,-164.75C359.88,-157.8 359.88,-147.85 359.88,-139.13"/>
<polygon fill="#63b8ff" stroke="#63b8ff" points="363.38,-139.09 359.88,-129.09 356.38,-139.09 363.38,-139.09"/>
</a>
</g>
</g>
<!-- Node10 -->
<g id="Node000010" class="node">
<title>Node10</title>
<g id="a_Node000010"><a xlink:title=" ">
<polygon fill="#e0e0e0" stroke="#999999" points="332.38,-19 267.38,-19 267.38,0 332.38,0 332.38,-19"/>
<text text-anchor="middle" x="299.88" y="-7" font-family="Helvetica,sans-Serif" font-size="10.00">functional</text>
</a>
</g>
</g>
<!-- Node3&#45;&gt;Node10 -->
<g id="edge9_Node000003_Node000010" class="edge">
<title>Node3&#45;&gt;Node10</title>
<g id="a_edge9_Node000003_Node000010"><a xlink:title=" ">
<path fill="none" stroke="#63b8ff" d="M348.9,-164.87C339.34,-156.7 325.94,-143.55 318.88,-129 303.09,-96.46 299.98,-53.56 299.61,-29.32"/>
<polygon fill="#63b8ff" stroke="#63b8ff" points="303.11,-29.04 299.61,-19.04 296.11,-29.04 303.11,-29.04"/>
</a>
</g>
</g>
<!-- Node11 -->
<g id="Node000011" class="node">
<title>Node11</title>
<g id="a_Node000011"><a xlink:title=" ">
<polygon fill="#e0e0e0" stroke="#999999" points="479.38,-129 410.38,-129 410.38,-110 479.38,-110 479.38,-129"/>
<text text-anchor="middle" x="444.88" y="-117" font-family="Helvetica,sans-Serif" font-size="10.00">type_traits</text>
</a>
</g>
</g>
<!-- Node3&#45;&gt;Node11 -->
<g id="edge10_Node000003_Node000011" class="edge">
<title>Node3&#45;&gt;Node11</title>
<g id="a_edge10_Node000003_Node000011"><a xlink:title=" ">
<path fill="none" stroke="#63b8ff" d="M373.53,-164.98C386.72,-156.77 406.91,-144.18 422.45,-134.49"/>
<polygon fill="#63b8ff" stroke="#63b8ff" points="424.34,-137.43 430.97,-129.17 420.64,-131.49 424.34,-137.43"/>
</a>
</g>
</g>
<!-- Node5 -->
<g id="Node000005" class="node">
<title>Node5</title>
<g id="a_Node000005"><a xlink:title=" ">
<polygon fill="#e0e0e0" stroke="#999999" points="530.88,-74 472.88,-74 472.88,-55 530.88,-55 530.88,-74"/>
<text text-anchor="middle" x="501.88" y="-62" font-family="Helvetica,sans-Serif" font-size="10.00">memory</text>
</a>
</g>
</g>
<!-- Node4&#45;&gt;Node5 -->
<g id="edge4_Node000004_Node000005" class="edge">
<title>Node4&#45;&gt;Node5</title>
<g id="a_edge4_Node000004_Node000005"><a xlink:title=" ">
<path fill="none" stroke="#63b8ff" d="M527.76,-109.75C523.52,-102.49 517.35,-91.95 512.1,-82.98"/>
<polygon fill="#63b8ff" stroke="#63b8ff" points="514.97,-80.95 506.9,-74.09 508.93,-84.49 514.97,-80.95"/>
</a>
</g>
</g>
<!-- Node6 -->
<g id="Node000006" class="node">
<title>Node6</title>
<g id="a_Node000006"><a xlink:title=" ">
<polygon fill="#e0e0e0" stroke="#999999" points="594.38,-74 549.38,-74 549.38,-55 594.38,-55 594.38,-74"/>
<text text-anchor="middle" x="571.88" y="-62" font-family="Helvetica,sans-Serif" font-size="10.00">utility</text>
</a>
</g>
</g>
<!-- Node4&#45;&gt;Node6 -->
<g id="edge5_Node000004_Node000006" class="edge">
<title>Node4&#45;&gt;Node6</title>
<g id="a_edge5_Node000004_Node000006"><a xlink:title=" ">
<path fill="none" stroke="#63b8ff" d="M539.32,-109.75C544.77,-102.34 552.74,-91.5 559.43,-82.41"/>
<polygon fill="#63b8ff" stroke="#63b8ff" points="562.45,-84.22 565.56,-74.09 556.81,-80.07 562.45,-84.22"/>
</a>
</g>
</g>
<!-- Node7&#45;&gt;Node8 -->
<g id="edge7_Node000007_Node000008" class="edge">
<title>Node7&#45;&gt;Node8</title>
<g id="a_edge7_Node000007_Node000008"><a xlink:title=" ">
<path fill="none" stroke="#63b8ff" d="M254.25,-109.66C277.99,-91.22 333.04,-48.45 362.48,-25.57"/>
<polygon fill="#63b8ff" stroke="#63b8ff" points="364.99,-28.06 370.73,-19.16 360.69,-22.53 364.99,-28.06"/>
</a>
</g>
</g>
<!-- Node12&#45;&gt;Node8 -->
<g id="edge12_Node000012_Node000008" class="edge">
<title>Node12&#45;&gt;Node8</title>
<g id="a_edge12_Node000012_Node000008"><a xlink:title=" ">
<path fill="none" stroke="#63b8ff" d="M376.87,-54.75C377.66,-47.8 378.78,-37.85 379.77,-29.13"/>
<polygon fill="#63b8ff" stroke="#63b8ff" points="383.26,-29.42 380.91,-19.09 376.3,-28.63 383.26,-29.42"/>
</a>
</g>
</g>
<!-- Node12&#45;&gt;Node10 -->
<g id="edge13_Node000012_Node000010" class="edge">
<title>Node12&#45;&gt;Node10</title>
<g id="a_edge13_Node000012_Node000010"><a xlink:title=" ">
<path fill="none" stroke="#63b8ff" d="M363.67,-54.98C352.1,-46.92 334.5,-34.65 320.72,-25.03"/>
<polygon fill="#63b8ff" stroke="#63b8ff" points="322.52,-22.02 312.31,-19.17 318.51,-27.76 322.52,-22.02"/>
</a>
</g>
</g>
<!-- Node13&#45;&gt;Node12 -->
<g id="edge15_Node000013_Node000012" class="edge">
<title>Node13&#45;&gt;Node12</title>
<g id="a_edge15_Node000013_Node000012"><a xlink:title=" ">
<path fill="none" stroke="#63b8ff" d="M184.51,-109.98C223.78,-100.86 286.25,-86.33 329.06,-76.38"/>
<polygon fill="#63b8ff" stroke="#63b8ff" points="330.01,-79.76 338.96,-74.08 328.43,-72.94 330.01,-79.76"/>
</a>
</g>
</g>
<!-- Node14&#45;&gt;Node3 -->
<g id="edge17_Node000014_Node000003" class="edge">
<title>Node14&#45;&gt;Node3</title>
<g id="a_edge17_Node000014_Node000003"><a xlink:title=" ">
<path fill="none" stroke="#63b8ff" d="M296.09,-219.98C307.65,-211.92 325.25,-199.65 339.04,-190.03"/>
<polygon fill="#63b8ff" stroke="#63b8ff" points="341.24,-192.76 347.45,-184.17 337.24,-187.02 341.24,-192.76"/>
</a>
</g>
</g>
<!-- Node14&#45;&gt;Node13 -->
<g id="edge18_Node000014_Node000013" class="edge">
<title>Node14&#45;&gt;Node13</title>
<g id="a_edge18_Node000014_Node000013"><a xlink:title=" ">
<path fill="none" stroke="#63b8ff" d="M283.64,-219.94C282.8,-206.53 279.3,-180.51 264.88,-165 249.22,-148.16 226.52,-137.64 205.28,-131.09"/>
<polygon fill="#63b8ff" stroke="#63b8ff" points="206.22,-127.72 195.65,-128.35 204.31,-134.46 206.22,-127.72"/>
</a>
</g>
</g>
<!-- Node15 -->
<g id="Node000015" class="node">
<title>Node15</title>
<g id="a_Node000015"><a xlink:href="_event_entity_8h.html" target="_top" xlink:title=" ">
<polygon fill="white" stroke="#666666" points="255.88,-184 175.88,-184 175.88,-165 255.88,-165 255.88,-184"/>
<text text-anchor="middle" x="215.88" y="-172" font-family="Helvetica,sans-Serif" font-size="10.00">EventEntity.h</text>
</a>
</g>
</g>
<!-- Node14&#45;&gt;Node15 -->
<g id="edge19_Node000014_Node000015" class="edge">
<title>Node14&#45;&gt;Node15</title>
<g id="a_edge19_Node000014_Node000015"><a xlink:title=" ">
<path fill="none" stroke="#63b8ff" d="M272.95,-219.98C262.8,-212.07 247.46,-200.11 235.23,-190.58"/>
<polygon fill="#63b8ff" stroke="#63b8ff" points="237.04,-187.56 227,-184.17 232.74,-193.08 237.04,-187.56"/>
</a>
</g>
</g>
<!-- Node15&#45;&gt;Node7 -->
<g id="edge21_Node000015_Node000007" class="edge">
<title>Node15&#45;&gt;Node7</title>
<g id="a_edge21_Node000015_Node000007"><a xlink:title=" ">
<path fill="none" stroke="#63b8ff" d="M220.34,-164.75C223.99,-157.57 229.29,-147.18 233.83,-138.27"/>
<polygon fill="#63b8ff" stroke="#63b8ff" points="237.08,-139.59 238.5,-129.09 230.84,-136.41 237.08,-139.59"/>
</a>
</g>
</g>
<!-- Node15&#45;&gt;Node13 -->
<g id="edge20_Node000015_Node000013" class="edge">
<title>Node15&#45;&gt;Node13</title>
<g id="a_edge20_Node000015_Node000013"><a xlink:title=" ">
<path fill="none" stroke="#63b8ff" d="M204.95,-164.98C194.8,-157.07 179.46,-145.11 167.23,-135.58"/>
<polygon fill="#63b8ff" stroke="#63b8ff" points="169.04,-132.56 159,-129.17 164.74,-138.08 169.04,-132.56"/>
</a>
</g>
</g>
<!-- Node16 -->
<g id="Node000016" class="node">
<title>Node16</title>
<g id="a_Node000016"><a xlink:href="_type_id_8h.html" target="_top" xlink:title=" ">
<polygon fill="white" stroke="#666666" points="82.38,-129 25.38,-129 25.38,-110 82.38,-110 82.38,-129"/>
<text text-anchor="middle" x="53.88" y="-117" font-family="Helvetica,sans-Serif" font-size="10.00">TypeId.h</text>
</a>
</g>
</g>
<!-- Node15&#45;&gt;Node16 -->
<g id="edge22_Node000015_Node000016" class="edge">
<title>Node15&#45;&gt;Node16</title>
<g id="a_edge22_Node000015_Node000016"><a xlink:title=" ">
<path fill="none" stroke="#63b8ff" d="M189.85,-164.98C162.77,-156.13 120.17,-142.19 89.87,-132.28"/>
<polygon fill="#63b8ff" stroke="#63b8ff" points="90.7,-128.87 80.11,-129.08 88.53,-135.52 90.7,-128.87"/>
</a>
</g>
</g>
<!-- Node17&#45;&gt;Node3 -->
<g id="edge25_Node000017_Node000003" class="edge">
<title>Node17&#45;&gt;Node3</title>
<g id="a_edge25_Node000017_Node000003"><a xlink:title=" ">
<path fill="none" stroke="#63b8ff" d="M606.3,-281.01C563.84,-276.9 491.6,-266.22 435.88,-239 411.89,-227.28 389.05,-206.42 374.78,-191.82"/>
<polygon fill="#63b8ff" stroke="#63b8ff" points="377.21,-189.29 367.79,-184.45 372.13,-194.11 377.21,-189.29"/>
</a>
</g>
</g>
<!-- Node17&#45;&gt;Node12 -->
<g id="edge26_Node000017_Node000012" class="edge">
<title>Node17&#45;&gt;Node12</title>
<g id="a_edge26_Node000017_Node000012"><a xlink:title=" ">
<path fill="none" stroke="#63b8ff" d="M639.32,-274.68C636.77,-265.73 632.82,-251.46 629.88,-239 616.18,-180.95 638.64,-148.25 592.88,-110 568.3,-89.45 483.78,-76.8 427.76,-70.47"/>
<polygon fill="#63b8ff" stroke="#63b8ff" points="427.98,-66.97 417.66,-69.36 427.22,-73.93 427.98,-66.97"/>
</a>
</g>
</g>
<!-- Node18 -->
<g id="Node000018" class="node">
<title>Node18</title>
<g id="a_Node000018"><a xlink:href="_data_channels_8h.html" target="_top" xlink:title=" ">
<polygon fill="white" stroke="#666666" points="538.88,-239 444.88,-239 444.88,-220 538.88,-220 538.88,-239"/>
<text text-anchor="middle" x="491.88" y="-227" font-family="Helvetica,sans-Serif" font-size="10.00">DataChannels.h</text>
</a>
</g>
</g>
<!-- Node17&#45;&gt;Node18 -->
<g id="edge27_Node000017_Node000018" class="edge">
<title>Node17&#45;&gt;Node18</title>
<g id="a_edge27_Node000017_Node000018"><a xlink:title=" ">
<path fill="none" stroke="#63b8ff" d="M617.78,-274.98C593,-266.23 554.17,-252.51 526.19,-242.62"/>
<polygon fill="#63b8ff" stroke="#63b8ff" points="527.01,-239.2 516.42,-239.17 524.68,-245.8 527.01,-239.2"/>
</a>
</g>
</g>
<!-- Node21 -->
<g id="Node000021" class="node">
<title>Node21</title>
<g id="a_Node000021"><a xlink:href="_i_executor_8h.html" target="_top" xlink:title=" ">
<polygon fill="white" stroke="#666666" points="708.88,-239 638.88,-239 638.88,-220 708.88,-220 708.88,-239"/>
<text text-anchor="middle" x="673.88" y="-227" font-family="Helvetica,sans-Serif" font-size="10.00">IExecutor.h</text>
</a>
</g>
</g>
<!-- Node17&#45;&gt;Node21 -->
<g id="edge34_Node000017_Node000021" class="edge">
<title>Node17&#45;&gt;Node21</title>
<g id="a_edge34_Node000017_Node000021"><a xlink:title=" ">
<path fill="none" stroke="#63b8ff" d="M647.16,-274.75C651.59,-267.42 658.04,-256.73 663.5,-247.7"/>
<polygon fill="#63b8ff" stroke="#63b8ff" points="666.52,-249.46 668.69,-239.09 660.53,-245.84 666.52,-249.46"/>
</a>
</g>
</g>
<!-- Node22 -->
<g id="Node000022" class="node">
<title>Node22</title>
<g id="a_Node000022"><a xlink:href="_i_event_bus_connection_kit_8h.html" target="_top" xlink:title="Defines the interface for components that can connect to an EventBus.">
<polygon fill="white" stroke="#666666" points="870.38,-239 727.38,-239 727.38,-220 870.38,-220 870.38,-239"/>
<text text-anchor="middle" x="798.88" y="-227" font-family="Helvetica,sans-Serif" font-size="10.00">IEventBusConnectionKit.h</text>
</a>
</g>
</g>
<!-- Node17&#45;&gt;Node22 -->
<g id="edge35_Node000017_Node000022" class="edge">
<title>Node17&#45;&gt;Node22</title>
<g id="a_edge35_Node000017_Node000022"><a xlink:title=" ">
<path fill="none" stroke="#63b8ff" d="M661.99,-274.98C686.38,-266.09 727.72,-252.07 758.68,-242.15"/>
<polygon fill="#63b8ff" stroke="#63b8ff" points="759.85,-245.44 768.33,-239.08 757.74,-238.77 759.85,-245.44"/>
</a>
</g>
</g>
<!-- Node18&#45;&gt;Node3 -->
<g id="edge28_Node000018_Node000003" class="edge">
<title>Node18&#45;&gt;Node3</title>
<g id="a_edge28_Node000018_Node000003"><a xlink:title=" ">
<path fill="none" stroke="#63b8ff" d="M470.67,-219.98C449.15,-211.34 415.6,-197.87 391.05,-188.02"/>
<polygon fill="#63b8ff" stroke="#63b8ff" points="392.06,-184.65 381.47,-184.17 389.45,-191.14 392.06,-184.65"/>
</a>
</g>
</g>
<!-- Node19 -->
<g id="Node000019" class="node">
<title>Node19</title>
<g id="a_Node000019"><a xlink:href="_limited_queue_8h.html" target="_top" xlink:title=" ">
<polygon fill="white" stroke="#666666" points="605.88,-184 511.88,-184 511.88,-165 605.88,-165 605.88,-184"/>
<text text-anchor="middle" x="558.88" y="-172" font-family="Helvetica,sans-Serif" font-size="10.00">LimitedQueue.h</text>
</a>
</g>
</g>
<!-- Node18&#45;&gt;Node19 -->
<g id="edge29_Node000018_Node000019" class="edge">
<title>Node18&#45;&gt;Node19</title>
<g id="a_edge29_Node000018_Node000019"><a xlink:title=" ">
<path fill="none" stroke="#63b8ff" d="M502.64,-219.98C512.64,-212.07 527.76,-200.11 539.81,-190.58"/>
<polygon fill="#63b8ff" stroke="#63b8ff" points="542.25,-193.12 547.92,-184.17 537.9,-187.63 542.25,-193.12"/>
</a>
</g>
</g>
<!-- Node20 -->
<g id="Node000020" class="node">
<title>Node20</title>
<g id="a_Node000020"><a xlink:href="_map_8h.html" target="_top" xlink:title=" ">
<polygon fill="white" stroke="#666666" points="493.38,-184 446.38,-184 446.38,-165 493.38,-165 493.38,-184"/>
<text text-anchor="middle" x="469.88" y="-172" font-family="Helvetica,sans-Serif" font-size="10.00">Map.h</text>
</a>
</g>
</g>
<!-- Node18&#45;&gt;Node20 -->
<g id="edge31_Node000018_Node000020" class="edge">
<title>Node18&#45;&gt;Node20</title>
<g id="a_edge31_Node000018_Node000020"><a xlink:title=" ">
<path fill="none" stroke="#63b8ff" d="M488.25,-219.75C485.3,-212.65 481.04,-202.4 477.37,-193.56"/>
<polygon fill="#63b8ff" stroke="#63b8ff" points="480.51,-191.98 473.44,-184.09 474.04,-194.67 480.51,-191.98"/>
</a>
</g>
</g>
<!-- Node19&#45;&gt;Node12 -->
<g id="edge30_Node000019_Node000012" class="edge">
<title>Node19&#45;&gt;Node12</title>
<g id="a_edge30_Node000019_Node000012"><a xlink:title=" ">
<path fill="none" stroke="#63b8ff" d="M565.79,-164.73C575.33,-151.5 589.93,-126.26 576.88,-110 558.49,-87.09 480.82,-75.25 427.6,-69.72"/>
<polygon fill="#63b8ff" stroke="#63b8ff" points="427.93,-66.23 417.63,-68.72 427.24,-73.2 427.93,-66.23"/>
</a>
</g>
</g>
<!-- Node20&#45;&gt;Node4 -->
<g id="edge32_Node000020_Node000004" class="edge">
<title>Node20&#45;&gt;Node4</title>
<g id="a_edge32_Node000020_Node000004"><a xlink:title=" ">
<path fill="none" stroke="#63b8ff" d="M480,-164.98C489.31,-157.15 503.35,-145.34 514.62,-135.86"/>
<polygon fill="#63b8ff" stroke="#63b8ff" points="517.17,-138.29 522.57,-129.17 512.67,-132.93 517.17,-138.29"/>
</a>
</g>
</g>
<!-- Node20&#45;&gt;Node13 -->
<g id="edge33_Node000020_Node000013" class="edge">
<title>Node20&#45;&gt;Node13</title>
<g id="a_edge33_Node000020_Node000013"><a xlink:title=" ">
<path fill="none" stroke="#63b8ff" d="M446.2,-169.6C395.95,-161.33 277.39,-141.82 205.78,-130.03"/>
<polygon fill="#63b8ff" stroke="#63b8ff" points="206.01,-126.52 195.57,-128.35 204.87,-133.43 206.01,-126.52"/>
</a>
</g>
</g>
<!-- Node22&#45;&gt;Node17 -->
<g id="edge36_Node000022_Node000017" class="edge">
<title>Node22&#45;&gt;Node17</title>
<g id="a_edge36_Node000022_Node000017"><a xlink:title=" ">
<path fill="none" stroke="#63b8ff" d="M778.34,-239.17C753.83,-248.1 712.62,-262.07 681.82,-271.94"/>
<polygon fill="#63b8ff" stroke="#63b8ff" points="680.69,-268.62 672.22,-274.98 682.81,-275.3 680.69,-268.62"/>
</a>
</g>
</g>
</g>
</svg>
