<?xml version="1.0" encoding="UTF-8" standalone="no"?>
<!DOCTYPE svg PUBLIC "-//W3C//DTD SVG 1.1//EN"
 "http://www.w3.org/Graphics/SVG/1.1/DTD/svg11.dtd">
<!-- Generated by graphviz version 2.43.0 (0)
 -->
<!-- Title: EventEntity.h Pages: 1 -->
<svg width="914pt" height="302pt"
 viewBox="0.00 0.00 913.50 302.00" xmlns="http://www.w3.org/2000/svg" xmlns:xlink="http://www.w3.org/1999/xlink">
<g id="graph0" class="graph" transform="scale(1 1) rotate(0) translate(4 298)">
<title>EventEntity.h</title>
<!-- Node1 -->
<g id="Node000001" class="node">
<title>Node1</title>
<g id="a_Node000001"><a xlink:title=" ">
<polygon fill="#999999" stroke="#666666" points="825.5,-294 745.5,-294 745.5,-275 825.5,-275 825.5,-294"/>
<text text-anchor="middle" x="785.5" y="-282" font-family="Helvetica,sans-Serif" font-size="10.00">EventEntity.h</text>
</a>
</g>
</g>
<!-- Node2 -->
<g id="Node000002" class="node">
<title>Node2</title>
<g id="a_Node000002"><a xlink:href="_event_bus_8cpp.html" target="_top" xlink:title=" ">
<polygon fill="white" stroke="#666666" points="852,-129 769,-129 769,-110 852,-110 852,-129"/>
<text text-anchor="middle" x="810.5" y="-117" font-family="Helvetica,sans-Serif" font-size="10.00">EventBus.cpp</text>
</a>
</g>
</g>
<!-- Node1&#45;&gt;Node2 -->
<g id="edge1_Node000001_Node000002" class="edge">
<title>Node1&#45;&gt;Node2</title>
<g id="a_edge1_Node000001_Node000002"><a xlink:title=" ">
<path fill="none" stroke="#63b8ff" d="M788.36,-264.83C793.76,-229.67 805.22,-154.9 809.15,-129.31"/>
<polygon fill="#63b8ff" stroke="#63b8ff" points="784.9,-264.32 786.84,-274.74 791.82,-265.38 784.9,-264.32"/>
</a>
</g>
</g>
<!-- Node3 -->
<g id="Node000003" class="node">
<title>Node3</title>
<g id="a_Node000003"><a xlink:href="_event_emitter_8h.html" target="_top" xlink:title=" ">
<polygon fill="white" stroke="#666666" points="558,-239 469,-239 469,-220 558,-220 558,-239"/>
<text text-anchor="middle" x="513.5" y="-227" font-family="Helvetica,sans-Serif" font-size="10.00">EventEmitter.h</text>
</a>
</g>
</g>
<!-- Node1&#45;&gt;Node3 -->
<g id="edge2_Node000001_Node000003" class="edge">
<title>Node1&#45;&gt;Node3</title>
<g id="a_edge2_Node000001_Node000003"><a xlink:title=" ">
<path fill="none" stroke="#63b8ff" d="M735.55,-273.77C684.53,-263.83 606.11,-248.55 557.41,-239.06"/>
<polygon fill="#63b8ff" stroke="#63b8ff" points="734.88,-277.2 745.37,-275.68 736.22,-270.33 734.88,-277.2"/>
</a>
</g>
</g>
<!-- Node20 -->
<g id="Node000020" class="node">
<title>Node20</title>
<g id="a_Node000020"><a xlink:href="_event_entity_8cpp.html" target="_top" xlink:title=" ">
<polygon fill="white" stroke="#666666" points="905.5,-239 813.5,-239 813.5,-220 905.5,-220 905.5,-239"/>
<text text-anchor="middle" x="859.5" y="-227" font-family="Helvetica,sans-Serif" font-size="10.00">EventEntity.cpp</text>
</a>
</g>
</g>
<!-- Node1&#45;&gt;Node20 -->
<g id="edge32_Node000001_Node000020" class="edge">
<title>Node1&#45;&gt;Node20</title>
<g id="a_edge32_Node000001_Node000020"><a xlink:title=" ">
<path fill="none" stroke="#63b8ff" d="M805.53,-269.15C818.91,-259.57 836.06,-247.29 847.39,-239.17"/>
<polygon fill="#63b8ff" stroke="#63b8ff" points="803.48,-266.32 797.39,-274.98 807.56,-272.01 803.48,-266.32"/>
</a>
</g>
</g>
<!-- Node3&#45;&gt;Node2 -->
<g id="edge14_Node000003_Node000002" class="edge">
<title>Node3&#45;&gt;Node2</title>
<g id="a_edge14_Node000003_Node000002"><a xlink:title=" ">
<path fill="none" stroke="#63b8ff" d="M546.51,-216.5C607.02,-194.49 734.31,-148.21 786.94,-129.07"/>
<polygon fill="#63b8ff" stroke="#63b8ff" points="545.26,-213.23 537.05,-219.94 547.65,-219.81 545.26,-213.23"/>
</a>
</g>
</g>
<!-- Node4 -->
<g id="Node000004" class="node">
<title>Node4</title>
<g id="a_Node000004"><a xlink:href="_date_8h.html" target="_top" xlink:title=" ">
<polygon fill="white" stroke="#666666" points="231,-129 182,-129 182,-110 231,-110 231,-129"/>
<text text-anchor="middle" x="206.5" y="-117" font-family="Helvetica,sans-Serif" font-size="10.00">Date.h</text>
</a>
</g>
</g>
<!-- Node3&#45;&gt;Node4 -->
<g id="edge3_Node000003_Node000004" class="edge">
<title>Node3&#45;&gt;Node4</title>
<g id="a_edge3_Node000003_Node000004"><a xlink:title=" ">
<path fill="none" stroke="#63b8ff" d="M480.67,-216.3C458.18,-207.74 427.78,-195.77 401.5,-184 384.27,-176.28 381.11,-171.83 363.5,-165 339.2,-155.58 268.72,-136.71 231,-126.84"/>
<polygon fill="#63b8ff" stroke="#63b8ff" points="479.5,-219.6 490.09,-219.87 481.98,-213.06 479.5,-219.6"/>
</a>
</g>
</g>
<!-- Node12 -->
<g id="Node000012" class="node">
<title>Node12</title>
<g id="a_Node000012"><a xlink:href="_event_emitter_8cpp.html" target="_top" xlink:title=" ">
<polygon fill="white" stroke="#666666" points="620.5,-184 520.5,-184 520.5,-165 620.5,-165 620.5,-184"/>
<text text-anchor="middle" x="570.5" y="-172" font-family="Helvetica,sans-Serif" font-size="10.00">EventEmitter.cpp</text>
</a>
</g>
</g>
<!-- Node3&#45;&gt;Node12 -->
<g id="edge15_Node000003_Node000012" class="edge">
<title>Node3&#45;&gt;Node12</title>
<g id="a_edge15_Node000003_Node000012"><a xlink:title=" ">
<path fill="none" stroke="#63b8ff" d="M530.12,-213.04C540.23,-203.64 552.78,-191.98 561.18,-184.17"/>
<polygon fill="#63b8ff" stroke="#63b8ff" points="527.6,-210.61 522.66,-219.98 532.36,-215.74 527.6,-210.61"/>
</a>
</g>
</g>
<!-- Node13 -->
<g id="Node000013" class="node">
<title>Node13</title>
<g id="a_Node000013"><a xlink:href="_event_listener_8h.html" target="_top" xlink:title=" ">
<polygon fill="white" stroke="#666666" points="502.5,-184 410.5,-184 410.5,-165 502.5,-165 502.5,-184"/>
<text text-anchor="middle" x="456.5" y="-172" font-family="Helvetica,sans-Serif" font-size="10.00">EventListener.h</text>
</a>
</g>
</g>
<!-- Node3&#45;&gt;Node13 -->
<g id="edge16_Node000003_Node000013" class="edge">
<title>Node3&#45;&gt;Node13</title>
<g id="a_edge16_Node000003_Node000013"><a xlink:title=" ">
<path fill="none" stroke="#63b8ff" d="M496.88,-213.04C486.77,-203.64 474.22,-191.98 465.82,-184.17"/>
<polygon fill="#63b8ff" stroke="#63b8ff" points="494.64,-215.74 504.34,-219.98 499.4,-210.61 494.64,-215.74"/>
</a>
</g>
</g>
<!-- Node19 -->
<g id="Node000019" class="node">
<title>Node19</title>
<g id="a_Node000019"><a xlink:href="_network_scheduler_8h.html" target="_top" xlink:title=" ">
<polygon fill="white" stroke="#666666" points="354.5,-184 240.5,-184 240.5,-165 354.5,-165 354.5,-184"/>
<text text-anchor="middle" x="297.5" y="-172" font-family="Helvetica,sans-Serif" font-size="10.00">NetworkScheduler.h</text>
</a>
</g>
</g>
<!-- Node3&#45;&gt;Node19 -->
<g id="edge29_Node000003_Node000019" class="edge">
<title>Node3&#45;&gt;Node19</title>
<g id="a_edge29_Node000003_Node000019"><a xlink:title=" ">
<path fill="none" stroke="#63b8ff" d="M468.93,-217.56C428.48,-207.64 369.63,-193.2 332.48,-184.08"/>
<polygon fill="#63b8ff" stroke="#63b8ff" points="468.25,-221 478.8,-219.98 469.92,-214.2 468.25,-221"/>
</a>
</g>
</g>
<!-- Node5 -->
<g id="Node000005" class="node">
<title>Node5</title>
<g id="a_Node000005"><a xlink:href="_app_kit_8h.html" target="_top" xlink:title=" ">
<polygon fill="white" stroke="#666666" points="352.5,-19 294.5,-19 294.5,0 352.5,0 352.5,-19"/>
<text text-anchor="middle" x="323.5" y="-7" font-family="Helvetica,sans-Serif" font-size="10.00">AppKit.h</text>
</a>
</g>
</g>
<!-- Node4&#45;&gt;Node5 -->
<g id="edge4_Node000004_Node000005" class="edge">
<title>Node4&#45;&gt;Node5</title>
<g id="a_edge4_Node000004_Node000005"><a xlink:title=" ">
<path fill="none" stroke="#63b8ff" d="M227.88,-104.22C239.72,-95.94 254.43,-84.99 266.5,-74 286.21,-56.04 306.39,-31.95 316.62,-19.22"/>
<polygon fill="#63b8ff" stroke="#63b8ff" points="225.74,-101.45 219.49,-109.99 229.71,-107.21 225.74,-101.45"/>
</a>
</g>
</g>
<!-- Node6 -->
<g id="Node000006" class="node">
<title>Node6</title>
<g id="a_Node000006"><a xlink:href="_lisp_device_8h.html" target="_top" xlink:title=" ">
<polygon fill="white" stroke="#666666" points="431,-74 352,-74 352,-55 431,-55 431,-74"/>
<text text-anchor="middle" x="391.5" y="-62" font-family="Helvetica,sans-Serif" font-size="10.00">LispDevice.h</text>
</a>
</g>
</g>
<!-- Node4&#45;&gt;Node6 -->
<g id="edge5_Node000004_Node000006" class="edge">
<title>Node4&#45;&gt;Node6</title>
<g id="a_edge5_Node000004_Node000006"><a xlink:title=" ">
<path fill="none" stroke="#63b8ff" d="M240.77,-108.68C275.46,-98.74 328.59,-83.52 361.62,-74.06"/>
<polygon fill="#63b8ff" stroke="#63b8ff" points="239.72,-105.34 231.07,-111.46 241.64,-112.07 239.72,-105.34"/>
</a>
</g>
</g>
<!-- Node7 -->
<g id="Node000007" class="node">
<title>Node7</title>
<g id="a_Node000007"><a xlink:href="_m_q_t_t_kit_8h.html" target="_top" xlink:title=" ">
<polygon fill="white" stroke="#666666" points="93.5,-74 25.5,-74 25.5,-55 93.5,-55 93.5,-74"/>
<text text-anchor="middle" x="59.5" y="-62" font-family="Helvetica,sans-Serif" font-size="10.00">MQTTKit.h</text>
</a>
</g>
</g>
<!-- Node4&#45;&gt;Node7 -->
<g id="edge7_Node000004_Node000007" class="edge">
<title>Node4&#45;&gt;Node7</title>
<g id="a_edge7_Node000004_Node000007"><a xlink:title=" ">
<path fill="none" stroke="#63b8ff" d="M173.36,-106.55C146.06,-96.71 108,-82.98 83.55,-74.17"/>
<polygon fill="#63b8ff" stroke="#63b8ff" points="172.29,-109.89 182.88,-109.98 174.66,-103.3 172.29,-109.89"/>
</a>
</g>
</g>
<!-- Node9 -->
<g id="Node000009" class="node">
<title>Node9</title>
<g id="a_Node000009"><a xlink:href="_top_device_8h.html" target="_top" xlink:title=" ">
<polygon fill="white" stroke="#666666" points="257.5,-74 181.5,-74 181.5,-55 257.5,-55 257.5,-74"/>
<text text-anchor="middle" x="219.5" y="-62" font-family="Helvetica,sans-Serif" font-size="10.00">TopDevice.h</text>
</a>
</g>
</g>
<!-- Node4&#45;&gt;Node9 -->
<g id="edge10_Node000004_Node000009" class="edge">
<title>Node4&#45;&gt;Node9</title>
<g id="a_edge10_Node000004_Node000009"><a xlink:title=" ">
<path fill="none" stroke="#63b8ff" d="M211.05,-99.95C213.21,-91.15 215.68,-81.06 217.39,-74.09"/>
<polygon fill="#63b8ff" stroke="#63b8ff" points="207.63,-99.2 208.65,-109.75 214.43,-100.87 207.63,-99.2"/>
</a>
</g>
</g>
<!-- Node10 -->
<g id="Node000010" class="node">
<title>Node10</title>
<g id="a_Node000010"><a xlink:href="_uniot_8h.html" target="_top" xlink:title=" ">
<polygon fill="white" stroke="#666666" points="163.5,-74 111.5,-74 111.5,-55 163.5,-55 163.5,-74"/>
<text text-anchor="middle" x="137.5" y="-62" font-family="Helvetica,sans-Serif" font-size="10.00">Uniot.h</text>
</a>
</g>
</g>
<!-- Node4&#45;&gt;Node10 -->
<g id="edge12_Node000004_Node000010" class="edge">
<title>Node4&#45;&gt;Node10</title>
<g id="a_edge12_Node000004_Node000010"><a xlink:title=" ">
<path fill="none" stroke="#63b8ff" d="M187.46,-103.88C175.04,-94.34 159.26,-82.21 148.79,-74.17"/>
<polygon fill="#63b8ff" stroke="#63b8ff" points="185.35,-106.67 195.41,-109.98 189.62,-101.12 185.35,-106.67"/>
</a>
</g>
</g>
<!-- Node6&#45;&gt;Node5 -->
<g id="edge6_Node000006_Node000005" class="edge">
<title>Node6&#45;&gt;Node5</title>
<g id="a_edge6_Node000006_Node000005"><a xlink:title=" ">
<path fill="none" stroke="#63b8ff" d="M372.38,-48.6C360.2,-39.11 344.84,-27.13 334.62,-19.17"/>
<polygon fill="#63b8ff" stroke="#63b8ff" points="370.54,-51.6 380.57,-54.98 374.84,-46.08 370.54,-51.6"/>
</a>
</g>
</g>
<!-- Node7&#45;&gt;Node5 -->
<g id="edge8_Node000007_Node000005" class="edge">
<title>Node7&#45;&gt;Node5</title>
<g id="a_edge8_Node000007_Node000005"><a xlink:title=" ">
<path fill="none" stroke="#63b8ff" d="M103.74,-54.62C157.86,-43.75 247.97,-25.66 294.19,-16.38"/>
<polygon fill="#63b8ff" stroke="#63b8ff" points="102.86,-51.23 93.74,-56.63 104.24,-58.09 102.86,-51.23"/>
</a>
</g>
</g>
<!-- Node8 -->
<g id="Node000008" class="node">
<title>Node8</title>
<g id="a_Node000008"><a xlink:href="_m_q_t_t_device_8cpp.html" target="_top" xlink:title=" ">
<polygon fill="white" stroke="#666666" points="99,-19 0,-19 0,0 99,0 99,-19"/>
<text text-anchor="middle" x="49.5" y="-7" font-family="Helvetica,sans-Serif" font-size="10.00">MQTTDevice.cpp</text>
</a>
</g>
</g>
<!-- Node7&#45;&gt;Node8 -->
<g id="edge9_Node000007_Node000008" class="edge">
<title>Node7&#45;&gt;Node8</title>
<g id="a_edge9_Node000007_Node000008"><a xlink:title=" ">
<path fill="none" stroke="#63b8ff" d="M55.95,-44.66C54.3,-35.93 52.42,-25.99 51.12,-19.09"/>
<polygon fill="#63b8ff" stroke="#63b8ff" points="52.56,-45.57 57.85,-54.75 59.43,-44.27 52.56,-45.57"/>
</a>
</g>
</g>
<!-- Node9&#45;&gt;Node5 -->
<g id="edge11_Node000009_Node000005" class="edge">
<title>Node9&#45;&gt;Node5</title>
<g id="a_edge11_Node000009_Node000005"><a xlink:title=" ">
<path fill="none" stroke="#63b8ff" d="M245.27,-50.37C264.37,-40.63 289.87,-27.64 306.49,-19.17"/>
<polygon fill="#63b8ff" stroke="#63b8ff" points="243.53,-47.33 236.21,-54.98 246.71,-53.56 243.53,-47.33"/>
</a>
</g>
</g>
<!-- Node11 -->
<g id="Node000011" class="node">
<title>Node11</title>
<g id="a_Node000011"><a xlink:href="_uniot_8cpp.html" target="_top" xlink:title=" ">
<polygon fill="white" stroke="#666666" points="180,-19 117,-19 117,0 180,0 180,-19"/>
<text text-anchor="middle" x="148.5" y="-7" font-family="Helvetica,sans-Serif" font-size="10.00">Uniot.cpp</text>
</a>
</g>
</g>
<!-- Node10&#45;&gt;Node11 -->
<g id="edge13_Node000010_Node000011" class="edge">
<title>Node10&#45;&gt;Node11</title>
<g id="a_edge13_Node000010_Node000011"><a xlink:title=" ">
<path fill="none" stroke="#63b8ff" d="M141.35,-44.95C143.18,-36.15 145.27,-26.06 146.72,-19.09"/>
<polygon fill="#63b8ff" stroke="#63b8ff" points="137.92,-44.25 139.32,-54.75 144.78,-45.67 137.92,-44.25"/>
</a>
</g>
</g>
<!-- Node13&#45;&gt;Node2 -->
<g id="edge20_Node000013_Node000002" class="edge">
<title>Node13&#45;&gt;Node2</title>
<g id="a_edge20_Node000013_Node000002"><a xlink:title=" ">
<path fill="none" stroke="#63b8ff" d="M512.64,-164.84C623.74,-148.33 653.17,-145.88 760.5,-129 763.2,-128.58 765.97,-128.13 768.77,-127.67"/>
<polygon fill="#63b8ff" stroke="#63b8ff" points="512.08,-161.39 502.71,-166.33 513.12,-168.31 512.08,-161.39"/>
</a>
</g>
</g>
<!-- Node13&#45;&gt;Node6 -->
<g id="edge22_Node000013_Node000006" class="edge">
<title>Node13&#45;&gt;Node6</title>
<g id="a_edge22_Node000013_Node000006"><a xlink:title=" ">
<path fill="none" stroke="#63b8ff" d="M437.24,-158.28C428.33,-150.37 418.25,-140.06 411.5,-129 400.66,-111.24 395.18,-87.06 392.88,-74.27"/>
<polygon fill="#63b8ff" stroke="#63b8ff" points="435.07,-161.02 444.96,-164.81 439.59,-155.68 435.07,-161.02"/>
</a>
</g>
</g>
<!-- Node13&#45;&gt;Node7 -->
<g id="edge23_Node000013_Node000007" class="edge">
<title>Node13&#45;&gt;Node7</title>
<g id="a_edge23_Node000013_Node000007"><a xlink:title=" ">
<path fill="none" stroke="#63b8ff" d="M400.31,-167.1C329.91,-158.66 213.51,-143.22 172.5,-129 132.95,-115.29 91.22,-87.98 71.36,-74.07"/>
<polygon fill="#63b8ff" stroke="#63b8ff" points="400.01,-170.59 410.35,-168.29 400.83,-163.63 400.01,-170.59"/>
</a>
</g>
</g>
<!-- Node14 -->
<g id="Node000014" class="node">
<title>Node14</title>
<g id="a_Node000014"><a xlink:href="_callback_event_listener_8h.html" target="_top" xlink:title=" ">
<polygon fill="white" stroke="#666666" points="629.5,-129 495.5,-129 495.5,-110 629.5,-110 629.5,-129"/>
<text text-anchor="middle" x="562.5" y="-117" font-family="Helvetica,sans-Serif" font-size="10.00">CallbackEventListener.h</text>
</a>
</g>
</g>
<!-- Node13&#45;&gt;Node14 -->
<g id="edge17_Node000013_Node000014" class="edge">
<title>Node13&#45;&gt;Node14</title>
<g id="a_edge17_Node000013_Node000014"><a xlink:title=" ">
<path fill="none" stroke="#63b8ff" d="M482.5,-160.5C502,-150.75 528.15,-137.68 545.16,-129.17"/>
<polygon fill="#63b8ff" stroke="#63b8ff" points="480.91,-157.38 473.53,-164.98 484.04,-163.64 480.91,-157.38"/>
</a>
</g>
</g>
<!-- Node16 -->
<g id="Node000016" class="node">
<title>Node16</title>
<g id="a_Node000016"><a xlink:href="_event_listener_8cpp.html" target="_top" xlink:title=" ">
<polygon fill="white" stroke="#666666" points="751,-129 648,-129 648,-110 751,-110 751,-129"/>
<text text-anchor="middle" x="699.5" y="-117" font-family="Helvetica,sans-Serif" font-size="10.00">EventListener.cpp</text>
</a>
</g>
</g>
<!-- Node13&#45;&gt;Node16 -->
<g id="edge21_Node000013_Node000016" class="edge">
<title>Node13&#45;&gt;Node16</title>
<g id="a_edge21_Node000013_Node000016"><a xlink:title=" ">
<path fill="none" stroke="#63b8ff" d="M505.49,-162.82C551.03,-152.88 618,-138.28 660.15,-129.08"/>
<polygon fill="#63b8ff" stroke="#63b8ff" points="504.57,-159.43 495.54,-164.98 506.06,-166.27 504.57,-159.43"/>
</a>
</g>
</g>
<!-- Node17 -->
<g id="Node000017" class="node">
<title>Node17</title>
<g id="a_Node000017"><a xlink:href="_network_controller_8h.html" target="_top" xlink:title=" ">
<polygon fill="white" stroke="#666666" points="363.5,-129 249.5,-129 249.5,-110 363.5,-110 363.5,-129"/>
<text text-anchor="middle" x="306.5" y="-117" font-family="Helvetica,sans-Serif" font-size="10.00">NetworkController.h</text>
</a>
</g>
</g>
<!-- Node13&#45;&gt;Node17 -->
<g id="edge24_Node000013_Node000017" class="edge">
<title>Node13&#45;&gt;Node17</title>
<g id="a_edge24_Node000013_Node000017"><a xlink:title=" ">
<path fill="none" stroke="#63b8ff" d="M422.68,-161.55C394.82,-151.71 355.99,-137.98 331.04,-129.17"/>
<polygon fill="#63b8ff" stroke="#63b8ff" points="421.81,-164.95 432.4,-164.98 424.14,-158.35 421.81,-164.95"/>
</a>
</g>
</g>
<!-- Node18 -->
<g id="Node000018" class="node">
<title>Node18</title>
<g id="a_Node000018"><a xlink:href="un_lisp_8h.html" target="_top" xlink:title=" ">
<polygon fill="white" stroke="#666666" points="477,-129 420,-129 420,-110 477,-110 477,-129"/>
<text text-anchor="middle" x="448.5" y="-117" font-family="Helvetica,sans-Serif" font-size="10.00">unLisp.h</text>
</a>
</g>
</g>
<!-- Node13&#45;&gt;Node18 -->
<g id="edge26_Node000013_Node000018" class="edge">
<title>Node13&#45;&gt;Node18</title>
<g id="a_edge26_Node000013_Node000018"><a xlink:title=" ">
<path fill="none" stroke="#63b8ff" d="M453.66,-154.66C452.34,-145.93 450.84,-135.99 449.8,-129.09"/>
<polygon fill="#63b8ff" stroke="#63b8ff" points="450.23,-155.38 455.18,-164.75 457.15,-154.34 450.23,-155.38"/>
</a>
</g>
</g>
<!-- Node14&#45;&gt;Node5 -->
<g id="edge18_Node000014_Node000005" class="edge">
<title>Node14&#45;&gt;Node5</title>
<g id="a_edge18_Node000014_Node000005"><a xlink:title=" ">
<path fill="none" stroke="#63b8ff" d="M542.05,-104.06C521.63,-90.12 488.97,-69.1 458.5,-55 423.34,-38.73 380.53,-25.68 352.68,-18.02"/>
<polygon fill="#63b8ff" stroke="#63b8ff" points="540.31,-107.11 550.52,-109.92 544.29,-101.35 540.31,-107.11"/>
</a>
</g>
</g>
<!-- Node15 -->
<g id="Node000015" class="node">
<title>Node15</title>
<g id="a_Node000015"><a xlink:href="_callback_event_listener_8cpp.html" target="_top" xlink:title=" ">
<polygon fill="white" stroke="#666666" points="671,-74 526,-74 526,-55 671,-55 671,-74"/>
<text text-anchor="middle" x="598.5" y="-62" font-family="Helvetica,sans-Serif" font-size="10.00">CallbackEventListener.cpp</text>
</a>
</g>
</g>
<!-- Node14&#45;&gt;Node15 -->
<g id="edge19_Node000014_Node000015" class="edge">
<title>Node14&#45;&gt;Node15</title>
<g id="a_edge19_Node000014_Node000015"><a xlink:title=" ">
<path fill="none" stroke="#63b8ff" d="M574.12,-101.39C580.32,-92.27 587.67,-81.45 592.67,-74.09"/>
<polygon fill="#63b8ff" stroke="#63b8ff" points="571.17,-99.51 568.44,-109.75 576.96,-103.44 571.17,-99.51"/>
</a>
</g>
</g>
<!-- Node17&#45;&gt;Node5 -->
<g id="edge25_Node000017_Node000005" class="edge">
<title>Node17&#45;&gt;Node5</title>
<g id="a_edge25_Node000017_Node000005"><a xlink:title=" ">
<path fill="none" stroke="#63b8ff" d="M309.49,-99.48C313.21,-75.84 319.41,-36.5 322.14,-19.16"/>
<polygon fill="#63b8ff" stroke="#63b8ff" points="305.99,-99.24 307.89,-109.66 312.9,-100.33 305.99,-99.24"/>
</a>
</g>
</g>
<!-- Node18&#45;&gt;Node5 -->
<g id="edge27_Node000018_Node000005" class="edge">
<title>Node18&#45;&gt;Node5</title>
<g id="a_edge27_Node000018_Node000005"><a xlink:title=" ">
<path fill="none" stroke="#63b8ff" d="M450.95,-99.37C451.65,-85.63 450.27,-67.42 440.5,-55 419.34,-28.09 379.93,-17.45 352.74,-13.24"/>
<polygon fill="#63b8ff" stroke="#63b8ff" points="447.44,-99.36 450.01,-109.63 454.41,-99.99 447.44,-99.36"/>
</a>
</g>
</g>
<!-- Node18&#45;&gt;Node6 -->
<g id="edge28_Node000018_Node000006" class="edge">
<title>Node18&#45;&gt;Node6</title>
<g id="a_edge28_Node000018_Node000006"><a xlink:title=" ">
<path fill="none" stroke="#63b8ff" d="M431.88,-103.04C421.77,-93.64 409.22,-81.98 400.82,-74.17"/>
<polygon fill="#63b8ff" stroke="#63b8ff" points="429.64,-105.74 439.34,-109.98 434.4,-100.61 429.64,-105.74"/>
</a>
</g>
</g>
<!-- Node19&#45;&gt;Node7 -->
<g id="edge30_Node000019_Node000007" class="edge">
<title>Node19&#45;&gt;Node7</title>
<g id="a_edge30_Node000019_Node000007"><a xlink:title=" ">
<path fill="none" stroke="#63b8ff" d="M230.12,-164.32C197.07,-157.81 157.59,-146.93 125.5,-129 99.96,-114.73 77.04,-88.17 66.16,-74.36"/>
<polygon fill="#63b8ff" stroke="#63b8ff" points="229.67,-167.8 240.15,-166.2 230.97,-160.92 229.67,-167.8"/>
</a>
</g>
</g>
<!-- Node19&#45;&gt;Node17 -->
<g id="edge31_Node000019_Node000017" class="edge">
<title>Node19&#45;&gt;Node17</title>
<g id="a_edge31_Node000019_Node000017"><a xlink:title=" ">
<path fill="none" stroke="#63b8ff" d="M300.7,-154.66C302.18,-145.93 303.87,-135.99 305.04,-129.09"/>
<polygon fill="#63b8ff" stroke="#63b8ff" points="297.21,-154.3 298.99,-164.75 304.11,-155.48 297.21,-154.3"/>
</a>
</g>
</g>
</g>
</svg>
