<?xml version="1.0" encoding="UTF-8" standalone="no"?>
<!DOCTYPE svg PUBLIC "-//W3C//DTD SVG 1.1//EN"
 "http://www.w3.org/Graphics/SVG/1.1/DTD/svg11.dtd">
<!-- Generated by graphviz version 2.43.0 (0)
 -->
<!-- Title: EventEmitter.h Pages: 1 -->
<svg width="580pt" height="247pt"
 viewBox="0.00 0.00 579.50 247.00" xmlns="http://www.w3.org/2000/svg" xmlns:xlink="http://www.w3.org/1999/xlink">
<g id="graph0" class="graph" transform="scale(1 1) rotate(0) translate(4 243)">
<title>EventEmitter.h</title>
<!-- Node1 -->
<g id="Node000001" class="node">
<title>Node1</title>
<g id="a_Node000001"><a xlink:title=" ">
<polygon fill="#999999" stroke="#666666" points="186,-239 97,-239 97,-220 186,-220 186,-239"/>
<text text-anchor="middle" x="141.5" y="-227" font-family="Helvetica,sans-Serif" font-size="10.00">EventEmitter.h</text>
</a>
</g>
</g>
<!-- Node2 -->
<g id="Node000002" class="node">
<title>Node2</title>
<g id="a_Node000002"><a xlink:href="_bytes_8h.html" target="_top" xlink:title=" ">
<polygon fill="white" stroke="#666666" points="331,-184 278,-184 278,-165 331,-165 331,-184"/>
<text text-anchor="middle" x="304.5" y="-172" font-family="Helvetica,sans-Serif" font-size="10.00">Bytes.h</text>
</a>
</g>
</g>
<!-- Node1&#45;&gt;Node2 -->
<g id="edge1_Node000001_Node000002" class="edge">
<title>Node1&#45;&gt;Node2</title>
<g id="a_edge1_Node000001_Node000002"><a xlink:title=" ">
<path fill="none" stroke="#63b8ff" d="M167.69,-219.98C194.94,-211.13 237.8,-197.19 268.28,-187.28"/>
<polygon fill="#63b8ff" stroke="#63b8ff" points="269.68,-190.5 278.11,-184.08 267.51,-183.85 269.68,-190.5"/>
</a>
</g>
</g>
<!-- Node11 -->
<g id="Node000011" class="node">
<title>Node11</title>
<g id="a_Node000011"><a xlink:href="_iterable_queue_8h.html" target="_top" xlink:title=" ">
<polygon fill="white" stroke="#666666" points="95,-129 0,-129 0,-110 95,-110 95,-129"/>
<text text-anchor="middle" x="47.5" y="-117" font-family="Helvetica,sans-Serif" font-size="10.00">IterableQueue.h</text>
</a>
</g>
</g>
<!-- Node1&#45;&gt;Node11 -->
<g id="edge10_Node000001_Node000011" class="edge">
<title>Node1&#45;&gt;Node11</title>
<g id="a_edge10_Node000001_Node000011"><a xlink:title=" ">
<path fill="none" stroke="#63b8ff" d="M130.75,-219.9C120.38,-211.36 104.54,-197.59 92.5,-184 79.52,-169.35 66.82,-150.95 58.24,-137.73"/>
<polygon fill="#63b8ff" stroke="#63b8ff" points="61.1,-135.71 52.78,-129.15 55.2,-139.47 61.1,-135.71"/>
</a>
</g>
</g>
<!-- Node13 -->
<g id="Node000013" class="node">
<title>Node13</title>
<g id="a_Node000013"><a xlink:href="_event_entity_8h.html" target="_top" xlink:title=" ">
<polygon fill="white" stroke="#666666" points="181.5,-184 101.5,-184 101.5,-165 181.5,-165 181.5,-184"/>
<text text-anchor="middle" x="141.5" y="-172" font-family="Helvetica,sans-Serif" font-size="10.00">EventEntity.h</text>
</a>
</g>
</g>
<!-- Node1&#45;&gt;Node13 -->
<g id="edge14_Node000001_Node000013" class="edge">
<title>Node1&#45;&gt;Node13</title>
<g id="a_edge14_Node000001_Node000013"><a xlink:title=" ">
<path fill="none" stroke="#63b8ff" d="M141.5,-219.75C141.5,-212.8 141.5,-202.85 141.5,-194.13"/>
<polygon fill="#63b8ff" stroke="#63b8ff" points="145,-194.09 141.5,-184.09 138,-194.09 145,-194.09"/>
</a>
</g>
</g>
<!-- Node3 -->
<g id="Node000003" class="node">
<title>Node3</title>
<g id="a_Node000003"><a xlink:href="_common_8h.html" target="_top" xlink:title=" ">
<polygon fill="white" stroke="#666666" points="542.5,-129 472.5,-129 472.5,-110 542.5,-110 542.5,-129"/>
<text text-anchor="middle" x="507.5" y="-117" font-family="Helvetica,sans-Serif" font-size="10.00">Common.h</text>
</a>
</g>
</g>
<!-- Node2&#45;&gt;Node3 -->
<g id="edge2_Node000002_Node000003" class="edge">
<title>Node2&#45;&gt;Node3</title>
<g id="a_edge2_Node000002_Node000003"><a xlink:title=" ">
<path fill="none" stroke="#63b8ff" d="M331.04,-166.57C365.12,-157.67 424.68,-142.12 465.08,-131.57"/>
<polygon fill="#63b8ff" stroke="#63b8ff" points="466.12,-134.92 474.91,-129.01 464.35,-128.15 466.12,-134.92"/>
</a>
</g>
</g>
<!-- Node6 -->
<g id="Node000006" class="node">
<title>Node6</title>
<g id="a_Node000006"><a xlink:href="_logger_8h.html" target="_top" xlink:title=" ">
<polygon fill="white" stroke="#666666" points="246.5,-129 188.5,-129 188.5,-110 246.5,-110 246.5,-129"/>
<text text-anchor="middle" x="217.5" y="-117" font-family="Helvetica,sans-Serif" font-size="10.00">Logger.h</text>
</a>
</g>
</g>
<!-- Node2&#45;&gt;Node6 -->
<g id="edge5_Node000002_Node000006" class="edge">
<title>Node2&#45;&gt;Node6</title>
<g id="a_edge5_Node000002_Node000006"><a xlink:title=" ">
<path fill="none" stroke="#63b8ff" d="M290.52,-164.98C277.03,-156.77 256.37,-144.18 240.46,-134.49"/>
<polygon fill="#63b8ff" stroke="#63b8ff" points="242.09,-131.38 231.73,-129.17 238.45,-137.36 242.09,-131.38"/>
</a>
</g>
</g>
<!-- Node8 -->
<g id="Node000008" class="node">
<title>Node8</title>
<g id="a_Node000008"><a xlink:title=" ">
<polygon fill="#e0e0e0" stroke="#999999" points="366.5,-129 302.5,-129 302.5,-110 366.5,-110 366.5,-129"/>
<text text-anchor="middle" x="334.5" y="-117" font-family="Helvetica,sans-Serif" font-size="10.00">WString.h</text>
</a>
</g>
</g>
<!-- Node2&#45;&gt;Node8 -->
<g id="edge7_Node000002_Node000008" class="edge">
<title>Node2&#45;&gt;Node8</title>
<g id="a_edge7_Node000002_Node000008"><a xlink:title=" ">
<path fill="none" stroke="#63b8ff" d="M309.45,-164.75C313.56,-157.49 319.53,-146.95 324.6,-137.98"/>
<polygon fill="#63b8ff" stroke="#63b8ff" points="327.76,-139.52 329.64,-129.09 321.67,-136.07 327.76,-139.52"/>
</a>
</g>
</g>
<!-- Node9 -->
<g id="Node000009" class="node">
<title>Node9</title>
<g id="a_Node000009"><a xlink:title=" ">
<polygon fill="#e0e0e0" stroke="#999999" points="295,-19 230,-19 230,0 295,0 295,-19"/>
<text text-anchor="middle" x="262.5" y="-7" font-family="Helvetica,sans-Serif" font-size="10.00">functional</text>
</a>
</g>
</g>
<!-- Node2&#45;&gt;Node9 -->
<g id="edge8_Node000002_Node000009" class="edge">
<title>Node2&#45;&gt;Node9</title>
<g id="a_edge8_Node000002_Node000009"><a xlink:title=" ">
<path fill="none" stroke="#63b8ff" d="M302.24,-164.74C295.66,-139.2 276.4,-64.43 267.33,-29.23"/>
<polygon fill="#63b8ff" stroke="#63b8ff" points="270.65,-28.12 264.77,-19.31 263.88,-29.86 270.65,-28.12"/>
</a>
</g>
</g>
<!-- Node10 -->
<g id="Node000010" class="node">
<title>Node10</title>
<g id="a_Node000010"><a xlink:title=" ">
<polygon fill="#e0e0e0" stroke="#999999" points="454,-129 385,-129 385,-110 454,-110 454,-129"/>
<text text-anchor="middle" x="419.5" y="-117" font-family="Helvetica,sans-Serif" font-size="10.00">type_traits</text>
</a>
</g>
</g>
<!-- Node2&#45;&gt;Node10 -->
<g id="edge9_Node000002_Node000010" class="edge">
<title>Node2&#45;&gt;Node10</title>
<g id="a_edge9_Node000002_Node000010"><a xlink:title=" ">
<path fill="none" stroke="#63b8ff" d="M322.98,-164.98C341.48,-156.46 370.18,-143.23 391.48,-133.41"/>
<polygon fill="#63b8ff" stroke="#63b8ff" points="393.07,-136.53 400.69,-129.17 390.14,-130.18 393.07,-136.53"/>
</a>
</g>
</g>
<!-- Node4 -->
<g id="Node000004" class="node">
<title>Node4</title>
<g id="a_Node000004"><a xlink:title=" ">
<polygon fill="#e0e0e0" stroke="#999999" points="571.5,-74 513.5,-74 513.5,-55 571.5,-55 571.5,-74"/>
<text text-anchor="middle" x="542.5" y="-62" font-family="Helvetica,sans-Serif" font-size="10.00">memory</text>
</a>
</g>
</g>
<!-- Node3&#45;&gt;Node4 -->
<g id="edge3_Node000003_Node000004" class="edge">
<title>Node3&#45;&gt;Node4</title>
<g id="a_edge3_Node000003_Node000004"><a xlink:title=" ">
<path fill="none" stroke="#63b8ff" d="M513.28,-109.75C518.12,-102.42 525.18,-91.73 531.14,-82.7"/>
<polygon fill="#63b8ff" stroke="#63b8ff" points="534.24,-84.36 536.83,-74.09 528.4,-80.5 534.24,-84.36"/>
</a>
</g>
</g>
<!-- Node5 -->
<g id="Node000005" class="node">
<title>Node5</title>
<g id="a_Node000005"><a xlink:title=" ">
<polygon fill="#e0e0e0" stroke="#999999" points="495,-74 450,-74 450,-55 495,-55 495,-74"/>
<text text-anchor="middle" x="472.5" y="-62" font-family="Helvetica,sans-Serif" font-size="10.00">utility</text>
</a>
</g>
</g>
<!-- Node3&#45;&gt;Node5 -->
<g id="edge4_Node000003_Node000005" class="edge">
<title>Node3&#45;&gt;Node5</title>
<g id="a_edge4_Node000003_Node000005"><a xlink:title=" ">
<path fill="none" stroke="#63b8ff" d="M501.72,-109.75C496.88,-102.42 489.82,-91.73 483.86,-82.7"/>
<polygon fill="#63b8ff" stroke="#63b8ff" points="486.6,-80.5 478.17,-74.09 480.76,-84.36 486.6,-80.5"/>
</a>
</g>
</g>
<!-- Node7 -->
<g id="Node000007" class="node">
<title>Node7</title>
<g id="a_Node000007"><a xlink:title=" ">
<polygon fill="#e0e0e0" stroke="#999999" points="201,-19 138,-19 138,0 201,0 201,-19"/>
<text text-anchor="middle" x="169.5" y="-7" font-family="Helvetica,sans-Serif" font-size="10.00">Arduino.h</text>
</a>
</g>
</g>
<!-- Node6&#45;&gt;Node7 -->
<g id="edge6_Node000006_Node000007" class="edge">
<title>Node6&#45;&gt;Node7</title>
<g id="a_edge6_Node000006_Node000007"><a xlink:title=" ">
<path fill="none" stroke="#63b8ff" d="M215.68,-109.58C212.94,-97.02 207.12,-73.58 198.5,-55 194.05,-45.4 187.76,-35.46 182.17,-27.41"/>
<polygon fill="#63b8ff" stroke="#63b8ff" points="184.98,-25.33 176.3,-19.26 179.3,-29.42 184.98,-25.33"/>
</a>
</g>
</g>
<!-- Node12 -->
<g id="Node000012" class="node">
<title>Node12</title>
<g id="a_Node000012"><a xlink:href="_clear_queue_8h.html" target="_top" xlink:title=" ">
<polygon fill="white" stroke="#666666" points="189,-74 106,-74 106,-55 189,-55 189,-74"/>
<text text-anchor="middle" x="147.5" y="-62" font-family="Helvetica,sans-Serif" font-size="10.00">ClearQueue.h</text>
</a>
</g>
</g>
<!-- Node11&#45;&gt;Node12 -->
<g id="edge11_Node000011_Node000012" class="edge">
<title>Node11&#45;&gt;Node12</title>
<g id="a_edge11_Node000011_Node000012"><a xlink:title=" ">
<path fill="none" stroke="#63b8ff" d="M63.57,-109.98C79.36,-101.61 103.72,-88.7 122.13,-78.95"/>
<polygon fill="#63b8ff" stroke="#63b8ff" points="123.94,-81.95 131.14,-74.17 120.67,-75.76 123.94,-81.95"/>
</a>
</g>
</g>
<!-- Node12&#45;&gt;Node7 -->
<g id="edge12_Node000012_Node000007" class="edge">
<title>Node12&#45;&gt;Node7</title>
<g id="a_edge12_Node000012_Node000007"><a xlink:title=" ">
<path fill="none" stroke="#63b8ff" d="M151.13,-54.75C154.08,-47.65 158.33,-37.4 162.01,-28.56"/>
<polygon fill="#63b8ff" stroke="#63b8ff" points="165.33,-29.67 165.93,-19.09 158.87,-26.98 165.33,-29.67"/>
</a>
</g>
</g>
<!-- Node12&#45;&gt;Node9 -->
<g id="edge13_Node000012_Node000009" class="edge">
<title>Node12&#45;&gt;Node9</title>
<g id="a_edge13_Node000012_Node000009"><a xlink:title=" ">
<path fill="none" stroke="#63b8ff" d="M165.98,-54.98C184.48,-46.46 213.18,-33.23 234.48,-23.41"/>
<polygon fill="#63b8ff" stroke="#63b8ff" points="236.07,-26.53 243.69,-19.17 233.14,-20.18 236.07,-26.53"/>
</a>
</g>
</g>
<!-- Node13&#45;&gt;Node6 -->
<g id="edge16_Node000013_Node000006" class="edge">
<title>Node13&#45;&gt;Node6</title>
<g id="a_edge16_Node000013_Node000006"><a xlink:title=" ">
<path fill="none" stroke="#63b8ff" d="M153.71,-164.98C165.28,-156.92 182.88,-144.65 196.66,-135.03"/>
<polygon fill="#63b8ff" stroke="#63b8ff" points="198.87,-137.76 205.07,-129.17 194.86,-132.02 198.87,-137.76"/>
</a>
</g>
</g>
<!-- Node13&#45;&gt;Node11 -->
<g id="edge15_Node000013_Node000011" class="edge">
<title>Node13&#45;&gt;Node11</title>
<g id="a_edge15_Node000013_Node000011"><a xlink:title=" ">
<path fill="none" stroke="#63b8ff" d="M126.4,-164.98C111.68,-156.69 89.08,-143.94 71.83,-134.22"/>
<polygon fill="#63b8ff" stroke="#63b8ff" points="73.31,-131.03 62.88,-129.17 69.87,-137.13 73.31,-131.03"/>
</a>
</g>
</g>
<!-- Node14 -->
<g id="Node000014" class="node">
<title>Node14</title>
<g id="a_Node000014"><a xlink:href="_type_id_8h.html" target="_top" xlink:title=" ">
<polygon fill="white" stroke="#666666" points="170,-129 113,-129 113,-110 170,-110 170,-129"/>
<text text-anchor="middle" x="141.5" y="-117" font-family="Helvetica,sans-Serif" font-size="10.00">TypeId.h</text>
</a>
</g>
</g>
<!-- Node13&#45;&gt;Node14 -->
<g id="edge17_Node000013_Node000014" class="edge">
<title>Node13&#45;&gt;Node14</title>
<g id="a_edge17_Node000013_Node000014"><a xlink:title=" ">
<path fill="none" stroke="#63b8ff" d="M141.5,-164.75C141.5,-157.8 141.5,-147.85 141.5,-139.13"/>
<polygon fill="#63b8ff" stroke="#63b8ff" points="145,-139.09 141.5,-129.09 138,-139.09 145,-139.09"/>
</a>
</g>
</g>
</g>
</svg>
