<?xml version="1.0" encoding="UTF-8" standalone="no"?>
<!DOCTYPE svg PUBLIC "-//W3C//DTD SVG 1.1//EN"
 "http://www.w3.org/Graphics/SVG/1.1/DTD/svg11.dtd">
<!-- Generated by graphviz version 2.43.0 (0)
 -->
<!-- Title: IExecutor.h Pages: 1 -->
<svg width="1187pt" height="247pt"
 viewBox="0.00 0.00 1186.94 247.00" xmlns="http://www.w3.org/2000/svg" xmlns:xlink="http://www.w3.org/1999/xlink">
<g id="graph0" class="graph" transform="scale(1 1) rotate(0) translate(4 243)">
<title>IExecutor.h</title>
<!-- Node1 -->
<g id="Node000001" class="node">
<title>Node1</title>
<g id="a_Node000001"><a xlink:title=" ">
<polygon fill="#999999" stroke="#666666" points="405.44,-239 335.44,-239 335.44,-220 405.44,-220 405.44,-239"/>
<text text-anchor="middle" x="370.44" y="-227" font-family="Helvetica,sans-Serif" font-size="10.00">IExecutor.h</text>
</a>
</g>
</g>
<!-- Node2 -->
<g id="Node000002" class="node">
<title>Node2</title>
<g id="a_Node000002"><a xlink:href="_button_8h.html" target="_top" xlink:title=" ">
<polygon fill="white" stroke="#666666" points="395.44,-129 337.44,-129 337.44,-110 395.44,-110 395.44,-129"/>
<text text-anchor="middle" x="366.44" y="-117" font-family="Helvetica,sans-Serif" font-size="10.00">Button.h</text>
</a>
</g>
</g>
<!-- Node1&#45;&gt;Node2 -->
<g id="edge1_Node000001_Node000002" class="edge">
<title>Node1&#45;&gt;Node2</title>
<g id="a_edge1_Node000001_Node000002"><a xlink:title=" ">
<path fill="none" stroke="#63b8ff" d="M369.73,-209.48C368.86,-185.84 367.4,-146.5 366.76,-129.16"/>
<polygon fill="#63b8ff" stroke="#63b8ff" points="366.24,-209.8 370.11,-219.66 373.24,-209.54 366.24,-209.8"/>
</a>
</g>
</g>
<!-- Node6 -->
<g id="Node000006" class="node">
<title>Node6</title>
<g id="a_Node000006"><a xlink:href="_config_captive_portal_8h.html" target="_top" xlink:title=" ">
<polygon fill="white" stroke="#666666" points="524.44,-184 402.44,-184 402.44,-165 524.44,-165 524.44,-184"/>
<text text-anchor="middle" x="463.44" y="-172" font-family="Helvetica,sans-Serif" font-size="10.00">ConfigCaptivePortal.h</text>
</a>
</g>
</g>
<!-- Node1&#45;&gt;Node6 -->
<g id="edge6_Node000001_Node000006" class="edge">
<title>Node1&#45;&gt;Node6</title>
<g id="a_edge6_Node000001_Node000006"><a xlink:title=" ">
<path fill="none" stroke="#63b8ff" d="M394.19,-214.97C411.19,-205.28 433.57,-192.52 448.22,-184.17"/>
<polygon fill="#63b8ff" stroke="#63b8ff" points="392.33,-211.99 385.38,-219.98 395.8,-218.07 392.33,-211.99"/>
</a>
</g>
</g>
<!-- Node10 -->
<g id="Node000010" class="node">
<title>Node10</title>
<g id="a_Node000010"><a xlink:href="_date_8h.html" target="_top" xlink:title=" ">
<polygon fill="white" stroke="#666666" points="158.94,-184 109.94,-184 109.94,-165 158.94,-165 158.94,-184"/>
<text text-anchor="middle" x="134.44" y="-172" font-family="Helvetica,sans-Serif" font-size="10.00">Date.h</text>
</a>
</g>
</g>
<!-- Node1&#45;&gt;Node10 -->
<g id="edge12_Node000001_Node000010" class="edge">
<title>Node1&#45;&gt;Node10</title>
<g id="a_edge12_Node000001_Node000010"><a xlink:title=" ">
<path fill="none" stroke="#63b8ff" d="M325.58,-218.43C276.21,-207.34 198.64,-189.92 159.22,-181.06"/>
<polygon fill="#63b8ff" stroke="#63b8ff" points="324.84,-221.85 335.36,-220.62 326.37,-215.02 324.84,-221.85"/>
</a>
</g>
</g>
<!-- Node15 -->
<g id="Node000015" class="node">
<title>Node15</title>
<g id="a_Node000015"><a xlink:href="_event_bus_8h.html" target="_top" xlink:title=" ">
<polygon fill="white" stroke="#666666" points="702.94,-184 631.94,-184 631.94,-165 702.94,-165 702.94,-184"/>
<text text-anchor="middle" x="667.44" y="-172" font-family="Helvetica,sans-Serif" font-size="10.00">EventBus.h</text>
</a>
</g>
</g>
<!-- Node1&#45;&gt;Node15 -->
<g id="edge21_Node000001_Node000015" class="edge">
<title>Node1&#45;&gt;Node15</title>
<g id="a_edge21_Node000001_Node000015"><a xlink:title=" ">
<path fill="none" stroke="#63b8ff" d="M415.87,-220.39C475.17,-209.81 577.76,-191.5 631.78,-181.86"/>
<polygon fill="#63b8ff" stroke="#63b8ff" points="414.9,-217.01 405.67,-222.21 416.13,-223.9 414.9,-217.01"/>
</a>
</g>
</g>
<!-- Node21 -->
<g id="Node000021" class="node">
<title>Node21</title>
<g id="a_Node000021"><a xlink:href="_task_scheduler_8h.html" target="_top" xlink:title=" ">
<polygon fill="white" stroke="#666666" points="341.94,-184 246.94,-184 246.94,-165 341.94,-165 341.94,-184"/>
<text text-anchor="middle" x="294.44" y="-172" font-family="Helvetica,sans-Serif" font-size="10.00">TaskScheduler.h</text>
</a>
</g>
</g>
<!-- Node1&#45;&gt;Node21 -->
<g id="edge32_Node000001_Node000021" class="edge">
<title>Node1&#45;&gt;Node21</title>
<g id="a_edge32_Node000001_Node000021"><a xlink:title=" ">
<path fill="none" stroke="#63b8ff" d="M349.86,-214.15C336.13,-204.57 318.51,-192.29 306.87,-184.17"/>
<polygon fill="#63b8ff" stroke="#63b8ff" points="348.02,-217.14 358.23,-219.98 352.03,-211.39 348.02,-217.14"/>
</a>
</g>
</g>
<!-- Node3 -->
<g id="Node000003" class="node">
<title>Node3</title>
<g id="a_Node000003"><a xlink:href="_lisp_primitives_8h.html" target="_top" xlink:title=" ">
<polygon fill="white" stroke="#666666" points="440.94,-74 345.94,-74 345.94,-55 440.94,-55 440.94,-74"/>
<text text-anchor="middle" x="393.44" y="-62" font-family="Helvetica,sans-Serif" font-size="10.00">LispPrimitives.h</text>
</a>
</g>
</g>
<!-- Node2&#45;&gt;Node3 -->
<g id="edge2_Node000002_Node000003" class="edge">
<title>Node2&#45;&gt;Node3</title>
<g id="a_edge2_Node000002_Node000003"><a xlink:title=" ">
<path fill="none" stroke="#63b8ff" d="M375.45,-100.82C380.03,-91.82 385.39,-81.29 389.06,-74.09"/>
<polygon fill="#63b8ff" stroke="#63b8ff" points="372.32,-99.25 370.9,-109.75 378.55,-102.43 372.32,-99.25"/>
</a>
</g>
</g>
<!-- Node5 -->
<g id="Node000005" class="node">
<title>Node5</title>
<g id="a_Node000005"><a xlink:href="_network_controller_8h.html" target="_top" xlink:title=" ">
<polygon fill="white" stroke="#666666" points="573.44,-74 459.44,-74 459.44,-55 573.44,-55 573.44,-74"/>
<text text-anchor="middle" x="516.44" y="-62" font-family="Helvetica,sans-Serif" font-size="10.00">NetworkController.h</text>
</a>
</g>
</g>
<!-- Node2&#45;&gt;Node5 -->
<g id="edge4_Node000002_Node000005" class="edge">
<title>Node2&#45;&gt;Node5</title>
<g id="a_edge4_Node000002_Node000005"><a xlink:title=" ">
<path fill="none" stroke="#63b8ff" d="M400.26,-106.55C428.11,-96.71 466.95,-82.98 491.9,-74.17"/>
<polygon fill="#63b8ff" stroke="#63b8ff" points="398.8,-103.35 390.54,-109.98 401.13,-109.95 398.8,-103.35"/>
</a>
</g>
</g>
<!-- Node4 -->
<g id="Node000004" class="node">
<title>Node4</title>
<g id="a_Node000004"><a xlink:href="_app_kit_8h.html" target="_top" xlink:title=" ">
<polygon fill="white" stroke="#666666" points="273.44,-19 215.44,-19 215.44,0 273.44,0 273.44,-19"/>
<text text-anchor="middle" x="244.44" y="-7" font-family="Helvetica,sans-Serif" font-size="10.00">AppKit.h</text>
</a>
</g>
</g>
<!-- Node3&#45;&gt;Node4 -->
<g id="edge3_Node000003_Node000004" class="edge">
<title>Node3&#45;&gt;Node4</title>
<g id="a_edge3_Node000003_Node000004"><a xlink:title=" ">
<path fill="none" stroke="#63b8ff" d="M359.84,-51.55C332.17,-41.71 293.59,-27.98 268.81,-19.17"/>
<polygon fill="#63b8ff" stroke="#63b8ff" points="358.9,-54.93 369.5,-54.98 361.25,-48.34 358.9,-54.93"/>
</a>
</g>
</g>
<!-- Node5&#45;&gt;Node4 -->
<g id="edge5_Node000005_Node000004" class="edge">
<title>Node5&#45;&gt;Node4</title>
<g id="a_edge5_Node000005_Node000004"><a xlink:title=" ">
<path fill="none" stroke="#63b8ff" d="M459.92,-53.13C412.68,-44.36 343.58,-31.3 283.44,-19 280.31,-18.36 277.05,-17.68 273.81,-16.99"/>
<polygon fill="#63b8ff" stroke="#63b8ff" points="459.48,-56.61 469.95,-54.99 460.75,-49.72 459.48,-56.61"/>
</a>
</g>
</g>
<!-- Node7 -->
<g id="Node000007" class="node">
<title>Node7</title>
<g id="a_Node000007"><a xlink:href="_network_scheduler_8h.html" target="_top" xlink:title=" ">
<polygon fill="white" stroke="#666666" points="527.44,-129 413.44,-129 413.44,-110 527.44,-110 527.44,-129"/>
<text text-anchor="middle" x="470.44" y="-117" font-family="Helvetica,sans-Serif" font-size="10.00">NetworkScheduler.h</text>
</a>
</g>
</g>
<!-- Node6&#45;&gt;Node7 -->
<g id="edge7_Node000006_Node000007" class="edge">
<title>Node6&#45;&gt;Node7</title>
<g id="a_edge7_Node000006_Node000007"><a xlink:title=" ">
<path fill="none" stroke="#63b8ff" d="M465.93,-154.66C467.08,-145.93 468.39,-135.99 469.3,-129.09"/>
<polygon fill="#63b8ff" stroke="#63b8ff" points="462.43,-154.38 464.59,-164.75 469.37,-155.29 462.43,-154.38"/>
</a>
</g>
</g>
<!-- Node7&#45;&gt;Node5 -->
<g id="edge11_Node000007_Node000005" class="edge">
<title>Node7&#45;&gt;Node5</title>
<g id="a_edge11_Node000007_Node000005"><a xlink:title=" ">
<path fill="none" stroke="#63b8ff" d="M484.8,-101.96C492.81,-92.72 502.46,-81.6 508.98,-74.09"/>
<polygon fill="#63b8ff" stroke="#63b8ff" points="481.94,-99.9 478.03,-109.75 487.23,-104.49 481.94,-99.9"/>
</a>
</g>
</g>
<!-- Node8 -->
<g id="Node000008" class="node">
<title>Node8</title>
<g id="a_Node000008"><a xlink:href="_m_q_t_t_kit_8h.html" target="_top" xlink:title=" ">
<polygon fill="white" stroke="#666666" points="327.44,-74 259.44,-74 259.44,-55 327.44,-55 327.44,-74"/>
<text text-anchor="middle" x="293.44" y="-62" font-family="Helvetica,sans-Serif" font-size="10.00">MQTTKit.h</text>
</a>
</g>
</g>
<!-- Node7&#45;&gt;Node8 -->
<g id="edge8_Node000007_Node000008" class="edge">
<title>Node7&#45;&gt;Node8</title>
<g id="a_edge8_Node000007_Node000008"><a xlink:title=" ">
<path fill="none" stroke="#63b8ff" d="M432.22,-107.06C399.14,-97.15 352.03,-83.04 322.1,-74.08"/>
<polygon fill="#63b8ff" stroke="#63b8ff" points="431.42,-110.47 442,-109.98 433.42,-103.76 431.42,-110.47"/>
</a>
</g>
</g>
<!-- Node8&#45;&gt;Node4 -->
<g id="edge9_Node000008_Node000004" class="edge">
<title>Node8&#45;&gt;Node4</title>
<g id="a_edge9_Node000008_Node000004"><a xlink:title=" ">
<path fill="none" stroke="#63b8ff" d="M278.4,-47.24C269.81,-37.95 259.39,-26.68 252.38,-19.09"/>
<polygon fill="#63b8ff" stroke="#63b8ff" points="275.99,-49.78 285.35,-54.75 281.13,-45.03 275.99,-49.78"/>
</a>
</g>
</g>
<!-- Node9 -->
<g id="Node000009" class="node">
<title>Node9</title>
<g id="a_Node000009"><a xlink:href="_m_q_t_t_device_8cpp.html" target="_top" xlink:title=" ">
<polygon fill="white" stroke="#666666" points="390.94,-19 291.94,-19 291.94,0 390.94,0 390.94,-19"/>
<text text-anchor="middle" x="341.44" y="-7" font-family="Helvetica,sans-Serif" font-size="10.00">MQTTDevice.cpp</text>
</a>
</g>
</g>
<!-- Node8&#45;&gt;Node9 -->
<g id="edge10_Node000008_Node000009" class="edge">
<title>Node8&#45;&gt;Node9</title>
<g id="a_edge10_Node000008_Node000009"><a xlink:title=" ">
<path fill="none" stroke="#63b8ff" d="M308.16,-47.24C316.58,-37.95 326.79,-26.68 333.66,-19.09"/>
<polygon fill="#63b8ff" stroke="#63b8ff" points="305.48,-44.99 301.36,-54.75 310.67,-49.69 305.48,-44.99"/>
</a>
</g>
</g>
<!-- Node10&#45;&gt;Node4 -->
<g id="edge13_Node000010_Node000004" class="edge">
<title>Node10&#45;&gt;Node4</title>
<g id="a_edge13_Node000010_Node000004"><a xlink:title=" ">
<path fill="none" stroke="#63b8ff" d="M99.59,-172.1C69.16,-168.82 26.66,-158.77 5.44,-129 -8.91,-108.88 8.6,-68.86 24.44,-55 52.59,-30.36 162.26,-17.65 215.34,-12.83"/>
<polygon fill="#63b8ff" stroke="#63b8ff" points="99.52,-175.61 109.79,-173.01 100.14,-168.64 99.52,-175.61"/>
</a>
</g>
</g>
<!-- Node10&#45;&gt;Node8 -->
<g id="edge16_Node000010_Node000008" class="edge">
<title>Node10&#45;&gt;Node8</title>
<g id="a_edge16_Node000010_Node000008"><a xlink:title=" ">
<path fill="none" stroke="#63b8ff" d="M153.46,-158.7C170.66,-145.5 196.83,-125.87 220.44,-110 240.02,-96.84 263.44,-82.86 278.37,-74.16"/>
<polygon fill="#63b8ff" stroke="#63b8ff" points="151.12,-156.08 145.34,-164.96 155.4,-161.62 151.12,-156.08"/>
</a>
</g>
</g>
<!-- Node11 -->
<g id="Node000011" class="node">
<title>Node11</title>
<g id="a_Node000011"><a xlink:href="_lisp_device_8h.html" target="_top" xlink:title=" ">
<polygon fill="white" stroke="#666666" points="120.94,-74 41.94,-74 41.94,-55 120.94,-55 120.94,-74"/>
<text text-anchor="middle" x="81.44" y="-62" font-family="Helvetica,sans-Serif" font-size="10.00">LispDevice.h</text>
</a>
</g>
</g>
<!-- Node10&#45;&gt;Node11 -->
<g id="edge14_Node000010_Node000011" class="edge">
<title>Node10&#45;&gt;Node11</title>
<g id="a_edge14_Node000010_Node000011"><a xlink:title=" ">
<path fill="none" stroke="#63b8ff" d="M99.78,-171.29C71.1,-167.42 32.01,-156.97 12.44,-129 -3.62,-106.06 33.05,-85.28 58.84,-74.11"/>
<polygon fill="#63b8ff" stroke="#63b8ff" points="99.49,-174.78 109.82,-172.44 100.28,-167.83 99.49,-174.78"/>
</a>
</g>
</g>
<!-- Node12 -->
<g id="Node000012" class="node">
<title>Node12</title>
<g id="a_Node000012"><a xlink:href="_top_device_8h.html" target="_top" xlink:title=" ">
<polygon fill="white" stroke="#666666" points="97.44,-129 21.44,-129 21.44,-110 97.44,-110 97.44,-129"/>
<text text-anchor="middle" x="59.44" y="-117" font-family="Helvetica,sans-Serif" font-size="10.00">TopDevice.h</text>
</a>
</g>
</g>
<!-- Node10&#45;&gt;Node12 -->
<g id="edge17_Node000010_Node000012" class="edge">
<title>Node10&#45;&gt;Node12</title>
<g id="a_edge17_Node000010_Node000012"><a xlink:title=" ">
<path fill="none" stroke="#63b8ff" d="M114.13,-159.15C100.58,-149.57 83.19,-137.29 71.71,-129.17"/>
<polygon fill="#63b8ff" stroke="#63b8ff" points="112.2,-162.07 122.39,-164.98 116.24,-156.36 112.2,-162.07"/>
</a>
</g>
</g>
<!-- Node13 -->
<g id="Node000013" class="node">
<title>Node13</title>
<g id="a_Node000013"><a xlink:href="_uniot_8h.html" target="_top" xlink:title=" ">
<polygon fill="white" stroke="#666666" points="281.44,-129 229.44,-129 229.44,-110 281.44,-110 281.44,-129"/>
<text text-anchor="middle" x="255.44" y="-117" font-family="Helvetica,sans-Serif" font-size="10.00">Uniot.h</text>
</a>
</g>
</g>
<!-- Node10&#45;&gt;Node13 -->
<g id="edge19_Node000010_Node000013" class="edge">
<title>Node10&#45;&gt;Node13</title>
<g id="a_edge19_Node000010_Node000013"><a xlink:title=" ">
<path fill="none" stroke="#63b8ff" d="M163.21,-160.9C185.56,-151.11 215.96,-137.79 235.64,-129.17"/>
<polygon fill="#63b8ff" stroke="#63b8ff" points="161.63,-157.77 153.88,-164.98 164.44,-164.18 161.63,-157.77"/>
</a>
</g>
</g>
<!-- Node11&#45;&gt;Node4 -->
<g id="edge15_Node000011_Node000004" class="edge">
<title>Node11&#45;&gt;Node4</title>
<g id="a_edge15_Node000011_Node000004"><a xlink:title=" ">
<path fill="none" stroke="#63b8ff" d="M117.42,-51.8C147.84,-41.91 190.72,-27.97 218.04,-19.08"/>
<polygon fill="#63b8ff" stroke="#63b8ff" points="116.05,-48.56 107.63,-54.98 118.22,-55.22 116.05,-48.56"/>
</a>
</g>
</g>
<!-- Node12&#45;&gt;Node4 -->
<g id="edge18_Node000012_Node000004" class="edge">
<title>Node12&#45;&gt;Node4</title>
<g id="a_edge18_Node000012_Node000004"><a xlink:title=" ">
<path fill="none" stroke="#63b8ff" d="M43.72,-102.23C32.44,-88.54 21.06,-69.02 32.44,-55 55.13,-27.04 162.5,-16.01 215.17,-12.23"/>
<polygon fill="#63b8ff" stroke="#63b8ff" points="41.27,-104.74 50.53,-109.89 46.5,-100.09 41.27,-104.74"/>
</a>
</g>
</g>
<!-- Node14 -->
<g id="Node000014" class="node">
<title>Node14</title>
<g id="a_Node000014"><a xlink:href="_uniot_8cpp.html" target="_top" xlink:title=" ">
<polygon fill="white" stroke="#666666" points="240.94,-74 177.94,-74 177.94,-55 240.94,-55 240.94,-74"/>
<text text-anchor="middle" x="209.44" y="-62" font-family="Helvetica,sans-Serif" font-size="10.00">Uniot.cpp</text>
</a>
</g>
</g>
<!-- Node13&#45;&gt;Node14 -->
<g id="edge20_Node000013_Node000014" class="edge">
<title>Node13&#45;&gt;Node14</title>
<g id="a_edge20_Node000013_Node000014"><a xlink:title=" ">
<path fill="none" stroke="#63b8ff" d="M241.08,-101.96C233.06,-92.72 223.41,-81.6 216.89,-74.09"/>
<polygon fill="#63b8ff" stroke="#63b8ff" points="238.64,-104.49 247.84,-109.75 243.93,-99.9 238.64,-104.49"/>
</a>
</g>
</g>
<!-- Node15&#45;&gt;Node4 -->
<g id="edge22_Node000015_Node000004" class="edge">
<title>Node15&#45;&gt;Node4</title>
<g id="a_edge22_Node000015_Node000004"><a xlink:title=" ">
<path fill="none" stroke="#63b8ff" d="M684.3,-157.38C695.79,-144.36 707.43,-125.69 698.44,-110 674.36,-68.01 650.38,-70.25 604.44,-55 468.19,-9.77 425.09,-42.32 283.44,-19 280.29,-18.48 277.02,-17.88 273.76,-17.23"/>
<polygon fill="#63b8ff" stroke="#63b8ff" points="681.71,-155.03 677.34,-164.68 686.77,-159.86 681.71,-155.03"/>
</a>
</g>
</g>
<!-- Node15&#45;&gt;Node7 -->
<g id="edge30_Node000015_Node000007" class="edge">
<title>Node15&#45;&gt;Node7</title>
<g id="a_edge30_Node000015_Node000007"><a xlink:title=" ">
<path fill="none" stroke="#63b8ff" d="M625.85,-162.31C588.99,-152.39 535.94,-138.12 502.34,-129.08"/>
<polygon fill="#63b8ff" stroke="#63b8ff" points="625.22,-165.77 635.79,-164.98 627.04,-159.01 625.22,-165.77"/>
</a>
</g>
</g>
<!-- Node15&#45;&gt;Node13 -->
<g id="edge31_Node000015_Node000013" class="edge">
<title>Node15&#45;&gt;Node13</title>
<g id="a_edge31_Node000015_Node000013"><a xlink:title=" ">
<path fill="none" stroke="#63b8ff" d="M621.53,-167.6C534.92,-156.45 349.95,-132.66 281.56,-123.86"/>
<polygon fill="#63b8ff" stroke="#63b8ff" points="621.23,-171.08 631.6,-168.89 622.12,-164.14 621.23,-171.08"/>
</a>
</g>
</g>
<!-- Node16 -->
<g id="Node000016" class="node">
<title>Node16</title>
<g id="a_Node000016"><a xlink:href="_event_bus_8cpp.html" target="_top" xlink:title=" ">
<polygon fill="white" stroke="#666666" points="828.94,-129 745.94,-129 745.94,-110 828.94,-110 828.94,-129"/>
<text text-anchor="middle" x="787.44" y="-117" font-family="Helvetica,sans-Serif" font-size="10.00">EventBus.cpp</text>
</a>
</g>
</g>
<!-- Node15&#45;&gt;Node16 -->
<g id="edge23_Node000015_Node000016" class="edge">
<title>Node15&#45;&gt;Node16</title>
<g id="a_edge23_Node000015_Node000016"><a xlink:title=" ">
<path fill="none" stroke="#63b8ff" d="M695.97,-160.9C718.13,-151.11 748.29,-137.79 767.81,-129.17"/>
<polygon fill="#63b8ff" stroke="#63b8ff" points="694.45,-157.74 686.72,-164.98 697.28,-164.15 694.45,-157.74"/>
</a>
</g>
</g>
<!-- Node17 -->
<g id="Node000017" class="node">
<title>Node17</title>
<g id="a_Node000017"><a xlink:href="_event_emitter_8cpp.html" target="_top" xlink:title=" ">
<polygon fill="white" stroke="#666666" points="947.44,-129 847.44,-129 847.44,-110 947.44,-110 947.44,-129"/>
<text text-anchor="middle" x="897.44" y="-117" font-family="Helvetica,sans-Serif" font-size="10.00">EventEmitter.cpp</text>
</a>
</g>
</g>
<!-- Node15&#45;&gt;Node17 -->
<g id="edge24_Node000015_Node000017" class="edge">
<title>Node15&#45;&gt;Node17</title>
<g id="a_edge24_Node000015_Node000017"><a xlink:title=" ">
<path fill="none" stroke="#63b8ff" d="M713.09,-162.98C756.33,-153.02 820.43,-138.25 860.52,-129.01"/>
<polygon fill="#63b8ff" stroke="#63b8ff" points="712.08,-159.62 703.12,-165.28 713.65,-166.44 712.08,-159.62"/>
</a>
</g>
</g>
<!-- Node18 -->
<g id="Node000018" class="node">
<title>Node18</title>
<g id="a_Node000018"><a xlink:href="_event_entity_8cpp.html" target="_top" xlink:title=" ">
<polygon fill="white" stroke="#666666" points="1057.44,-129 965.44,-129 965.44,-110 1057.44,-110 1057.44,-129"/>
<text text-anchor="middle" x="1011.44" y="-117" font-family="Helvetica,sans-Serif" font-size="10.00">EventEntity.cpp</text>
</a>
</g>
</g>
<!-- Node15&#45;&gt;Node18 -->
<g id="edge25_Node000015_Node000018" class="edge">
<title>Node15&#45;&gt;Node18</title>
<g id="a_edge25_Node000015_Node000018"><a xlink:title=" ">
<path fill="none" stroke="#63b8ff" d="M713.15,-166.47C770.12,-157.7 870.48,-142.26 956.44,-129 959.3,-128.56 962.25,-128.1 965.22,-127.64"/>
<polygon fill="#63b8ff" stroke="#63b8ff" points="712.38,-163.05 703.03,-168.03 713.45,-169.96 712.38,-163.05"/>
</a>
</g>
</g>
<!-- Node19 -->
<g id="Node000019" class="node">
<title>Node19</title>
<g id="a_Node000019"><a xlink:href="_event_listener_8cpp.html" target="_top" xlink:title=" ">
<polygon fill="white" stroke="#666666" points="1178.94,-129 1075.94,-129 1075.94,-110 1178.94,-110 1178.94,-129"/>
<text text-anchor="middle" x="1127.44" y="-117" font-family="Helvetica,sans-Serif" font-size="10.00">EventListener.cpp</text>
</a>
</g>
</g>
<!-- Node15&#45;&gt;Node19 -->
<g id="edge26_Node000015_Node000019" class="edge">
<title>Node15&#45;&gt;Node19</title>
<g id="a_edge26_Node000015_Node000019"><a xlink:title=" ">
<path fill="none" stroke="#63b8ff" d="M713.36,-168.79C787.64,-161.08 938.72,-145.02 1066.44,-129 1069.51,-128.61 1072.68,-128.21 1075.87,-127.79"/>
<polygon fill="#63b8ff" stroke="#63b8ff" points="712.56,-165.36 702.97,-169.87 713.28,-172.32 712.56,-165.36"/>
</a>
</g>
</g>
<!-- Node20 -->
<g id="Node000020" class="node">
<title>Node20</title>
<g id="a_Node000020"><a xlink:href="_i_event_bus_connection_kit_8h.html" target="_top" xlink:title="Defines the interface for components that can connect to an EventBus.">
<polygon fill="white" stroke="#666666" points="688.94,-129 545.94,-129 545.94,-110 688.94,-110 688.94,-129"/>
<text text-anchor="middle" x="617.44" y="-117" font-family="Helvetica,sans-Serif" font-size="10.00">IEventBusConnectionKit.h</text>
</a>
</g>
</g>
<!-- Node15&#45;&gt;Node20 -->
<g id="edge27_Node000015_Node000020" class="edge">
<title>Node15&#45;&gt;Node20</title>
<g id="a_edge27_Node000015_Node000020"><a xlink:title=" ">
<path fill="none" stroke="#63b8ff" d="M646.66,-158.04C636.79,-148.64 626.14,-136.98 620.47,-129.17"/>
<polygon fill="#63b8ff" stroke="#63b8ff" points="644.54,-160.85 654.29,-164.98 649.25,-155.67 644.54,-160.85"/>
</a>
</g>
</g>
<!-- Node20&#45;&gt;Node4 -->
<g id="edge28_Node000020_Node000004" class="edge">
<title>Node20&#45;&gt;Node4</title>
<g id="a_edge28_Node000020_Node000004"><a xlink:title=" ">
<path fill="none" stroke="#63b8ff" d="M612.42,-100.19C607.38,-85.46 598.06,-65.54 582.44,-55 526.96,-17.58 349.43,-30.14 283.44,-19 280.29,-18.47 277.02,-17.86 273.77,-17.2"/>
<polygon fill="#63b8ff" stroke="#63b8ff" points="609.09,-101.26 615.37,-109.79 615.78,-99.2 609.09,-101.26"/>
</a>
</g>
</g>
<!-- Node20&#45;&gt;Node15 -->
<g id="edge29_Node000020_Node000015" class="edge">
<title>Node20&#45;&gt;Node15</title>
<g id="a_edge29_Node000020_Node000015"><a xlink:title=" ">
<path fill="none" stroke="#63b8ff" d="M638.27,-136C648.08,-145.37 658.67,-156.95 664.35,-164.75"/>
<polygon fill="#63b8ff" stroke="#63b8ff" points="640.42,-133.23 630.67,-129.09 635.71,-138.41 640.42,-133.23"/>
</a>
</g>
</g>
<!-- Node21&#45;&gt;Node2 -->
<g id="edge33_Node000021_Node000002" class="edge">
<title>Node21&#45;&gt;Node2</title>
<g id="a_edge33_Node000021_Node000002"><a xlink:title=" ">
<path fill="none" stroke="#63b8ff" d="M314.3,-158.88C327.26,-149.34 343.73,-137.21 354.66,-129.17"/>
<polygon fill="#63b8ff" stroke="#63b8ff" points="311.98,-156.24 306.01,-164.98 316.13,-161.88 311.98,-156.24"/>
</a>
</g>
</g>
<!-- Node21&#45;&gt;Node7 -->
<g id="edge35_Node000021_Node000007" class="edge">
<title>Node21&#45;&gt;Node7</title>
<g id="a_edge35_Node000021_Node000007"><a xlink:title=" ">
<path fill="none" stroke="#63b8ff" d="M332.44,-162.06C365.33,-152.15 412.18,-138.04 441.94,-129.08"/>
<polygon fill="#63b8ff" stroke="#63b8ff" points="331.28,-158.75 322.71,-164.98 333.3,-165.45 331.28,-158.75"/>
</a>
</g>
</g>
<!-- Node21&#45;&gt;Node8 -->
<g id="edge34_Node000021_Node000008" class="edge">
<title>Node21&#45;&gt;Node8</title>
<g id="a_edge34_Node000021_Node000008"><a xlink:title=" ">
<path fill="none" stroke="#63b8ff" d="M294.26,-154.48C294.04,-130.84 293.68,-91.5 293.52,-74.16"/>
<polygon fill="#63b8ff" stroke="#63b8ff" points="290.76,-154.69 294.36,-164.66 297.76,-154.63 290.76,-154.69"/>
</a>
</g>
</g>
<!-- Node21&#45;&gt;Node12 -->
<g id="edge36_Node000021_Node000012" class="edge">
<title>Node21&#45;&gt;Node12</title>
<g id="a_edge36_Node000021_Node000012"><a xlink:title=" ">
<path fill="none" stroke="#63b8ff" d="M246.79,-162.75C202.75,-152.82 138.17,-138.26 97.49,-129.08"/>
<polygon fill="#63b8ff" stroke="#63b8ff" points="246.16,-166.2 256.68,-164.98 247.7,-159.37 246.16,-166.2"/>
</a>
</g>
</g>
<!-- Node21&#45;&gt;Node13 -->
<g id="edge37_Node000021_Node000013" class="edge">
<title>Node21&#45;&gt;Node13</title>
<g id="a_edge37_Node000021_Node000013"><a xlink:title=" ">
<path fill="none" stroke="#63b8ff" d="M282.05,-156.67C275.3,-147.5 267.23,-136.52 261.76,-129.09"/>
<polygon fill="#63b8ff" stroke="#63b8ff" points="279.25,-158.77 288,-164.75 284.89,-154.62 279.25,-158.77"/>
</a>
</g>
</g>
<!-- Node22 -->
<g id="Node000022" class="node">
<title>Node22</title>
<g id="a_Node000022"><a xlink:href="un_lisp_8h.html" target="_top" xlink:title=" ">
<polygon fill="white" stroke="#666666" points="172.94,-129 115.94,-129 115.94,-110 172.94,-110 172.94,-129"/>
<text text-anchor="middle" x="144.44" y="-117" font-family="Helvetica,sans-Serif" font-size="10.00">unLisp.h</text>
</a>
</g>
</g>
<!-- Node21&#45;&gt;Node22 -->
<g id="edge38_Node000021_Node000022" class="edge">
<title>Node21&#45;&gt;Node22</title>
<g id="a_edge38_Node000021_Node000022"><a xlink:title=" ">
<path fill="none" stroke="#63b8ff" d="M260.62,-161.55C232.76,-151.71 193.92,-137.98 168.98,-129.17"/>
<polygon fill="#63b8ff" stroke="#63b8ff" points="259.74,-164.95 270.34,-164.98 262.07,-158.35 259.74,-164.95"/>
</a>
</g>
</g>
<!-- Node22&#45;&gt;Node4 -->
<g id="edge39_Node000022_Node000004" class="edge">
<title>Node22&#45;&gt;Node4</title>
<g id="a_edge39_Node000022_Node000004"><a xlink:title=" ">
<path fill="none" stroke="#63b8ff" d="M148.04,-99.6C151.42,-85.97 157.63,-67.8 168.44,-55 182.54,-38.29 204.6,-26.37 221.33,-19.09"/>
<polygon fill="#63b8ff" stroke="#63b8ff" points="144.54,-99.24 145.82,-109.76 151.37,-100.73 144.54,-99.24"/>
</a>
</g>
</g>
<!-- Node22&#45;&gt;Node11 -->
<g id="edge40_Node000022_Node000011" class="edge">
<title>Node22&#45;&gt;Node11</title>
<g id="a_edge40_Node000022_Node000011"><a xlink:title=" ">
<path fill="none" stroke="#63b8ff" d="M126.4,-103.32C115.16,-93.87 101.12,-82.06 91.74,-74.17"/>
<polygon fill="#63b8ff" stroke="#63b8ff" points="124.41,-106.23 134.31,-109.98 128.92,-100.87 124.41,-106.23"/>
</a>
</g>
</g>
</g>
</svg>
