<?xml version="1.0" encoding="UTF-8" standalone="no"?>
<!DOCTYPE svg PUBLIC "-//W3C//DTD SVG 1.1//EN"
 "http://www.w3.org/Graphics/SVG/1.1/DTD/svg11.dtd">
<!-- Generated by graphviz version 2.43.0 (0)
 -->
<!-- Title: IEventBusConnectionKit.h Pages: 1 -->
<svg width="674pt" height="247pt"
 viewBox="0.00 0.00 674.03 247.00" xmlns="http://www.w3.org/2000/svg" xmlns:xlink="http://www.w3.org/1999/xlink">
<g id="graph0" class="graph" transform="scale(1 1) rotate(0) translate(4 243)">
<title>IEventBusConnectionKit.h</title>
<!-- Node1 -->
<g id="Node000001" class="node">
<title>Node1</title>
<g id="a_Node000001"><a xlink:title="Defines the interface for components that can connect to an EventBus.">
<polygon fill="#999999" stroke="#666666" points="305.03,-239 162.03,-239 162.03,-220 305.03,-220 305.03,-239"/>
<text text-anchor="middle" x="233.53" y="-227" font-family="Helvetica,sans-Serif" font-size="10.00">IEventBusConnectionKit.h</text>
</a>
</g>
</g>
<!-- Node2 -->
<g id="Node000002" class="node">
<title>Node2</title>
<g id="a_Node000002"><a xlink:href="_app_kit_8h.html" target="_top" xlink:title=" ">
<polygon fill="white" stroke="#666666" points="153.53,-19 95.53,-19 95.53,0 153.53,0 153.53,-19"/>
<text text-anchor="middle" x="124.53" y="-7" font-family="Helvetica,sans-Serif" font-size="10.00">AppKit.h</text>
</a>
</g>
</g>
<!-- Node1&#45;&gt;Node2 -->
<g id="edge1_Node000001_Node000002" class="edge">
<title>Node1&#45;&gt;Node2</title>
<g id="a_edge1_Node000001_Node000002"><a xlink:title=" ">
<path fill="none" stroke="#63b8ff" d="M159.23,-217.82C106.24,-205.9 38.58,-180.93 4.53,-129 -8.09,-109.76 8.45,-69.57 21.53,-55 40.78,-33.54 72.2,-22.02 95.28,-16.12"/>
<polygon fill="#63b8ff" stroke="#63b8ff" points="158.77,-221.3 169.28,-219.97 160.23,-214.45 158.77,-221.3"/>
</a>
</g>
</g>
<!-- Node3 -->
<g id="Node000003" class="node">
<title>Node3</title>
<g id="a_Node000003"><a xlink:href="_event_bus_8h.html" target="_top" xlink:title=" ">
<polygon fill="white" stroke="#666666" points="269.03,-184 198.03,-184 198.03,-165 269.03,-165 269.03,-184"/>
<text text-anchor="middle" x="233.53" y="-172" font-family="Helvetica,sans-Serif" font-size="10.00">EventBus.h</text>
</a>
</g>
</g>
<!-- Node1&#45;&gt;Node3 -->
<g id="edge2_Node000001_Node000003" class="edge">
<title>Node1&#45;&gt;Node3</title>
<g id="a_edge2_Node000001_Node000003"><a xlink:title=" ">
<path fill="none" stroke="#63b8ff" d="M227.03,-209.66C226.43,-200.93 226.89,-190.99 228.4,-184.09"/>
<polygon fill="#63b8ff" stroke="#63b8ff" points="223.59,-210.29 228.36,-219.75 230.53,-209.38 223.59,-210.29"/>
</a>
</g>
</g>
<!-- Node3&#45;&gt;Node1 -->
<g id="edge8_Node000003_Node000001" class="edge">
<title>Node3&#45;&gt;Node1</title>
<g id="a_edge8_Node000003_Node000001"><a xlink:title=" ">
<path fill="none" stroke="#63b8ff" d="M240,-194.13C240.62,-202.85 240.19,-212.8 238.69,-219.75"/>
<polygon fill="#63b8ff" stroke="#63b8ff" points="243.46,-193.53 238.66,-184.09 236.52,-194.47 243.46,-193.53"/>
</a>
</g>
</g>
<!-- Node3&#45;&gt;Node2 -->
<g id="edge3_Node000003_Node000002" class="edge">
<title>Node3&#45;&gt;Node2</title>
<g id="a_edge3_Node000003_Node000002"><a xlink:title=" ">
<path fill="none" stroke="#63b8ff" d="M187.46,-170.75C130.02,-166.25 36.8,-155.06 15.53,-129 -19.65,-85.91 65.72,-38.21 105.49,-19.1"/>
<polygon fill="#63b8ff" stroke="#63b8ff" points="187.5,-174.27 197.74,-171.52 188.02,-167.29 187.5,-174.27"/>
</a>
</g>
</g>
<!-- Node4 -->
<g id="Node000004" class="node">
<title>Node4</title>
<g id="a_Node000004"><a xlink:href="_event_bus_8cpp.html" target="_top" xlink:title=" ">
<polygon fill="white" stroke="#666666" points="108.03,-129 25.03,-129 25.03,-110 108.03,-110 108.03,-129"/>
<text text-anchor="middle" x="66.53" y="-117" font-family="Helvetica,sans-Serif" font-size="10.00">EventBus.cpp</text>
</a>
</g>
</g>
<!-- Node3&#45;&gt;Node4 -->
<g id="edge4_Node000003_Node000004" class="edge">
<title>Node3&#45;&gt;Node4</title>
<g id="a_edge4_Node000003_Node000004"><a xlink:title=" ">
<path fill="none" stroke="#63b8ff" d="M197.06,-161.93C165.87,-152.03 121.69,-138.01 93.57,-129.08"/>
<polygon fill="#63b8ff" stroke="#63b8ff" points="196.1,-165.3 206.69,-164.98 198.22,-158.62 196.1,-165.3"/>
</a>
</g>
</g>
<!-- Node5 -->
<g id="Node000005" class="node">
<title>Node5</title>
<g id="a_Node000005"><a xlink:href="_event_emitter_8cpp.html" target="_top" xlink:title=" ">
<polygon fill="white" stroke="#666666" points="226.53,-129 126.53,-129 126.53,-110 226.53,-110 226.53,-129"/>
<text text-anchor="middle" x="176.53" y="-117" font-family="Helvetica,sans-Serif" font-size="10.00">EventEmitter.cpp</text>
</a>
</g>
</g>
<!-- Node3&#45;&gt;Node5 -->
<g id="edge5_Node000003_Node000005" class="edge">
<title>Node3&#45;&gt;Node5</title>
<g id="a_edge5_Node000003_Node000005"><a xlink:title=" ">
<path fill="none" stroke="#63b8ff" d="M216.9,-158.04C206.79,-148.64 194.25,-136.98 185.85,-129.17"/>
<polygon fill="#63b8ff" stroke="#63b8ff" points="214.66,-160.74 224.37,-164.98 219.43,-155.61 214.66,-160.74"/>
</a>
</g>
</g>
<!-- Node6 -->
<g id="Node000006" class="node">
<title>Node6</title>
<g id="a_Node000006"><a xlink:href="_event_entity_8cpp.html" target="_top" xlink:title=" ">
<polygon fill="white" stroke="#666666" points="336.53,-129 244.53,-129 244.53,-110 336.53,-110 336.53,-129"/>
<text text-anchor="middle" x="290.53" y="-117" font-family="Helvetica,sans-Serif" font-size="10.00">EventEntity.cpp</text>
</a>
</g>
</g>
<!-- Node3&#45;&gt;Node6 -->
<g id="edge6_Node000003_Node000006" class="edge">
<title>Node3&#45;&gt;Node6</title>
<g id="a_edge6_Node000003_Node000006"><a xlink:title=" ">
<path fill="none" stroke="#63b8ff" d="M250.15,-158.04C260.26,-148.64 272.8,-136.98 281.2,-129.17"/>
<polygon fill="#63b8ff" stroke="#63b8ff" points="247.62,-155.61 242.68,-164.98 252.39,-160.74 247.62,-155.61"/>
</a>
</g>
</g>
<!-- Node7 -->
<g id="Node000007" class="node">
<title>Node7</title>
<g id="a_Node000007"><a xlink:href="_event_listener_8cpp.html" target="_top" xlink:title=" ">
<polygon fill="white" stroke="#666666" points="458.03,-129 355.03,-129 355.03,-110 458.03,-110 458.03,-129"/>
<text text-anchor="middle" x="406.53" y="-117" font-family="Helvetica,sans-Serif" font-size="10.00">EventListener.cpp</text>
</a>
</g>
</g>
<!-- Node3&#45;&gt;Node7 -->
<g id="edge7_Node000003_Node000007" class="edge">
<title>Node3&#45;&gt;Node7</title>
<g id="a_edge7_Node000003_Node000007"><a xlink:title=" ">
<path fill="none" stroke="#63b8ff" d="M271.3,-161.93C303.61,-152.03 349.38,-138.01 378.51,-129.08"/>
<polygon fill="#63b8ff" stroke="#63b8ff" points="269.86,-158.71 261.32,-164.98 271.91,-165.4 269.86,-158.71"/>
</a>
</g>
</g>
<!-- Node8 -->
<g id="Node000008" class="node">
<title>Node8</title>
<g id="a_Node000008"><a xlink:href="_network_scheduler_8h.html" target="_top" xlink:title=" ">
<polygon fill="white" stroke="#666666" points="590.53,-129 476.53,-129 476.53,-110 590.53,-110 590.53,-129"/>
<text text-anchor="middle" x="533.53" y="-117" font-family="Helvetica,sans-Serif" font-size="10.00">NetworkScheduler.h</text>
</a>
</g>
</g>
<!-- Node3&#45;&gt;Node8 -->
<g id="edge9_Node000003_Node000008" class="edge">
<title>Node3&#45;&gt;Node8</title>
<g id="a_edge9_Node000003_Node000008"><a xlink:title=" ">
<path fill="none" stroke="#63b8ff" d="M279.05,-165.46C334.72,-155.62 428.52,-139.05 485.36,-129.01"/>
<polygon fill="#63b8ff" stroke="#63b8ff" points="278.36,-162.03 269.12,-167.21 279.57,-168.92 278.36,-162.03"/>
</a>
</g>
</g>
<!-- Node12 -->
<g id="Node000012" class="node">
<title>Node12</title>
<g id="a_Node000012"><a xlink:href="_uniot_8h.html" target="_top" xlink:title=" ">
<polygon fill="white" stroke="#666666" points="660.53,-129 608.53,-129 608.53,-110 660.53,-110 660.53,-129"/>
<text text-anchor="middle" x="634.53" y="-117" font-family="Helvetica,sans-Serif" font-size="10.00">Uniot.h</text>
</a>
</g>
</g>
<!-- Node3&#45;&gt;Node12 -->
<g id="edge15_Node000003_Node000012" class="edge">
<title>Node3&#45;&gt;Node12</title>
<g id="a_edge15_Node000003_Node000012"><a xlink:title=" ">
<path fill="none" stroke="#63b8ff" d="M279.23,-169.68C348.76,-163.47 485.11,-149.78 599.53,-129 602.36,-128.49 605.3,-127.88 608.22,-127.24"/>
<polygon fill="#63b8ff" stroke="#63b8ff" points="278.72,-166.21 269.07,-170.57 279.33,-173.18 278.72,-166.21"/>
</a>
</g>
</g>
<!-- Node9 -->
<g id="Node000009" class="node">
<title>Node9</title>
<g id="a_Node000009"><a xlink:href="_m_q_t_t_kit_8h.html" target="_top" xlink:title=" ">
<polygon fill="white" stroke="#666666" points="481.53,-74 413.53,-74 413.53,-55 481.53,-55 481.53,-74"/>
<text text-anchor="middle" x="447.53" y="-62" font-family="Helvetica,sans-Serif" font-size="10.00">MQTTKit.h</text>
</a>
</g>
</g>
<!-- Node8&#45;&gt;Node9 -->
<g id="edge10_Node000008_Node000009" class="edge">
<title>Node8&#45;&gt;Node9</title>
<g id="a_edge10_Node000008_Node000009"><a xlink:title=" ">
<path fill="none" stroke="#63b8ff" d="M511.13,-104.7C495.46,-95.04 475.02,-82.44 461.59,-74.17"/>
<polygon fill="#63b8ff" stroke="#63b8ff" points="509.36,-107.72 519.71,-109.98 513.03,-101.76 509.36,-107.72"/>
</a>
</g>
</g>
<!-- Node11 -->
<g id="Node000011" class="node">
<title>Node11</title>
<g id="a_Node000011"><a xlink:href="_network_controller_8h.html" target="_top" xlink:title=" ">
<polygon fill="white" stroke="#666666" points="309.53,-74 195.53,-74 195.53,-55 309.53,-55 309.53,-74"/>
<text text-anchor="middle" x="252.53" y="-62" font-family="Helvetica,sans-Serif" font-size="10.00">NetworkController.h</text>
</a>
</g>
</g>
<!-- Node8&#45;&gt;Node11 -->
<g id="edge13_Node000008_Node000011" class="edge">
<title>Node8&#45;&gt;Node11</title>
<g id="a_edge13_Node000008_Node000011"><a xlink:title=" ">
<path fill="none" stroke="#63b8ff" d="M478.53,-108.13C425.85,-98.19 347.29,-83.37 298.03,-74.08"/>
<polygon fill="#63b8ff" stroke="#63b8ff" points="477.9,-111.57 488.38,-109.98 479.2,-104.69 477.9,-111.57"/>
</a>
</g>
</g>
<!-- Node9&#45;&gt;Node2 -->
<g id="edge11_Node000009_Node000002" class="edge">
<title>Node9&#45;&gt;Node2</title>
<g id="a_edge11_Node000009_Node000002"><a xlink:title=" ">
<path fill="none" stroke="#63b8ff" d="M403.01,-56.19C335.85,-45.17 210.45,-24.6 153.73,-15.29"/>
<polygon fill="#63b8ff" stroke="#63b8ff" points="402.83,-59.71 413.27,-57.88 403.96,-52.81 402.83,-59.71"/>
</a>
</g>
</g>
<!-- Node10 -->
<g id="Node000010" class="node">
<title>Node10</title>
<g id="a_Node000010"><a xlink:href="_m_q_t_t_device_8cpp.html" target="_top" xlink:title=" ">
<polygon fill="white" stroke="#666666" points="497.03,-19 398.03,-19 398.03,0 497.03,0 497.03,-19"/>
<text text-anchor="middle" x="447.53" y="-7" font-family="Helvetica,sans-Serif" font-size="10.00">MQTTDevice.cpp</text>
</a>
</g>
</g>
<!-- Node9&#45;&gt;Node10 -->
<g id="edge12_Node000009_Node000010" class="edge">
<title>Node9&#45;&gt;Node10</title>
<g id="a_edge12_Node000009_Node000010"><a xlink:title=" ">
<path fill="none" stroke="#63b8ff" d="M447.53,-44.66C447.53,-35.93 447.53,-25.99 447.53,-19.09"/>
<polygon fill="#63b8ff" stroke="#63b8ff" points="444.03,-44.75 447.53,-54.75 451.03,-44.75 444.03,-44.75"/>
</a>
</g>
</g>
<!-- Node11&#45;&gt;Node2 -->
<g id="edge14_Node000011_Node000002" class="edge">
<title>Node11&#45;&gt;Node2</title>
<g id="a_edge14_Node000011_Node000002"><a xlink:title=" ">
<path fill="none" stroke="#63b8ff" d="M222.41,-51.03C198.74,-41.23 166.38,-27.83 145.47,-19.17"/>
<polygon fill="#63b8ff" stroke="#63b8ff" points="221.38,-54.39 231.96,-54.98 224.06,-47.93 221.38,-54.39"/>
</a>
</g>
</g>
<!-- Node13 -->
<g id="Node000013" class="node">
<title>Node13</title>
<g id="a_Node000013"><a xlink:href="_uniot_8cpp.html" target="_top" xlink:title=" ">
<polygon fill="white" stroke="#666666" points="666.03,-74 603.03,-74 603.03,-55 666.03,-55 666.03,-74"/>
<text text-anchor="middle" x="634.53" y="-62" font-family="Helvetica,sans-Serif" font-size="10.00">Uniot.cpp</text>
</a>
</g>
</g>
<!-- Node12&#45;&gt;Node13 -->
<g id="edge16_Node000012_Node000013" class="edge">
<title>Node12&#45;&gt;Node13</title>
<g id="a_edge16_Node000012_Node000013"><a xlink:title=" ">
<path fill="none" stroke="#63b8ff" d="M634.53,-99.66C634.53,-90.93 634.53,-80.99 634.53,-74.09"/>
<polygon fill="#63b8ff" stroke="#63b8ff" points="631.03,-99.75 634.53,-109.75 638.03,-99.75 631.03,-99.75"/>
</a>
</g>
</g>
</g>
</svg>
