<?xml version="1.0" encoding="UTF-8" standalone="no"?>
<!DOCTYPE svg PUBLIC "-//W3C//DTD SVG 1.1//EN"
 "http://www.w3.org/Graphics/SVG/1.1/DTD/svg11.dtd">
<!-- Generated by graphviz version 2.43.0 (0)
 -->
<!-- Title: LispEvents.h Pages: 1 -->
<svg width="133pt" height="302pt"
 viewBox="0.00 0.00 133.00 302.00" xmlns="http://www.w3.org/2000/svg" xmlns:xlink="http://www.w3.org/1999/xlink">
<g id="graph0" class="graph" transform="scale(1 1) rotate(0) translate(4 298)">
<title>LispEvents.h</title>
<!-- Node1 -->
<g id="Node000001" class="node">
<title>Node1</title>
<g id="a_Node000001"><a xlink:title="Lisp interpreter event definitions for the Uniot event system.">
<polygon fill="#999999" stroke="#666666" points="106.5,-294 28.5,-294 28.5,-275 106.5,-275 106.5,-294"/>
<text text-anchor="middle" x="67.5" y="-282" font-family="Helvetica,sans-Serif" font-size="10.00">LispEvents.h</text>
</a>
</g>
</g>
<!-- Node2 -->
<g id="Node000002" class="node">
<title>Node2</title>
<g id="a_Node000002"><a xlink:href="_lisp_device_8h.html" target="_top" xlink:title=" ">
<polygon fill="white" stroke="#666666" points="79,-184 0,-184 0,-165 79,-165 79,-184"/>
<text text-anchor="middle" x="39.5" y="-172" font-family="Helvetica,sans-Serif" font-size="10.00">LispDevice.h</text>
</a>
</g>
</g>
<!-- Node1&#45;&gt;Node2 -->
<g id="edge1_Node000001_Node000002" class="edge">
<title>Node1&#45;&gt;Node2</title>
<g id="a_edge1_Node000001_Node000002"><a xlink:title=" ">
<path fill="none" stroke="#63b8ff" d="M62.65,-264.8C56.53,-241.2 46.26,-201.58 41.74,-184.16"/>
<polygon fill="#63b8ff" stroke="#63b8ff" points="59.31,-265.86 65.21,-274.66 66.09,-264.1 59.31,-265.86"/>
</a>
</g>
</g>
<!-- Node6 -->
<g id="Node000006" class="node">
<title>Node6</title>
<g id="a_Node000006"><a xlink:href="un_lisp_8h.html" target="_top" xlink:title=" ">
<polygon fill="white" stroke="#666666" points="125,-239 68,-239 68,-220 125,-220 125,-239"/>
<text text-anchor="middle" x="96.5" y="-227" font-family="Helvetica,sans-Serif" font-size="10.00">unLisp.h</text>
</a>
</g>
</g>
<!-- Node1&#45;&gt;Node6 -->
<g id="edge5_Node000001_Node000006" class="edge">
<title>Node1&#45;&gt;Node6</title>
<g id="a_edge5_Node000001_Node000006"><a xlink:title=" ">
<path fill="none" stroke="#63b8ff" d="M77.18,-265.82C82.1,-256.82 87.86,-246.29 91.8,-239.09"/>
<polygon fill="#63b8ff" stroke="#63b8ff" points="74.02,-264.3 72.29,-274.75 80.16,-267.66 74.02,-264.3"/>
</a>
</g>
</g>
<!-- Node3 -->
<g id="Node000003" class="node">
<title>Node3</title>
<g id="a_Node000003"><a xlink:href="_app_kit_8h.html" target="_top" xlink:title=" ">
<polygon fill="white" stroke="#666666" points="102.5,-129 44.5,-129 44.5,-110 102.5,-110 102.5,-129"/>
<text text-anchor="middle" x="73.5" y="-117" font-family="Helvetica,sans-Serif" font-size="10.00">AppKit.h</text>
</a>
</g>
</g>
<!-- Node2&#45;&gt;Node3 -->
<g id="edge2_Node000002_Node000003" class="edge">
<title>Node2&#45;&gt;Node3</title>
<g id="a_edge2_Node000002_Node000003"><a xlink:title=" ">
<path fill="none" stroke="#63b8ff" d="M50.66,-156.1C56.47,-147.04 63.32,-136.37 67.99,-129.09"/>
<polygon fill="#63b8ff" stroke="#63b8ff" points="47.57,-154.44 45.11,-164.75 53.46,-158.22 47.57,-154.44"/>
</a>
</g>
</g>
<!-- Node4 -->
<g id="Node000004" class="node">
<title>Node4</title>
<g id="a_Node000004"><a xlink:href="_uniot_8h.html" target="_top" xlink:title="Main API interface for the Uniot IoT platform.">
<polygon fill="white" stroke="#666666" points="99.5,-74 47.5,-74 47.5,-55 99.5,-55 99.5,-74"/>
<text text-anchor="middle" x="73.5" y="-62" font-family="Helvetica,sans-Serif" font-size="10.00">Uniot.h</text>
</a>
</g>
</g>
<!-- Node3&#45;&gt;Node4 -->
<g id="edge3_Node000003_Node000004" class="edge">
<title>Node3&#45;&gt;Node4</title>
<g id="a_edge3_Node000003_Node000004"><a xlink:title=" ">
<path fill="none" stroke="#63b8ff" d="M73.5,-99.66C73.5,-90.93 73.5,-80.99 73.5,-74.09"/>
<polygon fill="#63b8ff" stroke="#63b8ff" points="70,-99.75 73.5,-109.75 77,-99.75 70,-99.75"/>
</a>
</g>
</g>
<!-- Node5 -->
<g id="Node000005" class="node">
<title>Node5</title>
<g id="a_Node000005"><a xlink:href="_uniot_8cpp.html" target="_top" xlink:title=" ">
<polygon fill="white" stroke="#666666" points="105,-19 42,-19 42,0 105,0 105,-19"/>
<text text-anchor="middle" x="73.5" y="-7" font-family="Helvetica,sans-Serif" font-size="10.00">Uniot.cpp</text>
</a>
</g>
</g>
<!-- Node4&#45;&gt;Node5 -->
<g id="edge4_Node000004_Node000005" class="edge">
<title>Node4&#45;&gt;Node5</title>
<g id="a_edge4_Node000004_Node000005"><a xlink:title=" ">
<path fill="none" stroke="#63b8ff" d="M73.5,-44.66C73.5,-35.93 73.5,-25.99 73.5,-19.09"/>
<polygon fill="#63b8ff" stroke="#63b8ff" points="70,-44.75 73.5,-54.75 77,-44.75 70,-44.75"/>
</a>
</g>
</g>
<!-- Node6&#45;&gt;Node2 -->
<g id="edge7_Node000006_Node000002" class="edge">
<title>Node6&#45;&gt;Node2</title>
<g id="a_edge7_Node000006_Node000002"><a xlink:title=" ">
<path fill="none" stroke="#63b8ff" d="M79.88,-213.04C69.77,-203.64 57.22,-191.98 48.82,-184.17"/>
<polygon fill="#63b8ff" stroke="#63b8ff" points="77.64,-215.74 87.34,-219.98 82.4,-210.61 77.64,-215.74"/>
</a>
</g>
</g>
<!-- Node6&#45;&gt;Node3 -->
<g id="edge6_Node000006_Node000003" class="edge">
<title>Node6&#45;&gt;Node3</title>
<g id="a_edge6_Node000006_Node000003"><a xlink:title=" ">
<path fill="none" stroke="#63b8ff" d="M94.64,-209.54C93.19,-196.84 90.85,-179.8 87.5,-165 84.64,-152.36 79.88,-138.14 76.72,-129.25"/>
<polygon fill="#63b8ff" stroke="#63b8ff" points="91.19,-210.22 95.72,-219.79 98.15,-209.48 91.19,-210.22"/>
</a>
</g>
</g>
</g>
</svg>
