<?xml version="1.0" encoding="UTF-8" standalone="no"?>
<!DOCTYPE svg PUBLIC "-//W3C//DTD SVG 1.1//EN"
 "http://www.w3.org/Graphics/SVG/1.1/DTD/svg11.dtd">
<!-- Generated by graphviz version 2.43.0 (0)
 -->
<!-- Title: LispHelper.h Pages: 1 -->
<svg width="201pt" height="247pt"
 viewBox="0.00 0.00 201.00 247.00" xmlns="http://www.w3.org/2000/svg" xmlns:xlink="http://www.w3.org/1999/xlink">
<g id="graph0" class="graph" transform="scale(1 1) rotate(0) translate(4 243)">
<title>LispHelper.h</title>
<!-- Node1 -->
<g id="Node000001" class="node">
<title>Node1</title>
<g id="a_Node000001"><a xlink:title=" ">
<polygon fill="#999999" stroke="#666666" points="133,-239 56,-239 56,-220 133,-220 133,-239"/>
<text text-anchor="middle" x="94.5" y="-227" font-family="Helvetica,sans-Serif" font-size="10.00">LispHelper.h</text>
</a>
</g>
</g>
<!-- Node2 -->
<g id="Node000002" class="node">
<title>Node2</title>
<g id="a_Node000002"><a xlink:href="_lisp_primitives_8h.html" target="_top" xlink:title=" ">
<polygon fill="white" stroke="#666666" points="95,-129 0,-129 0,-110 95,-110 95,-129"/>
<text text-anchor="middle" x="47.5" y="-117" font-family="Helvetica,sans-Serif" font-size="10.00">LispPrimitives.h</text>
</a>
</g>
</g>
<!-- Node1&#45;&gt;Node2 -->
<g id="edge1_Node000001_Node000002" class="edge">
<title>Node1&#45;&gt;Node2</title>
<g id="a_edge1_Node000001_Node000002"><a xlink:title=" ">
<path fill="none" stroke="#63b8ff" d="M62.38,-215.52C49.07,-208.34 35.01,-198 27.5,-184 17.67,-165.67 31.55,-141.72 40.66,-129.12"/>
<polygon fill="#63b8ff" stroke="#63b8ff" points="60.87,-218.67 71.39,-219.98 63.98,-212.4 60.87,-218.67"/>
</a>
</g>
</g>
<!-- Node4 -->
<g id="Node000004" class="node">
<title>Node4</title>
<g id="a_Node000004"><a xlink:href="_primitive_expeditor_8h.html" target="_top" xlink:title=" ">
<polygon fill="white" stroke="#666666" points="152.5,-184 36.5,-184 36.5,-165 152.5,-165 152.5,-184"/>
<text text-anchor="middle" x="94.5" y="-172" font-family="Helvetica,sans-Serif" font-size="10.00">PrimitiveExpeditor.h</text>
</a>
</g>
</g>
<!-- Node1&#45;&gt;Node4 -->
<g id="edge3_Node000001_Node000004" class="edge">
<title>Node1&#45;&gt;Node4</title>
<g id="a_edge3_Node000001_Node000004"><a xlink:title=" ">
<path fill="none" stroke="#63b8ff" d="M94.5,-209.66C94.5,-200.93 94.5,-190.99 94.5,-184.09"/>
<polygon fill="#63b8ff" stroke="#63b8ff" points="91,-209.75 94.5,-219.75 98,-209.75 91,-209.75"/>
</a>
</g>
</g>
<!-- Node5 -->
<g id="Node000005" class="node">
<title>Node5</title>
<g id="a_Node000005"><a xlink:href="un_lisp_8h.html" target="_top" xlink:title=" ">
<polygon fill="white" stroke="#666666" points="176,-129 119,-129 119,-110 176,-110 176,-129"/>
<text text-anchor="middle" x="147.5" y="-117" font-family="Helvetica,sans-Serif" font-size="10.00">unLisp.h</text>
</a>
</g>
</g>
<!-- Node1&#45;&gt;Node5 -->
<g id="edge9_Node000001_Node000005" class="edge">
<title>Node1&#45;&gt;Node5</title>
<g id="a_edge9_Node000001_Node000005"><a xlink:title=" ">
<path fill="none" stroke="#63b8ff" d="M126.62,-215.52C139.93,-208.34 153.99,-198 161.5,-184 171.1,-166.09 160.28,-141.97 153.01,-129.23"/>
<polygon fill="#63b8ff" stroke="#63b8ff" points="125.02,-212.4 117.61,-219.98 128.13,-218.67 125.02,-212.4"/>
</a>
</g>
</g>
<!-- Node3 -->
<g id="Node000003" class="node">
<title>Node3</title>
<g id="a_Node000003"><a xlink:href="_app_kit_8h.html" target="_top" xlink:title=" ">
<polygon fill="white" stroke="#666666" points="114.5,-19 56.5,-19 56.5,0 114.5,0 114.5,-19"/>
<text text-anchor="middle" x="85.5" y="-7" font-family="Helvetica,sans-Serif" font-size="10.00">AppKit.h</text>
</a>
</g>
</g>
<!-- Node2&#45;&gt;Node3 -->
<g id="edge2_Node000002_Node000003" class="edge">
<title>Node2&#45;&gt;Node3</title>
<g id="a_edge2_Node000002_Node000003"><a xlink:title=" ">
<path fill="none" stroke="#63b8ff" d="M53.97,-100.12C62.26,-76.56 76.3,-36.66 82.45,-19.16"/>
<polygon fill="#63b8ff" stroke="#63b8ff" points="50.63,-99.07 50.61,-109.66 57.23,-101.39 50.63,-99.07"/>
</a>
</g>
</g>
<!-- Node4&#45;&gt;Node2 -->
<g id="edge4_Node000004_Node000002" class="edge">
<title>Node4&#45;&gt;Node2</title>
<g id="a_edge4_Node000004_Node000002"><a xlink:title=" ">
<path fill="none" stroke="#63b8ff" d="M80.08,-157.24C71.84,-147.95 61.85,-136.68 55.12,-129.09"/>
<polygon fill="#63b8ff" stroke="#63b8ff" points="77.49,-159.59 86.74,-164.75 82.72,-154.94 77.49,-159.59"/>
</a>
</g>
</g>
<!-- Node4&#45;&gt;Node5 -->
<g id="edge5_Node000004_Node000005" class="edge">
<title>Node4&#45;&gt;Node5</title>
<g id="a_edge5_Node000004_Node000005"><a xlink:title=" ">
<path fill="none" stroke="#63b8ff" d="M110.48,-157.52C119.82,-148.18 131.25,-136.75 138.91,-129.09"/>
<polygon fill="#63b8ff" stroke="#63b8ff" points="107.85,-155.2 103.25,-164.75 112.8,-160.15 107.85,-155.2"/>
</a>
</g>
</g>
<!-- Node5&#45;&gt;Node3 -->
<g id="edge6_Node000005_Node000003" class="edge">
<title>Node5&#45;&gt;Node3</title>
<g id="a_edge6_Node000005_Node000003"><a xlink:title=" ">
<path fill="none" stroke="#63b8ff" d="M129.62,-103.12C121.3,-95.15 111.86,-84.83 105.5,-74 94.97,-56.06 89.36,-31.95 86.96,-19.22"/>
<polygon fill="#63b8ff" stroke="#63b8ff" points="127.38,-105.81 137.12,-109.98 132.11,-100.64 127.38,-105.81"/>
</a>
</g>
</g>
<!-- Node6 -->
<g id="Node000006" class="node">
<title>Node6</title>
<g id="a_Node000006"><a xlink:href="_lisp_device_8h.html" target="_top" xlink:title=" ">
<polygon fill="white" stroke="#666666" points="193,-74 114,-74 114,-55 193,-55 193,-74"/>
<text text-anchor="middle" x="153.5" y="-62" font-family="Helvetica,sans-Serif" font-size="10.00">LispDevice.h</text>
</a>
</g>
</g>
<!-- Node5&#45;&gt;Node6 -->
<g id="edge7_Node000005_Node000006" class="edge">
<title>Node5&#45;&gt;Node6</title>
<g id="a_edge7_Node000005_Node000006"><a xlink:title=" ">
<path fill="none" stroke="#63b8ff" d="M149.63,-99.66C150.62,-90.93 151.75,-80.99 152.53,-74.09"/>
<polygon fill="#63b8ff" stroke="#63b8ff" points="146.14,-99.42 148.49,-109.75 153.09,-100.21 146.14,-99.42"/>
</a>
</g>
</g>
<!-- Node6&#45;&gt;Node3 -->
<g id="edge8_Node000006_Node000003" class="edge">
<title>Node6&#45;&gt;Node3</title>
<g id="a_edge8_Node000006_Node000003"><a xlink:title=" ">
<path fill="none" stroke="#63b8ff" d="M134.38,-48.6C122.2,-39.11 106.84,-27.13 96.62,-19.17"/>
<polygon fill="#63b8ff" stroke="#63b8ff" points="132.54,-51.6 142.57,-54.98 136.84,-46.08 132.54,-51.6"/>
</a>
</g>
</g>
</g>
</svg>
