<?xml version="1.0" encoding="UTF-8" standalone="no"?>
<!DOCTYPE svg PUBLIC "-//W3C//DTD SVG 1.1//EN"
 "http://www.w3.org/Graphics/SVG/1.1/DTD/svg11.dtd">
<!-- Generated by graphviz version 2.43.0 (0)
 -->
<!-- Title: PrimitiveExpeditor.h Pages: 1 -->
<svg width="239pt" height="192pt"
 viewBox="0.00 0.00 239.00 192.00" xmlns="http://www.w3.org/2000/svg" xmlns:xlink="http://www.w3.org/1999/xlink">
<g id="graph0" class="graph" transform="scale(1 1) rotate(0) translate(4 188)">
<title>PrimitiveExpeditor.h</title>
<!-- Node1 -->
<g id="Node000001" class="node">
<title>Node1</title>
<g id="a_Node000001"><a xlink:title=" ">
<polygon fill="#999999" stroke="#666666" points="143.5,-184 27.5,-184 27.5,-165 143.5,-165 143.5,-184"/>
<text text-anchor="middle" x="85.5" y="-172" font-family="Helvetica,sans-Serif" font-size="10.00">PrimitiveExpeditor.h</text>
</a>
</g>
</g>
<!-- Node2 -->
<g id="Node000002" class="node">
<title>Node2</title>
<g id="a_Node000002"><a xlink:href="_lisp_primitives_8h.html" target="_top" xlink:title=" ">
<polygon fill="white" stroke="#666666" points="95,-74 0,-74 0,-55 95,-55 95,-74"/>
<text text-anchor="middle" x="47.5" y="-62" font-family="Helvetica,sans-Serif" font-size="10.00">LispPrimitives.h</text>
</a>
</g>
</g>
<!-- Node1&#45;&gt;Node2 -->
<g id="edge1_Node000001_Node000002" class="edge">
<title>Node1&#45;&gt;Node2</title>
<g id="a_edge1_Node000001_Node000002"><a xlink:title=" ">
<path fill="none" stroke="#63b8ff" d="M79.03,-155.12C70.74,-131.56 56.7,-91.66 50.55,-74.16"/>
<polygon fill="#63b8ff" stroke="#63b8ff" points="75.77,-156.39 82.39,-164.66 82.37,-154.07 75.77,-156.39"/>
</a>
</g>
</g>
<!-- Node4 -->
<g id="Node000004" class="node">
<title>Node4</title>
<g id="a_Node000004"><a xlink:href="un_lisp_8h.html" target="_top" xlink:title=" ">
<polygon fill="white" stroke="#666666" points="152,-129 95,-129 95,-110 152,-110 152,-129"/>
<text text-anchor="middle" x="123.5" y="-117" font-family="Helvetica,sans-Serif" font-size="10.00">unLisp.h</text>
</a>
</g>
</g>
<!-- Node1&#45;&gt;Node4 -->
<g id="edge3_Node000001_Node000004" class="edge">
<title>Node1&#45;&gt;Node4</title>
<g id="a_edge3_Node000001_Node000004"><a xlink:title=" ">
<path fill="none" stroke="#63b8ff" d="M97.77,-156.39C104.31,-147.27 112.07,-136.45 117.34,-129.09"/>
<polygon fill="#63b8ff" stroke="#63b8ff" points="94.76,-154.58 91.77,-164.75 100.45,-158.66 94.76,-154.58"/>
</a>
</g>
</g>
<!-- Node3 -->
<g id="Node000003" class="node">
<title>Node3</title>
<g id="a_Node000003"><a xlink:href="_app_kit_8h.html" target="_top" xlink:title=" ">
<polygon fill="white" stroke="#666666" points="152.5,-19 94.5,-19 94.5,0 152.5,0 152.5,-19"/>
<text text-anchor="middle" x="123.5" y="-7" font-family="Helvetica,sans-Serif" font-size="10.00">AppKit.h</text>
</a>
</g>
</g>
<!-- Node2&#45;&gt;Node3 -->
<g id="edge2_Node000002_Node000003" class="edge">
<title>Node2&#45;&gt;Node3</title>
<g id="a_edge2_Node000002_Node000003"><a xlink:title=" ">
<path fill="none" stroke="#63b8ff" d="M68.08,-49.15C81.81,-39.57 99.43,-27.29 111.07,-19.17"/>
<polygon fill="#63b8ff" stroke="#63b8ff" points="65.91,-46.39 59.71,-54.98 69.92,-52.14 65.91,-46.39"/>
</a>
</g>
</g>
<!-- Node4&#45;&gt;Node3 -->
<g id="edge4_Node000004_Node000003" class="edge">
<title>Node4&#45;&gt;Node3</title>
<g id="a_edge4_Node000004_Node000003"><a xlink:title=" ">
<path fill="none" stroke="#63b8ff" d="M123.5,-99.48C123.5,-75.84 123.5,-36.5 123.5,-19.16"/>
<polygon fill="#63b8ff" stroke="#63b8ff" points="120,-99.66 123.5,-109.66 127,-99.66 120,-99.66"/>
</a>
</g>
</g>
<!-- Node5 -->
<g id="Node000005" class="node">
<title>Node5</title>
<g id="a_Node000005"><a xlink:href="_lisp_device_8h.html" target="_top" xlink:title=" ">
<polygon fill="white" stroke="#666666" points="231,-74 152,-74 152,-55 231,-55 231,-74"/>
<text text-anchor="middle" x="191.5" y="-62" font-family="Helvetica,sans-Serif" font-size="10.00">LispDevice.h</text>
</a>
</g>
</g>
<!-- Node4&#45;&gt;Node5 -->
<g id="edge5_Node000004_Node000005" class="edge">
<title>Node4&#45;&gt;Node5</title>
<g id="a_edge5_Node000004_Node000005"><a xlink:title=" ">
<path fill="none" stroke="#63b8ff" d="M142.62,-103.6C154.8,-94.11 170.16,-82.13 180.38,-74.17"/>
<polygon fill="#63b8ff" stroke="#63b8ff" points="140.16,-101.08 134.43,-109.98 144.46,-106.6 140.16,-101.08"/>
</a>
</g>
</g>
<!-- Node5&#45;&gt;Node3 -->
<g id="edge6_Node000005_Node000003" class="edge">
<title>Node5&#45;&gt;Node3</title>
<g id="a_edge6_Node000005_Node000003"><a xlink:title=" ">
<path fill="none" stroke="#63b8ff" d="M172.38,-48.6C160.2,-39.11 144.84,-27.13 134.62,-19.17"/>
<polygon fill="#63b8ff" stroke="#63b8ff" points="170.54,-51.6 180.57,-54.98 174.84,-46.08 170.54,-51.6"/>
</a>
</g>
</g>
</g>
</svg>
