<?xml version="1.0" encoding="UTF-8" standalone="no"?>
<!DOCTYPE svg PUBLIC "-//W3C//DTD SVG 1.1//EN"
 "http://www.w3.org/Graphics/SVG/1.1/DTD/svg11.dtd">
<!-- Generated by graphviz version 2.43.0 (0)
 -->
<!-- Title: PrimitiveExpeditor.h Pages: 1 -->
<svg width="1252pt" height="467pt"
 viewBox="0.00 0.00 1252.00 467.00" xmlns="http://www.w3.org/2000/svg" xmlns:xlink="http://www.w3.org/1999/xlink">
<g id="graph0" class="graph" transform="scale(1 1) rotate(0) translate(4 463)">
<title>PrimitiveExpeditor.h</title>
<!-- Node1 -->
<g id="Node000001" class="node">
<title>Node1</title>
<g id="a_Node000001"><a xlink:title=" ">
<polygon fill="#999999" stroke="#666666" points="1152.5,-459 1036.5,-459 1036.5,-440 1152.5,-440 1152.5,-459"/>
<text text-anchor="middle" x="1094.5" y="-447" font-family="Helvetica,sans-Serif" font-size="10.00">PrimitiveExpeditor.h</text>
</a>
</g>
</g>
<!-- Node2 -->
<g id="Node000002" class="node">
<title>Node2</title>
<g id="a_Node000002"><a xlink:title=" ">
<polygon fill="#e0e0e0" stroke="#999999" points="616,-19 553,-19 553,0 616,0 616,-19"/>
<text text-anchor="middle" x="584.5" y="-7" font-family="Helvetica,sans-Serif" font-size="10.00">Arduino.h</text>
</a>
</g>
</g>
<!-- Node1&#45;&gt;Node2 -->
<g id="edge1_Node000001_Node000002" class="edge">
<title>Node1&#45;&gt;Node2</title>
<g id="a_edge1_Node000001_Node000002"><a xlink:title=" ">
<path fill="none" stroke="#63b8ff" d="M1089.91,-439.82C1080.84,-421.82 1061.5,-378.93 1061.5,-340.5 1061.5,-340.5 1061.5,-340.5 1061.5,-173.5 1061.5,-119.06 1071.88,-90.37 1030.5,-55 1000.12,-29.03 731.26,-16.08 626.26,-11.98"/>
<polygon fill="#63b8ff" stroke="#63b8ff" points="626.16,-8.48 616.03,-11.59 625.89,-15.47 626.16,-8.48"/>
</a>
</g>
</g>
<!-- Node3 -->
<g id="Node000003" class="node">
<title>Node3</title>
<g id="a_Node000003"><a xlink:href="_lisp_helper_8h.html" target="_top" xlink:title=" ">
<polygon fill="white" stroke="#666666" points="1167,-404 1090,-404 1090,-385 1167,-385 1167,-404"/>
<text text-anchor="middle" x="1128.5" y="-392" font-family="Helvetica,sans-Serif" font-size="10.00">LispHelper.h</text>
</a>
</g>
</g>
<!-- Node1&#45;&gt;Node3 -->
<g id="edge2_Node000001_Node000003" class="edge">
<title>Node1&#45;&gt;Node3</title>
<g id="a_edge2_Node000001_Node000003"><a xlink:title=" ">
<path fill="none" stroke="#63b8ff" d="M1100.11,-439.75C1104.82,-432.42 1111.67,-421.73 1117.47,-412.7"/>
<polygon fill="#63b8ff" stroke="#63b8ff" points="1120.54,-414.4 1122.99,-404.09 1114.64,-410.62 1120.54,-414.4"/>
</a>
</g>
</g>
<!-- Node5 -->
<g id="Node000005" class="node">
<title>Node5</title>
<g id="a_Node000005"><a xlink:href="_register_manager_proxy_8h.html" target="_top" xlink:title=" ">
<polygon fill="white" stroke="#666666" points="839,-404 704,-404 704,-385 839,-385 839,-404"/>
<text text-anchor="middle" x="771.5" y="-392" font-family="Helvetica,sans-Serif" font-size="10.00">RegisterManagerProxy.h</text>
</a>
</g>
</g>
<!-- Node1&#45;&gt;Node5 -->
<g id="edge4_Node000001_Node000005" class="edge">
<title>Node1&#45;&gt;Node5</title>
<g id="a_edge4_Node000001_Node000005"><a xlink:title=" ">
<path fill="none" stroke="#63b8ff" d="M1042.6,-439.98C985.71,-430.65 894.45,-415.67 833.75,-405.71"/>
<polygon fill="#63b8ff" stroke="#63b8ff" points="833.97,-402.2 823.53,-404.04 832.84,-409.11 833.97,-402.2"/>
</a>
</g>
</g>
<!-- Node28 -->
<g id="Node000028" class="node">
<title>Node28</title>
<g id="a_Node000028"><a xlink:title=" ">
<polygon fill="#e0e0e0" stroke="#999999" points="1244,-404 1185,-404 1185,-385 1244,-385 1244,-404"/>
<text text-anchor="middle" x="1214.5" y="-392" font-family="Helvetica,sans-Serif" font-size="10.00">setjmp.h</text>
</a>
</g>
</g>
<!-- Node1&#45;&gt;Node28 -->
<g id="edge44_Node000001_Node000028" class="edge">
<title>Node1&#45;&gt;Node28</title>
<g id="a_edge44_Node000001_Node000028"><a xlink:title=" ">
<path fill="none" stroke="#63b8ff" d="M1113.78,-439.98C1133.17,-431.42 1163.31,-418.11 1185.57,-408.28"/>
<polygon fill="#63b8ff" stroke="#63b8ff" points="1187.14,-411.41 1194.87,-404.17 1184.31,-405.01 1187.14,-411.41"/>
</a>
</g>
</g>
<!-- Node4 -->
<g id="Node000004" class="node">
<title>Node4</title>
<g id="a_Node000004"><a xlink:title=" ">
<polygon fill="#e0e0e0" stroke="#999999" points="1167,-349 1090,-349 1090,-330 1167,-330 1167,-349"/>
<text text-anchor="middle" x="1128.5" y="-337" font-family="Helvetica,sans-Serif" font-size="10.00">libminilisp.h</text>
</a>
</g>
</g>
<!-- Node3&#45;&gt;Node4 -->
<g id="edge3_Node000003_Node000004" class="edge">
<title>Node3&#45;&gt;Node4</title>
<g id="a_edge3_Node000003_Node000004"><a xlink:title=" ">
<path fill="none" stroke="#63b8ff" d="M1128.5,-384.75C1128.5,-377.8 1128.5,-367.85 1128.5,-359.13"/>
<polygon fill="#63b8ff" stroke="#63b8ff" points="1132,-359.09 1128.5,-349.09 1125,-359.09 1132,-359.09"/>
</a>
</g>
</g>
<!-- Node6 -->
<g id="Node000006" class="node">
<title>Node6</title>
<g id="a_Node000006"><a xlink:href="_register_manager_8h.html" target="_top" xlink:title=" ">
<polygon fill="white" stroke="#666666" points="686.5,-349 578.5,-349 578.5,-330 686.5,-330 686.5,-349"/>
<text text-anchor="middle" x="632.5" y="-337" font-family="Helvetica,sans-Serif" font-size="10.00">RegisterManager.h</text>
</a>
</g>
</g>
<!-- Node5&#45;&gt;Node6 -->
<g id="edge5_Node000005_Node000006" class="edge">
<title>Node5&#45;&gt;Node6</title>
<g id="a_edge5_Node000005_Node000006"><a xlink:title=" ">
<path fill="none" stroke="#63b8ff" d="M749.17,-384.98C726.3,-376.27 690.54,-362.63 664.64,-352.75"/>
<polygon fill="#63b8ff" stroke="#63b8ff" points="665.83,-349.46 655.24,-349.17 663.34,-356 665.83,-349.46"/>
</a>
</g>
</g>
<!-- Node7 -->
<g id="Node000007" class="node">
<title>Node7</title>
<g id="a_Node000007"><a xlink:href="_c_b_o_r_object_8h.html" target="_top" xlink:title=" ">
<polygon fill="white" stroke="#666666" points="770,-239 685,-239 685,-220 770,-220 770,-239"/>
<text text-anchor="middle" x="727.5" y="-227" font-family="Helvetica,sans-Serif" font-size="10.00">CBORObject.h</text>
</a>
</g>
</g>
<!-- Node6&#45;&gt;Node7 -->
<g id="edge6_Node000006_Node000007" class="edge">
<title>Node6&#45;&gt;Node7</title>
<g id="a_edge6_Node000006_Node000007"><a xlink:title=" ">
<path fill="none" stroke="#63b8ff" d="M640.27,-329.66C656.22,-311.54 692.83,-269.91 713.19,-246.77"/>
<polygon fill="#63b8ff" stroke="#63b8ff" points="715.91,-248.98 719.88,-239.16 710.65,-244.36 715.91,-248.98"/>
</a>
</g>
</g>
<!-- Node17 -->
<g id="Node000017" class="node">
<title>Node17</title>
<g id="a_Node000017"><a xlink:href="_gpio_register_8h.html" target="_top" xlink:title=" ">
<polygon fill="white" stroke="#666666" points="256.5,-294 168.5,-294 168.5,-275 256.5,-275 256.5,-294"/>
<text text-anchor="middle" x="212.5" y="-282" font-family="Helvetica,sans-Serif" font-size="10.00">GpioRegister.h</text>
</a>
</g>
</g>
<!-- Node6&#45;&gt;Node17 -->
<g id="edge20_Node000006_Node000017" class="edge">
<title>Node6&#45;&gt;Node17</title>
<g id="a_edge20_Node000006_Node000017"><a xlink:title=" ">
<path fill="none" stroke="#63b8ff" d="M578.45,-331.68C497.93,-321.52 347.32,-302.51 266.7,-292.34"/>
<polygon fill="#63b8ff" stroke="#63b8ff" points="267.11,-288.86 256.75,-291.08 266.24,-295.81 267.11,-288.86"/>
</a>
</g>
</g>
<!-- Node25 -->
<g id="Node000025" class="node">
<title>Node25</title>
<g id="a_Node000025"><a xlink:href="_object_register_8h.html" target="_top" xlink:title=" ">
<polygon fill="white" stroke="#666666" points="631,-294 534,-294 534,-275 631,-275 631,-294"/>
<text text-anchor="middle" x="582.5" y="-282" font-family="Helvetica,sans-Serif" font-size="10.00">ObjectRegister.h</text>
</a>
</g>
</g>
<!-- Node6&#45;&gt;Node25 -->
<g id="edge36_Node000006_Node000025" class="edge">
<title>Node6&#45;&gt;Node25</title>
<g id="a_edge36_Node000006_Node000025"><a xlink:title=" ">
<path fill="none" stroke="#63b8ff" d="M624.24,-329.75C617.04,-322.11 606.39,-310.82 597.65,-301.56"/>
<polygon fill="#63b8ff" stroke="#63b8ff" points="600.01,-298.96 590.6,-294.09 594.92,-303.76 600.01,-298.96"/>
</a>
</g>
</g>
<!-- Node7&#45;&gt;Node2 -->
<g id="edge7_Node000007_Node000002" class="edge">
<title>Node7&#45;&gt;Node2</title>
<g id="a_edge7_Node000007_Node000002"><a xlink:title=" ">
<path fill="none" stroke="#63b8ff" d="M761.18,-220C819.42,-203.62 929.21,-164.47 890.5,-110 830.01,-24.9 694.74,-11.02 626.12,-9.73"/>
<polygon fill="#63b8ff" stroke="#63b8ff" points="626.14,-6.23 616.1,-9.63 626.06,-13.23 626.14,-6.23"/>
</a>
</g>
</g>
<!-- Node8 -->
<g id="Node000008" class="node">
<title>Node8</title>
<g id="a_Node000008"><a xlink:href="_bytes_8h.html" target="_top" xlink:title=" ">
<polygon fill="white" stroke="#666666" points="727,-184 674,-184 674,-165 727,-165 727,-184"/>
<text text-anchor="middle" x="700.5" y="-172" font-family="Helvetica,sans-Serif" font-size="10.00">Bytes.h</text>
</a>
</g>
</g>
<!-- Node7&#45;&gt;Node8 -->
<g id="edge8_Node000007_Node000008" class="edge">
<title>Node7&#45;&gt;Node8</title>
<g id="a_edge8_Node000007_Node000008"><a xlink:title=" ">
<path fill="none" stroke="#63b8ff" d="M723.04,-219.75C719.38,-212.57 714.09,-202.18 709.55,-193.27"/>
<polygon fill="#63b8ff" stroke="#63b8ff" points="712.53,-191.41 704.88,-184.09 706.3,-194.59 712.53,-191.41"/>
</a>
</g>
</g>
<!-- Node10 -->
<g id="Node000010" class="node">
<title>Node10</title>
<g id="a_Node000010"><a xlink:title=" ">
<polygon fill="#e0e0e0" stroke="#999999" points="585.5,-74 527.5,-74 527.5,-55 585.5,-55 585.5,-74"/>
<text text-anchor="middle" x="556.5" y="-62" font-family="Helvetica,sans-Serif" font-size="10.00">memory</text>
</a>
</g>
</g>
<!-- Node7&#45;&gt;Node10 -->
<g id="edge19_Node000007_Node000010" class="edge">
<title>Node7&#45;&gt;Node10</title>
<g id="a_edge19_Node000007_Node000010"><a xlink:title=" ">
<path fill="none" stroke="#63b8ff" d="M684.72,-226.21C625.21,-222.06 521.98,-211.07 497.5,-184 475.39,-159.55 477.23,-139.21 492.5,-110 499.61,-96.39 512.99,-86.1 525.69,-78.87"/>
<polygon fill="#63b8ff" stroke="#63b8ff" points="527.48,-81.88 534.71,-74.13 524.23,-75.68 527.48,-81.88"/>
</a>
</g>
</g>
<!-- Node12 -->
<g id="Node000012" class="node">
<title>Node12</title>
<g id="a_Node000012"><a xlink:href="_logger_8h.html" target="_top" xlink:title=" ">
<polygon fill="white" stroke="#666666" points="881.5,-129 823.5,-129 823.5,-110 881.5,-110 881.5,-129"/>
<text text-anchor="middle" x="852.5" y="-117" font-family="Helvetica,sans-Serif" font-size="10.00">Logger.h</text>
</a>
</g>
</g>
<!-- Node7&#45;&gt;Node12 -->
<g id="edge17_Node000007_Node000012" class="edge">
<title>Node7&#45;&gt;Node12</title>
<g id="a_edge17_Node000007_Node000012"><a xlink:title=" ">
<path fill="none" stroke="#63b8ff" d="M732.33,-219.8C739.95,-206.68 755.83,-181.57 774.5,-165 788.98,-152.14 807.78,-141.29 823.29,-133.51"/>
<polygon fill="#63b8ff" stroke="#63b8ff" points="824.97,-136.59 832.45,-129.08 821.92,-130.28 824.97,-136.59"/>
</a>
</g>
</g>
<!-- Node16 -->
<g id="Node000016" class="node">
<title>Node16</title>
<g id="a_Node000016"><a xlink:title=" ">
<polygon fill="#e0e0e0" stroke="#999999" points="845,-184 784,-184 784,-165 845,-165 845,-184"/>
<text text-anchor="middle" x="814.5" y="-172" font-family="Helvetica,sans-Serif" font-size="10.00">cn&#45;cbor.h</text>
</a>
</g>
</g>
<!-- Node7&#45;&gt;Node16 -->
<g id="edge18_Node000007_Node000016" class="edge">
<title>Node7&#45;&gt;Node16</title>
<g id="a_edge18_Node000007_Node000016"><a xlink:title=" ">
<path fill="none" stroke="#63b8ff" d="M741.48,-219.98C754.97,-211.77 775.63,-199.18 791.54,-189.49"/>
<polygon fill="#63b8ff" stroke="#63b8ff" points="793.55,-192.36 800.27,-184.17 789.91,-186.38 793.55,-192.36"/>
</a>
</g>
</g>
<!-- Node9 -->
<g id="Node000009" class="node">
<title>Node9</title>
<g id="a_Node000009"><a xlink:href="_common_8h.html" target="_top" xlink:title=" ">
<polygon fill="white" stroke="#666666" points="571.5,-129 501.5,-129 501.5,-110 571.5,-110 571.5,-129"/>
<text text-anchor="middle" x="536.5" y="-117" font-family="Helvetica,sans-Serif" font-size="10.00">Common.h</text>
</a>
</g>
</g>
<!-- Node8&#45;&gt;Node9 -->
<g id="edge9_Node000008_Node000009" class="edge">
<title>Node8&#45;&gt;Node9</title>
<g id="a_edge9_Node000008_Node000009"><a xlink:title=" ">
<path fill="none" stroke="#63b8ff" d="M674.15,-164.98C646.74,-156.13 603.61,-142.19 572.94,-132.28"/>
<polygon fill="#63b8ff" stroke="#63b8ff" points="573.65,-128.83 563.06,-129.08 571.5,-135.49 573.65,-128.83"/>
</a>
</g>
</g>
<!-- Node8&#45;&gt;Node12 -->
<g id="edge12_Node000008_Node000012" class="edge">
<title>Node8&#45;&gt;Node12</title>
<g id="a_edge12_Node000008_Node000012"><a xlink:title=" ">
<path fill="none" stroke="#63b8ff" d="M724.92,-164.98C750.22,-156.16 789.95,-142.31 818.36,-132.41"/>
<polygon fill="#63b8ff" stroke="#63b8ff" points="819.6,-135.68 827.89,-129.08 817.29,-129.07 819.6,-135.68"/>
</a>
</g>
</g>
<!-- Node13 -->
<g id="Node000013" class="node">
<title>Node13</title>
<g id="a_Node000013"><a xlink:title=" ">
<polygon fill="#e0e0e0" stroke="#999999" points="767.5,-129 703.5,-129 703.5,-110 767.5,-110 767.5,-129"/>
<text text-anchor="middle" x="735.5" y="-117" font-family="Helvetica,sans-Serif" font-size="10.00">WString.h</text>
</a>
</g>
</g>
<!-- Node8&#45;&gt;Node13 -->
<g id="edge14_Node000008_Node000013" class="edge">
<title>Node8&#45;&gt;Node13</title>
<g id="a_edge14_Node000008_Node000013"><a xlink:title=" ">
<path fill="none" stroke="#63b8ff" d="M706.28,-164.75C711.12,-157.42 718.18,-146.73 724.14,-137.7"/>
<polygon fill="#63b8ff" stroke="#63b8ff" points="727.24,-139.36 729.83,-129.09 721.4,-135.5 727.24,-139.36"/>
</a>
</g>
</g>
<!-- Node14 -->
<g id="Node000014" class="node">
<title>Node14</title>
<g id="a_Node000014"><a xlink:title=" ">
<polygon fill="#e0e0e0" stroke="#999999" points="1066,-19 1001,-19 1001,0 1066,0 1066,-19"/>
<text text-anchor="middle" x="1033.5" y="-7" font-family="Helvetica,sans-Serif" font-size="10.00">functional</text>
</a>
</g>
</g>
<!-- Node8&#45;&gt;Node14 -->
<g id="edge15_Node000008_Node000014" class="edge">
<title>Node8&#45;&gt;Node14</title>
<g id="a_edge15_Node000008_Node000014"><a xlink:title=" ">
<path fill="none" stroke="#63b8ff" d="M715.5,-164.77C744.01,-148.22 804.13,-113.63 814.5,-110 906.36,-77.85 965.86,-146.75 1030.5,-74 1041.14,-62.02 1040.68,-43.21 1038.28,-29.16"/>
<polygon fill="#63b8ff" stroke="#63b8ff" points="1041.65,-28.18 1036.12,-19.14 1034.81,-29.65 1041.65,-28.18"/>
</a>
</g>
</g>
<!-- Node15 -->
<g id="Node000015" class="node">
<title>Node15</title>
<g id="a_Node000015"><a xlink:title=" ">
<polygon fill="#e0e0e0" stroke="#999999" points="407,-129 338,-129 338,-110 407,-110 407,-129"/>
<text text-anchor="middle" x="372.5" y="-117" font-family="Helvetica,sans-Serif" font-size="10.00">type_traits</text>
</a>
</g>
</g>
<!-- Node8&#45;&gt;Node15 -->
<g id="edge16_Node000008_Node000015" class="edge">
<title>Node8&#45;&gt;Node15</title>
<g id="a_edge16_Node000008_Node000015"><a xlink:title=" ">
<path fill="none" stroke="#63b8ff" d="M673.94,-169.21C617.8,-160.14 486.57,-138.93 417.24,-127.73"/>
<polygon fill="#63b8ff" stroke="#63b8ff" points="417.5,-124.23 407.07,-126.09 416.39,-131.14 417.5,-124.23"/>
</a>
</g>
</g>
<!-- Node9&#45;&gt;Node10 -->
<g id="edge10_Node000009_Node000010" class="edge">
<title>Node9&#45;&gt;Node10</title>
<g id="a_edge10_Node000009_Node000010"><a xlink:title=" ">
<path fill="none" stroke="#63b8ff" d="M539.8,-109.75C542.48,-102.65 546.35,-92.4 549.69,-83.56"/>
<polygon fill="#63b8ff" stroke="#63b8ff" points="553,-84.68 553.26,-74.09 546.45,-82.21 553,-84.68"/>
</a>
</g>
</g>
<!-- Node11 -->
<g id="Node000011" class="node">
<title>Node11</title>
<g id="a_Node000011"><a xlink:title=" ">
<polygon fill="#e0e0e0" stroke="#999999" points="509,-74 464,-74 464,-55 509,-55 509,-74"/>
<text text-anchor="middle" x="486.5" y="-62" font-family="Helvetica,sans-Serif" font-size="10.00">utility</text>
</a>
</g>
</g>
<!-- Node9&#45;&gt;Node11 -->
<g id="edge11_Node000009_Node000011" class="edge">
<title>Node9&#45;&gt;Node11</title>
<g id="a_edge11_Node000009_Node000011"><a xlink:title=" ">
<path fill="none" stroke="#63b8ff" d="M528.24,-109.75C521.04,-102.11 510.39,-90.82 501.65,-81.56"/>
<polygon fill="#63b8ff" stroke="#63b8ff" points="504.01,-78.96 494.6,-74.09 498.92,-83.76 504.01,-78.96"/>
</a>
</g>
</g>
<!-- Node12&#45;&gt;Node2 -->
<g id="edge13_Node000012_Node000002" class="edge">
<title>Node12&#45;&gt;Node2</title>
<g id="a_edge13_Node000012_Node000002"><a xlink:title=" ">
<path fill="none" stroke="#63b8ff" d="M831.02,-109.84C783.66,-90.76 670.13,-45.01 615.25,-22.89"/>
<polygon fill="#63b8ff" stroke="#63b8ff" points="616.29,-19.54 605.71,-19.05 613.68,-26.03 616.29,-19.54"/>
</a>
</g>
</g>
<!-- Node17&#45;&gt;Node2 -->
<g id="edge21_Node000017_Node000002" class="edge">
<title>Node17&#45;&gt;Node2</title>
<g id="a_edge21_Node000017_Node000002"><a xlink:title=" ">
<path fill="none" stroke="#63b8ff" d="M201.09,-274.77C180.56,-257.98 139.5,-218.95 139.5,-175.5 139.5,-175.5 139.5,-175.5 139.5,-118.5 139.5,-36 432.01,-16.28 542.72,-11.78"/>
<polygon fill="#63b8ff" stroke="#63b8ff" points="543,-15.27 552.85,-11.39 542.73,-8.27 543,-15.27"/>
</a>
</g>
</g>
<!-- Node18 -->
<g id="Node000018" class="node">
<title>Node18</title>
<g id="a_Node000018"><a xlink:href="_default_primitives_8h.html" target="_top" xlink:title="Defines string constants for Lisp primitive function names.">
<polygon fill="white" stroke="#666666" points="111,-239 0,-239 0,-220 111,-220 111,-239"/>
<text text-anchor="middle" x="55.5" y="-227" font-family="Helvetica,sans-Serif" font-size="10.00">DefaultPrimitives.h</text>
</a>
</g>
</g>
<!-- Node17&#45;&gt;Node18 -->
<g id="edge22_Node000017_Node000018" class="edge">
<title>Node17&#45;&gt;Node18</title>
<g id="a_edge22_Node000017_Node000018"><a xlink:title=" ">
<path fill="none" stroke="#63b8ff" d="M187.28,-274.98C161.14,-266.16 120.1,-252.31 90.77,-242.41"/>
<polygon fill="#63b8ff" stroke="#63b8ff" points="91.52,-238.96 80.92,-239.08 89.28,-245.6 91.52,-238.96"/>
</a>
</g>
</g>
<!-- Node19 -->
<g id="Node000019" class="node">
<title>Node19</title>
<g id="a_Node000019"><a xlink:href="_register_8h.html" target="_top" xlink:title=" ">
<polygon fill="white" stroke="#666666" points="318,-239 253,-239 253,-220 318,-220 318,-239"/>
<text text-anchor="middle" x="285.5" y="-227" font-family="Helvetica,sans-Serif" font-size="10.00">Register.h</text>
</a>
</g>
</g>
<!-- Node17&#45;&gt;Node19 -->
<g id="edge23_Node000017_Node000019" class="edge">
<title>Node17&#45;&gt;Node19</title>
<g id="a_edge23_Node000017_Node000019"><a xlink:title=" ">
<path fill="none" stroke="#63b8ff" d="M224.23,-274.98C235.23,-267 251.92,-254.88 265.1,-245.31"/>
<polygon fill="#63b8ff" stroke="#63b8ff" points="267.52,-247.88 273.56,-239.17 263.41,-242.21 267.52,-247.88"/>
</a>
</g>
</g>
<!-- Node19&#45;&gt;Node2 -->
<g id="edge24_Node000019_Node000002" class="edge">
<title>Node19&#45;&gt;Node2</title>
<g id="a_edge24_Node000019_Node000002"><a xlink:title=" ">
<path fill="none" stroke="#63b8ff" d="M277.59,-219.76C263.47,-203.42 234.62,-166.49 226.5,-129 217.23,-86.22 251.65,-73.11 291.5,-55 375.02,-17.05 484.32,-10.38 542.99,-9.82"/>
<polygon fill="#63b8ff" stroke="#63b8ff" points="543,-13.32 552.99,-9.78 542.98,-6.32 543,-13.32"/>
</a>
</g>
</g>
<!-- Node20 -->
<g id="Node000020" class="node">
<title>Node20</title>
<g id="a_Node000020"><a xlink:href="_array_8h.html" target="_top" xlink:title=" ">
<polygon fill="white" stroke="#666666" points="310.5,-184 260.5,-184 260.5,-165 310.5,-165 310.5,-184"/>
<text text-anchor="middle" x="285.5" y="-172" font-family="Helvetica,sans-Serif" font-size="10.00">Array.h</text>
</a>
</g>
</g>
<!-- Node19&#45;&gt;Node20 -->
<g id="edge25_Node000019_Node000020" class="edge">
<title>Node19&#45;&gt;Node20</title>
<g id="a_edge25_Node000019_Node000020"><a xlink:title=" ">
<path fill="none" stroke="#63b8ff" d="M285.5,-219.75C285.5,-212.8 285.5,-202.85 285.5,-194.13"/>
<polygon fill="#63b8ff" stroke="#63b8ff" points="289,-194.09 285.5,-184.09 282,-194.09 289,-194.09"/>
</a>
</g>
</g>
<!-- Node22 -->
<g id="Node000022" class="node">
<title>Node22</title>
<g id="a_Node000022"><a xlink:href="_map_8h.html" target="_top" xlink:title=" ">
<polygon fill="white" stroke="#666666" points="554,-184 507,-184 507,-165 554,-165 554,-184"/>
<text text-anchor="middle" x="530.5" y="-172" font-family="Helvetica,sans-Serif" font-size="10.00">Map.h</text>
</a>
</g>
</g>
<!-- Node19&#45;&gt;Node22 -->
<g id="edge30_Node000019_Node000022" class="edge">
<title>Node19&#45;&gt;Node22</title>
<g id="a_edge30_Node000019_Node000022"><a xlink:title=" ">
<path fill="none" stroke="#63b8ff" d="M318.03,-221.46C364.5,-211.41 449.47,-193.03 496.65,-182.82"/>
<polygon fill="#63b8ff" stroke="#63b8ff" points="497.64,-186.19 506.67,-180.65 496.16,-179.35 497.64,-186.19"/>
</a>
</g>
</g>
<!-- Node20&#45;&gt;Node2 -->
<g id="edge26_Node000020_Node000002" class="edge">
<title>Node20&#45;&gt;Node2</title>
<g id="a_edge26_Node000020_Node000002"><a xlink:title=" ">
<path fill="none" stroke="#63b8ff" d="M269.64,-164.82C249.63,-152.72 219.51,-130.04 234.5,-110 271.74,-60.23 458.55,-28.18 542.97,-16.02"/>
<polygon fill="#63b8ff" stroke="#63b8ff" points="543.57,-19.47 552.98,-14.6 542.59,-12.54 543.57,-19.47"/>
</a>
</g>
</g>
<!-- Node20&#45;&gt;Node11 -->
<g id="edge29_Node000020_Node000011" class="edge">
<title>Node20&#45;&gt;Node11</title>
<g id="a_edge29_Node000020_Node000011"><a xlink:title=" ">
<path fill="none" stroke="#63b8ff" d="M289.08,-164.66C295.11,-150.87 308.63,-124.33 328.5,-110 366.04,-82.92 419.54,-72.29 453.65,-68.13"/>
<polygon fill="#63b8ff" stroke="#63b8ff" points="454.43,-71.57 463.99,-67 453.67,-64.61 454.43,-71.57"/>
</a>
</g>
</g>
<!-- Node20&#45;&gt;Node15 -->
<g id="edge28_Node000020_Node000015" class="edge">
<title>Node20&#45;&gt;Node15</title>
<g id="a_edge28_Node000020_Node000015"><a xlink:title=" ">
<path fill="none" stroke="#63b8ff" d="M299.48,-164.98C312.97,-156.77 333.63,-144.18 349.54,-134.49"/>
<polygon fill="#63b8ff" stroke="#63b8ff" points="351.55,-137.36 358.27,-129.17 347.91,-131.38 351.55,-137.36"/>
</a>
</g>
</g>
<!-- Node21 -->
<g id="Node000021" class="node">
<title>Node21</title>
<g id="a_Node000021"><a xlink:title=" ">
<polygon fill="#e0e0e0" stroke="#999999" points="281,-129 244,-129 244,-110 281,-110 281,-129"/>
<text text-anchor="middle" x="262.5" y="-117" font-family="Helvetica,sans-Serif" font-size="10.00">new</text>
</a>
</g>
</g>
<!-- Node20&#45;&gt;Node21 -->
<g id="edge27_Node000020_Node000021" class="edge">
<title>Node20&#45;&gt;Node21</title>
<g id="a_edge27_Node000020_Node000021"><a xlink:title=" ">
<path fill="none" stroke="#63b8ff" d="M281.7,-164.75C278.59,-157.57 274.08,-147.18 270.21,-138.27"/>
<polygon fill="#63b8ff" stroke="#63b8ff" points="273.42,-136.87 266.23,-129.09 267,-139.66 273.42,-136.87"/>
</a>
</g>
</g>
<!-- Node22&#45;&gt;Node9 -->
<g id="edge31_Node000022_Node000009" class="edge">
<title>Node22&#45;&gt;Node9</title>
<g id="a_edge31_Node000022_Node000009"><a xlink:title=" ">
<path fill="none" stroke="#63b8ff" d="M531.49,-164.75C532.28,-157.8 533.4,-147.85 534.39,-139.13"/>
<polygon fill="#63b8ff" stroke="#63b8ff" points="537.88,-139.42 535.53,-129.09 530.92,-138.63 537.88,-139.42"/>
</a>
</g>
</g>
<!-- Node23 -->
<g id="Node000023" class="node">
<title>Node23</title>
<g id="a_Node000023"><a xlink:href="_iterable_queue_8h.html" target="_top" xlink:title=" ">
<polygon fill="white" stroke="#666666" points="685,-129 590,-129 590,-110 685,-110 685,-129"/>
<text text-anchor="middle" x="637.5" y="-117" font-family="Helvetica,sans-Serif" font-size="10.00">IterableQueue.h</text>
</a>
</g>
</g>
<!-- Node22&#45;&gt;Node23 -->
<g id="edge32_Node000022_Node000023" class="edge">
<title>Node22&#45;&gt;Node23</title>
<g id="a_edge32_Node000022_Node000023"><a xlink:title=" ">
<path fill="none" stroke="#63b8ff" d="M547.69,-164.98C564.75,-156.54 591.13,-143.47 610.9,-133.68"/>
<polygon fill="#63b8ff" stroke="#63b8ff" points="612.59,-136.75 620,-129.17 609.48,-130.47 612.59,-136.75"/>
</a>
</g>
</g>
<!-- Node24 -->
<g id="Node000024" class="node">
<title>Node24</title>
<g id="a_Node000024"><a xlink:href="_clear_queue_8h.html" target="_top" xlink:title=" ">
<polygon fill="white" stroke="#666666" points="1021,-74 938,-74 938,-55 1021,-55 1021,-74"/>
<text text-anchor="middle" x="979.5" y="-62" font-family="Helvetica,sans-Serif" font-size="10.00">ClearQueue.h</text>
</a>
</g>
</g>
<!-- Node23&#45;&gt;Node24 -->
<g id="edge33_Node000023_Node000024" class="edge">
<title>Node23&#45;&gt;Node24</title>
<g id="a_edge33_Node000023_Node000024"><a xlink:title=" ">
<path fill="none" stroke="#63b8ff" d="M685.05,-111.13C748.9,-101.24 861.93,-83.72 927.82,-73.51"/>
<polygon fill="#63b8ff" stroke="#63b8ff" points="928.63,-76.93 937.98,-71.94 927.56,-70.01 928.63,-76.93"/>
</a>
</g>
</g>
<!-- Node24&#45;&gt;Node2 -->
<g id="edge34_Node000024_Node000002" class="edge">
<title>Node24&#45;&gt;Node2</title>
<g id="a_edge34_Node000024_Node000002"><a xlink:title=" ">
<path fill="none" stroke="#63b8ff" d="M937.92,-57.09C933.06,-56.37 928.17,-55.66 923.5,-55 816.61,-39.87 690.49,-23.78 626.42,-15.73"/>
<polygon fill="#63b8ff" stroke="#63b8ff" points="626.67,-12.23 616.31,-14.46 625.8,-19.18 626.67,-12.23"/>
</a>
</g>
</g>
<!-- Node24&#45;&gt;Node14 -->
<g id="edge35_Node000024_Node000014" class="edge">
<title>Node24&#45;&gt;Node14</title>
<g id="a_edge35_Node000024_Node000014"><a xlink:title=" ">
<path fill="none" stroke="#63b8ff" d="M988.42,-54.75C996.28,-47.03 1007.93,-35.6 1017.42,-26.28"/>
<polygon fill="#63b8ff" stroke="#63b8ff" points="1020.06,-28.59 1024.75,-19.09 1015.16,-23.6 1020.06,-28.59"/>
</a>
</g>
</g>
<!-- Node25&#45;&gt;Node2 -->
<g id="edge37_Node000025_Node000002" class="edge">
<title>Node25&#45;&gt;Node2</title>
<g id="a_edge37_Node000025_Node000002"><a xlink:title=" ">
<path fill="none" stroke="#63b8ff" d="M548.78,-274.89C505.38,-261.55 435.5,-231.39 435.5,-175.5 435.5,-175.5 435.5,-175.5 435.5,-118.5 435.5,-89.04 434.08,-76.23 454.5,-55 477.62,-30.96 514.27,-19.9 542.77,-14.82"/>
<polygon fill="#63b8ff" stroke="#63b8ff" points="543.54,-18.24 552.86,-13.21 542.43,-11.33 543.54,-18.24"/>
</a>
</g>
</g>
<!-- Node25&#45;&gt;Node9 -->
<g id="edge38_Node000025_Node000009" class="edge">
<title>Node25&#45;&gt;Node9</title>
<g id="a_edge38_Node000025_Node000009"><a xlink:title=" ">
<path fill="none" stroke="#63b8ff" d="M582.11,-274.9C580.97,-254.99 576.8,-204.42 562.5,-165 559.03,-155.45 553.53,-145.61 548.47,-137.63"/>
<polygon fill="#63b8ff" stroke="#63b8ff" points="551.34,-135.62 542.89,-129.23 545.51,-139.49 551.34,-135.62"/>
</a>
</g>
</g>
<!-- Node25&#45;&gt;Node19 -->
<g id="edge43_Node000025_Node000019" class="edge">
<title>Node25&#45;&gt;Node19</title>
<g id="a_edge43_Node000025_Node000019"><a xlink:title=" ">
<path fill="none" stroke="#63b8ff" d="M534.78,-274.98C477.78,-264.81 383.28,-247.95 328.47,-238.17"/>
<polygon fill="#63b8ff" stroke="#63b8ff" points="328.85,-234.68 318.39,-236.37 327.62,-241.57 328.85,-234.68"/>
</a>
</g>
</g>
<!-- Node26 -->
<g id="Node000026" class="node">
<title>Node26</title>
<g id="a_Node000026"><a xlink:href="_object_register_record_8h.html" target="_top" xlink:title=" ">
<polygon fill="white" stroke="#666666" points="1033,-184 902,-184 902,-165 1033,-165 1033,-184"/>
<text text-anchor="middle" x="967.5" y="-172" font-family="Helvetica,sans-Serif" font-size="10.00">ObjectRegisterRecord.h</text>
</a>
</g>
</g>
<!-- Node25&#45;&gt;Node26 -->
<g id="edge39_Node000025_Node000026" class="edge">
<title>Node25&#45;&gt;Node26</title>
<g id="a_edge39_Node000025_Node000026"><a xlink:title=" ">
<path fill="none" stroke="#63b8ff" d="M626.02,-274.93C665.95,-266.76 726.6,-253.57 778.5,-239 833.94,-223.44 897.14,-201.28 934.6,-187.68"/>
<polygon fill="#63b8ff" stroke="#63b8ff" points="936.26,-190.8 944.46,-184.08 933.86,-184.22 936.26,-190.8"/>
</a>
</g>
</g>
<!-- Node26&#45;&gt;Node12 -->
<g id="edge41_Node000026_Node000012" class="edge">
<title>Node26&#45;&gt;Node12</title>
<g id="a_edge41_Node000026_Node000012"><a xlink:title=" ">
<path fill="none" stroke="#63b8ff" d="M949.02,-164.98C930.52,-156.46 901.82,-143.23 880.52,-133.41"/>
<polygon fill="#63b8ff" stroke="#63b8ff" points="881.86,-130.18 871.31,-129.17 878.93,-136.53 881.86,-130.18"/>
</a>
</g>
</g>
<!-- Node26&#45;&gt;Node24 -->
<g id="edge40_Node000026_Node000024" class="edge">
<title>Node26&#45;&gt;Node24</title>
<g id="a_edge40_Node000026_Node000024"><a xlink:title=" ">
<path fill="none" stroke="#63b8ff" d="M977.94,-164.87C986.92,-156.7 999.24,-143.55 1004.5,-129 1010.27,-113.04 1001.76,-95.06 993.14,-82.32"/>
<polygon fill="#63b8ff" stroke="#63b8ff" points="995.8,-80.03 987.04,-74.07 990.17,-84.19 995.8,-80.03"/>
</a>
</g>
</g>
<!-- Node27 -->
<g id="Node000027" class="node">
<title>Node27</title>
<g id="a_Node000027"><a xlink:href="_type_id_8h.html" target="_top" xlink:title=" ">
<polygon fill="white" stroke="#666666" points="995,-129 938,-129 938,-110 995,-110 995,-129"/>
<text text-anchor="middle" x="966.5" y="-117" font-family="Helvetica,sans-Serif" font-size="10.00">TypeId.h</text>
</a>
</g>
</g>
<!-- Node26&#45;&gt;Node27 -->
<g id="edge42_Node000026_Node000027" class="edge">
<title>Node26&#45;&gt;Node27</title>
<g id="a_edge42_Node000026_Node000027"><a xlink:title=" ">
<path fill="none" stroke="#63b8ff" d="M967.33,-164.75C967.2,-157.8 967.02,-147.85 966.85,-139.13"/>
<polygon fill="#63b8ff" stroke="#63b8ff" points="970.35,-139.02 966.66,-129.09 963.35,-139.15 970.35,-139.02"/>
</a>
</g>
</g>
</g>
</svg>
