<?xml version="1.0" encoding="UTF-8" standalone="no"?>
<!DOCTYPE svg PUBLIC "-//W3C//DTD SVG 1.1//EN"
 "http://www.w3.org/Graphics/SVG/1.1/DTD/svg11.dtd">
<!-- Generated by graphviz version 2.43.0 (0)
 -->
<!-- Title: RegisterManager.h Pages: 1 -->
<svg width="1012pt" height="357pt"
 viewBox="0.00 0.00 1012.39 357.00" xmlns="http://www.w3.org/2000/svg" xmlns:xlink="http://www.w3.org/1999/xlink">
<g id="graph0" class="graph" transform="scale(1 1) rotate(0) translate(4 353)">
<title>RegisterManager.h</title>
<!-- Node1 -->
<g id="Node000001" class="node">
<title>Node1</title>
<g id="a_Node000001"><a xlink:title=" ">
<polygon fill="#999999" stroke="#666666" points="649.89,-349 541.89,-349 541.89,-330 649.89,-330 649.89,-349"/>
<text text-anchor="middle" x="595.89" y="-337" font-family="Helvetica,sans-Serif" font-size="10.00">RegisterManager.h</text>
</a>
</g>
</g>
<!-- Node2 -->
<g id="Node000002" class="node">
<title>Node2</title>
<g id="a_Node000002"><a xlink:href="_c_b_o_r_object_8h.html" target="_top" xlink:title=" ">
<polygon fill="white" stroke="#666666" points="171.39,-239 86.39,-239 86.39,-220 171.39,-220 171.39,-239"/>
<text text-anchor="middle" x="128.89" y="-227" font-family="Helvetica,sans-Serif" font-size="10.00">CBORObject.h</text>
</a>
</g>
</g>
<!-- Node1&#45;&gt;Node2 -->
<g id="edge1_Node000001_Node000002" class="edge">
<title>Node1&#45;&gt;Node2</title>
<g id="a_edge1_Node000001_Node000002"><a xlink:title=" ">
<path fill="none" stroke="#63b8ff" d="M558.86,-329.94C474.64,-310.46 268.9,-262.88 175.9,-241.37"/>
<polygon fill="#63b8ff" stroke="#63b8ff" points="176.46,-237.91 165.93,-239.07 174.89,-244.73 176.46,-237.91"/>
</a>
</g>
</g>
<!-- Node13 -->
<g id="Node000013" class="node">
<title>Node13</title>
<g id="a_Node000013"><a xlink:href="_gpio_register_8h.html" target="_top" xlink:title=" ">
<polygon fill="white" stroke="#666666" points="853.89,-294 765.89,-294 765.89,-275 853.89,-275 853.89,-294"/>
<text text-anchor="middle" x="809.89" y="-282" font-family="Helvetica,sans-Serif" font-size="10.00">GpioRegister.h</text>
</a>
</g>
</g>
<!-- Node1&#45;&gt;Node13 -->
<g id="edge15_Node000001_Node000013" class="edge">
<title>Node1&#45;&gt;Node13</title>
<g id="a_edge15_Node000001_Node000013"><a xlink:title=" ">
<path fill="none" stroke="#63b8ff" d="M630.28,-329.98C666.98,-320.89 725.28,-306.46 765.44,-296.51"/>
<polygon fill="#63b8ff" stroke="#63b8ff" points="766.38,-299.88 775.24,-294.08 764.69,-293.09 766.38,-299.88"/>
</a>
</g>
</g>
<!-- Node21 -->
<g id="Node000021" class="node">
<title>Node21</title>
<g id="a_Node000021"><a xlink:href="_object_register_8h.html" target="_top" xlink:title=" ">
<polygon fill="white" stroke="#666666" points="644.39,-294 547.39,-294 547.39,-275 644.39,-275 644.39,-294"/>
<text text-anchor="middle" x="595.89" y="-282" font-family="Helvetica,sans-Serif" font-size="10.00">ObjectRegister.h</text>
</a>
</g>
</g>
<!-- Node1&#45;&gt;Node21 -->
<g id="edge31_Node000001_Node000021" class="edge">
<title>Node1&#45;&gt;Node21</title>
<g id="a_edge31_Node000001_Node000021"><a xlink:title=" ">
<path fill="none" stroke="#63b8ff" d="M595.89,-329.75C595.89,-322.8 595.89,-312.85 595.89,-304.13"/>
<polygon fill="#63b8ff" stroke="#63b8ff" points="599.39,-304.09 595.89,-294.09 592.39,-304.09 599.39,-304.09"/>
</a>
</g>
</g>
<!-- Node3 -->
<g id="Node000003" class="node">
<title>Node3</title>
<g id="a_Node000003"><a xlink:title=" ">
<polygon fill="#e0e0e0" stroke="#999999" points="726.39,-19 663.39,-19 663.39,0 726.39,0 726.39,-19"/>
<text text-anchor="middle" x="694.89" y="-7" font-family="Helvetica,sans-Serif" font-size="10.00">Arduino.h</text>
</a>
</g>
</g>
<!-- Node2&#45;&gt;Node3 -->
<g id="edge2_Node000002_Node000003" class="edge">
<title>Node2&#45;&gt;Node3</title>
<g id="a_edge2_Node000002_Node000003"><a xlink:title=" ">
<path fill="none" stroke="#63b8ff" d="M171.57,-227.81C239.8,-225.7 377.07,-217.28 487.89,-184 540.63,-168.17 565.91,-173.08 598.89,-129 618.9,-102.26 592.32,-82.06 611.89,-55 622.53,-40.3 639.54,-29.98 655.4,-23.01"/>
<polygon fill="#63b8ff" stroke="#63b8ff" points="657.11,-26.09 665.06,-19.09 654.48,-19.61 657.11,-26.09"/>
</a>
</g>
</g>
<!-- Node4 -->
<g id="Node000004" class="node">
<title>Node4</title>
<g id="a_Node000004"><a xlink:href="_bytes_8h.html" target="_top" xlink:title=" ">
<polygon fill="white" stroke="#666666" points="182.39,-184 129.39,-184 129.39,-165 182.39,-165 182.39,-184"/>
<text text-anchor="middle" x="155.89" y="-172" font-family="Helvetica,sans-Serif" font-size="10.00">Bytes.h</text>
</a>
</g>
</g>
<!-- Node2&#45;&gt;Node4 -->
<g id="edge3_Node000002_Node000004" class="edge">
<title>Node2&#45;&gt;Node4</title>
<g id="a_edge3_Node000002_Node000004"><a xlink:title=" ">
<path fill="none" stroke="#63b8ff" d="M133.35,-219.75C137.01,-212.57 142.3,-202.18 146.84,-193.27"/>
<polygon fill="#63b8ff" stroke="#63b8ff" points="150.1,-194.59 151.52,-184.09 143.86,-191.41 150.1,-194.59"/>
</a>
</g>
</g>
<!-- Node6 -->
<g id="Node000006" class="node">
<title>Node6</title>
<g id="a_Node000006"><a xlink:title=" ">
<polygon fill="#e0e0e0" stroke="#999999" points="228.89,-74 170.89,-74 170.89,-55 228.89,-55 228.89,-74"/>
<text text-anchor="middle" x="199.89" y="-62" font-family="Helvetica,sans-Serif" font-size="10.00">memory</text>
</a>
</g>
</g>
<!-- Node2&#45;&gt;Node6 -->
<g id="edge14_Node000002_Node000006" class="edge">
<title>Node2&#45;&gt;Node6</title>
<g id="a_edge14_Node000002_Node000006"><a xlink:title=" ">
<path fill="none" stroke="#63b8ff" d="M86.15,-224.66C44.86,-218.67 -9.83,-203.43 1.89,-165 10.49,-136.82 14.99,-127.22 38.89,-110 75.04,-83.97 125.78,-73.15 160.58,-68.67"/>
<polygon fill="#63b8ff" stroke="#63b8ff" points="161.31,-72.11 170.83,-67.47 160.49,-65.15 161.31,-72.11"/>
</a>
</g>
</g>
<!-- Node8 -->
<g id="Node000008" class="node">
<title>Node8</title>
<g id="a_Node000008"><a xlink:href="_logger_8h.html" target="_top" xlink:title=" ">
<polygon fill="white" stroke="#666666" points="105.89,-129 47.89,-129 47.89,-110 105.89,-110 105.89,-129"/>
<text text-anchor="middle" x="76.89" y="-117" font-family="Helvetica,sans-Serif" font-size="10.00">Logger.h</text>
</a>
</g>
</g>
<!-- Node2&#45;&gt;Node8 -->
<g id="edge12_Node000002_Node000008" class="edge">
<title>Node2&#45;&gt;Node8</title>
<g id="a_edge12_Node000002_Node000008"><a xlink:title=" ">
<path fill="none" stroke="#63b8ff" d="M124.64,-219.66C116.1,-201.93 96.74,-161.73 85.47,-138.32"/>
<polygon fill="#63b8ff" stroke="#63b8ff" points="88.55,-136.65 81.06,-129.16 82.25,-139.69 88.55,-136.65"/>
</a>
</g>
</g>
<!-- Node12 -->
<g id="Node000012" class="node">
<title>Node12</title>
<g id="a_Node000012"><a xlink:title=" ">
<polygon fill="#e0e0e0" stroke="#999999" points="72.39,-184 11.39,-184 11.39,-165 72.39,-165 72.39,-184"/>
<text text-anchor="middle" x="41.89" y="-172" font-family="Helvetica,sans-Serif" font-size="10.00">cn&#45;cbor.h</text>
</a>
</g>
</g>
<!-- Node2&#45;&gt;Node12 -->
<g id="edge13_Node000002_Node000012" class="edge">
<title>Node2&#45;&gt;Node12</title>
<g id="a_edge13_Node000002_Node000012"><a xlink:title=" ">
<path fill="none" stroke="#63b8ff" d="M114.92,-219.98C101.42,-211.77 80.76,-199.18 64.85,-189.49"/>
<polygon fill="#63b8ff" stroke="#63b8ff" points="66.49,-186.38 56.13,-184.17 62.84,-192.36 66.49,-186.38"/>
</a>
</g>
</g>
<!-- Node5 -->
<g id="Node000005" class="node">
<title>Node5</title>
<g id="a_Node000005"><a xlink:href="_common_8h.html" target="_top" xlink:title=" ">
<polygon fill="white" stroke="#666666" points="389.89,-129 319.89,-129 319.89,-110 389.89,-110 389.89,-129"/>
<text text-anchor="middle" x="354.89" y="-117" font-family="Helvetica,sans-Serif" font-size="10.00">Common.h</text>
</a>
</g>
</g>
<!-- Node4&#45;&gt;Node5 -->
<g id="edge4_Node000004_Node000005" class="edge">
<title>Node4&#45;&gt;Node5</title>
<g id="a_edge4_Node000004_Node000005"><a xlink:title=" ">
<path fill="none" stroke="#63b8ff" d="M182.73,-166.35C216.21,-157.44 273.81,-142.1 313.09,-131.63"/>
<polygon fill="#63b8ff" stroke="#63b8ff" points="314.14,-134.98 322.9,-129.02 312.33,-128.21 314.14,-134.98"/>
</a>
</g>
</g>
<!-- Node4&#45;&gt;Node8 -->
<g id="edge7_Node000004_Node000008" class="edge">
<title>Node4&#45;&gt;Node8</title>
<g id="a_edge7_Node000004_Node000008"><a xlink:title=" ">
<path fill="none" stroke="#63b8ff" d="M143.2,-164.98C131.06,-156.84 112.54,-144.41 98.15,-134.76"/>
<polygon fill="#63b8ff" stroke="#63b8ff" points="100.07,-131.84 89.82,-129.17 96.17,-137.65 100.07,-131.84"/>
</a>
</g>
</g>
<!-- Node9 -->
<g id="Node000009" class="node">
<title>Node9</title>
<g id="a_Node000009"><a xlink:title=" ">
<polygon fill="#e0e0e0" stroke="#999999" points="187.89,-129 123.89,-129 123.89,-110 187.89,-110 187.89,-129"/>
<text text-anchor="middle" x="155.89" y="-117" font-family="Helvetica,sans-Serif" font-size="10.00">WString.h</text>
</a>
</g>
</g>
<!-- Node4&#45;&gt;Node9 -->
<g id="edge9_Node000004_Node000009" class="edge">
<title>Node4&#45;&gt;Node9</title>
<g id="a_edge9_Node000004_Node000009"><a xlink:title=" ">
<path fill="none" stroke="#63b8ff" d="M155.89,-164.75C155.89,-157.8 155.89,-147.85 155.89,-139.13"/>
<polygon fill="#63b8ff" stroke="#63b8ff" points="159.39,-139.09 155.89,-129.09 152.39,-139.09 159.39,-139.09"/>
</a>
</g>
</g>
<!-- Node10 -->
<g id="Node000010" class="node">
<title>Node10</title>
<g id="a_Node000010"><a xlink:title=" ">
<polygon fill="#e0e0e0" stroke="#999999" points="210.39,-19 145.39,-19 145.39,0 210.39,0 210.39,-19"/>
<text text-anchor="middle" x="177.89" y="-7" font-family="Helvetica,sans-Serif" font-size="10.00">functional</text>
</a>
</g>
</g>
<!-- Node4&#45;&gt;Node10 -->
<g id="edge10_Node000004_Node000010" class="edge">
<title>Node4&#45;&gt;Node10</title>
<g id="a_edge10_Node000004_Node000010"><a xlink:title=" ">
<path fill="none" stroke="#63b8ff" d="M129.38,-170.33C89.15,-164.25 19.35,-148.03 38.89,-110 61.12,-66.76 111.82,-38.11 145.46,-23.09"/>
<polygon fill="#63b8ff" stroke="#63b8ff" points="147.07,-26.21 154.87,-19.04 144.3,-19.78 147.07,-26.21"/>
</a>
</g>
</g>
<!-- Node11 -->
<g id="Node000011" class="node">
<title>Node11</title>
<g id="a_Node000011"><a xlink:title=" ">
<polygon fill="#e0e0e0" stroke="#999999" points="590.39,-129 521.39,-129 521.39,-110 590.39,-110 590.39,-129"/>
<text text-anchor="middle" x="555.89" y="-117" font-family="Helvetica,sans-Serif" font-size="10.00">type_traits</text>
</a>
</g>
</g>
<!-- Node4&#45;&gt;Node11 -->
<g id="edge11_Node000004_Node000011" class="edge">
<title>Node4&#45;&gt;Node11</title>
<g id="a_edge11_Node000004_Node000011"><a xlink:title=" ">
<path fill="none" stroke="#63b8ff" d="M182.4,-167.19C186.24,-166.39 190.16,-165.63 193.89,-165 331.01,-141.97 369.57,-150.11 511.41,-128.94"/>
<polygon fill="#63b8ff" stroke="#63b8ff" points="511.99,-132.4 521.35,-127.44 510.94,-125.48 511.99,-132.4"/>
</a>
</g>
</g>
<!-- Node5&#45;&gt;Node6 -->
<g id="edge5_Node000005_Node000006" class="edge">
<title>Node5&#45;&gt;Node6</title>
<g id="a_edge5_Node000005_Node000006"><a xlink:title=" ">
<path fill="none" stroke="#63b8ff" d="M329.99,-109.98C304.19,-101.16 263.67,-87.31 234.71,-77.41"/>
<polygon fill="#63b8ff" stroke="#63b8ff" points="235.59,-74.01 224.99,-74.08 233.32,-80.63 235.59,-74.01"/>
</a>
</g>
</g>
<!-- Node7 -->
<g id="Node000007" class="node">
<title>Node7</title>
<g id="a_Node000007"><a xlink:title=" ">
<polygon fill="#e0e0e0" stroke="#999999" points="666.39,-74 621.39,-74 621.39,-55 666.39,-55 666.39,-74"/>
<text text-anchor="middle" x="643.89" y="-62" font-family="Helvetica,sans-Serif" font-size="10.00">utility</text>
</a>
</g>
</g>
<!-- Node5&#45;&gt;Node7 -->
<g id="edge6_Node000005_Node000007" class="edge">
<title>Node5&#45;&gt;Node7</title>
<g id="a_edge6_Node000005_Node000007"><a xlink:title=" ">
<path fill="none" stroke="#63b8ff" d="M389.95,-111.69C392.97,-111.11 395.99,-110.54 398.89,-110 474.94,-95.75 564.39,-79.68 611.35,-71.29"/>
<polygon fill="#63b8ff" stroke="#63b8ff" points="612.02,-74.73 621.25,-69.53 610.79,-67.84 612.02,-74.73"/>
</a>
</g>
</g>
<!-- Node8&#45;&gt;Node3 -->
<g id="edge8_Node000008_Node000003" class="edge">
<title>Node8&#45;&gt;Node3</title>
<g id="a_edge8_Node000008_Node000003"><a xlink:title=" ">
<path fill="none" stroke="#63b8ff" d="M105.99,-111.53C138.47,-103.5 192.44,-89.41 237.89,-74 259.23,-66.76 263.04,-60.49 284.89,-55 416.44,-21.95 577.8,-13.45 652.83,-11.26"/>
<polygon fill="#63b8ff" stroke="#63b8ff" points="653.35,-14.75 663.26,-10.98 653.17,-7.75 653.35,-14.75"/>
</a>
</g>
</g>
<!-- Node13&#45;&gt;Node3 -->
<g id="edge16_Node000013_Node000003" class="edge">
<title>Node13&#45;&gt;Node3</title>
<g id="a_edge16_Node000013_Node000003"><a xlink:title=" ">
<path fill="none" stroke="#63b8ff" d="M818.01,-274.75C833.31,-257.29 864.89,-216.32 864.89,-175.5 864.89,-175.5 864.89,-175.5 864.89,-118.5 864.89,-57.82 786.77,-29.78 736.44,-18.01"/>
<polygon fill="#63b8ff" stroke="#63b8ff" points="736.99,-14.55 726.47,-15.8 735.48,-21.38 736.99,-14.55"/>
</a>
</g>
</g>
<!-- Node14 -->
<g id="Node000014" class="node">
<title>Node14</title>
<g id="a_Node000014"><a xlink:href="_default_primitives_8h.html" target="_top" xlink:title="Defines string constants for Lisp primitive function names.">
<polygon fill="white" stroke="#666666" points="1004.39,-239 893.39,-239 893.39,-220 1004.39,-220 1004.39,-239"/>
<text text-anchor="middle" x="948.89" y="-227" font-family="Helvetica,sans-Serif" font-size="10.00">DefaultPrimitives.h</text>
</a>
</g>
</g>
<!-- Node13&#45;&gt;Node14 -->
<g id="edge17_Node000013_Node000014" class="edge">
<title>Node13&#45;&gt;Node14</title>
<g id="a_edge17_Node000013_Node000014"><a xlink:title=" ">
<path fill="none" stroke="#63b8ff" d="M832.23,-274.98C855.09,-266.27 890.85,-252.63 916.76,-242.75"/>
<polygon fill="#63b8ff" stroke="#63b8ff" points="918.06,-246 926.15,-239.17 915.56,-239.46 918.06,-246"/>
</a>
</g>
</g>
<!-- Node15 -->
<g id="Node000015" class="node">
<title>Node15</title>
<g id="a_Node000015"><a xlink:href="_register_8h.html" target="_top" xlink:title=" ">
<polygon fill="white" stroke="#666666" points="788.39,-239 723.39,-239 723.39,-220 788.39,-220 788.39,-239"/>
<text text-anchor="middle" x="755.89" y="-227" font-family="Helvetica,sans-Serif" font-size="10.00">Register.h</text>
</a>
</g>
</g>
<!-- Node13&#45;&gt;Node15 -->
<g id="edge18_Node000013_Node000015" class="edge">
<title>Node13&#45;&gt;Node15</title>
<g id="a_edge18_Node000013_Node000015"><a xlink:title=" ">
<path fill="none" stroke="#63b8ff" d="M800.98,-274.75C793.11,-267.03 781.46,-255.6 771.97,-246.28"/>
<polygon fill="#63b8ff" stroke="#63b8ff" points="774.23,-243.6 764.64,-239.09 769.33,-248.59 774.23,-243.6"/>
</a>
</g>
</g>
<!-- Node15&#45;&gt;Node3 -->
<g id="edge19_Node000015_Node000003" class="edge">
<title>Node15&#45;&gt;Node3</title>
<g id="a_edge19_Node000015_Node000003"><a xlink:title=" ">
<path fill="none" stroke="#63b8ff" d="M764.78,-219.84C783.8,-200.2 825.25,-150.86 806.89,-110 789.26,-70.74 747.62,-40.66 720.38,-24.29"/>
<polygon fill="#63b8ff" stroke="#63b8ff" points="721.82,-21.08 711.41,-19.09 718.3,-27.13 721.82,-21.08"/>
</a>
</g>
</g>
<!-- Node16 -->
<g id="Node000016" class="node">
<title>Node16</title>
<g id="a_Node000016"><a xlink:href="_array_8h.html" target="_top" xlink:title=" ">
<polygon fill="white" stroke="#666666" points="772.89,-184 722.89,-184 722.89,-165 772.89,-165 772.89,-184"/>
<text text-anchor="middle" x="747.89" y="-172" font-family="Helvetica,sans-Serif" font-size="10.00">Array.h</text>
</a>
</g>
</g>
<!-- Node15&#45;&gt;Node16 -->
<g id="edge20_Node000015_Node000016" class="edge">
<title>Node15&#45;&gt;Node16</title>
<g id="a_edge20_Node000015_Node000016"><a xlink:title=" ">
<path fill="none" stroke="#63b8ff" d="M754.57,-219.75C753.52,-212.8 752.02,-202.85 750.71,-194.13"/>
<polygon fill="#63b8ff" stroke="#63b8ff" points="754.14,-193.45 749.19,-184.09 747.22,-194.5 754.14,-193.45"/>
</a>
</g>
</g>
<!-- Node18 -->
<g id="Node000018" class="node">
<title>Node18</title>
<g id="a_Node000018"><a xlink:href="_map_8h.html" target="_top" xlink:title=" ">
<polygon fill="white" stroke="#666666" points="479.39,-184 432.39,-184 432.39,-165 479.39,-165 479.39,-184"/>
<text text-anchor="middle" x="455.89" y="-172" font-family="Helvetica,sans-Serif" font-size="10.00">Map.h</text>
</a>
</g>
</g>
<!-- Node15&#45;&gt;Node18 -->
<g id="edge25_Node000015_Node000018" class="edge">
<title>Node15&#45;&gt;Node18</title>
<g id="a_edge25_Node000015_Node000018"><a xlink:title=" ">
<path fill="none" stroke="#63b8ff" d="M723.22,-222.73C665.89,-212.6 547.77,-191.73 489.67,-181.47"/>
<polygon fill="#63b8ff" stroke="#63b8ff" points="490.01,-177.97 479.55,-179.68 488.79,-184.87 490.01,-177.97"/>
</a>
</g>
</g>
<!-- Node16&#45;&gt;Node3 -->
<g id="edge21_Node000016_Node000003" class="edge">
<title>Node16&#45;&gt;Node3</title>
<g id="a_edge21_Node000016_Node000003"><a xlink:title=" ">
<path fill="none" stroke="#63b8ff" d="M745.04,-164.74C736.74,-139.2 712.43,-64.43 700.98,-29.23"/>
<polygon fill="#63b8ff" stroke="#63b8ff" points="704.18,-27.73 697.76,-19.31 697.52,-29.9 704.18,-27.73"/>
</a>
</g>
</g>
<!-- Node16&#45;&gt;Node7 -->
<g id="edge24_Node000016_Node000007" class="edge">
<title>Node16&#45;&gt;Node7</title>
<g id="a_edge24_Node000016_Node000007"><a xlink:title=" ">
<path fill="none" stroke="#63b8ff" d="M739.38,-164.66C721.85,-146.46 681.49,-104.55 659.27,-81.47"/>
<polygon fill="#63b8ff" stroke="#63b8ff" points="661.69,-78.93 652.23,-74.16 656.65,-83.79 661.69,-78.93"/>
</a>
</g>
</g>
<!-- Node16&#45;&gt;Node11 -->
<g id="edge23_Node000016_Node000011" class="edge">
<title>Node16&#45;&gt;Node11</title>
<g id="a_edge23_Node000016_Node000011"><a xlink:title=" ">
<path fill="none" stroke="#63b8ff" d="M722.79,-166.57C690.69,-157.71 634.7,-142.25 596.5,-131.71"/>
<polygon fill="#63b8ff" stroke="#63b8ff" points="597.29,-128.3 586.71,-129.01 595.42,-135.04 597.29,-128.3"/>
</a>
</g>
</g>
<!-- Node17 -->
<g id="Node000017" class="node">
<title>Node17</title>
<g id="a_Node000017"><a xlink:title=" ">
<polygon fill="#e0e0e0" stroke="#999999" points="798.39,-129 761.39,-129 761.39,-110 798.39,-110 798.39,-129"/>
<text text-anchor="middle" x="779.89" y="-117" font-family="Helvetica,sans-Serif" font-size="10.00">new</text>
</a>
</g>
</g>
<!-- Node16&#45;&gt;Node17 -->
<g id="edge22_Node000016_Node000017" class="edge">
<title>Node16&#45;&gt;Node17</title>
<g id="a_edge22_Node000016_Node000017"><a xlink:title=" ">
<path fill="none" stroke="#63b8ff" d="M753.18,-164.75C757.6,-157.42 764.06,-146.73 769.51,-137.7"/>
<polygon fill="#63b8ff" stroke="#63b8ff" points="772.53,-139.46 774.71,-129.09 766.54,-135.84 772.53,-139.46"/>
</a>
</g>
</g>
<!-- Node18&#45;&gt;Node5 -->
<g id="edge26_Node000018_Node000005" class="edge">
<title>Node18&#45;&gt;Node5</title>
<g id="a_edge26_Node000018_Node000005"><a xlink:title=" ">
<path fill="none" stroke="#63b8ff" d="M439.67,-164.98C423.71,-156.61 399.11,-143.7 380.52,-133.95"/>
<polygon fill="#63b8ff" stroke="#63b8ff" points="381.9,-130.72 371.42,-129.17 378.64,-136.92 381.9,-130.72"/>
</a>
</g>
</g>
<!-- Node19 -->
<g id="Node000019" class="node">
<title>Node19</title>
<g id="a_Node000019"><a xlink:href="_iterable_queue_8h.html" target="_top" xlink:title=" ">
<polygon fill="white" stroke="#666666" points="503.39,-129 408.39,-129 408.39,-110 503.39,-110 503.39,-129"/>
<text text-anchor="middle" x="455.89" y="-117" font-family="Helvetica,sans-Serif" font-size="10.00">IterableQueue.h</text>
</a>
</g>
</g>
<!-- Node18&#45;&gt;Node19 -->
<g id="edge27_Node000018_Node000019" class="edge">
<title>Node18&#45;&gt;Node19</title>
<g id="a_edge27_Node000018_Node000019"><a xlink:title=" ">
<path fill="none" stroke="#63b8ff" d="M455.89,-164.75C455.89,-157.8 455.89,-147.85 455.89,-139.13"/>
<polygon fill="#63b8ff" stroke="#63b8ff" points="459.39,-139.09 455.89,-129.09 452.39,-139.09 459.39,-139.09"/>
</a>
</g>
</g>
<!-- Node20 -->
<g id="Node000020" class="node">
<title>Node20</title>
<g id="a_Node000020"><a xlink:href="_clear_queue_8h.html" target="_top" xlink:title=" ">
<polygon fill="white" stroke="#666666" points="377.39,-74 294.39,-74 294.39,-55 377.39,-55 377.39,-74"/>
<text text-anchor="middle" x="335.89" y="-62" font-family="Helvetica,sans-Serif" font-size="10.00">ClearQueue.h</text>
</a>
</g>
</g>
<!-- Node19&#45;&gt;Node20 -->
<g id="edge28_Node000019_Node000020" class="edge">
<title>Node19&#45;&gt;Node20</title>
<g id="a_edge28_Node000019_Node000020"><a xlink:title=" ">
<path fill="none" stroke="#63b8ff" d="M436.61,-109.98C417.22,-101.42 387.09,-88.11 364.83,-78.28"/>
<polygon fill="#63b8ff" stroke="#63b8ff" points="366.09,-75.01 355.52,-74.17 363.26,-81.41 366.09,-75.01"/>
</a>
</g>
</g>
<!-- Node20&#45;&gt;Node3 -->
<g id="edge29_Node000020_Node000003" class="edge">
<title>Node20&#45;&gt;Node3</title>
<g id="a_edge29_Node000020_Node000003"><a xlink:title=" ">
<path fill="none" stroke="#63b8ff" d="M377.43,-57.37C446.42,-47.18 583.89,-26.89 653.08,-16.67"/>
<polygon fill="#63b8ff" stroke="#63b8ff" points="653.79,-20.11 663.17,-15.18 652.77,-13.18 653.79,-20.11"/>
</a>
</g>
</g>
<!-- Node20&#45;&gt;Node10 -->
<g id="edge30_Node000020_Node000010" class="edge">
<title>Node20&#45;&gt;Node10</title>
<g id="a_edge30_Node000020_Node000010"><a xlink:title=" ">
<path fill="none" stroke="#63b8ff" d="M310.51,-54.98C284.1,-46.13 242.55,-32.19 213,-22.28"/>
<polygon fill="#63b8ff" stroke="#63b8ff" points="214.07,-18.94 203.48,-19.08 211.85,-25.58 214.07,-18.94"/>
</a>
</g>
</g>
<!-- Node21&#45;&gt;Node3 -->
<g id="edge32_Node000021_Node000003" class="edge">
<title>Node21&#45;&gt;Node3</title>
<g id="a_edge32_Node000021_Node000003"><a xlink:title=" ">
<path fill="none" stroke="#63b8ff" d="M613.14,-274.81C641.5,-259.15 694.89,-223.32 694.89,-175.5 694.89,-175.5 694.89,-175.5 694.89,-118.5 694.89,-87.19 694.89,-50.77 694.89,-29.23"/>
<polygon fill="#63b8ff" stroke="#63b8ff" points="698.39,-29.18 694.89,-19.18 691.39,-29.18 698.39,-29.18"/>
</a>
</g>
</g>
<!-- Node21&#45;&gt;Node5 -->
<g id="edge33_Node000021_Node000005" class="edge">
<title>Node21&#45;&gt;Node5</title>
<g id="a_edge33_Node000021_Node000005"><a xlink:title=" ">
<path fill="none" stroke="#63b8ff" d="M578.14,-275C545.85,-259.18 475.97,-223.24 422.89,-184 403.35,-169.55 383.29,-150.15 370.07,-136.61"/>
<polygon fill="#63b8ff" stroke="#63b8ff" points="372.59,-134.18 363.13,-129.4 367.54,-139.03 372.59,-134.18"/>
</a>
</g>
</g>
<!-- Node21&#45;&gt;Node15 -->
<g id="edge38_Node000021_Node000015" class="edge">
<title>Node21&#45;&gt;Node15</title>
<g id="a_edge38_Node000021_Node000015"><a xlink:title=" ">
<path fill="none" stroke="#63b8ff" d="M621.6,-274.98C648.35,-266.13 690.42,-252.19 720.34,-242.28"/>
<polygon fill="#63b8ff" stroke="#63b8ff" points="721.59,-245.55 729.99,-239.08 719.39,-238.9 721.59,-245.55"/>
</a>
</g>
</g>
<!-- Node22 -->
<g id="Node000022" class="node">
<title>Node22</title>
<g id="a_Node000022"><a xlink:href="_object_register_record_8h.html" target="_top" xlink:title=" ">
<polygon fill="white" stroke="#666666" points="334.39,-184 203.39,-184 203.39,-165 334.39,-165 334.39,-184"/>
<text text-anchor="middle" x="268.89" y="-172" font-family="Helvetica,sans-Serif" font-size="10.00">ObjectRegisterRecord.h</text>
</a>
</g>
</g>
<!-- Node21&#45;&gt;Node22 -->
<g id="edge34_Node000021_Node000022" class="edge">
<title>Node21&#45;&gt;Node22</title>
<g id="a_edge34_Node000021_Node000022"><a xlink:title=" ">
<path fill="none" stroke="#63b8ff" d="M547.03,-279.22C500.02,-273.88 427.64,-262.44 368.89,-239 338.25,-226.77 306.74,-204.93 287.49,-190.33"/>
<polygon fill="#63b8ff" stroke="#63b8ff" points="289.6,-187.54 279.55,-184.19 285.32,-193.08 289.6,-187.54"/>
</a>
</g>
</g>
<!-- Node22&#45;&gt;Node8 -->
<g id="edge36_Node000022_Node000008" class="edge">
<title>Node22&#45;&gt;Node8</title>
<g id="a_edge36_Node000022_Node000008"><a xlink:title=" ">
<path fill="none" stroke="#63b8ff" d="M238.05,-164.98C204.81,-155.81 151.85,-141.19 115.79,-131.24"/>
<polygon fill="#63b8ff" stroke="#63b8ff" points="116.66,-127.85 106.09,-128.56 114.8,-134.59 116.66,-127.85"/>
</a>
</g>
</g>
<!-- Node22&#45;&gt;Node20 -->
<g id="edge35_Node000022_Node000020" class="edge">
<title>Node22&#45;&gt;Node20</title>
<g id="a_edge35_Node000022_Node000020"><a xlink:title=" ">
<path fill="none" stroke="#63b8ff" d="M257.96,-164.6C243.92,-152.06 222.73,-128.64 234.89,-110 246.08,-92.85 265.53,-82.26 284.39,-75.75"/>
<polygon fill="#63b8ff" stroke="#63b8ff" points="285.65,-79.02 294.15,-72.7 283.57,-72.34 285.65,-79.02"/>
</a>
</g>
</g>
<!-- Node23 -->
<g id="Node000023" class="node">
<title>Node23</title>
<g id="a_Node000023"><a xlink:href="_type_id_8h.html" target="_top" xlink:title=" ">
<polygon fill="white" stroke="#666666" points="301.39,-129 244.39,-129 244.39,-110 301.39,-110 301.39,-129"/>
<text text-anchor="middle" x="272.89" y="-117" font-family="Helvetica,sans-Serif" font-size="10.00">TypeId.h</text>
</a>
</g>
</g>
<!-- Node22&#45;&gt;Node23 -->
<g id="edge37_Node000022_Node000023" class="edge">
<title>Node22&#45;&gt;Node23</title>
<g id="a_edge37_Node000022_Node000023"><a xlink:title=" ">
<path fill="none" stroke="#63b8ff" d="M269.55,-164.75C270.08,-157.8 270.83,-147.85 271.49,-139.13"/>
<polygon fill="#63b8ff" stroke="#63b8ff" points="274.98,-139.32 272.25,-129.09 268,-138.8 274.98,-139.32"/>
</a>
</g>
</g>
</g>
</svg>
