<?xml version="1.0" encoding="UTF-8" standalone="no"?>
<!DOCTYPE svg PUBLIC "-//W3C//DTD SVG 1.1//EN"
 "http://www.w3.org/Graphics/SVG/1.1/DTD/svg11.dtd">
<!-- Generated by graphviz version 2.43.0 (0)
 -->
<!-- Title: Singleton.h Pages: 1 -->
<svg width="432pt" height="192pt"
 viewBox="0.00 0.00 431.57 192.00" xmlns="http://www.w3.org/2000/svg" xmlns:xlink="http://www.w3.org/1999/xlink">
<g id="graph0" class="graph" transform="scale(1 1) rotate(0) translate(4 188)">
<title>Singleton.h</title>
<!-- Node1 -->
<g id="Node000001" class="node">
<title>Node1</title>
<g id="a_Node000001"><a xlink:title=" ">
<polygon fill="#999999" stroke="#666666" points="408,-184 337,-184 337,-165 408,-165 408,-184"/>
<text text-anchor="middle" x="372.5" y="-172" font-family="Helvetica,sans-Serif" font-size="10.00">Singleton.h</text>
</a>
</g>
</g>
<!-- Node2 -->
<g id="Node000002" class="node">
<title>Node2</title>
<g id="a_Node000002"><a xlink:href="_app_kit_8h.html" target="_top" xlink:title=" ">
<polygon fill="white" stroke="#666666" points="329.5,-19 271.5,-19 271.5,0 329.5,0 329.5,-19"/>
<text text-anchor="middle" x="300.5" y="-7" font-family="Helvetica,sans-Serif" font-size="10.00">AppKit.h</text>
</a>
</g>
</g>
<!-- Node1&#45;&gt;Node2 -->
<g id="edge1_Node000001_Node000002" class="edge">
<title>Node1&#45;&gt;Node2</title>
<g id="a_edge1_Node000001_Node000002"><a xlink:title=" ">
<path fill="none" stroke="#63b8ff" d="M390.42,-157.88C398.09,-150.06 406.24,-139.93 410.5,-129 422.45,-98.34 430.98,-82.22 412.5,-55 394.05,-27.82 356.11,-17.24 329.52,-13.12"/>
<polygon fill="#63b8ff" stroke="#63b8ff" points="387.91,-155.44 383.09,-164.88 392.74,-160.51 387.91,-155.44"/>
</a>
</g>
</g>
<!-- Node3 -->
<g id="Node000003" class="node">
<title>Node3</title>
<g id="a_Node000003"><a xlink:href="_date_8h.html" target="_top" xlink:title=" ">
<polygon fill="white" stroke="#666666" points="244,-129 195,-129 195,-110 244,-110 244,-129"/>
<text text-anchor="middle" x="219.5" y="-117" font-family="Helvetica,sans-Serif" font-size="10.00">Date.h</text>
</a>
</g>
</g>
<!-- Node1&#45;&gt;Node3 -->
<g id="edge2_Node000001_Node000003" class="edge">
<title>Node1&#45;&gt;Node3</title>
<g id="a_edge2_Node000001_Node000003"><a xlink:title=" ">
<path fill="none" stroke="#63b8ff" d="M338.32,-161.66C309.69,-151.74 269.54,-137.83 244.02,-128.99"/>
<polygon fill="#63b8ff" stroke="#63b8ff" points="337.32,-165.02 347.92,-164.98 339.61,-158.4 337.32,-165.02"/>
</a>
</g>
</g>
<!-- Node10 -->
<g id="Node000010" class="node">
<title>Node10</title>
<g id="a_Node000010"><a xlink:href="un_lisp_8h.html" target="_top" xlink:title=" ">
<polygon fill="white" stroke="#666666" points="401,-129 344,-129 344,-110 401,-110 401,-129"/>
<text text-anchor="middle" x="372.5" y="-117" font-family="Helvetica,sans-Serif" font-size="10.00">unLisp.h</text>
</a>
</g>
</g>
<!-- Node1&#45;&gt;Node10 -->
<g id="edge13_Node000001_Node000010" class="edge">
<title>Node1&#45;&gt;Node10</title>
<g id="a_edge13_Node000001_Node000010"><a xlink:title=" ">
<path fill="none" stroke="#63b8ff" d="M372.5,-154.66C372.5,-145.93 372.5,-135.99 372.5,-129.09"/>
<polygon fill="#63b8ff" stroke="#63b8ff" points="369,-154.75 372.5,-164.75 376,-154.75 369,-154.75"/>
</a>
</g>
</g>
<!-- Node3&#45;&gt;Node2 -->
<g id="edge3_Node000003_Node000002" class="edge">
<title>Node3&#45;&gt;Node2</title>
<g id="a_edge3_Node000003_Node000002"><a xlink:title=" ">
<path fill="none" stroke="#63b8ff" d="M208.94,-100.84C202.38,-87.36 196.71,-68.82 205.5,-55 219.87,-32.41 249.06,-21.09 271.31,-15.54"/>
<polygon fill="#63b8ff" stroke="#63b8ff" points="206.06,-102.87 213.9,-110 212.21,-99.54 206.06,-102.87"/>
</a>
</g>
</g>
<!-- Node4 -->
<g id="Node000004" class="node">
<title>Node4</title>
<g id="a_Node000004"><a xlink:href="_lisp_device_8h.html" target="_top" xlink:title=" ">
<polygon fill="white" stroke="#666666" points="388,-74 309,-74 309,-55 388,-55 388,-74"/>
<text text-anchor="middle" x="348.5" y="-62" font-family="Helvetica,sans-Serif" font-size="10.00">LispDevice.h</text>
</a>
</g>
</g>
<!-- Node3&#45;&gt;Node4 -->
<g id="edge4_Node000003_Node000004" class="edge">
<title>Node3&#45;&gt;Node4</title>
<g id="a_edge4_Node000003_Node000004"><a xlink:title=" ">
<path fill="none" stroke="#63b8ff" d="M249.54,-106.16C273.42,-96.35 306.22,-82.87 327.4,-74.17"/>
<polygon fill="#63b8ff" stroke="#63b8ff" points="248.15,-102.95 240.23,-109.98 250.81,-109.42 248.15,-102.95"/>
</a>
</g>
</g>
<!-- Node5 -->
<g id="Node000005" class="node">
<title>Node5</title>
<g id="a_Node000005"><a xlink:href="_m_q_t_t_kit_8h.html" target="_top" xlink:title=" ">
<polygon fill="white" stroke="#666666" points="158.5,-74 90.5,-74 90.5,-55 158.5,-55 158.5,-74"/>
<text text-anchor="middle" x="124.5" y="-62" font-family="Helvetica,sans-Serif" font-size="10.00">MQTTKit.h</text>
</a>
</g>
</g>
<!-- Node3&#45;&gt;Node5 -->
<g id="edge6_Node000003_Node000005" class="edge">
<title>Node3&#45;&gt;Node5</title>
<g id="a_edge6_Node000003_Node000005"><a xlink:title=" ">
<path fill="none" stroke="#63b8ff" d="M195.24,-104.97C177.87,-95.28 155.01,-82.52 140.04,-74.17"/>
<polygon fill="#63b8ff" stroke="#63b8ff" points="193.8,-108.17 204.24,-109.98 197.21,-102.06 193.8,-108.17"/>
</a>
</g>
</g>
<!-- Node7 -->
<g id="Node000007" class="node">
<title>Node7</title>
<g id="a_Node000007"><a xlink:href="_top_device_8h.html" target="_top" xlink:title=" ">
<polygon fill="white" stroke="#666666" points="290.5,-74 214.5,-74 214.5,-55 290.5,-55 290.5,-74"/>
<text text-anchor="middle" x="252.5" y="-62" font-family="Helvetica,sans-Serif" font-size="10.00">TopDevice.h</text>
</a>
</g>
</g>
<!-- Node3&#45;&gt;Node7 -->
<g id="edge9_Node000003_Node000007" class="edge">
<title>Node3&#45;&gt;Node7</title>
<g id="a_edge9_Node000003_Node000007"><a xlink:title=" ">
<path fill="none" stroke="#63b8ff" d="M230.33,-101.1C235.97,-92.04 242.62,-81.37 247.15,-74.09"/>
<polygon fill="#63b8ff" stroke="#63b8ff" points="227.26,-99.41 224.95,-109.75 233.21,-103.11 227.26,-99.41"/>
</a>
</g>
</g>
<!-- Node8 -->
<g id="Node000008" class="node">
<title>Node8</title>
<g id="a_Node000008"><a xlink:href="_uniot_8h.html" target="_top" xlink:title=" ">
<polygon fill="white" stroke="#666666" points="67.5,-74 15.5,-74 15.5,-55 67.5,-55 67.5,-74"/>
<text text-anchor="middle" x="41.5" y="-62" font-family="Helvetica,sans-Serif" font-size="10.00">Uniot.h</text>
</a>
</g>
</g>
<!-- Node3&#45;&gt;Node8 -->
<g id="edge11_Node000003_Node000008" class="edge">
<title>Node3&#45;&gt;Node8</title>
<g id="a_edge11_Node000003_Node000008"><a xlink:title=" ">
<path fill="none" stroke="#63b8ff" d="M185.15,-108.27C150.86,-98.06 98.91,-82.59 67.78,-73.32"/>
<polygon fill="#63b8ff" stroke="#63b8ff" points="184.17,-111.63 194.75,-111.13 186.16,-104.92 184.17,-111.63"/>
</a>
</g>
</g>
<!-- Node4&#45;&gt;Node2 -->
<g id="edge5_Node000004_Node000002" class="edge">
<title>Node4&#45;&gt;Node2</title>
<g id="a_edge5_Node000004_Node000002"><a xlink:title=" ">
<path fill="none" stroke="#63b8ff" d="M333.77,-47.24C325.36,-37.95 315.15,-26.68 308.28,-19.09"/>
<polygon fill="#63b8ff" stroke="#63b8ff" points="331.27,-49.69 340.57,-54.75 336.46,-44.99 331.27,-49.69"/>
</a>
</g>
</g>
<!-- Node5&#45;&gt;Node2 -->
<g id="edge7_Node000005_Node000002" class="edge">
<title>Node5&#45;&gt;Node2</title>
<g id="a_edge7_Node000005_Node000002"><a xlink:title=" ">
<path fill="none" stroke="#63b8ff" d="M162.5,-52.06C195.4,-42.15 242.24,-28.04 272,-19.08"/>
<polygon fill="#63b8ff" stroke="#63b8ff" points="161.34,-48.75 152.78,-54.98 163.36,-55.45 161.34,-48.75"/>
</a>
</g>
</g>
<!-- Node6 -->
<g id="Node000006" class="node">
<title>Node6</title>
<g id="a_Node000006"><a xlink:href="_m_q_t_t_device_8cpp.html" target="_top" xlink:title=" ">
<polygon fill="white" stroke="#666666" points="180,-19 81,-19 81,0 180,0 180,-19"/>
<text text-anchor="middle" x="130.5" y="-7" font-family="Helvetica,sans-Serif" font-size="10.00">MQTTDevice.cpp</text>
</a>
</g>
</g>
<!-- Node5&#45;&gt;Node6 -->
<g id="edge8_Node000005_Node000006" class="edge">
<title>Node5&#45;&gt;Node6</title>
<g id="a_edge8_Node000005_Node000006"><a xlink:title=" ">
<path fill="none" stroke="#63b8ff" d="M126.63,-44.66C127.62,-35.93 128.75,-25.99 129.53,-19.09"/>
<polygon fill="#63b8ff" stroke="#63b8ff" points="123.14,-44.42 125.49,-54.75 130.09,-45.21 123.14,-44.42"/>
</a>
</g>
</g>
<!-- Node7&#45;&gt;Node2 -->
<g id="edge10_Node000007_Node000002" class="edge">
<title>Node7&#45;&gt;Node2</title>
<g id="a_edge10_Node000007_Node000002"><a xlink:title=" ">
<path fill="none" stroke="#63b8ff" d="M267.23,-47.24C275.64,-37.95 285.85,-26.68 292.72,-19.09"/>
<polygon fill="#63b8ff" stroke="#63b8ff" points="264.54,-44.99 260.43,-54.75 269.73,-49.69 264.54,-44.99"/>
</a>
</g>
</g>
<!-- Node9 -->
<g id="Node000009" class="node">
<title>Node9</title>
<g id="a_Node000009"><a xlink:href="_uniot_8cpp.html" target="_top" xlink:title=" ">
<polygon fill="white" stroke="#666666" points="63,-19 0,-19 0,0 63,0 63,-19"/>
<text text-anchor="middle" x="31.5" y="-7" font-family="Helvetica,sans-Serif" font-size="10.00">Uniot.cpp</text>
</a>
</g>
</g>
<!-- Node8&#45;&gt;Node9 -->
<g id="edge12_Node000008_Node000009" class="edge">
<title>Node8&#45;&gt;Node9</title>
<g id="a_edge12_Node000008_Node000009"><a xlink:title=" ">
<path fill="none" stroke="#63b8ff" d="M37.95,-44.66C36.3,-35.93 34.42,-25.99 33.12,-19.09"/>
<polygon fill="#63b8ff" stroke="#63b8ff" points="34.56,-45.57 39.85,-54.75 41.43,-44.27 34.56,-45.57"/>
</a>
</g>
</g>
<!-- Node10&#45;&gt;Node2 -->
<g id="edge14_Node000010_Node000002" class="edge">
<title>Node10&#45;&gt;Node2</title>
<g id="a_edge14_Node000010_Node000002"><a xlink:title=" ">
<path fill="none" stroke="#63b8ff" d="M387.22,-101.92C397.18,-88.59 406.95,-69.73 397.5,-55 382.69,-31.92 352.59,-20.65 329.82,-15.25"/>
<polygon fill="#63b8ff" stroke="#63b8ff" points="384.42,-99.81 380.85,-109.78 389.86,-104.22 384.42,-99.81"/>
</a>
</g>
</g>
<!-- Node10&#45;&gt;Node4 -->
<g id="edge15_Node000010_Node000004" class="edge">
<title>Node10&#45;&gt;Node4</title>
<g id="a_edge15_Node000010_Node000004"><a xlink:title=" ">
<path fill="none" stroke="#63b8ff" d="M364.36,-100.53C360.32,-91.6 355.62,-81.22 352.39,-74.09"/>
<polygon fill="#63b8ff" stroke="#63b8ff" points="361.22,-102.08 368.54,-109.75 367.6,-99.19 361.22,-102.08"/>
</a>
</g>
</g>
</g>
</svg>
