<?xml version="1.0" encoding="UTF-8" standalone="no"?>
<!DOCTYPE svg PUBLIC "-//W3C//DTD SVG 1.1//EN"
 "http://www.w3.org/Graphics/SVG/1.1/DTD/svg11.dtd">
<!-- Generated by graphviz version 2.43.0 (0)
 -->
<!-- Title: TopDevice.h Pages: 1 -->
<svg width="1289pt" height="357pt"
 viewBox="0.00 0.00 1288.50 357.00" xmlns="http://www.w3.org/2000/svg" xmlns:xlink="http://www.w3.org/1999/xlink">
<g id="graph0" class="graph" transform="scale(1 1) rotate(0) translate(4 353)">
<title>TopDevice.h</title>
<!-- Node1 -->
<g id="Node000001" class="node">
<title>Node1</title>
<g id="a_Node000001"><a xlink:title=" ">
<polygon fill="#999999" stroke="#666666" points="678,-349 602,-349 602,-330 678,-330 678,-349"/>
<text text-anchor="middle" x="640" y="-337" font-family="Helvetica,sans-Serif" font-size="10.00">TopDevice.h</text>
</a>
</g>
</g>
<!-- Node2 -->
<g id="Node000002" class="node">
<title>Node2</title>
<g id="a_Node000002"><a xlink:href="_c_b_o_r_object_8h.html" target="_top" xlink:title=" ">
<polygon fill="white" stroke="#666666" points="1217.5,-184 1132.5,-184 1132.5,-165 1217.5,-165 1217.5,-184"/>
<text text-anchor="middle" x="1175" y="-172" font-family="Helvetica,sans-Serif" font-size="10.00">CBORObject.h</text>
</a>
</g>
</g>
<!-- Node1&#45;&gt;Node2 -->
<g id="edge1_Node000001_Node000002" class="edge">
<title>Node1&#45;&gt;Node2</title>
<g id="a_edge1_Node000001_Node000002"><a xlink:title=" ">
<path fill="none" stroke="#63b8ff" d="M678.3,-338.17C797.56,-336.26 1158.57,-323.48 1230,-239 1244.6,-221.73 1221.34,-202.09 1200.72,-189.28"/>
<polygon fill="#63b8ff" stroke="#63b8ff" points="1202.27,-186.13 1191.87,-184.07 1198.72,-192.16 1202.27,-186.13"/>
</a>
</g>
</g>
<!-- Node13 -->
<g id="Node000013" class="node">
<title>Node13</title>
<g id="a_Node000013"><a xlink:href="_date_8h.html" target="_top" xlink:title=" ">
<polygon fill="white" stroke="#666666" points="832.5,-294 783.5,-294 783.5,-275 832.5,-275 832.5,-294"/>
<text text-anchor="middle" x="808" y="-282" font-family="Helvetica,sans-Serif" font-size="10.00">Date.h</text>
</a>
</g>
</g>
<!-- Node1&#45;&gt;Node13 -->
<g id="edge15_Node000001_Node000013" class="edge">
<title>Node1&#45;&gt;Node13</title>
<g id="a_edge15_Node000001_Node000013"><a xlink:title=" ">
<path fill="none" stroke="#63b8ff" d="M666.99,-329.98C695.95,-320.85 742.02,-306.31 773.57,-296.36"/>
<polygon fill="#63b8ff" stroke="#63b8ff" points="774.78,-299.65 783.26,-293.3 772.67,-292.97 774.78,-299.65"/>
</a>
</g>
</g>
<!-- Node30 -->
<g id="Node000030" class="node">
<title>Node30</title>
<g id="a_Node000030"><a xlink:href="_m_q_t_t_device_8h.html" target="_top" xlink:title=" ">
<polygon fill="white" stroke="#666666" points="643,-184 555,-184 555,-165 643,-165 643,-184"/>
<text text-anchor="middle" x="599" y="-172" font-family="Helvetica,sans-Serif" font-size="10.00">MQTTDevice.h</text>
</a>
</g>
</g>
<!-- Node1&#45;&gt;Node30 -->
<g id="edge42_Node000001_Node000030" class="edge">
<title>Node1&#45;&gt;Node30</title>
<g id="a_edge42_Node000001_Node000030"><a xlink:title=" ">
<path fill="none" stroke="#63b8ff" d="M634.33,-329.92C623.69,-313.26 601.07,-274.98 593,-239 589.66,-224.12 591.65,-206.88 594.2,-194.12"/>
<polygon fill="#63b8ff" stroke="#63b8ff" points="597.64,-194.77 596.47,-184.24 590.82,-193.2 597.64,-194.77"/>
</a>
</g>
</g>
<!-- Node31 -->
<g id="Node000031" class="node">
<title>Node31</title>
<g id="a_Node000031"><a xlink:href="_task_scheduler_8h.html" target="_top" xlink:title=" ">
<polygon fill="white" stroke="#666666" points="498.5,-129 403.5,-129 403.5,-110 498.5,-110 498.5,-129"/>
<text text-anchor="middle" x="451" y="-117" font-family="Helvetica,sans-Serif" font-size="10.00">TaskScheduler.h</text>
</a>
</g>
</g>
<!-- Node1&#45;&gt;Node31 -->
<g id="edge45_Node000001_Node000031" class="edge">
<title>Node1&#45;&gt;Node31</title>
<g id="a_edge45_Node000001_Node000031"><a xlink:title=" ">
<path fill="none" stroke="#63b8ff" d="M632.51,-329.98C624.64,-321.04 611.93,-306.55 601,-294 550.82,-236.35 491.56,-167.61 465.05,-136.82"/>
<polygon fill="#63b8ff" stroke="#63b8ff" points="467.65,-134.48 458.47,-129.18 462.34,-139.05 467.65,-134.48"/>
</a>
</g>
</g>
<!-- Node3 -->
<g id="Node000003" class="node">
<title>Node3</title>
<g id="a_Node000003"><a xlink:title=" ">
<polygon fill="#e0e0e0" stroke="#999999" points="1070.5,-19 1007.5,-19 1007.5,0 1070.5,0 1070.5,-19"/>
<text text-anchor="middle" x="1039" y="-7" font-family="Helvetica,sans-Serif" font-size="10.00">Arduino.h</text>
</a>
</g>
</g>
<!-- Node2&#45;&gt;Node3 -->
<g id="edge2_Node000002_Node000003" class="edge">
<title>Node2&#45;&gt;Node3</title>
<g id="a_edge2_Node000002_Node000003"><a xlink:title=" ">
<path fill="none" stroke="#63b8ff" d="M1177.3,-164.96C1182.45,-143.83 1192.52,-88.44 1167,-55 1146.85,-28.6 1110,-17.78 1081,-13.39"/>
<polygon fill="#63b8ff" stroke="#63b8ff" points="1081.08,-9.87 1070.71,-12.05 1080.18,-16.81 1081.08,-9.87"/>
</a>
</g>
</g>
<!-- Node4 -->
<g id="Node000004" class="node">
<title>Node4</title>
<g id="a_Node000004"><a xlink:href="_bytes_8h.html" target="_top" xlink:title=" ">
<polygon fill="white" stroke="#666666" points="840.5,-129 787.5,-129 787.5,-110 840.5,-110 840.5,-129"/>
<text text-anchor="middle" x="814" y="-117" font-family="Helvetica,sans-Serif" font-size="10.00">Bytes.h</text>
</a>
</g>
</g>
<!-- Node2&#45;&gt;Node4 -->
<g id="edge3_Node000002_Node000004" class="edge">
<title>Node2&#45;&gt;Node4</title>
<g id="a_edge3_Node000002_Node000004"><a xlink:title=" ">
<path fill="none" stroke="#63b8ff" d="M1132.17,-167.21C1060.73,-156.72 918.43,-135.83 851.04,-125.94"/>
<polygon fill="#63b8ff" stroke="#63b8ff" points="851.29,-122.44 840.89,-124.45 850.27,-129.36 851.29,-122.44"/>
</a>
</g>
</g>
<!-- Node6 -->
<g id="Node000006" class="node">
<title>Node6</title>
<g id="a_Node000006"><a xlink:title=" ">
<polygon fill="#e0e0e0" stroke="#999999" points="782,-19 724,-19 724,0 782,0 782,-19"/>
<text text-anchor="middle" x="753" y="-7" font-family="Helvetica,sans-Serif" font-size="10.00">memory</text>
</a>
</g>
</g>
<!-- Node2&#45;&gt;Node6 -->
<g id="edge14_Node000002_Node000006" class="edge">
<title>Node2&#45;&gt;Node6</title>
<g id="a_edge14_Node000002_Node000006"><a xlink:title=" ">
<path fill="none" stroke="#63b8ff" d="M1170.76,-164.74C1159.28,-142.08 1125.19,-81.5 1077,-55 967.96,4.95 920.27,-38.29 792.49,-18.84"/>
<polygon fill="#63b8ff" stroke="#63b8ff" points="792.76,-15.34 782.33,-17.19 791.64,-22.25 792.76,-15.34"/>
</a>
</g>
</g>
<!-- Node8 -->
<g id="Node000008" class="node">
<title>Node8</title>
<g id="a_Node000008"><a xlink:href="_logger_8h.html" target="_top" xlink:title=" ">
<polygon fill="white" stroke="#666666" points="1068,-74 1010,-74 1010,-55 1068,-55 1068,-74"/>
<text text-anchor="middle" x="1039" y="-62" font-family="Helvetica,sans-Serif" font-size="10.00">Logger.h</text>
</a>
</g>
</g>
<!-- Node2&#45;&gt;Node8 -->
<g id="edge12_Node000002_Node000008" class="edge">
<title>Node2&#45;&gt;Node8</title>
<g id="a_edge12_Node000002_Node000008"><a xlink:title=" ">
<path fill="none" stroke="#63b8ff" d="M1163.87,-164.66C1140.64,-146.22 1086.78,-103.45 1057.98,-80.57"/>
<polygon fill="#63b8ff" stroke="#63b8ff" points="1059.91,-77.64 1049.9,-74.16 1055.56,-83.12 1059.91,-77.64"/>
</a>
</g>
</g>
<!-- Node12 -->
<g id="Node000012" class="node">
<title>Node12</title>
<g id="a_Node000012"><a xlink:title=" ">
<polygon fill="#e0e0e0" stroke="#999999" points="1280.5,-129 1219.5,-129 1219.5,-110 1280.5,-110 1280.5,-129"/>
<text text-anchor="middle" x="1250" y="-117" font-family="Helvetica,sans-Serif" font-size="10.00">cn&#45;cbor.h</text>
</a>
</g>
</g>
<!-- Node2&#45;&gt;Node12 -->
<g id="edge13_Node000002_Node000012" class="edge">
<title>Node2&#45;&gt;Node12</title>
<g id="a_edge13_Node000002_Node000012"><a xlink:title=" ">
<path fill="none" stroke="#63b8ff" d="M1187.05,-164.98C1198.46,-156.92 1215.83,-144.65 1229.43,-135.03"/>
<polygon fill="#63b8ff" stroke="#63b8ff" points="1231.58,-137.8 1237.73,-129.17 1227.54,-132.08 1231.58,-137.8"/>
</a>
</g>
</g>
<!-- Node5 -->
<g id="Node000005" class="node">
<title>Node5</title>
<g id="a_Node000005"><a xlink:href="_common_8h.html" target="_top" xlink:title=" ">
<polygon fill="white" stroke="#666666" points="814,-74 744,-74 744,-55 814,-55 814,-74"/>
<text text-anchor="middle" x="779" y="-62" font-family="Helvetica,sans-Serif" font-size="10.00">Common.h</text>
</a>
</g>
</g>
<!-- Node4&#45;&gt;Node5 -->
<g id="edge4_Node000004_Node000005" class="edge">
<title>Node4&#45;&gt;Node5</title>
<g id="a_edge4_Node000004_Node000005"><a xlink:title=" ">
<path fill="none" stroke="#63b8ff" d="M808.22,-109.75C803.38,-102.42 796.32,-91.73 790.36,-82.7"/>
<polygon fill="#63b8ff" stroke="#63b8ff" points="793.1,-80.5 784.67,-74.09 787.26,-84.36 793.1,-80.5"/>
</a>
</g>
</g>
<!-- Node4&#45;&gt;Node8 -->
<g id="edge7_Node000004_Node000008" class="edge">
<title>Node4&#45;&gt;Node8</title>
<g id="a_edge7_Node000004_Node000008"><a xlink:title=" ">
<path fill="none" stroke="#63b8ff" d="M840.69,-112.21C880.19,-102.91 954.44,-85.42 1000.03,-74.68"/>
<polygon fill="#63b8ff" stroke="#63b8ff" points="1000.92,-78.07 1009.85,-72.37 999.32,-71.25 1000.92,-78.07"/>
</a>
</g>
</g>
<!-- Node9 -->
<g id="Node000009" class="node">
<title>Node9</title>
<g id="a_Node000009"><a xlink:title=" ">
<polygon fill="#e0e0e0" stroke="#999999" points="896,-74 832,-74 832,-55 896,-55 896,-74"/>
<text text-anchor="middle" x="864" y="-62" font-family="Helvetica,sans-Serif" font-size="10.00">WString.h</text>
</a>
</g>
</g>
<!-- Node4&#45;&gt;Node9 -->
<g id="edge9_Node000004_Node000009" class="edge">
<title>Node4&#45;&gt;Node9</title>
<g id="a_edge9_Node000004_Node000009"><a xlink:title=" ">
<path fill="none" stroke="#63b8ff" d="M822.26,-109.75C829.46,-102.11 840.11,-90.82 848.85,-81.56"/>
<polygon fill="#63b8ff" stroke="#63b8ff" points="851.58,-83.76 855.9,-74.09 846.49,-78.96 851.58,-83.76"/>
</a>
</g>
</g>
<!-- Node10 -->
<g id="Node000010" class="node">
<title>Node10</title>
<g id="a_Node000010"><a xlink:title=" ">
<polygon fill="#e0e0e0" stroke="#999999" points="678.5,-19 613.5,-19 613.5,0 678.5,0 678.5,-19"/>
<text text-anchor="middle" x="646" y="-7" font-family="Helvetica,sans-Serif" font-size="10.00">functional</text>
</a>
</g>
</g>
<!-- Node4&#45;&gt;Node10 -->
<g id="edge10_Node000004_Node000010" class="edge">
<title>Node4&#45;&gt;Node10</title>
<g id="a_edge10_Node000004_Node000010"><a xlink:title=" ">
<path fill="none" stroke="#63b8ff" d="M797.67,-109.96C781.48,-101.34 756.12,-87.43 735,-74 710.45,-58.39 683.39,-38.71 665.63,-25.43"/>
<polygon fill="#63b8ff" stroke="#63b8ff" points="667.35,-22.34 657.25,-19.12 663.14,-27.93 667.35,-22.34"/>
</a>
</g>
</g>
<!-- Node11 -->
<g id="Node000011" class="node">
<title>Node11</title>
<g id="a_Node000011"><a xlink:title=" ">
<polygon fill="#e0e0e0" stroke="#999999" points="983.5,-74 914.5,-74 914.5,-55 983.5,-55 983.5,-74"/>
<text text-anchor="middle" x="949" y="-62" font-family="Helvetica,sans-Serif" font-size="10.00">type_traits</text>
</a>
</g>
</g>
<!-- Node4&#45;&gt;Node11 -->
<g id="edge11_Node000004_Node000011" class="edge">
<title>Node4&#45;&gt;Node11</title>
<g id="a_edge11_Node000004_Node000011"><a xlink:title=" ">
<path fill="none" stroke="#63b8ff" d="M835.69,-109.98C857.8,-101.3 892.32,-87.75 917.45,-77.88"/>
<polygon fill="#63b8ff" stroke="#63b8ff" points="918.89,-81.08 926.92,-74.17 916.33,-74.57 918.89,-81.08"/>
</a>
</g>
</g>
<!-- Node5&#45;&gt;Node6 -->
<g id="edge5_Node000005_Node000006" class="edge">
<title>Node5&#45;&gt;Node6</title>
<g id="a_edge5_Node000005_Node000006"><a xlink:title=" ">
<path fill="none" stroke="#63b8ff" d="M774.71,-54.75C771.19,-47.57 766.09,-37.18 761.72,-28.27"/>
<polygon fill="#63b8ff" stroke="#63b8ff" points="764.76,-26.53 757.21,-19.09 758.48,-29.61 764.76,-26.53"/>
</a>
</g>
</g>
<!-- Node7 -->
<g id="Node000007" class="node">
<title>Node7</title>
<g id="a_Node000007"><a xlink:title=" ">
<polygon fill="#e0e0e0" stroke="#999999" points="845.5,-19 800.5,-19 800.5,0 845.5,0 845.5,-19"/>
<text text-anchor="middle" x="823" y="-7" font-family="Helvetica,sans-Serif" font-size="10.00">utility</text>
</a>
</g>
</g>
<!-- Node5&#45;&gt;Node7 -->
<g id="edge6_Node000005_Node000007" class="edge">
<title>Node5&#45;&gt;Node7</title>
<g id="a_edge6_Node000005_Node000007"><a xlink:title=" ">
<path fill="none" stroke="#63b8ff" d="M786.27,-54.75C792.54,-47.18 801.79,-36.05 809.43,-26.84"/>
<polygon fill="#63b8ff" stroke="#63b8ff" points="812.17,-29.02 815.87,-19.09 806.79,-24.55 812.17,-29.02"/>
</a>
</g>
</g>
<!-- Node8&#45;&gt;Node3 -->
<g id="edge8_Node000008_Node000003" class="edge">
<title>Node8&#45;&gt;Node3</title>
<g id="a_edge8_Node000008_Node000003"><a xlink:title=" ">
<path fill="none" stroke="#63b8ff" d="M1039,-54.75C1039,-47.8 1039,-37.85 1039,-29.13"/>
<polygon fill="#63b8ff" stroke="#63b8ff" points="1042.5,-29.09 1039,-19.09 1035.5,-29.09 1042.5,-29.09"/>
</a>
</g>
</g>
<!-- Node14 -->
<g id="Node000014" class="node">
<title>Node14</title>
<g id="a_Node000014"><a xlink:title=" ">
<polygon fill="#e0e0e0" stroke="#999999" points="1020.5,-239 931.5,-239 931.5,-220 1020.5,-220 1020.5,-239"/>
<text text-anchor="middle" x="976" y="-227" font-family="Helvetica,sans-Serif" font-size="10.00">ESP8266WiFi.h</text>
</a>
</g>
</g>
<!-- Node13&#45;&gt;Node14 -->
<g id="edge16_Node000013_Node000014" class="edge">
<title>Node13&#45;&gt;Node14</title>
<g id="a_edge16_Node000013_Node000014"><a xlink:title=" ">
<path fill="none" stroke="#63b8ff" d="M832.79,-275.68C860.91,-266.81 907.05,-252.25 939.34,-242.07"/>
<polygon fill="#63b8ff" stroke="#63b8ff" points="940.4,-245.4 948.88,-239.06 938.29,-238.73 940.4,-245.4"/>
</a>
</g>
</g>
<!-- Node15 -->
<g id="Node000015" class="node">
<title>Node15</title>
<g id="a_Node000015"><a xlink:title=" ">
<polygon fill="#e0e0e0" stroke="#999999" points="1111,-239 1039,-239 1039,-220 1111,-220 1111,-239"/>
<text text-anchor="middle" x="1075" y="-227" font-family="Helvetica,sans-Serif" font-size="10.00">coredecls.h</text>
</a>
</g>
</g>
<!-- Node13&#45;&gt;Node15 -->
<g id="edge17_Node000013_Node000015" class="edge">
<title>Node13&#45;&gt;Node15</title>
<g id="a_edge17_Node000013_Node000015"><a xlink:title=" ">
<path fill="none" stroke="#63b8ff" d="M832.64,-278.61C877.21,-269.76 971.88,-250.97 1028.82,-239.67"/>
<polygon fill="#63b8ff" stroke="#63b8ff" points="1029.52,-243.1 1038.64,-237.72 1028.15,-236.23 1029.52,-243.1"/>
</a>
</g>
</g>
<!-- Node16 -->
<g id="Node000016" class="node">
<title>Node16</title>
<g id="a_Node000016"><a xlink:href="_c_b_o_r_storage_8h.html" target="_top" xlink:title=" ">
<polygon fill="white" stroke="#666666" points="1220.5,-239 1129.5,-239 1129.5,-220 1220.5,-220 1220.5,-239"/>
<text text-anchor="middle" x="1175" y="-227" font-family="Helvetica,sans-Serif" font-size="10.00">CBORStorage.h</text>
</a>
</g>
</g>
<!-- Node13&#45;&gt;Node16 -->
<g id="edge18_Node000013_Node000016" class="edge">
<title>Node13&#45;&gt;Node16</title>
<g id="a_edge18_Node000013_Node000016"><a xlink:title=" ">
<path fill="none" stroke="#63b8ff" d="M832.69,-280.08C883.96,-272.95 1005.94,-255.88 1119.48,-239.06"/>
<polygon fill="#63b8ff" stroke="#63b8ff" points="1120.01,-242.52 1129.39,-237.59 1118.98,-235.6 1120.01,-242.52"/>
</a>
</g>
</g>
<!-- Node20 -->
<g id="Node000020" class="node">
<title>Node20</title>
<g id="a_Node000020"><a xlink:href="_event_emitter_8h.html" target="_top" xlink:title=" ">
<polygon fill="white" stroke="#666666" points="690.5,-239 601.5,-239 601.5,-220 690.5,-220 690.5,-239"/>
<text text-anchor="middle" x="646" y="-227" font-family="Helvetica,sans-Serif" font-size="10.00">EventEmitter.h</text>
</a>
</g>
</g>
<!-- Node13&#45;&gt;Node20 -->
<g id="edge25_Node000013_Node000020" class="edge">
<title>Node13&#45;&gt;Node20</title>
<g id="a_edge25_Node000013_Node000020"><a xlink:title=" ">
<path fill="none" stroke="#63b8ff" d="M783.4,-275.45C756.32,-266.59 712.55,-252.27 681.71,-242.18"/>
<polygon fill="#63b8ff" stroke="#63b8ff" points="682.77,-238.85 672.18,-239.07 680.6,-245.5 682.77,-238.85"/>
</a>
</g>
</g>
<!-- Node25 -->
<g id="Node000025" class="node">
<title>Node25</title>
<g id="a_Node000025"><a xlink:href="_i_executor_8h.html" target="_top" xlink:title=" ">
<polygon fill="white" stroke="#666666" points="586,-74 516,-74 516,-55 586,-55 586,-74"/>
<text text-anchor="middle" x="551" y="-62" font-family="Helvetica,sans-Serif" font-size="10.00">IExecutor.h</text>
</a>
</g>
</g>
<!-- Node13&#45;&gt;Node25 -->
<g id="edge35_Node000013_Node000025" class="edge">
<title>Node13&#45;&gt;Node25</title>
<g id="a_edge35_Node000013_Node000025"><a xlink:title=" ">
<path fill="none" stroke="#63b8ff" d="M783.27,-283.46C741.26,-282.34 654.52,-275.37 593,-239 565.32,-222.64 557.13,-214.17 546,-184 533.63,-150.48 540.33,-107.96 545.92,-84.04"/>
<polygon fill="#63b8ff" stroke="#63b8ff" points="549.36,-84.74 548.42,-74.18 542.57,-83.02 549.36,-84.74"/>
</a>
</g>
</g>
<!-- Node26 -->
<g id="Node000026" class="node">
<title>Node26</title>
<g id="a_Node000026"><a xlink:href="_simple_n_t_p_8h.html" target="_top" xlink:title=" ">
<polygon fill="white" stroke="#666666" points="913.5,-239 836.5,-239 836.5,-220 913.5,-220 913.5,-239"/>
<text text-anchor="middle" x="875" y="-227" font-family="Helvetica,sans-Serif" font-size="10.00">SimpleNTP.h</text>
</a>
</g>
</g>
<!-- Node13&#45;&gt;Node26 -->
<g id="edge36_Node000013_Node000026" class="edge">
<title>Node13&#45;&gt;Node26</title>
<g id="a_edge36_Node000013_Node000026"><a xlink:title=" ">
<path fill="none" stroke="#63b8ff" d="M818.76,-274.98C828.77,-267.07 843.89,-255.11 855.93,-245.58"/>
<polygon fill="#63b8ff" stroke="#63b8ff" points="858.37,-248.12 864.04,-239.17 854.03,-242.63 858.37,-248.12"/>
</a>
</g>
</g>
<!-- Node28 -->
<g id="Node000028" class="node">
<title>Node28</title>
<g id="a_Node000028"><a xlink:title=" ">
<polygon fill="#e0e0e0" stroke="#999999" points="883,-184 835,-184 835,-165 883,-165 883,-184"/>
<text text-anchor="middle" x="859" y="-172" font-family="Helvetica,sans-Serif" font-size="10.00">time.h</text>
</a>
</g>
</g>
<!-- Node13&#45;&gt;Node28 -->
<g id="edge41_Node000013_Node000028" class="edge">
<title>Node13&#45;&gt;Node28</title>
<g id="a_edge41_Node000013_Node000028"><a xlink:title=" ">
<path fill="none" stroke="#63b8ff" d="M809.82,-274.97C812.66,-262.48 818.82,-238.67 828,-220 832.77,-210.3 839.49,-200.35 845.46,-192.33"/>
<polygon fill="#63b8ff" stroke="#63b8ff" points="848.39,-194.26 851.73,-184.2 842.85,-189.98 848.39,-194.26"/>
</a>
</g>
</g>
<!-- Node29 -->
<g id="Node000029" class="node">
<title>Node29</title>
<g id="a_Node000029"><a xlink:href="_singleton_8h.html" target="_top" xlink:title=" ">
<polygon fill="white" stroke="#666666" points="779.5,-239 708.5,-239 708.5,-220 779.5,-220 779.5,-239"/>
<text text-anchor="middle" x="744" y="-227" font-family="Helvetica,sans-Serif" font-size="10.00">Singleton.h</text>
</a>
</g>
</g>
<!-- Node13&#45;&gt;Node29 -->
<g id="edge40_Node000013_Node000029" class="edge">
<title>Node13&#45;&gt;Node29</title>
<g id="a_edge40_Node000013_Node000029"><a xlink:title=" ">
<path fill="none" stroke="#63b8ff" d="M797.72,-274.98C788.16,-267.07 773.72,-255.11 762.22,-245.58"/>
<polygon fill="#63b8ff" stroke="#63b8ff" points="764.4,-242.85 754.47,-239.17 759.94,-248.24 764.4,-242.85"/>
</a>
</g>
</g>
<!-- Node16&#45;&gt;Node2 -->
<g id="edge24_Node000016_Node000002" class="edge">
<title>Node16&#45;&gt;Node2</title>
<g id="a_edge24_Node000016_Node000002"><a xlink:title=" ">
<path fill="none" stroke="#63b8ff" d="M1175,-219.75C1175,-212.8 1175,-202.85 1175,-194.13"/>
<polygon fill="#63b8ff" stroke="#63b8ff" points="1178.5,-194.09 1175,-184.09 1171.5,-194.09 1178.5,-194.09"/>
</a>
</g>
</g>
<!-- Node17 -->
<g id="Node000017" class="node">
<title>Node17</title>
<g id="a_Node000017"><a xlink:href="_storage_8h.html" target="_top" xlink:title=" ">
<polygon fill="white" stroke="#666666" points="1048.5,-184 985.5,-184 985.5,-165 1048.5,-165 1048.5,-184"/>
<text text-anchor="middle" x="1017" y="-172" font-family="Helvetica,sans-Serif" font-size="10.00">Storage.h</text>
</a>
</g>
</g>
<!-- Node16&#45;&gt;Node17 -->
<g id="edge19_Node000016_Node000017" class="edge">
<title>Node16&#45;&gt;Node17</title>
<g id="a_edge19_Node000016_Node000017"><a xlink:title=" ">
<path fill="none" stroke="#63b8ff" d="M1149.61,-219.98C1123.2,-211.13 1081.65,-197.19 1052.11,-187.28"/>
<polygon fill="#63b8ff" stroke="#63b8ff" points="1053.18,-183.94 1042.58,-184.08 1050.95,-190.58 1053.18,-183.94"/>
</a>
</g>
</g>
<!-- Node17&#45;&gt;Node4 -->
<g id="edge22_Node000017_Node000004" class="edge">
<title>Node17&#45;&gt;Node4</title>
<g id="a_edge22_Node000017_Node000004"><a xlink:title=" ">
<path fill="none" stroke="#63b8ff" d="M985.28,-165.22C948.74,-155.68 888.8,-140.03 850.39,-130"/>
<polygon fill="#63b8ff" stroke="#63b8ff" points="851.2,-126.6 840.64,-127.46 849.43,-133.37 851.2,-126.6"/>
</a>
</g>
</g>
<!-- Node17&#45;&gt;Node8 -->
<g id="edge23_Node000017_Node000008" class="edge">
<title>Node17&#45;&gt;Node8</title>
<g id="a_edge23_Node000017_Node000008"><a xlink:title=" ">
<path fill="none" stroke="#63b8ff" d="M1018.8,-164.66C1022.36,-147.17 1030.38,-107.8 1035.18,-84.27"/>
<polygon fill="#63b8ff" stroke="#63b8ff" points="1038.67,-84.66 1037.24,-74.16 1031.81,-83.26 1038.67,-84.66"/>
</a>
</g>
</g>
<!-- Node18 -->
<g id="Node000018" class="node">
<title>Node18</title>
<g id="a_Node000018"><a xlink:title=" ">
<polygon fill="#e0e0e0" stroke="#999999" points="1011,-129 953,-129 953,-110 1011,-110 1011,-129"/>
<text text-anchor="middle" x="982" y="-117" font-family="Helvetica,sans-Serif" font-size="10.00">SPIFFS.h</text>
</a>
</g>
</g>
<!-- Node17&#45;&gt;Node18 -->
<g id="edge20_Node000017_Node000018" class="edge">
<title>Node17&#45;&gt;Node18</title>
<g id="a_edge20_Node000017_Node000018"><a xlink:title=" ">
<path fill="none" stroke="#63b8ff" d="M1011.22,-164.75C1006.38,-157.42 999.32,-146.73 993.36,-137.7"/>
<polygon fill="#63b8ff" stroke="#63b8ff" points="996.1,-135.5 987.67,-129.09 990.26,-139.36 996.1,-135.5"/>
</a>
</g>
</g>
<!-- Node19 -->
<g id="Node000019" class="node">
<title>Node19</title>
<g id="a_Node000019"><a xlink:title=" ">
<polygon fill="#e0e0e0" stroke="#999999" points="934.5,-129 897.5,-129 897.5,-110 934.5,-110 934.5,-129"/>
<text text-anchor="middle" x="916" y="-117" font-family="Helvetica,sans-Serif" font-size="10.00">FS.h</text>
</a>
</g>
</g>
<!-- Node17&#45;&gt;Node19 -->
<g id="edge21_Node000017_Node000019" class="edge">
<title>Node17&#45;&gt;Node19</title>
<g id="a_edge21_Node000017_Node000019"><a xlink:title=" ">
<path fill="none" stroke="#63b8ff" d="M1000.77,-164.98C984.82,-156.61 960.22,-143.7 941.62,-133.95"/>
<polygon fill="#63b8ff" stroke="#63b8ff" points="943,-130.72 932.52,-129.17 939.75,-136.92 943,-130.72"/>
</a>
</g>
</g>
<!-- Node20&#45;&gt;Node4 -->
<g id="edge26_Node000020_Node000004" class="edge">
<title>Node20&#45;&gt;Node4</title>
<g id="a_edge26_Node000020_Node000004"><a xlink:title=" ">
<path fill="none" stroke="#63b8ff" d="M685.89,-220C722.4,-211.52 772.97,-197.81 788,-184 800.74,-172.3 807.39,-153.45 810.76,-139.32"/>
<polygon fill="#63b8ff" stroke="#63b8ff" points="814.25,-139.72 812.82,-129.22 807.39,-138.33 814.25,-139.72"/>
</a>
</g>
</g>
<!-- Node21 -->
<g id="Node000021" class="node">
<title>Node21</title>
<g id="a_Node000021"><a xlink:href="_iterable_queue_8h.html" target="_top" xlink:title=" ">
<polygon fill="white" stroke="#666666" points="693.5,-129 598.5,-129 598.5,-110 693.5,-110 693.5,-129"/>
<text text-anchor="middle" x="646" y="-117" font-family="Helvetica,sans-Serif" font-size="10.00">IterableQueue.h</text>
</a>
</g>
</g>
<!-- Node20&#45;&gt;Node21 -->
<g id="edge27_Node000020_Node000021" class="edge">
<title>Node20&#45;&gt;Node21</title>
<g id="a_edge27_Node000020_Node000021"><a xlink:title=" ">
<path fill="none" stroke="#63b8ff" d="M647.7,-219.88C649.9,-207.68 653.32,-184.67 652,-165 651.43,-156.54 650.26,-147.24 649.11,-139.34"/>
<polygon fill="#63b8ff" stroke="#63b8ff" points="652.55,-138.67 647.55,-129.33 645.63,-139.75 652.55,-138.67"/>
</a>
</g>
</g>
<!-- Node23 -->
<g id="Node000023" class="node">
<title>Node23</title>
<g id="a_Node000023"><a xlink:href="_event_entity_8h.html" target="_top" xlink:title=" ">
<polygon fill="white" stroke="#666666" points="779,-184 699,-184 699,-165 779,-165 779,-184"/>
<text text-anchor="middle" x="739" y="-172" font-family="Helvetica,sans-Serif" font-size="10.00">EventEntity.h</text>
</a>
</g>
</g>
<!-- Node20&#45;&gt;Node23 -->
<g id="edge31_Node000020_Node000023" class="edge">
<title>Node20&#45;&gt;Node23</title>
<g id="a_edge31_Node000020_Node000023"><a xlink:title=" ">
<path fill="none" stroke="#63b8ff" d="M660.94,-219.98C675.5,-211.69 697.87,-198.94 714.93,-189.22"/>
<polygon fill="#63b8ff" stroke="#63b8ff" points="716.83,-192.16 723.79,-184.17 713.36,-186.08 716.83,-192.16"/>
</a>
</g>
</g>
<!-- Node22 -->
<g id="Node000022" class="node">
<title>Node22</title>
<g id="a_Node000022"><a xlink:href="_clear_queue_8h.html" target="_top" xlink:title=" ">
<polygon fill="white" stroke="#666666" points="687.5,-74 604.5,-74 604.5,-55 687.5,-55 687.5,-74"/>
<text text-anchor="middle" x="646" y="-62" font-family="Helvetica,sans-Serif" font-size="10.00">ClearQueue.h</text>
</a>
</g>
</g>
<!-- Node21&#45;&gt;Node22 -->
<g id="edge28_Node000021_Node000022" class="edge">
<title>Node21&#45;&gt;Node22</title>
<g id="a_edge28_Node000021_Node000022"><a xlink:title=" ">
<path fill="none" stroke="#63b8ff" d="M646,-109.75C646,-102.8 646,-92.85 646,-84.13"/>
<polygon fill="#63b8ff" stroke="#63b8ff" points="649.5,-84.09 646,-74.09 642.5,-84.09 649.5,-84.09"/>
</a>
</g>
</g>
<!-- Node22&#45;&gt;Node3 -->
<g id="edge29_Node000022_Node000003" class="edge">
<title>Node22&#45;&gt;Node3</title>
<g id="a_edge29_Node000022_Node000003"><a xlink:title=" ">
<path fill="none" stroke="#63b8ff" d="M687.69,-57.88C763.15,-47.7 921.59,-26.33 997.17,-16.14"/>
<polygon fill="#63b8ff" stroke="#63b8ff" points="997.82,-19.58 1007.27,-14.78 996.89,-12.65 997.82,-19.58"/>
</a>
</g>
</g>
<!-- Node22&#45;&gt;Node10 -->
<g id="edge30_Node000022_Node000010" class="edge">
<title>Node22&#45;&gt;Node10</title>
<g id="a_edge30_Node000022_Node000010"><a xlink:title=" ">
<path fill="none" stroke="#63b8ff" d="M646,-54.75C646,-47.8 646,-37.85 646,-29.13"/>
<polygon fill="#63b8ff" stroke="#63b8ff" points="649.5,-29.09 646,-19.09 642.5,-29.09 649.5,-29.09"/>
</a>
</g>
</g>
<!-- Node23&#45;&gt;Node8 -->
<g id="edge33_Node000023_Node000008" class="edge">
<title>Node23&#45;&gt;Node8</title>
<g id="a_edge33_Node000023_Node000008"><a xlink:title=" ">
<path fill="none" stroke="#63b8ff" d="M761.73,-164.94C784.31,-156.31 819.82,-142.38 850,-129 867.63,-121.19 871.03,-116.99 889,-110 925.85,-95.67 969.28,-83.25 999.9,-75.2"/>
<polygon fill="#63b8ff" stroke="#63b8ff" points="1000.97,-78.54 1009.77,-72.64 999.21,-71.77 1000.97,-78.54"/>
</a>
</g>
</g>
<!-- Node23&#45;&gt;Node21 -->
<g id="edge32_Node000023_Node000021" class="edge">
<title>Node23&#45;&gt;Node21</title>
<g id="a_edge32_Node000023_Node000021"><a xlink:title=" ">
<path fill="none" stroke="#63b8ff" d="M724.06,-164.98C709.5,-156.69 687.13,-143.94 670.07,-134.22"/>
<polygon fill="#63b8ff" stroke="#63b8ff" points="671.64,-131.08 661.21,-129.17 668.17,-137.16 671.64,-131.08"/>
</a>
</g>
</g>
<!-- Node24 -->
<g id="Node000024" class="node">
<title>Node24</title>
<g id="a_Node000024"><a xlink:href="_type_id_8h.html" target="_top" xlink:title=" ">
<polygon fill="white" stroke="#666666" points="768.5,-129 711.5,-129 711.5,-110 768.5,-110 768.5,-129"/>
<text text-anchor="middle" x="740" y="-117" font-family="Helvetica,sans-Serif" font-size="10.00">TypeId.h</text>
</a>
</g>
</g>
<!-- Node23&#45;&gt;Node24 -->
<g id="edge34_Node000023_Node000024" class="edge">
<title>Node23&#45;&gt;Node24</title>
<g id="a_edge34_Node000023_Node000024"><a xlink:title=" ">
<path fill="none" stroke="#63b8ff" d="M739.17,-164.75C739.3,-157.8 739.48,-147.85 739.65,-139.13"/>
<polygon fill="#63b8ff" stroke="#63b8ff" points="743.15,-139.15 739.84,-129.09 736.15,-139.02 743.15,-139.15"/>
</a>
</g>
</g>
<!-- Node26&#45;&gt;Node8 -->
<g id="edge37_Node000026_Node000008" class="edge">
<title>Node26&#45;&gt;Node8</title>
<g id="a_edge37_Node000026_Node000008"><a xlink:title=" ">
<path fill="none" stroke="#63b8ff" d="M913.54,-221.73C964.52,-212.39 1049.03,-195.41 1058,-184 1081.19,-154.5 1062.35,-107.86 1049.14,-82.8"/>
<polygon fill="#63b8ff" stroke="#63b8ff" points="1052.19,-81.09 1044.28,-74.05 1046.07,-84.49 1052.19,-81.09"/>
</a>
</g>
</g>
<!-- Node27 -->
<g id="Node000027" class="node">
<title>Node27</title>
<g id="a_Node000027"><a xlink:title=" ">
<polygon fill="#e0e0e0" stroke="#999999" points="967,-184 901,-184 901,-165 967,-165 967,-184"/>
<text text-anchor="middle" x="934" y="-172" font-family="Helvetica,sans-Serif" font-size="10.00">WiFiUdp.h</text>
</a>
</g>
</g>
<!-- Node26&#45;&gt;Node27 -->
<g id="edge38_Node000026_Node000027" class="edge">
<title>Node26&#45;&gt;Node27</title>
<g id="a_edge38_Node000026_Node000027"><a xlink:title=" ">
<path fill="none" stroke="#63b8ff" d="M884.48,-219.98C893.2,-212.15 906.34,-200.34 916.9,-190.86"/>
<polygon fill="#63b8ff" stroke="#63b8ff" points="919.25,-193.46 924.35,-184.17 914.57,-188.25 919.25,-193.46"/>
</a>
</g>
</g>
<!-- Node26&#45;&gt;Node28 -->
<g id="edge39_Node000026_Node000028" class="edge">
<title>Node26&#45;&gt;Node28</title>
<g id="a_edge39_Node000026_Node000028"><a xlink:title=" ">
<path fill="none" stroke="#63b8ff" d="M872.36,-219.75C870.24,-212.72 867.19,-202.62 864.54,-193.84"/>
<polygon fill="#63b8ff" stroke="#63b8ff" points="867.83,-192.65 861.59,-184.09 861.13,-194.67 867.83,-192.65"/>
</a>
</g>
</g>
<!-- Node30&#45;&gt;Node4 -->
<g id="edge43_Node000030_Node000004" class="edge">
<title>Node30&#45;&gt;Node4</title>
<g id="a_edge43_Node000030_Node000004"><a xlink:title=" ">
<path fill="none" stroke="#63b8ff" d="M633.54,-164.98C672.96,-155.27 737.17,-139.44 777.42,-129.52"/>
<polygon fill="#63b8ff" stroke="#63b8ff" points="778.48,-132.86 787.35,-127.07 776.8,-126.06 778.48,-132.86"/>
</a>
</g>
</g>
<!-- Node30&#45;&gt;Node21 -->
<g id="edge44_Node000030_Node000021" class="edge">
<title>Node30&#45;&gt;Node21</title>
<g id="a_edge44_Node000030_Node000021"><a xlink:title=" ">
<path fill="none" stroke="#63b8ff" d="M606.76,-164.75C613.47,-157.18 623.34,-146.05 631.51,-136.84"/>
<polygon fill="#63b8ff" stroke="#63b8ff" points="634.37,-138.89 638.38,-129.09 629.13,-134.25 634.37,-138.89"/>
</a>
</g>
</g>
<!-- Node31&#45;&gt;Node5 -->
<g id="edge54_Node000031_Node000005" class="edge">
<title>Node31&#45;&gt;Node5</title>
<g id="a_edge54_Node000031_Node000005"><a xlink:title=" ">
<path fill="none" stroke="#63b8ff" d="M498.69,-110.79C561.68,-100.62 671.82,-82.82 733.62,-72.83"/>
<polygon fill="#63b8ff" stroke="#63b8ff" points="734.53,-76.23 743.84,-71.18 733.41,-69.32 734.53,-76.23"/>
</a>
</g>
</g>
<!-- Node31&#45;&gt;Node6 -->
<g id="edge58_Node000031_Node000006" class="edge">
<title>Node31&#45;&gt;Node6</title>
<g id="a_edge58_Node000031_Node000006"><a xlink:title=" ">
<path fill="none" stroke="#63b8ff" d="M455.93,-109.87C464.41,-95.87 483.19,-68.43 507,-55 524.73,-45 648.53,-25.77 713.45,-16.2"/>
<polygon fill="#63b8ff" stroke="#63b8ff" points="714.33,-19.61 723.72,-14.69 713.32,-12.68 714.33,-19.61"/>
</a>
</g>
</g>
<!-- Node31&#45;&gt;Node10 -->
<g id="edge57_Node000031_Node000010" class="edge">
<title>Node31&#45;&gt;Node10</title>
<g id="a_edge57_Node000031_Node000010"><a xlink:title=" ">
<path fill="none" stroke="#63b8ff" d="M451.65,-109.7C453.14,-95.97 458.04,-69.52 474,-55 509.24,-22.93 564.58,-13.36 602.93,-10.82"/>
<polygon fill="#63b8ff" stroke="#63b8ff" points="603.46,-14.29 613.27,-10.27 603.1,-7.3 603.46,-14.29"/>
</a>
</g>
</g>
<!-- Node31&#45;&gt;Node22 -->
<g id="edge53_Node000031_Node000022" class="edge">
<title>Node31&#45;&gt;Node22</title>
<g id="a_edge53_Node000031_Node000022"><a xlink:title=" ">
<path fill="none" stroke="#63b8ff" d="M482.33,-109.98C515.49,-100.97 568,-86.7 604.56,-76.76"/>
<polygon fill="#63b8ff" stroke="#63b8ff" points="605.69,-80.08 614.42,-74.08 603.86,-73.33 605.69,-80.08"/>
</a>
</g>
</g>
<!-- Node31&#45;&gt;Node25 -->
<g id="edge55_Node000031_Node000025" class="edge">
<title>Node31&#45;&gt;Node25</title>
<g id="a_edge55_Node000031_Node000025"><a xlink:title=" ">
<path fill="none" stroke="#63b8ff" d="M467.07,-109.98C482.86,-101.61 507.22,-88.7 525.63,-78.95"/>
<polygon fill="#63b8ff" stroke="#63b8ff" points="527.44,-81.95 534.64,-74.17 524.17,-75.76 527.44,-81.95"/>
</a>
</g>
</g>
<!-- Node32 -->
<g id="Node000032" class="node">
<title>Node32</title>
<g id="a_Node000032"><a xlink:href="_e_s_p8266_task_8h.html" target="_top" xlink:title=" ">
<polygon fill="white" stroke="#666666" points="258.5,-74 169.5,-74 169.5,-55 258.5,-55 258.5,-74"/>
<text text-anchor="middle" x="214" y="-62" font-family="Helvetica,sans-Serif" font-size="10.00">ESP8266Task.h</text>
</a>
</g>
</g>
<!-- Node31&#45;&gt;Node32 -->
<g id="edge46_Node000031_Node000032" class="edge">
<title>Node31&#45;&gt;Node32</title>
<g id="a_edge46_Node000031_Node000032"><a xlink:title=" ">
<path fill="none" stroke="#63b8ff" d="M412.92,-109.98C372.01,-100.84 306.89,-86.27 262.38,-76.32"/>
<polygon fill="#63b8ff" stroke="#63b8ff" points="262.9,-72.85 252.38,-74.08 261.37,-79.68 262.9,-72.85"/>
</a>
</g>
</g>
<!-- Node39 -->
<g id="Node000039" class="node">
<title>Node39</title>
<g id="a_Node000039"><a xlink:href="_i_scheduler_connection_kit_8h.html" target="_top" xlink:title=" ">
<polygon fill="white" stroke="#666666" points="421.5,-74 276.5,-74 276.5,-55 421.5,-55 421.5,-74"/>
<text text-anchor="middle" x="349" y="-62" font-family="Helvetica,sans-Serif" font-size="10.00">ISchedulerConnectionKit.h</text>
</a>
</g>
</g>
<!-- Node31&#45;&gt;Node39 -->
<g id="edge56_Node000031_Node000039" class="edge">
<title>Node31&#45;&gt;Node39</title>
<g id="a_edge56_Node000031_Node000039"><a xlink:title=" ">
<path fill="none" stroke="#63b8ff" d="M434.61,-109.98C418.43,-101.57 393.43,-88.59 374.62,-78.81"/>
<polygon fill="#63b8ff" stroke="#63b8ff" points="376.17,-75.68 365.69,-74.17 372.95,-81.89 376.17,-75.68"/>
</a>
</g>
</g>
<!-- Node33 -->
<g id="Node000033" class="node">
<title>Node33</title>
<g id="a_Node000033"><a xlink:title=" ">
<polygon fill="#e0e0e0" stroke="#999999" points="206,-19 150,-19 150,0 206,0 206,-19"/>
<text text-anchor="middle" x="178" y="-7" font-family="Helvetica,sans-Serif" font-size="10.00">stddef.h</text>
</a>
</g>
</g>
<!-- Node32&#45;&gt;Node33 -->
<g id="edge47_Node000032_Node000033" class="edge">
<title>Node32&#45;&gt;Node33</title>
<g id="a_edge47_Node000032_Node000033"><a xlink:title=" ">
<path fill="none" stroke="#63b8ff" d="M208.06,-54.75C203.02,-47.34 195.66,-36.5 189.49,-27.41"/>
<polygon fill="#63b8ff" stroke="#63b8ff" points="192.35,-25.39 183.83,-19.09 186.56,-29.33 192.35,-25.39"/>
</a>
</g>
</g>
<!-- Node34 -->
<g id="Node000034" class="node">
<title>Node34</title>
<g id="a_Node000034"><a xlink:title=" ">
<polygon fill="#e0e0e0" stroke="#999999" points="277.5,-19 224.5,-19 224.5,0 277.5,0 277.5,-19"/>
<text text-anchor="middle" x="251" y="-7" font-family="Helvetica,sans-Serif" font-size="10.00">stdint.h</text>
</a>
</g>
</g>
<!-- Node32&#45;&gt;Node34 -->
<g id="edge48_Node000032_Node000034" class="edge">
<title>Node32&#45;&gt;Node34</title>
<g id="a_edge48_Node000032_Node000034"><a xlink:title=" ">
<path fill="none" stroke="#63b8ff" d="M220.11,-54.75C225.28,-47.34 232.85,-36.5 239.19,-27.41"/>
<polygon fill="#63b8ff" stroke="#63b8ff" points="242.15,-29.29 245,-19.09 236.41,-25.29 242.15,-29.29"/>
</a>
</g>
</g>
<!-- Node35 -->
<g id="Node000035" class="node">
<title>Node35</title>
<g id="a_Node000035"><a xlink:title=" ">
<polygon fill="#e0e0e0" stroke="#999999" points="358.5,-19 295.5,-19 295.5,0 358.5,0 358.5,-19"/>
<text text-anchor="middle" x="327" y="-7" font-family="Helvetica,sans-Serif" font-size="10.00">c_types.h</text>
</a>
</g>
</g>
<!-- Node32&#45;&gt;Node35 -->
<g id="edge49_Node000032_Node000035" class="edge">
<title>Node32&#45;&gt;Node35</title>
<g id="a_edge49_Node000032_Node000035"><a xlink:title=" ">
<path fill="none" stroke="#63b8ff" d="M232.16,-54.98C250.25,-46.5 278.28,-33.35 299.19,-23.54"/>
<polygon fill="#63b8ff" stroke="#63b8ff" points="300.95,-26.59 308.51,-19.17 297.97,-20.25 300.95,-26.59"/>
</a>
</g>
</g>
<!-- Node36 -->
<g id="Node000036" class="node">
<title>Node36</title>
<g id="a_Node000036"><a xlink:title=" ">
<polygon fill="#e0e0e0" stroke="#999999" points="451,-19 377,-19 377,0 451,0 451,-19"/>
<text text-anchor="middle" x="414" y="-7" font-family="Helvetica,sans-Serif" font-size="10.00">eagle_soc.h</text>
</a>
</g>
</g>
<!-- Node32&#45;&gt;Node36 -->
<g id="edge50_Node000032_Node000036" class="edge">
<title>Node32&#45;&gt;Node36</title>
<g id="a_edge50_Node000032_Node000036"><a xlink:title=" ">
<path fill="none" stroke="#63b8ff" d="M246.13,-54.98C280.15,-45.97 334,-31.7 371.5,-21.76"/>
<polygon fill="#63b8ff" stroke="#63b8ff" points="372.84,-25.03 381.61,-19.08 371.05,-18.26 372.84,-25.03"/>
</a>
</g>
</g>
<!-- Node37 -->
<g id="Node000037" class="node">
<title>Node37</title>
<g id="a_Node000037"><a xlink:title=" ">
<polygon fill="#e0e0e0" stroke="#999999" points="62,-19 0,-19 0,0 62,0 62,-19"/>
<text text-anchor="middle" x="31" y="-7" font-family="Helvetica,sans-Serif" font-size="10.00">ets_sys.h</text>
</a>
</g>
</g>
<!-- Node32&#45;&gt;Node37 -->
<g id="edge51_Node000032_Node000037" class="edge">
<title>Node32&#45;&gt;Node37</title>
<g id="a_edge51_Node000032_Node000037"><a xlink:title=" ">
<path fill="none" stroke="#63b8ff" d="M184.6,-54.98C153.61,-46.01 104.62,-31.82 70.33,-21.89"/>
<polygon fill="#63b8ff" stroke="#63b8ff" points="71.21,-18.5 60.63,-19.08 69.26,-25.23 71.21,-18.5"/>
</a>
</g>
</g>
<!-- Node38 -->
<g id="Node000038" class="node">
<title>Node38</title>
<g id="a_Node000038"><a xlink:title=" ">
<polygon fill="#e0e0e0" stroke="#999999" points="132,-19 80,-19 80,0 132,0 132,-19"/>
<text text-anchor="middle" x="106" y="-7" font-family="Helvetica,sans-Serif" font-size="10.00">osapi.h</text>
</a>
</g>
</g>
<!-- Node32&#45;&gt;Node38 -->
<g id="edge52_Node000032_Node000038" class="edge">
<title>Node32&#45;&gt;Node38</title>
<g id="a_edge52_Node000032_Node000038"><a xlink:title=" ">
<path fill="none" stroke="#63b8ff" d="M196.65,-54.98C179.43,-46.54 152.8,-33.47 132.85,-23.68"/>
<polygon fill="#63b8ff" stroke="#63b8ff" points="134.19,-20.43 123.67,-19.17 131.1,-26.72 134.19,-20.43"/>
</a>
</g>
</g>
</g>
</svg>
