<?xml version="1.0" encoding="UTF-8" standalone="no"?>
<!DOCTYPE svg PUBLIC "-//W3C//DTD SVG 1.1//EN"
 "http://www.w3.org/Graphics/SVG/1.1/DTD/svg11.dtd">
<!-- Generated by graphviz version 2.43.0 (0)
 -->
<!-- Title: uniot::ISchedulerConnectionKit Pages: 1 -->
<svg width="506pt" height="82pt"
 viewBox="0.00 0.00 505.50 82.00" xmlns="http://www.w3.org/2000/svg" xmlns:xlink="http://www.w3.org/1999/xlink">
<g id="graph0" class="graph" transform="scale(1 1) rotate(0) translate(4 78)">
<title>uniot::ISchedulerConnectionKit</title>
<!-- Node1 -->
<g id="Node000001" class="node">
<title>Node1</title>
<g id="a_Node000001"><a xlink:title="Interface for connecting components to the TaskScheduler.">
<polygon fill="#999999" stroke="#666666" points="291.5,-74 124.5,-74 124.5,-55 291.5,-55 291.5,-74"/>
<text text-anchor="middle" x="208" y="-62" font-family="Helvetica,sans-Serif" font-size="10.00">uniot::ISchedulerConnectionKit</text>
</a>
</g>
</g>
<!-- Node2 -->
<g id="Node000002" class="node">
<title>Node2</title>
<g id="a_Node000002"><a xlink:href="classuniot_1_1_app_kit.html" target="_top" xlink:title=" ">
<polygon fill="white" stroke="#666666" points="80,-19 0,-19 0,0 80,0 80,-19"/>
<text text-anchor="middle" x="40" y="-7" font-family="Helvetica,sans-Serif" font-size="10.00">uniot::AppKit</text>
</a>
</g>
</g>
<!-- Node1&#45;&gt;Node2 -->
<g id="edge1_Node000001_Node000002" class="edge">
<title>Node1&#45;&gt;Node2</title>
<g id="a_edge1_Node000001_Node000002"><a xlink:title=" ">
<path fill="none" stroke="#63b8ff" d="M171.32,-51.93C139.94,-42.03 95.49,-28.01 67.2,-19.08"/>
<polygon fill="#63b8ff" stroke="#63b8ff" points="170.42,-55.31 181.01,-54.98 172.52,-48.64 170.42,-55.31"/>
</a>
</g>
</g>
<!-- Node3 -->
<g id="Node000003" class="node">
<title>Node3</title>
<g id="a_Node000003"><a xlink:href="classuniot_1_1_m_q_t_t_kit.html" target="_top" xlink:title=" ">
<polygon fill="white" stroke="#666666" points="187.5,-19 98.5,-19 98.5,0 187.5,0 187.5,-19"/>
<text text-anchor="middle" x="143" y="-7" font-family="Helvetica,sans-Serif" font-size="10.00">uniot::MQTTKit</text>
</a>
</g>
</g>
<!-- Node1&#45;&gt;Node3 -->
<g id="edge2_Node000001_Node000003" class="edge">
<title>Node1&#45;&gt;Node3</title>
<g id="a_edge2_Node000001_Node000003"><a xlink:title=" ">
<path fill="none" stroke="#63b8ff" d="M189.73,-48.6C178.08,-39.11 163.4,-27.13 153.63,-19.17"/>
<polygon fill="#63b8ff" stroke="#63b8ff" points="187.59,-51.38 197.56,-54.98 192.02,-45.95 187.59,-51.38"/>
</a>
</g>
</g>
<!-- Node4 -->
<g id="Node000004" class="node">
<title>Node4</title>
<g id="a_Node000004"><a xlink:href="classuniot_1_1_network_controller.html" target="_top" xlink:title=" ">
<polygon fill="white" stroke="#666666" points="342.5,-19 205.5,-19 205.5,0 342.5,0 342.5,-19"/>
<text text-anchor="middle" x="274" y="-7" font-family="Helvetica,sans-Serif" font-size="10.00">uniot::NetworkController</text>
</a>
</g>
</g>
<!-- Node1&#45;&gt;Node4 -->
<g id="edge3_Node000001_Node000004" class="edge">
<title>Node1&#45;&gt;Node4</title>
<g id="a_edge3_Node000001_Node000004"><a xlink:title=" ">
<path fill="none" stroke="#63b8ff" d="M226.55,-48.6C238.38,-39.11 253.29,-27.13 263.2,-19.17"/>
<polygon fill="#63b8ff" stroke="#63b8ff" points="224.21,-45.99 218.6,-54.98 228.59,-51.45 224.21,-45.99"/>
</a>
</g>
</g>
<!-- Node5 -->
<g id="Node000005" class="node">
<title>Node5</title>
<g id="a_Node000005"><a xlink:href="classuniot_1_1_network_scheduler.html" target="_top" xlink:title=" ">
<polygon fill="white" stroke="#666666" points="497.5,-19 360.5,-19 360.5,0 497.5,0 497.5,-19"/>
<text text-anchor="middle" x="429" y="-7" font-family="Helvetica,sans-Serif" font-size="10.00">uniot::NetworkScheduler</text>
</a>
</g>
</g>
<!-- Node1&#45;&gt;Node5 -->
<g id="edge4_Node000001_Node000005" class="edge">
<title>Node1&#45;&gt;Node5</title>
<g id="a_edge4_Node000001_Node000005"><a xlink:title=" ">
<path fill="none" stroke="#63b8ff" d="M253.34,-52.63C294.74,-42.7 355.12,-28.22 393.21,-19.08"/>
<polygon fill="#63b8ff" stroke="#63b8ff" points="252.42,-49.25 243.51,-54.98 254.05,-56.06 252.42,-49.25"/>
</a>
</g>
</g>
</g>
</svg>
