<?xml version="1.0" encoding="UTF-8" standalone="no"?>
<!DOCTYPE svg PUBLIC "-//W3C//DTD SVG 1.1//EN"
 "http://www.w3.org/Graphics/SVG/1.1/DTD/svg11.dtd">
<!-- Generated by graphviz version 2.43.0 (0)
 -->
<!-- Title: uniot::LispDevice Pages: 1 -->
<svg width="378pt" height="291pt"
 viewBox="0.00 0.00 377.50 291.00" xmlns="http://www.w3.org/2000/svg" xmlns:xlink="http://www.w3.org/1999/xlink">
<g id="graph0" class="graph" transform="scale(1 1) rotate(0) translate(4 287)">
<title>uniot::LispDevice</title>
<!-- Node1 -->
<g id="Node000001" class="node">
<title>Node1</title>
<g id="a_Node000001"><a xlink:title=" ">
<polygon fill="#999999" stroke="#666666" points="235.5,-19 134.5,-19 134.5,0 235.5,0 235.5,-19"/>
<text text-anchor="middle" x="185" y="-7" font-family="Helvetica,sans-Serif" font-size="10.00">uniot::LispDevice</text>
</a>
</g>
</g>
<!-- Node2 -->
<g id="Node000002" class="node">
<title>Node2</title>
<g id="a_Node000002"><a xlink:href="classuniot_1_1_m_q_t_t_device.html" target="_top" xlink:title=" ">
<polygon fill="white" stroke="#666666" points="110,-74 0,-74 0,-55 110,-55 110,-74"/>
<text text-anchor="middle" x="55" y="-62" font-family="Helvetica,sans-Serif" font-size="10.00">uniot::MQTTDevice</text>
</a>
</g>
</g>
<!-- Node2&#45;&gt;Node1 -->
<g id="edge1_Node000001_Node000002" class="edge">
<title>Node2&#45;&gt;Node1</title>
<g id="a_edge1_Node000001_Node000002"><a xlink:title=" ">
<path fill="none" stroke="#63b8ff" d="M85.27,-51.16C109.34,-41.35 142.4,-27.87 163.73,-19.17"/>
<polygon fill="#63b8ff" stroke="#63b8ff" points="83.83,-47.97 75.89,-54.98 86.47,-54.45 83.83,-47.97"/>
</a>
</g>
</g>
<!-- Node3 -->
<g id="Node000003" class="node">
<title>Node3</title>
<g id="a_Node000003"><a xlink:href="classuniot_1_1_c_b_o_r_storage.html" target="_top" xlink:title=" ">
<polygon fill="white" stroke="#666666" points="241.5,-74 128.5,-74 128.5,-55 241.5,-55 241.5,-74"/>
<text text-anchor="middle" x="185" y="-62" font-family="Helvetica,sans-Serif" font-size="10.00">uniot::CBORStorage</text>
</a>
</g>
</g>
<!-- Node3&#45;&gt;Node1 -->
<g id="edge2_Node000001_Node000003" class="edge">
<title>Node3&#45;&gt;Node1</title>
<g id="a_edge2_Node000001_Node000003"><a xlink:title=" ">
<path fill="none" stroke="#63b8ff" d="M185,-44.66C185,-35.93 185,-25.99 185,-19.09"/>
<polygon fill="#63b8ff" stroke="#63b8ff" points="181.5,-44.75 185,-54.75 188.5,-44.75 181.5,-44.75"/>
</a>
</g>
</g>
<!-- Node4 -->
<g id="Node000004" class="node">
<title>Node4</title>
<g id="a_Node000004"><a xlink:href="classuniot_1_1_storage.html" target="_top" xlink:title=" ">
<polygon fill="white" stroke="#666666" points="227.5,-140 142.5,-140 142.5,-121 227.5,-121 227.5,-140"/>
<text text-anchor="middle" x="185" y="-128" font-family="Helvetica,sans-Serif" font-size="10.00">uniot::Storage</text>
</a>
</g>
</g>
<!-- Node4&#45;&gt;Node3 -->
<g id="edge3_Node000003_Node000004" class="edge">
<title>Node4&#45;&gt;Node3</title>
<g id="a_edge3_Node000003_Node000004"><a xlink:title=" ">
<path fill="none" stroke="#63b8ff" d="M185,-110.58C185,-98.63 185,-83.72 185,-74.41"/>
<polygon fill="#63b8ff" stroke="#63b8ff" points="181.5,-110.87 185,-120.87 188.5,-110.87 181.5,-110.87"/>
</a>
</g>
</g>
<!-- Node5 -->
<g id="Node000005" class="node">
<title>Node5</title>
<g id="a_Node000005"><a xlink:href="classuniot_1_1_event_listener.html" target="_top" xlink:title=" ">
<polygon fill="white" stroke="#666666" points="366,-74 260,-74 260,-55 366,-55 366,-74"/>
<text text-anchor="middle" x="313" y="-62" font-family="Helvetica,sans-Serif" font-size="10.00">CoreEventListener</text>
</a>
</g>
</g>
<!-- Node5&#45;&gt;Node1 -->
<g id="edge4_Node000001_Node000005" class="edge">
<title>Node5&#45;&gt;Node1</title>
<g id="a_edge4_Node000001_Node000005"><a xlink:title=" ">
<path fill="none" stroke="#63b8ff" d="M282.88,-51.03C259.21,-41.23 226.85,-27.83 205.94,-19.17"/>
<polygon fill="#63b8ff" stroke="#63b8ff" points="281.86,-54.39 292.43,-54.98 284.53,-47.93 281.86,-54.39"/>
</a>
</g>
</g>
<!-- Node6 -->
<g id="Node000006" class="node">
<title>Node6</title>
<g id="a_Node000006"><a xlink:href="classuniot_1_1_event_emitter.html" target="_top" xlink:title=" ">
<polygon fill="white" stroke="#666666" points="368.5,-151 257.5,-151 257.5,-110 368.5,-110 368.5,-151"/>
<text text-anchor="start" x="265.5" y="-139" font-family="Helvetica,sans-Serif" font-size="10.00">uniot::EventEmitter</text>
<text text-anchor="start" x="265.5" y="-128" font-family="Helvetica,sans-Serif" font-size="10.00">&lt; unsigned int, int,</text>
<text text-anchor="middle" x="313" y="-117" font-family="Helvetica,sans-Serif" font-size="10.00"> Bytes &gt;</text>
</a>
</g>
</g>
<!-- Node6&#45;&gt;Node5 -->
<g id="edge5_Node000005_Node000006" class="edge">
<title>Node6&#45;&gt;Node5</title>
<g id="a_edge5_Node000005_Node000006"><a xlink:title=" ">
<path fill="none" stroke="#63b8ff" d="M313,-99.74C313,-90.45 313,-80.9 313,-74.26"/>
<polygon fill="#63b8ff" stroke="#63b8ff" points="309.5,-99.95 313,-109.95 316.5,-99.95 309.5,-99.95"/>
</a>
</g>
</g>
<!-- Node7 -->
<g id="Node000007" class="node">
<title>Node7</title>
<g id="a_Node000007"><a xlink:href="classuniot_1_1_event_entity.html" target="_top" xlink:title="Entity that can connect to and interact with EventBus instances.">
<polygon fill="white" stroke="#666666" points="369.5,-228 256.5,-228 256.5,-187 369.5,-187 369.5,-228"/>
<text text-anchor="start" x="264.5" y="-216" font-family="Helvetica,sans-Serif" font-size="10.00">uniot::EventEntity</text>
<text text-anchor="start" x="264.5" y="-205" font-family="Helvetica,sans-Serif" font-size="10.00">&lt; T_topic, T_msg, T</text>
<text text-anchor="middle" x="313" y="-194" font-family="Helvetica,sans-Serif" font-size="10.00">_data &gt;</text>
</a>
</g>
</g>
<!-- Node7&#45;&gt;Node6 -->
<g id="edge6_Node000006_Node000007" class="edge">
<title>Node7&#45;&gt;Node6</title>
<g id="a_edge6_Node000006_Node000007"><a xlink:title=" ">
<path fill="none" stroke="#63b8ff" d="M313,-176.69C313,-168.08 313,-158.9 313,-151.07"/>
<polygon fill="#63b8ff" stroke="#63b8ff" points="309.5,-176.79 313,-186.79 316.5,-176.79 309.5,-176.79"/>
</a>
</g>
</g>
<!-- Node8 -->
<g id="Node000008" class="node">
<title>Node8</title>
<g id="a_Node000008"><a xlink:href="classuniot_1_1_i_with_type.html" target="_top" xlink:title="Interface for objects that expose their runtime type information.">
<polygon fill="white" stroke="#666666" points="360.5,-283 265.5,-283 265.5,-264 360.5,-264 360.5,-283"/>
<text text-anchor="middle" x="313" y="-271" font-family="Helvetica,sans-Serif" font-size="10.00">uniot::IWithType</text>
</a>
</g>
</g>
<!-- Node8&#45;&gt;Node7 -->
<g id="edge7_Node000007_Node000008" class="edge">
<title>Node8&#45;&gt;Node7</title>
<g id="a_edge7_Node000007_Node000008"><a xlink:title=" ">
<path fill="none" stroke="#63b8ff" d="M313,-253.63C313,-245.56 313,-236.15 313,-228.01"/>
<polygon fill="#63b8ff" stroke="#63b8ff" points="309.5,-253.87 313,-263.87 316.5,-253.87 309.5,-253.87"/>
</a>
</g>
</g>
</g>
</svg>
