<?xml version="1.0" encoding="UTF-8" standalone="no"?>
<!DOCTYPE svg PUBLIC "-//W3C//DTD SVG 1.1//EN"
 "http://www.w3.org/Graphics/SVG/1.1/DTD/svg11.dtd">
<!-- Generated by graphviz version 2.43.0 (0)
 -->
<!-- Title: uniot::Storage Pages: 1 -->
<svg width="415pt" height="175pt"
 viewBox="0.00 0.00 415.00 175.00" xmlns="http://www.w3.org/2000/svg" xmlns:xlink="http://www.w3.org/1999/xlink">
<g id="graph0" class="graph" transform="scale(1 1) rotate(0) translate(4 171)">
<title>uniot::Storage</title>
<!-- Node1 -->
<g id="Node000001" class="node">
<title>Node1</title>
<g id="a_Node000001"><a xlink:title=" ">
<polygon fill="#999999" stroke="#666666" points="85,-74 0,-74 0,-55 85,-55 85,-74"/>
<text text-anchor="middle" x="42.5" y="-62" font-family="Helvetica,sans-Serif" font-size="10.00">uniot::Storage</text>
</a>
</g>
</g>
<!-- Node2 -->
<g id="Node000002" class="node">
<title>Node2</title>
<g id="a_Node000002"><a xlink:href="classuniot_1_1_c_b_o_r_storage.html" target="_top" xlink:title=" ">
<polygon fill="white" stroke="#666666" points="234,-93 121,-93 121,-74 234,-74 234,-93"/>
<text text-anchor="middle" x="177.5" y="-81" font-family="Helvetica,sans-Serif" font-size="10.00">uniot::CBORStorage</text>
</a>
</g>
</g>
<!-- Node1&#45;&gt;Node2 -->
<g id="edge1_Node000001_Node000002" class="edge">
<title>Node1&#45;&gt;Node2</title>
<g id="a_edge1_Node000001_Node000002"><a xlink:title=" ">
<path fill="none" stroke="#63b8ff" d="M95.23,-71.89C103.61,-73.09 112.32,-74.33 120.79,-75.54"/>
<polygon fill="#63b8ff" stroke="#63b8ff" points="95.61,-68.41 85.22,-70.46 94.62,-75.34 95.61,-68.41"/>
</a>
</g>
</g>
<!-- Node8 -->
<g id="Node000008" class="node">
<title>Node8</title>
<g id="a_Node000008"><a xlink:href="classuniot_1_1_crash_storage.html" target="_top" xlink:title="Handles crash data storage and retrieval for ESP8266.">
<polygon fill="white" stroke="#666666" points="234,-56 121,-56 121,-37 234,-37 234,-56"/>
<text text-anchor="middle" x="177.5" y="-44" font-family="Helvetica,sans-Serif" font-size="10.00">uniot::CrashStorage</text>
</a>
</g>
</g>
<!-- Node1&#45;&gt;Node8 -->
<g id="edge7_Node000001_Node000008" class="edge">
<title>Node1&#45;&gt;Node8</title>
<g id="a_edge7_Node000001_Node000008"><a xlink:title=" ">
<path fill="none" stroke="#63b8ff" d="M95.23,-57.5C103.61,-56.36 112.32,-55.19 120.79,-54.04"/>
<polygon fill="#63b8ff" stroke="#63b8ff" points="94.66,-54.04 85.22,-58.85 95.6,-60.98 94.66,-54.04"/>
</a>
</g>
</g>
<!-- Node3 -->
<g id="Node000003" class="node">
<title>Node3</title>
<g id="a_Node000003"><a xlink:href="classuniot_1_1_credentials.html" target="_top" xlink:title="Manages device identity and cryptographic credentials for Uniot devices.">
<polygon fill="white" stroke="#666666" points="390,-167 287,-167 287,-148 390,-148 390,-167"/>
<text text-anchor="middle" x="338.5" y="-155" font-family="Helvetica,sans-Serif" font-size="10.00">uniot::Credentials</text>
</a>
</g>
</g>
<!-- Node2&#45;&gt;Node3 -->
<g id="edge2_Node000002_Node000003" class="edge">
<title>Node2&#45;&gt;Node3</title>
<g id="a_edge2_Node000002_Node000003"><a xlink:title=" ">
<path fill="none" stroke="#63b8ff" d="M200.02,-99.15C217.98,-111.58 244.64,-128.63 270,-139.5 277.69,-142.8 286.14,-145.62 294.38,-148"/>
<polygon fill="#63b8ff" stroke="#63b8ff" points="201.67,-96.03 191.48,-93.13 197.64,-101.75 201.67,-96.03"/>
</a>
</g>
</g>
<!-- Node4 -->
<g id="Node000004" class="node">
<title>Node4</title>
<g id="a_Node000004"><a xlink:href="classuniot_1_1_date.html" target="_top" xlink:title=" ">
<polygon fill="white" stroke="#666666" points="374,-130 303,-130 303,-111 374,-111 374,-130"/>
<text text-anchor="middle" x="338.5" y="-118" font-family="Helvetica,sans-Serif" font-size="10.00">uniot::Date</text>
</a>
</g>
</g>
<!-- Node2&#45;&gt;Node4 -->
<g id="edge3_Node000002_Node000004" class="edge">
<title>Node2&#45;&gt;Node4</title>
<g id="a_edge3_Node000002_Node000004"><a xlink:title=" ">
<path fill="none" stroke="#63b8ff" d="M229.45,-95.36C253.43,-100.94 281.4,-107.45 302.88,-112.44"/>
<polygon fill="#63b8ff" stroke="#63b8ff" points="229.98,-91.89 219.45,-93.03 228.39,-98.7 229.98,-91.89"/>
</a>
</g>
</g>
<!-- Node5 -->
<g id="Node000005" class="node">
<title>Node5</title>
<g id="a_Node000005"><a xlink:href="classuniot_1_1_lisp_device.html" target="_top" xlink:title=" ">
<polygon fill="white" stroke="#666666" points="389,-93 288,-93 288,-74 389,-74 389,-93"/>
<text text-anchor="middle" x="338.5" y="-81" font-family="Helvetica,sans-Serif" font-size="10.00">uniot::LispDevice</text>
</a>
</g>
</g>
<!-- Node2&#45;&gt;Node5 -->
<g id="edge4_Node000002_Node000005" class="edge">
<title>Node2&#45;&gt;Node5</title>
<g id="a_edge4_Node000002_Node000005"><a xlink:title=" ">
<path fill="none" stroke="#63b8ff" d="M244.51,-83.5C258.98,-83.5 274.06,-83.5 287.76,-83.5"/>
<polygon fill="#63b8ff" stroke="#63b8ff" points="244.11,-80 234.11,-83.5 244.11,-87 244.11,-80"/>
</a>
</g>
</g>
<!-- Node6 -->
<g id="Node000006" class="node">
<title>Node6</title>
<g id="a_Node000006"><a xlink:href="classuniot_1_1_network_controller.html" target="_top" xlink:title=" ">
<polygon fill="white" stroke="#666666" points="407,-56 270,-56 270,-37 407,-37 407,-56"/>
<text text-anchor="middle" x="338.5" y="-44" font-family="Helvetica,sans-Serif" font-size="10.00">uniot::NetworkController</text>
</a>
</g>
</g>
<!-- Node2&#45;&gt;Node6 -->
<g id="edge5_Node000002_Node000006" class="edge">
<title>Node2&#45;&gt;Node6</title>
<g id="a_edge5_Node000002_Node000006"><a xlink:title=" ">
<path fill="none" stroke="#63b8ff" d="M229.45,-71.64C251.09,-66.61 275.98,-60.82 296.42,-56.06"/>
<polygon fill="#63b8ff" stroke="#63b8ff" points="228.39,-68.3 219.45,-73.97 229.98,-75.11 228.39,-68.3"/>
</a>
</g>
</g>
<!-- Node7 -->
<g id="Node000007" class="node">
<title>Node7</title>
<g id="a_Node000007"><a xlink:href="classuniot_1_1_wifi_storage.html" target="_top" xlink:title=" ">
<polygon fill="white" stroke="#666666" points="390.5,-19 286.5,-19 286.5,0 390.5,0 390.5,-19"/>
<text text-anchor="middle" x="338.5" y="-7" font-family="Helvetica,sans-Serif" font-size="10.00">uniot::WifiStorage</text>
</a>
</g>
</g>
<!-- Node2&#45;&gt;Node7 -->
<g id="edge6_Node000002_Node000007" class="edge">
<title>Node2&#45;&gt;Node7</title>
<g id="a_edge6_Node000002_Node000007"><a xlink:title=" ">
<path fill="none" stroke="#63b8ff" d="M225.71,-70.01C228.59,-68.63 231.38,-67.13 234,-65.5 253.48,-53.38 250.28,-40.23 270,-28.5 276.49,-24.64 283.79,-21.54 291.14,-19.05"/>
<polygon fill="#63b8ff" stroke="#63b8ff" points="224.17,-66.86 216.33,-73.98 226.9,-73.3 224.17,-66.86"/>
</a>
</g>
</g>
</g>
</svg>
