<?xml version="1.0" encoding="UTF-8" standalone="no"?>
<!DOCTYPE svg PUBLIC "-//W3C//DTD SVG 1.1//EN"
 "http://www.w3.org/Graphics/SVG/1.1/DTD/svg11.dtd">
<!-- Generated by graphviz version 2.43.0 (0)
 -->
<!-- Title: Primitives Pages: 1 -->
<svg width="316pt" height="64pt"
 viewBox="0.00 0.00 316.00 64.00" xmlns="http://www.w3.org/2000/svg" xmlns:xlink="http://www.w3.org/1999/xlink">
<g id="graph0" class="graph" transform="scale(1 1) rotate(0) translate(4 60)">
<title>Primitives</title>
<!-- Node2 -->
<g id="Node000002" class="node">
<title>Node2</title>
<g id="a_Node000002"><a xlink:href="group__uniot-lisp.html" target="_top" xlink:title="A wrapper for the Uniot Lisp interpreter.">
<polygon fill="white" stroke="#666666" points="65,-37 0,-37 0,-18 65,-18 65,-37"/>
<text text-anchor="middle" x="32.5" y="-25" font-family="Helvetica,sans-Serif" font-size="10.00">Uniot Lisp</text>
</a>
</g>
</g>
<!-- Node1 -->
<g id="Node000001" class="node">
<title>Node1</title>
<g id="a_Node000001"><a xlink:title="A collection of helper classes and functions for managing Lisp primitives.">
<polygon fill="#999999" stroke="#666666" points="167,-37 101,-37 101,-18 167,-18 167,-37"/>
<text text-anchor="middle" x="134" y="-25" font-family="Helvetica,sans-Serif" font-size="10.00">Primitives</text>
</a>
</g>
</g>
<!-- Node2&#45;&gt;Node1 -->
<g id="edge1" class="edge">
<title>Node2&#45;&gt;Node1</title>
<path fill="none" stroke="black" d="M75.41,-27.5C83.93,-27.5 92.75,-27.5 100.86,-27.5"/>
<polygon fill="black" stroke="black" points="75.26,-24 65.26,-27.5 75.26,-31 75.26,-24"/>
</g>
<!-- Node4 -->
<g id="Node000004" class="node">
<title>Node4</title>
<g id="a_Node000004"><a xlink:href="group__uniot-lisp-primitive-expeditor.html" target="_top" xlink:title="Manages and validates Lisp primitive operations.">
<polygon fill="white" stroke="#666666" points="287,-56 224,-56 224,-37 287,-37 287,-56"/>
<text text-anchor="middle" x="255.5" y="-44" font-family="Helvetica,sans-Serif" font-size="10.00">Expeditor</text>
</a>
</g>
</g>
<!-- Node1&#45;&gt;Node4 -->
<g id="edge3" class="edge">
<title>Node1&#45;&gt;Node4</title>
<path fill="none" stroke="black" d="M177.28,-34.22C192.56,-36.65 209.51,-39.35 223.63,-41.59"/>
<polygon fill="black" stroke="black" points="177.45,-30.71 167.02,-32.59 176.35,-37.62 177.45,-30.71"/>
</g>
<!-- Node3 -->
<g id="Node000003" class="node">
<title>Node3</title>
<g id="a_Node000003"><a xlink:href="group__uniot-lisp-primitives-default.html" target="_top" xlink:title="Contains string constants representing names of primitive functions available in the Lisp environment...">
<polygon fill="white" stroke="#666666" points="308,-19 203,-19 203,0 308,0 308,-19"/>
<text text-anchor="middle" x="255.5" y="-7" font-family="Helvetica,sans-Serif" font-size="10.00">Default Primitives</text>
</a>
</g>
</g>
<!-- Node1&#45;&gt;Node3 -->
<g id="edge2" class="edge">
<title>Node1&#45;&gt;Node3</title>
<path fill="none" stroke="black" d="M176.97,-21.18C185.38,-19.91 194.31,-18.57 203,-17.26"/>
<polygon fill="black" stroke="black" points="176.39,-17.73 167.02,-22.68 177.43,-24.65 176.39,-17.73"/>
</g>
</g>
</svg>
