<?xml version="1.0" encoding="UTF-8" standalone="no"?>
<!DOCTYPE svg PUBLIC "-//W3C//DTD SVG 1.1//EN"
 "http://www.w3.org/Graphics/SVG/1.1/DTD/svg11.dtd">
<!-- Generated by graphviz version 2.43.0 (0)
 -->
<!-- Title: JSON Pages: 1 -->
<svg width="331pt" height="286pt"
 viewBox="0.00 0.00 331.00 286.00" xmlns="http://www.w3.org/2000/svg" xmlns:xlink="http://www.w3.org/1999/xlink">
<g id="graph0" class="graph" transform="scale(1 1) rotate(0) translate(4 282)">
<title>JSON</title>
<!-- Node6 -->
<g id="Node000006" class="node">
<title>Node6</title>
<g id="a_Node000006"><a xlink:href="group__captive__portal.html" target="_top" xlink:title=" ">
<polygon fill="white" stroke="#666666" points="301.5,-278 215.5,-278 215.5,-259 301.5,-259 301.5,-278"/>
<text text-anchor="middle" x="258.5" y="-266" font-family="Helvetica,sans-Serif" font-size="10.00">Captive Portal</text>
</a>
</g>
</g>
<!-- Node3 -->
<g id="Node000003" class="node">
<title>Node3</title>
<g id="a_Node000003"><a xlink:href="group__date__events.html" target="_top" xlink:title=" ">
<polygon fill="white" stroke="#666666" points="296.5,-241 220.5,-241 220.5,-222 296.5,-222 296.5,-241"/>
<text text-anchor="middle" x="258.5" y="-229" font-family="Helvetica,sans-Serif" font-size="10.00">Date Events</text>
</a>
</g>
</g>
<!-- Node1 -->
<g id="Node000001" class="node">
<title>Node1</title>
<g id="a_Node000001"><a xlink:title="Lightweight JSON generation utilities for Uniot devices.">
<polygon fill="#999999" stroke="#666666" points="133,-148 92,-148 92,-129 133,-129 133,-148"/>
<text text-anchor="middle" x="112.5" y="-136" font-family="Helvetica,sans-Serif" font-size="10.00">JSON</text>
</a>
</g>
</g>
<!-- Node1&#45;&gt;Node6 -->
<g id="edge5" class="edge">
<title>Node1&#45;&gt;Node6</title>
<path fill="none" stroke="blueviolet" stroke-dasharray="5,2" d="M116.33,-148.22C121.34,-164.18 132.96,-196.4 151,-218.5 166.07,-236.95 172.63,-239.97 194,-250.5 200.78,-253.84 208.29,-256.66 215.7,-259"/>
<text text-anchor="middle" x="163.5" y="-243.5" font-family="Helvetica,sans-Serif" font-size="10.00">uniot</text>
</g>
<!-- Node1&#45;&gt;Node3 -->
<g id="edge2" class="edge">
<title>Node1&#45;&gt;Node3</title>
<path fill="none" stroke="blueviolet" stroke-dasharray="5,2" d="M120.23,-148.36C127.22,-158.19 138.83,-173.38 151,-184.5 168.02,-200.04 173.09,-203.79 194,-213.5 202.21,-217.31 211.4,-220.49 220.18,-223.05"/>
<text text-anchor="middle" x="163.5" y="-206.5" font-family="Helvetica,sans-Serif" font-size="10.00">uniot</text>
</g>
<!-- Node4 -->
<g id="Node000004" class="node">
<title>Node4</title>
<g id="a_Node000004"><a xlink:href="group__lisp__events.html" target="_top" xlink:title=" ">
<polygon fill="white" stroke="#666666" points="294.5,-204 222.5,-204 222.5,-185 294.5,-185 294.5,-204"/>
<text text-anchor="middle" x="258.5" y="-192" font-family="Helvetica,sans-Serif" font-size="10.00">Lisp Events</text>
</a>
</g>
</g>
<!-- Node1&#45;&gt;Node4 -->
<g id="edge3" class="edge">
<title>Node1&#45;&gt;Node4</title>
<path fill="none" stroke="blueviolet" stroke-dasharray="5,2" d="M128.5,-148.11C135.23,-152.21 143.36,-156.87 151,-160.5 173.79,-171.32 200.9,-179.92 222.06,-185.77"/>
<text text-anchor="middle" x="163.5" y="-172.5" font-family="Helvetica,sans-Serif" font-size="10.00">uniot</text>
</g>
<!-- Node5 -->
<g id="Node000005" class="node">
<title>Node5</title>
<g id="a_Node000005"><a xlink:href="group__mqtt__events.html" target="_top" xlink:title=" ">
<polygon fill="white" stroke="#666666" points="299,-167 218,-167 218,-148 299,-148 299,-167"/>
<text text-anchor="middle" x="258.5" y="-155" font-family="Helvetica,sans-Serif" font-size="10.00">MQTT Events</text>
</a>
</g>
</g>
<!-- Node1&#45;&gt;Node5 -->
<g id="edge4" class="edge">
<title>Node1&#45;&gt;Node5</title>
<path fill="none" stroke="blueviolet" stroke-dasharray="5,2" d="M133.22,-141.1C154.94,-143.97 190.44,-148.65 217.94,-152.28"/>
<text text-anchor="middle" x="163.5" y="-148.5" font-family="Helvetica,sans-Serif" font-size="10.00">uniot</text>
</g>
<!-- Node7 -->
<g id="Node000007" class="node">
<title>Node7</title>
<g id="a_Node000007"><a xlink:href="group__network__controller.html" target="_top" xlink:title=" ">
<polygon fill="white" stroke="#666666" points="313,-130 204,-130 204,-111 313,-111 313,-130"/>
<text text-anchor="middle" x="258.5" y="-118" font-family="Helvetica,sans-Serif" font-size="10.00">Network Controller</text>
</a>
</g>
</g>
<!-- Node1&#45;&gt;Node7 -->
<g id="edge6" class="edge">
<title>Node1&#45;&gt;Node7</title>
<path fill="none" stroke="blueviolet" stroke-dasharray="5,2" d="M133.01,-129.88C138.7,-127.73 145,-125.7 151,-124.5 167.96,-121.11 186.74,-119.66 203.75,-119.19"/>
<text text-anchor="middle" x="163.5" y="-127.5" font-family="Helvetica,sans-Serif" font-size="10.00">uniot</text>
</g>
<!-- Node8 -->
<g id="Node000008" class="node">
<title>Node8</title>
<g id="a_Node000008"><a xlink:href="group__network__events.html" target="_top" xlink:title=" ">
<polygon fill="white" stroke="#666666" points="305.5,-93 211.5,-93 211.5,-74 305.5,-74 305.5,-93"/>
<text text-anchor="middle" x="258.5" y="-81" font-family="Helvetica,sans-Serif" font-size="10.00">Network Events</text>
</a>
</g>
</g>
<!-- Node1&#45;&gt;Node8 -->
<g id="edge7" class="edge">
<title>Node1&#45;&gt;Node8</title>
<path fill="none" stroke="blueviolet" stroke-dasharray="5,2" d="M122.12,-128.92C129.18,-121.67 139.8,-112.04 151,-106.5 169.65,-97.27 191.93,-91.73 211.29,-88.4"/>
<text text-anchor="middle" x="163.5" y="-109.5" font-family="Helvetica,sans-Serif" font-size="10.00">uniot</text>
</g>
<!-- Node9 -->
<g id="Node000009" class="node">
<title>Node9</title>
<g id="a_Node000009"><a xlink:href="group__network__scheduler.html" target="_top" xlink:title=" ">
<polygon fill="white" stroke="#666666" points="313,-56 204,-56 204,-37 313,-37 313,-56"/>
<text text-anchor="middle" x="258.5" y="-44" font-family="Helvetica,sans-Serif" font-size="10.00">Network Scheduler</text>
</a>
</g>
</g>
<!-- Node1&#45;&gt;Node9 -->
<g id="edge8" class="edge">
<title>Node1&#45;&gt;Node9</title>
<path fill="none" stroke="blueviolet" stroke-dasharray="5,2" d="M117.74,-128.93C123.61,-116.66 135.28,-95.44 151,-82.5 166.52,-69.73 186.79,-61.4 205.48,-56.02"/>
<text text-anchor="middle" x="163.5" y="-85.5" font-family="Helvetica,sans-Serif" font-size="10.00">uniot</text>
</g>
<!-- Node10 -->
<g id="Node000010" class="node">
<title>Node10</title>
<g id="a_Node000010"><a xlink:href="group__wifi__scan.html" target="_top" xlink:title=" ">
<polygon fill="white" stroke="#666666" points="323,-19 194,-19 194,0 323,0 323,-19"/>
<text text-anchor="middle" x="258.5" y="-7" font-family="Helvetica,sans-Serif" font-size="10.00">WiFi Network Scanning</text>
</a>
</g>
</g>
<!-- Node1&#45;&gt;Node10 -->
<g id="edge9" class="edge">
<title>Node1&#45;&gt;Node10</title>
<path fill="none" stroke="blueviolet" stroke-dasharray="5,2" d="M115.73,-128.79C120.02,-111.81 130.87,-76.39 151,-53.5 166.26,-36.15 189.43,-25.5 210.26,-19.03"/>
<text text-anchor="middle" x="163.5" y="-56.5" font-family="Helvetica,sans-Serif" font-size="10.00">uniot</text>
</g>
<!-- Node2 -->
<g id="Node000002" class="node">
<title>Node2</title>
<g id="a_Node000002"><a xlink:href="group__utils.html" target="_top" xlink:title="Common utility components and functions for the Uniot Core.">
<polygon fill="white" stroke="#666666" points="55,-148 0,-148 0,-129 55,-129 55,-148"/>
<text text-anchor="middle" x="27.5" y="-136" font-family="Helvetica,sans-Serif" font-size="10.00">Utilities</text>
</a>
</g>
</g>
<!-- Node2&#45;&gt;Node1 -->
<g id="edge1" class="edge">
<title>Node2&#45;&gt;Node1</title>
<path fill="none" stroke="black" d="M65.34,-138.5C74.5,-138.5 83.98,-138.5 91.94,-138.5"/>
<polygon fill="black" stroke="black" points="65.22,-135 55.22,-138.5 65.22,-142 65.22,-135"/>
</g>
</g>
</svg>
