<?xml version="1.0" encoding="UTF-8" standalone="no"?>
<!DOCTYPE svg PUBLIC "-//W3C//DTD SVG 1.1//EN"
 "http://www.w3.org/Graphics/SVG/1.1/DTD/svg11.dtd">
<!-- Generated by graphviz version 2.43.0 (0)
 -->
<!-- Title: File System Storage Pages: 1 -->
<svg width="243pt" height="138pt"
 viewBox="0.00 0.00 243.00 138.00" xmlns="http://www.w3.org/2000/svg" xmlns:xlink="http://www.w3.org/1999/xlink">
<g id="graph0" class="graph" transform="scale(1 1) rotate(0) translate(4 134)">
<title>File System Storage</title>
<!-- Node1 -->
<g id="Node000001" class="node">
<title>Node1</title>
<g id="a_Node000001"><a xlink:title="File system storage management for Uniot devices.">
<polygon fill="#999999" stroke="#666666" points="114,-74 0,-74 0,-55 114,-55 114,-74"/>
<text text-anchor="middle" x="57" y="-62" font-family="Helvetica,sans-Serif" font-size="10.00">File System Storage</text>
</a>
</g>
</g>
<!-- Node4 -->
<g id="Node000004" class="node">
<title>Node4</title>
<g id="a_Node000004"><a xlink:href="group__fs__storage__base.html" target="_top" xlink:title="Manages data persistence to file system on ESP8266/ESP32 devices.">
<polygon fill="white" stroke="#666666" points="219.5,-130 165.5,-130 165.5,-111 219.5,-111 219.5,-130"/>
<text text-anchor="middle" x="192.5" y="-118" font-family="Helvetica,sans-Serif" font-size="10.00">Storage</text>
</a>
</g>
</g>
<!-- Node1&#45;&gt;Node4 -->
<g id="edge3" class="edge">
<title>Node1&#45;&gt;Node4</title>
<path fill="none" stroke="black" d="M90.46,-78.12C114.74,-88.3 147.33,-101.97 168.85,-111"/>
<polygon fill="black" stroke="black" points="91.52,-74.77 80.95,-74.13 88.82,-81.22 91.52,-74.77"/>
</g>
<!-- Node2 -->
<g id="Node000002" class="node">
<title>Node2</title>
<g id="a_Node000002"><a xlink:href="group__fs__storage__cbor.html" target="_top" xlink:title="Storage implementation for CBOR formatted data.">
<polygon fill="white" stroke="#666666" points="235,-93 150,-93 150,-74 235,-74 235,-93"/>
<text text-anchor="middle" x="192.5" y="-81" font-family="Helvetica,sans-Serif" font-size="10.00">CBOR Storage</text>
</a>
</g>
</g>
<!-- Node1&#45;&gt;Node2 -->
<g id="edge1" class="edge">
<title>Node1&#45;&gt;Node2</title>
<path fill="none" stroke="black" d="M124.4,-73.95C133.11,-75.19 141.81,-76.43 149.94,-77.59"/>
<polygon fill="black" stroke="black" points="124.62,-70.45 114.23,-72.5 123.64,-77.38 124.62,-70.45"/>
</g>
<!-- Node3 -->
<g id="Node000003" class="node">
<title>Node3</title>
<g id="a_Node000003"><a xlink:href="group__fs__storage__crash.html" target="_top" xlink:title="Handles crash data storage and retrieval for ESP8266.">
<polygon fill="white" stroke="#666666" points="235,-56 150,-56 150,-37 235,-37 235,-56"/>
<text text-anchor="middle" x="192.5" y="-44" font-family="Helvetica,sans-Serif" font-size="10.00">Crash Storage</text>
</a>
</g>
</g>
<!-- Node1&#45;&gt;Node3 -->
<g id="edge2" class="edge">
<title>Node1&#45;&gt;Node3</title>
<path fill="none" stroke="black" d="M124.4,-55.55C133.11,-54.37 141.81,-53.2 149.94,-52.1"/>
<polygon fill="black" stroke="black" points="123.67,-52.11 114.23,-56.92 124.61,-59.05 123.67,-52.11"/>
</g>
<!-- Node5 -->
<g id="Node000005" class="node">
<title>Node5</title>
<g id="a_Node000005"><a xlink:href="group__fs__storage__wifi.html" target="_top" xlink:title="Storage class for WiFi credentials.">
<polygon fill="white" stroke="#666666" points="231.5,-19 153.5,-19 153.5,0 231.5,0 231.5,-19"/>
<text text-anchor="middle" x="192.5" y="-7" font-family="Helvetica,sans-Serif" font-size="10.00">WiFi Storage</text>
</a>
</g>
</g>
<!-- Node1&#45;&gt;Node5 -->
<g id="edge4" class="edge">
<title>Node1&#45;&gt;Node5</title>
<path fill="none" stroke="black" d="M90.65,-51.05C114.62,-41.17 146.6,-28 168.06,-19.16"/>
<polygon fill="black" stroke="black" points="89.17,-47.87 81.25,-54.92 91.83,-54.35 89.17,-47.87"/>
</g>
</g>
</svg>
