<?xml version="1.0" encoding="UTF-8" standalone="no"?>
<!DOCTYPE svg PUBLIC "-//W3C//DTD SVG 1.1//EN"
 "http://www.w3.org/Graphics/SVG/1.1/DTD/svg11.dtd">
<!-- Generated by graphviz version 2.43.0 (0)
 -->
<!-- Title: Task Scheduling Pages: 1 -->
<svg width="204pt" height="64pt"
 viewBox="0.00 0.00 204.00 64.00" xmlns="http://www.w3.org/2000/svg" xmlns:xlink="http://www.w3.org/1999/xlink">
<g id="graph0" class="graph" transform="scale(1 1) rotate(0) translate(4 60)">
<title>Task Scheduling</title>
<!-- Node2 -->
<g id="Node000002" class="node">
<title>Node2</title>
<g id="a_Node000002"><a xlink:href="group__scheduler__task.html" target="_top" xlink:title="Task implementation for the Uniot scheduler system.">
<polygon fill="white" stroke="#666666" points="182.5,-56 144.5,-56 144.5,-37 182.5,-37 182.5,-56"/>
<text text-anchor="middle" x="163.5" y="-44" font-family="Helvetica,sans-Serif" font-size="10.00">Task</text>
</a>
</g>
</g>
<!-- Node1 -->
<g id="Node000001" class="node">
<title>Node1</title>
<g id="a_Node000001"><a xlink:title="Task scheduling system for the Uniot Core.">
<polygon fill="#999999" stroke="#666666" points="95,-37 0,-37 0,-18 95,-18 95,-37"/>
<text text-anchor="middle" x="47.5" y="-25" font-family="Helvetica,sans-Serif" font-size="10.00">Task Scheduling</text>
</a>
</g>
</g>
<!-- Node1&#45;&gt;Node2 -->
<g id="edge1" class="edge">
<title>Node1&#45;&gt;Node2</title>
<path fill="none" stroke="black" d="M105.46,-36.99C119.62,-39.35 133.78,-41.71 144.46,-43.49"/>
<polygon fill="black" stroke="black" points="105.64,-33.47 95.2,-35.28 104.49,-40.38 105.64,-33.47"/>
</g>
<!-- Node3 -->
<g id="Node000003" class="node">
<title>Node3</title>
<g id="a_Node000003"><a xlink:href="group__task__scheduler.html" target="_top" xlink:title="Main scheduler for managing and executing periodic tasks.">
<polygon fill="white" stroke="#666666" points="196,-19 131,-19 131,0 196,0 196,-19"/>
<text text-anchor="middle" x="163.5" y="-7" font-family="Helvetica,sans-Serif" font-size="10.00">Scheduler</text>
</a>
</g>
</g>
<!-- Node1&#45;&gt;Node3 -->
<g id="edge2" class="edge">
<title>Node1&#45;&gt;Node3</title>
<path fill="none" stroke="black" d="M105.08,-18.57C113.87,-17.18 122.68,-15.79 130.67,-14.53"/>
<polygon fill="black" stroke="black" points="104.53,-15.11 95.2,-20.13 105.62,-22.02 104.53,-15.11"/>
</g>
</g>
</svg>
