<?xml version="1.0" encoding="UTF-8" standalone="no"?>
<!DOCTYPE svg PUBLIC "-//W3C//DTD SVG 1.1//EN"
 "http://www.w3.org/Graphics/SVG/1.1/DTD/svg11.dtd">
<!-- Generated by graphviz version 2.43.0 (0)
 -->
<!-- Title: Event Entity Pages: 1 -->
<svg width="346pt" height="64pt"
 viewBox="0.00 0.00 346.00 64.00" xmlns="http://www.w3.org/2000/svg" xmlns:xlink="http://www.w3.org/1999/xlink">
<g id="graph0" class="graph" transform="scale(1 1) rotate(0) translate(4 60)">
<title>Event Entity</title>
<!-- Node2 -->
<g id="Node000002" class="node">
<title>Node2</title>
<g id="a_Node000002"><a xlink:href="group__event__bus.html" target="_top" xlink:title="Event&#45;driven communication module for component interactions.">
<polygon fill="white" stroke="#666666" points="134,-37 0,-37 0,-18 134,-18 134,-37"/>
<text text-anchor="middle" x="67" y="-25" font-family="Helvetica,sans-Serif" font-size="10.00">Internal Communication</text>
</a>
</g>
</g>
<!-- Node1 -->
<g id="Node000001" class="node">
<title>Node1</title>
<g id="a_Node000001"><a xlink:title="Entity that can connect to and interact with EventBus instances.">
<polygon fill="#999999" stroke="#666666" points="246,-37 170,-37 170,-18 246,-18 246,-37"/>
<text text-anchor="middle" x="208" y="-25" font-family="Helvetica,sans-Serif" font-size="10.00">Event Entity</text>
</a>
</g>
</g>
<!-- Node2&#45;&gt;Node1 -->
<g id="edge1" class="edge">
<title>Node2&#45;&gt;Node1</title>
<path fill="none" stroke="black" d="M144.51,-27.5C153.22,-27.5 161.79,-27.5 169.65,-27.5"/>
<polygon fill="black" stroke="black" points="144.24,-24 134.24,-27.5 144.24,-31 144.24,-24"/>
</g>
<!-- Node3 -->
<g id="Node000003" class="node">
<title>Node3</title>
<g id="a_Node000003"><a xlink:href="group__event__bus__emitter.html" target="_top" xlink:title="A template class for emitting events to registered event buses.">
<polygon fill="white" stroke="#666666" points="336.5,-56 283.5,-56 283.5,-37 336.5,-37 336.5,-56"/>
<text text-anchor="middle" x="310" y="-44" font-family="Helvetica,sans-Serif" font-size="10.00">Emitter</text>
</a>
</g>
</g>
<!-- Node1&#45;&gt;Node3 -->
<g id="edge2" class="edge">
<title>Node1&#45;&gt;Node3</title>
<path fill="none" stroke="black" d="M256.23,-36.47C265.55,-38.24 274.99,-40.04 283.27,-41.61"/>
<polygon fill="black" stroke="black" points="256.71,-33 246.24,-34.57 255.41,-39.88 256.71,-33"/>
</g>
<!-- Node4 -->
<g id="Node000004" class="node">
<title>Node4</title>
<g id="a_Node000004"><a xlink:href="group__event__bus__listener.html" target="_top" xlink:title="Listener for EventBus events that can subscribe to specific topics.">
<polygon fill="white" stroke="#666666" points="338,-19 282,-19 282,0 338,0 338,-19"/>
<text text-anchor="middle" x="310" y="-7" font-family="Helvetica,sans-Serif" font-size="10.00">Listener</text>
</a>
</g>
</g>
<!-- Node1&#45;&gt;Node4 -->
<g id="edge3" class="edge">
<title>Node1&#45;&gt;Node4</title>
<path fill="none" stroke="black" d="M256.35,-18.98C265.05,-17.41 273.87,-15.82 281.73,-14.41"/>
<polygon fill="black" stroke="black" points="255.46,-15.58 246.24,-20.8 256.7,-22.47 255.46,-15.58"/>
</g>
</g>
</svg>
