<?xml version="1.0" encoding="UTF-8" standalone="no"?>
<!DOCTYPE svg PUBLIC "-//W3C//DTD SVG 1.1//EN"
 "http://www.w3.org/Graphics/SVG/1.1/DTD/svg11.dtd">
<!-- Generated by graphviz version 2.43.0 (0)
 -->
<!-- Title: Uniot Lisp Pages: 1 -->
<svg width="175pt" height="101pt"
 viewBox="0.00 0.00 175.00 101.00" xmlns="http://www.w3.org/2000/svg" xmlns:xlink="http://www.w3.org/1999/xlink">
<g id="graph0" class="graph" transform="scale(1 1) rotate(0) translate(4 97)">
<title>Uniot Lisp</title>
<!-- Node1 -->
<g id="Node000001" class="node">
<title>Node1</title>
<g id="a_Node000001"><a xlink:title="A wrapper for the Uniot Lisp interpreter.">
<polygon fill="#999999" stroke="#666666" points="65,-56 0,-56 0,-37 65,-37 65,-56"/>
<text text-anchor="middle" x="32.5" y="-44" font-family="Helvetica,sans-Serif" font-size="10.00">Uniot Lisp</text>
</a>
</g>
</g>
<!-- Node2 -->
<g id="Node000002" class="node">
<title>Node2</title>
<g id="a_Node000002"><a xlink:href="group__uniot-lisp-helper.html" target="_top" xlink:title="Helper utilities and type definitions for working with UniotLisp.">
<polygon fill="white" stroke="#666666" points="158.5,-93 109.5,-93 109.5,-74 158.5,-74 158.5,-93"/>
<text text-anchor="middle" x="134" y="-81" font-family="Helvetica,sans-Serif" font-size="10.00">Helper</text>
</a>
</g>
</g>
<!-- Node1&#45;&gt;Node2 -->
<g id="edge1" class="edge">
<title>Node1&#45;&gt;Node2</title>
<path fill="none" stroke="black" d="M68.57,-59.54C82.01,-64.54 97.02,-70.12 109.17,-74.64"/>
<polygon fill="black" stroke="black" points="69.72,-56.23 59.12,-56.03 67.28,-62.79 69.72,-56.23"/>
</g>
<!-- Node3 -->
<g id="Node000003" class="node">
<title>Node3</title>
<g id="a_Node000003"><a xlink:href="group__uniot-lisp-primitives.html" target="_top" xlink:title="A collection of helper classes and functions for managing Lisp primitives.">
<polygon fill="white" stroke="#666666" points="167,-56 101,-56 101,-37 167,-37 167,-56"/>
<text text-anchor="middle" x="134" y="-44" font-family="Helvetica,sans-Serif" font-size="10.00">Primitives</text>
</a>
</g>
</g>
<!-- Node1&#45;&gt;Node3 -->
<g id="edge2" class="edge">
<title>Node1&#45;&gt;Node3</title>
<path fill="none" stroke="black" d="M75.41,-46.5C83.93,-46.5 92.75,-46.5 100.86,-46.5"/>
<polygon fill="black" stroke="black" points="75.26,-43 65.26,-46.5 75.26,-50 75.26,-43"/>
</g>
<!-- Node4 -->
<g id="Node000004" class="node">
<title>Node4</title>
<g id="a_Node000004"><a xlink:href="group__unlisp.html" target="_top" xlink:title="A singleton class that wraps UniotLisp interpreter for the Uniot Core.">
<polygon fill="white" stroke="#666666" points="158,-19 110,-19 110,0 158,0 158,-19"/>
<text text-anchor="middle" x="134" y="-7" font-family="Helvetica,sans-Serif" font-size="10.00">unLisp</text>
</a>
</g>
</g>
<!-- Node1&#45;&gt;Node4 -->
<g id="edge3" class="edge">
<title>Node1&#45;&gt;Node4</title>
<path fill="none" stroke="black" d="M68.72,-33.4C82.37,-28.33 97.62,-22.66 109.84,-18.11"/>
<polygon fill="black" stroke="black" points="67.28,-30.21 59.12,-36.97 69.72,-36.77 67.28,-30.21"/>
</g>
</g>
</svg>
