<?xml version="1.0" encoding="UTF-8" standalone="no"?>
<!DOCTYPE svg PUBLIC "-//W3C//DTD SVG 1.1//EN"
 "http://www.w3.org/Graphics/SVG/1.1/DTD/svg11.dtd">
<!-- Generated by graphviz version 2.43.0 (0)
 -->
<!-- Title: Captive Portal Pages: 1 -->
<svg width="284pt" height="286pt"
 viewBox="0.00 0.00 284.00 286.00" xmlns="http://www.w3.org/2000/svg" xmlns:xlink="http://www.w3.org/1999/xlink">
<g id="graph0" class="graph" transform="scale(1 1) rotate(0) translate(4 282)">
<title>Captive Portal</title>
<!-- Node1 -->
<g id="Node000001" class="node">
<title>Node1</title>
<g id="a_Node000001"><a xlink:title=" ">
<polygon fill="#999999" stroke="#666666" points="86,-148 0,-148 0,-129 86,-129 86,-148"/>
<text text-anchor="middle" x="43" y="-136" font-family="Helvetica,sans-Serif" font-size="10.00">Captive Portal</text>
</a>
</g>
</g>
<!-- Node2 -->
<g id="Node000002" class="node">
<title>Node2</title>
<g id="a_Node000002"><a xlink:href="group__date__events.html" target="_top" xlink:title=" ">
<polygon fill="white" stroke="#666666" points="249.5,-278 173.5,-278 173.5,-259 249.5,-259 249.5,-278"/>
<text text-anchor="middle" x="211.5" y="-266" font-family="Helvetica,sans-Serif" font-size="10.00">Date Events</text>
</a>
</g>
</g>
<!-- Node1&#45;&gt;Node2 -->
<g id="edge1" class="edge">
<title>Node1&#45;&gt;Node2</title>
<path fill="none" stroke="blueviolet" stroke-dasharray="5,2" d="M49.43,-148.2C62.68,-170.81 99.14,-226.91 147,-250.5 155.22,-254.55 164.51,-257.83 173.39,-260.42"/>
<text text-anchor="middle" x="116.5" y="-240.5" font-family="Helvetica,sans-Serif" font-size="10.00">uniot</text>
</g>
<!-- Node9 -->
<g id="Node000009" class="node">
<title>Node9</title>
<g id="a_Node000009"><a xlink:href="group__json.html" target="_top" xlink:title="Lightweight JSON generation utilities for Uniot devices.">
<polygon fill="white" stroke="#666666" points="232,-241 191,-241 191,-222 232,-222 232,-241"/>
<text text-anchor="middle" x="211.5" y="-229" font-family="Helvetica,sans-Serif" font-size="10.00">JSON</text>
</a>
</g>
</g>
<!-- Node1&#45;&gt;Node9 -->
<g id="edge8" class="edge">
<title>Node1&#45;&gt;Node9</title>
<path fill="none" stroke="blueviolet" stroke-dasharray="5,2" d="M54.24,-148.11C71.82,-164.09 109.48,-196.08 147,-213.5 161.03,-220.02 177.92,-224.67 190.75,-227.6"/>
<text text-anchor="middle" x="116.5" y="-206.5" font-family="Helvetica,sans-Serif" font-size="10.00">uniot</text>
</g>
<!-- Node3 -->
<g id="Node000003" class="node">
<title>Node3</title>
<g id="a_Node000003"><a xlink:href="group__lisp__events.html" target="_top" xlink:title=" ">
<polygon fill="white" stroke="#666666" points="247.5,-204 175.5,-204 175.5,-185 247.5,-185 247.5,-204"/>
<text text-anchor="middle" x="211.5" y="-192" font-family="Helvetica,sans-Serif" font-size="10.00">Lisp Events</text>
</a>
</g>
</g>
<!-- Node1&#45;&gt;Node3 -->
<g id="edge2" class="edge">
<title>Node1&#45;&gt;Node3</title>
<path fill="none" stroke="blueviolet" stroke-dasharray="5,2" d="M66.94,-148.09C78.07,-152.63 91.66,-158.03 104,-162.5 127.42,-170.98 154.27,-179.04 175.16,-184.95"/>
<text text-anchor="middle" x="116.5" y="-172.5" font-family="Helvetica,sans-Serif" font-size="10.00">uniot</text>
</g>
<!-- Node4 -->
<g id="Node000004" class="node">
<title>Node4</title>
<g id="a_Node000004"><a xlink:href="group__mqtt__events.html" target="_top" xlink:title=" ">
<polygon fill="white" stroke="#666666" points="252,-167 171,-167 171,-148 252,-148 252,-167"/>
<text text-anchor="middle" x="211.5" y="-155" font-family="Helvetica,sans-Serif" font-size="10.00">MQTT Events</text>
</a>
</g>
</g>
<!-- Node1&#45;&gt;Node4 -->
<g id="edge3" class="edge">
<title>Node1&#45;&gt;Node4</title>
<path fill="none" stroke="blueviolet" stroke-dasharray="5,2" d="M86.01,-143.29C112.03,-146.26 145.22,-150.05 170.79,-152.97"/>
<text text-anchor="middle" x="116.5" y="-150.5" font-family="Helvetica,sans-Serif" font-size="10.00">uniot</text>
</g>
<!-- Node5 -->
<g id="Node000005" class="node">
<title>Node5</title>
<g id="a_Node000005"><a xlink:href="group__network__controller.html" target="_top" xlink:title=" ">
<polygon fill="white" stroke="#666666" points="266,-130 157,-130 157,-111 266,-111 266,-130"/>
<text text-anchor="middle" x="211.5" y="-118" font-family="Helvetica,sans-Serif" font-size="10.00">Network Controller</text>
</a>
</g>
</g>
<!-- Node1&#45;&gt;Node5 -->
<g id="edge4" class="edge">
<title>Node1&#45;&gt;Node5</title>
<path fill="none" stroke="blueviolet" stroke-dasharray="5,2" d="M79.96,-128.93C87.83,-127.17 96.15,-125.55 104,-124.5 121.15,-122.2 139.97,-121.05 156.97,-120.51"/>
<text text-anchor="middle" x="116.5" y="-127.5" font-family="Helvetica,sans-Serif" font-size="10.00">uniot</text>
</g>
<!-- Node6 -->
<g id="Node000006" class="node">
<title>Node6</title>
<g id="a_Node000006"><a xlink:href="group__network__events.html" target="_top" xlink:title=" ">
<polygon fill="white" stroke="#666666" points="258.5,-93 164.5,-93 164.5,-74 258.5,-74 258.5,-93"/>
<text text-anchor="middle" x="211.5" y="-81" font-family="Helvetica,sans-Serif" font-size="10.00">Network Events</text>
</a>
</g>
</g>
<!-- Node1&#45;&gt;Node6 -->
<g id="edge5" class="edge">
<title>Node1&#45;&gt;Node6</title>
<path fill="none" stroke="blueviolet" stroke-dasharray="5,2" d="M59.24,-128.84C71.05,-121.74 88.04,-112.35 104,-106.5 123.27,-99.44 145.34,-94.23 164.37,-90.57"/>
<text text-anchor="middle" x="116.5" y="-109.5" font-family="Helvetica,sans-Serif" font-size="10.00">uniot</text>
</g>
<!-- Node7 -->
<g id="Node000007" class="node">
<title>Node7</title>
<g id="a_Node000007"><a xlink:href="group__network__scheduler.html" target="_top" xlink:title=" ">
<polygon fill="white" stroke="#666666" points="266,-56 157,-56 157,-37 266,-37 266,-56"/>
<text text-anchor="middle" x="211.5" y="-44" font-family="Helvetica,sans-Serif" font-size="10.00">Network Scheduler</text>
</a>
</g>
</g>
<!-- Node1&#45;&gt;Node7 -->
<g id="edge6" class="edge">
<title>Node1&#45;&gt;Node7</title>
<path fill="none" stroke="blueviolet" stroke-dasharray="5,2" d="M52.53,-128.85C63.48,-116.92 83.53,-96.6 104,-83.5 123.79,-70.84 148.42,-61.92 169.02,-56.01"/>
<text text-anchor="middle" x="116.5" y="-86.5" font-family="Helvetica,sans-Serif" font-size="10.00">uniot</text>
</g>
<!-- Node8 -->
<g id="Node000008" class="node">
<title>Node8</title>
<g id="a_Node000008"><a xlink:href="group__wifi__scan.html" target="_top" xlink:title=" ">
<polygon fill="white" stroke="#666666" points="276,-19 147,-19 147,0 276,0 276,-19"/>
<text text-anchor="middle" x="211.5" y="-7" font-family="Helvetica,sans-Serif" font-size="10.00">WiFi Network Scanning</text>
</a>
</g>
</g>
<!-- Node1&#45;&gt;Node8 -->
<g id="edge7" class="edge">
<title>Node1&#45;&gt;Node8</title>
<path fill="none" stroke="blueviolet" stroke-dasharray="5,2" d="M49.29,-128.88C58.68,-112.4 79.6,-78.35 104,-55.5 123.03,-37.67 150.06,-26.11 172.13,-19.03"/>
<text text-anchor="middle" x="116.5" y="-58.5" font-family="Helvetica,sans-Serif" font-size="10.00">uniot</text>
</g>
</g>
</svg>
