<?xml version="1.0" encoding="UTF-8" standalone="no"?>
<!DOCTYPE svg PUBLIC "-//W3C//DTD SVG 1.1//EN"
 "http://www.w3.org/Graphics/SVG/1.1/DTD/svg11.dtd">
<!-- Generated by graphviz version 2.43.0 (0)
 -->
<!-- Title: Lisp Events Pages: 1 -->
<svg width="309pt" height="303pt"
 viewBox="0.00 0.00 309.00 303.00" xmlns="http://www.w3.org/2000/svg" xmlns:xlink="http://www.w3.org/1999/xlink">
<g id="graph0" class="graph" transform="scale(1 1) rotate(0) translate(4 299)">
<title>Lisp Events</title>
<!-- Node4 -->
<g id="Node000004" class="node">
<title>Node4</title>
<g id="a_Node000004"><a xlink:href="group__captive__portal.html" target="_top" xlink:title=" ">
<polygon fill="white" stroke="#666666" points="279.5,-295 193.5,-295 193.5,-276 279.5,-276 279.5,-295"/>
<text text-anchor="middle" x="236.5" y="-283" font-family="Helvetica,sans-Serif" font-size="10.00">Captive Portal</text>
</a>
</g>
</g>
<!-- Node2 -->
<g id="Node000002" class="node">
<title>Node2</title>
<g id="a_Node000002"><a xlink:href="group__date__events.html" target="_top" xlink:title=" ">
<polygon fill="white" stroke="#666666" points="274.5,-251 198.5,-251 198.5,-232 274.5,-232 274.5,-251"/>
<text text-anchor="middle" x="236.5" y="-239" font-family="Helvetica,sans-Serif" font-size="10.00">Date Events</text>
</a>
</g>
</g>
<!-- Node9 -->
<g id="Node000009" class="node">
<title>Node9</title>
<g id="a_Node000009"><a xlink:href="group__json.html" target="_top" xlink:title="Lightweight JSON generation utilities for Uniot devices.">
<polygon fill="white" stroke="#666666" points="257,-214 216,-214 216,-195 257,-195 257,-214"/>
<text text-anchor="middle" x="236.5" y="-202" font-family="Helvetica,sans-Serif" font-size="10.00">JSON</text>
</a>
</g>
</g>
<!-- Node1 -->
<g id="Node000001" class="node">
<title>Node1</title>
<g id="a_Node000001"><a xlink:title=" ">
<polygon fill="#999999" stroke="#666666" points="72,-153 0,-153 0,-134 72,-134 72,-153"/>
<text text-anchor="middle" x="36" y="-141" font-family="Helvetica,sans-Serif" font-size="10.00">Lisp Events</text>
</a>
</g>
</g>
<!-- Node1&#45;&gt;Node4 -->
<g id="edge3" class="edge">
<title>Node1&#45;&gt;Node4</title>
<path fill="none" stroke="blueviolet" stroke-dasharray="5,2" d="M38.36,-153.15C42.09,-175.71 54.65,-232.09 90,-259.5 119.3,-282.22 161.88,-287.58 193.42,-287.93"/>
<text text-anchor="middle" x="122" y="-286.5" font-family="Helvetica,sans-Serif" font-size="10.00">uniot</text>
</g>
<!-- Node1&#45;&gt;Node2 -->
<g id="edge1" class="edge">
<title>Node1&#45;&gt;Node2</title>
<path fill="none" stroke="blueviolet" stroke-dasharray="5,2" d="M41.72,-153C49.58,-167.79 66.82,-196.1 90,-210.5 122.91,-230.94 167.21,-238.07 198.25,-240.47"/>
<text text-anchor="middle" x="122" y="-247.5" font-family="Helvetica,sans-Serif" font-size="10.00">uniot</text>
<text text-anchor="middle" x="122" y="-236.5" font-family="Helvetica,sans-Serif" font-size="10.00">uniot::events</text>
</g>
<!-- Node1&#45;&gt;Node9 -->
<g id="edge8" class="edge">
<title>Node1&#45;&gt;Node9</title>
<path fill="none" stroke="blueviolet" stroke-dasharray="5,2" d="M47.97,-153.04C58.16,-161.37 74.11,-173.09 90,-179.5 132.79,-196.76 187.34,-202.11 215.96,-203.76"/>
<text text-anchor="middle" x="122" y="-198.5" font-family="Helvetica,sans-Serif" font-size="10.00">uniot</text>
</g>
<!-- Node3 -->
<g id="Node000003" class="node">
<title>Node3</title>
<g id="a_Node000003"><a xlink:href="group__mqtt__events.html" target="_top" xlink:title=" ">
<polygon fill="white" stroke="#666666" points="277,-172 196,-172 196,-153 277,-153 277,-172"/>
<text text-anchor="middle" x="236.5" y="-160" font-family="Helvetica,sans-Serif" font-size="10.00">MQTT Events</text>
</a>
</g>
</g>
<!-- Node1&#45;&gt;Node3 -->
<g id="edge2" class="edge">
<title>Node1&#45;&gt;Node3</title>
<path fill="none" stroke="blueviolet" stroke-dasharray="5,2" d="M72.03,-146.85C106.65,-150.17 159.52,-155.23 195.7,-158.69"/>
<text text-anchor="middle" x="122" y="-167.5" font-family="Helvetica,sans-Serif" font-size="10.00">uniot</text>
<text text-anchor="middle" x="122" y="-156.5" font-family="Helvetica,sans-Serif" font-size="10.00">uniot::events</text>
</g>
<!-- Node5 -->
<g id="Node000005" class="node">
<title>Node5</title>
<g id="a_Node000005"><a xlink:href="group__network__controller.html" target="_top" xlink:title=" ">
<polygon fill="white" stroke="#666666" points="291,-135 182,-135 182,-116 291,-116 291,-135"/>
<text text-anchor="middle" x="236.5" y="-123" font-family="Helvetica,sans-Serif" font-size="10.00">Network Controller</text>
</a>
</g>
</g>
<!-- Node1&#45;&gt;Node5 -->
<g id="edge4" class="edge">
<title>Node1&#45;&gt;Node5</title>
<path fill="none" stroke="blueviolet" stroke-dasharray="5,2" d="M63.35,-133.96C71.76,-131.35 81.17,-128.87 90,-127.5 120.21,-122.83 154.37,-122.12 181.99,-122.68"/>
<text text-anchor="middle" x="122" y="-130.5" font-family="Helvetica,sans-Serif" font-size="10.00">uniot</text>
</g>
<!-- Node6 -->
<g id="Node000006" class="node">
<title>Node6</title>
<g id="a_Node000006"><a xlink:href="group__network__events.html" target="_top" xlink:title=" ">
<polygon fill="white" stroke="#666666" points="283.5,-93 189.5,-93 189.5,-74 283.5,-74 283.5,-93"/>
<text text-anchor="middle" x="236.5" y="-81" font-family="Helvetica,sans-Serif" font-size="10.00">Network Events</text>
</a>
</g>
</g>
<!-- Node1&#45;&gt;Node6 -->
<g id="edge5" class="edge">
<title>Node1&#45;&gt;Node6</title>
<path fill="none" stroke="blueviolet" stroke-dasharray="5,2" d="M44.43,-133.96C53.73,-122.79 70.8,-104.78 90,-96.5 121.32,-82.99 159.89,-80.09 189.45,-80.37"/>
<text text-anchor="middle" x="122" y="-110.5" font-family="Helvetica,sans-Serif" font-size="10.00">uniot</text>
<text text-anchor="middle" x="122" y="-99.5" font-family="Helvetica,sans-Serif" font-size="10.00">uniot::events</text>
</g>
<!-- Node7 -->
<g id="Node000007" class="node">
<title>Node7</title>
<g id="a_Node000007"><a xlink:href="group__network__scheduler.html" target="_top" xlink:title=" ">
<polygon fill="white" stroke="#666666" points="291,-56 182,-56 182,-37 291,-37 291,-56"/>
<text text-anchor="middle" x="236.5" y="-44" font-family="Helvetica,sans-Serif" font-size="10.00">Network Scheduler</text>
</a>
</g>
</g>
<!-- Node1&#45;&gt;Node7 -->
<g id="edge6" class="edge">
<title>Node1&#45;&gt;Node7</title>
<path fill="none" stroke="blueviolet" stroke-dasharray="5,2" d="M40.62,-133.74C47.44,-116.89 63.89,-82.59 90,-66.5 117.24,-49.71 152.74,-44.58 181.86,-43.71"/>
<text text-anchor="middle" x="122" y="-69.5" font-family="Helvetica,sans-Serif" font-size="10.00">uniot</text>
</g>
<!-- Node8 -->
<g id="Node000008" class="node">
<title>Node8</title>
<g id="a_Node000008"><a xlink:href="group__wifi__scan.html" target="_top" xlink:title=" ">
<polygon fill="white" stroke="#666666" points="301,-19 172,-19 172,0 301,0 301,-19"/>
<text text-anchor="middle" x="236.5" y="-7" font-family="Helvetica,sans-Serif" font-size="10.00">WiFi Network Scanning</text>
</a>
</g>
</g>
<!-- Node1&#45;&gt;Node8 -->
<g id="edge7" class="edge">
<title>Node1&#45;&gt;Node8</title>
<path fill="none" stroke="blueviolet" stroke-dasharray="5,2" d="M38.44,-133.68C42.29,-111.3 55.01,-56.43 90,-30.5 113.17,-13.33 144.23,-7.22 171.71,-5.76"/>
<text text-anchor="middle" x="122" y="-33.5" font-family="Helvetica,sans-Serif" font-size="10.00">uniot</text>
</g>
</g>
</svg>
