<?xml version="1.0" encoding="UTF-8" standalone="no"?>
<!DOCTYPE svg PUBLIC "-//W3C//DTD SVG 1.1//EN"
 "http://www.w3.org/Graphics/SVG/1.1/DTD/svg11.dtd">
<!-- Generated by graphviz version 2.43.0 (0)
 -->
<!-- Title: Graphical Class Hierarchy Pages: 1 -->
<svg width="485pt" height="60pt"
 viewBox="0.00 0.00 485.00 60.00" xmlns="http://www.w3.org/2000/svg" xmlns:xlink="http://www.w3.org/1999/xlink">
<g id="graph0" class="graph" transform="scale(1 1) rotate(0) translate(4 56)">
<title>Graphical Class Hierarchy</title>
<!-- Node0 -->
<g id="Node000000" class="node">
<title>Node0</title>
<g id="a_Node000000"><a xlink:href="class_clear_queue.html" target="_top" xlink:title=" ">
<polygon fill="white" stroke="#666666" points="146,-46.5 0,-46.5 0,-5.5 146,-5.5 146,-46.5"/>
<text text-anchor="start" x="8" y="-34.5" font-family="Helvetica,sans-Serif" font-size="10.00">ClearQueue&lt; Pair&lt; String,</text>
<text text-anchor="start" x="8" y="-23.5" font-family="Helvetica,sans-Serif" font-size="10.00"> SharedPointer&lt; uniot::</text>
<text text-anchor="middle" x="73" y="-12.5" font-family="Helvetica,sans-Serif" font-size="10.00">Array&lt; uint8_t &gt; &gt; &gt; &gt;</text>
</a>
</g>
</g>
<!-- Node1 -->
<g id="Node000001" class="node">
<title>Node1</title>
<g id="a_Node000001"><a xlink:href="class_iterable_queue.html" target="_top" xlink:title=" ">
<polygon fill="white" stroke="#666666" points="313,-52 182,-52 182,0 313,0 313,-52"/>
<text text-anchor="start" x="190" y="-40" font-family="Helvetica,sans-Serif" font-size="10.00">IterableQueue&lt; Pair</text>
<text text-anchor="start" x="190" y="-29" font-family="Helvetica,sans-Serif" font-size="10.00">&lt; String, SharedPointer</text>
<text text-anchor="start" x="190" y="-18" font-family="Helvetica,sans-Serif" font-size="10.00">&lt; uniot::Array&lt; uint8_t</text>
<text text-anchor="middle" x="247.5" y="-7" font-family="Helvetica,sans-Serif" font-size="10.00"> &gt; &gt; &gt; &gt;</text>
</a>
</g>
</g>
<!-- Node0&#45;&gt;Node1 -->
<g id="edge5_Node000000_Node000001" class="edge">
<title>Node0&#45;&gt;Node1</title>
<g id="a_edge5_Node000000_Node000001"><a xlink:title=" ">
<path fill="none" stroke="#63b8ff" d="M156.19,-26C164.78,-26 173.42,-26 181.78,-26"/>
<polygon fill="#63b8ff" stroke="#63b8ff" points="156.16,-22.5 146.16,-26 156.16,-29.5 156.16,-22.5"/>
</a>
</g>
</g>
<!-- Node2 -->
<g id="Node000002" class="node">
<title>Node2</title>
<g id="a_Node000002"><a xlink:href="classuniot_1_1_map.html" target="_top" xlink:title=" ">
<polygon fill="white" stroke="#666666" points="477,-46.5 349,-46.5 349,-5.5 477,-5.5 477,-46.5"/>
<text text-anchor="start" x="357" y="-34.5" font-family="Helvetica,sans-Serif" font-size="10.00">uniot::Map&lt; String,</text>
<text text-anchor="start" x="357" y="-23.5" font-family="Helvetica,sans-Serif" font-size="10.00"> SharedPointer&lt; uniot</text>
<text text-anchor="middle" x="413" y="-12.5" font-family="Helvetica,sans-Serif" font-size="10.00">::Array&lt; uint8_t &gt; &gt; &gt;</text>
</a>
</g>
</g>
<!-- Node1&#45;&gt;Node2 -->
<g id="edge6_Node000001_Node000002" class="edge">
<title>Node1&#45;&gt;Node2</title>
<g id="a_edge6_Node000001_Node000002"><a xlink:title=" ">
<path fill="none" stroke="#63b8ff" d="M323.16,-26C331.77,-26 340.48,-26 348.92,-26"/>
<polygon fill="#63b8ff" stroke="#63b8ff" points="323.12,-22.5 313.12,-26 323.12,-29.5 323.12,-22.5"/>
</a>
</g>
</g>
</g>
</svg>
