<?xml version="1.0" encoding="UTF-8" standalone="no"?>
<!DOCTYPE svg PUBLIC "-//W3C//DTD SVG 1.1//EN"
 "http://www.w3.org/Graphics/SVG/1.1/DTD/svg11.dtd">
<!-- Generated by graphviz version 2.43.0 (0)
 -->
<!-- Title: Graphical Class Hierarchy Pages: 1 -->
<svg width="536pt" height="60pt"
 viewBox="0.00 0.00 536.00 60.00" xmlns="http://www.w3.org/2000/svg" xmlns:xlink="http://www.w3.org/1999/xlink">
<g id="graph0" class="graph" transform="scale(1 1) rotate(0) translate(4 56)">
<title>Graphical Class Hierarchy</title>
<!-- Node0 -->
<g id="Node000000" class="node">
<title>Node0</title>
<g id="a_Node000000"><a xlink:href="class_clear_queue.html" target="_top" xlink:title=" ">
<polygon fill="white" stroke="#666666" points="176,-52 0,-52 0,0 176,0 176,-52"/>
<text text-anchor="start" x="8" y="-40" font-family="Helvetica,sans-Serif" font-size="10.00">ClearQueue&lt; Pair&lt; String,</text>
<text text-anchor="start" x="8" y="-29" font-family="Helvetica,sans-Serif" font-size="10.00"> SharedPointer&lt; uniot::</text>
<text text-anchor="start" x="8" y="-18" font-family="Helvetica,sans-Serif" font-size="10.00">Array&lt; Pair&lt; uint32_t, RecordPtr</text>
<text text-anchor="middle" x="88" y="-7" font-family="Helvetica,sans-Serif" font-size="10.00"> &gt; &gt; &gt; &gt; &gt;</text>
</a>
</g>
</g>
<!-- Node1 -->
<g id="Node000001" class="node">
<title>Node1</title>
<g id="a_Node000001"><a xlink:href="class_iterable_queue.html" target="_top" xlink:title=" ">
<polygon fill="white" stroke="#666666" points="368,-52 212,-52 212,0 368,0 368,-52"/>
<text text-anchor="start" x="220" y="-40" font-family="Helvetica,sans-Serif" font-size="10.00">IterableQueue&lt; Pair</text>
<text text-anchor="start" x="220" y="-29" font-family="Helvetica,sans-Serif" font-size="10.00">&lt; String, SharedPointer</text>
<text text-anchor="start" x="220" y="-18" font-family="Helvetica,sans-Serif" font-size="10.00">&lt; uniot::Array&lt; Pair&lt; uint32</text>
<text text-anchor="middle" x="290" y="-7" font-family="Helvetica,sans-Serif" font-size="10.00">_t, RecordPtr &gt; &gt; &gt; &gt; &gt;</text>
</a>
</g>
</g>
<!-- Node0&#45;&gt;Node1 -->
<g id="edge3_Node000000_Node000001" class="edge">
<title>Node0&#45;&gt;Node1</title>
<g id="a_edge3_Node000000_Node000001"><a xlink:title=" ">
<path fill="none" stroke="#63b8ff" d="M186.22,-26C194.83,-26 203.47,-26 211.88,-26"/>
<polygon fill="#63b8ff" stroke="#63b8ff" points="186.14,-22.5 176.14,-26 186.14,-29.5 186.14,-22.5"/>
</a>
</g>
</g>
<!-- Node2 -->
<g id="Node000002" class="node">
<title>Node2</title>
<g id="a_Node000002"><a xlink:href="classuniot_1_1_map.html" target="_top" xlink:title=" ">
<polygon fill="white" stroke="#666666" points="528,-52 404,-52 404,0 528,0 528,-52"/>
<text text-anchor="start" x="412" y="-40" font-family="Helvetica,sans-Serif" font-size="10.00">uniot::Map&lt; String,</text>
<text text-anchor="start" x="412" y="-29" font-family="Helvetica,sans-Serif" font-size="10.00"> SharedPointer&lt; uniot</text>
<text text-anchor="start" x="412" y="-18" font-family="Helvetica,sans-Serif" font-size="10.00">::Array&lt; Pair&lt; uint32</text>
<text text-anchor="middle" x="466" y="-7" font-family="Helvetica,sans-Serif" font-size="10.00">_t, RecordPtr &gt; &gt; &gt; &gt;</text>
</a>
</g>
</g>
<!-- Node1&#45;&gt;Node2 -->
<g id="edge4_Node000001_Node000002" class="edge">
<title>Node1&#45;&gt;Node2</title>
<g id="a_edge4_Node000001_Node000002"><a xlink:title=" ">
<path fill="none" stroke="#63b8ff" d="M378.24,-26C386.92,-26 395.59,-26 403.91,-26"/>
<polygon fill="#63b8ff" stroke="#63b8ff" points="378.08,-22.5 368.08,-26 378.08,-29.5 378.08,-22.5"/>
</a>
</g>
</g>
</g>
</svg>
