<?xml version="1.0" encoding="UTF-8" standalone="no"?>
<!DOCTYPE svg PUBLIC "-//W3C//DTD SVG 1.1//EN"
 "http://www.w3.org/Graphics/SVG/1.1/DTD/svg11.dtd">
<!-- Generated by graphviz version 2.43.0 (0)
 -->
<!-- Title: Button.h Pages: 1 -->
<svg width="817pt" height="192pt"
 viewBox="0.00 0.00 817.00 192.00" xmlns="http://www.w3.org/2000/svg" xmlns:xlink="http://www.w3.org/1999/xlink">
<g id="graph0" class="graph" transform="scale(1 1) rotate(0) translate(4 188)">
<title>Button.h</title>
<!-- Node1 -->
<g id="Node000001" class="node">
<title>Node1</title>
<g id="a_Node000001"><a xlink:title=" ">
<polygon fill="#999999" stroke="#666666" points="317,-184 259,-184 259,-165 317,-165 317,-184"/>
<text text-anchor="middle" x="288" y="-172" font-family="Helvetica,sans-Serif" font-size="10.00">Button.h</text>
</a>
</g>
</g>
<!-- Node2 -->
<g id="Node000002" class="node">
<title>Node2</title>
<g id="a_Node000002"><a xlink:href="_i_executor_8h.html" target="_top" xlink:title=" ">
<polygon fill="white" stroke="#666666" points="323,-74 253,-74 253,-55 323,-55 323,-74"/>
<text text-anchor="middle" x="288" y="-62" font-family="Helvetica,sans-Serif" font-size="10.00">IExecutor.h</text>
</a>
</g>
</g>
<!-- Node1&#45;&gt;Node2 -->
<g id="edge1_Node000001_Node000002" class="edge">
<title>Node1&#45;&gt;Node2</title>
<g id="a_edge1_Node000001_Node000002"><a xlink:title=" ">
<path fill="none" stroke="#63b8ff" d="M288,-164.66C288,-147.17 288,-107.8 288,-84.27"/>
<polygon fill="#63b8ff" stroke="#63b8ff" points="291.5,-84.16 288,-74.16 284.5,-84.16 291.5,-84.16"/>
</a>
</g>
</g>
<!-- Node3 -->
<g id="Node000003" class="node">
<title>Node3</title>
<g id="a_Node000003"><a xlink:href="_object_register_record_8h.html" target="_top" xlink:title=" ">
<polygon fill="white" stroke="#666666" points="214.5,-129 83.5,-129 83.5,-110 214.5,-110 214.5,-129"/>
<text text-anchor="middle" x="149" y="-117" font-family="Helvetica,sans-Serif" font-size="10.00">ObjectRegisterRecord.h</text>
</a>
</g>
</g>
<!-- Node1&#45;&gt;Node3 -->
<g id="edge2_Node000001_Node000003" class="edge">
<title>Node1&#45;&gt;Node3</title>
<g id="a_edge2_Node000001_Node000003"><a xlink:title=" ">
<path fill="none" stroke="#63b8ff" d="M265.67,-164.98C242.8,-156.27 207.04,-142.63 181.14,-132.75"/>
<polygon fill="#63b8ff" stroke="#63b8ff" points="182.33,-129.46 171.74,-129.17 179.84,-136 182.33,-129.46"/>
</a>
</g>
</g>
<!-- Node9 -->
<g id="Node000009" class="node">
<title>Node9</title>
<g id="a_Node000009"><a xlink:href="_task_scheduler_8h.html" target="_top" xlink:title=" ">
<polygon fill="white" stroke="#666666" points="441.5,-129 346.5,-129 346.5,-110 441.5,-110 441.5,-129"/>
<text text-anchor="middle" x="394" y="-117" font-family="Helvetica,sans-Serif" font-size="10.00">TaskScheduler.h</text>
</a>
</g>
</g>
<!-- Node1&#45;&gt;Node9 -->
<g id="edge9_Node000001_Node000009" class="edge">
<title>Node1&#45;&gt;Node9</title>
<g id="a_edge9_Node000001_Node000009"><a xlink:title=" ">
<path fill="none" stroke="#63b8ff" d="M305.03,-164.98C321.93,-156.54 348.06,-143.47 367.64,-133.68"/>
<polygon fill="#63b8ff" stroke="#63b8ff" points="369.28,-136.77 376.66,-129.17 366.15,-130.51 369.28,-136.77"/>
</a>
</g>
</g>
<!-- Node4 -->
<g id="Node000004" class="node">
<title>Node4</title>
<g id="a_Node000004"><a xlink:href="_clear_queue_8h.html" target="_top" xlink:title=" ">
<polygon fill="white" stroke="#666666" points="234.5,-74 151.5,-74 151.5,-55 234.5,-55 234.5,-74"/>
<text text-anchor="middle" x="193" y="-62" font-family="Helvetica,sans-Serif" font-size="10.00">ClearQueue.h</text>
</a>
</g>
</g>
<!-- Node3&#45;&gt;Node4 -->
<g id="edge3_Node000003_Node000004" class="edge">
<title>Node3&#45;&gt;Node4</title>
<g id="a_edge3_Node000003_Node000004"><a xlink:title=" ">
<path fill="none" stroke="#63b8ff" d="M156.27,-109.75C162.54,-102.18 171.79,-91.05 179.43,-81.84"/>
<polygon fill="#63b8ff" stroke="#63b8ff" points="182.17,-84.02 185.87,-74.09 176.79,-79.55 182.17,-84.02"/>
</a>
</g>
</g>
<!-- Node7 -->
<g id="Node000007" class="node">
<title>Node7</title>
<g id="a_Node000007"><a xlink:href="_logger_8h.html" target="_top" xlink:title=" ">
<polygon fill="white" stroke="#666666" points="58,-74 0,-74 0,-55 58,-55 58,-74"/>
<text text-anchor="middle" x="29" y="-62" font-family="Helvetica,sans-Serif" font-size="10.00">Logger.h</text>
</a>
</g>
</g>
<!-- Node3&#45;&gt;Node7 -->
<g id="edge6_Node000003_Node000007" class="edge">
<title>Node3&#45;&gt;Node7</title>
<g id="a_edge6_Node000003_Node000007"><a xlink:title=" ">
<path fill="none" stroke="#63b8ff" d="M129.72,-109.98C110.33,-101.42 80.19,-88.11 57.93,-78.28"/>
<polygon fill="#63b8ff" stroke="#63b8ff" points="59.19,-75.01 48.63,-74.17 56.36,-81.41 59.19,-75.01"/>
</a>
</g>
</g>
<!-- Node8 -->
<g id="Node000008" class="node">
<title>Node8</title>
<g id="a_Node000008"><a xlink:href="_type_id_8h.html" target="_top" xlink:title=" ">
<polygon fill="white" stroke="#666666" points="133.5,-74 76.5,-74 76.5,-55 133.5,-55 133.5,-74"/>
<text text-anchor="middle" x="105" y="-62" font-family="Helvetica,sans-Serif" font-size="10.00">TypeId.h</text>
</a>
</g>
</g>
<!-- Node3&#45;&gt;Node8 -->
<g id="edge8_Node000003_Node000008" class="edge">
<title>Node3&#45;&gt;Node8</title>
<g id="a_edge8_Node000003_Node000008"><a xlink:title=" ">
<path fill="none" stroke="#63b8ff" d="M141.73,-109.75C135.46,-102.18 126.21,-91.05 118.57,-81.84"/>
<polygon fill="#63b8ff" stroke="#63b8ff" points="121.21,-79.55 112.13,-74.09 115.83,-84.02 121.21,-79.55"/>
</a>
</g>
</g>
<!-- Node5 -->
<g id="Node000005" class="node">
<title>Node5</title>
<g id="a_Node000005"><a xlink:title=" ">
<polygon fill="#e0e0e0" stroke="#999999" points="101.5,-19 38.5,-19 38.5,0 101.5,0 101.5,-19"/>
<text text-anchor="middle" x="70" y="-7" font-family="Helvetica,sans-Serif" font-size="10.00">Arduino.h</text>
</a>
</g>
</g>
<!-- Node4&#45;&gt;Node5 -->
<g id="edge4_Node000004_Node000005" class="edge">
<title>Node4&#45;&gt;Node5</title>
<g id="a_edge4_Node000004_Node000005"><a xlink:title=" ">
<path fill="none" stroke="#63b8ff" d="M173.24,-54.98C153.27,-46.38 122.2,-32.99 99.35,-23.15"/>
<polygon fill="#63b8ff" stroke="#63b8ff" points="100.69,-19.91 90.12,-19.17 97.92,-26.34 100.69,-19.91"/>
</a>
</g>
</g>
<!-- Node6 -->
<g id="Node000006" class="node">
<title>Node6</title>
<g id="a_Node000006"><a xlink:title=" ">
<polygon fill="#e0e0e0" stroke="#999999" points="199.5,-19 134.5,-19 134.5,0 199.5,0 199.5,-19"/>
<text text-anchor="middle" x="167" y="-7" font-family="Helvetica,sans-Serif" font-size="10.00">functional</text>
</a>
</g>
</g>
<!-- Node4&#45;&gt;Node6 -->
<g id="edge5_Node000004_Node000006" class="edge">
<title>Node4&#45;&gt;Node6</title>
<g id="a_edge5_Node000004_Node000006"><a xlink:title=" ">
<path fill="none" stroke="#63b8ff" d="M188.71,-54.75C185.19,-47.57 180.09,-37.18 175.72,-28.27"/>
<polygon fill="#63b8ff" stroke="#63b8ff" points="178.76,-26.53 171.21,-19.09 172.48,-29.61 178.76,-26.53"/>
</a>
</g>
</g>
<!-- Node7&#45;&gt;Node5 -->
<g id="edge7_Node000007_Node000005" class="edge">
<title>Node7&#45;&gt;Node5</title>
<g id="a_edge7_Node000007_Node000005"><a xlink:title=" ">
<path fill="none" stroke="#63b8ff" d="M35.77,-54.75C41.56,-47.26 50.06,-36.28 57.14,-27.13"/>
<polygon fill="#63b8ff" stroke="#63b8ff" points="60.01,-29.14 63.36,-19.09 54.47,-24.86 60.01,-29.14"/>
</a>
</g>
</g>
<!-- Node9&#45;&gt;Node2 -->
<g id="edge21_Node000009_Node000002" class="edge">
<title>Node9&#45;&gt;Node2</title>
<g id="a_edge21_Node000009_Node000002"><a xlink:title=" ">
<path fill="none" stroke="#63b8ff" d="M376.97,-109.98C360.07,-101.54 333.94,-88.47 314.36,-78.68"/>
<polygon fill="#63b8ff" stroke="#63b8ff" points="315.85,-75.51 305.34,-74.17 312.72,-81.77 315.85,-75.51"/>
</a>
</g>
</g>
<!-- Node9&#45;&gt;Node4 -->
<g id="edge17_Node000009_Node000004" class="edge">
<title>Node9&#45;&gt;Node4</title>
<g id="a_edge17_Node000009_Node000004"><a xlink:title=" ">
<path fill="none" stroke="#63b8ff" d="M361.71,-109.98C327.38,-100.93 272.94,-86.58 235.23,-76.64"/>
<polygon fill="#63b8ff" stroke="#63b8ff" points="236.11,-73.25 225.55,-74.08 234.32,-80.02 236.11,-73.25"/>
</a>
</g>
</g>
<!-- Node9&#45;&gt;Node6 -->
<g id="edge23_Node000009_Node000006" class="edge">
<title>Node9&#45;&gt;Node6</title>
<g id="a_edge23_Node000009_Node000006"><a xlink:title=" ">
<path fill="none" stroke="#63b8ff" d="M387.85,-109.66C377.79,-95.87 356.46,-69.34 332,-55 311.37,-42.9 251.29,-28.39 209.63,-19.31"/>
<polygon fill="#63b8ff" stroke="#63b8ff" points="210.24,-15.86 199.73,-17.18 208.77,-22.7 210.24,-15.86"/>
</a>
</g>
</g>
<!-- Node10 -->
<g id="Node000010" class="node">
<title>Node10</title>
<g id="a_Node000010"><a xlink:href="_e_s_p8266_task_8h.html" target="_top" xlink:title=" ">
<polygon fill="white" stroke="#666666" points="468.5,-74 379.5,-74 379.5,-55 468.5,-55 468.5,-74"/>
<text text-anchor="middle" x="424" y="-62" font-family="Helvetica,sans-Serif" font-size="10.00">ESP8266Task.h</text>
</a>
</g>
</g>
<!-- Node9&#45;&gt;Node10 -->
<g id="edge10_Node000009_Node000010" class="edge">
<title>Node9&#45;&gt;Node10</title>
<g id="a_edge10_Node000009_Node000010"><a xlink:title=" ">
<path fill="none" stroke="#63b8ff" d="M398.95,-109.75C403.06,-102.49 409.03,-91.95 414.1,-82.98"/>
<polygon fill="#63b8ff" stroke="#63b8ff" points="417.26,-84.52 419.14,-74.09 411.17,-81.07 417.26,-84.52"/>
</a>
</g>
</g>
<!-- Node17 -->
<g id="Node000017" class="node">
<title>Node17</title>
<g id="a_Node000017"><a xlink:href="_common_8h.html" target="_top" xlink:title=" ">
<polygon fill="white" stroke="#666666" points="745,-74 675,-74 675,-55 745,-55 745,-74"/>
<text text-anchor="middle" x="710" y="-62" font-family="Helvetica,sans-Serif" font-size="10.00">Common.h</text>
</a>
</g>
</g>
<!-- Node9&#45;&gt;Node17 -->
<g id="edge18_Node000009_Node000017" class="edge">
<title>Node9&#45;&gt;Node17</title>
<g id="a_edge18_Node000009_Node000017"><a xlink:title=" ">
<path fill="none" stroke="#63b8ff" d="M441.65,-110.51C501.99,-100.39 605.23,-83.07 664.52,-73.13"/>
<polygon fill="#63b8ff" stroke="#63b8ff" points="665.42,-76.53 674.71,-71.42 664.27,-69.62 665.42,-76.53"/>
</a>
</g>
</g>
<!-- Node18 -->
<g id="Node000018" class="node">
<title>Node18</title>
<g id="a_Node000018"><a xlink:title=" ">
<polygon fill="#e0e0e0" stroke="#999999" points="809,-19 751,-19 751,0 809,0 809,-19"/>
<text text-anchor="middle" x="780" y="-7" font-family="Helvetica,sans-Serif" font-size="10.00">memory</text>
</a>
</g>
</g>
<!-- Node9&#45;&gt;Node18 -->
<g id="edge24_Node000009_Node000018" class="edge">
<title>Node9&#45;&gt;Node18</title>
<g id="a_edge24_Node000009_Node000018"><a xlink:title=" ">
<path fill="none" stroke="#63b8ff" d="M441.58,-118.43C527.95,-117.37 706.03,-110.66 754,-74 768.03,-63.28 774.53,-43.69 777.51,-29.09"/>
<polygon fill="#63b8ff" stroke="#63b8ff" points="780.98,-29.57 779.18,-19.13 774.08,-28.41 780.98,-29.57"/>
</a>
</g>
</g>
<!-- Node20 -->
<g id="Node000020" class="node">
<title>Node20</title>
<g id="a_Node000020"><a xlink:href="_i_scheduler_connection_kit_8h.html" target="_top" xlink:title=" ">
<polygon fill="white" stroke="#666666" points="631.5,-74 486.5,-74 486.5,-55 631.5,-55 631.5,-74"/>
<text text-anchor="middle" x="559" y="-62" font-family="Helvetica,sans-Serif" font-size="10.00">ISchedulerConnectionKit.h</text>
</a>
</g>
</g>
<!-- Node9&#45;&gt;Node20 -->
<g id="edge22_Node000009_Node000020" class="edge">
<title>Node9&#45;&gt;Node20</title>
<g id="a_edge22_Node000009_Node000020"><a xlink:title=" ">
<path fill="none" stroke="#63b8ff" d="M420.51,-109.98C448.21,-101.09 491.86,-87.07 522.74,-77.15"/>
<polygon fill="#63b8ff" stroke="#63b8ff" points="523.83,-80.47 532.28,-74.08 521.69,-73.81 523.83,-80.47"/>
</a>
</g>
</g>
<!-- Node11 -->
<g id="Node000011" class="node">
<title>Node11</title>
<g id="a_Node000011"><a xlink:title=" ">
<polygon fill="#e0e0e0" stroke="#999999" points="424,-19 368,-19 368,0 424,0 424,-19"/>
<text text-anchor="middle" x="396" y="-7" font-family="Helvetica,sans-Serif" font-size="10.00">stddef.h</text>
</a>
</g>
</g>
<!-- Node10&#45;&gt;Node11 -->
<g id="edge11_Node000010_Node000011" class="edge">
<title>Node10&#45;&gt;Node11</title>
<g id="a_edge11_Node000010_Node000011"><a xlink:title=" ">
<path fill="none" stroke="#63b8ff" d="M419.38,-54.75C415.54,-47.49 409.98,-36.95 405.24,-27.98"/>
<polygon fill="#63b8ff" stroke="#63b8ff" points="408.3,-26.3 400.54,-19.09 402.11,-29.57 408.3,-26.3"/>
</a>
</g>
</g>
<!-- Node12 -->
<g id="Node000012" class="node">
<title>Node12</title>
<g id="a_Node000012"><a xlink:title=" ">
<polygon fill="#e0e0e0" stroke="#999999" points="495.5,-19 442.5,-19 442.5,0 495.5,0 495.5,-19"/>
<text text-anchor="middle" x="469" y="-7" font-family="Helvetica,sans-Serif" font-size="10.00">stdint.h</text>
</a>
</g>
</g>
<!-- Node10&#45;&gt;Node12 -->
<g id="edge12_Node000010_Node000012" class="edge">
<title>Node10&#45;&gt;Node12</title>
<g id="a_edge12_Node000010_Node000012"><a xlink:title=" ">
<path fill="none" stroke="#63b8ff" d="M431.43,-54.75C437.85,-47.18 447.31,-36.05 455.12,-26.84"/>
<polygon fill="#63b8ff" stroke="#63b8ff" points="457.9,-28.98 461.71,-19.09 452.57,-24.45 457.9,-28.98"/>
</a>
</g>
</g>
<!-- Node13 -->
<g id="Node000013" class="node">
<title>Node13</title>
<g id="a_Node000013"><a xlink:title=" ">
<polygon fill="#e0e0e0" stroke="#999999" points="576.5,-19 513.5,-19 513.5,0 576.5,0 576.5,-19"/>
<text text-anchor="middle" x="545" y="-7" font-family="Helvetica,sans-Serif" font-size="10.00">c_types.h</text>
</a>
</g>
</g>
<!-- Node10&#45;&gt;Node13 -->
<g id="edge13_Node000010_Node000013" class="edge">
<title>Node10&#45;&gt;Node13</title>
<g id="a_edge13_Node000010_Node000013"><a xlink:title=" ">
<path fill="none" stroke="#63b8ff" d="M443.44,-54.98C462.99,-46.42 493.38,-33.11 515.82,-23.28"/>
<polygon fill="#63b8ff" stroke="#63b8ff" points="517.45,-26.39 525.21,-19.17 514.64,-19.98 517.45,-26.39"/>
</a>
</g>
</g>
<!-- Node14 -->
<g id="Node000014" class="node">
<title>Node14</title>
<g id="a_Node000014"><a xlink:title=" ">
<polygon fill="#e0e0e0" stroke="#999999" points="669,-19 595,-19 595,0 669,0 669,-19"/>
<text text-anchor="middle" x="632" y="-7" font-family="Helvetica,sans-Serif" font-size="10.00">eagle_soc.h</text>
</a>
</g>
</g>
<!-- Node10&#45;&gt;Node14 -->
<g id="edge14_Node000010_Node000014" class="edge">
<title>Node10&#45;&gt;Node14</title>
<g id="a_edge14_Node000010_Node000014"><a xlink:title=" ">
<path fill="none" stroke="#63b8ff" d="M457.42,-54.98C492.94,-45.93 549.27,-31.58 588.3,-21.64"/>
<polygon fill="#63b8ff" stroke="#63b8ff" points="589.49,-24.94 598.32,-19.08 587.76,-18.16 589.49,-24.94"/>
</a>
</g>
</g>
<!-- Node15 -->
<g id="Node000015" class="node">
<title>Node15</title>
<g id="a_Node000015"><a xlink:title=" ">
<polygon fill="#e0e0e0" stroke="#999999" points="280,-19 218,-19 218,0 280,0 280,-19"/>
<text text-anchor="middle" x="249" y="-7" font-family="Helvetica,sans-Serif" font-size="10.00">ets_sys.h</text>
</a>
</g>
</g>
<!-- Node10&#45;&gt;Node15 -->
<g id="edge15_Node000010_Node000015" class="edge">
<title>Node10&#45;&gt;Node15</title>
<g id="a_edge15_Node000010_Node000015"><a xlink:title=" ">
<path fill="none" stroke="#63b8ff" d="M395.88,-54.98C366.38,-46.05 319.81,-31.94 287.03,-22.02"/>
<polygon fill="#63b8ff" stroke="#63b8ff" points="287.92,-18.63 277.34,-19.08 285.89,-25.33 287.92,-18.63"/>
</a>
</g>
</g>
<!-- Node16 -->
<g id="Node000016" class="node">
<title>Node16</title>
<g id="a_Node000016"><a xlink:title=" ">
<polygon fill="#e0e0e0" stroke="#999999" points="350,-19 298,-19 298,0 350,0 350,-19"/>
<text text-anchor="middle" x="324" y="-7" font-family="Helvetica,sans-Serif" font-size="10.00">osapi.h</text>
</a>
</g>
</g>
<!-- Node10&#45;&gt;Node16 -->
<g id="edge16_Node000010_Node000016" class="edge">
<title>Node10&#45;&gt;Node16</title>
<g id="a_edge16_Node000010_Node000016"><a xlink:title=" ">
<path fill="none" stroke="#63b8ff" d="M407.93,-54.98C392.14,-46.61 367.78,-33.7 349.37,-23.95"/>
<polygon fill="#63b8ff" stroke="#63b8ff" points="350.83,-20.76 340.36,-19.17 347.56,-26.95 350.83,-20.76"/>
</a>
</g>
</g>
<!-- Node17&#45;&gt;Node18 -->
<g id="edge19_Node000017_Node000018" class="edge">
<title>Node17&#45;&gt;Node18</title>
<g id="a_edge19_Node000017_Node000018"><a xlink:title=" ">
<path fill="none" stroke="#63b8ff" d="M721.25,-54.98C731.8,-47 747.8,-34.88 760.44,-25.31"/>
<polygon fill="#63b8ff" stroke="#63b8ff" points="762.69,-28 768.55,-19.17 758.46,-22.42 762.69,-28"/>
</a>
</g>
</g>
<!-- Node19 -->
<g id="Node000019" class="node">
<title>Node19</title>
<g id="a_Node000019"><a xlink:title=" ">
<polygon fill="#e0e0e0" stroke="#999999" points="732.5,-19 687.5,-19 687.5,0 732.5,0 732.5,-19"/>
<text text-anchor="middle" x="710" y="-7" font-family="Helvetica,sans-Serif" font-size="10.00">utility</text>
</a>
</g>
</g>
<!-- Node17&#45;&gt;Node19 -->
<g id="edge20_Node000017_Node000019" class="edge">
<title>Node17&#45;&gt;Node19</title>
<g id="a_edge20_Node000017_Node000019"><a xlink:title=" ">
<path fill="none" stroke="#63b8ff" d="M710,-54.75C710,-47.8 710,-37.85 710,-29.13"/>
<polygon fill="#63b8ff" stroke="#63b8ff" points="713.5,-29.09 710,-19.09 706.5,-29.09 713.5,-29.09"/>
</a>
</g>
</g>
</g>
</svg>
