<?xml version="1.0" encoding="UTF-8" standalone="no"?>
<!DOCTYPE svg PUBLIC "-//W3C//DTD SVG 1.1//EN"
 "http://www.w3.org/Graphics/SVG/1.1/DTD/svg11.dtd">
<!-- Generated by graphviz version 2.43.0 (0)
 -->
<!-- Title: CBORStorage.h Pages: 1 -->
<svg width="562pt" height="247pt"
 viewBox="0.00 0.00 562.00 247.00" xmlns="http://www.w3.org/2000/svg" xmlns:xlink="http://www.w3.org/1999/xlink">
<g id="graph0" class="graph" transform="scale(1 1) rotate(0) translate(4 243)">
<title>CBORStorage.h</title>
<!-- Node1 -->
<g id="Node000001" class="node">
<title>Node1</title>
<g id="a_Node000001"><a xlink:title=" ">
<polygon fill="#999999" stroke="#666666" points="383,-239 292,-239 292,-220 383,-220 383,-239"/>
<text text-anchor="middle" x="337.5" y="-227" font-family="Helvetica,sans-Serif" font-size="10.00">CBORStorage.h</text>
</a>
</g>
</g>
<!-- Node2 -->
<g id="Node000002" class="node">
<title>Node2</title>
<g id="a_Node000002"><a xlink:href="_storage_8h.html" target="_top" xlink:title=" ">
<polygon fill="white" stroke="#666666" points="323,-184 260,-184 260,-165 323,-165 323,-184"/>
<text text-anchor="middle" x="291.5" y="-172" font-family="Helvetica,sans-Serif" font-size="10.00">Storage.h</text>
</a>
</g>
</g>
<!-- Node1&#45;&gt;Node2 -->
<g id="edge1_Node000001_Node000002" class="edge">
<title>Node1&#45;&gt;Node2</title>
<g id="a_edge1_Node000001_Node000002"><a xlink:title=" ">
<path fill="none" stroke="#63b8ff" d="M329.9,-219.75C323.34,-212.18 313.68,-201.05 305.69,-191.84"/>
<polygon fill="#63b8ff" stroke="#63b8ff" points="308.15,-189.35 298.95,-184.09 302.87,-193.94 308.15,-189.35"/>
</a>
</g>
</g>
<!-- Node14 -->
<g id="Node000014" class="node">
<title>Node14</title>
<g id="a_Node000014"><a xlink:href="_c_b_o_r_object_8h.html" target="_top" xlink:title=" ">
<polygon fill="white" stroke="#666666" points="449,-184 364,-184 364,-165 449,-165 449,-184"/>
<text text-anchor="middle" x="406.5" y="-172" font-family="Helvetica,sans-Serif" font-size="10.00">CBORObject.h</text>
</a>
</g>
</g>
<!-- Node1&#45;&gt;Node14 -->
<g id="edge14_Node000001_Node000014" class="edge">
<title>Node1&#45;&gt;Node14</title>
<g id="a_edge14_Node000001_Node000014"><a xlink:title=" ">
<path fill="none" stroke="#63b8ff" d="M348.59,-219.98C358.99,-212 374.76,-199.88 387.22,-190.31"/>
<polygon fill="#63b8ff" stroke="#63b8ff" points="389.41,-193.04 395.21,-184.17 385.15,-187.49 389.41,-193.04"/>
</a>
</g>
</g>
<!-- Node3 -->
<g id="Node000003" class="node">
<title>Node3</title>
<g id="a_Node000003"><a xlink:title=" ">
<polygon fill="#e0e0e0" stroke="#999999" points="191.5,-129 133.5,-129 133.5,-110 191.5,-110 191.5,-129"/>
<text text-anchor="middle" x="162.5" y="-117" font-family="Helvetica,sans-Serif" font-size="10.00">SPIFFS.h</text>
</a>
</g>
</g>
<!-- Node2&#45;&gt;Node3 -->
<g id="edge2_Node000002_Node000003" class="edge">
<title>Node2&#45;&gt;Node3</title>
<g id="a_edge2_Node000002_Node000003"><a xlink:title=" ">
<path fill="none" stroke="#63b8ff" d="M270.77,-164.98C249.74,-156.34 216.95,-142.87 192.96,-133.02"/>
<polygon fill="#63b8ff" stroke="#63b8ff" points="194.18,-129.73 183.6,-129.17 191.52,-136.21 194.18,-129.73"/>
</a>
</g>
</g>
<!-- Node4 -->
<g id="Node000004" class="node">
<title>Node4</title>
<g id="a_Node000004"><a xlink:title=" ">
<polygon fill="#e0e0e0" stroke="#999999" points="247,-129 210,-129 210,-110 247,-110 247,-129"/>
<text text-anchor="middle" x="228.5" y="-117" font-family="Helvetica,sans-Serif" font-size="10.00">FS.h</text>
</a>
</g>
</g>
<!-- Node2&#45;&gt;Node4 -->
<g id="edge3_Node000002_Node000004" class="edge">
<title>Node2&#45;&gt;Node4</title>
<g id="a_edge3_Node000002_Node000004"><a xlink:title=" ">
<path fill="none" stroke="#63b8ff" d="M281.38,-164.98C272.06,-157.15 258.03,-145.34 246.76,-135.86"/>
<polygon fill="#63b8ff" stroke="#63b8ff" points="248.71,-132.93 238.81,-129.17 244.21,-138.29 248.71,-132.93"/>
</a>
</g>
</g>
<!-- Node5 -->
<g id="Node000005" class="node">
<title>Node5</title>
<g id="a_Node000005"><a xlink:href="_bytes_8h.html" target="_top" xlink:title=" ">
<polygon fill="white" stroke="#666666" points="318,-129 265,-129 265,-110 318,-110 318,-129"/>
<text text-anchor="middle" x="291.5" y="-117" font-family="Helvetica,sans-Serif" font-size="10.00">Bytes.h</text>
</a>
</g>
</g>
<!-- Node2&#45;&gt;Node5 -->
<g id="edge4_Node000002_Node000005" class="edge">
<title>Node2&#45;&gt;Node5</title>
<g id="a_edge4_Node000002_Node000005"><a xlink:title=" ">
<path fill="none" stroke="#63b8ff" d="M291.5,-164.75C291.5,-157.8 291.5,-147.85 291.5,-139.13"/>
<polygon fill="#63b8ff" stroke="#63b8ff" points="295,-139.09 291.5,-129.09 288,-139.09 295,-139.09"/>
</a>
</g>
</g>
<!-- Node9 -->
<g id="Node000009" class="node">
<title>Node9</title>
<g id="a_Node000009"><a xlink:href="_logger_8h.html" target="_top" xlink:title=" ">
<polygon fill="white" stroke="#666666" points="398.5,-74 340.5,-74 340.5,-55 398.5,-55 398.5,-74"/>
<text text-anchor="middle" x="369.5" y="-62" font-family="Helvetica,sans-Serif" font-size="10.00">Logger.h</text>
</a>
</g>
</g>
<!-- Node2&#45;&gt;Node9 -->
<g id="edge13_Node000002_Node000009" class="edge">
<title>Node2&#45;&gt;Node9</title>
<g id="a_edge13_Node000002_Node000009"><a xlink:title=" ">
<path fill="none" stroke="#63b8ff" d="M298.66,-164.78C305.87,-155.91 317.22,-141.7 326.5,-129 337.75,-113.6 349.87,-95.55 358.37,-82.64"/>
<polygon fill="#63b8ff" stroke="#63b8ff" points="361.31,-84.55 363.85,-74.26 355.45,-80.72 361.31,-84.55"/>
</a>
</g>
</g>
<!-- Node6 -->
<g id="Node000006" class="node">
<title>Node6</title>
<g id="a_Node000006"><a xlink:href="_common_8h.html" target="_top" xlink:title=" ">
<polygon fill="white" stroke="#666666" points="240.5,-74 170.5,-74 170.5,-55 240.5,-55 240.5,-74"/>
<text text-anchor="middle" x="205.5" y="-62" font-family="Helvetica,sans-Serif" font-size="10.00">Common.h</text>
</a>
</g>
</g>
<!-- Node5&#45;&gt;Node6 -->
<g id="edge5_Node000005_Node000006" class="edge">
<title>Node5&#45;&gt;Node6</title>
<g id="a_edge5_Node000005_Node000006"><a xlink:title=" ">
<path fill="none" stroke="#63b8ff" d="M277.68,-109.98C264.35,-101.77 243.92,-89.18 228.19,-79.49"/>
<polygon fill="#63b8ff" stroke="#63b8ff" points="229.92,-76.44 219.57,-74.17 226.25,-82.4 229.92,-76.44"/>
</a>
</g>
</g>
<!-- Node5&#45;&gt;Node9 -->
<g id="edge8_Node000005_Node000009" class="edge">
<title>Node5&#45;&gt;Node9</title>
<g id="a_edge8_Node000005_Node000009"><a xlink:title=" ">
<path fill="none" stroke="#63b8ff" d="M304.03,-109.98C315.9,-101.92 333.96,-89.65 348.11,-80.03"/>
<polygon fill="#63b8ff" stroke="#63b8ff" points="350.44,-82.69 356.74,-74.17 346.5,-76.9 350.44,-82.69"/>
</a>
</g>
</g>
<!-- Node11 -->
<g id="Node000011" class="node">
<title>Node11</title>
<g id="a_Node000011"><a xlink:title=" ">
<polygon fill="#e0e0e0" stroke="#999999" points="322.5,-74 258.5,-74 258.5,-55 322.5,-55 322.5,-74"/>
<text text-anchor="middle" x="290.5" y="-62" font-family="Helvetica,sans-Serif" font-size="10.00">WString.h</text>
</a>
</g>
</g>
<!-- Node5&#45;&gt;Node11 -->
<g id="edge10_Node000005_Node000011" class="edge">
<title>Node5&#45;&gt;Node11</title>
<g id="a_edge10_Node000005_Node000011"><a xlink:title=" ">
<path fill="none" stroke="#63b8ff" d="M291.33,-109.75C291.2,-102.8 291.02,-92.85 290.85,-84.13"/>
<polygon fill="#63b8ff" stroke="#63b8ff" points="294.35,-84.02 290.66,-74.09 287.35,-84.15 294.35,-84.02"/>
</a>
</g>
</g>
<!-- Node12 -->
<g id="Node000012" class="node">
<title>Node12</title>
<g id="a_Node000012"><a xlink:title=" ">
<polygon fill="#e0e0e0" stroke="#999999" points="65,-74 0,-74 0,-55 65,-55 65,-74"/>
<text text-anchor="middle" x="32.5" y="-62" font-family="Helvetica,sans-Serif" font-size="10.00">functional</text>
</a>
</g>
</g>
<!-- Node5&#45;&gt;Node12 -->
<g id="edge11_Node000005_Node000012" class="edge">
<title>Node5&#45;&gt;Node12</title>
<g id="a_edge11_Node000005_Node000012"><a xlink:title=" ">
<path fill="none" stroke="#63b8ff" d="M264.79,-112.08C261.66,-111.36 258.51,-110.65 255.5,-110 178.07,-93.21 156.02,-90.56 75.31,-74.35"/>
<polygon fill="#63b8ff" stroke="#63b8ff" points="75.66,-70.85 65.17,-72.3 74.28,-77.71 75.66,-70.85"/>
</a>
</g>
</g>
<!-- Node13 -->
<g id="Node000013" class="node">
<title>Node13</title>
<g id="a_Node000013"><a xlink:title=" ">
<polygon fill="#e0e0e0" stroke="#999999" points="152,-74 83,-74 83,-55 152,-55 152,-74"/>
<text text-anchor="middle" x="117.5" y="-62" font-family="Helvetica,sans-Serif" font-size="10.00">type_traits</text>
</a>
</g>
</g>
<!-- Node5&#45;&gt;Node13 -->
<g id="edge12_Node000005_Node000013" class="edge">
<title>Node5&#45;&gt;Node13</title>
<g id="a_edge12_Node000005_Node000013"><a xlink:title=" ">
<path fill="none" stroke="#63b8ff" d="M264.69,-110.33C235.41,-101.41 188.27,-87.06 155.25,-77"/>
<polygon fill="#63b8ff" stroke="#63b8ff" points="156.08,-73.59 145.49,-74.03 154.04,-80.29 156.08,-73.59"/>
</a>
</g>
</g>
<!-- Node7 -->
<g id="Node000007" class="node">
<title>Node7</title>
<g id="a_Node000007"><a xlink:title=" ">
<polygon fill="#e0e0e0" stroke="#999999" points="359.5,-19 301.5,-19 301.5,0 359.5,0 359.5,-19"/>
<text text-anchor="middle" x="330.5" y="-7" font-family="Helvetica,sans-Serif" font-size="10.00">memory</text>
</a>
</g>
</g>
<!-- Node6&#45;&gt;Node7 -->
<g id="edge6_Node000006_Node000007" class="edge">
<title>Node6&#45;&gt;Node7</title>
<g id="a_edge6_Node000006_Node000007"><a xlink:title=" ">
<path fill="none" stroke="#63b8ff" d="M225.58,-54.98C245.87,-46.38 277.46,-32.99 300.67,-23.15"/>
<polygon fill="#63b8ff" stroke="#63b8ff" points="302.21,-26.3 310.05,-19.17 299.48,-19.85 302.21,-26.3"/>
</a>
</g>
</g>
<!-- Node8 -->
<g id="Node000008" class="node">
<title>Node8</title>
<g id="a_Node000008"><a xlink:title=" ">
<polygon fill="#e0e0e0" stroke="#999999" points="228,-19 183,-19 183,0 228,0 228,-19"/>
<text text-anchor="middle" x="205.5" y="-7" font-family="Helvetica,sans-Serif" font-size="10.00">utility</text>
</a>
</g>
</g>
<!-- Node6&#45;&gt;Node8 -->
<g id="edge7_Node000006_Node000008" class="edge">
<title>Node6&#45;&gt;Node8</title>
<g id="a_edge7_Node000006_Node000008"><a xlink:title=" ">
<path fill="none" stroke="#63b8ff" d="M205.5,-54.75C205.5,-47.8 205.5,-37.85 205.5,-29.13"/>
<polygon fill="#63b8ff" stroke="#63b8ff" points="209,-29.09 205.5,-19.09 202,-29.09 209,-29.09"/>
</a>
</g>
</g>
<!-- Node10 -->
<g id="Node000010" class="node">
<title>Node10</title>
<g id="a_Node000010"><a xlink:title=" ">
<polygon fill="#e0e0e0" stroke="#999999" points="448,-19 385,-19 385,0 448,0 448,-19"/>
<text text-anchor="middle" x="416.5" y="-7" font-family="Helvetica,sans-Serif" font-size="10.00">Arduino.h</text>
</a>
</g>
</g>
<!-- Node9&#45;&gt;Node10 -->
<g id="edge9_Node000009_Node000010" class="edge">
<title>Node9&#45;&gt;Node10</title>
<g id="a_edge9_Node000009_Node000010"><a xlink:title=" ">
<path fill="none" stroke="#63b8ff" d="M377.26,-54.75C383.97,-47.18 393.84,-36.05 402.01,-26.84"/>
<polygon fill="#63b8ff" stroke="#63b8ff" points="404.87,-28.89 408.88,-19.09 399.63,-24.25 404.87,-28.89"/>
</a>
</g>
</g>
<!-- Node14&#45;&gt;Node5 -->
<g id="edge16_Node000014_Node000005" class="edge">
<title>Node14&#45;&gt;Node5</title>
<g id="a_edge16_Node000014_Node000005"><a xlink:title=" ">
<path fill="none" stroke="#63b8ff" d="M388.02,-164.98C369.52,-156.46 340.82,-143.23 319.52,-133.41"/>
<polygon fill="#63b8ff" stroke="#63b8ff" points="320.86,-130.18 310.31,-129.17 317.93,-136.53 320.86,-130.18"/>
</a>
</g>
</g>
<!-- Node14&#45;&gt;Node7 -->
<g id="edge19_Node000014_Node000007" class="edge">
<title>Node14&#45;&gt;Node7</title>
<g id="a_edge19_Node000014_Node000007"><a xlink:title=" ">
<path fill="none" stroke="#63b8ff" d="M409.39,-164.71C415.64,-143.97 428.27,-91 407.5,-55 399.08,-40.41 383.85,-30.17 369.15,-23.23"/>
<polygon fill="#63b8ff" stroke="#63b8ff" points="370.21,-19.87 359.64,-19.13 367.43,-26.3 370.21,-19.87"/>
</a>
</g>
</g>
<!-- Node14&#45;&gt;Node9 -->
<g id="edge17_Node000014_Node000009" class="edge">
<title>Node14&#45;&gt;Node9</title>
<g id="a_edge17_Node000014_Node000009"><a xlink:title=" ">
<path fill="none" stroke="#63b8ff" d="M403.47,-164.66C397.43,-147.01 383.75,-107.09 375.71,-83.64"/>
<polygon fill="#63b8ff" stroke="#63b8ff" points="379.02,-82.48 372.47,-74.16 372.4,-84.75 379.02,-82.48"/>
</a>
</g>
</g>
<!-- Node14&#45;&gt;Node10 -->
<g id="edge15_Node000014_Node000010" class="edge">
<title>Node14&#45;&gt;Node10</title>
<g id="a_edge15_Node000014_Node000010"><a xlink:title=" ">
<path fill="none" stroke="#63b8ff" d="M416.11,-164.69C424.37,-156.41 435.7,-143.18 440.5,-129 451.04,-97.85 448.55,-86.89 440.5,-55 438.09,-45.44 433.17,-35.7 428.41,-27.78"/>
<polygon fill="#63b8ff" stroke="#63b8ff" points="431.22,-25.68 422.87,-19.16 425.33,-29.46 431.22,-25.68"/>
</a>
</g>
</g>
<!-- Node15 -->
<g id="Node000015" class="node">
<title>Node15</title>
<g id="a_Node000015"><a xlink:title=" ">
<polygon fill="#e0e0e0" stroke="#999999" points="554,-129 493,-129 493,-110 554,-110 554,-129"/>
<text text-anchor="middle" x="523.5" y="-117" font-family="Helvetica,sans-Serif" font-size="10.00">cn&#45;cbor.h</text>
</a>
</g>
</g>
<!-- Node14&#45;&gt;Node15 -->
<g id="edge18_Node000014_Node000015" class="edge">
<title>Node14&#45;&gt;Node15</title>
<g id="a_edge18_Node000014_Node000015"><a xlink:title=" ">
<path fill="none" stroke="#63b8ff" d="M425.3,-164.98C444.12,-156.46 473.32,-143.23 495,-133.41"/>
<polygon fill="#63b8ff" stroke="#63b8ff" points="496.7,-136.48 504.36,-129.17 493.81,-130.11 496.7,-136.48"/>
</a>
</g>
</g>
</g>
</svg>
