<?xml version="1.0" encoding="UTF-8" standalone="no"?>
<!DOCTYPE svg PUBLIC "-//W3C//DTD SVG 1.1//EN"
 "http://www.w3.org/Graphics/SVG/1.1/DTD/svg11.dtd">
<!-- Generated by graphviz version 2.43.0 (0)
 -->
<!-- Title: CBORObject.h Pages: 1 -->
<svg width="699pt" height="357pt"
 viewBox="0.00 0.00 698.50 357.00" xmlns="http://www.w3.org/2000/svg" xmlns:xlink="http://www.w3.org/1999/xlink">
<g id="graph0" class="graph" transform="scale(1 1) rotate(0) translate(4 353)">
<title>CBORObject.h</title>
<!-- Node1 -->
<g id="Node000001" class="node">
<title>Node1</title>
<g id="a_Node000001"><a xlink:title=" ">
<polygon fill="#999999" stroke="#666666" points="505.5,-349 420.5,-349 420.5,-330 505.5,-330 505.5,-349"/>
<text text-anchor="middle" x="463" y="-337" font-family="Helvetica,sans-Serif" font-size="10.00">CBORObject.h</text>
</a>
</g>
</g>
<!-- Node2 -->
<g id="Node000002" class="node">
<title>Node2</title>
<g id="a_Node000002"><a xlink:href="_c_b_o_r_storage_8h.html" target="_top" xlink:title=" ">
<polygon fill="white" stroke="#666666" points="400.5,-239 309.5,-239 309.5,-220 400.5,-220 400.5,-239"/>
<text text-anchor="middle" x="355" y="-227" font-family="Helvetica,sans-Serif" font-size="10.00">CBORStorage.h</text>
</a>
</g>
</g>
<!-- Node1&#45;&gt;Node2 -->
<g id="edge1_Node000001_Node000002" class="edge">
<title>Node1&#45;&gt;Node2</title>
<g id="a_edge1_Node000001_Node000002"><a xlink:title=" ">
<path fill="none" stroke="#63b8ff" d="M446.8,-322.3C423.6,-299.1 381.71,-257.21 363.66,-239.16"/>
<polygon fill="#63b8ff" stroke="#63b8ff" points="444.62,-325.07 454.16,-329.66 449.57,-320.12 444.62,-325.07"/>
</a>
</g>
</g>
<!-- Node5 -->
<g id="Node000005" class="node">
<title>Node5</title>
<g id="a_Node000005"><a xlink:href="_m_q_t_t_kit_8h.html" target="_top" xlink:title=" ">
<polygon fill="white" stroke="#666666" points="138,-74 70,-74 70,-55 138,-55 138,-74"/>
<text text-anchor="middle" x="104" y="-62" font-family="Helvetica,sans-Serif" font-size="10.00">MQTTKit.h</text>
</a>
</g>
</g>
<!-- Node1&#45;&gt;Node5 -->
<g id="edge27_Node000001_Node000005" class="edge">
<title>Node1&#45;&gt;Node5</title>
<g id="a_edge27_Node000001_Node000005"><a xlink:title=" ">
<path fill="none" stroke="#63b8ff" d="M410.09,-337.25C288.59,-332.93 0,-313.91 0,-230.5 0,-230.5 0,-230.5 0,-173.5 0,-124.82 55.49,-89.63 85.41,-74.2"/>
<polygon fill="#63b8ff" stroke="#63b8ff" points="410.16,-340.75 420.27,-337.59 410.39,-333.75 410.16,-340.75"/>
</a>
</g>
</g>
<!-- Node14 -->
<g id="Node000014" class="node">
<title>Node14</title>
<g id="a_Node000014"><a xlink:href="_top_device_8h.html" target="_top" xlink:title=" ">
<polygon fill="white" stroke="#666666" points="477,-74 401,-74 401,-55 477,-55 477,-74"/>
<text text-anchor="middle" x="439" y="-62" font-family="Helvetica,sans-Serif" font-size="10.00">TopDevice.h</text>
</a>
</g>
</g>
<!-- Node1&#45;&gt;Node14 -->
<g id="edge36_Node000001_Node000014" class="edge">
<title>Node1&#45;&gt;Node14</title>
<g id="a_edge36_Node000001_Node000014"><a xlink:title=" ">
<path fill="none" stroke="#63b8ff" d="M461.33,-319.51C456.58,-265.44 443.1,-112.11 439.76,-74.11"/>
<polygon fill="#63b8ff" stroke="#63b8ff" points="457.87,-320.07 462.23,-329.73 464.84,-319.46 457.87,-320.07"/>
</a>
</g>
</g>
<!-- Node16 -->
<g id="Node000016" class="node">
<title>Node16</title>
<g id="a_Node000016"><a xlink:href="_c_o_s_e_message_8h.html" target="_top" xlink:title=" ">
<polygon fill="white" stroke="#666666" points="217.5,-294 122.5,-294 122.5,-275 217.5,-275 217.5,-294"/>
<text text-anchor="middle" x="170" y="-282" font-family="Helvetica,sans-Serif" font-size="10.00">COSEMessage.h</text>
</a>
</g>
</g>
<!-- Node1&#45;&gt;Node16 -->
<g id="edge25_Node000001_Node000016" class="edge">
<title>Node1&#45;&gt;Node16</title>
<g id="a_edge25_Node000001_Node000016"><a xlink:title=" ">
<path fill="none" stroke="#63b8ff" d="M410.5,-329C355.49,-319.05 269.88,-303.57 217.02,-294.01"/>
<polygon fill="#63b8ff" stroke="#63b8ff" points="409.93,-332.46 420.4,-330.79 411.18,-325.57 409.93,-332.46"/>
</a>
</g>
</g>
<!-- Node17 -->
<g id="Node000017" class="node">
<title>Node17</title>
<g id="a_Node000017"><a xlink:href="_register_manager_8h.html" target="_top" xlink:title=" ">
<polygon fill="white" stroke="#666666" points="622,-294 514,-294 514,-275 622,-275 622,-294"/>
<text text-anchor="middle" x="568" y="-282" font-family="Helvetica,sans-Serif" font-size="10.00">RegisterManager.h</text>
</a>
</g>
</g>
<!-- Node1&#45;&gt;Node17 -->
<g id="edge28_Node000001_Node000017" class="edge">
<title>Node1&#45;&gt;Node17</title>
<g id="a_edge28_Node000001_Node000017"><a xlink:title=" ">
<path fill="none" stroke="#63b8ff" d="M489.02,-325.37C508.3,-315.63 534.05,-302.64 550.82,-294.17"/>
<polygon fill="#63b8ff" stroke="#63b8ff" points="487.22,-322.35 479.87,-329.98 490.37,-328.6 487.22,-322.35"/>
</a>
</g>
</g>
<!-- Node21 -->
<g id="Node000021" class="node">
<title>Node21</title>
<g id="a_Node000021"><a xlink:href="un_lisp_8h.html" target="_top" xlink:title=" ">
<polygon fill="white" stroke="#666666" points="690.5,-129 633.5,-129 633.5,-110 690.5,-110 690.5,-129"/>
<text text-anchor="middle" x="662" y="-117" font-family="Helvetica,sans-Serif" font-size="10.00">unLisp.h</text>
</a>
</g>
</g>
<!-- Node1&#45;&gt;Node21 -->
<g id="edge37_Node000001_Node000021" class="edge">
<title>Node1&#45;&gt;Node21</title>
<g id="a_edge37_Node000001_Node000021"><a xlink:title=" ">
<path fill="none" stroke="#63b8ff" d="M515.64,-336.8C552.08,-332.96 599.52,-322.31 631,-294 679.91,-250.01 668.53,-157.53 663.63,-129.04"/>
<polygon fill="#63b8ff" stroke="#63b8ff" points="515.31,-333.31 505.67,-337.71 515.95,-340.28 515.31,-333.31"/>
</a>
</g>
</g>
<!-- Node3 -->
<g id="Node000003" class="node">
<title>Node3</title>
<g id="a_Node000003"><a xlink:href="_credentials_8h.html" target="_top" xlink:title=" ">
<polygon fill="white" stroke="#666666" points="210.5,-184 129.5,-184 129.5,-165 210.5,-165 210.5,-184"/>
<text text-anchor="middle" x="170" y="-172" font-family="Helvetica,sans-Serif" font-size="10.00">Credentials.h</text>
</a>
</g>
</g>
<!-- Node2&#45;&gt;Node3 -->
<g id="edge2_Node000002_Node000003" class="edge">
<title>Node2&#45;&gt;Node3</title>
<g id="a_edge2_Node000002_Node000003"><a xlink:title=" ">
<path fill="none" stroke="#63b8ff" d="M315.5,-217.18C280.9,-207.27 231.37,-193.08 199.96,-184.08"/>
<polygon fill="#63b8ff" stroke="#63b8ff" points="314.7,-220.6 325.28,-219.98 316.63,-213.87 314.7,-220.6"/>
</a>
</g>
</g>
<!-- Node9 -->
<g id="Node000009" class="node">
<title>Node9</title>
<g id="a_Node000009"><a xlink:href="_network_controller_8h.html" target="_top" xlink:title=" ">
<polygon fill="white" stroke="#666666" points="345,-74 231,-74 231,-55 345,-55 345,-74"/>
<text text-anchor="middle" x="288" y="-62" font-family="Helvetica,sans-Serif" font-size="10.00">NetworkController.h</text>
</a>
</g>
</g>
<!-- Node2&#45;&gt;Node9 -->
<g id="edge22_Node000002_Node000009" class="edge">
<title>Node2&#45;&gt;Node9</title>
<g id="a_edge22_Node000002_Node000009"><a xlink:title=" ">
<path fill="none" stroke="#63b8ff" d="M351.81,-209.89C347.22,-185.9 337.45,-143.3 321,-110 314.27,-96.37 303.28,-82.62 295.85,-74.08"/>
<polygon fill="#63b8ff" stroke="#63b8ff" points="348.37,-210.57 353.6,-219.78 355.26,-209.32 348.37,-210.57"/>
</a>
</g>
</g>
<!-- Node12 -->
<g id="Node000012" class="node">
<title>Node12</title>
<g id="a_Node000012"><a xlink:href="_date_8h.html" target="_top" xlink:title=" ">
<polygon fill="white" stroke="#666666" points="417.5,-129 368.5,-129 368.5,-110 417.5,-110 417.5,-129"/>
<text text-anchor="middle" x="393" y="-117" font-family="Helvetica,sans-Serif" font-size="10.00">Date.h</text>
</a>
</g>
</g>
<!-- Node2&#45;&gt;Node12 -->
<g id="edge13_Node000002_Node000012" class="edge">
<title>Node2&#45;&gt;Node12</title>
<g id="a_edge13_Node000002_Node000012"><a xlink:title=" ">
<path fill="none" stroke="#63b8ff" d="M361.47,-210.12C369.76,-186.56 383.8,-146.66 389.95,-129.16"/>
<polygon fill="#63b8ff" stroke="#63b8ff" points="358.13,-209.07 358.11,-219.66 364.73,-211.39 358.13,-209.07"/>
</a>
</g>
</g>
<!-- Node13 -->
<g id="Node000013" class="node">
<title>Node13</title>
<g id="a_Node000013"><a xlink:href="_lisp_device_8h.html" target="_top" xlink:title=" ">
<polygon fill="white" stroke="#666666" points="574.5,-74 495.5,-74 495.5,-55 574.5,-55 574.5,-74"/>
<text text-anchor="middle" x="535" y="-62" font-family="Helvetica,sans-Serif" font-size="10.00">LispDevice.h</text>
</a>
</g>
</g>
<!-- Node2&#45;&gt;Node13 -->
<g id="edge21_Node000002_Node000013" class="edge">
<title>Node2&#45;&gt;Node13</title>
<g id="a_edge21_Node000002_Node000013"><a xlink:title=" ">
<path fill="none" stroke="#63b8ff" d="M372.21,-212.91C409.39,-179.25 496.15,-100.68 525.27,-74.31"/>
<polygon fill="#63b8ff" stroke="#63b8ff" points="369.74,-210.43 364.68,-219.74 374.44,-215.62 369.74,-210.43"/>
</a>
</g>
</g>
<!-- Node15 -->
<g id="Node000015" class="node">
<title>Node15</title>
<g id="a_Node000015"><a xlink:href="_wifi_storage_8h.html" target="_top" xlink:title=" ">
<polygon fill="white" stroke="#666666" points="312,-184 230,-184 230,-165 312,-165 312,-184"/>
<text text-anchor="middle" x="271" y="-172" font-family="Helvetica,sans-Serif" font-size="10.00">WifiStorage.h</text>
</a>
</g>
</g>
<!-- Node2&#45;&gt;Node15 -->
<g id="edge23_Node000002_Node000015" class="edge">
<title>Node2&#45;&gt;Node15</title>
<g id="a_edge23_Node000002_Node000015"><a xlink:title=" ">
<path fill="none" stroke="#63b8ff" d="M332.69,-214.42C317.45,-204.81 297.73,-192.37 284.74,-184.17"/>
<polygon fill="#63b8ff" stroke="#63b8ff" points="331.18,-217.61 341.5,-219.98 334.91,-211.69 331.18,-217.61"/>
</a>
</g>
</g>
<!-- Node4 -->
<g id="Node000004" class="node">
<title>Node4</title>
<g id="a_Node000004"><a xlink:href="_m_q_t_t_path_8h.html" target="_top" xlink:title=" ">
<polygon fill="white" stroke="#666666" points="141.5,-129 66.5,-129 66.5,-110 141.5,-110 141.5,-129"/>
<text text-anchor="middle" x="104" y="-117" font-family="Helvetica,sans-Serif" font-size="10.00">MQTTPath.h</text>
</a>
</g>
</g>
<!-- Node3&#45;&gt;Node4 -->
<g id="edge3_Node000003_Node000004" class="edge">
<title>Node3&#45;&gt;Node4</title>
<g id="a_edge3_Node000003_Node000004"><a xlink:title=" ">
<path fill="none" stroke="#63b8ff" d="M151.45,-158.6C139.62,-149.11 124.71,-137.13 114.8,-129.17"/>
<polygon fill="#63b8ff" stroke="#63b8ff" points="149.41,-161.45 159.4,-164.98 153.79,-155.99 149.41,-161.45"/>
</a>
</g>
</g>
<!-- Node8 -->
<g id="Node000008" class="node">
<title>Node8</title>
<g id="a_Node000008"><a xlink:href="_network_scheduler_8h.html" target="_top" xlink:title=" ">
<polygon fill="white" stroke="#666666" points="312,-129 198,-129 198,-110 312,-110 312,-129"/>
<text text-anchor="middle" x="255" y="-117" font-family="Helvetica,sans-Serif" font-size="10.00">NetworkScheduler.h</text>
</a>
</g>
</g>
<!-- Node3&#45;&gt;Node8 -->
<g id="edge7_Node000003_Node000008" class="edge">
<title>Node3&#45;&gt;Node8</title>
<g id="a_edge7_Node000003_Node000008"><a xlink:title=" ">
<path fill="none" stroke="#63b8ff" d="M192.57,-159.42C208,-149.81 227.95,-137.37 241.09,-129.17"/>
<polygon fill="#63b8ff" stroke="#63b8ff" points="190.29,-156.72 183.66,-164.98 193.99,-162.66 190.29,-156.72"/>
</a>
</g>
</g>
<!-- Node10 -->
<g id="Node000010" class="node">
<title>Node10</title>
<g id="a_Node000010"><a xlink:href="_uniot_8h.html" target="_top" xlink:title=" ">
<polygon fill="white" stroke="#666666" points="213,-74 161,-74 161,-55 213,-55 213,-74"/>
<text text-anchor="middle" x="187" y="-62" font-family="Helvetica,sans-Serif" font-size="10.00">Uniot.h</text>
</a>
</g>
</g>
<!-- Node3&#45;&gt;Node10 -->
<g id="edge11_Node000003_Node000010" class="edge">
<title>Node3&#45;&gt;Node10</title>
<g id="a_edge11_Node000003_Node000010"><a xlink:title=" ">
<path fill="none" stroke="#63b8ff" d="M172.99,-154.48C176.71,-130.84 182.91,-91.5 185.64,-74.16"/>
<polygon fill="#63b8ff" stroke="#63b8ff" points="169.49,-154.24 171.39,-164.66 176.4,-155.33 169.49,-154.24"/>
</a>
</g>
</g>
<!-- Node4&#45;&gt;Node5 -->
<g id="edge4_Node000004_Node000005" class="edge">
<title>Node4&#45;&gt;Node5</title>
<g id="a_edge4_Node000004_Node000005"><a xlink:title=" ">
<path fill="none" stroke="#63b8ff" d="M104,-99.66C104,-90.93 104,-80.99 104,-74.09"/>
<polygon fill="#63b8ff" stroke="#63b8ff" points="100.5,-99.75 104,-109.75 107.5,-99.75 100.5,-99.75"/>
</a>
</g>
</g>
<!-- Node6 -->
<g id="Node000006" class="node">
<title>Node6</title>
<g id="a_Node000006"><a xlink:href="_app_kit_8h.html" target="_top" xlink:title=" ">
<polygon fill="white" stroke="#666666" points="468,-19 410,-19 410,0 468,0 468,-19"/>
<text text-anchor="middle" x="439" y="-7" font-family="Helvetica,sans-Serif" font-size="10.00">AppKit.h</text>
</a>
</g>
</g>
<!-- Node5&#45;&gt;Node6 -->
<g id="edge5_Node000005_Node000006" class="edge">
<title>Node5&#45;&gt;Node6</title>
<g id="a_edge5_Node000005_Node000006"><a xlink:title=" ">
<path fill="none" stroke="#63b8ff" d="M148.15,-55.65C149.45,-55.43 150.73,-55.21 152,-55 246.01,-39.39 357.64,-22.57 409.63,-14.84"/>
<polygon fill="#63b8ff" stroke="#63b8ff" points="147.34,-52.23 138.07,-57.37 148.52,-59.13 147.34,-52.23"/>
</a>
</g>
</g>
<!-- Node7 -->
<g id="Node000007" class="node">
<title>Node7</title>
<g id="a_Node000007"><a xlink:href="_m_q_t_t_device_8cpp.html" target="_top" xlink:title=" ">
<polygon fill="white" stroke="#666666" points="143.5,-19 44.5,-19 44.5,0 143.5,0 143.5,-19"/>
<text text-anchor="middle" x="94" y="-7" font-family="Helvetica,sans-Serif" font-size="10.00">MQTTDevice.cpp</text>
</a>
</g>
</g>
<!-- Node5&#45;&gt;Node7 -->
<g id="edge6_Node000005_Node000007" class="edge">
<title>Node5&#45;&gt;Node7</title>
<g id="a_edge6_Node000005_Node000007"><a xlink:title=" ">
<path fill="none" stroke="#63b8ff" d="M100.45,-44.66C98.8,-35.93 96.92,-25.99 95.62,-19.09"/>
<polygon fill="#63b8ff" stroke="#63b8ff" points="97.06,-45.57 102.35,-54.75 103.93,-44.27 97.06,-45.57"/>
</a>
</g>
</g>
<!-- Node8&#45;&gt;Node5 -->
<g id="edge8_Node000008_Node000005" class="edge">
<title>Node8&#45;&gt;Node5</title>
<g id="a_edge8_Node000008_Node000005"><a xlink:title=" ">
<path fill="none" stroke="#63b8ff" d="M220.95,-106.55C192.91,-96.71 153.82,-82.98 128.7,-74.17"/>
<polygon fill="#63b8ff" stroke="#63b8ff" points="220.14,-109.98 230.74,-109.98 222.46,-103.37 220.14,-109.98"/>
</a>
</g>
</g>
<!-- Node8&#45;&gt;Node9 -->
<g id="edge9_Node000008_Node000009" class="edge">
<title>Node8&#45;&gt;Node9</title>
<g id="a_edge9_Node000008_Node000009"><a xlink:title=" ">
<path fill="none" stroke="#63b8ff" d="M265.83,-101.1C271.47,-92.04 278.12,-81.37 282.65,-74.09"/>
<polygon fill="#63b8ff" stroke="#63b8ff" points="262.76,-99.41 260.45,-109.75 268.71,-103.11 262.76,-99.41"/>
</a>
</g>
</g>
<!-- Node9&#45;&gt;Node6 -->
<g id="edge10_Node000009_Node000006" class="edge">
<title>Node9&#45;&gt;Node6</title>
<g id="a_edge10_Node000009_Node000006"><a xlink:title=" ">
<path fill="none" stroke="#63b8ff" d="M322.05,-51.55C350.09,-41.71 389.18,-27.98 414.3,-19.17"/>
<polygon fill="#63b8ff" stroke="#63b8ff" points="320.54,-48.37 312.26,-54.98 322.86,-54.98 320.54,-48.37"/>
</a>
</g>
</g>
<!-- Node11 -->
<g id="Node000011" class="node">
<title>Node11</title>
<g id="a_Node000011"><a xlink:href="_uniot_8cpp.html" target="_top" xlink:title=" ">
<polygon fill="white" stroke="#666666" points="224.5,-19 161.5,-19 161.5,0 224.5,0 224.5,-19"/>
<text text-anchor="middle" x="193" y="-7" font-family="Helvetica,sans-Serif" font-size="10.00">Uniot.cpp</text>
</a>
</g>
</g>
<!-- Node10&#45;&gt;Node11 -->
<g id="edge12_Node000010_Node000011" class="edge">
<title>Node10&#45;&gt;Node11</title>
<g id="a_edge12_Node000010_Node000011"><a xlink:title=" ">
<path fill="none" stroke="#63b8ff" d="M189.13,-44.66C190.12,-35.93 191.25,-25.99 192.03,-19.09"/>
<polygon fill="#63b8ff" stroke="#63b8ff" points="185.64,-44.42 187.99,-54.75 192.59,-45.21 185.64,-44.42"/>
</a>
</g>
</g>
<!-- Node12&#45;&gt;Node5 -->
<g id="edge17_Node000012_Node000005" class="edge">
<title>Node12&#45;&gt;Node5</title>
<g id="a_edge17_Node000012_Node000005"><a xlink:title=" ">
<path fill="none" stroke="#63b8ff" d="M358.27,-112.13C302.51,-101.91 193.69,-81.95 138.24,-71.78"/>
<polygon fill="#63b8ff" stroke="#63b8ff" points="357.89,-115.62 368.36,-113.98 359.16,-108.73 357.89,-115.62"/>
</a>
</g>
</g>
<!-- Node12&#45;&gt;Node6 -->
<g id="edge14_Node000012_Node000006" class="edge">
<title>Node12&#45;&gt;Node6</title>
<g id="a_edge14_Node000012_Node000006"><a xlink:title=" ">
<path fill="none" stroke="#63b8ff" d="M388.78,-99.72C386.76,-86.64 385.93,-69.1 392,-55 398.66,-39.52 413.65,-26.9 424.93,-19.11"/>
<polygon fill="#63b8ff" stroke="#63b8ff" points="385.4,-100.69 390.71,-109.85 392.28,-99.37 385.4,-100.69"/>
</a>
</g>
</g>
<!-- Node12&#45;&gt;Node10 -->
<g id="edge20_Node000012_Node000010" class="edge">
<title>Node12&#45;&gt;Node10</title>
<g id="a_edge20_Node000012_Node000010"><a xlink:title=" ">
<path fill="none" stroke="#63b8ff" d="M358.34,-109.58C317.37,-99.04 250.12,-81.74 213.24,-72.25"/>
<polygon fill="#63b8ff" stroke="#63b8ff" points="357.59,-113 368.15,-112.11 359.34,-106.23 357.59,-113"/>
</a>
</g>
</g>
<!-- Node12&#45;&gt;Node13 -->
<g id="edge15_Node000012_Node000013" class="edge">
<title>Node12&#45;&gt;Node13</title>
<g id="a_edge15_Node000012_Node000013"><a xlink:title=" ">
<path fill="none" stroke="#63b8ff" d="M425.36,-106.42C451.71,-96.59 488.26,-82.95 511.77,-74.17"/>
<polygon fill="#63b8ff" stroke="#63b8ff" points="423.96,-103.21 415.81,-109.98 426.41,-109.77 423.96,-103.21"/>
</a>
</g>
</g>
<!-- Node12&#45;&gt;Node14 -->
<g id="edge18_Node000012_Node000014" class="edge">
<title>Node12&#45;&gt;Node14</title>
<g id="a_edge18_Node000012_Node000014"><a xlink:title=" ">
<path fill="none" stroke="#63b8ff" d="M407.36,-101.96C415.37,-92.72 425.03,-81.6 431.55,-74.09"/>
<polygon fill="#63b8ff" stroke="#63b8ff" points="404.51,-99.9 400.6,-109.75 409.79,-104.49 404.51,-99.9"/>
</a>
</g>
</g>
<!-- Node13&#45;&gt;Node6 -->
<g id="edge16_Node000013_Node000006" class="edge">
<title>Node13&#45;&gt;Node6</title>
<g id="a_edge16_Node000013_Node000006"><a xlink:title=" ">
<path fill="none" stroke="#63b8ff" d="M510.48,-49.97C492.94,-40.28 469.83,-27.52 454.7,-19.17"/>
<polygon fill="#63b8ff" stroke="#63b8ff" points="509.13,-53.22 519.58,-54.98 512.51,-47.09 509.13,-53.22"/>
</a>
</g>
</g>
<!-- Node14&#45;&gt;Node6 -->
<g id="edge19_Node000014_Node000006" class="edge">
<title>Node14&#45;&gt;Node6</title>
<g id="a_edge19_Node000014_Node000006"><a xlink:title=" ">
<path fill="none" stroke="#63b8ff" d="M439,-44.66C439,-35.93 439,-25.99 439,-19.09"/>
<polygon fill="#63b8ff" stroke="#63b8ff" points="435.5,-44.75 439,-54.75 442.5,-44.75 435.5,-44.75"/>
</a>
</g>
</g>
<!-- Node15&#45;&gt;Node8 -->
<g id="edge24_Node000015_Node000008" class="edge">
<title>Node15&#45;&gt;Node8</title>
<g id="a_edge24_Node000015_Node000008"><a xlink:title=" ">
<path fill="none" stroke="#63b8ff" d="M265.4,-154.95C262.74,-146.15 259.7,-136.06 257.59,-129.09"/>
<polygon fill="#63b8ff" stroke="#63b8ff" points="262.12,-156.19 268.36,-164.75 268.82,-154.16 262.12,-156.19"/>
</a>
</g>
</g>
<!-- Node16&#45;&gt;Node5 -->
<g id="edge26_Node000016_Node000005" class="edge">
<title>Node16&#45;&gt;Node5</title>
<g id="a_edge26_Node000016_Node000005"><a xlink:title=" ">
<path fill="none" stroke="#63b8ff" d="M153.24,-267.84C126.91,-241.95 76.9,-187.26 58,-129 55.39,-120.97 54.7,-117.77 58,-110 64.51,-94.65 79.18,-82.01 90.22,-74.18"/>
<polygon fill="#63b8ff" stroke="#63b8ff" points="150.97,-270.51 160.59,-274.92 155.82,-265.46 150.97,-270.51"/>
</a>
</g>
</g>
<!-- Node18 -->
<g id="Node000018" class="node">
<title>Node18</title>
<g id="a_Node000018"><a xlink:href="_register_manager_proxy_8h.html" target="_top" xlink:title=" ">
<polygon fill="white" stroke="#666666" points="642.5,-239 507.5,-239 507.5,-220 642.5,-220 642.5,-239"/>
<text text-anchor="middle" x="575" y="-227" font-family="Helvetica,sans-Serif" font-size="10.00">RegisterManagerProxy.h</text>
</a>
</g>
</g>
<!-- Node17&#45;&gt;Node18 -->
<g id="edge29_Node000017_Node000018" class="edge">
<title>Node17&#45;&gt;Node18</title>
<g id="a_edge29_Node000017_Node000018"><a xlink:title=" ">
<path fill="none" stroke="#63b8ff" d="M570.49,-264.66C571.64,-255.93 572.95,-245.99 573.87,-239.09"/>
<polygon fill="#63b8ff" stroke="#63b8ff" points="567,-264.38 569.16,-274.75 573.94,-265.29 567,-264.38"/>
</a>
</g>
</g>
<!-- Node19 -->
<g id="Node000019" class="node">
<title>Node19</title>
<g id="a_Node000019"><a xlink:href="_primitive_expeditor_8h.html" target="_top" xlink:title=" ">
<polygon fill="white" stroke="#666666" points="633,-184 517,-184 517,-165 633,-165 633,-184"/>
<text text-anchor="middle" x="575" y="-172" font-family="Helvetica,sans-Serif" font-size="10.00">PrimitiveExpeditor.h</text>
</a>
</g>
</g>
<!-- Node18&#45;&gt;Node19 -->
<g id="edge30_Node000018_Node000019" class="edge">
<title>Node18&#45;&gt;Node19</title>
<g id="a_edge30_Node000018_Node000019"><a xlink:title=" ">
<path fill="none" stroke="#63b8ff" d="M575,-209.66C575,-200.93 575,-190.99 575,-184.09"/>
<polygon fill="#63b8ff" stroke="#63b8ff" points="571.5,-209.75 575,-219.75 578.5,-209.75 571.5,-209.75"/>
</a>
</g>
</g>
<!-- Node20 -->
<g id="Node000020" class="node">
<title>Node20</title>
<g id="a_Node000020"><a xlink:href="_lisp_primitives_8h.html" target="_top" xlink:title=" ">
<polygon fill="white" stroke="#666666" points="615.5,-129 520.5,-129 520.5,-110 615.5,-110 615.5,-129"/>
<text text-anchor="middle" x="568" y="-117" font-family="Helvetica,sans-Serif" font-size="10.00">LispPrimitives.h</text>
</a>
</g>
</g>
<!-- Node19&#45;&gt;Node20 -->
<g id="edge31_Node000019_Node000020" class="edge">
<title>Node19&#45;&gt;Node20</title>
<g id="a_edge31_Node000019_Node000020"><a xlink:title=" ">
<path fill="none" stroke="#63b8ff" d="M572.51,-154.66C571.36,-145.93 570.05,-135.99 569.13,-129.09"/>
<polygon fill="#63b8ff" stroke="#63b8ff" points="569.06,-155.29 573.84,-164.75 576,-154.38 569.06,-155.29"/>
</a>
</g>
</g>
<!-- Node19&#45;&gt;Node21 -->
<g id="edge33_Node000019_Node000021" class="edge">
<title>Node19&#45;&gt;Node21</title>
<g id="a_edge33_Node000019_Node000021"><a xlink:title=" ">
<path fill="none" stroke="#63b8ff" d="M597.66,-159.7C613.51,-150.04 634.19,-137.44 647.77,-129.17"/>
<polygon fill="#63b8ff" stroke="#63b8ff" points="595.7,-156.79 588.98,-164.98 599.34,-162.77 595.7,-156.79"/>
</a>
</g>
</g>
<!-- Node20&#45;&gt;Node6 -->
<g id="edge32_Node000020_Node000006" class="edge">
<title>Node20&#45;&gt;Node6</title>
<g id="a_edge32_Node000020_Node000006"><a xlink:title=" ">
<path fill="none" stroke="#63b8ff" d="M579.72,-100.92C587.23,-87.24 593.9,-68.39 584,-55 557.39,-19 502.18,-11.19 468.09,-10"/>
<polygon fill="#63b8ff" stroke="#63b8ff" points="576.52,-99.46 574.32,-109.82 582.5,-103.09 576.52,-99.46"/>
</a>
</g>
</g>
<!-- Node21&#45;&gt;Node6 -->
<g id="edge34_Node000021_Node000006" class="edge">
<title>Node21&#45;&gt;Node6</title>
<g id="a_edge34_Node000021_Node000006"><a xlink:title=" ">
<path fill="none" stroke="#63b8ff" d="M649.68,-101.58C638.33,-87.16 620.21,-66.94 600,-55 558.05,-30.22 501.82,-18.8 468.12,-13.88"/>
<polygon fill="#63b8ff" stroke="#63b8ff" points="647,-103.83 655.84,-109.68 652.58,-99.6 647,-103.83"/>
</a>
</g>
</g>
<!-- Node21&#45;&gt;Node13 -->
<g id="edge35_Node000021_Node000013" class="edge">
<title>Node21&#45;&gt;Node13</title>
<g id="a_edge35_Node000021_Node000013"><a xlink:title=" ">
<path fill="none" stroke="#63b8ff" d="M632.12,-106.03C608.63,-96.23 576.53,-82.83 555.78,-74.17"/>
<polygon fill="#63b8ff" stroke="#63b8ff" points="631.02,-109.36 641.6,-109.98 633.71,-102.9 631.02,-109.36"/>
</a>
</g>
</g>
</g>
</svg>
