<?xml version="1.0" encoding="UTF-8" standalone="no"?>
<!DOCTYPE svg PUBLIC "-//W3C//DTD SVG 1.1//EN"
 "http://www.w3.org/Graphics/SVG/1.1/DTD/svg11.dtd">
<!-- Generated by graphviz version 2.43.0 (0)
 -->
<!-- Title: COSEMessage.h Pages: 1 -->
<svg width="504pt" height="247pt"
 viewBox="0.00 0.00 504.00 247.00" xmlns="http://www.w3.org/2000/svg" xmlns:xlink="http://www.w3.org/1999/xlink">
<g id="graph0" class="graph" transform="scale(1 1) rotate(0) translate(4 243)">
<title>COSEMessage.h</title>
<!-- Node1 -->
<g id="Node000001" class="node">
<title>Node1</title>
<g id="a_Node000001"><a xlink:title=" ">
<polygon fill="#999999" stroke="#666666" points="256,-239 161,-239 161,-220 256,-220 256,-239"/>
<text text-anchor="middle" x="208.5" y="-227" font-family="Helvetica,sans-Serif" font-size="10.00">COSEMessage.h</text>
</a>
</g>
</g>
<!-- Node2 -->
<g id="Node000002" class="node">
<title>Node2</title>
<g id="a_Node000002"><a xlink:title=" ">
<polygon fill="#e0e0e0" stroke="#999999" points="63,-19 0,-19 0,0 63,0 63,-19"/>
<text text-anchor="middle" x="31.5" y="-7" font-family="Helvetica,sans-Serif" font-size="10.00">Arduino.h</text>
</a>
</g>
</g>
<!-- Node1&#45;&gt;Node2 -->
<g id="edge1_Node000001_Node000002" class="edge">
<title>Node1&#45;&gt;Node2</title>
<g id="a_edge1_Node000001_Node000002"><a xlink:title=" ">
<path fill="none" stroke="#63b8ff" d="M160.94,-223.71C132.12,-218.43 96.59,-207.33 73.5,-184 31.59,-141.65 28.94,-65.05 30.22,-29.53"/>
<polygon fill="#63b8ff" stroke="#63b8ff" points="33.73,-29.34 30.75,-19.17 26.74,-28.98 33.73,-29.34"/>
</a>
</g>
</g>
<!-- Node3 -->
<g id="Node000003" class="node">
<title>Node3</title>
<g id="a_Node000003"><a xlink:href="_bytes_8h.html" target="_top" xlink:title=" ">
<polygon fill="white" stroke="#666666" points="306,-129 253,-129 253,-110 306,-110 306,-129"/>
<text text-anchor="middle" x="279.5" y="-117" font-family="Helvetica,sans-Serif" font-size="10.00">Bytes.h</text>
</a>
</g>
</g>
<!-- Node1&#45;&gt;Node3 -->
<g id="edge2_Node000001_Node000003" class="edge">
<title>Node1&#45;&gt;Node3</title>
<g id="a_edge2_Node000001_Node000003"><a xlink:title=" ">
<path fill="none" stroke="#63b8ff" d="M209.54,-219.62C211.4,-206.7 216.2,-182.36 227.5,-165 235.2,-153.17 246.94,-142.74 257.32,-134.96"/>
<polygon fill="#63b8ff" stroke="#63b8ff" points="259.48,-137.72 265.6,-129.07 255.43,-132.01 259.48,-137.72"/>
</a>
</g>
</g>
<!-- Node7 -->
<g id="Node000007" class="node">
<title>Node7</title>
<g id="a_Node000007"><a xlink:href="_logger_8h.html" target="_top" xlink:title=" ">
<polygon fill="white" stroke="#666666" points="117.5,-74 59.5,-74 59.5,-55 117.5,-55 117.5,-74"/>
<text text-anchor="middle" x="88.5" y="-62" font-family="Helvetica,sans-Serif" font-size="10.00">Logger.h</text>
</a>
</g>
</g>
<!-- Node1&#45;&gt;Node7 -->
<g id="edge12_Node000001_Node000007" class="edge">
<title>Node1&#45;&gt;Node7</title>
<g id="a_edge12_Node000001_Node000007"><a xlink:title=" ">
<path fill="none" stroke="#63b8ff" d="M160.76,-224.33C133.91,-219.26 102.46,-208.17 85.5,-184 64.6,-154.21 74,-109.03 81.82,-83.94"/>
<polygon fill="#63b8ff" stroke="#63b8ff" points="85.21,-84.83 85.08,-74.24 78.58,-82.6 85.21,-84.83"/>
</a>
</g>
</g>
<!-- Node11 -->
<g id="Node000011" class="node">
<title>Node11</title>
<g id="a_Node000011"><a xlink:title=" ">
<polygon fill="#e0e0e0" stroke="#999999" points="446.5,-184 378.5,-184 378.5,-165 446.5,-165 446.5,-184"/>
<text text-anchor="middle" x="412.5" y="-172" font-family="Helvetica,sans-Serif" font-size="10.00">Ed25519.h</text>
</a>
</g>
</g>
<!-- Node1&#45;&gt;Node11 -->
<g id="edge11_Node000001_Node000011" class="edge">
<title>Node1&#45;&gt;Node11</title>
<g id="a_edge11_Node000001_Node000011"><a xlink:title=" ">
<path fill="none" stroke="#63b8ff" d="M241.28,-219.98C276.12,-210.93 331.37,-196.58 369.64,-186.64"/>
<polygon fill="#63b8ff" stroke="#63b8ff" points="370.67,-189.98 379.47,-184.08 368.91,-183.21 370.67,-189.98"/>
</a>
</g>
</g>
<!-- Node12 -->
<g id="Node000012" class="node">
<title>Node12</title>
<g id="a_Node000012"><a xlink:href="_c_b_o_r_object_8h.html" target="_top" xlink:title=" ">
<polygon fill="white" stroke="#666666" points="180,-184 95,-184 95,-165 180,-165 180,-184"/>
<text text-anchor="middle" x="137.5" y="-172" font-family="Helvetica,sans-Serif" font-size="10.00">CBORObject.h</text>
</a>
</g>
</g>
<!-- Node1&#45;&gt;Node12 -->
<g id="edge13_Node000001_Node000012" class="edge">
<title>Node1&#45;&gt;Node12</title>
<g id="a_edge13_Node000001_Node000012"><a xlink:title=" ">
<path fill="none" stroke="#63b8ff" d="M197.09,-219.98C186.39,-212 170.16,-199.88 157.34,-190.31"/>
<polygon fill="#63b8ff" stroke="#63b8ff" points="159.22,-187.35 149.11,-184.17 155.03,-192.96 159.22,-187.35"/>
</a>
</g>
</g>
<!-- Node14 -->
<g id="Node000014" class="node">
<title>Node14</title>
<g id="a_Node000014"><a xlink:href="_c_o_s_e_8h.html" target="_top" xlink:title=" ">
<polygon fill="white" stroke="#666666" points="376.5,-129 324.5,-129 324.5,-110 376.5,-110 376.5,-129"/>
<text text-anchor="middle" x="350.5" y="-117" font-family="Helvetica,sans-Serif" font-size="10.00">COSE.h</text>
</a>
</g>
</g>
<!-- Node1&#45;&gt;Node14 -->
<g id="edge19_Node000001_Node000014" class="edge">
<title>Node1&#45;&gt;Node14</title>
<g id="a_edge19_Node000001_Node000014"><a xlink:title=" ">
<path fill="none" stroke="#63b8ff" d="M256.24,-221.82C281.74,-215.9 311.85,-204.79 331.5,-184 342.98,-171.86 347.55,-153.06 349.35,-139.07"/>
<polygon fill="#63b8ff" stroke="#63b8ff" points="352.84,-139.37 350.29,-129.09 345.87,-138.72 352.84,-139.37"/>
</a>
</g>
</g>
<!-- Node15 -->
<g id="Node000015" class="node">
<title>Node15</title>
<g id="a_Node000015"><a xlink:href="_i_c_o_s_e_signer_8h.html" target="_top" xlink:title=" ">
<polygon fill="white" stroke="#666666" points="322,-184 237,-184 237,-165 322,-165 322,-184"/>
<text text-anchor="middle" x="279.5" y="-172" font-family="Helvetica,sans-Serif" font-size="10.00">ICOSESigner.h</text>
</a>
</g>
</g>
<!-- Node1&#45;&gt;Node15 -->
<g id="edge20_Node000001_Node000015" class="edge">
<title>Node1&#45;&gt;Node15</title>
<g id="a_edge20_Node000001_Node000015"><a xlink:title=" ">
<path fill="none" stroke="#63b8ff" d="M219.91,-219.98C230.61,-212 246.84,-199.88 259.66,-190.31"/>
<polygon fill="#63b8ff" stroke="#63b8ff" points="261.97,-192.96 267.89,-184.17 257.78,-187.35 261.97,-192.96"/>
</a>
</g>
</g>
<!-- Node4 -->
<g id="Node000004" class="node">
<title>Node4</title>
<g id="a_Node000004"><a xlink:href="_common_8h.html" target="_top" xlink:title=" ">
<polygon fill="white" stroke="#666666" points="243.5,-74 173.5,-74 173.5,-55 243.5,-55 243.5,-74"/>
<text text-anchor="middle" x="208.5" y="-62" font-family="Helvetica,sans-Serif" font-size="10.00">Common.h</text>
</a>
</g>
</g>
<!-- Node3&#45;&gt;Node4 -->
<g id="edge3_Node000003_Node000004" class="edge">
<title>Node3&#45;&gt;Node4</title>
<g id="a_edge3_Node000003_Node000004"><a xlink:title=" ">
<path fill="none" stroke="#63b8ff" d="M268.09,-109.98C257.39,-102 241.16,-89.88 228.34,-80.31"/>
<polygon fill="#63b8ff" stroke="#63b8ff" points="230.22,-77.35 220.11,-74.17 226.03,-82.96 230.22,-77.35"/>
</a>
</g>
</g>
<!-- Node3&#45;&gt;Node7 -->
<g id="edge6_Node000003_Node000007" class="edge">
<title>Node3&#45;&gt;Node7</title>
<g id="a_edge6_Node000003_Node000007"><a xlink:title=" ">
<path fill="none" stroke="#63b8ff" d="M252.94,-111.13C220.43,-102.11 165.09,-86.75 127.69,-76.37"/>
<polygon fill="#63b8ff" stroke="#63b8ff" points="128.22,-72.89 117.65,-73.59 126.35,-79.63 128.22,-72.89"/>
</a>
</g>
</g>
<!-- Node8 -->
<g id="Node000008" class="node">
<title>Node8</title>
<g id="a_Node000008"><a xlink:title=" ">
<polygon fill="#e0e0e0" stroke="#999999" points="325.5,-74 261.5,-74 261.5,-55 325.5,-55 325.5,-74"/>
<text text-anchor="middle" x="293.5" y="-62" font-family="Helvetica,sans-Serif" font-size="10.00">WString.h</text>
</a>
</g>
</g>
<!-- Node3&#45;&gt;Node8 -->
<g id="edge8_Node000003_Node000008" class="edge">
<title>Node3&#45;&gt;Node8</title>
<g id="a_edge8_Node000003_Node000008"><a xlink:title=" ">
<path fill="none" stroke="#63b8ff" d="M281.81,-109.75C283.67,-102.72 286.34,-92.62 288.65,-83.84"/>
<polygon fill="#63b8ff" stroke="#63b8ff" points="292.06,-84.65 291.23,-74.09 285.29,-82.86 292.06,-84.65"/>
</a>
</g>
</g>
<!-- Node9 -->
<g id="Node000009" class="node">
<title>Node9</title>
<g id="a_Node000009"><a xlink:title=" ">
<polygon fill="#e0e0e0" stroke="#999999" points="409,-74 344,-74 344,-55 409,-55 409,-74"/>
<text text-anchor="middle" x="376.5" y="-62" font-family="Helvetica,sans-Serif" font-size="10.00">functional</text>
</a>
</g>
</g>
<!-- Node3&#45;&gt;Node9 -->
<g id="edge9_Node000003_Node000009" class="edge">
<title>Node3&#45;&gt;Node9</title>
<g id="a_edge9_Node000003_Node000009"><a xlink:title=" ">
<path fill="none" stroke="#63b8ff" d="M295.08,-109.98C310.27,-101.69 333.6,-88.94 351.4,-79.22"/>
<polygon fill="#63b8ff" stroke="#63b8ff" points="353.53,-82.04 360.63,-74.17 350.18,-75.89 353.53,-82.04"/>
</a>
</g>
</g>
<!-- Node10 -->
<g id="Node000010" class="node">
<title>Node10</title>
<g id="a_Node000010"><a xlink:title=" ">
<polygon fill="#e0e0e0" stroke="#999999" points="496,-74 427,-74 427,-55 496,-55 496,-74"/>
<text text-anchor="middle" x="461.5" y="-62" font-family="Helvetica,sans-Serif" font-size="10.00">type_traits</text>
</a>
</g>
</g>
<!-- Node3&#45;&gt;Node10 -->
<g id="edge10_Node000003_Node000010" class="edge">
<title>Node3&#45;&gt;Node10</title>
<g id="a_edge10_Node000003_Node000010"><a xlink:title=" ">
<path fill="none" stroke="#63b8ff" d="M306.35,-110.68C336.95,-101.77 387.24,-87.13 422.24,-76.93"/>
<polygon fill="#63b8ff" stroke="#63b8ff" points="423.5,-80.21 432.12,-74.06 421.54,-73.49 423.5,-80.21"/>
</a>
</g>
</g>
<!-- Node5 -->
<g id="Node000005" class="node">
<title>Node5</title>
<g id="a_Node000005"><a xlink:title=" ">
<polygon fill="#e0e0e0" stroke="#999999" points="174.5,-19 116.5,-19 116.5,0 174.5,0 174.5,-19"/>
<text text-anchor="middle" x="145.5" y="-7" font-family="Helvetica,sans-Serif" font-size="10.00">memory</text>
</a>
</g>
</g>
<!-- Node4&#45;&gt;Node5 -->
<g id="edge4_Node000004_Node000005" class="edge">
<title>Node4&#45;&gt;Node5</title>
<g id="a_edge4_Node000004_Node000005"><a xlink:title=" ">
<path fill="none" stroke="#63b8ff" d="M198.38,-54.98C189.06,-47.15 175.03,-35.34 163.76,-25.86"/>
<polygon fill="#63b8ff" stroke="#63b8ff" points="165.71,-22.93 155.81,-19.17 161.21,-28.29 165.71,-22.93"/>
</a>
</g>
</g>
<!-- Node6 -->
<g id="Node000006" class="node">
<title>Node6</title>
<g id="a_Node000006"><a xlink:title=" ">
<polygon fill="#e0e0e0" stroke="#999999" points="238,-19 193,-19 193,0 238,0 238,-19"/>
<text text-anchor="middle" x="215.5" y="-7" font-family="Helvetica,sans-Serif" font-size="10.00">utility</text>
</a>
</g>
</g>
<!-- Node4&#45;&gt;Node6 -->
<g id="edge5_Node000004_Node000006" class="edge">
<title>Node4&#45;&gt;Node6</title>
<g id="a_edge5_Node000004_Node000006"><a xlink:title=" ">
<path fill="none" stroke="#63b8ff" d="M209.66,-54.75C210.57,-47.8 211.89,-37.85 213.04,-29.13"/>
<polygon fill="#63b8ff" stroke="#63b8ff" points="216.53,-29.46 214.37,-19.09 209.59,-28.54 216.53,-29.46"/>
</a>
</g>
</g>
<!-- Node7&#45;&gt;Node2 -->
<g id="edge7_Node000007_Node000002" class="edge">
<title>Node7&#45;&gt;Node2</title>
<g id="a_edge7_Node000007_Node000002"><a xlink:title=" ">
<path fill="none" stroke="#63b8ff" d="M79.34,-54.98C71,-47.23 58.47,-35.58 48.32,-26.14"/>
<polygon fill="#63b8ff" stroke="#63b8ff" points="50.53,-23.42 40.82,-19.17 45.76,-28.54 50.53,-23.42"/>
</a>
</g>
</g>
<!-- Node12&#45;&gt;Node2 -->
<g id="edge14_Node000012_Node000002" class="edge">
<title>Node12&#45;&gt;Node2</title>
<g id="a_edge14_Node000012_Node000002"><a xlink:title=" ">
<path fill="none" stroke="#63b8ff" d="M127.62,-164.93C109.69,-148.87 71.69,-112.37 50.5,-74 42.75,-59.98 37.81,-42.43 34.92,-29.33"/>
<polygon fill="#63b8ff" stroke="#63b8ff" points="38.28,-28.29 32.88,-19.17 31.42,-29.67 38.28,-28.29"/>
</a>
</g>
</g>
<!-- Node12&#45;&gt;Node3 -->
<g id="edge15_Node000012_Node000003" class="edge">
<title>Node12&#45;&gt;Node3</title>
<g id="a_edge15_Node000012_Node000003"><a xlink:title=" ">
<path fill="none" stroke="#63b8ff" d="M160.31,-164.98C183.67,-156.27 220.2,-142.63 246.67,-132.75"/>
<polygon fill="#63b8ff" stroke="#63b8ff" points="248.13,-135.95 256.27,-129.17 245.68,-129.39 248.13,-135.95"/>
</a>
</g>
</g>
<!-- Node12&#45;&gt;Node5 -->
<g id="edge18_Node000012_Node000005" class="edge">
<title>Node12&#45;&gt;Node5</title>
<g id="a_edge18_Node000012_Node000005"><a xlink:title=" ">
<path fill="none" stroke="#63b8ff" d="M137.93,-164.74C139.18,-139.31 142.82,-65.08 144.56,-29.69"/>
<polygon fill="#63b8ff" stroke="#63b8ff" points="148.07,-29.47 145.07,-19.31 141.08,-29.12 148.07,-29.47"/>
</a>
</g>
</g>
<!-- Node12&#45;&gt;Node7 -->
<g id="edge16_Node000012_Node000007" class="edge">
<title>Node12&#45;&gt;Node7</title>
<g id="a_edge16_Node000012_Node000007"><a xlink:title=" ">
<path fill="none" stroke="#63b8ff" d="M133.49,-164.66C125.45,-146.93 107.2,-106.73 96.58,-83.32"/>
<polygon fill="#63b8ff" stroke="#63b8ff" points="99.75,-81.82 92.43,-74.16 93.37,-84.71 99.75,-81.82"/>
</a>
</g>
</g>
<!-- Node13 -->
<g id="Node000013" class="node">
<title>Node13</title>
<g id="a_Node000013"><a xlink:title=" ">
<polygon fill="#e0e0e0" stroke="#999999" points="235,-129 174,-129 174,-110 235,-110 235,-129"/>
<text text-anchor="middle" x="204.5" y="-117" font-family="Helvetica,sans-Serif" font-size="10.00">cn&#45;cbor.h</text>
</a>
</g>
</g>
<!-- Node12&#45;&gt;Node13 -->
<g id="edge17_Node000012_Node000013" class="edge">
<title>Node12&#45;&gt;Node13</title>
<g id="a_edge17_Node000012_Node000013"><a xlink:title=" ">
<path fill="none" stroke="#63b8ff" d="M148.26,-164.98C158.27,-157.07 173.39,-145.11 185.43,-135.58"/>
<polygon fill="#63b8ff" stroke="#63b8ff" points="187.87,-138.12 193.54,-129.17 183.53,-132.63 187.87,-138.12"/>
</a>
</g>
</g>
<!-- Node15&#45;&gt;Node3 -->
<g id="edge21_Node000015_Node000003" class="edge">
<title>Node15&#45;&gt;Node3</title>
<g id="a_edge21_Node000015_Node000003"><a xlink:title=" ">
<path fill="none" stroke="#63b8ff" d="M279.5,-164.75C279.5,-157.8 279.5,-147.85 279.5,-139.13"/>
<polygon fill="#63b8ff" stroke="#63b8ff" points="283,-139.09 279.5,-129.09 276,-139.09 283,-139.09"/>
</a>
</g>
</g>
<!-- Node15&#45;&gt;Node14 -->
<g id="edge22_Node000015_Node000014" class="edge">
<title>Node15&#45;&gt;Node14</title>
<g id="a_edge22_Node000015_Node000014"><a xlink:title=" ">
<path fill="none" stroke="#63b8ff" d="M290.91,-164.98C301.61,-157 317.84,-144.88 330.66,-135.31"/>
<polygon fill="#63b8ff" stroke="#63b8ff" points="332.97,-137.96 338.89,-129.17 328.78,-132.35 332.97,-137.96"/>
</a>
</g>
</g>
</g>
</svg>
