<?xml version="1.0" encoding="UTF-8" standalone="no"?>
<!DOCTYPE svg PUBLIC "-//W3C//DTD SVG 1.1//EN"
 "http://www.w3.org/Graphics/SVG/1.1/DTD/svg11.dtd">
<!-- Generated by graphviz version 2.43.0 (0)
 -->
<!-- Title: CallbackEventListener.cpp Pages: 1 -->
<svg width="590pt" height="412pt"
 viewBox="0.00 0.00 589.85 412.00" xmlns="http://www.w3.org/2000/svg" xmlns:xlink="http://www.w3.org/1999/xlink">
<g id="graph0" class="graph" transform="scale(1 1) rotate(0) translate(4 408)">
<title>CallbackEventListener.cpp</title>
<!-- Node1 -->
<g id="Node000001" class="node">
<title>Node1</title>
<g id="a_Node000001"><a xlink:title=" ">
<polygon fill="#999999" stroke="#666666" points="368.5,-404 223.5,-404 223.5,-385 368.5,-385 368.5,-404"/>
<text text-anchor="middle" x="296" y="-392" font-family="Helvetica,sans-Serif" font-size="10.00">CallbackEventListener.cpp</text>
</a>
</g>
</g>
<!-- Node2 -->
<g id="Node000002" class="node">
<title>Node2</title>
<g id="a_Node000002"><a xlink:href="_callback_event_listener_8h.html" target="_top" xlink:title=" ">
<polygon fill="white" stroke="#666666" points="363,-349 229,-349 229,-330 363,-330 363,-349"/>
<text text-anchor="middle" x="296" y="-337" font-family="Helvetica,sans-Serif" font-size="10.00">CallbackEventListener.h</text>
</a>
</g>
</g>
<!-- Node1&#45;&gt;Node2 -->
<g id="edge1_Node000001_Node000002" class="edge">
<title>Node1&#45;&gt;Node2</title>
<g id="a_edge1_Node000001_Node000002"><a xlink:title=" ">
<path fill="none" stroke="#63b8ff" d="M296,-384.75C296,-377.8 296,-367.85 296,-359.13"/>
<polygon fill="#63b8ff" stroke="#63b8ff" points="299.5,-359.09 296,-349.09 292.5,-359.09 299.5,-359.09"/>
</a>
</g>
</g>
<!-- Node3 -->
<g id="Node000003" class="node">
<title>Node3</title>
<g id="a_Node000003"><a xlink:href="_bytes_8h.html" target="_top" xlink:title=" ">
<polygon fill="white" stroke="#666666" points="322.5,-184 269.5,-184 269.5,-165 322.5,-165 322.5,-184"/>
<text text-anchor="middle" x="296" y="-172" font-family="Helvetica,sans-Serif" font-size="10.00">Bytes.h</text>
</a>
</g>
</g>
<!-- Node2&#45;&gt;Node3 -->
<g id="edge2_Node000002_Node000003" class="edge">
<title>Node2&#45;&gt;Node3</title>
<g id="a_edge2_Node000002_Node000003"><a xlink:title=" ">
<path fill="none" stroke="#63b8ff" d="M296,-329.74C296,-304.31 296,-230.08 296,-194.69"/>
<polygon fill="#63b8ff" stroke="#63b8ff" points="299.5,-194.31 296,-184.31 292.5,-194.31 299.5,-194.31"/>
</a>
</g>
</g>
<!-- Node10 -->
<g id="Node000010" class="node">
<title>Node10</title>
<g id="a_Node000010"><a xlink:title=" ">
<polygon fill="#e0e0e0" stroke="#999999" points="328.5,-19 263.5,-19 263.5,0 328.5,0 328.5,-19"/>
<text text-anchor="middle" x="296" y="-7" font-family="Helvetica,sans-Serif" font-size="10.00">functional</text>
</a>
</g>
</g>
<!-- Node2&#45;&gt;Node10 -->
<g id="edge11_Node000002_Node000010" class="edge">
<title>Node2&#45;&gt;Node10</title>
<g id="a_edge11_Node000002_Node000010"><a xlink:title=" ">
<path fill="none" stroke="#63b8ff" d="M241.02,-329.98C155.42,-315.15 0,-281.24 0,-230.5 0,-230.5 0,-230.5 0,-118.5 0,-65.19 171.59,-30.45 253.48,-16.91"/>
<polygon fill="#63b8ff" stroke="#63b8ff" points="254.17,-20.34 263.48,-15.29 253.04,-13.43 254.17,-20.34"/>
</a>
</g>
</g>
<!-- Node12 -->
<g id="Node000012" class="node">
<title>Node12</title>
<g id="a_Node000012"><a xlink:href="_event_listener_8h.html" target="_top" xlink:title=" ">
<polygon fill="white" stroke="#666666" points="463,-294 371,-294 371,-275 463,-275 463,-294"/>
<text text-anchor="middle" x="417" y="-282" font-family="Helvetica,sans-Serif" font-size="10.00">EventListener.h</text>
</a>
</g>
</g>
<!-- Node2&#45;&gt;Node12 -->
<g id="edge12_Node000002_Node000012" class="edge">
<title>Node2&#45;&gt;Node12</title>
<g id="a_edge12_Node000002_Node000012"><a xlink:title=" ">
<path fill="none" stroke="#63b8ff" d="M315.44,-329.98C334.99,-321.42 365.38,-308.11 387.82,-298.28"/>
<polygon fill="#63b8ff" stroke="#63b8ff" points="389.45,-301.39 397.21,-294.17 386.64,-294.98 389.45,-301.39"/>
</a>
</g>
</g>
<!-- Node4 -->
<g id="Node000004" class="node">
<title>Node4</title>
<g id="a_Node000004"><a xlink:href="_common_8h.html" target="_top" xlink:title=" ">
<polygon fill="white" stroke="#666666" points="268,-129 198,-129 198,-110 268,-110 268,-129"/>
<text text-anchor="middle" x="233" y="-117" font-family="Helvetica,sans-Serif" font-size="10.00">Common.h</text>
</a>
</g>
</g>
<!-- Node3&#45;&gt;Node4 -->
<g id="edge3_Node000003_Node000004" class="edge">
<title>Node3&#45;&gt;Node4</title>
<g id="a_edge3_Node000003_Node000004"><a xlink:title=" ">
<path fill="none" stroke="#63b8ff" d="M285.88,-164.98C276.56,-157.15 262.53,-145.34 251.26,-135.86"/>
<polygon fill="#63b8ff" stroke="#63b8ff" points="253.21,-132.93 243.31,-129.17 248.71,-138.29 253.21,-132.93"/>
</a>
</g>
</g>
<!-- Node7 -->
<g id="Node000007" class="node">
<title>Node7</title>
<g id="a_Node000007"><a xlink:href="_logger_8h.html" target="_top" xlink:title=" ">
<polygon fill="white" stroke="#666666" points="382,-129 324,-129 324,-110 382,-110 382,-129"/>
<text text-anchor="middle" x="353" y="-117" font-family="Helvetica,sans-Serif" font-size="10.00">Logger.h</text>
</a>
</g>
</g>
<!-- Node3&#45;&gt;Node7 -->
<g id="edge6_Node000003_Node000007" class="edge">
<title>Node3&#45;&gt;Node7</title>
<g id="a_edge6_Node000003_Node000007"><a xlink:title=" ">
<path fill="none" stroke="#63b8ff" d="M305.16,-164.98C313.5,-157.23 326.03,-145.58 336.18,-136.14"/>
<polygon fill="#63b8ff" stroke="#63b8ff" points="338.74,-138.54 343.68,-129.17 333.97,-133.42 338.74,-138.54"/>
</a>
</g>
</g>
<!-- Node9 -->
<g id="Node000009" class="node">
<title>Node9</title>
<g id="a_Node000009"><a xlink:title=" ">
<polygon fill="#e0e0e0" stroke="#999999" points="92,-129 28,-129 28,-110 92,-110 92,-129"/>
<text text-anchor="middle" x="60" y="-117" font-family="Helvetica,sans-Serif" font-size="10.00">WString.h</text>
</a>
</g>
</g>
<!-- Node3&#45;&gt;Node9 -->
<g id="edge8_Node000003_Node000009" class="edge">
<title>Node3&#45;&gt;Node9</title>
<g id="a_edge8_Node000003_Node000009"><a xlink:title=" ">
<path fill="none" stroke="#63b8ff" d="M269.39,-167.52C228.65,-158.37 150.46,-140.81 102.01,-129.93"/>
<polygon fill="#63b8ff" stroke="#63b8ff" points="102.67,-126.5 92.15,-127.72 101.14,-133.33 102.67,-126.5"/>
</a>
</g>
</g>
<!-- Node3&#45;&gt;Node10 -->
<g id="edge9_Node000003_Node000010" class="edge">
<title>Node3&#45;&gt;Node10</title>
<g id="a_edge9_Node000003_Node000010"><a xlink:title=" ">
<path fill="none" stroke="#63b8ff" d="M296,-164.74C296,-139.31 296,-65.08 296,-29.69"/>
<polygon fill="#63b8ff" stroke="#63b8ff" points="299.5,-29.31 296,-19.31 292.5,-29.31 299.5,-29.31"/>
</a>
</g>
</g>
<!-- Node11 -->
<g id="Node000011" class="node">
<title>Node11</title>
<g id="a_Node000011"><a xlink:title=" ">
<polygon fill="#e0e0e0" stroke="#999999" points="179.5,-129 110.5,-129 110.5,-110 179.5,-110 179.5,-129"/>
<text text-anchor="middle" x="145" y="-117" font-family="Helvetica,sans-Serif" font-size="10.00">type_traits</text>
</a>
</g>
</g>
<!-- Node3&#45;&gt;Node11 -->
<g id="edge10_Node000003_Node000011" class="edge">
<title>Node3&#45;&gt;Node11</title>
<g id="a_edge10_Node000003_Node000011"><a xlink:title=" ">
<path fill="none" stroke="#63b8ff" d="M271.74,-164.98C246.68,-156.19 207.37,-142.39 179.17,-132.49"/>
<polygon fill="#63b8ff" stroke="#63b8ff" points="180.3,-129.18 169.7,-129.17 177.98,-135.78 180.3,-129.18"/>
</a>
</g>
</g>
<!-- Node5 -->
<g id="Node000005" class="node">
<title>Node5</title>
<g id="a_Node000005"><a xlink:title=" ">
<polygon fill="#e0e0e0" stroke="#999999" points="198,-74 140,-74 140,-55 198,-55 198,-74"/>
<text text-anchor="middle" x="169" y="-62" font-family="Helvetica,sans-Serif" font-size="10.00">memory</text>
</a>
</g>
</g>
<!-- Node4&#45;&gt;Node5 -->
<g id="edge4_Node000004_Node000005" class="edge">
<title>Node4&#45;&gt;Node5</title>
<g id="a_edge4_Node000004_Node000005"><a xlink:title=" ">
<path fill="none" stroke="#63b8ff" d="M222.72,-109.98C213.16,-102.07 198.72,-90.11 187.22,-80.58"/>
<polygon fill="#63b8ff" stroke="#63b8ff" points="189.4,-77.85 179.47,-74.17 184.94,-83.24 189.4,-77.85"/>
</a>
</g>
</g>
<!-- Node6 -->
<g id="Node000006" class="node">
<title>Node6</title>
<g id="a_Node000006"><a xlink:title=" ">
<polygon fill="#e0e0e0" stroke="#999999" points="261.5,-74 216.5,-74 216.5,-55 261.5,-55 261.5,-74"/>
<text text-anchor="middle" x="239" y="-62" font-family="Helvetica,sans-Serif" font-size="10.00">utility</text>
</a>
</g>
</g>
<!-- Node4&#45;&gt;Node6 -->
<g id="edge5_Node000004_Node000006" class="edge">
<title>Node4&#45;&gt;Node6</title>
<g id="a_edge5_Node000004_Node000006"><a xlink:title=" ">
<path fill="none" stroke="#63b8ff" d="M233.99,-109.75C234.78,-102.8 235.9,-92.85 236.89,-84.13"/>
<polygon fill="#63b8ff" stroke="#63b8ff" points="240.38,-84.42 238.03,-74.09 233.42,-83.63 240.38,-84.42"/>
</a>
</g>
</g>
<!-- Node8 -->
<g id="Node000008" class="node">
<title>Node8</title>
<g id="a_Node000008"><a xlink:title=" ">
<polygon fill="#e0e0e0" stroke="#999999" points="428.5,-19 365.5,-19 365.5,0 428.5,0 428.5,-19"/>
<text text-anchor="middle" x="397" y="-7" font-family="Helvetica,sans-Serif" font-size="10.00">Arduino.h</text>
</a>
</g>
</g>
<!-- Node7&#45;&gt;Node8 -->
<g id="edge7_Node000007_Node000008" class="edge">
<title>Node7&#45;&gt;Node8</title>
<g id="a_edge7_Node000007_Node000008"><a xlink:title=" ">
<path fill="none" stroke="#63b8ff" d="M356.6,-109.66C363.79,-92.01 380.06,-52.09 389.61,-28.64"/>
<polygon fill="#63b8ff" stroke="#63b8ff" points="392.94,-29.74 393.47,-19.16 386.46,-27.1 392.94,-29.74"/>
</a>
</g>
</g>
<!-- Node12&#45;&gt;Node3 -->
<g id="edge13_Node000012_Node000003" class="edge">
<title>Node12&#45;&gt;Node3</title>
<g id="a_edge13_Node000012_Node000003"><a xlink:title=" ">
<path fill="none" stroke="#63b8ff" d="M406.3,-274.8C395.5,-265.94 378.39,-251.75 364,-239 346.18,-223.21 326.33,-204.55 312.7,-191.56"/>
<polygon fill="#63b8ff" stroke="#63b8ff" points="314.74,-188.67 305.1,-184.28 309.9,-193.73 314.74,-188.67"/>
</a>
</g>
</g>
<!-- Node13 -->
<g id="Node000013" class="node">
<title>Node13</title>
<g id="a_Node000013"><a xlink:href="_clear_queue_8h.html" target="_top" xlink:title=" ">
<polygon fill="white" stroke="#666666" points="523.5,-74 440.5,-74 440.5,-55 523.5,-55 523.5,-74"/>
<text text-anchor="middle" x="482" y="-62" font-family="Helvetica,sans-Serif" font-size="10.00">ClearQueue.h</text>
</a>
</g>
</g>
<!-- Node12&#45;&gt;Node13 -->
<g id="edge14_Node000012_Node000013" class="edge">
<title>Node12&#45;&gt;Node13</title>
<g id="a_edge14_Node000012_Node000013"><a xlink:title=" ">
<path fill="none" stroke="#63b8ff" d="M434.62,-274.93C450.14,-266.89 472.87,-253.91 490,-239 537.65,-197.53 558.76,-188.49 580,-129 589.31,-102.93 560.8,-86.6 532.17,-77.04"/>
<polygon fill="#63b8ff" stroke="#63b8ff" points="533.1,-73.67 522.51,-74.06 531.03,-80.35 533.1,-73.67"/>
</a>
</g>
</g>
<!-- Node14 -->
<g id="Node000014" class="node">
<title>Node14</title>
<g id="a_Node000014"><a xlink:href="_iterable_queue_8h.html" target="_top" xlink:title=" ">
<polygon fill="white" stroke="#666666" points="570.5,-129 475.5,-129 475.5,-110 570.5,-110 570.5,-129"/>
<text text-anchor="middle" x="523" y="-117" font-family="Helvetica,sans-Serif" font-size="10.00">IterableQueue.h</text>
</a>
</g>
</g>
<!-- Node12&#45;&gt;Node14 -->
<g id="edge17_Node000012_Node000014" class="edge">
<title>Node12&#45;&gt;Node14</title>
<g id="a_edge17_Node000012_Node000014"><a xlink:title=" ">
<path fill="none" stroke="#63b8ff" d="M430.23,-274.97C441.94,-266.87 458.85,-253.77 470,-239 493.78,-207.49 509.83,-163.62 517.6,-139.06"/>
<polygon fill="#63b8ff" stroke="#63b8ff" points="521.02,-139.83 520.58,-129.24 514.32,-137.79 521.02,-139.83"/>
</a>
</g>
</g>
<!-- Node15 -->
<g id="Node000015" class="node">
<title>Node15</title>
<g id="a_Node000015"><a xlink:href="_event_emitter_8h.html" target="_top" xlink:title=" ">
<polygon fill="white" stroke="#666666" points="461.5,-239 372.5,-239 372.5,-220 461.5,-220 461.5,-239"/>
<text text-anchor="middle" x="417" y="-227" font-family="Helvetica,sans-Serif" font-size="10.00">EventEmitter.h</text>
</a>
</g>
</g>
<!-- Node12&#45;&gt;Node15 -->
<g id="edge19_Node000012_Node000015" class="edge">
<title>Node12&#45;&gt;Node15</title>
<g id="a_edge19_Node000012_Node000015"><a xlink:title=" ">
<path fill="none" stroke="#63b8ff" d="M417,-274.75C417,-267.8 417,-257.85 417,-249.13"/>
<polygon fill="#63b8ff" stroke="#63b8ff" points="420.5,-249.09 417,-239.09 413.5,-249.09 420.5,-249.09"/>
</a>
</g>
</g>
<!-- Node13&#45;&gt;Node8 -->
<g id="edge15_Node000013_Node000008" class="edge">
<title>Node13&#45;&gt;Node8</title>
<g id="a_edge15_Node000013_Node000008"><a xlink:title=" ">
<path fill="none" stroke="#63b8ff" d="M468.34,-54.98C455.16,-46.77 434.97,-34.18 419.43,-24.49"/>
<polygon fill="#63b8ff" stroke="#63b8ff" points="421.24,-21.49 410.91,-19.17 417.54,-27.43 421.24,-21.49"/>
</a>
</g>
</g>
<!-- Node13&#45;&gt;Node10 -->
<g id="edge16_Node000013_Node000010" class="edge">
<title>Node13&#45;&gt;Node10</title>
<g id="a_edge16_Node000013_Node000010"><a xlink:title=" ">
<path fill="none" stroke="#63b8ff" d="M452.12,-54.98C420.62,-46.01 370.83,-31.82 335.97,-21.89"/>
<polygon fill="#63b8ff" stroke="#63b8ff" points="336.69,-18.46 326.12,-19.08 334.78,-25.19 336.69,-18.46"/>
</a>
</g>
</g>
<!-- Node14&#45;&gt;Node13 -->
<g id="edge18_Node000014_Node000013" class="edge">
<title>Node14&#45;&gt;Node13</title>
<g id="a_edge18_Node000014_Node000013"><a xlink:title=" ">
<path fill="none" stroke="#63b8ff" d="M516.23,-109.75C510.44,-102.26 501.94,-91.28 494.86,-82.13"/>
<polygon fill="#63b8ff" stroke="#63b8ff" points="497.53,-79.86 488.64,-74.09 491.99,-84.14 497.53,-79.86"/>
</a>
</g>
</g>
<!-- Node15&#45;&gt;Node3 -->
<g id="edge20_Node000015_Node000003" class="edge">
<title>Node15&#45;&gt;Node3</title>
<g id="a_edge20_Node000015_Node000003"><a xlink:title=" ">
<path fill="none" stroke="#63b8ff" d="M397.56,-219.98C378.01,-211.42 347.62,-198.11 325.18,-188.28"/>
<polygon fill="#63b8ff" stroke="#63b8ff" points="326.36,-184.98 315.79,-184.17 323.55,-191.39 326.36,-184.98"/>
</a>
</g>
</g>
<!-- Node15&#45;&gt;Node14 -->
<g id="edge21_Node000015_Node000014" class="edge">
<title>Node15&#45;&gt;Node14</title>
<g id="a_edge21_Node000015_Node000014"><a xlink:title=" ">
<path fill="none" stroke="#63b8ff" d="M427.03,-219.92C437.14,-211.16 453.04,-197.04 466,-184 481.25,-168.66 497.65,-150.16 508.92,-137.1"/>
<polygon fill="#63b8ff" stroke="#63b8ff" points="511.68,-139.26 515.53,-129.38 506.36,-134.7 511.68,-139.26"/>
</a>
</g>
</g>
<!-- Node16 -->
<g id="Node000016" class="node">
<title>Node16</title>
<g id="a_Node000016"><a xlink:href="_event_entity_8h.html" target="_top" xlink:title=" ">
<polygon fill="white" stroke="#666666" points="457,-184 377,-184 377,-165 457,-165 457,-184"/>
<text text-anchor="middle" x="417" y="-172" font-family="Helvetica,sans-Serif" font-size="10.00">EventEntity.h</text>
</a>
</g>
</g>
<!-- Node15&#45;&gt;Node16 -->
<g id="edge22_Node000015_Node000016" class="edge">
<title>Node15&#45;&gt;Node16</title>
<g id="a_edge22_Node000015_Node000016"><a xlink:title=" ">
<path fill="none" stroke="#63b8ff" d="M417,-219.75C417,-212.8 417,-202.85 417,-194.13"/>
<polygon fill="#63b8ff" stroke="#63b8ff" points="420.5,-194.09 417,-184.09 413.5,-194.09 420.5,-194.09"/>
</a>
</g>
</g>
<!-- Node16&#45;&gt;Node7 -->
<g id="edge24_Node000016_Node000007" class="edge">
<title>Node16&#45;&gt;Node7</title>
<g id="a_edge24_Node000016_Node000007"><a xlink:title=" ">
<path fill="none" stroke="#63b8ff" d="M406.72,-164.98C397.16,-157.07 382.72,-145.11 371.22,-135.58"/>
<polygon fill="#63b8ff" stroke="#63b8ff" points="373.4,-132.85 363.47,-129.17 368.94,-138.24 373.4,-132.85"/>
</a>
</g>
</g>
<!-- Node16&#45;&gt;Node14 -->
<g id="edge23_Node000016_Node000014" class="edge">
<title>Node16&#45;&gt;Node14</title>
<g id="a_edge23_Node000016_Node000014"><a xlink:title=" ">
<path fill="none" stroke="#63b8ff" d="M434.03,-164.98C450.93,-156.54 477.06,-143.47 496.64,-133.68"/>
<polygon fill="#63b8ff" stroke="#63b8ff" points="498.28,-136.77 505.66,-129.17 495.15,-130.51 498.28,-136.77"/>
</a>
</g>
</g>
<!-- Node17 -->
<g id="Node000017" class="node">
<title>Node17</title>
<g id="a_Node000017"><a xlink:href="_type_id_8h.html" target="_top" xlink:title=" ">
<polygon fill="white" stroke="#666666" points="457.5,-129 400.5,-129 400.5,-110 457.5,-110 457.5,-129"/>
<text text-anchor="middle" x="429" y="-117" font-family="Helvetica,sans-Serif" font-size="10.00">TypeId.h</text>
</a>
</g>
</g>
<!-- Node16&#45;&gt;Node17 -->
<g id="edge25_Node000016_Node000017" class="edge">
<title>Node16&#45;&gt;Node17</title>
<g id="a_edge25_Node000016_Node000017"><a xlink:title=" ">
<path fill="none" stroke="#63b8ff" d="M418.98,-164.75C420.57,-157.72 422.86,-147.62 424.85,-138.84"/>
<polygon fill="#63b8ff" stroke="#63b8ff" points="428.26,-139.62 427.06,-129.09 421.43,-138.07 428.26,-139.62"/>
</a>
</g>
</g>
</g>
</svg>
