<?xml version="1.0" encoding="UTF-8" standalone="no"?>
<!DOCTYPE svg PUBLIC "-//W3C//DTD SVG 1.1//EN"
 "http://www.w3.org/Graphics/SVG/1.1/DTD/svg11.dtd">
<!-- Generated by graphviz version 2.43.0 (0)
 -->
<!-- Title: CrashStorage.cpp Pages: 1 -->
<svg width="486pt" height="302pt"
 viewBox="0.00 0.00 486.24 302.00" xmlns="http://www.w3.org/2000/svg" xmlns:xlink="http://www.w3.org/1999/xlink">
<g id="graph0" class="graph" transform="scale(1 1) rotate(0) translate(4 298)">
<title>CrashStorage.cpp</title>
<!-- Node1 -->
<g id="Node000001" class="node">
<title>Node1</title>
<g id="a_Node000001"><a xlink:title=" ">
<polygon fill="#999999" stroke="#666666" points="382.5,-294 280.5,-294 280.5,-275 382.5,-275 382.5,-294"/>
<text text-anchor="middle" x="331.5" y="-282" font-family="Helvetica,sans-Serif" font-size="10.00">CrashStorage.cpp</text>
</a>
</g>
</g>
<!-- Node2 -->
<g id="Node000002" class="node">
<title>Node2</title>
<g id="a_Node000002"><a xlink:title=" ">
<polygon fill="#e0e0e0" stroke="#999999" points="379,-184 284,-184 284,-165 379,-165 379,-184"/>
<text text-anchor="middle" x="331.5" y="-172" font-family="Helvetica,sans-Serif" font-size="10.00">user_interface.h</text>
</a>
</g>
</g>
<!-- Node1&#45;&gt;Node2 -->
<g id="edge1_Node000001_Node000002" class="edge">
<title>Node1&#45;&gt;Node2</title>
<g id="a_edge1_Node000001_Node000002"><a xlink:title=" ">
<path fill="none" stroke="#63b8ff" d="M331.5,-274.66C331.5,-257.17 331.5,-217.8 331.5,-194.27"/>
<polygon fill="#63b8ff" stroke="#63b8ff" points="335,-194.16 331.5,-184.16 328,-194.16 335,-194.16"/>
</a>
</g>
</g>
<!-- Node3 -->
<g id="Node000003" class="node">
<title>Node3</title>
<g id="a_Node000003"><a xlink:href="_logger_8h.html" target="_top" xlink:title=" ">
<polygon fill="white" stroke="#666666" points="401.5,-74 343.5,-74 343.5,-55 401.5,-55 401.5,-74"/>
<text text-anchor="middle" x="372.5" y="-62" font-family="Helvetica,sans-Serif" font-size="10.00">Logger.h</text>
</a>
</g>
</g>
<!-- Node1&#45;&gt;Node3 -->
<g id="edge2_Node000001_Node000003" class="edge">
<title>Node1&#45;&gt;Node3</title>
<g id="a_edge2_Node000001_Node000003"><a xlink:title=" ">
<path fill="none" stroke="#63b8ff" d="M322.76,-274.8C304.83,-255.87 266.3,-209.1 275.5,-165 280.95,-138.89 281.97,-130.1 299.5,-110 311.19,-96.61 327.92,-86 342.41,-78.51"/>
<polygon fill="#63b8ff" stroke="#63b8ff" points="344.1,-81.59 351.54,-74.04 341.02,-75.3 344.1,-81.59"/>
</a>
</g>
</g>
<!-- Node5 -->
<g id="Node000005" class="node">
<title>Node5</title>
<g id="a_Node000005"><a xlink:href="_crash_storage_8h.html" target="_top" xlink:title=" ">
<polygon fill="white" stroke="#666666" points="462,-239 371,-239 371,-220 462,-220 462,-239"/>
<text text-anchor="middle" x="416.5" y="-227" font-family="Helvetica,sans-Serif" font-size="10.00">CrashStorage.h</text>
</a>
</g>
</g>
<!-- Node1&#45;&gt;Node5 -->
<g id="edge4_Node000001_Node000005" class="edge">
<title>Node1&#45;&gt;Node5</title>
<g id="a_edge4_Node000001_Node000005"><a xlink:title=" ">
<path fill="none" stroke="#63b8ff" d="M345.16,-274.98C358.34,-266.77 378.53,-254.18 394.07,-244.49"/>
<polygon fill="#63b8ff" stroke="#63b8ff" points="395.96,-247.43 402.59,-239.17 392.26,-241.49 395.96,-247.43"/>
</a>
</g>
</g>
<!-- Node4 -->
<g id="Node000004" class="node">
<title>Node4</title>
<g id="a_Node000004"><a xlink:title=" ">
<polygon fill="#e0e0e0" stroke="#999999" points="461,-19 398,-19 398,0 461,0 461,-19"/>
<text text-anchor="middle" x="429.5" y="-7" font-family="Helvetica,sans-Serif" font-size="10.00">Arduino.h</text>
</a>
</g>
</g>
<!-- Node3&#45;&gt;Node4 -->
<g id="edge3_Node000003_Node000004" class="edge">
<title>Node3&#45;&gt;Node4</title>
<g id="a_edge3_Node000003_Node000004"><a xlink:title=" ">
<path fill="none" stroke="#63b8ff" d="M381.66,-54.98C390,-47.23 402.53,-35.58 412.68,-26.14"/>
<polygon fill="#63b8ff" stroke="#63b8ff" points="415.24,-28.54 420.18,-19.17 410.47,-23.42 415.24,-28.54"/>
</a>
</g>
</g>
<!-- Node5&#45;&gt;Node2 -->
<g id="edge5_Node000005_Node000002" class="edge">
<title>Node5&#45;&gt;Node2</title>
<g id="a_edge5_Node000005_Node000002"><a xlink:title=" ">
<path fill="none" stroke="#63b8ff" d="M402.84,-219.98C389.66,-211.77 369.47,-199.18 353.93,-189.49"/>
<polygon fill="#63b8ff" stroke="#63b8ff" points="355.74,-186.49 345.41,-184.17 352.04,-192.43 355.74,-186.49"/>
</a>
</g>
</g>
<!-- Node5&#45;&gt;Node4 -->
<g id="edge18_Node000005_Node000004" class="edge">
<title>Node5&#45;&gt;Node4</title>
<g id="a_edge18_Node000005_Node000004"><a xlink:title=" ">
<path fill="none" stroke="#63b8ff" d="M433.08,-219.87C445.67,-212.3 462.04,-200.01 469.5,-184 494.47,-130.43 459.82,-60.08 440.69,-27.92"/>
<polygon fill="#63b8ff" stroke="#63b8ff" points="443.55,-25.9 435.33,-19.22 437.59,-29.57 443.55,-25.9"/>
</a>
</g>
</g>
<!-- Node6 -->
<g id="Node000006" class="node">
<title>Node6</title>
<g id="a_Node000006"><a xlink:href="_storage_8h.html" target="_top" xlink:title=" ">
<polygon fill="white" stroke="#666666" points="460,-184 397,-184 397,-165 460,-165 460,-184"/>
<text text-anchor="middle" x="428.5" y="-172" font-family="Helvetica,sans-Serif" font-size="10.00">Storage.h</text>
</a>
</g>
</g>
<!-- Node5&#45;&gt;Node6 -->
<g id="edge6_Node000005_Node000006" class="edge">
<title>Node5&#45;&gt;Node6</title>
<g id="a_edge6_Node000005_Node000006"><a xlink:title=" ">
<path fill="none" stroke="#63b8ff" d="M418.48,-219.75C420.07,-212.72 422.36,-202.62 424.35,-193.84"/>
<polygon fill="#63b8ff" stroke="#63b8ff" points="427.76,-194.62 426.56,-184.09 420.93,-193.07 427.76,-194.62"/>
</a>
</g>
</g>
<!-- Node6&#45;&gt;Node3 -->
<g id="edge17_Node000006_Node000003" class="edge">
<title>Node6&#45;&gt;Node3</title>
<g id="a_edge17_Node000006_Node000003"><a xlink:title=" ">
<path fill="none" stroke="#63b8ff" d="M419.67,-164.69C411.6,-156.2 399.83,-142.66 392.5,-129 384.89,-114.82 379.64,-97.29 376.44,-84.24"/>
<polygon fill="#63b8ff" stroke="#63b8ff" points="379.77,-83.1 374.14,-74.12 372.94,-84.65 379.77,-83.1"/>
</a>
</g>
</g>
<!-- Node7 -->
<g id="Node000007" class="node">
<title>Node7</title>
<g id="a_Node000007"><a xlink:title=" ">
<polygon fill="#e0e0e0" stroke="#999999" points="459.5,-129 401.5,-129 401.5,-110 459.5,-110 459.5,-129"/>
<text text-anchor="middle" x="430.5" y="-117" font-family="Helvetica,sans-Serif" font-size="10.00">SPIFFS.h</text>
</a>
</g>
</g>
<!-- Node6&#45;&gt;Node7 -->
<g id="edge7_Node000006_Node000007" class="edge">
<title>Node6&#45;&gt;Node7</title>
<g id="a_edge7_Node000006_Node000007"><a xlink:title=" ">
<path fill="none" stroke="#63b8ff" d="M428.83,-164.75C429.09,-157.8 429.47,-147.85 429.8,-139.13"/>
<polygon fill="#63b8ff" stroke="#63b8ff" points="433.3,-139.21 430.18,-129.09 426.3,-138.95 433.3,-139.21"/>
</a>
</g>
</g>
<!-- Node8 -->
<g id="Node000008" class="node">
<title>Node8</title>
<g id="a_Node000008"><a xlink:title=" ">
<polygon fill="#e0e0e0" stroke="#999999" points="345,-129 308,-129 308,-110 345,-110 345,-129"/>
<text text-anchor="middle" x="326.5" y="-117" font-family="Helvetica,sans-Serif" font-size="10.00">FS.h</text>
</a>
</g>
</g>
<!-- Node6&#45;&gt;Node8 -->
<g id="edge8_Node000006_Node000008" class="edge">
<title>Node6&#45;&gt;Node8</title>
<g id="a_edge8_Node000006_Node000008"><a xlink:title=" ">
<path fill="none" stroke="#63b8ff" d="M412.11,-164.98C395.93,-156.57 370.93,-143.59 352.12,-133.81"/>
<polygon fill="#63b8ff" stroke="#63b8ff" points="353.67,-130.68 343.19,-129.17 350.45,-136.89 353.67,-130.68"/>
</a>
</g>
</g>
<!-- Node9 -->
<g id="Node000009" class="node">
<title>Node9</title>
<g id="a_Node000009"><a xlink:href="_bytes_8h.html" target="_top" xlink:title=" ">
<polygon fill="white" stroke="#666666" points="227,-129 174,-129 174,-110 227,-110 227,-129"/>
<text text-anchor="middle" x="200.5" y="-117" font-family="Helvetica,sans-Serif" font-size="10.00">Bytes.h</text>
</a>
</g>
</g>
<!-- Node6&#45;&gt;Node9 -->
<g id="edge9_Node000006_Node000009" class="edge">
<title>Node6&#45;&gt;Node9</title>
<g id="a_edge9_Node000006_Node000009"><a xlink:title=" ">
<path fill="none" stroke="#63b8ff" d="M396.8,-166.13C354.91,-156.39 281.28,-139.28 237.08,-129"/>
<polygon fill="#63b8ff" stroke="#63b8ff" points="237.85,-125.59 227.32,-126.73 236.27,-132.41 237.85,-125.59"/>
</a>
</g>
</g>
<!-- Node9&#45;&gt;Node3 -->
<g id="edge13_Node000009_Node000003" class="edge">
<title>Node9&#45;&gt;Node3</title>
<g id="a_edge13_Node000009_Node000003"><a xlink:title=" ">
<path fill="none" stroke="#63b8ff" d="M227.38,-110.22C256.32,-101.3 302.57,-87.05 335.07,-77.03"/>
<polygon fill="#63b8ff" stroke="#63b8ff" points="336.15,-80.36 344.67,-74.07 334.09,-73.67 336.15,-80.36"/>
</a>
</g>
</g>
<!-- Node10 -->
<g id="Node000010" class="node">
<title>Node10</title>
<g id="a_Node000010"><a xlink:href="_common_8h.html" target="_top" xlink:title=" ">
<polygon fill="white" stroke="#666666" points="322.5,-74 252.5,-74 252.5,-55 322.5,-55 322.5,-74"/>
<text text-anchor="middle" x="287.5" y="-62" font-family="Helvetica,sans-Serif" font-size="10.00">Common.h</text>
</a>
</g>
</g>
<!-- Node9&#45;&gt;Node10 -->
<g id="edge10_Node000009_Node000010" class="edge">
<title>Node9&#45;&gt;Node10</title>
<g id="a_edge10_Node000009_Node000010"><a xlink:title=" ">
<path fill="none" stroke="#63b8ff" d="M214.48,-109.98C227.97,-101.77 248.63,-89.18 264.54,-79.49"/>
<polygon fill="#63b8ff" stroke="#63b8ff" points="266.55,-82.36 273.27,-74.17 262.91,-76.38 266.55,-82.36"/>
</a>
</g>
</g>
<!-- Node13 -->
<g id="Node000013" class="node">
<title>Node13</title>
<g id="a_Node000013"><a xlink:title=" ">
<polygon fill="#e0e0e0" stroke="#999999" points="234.5,-74 170.5,-74 170.5,-55 234.5,-55 234.5,-74"/>
<text text-anchor="middle" x="202.5" y="-62" font-family="Helvetica,sans-Serif" font-size="10.00">WString.h</text>
</a>
</g>
</g>
<!-- Node9&#45;&gt;Node13 -->
<g id="edge14_Node000009_Node000013" class="edge">
<title>Node9&#45;&gt;Node13</title>
<g id="a_edge14_Node000009_Node000013"><a xlink:title=" ">
<path fill="none" stroke="#63b8ff" d="M200.83,-109.75C201.09,-102.8 201.47,-92.85 201.8,-84.13"/>
<polygon fill="#63b8ff" stroke="#63b8ff" points="205.3,-84.21 202.18,-74.09 198.3,-83.95 205.3,-84.21"/>
</a>
</g>
</g>
<!-- Node14 -->
<g id="Node000014" class="node">
<title>Node14</title>
<g id="a_Node000014"><a xlink:title=" ">
<polygon fill="#e0e0e0" stroke="#999999" points="65,-74 0,-74 0,-55 65,-55 65,-74"/>
<text text-anchor="middle" x="32.5" y="-62" font-family="Helvetica,sans-Serif" font-size="10.00">functional</text>
</a>
</g>
</g>
<!-- Node9&#45;&gt;Node14 -->
<g id="edge15_Node000009_Node000014" class="edge">
<title>Node9&#45;&gt;Node14</title>
<g id="a_edge15_Node000009_Node000014"><a xlink:title=" ">
<path fill="none" stroke="#63b8ff" d="M173.88,-110.1C145.66,-101.2 100.89,-87.08 69.31,-77.11"/>
<polygon fill="#63b8ff" stroke="#63b8ff" points="70.14,-73.71 59.55,-74.03 68.04,-80.38 70.14,-73.71"/>
</a>
</g>
</g>
<!-- Node15 -->
<g id="Node000015" class="node">
<title>Node15</title>
<g id="a_Node000015"><a xlink:title=" ">
<polygon fill="#e0e0e0" stroke="#999999" points="152,-74 83,-74 83,-55 152,-55 152,-74"/>
<text text-anchor="middle" x="117.5" y="-62" font-family="Helvetica,sans-Serif" font-size="10.00">type_traits</text>
</a>
</g>
</g>
<!-- Node9&#45;&gt;Node15 -->
<g id="edge16_Node000009_Node000015" class="edge">
<title>Node9&#45;&gt;Node15</title>
<g id="a_edge16_Node000009_Node000015"><a xlink:title=" ">
<path fill="none" stroke="#63b8ff" d="M187.16,-109.98C174.41,-101.84 154.95,-89.41 139.83,-79.76"/>
<polygon fill="#63b8ff" stroke="#63b8ff" points="141.39,-76.6 131.08,-74.17 137.62,-82.5 141.39,-76.6"/>
</a>
</g>
</g>
<!-- Node11 -->
<g id="Node000011" class="node">
<title>Node11</title>
<g id="a_Node000011"><a xlink:title=" ">
<polygon fill="#e0e0e0" stroke="#999999" points="252.5,-19 194.5,-19 194.5,0 252.5,0 252.5,-19"/>
<text text-anchor="middle" x="223.5" y="-7" font-family="Helvetica,sans-Serif" font-size="10.00">memory</text>
</a>
</g>
</g>
<!-- Node10&#45;&gt;Node11 -->
<g id="edge11_Node000010_Node000011" class="edge">
<title>Node10&#45;&gt;Node11</title>
<g id="a_edge11_Node000010_Node000011"><a xlink:title=" ">
<path fill="none" stroke="#63b8ff" d="M277.22,-54.98C267.66,-47.07 253.22,-35.11 241.72,-25.58"/>
<polygon fill="#63b8ff" stroke="#63b8ff" points="243.9,-22.85 233.97,-19.17 239.44,-28.24 243.9,-22.85"/>
</a>
</g>
</g>
<!-- Node12 -->
<g id="Node000012" class="node">
<title>Node12</title>
<g id="a_Node000012"><a xlink:title=" ">
<polygon fill="#e0e0e0" stroke="#999999" points="316,-19 271,-19 271,0 316,0 316,-19"/>
<text text-anchor="middle" x="293.5" y="-7" font-family="Helvetica,sans-Serif" font-size="10.00">utility</text>
</a>
</g>
</g>
<!-- Node10&#45;&gt;Node12 -->
<g id="edge12_Node000010_Node000012" class="edge">
<title>Node10&#45;&gt;Node12</title>
<g id="a_edge12_Node000010_Node000012"><a xlink:title=" ">
<path fill="none" stroke="#63b8ff" d="M288.49,-54.75C289.28,-47.8 290.4,-37.85 291.39,-29.13"/>
<polygon fill="#63b8ff" stroke="#63b8ff" points="294.88,-29.42 292.53,-19.09 287.92,-28.63 294.88,-29.42"/>
</a>
</g>
</g>
</g>
</svg>
