<?xml version="1.0" encoding="UTF-8" standalone="no"?>
<!DOCTYPE svg PUBLIC "-//W3C//DTD SVG 1.1//EN"
 "http://www.w3.org/Graphics/SVG/1.1/DTD/svg11.dtd">
<!-- Generated by graphviz version 2.43.0 (0)
 -->
<!-- Title: DataChannels.h Pages: 1 -->
<svg width="825pt" height="247pt"
 viewBox="0.00 0.00 825.07 247.00" xmlns="http://www.w3.org/2000/svg" xmlns:xlink="http://www.w3.org/1999/xlink">
<g id="graph0" class="graph" transform="scale(1 1) rotate(0) translate(4 243)">
<title>DataChannels.h</title>
<!-- Node1 -->
<g id="Node000001" class="node">
<title>Node1</title>
<g id="a_Node000001"><a xlink:title=" ">
<polygon fill="#999999" stroke="#666666" points="390.57,-239 296.57,-239 296.57,-220 390.57,-220 390.57,-239"/>
<text text-anchor="middle" x="343.57" y="-227" font-family="Helvetica,sans-Serif" font-size="10.00">DataChannels.h</text>
</a>
</g>
</g>
<!-- Node2 -->
<g id="Node000002" class="node">
<title>Node2</title>
<g id="a_Node000002"><a xlink:href="_data_channels_8cpp.html" target="_top" xlink:title=" ">
<polygon fill="white" stroke="#666666" points="343.07,-184 238.07,-184 238.07,-165 343.07,-165 343.07,-184"/>
<text text-anchor="middle" x="290.57" y="-172" font-family="Helvetica,sans-Serif" font-size="10.00">DataChannels.cpp</text>
</a>
</g>
</g>
<!-- Node1&#45;&gt;Node2 -->
<g id="edge1_Node000001_Node000002" class="edge">
<title>Node1&#45;&gt;Node2</title>
<g id="a_edge1_Node000001_Node000002"><a xlink:title=" ">
<path fill="none" stroke="#63b8ff" d="M327.59,-212.52C318.25,-203.18 306.82,-191.75 299.16,-184.09"/>
<polygon fill="#63b8ff" stroke="#63b8ff" points="325.27,-215.15 334.82,-219.75 330.22,-210.2 325.27,-215.15"/>
</a>
</g>
</g>
<!-- Node3 -->
<g id="Node000003" class="node">
<title>Node3</title>
<g id="a_Node000003"><a xlink:href="_event_bus_8h.html" target="_top" xlink:title=" ">
<polygon fill="white" stroke="#666666" points="432.07,-184 361.07,-184 361.07,-165 432.07,-165 432.07,-184"/>
<text text-anchor="middle" x="396.57" y="-172" font-family="Helvetica,sans-Serif" font-size="10.00">EventBus.h</text>
</a>
</g>
</g>
<!-- Node1&#45;&gt;Node3 -->
<g id="edge2_Node000001_Node000003" class="edge">
<title>Node1&#45;&gt;Node3</title>
<g id="a_edge2_Node000001_Node000003"><a xlink:title=" ">
<path fill="none" stroke="#63b8ff" d="M359.55,-212.52C368.89,-203.18 380.32,-191.75 387.98,-184.09"/>
<polygon fill="#63b8ff" stroke="#63b8ff" points="356.92,-210.2 352.32,-219.75 361.87,-215.15 356.92,-210.2"/>
</a>
</g>
</g>
<!-- Node4 -->
<g id="Node000004" class="node">
<title>Node4</title>
<g id="a_Node000004"><a xlink:href="_app_kit_8h.html" target="_top" xlink:title=" ">
<polygon fill="white" stroke="#666666" points="570.57,-19 512.57,-19 512.57,0 570.57,0 570.57,-19"/>
<text text-anchor="middle" x="541.57" y="-7" font-family="Helvetica,sans-Serif" font-size="10.00">AppKit.h</text>
</a>
</g>
</g>
<!-- Node3&#45;&gt;Node4 -->
<g id="edge3_Node000003_Node000004" class="edge">
<title>Node3&#45;&gt;Node4</title>
<g id="a_edge3_Node000003_Node000004"><a xlink:title=" ">
<path fill="none" stroke="#63b8ff" d="M350.82,-165.22C252.58,-154.78 -42.46,-167.76 5.57,-110 71.15,-31.13 409.92,-14.49 512.26,-11.24"/>
<polygon fill="#63b8ff" stroke="#63b8ff" points="350.4,-168.69 360.75,-166.46 351.26,-161.75 350.4,-168.69"/>
</a>
</g>
</g>
<!-- Node5 -->
<g id="Node000005" class="node">
<title>Node5</title>
<g id="a_Node000005"><a xlink:href="_event_bus_8cpp.html" target="_top" xlink:title=" ">
<polygon fill="white" stroke="#666666" points="98.07,-129 15.07,-129 15.07,-110 98.07,-110 98.07,-129"/>
<text text-anchor="middle" x="56.57" y="-117" font-family="Helvetica,sans-Serif" font-size="10.00">EventBus.cpp</text>
</a>
</g>
</g>
<!-- Node3&#45;&gt;Node5 -->
<g id="edge4_Node000003_Node000005" class="edge">
<title>Node3&#45;&gt;Node5</title>
<g id="a_edge4_Node000003_Node000005"><a xlink:title=" ">
<path fill="none" stroke="#63b8ff" d="M350.65,-164.91C241.78,-146.76 212.69,-145.51 107.57,-129 104.55,-128.53 101.44,-128.03 98.31,-127.52"/>
<polygon fill="#63b8ff" stroke="#63b8ff" points="350.29,-168.39 360.73,-166.6 351.45,-161.49 350.29,-168.39"/>
</a>
</g>
</g>
<!-- Node6 -->
<g id="Node000006" class="node">
<title>Node6</title>
<g id="a_Node000006"><a xlink:href="_event_emitter_8cpp.html" target="_top" xlink:title=" ">
<polygon fill="white" stroke="#666666" points="216.57,-129 116.57,-129 116.57,-110 216.57,-110 216.57,-129"/>
<text text-anchor="middle" x="166.57" y="-117" font-family="Helvetica,sans-Serif" font-size="10.00">EventEmitter.cpp</text>
</a>
</g>
</g>
<!-- Node3&#45;&gt;Node6 -->
<g id="edge5_Node000003_Node000006" class="edge">
<title>Node3&#45;&gt;Node6</title>
<g id="a_edge5_Node000003_Node000006"><a xlink:title=" ">
<path fill="none" stroke="#63b8ff" d="M350.91,-162.98C307.68,-153.02 243.58,-138.25 203.48,-129.01"/>
<polygon fill="#63b8ff" stroke="#63b8ff" points="350.35,-166.44 360.88,-165.28 351.93,-159.62 350.35,-166.44"/>
</a>
</g>
</g>
<!-- Node7 -->
<g id="Node000007" class="node">
<title>Node7</title>
<g id="a_Node000007"><a xlink:href="_event_entity_8cpp.html" target="_top" xlink:title=" ">
<polygon fill="white" stroke="#666666" points="326.57,-129 234.57,-129 234.57,-110 326.57,-110 326.57,-129"/>
<text text-anchor="middle" x="280.57" y="-117" font-family="Helvetica,sans-Serif" font-size="10.00">EventEntity.cpp</text>
</a>
</g>
</g>
<!-- Node3&#45;&gt;Node7 -->
<g id="edge6_Node000003_Node000007" class="edge">
<title>Node3&#45;&gt;Node7</title>
<g id="a_edge6_Node000003_Node000007"><a xlink:title=" ">
<path fill="none" stroke="#63b8ff" d="M368.7,-160.77C347.3,-150.99 318.33,-137.75 299.55,-129.17"/>
<polygon fill="#63b8ff" stroke="#63b8ff" points="367.38,-164.01 377.93,-164.98 370.29,-157.65 367.38,-164.01"/>
</a>
</g>
</g>
<!-- Node8 -->
<g id="Node000008" class="node">
<title>Node8</title>
<g id="a_Node000008"><a xlink:href="_event_listener_8cpp.html" target="_top" xlink:title=" ">
<polygon fill="white" stroke="#666666" points="448.07,-129 345.07,-129 345.07,-110 448.07,-110 448.07,-129"/>
<text text-anchor="middle" x="396.57" y="-117" font-family="Helvetica,sans-Serif" font-size="10.00">EventListener.cpp</text>
</a>
</g>
</g>
<!-- Node3&#45;&gt;Node8 -->
<g id="edge7_Node000003_Node000008" class="edge">
<title>Node3&#45;&gt;Node8</title>
<g id="a_edge7_Node000003_Node000008"><a xlink:title=" ">
<path fill="none" stroke="#63b8ff" d="M396.57,-154.66C396.57,-145.93 396.57,-135.99 396.57,-129.09"/>
<polygon fill="#63b8ff" stroke="#63b8ff" points="393.07,-154.75 396.57,-164.75 400.07,-154.75 393.07,-154.75"/>
</a>
</g>
</g>
<!-- Node9 -->
<g id="Node000009" class="node">
<title>Node9</title>
<g id="a_Node000009"><a xlink:href="_i_event_bus_connection_kit_8h.html" target="_top" xlink:title="Defines the interface for components that can connect to an EventBus.">
<polygon fill="white" stroke="#666666" points="609.07,-129 466.07,-129 466.07,-110 609.07,-110 609.07,-129"/>
<text text-anchor="middle" x="537.57" y="-117" font-family="Helvetica,sans-Serif" font-size="10.00">IEventBusConnectionKit.h</text>
</a>
</g>
</g>
<!-- Node3&#45;&gt;Node9 -->
<g id="edge8_Node000003_Node000009" class="edge">
<title>Node3&#45;&gt;Node9</title>
<g id="a_edge8_Node000003_Node000009"><a xlink:title=" ">
<path fill="none" stroke="#63b8ff" d="M423.62,-161.15C448.36,-151.3 484.58,-137.77 509.61,-129.08"/>
<polygon fill="#63b8ff" stroke="#63b8ff" points="422.07,-158 414.11,-164.98 424.69,-164.49 422.07,-158"/>
</a>
</g>
</g>
<!-- Node10 -->
<g id="Node000010" class="node">
<title>Node10</title>
<g id="a_Node000010"><a xlink:href="_network_scheduler_8h.html" target="_top" xlink:title=" ">
<polygon fill="white" stroke="#666666" points="741.57,-129 627.57,-129 627.57,-110 741.57,-110 741.57,-129"/>
<text text-anchor="middle" x="684.57" y="-117" font-family="Helvetica,sans-Serif" font-size="10.00">NetworkScheduler.h</text>
</a>
</g>
</g>
<!-- Node3&#45;&gt;Node10 -->
<g id="edge11_Node000003_Node000010" class="edge">
<title>Node3&#45;&gt;Node10</title>
<g id="a_edge11_Node000003_Node000010"><a xlink:title=" ">
<path fill="none" stroke="#63b8ff" d="M442.08,-165.13C495.64,-155.27 584.12,-138.99 638.1,-129.05"/>
<polygon fill="#63b8ff" stroke="#63b8ff" points="441.37,-161.7 432.17,-166.95 442.64,-168.58 441.37,-161.7"/>
</a>
</g>
</g>
<!-- Node14 -->
<g id="Node000014" class="node">
<title>Node14</title>
<g id="a_Node000014"><a xlink:href="_uniot_8h.html" target="_top" xlink:title=" ">
<polygon fill="white" stroke="#666666" points="811.57,-129 759.57,-129 759.57,-110 811.57,-110 811.57,-129"/>
<text text-anchor="middle" x="785.57" y="-117" font-family="Helvetica,sans-Serif" font-size="10.00">Uniot.h</text>
</a>
</g>
</g>
<!-- Node3&#45;&gt;Node14 -->
<g id="edge17_Node000003_Node000014" class="edge">
<title>Node3&#45;&gt;Node14</title>
<g id="a_edge17_Node000003_Node000014"><a xlink:title=" ">
<path fill="none" stroke="#63b8ff" d="M442.52,-169.4C510.28,-162.98 640.84,-149.15 750.57,-129 753.4,-128.48 756.34,-127.87 759.26,-127.23"/>
<polygon fill="#63b8ff" stroke="#63b8ff" points="441.83,-165.95 432.2,-170.37 442.48,-172.92 441.83,-165.95"/>
</a>
</g>
</g>
<!-- Node9&#45;&gt;Node3 -->
<g id="edge10_Node000009_Node000003" class="edge">
<title>Node9&#45;&gt;Node3</title>
<g id="a_edge10_Node000009_Node000003"><a xlink:title=" ">
<path fill="none" stroke="#63b8ff" d="M510.11,-133.02C485.31,-142.87 449.23,-156.34 424.34,-164.98"/>
<polygon fill="#63b8ff" stroke="#63b8ff" points="511.68,-136.15 519.65,-129.17 509.07,-129.66 511.68,-136.15"/>
</a>
</g>
</g>
<!-- Node9&#45;&gt;Node4 -->
<g id="edge9_Node000009_Node000004" class="edge">
<title>Node9&#45;&gt;Node4</title>
<g id="a_edge9_Node000009_Node000004"><a xlink:title=" ">
<path fill="none" stroke="#63b8ff" d="M526.6,-100.99C520,-88.32 513.6,-70.74 517.57,-55 520.96,-41.55 529.31,-27.75 535.2,-19.16"/>
<polygon fill="#63b8ff" stroke="#63b8ff" points="523.73,-103.02 531.73,-109.96 529.8,-99.54 523.73,-103.02"/>
</a>
</g>
</g>
<!-- Node11 -->
<g id="Node000011" class="node">
<title>Node11</title>
<g id="a_Node000011"><a xlink:href="_m_q_t_t_kit_8h.html" target="_top" xlink:title=" ">
<polygon fill="white" stroke="#666666" points="726.57,-74 658.57,-74 658.57,-55 726.57,-55 726.57,-74"/>
<text text-anchor="middle" x="692.57" y="-62" font-family="Helvetica,sans-Serif" font-size="10.00">MQTTKit.h</text>
</a>
</g>
</g>
<!-- Node10&#45;&gt;Node11 -->
<g id="edge12_Node000010_Node000011" class="edge">
<title>Node10&#45;&gt;Node11</title>
<g id="a_edge12_Node000010_Node000011"><a xlink:title=" ">
<path fill="none" stroke="#63b8ff" d="M687.41,-99.66C688.73,-90.93 690.23,-80.99 691.27,-74.09"/>
<polygon fill="#63b8ff" stroke="#63b8ff" points="683.92,-99.34 685.89,-109.75 690.84,-100.38 683.92,-99.34"/>
</a>
</g>
</g>
<!-- Node13 -->
<g id="Node000013" class="node">
<title>Node13</title>
<g id="a_Node000013"><a xlink:href="_network_controller_8h.html" target="_top" xlink:title=" ">
<polygon fill="white" stroke="#666666" points="640.57,-74 526.57,-74 526.57,-55 640.57,-55 640.57,-74"/>
<text text-anchor="middle" x="583.57" y="-62" font-family="Helvetica,sans-Serif" font-size="10.00">NetworkController.h</text>
</a>
</g>
</g>
<!-- Node10&#45;&gt;Node13 -->
<g id="edge15_Node000010_Node000013" class="edge">
<title>Node10&#45;&gt;Node13</title>
<g id="a_edge15_Node000010_Node000013"><a xlink:title=" ">
<path fill="none" stroke="#63b8ff" d="M659.29,-105.23C640.77,-95.51 616.15,-82.6 600.09,-74.17"/>
<polygon fill="#63b8ff" stroke="#63b8ff" points="657.86,-108.44 668.34,-109.98 661.11,-102.24 657.86,-108.44"/>
</a>
</g>
</g>
<!-- Node11&#45;&gt;Node4 -->
<g id="edge13_Node000011_Node000004" class="edge">
<title>Node11&#45;&gt;Node4</title>
<g id="a_edge13_Node000011_Node000004"><a xlink:title=" ">
<path fill="none" stroke="#63b8ff" d="M658.52,-51.55C630.48,-41.71 591.38,-27.98 566.27,-19.17"/>
<polygon fill="#63b8ff" stroke="#63b8ff" points="657.71,-54.98 668.31,-54.98 660.03,-48.37 657.71,-54.98"/>
</a>
</g>
</g>
<!-- Node12 -->
<g id="Node000012" class="node">
<title>Node12</title>
<g id="a_Node000012"><a xlink:href="_m_q_t_t_device_8cpp.html" target="_top" xlink:title=" ">
<polygon fill="white" stroke="#666666" points="742.07,-19 643.07,-19 643.07,0 742.07,0 742.07,-19"/>
<text text-anchor="middle" x="692.57" y="-7" font-family="Helvetica,sans-Serif" font-size="10.00">MQTTDevice.cpp</text>
</a>
</g>
</g>
<!-- Node11&#45;&gt;Node12 -->
<g id="edge14_Node000011_Node000012" class="edge">
<title>Node11&#45;&gt;Node12</title>
<g id="a_edge14_Node000011_Node000012"><a xlink:title=" ">
<path fill="none" stroke="#63b8ff" d="M692.57,-44.66C692.57,-35.93 692.57,-25.99 692.57,-19.09"/>
<polygon fill="#63b8ff" stroke="#63b8ff" points="689.07,-44.75 692.57,-54.75 696.07,-44.75 689.07,-44.75"/>
</a>
</g>
</g>
<!-- Node13&#45;&gt;Node4 -->
<g id="edge16_Node000013_Node000004" class="edge">
<title>Node13&#45;&gt;Node4</title>
<g id="a_edge16_Node000013_Node000004"><a xlink:title=" ">
<path fill="none" stroke="#63b8ff" d="M570.23,-46.67C562.96,-37.5 554.27,-26.52 548.38,-19.09"/>
<polygon fill="#63b8ff" stroke="#63b8ff" points="567.68,-49.08 576.63,-54.75 573.17,-44.74 567.68,-49.08"/>
</a>
</g>
</g>
<!-- Node15 -->
<g id="Node000015" class="node">
<title>Node15</title>
<g id="a_Node000015"><a xlink:href="_uniot_8cpp.html" target="_top" xlink:title=" ">
<polygon fill="white" stroke="#666666" points="817.07,-74 754.07,-74 754.07,-55 817.07,-55 817.07,-74"/>
<text text-anchor="middle" x="785.57" y="-62" font-family="Helvetica,sans-Serif" font-size="10.00">Uniot.cpp</text>
</a>
</g>
</g>
<!-- Node14&#45;&gt;Node15 -->
<g id="edge18_Node000014_Node000015" class="edge">
<title>Node14&#45;&gt;Node15</title>
<g id="a_edge18_Node000014_Node000015"><a xlink:title=" ">
<path fill="none" stroke="#63b8ff" d="M785.57,-99.66C785.57,-90.93 785.57,-80.99 785.57,-74.09"/>
<polygon fill="#63b8ff" stroke="#63b8ff" points="782.07,-99.75 785.57,-109.75 789.07,-99.75 782.07,-99.75"/>
</a>
</g>
</g>
</g>
</svg>
