<?xml version="1.0" encoding="UTF-8" standalone="no"?>
<!DOCTYPE svg PUBLIC "-//W3C//DTD SVG 1.1//EN"
 "http://www.w3.org/Graphics/SVG/1.1/DTD/svg11.dtd">
<!-- Generated by graphviz version 2.43.0 (0)
 -->
<!-- Title: Date.h Pages: 1 -->
<svg width="895pt" height="302pt"
 viewBox="0.00 0.00 894.50 302.00" xmlns="http://www.w3.org/2000/svg" xmlns:xlink="http://www.w3.org/1999/xlink">
<g id="graph0" class="graph" transform="scale(1 1) rotate(0) translate(4 298)">
<title>Date.h</title>
<!-- Node1 -->
<g id="Node000001" class="node">
<title>Node1</title>
<g id="a_Node000001"><a xlink:title=" ">
<polygon fill="#999999" stroke="#666666" points="603.5,-294 554.5,-294 554.5,-275 603.5,-275 603.5,-294"/>
<text text-anchor="middle" x="579" y="-282" font-family="Helvetica,sans-Serif" font-size="10.00">Date.h</text>
</a>
</g>
</g>
<!-- Node2 -->
<g id="Node000002" class="node">
<title>Node2</title>
<g id="a_Node000002"><a xlink:title=" ">
<polygon fill="#e0e0e0" stroke="#999999" points="267.5,-239 178.5,-239 178.5,-220 267.5,-220 267.5,-239"/>
<text text-anchor="middle" x="223" y="-227" font-family="Helvetica,sans-Serif" font-size="10.00">ESP8266WiFi.h</text>
</a>
</g>
</g>
<!-- Node1&#45;&gt;Node2 -->
<g id="edge1_Node000001_Node000002" class="edge">
<title>Node1&#45;&gt;Node2</title>
<g id="a_edge1_Node000001_Node000002"><a xlink:title=" ">
<path fill="none" stroke="#63b8ff" d="M554.33,-279.95C504.35,-272.74 387.32,-255.76 278,-239.14"/>
<polygon fill="#63b8ff" stroke="#63b8ff" points="278.2,-235.63 267.78,-237.58 277.14,-242.55 278.2,-235.63"/>
</a>
</g>
</g>
<!-- Node3 -->
<g id="Node000003" class="node">
<title>Node3</title>
<g id="a_Node000003"><a xlink:title=" ">
<polygon fill="#e0e0e0" stroke="#999999" points="358,-239 286,-239 286,-220 358,-220 358,-239"/>
<text text-anchor="middle" x="322" y="-227" font-family="Helvetica,sans-Serif" font-size="10.00">coredecls.h</text>
</a>
</g>
</g>
<!-- Node1&#45;&gt;Node3 -->
<g id="edge2_Node000001_Node000003" class="edge">
<title>Node1&#45;&gt;Node3</title>
<g id="a_edge2_Node000001_Node000003"><a xlink:title=" ">
<path fill="none" stroke="#63b8ff" d="M554.36,-278.42C511.63,-269.61 423.15,-251.36 368.55,-240.1"/>
<polygon fill="#63b8ff" stroke="#63b8ff" points="368.93,-236.61 358.43,-238.01 367.52,-243.46 368.93,-236.61"/>
</a>
</g>
</g>
<!-- Node4 -->
<g id="Node000004" class="node">
<title>Node4</title>
<g id="a_Node000004"><a xlink:href="_c_b_o_r_storage_8h.html" target="_top" xlink:title=" ">
<polygon fill="white" stroke="#666666" points="467.5,-239 376.5,-239 376.5,-220 467.5,-220 467.5,-239"/>
<text text-anchor="middle" x="422" y="-227" font-family="Helvetica,sans-Serif" font-size="10.00">CBORStorage.h</text>
</a>
</g>
</g>
<!-- Node1&#45;&gt;Node4 -->
<g id="edge3_Node000001_Node000004" class="edge">
<title>Node1&#45;&gt;Node4</title>
<g id="a_edge3_Node000001_Node000004"><a xlink:title=" ">
<path fill="none" stroke="#63b8ff" d="M554.47,-275.22C528.28,-266.38 486.56,-252.29 456.94,-242.29"/>
<polygon fill="#63b8ff" stroke="#63b8ff" points="457.99,-238.96 447.4,-239.07 455.75,-245.59 457.99,-238.96"/>
</a>
</g>
</g>
<!-- Node19 -->
<g id="Node000019" class="node">
<title>Node19</title>
<g id="a_Node000019"><a xlink:href="_event_emitter_8h.html" target="_top" xlink:title=" ">
<polygon fill="white" stroke="#666666" points="574.5,-239 485.5,-239 485.5,-220 574.5,-220 574.5,-239"/>
<text text-anchor="middle" x="530" y="-227" font-family="Helvetica,sans-Serif" font-size="10.00">EventEmitter.h</text>
</a>
</g>
</g>
<!-- Node1&#45;&gt;Node19 -->
<g id="edge23_Node000001_Node000019" class="edge">
<title>Node1&#45;&gt;Node19</title>
<g id="a_edge23_Node000001_Node000019"><a xlink:title=" ">
<path fill="none" stroke="#63b8ff" d="M570.91,-274.75C563.84,-267.11 553.41,-255.82 544.85,-246.56"/>
<polygon fill="#63b8ff" stroke="#63b8ff" points="547.3,-244.06 537.94,-239.09 542.16,-248.81 547.3,-244.06"/>
</a>
</g>
</g>
<!-- Node24 -->
<g id="Node000024" class="node">
<title>Node24</title>
<g id="a_Node000024"><a xlink:href="_i_executor_8h.html" target="_top" xlink:title=" ">
<polygon fill="white" stroke="#666666" points="663,-239 593,-239 593,-220 663,-220 663,-239"/>
<text text-anchor="middle" x="628" y="-227" font-family="Helvetica,sans-Serif" font-size="10.00">IExecutor.h</text>
</a>
</g>
</g>
<!-- Node1&#45;&gt;Node24 -->
<g id="edge33_Node000001_Node000024" class="edge">
<title>Node1&#45;&gt;Node24</title>
<g id="a_edge33_Node000001_Node000024"><a xlink:title=" ">
<path fill="none" stroke="#63b8ff" d="M587.09,-274.75C594.16,-267.11 604.59,-255.82 613.15,-246.56"/>
<polygon fill="#63b8ff" stroke="#63b8ff" points="615.84,-248.81 620.06,-239.09 610.7,-244.06 615.84,-248.81"/>
</a>
</g>
</g>
<!-- Node25 -->
<g id="Node000025" class="node">
<title>Node25</title>
<g id="a_Node000025"><a xlink:href="_simple_n_t_p_8h.html" target="_top" xlink:title=" ">
<polygon fill="white" stroke="#666666" points="758.5,-239 681.5,-239 681.5,-220 758.5,-220 758.5,-239"/>
<text text-anchor="middle" x="720" y="-227" font-family="Helvetica,sans-Serif" font-size="10.00">SimpleNTP.h</text>
</a>
</g>
</g>
<!-- Node1&#45;&gt;Node25 -->
<g id="edge34_Node000001_Node000025" class="edge">
<title>Node1&#45;&gt;Node25</title>
<g id="a_edge34_Node000001_Node000025"><a xlink:title=" ">
<path fill="none" stroke="#63b8ff" d="M601.65,-274.98C624.85,-266.27 661.12,-252.63 687.4,-242.75"/>
<polygon fill="#63b8ff" stroke="#63b8ff" points="688.8,-245.97 696.93,-239.17 686.34,-239.41 688.8,-245.97"/>
</a>
</g>
</g>
<!-- Node27 -->
<g id="Node000027" class="node">
<title>Node27</title>
<g id="a_Node000027"><a xlink:title=" ">
<polygon fill="#e0e0e0" stroke="#999999" points="860,-184 812,-184 812,-165 860,-165 860,-184"/>
<text text-anchor="middle" x="836" y="-172" font-family="Helvetica,sans-Serif" font-size="10.00">time.h</text>
</a>
</g>
</g>
<!-- Node1&#45;&gt;Node27 -->
<g id="edge39_Node000001_Node000027" class="edge">
<title>Node1&#45;&gt;Node27</title>
<g id="a_edge39_Node000001_Node000027"><a xlink:title=" ">
<path fill="none" stroke="#63b8ff" d="M603.69,-281.75C641.2,-278.22 713.9,-267.94 768,-239 789.91,-227.28 810.04,-206.72 822.62,-192.17"/>
<polygon fill="#63b8ff" stroke="#63b8ff" points="825.38,-194.33 829.11,-184.42 820.01,-189.84 825.38,-194.33"/>
</a>
</g>
</g>
<!-- Node28 -->
<g id="Node000028" class="node">
<title>Node28</title>
<g id="a_Node000028"><a xlink:href="_singleton_8h.html" target="_top" xlink:title=" ">
<polygon fill="white" stroke="#666666" points="886.5,-239 815.5,-239 815.5,-220 886.5,-220 886.5,-239"/>
<text text-anchor="middle" x="851" y="-227" font-family="Helvetica,sans-Serif" font-size="10.00">Singleton.h</text>
</a>
</g>
</g>
<!-- Node1&#45;&gt;Node28 -->
<g id="edge38_Node000001_Node000028" class="edge">
<title>Node1&#45;&gt;Node28</title>
<g id="a_edge38_Node000001_Node000028"><a xlink:title=" ">
<path fill="none" stroke="#63b8ff" d="M603.62,-278.7C649.14,-269.83 747.11,-250.74 805.17,-239.43"/>
<polygon fill="#63b8ff" stroke="#63b8ff" points="806.03,-242.83 815.18,-237.48 804.69,-235.96 806.03,-242.83"/>
</a>
</g>
</g>
<!-- Node5 -->
<g id="Node000005" class="node">
<title>Node5</title>
<g id="a_Node000005"><a xlink:href="_storage_8h.html" target="_top" xlink:title=" ">
<polygon fill="white" stroke="#666666" points="381.5,-184 318.5,-184 318.5,-165 381.5,-165 381.5,-184"/>
<text text-anchor="middle" x="350" y="-172" font-family="Helvetica,sans-Serif" font-size="10.00">Storage.h</text>
</a>
</g>
</g>
<!-- Node4&#45;&gt;Node5 -->
<g id="edge4_Node000004_Node000005" class="edge">
<title>Node4&#45;&gt;Node5</title>
<g id="a_edge4_Node000004_Node000005"><a xlink:title=" ">
<path fill="none" stroke="#63b8ff" d="M410.43,-219.98C399.58,-212 383.12,-199.88 370.12,-190.31"/>
<polygon fill="#63b8ff" stroke="#63b8ff" points="371.91,-187.28 361.78,-184.17 367.76,-192.92 371.91,-187.28"/>
</a>
</g>
</g>
<!-- Node17 -->
<g id="Node000017" class="node">
<title>Node17</title>
<g id="a_Node000017"><a xlink:href="_c_b_o_r_object_8h.html" target="_top" xlink:title=" ">
<polygon fill="white" stroke="#666666" points="225.5,-184 140.5,-184 140.5,-165 225.5,-165 225.5,-184"/>
<text text-anchor="middle" x="183" y="-172" font-family="Helvetica,sans-Serif" font-size="10.00">CBORObject.h</text>
</a>
</g>
</g>
<!-- Node4&#45;&gt;Node17 -->
<g id="edge17_Node000004_Node000017" class="edge">
<title>Node4&#45;&gt;Node17</title>
<g id="a_edge17_Node000004_Node000017"><a xlink:title=" ">
<path fill="none" stroke="#63b8ff" d="M383.6,-219.98C342.26,-210.82 276.4,-196.21 231.51,-186.26"/>
<polygon fill="#63b8ff" stroke="#63b8ff" points="232.22,-182.83 221.7,-184.08 230.71,-189.66 232.22,-182.83"/>
</a>
</g>
</g>
<!-- Node6 -->
<g id="Node000006" class="node">
<title>Node6</title>
<g id="a_Node000006"><a xlink:title=" ">
<polygon fill="#e0e0e0" stroke="#999999" points="445,-129 387,-129 387,-110 445,-110 445,-129"/>
<text text-anchor="middle" x="416" y="-117" font-family="Helvetica,sans-Serif" font-size="10.00">SPIFFS.h</text>
</a>
</g>
</g>
<!-- Node5&#45;&gt;Node6 -->
<g id="edge5_Node000005_Node000006" class="edge">
<title>Node5&#45;&gt;Node6</title>
<g id="a_edge5_Node000005_Node000006"><a xlink:title=" ">
<path fill="none" stroke="#63b8ff" d="M360.6,-164.98C370.46,-157.07 385.35,-145.11 397.22,-135.58"/>
<polygon fill="#63b8ff" stroke="#63b8ff" points="399.6,-138.16 405.2,-129.17 395.21,-132.7 399.6,-138.16"/>
</a>
</g>
</g>
<!-- Node7 -->
<g id="Node000007" class="node">
<title>Node7</title>
<g id="a_Node000007"><a xlink:title=" ">
<polygon fill="#e0e0e0" stroke="#999999" points="368.5,-129 331.5,-129 331.5,-110 368.5,-110 368.5,-129"/>
<text text-anchor="middle" x="350" y="-117" font-family="Helvetica,sans-Serif" font-size="10.00">FS.h</text>
</a>
</g>
</g>
<!-- Node5&#45;&gt;Node7 -->
<g id="edge6_Node000005_Node000007" class="edge">
<title>Node5&#45;&gt;Node7</title>
<g id="a_edge6_Node000005_Node000007"><a xlink:title=" ">
<path fill="none" stroke="#63b8ff" d="M350,-164.75C350,-157.8 350,-147.85 350,-139.13"/>
<polygon fill="#63b8ff" stroke="#63b8ff" points="353.5,-139.09 350,-129.09 346.5,-139.09 353.5,-139.09"/>
</a>
</g>
</g>
<!-- Node8 -->
<g id="Node000008" class="node">
<title>Node8</title>
<g id="a_Node000008"><a xlink:href="_bytes_8h.html" target="_top" xlink:title=" ">
<polygon fill="white" stroke="#666666" points="236.5,-129 183.5,-129 183.5,-110 236.5,-110 236.5,-129"/>
<text text-anchor="middle" x="210" y="-117" font-family="Helvetica,sans-Serif" font-size="10.00">Bytes.h</text>
</a>
</g>
</g>
<!-- Node5&#45;&gt;Node8 -->
<g id="edge7_Node000005_Node000008" class="edge">
<title>Node5&#45;&gt;Node8</title>
<g id="a_edge7_Node000005_Node000008"><a xlink:title=" ">
<path fill="none" stroke="#63b8ff" d="M327.51,-164.98C304.48,-156.27 268.46,-142.63 242.37,-132.75"/>
<polygon fill="#63b8ff" stroke="#63b8ff" points="243.49,-129.44 232.9,-129.17 241.02,-135.98 243.49,-129.44"/>
</a>
</g>
</g>
<!-- Node12 -->
<g id="Node000012" class="node">
<title>Node12</title>
<g id="a_Node000012"><a xlink:href="_logger_8h.html" target="_top" xlink:title=" ">
<polygon fill="white" stroke="#666666" points="449,-74 391,-74 391,-55 449,-55 449,-74"/>
<text text-anchor="middle" x="420" y="-62" font-family="Helvetica,sans-Serif" font-size="10.00">Logger.h</text>
</a>
</g>
</g>
<!-- Node5&#45;&gt;Node12 -->
<g id="edge16_Node000005_Node000012" class="edge">
<title>Node5&#45;&gt;Node12</title>
<g id="a_edge16_Node000005_Node000012"><a xlink:title=" ">
<path fill="none" stroke="#63b8ff" d="M340.96,-164.85C328.87,-152.22 310.26,-128.23 322,-110 329.19,-98.84 358.61,-86.35 383.35,-77.45"/>
<polygon fill="#63b8ff" stroke="#63b8ff" points="384.61,-80.72 392.89,-74.11 382.3,-74.11 384.61,-80.72"/>
</a>
</g>
</g>
<!-- Node9 -->
<g id="Node000009" class="node">
<title>Node9</title>
<g id="a_Node000009"><a xlink:href="_common_8h.html" target="_top" xlink:title=" ">
<polygon fill="white" stroke="#666666" points="127,-74 57,-74 57,-55 127,-55 127,-74"/>
<text text-anchor="middle" x="92" y="-62" font-family="Helvetica,sans-Serif" font-size="10.00">Common.h</text>
</a>
</g>
</g>
<!-- Node8&#45;&gt;Node9 -->
<g id="edge8_Node000008_Node000009" class="edge">
<title>Node8&#45;&gt;Node9</title>
<g id="a_edge8_Node000008_Node000009"><a xlink:title=" ">
<path fill="none" stroke="#63b8ff" d="M191.04,-109.98C171.97,-101.42 142.34,-88.11 120.45,-78.28"/>
<polygon fill="#63b8ff" stroke="#63b8ff" points="121.86,-75.07 111.3,-74.17 118.99,-81.46 121.86,-75.07"/>
</a>
</g>
</g>
<!-- Node8&#45;&gt;Node12 -->
<g id="edge11_Node000008_Node000012" class="edge">
<title>Node8&#45;&gt;Node12</title>
<g id="a_edge11_Node000008_Node000012"><a xlink:title=" ">
<path fill="none" stroke="#63b8ff" d="M236.6,-111.79C273.1,-102.58 338.97,-85.95 381.04,-75.33"/>
<polygon fill="#63b8ff" stroke="#63b8ff" points="382.09,-78.68 390.93,-72.84 380.38,-71.89 382.09,-78.68"/>
</a>
</g>
</g>
<!-- Node14 -->
<g id="Node000014" class="node">
<title>Node14</title>
<g id="a_Node000014"><a xlink:title=" ">
<polygon fill="#e0e0e0" stroke="#999999" points="335,-74 271,-74 271,-55 335,-55 335,-74"/>
<text text-anchor="middle" x="303" y="-62" font-family="Helvetica,sans-Serif" font-size="10.00">WString.h</text>
</a>
</g>
</g>
<!-- Node8&#45;&gt;Node14 -->
<g id="edge13_Node000008_Node000014" class="edge">
<title>Node8&#45;&gt;Node14</title>
<g id="a_edge13_Node000008_Node000014"><a xlink:title=" ">
<path fill="none" stroke="#63b8ff" d="M224.94,-109.98C239.5,-101.69 261.87,-88.94 278.93,-79.22"/>
<polygon fill="#63b8ff" stroke="#63b8ff" points="280.83,-82.16 287.79,-74.17 277.36,-76.08 280.83,-82.16"/>
</a>
</g>
</g>
<!-- Node15 -->
<g id="Node000015" class="node">
<title>Node15</title>
<g id="a_Node000015"><a xlink:title=" ">
<polygon fill="#e0e0e0" stroke="#999999" points="537.5,-19 472.5,-19 472.5,0 537.5,0 537.5,-19"/>
<text text-anchor="middle" x="505" y="-7" font-family="Helvetica,sans-Serif" font-size="10.00">functional</text>
</a>
</g>
</g>
<!-- Node8&#45;&gt;Node15 -->
<g id="edge14_Node000008_Node000015" class="edge">
<title>Node8&#45;&gt;Node15</title>
<g id="a_edge14_Node000008_Node000015"><a xlink:title=" ">
<path fill="none" stroke="#63b8ff" d="M236.6,-110.89C263.93,-102.79 307.53,-89.08 344,-74 361.45,-66.78 364.65,-62.45 382,-55 410.8,-42.64 444.28,-30.68 469.04,-22.27"/>
<polygon fill="#63b8ff" stroke="#63b8ff" points="470.38,-25.52 478.74,-19.01 468.15,-18.88 470.38,-25.52"/>
</a>
</g>
</g>
<!-- Node16 -->
<g id="Node000016" class="node">
<title>Node16</title>
<g id="a_Node000016"><a xlink:title=" ">
<polygon fill="#e0e0e0" stroke="#999999" points="252.5,-74 183.5,-74 183.5,-55 252.5,-55 252.5,-74"/>
<text text-anchor="middle" x="218" y="-62" font-family="Helvetica,sans-Serif" font-size="10.00">type_traits</text>
</a>
</g>
</g>
<!-- Node8&#45;&gt;Node16 -->
<g id="edge15_Node000008_Node000016" class="edge">
<title>Node8&#45;&gt;Node16</title>
<g id="a_edge15_Node000008_Node000016"><a xlink:title=" ">
<path fill="none" stroke="#63b8ff" d="M211.32,-109.75C212.37,-102.8 213.87,-92.85 215.19,-84.13"/>
<polygon fill="#63b8ff" stroke="#63b8ff" points="218.67,-84.5 216.7,-74.09 211.75,-83.45 218.67,-84.5"/>
</a>
</g>
</g>
<!-- Node10 -->
<g id="Node000010" class="node">
<title>Node10</title>
<g id="a_Node000010"><a xlink:title=" ">
<polygon fill="#e0e0e0" stroke="#999999" points="58,-19 0,-19 0,0 58,0 58,-19"/>
<text text-anchor="middle" x="29" y="-7" font-family="Helvetica,sans-Serif" font-size="10.00">memory</text>
</a>
</g>
</g>
<!-- Node9&#45;&gt;Node10 -->
<g id="edge9_Node000009_Node000010" class="edge">
<title>Node9&#45;&gt;Node10</title>
<g id="a_edge9_Node000009_Node000010"><a xlink:title=" ">
<path fill="none" stroke="#63b8ff" d="M81.88,-54.98C72.56,-47.15 58.53,-35.34 47.26,-25.86"/>
<polygon fill="#63b8ff" stroke="#63b8ff" points="49.21,-22.93 39.31,-19.17 44.71,-28.29 49.21,-22.93"/>
</a>
</g>
</g>
<!-- Node11 -->
<g id="Node000011" class="node">
<title>Node11</title>
<g id="a_Node000011"><a xlink:title=" ">
<polygon fill="#e0e0e0" stroke="#999999" points="121.5,-19 76.5,-19 76.5,0 121.5,0 121.5,-19"/>
<text text-anchor="middle" x="99" y="-7" font-family="Helvetica,sans-Serif" font-size="10.00">utility</text>
</a>
</g>
</g>
<!-- Node9&#45;&gt;Node11 -->
<g id="edge10_Node000009_Node000011" class="edge">
<title>Node9&#45;&gt;Node11</title>
<g id="a_edge10_Node000009_Node000011"><a xlink:title=" ">
<path fill="none" stroke="#63b8ff" d="M93.16,-54.75C94.07,-47.8 95.39,-37.85 96.54,-29.13"/>
<polygon fill="#63b8ff" stroke="#63b8ff" points="100.03,-29.46 97.87,-19.09 93.09,-28.54 100.03,-29.46"/>
</a>
</g>
</g>
<!-- Node13 -->
<g id="Node000013" class="node">
<title>Node13</title>
<g id="a_Node000013"><a xlink:title=" ">
<polygon fill="#e0e0e0" stroke="#999999" points="451.5,-19 388.5,-19 388.5,0 451.5,0 451.5,-19"/>
<text text-anchor="middle" x="420" y="-7" font-family="Helvetica,sans-Serif" font-size="10.00">Arduino.h</text>
</a>
</g>
</g>
<!-- Node12&#45;&gt;Node13 -->
<g id="edge12_Node000012_Node000013" class="edge">
<title>Node12&#45;&gt;Node13</title>
<g id="a_edge12_Node000012_Node000013"><a xlink:title=" ">
<path fill="none" stroke="#63b8ff" d="M420,-54.75C420,-47.8 420,-37.85 420,-29.13"/>
<polygon fill="#63b8ff" stroke="#63b8ff" points="423.5,-29.09 420,-19.09 416.5,-29.09 423.5,-29.09"/>
</a>
</g>
</g>
<!-- Node17&#45;&gt;Node8 -->
<g id="edge19_Node000017_Node000008" class="edge">
<title>Node17&#45;&gt;Node8</title>
<g id="a_edge19_Node000017_Node000008"><a xlink:title=" ">
<path fill="none" stroke="#63b8ff" d="M187.46,-164.75C191.12,-157.57 196.41,-147.18 200.95,-138.27"/>
<polygon fill="#63b8ff" stroke="#63b8ff" points="204.2,-139.59 205.62,-129.09 197.97,-136.41 204.2,-139.59"/>
</a>
</g>
</g>
<!-- Node17&#45;&gt;Node10 -->
<g id="edge22_Node000017_Node000010" class="edge">
<title>Node17&#45;&gt;Node10</title>
<g id="a_edge22_Node000017_Node000010"><a xlink:title=" ">
<path fill="none" stroke="#63b8ff" d="M140.31,-169.13C112.45,-164.02 77.4,-152.96 56,-129 31.14,-101.16 27.74,-55.21 28.02,-29.47"/>
<polygon fill="#63b8ff" stroke="#63b8ff" points="31.53,-29.31 28.34,-19.21 24.53,-29.09 31.53,-29.31"/>
</a>
</g>
</g>
<!-- Node17&#45;&gt;Node12 -->
<g id="edge20_Node000017_Node000012" class="edge">
<title>Node17&#45;&gt;Node12</title>
<g id="a_edge20_Node000017_Node000012"><a xlink:title=" ">
<path fill="none" stroke="#63b8ff" d="M200.38,-164.81C225.51,-152.33 273.52,-128.75 315,-110 339.92,-98.73 368.51,-86.67 389.57,-77.95"/>
<polygon fill="#63b8ff" stroke="#63b8ff" points="391.05,-81.12 398.95,-74.07 388.38,-74.65 391.05,-81.12"/>
</a>
</g>
</g>
<!-- Node17&#45;&gt;Node13 -->
<g id="edge18_Node000017_Node000013" class="edge">
<title>Node17&#45;&gt;Node13</title>
<g id="a_edge18_Node000017_Node000013"><a xlink:title=" ">
<path fill="none" stroke="#63b8ff" d="M178.7,-164.82C168.75,-143.37 147.02,-87.3 174,-55 199.57,-24.39 315.19,-14.8 378.41,-11.82"/>
<polygon fill="#63b8ff" stroke="#63b8ff" points="378.61,-15.31 388.45,-11.38 378.31,-8.32 378.61,-15.31"/>
</a>
</g>
</g>
<!-- Node18 -->
<g id="Node000018" class="node">
<title>Node18</title>
<g id="a_Node000018"><a xlink:title=" ">
<polygon fill="#e0e0e0" stroke="#999999" points="126.5,-129 65.5,-129 65.5,-110 126.5,-110 126.5,-129"/>
<text text-anchor="middle" x="96" y="-117" font-family="Helvetica,sans-Serif" font-size="10.00">cn&#45;cbor.h</text>
</a>
</g>
</g>
<!-- Node17&#45;&gt;Node18 -->
<g id="edge21_Node000017_Node000018" class="edge">
<title>Node17&#45;&gt;Node18</title>
<g id="a_edge21_Node000017_Node000018"><a xlink:title=" ">
<path fill="none" stroke="#63b8ff" d="M169.02,-164.98C155.53,-156.77 134.87,-144.18 118.96,-134.49"/>
<polygon fill="#63b8ff" stroke="#63b8ff" points="120.59,-131.38 110.23,-129.17 116.95,-137.36 120.59,-131.38"/>
</a>
</g>
</g>
<!-- Node19&#45;&gt;Node8 -->
<g id="edge24_Node000019_Node000008" class="edge">
<title>Node19&#45;&gt;Node8</title>
<g id="a_edge24_Node000019_Node000008"><a xlink:title=" ">
<path fill="none" stroke="#63b8ff" d="M485.27,-221.5C430.28,-212.56 340.38,-196.7 309,-184 278.77,-171.77 247.73,-150.08 228.65,-135.5"/>
<polygon fill="#63b8ff" stroke="#63b8ff" points="230.58,-132.57 220.54,-129.17 226.27,-138.08 230.58,-132.57"/>
</a>
</g>
</g>
<!-- Node20 -->
<g id="Node000020" class="node">
<title>Node20</title>
<g id="a_Node000020"><a xlink:href="_iterable_queue_8h.html" target="_top" xlink:title=" ">
<polygon fill="white" stroke="#666666" points="671.5,-129 576.5,-129 576.5,-110 671.5,-110 671.5,-129"/>
<text text-anchor="middle" x="624" y="-117" font-family="Helvetica,sans-Serif" font-size="10.00">IterableQueue.h</text>
</a>
</g>
</g>
<!-- Node19&#45;&gt;Node20 -->
<g id="edge25_Node000019_Node000020" class="edge">
<title>Node19&#45;&gt;Node20</title>
<g id="a_edge25_Node000019_Node000020"><a xlink:title=" ">
<path fill="none" stroke="#63b8ff" d="M540.75,-219.9C551.12,-211.36 566.96,-197.59 579,-184 591.98,-169.35 604.68,-150.95 613.26,-137.73"/>
<polygon fill="#63b8ff" stroke="#63b8ff" points="616.3,-139.47 618.72,-129.15 610.4,-135.71 616.3,-139.47"/>
</a>
</g>
</g>
<!-- Node22 -->
<g id="Node000022" class="node">
<title>Node22</title>
<g id="a_Node000022"><a xlink:href="_event_entity_8h.html" target="_top" xlink:title=" ">
<polygon fill="white" stroke="#666666" points="570,-184 490,-184 490,-165 570,-165 570,-184"/>
<text text-anchor="middle" x="530" y="-172" font-family="Helvetica,sans-Serif" font-size="10.00">EventEntity.h</text>
</a>
</g>
</g>
<!-- Node19&#45;&gt;Node22 -->
<g id="edge29_Node000019_Node000022" class="edge">
<title>Node19&#45;&gt;Node22</title>
<g id="a_edge29_Node000019_Node000022"><a xlink:title=" ">
<path fill="none" stroke="#63b8ff" d="M530,-219.75C530,-212.8 530,-202.85 530,-194.13"/>
<polygon fill="#63b8ff" stroke="#63b8ff" points="533.5,-194.09 530,-184.09 526.5,-194.09 533.5,-194.09"/>
</a>
</g>
</g>
<!-- Node21 -->
<g id="Node000021" class="node">
<title>Node21</title>
<g id="a_Node000021"><a xlink:href="_clear_queue_8h.html" target="_top" xlink:title=" ">
<polygon fill="white" stroke="#666666" points="550.5,-74 467.5,-74 467.5,-55 550.5,-55 550.5,-74"/>
<text text-anchor="middle" x="509" y="-62" font-family="Helvetica,sans-Serif" font-size="10.00">ClearQueue.h</text>
</a>
</g>
</g>
<!-- Node20&#45;&gt;Node21 -->
<g id="edge26_Node000020_Node000021" class="edge">
<title>Node20&#45;&gt;Node21</title>
<g id="a_edge26_Node000020_Node000021"><a xlink:title=" ">
<path fill="none" stroke="#63b8ff" d="M605.52,-109.98C587.02,-101.46 558.32,-88.23 537.02,-78.41"/>
<polygon fill="#63b8ff" stroke="#63b8ff" points="538.36,-75.18 527.81,-74.17 535.43,-81.53 538.36,-75.18"/>
</a>
</g>
</g>
<!-- Node21&#45;&gt;Node13 -->
<g id="edge27_Node000021_Node000013" class="edge">
<title>Node21&#45;&gt;Node13</title>
<g id="a_edge27_Node000021_Node000013"><a xlink:title=" ">
<path fill="none" stroke="#63b8ff" d="M494.7,-54.98C480.9,-46.77 459.76,-34.18 443.49,-24.49"/>
<polygon fill="#63b8ff" stroke="#63b8ff" points="444.94,-21.28 434.56,-19.17 441.36,-27.29 444.94,-21.28"/>
</a>
</g>
</g>
<!-- Node21&#45;&gt;Node15 -->
<g id="edge28_Node000021_Node000015" class="edge">
<title>Node21&#45;&gt;Node15</title>
<g id="a_edge28_Node000021_Node000015"><a xlink:title=" ">
<path fill="none" stroke="#63b8ff" d="M508.34,-54.75C507.82,-47.8 507.06,-37.85 506.41,-29.13"/>
<polygon fill="#63b8ff" stroke="#63b8ff" points="509.89,-28.8 505.65,-19.09 502.91,-29.32 509.89,-28.8"/>
</a>
</g>
</g>
<!-- Node22&#45;&gt;Node12 -->
<g id="edge31_Node000022_Node000012" class="edge">
<title>Node22&#45;&gt;Node12</title>
<g id="a_edge31_Node000022_Node000012"><a xlink:title=" ">
<path fill="none" stroke="#63b8ff" d="M521,-164.66C502.37,-146.38 459.4,-104.18 435.96,-81.17"/>
<polygon fill="#63b8ff" stroke="#63b8ff" points="438.41,-78.67 428.82,-74.16 433.5,-83.66 438.41,-78.67"/>
</a>
</g>
</g>
<!-- Node22&#45;&gt;Node20 -->
<g id="edge30_Node000022_Node000020" class="edge">
<title>Node22&#45;&gt;Node20</title>
<g id="a_edge30_Node000022_Node000020"><a xlink:title=" ">
<path fill="none" stroke="#63b8ff" d="M545.1,-164.98C559.82,-156.69 582.42,-143.94 599.67,-134.22"/>
<polygon fill="#63b8ff" stroke="#63b8ff" points="601.63,-137.13 608.62,-129.17 598.19,-131.03 601.63,-137.13"/>
</a>
</g>
</g>
<!-- Node23 -->
<g id="Node000023" class="node">
<title>Node23</title>
<g id="a_Node000023"><a xlink:href="_type_id_8h.html" target="_top" xlink:title=" ">
<polygon fill="white" stroke="#666666" points="558.5,-129 501.5,-129 501.5,-110 558.5,-110 558.5,-129"/>
<text text-anchor="middle" x="530" y="-117" font-family="Helvetica,sans-Serif" font-size="10.00">TypeId.h</text>
</a>
</g>
</g>
<!-- Node22&#45;&gt;Node23 -->
<g id="edge32_Node000022_Node000023" class="edge">
<title>Node22&#45;&gt;Node23</title>
<g id="a_edge32_Node000022_Node000023"><a xlink:title=" ">
<path fill="none" stroke="#63b8ff" d="M530,-164.75C530,-157.8 530,-147.85 530,-139.13"/>
<polygon fill="#63b8ff" stroke="#63b8ff" points="533.5,-139.09 530,-129.09 526.5,-139.09 533.5,-139.09"/>
</a>
</g>
</g>
<!-- Node25&#45;&gt;Node12 -->
<g id="edge35_Node000025_Node000012" class="edge">
<title>Node25&#45;&gt;Node12</title>
<g id="a_edge35_Node000025_Node000012"><a xlink:title=" ">
<path fill="none" stroke="#63b8ff" d="M719.91,-219.69C719.18,-197.45 713.96,-138.78 680,-110 606.13,-47.4 559.15,-90.06 458.88,-73.92"/>
<polygon fill="#63b8ff" stroke="#63b8ff" points="459.47,-70.47 449.01,-72.17 458.24,-77.37 459.47,-70.47"/>
</a>
</g>
</g>
<!-- Node26 -->
<g id="Node000026" class="node">
<title>Node26</title>
<g id="a_Node000026"><a xlink:title=" ">
<polygon fill="#e0e0e0" stroke="#999999" points="794,-184 728,-184 728,-165 794,-165 794,-184"/>
<text text-anchor="middle" x="761" y="-172" font-family="Helvetica,sans-Serif" font-size="10.00">WiFiUdp.h</text>
</a>
</g>
</g>
<!-- Node25&#45;&gt;Node26 -->
<g id="edge36_Node000025_Node000026" class="edge">
<title>Node25&#45;&gt;Node26</title>
<g id="a_edge36_Node000025_Node000026"><a xlink:title=" ">
<path fill="none" stroke="#63b8ff" d="M726.77,-219.75C732.56,-212.26 741.06,-201.28 748.14,-192.13"/>
<polygon fill="#63b8ff" stroke="#63b8ff" points="751.01,-194.14 754.36,-184.09 745.47,-189.86 751.01,-194.14"/>
</a>
</g>
</g>
<!-- Node25&#45;&gt;Node27 -->
<g id="edge37_Node000025_Node000027" class="edge">
<title>Node25&#45;&gt;Node27</title>
<g id="a_edge37_Node000025_Node000027"><a xlink:title=" ">
<path fill="none" stroke="#63b8ff" d="M738.64,-219.98C757.3,-211.46 786.25,-198.23 807.74,-188.41"/>
<polygon fill="#63b8ff" stroke="#63b8ff" points="809.38,-191.51 817.02,-184.17 806.47,-185.14 809.38,-191.51"/>
</a>
</g>
</g>
</g>
</svg>
