<?xml version="1.0" encoding="UTF-8" standalone="no"?>
<!DOCTYPE svg PUBLIC "-//W3C//DTD SVG 1.1//EN"
 "http://www.w3.org/Graphics/SVG/1.1/DTD/svg11.dtd">
<!-- Generated by graphviz version 2.43.0 (0)
 -->
<!-- Title: EventEmitter.cpp Pages: 1 -->
<svg width="607pt" height="357pt"
 viewBox="0.00 0.00 606.85 357.00" xmlns="http://www.w3.org/2000/svg" xmlns:xlink="http://www.w3.org/1999/xlink">
<g id="graph0" class="graph" transform="scale(1 1) rotate(0) translate(4 353)">
<title>EventEmitter.cpp</title>
<!-- Node1 -->
<g id="Node000001" class="node">
<title>Node1</title>
<g id="a_Node000001"><a xlink:title=" ">
<polygon fill="#999999" stroke="#666666" points="174,-349 74,-349 74,-330 174,-330 174,-349"/>
<text text-anchor="middle" x="124" y="-337" font-family="Helvetica,sans-Serif" font-size="10.00">EventEmitter.cpp</text>
</a>
</g>
</g>
<!-- Node2 -->
<g id="Node000002" class="node">
<title>Node2</title>
<g id="a_Node000002"><a xlink:href="_event_emitter_8h.html" target="_top" xlink:title=" ">
<polygon fill="white" stroke="#666666" points="168.5,-239 79.5,-239 79.5,-220 168.5,-220 168.5,-239"/>
<text text-anchor="middle" x="124" y="-227" font-family="Helvetica,sans-Serif" font-size="10.00">EventEmitter.h</text>
</a>
</g>
</g>
<!-- Node1&#45;&gt;Node2 -->
<g id="edge1_Node000001_Node000002" class="edge">
<title>Node1&#45;&gt;Node2</title>
<g id="a_edge1_Node000001_Node000002"><a xlink:title=" ">
<path fill="none" stroke="#63b8ff" d="M124,-329.66C124,-312.17 124,-272.8 124,-249.27"/>
<polygon fill="#63b8ff" stroke="#63b8ff" points="127.5,-249.16 124,-239.16 120.5,-249.16 127.5,-249.16"/>
</a>
</g>
</g>
<!-- Node8 -->
<g id="Node000008" class="node">
<title>Node8</title>
<g id="a_Node000008"><a xlink:title=" ">
<polygon fill="#e0e0e0" stroke="#999999" points="251.5,-19 188.5,-19 188.5,0 251.5,0 251.5,-19"/>
<text text-anchor="middle" x="220" y="-7" font-family="Helvetica,sans-Serif" font-size="10.00">Arduino.h</text>
</a>
</g>
</g>
<!-- Node1&#45;&gt;Node8 -->
<g id="edge19_Node000001_Node000008" class="edge">
<title>Node1&#45;&gt;Node8</title>
<g id="a_edge19_Node000001_Node000008"><a xlink:title=" ">
<path fill="none" stroke="#63b8ff" d="M99.5,-329.91C63.36,-315.48 0,-282.74 0,-230.5 0,-230.5 0,-230.5 0,-118.5 0,-39.91 114.54,-18.5 178.33,-12.68"/>
<polygon fill="#63b8ff" stroke="#63b8ff" points="178.8,-16.15 188.48,-11.84 178.23,-9.17 178.8,-16.15"/>
</a>
</g>
</g>
<!-- Node16 -->
<g id="Node000016" class="node">
<title>Node16</title>
<g id="a_Node000016"><a xlink:href="_event_bus_8h.html" target="_top" xlink:title=" ">
<polygon fill="white" stroke="#666666" points="494.5,-294 423.5,-294 423.5,-275 494.5,-275 494.5,-294"/>
<text text-anchor="middle" x="459" y="-282" font-family="Helvetica,sans-Serif" font-size="10.00">EventBus.h</text>
</a>
</g>
</g>
<!-- Node1&#45;&gt;Node16 -->
<g id="edge20_Node000001_Node000016" class="edge">
<title>Node1&#45;&gt;Node16</title>
<g id="a_edge20_Node000001_Node000016"><a xlink:title=" ">
<path fill="none" stroke="#63b8ff" d="M174.15,-330.57C238.99,-320.31 350.97,-302.59 413.47,-292.7"/>
<polygon fill="#63b8ff" stroke="#63b8ff" points="414.1,-296.15 423.43,-291.13 413.01,-289.23 414.1,-296.15"/>
</a>
</g>
</g>
<!-- Node3 -->
<g id="Node000003" class="node">
<title>Node3</title>
<g id="a_Node000003"><a xlink:href="_bytes_8h.html" target="_top" xlink:title=" ">
<polygon fill="white" stroke="#666666" points="458.5,-184 405.5,-184 405.5,-165 458.5,-165 458.5,-184"/>
<text text-anchor="middle" x="432" y="-172" font-family="Helvetica,sans-Serif" font-size="10.00">Bytes.h</text>
</a>
</g>
</g>
<!-- Node2&#45;&gt;Node3 -->
<g id="edge2_Node000002_Node000003" class="edge">
<title>Node2&#45;&gt;Node3</title>
<g id="a_edge2_Node000002_Node000003"><a xlink:title=" ">
<path fill="none" stroke="#63b8ff" d="M168.79,-220.79C230.04,-210.25 338.79,-191.54 395.43,-181.79"/>
<polygon fill="#63b8ff" stroke="#63b8ff" points="396.11,-185.23 405.37,-180.08 394.92,-178.33 396.11,-185.23"/>
</a>
</g>
</g>
<!-- Node12 -->
<g id="Node000012" class="node">
<title>Node12</title>
<g id="a_Node000012"><a xlink:href="_iterable_queue_8h.html" target="_top" xlink:title=" ">
<polygon fill="white" stroke="#666666" points="123.5,-129 28.5,-129 28.5,-110 123.5,-110 123.5,-129"/>
<text text-anchor="middle" x="76" y="-117" font-family="Helvetica,sans-Serif" font-size="10.00">IterableQueue.h</text>
</a>
</g>
</g>
<!-- Node2&#45;&gt;Node12 -->
<g id="edge11_Node000002_Node000012" class="edge">
<title>Node2&#45;&gt;Node12</title>
<g id="a_edge11_Node000002_Node000012"><a xlink:title=" ">
<path fill="none" stroke="#63b8ff" d="M118.87,-219.81C113.75,-210.97 105.83,-196.78 100,-184 93.2,-169.09 86.7,-151.64 82.19,-138.81"/>
<polygon fill="#63b8ff" stroke="#63b8ff" points="85.47,-137.59 78.9,-129.28 78.85,-139.87 85.47,-137.59"/>
</a>
</g>
</g>
<!-- Node14 -->
<g id="Node000014" class="node">
<title>Node14</title>
<g id="a_Node000014"><a xlink:href="_event_entity_8h.html" target="_top" xlink:title=" ">
<polygon fill="white" stroke="#666666" points="189,-184 109,-184 109,-165 189,-165 189,-184"/>
<text text-anchor="middle" x="149" y="-172" font-family="Helvetica,sans-Serif" font-size="10.00">EventEntity.h</text>
</a>
</g>
</g>
<!-- Node2&#45;&gt;Node14 -->
<g id="edge15_Node000002_Node000014" class="edge">
<title>Node2&#45;&gt;Node14</title>
<g id="a_edge15_Node000002_Node000014"><a xlink:title=" ">
<path fill="none" stroke="#63b8ff" d="M128.13,-219.75C131.51,-212.57 136.42,-202.18 140.62,-193.27"/>
<polygon fill="#63b8ff" stroke="#63b8ff" points="143.85,-194.63 144.95,-184.09 137.52,-191.64 143.85,-194.63"/>
</a>
</g>
</g>
<!-- Node4 -->
<g id="Node000004" class="node">
<title>Node4</title>
<g id="a_Node000004"><a xlink:href="_common_8h.html" target="_top" xlink:title=" ">
<polygon fill="white" stroke="#666666" points="401,-129 331,-129 331,-110 401,-110 401,-129"/>
<text text-anchor="middle" x="366" y="-117" font-family="Helvetica,sans-Serif" font-size="10.00">Common.h</text>
</a>
</g>
</g>
<!-- Node3&#45;&gt;Node4 -->
<g id="edge3_Node000003_Node000004" class="edge">
<title>Node3&#45;&gt;Node4</title>
<g id="a_edge3_Node000003_Node000004"><a xlink:title=" ">
<path fill="none" stroke="#63b8ff" d="M421.4,-164.98C411.54,-157.07 396.65,-145.11 384.78,-135.58"/>
<polygon fill="#63b8ff" stroke="#63b8ff" points="386.79,-132.7 376.8,-129.17 382.4,-138.16 386.79,-132.7"/>
</a>
</g>
</g>
<!-- Node7 -->
<g id="Node000007" class="node">
<title>Node7</title>
<g id="a_Node000007"><a xlink:href="_logger_8h.html" target="_top" xlink:title=" ">
<polygon fill="white" stroke="#666666" points="275,-129 217,-129 217,-110 275,-110 275,-129"/>
<text text-anchor="middle" x="246" y="-117" font-family="Helvetica,sans-Serif" font-size="10.00">Logger.h</text>
</a>
</g>
</g>
<!-- Node3&#45;&gt;Node7 -->
<g id="edge6_Node000003_Node000007" class="edge">
<title>Node3&#45;&gt;Node7</title>
<g id="a_edge6_Node000003_Node000007"><a xlink:title=" ">
<path fill="none" stroke="#63b8ff" d="M405.35,-165.91C373.77,-156.91 320.87,-141.84 284.76,-131.54"/>
<polygon fill="#63b8ff" stroke="#63b8ff" points="285.63,-128.15 275.05,-128.78 283.71,-134.88 285.63,-128.15"/>
</a>
</g>
</g>
<!-- Node9 -->
<g id="Node000009" class="node">
<title>Node9</title>
<g id="a_Node000009"><a xlink:title=" ">
<polygon fill="#e0e0e0" stroke="#999999" points="483,-129 419,-129 419,-110 483,-110 483,-129"/>
<text text-anchor="middle" x="451" y="-117" font-family="Helvetica,sans-Serif" font-size="10.00">WString.h</text>
</a>
</g>
</g>
<!-- Node3&#45;&gt;Node9 -->
<g id="edge8_Node000003_Node000009" class="edge">
<title>Node3&#45;&gt;Node9</title>
<g id="a_edge8_Node000003_Node000009"><a xlink:title=" ">
<path fill="none" stroke="#63b8ff" d="M435.14,-164.75C437.68,-157.65 441.36,-147.4 444.53,-138.56"/>
<polygon fill="#63b8ff" stroke="#63b8ff" points="447.84,-139.68 447.92,-129.09 441.25,-137.32 447.84,-139.68"/>
</a>
</g>
</g>
<!-- Node10 -->
<g id="Node000010" class="node">
<title>Node10</title>
<g id="a_Node000010"><a xlink:title=" ">
<polygon fill="#e0e0e0" stroke="#999999" points="508.5,-19 443.5,-19 443.5,0 508.5,0 508.5,-19"/>
<text text-anchor="middle" x="476" y="-7" font-family="Helvetica,sans-Serif" font-size="10.00">functional</text>
</a>
</g>
</g>
<!-- Node3&#45;&gt;Node10 -->
<g id="edge9_Node000003_Node000010" class="edge">
<title>Node3&#45;&gt;Node10</title>
<g id="a_edge9_Node000003_Node000010"><a xlink:title=" ">
<path fill="none" stroke="#63b8ff" d="M458.66,-174.27C493.11,-173.64 551.98,-166.68 580,-129 610.09,-88.53 543.01,-44.94 503.03,-23.68"/>
<polygon fill="#63b8ff" stroke="#63b8ff" points="504.5,-20.49 494.01,-19.01 501.28,-26.71 504.5,-20.49"/>
</a>
</g>
</g>
<!-- Node11 -->
<g id="Node000011" class="node">
<title>Node11</title>
<g id="a_Node000011"><a xlink:title=" ">
<polygon fill="#e0e0e0" stroke="#999999" points="570.5,-129 501.5,-129 501.5,-110 570.5,-110 570.5,-129"/>
<text text-anchor="middle" x="536" y="-117" font-family="Helvetica,sans-Serif" font-size="10.00">type_traits</text>
</a>
</g>
</g>
<!-- Node3&#45;&gt;Node11 -->
<g id="edge10_Node000003_Node000011" class="edge">
<title>Node3&#45;&gt;Node11</title>
<g id="a_edge10_Node000003_Node000011"><a xlink:title=" ">
<path fill="none" stroke="#63b8ff" d="M448.71,-164.98C465.21,-156.57 490.7,-143.59 509.88,-133.81"/>
<polygon fill="#63b8ff" stroke="#63b8ff" points="511.67,-136.83 518.99,-129.17 508.49,-130.59 511.67,-136.83"/>
</a>
</g>
</g>
<!-- Node5 -->
<g id="Node000005" class="node">
<title>Node5</title>
<g id="a_Node000005"><a xlink:title=" ">
<polygon fill="#e0e0e0" stroke="#999999" points="408,-74 350,-74 350,-55 408,-55 408,-74"/>
<text text-anchor="middle" x="379" y="-62" font-family="Helvetica,sans-Serif" font-size="10.00">memory</text>
</a>
</g>
</g>
<!-- Node4&#45;&gt;Node5 -->
<g id="edge4_Node000004_Node000005" class="edge">
<title>Node4&#45;&gt;Node5</title>
<g id="a_edge4_Node000004_Node000005"><a xlink:title=" ">
<path fill="none" stroke="#63b8ff" d="M368.15,-109.75C369.87,-102.72 372.35,-92.62 374.5,-83.84"/>
<polygon fill="#63b8ff" stroke="#63b8ff" points="377.91,-84.63 376.89,-74.09 371.11,-82.97 377.91,-84.63"/>
</a>
</g>
</g>
<!-- Node6 -->
<g id="Node000006" class="node">
<title>Node6</title>
<g id="a_Node000006"><a xlink:title=" ">
<polygon fill="#e0e0e0" stroke="#999999" points="471.5,-74 426.5,-74 426.5,-55 471.5,-55 471.5,-74"/>
<text text-anchor="middle" x="449" y="-62" font-family="Helvetica,sans-Serif" font-size="10.00">utility</text>
</a>
</g>
</g>
<!-- Node4&#45;&gt;Node6 -->
<g id="edge5_Node000004_Node000006" class="edge">
<title>Node4&#45;&gt;Node6</title>
<g id="a_edge5_Node000004_Node000006"><a xlink:title=" ">
<path fill="none" stroke="#63b8ff" d="M379.34,-109.98C392.09,-101.84 411.55,-89.41 426.67,-79.76"/>
<polygon fill="#63b8ff" stroke="#63b8ff" points="428.88,-82.5 435.42,-74.17 425.11,-76.6 428.88,-82.5"/>
</a>
</g>
</g>
<!-- Node7&#45;&gt;Node8 -->
<g id="edge7_Node000007_Node000008" class="edge">
<title>Node7&#45;&gt;Node8</title>
<g id="a_edge7_Node000007_Node000008"><a xlink:title=" ">
<path fill="none" stroke="#63b8ff" d="M243.87,-109.66C239.64,-92.09 230.1,-52.45 224.44,-28.95"/>
<polygon fill="#63b8ff" stroke="#63b8ff" points="227.83,-28.06 222.08,-19.16 221.02,-29.7 227.83,-28.06"/>
</a>
</g>
</g>
<!-- Node13 -->
<g id="Node000013" class="node">
<title>Node13</title>
<g id="a_Node000013"><a xlink:href="_clear_queue_8h.html" target="_top" xlink:title=" ">
<polygon fill="white" stroke="#666666" points="331.5,-74 248.5,-74 248.5,-55 331.5,-55 331.5,-74"/>
<text text-anchor="middle" x="290" y="-62" font-family="Helvetica,sans-Serif" font-size="10.00">ClearQueue.h</text>
</a>
</g>
</g>
<!-- Node12&#45;&gt;Node13 -->
<g id="edge12_Node000012_Node000013" class="edge">
<title>Node12&#45;&gt;Node13</title>
<g id="a_edge12_Node000012_Node000013"><a xlink:title=" ">
<path fill="none" stroke="#63b8ff" d="M110.38,-109.98C147.09,-100.89 205.38,-86.46 245.55,-76.51"/>
<polygon fill="#63b8ff" stroke="#63b8ff" points="246.48,-79.88 255.35,-74.08 244.8,-73.09 246.48,-79.88"/>
</a>
</g>
</g>
<!-- Node13&#45;&gt;Node8 -->
<g id="edge13_Node000013_Node000008" class="edge">
<title>Node13&#45;&gt;Node8</title>
<g id="a_edge13_Node000013_Node000008"><a xlink:title=" ">
<path fill="none" stroke="#63b8ff" d="M278.75,-54.98C268.2,-47 252.2,-34.88 239.56,-25.31"/>
<polygon fill="#63b8ff" stroke="#63b8ff" points="241.54,-22.42 231.45,-19.17 237.31,-28 241.54,-22.42"/>
</a>
</g>
</g>
<!-- Node13&#45;&gt;Node10 -->
<g id="edge14_Node000013_Node000010" class="edge">
<title>Node13&#45;&gt;Node10</title>
<g id="a_edge14_Node000013_Node000010"><a xlink:title=" ">
<path fill="none" stroke="#63b8ff" d="M319.88,-54.98C351.38,-46.01 401.17,-31.82 436.03,-21.89"/>
<polygon fill="#63b8ff" stroke="#63b8ff" points="437.22,-25.19 445.88,-19.08 435.31,-18.46 437.22,-25.19"/>
</a>
</g>
</g>
<!-- Node14&#45;&gt;Node7 -->
<g id="edge17_Node000014_Node000007" class="edge">
<title>Node14&#45;&gt;Node7</title>
<g id="a_edge17_Node000014_Node000007"><a xlink:title=" ">
<path fill="none" stroke="#63b8ff" d="M164.58,-164.98C179.77,-156.69 203.1,-143.94 220.9,-134.22"/>
<polygon fill="#63b8ff" stroke="#63b8ff" points="223.03,-137.04 230.13,-129.17 219.68,-130.89 223.03,-137.04"/>
</a>
</g>
</g>
<!-- Node14&#45;&gt;Node12 -->
<g id="edge16_Node000014_Node000012" class="edge">
<title>Node14&#45;&gt;Node12</title>
<g id="a_edge16_Node000014_Node000012"><a xlink:title=" ">
<path fill="none" stroke="#63b8ff" d="M137.27,-164.98C126.27,-157 109.58,-144.88 96.4,-135.31"/>
<polygon fill="#63b8ff" stroke="#63b8ff" points="98.09,-132.21 87.94,-129.17 93.98,-137.88 98.09,-132.21"/>
</a>
</g>
</g>
<!-- Node15 -->
<g id="Node000015" class="node">
<title>Node15</title>
<g id="a_Node000015"><a xlink:href="_type_id_8h.html" target="_top" xlink:title=" ">
<polygon fill="white" stroke="#666666" points="198.5,-129 141.5,-129 141.5,-110 198.5,-110 198.5,-129"/>
<text text-anchor="middle" x="170" y="-117" font-family="Helvetica,sans-Serif" font-size="10.00">TypeId.h</text>
</a>
</g>
</g>
<!-- Node14&#45;&gt;Node15 -->
<g id="edge18_Node000014_Node000015" class="edge">
<title>Node14&#45;&gt;Node15</title>
<g id="a_edge18_Node000014_Node000015"><a xlink:title=" ">
<path fill="none" stroke="#63b8ff" d="M152.47,-164.75C155.28,-157.65 159.34,-147.4 162.85,-138.56"/>
<polygon fill="#63b8ff" stroke="#63b8ff" points="166.17,-139.68 166.6,-129.09 159.66,-137.1 166.17,-139.68"/>
</a>
</g>
</g>
<!-- Node16&#45;&gt;Node3 -->
<g id="edge21_Node000016_Node000003" class="edge">
<title>Node16&#45;&gt;Node3</title>
<g id="a_edge21_Node000016_Node000003"><a xlink:title=" ">
<path fill="none" stroke="#63b8ff" d="M487.05,-274.99C516.6,-264.5 556.7,-244.94 540,-220 524.2,-196.41 493.39,-185.31 468.7,-180.1"/>
<polygon fill="#63b8ff" stroke="#63b8ff" points="469.03,-176.6 458.56,-178.21 467.74,-183.48 469.03,-176.6"/>
</a>
</g>
</g>
<!-- Node16&#45;&gt;Node13 -->
<g id="edge22_Node000016_Node000013" class="edge">
<title>Node16&#45;&gt;Node13</title>
<g id="a_edge22_Node000016_Node000013"><a xlink:title=" ">
<path fill="none" stroke="#63b8ff" d="M494.96,-275.27C515.46,-268.75 539.98,-257.57 555,-239 591.73,-193.59 618.1,-154.26 580,-110 546.74,-71.36 409.08,-81.22 341.89,-73.85"/>
<polygon fill="#63b8ff" stroke="#63b8ff" points="342.11,-70.35 331.74,-72.51 341.2,-77.29 342.11,-70.35"/>
</a>
</g>
</g>
<!-- Node17 -->
<g id="Node000017" class="node">
<title>Node17</title>
<g id="a_Node000017"><a xlink:href="_data_channels_8h.html" target="_top" xlink:title=" ">
<polygon fill="white" stroke="#666666" points="369,-239 275,-239 275,-220 369,-220 369,-239"/>
<text text-anchor="middle" x="322" y="-227" font-family="Helvetica,sans-Serif" font-size="10.00">DataChannels.h</text>
</a>
</g>
</g>
<!-- Node16&#45;&gt;Node17 -->
<g id="edge23_Node000016_Node000017" class="edge">
<title>Node16&#45;&gt;Node17</title>
<g id="a_edge23_Node000016_Node000017"><a xlink:title=" ">
<path fill="none" stroke="#63b8ff" d="M436.99,-274.98C414.55,-266.3 379.52,-252.75 354.01,-242.88"/>
<polygon fill="#63b8ff" stroke="#63b8ff" points="355,-239.51 344.41,-239.17 352.48,-246.04 355,-239.51"/>
</a>
</g>
</g>
<!-- Node20 -->
<g id="Node000020" class="node">
<title>Node20</title>
<g id="a_Node000020"><a xlink:href="_i_executor_8h.html" target="_top" xlink:title=" ">
<polygon fill="white" stroke="#666666" points="257,-239 187,-239 187,-220 257,-220 257,-239"/>
<text text-anchor="middle" x="222" y="-227" font-family="Helvetica,sans-Serif" font-size="10.00">IExecutor.h</text>
</a>
</g>
</g>
<!-- Node16&#45;&gt;Node20 -->
<g id="edge30_Node000016_Node000020" class="edge">
<title>Node16&#45;&gt;Node20</title>
<g id="a_edge30_Node000016_Node000020"><a xlink:title=" ">
<path fill="none" stroke="#63b8ff" d="M423.26,-275.51C381.55,-266.18 312.5,-250.74 267.12,-240.59"/>
<polygon fill="#63b8ff" stroke="#63b8ff" points="267.78,-237.15 257.25,-238.38 266.25,-243.98 267.78,-237.15"/>
</a>
</g>
</g>
<!-- Node21 -->
<g id="Node000021" class="node">
<title>Node21</title>
<g id="a_Node000021"><a xlink:href="_i_event_bus_connection_kit_8h.html" target="_top" xlink:title="Defines the interface for components that can connect to an EventBus.">
<polygon fill="white" stroke="#666666" points="530.5,-239 387.5,-239 387.5,-220 530.5,-220 530.5,-239"/>
<text text-anchor="middle" x="459" y="-227" font-family="Helvetica,sans-Serif" font-size="10.00">IEventBusConnectionKit.h</text>
</a>
</g>
</g>
<!-- Node16&#45;&gt;Node21 -->
<g id="edge31_Node000016_Node000021" class="edge">
<title>Node16&#45;&gt;Node21</title>
<g id="a_edge31_Node000016_Node000021"><a xlink:title=" ">
<path fill="none" stroke="#63b8ff" d="M453.83,-274.75C452.34,-267.8 451.9,-257.85 452.52,-249.13"/>
<polygon fill="#63b8ff" stroke="#63b8ff" points="456.01,-249.47 453.87,-239.09 449.07,-248.53 456.01,-249.47"/>
</a>
</g>
</g>
<!-- Node17&#45;&gt;Node3 -->
<g id="edge24_Node000017_Node000003" class="edge">
<title>Node17&#45;&gt;Node3</title>
<g id="a_edge24_Node000017_Node000003"><a xlink:title=" ">
<path fill="none" stroke="#63b8ff" d="M339.67,-219.98C357.29,-211.5 384.58,-198.35 404.93,-188.54"/>
<polygon fill="#63b8ff" stroke="#63b8ff" points="406.52,-191.66 414.01,-184.17 403.48,-185.36 406.52,-191.66"/>
</a>
</g>
</g>
<!-- Node18 -->
<g id="Node000018" class="node">
<title>Node18</title>
<g id="a_Node000018"><a xlink:href="_limited_queue_8h.html" target="_top" xlink:title=" ">
<polygon fill="white" stroke="#666666" points="369,-184 275,-184 275,-165 369,-165 369,-184"/>
<text text-anchor="middle" x="322" y="-172" font-family="Helvetica,sans-Serif" font-size="10.00">LimitedQueue.h</text>
</a>
</g>
</g>
<!-- Node17&#45;&gt;Node18 -->
<g id="edge25_Node000017_Node000018" class="edge">
<title>Node17&#45;&gt;Node18</title>
<g id="a_edge25_Node000017_Node000018"><a xlink:title=" ">
<path fill="none" stroke="#63b8ff" d="M322,-219.75C322,-212.8 322,-202.85 322,-194.13"/>
<polygon fill="#63b8ff" stroke="#63b8ff" points="325.5,-194.09 322,-184.09 318.5,-194.09 325.5,-194.09"/>
</a>
</g>
</g>
<!-- Node19 -->
<g id="Node000019" class="node">
<title>Node19</title>
<g id="a_Node000019"><a xlink:href="_map_8h.html" target="_top" xlink:title=" ">
<polygon fill="white" stroke="#666666" points="256.5,-184 209.5,-184 209.5,-165 256.5,-165 256.5,-184"/>
<text text-anchor="middle" x="233" y="-172" font-family="Helvetica,sans-Serif" font-size="10.00">Map.h</text>
</a>
</g>
</g>
<!-- Node17&#45;&gt;Node19 -->
<g id="edge27_Node000017_Node000019" class="edge">
<title>Node17&#45;&gt;Node19</title>
<g id="a_edge27_Node000017_Node000019"><a xlink:title=" ">
<path fill="none" stroke="#63b8ff" d="M307.7,-219.98C293.9,-211.77 272.76,-199.18 256.49,-189.49"/>
<polygon fill="#63b8ff" stroke="#63b8ff" points="257.94,-186.28 247.56,-184.17 254.36,-192.29 257.94,-186.28"/>
</a>
</g>
</g>
<!-- Node18&#45;&gt;Node13 -->
<g id="edge26_Node000018_Node000013" class="edge">
<title>Node18&#45;&gt;Node13</title>
<g id="a_edge26_Node000018_Node000013"><a xlink:title=" ">
<path fill="none" stroke="#63b8ff" d="M319.38,-164.66C314.18,-147.09 302.43,-107.45 295.47,-83.95"/>
<polygon fill="#63b8ff" stroke="#63b8ff" points="298.76,-82.75 292.57,-74.16 292.05,-84.74 298.76,-82.75"/>
</a>
</g>
</g>
<!-- Node19&#45;&gt;Node4 -->
<g id="edge28_Node000019_Node000004" class="edge">
<title>Node19&#45;&gt;Node4</title>
<g id="a_edge28_Node000019_Node000004"><a xlink:title=" ">
<path fill="none" stroke="#63b8ff" d="M254.37,-164.98C276.15,-156.3 310.16,-142.75 334.92,-132.88"/>
<polygon fill="#63b8ff" stroke="#63b8ff" points="336.25,-136.12 344.24,-129.17 333.66,-129.62 336.25,-136.12"/>
</a>
</g>
</g>
<!-- Node19&#45;&gt;Node12 -->
<g id="edge29_Node000019_Node000012" class="edge">
<title>Node19&#45;&gt;Node12</title>
<g id="a_edge29_Node000019_Node000012"><a xlink:title=" ">
<path fill="none" stroke="#63b8ff" d="M209.5,-165.57C183.36,-156.74 140.9,-142.41 110.89,-132.28"/>
<polygon fill="#63b8ff" stroke="#63b8ff" points="111.82,-128.9 101.23,-129.02 109.58,-135.53 111.82,-128.9"/>
</a>
</g>
</g>
<!-- Node21&#45;&gt;Node16 -->
<g id="edge32_Node000021_Node000016" class="edge">
<title>Node21&#45;&gt;Node16</title>
<g id="a_edge32_Node000021_Node000016"><a xlink:title=" ">
<path fill="none" stroke="#63b8ff" d="M464.13,-239.09C465.64,-245.99 466.09,-255.93 465.49,-264.66"/>
<polygon fill="#63b8ff" stroke="#63b8ff" points="462,-264.38 464.17,-274.75 468.94,-265.29 462,-264.38"/>
</a>
</g>
</g>
</g>
</svg>
