<?xml version="1.0" encoding="UTF-8" standalone="no"?>
<!DOCTYPE svg PUBLIC "-//W3C//DTD SVG 1.1//EN"
 "http://www.w3.org/Graphics/SVG/1.1/DTD/svg11.dtd">
<!-- Generated by graphviz version 2.43.0 (0)
 -->
<!-- Title: EventListener.h Pages: 1 -->
<svg width="696pt" height="192pt"
 viewBox="0.00 0.00 696.12 192.00" xmlns="http://www.w3.org/2000/svg" xmlns:xlink="http://www.w3.org/1999/xlink">
<g id="graph0" class="graph" transform="scale(1 1) rotate(0) translate(4 188)">
<title>EventListener.h</title>
<!-- Node1 -->
<g id="Node000001" class="node">
<title>Node1</title>
<g id="a_Node000001"><a xlink:title=" ">
<polygon fill="#999999" stroke="#666666" points="313.13,-184 221.13,-184 221.13,-165 313.13,-165 313.13,-184"/>
<text text-anchor="middle" x="267.13" y="-172" font-family="Helvetica,sans-Serif" font-size="10.00">EventListener.h</text>
</a>
</g>
</g>
<!-- Node2 -->
<g id="Node000002" class="node">
<title>Node2</title>
<g id="a_Node000002"><a xlink:href="_callback_event_listener_8h.html" target="_top" xlink:title=" ">
<polygon fill="white" stroke="#666666" points="512.13,-129 378.13,-129 378.13,-110 512.13,-110 512.13,-129"/>
<text text-anchor="middle" x="445.13" y="-117" font-family="Helvetica,sans-Serif" font-size="10.00">CallbackEventListener.h</text>
</a>
</g>
</g>
<!-- Node1&#45;&gt;Node2 -->
<g id="edge1_Node000001_Node000002" class="edge">
<title>Node1&#45;&gt;Node2</title>
<g id="a_edge1_Node000001_Node000002"><a xlink:title=" ">
<path fill="none" stroke="#63b8ff" d="M305.57,-162.06C338.83,-152.15 386.21,-138.04 416.31,-129.08"/>
<polygon fill="#63b8ff" stroke="#63b8ff" points="304.31,-158.78 295.73,-164.98 306.31,-165.49 304.31,-158.78"/>
</a>
</g>
</g>
<!-- Node5 -->
<g id="Node000005" class="node">
<title>Node5</title>
<g id="a_Node000005"><a xlink:href="_event_bus_8cpp.html" target="_top" xlink:title=" ">
<polygon fill="white" stroke="#666666" points="99.63,-129 16.63,-129 16.63,-110 99.63,-110 99.63,-129"/>
<text text-anchor="middle" x="58.13" y="-117" font-family="Helvetica,sans-Serif" font-size="10.00">EventBus.cpp</text>
</a>
</g>
</g>
<!-- Node1&#45;&gt;Node5 -->
<g id="edge4_Node000001_Node000005" class="edge">
<title>Node1&#45;&gt;Node5</title>
<g id="a_edge4_Node000001_Node000005"><a xlink:title=" ">
<path fill="none" stroke="#63b8ff" d="M223.76,-162.5C184.62,-152.58 127.85,-138.18 91.97,-129.08"/>
<polygon fill="#63b8ff" stroke="#63b8ff" points="223,-165.92 233.55,-164.98 224.72,-159.13 223,-165.92"/>
</a>
</g>
</g>
<!-- Node6 -->
<g id="Node000006" class="node">
<title>Node6</title>
<g id="a_Node000006"><a xlink:href="_event_listener_8cpp.html" target="_top" xlink:title=" ">
<polygon fill="white" stroke="#666666" points="220.63,-129 117.63,-129 117.63,-110 220.63,-110 220.63,-129"/>
<text text-anchor="middle" x="169.13" y="-117" font-family="Helvetica,sans-Serif" font-size="10.00">EventListener.cpp</text>
</a>
</g>
</g>
<!-- Node1&#45;&gt;Node6 -->
<g id="edge5_Node000001_Node000006" class="edge">
<title>Node1&#45;&gt;Node6</title>
<g id="a_edge5_Node000001_Node000006"><a xlink:title=" ">
<path fill="none" stroke="#63b8ff" d="M242.1,-159.97C224.19,-150.28 200.6,-137.52 185.16,-129.17"/>
<polygon fill="#63b8ff" stroke="#63b8ff" points="240.92,-163.31 251.39,-164.98 244.25,-157.15 240.92,-163.31"/>
</a>
</g>
</g>
<!-- Node7 -->
<g id="Node000007" class="node">
<title>Node7</title>
<g id="a_Node000007"><a xlink:href="_lisp_device_8h.html" target="_top" xlink:title=" ">
<polygon fill="white" stroke="#666666" points="183.63,-74 104.63,-74 104.63,-55 183.63,-55 183.63,-74"/>
<text text-anchor="middle" x="144.13" y="-62" font-family="Helvetica,sans-Serif" font-size="10.00">LispDevice.h</text>
</a>
</g>
</g>
<!-- Node1&#45;&gt;Node7 -->
<g id="edge6_Node000001_Node000007" class="edge">
<title>Node1&#45;&gt;Node7</title>
<g id="a_edge6_Node000001_Node000007"><a xlink:title=" ">
<path fill="none" stroke="#63b8ff" d="M210.77,-172.04C142.27,-168.94 32.65,-159.26 7.13,-129 -22.78,-93.53 54.16,-76.75 104.5,-69.78"/>
<polygon fill="#63b8ff" stroke="#63b8ff" points="210.84,-175.55 220.97,-172.47 211.13,-168.55 210.84,-175.55"/>
</a>
</g>
</g>
<!-- Node8 -->
<g id="Node000008" class="node">
<title>Node8</title>
<g id="a_Node000008"><a xlink:href="_m_q_t_t_kit_8h.html" target="_top" xlink:title=" ">
<polygon fill="white" stroke="#666666" points="658.13,-129 590.13,-129 590.13,-110 658.13,-110 658.13,-129"/>
<text text-anchor="middle" x="624.13" y="-117" font-family="Helvetica,sans-Serif" font-size="10.00">MQTTKit.h</text>
</a>
</g>
</g>
<!-- Node1&#45;&gt;Node8 -->
<g id="edge8_Node000001_Node000008" class="edge">
<title>Node1&#45;&gt;Node8</title>
<g id="a_edge8_Node000001_Node000008"><a xlink:title=" ">
<path fill="none" stroke="#63b8ff" d="M323.63,-165.11C398.53,-153.99 528.4,-134.71 589.92,-125.58"/>
<polygon fill="#63b8ff" stroke="#63b8ff" points="322.81,-161.69 313.44,-166.63 323.84,-168.62 322.81,-161.69"/>
</a>
</g>
</g>
<!-- Node10 -->
<g id="Node000010" class="node">
<title>Node10</title>
<g id="a_Node000010"><a xlink:href="_network_controller_8h.html" target="_top" xlink:title=" ">
<polygon fill="white" stroke="#666666" points="354.13,-74 240.13,-74 240.13,-55 354.13,-55 354.13,-74"/>
<text text-anchor="middle" x="297.13" y="-62" font-family="Helvetica,sans-Serif" font-size="10.00">NetworkController.h</text>
</a>
</g>
</g>
<!-- Node1&#45;&gt;Node10 -->
<g id="edge11_Node000001_Node000010" class="edge">
<title>Node1&#45;&gt;Node10</title>
<g id="a_edge11_Node000001_Node000010"><a xlink:title=" ">
<path fill="none" stroke="#63b8ff" d="M285.24,-157.95C292.94,-150.14 301.07,-140.01 305.13,-129 312.05,-110.24 305.29,-86.47 300.66,-74.01"/>
<polygon fill="#63b8ff" stroke="#63b8ff" points="282.71,-155.52 277.84,-164.93 287.52,-160.61 282.71,-155.52"/>
</a>
</g>
</g>
<!-- Node11 -->
<g id="Node000011" class="node">
<title>Node11</title>
<g id="a_Node000011"><a xlink:href="un_lisp_8h.html" target="_top" xlink:title=" ">
<polygon fill="white" stroke="#666666" points="295.63,-129 238.63,-129 238.63,-110 295.63,-110 295.63,-129"/>
<text text-anchor="middle" x="267.13" y="-117" font-family="Helvetica,sans-Serif" font-size="10.00">unLisp.h</text>
</a>
</g>
</g>
<!-- Node1&#45;&gt;Node11 -->
<g id="edge13_Node000001_Node000011" class="edge">
<title>Node1&#45;&gt;Node11</title>
<g id="a_edge13_Node000001_Node000011"><a xlink:title=" ">
<path fill="none" stroke="#63b8ff" d="M267.13,-154.66C267.13,-145.93 267.13,-135.99 267.13,-129.09"/>
<polygon fill="#63b8ff" stroke="#63b8ff" points="263.63,-154.75 267.13,-164.75 270.63,-154.75 263.63,-154.75"/>
</a>
</g>
</g>
<!-- Node3 -->
<g id="Node000003" class="node">
<title>Node3</title>
<g id="a_Node000003"><a xlink:href="_app_kit_8h.html" target="_top" xlink:title=" ">
<polygon fill="white" stroke="#666666" points="326.13,-19 268.13,-19 268.13,0 326.13,0 326.13,-19"/>
<text text-anchor="middle" x="297.13" y="-7" font-family="Helvetica,sans-Serif" font-size="10.00">AppKit.h</text>
</a>
</g>
</g>
<!-- Node2&#45;&gt;Node3 -->
<g id="edge2_Node000002_Node000003" class="edge">
<title>Node2&#45;&gt;Node3</title>
<g id="a_edge2_Node000002_Node000003"><a xlink:title=" ">
<path fill="none" stroke="#63b8ff" d="M482.68,-106.29C511.87,-94.83 544.68,-76.28 527.13,-55 501.96,-24.49 382.27,-14.65 326.22,-11.69"/>
<polygon fill="#63b8ff" stroke="#63b8ff" points="481.15,-103.13 473,-109.91 483.59,-109.69 481.15,-103.13"/>
</a>
</g>
</g>
<!-- Node4 -->
<g id="Node000004" class="node">
<title>Node4</title>
<g id="a_Node000004"><a xlink:href="_callback_event_listener_8cpp.html" target="_top" xlink:title=" ">
<polygon fill="white" stroke="#666666" points="517.63,-74 372.63,-74 372.63,-55 517.63,-55 517.63,-74"/>
<text text-anchor="middle" x="445.13" y="-62" font-family="Helvetica,sans-Serif" font-size="10.00">CallbackEventListener.cpp</text>
</a>
</g>
</g>
<!-- Node2&#45;&gt;Node4 -->
<g id="edge3_Node000002_Node000004" class="edge">
<title>Node2&#45;&gt;Node4</title>
<g id="a_edge3_Node000002_Node000004"><a xlink:title=" ">
<path fill="none" stroke="#63b8ff" d="M445.13,-99.66C445.13,-90.93 445.13,-80.99 445.13,-74.09"/>
<polygon fill="#63b8ff" stroke="#63b8ff" points="441.63,-99.75 445.13,-109.75 448.63,-99.75 441.63,-99.75"/>
</a>
</g>
</g>
<!-- Node7&#45;&gt;Node3 -->
<g id="edge7_Node000007_Node000003" class="edge">
<title>Node7&#45;&gt;Node3</title>
<g id="a_edge7_Node000007_Node000003"><a xlink:title=" ">
<path fill="none" stroke="#63b8ff" d="M178.28,-51.67C206.81,-41.79 246.82,-27.93 272.36,-19.08"/>
<polygon fill="#63b8ff" stroke="#63b8ff" points="177.02,-48.4 168.71,-54.98 179.31,-55.02 177.02,-48.4"/>
</a>
</g>
</g>
<!-- Node8&#45;&gt;Node3 -->
<g id="edge9_Node000008_Node000003" class="edge">
<title>Node8&#45;&gt;Node3</title>
<g id="a_edge9_Node000008_Node000003"><a xlink:title=" ">
<path fill="none" stroke="#63b8ff" d="M651.07,-105.13C673.28,-92.38 698.8,-72.57 683.13,-55 659.43,-28.41 412,-15.4 326.22,-11.67"/>
<polygon fill="#63b8ff" stroke="#63b8ff" points="649.29,-102.11 642.19,-109.98 652.64,-108.26 649.29,-102.11"/>
</a>
</g>
</g>
<!-- Node9 -->
<g id="Node000009" class="node">
<title>Node9</title>
<g id="a_Node000009"><a xlink:href="_m_q_t_t_device_8cpp.html" target="_top" xlink:title=" ">
<polygon fill="white" stroke="#666666" points="673.63,-74 574.63,-74 574.63,-55 673.63,-55 673.63,-74"/>
<text text-anchor="middle" x="624.13" y="-62" font-family="Helvetica,sans-Serif" font-size="10.00">MQTTDevice.cpp</text>
</a>
</g>
</g>
<!-- Node8&#45;&gt;Node9 -->
<g id="edge10_Node000008_Node000009" class="edge">
<title>Node8&#45;&gt;Node9</title>
<g id="a_edge10_Node000008_Node000009"><a xlink:title=" ">
<path fill="none" stroke="#63b8ff" d="M624.13,-99.66C624.13,-90.93 624.13,-80.99 624.13,-74.09"/>
<polygon fill="#63b8ff" stroke="#63b8ff" points="620.63,-99.75 624.13,-109.75 627.63,-99.75 620.63,-99.75"/>
</a>
</g>
</g>
<!-- Node10&#45;&gt;Node3 -->
<g id="edge12_Node000010_Node000003" class="edge">
<title>Node10&#45;&gt;Node3</title>
<g id="a_edge12_Node000010_Node000003"><a xlink:title=" ">
<path fill="none" stroke="#63b8ff" d="M297.13,-44.66C297.13,-35.93 297.13,-25.99 297.13,-19.09"/>
<polygon fill="#63b8ff" stroke="#63b8ff" points="293.63,-44.75 297.13,-54.75 300.63,-44.75 293.63,-44.75"/>
</a>
</g>
</g>
<!-- Node11&#45;&gt;Node3 -->
<g id="edge14_Node000011_Node000003" class="edge">
<title>Node11&#45;&gt;Node3</title>
<g id="a_edge14_Node000011_Node000003"><a xlink:title=" ">
<path fill="none" stroke="#63b8ff" d="M248.82,-103.18C235.88,-90.4 222.28,-71.65 231.13,-55 240.22,-37.92 259.1,-26.21 274.35,-19.11"/>
<polygon fill="#63b8ff" stroke="#63b8ff" points="246.46,-105.76 256.19,-109.95 251.2,-100.61 246.46,-105.76"/>
</a>
</g>
</g>
<!-- Node11&#45;&gt;Node7 -->
<g id="edge15_Node000011_Node000007" class="edge">
<title>Node11&#45;&gt;Node7</title>
<g id="a_edge15_Node000011_Node000007"><a xlink:title=" ">
<path fill="none" stroke="#63b8ff" d="M237.88,-105.9C215.17,-96.11 184.26,-82.79 164.25,-74.17"/>
<polygon fill="#63b8ff" stroke="#63b8ff" points="236.8,-109.24 247.37,-109.98 239.57,-102.81 236.8,-109.24"/>
</a>
</g>
</g>
</g>
</svg>
