<?xml version="1.0" encoding="UTF-8" standalone="no"?>
<!DOCTYPE svg PUBLIC "-//W3C//DTD SVG 1.1//EN"
 "http://www.w3.org/Graphics/SVG/1.1/DTD/svg11.dtd">
<!-- Generated by graphviz version 2.43.0 (0)
 -->
<!-- Title: EventBus.h Pages: 1 -->
<svg width="825pt" height="192pt"
 viewBox="0.00 0.00 824.70 192.00" xmlns="http://www.w3.org/2000/svg" xmlns:xlink="http://www.w3.org/1999/xlink">
<g id="graph0" class="graph" transform="scale(1 1) rotate(0) translate(4 188)">
<title>EventBus.h</title>
<!-- Node1 -->
<g id="Node000001" class="node">
<title>Node1</title>
<g id="a_Node000001"><a xlink:title=" ">
<polygon fill="#999999" stroke="#666666" points="431.7,-184 360.7,-184 360.7,-165 431.7,-165 431.7,-184"/>
<text text-anchor="middle" x="396.2" y="-172" font-family="Helvetica,sans-Serif" font-size="10.00">EventBus.h</text>
</a>
</g>
</g>
<!-- Node2 -->
<g id="Node000002" class="node">
<title>Node2</title>
<g id="a_Node000002"><a xlink:href="_app_kit_8h.html" target="_top" xlink:title=" ">
<polygon fill="white" stroke="#666666" points="570.2,-19 512.2,-19 512.2,0 570.2,0 570.2,-19"/>
<text text-anchor="middle" x="541.2" y="-7" font-family="Helvetica,sans-Serif" font-size="10.00">AppKit.h</text>
</a>
</g>
</g>
<!-- Node1&#45;&gt;Node2 -->
<g id="edge1_Node000001_Node000002" class="edge">
<title>Node1&#45;&gt;Node2</title>
<g id="a_edge1_Node000001_Node000002"><a xlink:title=" ">
<path fill="none" stroke="#63b8ff" d="M350.62,-173.4C238.23,-172.32 -39.89,-164.23 5.2,-110 70.78,-31.13 409.55,-14.49 511.89,-11.24"/>
<polygon fill="#63b8ff" stroke="#63b8ff" points="350.62,-176.9 360.65,-173.48 350.68,-169.9 350.62,-176.9"/>
</a>
</g>
</g>
<!-- Node3 -->
<g id="Node000003" class="node">
<title>Node3</title>
<g id="a_Node000003"><a xlink:href="_event_bus_8cpp.html" target="_top" xlink:title=" ">
<polygon fill="white" stroke="#666666" points="97.7,-129 14.7,-129 14.7,-110 97.7,-110 97.7,-129"/>
<text text-anchor="middle" x="56.2" y="-117" font-family="Helvetica,sans-Serif" font-size="10.00">EventBus.cpp</text>
</a>
</g>
</g>
<!-- Node1&#45;&gt;Node3 -->
<g id="edge2_Node000001_Node000003" class="edge">
<title>Node1&#45;&gt;Node3</title>
<g id="a_edge2_Node000001_Node000003"><a xlink:title=" ">
<path fill="none" stroke="#63b8ff" d="M350.46,-166.64C293.46,-158.04 193.08,-142.77 107.2,-129 104.18,-128.52 101.07,-128.01 97.94,-127.5"/>
<polygon fill="#63b8ff" stroke="#63b8ff" points="350.17,-170.13 360.58,-168.16 351.22,-163.21 350.17,-170.13"/>
</a>
</g>
</g>
<!-- Node4 -->
<g id="Node000004" class="node">
<title>Node4</title>
<g id="a_Node000004"><a xlink:href="_event_emitter_8cpp.html" target="_top" xlink:title=" ">
<polygon fill="white" stroke="#666666" points="216.2,-129 116.2,-129 116.2,-110 216.2,-110 216.2,-129"/>
<text text-anchor="middle" x="166.2" y="-117" font-family="Helvetica,sans-Serif" font-size="10.00">EventEmitter.cpp</text>
</a>
</g>
</g>
<!-- Node1&#45;&gt;Node4 -->
<g id="edge3_Node000001_Node000004" class="edge">
<title>Node1&#45;&gt;Node4</title>
<g id="a_edge3_Node000001_Node000004"><a xlink:title=" ">
<path fill="none" stroke="#63b8ff" d="M350.54,-162.98C307.31,-153.02 243.21,-138.25 203.11,-129.01"/>
<polygon fill="#63b8ff" stroke="#63b8ff" points="349.98,-166.44 360.51,-165.28 351.55,-159.62 349.98,-166.44"/>
</a>
</g>
</g>
<!-- Node5 -->
<g id="Node000005" class="node">
<title>Node5</title>
<g id="a_Node000005"><a xlink:href="_event_entity_8cpp.html" target="_top" xlink:title=" ">
<polygon fill="white" stroke="#666666" points="326.2,-129 234.2,-129 234.2,-110 326.2,-110 326.2,-129"/>
<text text-anchor="middle" x="280.2" y="-117" font-family="Helvetica,sans-Serif" font-size="10.00">EventEntity.cpp</text>
</a>
</g>
</g>
<!-- Node1&#45;&gt;Node5 -->
<g id="edge4_Node000001_Node000005" class="edge">
<title>Node1&#45;&gt;Node5</title>
<g id="a_edge4_Node000001_Node000005"><a xlink:title=" ">
<path fill="none" stroke="#63b8ff" d="M368.33,-160.77C346.93,-150.99 317.96,-137.75 299.17,-129.17"/>
<polygon fill="#63b8ff" stroke="#63b8ff" points="367.01,-164.01 377.56,-164.98 369.92,-157.65 367.01,-164.01"/>
</a>
</g>
</g>
<!-- Node6 -->
<g id="Node000006" class="node">
<title>Node6</title>
<g id="a_Node000006"><a xlink:href="_event_listener_8cpp.html" target="_top" xlink:title=" ">
<polygon fill="white" stroke="#666666" points="447.7,-129 344.7,-129 344.7,-110 447.7,-110 447.7,-129"/>
<text text-anchor="middle" x="396.2" y="-117" font-family="Helvetica,sans-Serif" font-size="10.00">EventListener.cpp</text>
</a>
</g>
</g>
<!-- Node1&#45;&gt;Node6 -->
<g id="edge5_Node000001_Node000006" class="edge">
<title>Node1&#45;&gt;Node6</title>
<g id="a_edge5_Node000001_Node000006"><a xlink:title=" ">
<path fill="none" stroke="#63b8ff" d="M396.2,-154.66C396.2,-145.93 396.2,-135.99 396.2,-129.09"/>
<polygon fill="#63b8ff" stroke="#63b8ff" points="392.7,-154.75 396.2,-164.75 399.7,-154.75 392.7,-154.75"/>
</a>
</g>
</g>
<!-- Node7 -->
<g id="Node000007" class="node">
<title>Node7</title>
<g id="a_Node000007"><a xlink:href="_i_event_bus_connection_kit_8h.html" target="_top" xlink:title="Defines the interface for components that can connect to an EventBus.">
<polygon fill="white" stroke="#666666" points="608.7,-129 465.7,-129 465.7,-110 608.7,-110 608.7,-129"/>
<text text-anchor="middle" x="537.2" y="-117" font-family="Helvetica,sans-Serif" font-size="10.00">IEventBusConnectionKit.h</text>
</a>
</g>
</g>
<!-- Node1&#45;&gt;Node7 -->
<g id="edge6_Node000001_Node000007" class="edge">
<title>Node1&#45;&gt;Node7</title>
<g id="a_edge6_Node000001_Node000007"><a xlink:title=" ">
<path fill="none" stroke="#63b8ff" d="M423.25,-161.15C447.99,-151.3 484.21,-137.77 509.24,-129.08"/>
<polygon fill="#63b8ff" stroke="#63b8ff" points="421.7,-158 413.74,-164.98 424.32,-164.49 421.7,-158"/>
</a>
</g>
</g>
<!-- Node8 -->
<g id="Node000008" class="node">
<title>Node8</title>
<g id="a_Node000008"><a xlink:href="_network_scheduler_8h.html" target="_top" xlink:title=" ">
<polygon fill="white" stroke="#666666" points="741.2,-129 627.2,-129 627.2,-110 741.2,-110 741.2,-129"/>
<text text-anchor="middle" x="684.2" y="-117" font-family="Helvetica,sans-Serif" font-size="10.00">NetworkScheduler.h</text>
</a>
</g>
</g>
<!-- Node1&#45;&gt;Node8 -->
<g id="edge9_Node000001_Node000008" class="edge">
<title>Node1&#45;&gt;Node8</title>
<g id="a_edge9_Node000001_Node000008"><a xlink:title=" ">
<path fill="none" stroke="#63b8ff" d="M441.7,-165.13C495.27,-155.27 583.75,-138.99 637.73,-129.05"/>
<polygon fill="#63b8ff" stroke="#63b8ff" points="441,-161.7 431.8,-166.95 442.27,-168.58 441,-161.7"/>
</a>
</g>
</g>
<!-- Node12 -->
<g id="Node000012" class="node">
<title>Node12</title>
<g id="a_Node000012"><a xlink:href="_uniot_8h.html" target="_top" xlink:title=" ">
<polygon fill="white" stroke="#666666" points="811.2,-129 759.2,-129 759.2,-110 811.2,-110 811.2,-129"/>
<text text-anchor="middle" x="785.2" y="-117" font-family="Helvetica,sans-Serif" font-size="10.00">Uniot.h</text>
</a>
</g>
</g>
<!-- Node1&#45;&gt;Node12 -->
<g id="edge15_Node000001_Node000012" class="edge">
<title>Node1&#45;&gt;Node12</title>
<g id="a_edge15_Node000001_Node000012"><a xlink:title=" ">
<path fill="none" stroke="#63b8ff" d="M442.15,-169.4C509.91,-162.98 640.47,-149.15 750.2,-129 753.03,-128.48 755.97,-127.87 758.89,-127.23"/>
<polygon fill="#63b8ff" stroke="#63b8ff" points="441.46,-165.95 431.83,-170.37 442.11,-172.92 441.46,-165.95"/>
</a>
</g>
</g>
<!-- Node7&#45;&gt;Node1 -->
<g id="edge8_Node000007_Node000001" class="edge">
<title>Node7&#45;&gt;Node1</title>
<g id="a_edge8_Node000007_Node000001"><a xlink:title=" ">
<path fill="none" stroke="#63b8ff" d="M509.73,-133.02C484.94,-142.87 448.86,-156.34 423.97,-164.98"/>
<polygon fill="#63b8ff" stroke="#63b8ff" points="511.31,-136.15 519.28,-129.17 508.7,-129.66 511.31,-136.15"/>
</a>
</g>
</g>
<!-- Node7&#45;&gt;Node2 -->
<g id="edge7_Node000007_Node000002" class="edge">
<title>Node7&#45;&gt;Node2</title>
<g id="a_edge7_Node000007_Node000002"><a xlink:title=" ">
<path fill="none" stroke="#63b8ff" d="M526.22,-100.99C519.63,-88.32 513.22,-70.74 517.2,-55 520.59,-41.55 528.94,-27.75 534.83,-19.16"/>
<polygon fill="#63b8ff" stroke="#63b8ff" points="523.35,-103.02 531.36,-109.96 529.43,-99.54 523.35,-103.02"/>
</a>
</g>
</g>
<!-- Node9 -->
<g id="Node000009" class="node">
<title>Node9</title>
<g id="a_Node000009"><a xlink:href="_m_q_t_t_kit_8h.html" target="_top" xlink:title=" ">
<polygon fill="white" stroke="#666666" points="726.2,-74 658.2,-74 658.2,-55 726.2,-55 726.2,-74"/>
<text text-anchor="middle" x="692.2" y="-62" font-family="Helvetica,sans-Serif" font-size="10.00">MQTTKit.h</text>
</a>
</g>
</g>
<!-- Node8&#45;&gt;Node9 -->
<g id="edge10_Node000008_Node000009" class="edge">
<title>Node8&#45;&gt;Node9</title>
<g id="a_edge10_Node000008_Node000009"><a xlink:title=" ">
<path fill="none" stroke="#63b8ff" d="M687.04,-99.66C688.36,-90.93 689.86,-80.99 690.9,-74.09"/>
<polygon fill="#63b8ff" stroke="#63b8ff" points="683.55,-99.34 685.52,-109.75 690.47,-100.38 683.55,-99.34"/>
</a>
</g>
</g>
<!-- Node11 -->
<g id="Node000011" class="node">
<title>Node11</title>
<g id="a_Node000011"><a xlink:href="_network_controller_8h.html" target="_top" xlink:title=" ">
<polygon fill="white" stroke="#666666" points="640.2,-74 526.2,-74 526.2,-55 640.2,-55 640.2,-74"/>
<text text-anchor="middle" x="583.2" y="-62" font-family="Helvetica,sans-Serif" font-size="10.00">NetworkController.h</text>
</a>
</g>
</g>
<!-- Node8&#45;&gt;Node11 -->
<g id="edge13_Node000008_Node000011" class="edge">
<title>Node8&#45;&gt;Node11</title>
<g id="a_edge13_Node000008_Node000011"><a xlink:title=" ">
<path fill="none" stroke="#63b8ff" d="M658.92,-105.23C640.39,-95.51 615.78,-82.6 599.72,-74.17"/>
<polygon fill="#63b8ff" stroke="#63b8ff" points="657.49,-108.44 667.97,-109.98 660.74,-102.24 657.49,-108.44"/>
</a>
</g>
</g>
<!-- Node9&#45;&gt;Node2 -->
<g id="edge11_Node000009_Node000002" class="edge">
<title>Node9&#45;&gt;Node2</title>
<g id="a_edge11_Node000009_Node000002"><a xlink:title=" ">
<path fill="none" stroke="#63b8ff" d="M658.15,-51.55C630.11,-41.71 591.01,-27.98 565.9,-19.17"/>
<polygon fill="#63b8ff" stroke="#63b8ff" points="657.34,-54.98 667.94,-54.98 659.66,-48.37 657.34,-54.98"/>
</a>
</g>
</g>
<!-- Node10 -->
<g id="Node000010" class="node">
<title>Node10</title>
<g id="a_Node000010"><a xlink:href="_m_q_t_t_device_8cpp.html" target="_top" xlink:title=" ">
<polygon fill="white" stroke="#666666" points="741.7,-19 642.7,-19 642.7,0 741.7,0 741.7,-19"/>
<text text-anchor="middle" x="692.2" y="-7" font-family="Helvetica,sans-Serif" font-size="10.00">MQTTDevice.cpp</text>
</a>
</g>
</g>
<!-- Node9&#45;&gt;Node10 -->
<g id="edge12_Node000009_Node000010" class="edge">
<title>Node9&#45;&gt;Node10</title>
<g id="a_edge12_Node000009_Node000010"><a xlink:title=" ">
<path fill="none" stroke="#63b8ff" d="M692.2,-44.66C692.2,-35.93 692.2,-25.99 692.2,-19.09"/>
<polygon fill="#63b8ff" stroke="#63b8ff" points="688.7,-44.75 692.2,-54.75 695.7,-44.75 688.7,-44.75"/>
</a>
</g>
</g>
<!-- Node11&#45;&gt;Node2 -->
<g id="edge14_Node000011_Node000002" class="edge">
<title>Node11&#45;&gt;Node2</title>
<g id="a_edge14_Node000011_Node000002"><a xlink:title=" ">
<path fill="none" stroke="#63b8ff" d="M569.86,-46.67C562.59,-37.5 553.9,-26.52 548,-19.09"/>
<polygon fill="#63b8ff" stroke="#63b8ff" points="567.31,-49.08 576.26,-54.75 572.79,-44.74 567.31,-49.08"/>
</a>
</g>
</g>
<!-- Node13 -->
<g id="Node000013" class="node">
<title>Node13</title>
<g id="a_Node000013"><a xlink:href="_uniot_8cpp.html" target="_top" xlink:title=" ">
<polygon fill="white" stroke="#666666" points="816.7,-74 753.7,-74 753.7,-55 816.7,-55 816.7,-74"/>
<text text-anchor="middle" x="785.2" y="-62" font-family="Helvetica,sans-Serif" font-size="10.00">Uniot.cpp</text>
</a>
</g>
</g>
<!-- Node12&#45;&gt;Node13 -->
<g id="edge16_Node000012_Node000013" class="edge">
<title>Node12&#45;&gt;Node13</title>
<g id="a_edge16_Node000012_Node000013"><a xlink:title=" ">
<path fill="none" stroke="#63b8ff" d="M785.2,-99.66C785.2,-90.93 785.2,-80.99 785.2,-74.09"/>
<polygon fill="#63b8ff" stroke="#63b8ff" points="781.7,-99.75 785.2,-109.75 788.7,-99.75 781.7,-99.75"/>
</a>
</g>
</g>
</g>
</svg>
