<?xml version="1.0" encoding="UTF-8" standalone="no"?>
<!DOCTYPE svg PUBLIC "-//W3C//DTD SVG 1.1//EN"
 "http://www.w3.org/Graphics/SVG/1.1/DTD/svg11.dtd">
<!-- Generated by graphviz version 2.43.0 (0)
 -->
<!-- Title: EventBus.cpp Pages: 1 -->
<svg width="795pt" height="357pt"
 viewBox="0.00 0.00 795.25 357.00" xmlns="http://www.w3.org/2000/svg" xmlns:xlink="http://www.w3.org/1999/xlink">
<g id="graph0" class="graph" transform="scale(1 1) rotate(0) translate(4 353)">
<title>EventBus.cpp</title>
<!-- Node1 -->
<g id="Node000001" class="node">
<title>Node1</title>
<g id="a_Node000001"><a xlink:title=" ">
<polygon fill="#999999" stroke="#666666" points="613.75,-349 530.75,-349 530.75,-330 613.75,-330 613.75,-349"/>
<text text-anchor="middle" x="572.25" y="-337" font-family="Helvetica,sans-Serif" font-size="10.00">EventBus.cpp</text>
</a>
</g>
</g>
<!-- Node2 -->
<g id="Node000002" class="node">
<title>Node2</title>
<g id="a_Node000002"><a xlink:href="_event_bus_8h.html" target="_top" xlink:title=" ">
<polygon fill="white" stroke="#666666" points="208.75,-294 137.75,-294 137.75,-275 208.75,-275 208.75,-294"/>
<text text-anchor="middle" x="173.25" y="-282" font-family="Helvetica,sans-Serif" font-size="10.00">EventBus.h</text>
</a>
</g>
</g>
<!-- Node1&#45;&gt;Node2 -->
<g id="edge1_Node000001_Node000002" class="edge">
<title>Node1&#45;&gt;Node2</title>
<g id="a_edge1_Node000001_Node000002"><a xlink:title=" ">
<path fill="none" stroke="#63b8ff" d="M530.68,-332.98C455.42,-322.98 297.15,-301.96 218.95,-291.57"/>
<polygon fill="#63b8ff" stroke="#63b8ff" points="219.3,-288.09 208.92,-290.24 218.37,-295.02 219.3,-288.09"/>
</a>
</g>
</g>
<!-- Node8 -->
<g id="Node000008" class="node">
<title>Node8</title>
<g id="a_Node000008"><a xlink:title=" ">
<polygon fill="#e0e0e0" stroke="#999999" points="685.75,-19 622.75,-19 622.75,0 685.75,0 685.75,-19"/>
<text text-anchor="middle" x="654.25" y="-7" font-family="Helvetica,sans-Serif" font-size="10.00">Arduino.h</text>
</a>
</g>
</g>
<!-- Node1&#45;&gt;Node8 -->
<g id="edge25_Node000001_Node000008" class="edge">
<title>Node1&#45;&gt;Node8</title>
<g id="a_edge25_Node000001_Node000008"><a xlink:title=" ">
<path fill="none" stroke="#63b8ff" d="M613.96,-335.89C676.48,-329.47 787.25,-307.25 787.25,-230.5 787.25,-230.5 787.25,-230.5 787.25,-118.5 787.25,-68.87 730.74,-38.05 691.4,-22.61"/>
<polygon fill="#63b8ff" stroke="#63b8ff" points="692.4,-19.25 681.81,-19.02 689.94,-25.8 692.4,-19.25"/>
</a>
</g>
</g>
<!-- Node19 -->
<g id="Node000019" class="node">
<title>Node19</title>
<g id="a_Node000019"><a xlink:href="_event_emitter_8h.html" target="_top" xlink:title=" ">
<polygon fill="white" stroke="#666666" points="616.75,-239 527.75,-239 527.75,-220 616.75,-220 616.75,-239"/>
<text text-anchor="middle" x="572.25" y="-227" font-family="Helvetica,sans-Serif" font-size="10.00">EventEmitter.h</text>
</a>
</g>
</g>
<!-- Node1&#45;&gt;Node19 -->
<g id="edge26_Node000001_Node000019" class="edge">
<title>Node1&#45;&gt;Node19</title>
<g id="a_edge26_Node000001_Node000019"><a xlink:title=" ">
<path fill="none" stroke="#63b8ff" d="M572.25,-329.66C572.25,-312.17 572.25,-272.8 572.25,-249.27"/>
<polygon fill="#63b8ff" stroke="#63b8ff" points="575.75,-249.16 572.25,-239.16 568.75,-249.16 575.75,-249.16"/>
</a>
</g>
</g>
<!-- Node20 -->
<g id="Node000020" class="node">
<title>Node20</title>
<g id="a_Node000020"><a xlink:href="_event_entity_8h.html" target="_top" xlink:title=" ">
<polygon fill="white" stroke="#666666" points="685.25,-184 605.25,-184 605.25,-165 685.25,-165 685.25,-184"/>
<text text-anchor="middle" x="645.25" y="-172" font-family="Helvetica,sans-Serif" font-size="10.00">EventEntity.h</text>
</a>
</g>
</g>
<!-- Node1&#45;&gt;Node20 -->
<g id="edge33_Node000001_Node000020" class="edge">
<title>Node1&#45;&gt;Node20</title>
<g id="a_edge33_Node000001_Node000020"><a xlink:title=" ">
<path fill="none" stroke="#63b8ff" d="M577.8,-329.75C588.39,-312.79 611.69,-274.03 626.25,-239 632.33,-224.37 637.36,-207.11 640.72,-194.28"/>
<polygon fill="#63b8ff" stroke="#63b8ff" points="644.18,-194.88 643.22,-184.33 637.39,-193.17 644.18,-194.88"/>
</a>
</g>
</g>
<!-- Node22 -->
<g id="Node000022" class="node">
<title>Node22</title>
<g id="a_Node000022"><a xlink:href="_event_listener_8h.html" target="_top" xlink:title=" ">
<polygon fill="white" stroke="#666666" points="544.25,-294 452.25,-294 452.25,-275 544.25,-275 544.25,-294"/>
<text text-anchor="middle" x="498.25" y="-282" font-family="Helvetica,sans-Serif" font-size="10.00">EventListener.h</text>
</a>
</g>
</g>
<!-- Node1&#45;&gt;Node22 -->
<g id="edge34_Node000001_Node000022" class="edge">
<title>Node1&#45;&gt;Node22</title>
<g id="a_edge34_Node000001_Node000022"><a xlink:title=" ">
<path fill="none" stroke="#63b8ff" d="M560.36,-329.98C549.1,-321.92 531.96,-309.65 518.54,-300.03"/>
<polygon fill="#63b8ff" stroke="#63b8ff" points="520.52,-297.15 510.35,-294.17 516.45,-302.84 520.52,-297.15"/>
</a>
</g>
</g>
<!-- Node3 -->
<g id="Node000003" class="node">
<title>Node3</title>
<g id="a_Node000003"><a xlink:href="_bytes_8h.html" target="_top" xlink:title=" ">
<polygon fill="white" stroke="#666666" points="449.75,-184 396.75,-184 396.75,-165 449.75,-165 449.75,-184"/>
<text text-anchor="middle" x="423.25" y="-172" font-family="Helvetica,sans-Serif" font-size="10.00">Bytes.h</text>
</a>
</g>
</g>
<!-- Node2&#45;&gt;Node3 -->
<g id="edge2_Node000002_Node000003" class="edge">
<title>Node2&#45;&gt;Node3</title>
<g id="a_edge2_Node000002_Node000003"><a xlink:title=" ">
<path fill="none" stroke="#63b8ff" d="M209.08,-281.68C249.73,-278.22 316.79,-268.18 366.25,-239 385.72,-227.52 402.23,-207.16 412.39,-192.59"/>
<polygon fill="#63b8ff" stroke="#63b8ff" points="415.48,-194.27 418.12,-184.01 409.66,-190.38 415.48,-194.27"/>
</a>
</g>
</g>
<!-- Node12 -->
<g id="Node000012" class="node">
<title>Node12</title>
<g id="a_Node000012"><a xlink:href="_clear_queue_8h.html" target="_top" xlink:title=" ">
<polygon fill="white" stroke="#666666" points="231.75,-74 148.75,-74 148.75,-55 231.75,-55 231.75,-74"/>
<text text-anchor="middle" x="190.25" y="-62" font-family="Helvetica,sans-Serif" font-size="10.00">ClearQueue.h</text>
</a>
</g>
</g>
<!-- Node2&#45;&gt;Node12 -->
<g id="edge11_Node000002_Node000012" class="edge">
<title>Node2&#45;&gt;Node12</title>
<g id="a_edge11_Node000002_Node000012"><a xlink:title=" ">
<path fill="none" stroke="#63b8ff" d="M137.61,-283.71C81,-282.48 -20.65,-273.06 4.25,-220 37.08,-150.05 118.87,-100.81 162.23,-78.67"/>
<polygon fill="#63b8ff" stroke="#63b8ff" points="163.98,-81.7 171.37,-74.11 160.86,-75.44 163.98,-81.7"/>
</a>
</g>
</g>
<!-- Node13 -->
<g id="Node000013" class="node">
<title>Node13</title>
<g id="a_Node000013"><a xlink:href="_data_channels_8h.html" target="_top" xlink:title=" ">
<polygon fill="white" stroke="#666666" points="357.25,-239 263.25,-239 263.25,-220 357.25,-220 357.25,-239"/>
<text text-anchor="middle" x="310.25" y="-227" font-family="Helvetica,sans-Serif" font-size="10.00">DataChannels.h</text>
</a>
</g>
</g>
<!-- Node2&#45;&gt;Node13 -->
<g id="edge14_Node000002_Node000013" class="edge">
<title>Node2&#45;&gt;Node13</title>
<g id="a_edge14_Node000002_Node000013"><a xlink:title=" ">
<path fill="none" stroke="#63b8ff" d="M195.26,-274.98C217.7,-266.3 252.73,-252.75 278.24,-242.88"/>
<polygon fill="#63b8ff" stroke="#63b8ff" points="279.77,-246.04 287.84,-239.17 277.25,-239.51 279.77,-246.04"/>
</a>
</g>
</g>
<!-- Node17 -->
<g id="Node000017" class="node">
<title>Node17</title>
<g id="a_Node000017"><a xlink:href="_i_executor_8h.html" target="_top" xlink:title=" ">
<polygon fill="white" stroke="#666666" points="83.25,-239 13.25,-239 13.25,-220 83.25,-220 83.25,-239"/>
<text text-anchor="middle" x="48.25" y="-227" font-family="Helvetica,sans-Serif" font-size="10.00">IExecutor.h</text>
</a>
</g>
</g>
<!-- Node2&#45;&gt;Node17 -->
<g id="edge22_Node000002_Node000017" class="edge">
<title>Node2&#45;&gt;Node17</title>
<g id="a_edge22_Node000002_Node000017"><a xlink:title=" ">
<path fill="none" stroke="#63b8ff" d="M153.16,-274.98C132.87,-266.38 101.29,-252.99 78.08,-243.15"/>
<polygon fill="#63b8ff" stroke="#63b8ff" points="79.27,-239.85 68.7,-239.17 76.54,-246.3 79.27,-239.85"/>
</a>
</g>
</g>
<!-- Node18 -->
<g id="Node000018" class="node">
<title>Node18</title>
<g id="a_Node000018"><a xlink:href="_i_event_bus_connection_kit_8h.html" target="_top" xlink:title="Defines the interface for components that can connect to an EventBus.">
<polygon fill="white" stroke="#666666" points="244.75,-239 101.75,-239 101.75,-220 244.75,-220 244.75,-239"/>
<text text-anchor="middle" x="173.25" y="-227" font-family="Helvetica,sans-Serif" font-size="10.00">IEventBusConnectionKit.h</text>
</a>
</g>
</g>
<!-- Node2&#45;&gt;Node18 -->
<g id="edge23_Node000002_Node000018" class="edge">
<title>Node2&#45;&gt;Node18</title>
<g id="a_edge23_Node000002_Node000018"><a xlink:title=" ">
<path fill="none" stroke="#63b8ff" d="M168.08,-274.75C166.59,-267.8 166.15,-257.85 166.77,-249.13"/>
<polygon fill="#63b8ff" stroke="#63b8ff" points="170.26,-249.47 168.12,-239.09 163.32,-248.53 170.26,-249.47"/>
</a>
</g>
</g>
<!-- Node4 -->
<g id="Node000004" class="node">
<title>Node4</title>
<g id="a_Node000004"><a xlink:href="_common_8h.html" target="_top" xlink:title=" ">
<polygon fill="white" stroke="#666666" points="323.25,-129 253.25,-129 253.25,-110 323.25,-110 323.25,-129"/>
<text text-anchor="middle" x="288.25" y="-117" font-family="Helvetica,sans-Serif" font-size="10.00">Common.h</text>
</a>
</g>
</g>
<!-- Node3&#45;&gt;Node4 -->
<g id="edge3_Node000003_Node000004" class="edge">
<title>Node3&#45;&gt;Node4</title>
<g id="a_edge3_Node000003_Node000004"><a xlink:title=" ">
<path fill="none" stroke="#63b8ff" d="M401.56,-164.98C379.45,-156.3 344.93,-142.75 319.79,-132.88"/>
<polygon fill="#63b8ff" stroke="#63b8ff" points="320.92,-129.57 310.33,-129.17 318.36,-136.08 320.92,-129.57"/>
</a>
</g>
</g>
<!-- Node7 -->
<g id="Node000007" class="node">
<title>Node7</title>
<g id="a_Node000007"><a xlink:href="_logger_8h.html" target="_top" xlink:title=" ">
<polygon fill="white" stroke="#666666" points="683.25,-129 625.25,-129 625.25,-110 683.25,-110 683.25,-129"/>
<text text-anchor="middle" x="654.25" y="-117" font-family="Helvetica,sans-Serif" font-size="10.00">Logger.h</text>
</a>
</g>
</g>
<!-- Node3&#45;&gt;Node7 -->
<g id="edge6_Node000003_Node000007" class="edge">
<title>Node3&#45;&gt;Node7</title>
<g id="a_edge6_Node000003_Node000007"><a xlink:title=" ">
<path fill="none" stroke="#63b8ff" d="M450.2,-167.32C490.89,-157.98 568.23,-140.24 615.13,-129.48"/>
<polygon fill="#63b8ff" stroke="#63b8ff" points="615.97,-132.87 624.93,-127.23 614.4,-126.05 615.97,-132.87"/>
</a>
</g>
</g>
<!-- Node9 -->
<g id="Node000009" class="node">
<title>Node9</title>
<g id="a_Node000009"><a xlink:title=" ">
<polygon fill="#e0e0e0" stroke="#999999" points="493.25,-129 429.25,-129 429.25,-110 493.25,-110 493.25,-129"/>
<text text-anchor="middle" x="461.25" y="-117" font-family="Helvetica,sans-Serif" font-size="10.00">WString.h</text>
</a>
</g>
</g>
<!-- Node3&#45;&gt;Node9 -->
<g id="edge8_Node000003_Node000009" class="edge">
<title>Node3&#45;&gt;Node9</title>
<g id="a_edge8_Node000003_Node000009"><a xlink:title=" ">
<path fill="none" stroke="#63b8ff" d="M429.52,-164.75C434.84,-157.34 442.6,-146.5 449.12,-137.41"/>
<polygon fill="#63b8ff" stroke="#63b8ff" points="452.11,-139.26 455.09,-129.09 446.42,-135.18 452.11,-139.26"/>
</a>
</g>
</g>
<!-- Node10 -->
<g id="Node000010" class="node">
<title>Node10</title>
<g id="a_Node000010"><a xlink:title=" ">
<polygon fill="#e0e0e0" stroke="#999999" points="104.75,-19 39.75,-19 39.75,0 104.75,0 104.75,-19"/>
<text text-anchor="middle" x="72.25" y="-7" font-family="Helvetica,sans-Serif" font-size="10.00">functional</text>
</a>
</g>
</g>
<!-- Node3&#45;&gt;Node10 -->
<g id="edge9_Node000003_Node000010" class="edge">
<title>Node3&#45;&gt;Node10</title>
<g id="a_edge9_Node000003_Node000010"><a xlink:title=" ">
<path fill="none" stroke="#63b8ff" d="M396.56,-168.93C361.05,-162.39 296.63,-148.9 244.25,-129 195,-110.29 182.11,-104.63 139.25,-74 119.6,-59.95 99.86,-40.44 86.95,-26.76"/>
<polygon fill="#63b8ff" stroke="#63b8ff" points="89.22,-24.06 79.86,-19.1 84.08,-28.81 89.22,-24.06"/>
</a>
</g>
</g>
<!-- Node11 -->
<g id="Node000011" class="node">
<title>Node11</title>
<g id="a_Node000011"><a xlink:title=" ">
<polygon fill="#e0e0e0" stroke="#999999" points="410.75,-129 341.75,-129 341.75,-110 410.75,-110 410.75,-129"/>
<text text-anchor="middle" x="376.25" y="-117" font-family="Helvetica,sans-Serif" font-size="10.00">type_traits</text>
</a>
</g>
</g>
<!-- Node3&#45;&gt;Node11 -->
<g id="edge10_Node000003_Node000011" class="edge">
<title>Node3&#45;&gt;Node11</title>
<g id="a_edge10_Node000003_Node000011"><a xlink:title=" ">
<path fill="none" stroke="#63b8ff" d="M415.49,-164.75C408.78,-157.18 398.91,-146.05 390.74,-136.84"/>
<polygon fill="#63b8ff" stroke="#63b8ff" points="393.12,-134.25 383.86,-129.09 387.88,-138.89 393.12,-134.25"/>
</a>
</g>
</g>
<!-- Node5 -->
<g id="Node000005" class="node">
<title>Node5</title>
<g id="a_Node000005"><a xlink:title=" ">
<polygon fill="#e0e0e0" stroke="#999999" points="311.25,-74 253.25,-74 253.25,-55 311.25,-55 311.25,-74"/>
<text text-anchor="middle" x="282.25" y="-62" font-family="Helvetica,sans-Serif" font-size="10.00">memory</text>
</a>
</g>
</g>
<!-- Node4&#45;&gt;Node5 -->
<g id="edge4_Node000004_Node000005" class="edge">
<title>Node4&#45;&gt;Node5</title>
<g id="a_edge4_Node000004_Node000005"><a xlink:title=" ">
<path fill="none" stroke="#63b8ff" d="M287.26,-109.75C286.47,-102.8 285.34,-92.85 284.36,-84.13"/>
<polygon fill="#63b8ff" stroke="#63b8ff" points="287.82,-83.63 283.22,-74.09 280.87,-84.42 287.82,-83.63"/>
</a>
</g>
</g>
<!-- Node6 -->
<g id="Node000006" class="node">
<title>Node6</title>
<g id="a_Node000006"><a xlink:title=" ">
<polygon fill="#e0e0e0" stroke="#999999" points="374.75,-74 329.75,-74 329.75,-55 374.75,-55 374.75,-74"/>
<text text-anchor="middle" x="352.25" y="-62" font-family="Helvetica,sans-Serif" font-size="10.00">utility</text>
</a>
</g>
</g>
<!-- Node4&#45;&gt;Node6 -->
<g id="edge5_Node000004_Node000006" class="edge">
<title>Node4&#45;&gt;Node6</title>
<g id="a_edge5_Node000004_Node000006"><a xlink:title=" ">
<path fill="none" stroke="#63b8ff" d="M298.53,-109.98C308.08,-102.07 322.53,-90.11 334.03,-80.58"/>
<polygon fill="#63b8ff" stroke="#63b8ff" points="336.31,-83.24 341.78,-74.17 331.84,-77.85 336.31,-83.24"/>
</a>
</g>
</g>
<!-- Node7&#45;&gt;Node8 -->
<g id="edge7_Node000007_Node000008" class="edge">
<title>Node7&#45;&gt;Node8</title>
<g id="a_edge7_Node000007_Node000008"><a xlink:title=" ">
<path fill="none" stroke="#63b8ff" d="M654.25,-109.66C654.25,-92.17 654.25,-52.8 654.25,-29.27"/>
<polygon fill="#63b8ff" stroke="#63b8ff" points="657.75,-29.16 654.25,-19.16 650.75,-29.16 657.75,-29.16"/>
</a>
</g>
</g>
<!-- Node12&#45;&gt;Node8 -->
<g id="edge12_Node000012_Node000008" class="edge">
<title>Node12&#45;&gt;Node8</title>
<g id="a_edge12_Node000012_Node000008"><a xlink:title=" ">
<path fill="none" stroke="#63b8ff" d="M231.79,-56.76C235.99,-56.13 240.2,-55.54 244.25,-55 378.36,-37.18 537.86,-21.42 612.21,-14.39"/>
<polygon fill="#63b8ff" stroke="#63b8ff" points="612.92,-17.84 622.55,-13.42 612.27,-10.87 612.92,-17.84"/>
</a>
</g>
</g>
<!-- Node12&#45;&gt;Node10 -->
<g id="edge13_Node000012_Node000010" class="edge">
<title>Node12&#45;&gt;Node10</title>
<g id="a_edge13_Node000012_Node000010"><a xlink:title=" ">
<path fill="none" stroke="#63b8ff" d="M171.29,-54.98C152.22,-46.42 122.59,-33.11 100.7,-23.28"/>
<polygon fill="#63b8ff" stroke="#63b8ff" points="102.11,-20.07 91.55,-19.17 99.24,-26.46 102.11,-20.07"/>
</a>
</g>
</g>
<!-- Node13&#45;&gt;Node3 -->
<g id="edge15_Node000013_Node000003" class="edge">
<title>Node13&#45;&gt;Node3</title>
<g id="a_edge15_Node000013_Node000003"><a xlink:title=" ">
<path fill="none" stroke="#63b8ff" d="M328.4,-219.98C346.5,-211.5 374.53,-198.35 395.44,-188.54"/>
<polygon fill="#63b8ff" stroke="#63b8ff" points="397.2,-191.59 404.76,-184.17 394.22,-185.25 397.2,-191.59"/>
</a>
</g>
</g>
<!-- Node14 -->
<g id="Node000014" class="node">
<title>Node14</title>
<g id="a_Node000014"><a xlink:href="_limited_queue_8h.html" target="_top" xlink:title=" ">
<polygon fill="white" stroke="#666666" points="234.25,-184 140.25,-184 140.25,-165 234.25,-165 234.25,-184"/>
<text text-anchor="middle" x="187.25" y="-172" font-family="Helvetica,sans-Serif" font-size="10.00">LimitedQueue.h</text>
</a>
</g>
</g>
<!-- Node13&#45;&gt;Node14 -->
<g id="edge16_Node000013_Node000014" class="edge">
<title>Node13&#45;&gt;Node14</title>
<g id="a_edge16_Node000013_Node000014"><a xlink:title=" ">
<path fill="none" stroke="#63b8ff" d="M290.49,-219.98C270.52,-211.38 239.44,-197.99 216.6,-188.15"/>
<polygon fill="#63b8ff" stroke="#63b8ff" points="217.94,-184.91 207.37,-184.17 215.17,-191.34 217.94,-184.91"/>
</a>
</g>
</g>
<!-- Node15 -->
<g id="Node000015" class="node">
<title>Node15</title>
<g id="a_Node000015"><a xlink:href="_map_8h.html" target="_top" xlink:title=" ">
<polygon fill="white" stroke="#666666" points="337.75,-184 290.75,-184 290.75,-165 337.75,-165 337.75,-184"/>
<text text-anchor="middle" x="314.25" y="-172" font-family="Helvetica,sans-Serif" font-size="10.00">Map.h</text>
</a>
</g>
</g>
<!-- Node13&#45;&gt;Node15 -->
<g id="edge18_Node000013_Node000015" class="edge">
<title>Node13&#45;&gt;Node15</title>
<g id="a_edge18_Node000013_Node000015"><a xlink:title=" ">
<path fill="none" stroke="#63b8ff" d="M310.91,-219.75C311.43,-212.8 312.18,-202.85 312.84,-194.13"/>
<polygon fill="#63b8ff" stroke="#63b8ff" points="316.34,-194.32 313.6,-184.09 309.36,-193.8 316.34,-194.32"/>
</a>
</g>
</g>
<!-- Node14&#45;&gt;Node12 -->
<g id="edge17_Node000014_Node000012" class="edge">
<title>Node14&#45;&gt;Node12</title>
<g id="a_edge17_Node000014_Node000012"><a xlink:title=" ">
<path fill="none" stroke="#63b8ff" d="M187.49,-164.66C187.98,-147.17 189.07,-107.8 189.73,-84.27"/>
<polygon fill="#63b8ff" stroke="#63b8ff" points="193.23,-84.25 190.01,-74.16 186.23,-84.06 193.23,-84.25"/>
</a>
</g>
</g>
<!-- Node15&#45;&gt;Node4 -->
<g id="edge19_Node000015_Node000004" class="edge">
<title>Node15&#45;&gt;Node4</title>
<g id="a_edge19_Node000015_Node000004"><a xlink:title=" ">
<path fill="none" stroke="#63b8ff" d="M309.95,-164.75C306.43,-157.57 301.34,-147.18 296.96,-138.27"/>
<polygon fill="#63b8ff" stroke="#63b8ff" points="300.01,-136.53 292.46,-129.09 293.72,-139.61 300.01,-136.53"/>
</a>
</g>
</g>
<!-- Node16 -->
<g id="Node000016" class="node">
<title>Node16</title>
<g id="a_Node000016"><a xlink:href="_iterable_queue_8h.html" target="_top" xlink:title=" ">
<polygon fill="white" stroke="#666666" points="606.75,-129 511.75,-129 511.75,-110 606.75,-110 606.75,-129"/>
<text text-anchor="middle" x="559.25" y="-117" font-family="Helvetica,sans-Serif" font-size="10.00">IterableQueue.h</text>
</a>
</g>
</g>
<!-- Node15&#45;&gt;Node16 -->
<g id="edge20_Node000015_Node000016" class="edge">
<title>Node15&#45;&gt;Node16</title>
<g id="a_edge20_Node000015_Node000016"><a xlink:title=" ">
<path fill="none" stroke="#63b8ff" d="M338.19,-168.32C377.69,-159.77 457.36,-142.54 509.48,-131.27"/>
<polygon fill="#63b8ff" stroke="#63b8ff" points="510.48,-134.63 519.52,-129.1 509,-127.79 510.48,-134.63"/>
</a>
</g>
</g>
<!-- Node16&#45;&gt;Node12 -->
<g id="edge21_Node000016_Node000012" class="edge">
<title>Node16&#45;&gt;Node12</title>
<g id="a_edge21_Node000016_Node000012"><a xlink:title=" ">
<path fill="none" stroke="#63b8ff" d="M511.67,-111.37C508.48,-110.9 505.32,-110.44 502.25,-110 387.66,-93.46 358.77,-91 244.25,-74 243.49,-73.89 242.73,-73.77 241.96,-73.66"/>
<polygon fill="#63b8ff" stroke="#63b8ff" points="242.22,-70.16 231.81,-72.12 241.17,-77.08 242.22,-70.16"/>
</a>
</g>
</g>
<!-- Node18&#45;&gt;Node2 -->
<g id="edge24_Node000018_Node000002" class="edge">
<title>Node18&#45;&gt;Node2</title>
<g id="a_edge24_Node000018_Node000002"><a xlink:title=" ">
<path fill="none" stroke="#63b8ff" d="M178.38,-239.09C179.89,-245.99 180.34,-255.93 179.74,-264.66"/>
<polygon fill="#63b8ff" stroke="#63b8ff" points="176.25,-264.38 178.41,-274.75 183.19,-265.29 176.25,-264.38"/>
</a>
</g>
</g>
<!-- Node19&#45;&gt;Node3 -->
<g id="edge27_Node000019_Node000003" class="edge">
<title>Node19&#45;&gt;Node3</title>
<g id="a_edge27_Node000019_Node000003"><a xlink:title=" ">
<path fill="none" stroke="#63b8ff" d="M548.31,-219.98C523.69,-211.23 485.13,-197.51 457.33,-187.62"/>
<polygon fill="#63b8ff" stroke="#63b8ff" points="458.22,-184.22 447.62,-184.17 455.87,-190.82 458.22,-184.22"/>
</a>
</g>
</g>
<!-- Node19&#45;&gt;Node16 -->
<g id="edge28_Node000019_Node000016" class="edge">
<title>Node19&#45;&gt;Node16</title>
<g id="a_edge28_Node000019_Node000016"><a xlink:title=" ">
<path fill="none" stroke="#63b8ff" d="M571.18,-219.66C569.08,-202.17 564.34,-162.8 561.51,-139.27"/>
<polygon fill="#63b8ff" stroke="#63b8ff" points="564.96,-138.67 560.29,-129.16 558.01,-139.51 564.96,-138.67"/>
</a>
</g>
</g>
<!-- Node19&#45;&gt;Node20 -->
<g id="edge29_Node000019_Node000020" class="edge">
<title>Node19&#45;&gt;Node20</title>
<g id="a_edge29_Node000019_Node000020"><a xlink:title=" ">
<path fill="none" stroke="#63b8ff" d="M583.98,-219.98C594.98,-212 611.67,-199.88 624.85,-190.31"/>
<polygon fill="#63b8ff" stroke="#63b8ff" points="627.27,-192.88 633.31,-184.17 623.16,-187.21 627.27,-192.88"/>
</a>
</g>
</g>
<!-- Node20&#45;&gt;Node7 -->
<g id="edge31_Node000020_Node000007" class="edge">
<title>Node20&#45;&gt;Node7</title>
<g id="a_edge31_Node000020_Node000007"><a xlink:title=" ">
<path fill="none" stroke="#63b8ff" d="M646.73,-164.75C647.91,-157.8 649.6,-147.85 651.08,-139.13"/>
<polygon fill="#63b8ff" stroke="#63b8ff" points="654.57,-139.53 652.79,-129.09 647.66,-138.36 654.57,-139.53"/>
</a>
</g>
</g>
<!-- Node20&#45;&gt;Node16 -->
<g id="edge30_Node000020_Node000016" class="edge">
<title>Node20&#45;&gt;Node16</title>
<g id="a_edge30_Node000020_Node000016"><a xlink:title=" ">
<path fill="none" stroke="#63b8ff" d="M631.43,-164.98C618.09,-156.77 597.67,-144.18 581.94,-134.49"/>
<polygon fill="#63b8ff" stroke="#63b8ff" points="583.67,-131.44 573.32,-129.17 579.99,-137.4 583.67,-131.44"/>
</a>
</g>
</g>
<!-- Node21 -->
<g id="Node000021" class="node">
<title>Node21</title>
<g id="a_Node000021"><a xlink:href="_type_id_8h.html" target="_top" xlink:title=" ">
<polygon fill="white" stroke="#666666" points="758.75,-129 701.75,-129 701.75,-110 758.75,-110 758.75,-129"/>
<text text-anchor="middle" x="730.25" y="-117" font-family="Helvetica,sans-Serif" font-size="10.00">TypeId.h</text>
</a>
</g>
</g>
<!-- Node20&#45;&gt;Node21 -->
<g id="edge32_Node000020_Node000021" class="edge">
<title>Node20&#45;&gt;Node21</title>
<g id="a_edge32_Node000020_Node000021"><a xlink:title=" ">
<path fill="none" stroke="#63b8ff" d="M658.9,-164.98C672.09,-156.77 692.28,-144.18 707.82,-134.49"/>
<polygon fill="#63b8ff" stroke="#63b8ff" points="709.71,-137.43 716.34,-129.17 706.01,-131.49 709.71,-137.43"/>
</a>
</g>
</g>
<!-- Node22&#45;&gt;Node3 -->
<g id="edge35_Node000022_Node000003" class="edge">
<title>Node22&#45;&gt;Node3</title>
<g id="a_edge35_Node000022_Node000003"><a xlink:title=" ">
<path fill="none" stroke="#63b8ff" d="M492.11,-274.66C479.63,-256.69 451.12,-215.64 434.97,-192.38"/>
<polygon fill="#63b8ff" stroke="#63b8ff" points="437.84,-190.38 429.26,-184.16 432.09,-194.37 437.84,-190.38"/>
</a>
</g>
</g>
<!-- Node22&#45;&gt;Node12 -->
<g id="edge36_Node000022_Node000012" class="edge">
<title>Node22&#45;&gt;Node12</title>
<g id="a_edge36_Node000022_Node000012"><a xlink:title=" ">
<path fill="none" stroke="#63b8ff" d="M480.85,-274.83C455.71,-262.38 407.69,-238.84 366.25,-220 329.27,-203.19 314.39,-208.83 282.25,-184 245.13,-155.32 214.7,-108.35 199.93,-83.01"/>
<polygon fill="#63b8ff" stroke="#63b8ff" points="202.88,-81.12 194.89,-74.16 196.79,-84.58 202.88,-81.12"/>
</a>
</g>
</g>
<!-- Node22&#45;&gt;Node16 -->
<g id="edge37_Node000022_Node000016" class="edge">
<title>Node22&#45;&gt;Node16</title>
<g id="a_edge37_Node000022_Node000016"><a xlink:title=" ">
<path fill="none" stroke="#63b8ff" d="M500.93,-274.81C504.77,-262.53 512.15,-239.41 519.25,-220 529.77,-191.25 543.28,-158.38 551.6,-138.54"/>
<polygon fill="#63b8ff" stroke="#63b8ff" points="554.87,-139.79 555.53,-129.21 548.42,-137.07 554.87,-139.79"/>
</a>
</g>
</g>
<!-- Node22&#45;&gt;Node19 -->
<g id="edge38_Node000022_Node000019" class="edge">
<title>Node22&#45;&gt;Node19</title>
<g id="a_edge38_Node000022_Node000019"><a xlink:title=" ">
<path fill="none" stroke="#63b8ff" d="M510.14,-274.98C521.4,-266.92 538.53,-254.65 551.96,-245.03"/>
<polygon fill="#63b8ff" stroke="#63b8ff" points="554.05,-247.84 560.14,-239.17 549.97,-242.15 554.05,-247.84"/>
</a>
</g>
</g>
</g>
</svg>
