<?xml version="1.0" encoding="UTF-8" standalone="no"?>
<!DOCTYPE svg PUBLIC "-//W3C//DTD SVG 1.1//EN"
 "http://www.w3.org/Graphics/SVG/1.1/DTD/svg11.dtd">
<!-- Generated by graphviz version 2.43.0 (0)
 -->
<!-- Title: EventEmitter.h Pages: 1 -->
<svg width="790pt" height="247pt"
 viewBox="0.00 0.00 790.00 247.00" xmlns="http://www.w3.org/2000/svg" xmlns:xlink="http://www.w3.org/1999/xlink">
<g id="graph0" class="graph" transform="scale(1 1) rotate(0) translate(4 243)">
<title>EventEmitter.h</title>
<!-- Node1 -->
<g id="Node000001" class="node">
<title>Node1</title>
<g id="a_Node000001"><a xlink:title=" ">
<polygon fill="#999999" stroke="#666666" points="498,-239 409,-239 409,-220 498,-220 498,-239"/>
<text text-anchor="middle" x="453.5" y="-227" font-family="Helvetica,sans-Serif" font-size="10.00">EventEmitter.h</text>
</a>
</g>
</g>
<!-- Node2 -->
<g id="Node000002" class="node">
<title>Node2</title>
<g id="a_Node000002"><a xlink:href="_date_8h.html" target="_top" xlink:title=" ">
<polygon fill="white" stroke="#666666" points="671,-129 622,-129 622,-110 671,-110 671,-129"/>
<text text-anchor="middle" x="646.5" y="-117" font-family="Helvetica,sans-Serif" font-size="10.00">Date.h</text>
</a>
</g>
</g>
<!-- Node1&#45;&gt;Node2 -->
<g id="edge1_Node000001_Node000002" class="edge">
<title>Node1&#45;&gt;Node2</title>
<g id="a_edge1_Node000001_Node000002"><a xlink:title=" ">
<path fill="none" stroke="#63b8ff" d="M473.68,-214.04C492.94,-200.55 523,-180.27 550.5,-165 575.72,-151 606.11,-137.43 625.85,-129.04"/>
<polygon fill="#63b8ff" stroke="#63b8ff" points="471.54,-211.27 465.4,-219.9 475.58,-216.98 471.54,-211.27"/>
</a>
</g>
</g>
<!-- Node10 -->
<g id="Node000010" class="node">
<title>Node10</title>
<g id="a_Node000010"><a xlink:href="_event_bus_8cpp.html" target="_top" xlink:title=" ">
<polygon fill="white" stroke="#666666" points="83,-129 0,-129 0,-110 83,-110 83,-129"/>
<text text-anchor="middle" x="41.5" y="-117" font-family="Helvetica,sans-Serif" font-size="10.00">EventBus.cpp</text>
</a>
</g>
</g>
<!-- Node1&#45;&gt;Node10 -->
<g id="edge12_Node000001_Node000010" class="edge">
<title>Node1&#45;&gt;Node10</title>
<g id="a_edge12_Node000001_Node000010"><a xlink:title=" ">
<path fill="none" stroke="#63b8ff" d="M411.03,-217.37C328.52,-195.74 148.18,-148.46 74.18,-129.07"/>
<polygon fill="#63b8ff" stroke="#63b8ff" points="410.27,-220.78 420.83,-219.94 412.04,-214.01 410.27,-220.78"/>
</a>
</g>
</g>
<!-- Node11 -->
<g id="Node000011" class="node">
<title>Node11</title>
<g id="a_Node000011"><a xlink:href="_event_emitter_8cpp.html" target="_top" xlink:title=" ">
<polygon fill="white" stroke="#666666" points="503.5,-184 403.5,-184 403.5,-165 503.5,-165 503.5,-184"/>
<text text-anchor="middle" x="453.5" y="-172" font-family="Helvetica,sans-Serif" font-size="10.00">EventEmitter.cpp</text>
</a>
</g>
</g>
<!-- Node1&#45;&gt;Node11 -->
<g id="edge13_Node000001_Node000011" class="edge">
<title>Node1&#45;&gt;Node11</title>
<g id="a_edge13_Node000001_Node000011"><a xlink:title=" ">
<path fill="none" stroke="#63b8ff" d="M453.5,-209.66C453.5,-200.93 453.5,-190.99 453.5,-184.09"/>
<polygon fill="#63b8ff" stroke="#63b8ff" points="450,-209.75 453.5,-219.75 457,-209.75 450,-209.75"/>
</a>
</g>
</g>
<!-- Node12 -->
<g id="Node000012" class="node">
<title>Node12</title>
<g id="a_Node000012"><a xlink:href="_event_listener_8h.html" target="_top" xlink:title=" ">
<polygon fill="white" stroke="#666666" points="385.5,-184 293.5,-184 293.5,-165 385.5,-165 385.5,-184"/>
<text text-anchor="middle" x="339.5" y="-172" font-family="Helvetica,sans-Serif" font-size="10.00">EventListener.h</text>
</a>
</g>
</g>
<!-- Node1&#45;&gt;Node12 -->
<g id="edge14_Node000001_Node000012" class="edge">
<title>Node1&#45;&gt;Node12</title>
<g id="a_edge14_Node000001_Node000012"><a xlink:title=" ">
<path fill="none" stroke="#63b8ff" d="M426.11,-215.77C405.08,-205.99 376.61,-192.75 358.15,-184.17"/>
<polygon fill="#63b8ff" stroke="#63b8ff" points="424.64,-218.94 435.18,-219.98 427.59,-212.6 424.64,-218.94"/>
</a>
</g>
</g>
<!-- Node18 -->
<g id="Node000018" class="node">
<title>Node18</title>
<g id="a_Node000018"><a xlink:href="_network_scheduler_8h.html" target="_top" xlink:title=" ">
<polygon fill="white" stroke="#666666" points="673.5,-184 559.5,-184 559.5,-165 673.5,-165 673.5,-184"/>
<text text-anchor="middle" x="616.5" y="-172" font-family="Helvetica,sans-Serif" font-size="10.00">NetworkScheduler.h</text>
</a>
</g>
</g>
<!-- Node1&#45;&gt;Node18 -->
<g id="edge27_Node000001_Node000018" class="edge">
<title>Node1&#45;&gt;Node18</title>
<g id="a_edge27_Node000001_Node000018"><a xlink:title=" ">
<path fill="none" stroke="#63b8ff" d="M489.49,-216.8C519.91,-206.91 562.78,-192.97 590.11,-184.08"/>
<polygon fill="#63b8ff" stroke="#63b8ff" points="488.12,-213.56 479.69,-219.98 490.28,-220.22 488.12,-213.56"/>
</a>
</g>
</g>
<!-- Node3 -->
<g id="Node000003" class="node">
<title>Node3</title>
<g id="a_Node000003"><a xlink:href="_app_kit_8h.html" target="_top" xlink:title=" ">
<polygon fill="white" stroke="#666666" points="487.5,-19 429.5,-19 429.5,0 487.5,0 487.5,-19"/>
<text text-anchor="middle" x="458.5" y="-7" font-family="Helvetica,sans-Serif" font-size="10.00">AppKit.h</text>
</a>
</g>
</g>
<!-- Node2&#45;&gt;Node3 -->
<g id="edge2_Node000002_Node000003" class="edge">
<title>Node2&#45;&gt;Node3</title>
<g id="a_edge2_Node000002_Node000003"><a xlink:title=" ">
<path fill="none" stroke="#63b8ff" d="M630.89,-102.59C616.48,-88.61 593.99,-68.44 571.5,-55 544.72,-38.99 511.13,-26.62 487.57,-19.03"/>
<polygon fill="#63b8ff" stroke="#63b8ff" points="628.44,-105.09 638,-109.64 633.36,-100.12 628.44,-105.09"/>
</a>
</g>
</g>
<!-- Node4 -->
<g id="Node000004" class="node">
<title>Node4</title>
<g id="a_Node000004"><a xlink:href="_lisp_device_8h.html" target="_top" xlink:title=" ">
<polygon fill="white" stroke="#666666" points="429,-74 350,-74 350,-55 429,-55 429,-74"/>
<text text-anchor="middle" x="389.5" y="-62" font-family="Helvetica,sans-Serif" font-size="10.00">LispDevice.h</text>
</a>
</g>
</g>
<!-- Node2&#45;&gt;Node4 -->
<g id="edge3_Node000002_Node000004" class="edge">
<title>Node2&#45;&gt;Node4</title>
<g id="a_edge3_Node000002_Node000004"><a xlink:title=" ">
<path fill="none" stroke="#63b8ff" d="M611.79,-109.93C541.9,-94.35 471.77,-80.81 429.1,-72.81"/>
<polygon fill="#63b8ff" stroke="#63b8ff" points="611.13,-113.37 621.65,-112.14 612.66,-106.54 611.13,-113.37"/>
</a>
</g>
</g>
<!-- Node5 -->
<g id="Node000005" class="node">
<title>Node5</title>
<g id="a_Node000005"><a xlink:href="_m_q_t_t_kit_8h.html" target="_top" xlink:title=" ">
<polygon fill="white" stroke="#666666" points="756.5,-74 688.5,-74 688.5,-55 756.5,-55 756.5,-74"/>
<text text-anchor="middle" x="722.5" y="-62" font-family="Helvetica,sans-Serif" font-size="10.00">MQTTKit.h</text>
</a>
</g>
</g>
<!-- Node2&#45;&gt;Node5 -->
<g id="edge5_Node000002_Node000005" class="edge">
<title>Node2&#45;&gt;Node5</title>
<g id="a_edge5_Node000002_Node000005"><a xlink:title=" ">
<path fill="none" stroke="#63b8ff" d="M667.08,-104.15C680.81,-94.57 698.43,-82.29 710.07,-74.17"/>
<polygon fill="#63b8ff" stroke="#63b8ff" points="664.91,-101.39 658.71,-109.98 668.92,-107.14 664.91,-101.39"/>
</a>
</g>
</g>
<!-- Node7 -->
<g id="Node000007" class="node">
<title>Node7</title>
<g id="a_Node000007"><a xlink:href="_top_device_8h.html" target="_top" xlink:title=" ">
<polygon fill="white" stroke="#666666" points="562.5,-74 486.5,-74 486.5,-55 562.5,-55 562.5,-74"/>
<text text-anchor="middle" x="524.5" y="-62" font-family="Helvetica,sans-Serif" font-size="10.00">TopDevice.h</text>
</a>
</g>
</g>
<!-- Node2&#45;&gt;Node7 -->
<g id="edge8_Node000002_Node000007" class="edge">
<title>Node2&#45;&gt;Node7</title>
<g id="a_edge8_Node000002_Node000007"><a xlink:title=" ">
<path fill="none" stroke="#63b8ff" d="M617.49,-105.9C594.96,-96.11 564.3,-82.79 544.46,-74.17"/>
<polygon fill="#63b8ff" stroke="#63b8ff" points="616.33,-109.21 626.9,-109.98 619.12,-102.79 616.33,-109.21"/>
</a>
</g>
</g>
<!-- Node8 -->
<g id="Node000008" class="node">
<title>Node8</title>
<g id="a_Node000008"><a xlink:href="_uniot_8h.html" target="_top" xlink:title=" ">
<polygon fill="white" stroke="#666666" points="670.5,-74 618.5,-74 618.5,-55 670.5,-55 670.5,-74"/>
<text text-anchor="middle" x="644.5" y="-62" font-family="Helvetica,sans-Serif" font-size="10.00">Uniot.h</text>
</a>
</g>
</g>
<!-- Node2&#45;&gt;Node8 -->
<g id="edge10_Node000002_Node000008" class="edge">
<title>Node2&#45;&gt;Node8</title>
<g id="a_edge10_Node000002_Node000008"><a xlink:title=" ">
<path fill="none" stroke="#63b8ff" d="M645.79,-99.66C645.46,-90.93 645.08,-80.99 644.82,-74.09"/>
<polygon fill="#63b8ff" stroke="#63b8ff" points="642.3,-99.89 646.17,-109.75 649.29,-99.62 642.3,-99.89"/>
</a>
</g>
</g>
<!-- Node4&#45;&gt;Node3 -->
<g id="edge4_Node000004_Node000003" class="edge">
<title>Node4&#45;&gt;Node3</title>
<g id="a_edge4_Node000004_Node000003"><a xlink:title=" ">
<path fill="none" stroke="#63b8ff" d="M408.54,-48.88C420.96,-39.34 436.74,-27.21 447.21,-19.17"/>
<polygon fill="#63b8ff" stroke="#63b8ff" points="406.38,-46.12 400.59,-54.98 410.65,-51.67 406.38,-46.12"/>
</a>
</g>
</g>
<!-- Node5&#45;&gt;Node3 -->
<g id="edge6_Node000005_Node000003" class="edge">
<title>Node5&#45;&gt;Node3</title>
<g id="a_edge6_Node000005_Node000003"><a xlink:title=" ">
<path fill="none" stroke="#63b8ff" d="M678.26,-54.62C624.14,-43.75 534.03,-25.66 487.81,-16.38"/>
<polygon fill="#63b8ff" stroke="#63b8ff" points="677.76,-58.09 688.26,-56.63 679.14,-51.23 677.76,-58.09"/>
</a>
</g>
</g>
<!-- Node6 -->
<g id="Node000006" class="node">
<title>Node6</title>
<g id="a_Node000006"><a xlink:href="_m_q_t_t_device_8cpp.html" target="_top" xlink:title=" ">
<polygon fill="white" stroke="#666666" points="782,-19 683,-19 683,0 782,0 782,-19"/>
<text text-anchor="middle" x="732.5" y="-7" font-family="Helvetica,sans-Serif" font-size="10.00">MQTTDevice.cpp</text>
</a>
</g>
</g>
<!-- Node5&#45;&gt;Node6 -->
<g id="edge7_Node000005_Node000006" class="edge">
<title>Node5&#45;&gt;Node6</title>
<g id="a_edge7_Node000005_Node000006"><a xlink:title=" ">
<path fill="none" stroke="#63b8ff" d="M726.05,-44.66C727.7,-35.93 729.58,-25.99 730.88,-19.09"/>
<polygon fill="#63b8ff" stroke="#63b8ff" points="722.57,-44.27 724.15,-54.75 729.44,-45.57 722.57,-44.27"/>
</a>
</g>
</g>
<!-- Node7&#45;&gt;Node3 -->
<g id="edge9_Node000007_Node000003" class="edge">
<title>Node7&#45;&gt;Node3</title>
<g id="a_edge9_Node000007_Node000003"><a xlink:title=" ">
<path fill="none" stroke="#63b8ff" d="M505.95,-48.6C494.12,-39.11 479.21,-27.13 469.3,-19.17"/>
<polygon fill="#63b8ff" stroke="#63b8ff" points="503.91,-51.45 513.9,-54.98 508.29,-45.99 503.91,-51.45"/>
</a>
</g>
</g>
<!-- Node9 -->
<g id="Node000009" class="node">
<title>Node9</title>
<g id="a_Node000009"><a xlink:href="_uniot_8cpp.html" target="_top" xlink:title=" ">
<polygon fill="white" stroke="#666666" points="665,-19 602,-19 602,0 665,0 665,-19"/>
<text text-anchor="middle" x="633.5" y="-7" font-family="Helvetica,sans-Serif" font-size="10.00">Uniot.cpp</text>
</a>
</g>
</g>
<!-- Node8&#45;&gt;Node9 -->
<g id="edge11_Node000008_Node000009" class="edge">
<title>Node8&#45;&gt;Node9</title>
<g id="a_edge11_Node000008_Node000009"><a xlink:title=" ">
<path fill="none" stroke="#63b8ff" d="M640.65,-44.95C638.82,-36.15 636.73,-26.06 635.28,-19.09"/>
<polygon fill="#63b8ff" stroke="#63b8ff" points="637.22,-45.67 642.68,-54.75 644.08,-44.25 637.22,-45.67"/>
</a>
</g>
</g>
<!-- Node12&#45;&gt;Node4 -->
<g id="edge20_Node000012_Node000004" class="edge">
<title>Node12&#45;&gt;Node4</title>
<g id="a_edge20_Node000012_Node000004"><a xlink:title=" ">
<path fill="none" stroke="#63b8ff" d="M343.41,-154.92C346.53,-141.94 351.54,-124.43 358.5,-110 364.97,-96.6 375.26,-82.79 382.19,-74.18"/>
<polygon fill="#63b8ff" stroke="#63b8ff" points="339.93,-154.44 341.15,-164.97 346.76,-155.98 339.93,-154.44"/>
</a>
</g>
</g>
<!-- Node12&#45;&gt;Node5 -->
<g id="edge21_Node000012_Node000005" class="edge">
<title>Node12&#45;&gt;Node5</title>
<g id="a_edge21_Node000012_Node000005"><a xlink:title=" ">
<path fill="none" stroke="#63b8ff" d="M396,-164.99C472.81,-156.63 628.53,-161.28 680.5,-129 701.38,-116.03 714.09,-88.38 719.48,-74.24"/>
<polygon fill="#63b8ff" stroke="#63b8ff" points="395.2,-161.56 385.7,-166.26 396.05,-168.51 395.2,-161.56"/>
</a>
</g>
</g>
<!-- Node12&#45;&gt;Node10 -->
<g id="edge18_Node000012_Node000010" class="edge">
<title>Node12&#45;&gt;Node10</title>
<g id="a_edge18_Node000012_Node000010"><a xlink:title=" ">
<path fill="none" stroke="#63b8ff" d="M283.12,-163.47C224.82,-153.1 135.17,-137.16 83.03,-127.89"/>
<polygon fill="#63b8ff" stroke="#63b8ff" points="282.81,-166.97 293.26,-165.28 284.03,-160.08 282.81,-166.97"/>
</a>
</g>
</g>
<!-- Node13 -->
<g id="Node000013" class="node">
<title>Node13</title>
<g id="a_Node000013"><a xlink:href="_callback_event_listener_8h.html" target="_top" xlink:title=" ">
<polygon fill="white" stroke="#666666" points="235.5,-129 101.5,-129 101.5,-110 235.5,-110 235.5,-129"/>
<text text-anchor="middle" x="168.5" y="-117" font-family="Helvetica,sans-Serif" font-size="10.00">CallbackEventListener.h</text>
</a>
</g>
</g>
<!-- Node12&#45;&gt;Node13 -->
<g id="edge15_Node000012_Node000013" class="edge">
<title>Node12&#45;&gt;Node13</title>
<g id="a_edge15_Node000012_Node000013"><a xlink:title=" ">
<path fill="none" stroke="#63b8ff" d="M302.16,-161.93C270.22,-152.03 224.98,-138.01 196.19,-129.08"/>
<polygon fill="#63b8ff" stroke="#63b8ff" points="301.44,-165.37 312.03,-164.98 303.51,-158.68 301.44,-165.37"/>
</a>
</g>
</g>
<!-- Node15 -->
<g id="Node000015" class="node">
<title>Node15</title>
<g id="a_Node000015"><a xlink:href="_event_listener_8cpp.html" target="_top" xlink:title=" ">
<polygon fill="white" stroke="#666666" points="471,-129 368,-129 368,-110 471,-110 471,-129"/>
<text text-anchor="middle" x="419.5" y="-117" font-family="Helvetica,sans-Serif" font-size="10.00">EventListener.cpp</text>
</a>
</g>
</g>
<!-- Node12&#45;&gt;Node15 -->
<g id="edge19_Node000012_Node000015" class="edge">
<title>Node12&#45;&gt;Node15</title>
<g id="a_edge19_Node000012_Node000015"><a xlink:title=" ">
<path fill="none" stroke="#63b8ff" d="M360.75,-159.42C375.26,-149.81 394.04,-137.37 406.41,-129.17"/>
<polygon fill="#63b8ff" stroke="#63b8ff" points="358.76,-156.54 352.35,-164.98 362.62,-162.38 358.76,-156.54"/>
</a>
</g>
</g>
<!-- Node16 -->
<g id="Node000016" class="node">
<title>Node16</title>
<g id="a_Node000016"><a xlink:href="_network_controller_8h.html" target="_top" xlink:title=" ">
<polygon fill="white" stroke="#666666" points="603.5,-129 489.5,-129 489.5,-110 603.5,-110 603.5,-129"/>
<text text-anchor="middle" x="546.5" y="-117" font-family="Helvetica,sans-Serif" font-size="10.00">NetworkController.h</text>
</a>
</g>
</g>
<!-- Node12&#45;&gt;Node16 -->
<g id="edge22_Node000012_Node000016" class="edge">
<title>Node12&#45;&gt;Node16</title>
<g id="a_edge22_Node000012_Node000016"><a xlink:title=" ">
<path fill="none" stroke="#63b8ff" d="M382.71,-162.44C421.46,-152.52 477.53,-138.16 512.98,-129.08"/>
<polygon fill="#63b8ff" stroke="#63b8ff" points="381.58,-159.11 372.76,-164.98 383.31,-165.89 381.58,-159.11"/>
</a>
</g>
</g>
<!-- Node17 -->
<g id="Node000017" class="node">
<title>Node17</title>
<g id="a_Node000017"><a xlink:href="un_lisp_8h.html" target="_top" xlink:title=" ">
<polygon fill="white" stroke="#666666" points="311,-129 254,-129 254,-110 311,-110 311,-129"/>
<text text-anchor="middle" x="282.5" y="-117" font-family="Helvetica,sans-Serif" font-size="10.00">unLisp.h</text>
</a>
</g>
</g>
<!-- Node12&#45;&gt;Node17 -->
<g id="edge24_Node000012_Node000017" class="edge">
<title>Node12&#45;&gt;Node17</title>
<g id="a_edge24_Node000012_Node000017"><a xlink:title=" ">
<path fill="none" stroke="#63b8ff" d="M322.88,-158.04C312.77,-148.64 300.22,-136.98 291.82,-129.17"/>
<polygon fill="#63b8ff" stroke="#63b8ff" points="320.64,-160.74 330.34,-164.98 325.4,-155.61 320.64,-160.74"/>
</a>
</g>
</g>
<!-- Node13&#45;&gt;Node3 -->
<g id="edge16_Node000013_Node000003" class="edge">
<title>Node13&#45;&gt;Node3</title>
<g id="a_edge16_Node000013_Node000003"><a xlink:title=" ">
<path fill="none" stroke="#63b8ff" d="M195.99,-105.58C225.26,-92.08 273.11,-70.7 315.5,-55 354.39,-40.6 400.33,-26.87 429.44,-18.56"/>
<polygon fill="#63b8ff" stroke="#63b8ff" points="194.41,-102.46 186.81,-109.84 197.35,-108.81 194.41,-102.46"/>
</a>
</g>
</g>
<!-- Node14 -->
<g id="Node000014" class="node">
<title>Node14</title>
<g id="a_Node000014"><a xlink:href="_callback_event_listener_8cpp.html" target="_top" xlink:title=" ">
<polygon fill="white" stroke="#666666" points="241,-74 96,-74 96,-55 241,-55 241,-74"/>
<text text-anchor="middle" x="168.5" y="-62" font-family="Helvetica,sans-Serif" font-size="10.00">CallbackEventListener.cpp</text>
</a>
</g>
</g>
<!-- Node13&#45;&gt;Node14 -->
<g id="edge17_Node000013_Node000014" class="edge">
<title>Node13&#45;&gt;Node14</title>
<g id="a_edge17_Node000013_Node000014"><a xlink:title=" ">
<path fill="none" stroke="#63b8ff" d="M168.5,-99.66C168.5,-90.93 168.5,-80.99 168.5,-74.09"/>
<polygon fill="#63b8ff" stroke="#63b8ff" points="165,-99.75 168.5,-109.75 172,-99.75 165,-99.75"/>
</a>
</g>
</g>
<!-- Node16&#45;&gt;Node3 -->
<g id="edge23_Node000016_Node000003" class="edge">
<title>Node16&#45;&gt;Node3</title>
<g id="a_edge23_Node000016_Node000003"><a xlink:title=" ">
<path fill="none" stroke="#63b8ff" d="M516.71,-105.34C503,-97.92 487.59,-87.43 477.5,-74 464.92,-57.26 460.62,-32.23 459.19,-19.15"/>
<polygon fill="#63b8ff" stroke="#63b8ff" points="515.33,-108.56 525.84,-109.98 518.51,-102.32 515.33,-108.56"/>
</a>
</g>
</g>
<!-- Node17&#45;&gt;Node3 -->
<g id="edge25_Node000017_Node000003" class="edge">
<title>Node17&#45;&gt;Node3</title>
<g id="a_edge25_Node000017_Node000003"><a xlink:title=" ">
<path fill="none" stroke="#63b8ff" d="M294.36,-101.58C305.03,-87.45 321.84,-67.64 340.5,-55 367.87,-36.45 404,-24.3 429.04,-17.46"/>
<polygon fill="#63b8ff" stroke="#63b8ff" points="291.35,-99.77 288.29,-109.91 297.01,-103.9 291.35,-99.77"/>
</a>
</g>
</g>
<!-- Node17&#45;&gt;Node4 -->
<g id="edge26_Node000017_Node000004" class="edge">
<title>Node17&#45;&gt;Node4</title>
<g id="a_edge26_Node000017_Node000004"><a xlink:title=" ">
<path fill="none" stroke="#63b8ff" d="M308.74,-105.5C328.43,-95.75 354.82,-82.68 372,-74.17"/>
<polygon fill="#63b8ff" stroke="#63b8ff" points="307.1,-102.41 299.69,-109.98 310.21,-108.68 307.1,-102.41"/>
</a>
</g>
</g>
<!-- Node18&#45;&gt;Node5 -->
<g id="edge28_Node000018_Node000005" class="edge">
<title>Node18&#45;&gt;Node5</title>
<g id="a_edge28_Node000018_Node000005"><a xlink:title=" ">
<path fill="none" stroke="#63b8ff" d="M665.98,-161.52C683.59,-154.81 701.91,-144.54 713.5,-129 725.61,-112.75 725.05,-87.51 723.72,-74.28"/>
<polygon fill="#63b8ff" stroke="#63b8ff" points="664.61,-158.3 656.32,-164.9 666.91,-164.91 664.61,-158.3"/>
</a>
</g>
</g>
<!-- Node18&#45;&gt;Node16 -->
<g id="edge29_Node000018_Node000016" class="edge">
<title>Node18&#45;&gt;Node16</title>
<g id="a_edge29_Node000018_Node000016"><a xlink:title=" ">
<path fill="none" stroke="#63b8ff" d="M597.19,-158.88C584.59,-149.34 568.57,-137.21 557.95,-129.17"/>
<polygon fill="#63b8ff" stroke="#63b8ff" points="595.17,-161.74 605.25,-164.98 599.39,-156.16 595.17,-161.74"/>
</a>
</g>
</g>
</g>
</svg>
