<?xml version="1.0" encoding="UTF-8" standalone="no"?>
<!DOCTYPE svg PUBLIC "-//W3C//DTD SVG 1.1//EN"
 "http://www.w3.org/Graphics/SVG/1.1/DTD/svg11.dtd">
<!-- Generated by graphviz version 2.43.0 (0)
 -->
<!-- Title: IEventBusConnectionKit.h Pages: 1 -->
<svg width="609pt" height="357pt"
 viewBox="0.00 0.00 609.00 357.00" xmlns="http://www.w3.org/2000/svg" xmlns:xlink="http://www.w3.org/1999/xlink">
<g id="graph0" class="graph" transform="scale(1 1) rotate(0) translate(4 353)">
<title>IEventBusConnectionKit.h</title>
<!-- Node1 -->
<g id="Node000001" class="node">
<title>Node1</title>
<g id="a_Node000001"><a xlink:title="Defines the interface for components that can connect to an EventBus.">
<polygon fill="#999999" stroke="#666666" points="504.5,-349 361.5,-349 361.5,-330 504.5,-330 504.5,-349"/>
<text text-anchor="middle" x="433" y="-337" font-family="Helvetica,sans-Serif" font-size="10.00">IEventBusConnectionKit.h</text>
</a>
</g>
</g>
<!-- Node2 -->
<g id="Node000002" class="node">
<title>Node2</title>
<g id="a_Node000002"><a xlink:href="_event_bus_8h.html" target="_top" xlink:title=" ">
<polygon fill="white" stroke="#666666" points="468.5,-294 397.5,-294 397.5,-275 468.5,-275 468.5,-294"/>
<text text-anchor="middle" x="433" y="-282" font-family="Helvetica,sans-Serif" font-size="10.00">EventBus.h</text>
</a>
</g>
</g>
<!-- Node1&#45;&gt;Node2 -->
<g id="edge1_Node000001_Node000002" class="edge">
<title>Node1&#45;&gt;Node2</title>
<g id="a_edge1_Node000001_Node000002"><a xlink:title=" ">
<path fill="none" stroke="#63b8ff" d="M427.83,-329.75C426.34,-322.8 425.9,-312.85 426.52,-304.13"/>
<polygon fill="#63b8ff" stroke="#63b8ff" points="430.01,-304.47 427.87,-294.09 423.07,-303.53 430.01,-304.47"/>
</a>
</g>
</g>
<!-- Node2&#45;&gt;Node1 -->
<g id="edge23_Node000002_Node000001" class="edge">
<title>Node2&#45;&gt;Node1</title>
<g id="a_edge23_Node000002_Node000001"><a xlink:title=" ">
<path fill="none" stroke="#63b8ff" d="M438.13,-294.09C439.64,-300.99 440.09,-310.93 439.49,-319.66"/>
<polygon fill="#63b8ff" stroke="#63b8ff" points="436,-319.38 438.17,-329.75 442.94,-320.29 436,-319.38"/>
</a>
</g>
</g>
<!-- Node3 -->
<g id="Node000003" class="node">
<title>Node3</title>
<g id="a_Node000003"><a xlink:href="_bytes_8h.html" target="_top" xlink:title=" ">
<polygon fill="white" stroke="#666666" points="251.5,-184 198.5,-184 198.5,-165 251.5,-165 251.5,-184"/>
<text text-anchor="middle" x="225" y="-172" font-family="Helvetica,sans-Serif" font-size="10.00">Bytes.h</text>
</a>
</g>
</g>
<!-- Node2&#45;&gt;Node3 -->
<g id="edge2_Node000002_Node000003" class="edge">
<title>Node2&#45;&gt;Node3</title>
<g id="a_edge2_Node000002_Node000003"><a xlink:title=" ">
<path fill="none" stroke="#63b8ff" d="M414.32,-274.95C395.43,-266.21 365.46,-252.11 340,-239 308.1,-222.58 271.97,-202.36 248.87,-189.21"/>
<polygon fill="#63b8ff" stroke="#63b8ff" points="250.52,-186.12 240.1,-184.21 247.05,-192.2 250.52,-186.12"/>
</a>
</g>
</g>
<!-- Node12 -->
<g id="Node000012" class="node">
<title>Node12</title>
<g id="a_Node000012"><a xlink:href="_clear_queue_8h.html" target="_top" xlink:title=" ">
<polygon fill="white" stroke="#666666" points="506.5,-74 423.5,-74 423.5,-55 506.5,-55 506.5,-74"/>
<text text-anchor="middle" x="465" y="-62" font-family="Helvetica,sans-Serif" font-size="10.00">ClearQueue.h</text>
</a>
</g>
</g>
<!-- Node2&#45;&gt;Node12 -->
<g id="edge11_Node000002_Node000012" class="edge">
<title>Node2&#45;&gt;Node12</title>
<g id="a_edge11_Node000002_Node000012"><a xlink:title=" ">
<path fill="none" stroke="#63b8ff" d="M439.33,-274.75C450.94,-258.08 475.26,-220.23 484,-184 492.48,-148.87 480.75,-106.95 472.3,-83.56"/>
<polygon fill="#63b8ff" stroke="#63b8ff" points="475.57,-82.31 468.73,-74.22 469.03,-84.81 475.57,-82.31"/>
</a>
</g>
</g>
<!-- Node13 -->
<g id="Node000013" class="node">
<title>Node13</title>
<g id="a_Node000013"><a xlink:href="_data_channels_8h.html" target="_top" xlink:title=" ">
<polygon fill="white" stroke="#666666" points="443,-239 349,-239 349,-220 443,-220 443,-239"/>
<text text-anchor="middle" x="396" y="-227" font-family="Helvetica,sans-Serif" font-size="10.00">DataChannels.h</text>
</a>
</g>
</g>
<!-- Node2&#45;&gt;Node13 -->
<g id="edge14_Node000002_Node000013" class="edge">
<title>Node2&#45;&gt;Node13</title>
<g id="a_edge14_Node000002_Node000013"><a xlink:title=" ">
<path fill="none" stroke="#63b8ff" d="M426.89,-274.75C421.72,-267.34 414.15,-256.5 407.81,-247.41"/>
<polygon fill="#63b8ff" stroke="#63b8ff" points="410.59,-245.29 402,-239.09 404.85,-249.29 410.59,-245.29"/>
</a>
</g>
</g>
<!-- Node17 -->
<g id="Node000017" class="node">
<title>Node17</title>
<g id="a_Node000017"><a xlink:href="_i_executor_8h.html" target="_top" xlink:title=" ">
<polygon fill="white" stroke="#666666" points="601,-239 531,-239 531,-220 601,-220 601,-239"/>
<text text-anchor="middle" x="566" y="-227" font-family="Helvetica,sans-Serif" font-size="10.00">IExecutor.h</text>
</a>
</g>
</g>
<!-- Node2&#45;&gt;Node17 -->
<g id="edge22_Node000002_Node000017" class="edge">
<title>Node2&#45;&gt;Node17</title>
<g id="a_edge22_Node000002_Node000017"><a xlink:title=" ">
<path fill="none" stroke="#63b8ff" d="M454.37,-274.98C476.15,-266.3 510.16,-252.75 534.92,-242.88"/>
<polygon fill="#63b8ff" stroke="#63b8ff" points="536.25,-246.12 544.24,-239.17 533.66,-239.62 536.25,-246.12"/>
</a>
</g>
</g>
<!-- Node4 -->
<g id="Node000004" class="node">
<title>Node4</title>
<g id="a_Node000004"><a xlink:href="_common_8h.html" target="_top" xlink:title=" ">
<polygon fill="white" stroke="#666666" points="323,-129 253,-129 253,-110 323,-110 323,-129"/>
<text text-anchor="middle" x="288" y="-117" font-family="Helvetica,sans-Serif" font-size="10.00">Common.h</text>
</a>
</g>
</g>
<!-- Node3&#45;&gt;Node4 -->
<g id="edge3_Node000003_Node000004" class="edge">
<title>Node3&#45;&gt;Node4</title>
<g id="a_edge3_Node000003_Node000004"><a xlink:title=" ">
<path fill="none" stroke="#63b8ff" d="M235.12,-164.98C244.44,-157.15 258.47,-145.34 269.74,-135.86"/>
<polygon fill="#63b8ff" stroke="#63b8ff" points="272.29,-138.29 277.69,-129.17 267.79,-132.93 272.29,-138.29"/>
</a>
</g>
</g>
<!-- Node7 -->
<g id="Node000007" class="node">
<title>Node7</title>
<g id="a_Node000007"><a xlink:href="_logger_8h.html" target="_top" xlink:title=" ">
<polygon fill="white" stroke="#666666" points="266,-74 208,-74 208,-55 266,-55 266,-74"/>
<text text-anchor="middle" x="237" y="-62" font-family="Helvetica,sans-Serif" font-size="10.00">Logger.h</text>
</a>
</g>
</g>
<!-- Node3&#45;&gt;Node7 -->
<g id="edge6_Node000003_Node000007" class="edge">
<title>Node3&#45;&gt;Node7</title>
<g id="a_edge6_Node000003_Node000007"><a xlink:title=" ">
<path fill="none" stroke="#63b8ff" d="M225.98,-164.66C227.93,-147.17 232.3,-107.8 234.91,-84.27"/>
<polygon fill="#63b8ff" stroke="#63b8ff" points="238.41,-84.48 236.04,-74.16 231.45,-83.71 238.41,-84.48"/>
</a>
</g>
</g>
<!-- Node9 -->
<g id="Node000009" class="node">
<title>Node9</title>
<g id="a_Node000009"><a xlink:title=" ">
<polygon fill="#e0e0e0" stroke="#999999" points="64,-129 0,-129 0,-110 64,-110 64,-129"/>
<text text-anchor="middle" x="32" y="-117" font-family="Helvetica,sans-Serif" font-size="10.00">WString.h</text>
</a>
</g>
</g>
<!-- Node3&#45;&gt;Node9 -->
<g id="edge8_Node000003_Node000009" class="edge">
<title>Node3&#45;&gt;Node9</title>
<g id="a_edge8_Node000003_Node000009"><a xlink:title=" ">
<path fill="none" stroke="#63b8ff" d="M198.16,-166.13C165.65,-157.2 110.53,-142.07 72.76,-131.69"/>
<polygon fill="#63b8ff" stroke="#63b8ff" points="73.65,-128.31 63.08,-129.03 71.79,-135.06 73.65,-128.31"/>
</a>
</g>
</g>
<!-- Node10 -->
<g id="Node000010" class="node">
<title>Node10</title>
<g id="a_Node000010"><a xlink:title=" ">
<polygon fill="#e0e0e0" stroke="#999999" points="313.5,-19 248.5,-19 248.5,0 313.5,0 313.5,-19"/>
<text text-anchor="middle" x="281" y="-7" font-family="Helvetica,sans-Serif" font-size="10.00">functional</text>
</a>
</g>
</g>
<!-- Node3&#45;&gt;Node10 -->
<g id="edge9_Node000003_Node000010" class="edge">
<title>Node3&#45;&gt;Node10</title>
<g id="a_edge9_Node000003_Node000010"><a xlink:title=" ">
<path fill="none" stroke="#63b8ff" d="M219.11,-164.79C206.01,-144.2 177.24,-91.56 199,-55 207.92,-40.02 223.84,-29.76 239.29,-22.91"/>
<polygon fill="#63b8ff" stroke="#63b8ff" points="240.83,-26.07 248.79,-19.08 238.2,-19.58 240.83,-26.07"/>
</a>
</g>
</g>
<!-- Node11 -->
<g id="Node000011" class="node">
<title>Node11</title>
<g id="a_Node000011"><a xlink:title=" ">
<polygon fill="#e0e0e0" stroke="#999999" points="151.5,-129 82.5,-129 82.5,-110 151.5,-110 151.5,-129"/>
<text text-anchor="middle" x="117" y="-117" font-family="Helvetica,sans-Serif" font-size="10.00">type_traits</text>
</a>
</g>
</g>
<!-- Node3&#45;&gt;Node11 -->
<g id="edge10_Node000003_Node000011" class="edge">
<title>Node3&#45;&gt;Node11</title>
<g id="a_edge10_Node000003_Node000011"><a xlink:title=" ">
<path fill="none" stroke="#63b8ff" d="M207.65,-164.98C190.43,-156.54 163.8,-143.47 143.85,-133.68"/>
<polygon fill="#63b8ff" stroke="#63b8ff" points="145.19,-130.43 134.67,-129.17 142.1,-136.72 145.19,-130.43"/>
</a>
</g>
</g>
<!-- Node5 -->
<g id="Node000005" class="node">
<title>Node5</title>
<g id="a_Node000005"><a xlink:title=" ">
<polygon fill="#e0e0e0" stroke="#999999" points="342,-74 284,-74 284,-55 342,-55 342,-74"/>
<text text-anchor="middle" x="313" y="-62" font-family="Helvetica,sans-Serif" font-size="10.00">memory</text>
</a>
</g>
</g>
<!-- Node4&#45;&gt;Node5 -->
<g id="edge4_Node000004_Node000005" class="edge">
<title>Node4&#45;&gt;Node5</title>
<g id="a_edge4_Node000004_Node000005"><a xlink:title=" ">
<path fill="none" stroke="#63b8ff" d="M292.13,-109.75C295.51,-102.57 300.42,-92.18 304.62,-83.27"/>
<polygon fill="#63b8ff" stroke="#63b8ff" points="307.85,-84.63 308.95,-74.09 301.52,-81.64 307.85,-84.63"/>
</a>
</g>
</g>
<!-- Node6 -->
<g id="Node000006" class="node">
<title>Node6</title>
<g id="a_Node000006"><a xlink:title=" ">
<polygon fill="#e0e0e0" stroke="#999999" points="405.5,-74 360.5,-74 360.5,-55 405.5,-55 405.5,-74"/>
<text text-anchor="middle" x="383" y="-62" font-family="Helvetica,sans-Serif" font-size="10.00">utility</text>
</a>
</g>
</g>
<!-- Node4&#45;&gt;Node6 -->
<g id="edge5_Node000004_Node000006" class="edge">
<title>Node4&#45;&gt;Node6</title>
<g id="a_edge5_Node000004_Node000006"><a xlink:title=" ">
<path fill="none" stroke="#63b8ff" d="M303.26,-109.98C318.13,-101.69 340.98,-88.94 358.42,-79.22"/>
<polygon fill="#63b8ff" stroke="#63b8ff" points="360.43,-82.1 367.46,-74.17 357.02,-75.99 360.43,-82.1"/>
</a>
</g>
</g>
<!-- Node8 -->
<g id="Node000008" class="node">
<title>Node8</title>
<g id="a_Node000008"><a xlink:title=" ">
<polygon fill="#e0e0e0" stroke="#999999" points="445.5,-19 382.5,-19 382.5,0 445.5,0 445.5,-19"/>
<text text-anchor="middle" x="414" y="-7" font-family="Helvetica,sans-Serif" font-size="10.00">Arduino.h</text>
</a>
</g>
</g>
<!-- Node7&#45;&gt;Node8 -->
<g id="edge7_Node000007_Node000008" class="edge">
<title>Node7&#45;&gt;Node8</title>
<g id="a_edge7_Node000007_Node000008"><a xlink:title=" ">
<path fill="none" stroke="#63b8ff" d="M265.44,-54.98C295.28,-46.05 342.38,-31.94 375.53,-22.02"/>
<polygon fill="#63b8ff" stroke="#63b8ff" points="376.76,-25.3 385.34,-19.08 374.76,-18.6 376.76,-25.3"/>
</a>
</g>
</g>
<!-- Node12&#45;&gt;Node8 -->
<g id="edge12_Node000012_Node000008" class="edge">
<title>Node12&#45;&gt;Node8</title>
<g id="a_edge12_Node000012_Node000008"><a xlink:title=" ">
<path fill="none" stroke="#63b8ff" d="M456.58,-54.75C449.23,-47.11 438.37,-35.82 429.46,-26.56"/>
<polygon fill="#63b8ff" stroke="#63b8ff" points="431.72,-23.87 422.26,-19.09 426.68,-28.72 431.72,-23.87"/>
</a>
</g>
</g>
<!-- Node12&#45;&gt;Node10 -->
<g id="edge13_Node000012_Node000010" class="edge">
<title>Node12&#45;&gt;Node10</title>
<g id="a_edge13_Node000012_Node000010"><a xlink:title=" ">
<path fill="none" stroke="#63b8ff" d="M435.44,-54.98C404.28,-46.01 355.03,-31.82 320.54,-21.89"/>
<polygon fill="#63b8ff" stroke="#63b8ff" points="321.37,-18.49 310.79,-19.08 319.43,-25.21 321.37,-18.49"/>
</a>
</g>
</g>
<!-- Node13&#45;&gt;Node3 -->
<g id="edge15_Node000013_Node000003" class="edge">
<title>Node13&#45;&gt;Node3</title>
<g id="a_edge15_Node000013_Node000003"><a xlink:title=" ">
<path fill="none" stroke="#63b8ff" d="M368.53,-219.98C339.48,-210.98 293.51,-196.73 261.44,-186.8"/>
<polygon fill="#63b8ff" stroke="#63b8ff" points="262.15,-183.35 251.56,-183.73 260.08,-190.04 262.15,-183.35"/>
</a>
</g>
</g>
<!-- Node14 -->
<g id="Node000014" class="node">
<title>Node14</title>
<g id="a_Node000014"><a xlink:href="_limited_queue_8h.html" target="_top" xlink:title=" ">
<polygon fill="white" stroke="#666666" points="475,-184 381,-184 381,-165 475,-165 475,-184"/>
<text text-anchor="middle" x="428" y="-172" font-family="Helvetica,sans-Serif" font-size="10.00">LimitedQueue.h</text>
</a>
</g>
</g>
<!-- Node13&#45;&gt;Node14 -->
<g id="edge16_Node000013_Node000014" class="edge">
<title>Node13&#45;&gt;Node14</title>
<g id="a_edge16_Node000013_Node000014"><a xlink:title=" ">
<path fill="none" stroke="#63b8ff" d="M401.28,-219.75C405.71,-212.42 412.16,-201.73 417.62,-192.7"/>
<polygon fill="#63b8ff" stroke="#63b8ff" points="420.64,-194.46 422.81,-184.09 414.65,-190.84 420.64,-194.46"/>
</a>
</g>
</g>
<!-- Node15 -->
<g id="Node000015" class="node">
<title>Node15</title>
<g id="a_Node000015"><a xlink:href="_map_8h.html" target="_top" xlink:title=" ">
<polygon fill="white" stroke="#666666" points="362.5,-184 315.5,-184 315.5,-165 362.5,-165 362.5,-184"/>
<text text-anchor="middle" x="339" y="-172" font-family="Helvetica,sans-Serif" font-size="10.00">Map.h</text>
</a>
</g>
</g>
<!-- Node13&#45;&gt;Node15 -->
<g id="edge18_Node000013_Node000015" class="edge">
<title>Node13&#45;&gt;Node15</title>
<g id="a_edge18_Node000013_Node000015"><a xlink:title=" ">
<path fill="none" stroke="#63b8ff" d="M386.84,-219.98C378.5,-212.23 365.97,-200.58 355.82,-191.14"/>
<polygon fill="#63b8ff" stroke="#63b8ff" points="358.03,-188.42 348.32,-184.17 353.26,-193.54 358.03,-188.42"/>
</a>
</g>
</g>
<!-- Node14&#45;&gt;Node12 -->
<g id="edge17_Node000014_Node000012" class="edge">
<title>Node14&#45;&gt;Node12</title>
<g id="a_edge17_Node000014_Node000012"><a xlink:title=" ">
<path fill="none" stroke="#63b8ff" d="M431.83,-164.73C435.66,-155.82 441.58,-141.58 446,-129 451.25,-114.05 456.35,-96.82 459.94,-84.08"/>
<polygon fill="#63b8ff" stroke="#63b8ff" points="463.37,-84.78 462.67,-74.21 456.63,-82.91 463.37,-84.78"/>
</a>
</g>
</g>
<!-- Node15&#45;&gt;Node4 -->
<g id="edge19_Node000015_Node000004" class="edge">
<title>Node15&#45;&gt;Node4</title>
<g id="a_edge19_Node000015_Node000004"><a xlink:title=" ">
<path fill="none" stroke="#63b8ff" d="M330.58,-164.75C323.23,-157.11 312.37,-145.82 303.46,-136.56"/>
<polygon fill="#63b8ff" stroke="#63b8ff" points="305.72,-133.87 296.26,-129.09 300.68,-138.72 305.72,-133.87"/>
</a>
</g>
</g>
<!-- Node16 -->
<g id="Node000016" class="node">
<title>Node16</title>
<g id="a_Node000016"><a xlink:href="_iterable_queue_8h.html" target="_top" xlink:title=" ">
<polygon fill="white" stroke="#666666" points="436.5,-129 341.5,-129 341.5,-110 436.5,-110 436.5,-129"/>
<text text-anchor="middle" x="389" y="-117" font-family="Helvetica,sans-Serif" font-size="10.00">IterableQueue.h</text>
</a>
</g>
</g>
<!-- Node15&#45;&gt;Node16 -->
<g id="edge20_Node000015_Node000016" class="edge">
<title>Node15&#45;&gt;Node16</title>
<g id="a_edge20_Node000015_Node000016"><a xlink:title=" ">
<path fill="none" stroke="#63b8ff" d="M347.26,-164.75C354.46,-157.11 365.11,-145.82 373.85,-136.56"/>
<polygon fill="#63b8ff" stroke="#63b8ff" points="376.58,-138.76 380.9,-129.09 371.49,-133.96 376.58,-138.76"/>
</a>
</g>
</g>
<!-- Node16&#45;&gt;Node12 -->
<g id="edge21_Node000016_Node000012" class="edge">
<title>Node16&#45;&gt;Node12</title>
<g id="a_edge21_Node000016_Node000012"><a xlink:title=" ">
<path fill="none" stroke="#63b8ff" d="M401.21,-109.98C412.78,-101.92 430.38,-89.65 444.16,-80.03"/>
<polygon fill="#63b8ff" stroke="#63b8ff" points="446.37,-82.76 452.57,-74.17 442.36,-77.02 446.37,-82.76"/>
</a>
</g>
</g>
</g>
</svg>
