<?xml version="1.0" encoding="UTF-8" standalone="no"?>
<!DOCTYPE svg PUBLIC "-//W3C//DTD SVG 1.1//EN"
 "http://www.w3.org/Graphics/SVG/1.1/DTD/svg11.dtd">
<!-- Generated by graphviz version 2.43.0 (0)
 -->
<!-- Title: ISchedulerConnectionKit.h Pages: 1 -->
<svg width="604pt" height="247pt"
 viewBox="0.00 0.00 603.59 247.00" xmlns="http://www.w3.org/2000/svg" xmlns:xlink="http://www.w3.org/1999/xlink">
<g id="graph0" class="graph" transform="scale(1 1) rotate(0) translate(4 243)">
<title>ISchedulerConnectionKit.h</title>
<!-- Node1 -->
<g id="Node000001" class="node">
<title>Node1</title>
<g id="a_Node000001"><a xlink:title=" ">
<polygon fill="#999999" stroke="#666666" points="349.59,-239 204.59,-239 204.59,-220 349.59,-220 349.59,-239"/>
<text text-anchor="middle" x="277.09" y="-227" font-family="Helvetica,sans-Serif" font-size="10.00">ISchedulerConnectionKit.h</text>
</a>
</g>
</g>
<!-- Node2 -->
<g id="Node000002" class="node">
<title>Node2</title>
<g id="a_Node000002"><a xlink:href="_app_kit_8h.html" target="_top" xlink:title=" ">
<polygon fill="white" stroke="#666666" points="186.09,-19 128.09,-19 128.09,0 186.09,0 186.09,-19"/>
<text text-anchor="middle" x="157.09" y="-7" font-family="Helvetica,sans-Serif" font-size="10.00">AppKit.h</text>
</a>
</g>
</g>
<!-- Node1&#45;&gt;Node2 -->
<g id="edge1_Node000001_Node000002" class="edge">
<title>Node1&#45;&gt;Node2</title>
<g id="a_edge1_Node000001_Node000002"><a xlink:title=" ">
<path fill="none" stroke="#63b8ff" d="M211.6,-217.82C138.56,-201.64 27.32,-162.8 2.09,-74 -12.93,-21.13 78.71,-11.72 127.71,-10.41"/>
<polygon fill="#63b8ff" stroke="#63b8ff" points="211.13,-221.3 221.64,-219.95 212.59,-214.45 211.13,-221.3"/>
</a>
</g>
</g>
<!-- Node3 -->
<g id="Node000003" class="node">
<title>Node3</title>
<g id="a_Node000003"><a xlink:href="_network_controller_8h.html" target="_top" xlink:title=" ">
<polygon fill="white" stroke="#666666" points="494.09,-74 380.09,-74 380.09,-55 494.09,-55 494.09,-74"/>
<text text-anchor="middle" x="437.09" y="-62" font-family="Helvetica,sans-Serif" font-size="10.00">NetworkController.h</text>
</a>
</g>
</g>
<!-- Node1&#45;&gt;Node3 -->
<g id="edge2_Node000001_Node000003" class="edge">
<title>Node1&#45;&gt;Node3</title>
<g id="a_edge2_Node000001_Node000003"><a xlink:title=" ">
<path fill="none" stroke="#63b8ff" d="M337.64,-217.53C386.52,-205.14 452.22,-179.68 484.09,-129 497.01,-108.45 469.6,-85.96 451.45,-74.04"/>
<polygon fill="#63b8ff" stroke="#63b8ff" points="336.69,-214.16 327.79,-219.91 338.34,-220.96 336.69,-214.16"/>
</a>
</g>
</g>
<!-- Node4 -->
<g id="Node000004" class="node">
<title>Node4</title>
<g id="a_Node000004"><a xlink:href="_task_scheduler_8h.html" target="_top" xlink:title=" ">
<polygon fill="white" stroke="#666666" points="324.59,-184 229.59,-184 229.59,-165 324.59,-165 324.59,-184"/>
<text text-anchor="middle" x="277.09" y="-172" font-family="Helvetica,sans-Serif" font-size="10.00">TaskScheduler.h</text>
</a>
</g>
</g>
<!-- Node1&#45;&gt;Node4 -->
<g id="edge4_Node000001_Node000004" class="edge">
<title>Node1&#45;&gt;Node4</title>
<g id="a_edge4_Node000001_Node000004"><a xlink:title=" ">
<path fill="none" stroke="#63b8ff" d="M277.09,-209.66C277.09,-200.93 277.09,-190.99 277.09,-184.09"/>
<polygon fill="#63b8ff" stroke="#63b8ff" points="273.59,-209.75 277.09,-219.75 280.59,-209.75 273.59,-209.75"/>
</a>
</g>
</g>
<!-- Node3&#45;&gt;Node2 -->
<g id="edge3_Node000003_Node000002" class="edge">
<title>Node3&#45;&gt;Node2</title>
<g id="a_edge3_Node000003_Node000002"><a xlink:title=" ">
<path fill="none" stroke="#63b8ff" d="M382.24,-53.12C323.44,-41.99 232.33,-24.74 186.11,-15.99"/>
<polygon fill="#63b8ff" stroke="#63b8ff" points="381.63,-56.56 392.1,-54.98 382.93,-49.69 381.63,-56.56"/>
</a>
</g>
</g>
<!-- Node5 -->
<g id="Node000005" class="node">
<title>Node5</title>
<g id="a_Node000005"><a xlink:href="_button_8h.html" target="_top" xlink:title=" ">
<polygon fill="white" stroke="#666666" points="343.09,-129 285.09,-129 285.09,-110 343.09,-110 343.09,-129"/>
<text text-anchor="middle" x="314.09" y="-117" font-family="Helvetica,sans-Serif" font-size="10.00">Button.h</text>
</a>
</g>
</g>
<!-- Node4&#45;&gt;Node5 -->
<g id="edge5_Node000004_Node000005" class="edge">
<title>Node4&#45;&gt;Node5</title>
<g id="a_edge5_Node000004_Node000005"><a xlink:title=" ">
<path fill="none" stroke="#63b8ff" d="M289.03,-156.39C295.4,-147.27 302.96,-136.45 308.09,-129.09"/>
<polygon fill="#63b8ff" stroke="#63b8ff" points="286.05,-154.55 283.2,-164.75 291.79,-158.55 286.05,-154.55"/>
</a>
</g>
</g>
<!-- Node7 -->
<g id="Node000007" class="node">
<title>Node7</title>
<g id="a_Node000007"><a xlink:href="_m_q_t_t_kit_8h.html" target="_top" xlink:title=" ">
<polygon fill="white" stroke="#666666" points="580.09,-74 512.09,-74 512.09,-55 580.09,-55 580.09,-74"/>
<text text-anchor="middle" x="546.09" y="-62" font-family="Helvetica,sans-Serif" font-size="10.00">MQTTKit.h</text>
</a>
</g>
</g>
<!-- Node4&#45;&gt;Node7 -->
<g id="edge9_Node000004_Node000007" class="edge">
<title>Node4&#45;&gt;Node7</title>
<g id="a_edge9_Node000004_Node000007"><a xlink:title=" ">
<path fill="none" stroke="#63b8ff" d="M334.71,-170.09C378.08,-165.46 437.77,-154.58 484.09,-129 509.18,-115.15 530.54,-87.9 540.34,-74.04"/>
<polygon fill="#63b8ff" stroke="#63b8ff" points="334.22,-166.62 324.61,-171.09 334.91,-173.59 334.22,-166.62"/>
</a>
</g>
</g>
<!-- Node9 -->
<g id="Node000009" class="node">
<title>Node9</title>
<g id="a_Node000009"><a xlink:href="_network_scheduler_8h.html" target="_top" xlink:title=" ">
<polygon fill="white" stroke="#666666" points="475.09,-129 361.09,-129 361.09,-110 475.09,-110 475.09,-129"/>
<text text-anchor="middle" x="418.09" y="-117" font-family="Helvetica,sans-Serif" font-size="10.00">NetworkScheduler.h</text>
</a>
</g>
</g>
<!-- Node4&#45;&gt;Node9 -->
<g id="edge12_Node000004_Node000009" class="edge">
<title>Node4&#45;&gt;Node9</title>
<g id="a_edge12_Node000004_Node000009"><a xlink:title=" ">
<path fill="none" stroke="#63b8ff" d="M309.22,-161.42C335.38,-151.59 371.68,-137.95 395.02,-129.17"/>
<polygon fill="#63b8ff" stroke="#63b8ff" points="307.87,-158.19 299.74,-164.98 310.34,-164.74 307.87,-158.19"/>
</a>
</g>
</g>
<!-- Node10 -->
<g id="Node000010" class="node">
<title>Node10</title>
<g id="a_Node000010"><a xlink:href="_top_device_8h.html" target="_top" xlink:title=" ">
<polygon fill="white" stroke="#666666" points="197.09,-129 121.09,-129 121.09,-110 197.09,-110 197.09,-129"/>
<text text-anchor="middle" x="159.09" y="-117" font-family="Helvetica,sans-Serif" font-size="10.00">TopDevice.h</text>
</a>
</g>
</g>
<!-- Node4&#45;&gt;Node10 -->
<g id="edge15_Node000004_Node000010" class="edge">
<title>Node4&#45;&gt;Node10</title>
<g id="a_edge15_Node000004_Node000010"><a xlink:title=" ">
<path fill="none" stroke="#63b8ff" d="M248.74,-160.77C226.97,-150.99 197.5,-137.75 178.39,-129.17"/>
<polygon fill="#63b8ff" stroke="#63b8ff" points="247.57,-164.08 258.13,-164.98 250.44,-157.69 247.57,-164.08"/>
</a>
</g>
</g>
<!-- Node11 -->
<g id="Node000011" class="node">
<title>Node11</title>
<g id="a_Node000011"><a xlink:href="_uniot_8h.html" target="_top" xlink:title=" ">
<polygon fill="white" stroke="#666666" points="267.09,-129 215.09,-129 215.09,-110 267.09,-110 267.09,-129"/>
<text text-anchor="middle" x="241.09" y="-117" font-family="Helvetica,sans-Serif" font-size="10.00">Uniot.h</text>
</a>
</g>
</g>
<!-- Node4&#45;&gt;Node11 -->
<g id="edge17_Node000004_Node000011" class="edge">
<title>Node4&#45;&gt;Node11</title>
<g id="a_edge17_Node000004_Node000011"><a xlink:title=" ">
<path fill="none" stroke="#63b8ff" d="M265.47,-156.39C259.27,-147.27 251.92,-136.45 246.92,-129.09"/>
<polygon fill="#63b8ff" stroke="#63b8ff" points="262.63,-158.44 271.14,-164.75 268.42,-154.51 262.63,-158.44"/>
</a>
</g>
</g>
<!-- Node13 -->
<g id="Node000013" class="node">
<title>Node13</title>
<g id="a_Node000013"><a xlink:href="un_lisp_8h.html" target="_top" xlink:title=" ">
<polygon fill="white" stroke="#666666" points="102.59,-129 45.59,-129 45.59,-110 102.59,-110 102.59,-129"/>
<text text-anchor="middle" x="74.09" y="-117" font-family="Helvetica,sans-Serif" font-size="10.00">unLisp.h</text>
</a>
</g>
</g>
<!-- Node4&#45;&gt;Node13 -->
<g id="edge19_Node000004_Node000013" class="edge">
<title>Node4&#45;&gt;Node13</title>
<g id="a_edge19_Node000004_Node000013"><a xlink:title=" ">
<path fill="none" stroke="#63b8ff" d="M234.58,-162.4C194.98,-152.06 137.04,-136.94 102.69,-127.97"/>
<polygon fill="#63b8ff" stroke="#63b8ff" points="233.91,-165.84 244.47,-164.98 235.68,-159.07 233.91,-165.84"/>
</a>
</g>
</g>
<!-- Node5&#45;&gt;Node3 -->
<g id="edge8_Node000005_Node000003" class="edge">
<title>Node5&#45;&gt;Node3</title>
<g id="a_edge8_Node000005_Node000003"><a xlink:title=" ">
<path fill="none" stroke="#63b8ff" d="M343.34,-105.9C366.05,-96.11 396.96,-82.79 416.97,-74.17"/>
<polygon fill="#63b8ff" stroke="#63b8ff" points="341.65,-102.81 333.85,-109.98 344.42,-109.24 341.65,-102.81"/>
</a>
</g>
</g>
<!-- Node6 -->
<g id="Node000006" class="node">
<title>Node6</title>
<g id="a_Node000006"><a xlink:href="_lisp_primitives_8h.html" target="_top" xlink:title=" ">
<polygon fill="white" stroke="#666666" points="361.59,-74 266.59,-74 266.59,-55 361.59,-55 361.59,-74"/>
<text text-anchor="middle" x="314.09" y="-62" font-family="Helvetica,sans-Serif" font-size="10.00">LispPrimitives.h</text>
</a>
</g>
</g>
<!-- Node5&#45;&gt;Node6 -->
<g id="edge6_Node000005_Node000006" class="edge">
<title>Node5&#45;&gt;Node6</title>
<g id="a_edge6_Node000005_Node000006"><a xlink:title=" ">
<path fill="none" stroke="#63b8ff" d="M314.09,-99.66C314.09,-90.93 314.09,-80.99 314.09,-74.09"/>
<polygon fill="#63b8ff" stroke="#63b8ff" points="310.59,-99.75 314.09,-109.75 317.59,-99.75 310.59,-99.75"/>
</a>
</g>
</g>
<!-- Node6&#45;&gt;Node2 -->
<g id="edge7_Node000006_Node000002" class="edge">
<title>Node6&#45;&gt;Node2</title>
<g id="a_edge7_Node000006_Node000002"><a xlink:title=" ">
<path fill="none" stroke="#63b8ff" d="M279.04,-51.67C249.77,-41.79 208.72,-27.93 182.51,-19.08"/>
<polygon fill="#63b8ff" stroke="#63b8ff" points="278.27,-55.1 288.86,-54.98 280.51,-48.47 278.27,-55.1"/>
</a>
</g>
</g>
<!-- Node7&#45;&gt;Node2 -->
<g id="edge10_Node000007_Node000002" class="edge">
<title>Node7&#45;&gt;Node2</title>
<g id="a_edge10_Node000007_Node000002"><a xlink:title=" ">
<path fill="none" stroke="#63b8ff" d="M501.89,-54.9C378.89,-35.12 244.49,-19.88 186.35,-13.59"/>
<polygon fill="#63b8ff" stroke="#63b8ff" points="501.43,-58.37 511.86,-56.52 502.55,-51.46 501.43,-58.37"/>
</a>
</g>
</g>
<!-- Node8 -->
<g id="Node000008" class="node">
<title>Node8</title>
<g id="a_Node000008"><a xlink:href="_m_q_t_t_device_8cpp.html" target="_top" xlink:title=" ">
<polygon fill="white" stroke="#666666" points="595.59,-19 496.59,-19 496.59,0 595.59,0 595.59,-19"/>
<text text-anchor="middle" x="546.09" y="-7" font-family="Helvetica,sans-Serif" font-size="10.00">MQTTDevice.cpp</text>
</a>
</g>
</g>
<!-- Node7&#45;&gt;Node8 -->
<g id="edge11_Node000007_Node000008" class="edge">
<title>Node7&#45;&gt;Node8</title>
<g id="a_edge11_Node000007_Node000008"><a xlink:title=" ">
<path fill="none" stroke="#63b8ff" d="M546.09,-44.66C546.09,-35.93 546.09,-25.99 546.09,-19.09"/>
<polygon fill="#63b8ff" stroke="#63b8ff" points="542.59,-44.75 546.09,-54.75 549.59,-44.75 542.59,-44.75"/>
</a>
</g>
</g>
<!-- Node9&#45;&gt;Node3 -->
<g id="edge14_Node000009_Node000003" class="edge">
<title>Node9&#45;&gt;Node3</title>
<g id="a_edge14_Node000009_Node000003"><a xlink:title=" ">
<path fill="none" stroke="#63b8ff" d="M424.63,-100.24C427.81,-91.37 431.48,-81.14 434.01,-74.09"/>
<polygon fill="#63b8ff" stroke="#63b8ff" points="421.31,-99.15 421.23,-109.75 427.9,-101.52 421.31,-99.15"/>
</a>
</g>
</g>
<!-- Node9&#45;&gt;Node7 -->
<g id="edge13_Node000009_Node000007" class="edge">
<title>Node9&#45;&gt;Node7</title>
<g id="a_edge13_Node000009_Node000007"><a xlink:title=" ">
<path fill="none" stroke="#63b8ff" d="M448.21,-106.03C471.88,-96.23 504.23,-82.83 525.15,-74.17"/>
<polygon fill="#63b8ff" stroke="#63b8ff" points="446.55,-102.93 438.65,-109.98 449.23,-109.39 446.55,-102.93"/>
</a>
</g>
</g>
<!-- Node10&#45;&gt;Node2 -->
<g id="edge16_Node000010_Node000002" class="edge">
<title>Node10&#45;&gt;Node2</title>
<g id="a_edge16_Node000010_Node000002"><a xlink:title=" ">
<path fill="none" stroke="#63b8ff" d="M158.74,-99.48C158.3,-75.84 157.57,-36.5 157.25,-19.16"/>
<polygon fill="#63b8ff" stroke="#63b8ff" points="155.24,-99.73 158.93,-109.66 162.24,-99.6 155.24,-99.73"/>
</a>
</g>
</g>
<!-- Node12 -->
<g id="Node000012" class="node">
<title>Node12</title>
<g id="a_Node000012"><a xlink:href="_uniot_8cpp.html" target="_top" xlink:title=" ">
<polygon fill="white" stroke="#666666" points="248.59,-74 185.59,-74 185.59,-55 248.59,-55 248.59,-74"/>
<text text-anchor="middle" x="217.09" y="-62" font-family="Helvetica,sans-Serif" font-size="10.00">Uniot.cpp</text>
</a>
</g>
</g>
<!-- Node11&#45;&gt;Node12 -->
<g id="edge18_Node000011_Node000012" class="edge">
<title>Node11&#45;&gt;Node12</title>
<g id="a_edge18_Node000011_Node000012"><a xlink:title=" ">
<path fill="none" stroke="#63b8ff" d="M232.95,-100.53C228.91,-91.6 224.21,-81.22 220.98,-74.09"/>
<polygon fill="#63b8ff" stroke="#63b8ff" points="229.81,-102.08 237.13,-109.75 236.19,-99.19 229.81,-102.08"/>
</a>
</g>
</g>
<!-- Node13&#45;&gt;Node2 -->
<g id="edge20_Node000013_Node000002" class="edge">
<title>Node13&#45;&gt;Node2</title>
<g id="a_edge20_Node000013_Node000002"><a xlink:title=" ">
<path fill="none" stroke="#63b8ff" d="M87.01,-101.69C104.93,-78.37 136.68,-37.05 150.43,-19.16"/>
<polygon fill="#63b8ff" stroke="#63b8ff" points="84.2,-99.6 80.88,-109.66 89.75,-103.87 84.2,-99.6"/>
</a>
</g>
</g>
<!-- Node14 -->
<g id="Node000014" class="node">
<title>Node14</title>
<g id="a_Node000014"><a xlink:href="_lisp_device_8h.html" target="_top" xlink:title=" ">
<polygon fill="white" stroke="#666666" points="90.59,-74 11.59,-74 11.59,-55 90.59,-55 90.59,-74"/>
<text text-anchor="middle" x="51.09" y="-62" font-family="Helvetica,sans-Serif" font-size="10.00">LispDevice.h</text>
</a>
</g>
</g>
<!-- Node13&#45;&gt;Node14 -->
<g id="edge21_Node000013_Node000014" class="edge">
<title>Node13&#45;&gt;Node14</title>
<g id="a_edge21_Node000013_Node000014"><a xlink:title=" ">
<path fill="none" stroke="#63b8ff" d="M66.29,-100.53C62.41,-91.6 57.91,-81.22 54.82,-74.09"/>
<polygon fill="#63b8ff" stroke="#63b8ff" points="63.1,-101.97 70.29,-109.75 69.52,-99.18 63.1,-101.97"/>
</a>
</g>
</g>
<!-- Node14&#45;&gt;Node2 -->
<g id="edge22_Node000014_Node000002" class="edge">
<title>Node14&#45;&gt;Node2</title>
<g id="a_edge22_Node000014_Node000002"><a xlink:title=" ">
<path fill="none" stroke="#63b8ff" d="M77.09,-50.5C96.59,-40.75 122.74,-27.68 139.75,-19.17"/>
<polygon fill="#63b8ff" stroke="#63b8ff" points="75.5,-47.38 68.12,-54.98 78.63,-53.64 75.5,-47.38"/>
</a>
</g>
</g>
</g>
</svg>
