<?xml version="1.0" encoding="UTF-8" standalone="no"?>
<!DOCTYPE svg PUBLIC "-//W3C//DTD SVG 1.1//EN"
 "http://www.w3.org/Graphics/SVG/1.1/DTD/svg11.dtd">
<!-- Generated by graphviz version 2.43.0 (0)
 -->
<!-- Title: IterableQueue.h Pages: 1 -->
<svg width="1544pt" height="522pt"
 viewBox="0.00 0.00 1544.42 522.00" xmlns="http://www.w3.org/2000/svg" xmlns:xlink="http://www.w3.org/1999/xlink">
<g id="graph0" class="graph" transform="scale(1 1) rotate(0) translate(4 518)">
<title>IterableQueue.h</title>
<!-- Node1 -->
<g id="Node000001" class="node">
<title>Node1</title>
<g id="a_Node000001"><a xlink:title=" ">
<polygon fill="#999999" stroke="#666666" points="867,-514 772,-514 772,-495 867,-495 867,-514"/>
<text text-anchor="middle" x="819.5" y="-502" font-family="Helvetica,sans-Serif" font-size="10.00">IterableQueue.h</text>
</a>
</g>
</g>
<!-- Node2 -->
<g id="Node000002" class="node">
<title>Node2</title>
<g id="a_Node000002"><a xlink:href="_event_emitter_8h.html" target="_top" xlink:title=" ">
<polygon fill="white" stroke="#666666" points="864,-239 775,-239 775,-220 864,-220 864,-239"/>
<text text-anchor="middle" x="819.5" y="-227" font-family="Helvetica,sans-Serif" font-size="10.00">EventEmitter.h</text>
</a>
</g>
</g>
<!-- Node1&#45;&gt;Node2 -->
<g id="edge1_Node000001_Node000002" class="edge">
<title>Node1&#45;&gt;Node2</title>
<g id="a_edge1_Node000001_Node000002"><a xlink:title=" ">
<path fill="none" stroke="#63b8ff" d="M819.5,-484.77C819.5,-463.23 819.5,-426.81 819.5,-395.5 819.5,-395.5 819.5,-395.5 819.5,-338.5 819.5,-301.56 819.5,-257.52 819.5,-239.18"/>
<polygon fill="#63b8ff" stroke="#63b8ff" points="816,-484.82 819.5,-494.82 823,-484.82 816,-484.82"/>
</a>
</g>
</g>
<!-- Node13 -->
<g id="Node000013" class="node">
<title>Node13</title>
<g id="a_Node000013"><a xlink:href="_event_listener_8h.html" target="_top" xlink:title=" ">
<polygon fill="white" stroke="#666666" points="406.5,-184 314.5,-184 314.5,-165 406.5,-165 406.5,-184"/>
<text text-anchor="middle" x="360.5" y="-172" font-family="Helvetica,sans-Serif" font-size="10.00">EventListener.h</text>
</a>
</g>
</g>
<!-- Node1&#45;&gt;Node13 -->
<g id="edge35_Node000001_Node000013" class="edge">
<title>Node1&#45;&gt;Node13</title>
<g id="a_edge35_Node000001_Node000013"><a xlink:title=" ">
<path fill="none" stroke="#63b8ff" d="M761.65,-501.95C638.28,-497.06 360.5,-477.02 360.5,-395.5 360.5,-395.5 360.5,-395.5 360.5,-283.5 360.5,-246.56 360.5,-202.52 360.5,-184.18"/>
<polygon fill="#63b8ff" stroke="#63b8ff" points="761.55,-505.45 771.68,-502.32 761.82,-498.45 761.55,-505.45"/>
</a>
</g>
</g>
<!-- Node20 -->
<g id="Node000020" class="node">
<title>Node20</title>
<g id="a_Node000020"><a xlink:href="_event_entity_8h.html" target="_top" xlink:title=" ">
<polygon fill="white" stroke="#666666" points="930.5,-294 850.5,-294 850.5,-275 930.5,-275 930.5,-294"/>
<text text-anchor="middle" x="890.5" y="-282" font-family="Helvetica,sans-Serif" font-size="10.00">EventEntity.h</text>
</a>
</g>
</g>
<!-- Node1&#45;&gt;Node20 -->
<g id="edge31_Node000001_Node000020" class="edge">
<title>Node1&#45;&gt;Node20</title>
<g id="a_edge31_Node000001_Node000020"><a xlink:title=" ">
<path fill="none" stroke="#63b8ff" d="M825.39,-485.42C839.93,-440.79 877.09,-326.67 887.66,-294.22"/>
<polygon fill="#63b8ff" stroke="#63b8ff" points="822.05,-484.36 822.28,-494.95 828.71,-486.53 822.05,-484.36"/>
</a>
</g>
</g>
<!-- Node22 -->
<g id="Node000022" class="node">
<title>Node22</title>
<g id="a_Node000022"><a xlink:href="_m_q_t_t_device_8h.html" target="_top" xlink:title=" ">
<polygon fill="white" stroke="#666666" points="1499.5,-184 1411.5,-184 1411.5,-165 1499.5,-165 1499.5,-184"/>
<text text-anchor="middle" x="1455.5" y="-172" font-family="Helvetica,sans-Serif" font-size="10.00">MQTTDevice.h</text>
</a>
</g>
</g>
<!-- Node1&#45;&gt;Node22 -->
<g id="edge36_Node000001_Node000022" class="edge">
<title>Node1&#45;&gt;Node22</title>
<g id="a_edge36_Node000001_Node000022"><a xlink:title=" ">
<path fill="none" stroke="#63b8ff" d="M877.07,-503.93C1015.48,-503.4 1355.5,-492.28 1355.5,-395.5 1355.5,-395.5 1355.5,-395.5 1355.5,-283.5 1355.5,-235.46 1409.43,-199.73 1438.08,-184.14"/>
<polygon fill="#63b8ff" stroke="#63b8ff" points="877.06,-500.43 867.07,-503.95 877.07,-507.43 877.06,-500.43"/>
</a>
</g>
</g>
<!-- Node24 -->
<g id="Node000024" class="node">
<title>Node24</title>
<g id="a_Node000024"><a xlink:href="_map_8h.html" target="_top" xlink:title=" ">
<polygon fill="white" stroke="#666666" points="729,-459 682,-459 682,-440 729,-440 729,-459"/>
<text text-anchor="middle" x="705.5" y="-447" font-family="Helvetica,sans-Serif" font-size="10.00">Map.h</text>
</a>
</g>
</g>
<!-- Node1&#45;&gt;Node24 -->
<g id="edge43_Node000001_Node000024" class="edge">
<title>Node1&#45;&gt;Node24</title>
<g id="a_edge43_Node000001_Node000024"><a xlink:title=" ">
<path fill="none" stroke="#63b8ff" d="M792.11,-490.77C771.08,-480.99 742.61,-467.75 724.15,-459.17"/>
<polygon fill="#63b8ff" stroke="#63b8ff" points="790.64,-493.94 801.18,-494.98 793.59,-487.6 790.64,-493.94"/>
</a>
</g>
</g>
<!-- Node3 -->
<g id="Node000003" class="node">
<title>Node3</title>
<g id="a_Node000003"><a xlink:href="_date_8h.html" target="_top" xlink:title=" ">
<polygon fill="white" stroke="#666666" points="1326,-129 1277,-129 1277,-110 1326,-110 1326,-129"/>
<text text-anchor="middle" x="1301.5" y="-117" font-family="Helvetica,sans-Serif" font-size="10.00">Date.h</text>
</a>
</g>
</g>
<!-- Node2&#45;&gt;Node3 -->
<g id="edge2_Node000002_Node000003" class="edge">
<title>Node2&#45;&gt;Node3</title>
<g id="a_edge2_Node000002_Node000003"><a xlink:title=" ">
<path fill="none" stroke="#63b8ff" d="M867.68,-217.7C968.9,-195.03 1200.57,-143.12 1276.73,-126.05"/>
<polygon fill="#63b8ff" stroke="#63b8ff" points="866.72,-214.33 857.72,-219.94 868.25,-221.16 866.72,-214.33"/>
</a>
</g>
</g>
<!-- Node11 -->
<g id="Node000011" class="node">
<title>Node11</title>
<g id="a_Node000011"><a xlink:href="_event_bus_8cpp.html" target="_top" xlink:title=" ">
<polygon fill="white" stroke="#666666" points="860,-129 777,-129 777,-110 860,-110 860,-129"/>
<text text-anchor="middle" x="818.5" y="-117" font-family="Helvetica,sans-Serif" font-size="10.00">EventBus.cpp</text>
</a>
</g>
</g>
<!-- Node2&#45;&gt;Node11 -->
<g id="edge13_Node000002_Node000011" class="edge">
<title>Node2&#45;&gt;Node11</title>
<g id="a_edge13_Node000002_Node000011"><a xlink:title=" ">
<path fill="none" stroke="#63b8ff" d="M819.32,-209.48C819.11,-185.84 818.74,-146.5 818.58,-129.16"/>
<polygon fill="#63b8ff" stroke="#63b8ff" points="815.83,-209.69 819.42,-219.66 822.83,-209.63 815.83,-209.69"/>
</a>
</g>
</g>
<!-- Node12 -->
<g id="Node000012" class="node">
<title>Node12</title>
<g id="a_Node000012"><a xlink:href="_event_emitter_8cpp.html" target="_top" xlink:title=" ">
<polygon fill="white" stroke="#666666" points="978.5,-129 878.5,-129 878.5,-110 978.5,-110 978.5,-129"/>
<text text-anchor="middle" x="928.5" y="-117" font-family="Helvetica,sans-Serif" font-size="10.00">EventEmitter.cpp</text>
</a>
</g>
</g>
<!-- Node2&#45;&gt;Node12 -->
<g id="edge14_Node000002_Node000012" class="edge">
<title>Node2&#45;&gt;Node12</title>
<g id="a_edge14_Node000002_Node000012"><a xlink:title=" ">
<path fill="none" stroke="#63b8ff" d="M835.54,-212.61C858.9,-189.47 901.47,-147.29 919.76,-129.16"/>
<polygon fill="#63b8ff" stroke="#63b8ff" points="833.06,-210.14 828.42,-219.66 837.99,-215.11 833.06,-210.14"/>
</a>
</g>
</g>
<!-- Node2&#45;&gt;Node13 -->
<g id="edge15_Node000002_Node000013" class="edge">
<title>Node2&#45;&gt;Node13</title>
<g id="a_edge15_Node000002_Node000013"><a xlink:title=" ">
<path fill="none" stroke="#63b8ff" d="M764.5,-222.15C673.11,-211.6 491.64,-190.64 406.55,-180.82"/>
<polygon fill="#63b8ff" stroke="#63b8ff" points="764.32,-225.65 774.65,-223.32 765.12,-218.7 764.32,-225.65"/>
</a>
</g>
</g>
<!-- Node19 -->
<g id="Node000019" class="node">
<title>Node19</title>
<g id="a_Node000019"><a xlink:href="_network_scheduler_8h.html" target="_top" xlink:title=" ">
<polygon fill="white" stroke="#666666" points="1110.5,-129 996.5,-129 996.5,-110 1110.5,-110 1110.5,-129"/>
<text text-anchor="middle" x="1053.5" y="-117" font-family="Helvetica,sans-Serif" font-size="10.00">NetworkScheduler.h</text>
</a>
</g>
</g>
<!-- Node2&#45;&gt;Node19 -->
<g id="edge28_Node000002_Node000019" class="edge">
<title>Node2&#45;&gt;Node19</title>
<g id="a_edge28_Node000002_Node000019"><a xlink:title=" ">
<path fill="none" stroke="#63b8ff" d="M847.52,-215.57C895.97,-193.21 994.11,-147.91 1034.98,-129.05"/>
<polygon fill="#63b8ff" stroke="#63b8ff" points="845.87,-212.48 838.25,-219.84 848.8,-218.83 845.87,-212.48"/>
</a>
</g>
</g>
<!-- Node4 -->
<g id="Node000004" class="node">
<title>Node4</title>
<g id="a_Node000004"><a xlink:href="_app_kit_8h.html" target="_top" xlink:title=" ">
<polygon fill="white" stroke="#666666" points="647.5,-19 589.5,-19 589.5,0 647.5,0 647.5,-19"/>
<text text-anchor="middle" x="618.5" y="-7" font-family="Helvetica,sans-Serif" font-size="10.00">AppKit.h</text>
</a>
</g>
</g>
<!-- Node3&#45;&gt;Node4 -->
<g id="edge3_Node000003_Node000004" class="edge">
<title>Node3&#45;&gt;Node4</title>
<g id="a_edge3_Node000003_Node000004"><a xlink:title=" ">
<path fill="none" stroke="#63b8ff" d="M1266.91,-110.85C1265.42,-110.55 1263.95,-110.27 1262.5,-110 1026.43,-66.08 739.12,-26.59 647.81,-14.38"/>
<polygon fill="#63b8ff" stroke="#63b8ff" points="1266.29,-114.29 1276.79,-112.88 1267.7,-107.43 1266.29,-114.29"/>
</a>
</g>
</g>
<!-- Node5 -->
<g id="Node000005" class="node">
<title>Node5</title>
<g id="a_Node000005"><a xlink:href="_lisp_device_8h.html" target="_top" xlink:title=" ">
<polygon fill="white" stroke="#666666" points="624,-74 545,-74 545,-55 624,-55 624,-74"/>
<text text-anchor="middle" x="584.5" y="-62" font-family="Helvetica,sans-Serif" font-size="10.00">LispDevice.h</text>
</a>
</g>
</g>
<!-- Node3&#45;&gt;Node5 -->
<g id="edge4_Node000003_Node000005" class="edge">
<title>Node3&#45;&gt;Node5</title>
<g id="a_edge4_Node000003_Node000005"><a xlink:title=" ">
<path fill="none" stroke="#63b8ff" d="M1266.94,-110.68C1265.44,-110.44 1263.96,-110.21 1262.5,-110 1021.59,-76.03 728.78,-67.91 624.07,-66.04"/>
<polygon fill="#63b8ff" stroke="#63b8ff" points="1266.37,-114.14 1276.84,-112.54 1267.66,-107.26 1266.37,-114.14"/>
</a>
</g>
</g>
<!-- Node6 -->
<g id="Node000006" class="node">
<title>Node6</title>
<g id="a_Node000006"><a xlink:href="_m_q_t_t_kit_8h.html" target="_top" xlink:title=" ">
<polygon fill="white" stroke="#666666" points="1290.5,-74 1222.5,-74 1222.5,-55 1290.5,-55 1290.5,-74"/>
<text text-anchor="middle" x="1256.5" y="-62" font-family="Helvetica,sans-Serif" font-size="10.00">MQTTKit.h</text>
</a>
</g>
</g>
<!-- Node3&#45;&gt;Node6 -->
<g id="edge6_Node000003_Node000006" class="edge">
<title>Node3&#45;&gt;Node6</title>
<g id="a_edge6_Node000003_Node000006"><a xlink:title=" ">
<path fill="none" stroke="#63b8ff" d="M1287.45,-101.96C1279.61,-92.72 1270.17,-81.6 1263.79,-74.09"/>
<polygon fill="#63b8ff" stroke="#63b8ff" points="1284.93,-104.39 1294.07,-109.75 1290.26,-99.86 1284.93,-104.39"/>
</a>
</g>
</g>
<!-- Node8 -->
<g id="Node000008" class="node">
<title>Node8</title>
<g id="a_Node000008"><a xlink:href="_top_device_8h.html" target="_top" xlink:title=" ">
<polygon fill="white" stroke="#666666" points="1384.5,-74 1308.5,-74 1308.5,-55 1384.5,-55 1384.5,-74"/>
<text text-anchor="middle" x="1346.5" y="-62" font-family="Helvetica,sans-Serif" font-size="10.00">TopDevice.h</text>
</a>
</g>
</g>
<!-- Node3&#45;&gt;Node8 -->
<g id="edge9_Node000003_Node000008" class="edge">
<title>Node3&#45;&gt;Node8</title>
<g id="a_edge9_Node000003_Node000008"><a xlink:title=" ">
<path fill="none" stroke="#63b8ff" d="M1315.55,-101.96C1323.39,-92.72 1332.83,-81.6 1339.21,-74.09"/>
<polygon fill="#63b8ff" stroke="#63b8ff" points="1312.74,-99.86 1308.93,-109.75 1318.07,-104.39 1312.74,-99.86"/>
</a>
</g>
</g>
<!-- Node9 -->
<g id="Node000009" class="node">
<title>Node9</title>
<g id="a_Node000009"><a xlink:href="_uniot_8h.html" target="_top" xlink:title=" ">
<polygon fill="white" stroke="#666666" points="1155.5,-74 1103.5,-74 1103.5,-55 1155.5,-55 1155.5,-74"/>
<text text-anchor="middle" x="1129.5" y="-62" font-family="Helvetica,sans-Serif" font-size="10.00">Uniot.h</text>
</a>
</g>
</g>
<!-- Node3&#45;&gt;Node9 -->
<g id="edge11_Node000003_Node000009" class="edge">
<title>Node3&#45;&gt;Node9</title>
<g id="a_edge11_Node000003_Node000009"><a xlink:title=" ">
<path fill="none" stroke="#63b8ff" d="M1267.2,-107.93C1234.29,-97.79 1185.31,-82.7 1155.5,-73.51"/>
<polygon fill="#63b8ff" stroke="#63b8ff" points="1266.27,-111.31 1276.86,-110.91 1268.33,-104.62 1266.27,-111.31"/>
</a>
</g>
</g>
<!-- Node5&#45;&gt;Node4 -->
<g id="edge5_Node000005_Node000004" class="edge">
<title>Node5&#45;&gt;Node4</title>
<g id="a_edge5_Node000005_Node000004"><a xlink:title=" ">
<path fill="none" stroke="#63b8ff" d="M595.66,-46.1C601.47,-37.04 608.32,-26.37 612.99,-19.09"/>
<polygon fill="#63b8ff" stroke="#63b8ff" points="592.57,-44.44 590.11,-54.75 598.46,-48.22 592.57,-44.44"/>
</a>
</g>
</g>
<!-- Node6&#45;&gt;Node4 -->
<g id="edge7_Node000006_Node000004" class="edge">
<title>Node6&#45;&gt;Node4</title>
<g id="a_edge7_Node000006_Node000004"><a xlink:title=" ">
<path fill="none" stroke="#63b8ff" d="M1212.29,-59.32C1197.14,-57.91 1180.08,-56.35 1164.5,-55 966.95,-37.82 729.01,-19.11 647.51,-12.75"/>
<polygon fill="#63b8ff" stroke="#63b8ff" points="1212.15,-62.82 1222.43,-60.26 1212.8,-55.85 1212.15,-62.82"/>
</a>
</g>
</g>
<!-- Node7 -->
<g id="Node000007" class="node">
<title>Node7</title>
<g id="a_Node000007"><a xlink:href="_m_q_t_t_device_8cpp.html" target="_top" xlink:title=" ">
<polygon fill="white" stroke="#666666" points="1355,-19 1256,-19 1256,0 1355,0 1355,-19"/>
<text text-anchor="middle" x="1305.5" y="-7" font-family="Helvetica,sans-Serif" font-size="10.00">MQTTDevice.cpp</text>
</a>
</g>
</g>
<!-- Node6&#45;&gt;Node7 -->
<g id="edge8_Node000006_Node000007" class="edge">
<title>Node6&#45;&gt;Node7</title>
<g id="a_edge8_Node000006_Node000007"><a xlink:title=" ">
<path fill="none" stroke="#63b8ff" d="M1271.53,-47.24C1280.12,-37.95 1290.54,-26.68 1297.56,-19.09"/>
<polygon fill="#63b8ff" stroke="#63b8ff" points="1268.81,-45.03 1264.59,-54.75 1273.95,-49.78 1268.81,-45.03"/>
</a>
</g>
</g>
<!-- Node8&#45;&gt;Node4 -->
<g id="edge10_Node000008_Node000004" class="edge">
<title>Node8&#45;&gt;Node4</title>
<g id="a_edge10_Node000008_Node000004"><a xlink:title=" ">
<path fill="none" stroke="#63b8ff" d="M1298.03,-54.97C1040.39,-23.92 741.23,-13.79 647.82,-11.23"/>
<polygon fill="#63b8ff" stroke="#63b8ff" points="1297.99,-58.49 1308.34,-56.22 1298.83,-51.54 1297.99,-58.49"/>
</a>
</g>
</g>
<!-- Node10 -->
<g id="Node000010" class="node">
<title>Node10</title>
<g id="a_Node000010"><a xlink:href="_uniot_8cpp.html" target="_top" xlink:title=" ">
<polygon fill="white" stroke="#666666" points="1161,-19 1098,-19 1098,0 1161,0 1161,-19"/>
<text text-anchor="middle" x="1129.5" y="-7" font-family="Helvetica,sans-Serif" font-size="10.00">Uniot.cpp</text>
</a>
</g>
</g>
<!-- Node9&#45;&gt;Node10 -->
<g id="edge12_Node000009_Node000010" class="edge">
<title>Node9&#45;&gt;Node10</title>
<g id="a_edge12_Node000009_Node000010"><a xlink:title=" ">
<path fill="none" stroke="#63b8ff" d="M1129.5,-44.66C1129.5,-35.93 1129.5,-25.99 1129.5,-19.09"/>
<polygon fill="#63b8ff" stroke="#63b8ff" points="1126,-44.75 1129.5,-54.75 1133,-44.75 1126,-44.75"/>
</a>
</g>
</g>
<!-- Node13&#45;&gt;Node5 -->
<g id="edge21_Node000013_Node000005" class="edge">
<title>Node13&#45;&gt;Node5</title>
<g id="a_edge21_Node000013_Node000005"><a xlink:title=" ">
<path fill="none" stroke="#63b8ff" d="M359.89,-154.57C360.5,-140.38 363.74,-121.5 375.5,-110 381.57,-104.07 485.76,-83.88 544.69,-72.84"/>
<polygon fill="#63b8ff" stroke="#63b8ff" points="356.39,-154.7 359.86,-164.72 363.39,-154.73 356.39,-154.7"/>
</a>
</g>
</g>
<!-- Node13&#45;&gt;Node6 -->
<g id="edge22_Node000013_Node000006" class="edge">
<title>Node13&#45;&gt;Node6</title>
<g id="a_edge22_Node000013_Node000006"><a xlink:title=" ">
<path fill="none" stroke="#63b8ff" d="M368.77,-155.17C376.64,-140.12 390.03,-119.75 408.5,-110 482.88,-70.75 1080.61,-79.87 1164.5,-74 1183.7,-72.66 1205.12,-70.7 1222.45,-69.01"/>
<polygon fill="#63b8ff" stroke="#63b8ff" points="365.43,-154.02 364.2,-164.54 371.73,-157.08 365.43,-154.02"/>
</a>
</g>
</g>
<!-- Node13&#45;&gt;Node11 -->
<g id="edge19_Node000013_Node000011" class="edge">
<title>Node13&#45;&gt;Node11</title>
<g id="a_edge19_Node000013_Node000011"><a xlink:title=" ">
<path fill="none" stroke="#63b8ff" d="M416.59,-167.01C509.75,-156.23 694.28,-134.88 776.85,-125.32"/>
<polygon fill="#63b8ff" stroke="#63b8ff" points="416.04,-163.55 406.51,-168.18 416.85,-170.5 416.04,-163.55"/>
</a>
</g>
</g>
<!-- Node14 -->
<g id="Node000014" class="node">
<title>Node14</title>
<g id="a_Node000014"><a xlink:href="_callback_event_listener_8h.html" target="_top" xlink:title=" ">
<polygon fill="white" stroke="#666666" points="285.5,-129 151.5,-129 151.5,-110 285.5,-110 285.5,-129"/>
<text text-anchor="middle" x="218.5" y="-117" font-family="Helvetica,sans-Serif" font-size="10.00">CallbackEventListener.h</text>
</a>
</g>
</g>
<!-- Node13&#45;&gt;Node14 -->
<g id="edge16_Node000013_Node000014" class="edge">
<title>Node13&#45;&gt;Node14</title>
<g id="a_edge16_Node000013_Node000014"><a xlink:title=" ">
<path fill="none" stroke="#63b8ff" d="M328.14,-161.42C301.79,-151.59 265.24,-137.95 241.73,-129.17"/>
<polygon fill="#63b8ff" stroke="#63b8ff" points="327.09,-164.77 337.69,-164.98 329.54,-158.21 327.09,-164.77"/>
</a>
</g>
</g>
<!-- Node16 -->
<g id="Node000016" class="node">
<title>Node16</title>
<g id="a_Node000016"><a xlink:href="_event_listener_8cpp.html" target="_top" xlink:title=" ">
<polygon fill="white" stroke="#666666" points="521,-129 418,-129 418,-110 521,-110 521,-129"/>
<text text-anchor="middle" x="469.5" y="-117" font-family="Helvetica,sans-Serif" font-size="10.00">EventListener.cpp</text>
</a>
</g>
</g>
<!-- Node13&#45;&gt;Node16 -->
<g id="edge20_Node000013_Node000016" class="edge">
<title>Node13&#45;&gt;Node16</title>
<g id="a_edge20_Node000013_Node000016"><a xlink:title=" ">
<path fill="none" stroke="#63b8ff" d="M387.23,-160.5C407.29,-150.75 434.18,-137.68 451.67,-129.17"/>
<polygon fill="#63b8ff" stroke="#63b8ff" points="385.48,-157.46 378.01,-164.98 388.54,-163.76 385.48,-157.46"/>
</a>
</g>
</g>
<!-- Node17 -->
<g id="Node000017" class="node">
<title>Node17</title>
<g id="a_Node000017"><a xlink:href="_network_controller_8h.html" target="_top" xlink:title=" ">
<polygon fill="white" stroke="#666666" points="526.5,-74 412.5,-74 412.5,-55 526.5,-55 526.5,-74"/>
<text text-anchor="middle" x="469.5" y="-62" font-family="Helvetica,sans-Serif" font-size="10.00">NetworkController.h</text>
</a>
</g>
</g>
<!-- Node13&#45;&gt;Node17 -->
<g id="edge23_Node000013_Node000017" class="edge">
<title>Node13&#45;&gt;Node17</title>
<g id="a_edge23_Node000013_Node000017"><a xlink:title=" ">
<path fill="none" stroke="#63b8ff" d="M346.52,-157.01C336.81,-143.45 327.29,-124.22 337.5,-110 354.57,-86.23 384.99,-74.99 412.33,-69.74"/>
<polygon fill="#63b8ff" stroke="#63b8ff" points="343.83,-159.25 352.73,-164.99 349.35,-154.95 343.83,-159.25"/>
</a>
</g>
</g>
<!-- Node18 -->
<g id="Node000018" class="node">
<title>Node18</title>
<g id="a_Node000018"><a xlink:href="un_lisp_8h.html" target="_top" xlink:title=" ">
<polygon fill="white" stroke="#666666" points="133,-129 76,-129 76,-110 133,-110 133,-129"/>
<text text-anchor="middle" x="104.5" y="-117" font-family="Helvetica,sans-Serif" font-size="10.00">unLisp.h</text>
</a>
</g>
</g>
<!-- Node13&#45;&gt;Node18 -->
<g id="edge25_Node000013_Node000018" class="edge">
<title>Node13&#45;&gt;Node18</title>
<g id="a_edge25_Node000013_Node000018"><a xlink:title=" ">
<path fill="none" stroke="#63b8ff" d="M307.49,-162.97C263.31,-154.12 198.75,-141.03 142.5,-129 139.46,-128.35 136.28,-127.66 133.12,-126.96"/>
<polygon fill="#63b8ff" stroke="#63b8ff" points="306.94,-166.43 317.43,-164.96 308.31,-159.56 306.94,-166.43"/>
</a>
</g>
</g>
<!-- Node14&#45;&gt;Node4 -->
<g id="edge17_Node000014_Node000004" class="edge">
<title>Node14&#45;&gt;Node4</title>
<g id="a_edge17_Node000014_Node000004"><a xlink:title=" ">
<path fill="none" stroke="#63b8ff" d="M250.02,-106.31C286.54,-92.51 348.72,-70.01 403.5,-55 469.12,-37.02 547.76,-22.48 589.36,-15.32"/>
<polygon fill="#63b8ff" stroke="#63b8ff" points="248.53,-103.13 240.43,-109.96 251.02,-109.68 248.53,-103.13"/>
</a>
</g>
</g>
<!-- Node15 -->
<g id="Node000015" class="node">
<title>Node15</title>
<g id="a_Node000015"><a xlink:href="_callback_event_listener_8cpp.html" target="_top" xlink:title=" ">
<polygon fill="white" stroke="#666666" points="297,-74 152,-74 152,-55 297,-55 297,-74"/>
<text text-anchor="middle" x="224.5" y="-62" font-family="Helvetica,sans-Serif" font-size="10.00">CallbackEventListener.cpp</text>
</a>
</g>
</g>
<!-- Node14&#45;&gt;Node15 -->
<g id="edge18_Node000014_Node000015" class="edge">
<title>Node14&#45;&gt;Node15</title>
<g id="a_edge18_Node000014_Node000015"><a xlink:title=" ">
<path fill="none" stroke="#63b8ff" d="M220.63,-99.66C221.62,-90.93 222.75,-80.99 223.53,-74.09"/>
<polygon fill="#63b8ff" stroke="#63b8ff" points="217.14,-99.42 219.49,-109.75 224.09,-100.21 217.14,-99.42"/>
</a>
</g>
</g>
<!-- Node17&#45;&gt;Node4 -->
<g id="edge24_Node000017_Node000004" class="edge">
<title>Node17&#45;&gt;Node4</title>
<g id="a_edge24_Node000017_Node000004"><a xlink:title=" ">
<path fill="none" stroke="#63b8ff" d="M503.09,-51.55C530.76,-41.71 569.34,-27.98 594.12,-19.17"/>
<polygon fill="#63b8ff" stroke="#63b8ff" points="501.69,-48.34 493.44,-54.98 504.03,-54.93 501.69,-48.34"/>
</a>
</g>
</g>
<!-- Node18&#45;&gt;Node4 -->
<g id="edge26_Node000018_Node000004" class="edge">
<title>Node18&#45;&gt;Node4</title>
<g id="a_edge26_Node000018_Node000004"><a xlink:title=" ">
<path fill="none" stroke="#63b8ff" d="M110.3,-100.04C116,-85.22 126.23,-65.25 142.5,-55 180.33,-31.16 491.77,-15.92 589.37,-11.7"/>
<polygon fill="#63b8ff" stroke="#63b8ff" points="106.92,-99.12 106.94,-109.71 113.53,-101.42 106.92,-99.12"/>
</a>
</g>
</g>
<!-- Node18&#45;&gt;Node5 -->
<g id="edge27_Node000018_Node000005" class="edge">
<title>Node18&#45;&gt;Node5</title>
<g id="a_edge27_Node000018_Node000005"><a xlink:title=" ">
<path fill="none" stroke="#63b8ff" d="M143.09,-110.13C317.52,-83.31 364.84,-96.58 535.5,-74 538.58,-73.59 541.77,-73.13 544.96,-72.64"/>
<polygon fill="#63b8ff" stroke="#63b8ff" points="142.4,-106.7 133.06,-111.7 143.48,-113.62 142.4,-106.7"/>
</a>
</g>
</g>
<!-- Node19&#45;&gt;Node6 -->
<g id="edge29_Node000019_Node000006" class="edge">
<title>Node19&#45;&gt;Node6</title>
<g id="a_edge29_Node000019_Node000006"><a xlink:title=" ">
<path fill="none" stroke="#63b8ff" d="M1095.87,-107.44C1133.87,-97.52 1188.86,-83.16 1223.63,-74.08"/>
<polygon fill="#63b8ff" stroke="#63b8ff" points="1094.91,-104.07 1086.12,-109.98 1096.68,-110.84 1094.91,-104.07"/>
</a>
</g>
</g>
<!-- Node19&#45;&gt;Node17 -->
<g id="edge30_Node000019_Node000017" class="edge">
<title>Node19&#45;&gt;Node17</title>
<g id="a_edge30_Node000019_Node000017"><a xlink:title=" ">
<path fill="none" stroke="#63b8ff" d="M986.31,-109.93C785.82,-89.32 733.29,-94.33 536.5,-74 533.35,-73.67 530.12,-73.32 526.86,-72.96"/>
<polygon fill="#63b8ff" stroke="#63b8ff" points="985.97,-113.41 996.28,-110.96 986.7,-106.45 985.97,-113.41"/>
</a>
</g>
</g>
<!-- Node20&#45;&gt;Node2 -->
<g id="edge33_Node000020_Node000002" class="edge">
<title>Node20&#45;&gt;Node2</title>
<g id="a_edge33_Node000020_Node000002"><a xlink:title=" ">
<path fill="none" stroke="#63b8ff" d="M870.91,-268.88C858.13,-259.34 841.89,-247.21 831.11,-239.17"/>
<polygon fill="#63b8ff" stroke="#63b8ff" points="868.99,-271.81 879.09,-274.98 873.17,-266.2 868.99,-271.81"/>
</a>
</g>
</g>
<!-- Node20&#45;&gt;Node11 -->
<g id="edge32_Node000020_Node000011" class="edge">
<title>Node20&#45;&gt;Node11</title>
<g id="a_edge32_Node000020_Node000011"><a xlink:title=" ">
<path fill="none" stroke="#63b8ff" d="M886.73,-264.68C883.85,-251.84 879.38,-234.57 873.5,-220 859.25,-184.67 835.23,-146.06 824.27,-129.19"/>
<polygon fill="#63b8ff" stroke="#63b8ff" points="883.34,-265.6 888.84,-274.65 890.19,-264.15 883.34,-265.6"/>
</a>
</g>
</g>
<!-- Node21 -->
<g id="Node000021" class="node">
<title>Node21</title>
<g id="a_Node000021"><a xlink:href="_event_entity_8cpp.html" target="_top" xlink:title=" ">
<polygon fill="white" stroke="#666666" points="1220.5,-129 1128.5,-129 1128.5,-110 1220.5,-110 1220.5,-129"/>
<text text-anchor="middle" x="1174.5" y="-117" font-family="Helvetica,sans-Serif" font-size="10.00">EventEntity.cpp</text>
</a>
</g>
</g>
<!-- Node20&#45;&gt;Node21 -->
<g id="edge34_Node000020_Node000021" class="edge">
<title>Node20&#45;&gt;Node21</title>
<g id="a_edge34_Node000020_Node000021"><a xlink:title=" ">
<path fill="none" stroke="#63b8ff" d="M914.33,-269.83C971.06,-237.26 1112.88,-155.86 1159.44,-129.15"/>
<polygon fill="#63b8ff" stroke="#63b8ff" points="912.3,-266.95 905.37,-274.97 915.78,-273.02 912.3,-266.95"/>
</a>
</g>
</g>
<!-- Node22&#45;&gt;Node5 -->
<g id="edge39_Node000022_Node000005" class="edge">
<title>Node22&#45;&gt;Node5</title>
<g id="a_edge39_Node000022_Node000005"><a xlink:title=" ">
<path fill="none" stroke="#63b8ff" d="M1400.97,-163.82C1363.17,-156.31 1312.01,-144.56 1268.5,-129 1250.35,-122.51 1248.13,-114.98 1229.5,-110 1114.28,-79.21 745.92,-68.88 624.06,-66.25"/>
<polygon fill="#63b8ff" stroke="#63b8ff" points="1400.77,-167.34 1411.26,-165.82 1402.11,-160.47 1400.77,-167.34"/>
</a>
</g>
</g>
<!-- Node22&#45;&gt;Node6 -->
<g id="edge41_Node000022_Node000006" class="edge">
<title>Node22&#45;&gt;Node6</title>
<g id="a_edge41_Node000022_Node000006"><a xlink:title=" ">
<path fill="none" stroke="#63b8ff" d="M1471.67,-157.23C1483.29,-143.54 1495.04,-124.02 1483.5,-110 1457.02,-77.83 1340.38,-82.04 1299.5,-74 1296.66,-73.44 1293.72,-72.86 1290.77,-72.28"/>
<polygon fill="#63b8ff" stroke="#63b8ff" points="1468.82,-155.15 1464.66,-164.89 1473.99,-159.87 1468.82,-155.15"/>
</a>
</g>
</g>
<!-- Node22&#45;&gt;Node7 -->
<g id="edge40_Node000022_Node000007" class="edge">
<title>Node22&#45;&gt;Node7</title>
<g id="a_edge40_Node000022_Node000007"><a xlink:title=" ">
<path fill="none" stroke="#63b8ff" d="M1491.21,-161.16C1517.64,-149.94 1546.77,-131.83 1532.5,-110 1493.42,-50.21 1409.58,-26.12 1355.45,-16.58"/>
<polygon fill="#63b8ff" stroke="#63b8ff" points="1489.67,-158.01 1481.69,-164.98 1492.27,-164.51 1489.67,-158.01"/>
</a>
</g>
</g>
<!-- Node22&#45;&gt;Node8 -->
<g id="edge42_Node000022_Node000008" class="edge">
<title>Node22&#45;&gt;Node8</title>
<g id="a_edge42_Node000022_Node000008"><a xlink:title=" ">
<path fill="none" stroke="#63b8ff" d="M1483.77,-160.12C1505.95,-147.78 1530.87,-128.61 1516.5,-110 1500.51,-89.29 1429.65,-76.36 1384.61,-70.08"/>
<polygon fill="#63b8ff" stroke="#63b8ff" points="1482.08,-157.05 1474.87,-164.81 1485.34,-163.25 1482.08,-157.05"/>
</a>
</g>
</g>
<!-- Node23 -->
<g id="Node000023" class="node">
<title>Node23</title>
<g id="a_Node000023"><a xlink:href="_callback_m_q_t_t_device_8h.html" target="_top" xlink:title=" ">
<polygon fill="white" stroke="#666666" points="1474.5,-129 1344.5,-129 1344.5,-110 1474.5,-110 1474.5,-129"/>
<text text-anchor="middle" x="1409.5" y="-117" font-family="Helvetica,sans-Serif" font-size="10.00">CallbackMQTTDevice.h</text>
</a>
</g>
</g>
<!-- Node22&#45;&gt;Node23 -->
<g id="edge37_Node000022_Node000023" class="edge">
<title>Node22&#45;&gt;Node23</title>
<g id="a_edge37_Node000022_Node000023"><a xlink:title=" ">
<path fill="none" stroke="#63b8ff" d="M1441.14,-156.96C1433.13,-147.72 1423.47,-136.6 1416.95,-129.09"/>
<polygon fill="#63b8ff" stroke="#63b8ff" points="1438.71,-159.49 1447.9,-164.75 1443.99,-154.9 1438.71,-159.49"/>
</a>
</g>
</g>
<!-- Node23&#45;&gt;Node6 -->
<g id="edge38_Node000023_Node000006" class="edge">
<title>Node23&#45;&gt;Node6</title>
<g id="a_edge38_Node000023_Node000006"><a xlink:title=" ">
<path fill="none" stroke="#63b8ff" d="M1375.35,-106.67C1346.82,-96.79 1306.81,-82.93 1281.27,-74.08"/>
<polygon fill="#63b8ff" stroke="#63b8ff" points="1374.32,-110.02 1384.92,-109.98 1376.61,-103.4 1374.32,-110.02"/>
</a>
</g>
</g>
<!-- Node25 -->
<g id="Node000025" class="node">
<title>Node25</title>
<g id="a_Node000025"><a xlink:href="_data_channels_8h.html" target="_top" xlink:title=" ">
<polygon fill="white" stroke="#666666" points="752.5,-404 658.5,-404 658.5,-385 752.5,-385 752.5,-404"/>
<text text-anchor="middle" x="705.5" y="-392" font-family="Helvetica,sans-Serif" font-size="10.00">DataChannels.h</text>
</a>
</g>
</g>
<!-- Node24&#45;&gt;Node25 -->
<g id="edge44_Node000024_Node000025" class="edge">
<title>Node24&#45;&gt;Node25</title>
<g id="a_edge44_Node000024_Node000025"><a xlink:title=" ">
<path fill="none" stroke="#63b8ff" d="M705.5,-429.66C705.5,-420.93 705.5,-410.99 705.5,-404.09"/>
<polygon fill="#63b8ff" stroke="#63b8ff" points="702,-429.75 705.5,-439.75 709,-429.75 702,-429.75"/>
</a>
</g>
</g>
<!-- Node29 -->
<g id="Node000029" class="node">
<title>Node29</title>
<g id="a_Node000029"><a xlink:href="_register_8h.html" target="_top" xlink:title=" ">
<polygon fill="white" stroke="#666666" points="583,-404 518,-404 518,-385 583,-385 583,-404"/>
<text text-anchor="middle" x="550.5" y="-392" font-family="Helvetica,sans-Serif" font-size="10.00">Register.h</text>
</a>
</g>
</g>
<!-- Node24&#45;&gt;Node29 -->
<g id="edge57_Node000024_Node000029" class="edge">
<title>Node24&#45;&gt;Node29</title>
<g id="a_edge57_Node000024_Node000029"><a xlink:title=" ">
<path fill="none" stroke="#63b8ff" d="M672.27,-437.14C643.27,-427.22 601.83,-413.05 575.55,-404.07"/>
<polygon fill="#63b8ff" stroke="#63b8ff" points="671.36,-440.53 681.96,-440.45 673.63,-433.9 671.36,-440.53"/>
</a>
</g>
</g>
<!-- Node26 -->
<g id="Node000026" class="node">
<title>Node26</title>
<g id="a_Node000026"><a xlink:href="_data_channels_8cpp.html" target="_top" xlink:title=" ">
<polygon fill="white" stroke="#666666" points="718,-349 613,-349 613,-330 718,-330 718,-349"/>
<text text-anchor="middle" x="665.5" y="-337" font-family="Helvetica,sans-Serif" font-size="10.00">DataChannels.cpp</text>
</a>
</g>
</g>
<!-- Node25&#45;&gt;Node26 -->
<g id="edge45_Node000025_Node000026" class="edge">
<title>Node25&#45;&gt;Node26</title>
<g id="a_edge45_Node000025_Node000026"><a xlink:title=" ">
<path fill="none" stroke="#63b8ff" d="M692.8,-376.67C685.87,-367.5 677.59,-356.52 671.98,-349.09"/>
<polygon fill="#63b8ff" stroke="#63b8ff" points="690.08,-378.87 698.89,-384.75 695.66,-374.66 690.08,-378.87"/>
</a>
</g>
</g>
<!-- Node27 -->
<g id="Node000027" class="node">
<title>Node27</title>
<g id="a_Node000027"><a xlink:href="_event_bus_8h.html" target="_top" xlink:title=" ">
<polygon fill="white" stroke="#666666" points="783,-184 712,-184 712,-165 783,-165 783,-184"/>
<text text-anchor="middle" x="747.5" y="-172" font-family="Helvetica,sans-Serif" font-size="10.00">EventBus.h</text>
</a>
</g>
</g>
<!-- Node25&#45;&gt;Node27 -->
<g id="edge46_Node000025_Node000027" class="edge">
<title>Node25&#45;&gt;Node27</title>
<g id="a_edge46_Node000025_Node000027"><a xlink:title=" ">
<path fill="none" stroke="#63b8ff" d="M715.76,-376.26C720.07,-368.24 724.73,-358.4 727.5,-349 745.61,-287.64 747.45,-209.56 747.54,-184.01"/>
<polygon fill="#63b8ff" stroke="#63b8ff" points="712.69,-374.57 710.81,-385 718.78,-378.02 712.69,-374.57"/>
</a>
</g>
</g>
<!-- Node27&#45;&gt;Node4 -->
<g id="edge47_Node000027_Node000004" class="edge">
<title>Node27&#45;&gt;Node4</title>
<g id="a_edge47_Node000027_Node000004"><a xlink:title=" ">
<path fill="none" stroke="#63b8ff" d="M734.14,-156.62C706.96,-122.28 646.08,-45.34 625.47,-19.31"/>
<polygon fill="#63b8ff" stroke="#63b8ff" points="731.61,-159.07 740.56,-164.74 737.1,-154.72 731.61,-159.07"/>
</a>
</g>
</g>
<!-- Node27&#45;&gt;Node9 -->
<g id="edge56_Node000027_Node000009" class="edge">
<title>Node27&#45;&gt;Node9</title>
<g id="a_edge56_Node000027_Node000009"><a xlink:title=" ">
<path fill="none" stroke="#63b8ff" d="M748.51,-154.59C750.35,-140.09 755.32,-120.81 768.5,-110 819.7,-68 1029.34,-64.95 1103.42,-65.22"/>
<polygon fill="#63b8ff" stroke="#63b8ff" points="744.99,-154.66 747.61,-164.93 751.96,-155.27 744.99,-154.66"/>
</a>
</g>
</g>
<!-- Node27&#45;&gt;Node11 -->
<g id="edge48_Node000027_Node000011" class="edge">
<title>Node27&#45;&gt;Node11</title>
<g id="a_edge48_Node000027_Node000011"><a xlink:title=" ">
<path fill="none" stroke="#63b8ff" d="M767.09,-158.88C779.87,-149.34 796.11,-137.21 806.89,-129.17"/>
<polygon fill="#63b8ff" stroke="#63b8ff" points="764.83,-156.2 758.91,-164.98 769.01,-161.81 764.83,-156.2"/>
</a>
</g>
</g>
<!-- Node27&#45;&gt;Node12 -->
<g id="edge49_Node000027_Node000012" class="edge">
<title>Node27&#45;&gt;Node12</title>
<g id="a_edge49_Node000027_Node000012"><a xlink:title=" ">
<path fill="none" stroke="#63b8ff" d="M786.58,-162.06C820.41,-152.15 868.58,-138.04 899.19,-129.08"/>
<polygon fill="#63b8ff" stroke="#63b8ff" points="785.19,-158.82 776.58,-164.98 787.16,-165.53 785.19,-158.82"/>
</a>
</g>
</g>
<!-- Node27&#45;&gt;Node16 -->
<g id="edge51_Node000027_Node000016" class="edge">
<title>Node27&#45;&gt;Node16</title>
<g id="a_edge51_Node000027_Node000016"><a xlink:title=" ">
<path fill="none" stroke="#63b8ff" d="M701.8,-164.79C649.92,-154.9 565.84,-138.87 514.33,-129.05"/>
<polygon fill="#63b8ff" stroke="#63b8ff" points="701.25,-168.24 711.73,-166.68 702.56,-161.37 701.25,-168.24"/>
</a>
</g>
</g>
<!-- Node27&#45;&gt;Node19 -->
<g id="edge55_Node000027_Node000019" class="edge">
<title>Node27&#45;&gt;Node19</title>
<g id="a_edge55_Node000027_Node000019"><a xlink:title=" ">
<path fill="none" stroke="#63b8ff" d="M793.31,-165.56C850.03,-155.74 946.24,-139.08 1004.42,-129"/>
<polygon fill="#63b8ff" stroke="#63b8ff" points="792.46,-162.16 783.2,-167.32 793.65,-169.06 792.46,-162.16"/>
</a>
</g>
</g>
<!-- Node27&#45;&gt;Node21 -->
<g id="edge50_Node000027_Node000021" class="edge">
<title>Node27&#45;&gt;Node21</title>
<g id="a_edge50_Node000027_Node000021"><a xlink:title=" ">
<path fill="none" stroke="#63b8ff" d="M793.48,-168.51C863.81,-160.77 1002.27,-145.07 1119.5,-129 1122.37,-128.61 1125.33,-128.19 1128.3,-127.76"/>
<polygon fill="#63b8ff" stroke="#63b8ff" points="792.76,-165.07 783.2,-169.64 793.53,-172.03 792.76,-165.07"/>
</a>
</g>
</g>
<!-- Node28 -->
<g id="Node000028" class="node">
<title>Node28</title>
<g id="a_Node000028"><a xlink:href="_i_event_bus_connection_kit_8h.html" target="_top" xlink:title="Defines the interface for components that can connect to an EventBus.">
<polygon fill="white" stroke="#666666" points="682,-129 539,-129 539,-110 682,-110 682,-129"/>
<text text-anchor="middle" x="610.5" y="-117" font-family="Helvetica,sans-Serif" font-size="10.00">IEventBusConnectionKit.h</text>
</a>
</g>
</g>
<!-- Node27&#45;&gt;Node28 -->
<g id="edge52_Node000027_Node000028" class="edge">
<title>Node27&#45;&gt;Node28</title>
<g id="a_edge52_Node000027_Node000028"><a xlink:title=" ">
<path fill="none" stroke="#63b8ff" d="M710.86,-161.55C683.91,-151.71 648.64,-137.98 627.76,-129.17"/>
<polygon fill="#63b8ff" stroke="#63b8ff" points="709.78,-164.88 720.37,-164.98 712.16,-158.3 709.78,-164.88"/>
</a>
</g>
</g>
<!-- Node28&#45;&gt;Node4 -->
<g id="edge53_Node000028_Node000004" class="edge">
<title>Node28&#45;&gt;Node4</title>
<g id="a_edge53_Node000028_Node000004"><a xlink:title=" ">
<path fill="none" stroke="#63b8ff" d="M621.92,-101.15C626.48,-93.22 631.19,-83.49 633.5,-74 638.26,-54.41 629.15,-31.36 623.16,-19.14"/>
<polygon fill="#63b8ff" stroke="#63b8ff" points="618.86,-99.45 616.6,-109.8 624.82,-103.11 618.86,-99.45"/>
</a>
</g>
</g>
<!-- Node28&#45;&gt;Node27 -->
<g id="edge54_Node000028_Node000027" class="edge">
<title>Node28&#45;&gt;Node27</title>
<g id="a_edge54_Node000028_Node000027"><a xlink:title=" ">
<path fill="none" stroke="#63b8ff" d="M647.61,-132.62C674.66,-142.51 709.9,-156.23 730.6,-164.98"/>
<polygon fill="#63b8ff" stroke="#63b8ff" points="648.65,-129.28 638.06,-129.17 646.28,-135.86 648.65,-129.28"/>
</a>
</g>
</g>
<!-- Node30 -->
<g id="Node000030" class="node">
<title>Node30</title>
<g id="a_Node000030"><a xlink:href="_gpio_register_8h.html" target="_top" xlink:title=" ">
<polygon fill="white" stroke="#666666" points="594.5,-349 506.5,-349 506.5,-330 594.5,-330 594.5,-349"/>
<text text-anchor="middle" x="550.5" y="-337" font-family="Helvetica,sans-Serif" font-size="10.00">GpioRegister.h</text>
</a>
</g>
</g>
<!-- Node29&#45;&gt;Node30 -->
<g id="edge58_Node000029_Node000030" class="edge">
<title>Node29&#45;&gt;Node30</title>
<g id="a_edge58_Node000029_Node000030"><a xlink:title=" ">
<path fill="none" stroke="#63b8ff" d="M550.5,-374.66C550.5,-365.93 550.5,-355.99 550.5,-349.09"/>
<polygon fill="#63b8ff" stroke="#63b8ff" points="547,-374.75 550.5,-384.75 554,-374.75 547,-374.75"/>
</a>
</g>
</g>
<!-- Node35 -->
<g id="Node000035" class="node">
<title>Node35</title>
<g id="a_Node000035"><a xlink:href="_object_register_8h.html" target="_top" xlink:title=" ">
<polygon fill="white" stroke="#666666" points="488,-349 391,-349 391,-330 488,-330 488,-349"/>
<text text-anchor="middle" x="439.5" y="-337" font-family="Helvetica,sans-Serif" font-size="10.00">ObjectRegister.h</text>
</a>
</g>
</g>
<!-- Node29&#45;&gt;Node35 -->
<g id="edge65_Node000029_Node000035" class="edge">
<title>Node29&#45;&gt;Node35</title>
<g id="a_edge65_Node000029_Node000035"><a xlink:title=" ">
<path fill="none" stroke="#63b8ff" d="M523.55,-380.63C503.11,-370.87 475.55,-357.71 457.66,-349.17"/>
<polygon fill="#63b8ff" stroke="#63b8ff" points="522.13,-383.83 532.67,-384.98 525.15,-377.52 522.13,-383.83"/>
</a>
</g>
</g>
<!-- Node31 -->
<g id="Node000031" class="node">
<title>Node31</title>
<g id="a_Node000031"><a xlink:href="_register_manager_8h.html" target="_top" xlink:title=" ">
<polygon fill="white" stroke="#666666" points="496.5,-294 388.5,-294 388.5,-275 496.5,-275 496.5,-294"/>
<text text-anchor="middle" x="442.5" y="-282" font-family="Helvetica,sans-Serif" font-size="10.00">RegisterManager.h</text>
</a>
</g>
</g>
<!-- Node30&#45;&gt;Node31 -->
<g id="edge59_Node000030_Node000031" class="edge">
<title>Node30&#45;&gt;Node31</title>
<g id="a_edge59_Node000030_Node000031"><a xlink:title=" ">
<path fill="none" stroke="#63b8ff" d="M524.01,-325.5C504.14,-315.75 477.5,-302.68 460.17,-294.17"/>
<polygon fill="#63b8ff" stroke="#63b8ff" points="522.63,-328.72 533.15,-329.98 525.71,-322.44 522.63,-328.72"/>
</a>
</g>
</g>
<!-- Node32 -->
<g id="Node000032" class="node">
<title>Node32</title>
<g id="a_Node000032"><a xlink:href="_register_manager_proxy_8h.html" target="_top" xlink:title=" ">
<polygon fill="white" stroke="#666666" points="253,-239 118,-239 118,-220 253,-220 253,-239"/>
<text text-anchor="middle" x="185.5" y="-227" font-family="Helvetica,sans-Serif" font-size="10.00">RegisterManagerProxy.h</text>
</a>
</g>
</g>
<!-- Node31&#45;&gt;Node32 -->
<g id="edge60_Node000031_Node000032" class="edge">
<title>Node31&#45;&gt;Node32</title>
<g id="a_edge60_Node000031_Node000032"><a xlink:title=" ">
<path fill="none" stroke="#63b8ff" d="M391.3,-272.94C343.12,-263.01 271.88,-248.31 227.12,-239.08"/>
<polygon fill="#63b8ff" stroke="#63b8ff" points="390.71,-276.39 401.21,-274.98 392.12,-269.54 390.71,-276.39"/>
</a>
</g>
</g>
<!-- Node33 -->
<g id="Node000033" class="node">
<title>Node33</title>
<g id="a_Node000033"><a xlink:href="_primitive_expeditor_8h.html" target="_top" xlink:title=" ">
<polygon fill="white" stroke="#666666" points="162.5,-184 46.5,-184 46.5,-165 162.5,-165 162.5,-184"/>
<text text-anchor="middle" x="104.5" y="-172" font-family="Helvetica,sans-Serif" font-size="10.00">PrimitiveExpeditor.h</text>
</a>
</g>
</g>
<!-- Node32&#45;&gt;Node33 -->
<g id="edge61_Node000032_Node000033" class="edge">
<title>Node32&#45;&gt;Node33</title>
<g id="a_edge61_Node000032_Node000033"><a xlink:title=" ">
<path fill="none" stroke="#63b8ff" d="M163.99,-214.42C149.29,-204.81 130.28,-192.37 117.75,-184.17"/>
<polygon fill="#63b8ff" stroke="#63b8ff" points="162.2,-217.44 172.49,-219.98 166.03,-211.58 162.2,-217.44"/>
</a>
</g>
</g>
<!-- Node33&#45;&gt;Node18 -->
<g id="edge64_Node000033_Node000018" class="edge">
<title>Node33&#45;&gt;Node18</title>
<g id="a_edge64_Node000033_Node000018"><a xlink:title=" ">
<path fill="none" stroke="#63b8ff" d="M104.5,-154.66C104.5,-145.93 104.5,-135.99 104.5,-129.09"/>
<polygon fill="#63b8ff" stroke="#63b8ff" points="101,-154.75 104.5,-164.75 108,-154.75 101,-154.75"/>
</a>
</g>
</g>
<!-- Node34 -->
<g id="Node000034" class="node">
<title>Node34</title>
<g id="a_Node000034"><a xlink:href="_lisp_primitives_8h.html" target="_top" xlink:title=" ">
<polygon fill="white" stroke="#666666" points="95,-74 0,-74 0,-55 95,-55 95,-74"/>
<text text-anchor="middle" x="47.5" y="-62" font-family="Helvetica,sans-Serif" font-size="10.00">LispPrimitives.h</text>
</a>
</g>
</g>
<!-- Node33&#45;&gt;Node34 -->
<g id="edge62_Node000033_Node000034" class="edge">
<title>Node33&#45;&gt;Node34</title>
<g id="a_edge62_Node000033_Node000034"><a xlink:title=" ">
<path fill="none" stroke="#63b8ff" d="M88.09,-157.62C80.61,-149.63 72.19,-139.44 66.5,-129 56.59,-110.81 51.22,-86.81 48.91,-74.16"/>
<polygon fill="#63b8ff" stroke="#63b8ff" points="85.61,-160.1 95.11,-164.81 90.62,-155.21 85.61,-160.1"/>
</a>
</g>
</g>
<!-- Node34&#45;&gt;Node4 -->
<g id="edge63_Node000034_Node000004" class="edge">
<title>Node34&#45;&gt;Node4</title>
<g id="a_edge63_Node000034_Node000004"><a xlink:title=" ">
<path fill="none" stroke="#63b8ff" d="M105.54,-55.45C106.87,-55.3 108.19,-55.15 109.5,-55 291.75,-34.55 511.62,-18.11 589.47,-12.54"/>
<polygon fill="#63b8ff" stroke="#63b8ff" points="104.7,-52.03 95.2,-56.72 105.55,-58.98 104.7,-52.03"/>
</a>
</g>
</g>
<!-- Node35&#45;&gt;Node31 -->
<g id="edge66_Node000035_Node000031" class="edge">
<title>Node35&#45;&gt;Node31</title>
<g id="a_edge66_Node000035_Node000031"><a xlink:title=" ">
<path fill="none" stroke="#63b8ff" d="M440.57,-319.66C441.06,-310.93 441.62,-300.99 442.01,-294.09"/>
<polygon fill="#63b8ff" stroke="#63b8ff" points="437.07,-319.57 440,-329.75 444.06,-319.96 437.07,-319.57"/>
</a>
</g>
</g>
</g>
</svg>
