<?xml version="1.0" encoding="UTF-8" standalone="no"?>
<!DOCTYPE svg PUBLIC "-//W3C//DTD SVG 1.1//EN"
 "http://www.w3.org/Graphics/SVG/1.1/DTD/svg11.dtd">
<!-- Generated by graphviz version 2.43.0 (0)
 -->
<!-- Title: LimitedQueue.h Pages: 1 -->
<svg width="918pt" height="302pt"
 viewBox="0.00 0.00 918.00 302.00" xmlns="http://www.w3.org/2000/svg" xmlns:xlink="http://www.w3.org/1999/xlink">
<g id="graph0" class="graph" transform="scale(1 1) rotate(0) translate(4 298)">
<title>LimitedQueue.h</title>
<!-- Node1 -->
<g id="Node000001" class="node">
<title>Node1</title>
<g id="a_Node000001"><a xlink:title=" ">
<polygon fill="#999999" stroke="#666666" points="815.5,-294 721.5,-294 721.5,-275 815.5,-275 815.5,-294"/>
<text text-anchor="middle" x="768.5" y="-282" font-family="Helvetica,sans-Serif" font-size="10.00">LimitedQueue.h</text>
</a>
</g>
</g>
<!-- Node2 -->
<g id="Node000002" class="node">
<title>Node2</title>
<g id="a_Node000002"><a xlink:href="_data_channels_8h.html" target="_top" xlink:title=" ">
<polygon fill="white" stroke="#666666" points="775.5,-239 681.5,-239 681.5,-220 775.5,-220 775.5,-239"/>
<text text-anchor="middle" x="728.5" y="-227" font-family="Helvetica,sans-Serif" font-size="10.00">DataChannels.h</text>
</a>
</g>
</g>
<!-- Node1&#45;&gt;Node2 -->
<g id="edge1_Node000001_Node000002" class="edge">
<title>Node1&#45;&gt;Node2</title>
<g id="a_edge1_Node000001_Node000002"><a xlink:title=" ">
<path fill="none" stroke="#63b8ff" d="M755.8,-266.67C748.87,-257.5 740.59,-246.52 734.98,-239.09"/>
<polygon fill="#63b8ff" stroke="#63b8ff" points="753.08,-268.87 761.89,-274.75 758.66,-264.66 753.08,-268.87"/>
</a>
</g>
</g>
<!-- Node17 -->
<g id="Node000017" class="node">
<title>Node17</title>
<g id="a_Node000017"><a xlink:href="un_lisp_8h.html" target="_top" xlink:title=" ">
<polygon fill="white" stroke="#666666" points="910,-129 853,-129 853,-110 910,-110 910,-129"/>
<text text-anchor="middle" x="881.5" y="-117" font-family="Helvetica,sans-Serif" font-size="10.00">unLisp.h</text>
</a>
</g>
</g>
<!-- Node1&#45;&gt;Node17 -->
<g id="edge20_Node000001_Node000017" class="edge">
<title>Node1&#45;&gt;Node17</title>
<g id="a_edge20_Node000001_Node000017"><a xlink:title=" ">
<path fill="none" stroke="#63b8ff" d="M780.51,-266.18C804.46,-231.62 857.42,-155.23 875.39,-129.31"/>
<polygon fill="#63b8ff" stroke="#63b8ff" points="777.4,-264.52 774.58,-274.74 783.15,-268.51 777.4,-264.52"/>
</a>
</g>
</g>
<!-- Node3 -->
<g id="Node000003" class="node">
<title>Node3</title>
<g id="a_Node000003"><a xlink:href="_data_channels_8cpp.html" target="_top" xlink:title=" ">
<polygon fill="white" stroke="#666666" points="781,-184 676,-184 676,-165 781,-165 781,-184"/>
<text text-anchor="middle" x="728.5" y="-172" font-family="Helvetica,sans-Serif" font-size="10.00">DataChannels.cpp</text>
</a>
</g>
</g>
<!-- Node2&#45;&gt;Node3 -->
<g id="edge2_Node000002_Node000003" class="edge">
<title>Node2&#45;&gt;Node3</title>
<g id="a_edge2_Node000002_Node000003"><a xlink:title=" ">
<path fill="none" stroke="#63b8ff" d="M728.5,-209.66C728.5,-200.93 728.5,-190.99 728.5,-184.09"/>
<polygon fill="#63b8ff" stroke="#63b8ff" points="725,-209.75 728.5,-219.75 732,-209.75 725,-209.75"/>
</a>
</g>
</g>
<!-- Node4 -->
<g id="Node000004" class="node">
<title>Node4</title>
<g id="a_Node000004"><a xlink:href="_event_bus_8h.html" target="_top" xlink:title=" ">
<polygon fill="white" stroke="#666666" points="586,-184 515,-184 515,-165 586,-165 586,-184"/>
<text text-anchor="middle" x="550.5" y="-172" font-family="Helvetica,sans-Serif" font-size="10.00">EventBus.h</text>
</a>
</g>
</g>
<!-- Node2&#45;&gt;Node4 -->
<g id="edge3_Node000002_Node000004" class="edge">
<title>Node2&#45;&gt;Node4</title>
<g id="a_edge3_Node000002_Node000004"><a xlink:title=" ">
<path fill="none" stroke="#63b8ff" d="M690.06,-217.06C656.8,-207.15 609.42,-193.04 579.32,-184.08"/>
<polygon fill="#63b8ff" stroke="#63b8ff" points="689.32,-220.49 699.9,-219.98 691.32,-213.78 689.32,-220.49"/>
</a>
</g>
</g>
<!-- Node5 -->
<g id="Node000005" class="node">
<title>Node5</title>
<g id="a_Node000005"><a xlink:href="_app_kit_8h.html" target="_top" xlink:title=" ">
<polygon fill="white" stroke="#666666" points="690.5,-19 632.5,-19 632.5,0 690.5,0 690.5,-19"/>
<text text-anchor="middle" x="661.5" y="-7" font-family="Helvetica,sans-Serif" font-size="10.00">AppKit.h</text>
</a>
</g>
</g>
<!-- Node4&#45;&gt;Node5 -->
<g id="edge4_Node000004_Node000005" class="edge">
<title>Node4&#45;&gt;Node5</title>
<g id="a_edge4_Node000004_Node000005"><a xlink:title=" ">
<path fill="none" stroke="#63b8ff" d="M559.98,-156.02C564.41,-147.82 569.74,-137.92 574.5,-129 591.99,-96.19 590.88,-84.5 613.5,-55 624.29,-40.93 639.75,-27.48 650.19,-19.13"/>
<polygon fill="#63b8ff" stroke="#63b8ff" points="556.81,-154.52 555.13,-164.98 562.96,-157.85 556.81,-154.52"/>
</a>
</g>
</g>
<!-- Node6 -->
<g id="Node000006" class="node">
<title>Node6</title>
<g id="a_Node000006"><a xlink:href="_event_bus_8cpp.html" target="_top" xlink:title=" ">
<polygon fill="white" stroke="#666666" points="83,-129 0,-129 0,-110 83,-110 83,-129"/>
<text text-anchor="middle" x="41.5" y="-117" font-family="Helvetica,sans-Serif" font-size="10.00">EventBus.cpp</text>
</a>
</g>
</g>
<!-- Node4&#45;&gt;Node6 -->
<g id="edge5_Node000004_Node000006" class="edge">
<title>Node4&#45;&gt;Node6</title>
<g id="a_edge5_Node000004_Node000006"><a xlink:title=" ">
<path fill="none" stroke="#63b8ff" d="M504.72,-170.09C422.15,-163.72 242.89,-148.82 92.5,-129 89.47,-128.6 86.35,-128.16 83.21,-127.69"/>
<polygon fill="#63b8ff" stroke="#63b8ff" points="504.54,-173.59 514.77,-170.86 505.07,-166.61 504.54,-173.59"/>
</a>
</g>
</g>
<!-- Node7 -->
<g id="Node000007" class="node">
<title>Node7</title>
<g id="a_Node000007"><a xlink:href="_event_emitter_8cpp.html" target="_top" xlink:title=" ">
<polygon fill="white" stroke="#666666" points="201.5,-129 101.5,-129 101.5,-110 201.5,-110 201.5,-129"/>
<text text-anchor="middle" x="151.5" y="-117" font-family="Helvetica,sans-Serif" font-size="10.00">EventEmitter.cpp</text>
</a>
</g>
</g>
<!-- Node4&#45;&gt;Node7 -->
<g id="edge6_Node000004_Node000007" class="edge">
<title>Node4&#45;&gt;Node7</title>
<g id="a_edge6_Node000004_Node000007"><a xlink:title=" ">
<path fill="none" stroke="#63b8ff" d="M504.78,-167.71C439.48,-159.39 315.75,-143.47 210.5,-129 207.63,-128.61 204.68,-128.2 201.71,-127.78"/>
<polygon fill="#63b8ff" stroke="#63b8ff" points="504.38,-171.18 514.75,-168.97 505.27,-164.24 504.38,-171.18"/>
</a>
</g>
</g>
<!-- Node8 -->
<g id="Node000008" class="node">
<title>Node8</title>
<g id="a_Node000008"><a xlink:href="_event_entity_8cpp.html" target="_top" xlink:title=" ">
<polygon fill="white" stroke="#666666" points="311.5,-129 219.5,-129 219.5,-110 311.5,-110 311.5,-129"/>
<text text-anchor="middle" x="265.5" y="-117" font-family="Helvetica,sans-Serif" font-size="10.00">EventEntity.cpp</text>
</a>
</g>
</g>
<!-- Node4&#45;&gt;Node8 -->
<g id="edge7_Node000004_Node000008" class="edge">
<title>Node4&#45;&gt;Node8</title>
<g id="a_edge7_Node000004_Node000008"><a xlink:title=" ">
<path fill="none" stroke="#63b8ff" d="M504.83,-165.01C451.73,-155.13 364.58,-138.92 311.38,-129.03"/>
<polygon fill="#63b8ff" stroke="#63b8ff" points="504.51,-168.51 514.98,-166.89 505.79,-161.63 504.51,-168.51"/>
</a>
</g>
</g>
<!-- Node9 -->
<g id="Node000009" class="node">
<title>Node9</title>
<g id="a_Node000009"><a xlink:href="_event_listener_8cpp.html" target="_top" xlink:title=" ">
<polygon fill="white" stroke="#666666" points="433,-129 330,-129 330,-110 433,-110 433,-129"/>
<text text-anchor="middle" x="381.5" y="-117" font-family="Helvetica,sans-Serif" font-size="10.00">EventListener.cpp</text>
</a>
</g>
</g>
<!-- Node4&#45;&gt;Node9 -->
<g id="edge8_Node000004_Node000009" class="edge">
<title>Node4&#45;&gt;Node9</title>
<g id="a_edge8_Node000004_Node000009"><a xlink:title=" ">
<path fill="none" stroke="#63b8ff" d="M513.6,-161.93C482.03,-152.03 437.32,-138.01 408.87,-129.08"/>
<polygon fill="#63b8ff" stroke="#63b8ff" points="512.76,-165.33 523.35,-164.98 514.85,-158.65 512.76,-165.33"/>
</a>
</g>
</g>
<!-- Node10 -->
<g id="Node000010" class="node">
<title>Node10</title>
<g id="a_Node000010"><a xlink:href="_i_event_bus_connection_kit_8h.html" target="_top" xlink:title="Defines the interface for components that can connect to an EventBus.">
<polygon fill="white" stroke="#666666" points="835,-129 692,-129 692,-110 835,-110 835,-129"/>
<text text-anchor="middle" x="763.5" y="-117" font-family="Helvetica,sans-Serif" font-size="10.00">IEventBusConnectionKit.h</text>
</a>
</g>
</g>
<!-- Node4&#45;&gt;Node10 -->
<g id="edge9_Node000004_Node000010" class="edge">
<title>Node4&#45;&gt;Node10</title>
<g id="a_edge9_Node000004_Node000010"><a xlink:title=" ">
<path fill="none" stroke="#63b8ff" d="M589.35,-162.44C627.56,-152.52 685.41,-138.16 723.88,-129.08"/>
<polygon fill="#63b8ff" stroke="#63b8ff" points="588.4,-159.07 579.61,-164.98 590.17,-165.84 588.4,-159.07"/>
</a>
</g>
</g>
<!-- Node11 -->
<g id="Node000011" class="node">
<title>Node11</title>
<g id="a_Node000011"><a xlink:href="_network_scheduler_8h.html" target="_top" xlink:title=" ">
<polygon fill="white" stroke="#666666" points="565.5,-129 451.5,-129 451.5,-110 565.5,-110 565.5,-129"/>
<text text-anchor="middle" x="508.5" y="-117" font-family="Helvetica,sans-Serif" font-size="10.00">NetworkScheduler.h</text>
</a>
</g>
</g>
<!-- Node4&#45;&gt;Node11 -->
<g id="edge12_Node000004_Node000011" class="edge">
<title>Node4&#45;&gt;Node11</title>
<g id="a_edge12_Node000004_Node000011"><a xlink:title=" ">
<path fill="none" stroke="#63b8ff" d="M537.17,-156.67C529.89,-147.5 521.2,-136.52 515.31,-129.09"/>
<polygon fill="#63b8ff" stroke="#63b8ff" points="534.61,-159.08 543.56,-164.75 540.1,-154.74 534.61,-159.08"/>
</a>
</g>
</g>
<!-- Node15 -->
<g id="Node000015" class="node">
<title>Node15</title>
<g id="a_Node000015"><a xlink:href="_uniot_8h.html" target="_top" xlink:title=" ">
<polygon fill="white" stroke="#666666" points="673.5,-129 621.5,-129 621.5,-110 673.5,-110 673.5,-129"/>
<text text-anchor="middle" x="647.5" y="-117" font-family="Helvetica,sans-Serif" font-size="10.00">Uniot.h</text>
</a>
</g>
</g>
<!-- Node4&#45;&gt;Node15 -->
<g id="edge18_Node000004_Node000015" class="edge">
<title>Node4&#45;&gt;Node15</title>
<g id="a_edge18_Node000004_Node000015"><a xlink:title=" ">
<path fill="none" stroke="#63b8ff" d="M575.27,-159.97C593,-150.28 616.35,-137.52 631.63,-129.17"/>
<polygon fill="#63b8ff" stroke="#63b8ff" points="573.18,-157.12 566.08,-164.98 576.54,-163.26 573.18,-157.12"/>
</a>
</g>
</g>
<!-- Node10&#45;&gt;Node4 -->
<g id="edge11_Node000010_Node000004" class="edge">
<title>Node10&#45;&gt;Node4</title>
<g id="a_edge11_Node000010_Node000004"><a xlink:title=" ">
<path fill="none" stroke="#63b8ff" d="M724.63,-131.57C685.17,-141.81 624.77,-156.79 586.4,-165.79"/>
<polygon fill="#63b8ff" stroke="#63b8ff" points="725.64,-134.92 734.43,-129.01 723.87,-128.15 725.64,-134.92"/>
</a>
</g>
</g>
<!-- Node10&#45;&gt;Node5 -->
<g id="edge10_Node000010_Node000005" class="edge">
<title>Node10&#45;&gt;Node5</title>
<g id="a_edge10_Node000010_Node000005"><a xlink:title=" ">
<path fill="none" stroke="#63b8ff" d="M748.2,-102.3C726.29,-79.1 686.72,-37.21 669.68,-19.16"/>
<polygon fill="#63b8ff" stroke="#63b8ff" points="745.74,-104.79 755.15,-109.66 750.83,-99.99 745.74,-104.79"/>
</a>
</g>
</g>
<!-- Node12 -->
<g id="Node000012" class="node">
<title>Node12</title>
<g id="a_Node000012"><a xlink:href="_m_q_t_t_kit_8h.html" target="_top" xlink:title=" ">
<polygon fill="white" stroke="#666666" points="433.5,-74 365.5,-74 365.5,-55 433.5,-55 433.5,-74"/>
<text text-anchor="middle" x="399.5" y="-62" font-family="Helvetica,sans-Serif" font-size="10.00">MQTTKit.h</text>
</a>
</g>
</g>
<!-- Node11&#45;&gt;Node12 -->
<g id="edge13_Node000011_Node000012" class="edge">
<title>Node11&#45;&gt;Node12</title>
<g id="a_edge13_Node000011_Node000012"><a xlink:title=" ">
<path fill="none" stroke="#63b8ff" d="M481.77,-105.5C461.71,-95.75 434.82,-82.68 417.33,-74.17"/>
<polygon fill="#63b8ff" stroke="#63b8ff" points="480.46,-108.76 490.99,-109.98 483.52,-102.46 480.46,-108.76"/>
</a>
</g>
</g>
<!-- Node14 -->
<g id="Node000014" class="node">
<title>Node14</title>
<g id="a_Node000014"><a xlink:href="_network_controller_8h.html" target="_top" xlink:title=" ">
<polygon fill="white" stroke="#666666" points="565.5,-74 451.5,-74 451.5,-55 565.5,-55 565.5,-74"/>
<text text-anchor="middle" x="508.5" y="-62" font-family="Helvetica,sans-Serif" font-size="10.00">NetworkController.h</text>
</a>
</g>
</g>
<!-- Node11&#45;&gt;Node14 -->
<g id="edge16_Node000011_Node000014" class="edge">
<title>Node11&#45;&gt;Node14</title>
<g id="a_edge16_Node000011_Node000014"><a xlink:title=" ">
<path fill="none" stroke="#63b8ff" d="M508.5,-99.66C508.5,-90.93 508.5,-80.99 508.5,-74.09"/>
<polygon fill="#63b8ff" stroke="#63b8ff" points="505,-99.75 508.5,-109.75 512,-99.75 505,-99.75"/>
</a>
</g>
</g>
<!-- Node12&#45;&gt;Node5 -->
<g id="edge14_Node000012_Node000005" class="edge">
<title>Node12&#45;&gt;Node5</title>
<g id="a_edge14_Node000012_Node000005"><a xlink:title=" ">
<path fill="none" stroke="#63b8ff" d="M443.68,-54.56C497.45,-43.69 586.71,-25.63 632.48,-16.37"/>
<polygon fill="#63b8ff" stroke="#63b8ff" points="442.86,-51.16 433.75,-56.57 444.25,-58.02 442.86,-51.16"/>
</a>
</g>
</g>
<!-- Node13 -->
<g id="Node000013" class="node">
<title>Node13</title>
<g id="a_Node000013"><a xlink:href="_m_q_t_t_device_8cpp.html" target="_top" xlink:title=" ">
<polygon fill="white" stroke="#666666" points="449,-19 350,-19 350,0 449,0 449,-19"/>
<text text-anchor="middle" x="399.5" y="-7" font-family="Helvetica,sans-Serif" font-size="10.00">MQTTDevice.cpp</text>
</a>
</g>
</g>
<!-- Node12&#45;&gt;Node13 -->
<g id="edge15_Node000012_Node000013" class="edge">
<title>Node12&#45;&gt;Node13</title>
<g id="a_edge15_Node000012_Node000013"><a xlink:title=" ">
<path fill="none" stroke="#63b8ff" d="M399.5,-44.66C399.5,-35.93 399.5,-25.99 399.5,-19.09"/>
<polygon fill="#63b8ff" stroke="#63b8ff" points="396,-44.75 399.5,-54.75 403,-44.75 396,-44.75"/>
</a>
</g>
</g>
<!-- Node14&#45;&gt;Node5 -->
<g id="edge17_Node000014_Node000005" class="edge">
<title>Node14&#45;&gt;Node5</title>
<g id="a_edge17_Node000014_Node000005"><a xlink:title=" ">
<path fill="none" stroke="#63b8ff" d="M542.65,-51.67C571.18,-41.79 611.19,-27.93 636.73,-19.08"/>
<polygon fill="#63b8ff" stroke="#63b8ff" points="541.39,-48.4 533.08,-54.98 543.68,-55.02 541.39,-48.4"/>
</a>
</g>
</g>
<!-- Node16 -->
<g id="Node000016" class="node">
<title>Node16</title>
<g id="a_Node000016"><a xlink:href="_uniot_8cpp.html" target="_top" xlink:title=" ">
<polygon fill="white" stroke="#666666" points="685,-74 622,-74 622,-55 685,-55 685,-74"/>
<text text-anchor="middle" x="653.5" y="-62" font-family="Helvetica,sans-Serif" font-size="10.00">Uniot.cpp</text>
</a>
</g>
</g>
<!-- Node15&#45;&gt;Node16 -->
<g id="edge19_Node000015_Node000016" class="edge">
<title>Node15&#45;&gt;Node16</title>
<g id="a_edge19_Node000015_Node000016"><a xlink:title=" ">
<path fill="none" stroke="#63b8ff" d="M649.63,-99.66C650.62,-90.93 651.75,-80.99 652.53,-74.09"/>
<polygon fill="#63b8ff" stroke="#63b8ff" points="646.14,-99.42 648.49,-109.75 653.09,-100.21 646.14,-99.42"/>
</a>
</g>
</g>
<!-- Node17&#45;&gt;Node5 -->
<g id="edge21_Node000017_Node000005" class="edge">
<title>Node17&#45;&gt;Node5</title>
<g id="a_edge21_Node000017_Node000005"><a xlink:title=" ">
<path fill="none" stroke="#63b8ff" d="M878.3,-99.81C874.86,-85.47 867.96,-66.28 854.5,-55 829.86,-34.34 738.24,-20.12 690.63,-13.95"/>
<polygon fill="#63b8ff" stroke="#63b8ff" points="874.87,-100.52 880.3,-109.62 881.73,-99.12 874.87,-100.52"/>
</a>
</g>
</g>
<!-- Node18 -->
<g id="Node000018" class="node">
<title>Node18</title>
<g id="a_Node000018"><a xlink:href="_lisp_device_8h.html" target="_top" xlink:title=" ">
<polygon fill="white" stroke="#666666" points="845,-74 766,-74 766,-55 845,-55 845,-74"/>
<text text-anchor="middle" x="805.5" y="-62" font-family="Helvetica,sans-Serif" font-size="10.00">LispDevice.h</text>
</a>
</g>
</g>
<!-- Node17&#45;&gt;Node18 -->
<g id="edge22_Node000017_Node000018" class="edge">
<title>Node17&#45;&gt;Node18</title>
<g id="a_edge22_Node000017_Node000018"><a xlink:title=" ">
<path fill="none" stroke="#63b8ff" d="M860.92,-104.15C847.19,-94.57 829.57,-82.29 817.93,-74.17"/>
<polygon fill="#63b8ff" stroke="#63b8ff" points="859.08,-107.14 869.29,-109.98 863.09,-101.39 859.08,-107.14"/>
</a>
</g>
</g>
<!-- Node18&#45;&gt;Node5 -->
<g id="edge23_Node000018_Node000005" class="edge">
<title>Node18&#45;&gt;Node5</title>
<g id="a_edge23_Node000018_Node000005"><a xlink:title=" ">
<path fill="none" stroke="#63b8ff" d="M772.68,-51.42C745.97,-41.59 708.9,-27.95 685.06,-19.17"/>
<polygon fill="#63b8ff" stroke="#63b8ff" points="771.77,-54.82 782.36,-54.98 774.19,-48.25 771.77,-54.82"/>
</a>
</g>
</g>
</g>
</svg>
