<?xml version="1.0" encoding="UTF-8" standalone="no"?>
<!DOCTYPE svg PUBLIC "-//W3C//DTD SVG 1.1//EN"
 "http://www.w3.org/Graphics/SVG/1.1/DTD/svg11.dtd">
<!-- Generated by graphviz version 2.43.0 (0)
 -->
<!-- Title: LispPrimitives.h Pages: 1 -->
<svg width="1541pt" height="522pt"
 viewBox="0.00 0.00 1540.50 522.00" xmlns="http://www.w3.org/2000/svg" xmlns:xlink="http://www.w3.org/1999/xlink">
<g id="graph0" class="graph" transform="scale(1 1) rotate(0) translate(4 518)">
<title>LispPrimitives.h</title>
<!-- Node1 -->
<g id="Node000001" class="node">
<title>Node1</title>
<g id="a_Node000001"><a xlink:title=" ">
<polygon fill="#999999" stroke="#666666" points="1266.5,-514 1171.5,-514 1171.5,-495 1266.5,-495 1266.5,-514"/>
<text text-anchor="middle" x="1219" y="-502" font-family="Helvetica,sans-Serif" font-size="10.00">LispPrimitives.h</text>
</a>
</g>
</g>
<!-- Node2 -->
<g id="Node000002" class="node">
<title>Node2</title>
<g id="a_Node000002"><a xlink:href="_button_8h.html" target="_top" xlink:title=" ">
<polygon fill="white" stroke="#666666" points="512,-184 454,-184 454,-165 512,-165 512,-184"/>
<text text-anchor="middle" x="483" y="-172" font-family="Helvetica,sans-Serif" font-size="10.00">Button.h</text>
</a>
</g>
</g>
<!-- Node1&#45;&gt;Node2 -->
<g id="edge1_Node000001_Node000002" class="edge">
<title>Node1&#45;&gt;Node2</title>
<g id="a_edge1_Node000001_Node000002"><a xlink:title=" ">
<path fill="none" stroke="#63b8ff" d="M1171.34,-500.9C1017.64,-491.89 545,-459.01 545,-395.5 545,-395.5 545,-395.5 545,-283.5 545,-246.64 517.5,-210.97 499.13,-191.26"/>
<polygon fill="#63b8ff" stroke="#63b8ff" points="501.62,-188.8 492.15,-184.06 496.59,-193.67 501.62,-188.8"/>
</a>
</g>
</g>
<!-- Node22 -->
<g id="Node000022" class="node">
<title>Node22</title>
<g id="a_Node000022"><a xlink:href="_default_primitives_8h.html" target="_top" xlink:title="Defines string constants for Lisp primitive function names.">
<polygon fill="white" stroke="#666666" points="1113.5,-239 1002.5,-239 1002.5,-220 1113.5,-220 1113.5,-239"/>
<text text-anchor="middle" x="1058" y="-227" font-family="Helvetica,sans-Serif" font-size="10.00">DefaultPrimitives.h</text>
</a>
</g>
</g>
<!-- Node1&#45;&gt;Node22 -->
<g id="edge26_Node000001_Node000022" class="edge">
<title>Node1&#45;&gt;Node22</title>
<g id="a_edge26_Node000001_Node000022"><a xlink:title=" ">
<path fill="none" stroke="#63b8ff" d="M1189.4,-494.96C1148.85,-481.24 1081,-450.11 1081,-395.5 1081,-395.5 1081,-395.5 1081,-338.5 1081,-306.34 1071.12,-269.95 1064.31,-248.69"/>
<polygon fill="#63b8ff" stroke="#63b8ff" points="1067.58,-247.43 1061.1,-239.05 1060.94,-249.64 1067.58,-247.43"/>
</a>
</g>
</g>
<!-- Node23 -->
<g id="Node000023" class="node">
<title>Node23</title>
<g id="a_Node000023"><a xlink:href="_lisp_helper_8h.html" target="_top" xlink:title=" ">
<polygon fill="white" stroke="#666666" points="1532.5,-404 1455.5,-404 1455.5,-385 1532.5,-385 1532.5,-404"/>
<text text-anchor="middle" x="1494" y="-392" font-family="Helvetica,sans-Serif" font-size="10.00">LispHelper.h</text>
</a>
</g>
</g>
<!-- Node1&#45;&gt;Node23 -->
<g id="edge27_Node000001_Node000023" class="edge">
<title>Node1&#45;&gt;Node23</title>
<g id="a_edge27_Node000001_Node000023"><a xlink:title=" ">
<path fill="none" stroke="#63b8ff" d="M1266.75,-501.3C1311.58,-497.49 1379.3,-487.12 1431,-459 1452.01,-447.57 1470.55,-426.91 1481.98,-412.26"/>
<polygon fill="#63b8ff" stroke="#63b8ff" points="1484.93,-414.15 1488.14,-404.05 1479.34,-409.95 1484.93,-414.15"/>
</a>
</g>
</g>
<!-- Node25 -->
<g id="Node000025" class="node">
<title>Node25</title>
<g id="a_Node000025"><a xlink:href="_primitive_expeditor_8h.html" target="_top" xlink:title=" ">
<polygon fill="white" stroke="#666666" points="1422,-459 1306,-459 1306,-440 1422,-440 1422,-459"/>
<text text-anchor="middle" x="1364" y="-447" font-family="Helvetica,sans-Serif" font-size="10.00">PrimitiveExpeditor.h</text>
</a>
</g>
</g>
<!-- Node1&#45;&gt;Node25 -->
<g id="edge29_Node000001_Node000025" class="edge">
<title>Node1&#45;&gt;Node25</title>
<g id="a_edge29_Node000001_Node000025"><a xlink:title=" ">
<path fill="none" stroke="#63b8ff" d="M1242.3,-494.98C1266.25,-486.23 1303.78,-472.51 1330.83,-462.62"/>
<polygon fill="#63b8ff" stroke="#63b8ff" points="1332.09,-465.89 1340.28,-459.17 1329.69,-459.32 1332.09,-465.89"/>
</a>
</g>
</g>
<!-- Node3 -->
<g id="Node000003" class="node">
<title>Node3</title>
<g id="a_Node000003"><a xlink:href="_i_executor_8h.html" target="_top" xlink:title=" ">
<polygon fill="white" stroke="#666666" points="181,-74 111,-74 111,-55 181,-55 181,-74"/>
<text text-anchor="middle" x="146" y="-62" font-family="Helvetica,sans-Serif" font-size="10.00">IExecutor.h</text>
</a>
</g>
</g>
<!-- Node2&#45;&gt;Node3 -->
<g id="edge2_Node000002_Node000003" class="edge">
<title>Node2&#45;&gt;Node3</title>
<g id="a_edge2_Node000002_Node000003"><a xlink:title=" ">
<path fill="none" stroke="#63b8ff" d="M456.27,-164.94C396.3,-145.72 250.93,-99.13 182.62,-77.24"/>
<polygon fill="#63b8ff" stroke="#63b8ff" points="183.32,-73.78 172.73,-74.07 181.18,-80.45 183.32,-73.78"/>
</a>
</g>
</g>
<!-- Node4 -->
<g id="Node000004" class="node">
<title>Node4</title>
<g id="a_Node000004"><a xlink:href="_object_register_record_8h.html" target="_top" xlink:title=" ">
<polygon fill="white" stroke="#666666" points="1052.5,-129 921.5,-129 921.5,-110 1052.5,-110 1052.5,-129"/>
<text text-anchor="middle" x="987" y="-117" font-family="Helvetica,sans-Serif" font-size="10.00">ObjectRegisterRecord.h</text>
</a>
</g>
</g>
<!-- Node2&#45;&gt;Node4 -->
<g id="edge3_Node000002_Node000004" class="edge">
<title>Node2&#45;&gt;Node4</title>
<g id="a_edge3_Node000002_Node000004"><a xlink:title=" ">
<path fill="none" stroke="#63b8ff" d="M512.21,-170.59C580.2,-163.8 754.58,-146.23 910.96,-129.21"/>
<polygon fill="#63b8ff" stroke="#63b8ff" points="911.68,-132.66 921.24,-128.09 910.92,-125.7 911.68,-132.66"/>
</a>
</g>
</g>
<!-- Node10 -->
<g id="Node000010" class="node">
<title>Node10</title>
<g id="a_Node000010"><a xlink:href="_task_scheduler_8h.html" target="_top" xlink:title=" ">
<polygon fill="white" stroke="#666666" points="489.5,-129 394.5,-129 394.5,-110 489.5,-110 489.5,-129"/>
<text text-anchor="middle" x="442" y="-117" font-family="Helvetica,sans-Serif" font-size="10.00">TaskScheduler.h</text>
</a>
</g>
</g>
<!-- Node2&#45;&gt;Node10 -->
<g id="edge10_Node000002_Node000010" class="edge">
<title>Node2&#45;&gt;Node10</title>
<g id="a_edge10_Node000002_Node000010"><a xlink:title=" ">
<path fill="none" stroke="#63b8ff" d="M476.23,-164.75C470.44,-157.26 461.94,-146.28 454.86,-137.13"/>
<polygon fill="#63b8ff" stroke="#63b8ff" points="457.53,-134.86 448.64,-129.09 451.99,-139.14 457.53,-134.86"/>
</a>
</g>
</g>
<!-- Node5 -->
<g id="Node000005" class="node">
<title>Node5</title>
<g id="a_Node000005"><a xlink:href="_clear_queue_8h.html" target="_top" xlink:title=" ">
<polygon fill="white" stroke="#666666" points="875.5,-74 792.5,-74 792.5,-55 875.5,-55 875.5,-74"/>
<text text-anchor="middle" x="834" y="-62" font-family="Helvetica,sans-Serif" font-size="10.00">ClearQueue.h</text>
</a>
</g>
</g>
<!-- Node4&#45;&gt;Node5 -->
<g id="edge4_Node000004_Node000005" class="edge">
<title>Node4&#45;&gt;Node5</title>
<g id="a_edge4_Node000004_Node000005"><a xlink:title=" ">
<path fill="none" stroke="#63b8ff" d="M962.42,-109.98C936.95,-101.16 896.96,-87.31 868.37,-77.41"/>
<polygon fill="#63b8ff" stroke="#63b8ff" points="869.37,-74.05 858.77,-74.08 867.08,-80.66 869.37,-74.05"/>
</a>
</g>
</g>
<!-- Node8 -->
<g id="Node000008" class="node">
<title>Node8</title>
<g id="a_Node000008"><a xlink:href="_logger_8h.html" target="_top" xlink:title=" ">
<polygon fill="white" stroke="#666666" points="1027,-74 969,-74 969,-55 1027,-55 1027,-74"/>
<text text-anchor="middle" x="998" y="-62" font-family="Helvetica,sans-Serif" font-size="10.00">Logger.h</text>
</a>
</g>
</g>
<!-- Node4&#45;&gt;Node8 -->
<g id="edge7_Node000004_Node000008" class="edge">
<title>Node4&#45;&gt;Node8</title>
<g id="a_edge7_Node000004_Node000008"><a xlink:title=" ">
<path fill="none" stroke="#63b8ff" d="M988.82,-109.75C990.26,-102.8 992.32,-92.85 994.13,-84.13"/>
<polygon fill="#63b8ff" stroke="#63b8ff" points="997.61,-84.59 996.22,-74.09 990.76,-83.17 997.61,-84.59"/>
</a>
</g>
</g>
<!-- Node9 -->
<g id="Node000009" class="node">
<title>Node9</title>
<g id="a_Node000009"><a xlink:href="_type_id_8h.html" target="_top" xlink:title=" ">
<polygon fill="white" stroke="#666666" points="950.5,-74 893.5,-74 893.5,-55 950.5,-55 950.5,-74"/>
<text text-anchor="middle" x="922" y="-62" font-family="Helvetica,sans-Serif" font-size="10.00">TypeId.h</text>
</a>
</g>
</g>
<!-- Node4&#45;&gt;Node9 -->
<g id="edge9_Node000004_Node000009" class="edge">
<title>Node4&#45;&gt;Node9</title>
<g id="a_edge9_Node000004_Node000009"><a xlink:title=" ">
<path fill="none" stroke="#63b8ff" d="M976.56,-109.98C966.85,-102.07 952.18,-90.11 940.5,-80.58"/>
<polygon fill="#63b8ff" stroke="#63b8ff" points="942.6,-77.78 932.63,-74.17 938.17,-83.2 942.6,-77.78"/>
</a>
</g>
</g>
<!-- Node6 -->
<g id="Node000006" class="node">
<title>Node6</title>
<g id="a_Node000006"><a xlink:title=" ">
<polygon fill="#e0e0e0" stroke="#999999" points="1269.5,-19 1206.5,-19 1206.5,0 1269.5,0 1269.5,-19"/>
<text text-anchor="middle" x="1238" y="-7" font-family="Helvetica,sans-Serif" font-size="10.00">Arduino.h</text>
</a>
</g>
</g>
<!-- Node5&#45;&gt;Node6 -->
<g id="edge5_Node000005_Node000006" class="edge">
<title>Node5&#45;&gt;Node6</title>
<g id="a_edge5_Node000005_Node000006"><a xlink:title=" ">
<path fill="none" stroke="#63b8ff" d="M875.73,-56.41C878.86,-55.92 881.98,-55.44 885,-55 997.26,-38.58 1130.15,-22.81 1196.27,-15.22"/>
<polygon fill="#63b8ff" stroke="#63b8ff" points="1196.76,-18.68 1206.3,-14.07 1195.97,-11.73 1196.76,-18.68"/>
</a>
</g>
</g>
<!-- Node7 -->
<g id="Node000007" class="node">
<title>Node7</title>
<g id="a_Node000007"><a xlink:title=" ">
<polygon fill="#e0e0e0" stroke="#999999" points="796.5,-19 731.5,-19 731.5,0 796.5,0 796.5,-19"/>
<text text-anchor="middle" x="764" y="-7" font-family="Helvetica,sans-Serif" font-size="10.00">functional</text>
</a>
</g>
</g>
<!-- Node5&#45;&gt;Node7 -->
<g id="edge6_Node000005_Node000007" class="edge">
<title>Node5&#45;&gt;Node7</title>
<g id="a_edge6_Node000005_Node000007"><a xlink:title=" ">
<path fill="none" stroke="#63b8ff" d="M822.75,-54.98C812.2,-47 796.2,-34.88 783.56,-25.31"/>
<polygon fill="#63b8ff" stroke="#63b8ff" points="785.54,-22.42 775.45,-19.17 781.31,-28 785.54,-22.42"/>
</a>
</g>
</g>
<!-- Node8&#45;&gt;Node6 -->
<g id="edge8_Node000008_Node000006" class="edge">
<title>Node8&#45;&gt;Node6</title>
<g id="a_edge8_Node000008_Node000006"><a xlink:title=" ">
<path fill="none" stroke="#63b8ff" d="M1027.43,-57C1069.85,-47.63 1148.37,-30.29 1196.61,-19.64"/>
<polygon fill="#63b8ff" stroke="#63b8ff" points="1197.41,-23.05 1206.42,-17.47 1195.9,-16.21 1197.41,-23.05"/>
</a>
</g>
</g>
<!-- Node10&#45;&gt;Node3 -->
<g id="edge22_Node000010_Node000003" class="edge">
<title>Node10&#45;&gt;Node3</title>
<g id="a_edge22_Node000010_Node000003"><a xlink:title=" ">
<path fill="none" stroke="#63b8ff" d="M394.32,-110.21C345.88,-101.75 268.42,-88.13 191.26,-74.03"/>
<polygon fill="#63b8ff" stroke="#63b8ff" points="191.83,-70.58 181.37,-72.22 190.57,-77.46 191.83,-70.58"/>
</a>
</g>
</g>
<!-- Node10&#45;&gt;Node5 -->
<g id="edge18_Node000010_Node000005" class="edge">
<title>Node10&#45;&gt;Node5</title>
<g id="a_edge18_Node000010_Node000005"><a xlink:title=" ">
<path fill="none" stroke="#63b8ff" d="M489.67,-112.05C563.63,-102.06 705.43,-82.88 781.96,-72.54"/>
<polygon fill="#63b8ff" stroke="#63b8ff" points="782.87,-75.94 792.31,-71.14 781.93,-69.01 782.87,-75.94"/>
</a>
</g>
</g>
<!-- Node10&#45;&gt;Node7 -->
<g id="edge24_Node000010_Node000007" class="edge">
<title>Node10&#45;&gt;Node7</title>
<g id="a_edge24_Node000010_Node000007"><a xlink:title=" ">
<path fill="none" stroke="#63b8ff" d="M457.1,-109.96C481.31,-96.59 530.59,-70.63 575,-55 624.04,-37.74 682.58,-25.13 721.38,-17.83"/>
<polygon fill="#63b8ff" stroke="#63b8ff" points="722.09,-21.25 731.29,-16 720.82,-14.37 722.09,-21.25"/>
</a>
</g>
</g>
<!-- Node11 -->
<g id="Node000011" class="node">
<title>Node11</title>
<g id="a_Node000011"><a xlink:href="_e_s_p8266_task_8h.html" target="_top" xlink:title=" ">
<polygon fill="white" stroke="#666666" points="288.5,-74 199.5,-74 199.5,-55 288.5,-55 288.5,-74"/>
<text text-anchor="middle" x="244" y="-62" font-family="Helvetica,sans-Serif" font-size="10.00">ESP8266Task.h</text>
</a>
</g>
</g>
<!-- Node10&#45;&gt;Node11 -->
<g id="edge11_Node000010_Node000011" class="edge">
<title>Node10&#45;&gt;Node11</title>
<g id="a_edge11_Node000010_Node000011"><a xlink:title=" ">
<path fill="none" stroke="#63b8ff" d="M410.19,-109.98C376.51,-100.97 323.2,-86.7 286.08,-76.76"/>
<polygon fill="#63b8ff" stroke="#63b8ff" points="286.63,-73.29 276.06,-74.08 284.82,-80.05 286.63,-73.29"/>
</a>
</g>
</g>
<!-- Node18 -->
<g id="Node000018" class="node">
<title>Node18</title>
<g id="a_Node000018"><a xlink:href="_common_8h.html" target="_top" xlink:title=" ">
<polygon fill="white" stroke="#666666" points="654,-74 584,-74 584,-55 654,-55 654,-74"/>
<text text-anchor="middle" x="619" y="-62" font-family="Helvetica,sans-Serif" font-size="10.00">Common.h</text>
</a>
</g>
</g>
<!-- Node10&#45;&gt;Node18 -->
<g id="edge19_Node000010_Node000018" class="edge">
<title>Node10&#45;&gt;Node18</title>
<g id="a_edge19_Node000010_Node000018"><a xlink:title=" ">
<path fill="none" stroke="#63b8ff" d="M470.44,-109.98C500.28,-101.05 547.38,-86.94 580.53,-77.02"/>
<polygon fill="#63b8ff" stroke="#63b8ff" points="581.76,-80.3 590.34,-74.08 579.76,-73.6 581.76,-80.3"/>
</a>
</g>
</g>
<!-- Node19 -->
<g id="Node000019" class="node">
<title>Node19</title>
<g id="a_Node000019"><a xlink:title=" ">
<polygon fill="#e0e0e0" stroke="#999999" points="547,-19 489,-19 489,0 547,0 547,-19"/>
<text text-anchor="middle" x="518" y="-7" font-family="Helvetica,sans-Serif" font-size="10.00">memory</text>
</a>
</g>
</g>
<!-- Node10&#45;&gt;Node19 -->
<g id="edge25_Node000010_Node000019" class="edge">
<title>Node10&#45;&gt;Node19</title>
<g id="a_edge25_Node000010_Node000019"><a xlink:title=" ">
<path fill="none" stroke="#63b8ff" d="M448.22,-109.66C460.86,-91.69 489.75,-50.64 506.12,-27.38"/>
<polygon fill="#63b8ff" stroke="#63b8ff" points="509.01,-29.35 511.91,-19.16 503.29,-25.32 509.01,-29.35"/>
</a>
</g>
</g>
<!-- Node21 -->
<g id="Node000021" class="node">
<title>Node21</title>
<g id="a_Node000021"><a xlink:href="_i_scheduler_connection_kit_8h.html" target="_top" xlink:title=" ">
<polygon fill="white" stroke="#666666" points="451.5,-74 306.5,-74 306.5,-55 451.5,-55 451.5,-74"/>
<text text-anchor="middle" x="379" y="-62" font-family="Helvetica,sans-Serif" font-size="10.00">ISchedulerConnectionKit.h</text>
</a>
</g>
</g>
<!-- Node10&#45;&gt;Node21 -->
<g id="edge23_Node000010_Node000021" class="edge">
<title>Node10&#45;&gt;Node21</title>
<g id="a_edge23_Node000010_Node000021"><a xlink:title=" ">
<path fill="none" stroke="#63b8ff" d="M431.88,-109.98C422.56,-102.15 408.53,-90.34 397.26,-80.86"/>
<polygon fill="#63b8ff" stroke="#63b8ff" points="399.21,-77.93 389.31,-74.17 394.71,-83.29 399.21,-77.93"/>
</a>
</g>
</g>
<!-- Node12 -->
<g id="Node000012" class="node">
<title>Node12</title>
<g id="a_Node000012"><a xlink:title=" ">
<polygon fill="#e0e0e0" stroke="#999999" points="56,-19 0,-19 0,0 56,0 56,-19"/>
<text text-anchor="middle" x="28" y="-7" font-family="Helvetica,sans-Serif" font-size="10.00">stddef.h</text>
</a>
</g>
</g>
<!-- Node11&#45;&gt;Node12 -->
<g id="edge12_Node000011_Node000012" class="edge">
<title>Node11&#45;&gt;Node12</title>
<g id="a_edge12_Node000011_Node000012"><a xlink:title=" ">
<path fill="none" stroke="#63b8ff" d="M209.3,-54.98C170.05,-45.35 106.35,-29.72 65.85,-19.79"/>
<polygon fill="#63b8ff" stroke="#63b8ff" points="66.63,-16.37 56.08,-17.39 64.96,-23.17 66.63,-16.37"/>
</a>
</g>
</g>
<!-- Node13 -->
<g id="Node000013" class="node">
<title>Node13</title>
<g id="a_Node000013"><a xlink:title=" ">
<polygon fill="#e0e0e0" stroke="#999999" points="127.5,-19 74.5,-19 74.5,0 127.5,0 127.5,-19"/>
<text text-anchor="middle" x="101" y="-7" font-family="Helvetica,sans-Serif" font-size="10.00">stdint.h</text>
</a>
</g>
</g>
<!-- Node11&#45;&gt;Node13 -->
<g id="edge13_Node000011_Node000013" class="edge">
<title>Node11&#45;&gt;Node13</title>
<g id="a_edge13_Node000011_Node000013"><a xlink:title=" ">
<path fill="none" stroke="#63b8ff" d="M221.02,-54.98C197.5,-46.27 160.71,-32.63 134.06,-22.75"/>
<polygon fill="#63b8ff" stroke="#63b8ff" points="134.99,-19.36 124.39,-19.17 132.55,-25.93 134.99,-19.36"/>
</a>
</g>
</g>
<!-- Node14 -->
<g id="Node000014" class="node">
<title>Node14</title>
<g id="a_Node000014"><a xlink:title=" ">
<polygon fill="#e0e0e0" stroke="#999999" points="208.5,-19 145.5,-19 145.5,0 208.5,0 208.5,-19"/>
<text text-anchor="middle" x="177" y="-7" font-family="Helvetica,sans-Serif" font-size="10.00">c_types.h</text>
</a>
</g>
</g>
<!-- Node11&#45;&gt;Node14 -->
<g id="edge14_Node000011_Node000014" class="edge">
<title>Node11&#45;&gt;Node14</title>
<g id="a_edge14_Node000011_Node000014"><a xlink:title=" ">
<path fill="none" stroke="#63b8ff" d="M233.24,-54.98C223.23,-47.07 208.11,-35.11 196.07,-25.58"/>
<polygon fill="#63b8ff" stroke="#63b8ff" points="197.97,-22.63 187.96,-19.17 193.63,-28.12 197.97,-22.63"/>
</a>
</g>
</g>
<!-- Node15 -->
<g id="Node000015" class="node">
<title>Node15</title>
<g id="a_Node000015"><a xlink:title=" ">
<polygon fill="#e0e0e0" stroke="#999999" points="301,-19 227,-19 227,0 301,0 301,-19"/>
<text text-anchor="middle" x="264" y="-7" font-family="Helvetica,sans-Serif" font-size="10.00">eagle_soc.h</text>
</a>
</g>
</g>
<!-- Node11&#45;&gt;Node15 -->
<g id="edge15_Node000011_Node000015" class="edge">
<title>Node11&#45;&gt;Node15</title>
<g id="a_edge15_Node000011_Node000015"><a xlink:title=" ">
<path fill="none" stroke="#63b8ff" d="M247.3,-54.75C249.98,-47.65 253.85,-37.4 257.19,-28.56"/>
<polygon fill="#63b8ff" stroke="#63b8ff" points="260.5,-29.68 260.76,-19.09 253.95,-27.21 260.5,-29.68"/>
</a>
</g>
</g>
<!-- Node16 -->
<g id="Node000016" class="node">
<title>Node16</title>
<g id="a_Node000016"><a xlink:title=" ">
<polygon fill="#e0e0e0" stroke="#999999" points="381,-19 319,-19 319,0 381,0 381,-19"/>
<text text-anchor="middle" x="350" y="-7" font-family="Helvetica,sans-Serif" font-size="10.00">ets_sys.h</text>
</a>
</g>
</g>
<!-- Node11&#45;&gt;Node16 -->
<g id="edge16_Node000011_Node000016" class="edge">
<title>Node11&#45;&gt;Node16</title>
<g id="a_edge16_Node000011_Node000016"><a xlink:title=" ">
<path fill="none" stroke="#63b8ff" d="M261.03,-54.98C277.93,-46.54 304.06,-33.47 323.64,-23.68"/>
<polygon fill="#63b8ff" stroke="#63b8ff" points="325.28,-26.77 332.66,-19.17 322.15,-20.51 325.28,-26.77"/>
</a>
</g>
</g>
<!-- Node17 -->
<g id="Node000017" class="node">
<title>Node17</title>
<g id="a_Node000017"><a xlink:title=" ">
<polygon fill="#e0e0e0" stroke="#999999" points="451,-19 399,-19 399,0 451,0 451,-19"/>
<text text-anchor="middle" x="425" y="-7" font-family="Helvetica,sans-Serif" font-size="10.00">osapi.h</text>
</a>
</g>
</g>
<!-- Node11&#45;&gt;Node17 -->
<g id="edge17_Node000011_Node000017" class="edge">
<title>Node11&#45;&gt;Node17</title>
<g id="a_edge17_Node000011_Node000017"><a xlink:title=" ">
<path fill="none" stroke="#63b8ff" d="M273.08,-54.98C304.6,-45.76 354.93,-31.02 388.94,-21.06"/>
<polygon fill="#63b8ff" stroke="#63b8ff" points="390.32,-24.3 398.93,-18.13 388.35,-17.59 390.32,-24.3"/>
</a>
</g>
</g>
<!-- Node18&#45;&gt;Node19 -->
<g id="edge20_Node000018_Node000019" class="edge">
<title>Node18&#45;&gt;Node19</title>
<g id="a_edge20_Node000018_Node000019"><a xlink:title=" ">
<path fill="none" stroke="#63b8ff" d="M602.77,-54.98C586.82,-46.61 562.22,-33.7 543.62,-23.95"/>
<polygon fill="#63b8ff" stroke="#63b8ff" points="545,-20.72 534.52,-19.17 541.75,-26.92 545,-20.72"/>
</a>
</g>
</g>
<!-- Node20 -->
<g id="Node000020" class="node">
<title>Node20</title>
<g id="a_Node000020"><a xlink:title=" ">
<polygon fill="#e0e0e0" stroke="#999999" points="968.5,-19 923.5,-19 923.5,0 968.5,0 968.5,-19"/>
<text text-anchor="middle" x="946" y="-7" font-family="Helvetica,sans-Serif" font-size="10.00">utility</text>
</a>
</g>
</g>
<!-- Node18&#45;&gt;Node20 -->
<g id="edge21_Node000018_Node000020" class="edge">
<title>Node18&#45;&gt;Node20</title>
<g id="a_edge21_Node000018_Node000020"><a xlink:title=" ">
<path fill="none" stroke="#63b8ff" d="M654.04,-56.62C657.07,-56.06 660.09,-55.51 663,-55 753.29,-39.19 860.25,-23.08 913.09,-15.29"/>
<polygon fill="#63b8ff" stroke="#63b8ff" points="913.83,-18.72 923.21,-13.81 912.81,-11.8 913.83,-18.72"/>
</a>
</g>
</g>
<!-- Node24 -->
<g id="Node000024" class="node">
<title>Node24</title>
<g id="a_Node000024"><a xlink:title=" ">
<polygon fill="#e0e0e0" stroke="#999999" points="1532.5,-349 1455.5,-349 1455.5,-330 1532.5,-330 1532.5,-349"/>
<text text-anchor="middle" x="1494" y="-337" font-family="Helvetica,sans-Serif" font-size="10.00">libminilisp.h</text>
</a>
</g>
</g>
<!-- Node23&#45;&gt;Node24 -->
<g id="edge28_Node000023_Node000024" class="edge">
<title>Node23&#45;&gt;Node24</title>
<g id="a_edge28_Node000023_Node000024"><a xlink:title=" ">
<path fill="none" stroke="#63b8ff" d="M1494,-384.75C1494,-377.8 1494,-367.85 1494,-359.13"/>
<polygon fill="#63b8ff" stroke="#63b8ff" points="1497.5,-359.09 1494,-349.09 1490.5,-359.09 1497.5,-359.09"/>
</a>
</g>
</g>
<!-- Node25&#45;&gt;Node6 -->
<g id="edge30_Node000025_Node000006" class="edge">
<title>Node25&#45;&gt;Node6</title>
<g id="a_edge30_Node000025_Node000006"><a xlink:title=" ">
<path fill="none" stroke="#63b8ff" d="M1373.3,-439.97C1390.82,-422.92 1427,-382.61 1427,-340.5 1427,-340.5 1427,-340.5 1427,-118.5 1427,-51.08 1335.22,-25.18 1279.57,-15.67"/>
<polygon fill="#63b8ff" stroke="#63b8ff" points="1280.06,-12.2 1269.63,-14.08 1278.96,-19.12 1280.06,-12.2"/>
</a>
</g>
</g>
<!-- Node25&#45;&gt;Node23 -->
<g id="edge31_Node000025_Node000023" class="edge">
<title>Node25&#45;&gt;Node23</title>
<g id="a_edge31_Node000025_Node000023"><a xlink:title=" ">
<path fill="none" stroke="#63b8ff" d="M1384.89,-439.98C1406.08,-431.34 1439.13,-417.87 1463.3,-408.02"/>
<polygon fill="#63b8ff" stroke="#63b8ff" points="1464.79,-411.19 1472.73,-404.17 1462.15,-404.7 1464.79,-411.19"/>
</a>
</g>
</g>
<!-- Node26 -->
<g id="Node000026" class="node">
<title>Node26</title>
<g id="a_Node000026"><a xlink:href="_register_manager_proxy_8h.html" target="_top" xlink:title=" ">
<polygon fill="white" stroke="#666666" points="1299.5,-404 1164.5,-404 1164.5,-385 1299.5,-385 1299.5,-404"/>
<text text-anchor="middle" x="1232" y="-392" font-family="Helvetica,sans-Serif" font-size="10.00">RegisterManagerProxy.h</text>
</a>
</g>
</g>
<!-- Node25&#45;&gt;Node26 -->
<g id="edge32_Node000025_Node000026" class="edge">
<title>Node25&#45;&gt;Node26</title>
<g id="a_edge32_Node000025_Node000026"><a xlink:title=" ">
<path fill="none" stroke="#63b8ff" d="M1342.79,-439.98C1321.27,-431.34 1287.72,-417.87 1263.17,-408.02"/>
<polygon fill="#63b8ff" stroke="#63b8ff" points="1264.18,-404.65 1253.59,-404.17 1261.57,-411.14 1264.18,-404.65"/>
</a>
</g>
</g>
<!-- Node40 -->
<g id="Node000040" class="node">
<title>Node40</title>
<g id="a_Node000040"><a xlink:title=" ">
<polygon fill="#e0e0e0" stroke="#999999" points="1393.5,-404 1334.5,-404 1334.5,-385 1393.5,-385 1393.5,-404"/>
<text text-anchor="middle" x="1364" y="-392" font-family="Helvetica,sans-Serif" font-size="10.00">setjmp.h</text>
</a>
</g>
</g>
<!-- Node25&#45;&gt;Node40 -->
<g id="edge64_Node000025_Node000040" class="edge">
<title>Node25&#45;&gt;Node40</title>
<g id="a_edge64_Node000025_Node000040"><a xlink:title=" ">
<path fill="none" stroke="#63b8ff" d="M1364,-439.75C1364,-432.8 1364,-422.85 1364,-414.13"/>
<polygon fill="#63b8ff" stroke="#63b8ff" points="1367.5,-414.09 1364,-404.09 1360.5,-414.09 1367.5,-414.09"/>
</a>
</g>
</g>
<!-- Node27 -->
<g id="Node000027" class="node">
<title>Node27</title>
<g id="a_Node000027"><a xlink:href="_register_manager_8h.html" target="_top" xlink:title=" ">
<polygon fill="white" stroke="#666666" points="1277,-349 1169,-349 1169,-330 1277,-330 1277,-349"/>
<text text-anchor="middle" x="1223" y="-337" font-family="Helvetica,sans-Serif" font-size="10.00">RegisterManager.h</text>
</a>
</g>
</g>
<!-- Node26&#45;&gt;Node27 -->
<g id="edge33_Node000026_Node000027" class="edge">
<title>Node26&#45;&gt;Node27</title>
<g id="a_edge33_Node000026_Node000027"><a xlink:title=" ">
<path fill="none" stroke="#63b8ff" d="M1230.51,-384.75C1229.33,-377.8 1227.64,-367.85 1226.16,-359.13"/>
<polygon fill="#63b8ff" stroke="#63b8ff" points="1229.58,-358.36 1224.46,-349.09 1222.68,-359.53 1229.58,-358.36"/>
</a>
</g>
</g>
<!-- Node28 -->
<g id="Node000028" class="node">
<title>Node28</title>
<g id="a_Node000028"><a xlink:href="_c_b_o_r_object_8h.html" target="_top" xlink:title=" ">
<polygon fill="white" stroke="#666666" points="1019.5,-184 934.5,-184 934.5,-165 1019.5,-165 1019.5,-184"/>
<text text-anchor="middle" x="977" y="-172" font-family="Helvetica,sans-Serif" font-size="10.00">CBORObject.h</text>
</a>
</g>
</g>
<!-- Node27&#45;&gt;Node28 -->
<g id="edge34_Node000027_Node000028" class="edge">
<title>Node27&#45;&gt;Node28</title>
<g id="a_edge34_Node000027_Node000028"><a xlink:title=" ">
<path fill="none" stroke="#63b8ff" d="M1207.43,-329.9C1194.09,-321.94 1175.03,-309.07 1162,-294 1137.69,-265.87 1151.65,-243.69 1123,-220 1096.67,-198.23 1059.83,-187.1 1029.74,-181.42"/>
<polygon fill="#63b8ff" stroke="#63b8ff" points="1030.28,-177.96 1019.83,-179.69 1029.08,-184.85 1030.28,-177.96"/>
</a>
</g>
</g>
<!-- Node33 -->
<g id="Node000033" class="node">
<title>Node33</title>
<g id="a_Node000033"><a xlink:href="_gpio_register_8h.html" target="_top" xlink:title=" ">
<polygon fill="white" stroke="#666666" points="1374,-294 1286,-294 1286,-275 1374,-275 1374,-294"/>
<text text-anchor="middle" x="1330" y="-282" font-family="Helvetica,sans-Serif" font-size="10.00">GpioRegister.h</text>
</a>
</g>
</g>
<!-- Node27&#45;&gt;Node33 -->
<g id="edge45_Node000027_Node000033" class="edge">
<title>Node27&#45;&gt;Node33</title>
<g id="a_edge45_Node000027_Node000033"><a xlink:title=" ">
<path fill="none" stroke="#63b8ff" d="M1240.19,-329.98C1257.25,-321.54 1283.63,-308.47 1303.4,-298.68"/>
<polygon fill="#63b8ff" stroke="#63b8ff" points="1305.09,-301.75 1312.5,-294.17 1301.98,-295.47 1305.09,-301.75"/>
</a>
</g>
</g>
<!-- Node39 -->
<g id="Node000039" class="node">
<title>Node39</title>
<g id="a_Node000039"><a xlink:href="_object_register_8h.html" target="_top" xlink:title=" ">
<polygon fill="white" stroke="#666666" points="1267.5,-294 1170.5,-294 1170.5,-275 1267.5,-275 1267.5,-294"/>
<text text-anchor="middle" x="1219" y="-282" font-family="Helvetica,sans-Serif" font-size="10.00">ObjectRegister.h</text>
</a>
</g>
</g>
<!-- Node27&#45;&gt;Node39 -->
<g id="edge59_Node000027_Node000039" class="edge">
<title>Node27&#45;&gt;Node39</title>
<g id="a_edge59_Node000027_Node000039"><a xlink:title=" ">
<path fill="none" stroke="#63b8ff" d="M1222.34,-329.75C1221.82,-322.8 1221.06,-312.85 1220.41,-304.13"/>
<polygon fill="#63b8ff" stroke="#63b8ff" points="1223.89,-303.8 1219.65,-294.09 1216.91,-304.32 1223.89,-303.8"/>
</a>
</g>
</g>
<!-- Node28&#45;&gt;Node6 -->
<g id="edge35_Node000028_Node000006" class="edge">
<title>Node28&#45;&gt;Node6</title>
<g id="a_edge35_Node000028_Node000006"><a xlink:title=" ">
<path fill="none" stroke="#63b8ff" d="M1011.01,-164.87C1032.15,-158.06 1058.69,-146.7 1077,-129 1103.3,-103.58 1085.75,-79.39 1113,-55 1136.19,-34.25 1169.7,-23.01 1196.19,-17.02"/>
<polygon fill="#63b8ff" stroke="#63b8ff" points="1197.26,-20.37 1206.33,-14.9 1195.83,-13.52 1197.26,-20.37"/>
</a>
</g>
</g>
<!-- Node28&#45;&gt;Node8 -->
<g id="edge42_Node000028_Node000008" class="edge">
<title>Node28&#45;&gt;Node8</title>
<g id="a_edge42_Node000028_Node000008"><a xlink:title=" ">
<path fill="none" stroke="#63b8ff" d="M1011.22,-164.93C1029.71,-158.37 1050.96,-147.24 1062,-129 1074.2,-108.85 1049.93,-90.44 1027.86,-78.7"/>
<polygon fill="#63b8ff" stroke="#63b8ff" points="1029.16,-75.43 1018.65,-74.08 1026.03,-81.69 1029.16,-75.43"/>
</a>
</g>
</g>
<!-- Node28&#45;&gt;Node19 -->
<g id="edge44_Node000028_Node000019" class="edge">
<title>Node28&#45;&gt;Node19</title>
<g id="a_edge44_Node000028_Node000019"><a xlink:title=" ">
<path fill="none" stroke="#63b8ff" d="M934.27,-170.31C857.79,-164.18 700.73,-149.5 650,-129 596.9,-107.54 551.29,-54.72 530.31,-27.43"/>
<polygon fill="#63b8ff" stroke="#63b8ff" points="532.96,-25.14 524.16,-19.24 527.36,-29.34 532.96,-25.14"/>
</a>
</g>
</g>
<!-- Node29 -->
<g id="Node000029" class="node">
<title>Node29</title>
<g id="a_Node000029"><a xlink:href="_bytes_8h.html" target="_top" xlink:title=" ">
<polygon fill="white" stroke="#666666" points="711.5,-129 658.5,-129 658.5,-110 711.5,-110 711.5,-129"/>
<text text-anchor="middle" x="685" y="-117" font-family="Helvetica,sans-Serif" font-size="10.00">Bytes.h</text>
</a>
</g>
</g>
<!-- Node28&#45;&gt;Node29 -->
<g id="edge36_Node000028_Node000029" class="edge">
<title>Node28&#45;&gt;Node29</title>
<g id="a_edge36_Node000028_Node000029"><a xlink:title=" ">
<path fill="none" stroke="#63b8ff" d="M934.27,-166.87C885.32,-159.1 802.48,-145.42 721.55,-129.01"/>
<polygon fill="#63b8ff" stroke="#63b8ff" points="722.2,-125.56 711.7,-126.99 720.79,-132.42 722.2,-125.56"/>
</a>
</g>
</g>
<!-- Node32 -->
<g id="Node000032" class="node">
<title>Node32</title>
<g id="a_Node000032"><a xlink:title=" ">
<polygon fill="#e0e0e0" stroke="#999999" points="903.5,-129 842.5,-129 842.5,-110 903.5,-110 903.5,-129"/>
<text text-anchor="middle" x="873" y="-117" font-family="Helvetica,sans-Serif" font-size="10.00">cn&#45;cbor.h</text>
</a>
</g>
</g>
<!-- Node28&#45;&gt;Node32 -->
<g id="edge43_Node000028_Node000032" class="edge">
<title>Node28&#45;&gt;Node32</title>
<g id="a_edge43_Node000028_Node000032"><a xlink:title=" ">
<path fill="none" stroke="#63b8ff" d="M960.29,-164.98C943.79,-156.57 918.3,-143.59 899.12,-133.81"/>
<polygon fill="#63b8ff" stroke="#63b8ff" points="900.51,-130.59 890.01,-129.17 897.33,-136.83 900.51,-130.59"/>
</a>
</g>
</g>
<!-- Node29&#45;&gt;Node7 -->
<g id="edge40_Node000029_Node000007" class="edge">
<title>Node29&#45;&gt;Node7</title>
<g id="a_edge40_Node000029_Node000007"><a xlink:title=" ">
<path fill="none" stroke="#63b8ff" d="M701.87,-109.97C715.4,-102.3 733.9,-89.82 745,-74 754.4,-60.6 759.22,-42.5 761.64,-29.05"/>
<polygon fill="#63b8ff" stroke="#63b8ff" points="765.12,-29.47 763.17,-19.05 758.2,-28.41 765.12,-29.47"/>
</a>
</g>
</g>
<!-- Node29&#45;&gt;Node8 -->
<g id="edge38_Node000029_Node000008" class="edge">
<title>Node29&#45;&gt;Node8</title>
<g id="a_edge38_Node000029_Node000008"><a xlink:title=" ">
<path fill="none" stroke="#63b8ff" d="M711.68,-111.94C714.82,-111.25 717.97,-110.58 721,-110 823.38,-90.24 852.7,-93.52 959.14,-74.04"/>
<polygon fill="#63b8ff" stroke="#63b8ff" points="959.8,-77.47 969,-72.21 958.53,-70.59 959.8,-77.47"/>
</a>
</g>
</g>
<!-- Node29&#45;&gt;Node18 -->
<g id="edge37_Node000029_Node000018" class="edge">
<title>Node29&#45;&gt;Node18</title>
<g id="a_edge37_Node000029_Node000018"><a xlink:title=" ">
<path fill="none" stroke="#63b8ff" d="M674.4,-109.98C664.54,-102.07 649.65,-90.11 637.78,-80.58"/>
<polygon fill="#63b8ff" stroke="#63b8ff" points="639.79,-77.7 629.8,-74.17 635.4,-83.16 639.79,-77.7"/>
</a>
</g>
</g>
<!-- Node30 -->
<g id="Node000030" class="node">
<title>Node30</title>
<g id="a_Node000030"><a xlink:title=" ">
<polygon fill="#e0e0e0" stroke="#999999" points="736,-74 672,-74 672,-55 736,-55 736,-74"/>
<text text-anchor="middle" x="704" y="-62" font-family="Helvetica,sans-Serif" font-size="10.00">WString.h</text>
</a>
</g>
</g>
<!-- Node29&#45;&gt;Node30 -->
<g id="edge39_Node000029_Node000030" class="edge">
<title>Node29&#45;&gt;Node30</title>
<g id="a_edge39_Node000029_Node000030"><a xlink:title=" ">
<path fill="none" stroke="#63b8ff" d="M688.14,-109.75C690.68,-102.65 694.36,-92.4 697.53,-83.56"/>
<polygon fill="#63b8ff" stroke="#63b8ff" points="700.84,-84.68 700.92,-74.09 694.25,-82.32 700.84,-84.68"/>
</a>
</g>
</g>
<!-- Node31 -->
<g id="Node000031" class="node">
<title>Node31</title>
<g id="a_Node000031"><a xlink:title=" ">
<polygon fill="#e0e0e0" stroke="#999999" points="1190.5,-74 1121.5,-74 1121.5,-55 1190.5,-55 1190.5,-74"/>
<text text-anchor="middle" x="1156" y="-62" font-family="Helvetica,sans-Serif" font-size="10.00">type_traits</text>
</a>
</g>
</g>
<!-- Node29&#45;&gt;Node31 -->
<g id="edge41_Node000029_Node000031" class="edge">
<title>Node29&#45;&gt;Node31</title>
<g id="a_edge41_Node000029_Node000031"><a xlink:title=" ">
<path fill="none" stroke="#63b8ff" d="M711.66,-111.8C714.79,-111.13 717.96,-110.51 721,-110 795.23,-97.49 1015.5,-77.66 1111,-69.36"/>
<polygon fill="#63b8ff" stroke="#63b8ff" points="1111.54,-72.82 1121.2,-68.47 1110.94,-65.85 1111.54,-72.82"/>
</a>
</g>
</g>
<!-- Node33&#45;&gt;Node6 -->
<g id="edge46_Node000033_Node000006" class="edge">
<title>Node33&#45;&gt;Node6</title>
<g id="a_edge46_Node000033_Node000006"><a xlink:title=" ">
<path fill="none" stroke="#63b8ff" d="M1338.71,-274.86C1355.12,-257.6 1389,-216.95 1389,-175.5 1389,-175.5 1389,-175.5 1389,-118.5 1389,-64.41 1324.12,-34.83 1279.41,-20.86"/>
<polygon fill="#63b8ff" stroke="#63b8ff" points="1280.24,-17.46 1269.65,-17.96 1278.24,-24.17 1280.24,-17.46"/>
</a>
</g>
</g>
<!-- Node33&#45;&gt;Node22 -->
<g id="edge47_Node000033_Node000022" class="edge">
<title>Node33&#45;&gt;Node22</title>
<g id="a_edge47_Node000033_Node000022"><a xlink:title=" ">
<path fill="none" stroke="#63b8ff" d="M1286.3,-274.98C1238.85,-265.74 1163.03,-250.97 1111.92,-241.01"/>
<polygon fill="#63b8ff" stroke="#63b8ff" points="1112.53,-237.56 1102.04,-239.08 1111.19,-244.43 1112.53,-237.56"/>
</a>
</g>
</g>
<!-- Node34 -->
<g id="Node000034" class="node">
<title>Node34</title>
<g id="a_Node000034"><a xlink:href="_register_8h.html" target="_top" xlink:title=" ">
<polygon fill="white" stroke="#666666" points="1312.5,-239 1247.5,-239 1247.5,-220 1312.5,-220 1312.5,-239"/>
<text text-anchor="middle" x="1280" y="-227" font-family="Helvetica,sans-Serif" font-size="10.00">Register.h</text>
</a>
</g>
</g>
<!-- Node33&#45;&gt;Node34 -->
<g id="edge48_Node000033_Node000034" class="edge">
<title>Node33&#45;&gt;Node34</title>
<g id="a_edge48_Node000033_Node000034"><a xlink:title=" ">
<path fill="none" stroke="#63b8ff" d="M1321.74,-274.75C1314.54,-267.11 1303.89,-255.82 1295.15,-246.56"/>
<polygon fill="#63b8ff" stroke="#63b8ff" points="1297.51,-243.96 1288.1,-239.09 1292.42,-248.76 1297.51,-243.96"/>
</a>
</g>
</g>
<!-- Node34&#45;&gt;Node6 -->
<g id="edge49_Node000034_Node000006" class="edge">
<title>Node34&#45;&gt;Node6</title>
<g id="a_edge49_Node000034_Node000006"><a xlink:title=" ">
<path fill="none" stroke="#63b8ff" d="M1287.24,-219.88C1308.6,-193.35 1367.65,-111.33 1332,-55 1320.35,-36.6 1298.81,-25.66 1279.29,-19.23"/>
<polygon fill="#63b8ff" stroke="#63b8ff" points="1280.2,-15.85 1269.62,-16.35 1278.2,-22.56 1280.2,-15.85"/>
</a>
</g>
</g>
<!-- Node35 -->
<g id="Node000035" class="node">
<title>Node35</title>
<g id="a_Node000035"><a xlink:href="_array_8h.html" target="_top" xlink:title=" ">
<polygon fill="white" stroke="#666666" points="1297,-129 1247,-129 1247,-110 1297,-110 1297,-129"/>
<text text-anchor="middle" x="1272" y="-117" font-family="Helvetica,sans-Serif" font-size="10.00">Array.h</text>
</a>
</g>
</g>
<!-- Node34&#45;&gt;Node35 -->
<g id="edge50_Node000034_Node000035" class="edge">
<title>Node34&#45;&gt;Node35</title>
<g id="a_edge50_Node000034_Node000035"><a xlink:title=" ">
<path fill="none" stroke="#63b8ff" d="M1279.35,-219.66C1278.05,-202.17 1275.13,-162.8 1273.39,-139.27"/>
<polygon fill="#63b8ff" stroke="#63b8ff" points="1276.87,-138.87 1272.64,-129.16 1269.89,-139.39 1276.87,-138.87"/>
</a>
</g>
</g>
<!-- Node37 -->
<g id="Node000037" class="node">
<title>Node37</title>
<g id="a_Node000037"><a xlink:href="_map_8h.html" target="_top" xlink:title=" ">
<polygon fill="white" stroke="#666666" points="800.5,-184 753.5,-184 753.5,-165 800.5,-165 800.5,-184"/>
<text text-anchor="middle" x="777" y="-172" font-family="Helvetica,sans-Serif" font-size="10.00">Map.h</text>
</a>
</g>
</g>
<!-- Node34&#45;&gt;Node37 -->
<g id="edge55_Node000034_Node000037" class="edge">
<title>Node34&#45;&gt;Node37</title>
<g id="a_edge55_Node000034_Node000037"><a xlink:title=" ">
<path fill="none" stroke="#63b8ff" d="M1247.38,-225.06C1156.82,-215.52 902.86,-188.76 810.84,-179.07"/>
<polygon fill="#63b8ff" stroke="#63b8ff" points="811,-175.56 800.69,-178 810.27,-182.52 811,-175.56"/>
</a>
</g>
</g>
<!-- Node35&#45;&gt;Node6 -->
<g id="edge51_Node000035_Node000006" class="edge">
<title>Node35&#45;&gt;Node6</title>
<g id="a_edge51_Node000035_Node000006"><a xlink:title=" ">
<path fill="none" stroke="#63b8ff" d="M1269.22,-109.66C1263.69,-92.09 1251.21,-52.45 1243.81,-28.95"/>
<polygon fill="#63b8ff" stroke="#63b8ff" points="1247.07,-27.65 1240.73,-19.16 1240.39,-29.75 1247.07,-27.65"/>
</a>
</g>
</g>
<!-- Node35&#45;&gt;Node20 -->
<g id="edge54_Node000035_Node000020" class="edge">
<title>Node35&#45;&gt;Node20</title>
<g id="a_edge54_Node000035_Node000020"><a xlink:title=" ">
<path fill="none" stroke="#63b8ff" d="M1246.73,-112.18C1215.18,-104.12 1159.69,-89.38 1113,-74 1064.54,-58.04 1009.41,-36.38 976.19,-22.92"/>
<polygon fill="#63b8ff" stroke="#63b8ff" points="977.19,-19.56 966.61,-19.03 974.56,-26.04 977.19,-19.56"/>
</a>
</g>
</g>
<!-- Node35&#45;&gt;Node31 -->
<g id="edge53_Node000035_Node000031" class="edge">
<title>Node35&#45;&gt;Node31</title>
<g id="a_edge53_Node000035_Node000031"><a xlink:title=" ">
<path fill="none" stroke="#63b8ff" d="M1253.36,-109.98C1234.7,-101.46 1205.75,-88.23 1184.26,-78.41"/>
<polygon fill="#63b8ff" stroke="#63b8ff" points="1185.53,-75.14 1174.98,-74.17 1182.62,-81.51 1185.53,-75.14"/>
</a>
</g>
</g>
<!-- Node36 -->
<g id="Node000036" class="node">
<title>Node36</title>
<g id="a_Node000036"><a xlink:title=" ">
<polygon fill="#e0e0e0" stroke="#999999" points="1322.5,-74 1285.5,-74 1285.5,-55 1322.5,-55 1322.5,-74"/>
<text text-anchor="middle" x="1304" y="-62" font-family="Helvetica,sans-Serif" font-size="10.00">new</text>
</a>
</g>
</g>
<!-- Node35&#45;&gt;Node36 -->
<g id="edge52_Node000035_Node000036" class="edge">
<title>Node35&#45;&gt;Node36</title>
<g id="a_edge52_Node000035_Node000036"><a xlink:title=" ">
<path fill="none" stroke="#63b8ff" d="M1277.28,-109.75C1281.71,-102.42 1288.16,-91.73 1293.62,-82.7"/>
<polygon fill="#63b8ff" stroke="#63b8ff" points="1296.64,-84.46 1298.81,-74.09 1290.65,-80.84 1296.64,-84.46"/>
</a>
</g>
</g>
<!-- Node37&#45;&gt;Node18 -->
<g id="edge56_Node000037_Node000018" class="edge">
<title>Node37&#45;&gt;Node18</title>
<g id="a_edge56_Node000037_Node000018"><a xlink:title=" ">
<path fill="none" stroke="#63b8ff" d="M753.19,-170.67C725.4,-166.23 679.51,-155.24 650,-129 636.56,-117.05 628.34,-97.96 623.78,-83.82"/>
<polygon fill="#63b8ff" stroke="#63b8ff" points="627.13,-82.81 620.97,-74.18 620.41,-84.76 627.13,-82.81"/>
</a>
</g>
</g>
<!-- Node38 -->
<g id="Node000038" class="node">
<title>Node38</title>
<g id="a_Node000038"><a xlink:href="_iterable_queue_8h.html" target="_top" xlink:title=" ">
<polygon fill="white" stroke="#666666" points="824.5,-129 729.5,-129 729.5,-110 824.5,-110 824.5,-129"/>
<text text-anchor="middle" x="777" y="-117" font-family="Helvetica,sans-Serif" font-size="10.00">IterableQueue.h</text>
</a>
</g>
</g>
<!-- Node37&#45;&gt;Node38 -->
<g id="edge57_Node000037_Node000038" class="edge">
<title>Node37&#45;&gt;Node38</title>
<g id="a_edge57_Node000037_Node000038"><a xlink:title=" ">
<path fill="none" stroke="#63b8ff" d="M777,-164.75C777,-157.8 777,-147.85 777,-139.13"/>
<polygon fill="#63b8ff" stroke="#63b8ff" points="780.5,-139.09 777,-129.09 773.5,-139.09 780.5,-139.09"/>
</a>
</g>
</g>
<!-- Node38&#45;&gt;Node5 -->
<g id="edge58_Node000038_Node000005" class="edge">
<title>Node38&#45;&gt;Node5</title>
<g id="a_edge58_Node000038_Node000005"><a xlink:title=" ">
<path fill="none" stroke="#63b8ff" d="M786.16,-109.98C794.5,-102.23 807.03,-90.58 817.18,-81.14"/>
<polygon fill="#63b8ff" stroke="#63b8ff" points="819.74,-83.54 824.68,-74.17 814.97,-78.42 819.74,-83.54"/>
</a>
</g>
</g>
<!-- Node39&#45;&gt;Node4 -->
<g id="edge62_Node000039_Node000004" class="edge">
<title>Node39&#45;&gt;Node4</title>
<g id="a_edge62_Node000039_Node000004"><a xlink:title=" ">
<path fill="none" stroke="#63b8ff" d="M1211.84,-275C1200.74,-262.12 1178.32,-237.35 1156,-220 1109.31,-183.71 1048.19,-150.87 1013.71,-133.49"/>
<polygon fill="#63b8ff" stroke="#63b8ff" points="1015.23,-130.34 1004.72,-129.01 1012.11,-136.61 1015.23,-130.34"/>
</a>
</g>
</g>
<!-- Node39&#45;&gt;Node6 -->
<g id="edge60_Node000039_Node000006" class="edge">
<title>Node39&#45;&gt;Node6</title>
<g id="a_edge60_Node000039_Node000006"><a xlink:title=" ">
<path fill="none" stroke="#63b8ff" d="M1219,-274.82C1219,-256.48 1219,-212.44 1219,-175.5 1219,-175.5 1219,-175.5 1219,-118.5 1219,-86.56 1227.16,-50.1 1232.78,-28.77"/>
<polygon fill="#63b8ff" stroke="#63b8ff" points="1236.17,-29.66 1235.44,-19.09 1229.42,-27.81 1236.17,-29.66"/>
</a>
</g>
</g>
<!-- Node39&#45;&gt;Node18 -->
<g id="edge61_Node000039_Node000018" class="edge">
<title>Node39&#45;&gt;Node18</title>
<g id="a_edge61_Node000039_Node000018"><a xlink:title=" ">
<path fill="none" stroke="#63b8ff" d="M1170.49,-277.45C1083.44,-265.69 895.76,-236.22 745,-184 691.84,-165.59 665.22,-173.65 631,-129 621.29,-116.34 618.67,-98.15 618.25,-84.49"/>
<polygon fill="#63b8ff" stroke="#63b8ff" points="621.75,-84.31 618.31,-74.29 614.75,-84.27 621.75,-84.31"/>
</a>
</g>
</g>
<!-- Node39&#45;&gt;Node34 -->
<g id="edge63_Node000039_Node000034" class="edge">
<title>Node39&#45;&gt;Node34</title>
<g id="a_edge63_Node000039_Node000034"><a xlink:title=" ">
<path fill="none" stroke="#63b8ff" d="M1228.8,-274.98C1237.82,-267.15 1251.41,-255.34 1262.32,-245.86"/>
<polygon fill="#63b8ff" stroke="#63b8ff" points="1264.77,-248.37 1270.02,-239.17 1260.18,-243.09 1264.77,-248.37"/>
</a>
</g>
</g>
</g>
</svg>
