<?xml version="1.0" encoding="UTF-8" standalone="no"?>
<!DOCTYPE svg PUBLIC "-//W3C//DTD SVG 1.1//EN"
 "http://www.w3.org/Graphics/SVG/1.1/DTD/svg11.dtd">
<!-- Generated by graphviz version 2.43.0 (0)
 -->
<!-- Title: MQTTDevice.h Pages: 1 -->
<svg width="323pt" height="192pt"
 viewBox="0.00 0.00 322.50 192.00" xmlns="http://www.w3.org/2000/svg" xmlns:xlink="http://www.w3.org/1999/xlink">
<g id="graph0" class="graph" transform="scale(1 1) rotate(0) translate(4 188)">
<title>MQTTDevice.h</title>
<!-- Node1 -->
<g id="Node000001" class="node">
<title>Node1</title>
<g id="a_Node000001"><a xlink:title=" ">
<polygon fill="#999999" stroke="#666666" points="161.5,-184 73.5,-184 73.5,-165 161.5,-165 161.5,-184"/>
<text text-anchor="middle" x="117.5" y="-172" font-family="Helvetica,sans-Serif" font-size="10.00">MQTTDevice.h</text>
</a>
</g>
</g>
<!-- Node2 -->
<g id="Node000002" class="node">
<title>Node2</title>
<g id="a_Node000002"><a xlink:href="_callback_m_q_t_t_device_8h.html" target="_top" xlink:title=" ">
<polygon fill="white" stroke="#666666" points="182.5,-129 52.5,-129 52.5,-110 182.5,-110 182.5,-129"/>
<text text-anchor="middle" x="117.5" y="-117" font-family="Helvetica,sans-Serif" font-size="10.00">CallbackMQTTDevice.h</text>
</a>
</g>
</g>
<!-- Node1&#45;&gt;Node2 -->
<g id="edge1_Node000001_Node000002" class="edge">
<title>Node1&#45;&gt;Node2</title>
<g id="a_edge1_Node000001_Node000002"><a xlink:title=" ">
<path fill="none" stroke="#63b8ff" d="M117.5,-154.66C117.5,-145.93 117.5,-135.99 117.5,-129.09"/>
<polygon fill="#63b8ff" stroke="#63b8ff" points="114,-154.75 117.5,-164.75 121,-154.75 114,-154.75"/>
</a>
</g>
</g>
<!-- Node3 -->
<g id="Node000003" class="node">
<title>Node3</title>
<g id="a_Node000003"><a xlink:href="_m_q_t_t_kit_8h.html" target="_top" xlink:title=" ">
<polygon fill="white" stroke="#666666" points="117.5,-74 49.5,-74 49.5,-55 117.5,-55 117.5,-74"/>
<text text-anchor="middle" x="83.5" y="-62" font-family="Helvetica,sans-Serif" font-size="10.00">MQTTKit.h</text>
</a>
</g>
</g>
<!-- Node1&#45;&gt;Node3 -->
<g id="edge8_Node000001_Node000003" class="edge">
<title>Node1&#45;&gt;Node3</title>
<g id="a_edge8_Node000001_Node000003"><a xlink:title=" ">
<path fill="none" stroke="#63b8ff" d="M80.96,-160.74C66.62,-153.73 51.67,-143.45 43.5,-129 32.15,-108.93 55.62,-86.25 71.18,-74.17"/>
<polygon fill="#63b8ff" stroke="#63b8ff" points="79.65,-163.99 90.21,-164.88 82.51,-157.6 79.65,-163.99"/>
</a>
</g>
</g>
<!-- Node5 -->
<g id="Node000005" class="node">
<title>Node5</title>
<g id="a_Node000005"><a xlink:href="_m_q_t_t_device_8cpp.html" target="_top" xlink:title=" ">
<polygon fill="white" stroke="#666666" points="99,-19 0,-19 0,0 99,0 99,-19"/>
<text text-anchor="middle" x="49.5" y="-7" font-family="Helvetica,sans-Serif" font-size="10.00">MQTTDevice.cpp</text>
</a>
</g>
</g>
<!-- Node1&#45;&gt;Node5 -->
<g id="edge7_Node000001_Node000005" class="edge">
<title>Node1&#45;&gt;Node5</title>
<g id="a_edge7_Node000001_Node000005"><a xlink:title=" ">
<path fill="none" stroke="#63b8ff" d="M76.64,-161.12C61.26,-154.26 45.36,-143.98 36.5,-129 15.21,-93.02 35.61,-40.04 45.17,-19.29"/>
<polygon fill="#63b8ff" stroke="#63b8ff" points="75.5,-164.44 86.08,-164.97 78.14,-157.96 75.5,-164.44"/>
</a>
</g>
</g>
<!-- Node6 -->
<g id="Node000006" class="node">
<title>Node6</title>
<g id="a_Node000006"><a xlink:href="_lisp_device_8h.html" target="_top" xlink:title=" ">
<polygon fill="white" stroke="#666666" points="248,-74 169,-74 169,-55 248,-55 248,-74"/>
<text text-anchor="middle" x="208.5" y="-62" font-family="Helvetica,sans-Serif" font-size="10.00">LispDevice.h</text>
</a>
</g>
</g>
<!-- Node1&#45;&gt;Node6 -->
<g id="edge5_Node000001_Node000006" class="edge">
<title>Node1&#45;&gt;Node6</title>
<g id="a_edge5_Node000001_Node000006"><a xlink:title=" ">
<path fill="none" stroke="#63b8ff" d="M150.43,-160.53C164.96,-153.27 181.07,-142.85 191.5,-129 204,-112.41 207.32,-87.31 208.19,-74.19"/>
<polygon fill="#63b8ff" stroke="#63b8ff" points="148.76,-157.45 141.18,-164.85 151.73,-163.79 148.76,-157.45"/>
</a>
</g>
</g>
<!-- Node7 -->
<g id="Node000007" class="node">
<title>Node7</title>
<g id="a_Node000007"><a xlink:href="_top_device_8h.html" target="_top" xlink:title=" ">
<polygon fill="white" stroke="#666666" points="314.5,-129 238.5,-129 238.5,-110 314.5,-110 314.5,-129"/>
<text text-anchor="middle" x="276.5" y="-117" font-family="Helvetica,sans-Serif" font-size="10.00">TopDevice.h</text>
</a>
</g>
</g>
<!-- Node1&#45;&gt;Node7 -->
<g id="edge9_Node000001_Node000007" class="edge">
<title>Node1&#45;&gt;Node7</title>
<g id="a_edge9_Node000001_Node000007"><a xlink:title=" ">
<path fill="none" stroke="#63b8ff" d="M152.6,-161.8C182.28,-151.91 224.1,-137.97 250.75,-129.08"/>
<polygon fill="#63b8ff" stroke="#63b8ff" points="151.43,-158.5 143.05,-164.98 153.64,-165.14 151.43,-158.5"/>
</a>
</g>
</g>
<!-- Node2&#45;&gt;Node3 -->
<g id="edge2_Node000002_Node000003" class="edge">
<title>Node2&#45;&gt;Node3</title>
<g id="a_edge2_Node000002_Node000003"><a xlink:title=" ">
<path fill="none" stroke="#63b8ff" d="M106.34,-101.1C100.53,-92.04 93.68,-81.37 89.01,-74.09"/>
<polygon fill="#63b8ff" stroke="#63b8ff" points="103.54,-103.22 111.89,-109.75 109.43,-99.44 103.54,-103.22"/>
</a>
</g>
</g>
<!-- Node4 -->
<g id="Node000004" class="node">
<title>Node4</title>
<g id="a_Node000004"><a xlink:href="_app_kit_8h.html" target="_top" xlink:title=" ">
<polygon fill="white" stroke="#666666" points="237.5,-19 179.5,-19 179.5,0 237.5,0 237.5,-19"/>
<text text-anchor="middle" x="208.5" y="-7" font-family="Helvetica,sans-Serif" font-size="10.00">AppKit.h</text>
</a>
</g>
</g>
<!-- Node3&#45;&gt;Node4 -->
<g id="edge3_Node000003_Node000004" class="edge">
<title>Node3&#45;&gt;Node4</title>
<g id="a_edge3_Node000003_Node000004"><a xlink:title=" ">
<path fill="none" stroke="#63b8ff" d="M112.91,-51.03C136.03,-41.23 167.63,-27.83 188.05,-19.17"/>
<polygon fill="#63b8ff" stroke="#63b8ff" points="111.42,-47.86 103.58,-54.98 114.16,-54.3 111.42,-47.86"/>
</a>
</g>
</g>
<!-- Node3&#45;&gt;Node5 -->
<g id="edge4_Node000003_Node000005" class="edge">
<title>Node3&#45;&gt;Node5</title>
<g id="a_edge4_Node000003_Node000005"><a xlink:title=" ">
<path fill="none" stroke="#63b8ff" d="M72.34,-46.1C66.53,-37.04 59.68,-26.37 55.01,-19.09"/>
<polygon fill="#63b8ff" stroke="#63b8ff" points="69.54,-48.22 77.89,-54.75 75.43,-44.44 69.54,-48.22"/>
</a>
</g>
</g>
<!-- Node6&#45;&gt;Node4 -->
<g id="edge6_Node000006_Node000004" class="edge">
<title>Node6&#45;&gt;Node4</title>
<g id="a_edge6_Node000006_Node000004"><a xlink:title=" ">
<path fill="none" stroke="#63b8ff" d="M208.5,-44.66C208.5,-35.93 208.5,-25.99 208.5,-19.09"/>
<polygon fill="#63b8ff" stroke="#63b8ff" points="205,-44.75 208.5,-54.75 212,-44.75 205,-44.75"/>
</a>
</g>
</g>
<!-- Node7&#45;&gt;Node4 -->
<g id="edge10_Node000007_Node000004" class="edge">
<title>Node7&#45;&gt;Node4</title>
<g id="a_edge10_Node000007_Node000004"><a xlink:title=" ">
<path fill="none" stroke="#63b8ff" d="M273.66,-99.78C271.01,-86.5 266.12,-68.69 257.5,-55 248.19,-40.22 232.66,-27.3 221.58,-19.25"/>
<polygon fill="#63b8ff" stroke="#63b8ff" points="270.22,-100.42 275.39,-109.67 277.11,-99.21 270.22,-100.42"/>
</a>
</g>
</g>
</g>
</svg>
