<?xml version="1.0" encoding="UTF-8" standalone="no"?>
<!DOCTYPE svg PUBLIC "-//W3C//DTD SVG 1.1//EN"
 "http://www.w3.org/Graphics/SVG/1.1/DTD/svg11.dtd">
<!-- Generated by graphviz version 2.43.0 (0)
 -->
<!-- Title: Map.h Pages: 1 -->
<svg width="968pt" height="467pt"
 viewBox="0.00 0.00 967.50 467.00" xmlns="http://www.w3.org/2000/svg" xmlns:xlink="http://www.w3.org/1999/xlink">
<g id="graph0" class="graph" transform="scale(1 1) rotate(0) translate(4 463)">
<title>Map.h</title>
<!-- Node1 -->
<g id="Node000001" class="node">
<title>Node1</title>
<g id="a_Node000001"><a xlink:title=" ">
<polygon fill="#999999" stroke="#666666" points="700.5,-459 653.5,-459 653.5,-440 700.5,-440 700.5,-459"/>
<text text-anchor="middle" x="677" y="-447" font-family="Helvetica,sans-Serif" font-size="10.00">Map.h</text>
</a>
</g>
</g>
<!-- Node2 -->
<g id="Node000002" class="node">
<title>Node2</title>
<g id="a_Node000002"><a xlink:href="_data_channels_8h.html" target="_top" xlink:title=" ">
<polygon fill="white" stroke="#666666" points="639,-239 545,-239 545,-220 639,-220 639,-239"/>
<text text-anchor="middle" x="592" y="-227" font-family="Helvetica,sans-Serif" font-size="10.00">DataChannels.h</text>
</a>
</g>
</g>
<!-- Node1&#45;&gt;Node2 -->
<g id="edge1_Node000001_Node000002" class="edge">
<title>Node1&#45;&gt;Node2</title>
<g id="a_edge1_Node000001_Node000002"><a xlink:title=" ">
<path fill="none" stroke="#63b8ff" d="M669.95,-430.42C652.55,-385.79 608.05,-271.67 595.4,-239.22"/>
<polygon fill="#63b8ff" stroke="#63b8ff" points="666.77,-431.91 673.67,-439.95 673.3,-429.37 666.77,-431.91"/>
</a>
</g>
</g>
<!-- Node17 -->
<g id="Node000017" class="node">
<title>Node17</title>
<g id="a_Node000017"><a xlink:href="_register_8h.html" target="_top" xlink:title=" ">
<polygon fill="white" stroke="#666666" points="769.5,-404 704.5,-404 704.5,-385 769.5,-385 769.5,-404"/>
<text text-anchor="middle" x="737" y="-392" font-family="Helvetica,sans-Serif" font-size="10.00">Register.h</text>
</a>
</g>
</g>
<!-- Node1&#45;&gt;Node17 -->
<g id="edge20_Node000001_Node000017" class="edge">
<title>Node1&#45;&gt;Node17</title>
<g id="a_edge20_Node000001_Node000017"><a xlink:title=" ">
<path fill="none" stroke="#63b8ff" d="M694.18,-433.32C704.88,-423.87 718.26,-412.06 727.18,-404.17"/>
<polygon fill="#63b8ff" stroke="#63b8ff" points="691.82,-430.74 686.64,-439.98 696.45,-435.99 691.82,-430.74"/>
</a>
</g>
</g>
<!-- Node3 -->
<g id="Node000003" class="node">
<title>Node3</title>
<g id="a_Node000003"><a xlink:href="_data_channels_8cpp.html" target="_top" xlink:title=" ">
<polygon fill="white" stroke="#666666" points="644.5,-184 539.5,-184 539.5,-165 644.5,-165 644.5,-184"/>
<text text-anchor="middle" x="592" y="-172" font-family="Helvetica,sans-Serif" font-size="10.00">DataChannels.cpp</text>
</a>
</g>
</g>
<!-- Node2&#45;&gt;Node3 -->
<g id="edge2_Node000002_Node000003" class="edge">
<title>Node2&#45;&gt;Node3</title>
<g id="a_edge2_Node000002_Node000003"><a xlink:title=" ">
<path fill="none" stroke="#63b8ff" d="M592,-209.66C592,-200.93 592,-190.99 592,-184.09"/>
<polygon fill="#63b8ff" stroke="#63b8ff" points="588.5,-209.75 592,-219.75 595.5,-209.75 588.5,-209.75"/>
</a>
</g>
</g>
<!-- Node4 -->
<g id="Node000004" class="node">
<title>Node4</title>
<g id="a_Node000004"><a xlink:href="_event_bus_8h.html" target="_top" xlink:title=" ">
<polygon fill="white" stroke="#666666" points="518.5,-184 447.5,-184 447.5,-165 518.5,-165 518.5,-184"/>
<text text-anchor="middle" x="483" y="-172" font-family="Helvetica,sans-Serif" font-size="10.00">EventBus.h</text>
</a>
</g>
</g>
<!-- Node2&#45;&gt;Node4 -->
<g id="edge3_Node000002_Node000004" class="edge">
<title>Node2&#45;&gt;Node4</title>
<g id="a_edge3_Node000002_Node000004"><a xlink:title=" ">
<path fill="none" stroke="#63b8ff" d="M565.27,-215.5C545.21,-205.75 518.32,-192.68 500.83,-184.17"/>
<polygon fill="#63b8ff" stroke="#63b8ff" points="563.96,-218.76 574.49,-219.98 567.02,-212.46 563.96,-218.76"/>
</a>
</g>
</g>
<!-- Node5 -->
<g id="Node000005" class="node">
<title>Node5</title>
<g id="a_Node000005"><a xlink:href="_app_kit_8h.html" target="_top" xlink:title=" ">
<polygon fill="white" stroke="#666666" points="729,-19 671,-19 671,0 729,0 729,-19"/>
<text text-anchor="middle" x="700" y="-7" font-family="Helvetica,sans-Serif" font-size="10.00">AppKit.h</text>
</a>
</g>
</g>
<!-- Node4&#45;&gt;Node5 -->
<g id="edge4_Node000004_Node000005" class="edge">
<title>Node4&#45;&gt;Node5</title>
<g id="a_edge4_Node000004_Node000005"><a xlink:title=" ">
<path fill="none" stroke="#63b8ff" d="M502.73,-158.93C514.45,-150.26 529.59,-139.03 543,-129 597.69,-88.08 662.75,-38.77 688.6,-19.16"/>
<polygon fill="#63b8ff" stroke="#63b8ff" points="500.48,-156.24 494.52,-165 504.65,-161.87 500.48,-156.24"/>
</a>
</g>
</g>
<!-- Node6 -->
<g id="Node000006" class="node">
<title>Node6</title>
<g id="a_Node000006"><a xlink:href="_event_bus_8cpp.html" target="_top" xlink:title=" ">
<polygon fill="white" stroke="#666666" points="673.5,-129 590.5,-129 590.5,-110 673.5,-110 673.5,-129"/>
<text text-anchor="middle" x="632" y="-117" font-family="Helvetica,sans-Serif" font-size="10.00">EventBus.cpp</text>
</a>
</g>
</g>
<!-- Node4&#45;&gt;Node6 -->
<g id="edge5_Node000004_Node000006" class="edge">
<title>Node4&#45;&gt;Node6</title>
<g id="a_edge5_Node000004_Node000006"><a xlink:title=" ">
<path fill="none" stroke="#63b8ff" d="M516.59,-161.55C544.26,-151.71 582.84,-137.98 607.62,-129.17"/>
<polygon fill="#63b8ff" stroke="#63b8ff" points="515.19,-158.34 506.94,-164.98 517.53,-164.93 515.19,-158.34"/>
</a>
</g>
</g>
<!-- Node7 -->
<g id="Node000007" class="node">
<title>Node7</title>
<g id="a_Node000007"><a xlink:href="_event_emitter_8cpp.html" target="_top" xlink:title=" ">
<polygon fill="white" stroke="#666666" points="100,-129 0,-129 0,-110 100,-110 100,-129"/>
<text text-anchor="middle" x="50" y="-117" font-family="Helvetica,sans-Serif" font-size="10.00">EventEmitter.cpp</text>
</a>
</g>
</g>
<!-- Node4&#45;&gt;Node7 -->
<g id="edge6_Node000004_Node000007" class="edge">
<title>Node4&#45;&gt;Node7</title>
<g id="a_edge6_Node000004_Node000007"><a xlink:title=" ">
<path fill="none" stroke="#63b8ff" d="M437.07,-168.4C366.47,-160.49 227.09,-144.53 109,-129 106.13,-128.62 103.18,-128.23 100.2,-127.82"/>
<polygon fill="#63b8ff" stroke="#63b8ff" points="437.05,-171.92 447.38,-169.56 437.83,-164.97 437.05,-171.92"/>
</a>
</g>
</g>
<!-- Node8 -->
<g id="Node000008" class="node">
<title>Node8</title>
<g id="a_Node000008"><a xlink:href="_event_entity_8cpp.html" target="_top" xlink:title=" ">
<polygon fill="white" stroke="#666666" points="210,-129 118,-129 118,-110 210,-110 210,-129"/>
<text text-anchor="middle" x="164" y="-117" font-family="Helvetica,sans-Serif" font-size="10.00">EventEntity.cpp</text>
</a>
</g>
</g>
<!-- Node4&#45;&gt;Node8 -->
<g id="edge7_Node000004_Node000008" class="edge">
<title>Node4&#45;&gt;Node8</title>
<g id="a_edge7_Node000004_Node000008"><a xlink:title=" ">
<path fill="none" stroke="#63b8ff" d="M437.32,-165.91C376.88,-155.87 270.93,-138.27 210.22,-128.18"/>
<polygon fill="#63b8ff" stroke="#63b8ff" points="436.9,-169.39 447.34,-167.57 438.04,-162.48 436.9,-169.39"/>
</a>
</g>
</g>
<!-- Node9 -->
<g id="Node000009" class="node">
<title>Node9</title>
<g id="a_Node000009"><a xlink:href="_event_listener_8cpp.html" target="_top" xlink:title=" ">
<polygon fill="white" stroke="#666666" points="331.5,-129 228.5,-129 228.5,-110 331.5,-110 331.5,-129"/>
<text text-anchor="middle" x="280" y="-117" font-family="Helvetica,sans-Serif" font-size="10.00">EventListener.cpp</text>
</a>
</g>
</g>
<!-- Node4&#45;&gt;Node9 -->
<g id="edge8_Node000004_Node000009" class="edge">
<title>Node4&#45;&gt;Node9</title>
<g id="a_edge8_Node000004_Node000009"><a xlink:title=" ">
<path fill="none" stroke="#63b8ff" d="M440.63,-162.44C402.63,-152.52 347.64,-138.16 312.87,-129.08"/>
<polygon fill="#63b8ff" stroke="#63b8ff" points="439.82,-165.84 450.38,-164.98 441.59,-159.07 439.82,-165.84"/>
</a>
</g>
</g>
<!-- Node10 -->
<g id="Node000010" class="node">
<title>Node10</title>
<g id="a_Node000010"><a xlink:href="_i_event_bus_connection_kit_8h.html" target="_top" xlink:title="Defines the interface for components that can connect to an EventBus.">
<polygon fill="white" stroke="#666666" points="834.5,-129 691.5,-129 691.5,-110 834.5,-110 834.5,-129"/>
<text text-anchor="middle" x="763" y="-117" font-family="Helvetica,sans-Serif" font-size="10.00">IEventBusConnectionKit.h</text>
</a>
</g>
</g>
<!-- Node4&#45;&gt;Node10 -->
<g id="edge9_Node000004_Node000010" class="edge">
<title>Node4&#45;&gt;Node10</title>
<g id="a_edge9_Node000004_Node000010"><a xlink:title=" ">
<path fill="none" stroke="#63b8ff" d="M528.5,-163.88C579.11,-153.93 660.44,-138.55 712.84,-129.03"/>
<polygon fill="#63b8ff" stroke="#63b8ff" points="527.63,-160.48 518.5,-165.85 528.99,-167.35 527.63,-160.48"/>
</a>
</g>
</g>
<!-- Node11 -->
<g id="Node000011" class="node">
<title>Node11</title>
<g id="a_Node000011"><a xlink:href="_network_scheduler_8h.html" target="_top" xlink:title=" ">
<polygon fill="white" stroke="#666666" points="534,-129 420,-129 420,-110 534,-110 534,-129"/>
<text text-anchor="middle" x="477" y="-117" font-family="Helvetica,sans-Serif" font-size="10.00">NetworkScheduler.h</text>
</a>
</g>
</g>
<!-- Node4&#45;&gt;Node11 -->
<g id="edge12_Node000004_Node000011" class="edge">
<title>Node4&#45;&gt;Node11</title>
<g id="a_edge12_Node000004_Node000011"><a xlink:title=" ">
<path fill="none" stroke="#63b8ff" d="M480.87,-154.66C479.88,-145.93 478.75,-135.99 477.97,-129.09"/>
<polygon fill="#63b8ff" stroke="#63b8ff" points="477.41,-155.21 482.01,-164.75 484.36,-154.42 477.41,-155.21"/>
</a>
</g>
</g>
<!-- Node15 -->
<g id="Node000015" class="node">
<title>Node15</title>
<g id="a_Node000015"><a xlink:href="_uniot_8h.html" target="_top" xlink:title=" ">
<polygon fill="white" stroke="#666666" points="402,-129 350,-129 350,-110 402,-110 402,-129"/>
<text text-anchor="middle" x="376" y="-117" font-family="Helvetica,sans-Serif" font-size="10.00">Uniot.h</text>
</a>
</g>
</g>
<!-- Node4&#45;&gt;Node15 -->
<g id="edge18_Node000004_Node000015" class="edge">
<title>Node4&#45;&gt;Node15</title>
<g id="a_edge18_Node000004_Node000015"><a xlink:title=" ">
<path fill="none" stroke="#63b8ff" d="M456.76,-160.5C437.07,-150.75 410.68,-137.68 393.5,-129.17"/>
<polygon fill="#63b8ff" stroke="#63b8ff" points="455.29,-163.68 465.81,-164.98 458.4,-157.41 455.29,-163.68"/>
</a>
</g>
</g>
<!-- Node10&#45;&gt;Node4 -->
<g id="edge11_Node000010_Node000004" class="edge">
<title>Node10&#45;&gt;Node4</title>
<g id="a_edge11_Node000010_Node000004"><a xlink:title=" ">
<path fill="none" stroke="#63b8ff" d="M713.16,-130.98C657.26,-141.93 568.17,-158.73 518.75,-167.57"/>
<polygon fill="#63b8ff" stroke="#63b8ff" points="714.06,-134.37 723.2,-129 712.71,-127.5 714.06,-134.37"/>
</a>
</g>
</g>
<!-- Node10&#45;&gt;Node5 -->
<g id="edge10_Node000010_Node000005" class="edge">
<title>Node10&#45;&gt;Node5</title>
<g id="a_edge10_Node000010_Node000005"><a xlink:title=" ">
<path fill="none" stroke="#63b8ff" d="M744.36,-102.88C735.91,-94.97 726.41,-84.77 720,-74 709.36,-56.12 703.8,-31.99 701.43,-19.24"/>
<polygon fill="#63b8ff" stroke="#63b8ff" points="742.2,-105.65 751.99,-109.71 746.87,-100.43 742.2,-105.65"/>
</a>
</g>
</g>
<!-- Node12 -->
<g id="Node000012" class="node">
<title>Node12</title>
<g id="a_Node000012"><a xlink:href="_m_q_t_t_kit_8h.html" target="_top" xlink:title=" ">
<polygon fill="white" stroke="#666666" points="448,-74 380,-74 380,-55 448,-55 448,-74"/>
<text text-anchor="middle" x="414" y="-62" font-family="Helvetica,sans-Serif" font-size="10.00">MQTTKit.h</text>
</a>
</g>
</g>
<!-- Node11&#45;&gt;Node12 -->
<g id="edge13_Node000011_Node000012" class="edge">
<title>Node11&#45;&gt;Node12</title>
<g id="a_edge13_Node000011_Node000012"><a xlink:title=" ">
<path fill="none" stroke="#63b8ff" d="M458.96,-103.32C447.73,-93.87 433.68,-82.06 424.31,-74.17"/>
<polygon fill="#63b8ff" stroke="#63b8ff" points="456.97,-106.23 466.88,-109.98 461.48,-100.87 456.97,-106.23"/>
</a>
</g>
</g>
<!-- Node14 -->
<g id="Node000014" class="node">
<title>Node14</title>
<g id="a_Node000014"><a xlink:href="_network_controller_8h.html" target="_top" xlink:title=" ">
<polygon fill="white" stroke="#666666" points="580,-74 466,-74 466,-55 580,-55 580,-74"/>
<text text-anchor="middle" x="523" y="-62" font-family="Helvetica,sans-Serif" font-size="10.00">NetworkController.h</text>
</a>
</g>
</g>
<!-- Node11&#45;&gt;Node14 -->
<g id="edge16_Node000011_Node000014" class="edge">
<title>Node11&#45;&gt;Node14</title>
<g id="a_edge16_Node000011_Node000014"><a xlink:title=" ">
<path fill="none" stroke="#63b8ff" d="M491.36,-101.96C499.37,-92.72 509.03,-81.6 515.55,-74.09"/>
<polygon fill="#63b8ff" stroke="#63b8ff" points="488.51,-99.9 484.6,-109.75 493.79,-104.49 488.51,-99.9"/>
</a>
</g>
</g>
<!-- Node12&#45;&gt;Node5 -->
<g id="edge14_Node000012_Node000005" class="edge">
<title>Node12&#45;&gt;Node5</title>
<g id="a_edge14_Node000012_Node000005"><a xlink:title=" ">
<path fill="none" stroke="#63b8ff" d="M458.09,-54.81C540.97,-39.08 626.88,-23.58 670.8,-15.71"/>
<polygon fill="#63b8ff" stroke="#63b8ff" points="457.43,-51.38 448.26,-56.68 458.74,-58.25 457.43,-51.38"/>
</a>
</g>
</g>
<!-- Node13 -->
<g id="Node000013" class="node">
<title>Node13</title>
<g id="a_Node000013"><a xlink:href="_m_q_t_t_device_8cpp.html" target="_top" xlink:title=" ">
<polygon fill="white" stroke="#666666" points="463.5,-19 364.5,-19 364.5,0 463.5,0 463.5,-19"/>
<text text-anchor="middle" x="414" y="-7" font-family="Helvetica,sans-Serif" font-size="10.00">MQTTDevice.cpp</text>
</a>
</g>
</g>
<!-- Node12&#45;&gt;Node13 -->
<g id="edge15_Node000012_Node000013" class="edge">
<title>Node12&#45;&gt;Node13</title>
<g id="a_edge15_Node000012_Node000013"><a xlink:title=" ">
<path fill="none" stroke="#63b8ff" d="M414,-44.66C414,-35.93 414,-25.99 414,-19.09"/>
<polygon fill="#63b8ff" stroke="#63b8ff" points="410.5,-44.75 414,-54.75 417.5,-44.75 410.5,-44.75"/>
</a>
</g>
</g>
<!-- Node14&#45;&gt;Node5 -->
<g id="edge17_Node000014_Node000005" class="edge">
<title>Node14&#45;&gt;Node5</title>
<g id="a_edge17_Node000014_Node000005"><a xlink:title=" ">
<path fill="none" stroke="#63b8ff" d="M561.22,-52.06C594.3,-42.15 641.41,-28.04 671.34,-19.08"/>
<polygon fill="#63b8ff" stroke="#63b8ff" points="560.01,-48.76 551.44,-54.98 562.02,-55.47 560.01,-48.76"/>
</a>
</g>
</g>
<!-- Node16 -->
<g id="Node000016" class="node">
<title>Node16</title>
<g id="a_Node000016"><a xlink:href="_uniot_8cpp.html" target="_top" xlink:title=" ">
<polygon fill="white" stroke="#666666" points="361.5,-74 298.5,-74 298.5,-55 361.5,-55 361.5,-74"/>
<text text-anchor="middle" x="330" y="-62" font-family="Helvetica,sans-Serif" font-size="10.00">Uniot.cpp</text>
</a>
</g>
</g>
<!-- Node15&#45;&gt;Node16 -->
<g id="edge19_Node000015_Node000016" class="edge">
<title>Node15&#45;&gt;Node16</title>
<g id="a_edge19_Node000015_Node000016"><a xlink:title=" ">
<path fill="none" stroke="#63b8ff" d="M361.64,-101.96C353.63,-92.72 343.97,-81.6 337.45,-74.09"/>
<polygon fill="#63b8ff" stroke="#63b8ff" points="359.21,-104.49 368.4,-109.75 364.49,-99.9 359.21,-104.49"/>
</a>
</g>
</g>
<!-- Node18 -->
<g id="Node000018" class="node">
<title>Node18</title>
<g id="a_Node000018"><a xlink:href="_gpio_register_8h.html" target="_top" xlink:title=" ">
<polygon fill="white" stroke="#666666" points="781,-349 693,-349 693,-330 781,-330 781,-349"/>
<text text-anchor="middle" x="737" y="-337" font-family="Helvetica,sans-Serif" font-size="10.00">GpioRegister.h</text>
</a>
</g>
</g>
<!-- Node17&#45;&gt;Node18 -->
<g id="edge21_Node000017_Node000018" class="edge">
<title>Node17&#45;&gt;Node18</title>
<g id="a_edge21_Node000017_Node000018"><a xlink:title=" ">
<path fill="none" stroke="#63b8ff" d="M737,-374.66C737,-365.93 737,-355.99 737,-349.09"/>
<polygon fill="#63b8ff" stroke="#63b8ff" points="733.5,-374.75 737,-384.75 740.5,-374.75 733.5,-374.75"/>
</a>
</g>
</g>
<!-- Node25 -->
<g id="Node000025" class="node">
<title>Node25</title>
<g id="a_Node000025"><a xlink:href="_object_register_8h.html" target="_top" xlink:title=" ">
<polygon fill="white" stroke="#666666" points="895.5,-349 798.5,-349 798.5,-330 895.5,-330 895.5,-349"/>
<text text-anchor="middle" x="847" y="-337" font-family="Helvetica,sans-Serif" font-size="10.00">ObjectRegister.h</text>
</a>
</g>
</g>
<!-- Node17&#45;&gt;Node25 -->
<g id="edge31_Node000017_Node000025" class="edge">
<title>Node17&#45;&gt;Node25</title>
<g id="a_edge31_Node000017_Node000025"><a xlink:title=" ">
<path fill="none" stroke="#63b8ff" d="M763.7,-380.63C783.97,-370.87 811.27,-357.71 829.01,-349.17"/>
<polygon fill="#63b8ff" stroke="#63b8ff" points="762.16,-377.49 754.67,-384.98 765.2,-383.8 762.16,-377.49"/>
</a>
</g>
</g>
<!-- Node19 -->
<g id="Node000019" class="node">
<title>Node19</title>
<g id="a_Node000019"><a xlink:href="_register_manager_8h.html" target="_top" xlink:title=" ">
<polygon fill="white" stroke="#666666" points="901,-294 793,-294 793,-275 901,-275 901,-294"/>
<text text-anchor="middle" x="847" y="-282" font-family="Helvetica,sans-Serif" font-size="10.00">RegisterManager.h</text>
</a>
</g>
</g>
<!-- Node18&#45;&gt;Node19 -->
<g id="edge22_Node000018_Node000019" class="edge">
<title>Node18&#45;&gt;Node19</title>
<g id="a_edge22_Node000018_Node000019"><a xlink:title=" ">
<path fill="none" stroke="#63b8ff" d="M763.7,-325.63C783.97,-315.87 811.27,-302.71 829.01,-294.17"/>
<polygon fill="#63b8ff" stroke="#63b8ff" points="762.16,-322.49 754.67,-329.98 765.2,-328.8 762.16,-322.49"/>
</a>
</g>
</g>
<!-- Node20 -->
<g id="Node000020" class="node">
<title>Node20</title>
<g id="a_Node000020"><a xlink:href="_register_manager_proxy_8h.html" target="_top" xlink:title=" ">
<polygon fill="white" stroke="#666666" points="926.5,-239 791.5,-239 791.5,-220 926.5,-220 926.5,-239"/>
<text text-anchor="middle" x="859" y="-227" font-family="Helvetica,sans-Serif" font-size="10.00">RegisterManagerProxy.h</text>
</a>
</g>
</g>
<!-- Node19&#45;&gt;Node20 -->
<g id="edge23_Node000019_Node000020" class="edge">
<title>Node19&#45;&gt;Node20</title>
<g id="a_edge23_Node000019_Node000020"><a xlink:title=" ">
<path fill="none" stroke="#63b8ff" d="M851.2,-264.95C853.19,-256.15 855.48,-246.06 857.06,-239.09"/>
<polygon fill="#63b8ff" stroke="#63b8ff" points="847.78,-264.22 848.98,-274.75 854.6,-265.77 847.78,-264.22"/>
</a>
</g>
</g>
<!-- Node21 -->
<g id="Node000021" class="node">
<title>Node21</title>
<g id="a_Node000021"><a xlink:href="_primitive_expeditor_8h.html" target="_top" xlink:title=" ">
<polygon fill="white" stroke="#666666" points="921,-184 805,-184 805,-165 921,-165 921,-184"/>
<text text-anchor="middle" x="863" y="-172" font-family="Helvetica,sans-Serif" font-size="10.00">PrimitiveExpeditor.h</text>
</a>
</g>
</g>
<!-- Node20&#45;&gt;Node21 -->
<g id="edge24_Node000020_Node000021" class="edge">
<title>Node20&#45;&gt;Node21</title>
<g id="a_edge24_Node000020_Node000021"><a xlink:title=" ">
<path fill="none" stroke="#63b8ff" d="M860.42,-209.66C861.08,-200.93 861.83,-190.99 862.35,-184.09"/>
<polygon fill="#63b8ff" stroke="#63b8ff" points="856.92,-209.51 859.66,-219.75 863.9,-210.04 856.92,-209.51"/>
</a>
</g>
</g>
<!-- Node22 -->
<g id="Node000022" class="node">
<title>Node22</title>
<g id="a_Node000022"><a xlink:href="_lisp_primitives_8h.html" target="_top" xlink:title=" ">
<polygon fill="white" stroke="#666666" points="823.5,-74 728.5,-74 728.5,-55 823.5,-55 823.5,-74"/>
<text text-anchor="middle" x="776" y="-62" font-family="Helvetica,sans-Serif" font-size="10.00">LispPrimitives.h</text>
</a>
</g>
</g>
<!-- Node21&#45;&gt;Node22 -->
<g id="edge25_Node000021_Node000022" class="edge">
<title>Node21&#45;&gt;Node22</title>
<g id="a_edge25_Node000021_Node000022"><a xlink:title=" ">
<path fill="none" stroke="#63b8ff" d="M860.87,-154.78C858.56,-141.25 853.78,-123.11 844,-110 831.77,-93.6 811.58,-81.5 796.37,-74.1"/>
<polygon fill="#63b8ff" stroke="#63b8ff" points="857.43,-155.44 862.29,-164.86 864.36,-154.47 857.43,-155.44"/>
</a>
</g>
</g>
<!-- Node23 -->
<g id="Node000023" class="node">
<title>Node23</title>
<g id="a_Node000023"><a xlink:href="un_lisp_8h.html" target="_top" xlink:title=" ">
<polygon fill="white" stroke="#666666" points="948.5,-129 891.5,-129 891.5,-110 948.5,-110 948.5,-129"/>
<text text-anchor="middle" x="920" y="-117" font-family="Helvetica,sans-Serif" font-size="10.00">unLisp.h</text>
</a>
</g>
</g>
<!-- Node21&#45;&gt;Node23 -->
<g id="edge27_Node000021_Node000023" class="edge">
<title>Node21&#45;&gt;Node23</title>
<g id="a_edge27_Node000021_Node000023"><a xlink:title=" ">
<path fill="none" stroke="#63b8ff" d="M879.62,-158.04C889.73,-148.64 902.28,-136.98 910.68,-129.17"/>
<polygon fill="#63b8ff" stroke="#63b8ff" points="877.1,-155.61 872.16,-164.98 881.86,-160.74 877.1,-155.61"/>
</a>
</g>
</g>
<!-- Node22&#45;&gt;Node5 -->
<g id="edge26_Node000022_Node000005" class="edge">
<title>Node22&#45;&gt;Node5</title>
<g id="a_edge26_Node000022_Node000005"><a xlink:title=" ">
<path fill="none" stroke="#63b8ff" d="M755.42,-49.15C741.69,-39.57 724.07,-27.29 712.43,-19.17"/>
<polygon fill="#63b8ff" stroke="#63b8ff" points="753.58,-52.14 763.79,-54.98 757.59,-46.39 753.58,-52.14"/>
</a>
</g>
</g>
<!-- Node23&#45;&gt;Node5 -->
<g id="edge28_Node000023_Node000005" class="edge">
<title>Node23&#45;&gt;Node5</title>
<g id="a_edge28_Node000023_Node000005"><a xlink:title=" ">
<path fill="none" stroke="#63b8ff" d="M902.36,-103.08C885.5,-88.99 858.89,-68.37 833,-55 799.03,-37.46 756.71,-24.7 729.05,-17.45"/>
<polygon fill="#63b8ff" stroke="#63b8ff" points="900.35,-105.97 910.23,-109.78 904.88,-100.64 900.35,-105.97"/>
</a>
</g>
</g>
<!-- Node24 -->
<g id="Node000024" class="node">
<title>Node24</title>
<g id="a_Node000024"><a xlink:href="_lisp_device_8h.html" target="_top" xlink:title=" ">
<polygon fill="white" stroke="#666666" points="959.5,-74 880.5,-74 880.5,-55 959.5,-55 959.5,-74"/>
<text text-anchor="middle" x="920" y="-62" font-family="Helvetica,sans-Serif" font-size="10.00">LispDevice.h</text>
</a>
</g>
</g>
<!-- Node23&#45;&gt;Node24 -->
<g id="edge29_Node000023_Node000024" class="edge">
<title>Node23&#45;&gt;Node24</title>
<g id="a_edge29_Node000023_Node000024"><a xlink:title=" ">
<path fill="none" stroke="#63b8ff" d="M920,-99.66C920,-90.93 920,-80.99 920,-74.09"/>
<polygon fill="#63b8ff" stroke="#63b8ff" points="916.5,-99.75 920,-109.75 923.5,-99.75 916.5,-99.75"/>
</a>
</g>
</g>
<!-- Node24&#45;&gt;Node5 -->
<g id="edge30_Node000024_Node000005" class="edge">
<title>Node24&#45;&gt;Node5</title>
<g id="a_edge30_Node000024_Node000005"><a xlink:title=" ">
<path fill="none" stroke="#63b8ff" d="M874.87,-52.63C831.28,-42.13 766.54,-26.53 729.28,-17.55"/>
<polygon fill="#63b8ff" stroke="#63b8ff" points="874.11,-56.05 884.65,-54.98 875.75,-49.24 874.11,-56.05"/>
</a>
</g>
</g>
<!-- Node25&#45;&gt;Node19 -->
<g id="edge32_Node000025_Node000019" class="edge">
<title>Node25&#45;&gt;Node19</title>
<g id="a_edge32_Node000025_Node000019"><a xlink:title=" ">
<path fill="none" stroke="#63b8ff" d="M847,-319.66C847,-310.93 847,-300.99 847,-294.09"/>
<polygon fill="#63b8ff" stroke="#63b8ff" points="843.5,-319.75 847,-329.75 850.5,-319.75 843.5,-319.75"/>
</a>
</g>
</g>
</g>
</svg>
