<?xml version="1.0" encoding="UTF-8" standalone="no"?>
<!DOCTYPE svg PUBLIC "-//W3C//DTD SVG 1.1//EN"
 "http://www.w3.org/Graphics/SVG/1.1/DTD/svg11.dtd">
<!-- Generated by graphviz version 2.43.0 (0)
 -->
<!-- Title: ObjectRegisterRecord.h Pages: 1 -->
<svg width="296pt" height="412pt"
 viewBox="0.00 0.00 295.50 412.00" xmlns="http://www.w3.org/2000/svg" xmlns:xlink="http://www.w3.org/1999/xlink">
<g id="graph0" class="graph" transform="scale(1 1) rotate(0) translate(4 408)">
<title>ObjectRegisterRecord.h</title>
<!-- Node1 -->
<g id="Node000001" class="node">
<title>Node1</title>
<g id="a_Node000001"><a xlink:title=" ">
<polygon fill="#999999" stroke="#666666" points="200.5,-404 69.5,-404 69.5,-385 200.5,-385 200.5,-404"/>
<text text-anchor="middle" x="135" y="-392" font-family="Helvetica,sans-Serif" font-size="10.00">ObjectRegisterRecord.h</text>
</a>
</g>
</g>
<!-- Node2 -->
<g id="Node000002" class="node">
<title>Node2</title>
<g id="a_Node000002"><a xlink:href="_button_8h.html" target="_top" xlink:title=" ">
<polygon fill="white" stroke="#666666" points="122,-184 64,-184 64,-165 122,-165 122,-184"/>
<text text-anchor="middle" x="93" y="-172" font-family="Helvetica,sans-Serif" font-size="10.00">Button.h</text>
</a>
</g>
</g>
<!-- Node1&#45;&gt;Node2 -->
<g id="edge1_Node000001_Node000002" class="edge">
<title>Node1&#45;&gt;Node2</title>
<g id="a_edge1_Node000001_Node000002"><a xlink:title=" ">
<path fill="none" stroke="#63b8ff" d="M127.58,-375.4C124.55,-367.42 121.23,-357.86 119,-349 103.36,-286.98 95.89,-209.96 93.7,-184.28"/>
<polygon fill="#63b8ff" stroke="#63b8ff" points="124.36,-376.78 131.29,-384.79 130.87,-374.21 124.36,-376.78"/>
</a>
</g>
</g>
<!-- Node6 -->
<g id="Node000006" class="node">
<title>Node6</title>
<g id="a_Node000006"><a xlink:href="_object_register_8h.html" target="_top" xlink:title=" ">
<polygon fill="white" stroke="#666666" points="224.5,-349 127.5,-349 127.5,-330 224.5,-330 224.5,-349"/>
<text text-anchor="middle" x="176" y="-337" font-family="Helvetica,sans-Serif" font-size="10.00">ObjectRegister.h</text>
</a>
</g>
</g>
<!-- Node1&#45;&gt;Node6 -->
<g id="edge6_Node000001_Node000006" class="edge">
<title>Node1&#45;&gt;Node6</title>
<g id="a_edge6_Node000001_Node000006"><a xlink:title=" ">
<path fill="none" stroke="#63b8ff" d="M148.02,-376.67C155.12,-367.5 163.6,-356.52 169.36,-349.09"/>
<polygon fill="#63b8ff" stroke="#63b8ff" points="145.12,-374.7 141.77,-384.75 150.66,-378.98 145.12,-374.7"/>
</a>
</g>
</g>
<!-- Node3 -->
<g id="Node000003" class="node">
<title>Node3</title>
<g id="a_Node000003"><a xlink:href="_lisp_primitives_8h.html" target="_top" xlink:title=" ">
<polygon fill="white" stroke="#666666" points="186.5,-129 91.5,-129 91.5,-110 186.5,-110 186.5,-129"/>
<text text-anchor="middle" x="139" y="-117" font-family="Helvetica,sans-Serif" font-size="10.00">LispPrimitives.h</text>
</a>
</g>
</g>
<!-- Node2&#45;&gt;Node3 -->
<g id="edge2_Node000002_Node000003" class="edge">
<title>Node2&#45;&gt;Node3</title>
<g id="a_edge2_Node000002_Node000003"><a xlink:title=" ">
<path fill="none" stroke="#63b8ff" d="M107.36,-156.96C115.37,-147.72 125.03,-136.6 131.55,-129.09"/>
<polygon fill="#63b8ff" stroke="#63b8ff" points="104.51,-154.9 100.6,-164.75 109.79,-159.49 104.51,-154.9"/>
</a>
</g>
</g>
<!-- Node5 -->
<g id="Node000005" class="node">
<title>Node5</title>
<g id="a_Node000005"><a xlink:href="_network_controller_8h.html" target="_top" xlink:title=" ">
<polygon fill="white" stroke="#666666" points="114,-74 0,-74 0,-55 114,-55 114,-74"/>
<text text-anchor="middle" x="57" y="-62" font-family="Helvetica,sans-Serif" font-size="10.00">NetworkController.h</text>
</a>
</g>
</g>
<!-- Node2&#45;&gt;Node5 -->
<g id="edge4_Node000002_Node000005" class="edge">
<title>Node2&#45;&gt;Node5</title>
<g id="a_edge4_Node000002_Node000005"><a xlink:title=" ">
<path fill="none" stroke="#63b8ff" d="M86.87,-155.12C79.02,-131.56 65.72,-91.66 59.89,-74.16"/>
<polygon fill="#63b8ff" stroke="#63b8ff" points="83.57,-156.28 90.05,-164.66 90.21,-154.07 83.57,-156.28"/>
</a>
</g>
</g>
<!-- Node4 -->
<g id="Node000004" class="node">
<title>Node4</title>
<g id="a_Node000004"><a xlink:href="_app_kit_8h.html" target="_top" xlink:title=" ">
<polygon fill="white" stroke="#666666" points="190,-19 132,-19 132,0 190,0 190,-19"/>
<text text-anchor="middle" x="161" y="-7" font-family="Helvetica,sans-Serif" font-size="10.00">AppKit.h</text>
</a>
</g>
</g>
<!-- Node3&#45;&gt;Node4 -->
<g id="edge3_Node000003_Node000004" class="edge">
<title>Node3&#45;&gt;Node4</title>
<g id="a_edge3_Node000003_Node000004"><a xlink:title=" ">
<path fill="none" stroke="#63b8ff" d="M142.81,-99.8C147.62,-76.2 155.69,-36.58 159.24,-19.16"/>
<polygon fill="#63b8ff" stroke="#63b8ff" points="139.37,-99.16 140.8,-109.66 146.23,-100.56 139.37,-99.16"/>
</a>
</g>
</g>
<!-- Node5&#45;&gt;Node4 -->
<g id="edge5_Node000005_Node000004" class="edge">
<title>Node5&#45;&gt;Node4</title>
<g id="a_edge5_Node000005_Node000004"><a xlink:title=" ">
<path fill="none" stroke="#63b8ff" d="M82.77,-50.37C101.87,-40.63 127.37,-27.64 143.99,-19.17"/>
<polygon fill="#63b8ff" stroke="#63b8ff" points="81.03,-47.33 73.71,-54.98 84.21,-53.56 81.03,-47.33"/>
</a>
</g>
</g>
<!-- Node7 -->
<g id="Node000007" class="node">
<title>Node7</title>
<g id="a_Node000007"><a xlink:href="_register_manager_8h.html" target="_top" xlink:title=" ">
<polygon fill="white" stroke="#666666" points="240,-294 132,-294 132,-275 240,-275 240,-294"/>
<text text-anchor="middle" x="186" y="-282" font-family="Helvetica,sans-Serif" font-size="10.00">RegisterManager.h</text>
</a>
</g>
</g>
<!-- Node6&#45;&gt;Node7 -->
<g id="edge7_Node000006_Node000007" class="edge">
<title>Node6&#45;&gt;Node7</title>
<g id="a_edge7_Node000006_Node000007"><a xlink:title=" ">
<path fill="none" stroke="#63b8ff" d="M179.55,-319.66C181.2,-310.93 183.08,-300.99 184.38,-294.09"/>
<polygon fill="#63b8ff" stroke="#63b8ff" points="176.07,-319.27 177.65,-329.75 182.94,-320.57 176.07,-319.27"/>
</a>
</g>
</g>
<!-- Node8 -->
<g id="Node000008" class="node">
<title>Node8</title>
<g id="a_Node000008"><a xlink:href="_register_manager_proxy_8h.html" target="_top" xlink:title=" ">
<polygon fill="white" stroke="#666666" points="262.5,-239 127.5,-239 127.5,-220 262.5,-220 262.5,-239"/>
<text text-anchor="middle" x="195" y="-227" font-family="Helvetica,sans-Serif" font-size="10.00">RegisterManagerProxy.h</text>
</a>
</g>
</g>
<!-- Node7&#45;&gt;Node8 -->
<g id="edge8_Node000007_Node000008" class="edge">
<title>Node7&#45;&gt;Node8</title>
<g id="a_edge8_Node000007_Node000008"><a xlink:title=" ">
<path fill="none" stroke="#63b8ff" d="M189.2,-264.66C190.68,-255.93 192.37,-245.99 193.54,-239.09"/>
<polygon fill="#63b8ff" stroke="#63b8ff" points="185.71,-264.3 187.49,-274.75 192.61,-265.48 185.71,-264.3"/>
</a>
</g>
</g>
<!-- Node9 -->
<g id="Node000009" class="node">
<title>Node9</title>
<g id="a_Node000009"><a xlink:href="_primitive_expeditor_8h.html" target="_top" xlink:title=" ">
<polygon fill="white" stroke="#666666" points="256,-184 140,-184 140,-165 256,-165 256,-184"/>
<text text-anchor="middle" x="198" y="-172" font-family="Helvetica,sans-Serif" font-size="10.00">PrimitiveExpeditor.h</text>
</a>
</g>
</g>
<!-- Node8&#45;&gt;Node9 -->
<g id="edge9_Node000008_Node000009" class="edge">
<title>Node8&#45;&gt;Node9</title>
<g id="a_edge9_Node000008_Node000009"><a xlink:title=" ">
<path fill="none" stroke="#63b8ff" d="M196.07,-209.66C196.56,-200.93 197.12,-190.99 197.51,-184.09"/>
<polygon fill="#63b8ff" stroke="#63b8ff" points="192.57,-209.57 195.5,-219.75 199.56,-209.96 192.57,-209.57"/>
</a>
</g>
</g>
<!-- Node9&#45;&gt;Node3 -->
<g id="edge10_Node000009_Node000003" class="edge">
<title>Node9&#45;&gt;Node3</title>
<g id="a_edge10_Node000009_Node000003"><a xlink:title=" ">
<path fill="none" stroke="#63b8ff" d="M180.8,-158.04C170.33,-148.64 157.35,-136.98 148.65,-129.17"/>
<polygon fill="#63b8ff" stroke="#63b8ff" points="178.74,-160.91 188.52,-164.98 183.42,-155.7 178.74,-160.91"/>
</a>
</g>
</g>
<!-- Node10 -->
<g id="Node000010" class="node">
<title>Node10</title>
<g id="a_Node000010"><a xlink:href="un_lisp_8h.html" target="_top" xlink:title=" ">
<polygon fill="white" stroke="#666666" points="261.5,-129 204.5,-129 204.5,-110 261.5,-110 261.5,-129"/>
<text text-anchor="middle" x="233" y="-117" font-family="Helvetica,sans-Serif" font-size="10.00">unLisp.h</text>
</a>
</g>
</g>
<!-- Node9&#45;&gt;Node10 -->
<g id="edge11_Node000009_Node000010" class="edge">
<title>Node9&#45;&gt;Node10</title>
<g id="a_edge11_Node000009_Node000010"><a xlink:title=" ">
<path fill="none" stroke="#63b8ff" d="M209.3,-156.39C215.32,-147.27 222.47,-136.45 227.33,-129.09"/>
<polygon fill="#63b8ff" stroke="#63b8ff" points="206.37,-154.47 203.78,-164.75 212.21,-158.33 206.37,-154.47"/>
</a>
</g>
</g>
<!-- Node10&#45;&gt;Node4 -->
<g id="edge12_Node000010_Node000004" class="edge">
<title>Node10&#45;&gt;Node4</title>
<g id="a_edge12_Node000010_Node000004"><a xlink:title=" ">
<path fill="none" stroke="#63b8ff" d="M220.03,-101.74C213.8,-93.51 206.33,-83.36 200,-74 187.1,-54.92 173.29,-31.67 166.06,-19.28"/>
<polygon fill="#63b8ff" stroke="#63b8ff" points="217.34,-103.98 226.19,-109.8 222.9,-99.73 217.34,-103.98"/>
</a>
</g>
</g>
<!-- Node11 -->
<g id="Node000011" class="node">
<title>Node11</title>
<g id="a_Node000011"><a xlink:href="_lisp_device_8h.html" target="_top" xlink:title=" ">
<polygon fill="white" stroke="#666666" points="287.5,-74 208.5,-74 208.5,-55 287.5,-55 287.5,-74"/>
<text text-anchor="middle" x="248" y="-62" font-family="Helvetica,sans-Serif" font-size="10.00">LispDevice.h</text>
</a>
</g>
</g>
<!-- Node10&#45;&gt;Node11 -->
<g id="edge13_Node000010_Node000011" class="edge">
<title>Node10&#45;&gt;Node11</title>
<g id="a_edge13_Node000010_Node000011"><a xlink:title=" ">
<path fill="none" stroke="#63b8ff" d="M238.25,-99.95C240.74,-91.15 243.6,-81.06 245.57,-74.09"/>
<polygon fill="#63b8ff" stroke="#63b8ff" points="234.83,-99.17 235.48,-109.75 241.57,-101.08 234.83,-99.17"/>
</a>
</g>
</g>
<!-- Node11&#45;&gt;Node4 -->
<g id="edge14_Node000011_Node000004" class="edge">
<title>Node11&#45;&gt;Node4</title>
<g id="a_edge14_Node000011_Node000004"><a xlink:title=" ">
<path fill="none" stroke="#63b8ff" d="M225.34,-49.7C209.49,-40.04 188.81,-27.44 175.23,-19.17"/>
<polygon fill="#63b8ff" stroke="#63b8ff" points="223.66,-52.77 234.02,-54.98 227.3,-46.79 223.66,-52.77"/>
</a>
</g>
</g>
</g>
</svg>
