<?xml version="1.0" encoding="UTF-8" standalone="no"?>
<!DOCTYPE svg PUBLIC "-//W3C//DTD SVG 1.1//EN"
 "http://www.w3.org/Graphics/SVG/1.1/DTD/svg11.dtd">
<!-- Generated by graphviz version 2.43.0 (0)
 -->
<!-- Title: SimpleNTP.h Pages: 1 -->
<svg width="372pt" height="192pt"
 viewBox="0.00 0.00 372.44 192.00" xmlns="http://www.w3.org/2000/svg" xmlns:xlink="http://www.w3.org/1999/xlink">
<g id="graph0" class="graph" transform="scale(1 1) rotate(0) translate(4 188)">
<title>SimpleNTP.h</title>
<!-- Node1 -->
<g id="Node000001" class="node">
<title>Node1</title>
<g id="a_Node000001"><a xlink:title=" ">
<polygon fill="#999999" stroke="#666666" points="188.44,-184 111.44,-184 111.44,-165 188.44,-165 188.44,-184"/>
<text text-anchor="middle" x="149.94" y="-172" font-family="Helvetica,sans-Serif" font-size="10.00">SimpleNTP.h</text>
</a>
</g>
</g>
<!-- Node2 -->
<g id="Node000002" class="node">
<title>Node2</title>
<g id="a_Node000002"><a xlink:href="_date_8h.html" target="_top" xlink:title=" ">
<polygon fill="white" stroke="#666666" points="174.44,-129 125.44,-129 125.44,-110 174.44,-110 174.44,-129"/>
<text text-anchor="middle" x="149.94" y="-117" font-family="Helvetica,sans-Serif" font-size="10.00">Date.h</text>
</a>
</g>
</g>
<!-- Node1&#45;&gt;Node2 -->
<g id="edge1_Node000001_Node000002" class="edge">
<title>Node1&#45;&gt;Node2</title>
<g id="a_edge1_Node000001_Node000002"><a xlink:title=" ">
<path fill="none" stroke="#63b8ff" d="M149.94,-154.66C149.94,-145.93 149.94,-135.99 149.94,-129.09"/>
<polygon fill="#63b8ff" stroke="#63b8ff" points="146.44,-154.75 149.94,-164.75 153.44,-154.75 146.44,-154.75"/>
</a>
</g>
</g>
<!-- Node3 -->
<g id="Node000003" class="node">
<title>Node3</title>
<g id="a_Node000003"><a xlink:href="_app_kit_8h.html" target="_top" xlink:title=" ">
<polygon fill="white" stroke="#666666" points="126.94,-19 68.94,-19 68.94,0 126.94,0 126.94,-19"/>
<text text-anchor="middle" x="97.94" y="-7" font-family="Helvetica,sans-Serif" font-size="10.00">AppKit.h</text>
</a>
</g>
</g>
<!-- Node2&#45;&gt;Node3 -->
<g id="edge2_Node000002_Node000003" class="edge">
<title>Node2&#45;&gt;Node3</title>
<g id="a_edge2_Node000002_Node000003"><a xlink:title=" ">
<path fill="none" stroke="#63b8ff" d="M115.18,-118.74C80.91,-116.89 30.12,-108.06 4.94,-74 -15.22,-46.72 34.67,-27.25 68.91,-17.54"/>
<polygon fill="#63b8ff" stroke="#63b8ff" points="115.12,-122.24 125.24,-119.12 115.38,-115.25 115.12,-122.24"/>
</a>
</g>
</g>
<!-- Node4 -->
<g id="Node000004" class="node">
<title>Node4</title>
<g id="a_Node000004"><a xlink:href="_lisp_device_8h.html" target="_top" xlink:title=" ">
<polygon fill="white" stroke="#666666" points="93.44,-74 14.44,-74 14.44,-55 93.44,-55 93.44,-74"/>
<text text-anchor="middle" x="53.94" y="-62" font-family="Helvetica,sans-Serif" font-size="10.00">LispDevice.h</text>
</a>
</g>
</g>
<!-- Node2&#45;&gt;Node4 -->
<g id="edge3_Node000002_Node000004" class="edge">
<title>Node2&#45;&gt;Node4</title>
<g id="a_edge3_Node000002_Node000004"><a xlink:title=" ">
<path fill="none" stroke="#63b8ff" d="M125.43,-104.97C107.88,-95.28 84.77,-82.52 69.65,-74.17"/>
<polygon fill="#63b8ff" stroke="#63b8ff" points="124.07,-108.22 134.52,-109.98 127.46,-102.09 124.07,-108.22"/>
</a>
</g>
</g>
<!-- Node5 -->
<g id="Node000005" class="node">
<title>Node5</title>
<g id="a_Node000005"><a xlink:href="_m_q_t_t_kit_8h.html" target="_top" xlink:title=" ">
<polygon fill="white" stroke="#666666" points="273.94,-74 205.94,-74 205.94,-55 273.94,-55 273.94,-74"/>
<text text-anchor="middle" x="239.94" y="-62" font-family="Helvetica,sans-Serif" font-size="10.00">MQTTKit.h</text>
</a>
</g>
</g>
<!-- Node2&#45;&gt;Node5 -->
<g id="edge5_Node000002_Node000005" class="edge">
<title>Node2&#45;&gt;Node5</title>
<g id="a_edge5_Node000002_Node000005"><a xlink:title=" ">
<path fill="none" stroke="#63b8ff" d="M173.38,-104.7C189.78,-95.04 211.17,-82.44 225.22,-74.17"/>
<polygon fill="#63b8ff" stroke="#63b8ff" points="171.24,-101.89 164.4,-109.98 174.8,-107.93 171.24,-101.89"/>
</a>
</g>
</g>
<!-- Node7 -->
<g id="Node000007" class="node">
<title>Node7</title>
<g id="a_Node000007"><a xlink:href="_top_device_8h.html" target="_top" xlink:title=" ">
<polygon fill="white" stroke="#666666" points="187.94,-74 111.94,-74 111.94,-55 187.94,-55 187.94,-74"/>
<text text-anchor="middle" x="149.94" y="-62" font-family="Helvetica,sans-Serif" font-size="10.00">TopDevice.h</text>
</a>
</g>
</g>
<!-- Node2&#45;&gt;Node7 -->
<g id="edge8_Node000002_Node000007" class="edge">
<title>Node2&#45;&gt;Node7</title>
<g id="a_edge8_Node000002_Node000007"><a xlink:title=" ">
<path fill="none" stroke="#63b8ff" d="M149.94,-99.66C149.94,-90.93 149.94,-80.99 149.94,-74.09"/>
<polygon fill="#63b8ff" stroke="#63b8ff" points="146.44,-99.75 149.94,-109.75 153.44,-99.75 146.44,-99.75"/>
</a>
</g>
</g>
<!-- Node8 -->
<g id="Node000008" class="node">
<title>Node8</title>
<g id="a_Node000008"><a xlink:href="_uniot_8h.html" target="_top" xlink:title=" ">
<polygon fill="white" stroke="#666666" points="353.94,-74 301.94,-74 301.94,-55 353.94,-55 353.94,-74"/>
<text text-anchor="middle" x="327.94" y="-62" font-family="Helvetica,sans-Serif" font-size="10.00">Uniot.h</text>
</a>
</g>
</g>
<!-- Node2&#45;&gt;Node8 -->
<g id="edge10_Node000002_Node000008" class="edge">
<title>Node2&#45;&gt;Node8</title>
<g id="a_edge10_Node000002_Node000008"><a xlink:title=" ">
<path fill="none" stroke="#63b8ff" d="M184.3,-108.27C218.59,-98.06 270.54,-82.59 301.67,-73.32"/>
<polygon fill="#63b8ff" stroke="#63b8ff" points="183.28,-104.92 174.69,-111.13 185.28,-111.63 183.28,-104.92"/>
</a>
</g>
</g>
<!-- Node4&#45;&gt;Node3 -->
<g id="edge4_Node000004_Node000003" class="edge">
<title>Node4&#45;&gt;Node3</title>
<g id="a_edge4_Node000004_Node000003"><a xlink:title=" ">
<path fill="none" stroke="#63b8ff" d="M67.68,-46.96C75.34,-37.72 84.58,-26.6 90.81,-19.09"/>
<polygon fill="#63b8ff" stroke="#63b8ff" points="64.9,-44.82 61.21,-54.75 70.29,-49.29 64.9,-44.82"/>
</a>
</g>
</g>
<!-- Node5&#45;&gt;Node3 -->
<g id="edge6_Node000005_Node000003" class="edge">
<title>Node5&#45;&gt;Node3</title>
<g id="a_edge6_Node000005_Node000003"><a xlink:title=" ">
<path fill="none" stroke="#63b8ff" d="M207.58,-51.42C181.24,-41.59 144.69,-27.95 121.17,-19.17"/>
<polygon fill="#63b8ff" stroke="#63b8ff" points="206.54,-54.77 217.13,-54.98 208.98,-48.21 206.54,-54.77"/>
</a>
</g>
</g>
<!-- Node6 -->
<g id="Node000006" class="node">
<title>Node6</title>
<g id="a_Node000006"><a xlink:href="_m_q_t_t_device_8cpp.html" target="_top" xlink:title=" ">
<polygon fill="white" stroke="#666666" points="283.44,-19 184.44,-19 184.44,0 283.44,0 283.44,-19"/>
<text text-anchor="middle" x="233.94" y="-7" font-family="Helvetica,sans-Serif" font-size="10.00">MQTTDevice.cpp</text>
</a>
</g>
</g>
<!-- Node5&#45;&gt;Node6 -->
<g id="edge7_Node000005_Node000006" class="edge">
<title>Node5&#45;&gt;Node6</title>
<g id="a_edge7_Node000005_Node000006"><a xlink:title=" ">
<path fill="none" stroke="#63b8ff" d="M237.81,-44.66C236.82,-35.93 235.7,-25.99 234.92,-19.09"/>
<polygon fill="#63b8ff" stroke="#63b8ff" points="234.35,-45.21 238.95,-54.75 241.31,-44.42 234.35,-45.21"/>
</a>
</g>
</g>
<!-- Node7&#45;&gt;Node3 -->
<g id="edge9_Node000007_Node000003" class="edge">
<title>Node7&#45;&gt;Node3</title>
<g id="a_edge9_Node000007_Node000003"><a xlink:title=" ">
<path fill="none" stroke="#63b8ff" d="M134.26,-47.52C125.1,-38.18 113.89,-26.75 106.37,-19.09"/>
<polygon fill="#63b8ff" stroke="#63b8ff" points="131.85,-50.06 141.36,-54.75 136.85,-45.16 131.85,-50.06"/>
</a>
</g>
</g>
<!-- Node9 -->
<g id="Node000009" class="node">
<title>Node9</title>
<g id="a_Node000009"><a xlink:href="_uniot_8cpp.html" target="_top" xlink:title=" ">
<polygon fill="white" stroke="#666666" points="364.44,-19 301.44,-19 301.44,0 364.44,0 364.44,-19"/>
<text text-anchor="middle" x="332.94" y="-7" font-family="Helvetica,sans-Serif" font-size="10.00">Uniot.cpp</text>
</a>
</g>
</g>
<!-- Node8&#45;&gt;Node9 -->
<g id="edge11_Node000008_Node000009" class="edge">
<title>Node8&#45;&gt;Node9</title>
<g id="a_edge11_Node000008_Node000009"><a xlink:title=" ">
<path fill="none" stroke="#63b8ff" d="M329.72,-44.66C330.54,-35.93 331.48,-25.99 332.13,-19.09"/>
<polygon fill="#63b8ff" stroke="#63b8ff" points="326.22,-44.46 328.77,-54.75 333.19,-45.12 326.22,-44.46"/>
</a>
</g>
</g>
</g>
</svg>
