<?xml version="1.0" encoding="UTF-8" standalone="no"?>
<!DOCTYPE svg PUBLIC "-//W3C//DTD SVG 1.1//EN"
 "http://www.w3.org/Graphics/SVG/1.1/DTD/svg11.dtd">
<!-- Generated by graphviz version 2.43.0 (0)
 -->
<!-- Title: Storage.h Pages: 1 -->
<svg width="648pt" height="302pt"
 viewBox="0.00 0.00 648.00 302.00" xmlns="http://www.w3.org/2000/svg" xmlns:xlink="http://www.w3.org/1999/xlink">
<g id="graph0" class="graph" transform="scale(1 1) rotate(0) translate(4 298)">
<title>Storage.h</title>
<!-- Node1 -->
<g id="Node000001" class="node">
<title>Node1</title>
<g id="a_Node000001"><a xlink:title=" ">
<polygon fill="#999999" stroke="#666666" points="569.5,-294 506.5,-294 506.5,-275 569.5,-275 569.5,-294"/>
<text text-anchor="middle" x="538" y="-282" font-family="Helvetica,sans-Serif" font-size="10.00">Storage.h</text>
</a>
</g>
</g>
<!-- Node2 -->
<g id="Node000002" class="node">
<title>Node2</title>
<g id="a_Node000002"><a xlink:href="_c_b_o_r_storage_8h.html" target="_top" xlink:title=" ">
<polygon fill="white" stroke="#666666" points="299.5,-239 208.5,-239 208.5,-220 299.5,-220 299.5,-239"/>
<text text-anchor="middle" x="254" y="-227" font-family="Helvetica,sans-Serif" font-size="10.00">CBORStorage.h</text>
</a>
</g>
</g>
<!-- Node1&#45;&gt;Node2 -->
<g id="edge1_Node000001_Node000002" class="edge">
<title>Node1&#45;&gt;Node2</title>
<g id="a_edge1_Node000001_Node000002"><a xlink:title=" ">
<path fill="none" stroke="#63b8ff" d="M496.26,-275.71C443.73,-265.91 353.83,-249.13 299.56,-239"/>
<polygon fill="#63b8ff" stroke="#63b8ff" points="495.78,-279.18 506.25,-277.57 497.06,-272.3 495.78,-279.18"/>
</a>
</g>
</g>
<!-- Node16 -->
<g id="Node000016" class="node">
<title>Node16</title>
<g id="a_Node000016"><a xlink:href="_crash_storage_8h.html" target="_top" xlink:title=" ">
<polygon fill="white" stroke="#666666" points="609.5,-74 518.5,-74 518.5,-55 609.5,-55 609.5,-74"/>
<text text-anchor="middle" x="564" y="-62" font-family="Helvetica,sans-Serif" font-size="10.00">CrashStorage.h</text>
</a>
</g>
</g>
<!-- Node1&#45;&gt;Node16 -->
<g id="edge25_Node000001_Node000016" class="edge">
<title>Node1&#45;&gt;Node16</title>
<g id="a_edge25_Node000001_Node000016"><a xlink:title=" ">
<path fill="none" stroke="#63b8ff" d="M540.22,-264.85C545.59,-219.82 559.11,-106.53 562.96,-74.22"/>
<polygon fill="#63b8ff" stroke="#63b8ff" points="536.73,-264.61 539.02,-274.95 543.68,-265.44 536.73,-264.61"/>
</a>
</g>
</g>
<!-- Node18 -->
<g id="Node000018" class="node">
<title>Node18</title>
<g id="a_Node000018"><a xlink:href="_storage_8cpp.html" target="_top" xlink:title=" ">
<polygon fill="white" stroke="#666666" points="640,-239 566,-239 566,-220 640,-220 640,-239"/>
<text text-anchor="middle" x="603" y="-227" font-family="Helvetica,sans-Serif" font-size="10.00">Storage.cpp</text>
</a>
</g>
</g>
<!-- Node1&#45;&gt;Node18 -->
<g id="edge29_Node000001_Node000018" class="edge">
<title>Node1&#45;&gt;Node18</title>
<g id="a_edge29_Node000001_Node000018"><a xlink:title=" ">
<path fill="none" stroke="#63b8ff" d="M556.27,-268.6C567.92,-259.11 582.6,-247.13 592.37,-239.17"/>
<polygon fill="#63b8ff" stroke="#63b8ff" points="553.98,-265.95 548.44,-274.98 558.41,-271.38 553.98,-265.95"/>
</a>
</g>
</g>
<!-- Node3 -->
<g id="Node000003" class="node">
<title>Node3</title>
<g id="a_Node000003"><a xlink:href="_credentials_8h.html" target="_top" xlink:title=" ">
<polygon fill="white" stroke="#666666" points="426.5,-184 345.5,-184 345.5,-165 426.5,-165 426.5,-184"/>
<text text-anchor="middle" x="386" y="-172" font-family="Helvetica,sans-Serif" font-size="10.00">Credentials.h</text>
</a>
</g>
</g>
<!-- Node2&#45;&gt;Node3 -->
<g id="edge2_Node000002_Node000003" class="edge">
<title>Node2&#45;&gt;Node3</title>
<g id="a_edge2_Node000002_Node000003"><a xlink:title=" ">
<path fill="none" stroke="#63b8ff" d="M284.73,-216.16C309.17,-206.35 342.74,-192.87 364.41,-184.17"/>
<polygon fill="#63b8ff" stroke="#63b8ff" points="283.18,-213.01 275.21,-219.98 285.79,-219.51 283.18,-213.01"/>
</a>
</g>
</g>
<!-- Node9 -->
<g id="Node000009" class="node">
<title>Node9</title>
<g id="a_Node000009"><a xlink:href="_network_controller_8h.html" target="_top" xlink:title=" ">
<polygon fill="white" stroke="#666666" points="114,-74 0,-74 0,-55 114,-55 114,-74"/>
<text text-anchor="middle" x="57" y="-62" font-family="Helvetica,sans-Serif" font-size="10.00">NetworkController.h</text>
</a>
</g>
</g>
<!-- Node2&#45;&gt;Node9 -->
<g id="edge22_Node000002_Node000009" class="edge">
<title>Node2&#45;&gt;Node9</title>
<g id="a_edge22_Node000002_Node000009"><a xlink:title=" ">
<path fill="none" stroke="#63b8ff" d="M218.37,-216.26C199.35,-208.71 176.19,-197.81 158,-184 114.08,-150.65 76.02,-95.2 62.37,-74.05"/>
<polygon fill="#63b8ff" stroke="#63b8ff" points="217.3,-219.59 227.89,-219.9 219.8,-213.05 217.3,-219.59"/>
</a>
</g>
</g>
<!-- Node12 -->
<g id="Node000012" class="node">
<title>Node12</title>
<g id="a_Node000012"><a xlink:href="_date_8h.html" target="_top" xlink:title=" ">
<polygon fill="white" stroke="#666666" points="343.5,-129 294.5,-129 294.5,-110 343.5,-110 343.5,-129"/>
<text text-anchor="middle" x="319" y="-117" font-family="Helvetica,sans-Serif" font-size="10.00">Date.h</text>
</a>
</g>
</g>
<!-- Node2&#45;&gt;Node12 -->
<g id="edge13_Node000002_Node000012" class="edge">
<title>Node2&#45;&gt;Node12</title>
<g id="a_edge13_Node000002_Node000012"><a xlink:title=" ">
<path fill="none" stroke="#63b8ff" d="M264.49,-211.07C278.59,-187.64 303.12,-146.89 313.79,-129.16"/>
<polygon fill="#63b8ff" stroke="#63b8ff" points="261.48,-209.29 259.32,-219.66 267.47,-212.9 261.48,-209.29"/>
</a>
</g>
</g>
<!-- Node13 -->
<g id="Node000013" class="node">
<title>Node13</title>
<g id="a_Node000013"><a xlink:href="_lisp_device_8h.html" target="_top" xlink:title=" ">
<polygon fill="white" stroke="#666666" points="211.5,-74 132.5,-74 132.5,-55 211.5,-55 211.5,-74"/>
<text text-anchor="middle" x="172" y="-62" font-family="Helvetica,sans-Serif" font-size="10.00">LispDevice.h</text>
</a>
</g>
</g>
<!-- Node2&#45;&gt;Node13 -->
<g id="edge21_Node000002_Node000013" class="edge">
<title>Node2&#45;&gt;Node13</title>
<g id="a_edge21_Node000002_Node000013"><a xlink:title=" ">
<path fill="none" stroke="#63b8ff" d="M222.06,-215.73C206.81,-208.33 189.27,-197.73 177,-184 153.97,-158.21 146.07,-143.87 153,-110 155.69,-96.83 162.44,-82.74 167.12,-74.02"/>
<polygon fill="#63b8ff" stroke="#63b8ff" points="220.64,-218.93 231.19,-219.92 223.56,-212.57 220.64,-218.93"/>
</a>
</g>
</g>
<!-- Node15 -->
<g id="Node000015" class="node">
<title>Node15</title>
<g id="a_Node000015"><a xlink:href="_wifi_storage_8h.html" target="_top" xlink:title=" ">
<polygon fill="white" stroke="#666666" points="268,-184 186,-184 186,-165 268,-165 268,-184"/>
<text text-anchor="middle" x="227" y="-172" font-family="Helvetica,sans-Serif" font-size="10.00">WifiStorage.h</text>
</a>
</g>
</g>
<!-- Node2&#45;&gt;Node15 -->
<g id="edge23_Node000002_Node000015" class="edge">
<title>Node2&#45;&gt;Node15</title>
<g id="a_edge23_Node000002_Node000015"><a xlink:title=" ">
<path fill="none" stroke="#63b8ff" d="M244.99,-210.82C240.41,-201.82 235.05,-191.29 231.38,-184.09"/>
<polygon fill="#63b8ff" stroke="#63b8ff" points="241.88,-212.43 249.54,-219.75 248.12,-209.25 241.88,-212.43"/>
</a>
</g>
</g>
<!-- Node4 -->
<g id="Node000004" class="node">
<title>Node4</title>
<g id="a_Node000004"><a xlink:href="_m_q_t_t_path_8h.html" target="_top" xlink:title=" ">
<polygon fill="white" stroke="#666666" points="436.5,-129 361.5,-129 361.5,-110 436.5,-110 436.5,-129"/>
<text text-anchor="middle" x="399" y="-117" font-family="Helvetica,sans-Serif" font-size="10.00">MQTTPath.h</text>
</a>
</g>
</g>
<!-- Node3&#45;&gt;Node4 -->
<g id="edge3_Node000003_Node000004" class="edge">
<title>Node3&#45;&gt;Node4</title>
<g id="a_edge3_Node000003_Node000004"><a xlink:title=" ">
<path fill="none" stroke="#63b8ff" d="M390.55,-154.95C392.71,-146.15 395.18,-136.06 396.89,-129.09"/>
<polygon fill="#63b8ff" stroke="#63b8ff" points="387.13,-154.2 388.15,-164.75 393.93,-155.87 387.13,-154.2"/>
</a>
</g>
</g>
<!-- Node8 -->
<g id="Node000008" class="node">
<title>Node8</title>
<g id="a_Node000008"><a xlink:href="_network_scheduler_8h.html" target="_top" xlink:title=" ">
<polygon fill="white" stroke="#666666" points="276,-129 162,-129 162,-110 276,-110 276,-129"/>
<text text-anchor="middle" x="219" y="-117" font-family="Helvetica,sans-Serif" font-size="10.00">NetworkScheduler.h</text>
</a>
</g>
</g>
<!-- Node3&#45;&gt;Node8 -->
<g id="edge7_Node000003_Node000008" class="edge">
<title>Node3&#45;&gt;Node8</title>
<g id="a_edge7_Node000003_Node000008"><a xlink:title=" ">
<path fill="none" stroke="#63b8ff" d="M349.54,-161.93C318.34,-152.03 274.16,-138.01 246.04,-129.08"/>
<polygon fill="#63b8ff" stroke="#63b8ff" points="348.58,-165.3 359.17,-164.98 350.7,-158.62 348.58,-165.3"/>
</a>
</g>
</g>
<!-- Node10 -->
<g id="Node000010" class="node">
<title>Node10</title>
<g id="a_Node000010"><a xlink:href="_uniot_8h.html" target="_top" xlink:title=" ">
<polygon fill="white" stroke="#666666" points="500,-74 448,-74 448,-55 500,-55 500,-74"/>
<text text-anchor="middle" x="474" y="-62" font-family="Helvetica,sans-Serif" font-size="10.00">Uniot.h</text>
</a>
</g>
</g>
<!-- Node3&#45;&gt;Node10 -->
<g id="edge11_Node000003_Node000010" class="edge">
<title>Node3&#45;&gt;Node10</title>
<g id="a_edge11_Node000003_Node000010"><a xlink:title=" ">
<path fill="none" stroke="#63b8ff" d="M410.49,-159.53C422.42,-151.76 436.26,-141.19 446,-129 459.69,-111.87 468.06,-87 471.76,-74.06"/>
<polygon fill="#63b8ff" stroke="#63b8ff" points="408.48,-156.65 401.83,-164.9 412.17,-162.6 408.48,-156.65"/>
</a>
</g>
</g>
<!-- Node5 -->
<g id="Node000005" class="node">
<title>Node5</title>
<g id="a_Node000005"><a xlink:href="_m_q_t_t_kit_8h.html" target="_top" xlink:title=" ">
<polygon fill="white" stroke="#666666" points="430,-74 362,-74 362,-55 430,-55 430,-74"/>
<text text-anchor="middle" x="396" y="-62" font-family="Helvetica,sans-Serif" font-size="10.00">MQTTKit.h</text>
</a>
</g>
</g>
<!-- Node4&#45;&gt;Node5 -->
<g id="edge4_Node000004_Node000005" class="edge">
<title>Node4&#45;&gt;Node5</title>
<g id="a_edge4_Node000004_Node000005"><a xlink:title=" ">
<path fill="none" stroke="#63b8ff" d="M397.93,-99.66C397.44,-90.93 396.88,-80.99 396.49,-74.09"/>
<polygon fill="#63b8ff" stroke="#63b8ff" points="394.44,-99.96 398.5,-109.75 401.43,-99.57 394.44,-99.96"/>
</a>
</g>
</g>
<!-- Node6 -->
<g id="Node000006" class="node">
<title>Node6</title>
<g id="a_Node000006"><a xlink:href="_app_kit_8h.html" target="_top" xlink:title=" ">
<polygon fill="white" stroke="#666666" points="298,-19 240,-19 240,0 298,0 298,-19"/>
<text text-anchor="middle" x="269" y="-7" font-family="Helvetica,sans-Serif" font-size="10.00">AppKit.h</text>
</a>
</g>
</g>
<!-- Node5&#45;&gt;Node6 -->
<g id="edge5_Node000005_Node000006" class="edge">
<title>Node5&#45;&gt;Node6</title>
<g id="a_edge5_Node000005_Node000006"><a xlink:title=" ">
<path fill="none" stroke="#63b8ff" d="M366.12,-51.03C342.63,-41.23 310.53,-27.83 289.78,-19.17"/>
<polygon fill="#63b8ff" stroke="#63b8ff" points="365.02,-54.36 375.6,-54.98 367.71,-47.9 365.02,-54.36"/>
</a>
</g>
</g>
<!-- Node7 -->
<g id="Node000007" class="node">
<title>Node7</title>
<g id="a_Node000007"><a xlink:href="_m_q_t_t_device_8cpp.html" target="_top" xlink:title=" ">
<polygon fill="white" stroke="#666666" points="434.5,-19 335.5,-19 335.5,0 434.5,0 434.5,-19"/>
<text text-anchor="middle" x="385" y="-7" font-family="Helvetica,sans-Serif" font-size="10.00">MQTTDevice.cpp</text>
</a>
</g>
</g>
<!-- Node5&#45;&gt;Node7 -->
<g id="edge6_Node000005_Node000007" class="edge">
<title>Node5&#45;&gt;Node7</title>
<g id="a_edge6_Node000005_Node000007"><a xlink:title=" ">
<path fill="none" stroke="#63b8ff" d="M392.15,-44.95C390.32,-36.15 388.23,-26.06 386.78,-19.09"/>
<polygon fill="#63b8ff" stroke="#63b8ff" points="388.72,-45.67 394.18,-54.75 395.58,-44.25 388.72,-45.67"/>
</a>
</g>
</g>
<!-- Node8&#45;&gt;Node5 -->
<g id="edge8_Node000008_Node000005" class="edge">
<title>Node8&#45;&gt;Node5</title>
<g id="a_edge8_Node000008_Node000005"><a xlink:title=" ">
<path fill="none" stroke="#63b8ff" d="M257.22,-107.06C290.3,-97.15 337.41,-83.04 367.34,-74.08"/>
<polygon fill="#63b8ff" stroke="#63b8ff" points="256.01,-103.76 247.44,-109.98 258.02,-110.47 256.01,-103.76"/>
</a>
</g>
</g>
<!-- Node8&#45;&gt;Node9 -->
<g id="edge9_Node000008_Node000009" class="edge">
<title>Node8&#45;&gt;Node9</title>
<g id="a_edge9_Node000008_Node000009"><a xlink:title=" ">
<path fill="none" stroke="#63b8ff" d="M183.23,-106.8C153,-96.91 110.39,-82.97 83.23,-74.08"/>
<polygon fill="#63b8ff" stroke="#63b8ff" points="182.38,-110.2 192.97,-109.98 184.56,-103.55 182.38,-110.2"/>
</a>
</g>
</g>
<!-- Node9&#45;&gt;Node6 -->
<g id="edge10_Node000009_Node000006" class="edge">
<title>Node9&#45;&gt;Node6</title>
<g id="a_edge10_Node000009_Node000006"><a xlink:title=" ">
<path fill="none" stroke="#63b8ff" d="M100.93,-52.52C142.55,-42.11 203.88,-26.78 239.8,-17.8"/>
<polygon fill="#63b8ff" stroke="#63b8ff" points="99.91,-49.16 91.06,-54.98 101.61,-55.95 99.91,-49.16"/>
</a>
</g>
</g>
<!-- Node11 -->
<g id="Node000011" class="node">
<title>Node11</title>
<g id="a_Node000011"><a xlink:href="_uniot_8cpp.html" target="_top" xlink:title=" ">
<polygon fill="white" stroke="#666666" points="515.5,-19 452.5,-19 452.5,0 515.5,0 515.5,-19"/>
<text text-anchor="middle" x="484" y="-7" font-family="Helvetica,sans-Serif" font-size="10.00">Uniot.cpp</text>
</a>
</g>
</g>
<!-- Node10&#45;&gt;Node11 -->
<g id="edge12_Node000010_Node000011" class="edge">
<title>Node10&#45;&gt;Node11</title>
<g id="a_edge12_Node000010_Node000011"><a xlink:title=" ">
<path fill="none" stroke="#63b8ff" d="M477.55,-44.66C479.2,-35.93 481.08,-25.99 482.38,-19.09"/>
<polygon fill="#63b8ff" stroke="#63b8ff" points="474.07,-44.27 475.65,-54.75 480.94,-45.57 474.07,-44.27"/>
</a>
</g>
</g>
<!-- Node12&#45;&gt;Node5 -->
<g id="edge17_Node000012_Node000005" class="edge">
<title>Node12&#45;&gt;Node5</title>
<g id="a_edge17_Node000012_Node000005"><a xlink:title=" ">
<path fill="none" stroke="#63b8ff" d="M339.85,-104.15C353.76,-94.57 371.61,-82.29 383.4,-74.17"/>
<polygon fill="#63b8ff" stroke="#63b8ff" points="337.62,-101.43 331.37,-109.98 341.59,-107.2 337.62,-101.43"/>
</a>
</g>
</g>
<!-- Node12&#45;&gt;Node6 -->
<g id="edge14_Node000012_Node000006" class="edge">
<title>Node12&#45;&gt;Node6</title>
<g id="a_edge14_Node000012_Node000006"><a xlink:title=" ">
<path fill="none" stroke="#63b8ff" d="M290.47,-104.95C278.44,-97.61 265.69,-87.29 259,-74 249.97,-56.06 258.58,-31.95 264.49,-19.22"/>
<polygon fill="#63b8ff" stroke="#63b8ff" points="288.99,-108.13 299.42,-109.98 292.42,-102.03 288.99,-108.13"/>
</a>
</g>
</g>
<!-- Node12&#45;&gt;Node10 -->
<g id="edge20_Node000012_Node000010" class="edge">
<title>Node12&#45;&gt;Node10</title>
<g id="a_edge20_Node000012_Node000010"><a xlink:title=" ">
<path fill="none" stroke="#63b8ff" d="M353.27,-106.78C382.25,-96.87 423.08,-82.91 449.04,-74.03"/>
<polygon fill="#63b8ff" stroke="#63b8ff" points="351.89,-103.55 343.56,-110.1 354.15,-110.18 351.89,-103.55"/>
</a>
</g>
</g>
<!-- Node12&#45;&gt;Node13 -->
<g id="edge15_Node000012_Node000013" class="edge">
<title>Node12&#45;&gt;Node13</title>
<g id="a_edge15_Node000012_Node000013"><a xlink:title=" ">
<path fill="none" stroke="#63b8ff" d="M285.86,-106.55C258.56,-96.71 220.5,-82.98 196.05,-74.17"/>
<polygon fill="#63b8ff" stroke="#63b8ff" points="284.79,-109.89 295.38,-109.98 287.16,-103.3 284.79,-109.89"/>
</a>
</g>
</g>
<!-- Node14 -->
<g id="Node000014" class="node">
<title>Node14</title>
<g id="a_Node000014"><a xlink:href="_top_device_8h.html" target="_top" xlink:title=" ">
<polygon fill="white" stroke="#666666" points="344,-74 268,-74 268,-55 344,-55 344,-74"/>
<text text-anchor="middle" x="306" y="-62" font-family="Helvetica,sans-Serif" font-size="10.00">TopDevice.h</text>
</a>
</g>
</g>
<!-- Node12&#45;&gt;Node14 -->
<g id="edge18_Node000012_Node000014" class="edge">
<title>Node12&#45;&gt;Node14</title>
<g id="a_edge18_Node000012_Node000014"><a xlink:title=" ">
<path fill="none" stroke="#63b8ff" d="M314.45,-99.95C312.29,-91.15 309.82,-81.06 308.11,-74.09"/>
<polygon fill="#63b8ff" stroke="#63b8ff" points="311.07,-100.87 316.85,-109.75 317.87,-99.2 311.07,-100.87"/>
</a>
</g>
</g>
<!-- Node13&#45;&gt;Node6 -->
<g id="edge16_Node000013_Node000006" class="edge">
<title>Node13&#45;&gt;Node6</title>
<g id="a_edge16_Node000013_Node000006"><a xlink:title=" ">
<path fill="none" stroke="#63b8ff" d="M196.77,-49.97C214.5,-40.28 237.85,-27.52 253.13,-19.17"/>
<polygon fill="#63b8ff" stroke="#63b8ff" points="194.68,-47.12 187.58,-54.98 198.04,-53.26 194.68,-47.12"/>
</a>
</g>
</g>
<!-- Node14&#45;&gt;Node6 -->
<g id="edge19_Node000014_Node000006" class="edge">
<title>Node14&#45;&gt;Node6</title>
<g id="a_edge19_Node000014_Node000006"><a xlink:title=" ">
<path fill="none" stroke="#63b8ff" d="M294.05,-46.39C287.69,-37.27 280.13,-26.45 275,-19.09"/>
<polygon fill="#63b8ff" stroke="#63b8ff" points="291.3,-48.55 299.89,-54.75 297.04,-44.55 291.3,-48.55"/>
</a>
</g>
</g>
<!-- Node15&#45;&gt;Node8 -->
<g id="edge24_Node000015_Node000008" class="edge">
<title>Node15&#45;&gt;Node8</title>
<g id="a_edge24_Node000015_Node000008"><a xlink:title=" ">
<path fill="none" stroke="#63b8ff" d="M224.16,-154.66C222.84,-145.93 221.34,-135.99 220.3,-129.09"/>
<polygon fill="#63b8ff" stroke="#63b8ff" points="220.73,-155.38 225.68,-164.75 227.65,-154.34 220.73,-155.38"/>
</a>
</g>
</g>
<!-- Node16&#45;&gt;Node6 -->
<g id="edge26_Node000016_Node000006" class="edge">
<title>Node16&#45;&gt;Node6</title>
<g id="a_edge26_Node000016_Node000006"><a xlink:title=" ">
<path fill="none" stroke="#63b8ff" d="M508.16,-53.47C445.75,-42.26 347.08,-24.53 298.3,-15.76"/>
<polygon fill="#63b8ff" stroke="#63b8ff" points="507.77,-56.95 518.23,-55.28 509.01,-50.06 507.77,-56.95"/>
</a>
</g>
</g>
<!-- Node16&#45;&gt;Node11 -->
<g id="edge28_Node000016_Node000011" class="edge">
<title>Node16&#45;&gt;Node11</title>
<g id="a_edge28_Node000016_Node000011"><a xlink:title=" ">
<path fill="none" stroke="#63b8ff" d="M542.75,-49.42C528.24,-39.81 509.46,-27.37 497.09,-19.17"/>
<polygon fill="#63b8ff" stroke="#63b8ff" points="540.88,-52.38 551.15,-54.98 544.74,-46.54 540.88,-52.38"/>
</a>
</g>
</g>
<!-- Node17 -->
<g id="Node000017" class="node">
<title>Node17</title>
<g id="a_Node000017"><a xlink:href="_crash_storage_8cpp.html" target="_top" xlink:title=" ">
<polygon fill="white" stroke="#666666" points="636,-19 534,-19 534,0 636,0 636,-19"/>
<text text-anchor="middle" x="585" y="-7" font-family="Helvetica,sans-Serif" font-size="10.00">CrashStorage.cpp</text>
</a>
</g>
</g>
<!-- Node16&#45;&gt;Node17 -->
<g id="edge27_Node000016_Node000017" class="edge">
<title>Node16&#45;&gt;Node17</title>
<g id="a_edge27_Node000016_Node000017"><a xlink:title=" ">
<path fill="none" stroke="#63b8ff" d="M571.24,-45.24C574.75,-36.37 578.8,-26.14 581.6,-19.09"/>
<polygon fill="#63b8ff" stroke="#63b8ff" points="567.9,-44.16 567.47,-54.75 574.41,-46.74 567.9,-44.16"/>
</a>
</g>
</g>
</g>
</svg>
