<?xml version="1.0" encoding="UTF-8" standalone="no"?>
<!DOCTYPE svg PUBLIC "-//W3C//DTD SVG 1.1//EN"
 "http://www.w3.org/Graphics/SVG/1.1/DTD/svg11.dtd">
<!-- Generated by graphviz version 2.43.0 (0)
 -->
<!-- Title: TypeId.h Pages: 1 -->
<svg width="948pt" height="467pt"
 viewBox="0.00 0.00 947.50 467.00" xmlns="http://www.w3.org/2000/svg" xmlns:xlink="http://www.w3.org/1999/xlink">
<g id="graph0" class="graph" transform="scale(1 1) rotate(0) translate(4 463)">
<title>TypeId.h</title>
<!-- Node1 -->
<g id="Node000001" class="node">
<title>Node1</title>
<g id="a_Node000001"><a xlink:title=" ">
<polygon fill="#999999" stroke="#666666" points="479.5,-459 422.5,-459 422.5,-440 479.5,-440 479.5,-459"/>
<text text-anchor="middle" x="451" y="-447" font-family="Helvetica,sans-Serif" font-size="10.00">TypeId.h</text>
</a>
</g>
</g>
<!-- Node2 -->
<g id="Node000002" class="node">
<title>Node2</title>
<g id="a_Node000002"><a xlink:href="_event_entity_8h.html" target="_top" xlink:title=" ">
<polygon fill="white" stroke="#666666" points="257,-294 177,-294 177,-275 257,-275 257,-294"/>
<text text-anchor="middle" x="217" y="-282" font-family="Helvetica,sans-Serif" font-size="10.00">EventEntity.h</text>
</a>
</g>
</g>
<!-- Node1&#45;&gt;Node2 -->
<g id="edge1_Node000001_Node000002" class="edge">
<title>Node1&#45;&gt;Node2</title>
<g id="a_edge1_Node000001_Node000002"><a xlink:title=" ">
<path fill="none" stroke="#63b8ff" d="M430.49,-434.21C383.18,-401.26 267.53,-320.7 229.41,-294.15"/>
<polygon fill="#63b8ff" stroke="#63b8ff" points="428.54,-437.12 438.75,-439.97 432.54,-431.38 428.54,-437.12"/>
</a>
</g>
</g>
<!-- Node22 -->
<g id="Node000022" class="node">
<title>Node22</title>
<g id="a_Node000022"><a xlink:href="_object_register_record_8h.html" target="_top" xlink:title=" ">
<polygon fill="white" stroke="#666666" points="730.5,-404 599.5,-404 599.5,-385 730.5,-385 730.5,-404"/>
<text text-anchor="middle" x="665" y="-392" font-family="Helvetica,sans-Serif" font-size="10.00">ObjectRegisterRecord.h</text>
</a>
</g>
</g>
<!-- Node1&#45;&gt;Node22 -->
<g id="edge34_Node000001_Node000022" class="edge">
<title>Node1&#45;&gt;Node22</title>
<g id="a_edge34_Node000001_Node000022"><a xlink:title=" ">
<path fill="none" stroke="#63b8ff" d="M489.82,-438.89C529.99,-428.94 592.13,-413.55 630.59,-404.02"/>
<polygon fill="#63b8ff" stroke="#63b8ff" points="488.73,-435.55 479.86,-441.35 490.41,-442.35 488.73,-435.55"/>
</a>
</g>
</g>
<!-- Node3 -->
<g id="Node000003" class="node">
<title>Node3</title>
<g id="a_Node000003"><a xlink:href="_event_bus_8cpp.html" target="_top" xlink:title=" ">
<polygon fill="white" stroke="#666666" points="161.5,-129 78.5,-129 78.5,-110 161.5,-110 161.5,-129"/>
<text text-anchor="middle" x="120" y="-117" font-family="Helvetica,sans-Serif" font-size="10.00">EventBus.cpp</text>
</a>
</g>
</g>
<!-- Node2&#45;&gt;Node3 -->
<g id="edge2_Node000002_Node000003" class="edge">
<title>Node2&#45;&gt;Node3</title>
<g id="a_edge2_Node000002_Node000003"><a xlink:title=" ">
<path fill="none" stroke="#63b8ff" d="M205.34,-266.44C192.12,-246.86 170.18,-213.62 153,-184 141.91,-164.87 130.29,-141.64 124.23,-129.26"/>
<polygon fill="#63b8ff" stroke="#63b8ff" points="202.56,-268.58 211.07,-274.88 208.35,-264.64 202.56,-268.58"/>
</a>
</g>
</g>
<!-- Node4 -->
<g id="Node000004" class="node">
<title>Node4</title>
<g id="a_Node000004"><a xlink:href="_event_emitter_8h.html" target="_top" xlink:title=" ">
<polygon fill="white" stroke="#666666" points="319.5,-239 230.5,-239 230.5,-220 319.5,-220 319.5,-239"/>
<text text-anchor="middle" x="275" y="-227" font-family="Helvetica,sans-Serif" font-size="10.00">EventEmitter.h</text>
</a>
</g>
</g>
<!-- Node2&#45;&gt;Node4 -->
<g id="edge3_Node000002_Node000004" class="edge">
<title>Node2&#45;&gt;Node4</title>
<g id="a_edge3_Node000002_Node000004"><a xlink:title=" ">
<path fill="none" stroke="#63b8ff" d="M233.91,-268.04C244.2,-258.64 256.97,-246.98 265.51,-239.17"/>
<polygon fill="#63b8ff" stroke="#63b8ff" points="231.34,-265.66 226.32,-274.98 236.06,-270.82 231.34,-265.66"/>
</a>
</g>
</g>
<!-- Node21 -->
<g id="Node000021" class="node">
<title>Node21</title>
<g id="a_Node000021"><a xlink:href="_event_entity_8cpp.html" target="_top" xlink:title=" ">
<polygon fill="white" stroke="#666666" points="92,-239 0,-239 0,-220 92,-220 92,-239"/>
<text text-anchor="middle" x="46" y="-227" font-family="Helvetica,sans-Serif" font-size="10.00">EventEntity.cpp</text>
</a>
</g>
</g>
<!-- Node2&#45;&gt;Node21 -->
<g id="edge33_Node000002_Node000021" class="edge">
<title>Node2&#45;&gt;Node21</title>
<g id="a_edge33_Node000002_Node000021"><a xlink:title=" ">
<path fill="none" stroke="#63b8ff" d="M179.66,-271.93C147.72,-262.03 102.48,-248.01 73.69,-239.08"/>
<polygon fill="#63b8ff" stroke="#63b8ff" points="178.94,-275.37 189.53,-274.98 181.01,-268.68 178.94,-275.37"/>
</a>
</g>
</g>
<!-- Node4&#45;&gt;Node3 -->
<g id="edge15_Node000004_Node000003" class="edge">
<title>Node4&#45;&gt;Node3</title>
<g id="a_edge15_Node000004_Node000003"><a xlink:title=" ">
<path fill="none" stroke="#63b8ff" d="M239.03,-216.3C219.6,-208.73 195.82,-197.8 177,-184 155.26,-168.06 135.62,-142.69 126.08,-129.35"/>
<polygon fill="#63b8ff" stroke="#63b8ff" points="237.86,-219.6 248.45,-219.85 240.33,-213.05 237.86,-219.6"/>
</a>
</g>
</g>
<!-- Node5 -->
<g id="Node000005" class="node">
<title>Node5</title>
<g id="a_Node000005"><a xlink:href="_date_8h.html" target="_top" xlink:title=" ">
<polygon fill="white" stroke="#666666" points="305.5,-129 256.5,-129 256.5,-110 305.5,-110 305.5,-129"/>
<text text-anchor="middle" x="281" y="-117" font-family="Helvetica,sans-Serif" font-size="10.00">Date.h</text>
</a>
</g>
</g>
<!-- Node4&#45;&gt;Node5 -->
<g id="edge4_Node000004_Node000005" class="edge">
<title>Node4&#45;&gt;Node5</title>
<g id="a_edge4_Node000004_Node000005"><a xlink:title=" ">
<path fill="none" stroke="#63b8ff" d="M285.07,-210.71C289,-202.8 293.03,-193.2 295,-184 299.21,-164.35 290.8,-141.33 285.28,-129.12"/>
<polygon fill="#63b8ff" stroke="#63b8ff" points="281.91,-209.21 280.32,-219.68 288.09,-212.49 281.91,-209.21"/>
</a>
</g>
</g>
<!-- Node13 -->
<g id="Node000013" class="node">
<title>Node13</title>
<g id="a_Node000013"><a xlink:href="_event_emitter_8cpp.html" target="_top" xlink:title=" ">
<polygon fill="white" stroke="#666666" points="286,-184 186,-184 186,-165 286,-165 286,-184"/>
<text text-anchor="middle" x="236" y="-172" font-family="Helvetica,sans-Serif" font-size="10.00">EventEmitter.cpp</text>
</a>
</g>
</g>
<!-- Node4&#45;&gt;Node13 -->
<g id="edge16_Node000004_Node000013" class="edge">
<title>Node4&#45;&gt;Node13</title>
<g id="a_edge16_Node000004_Node000013"><a xlink:title=" ">
<path fill="none" stroke="#63b8ff" d="M262.62,-211.67C255.86,-202.5 247.79,-191.52 242.32,-184.09"/>
<polygon fill="#63b8ff" stroke="#63b8ff" points="259.81,-213.77 268.56,-219.75 265.45,-209.62 259.81,-213.77"/>
</a>
</g>
</g>
<!-- Node14 -->
<g id="Node000014" class="node">
<title>Node14</title>
<g id="a_Node000014"><a xlink:href="_event_listener_8h.html" target="_top" xlink:title=" ">
<polygon fill="white" stroke="#666666" points="434,-184 342,-184 342,-165 434,-165 434,-184"/>
<text text-anchor="middle" x="388" y="-172" font-family="Helvetica,sans-Serif" font-size="10.00">EventListener.h</text>
</a>
</g>
</g>
<!-- Node4&#45;&gt;Node14 -->
<g id="edge17_Node000004_Node000014" class="edge">
<title>Node4&#45;&gt;Node14</title>
<g id="a_edge17_Node000004_Node000014"><a xlink:title=" ">
<path fill="none" stroke="#63b8ff" d="M302.43,-215.63C323.25,-205.87 351.3,-192.71 369.51,-184.17"/>
<polygon fill="#63b8ff" stroke="#63b8ff" points="300.72,-212.57 293.16,-219.98 303.7,-218.91 300.72,-212.57"/>
</a>
</g>
</g>
<!-- Node20 -->
<g id="Node000020" class="node">
<title>Node20</title>
<g id="a_Node000020"><a xlink:href="_network_scheduler_8h.html" target="_top" xlink:title=" ">
<polygon fill="white" stroke="#666666" points="566,-184 452,-184 452,-165 566,-165 566,-184"/>
<text text-anchor="middle" x="509" y="-172" font-family="Helvetica,sans-Serif" font-size="10.00">NetworkScheduler.h</text>
</a>
</g>
</g>
<!-- Node4&#45;&gt;Node20 -->
<g id="edge30_Node000004_Node000020" class="edge">
<title>Node4&#45;&gt;Node20</title>
<g id="a_edge30_Node000004_Node000020"><a xlink:title=" ">
<path fill="none" stroke="#63b8ff" d="M322.45,-217.75C366.3,-207.82 430.6,-193.26 471.11,-184.08"/>
<polygon fill="#63b8ff" stroke="#63b8ff" points="321.58,-214.36 312.6,-219.98 323.12,-221.19 321.58,-214.36"/>
</a>
</g>
</g>
<!-- Node6 -->
<g id="Node000006" class="node">
<title>Node6</title>
<g id="a_Node000006"><a xlink:href="_app_kit_8h.html" target="_top" xlink:title=" ">
<polygon fill="white" stroke="#666666" points="535,-19 477,-19 477,0 535,0 535,-19"/>
<text text-anchor="middle" x="506" y="-7" font-family="Helvetica,sans-Serif" font-size="10.00">AppKit.h</text>
</a>
</g>
</g>
<!-- Node5&#45;&gt;Node6 -->
<g id="edge5_Node000005_Node000006" class="edge">
<title>Node5&#45;&gt;Node6</title>
<g id="a_edge5_Node000005_Node000006"><a xlink:title=" ">
<path fill="none" stroke="#63b8ff" d="M290.07,-100.6C298.3,-86.15 311.77,-66.41 329,-55 374.84,-24.65 439.84,-15 476.98,-11.93"/>
<polygon fill="#63b8ff" stroke="#63b8ff" points="286.88,-99.12 285.22,-109.59 293.05,-102.44 286.88,-99.12"/>
</a>
</g>
</g>
<!-- Node7 -->
<g id="Node000007" class="node">
<title>Node7</title>
<g id="a_Node000007"><a xlink:href="_lisp_device_8h.html" target="_top" xlink:title=" ">
<polygon fill="white" stroke="#666666" points="511.5,-74 432.5,-74 432.5,-55 511.5,-55 511.5,-74"/>
<text text-anchor="middle" x="472" y="-62" font-family="Helvetica,sans-Serif" font-size="10.00">LispDevice.h</text>
</a>
</g>
</g>
<!-- Node5&#45;&gt;Node7 -->
<g id="edge6_Node000005_Node000007" class="edge">
<title>Node5&#45;&gt;Node7</title>
<g id="a_edge6_Node000005_Node000007"><a xlink:title=" ">
<path fill="none" stroke="#63b8ff" d="M315.57,-108.91C351.39,-98.97 406.84,-83.58 441.2,-74.05"/>
<polygon fill="#63b8ff" stroke="#63b8ff" points="314.28,-105.63 305.58,-111.68 316.15,-112.38 314.28,-105.63"/>
</a>
</g>
</g>
<!-- Node8 -->
<g id="Node000008" class="node">
<title>Node8</title>
<g id="a_Node000008"><a xlink:href="_m_q_t_t_kit_8h.html" target="_top" xlink:title=" ">
<polygon fill="white" stroke="#666666" points="212,-74 144,-74 144,-55 212,-55 212,-74"/>
<text text-anchor="middle" x="178" y="-62" font-family="Helvetica,sans-Serif" font-size="10.00">MQTTKit.h</text>
</a>
</g>
</g>
<!-- Node5&#45;&gt;Node8 -->
<g id="edge8_Node000005_Node000008" class="edge">
<title>Node5&#45;&gt;Node8</title>
<g id="a_edge8_Node000005_Node000008"><a xlink:title=" ">
<path fill="none" stroke="#63b8ff" d="M255.48,-105.37C236.56,-95.63 211.3,-82.64 194.85,-74.17"/>
<polygon fill="#63b8ff" stroke="#63b8ff" points="253.96,-108.52 264.45,-109.98 257.16,-102.3 253.96,-108.52"/>
</a>
</g>
</g>
<!-- Node10 -->
<g id="Node000010" class="node">
<title>Node10</title>
<g id="a_Node000010"><a xlink:href="_top_device_8h.html" target="_top" xlink:title=" ">
<polygon fill="white" stroke="#666666" points="414,-74 338,-74 338,-55 414,-55 414,-74"/>
<text text-anchor="middle" x="376" y="-62" font-family="Helvetica,sans-Serif" font-size="10.00">TopDevice.h</text>
</a>
</g>
</g>
<!-- Node5&#45;&gt;Node10 -->
<g id="edge11_Node000005_Node000010" class="edge">
<title>Node5&#45;&gt;Node10</title>
<g id="a_edge11_Node000005_Node000010"><a xlink:title=" ">
<path fill="none" stroke="#63b8ff" d="M305.26,-104.97C322.63,-95.28 345.49,-82.52 360.46,-74.17"/>
<polygon fill="#63b8ff" stroke="#63b8ff" points="303.29,-102.06 296.26,-109.98 306.7,-108.17 303.29,-102.06"/>
</a>
</g>
</g>
<!-- Node11 -->
<g id="Node000011" class="node">
<title>Node11</title>
<g id="a_Node000011"><a xlink:href="_uniot_8h.html" target="_top" xlink:title=" ">
<polygon fill="white" stroke="#666666" points="282,-74 230,-74 230,-55 282,-55 282,-74"/>
<text text-anchor="middle" x="256" y="-62" font-family="Helvetica,sans-Serif" font-size="10.00">Uniot.h</text>
</a>
</g>
</g>
<!-- Node5&#45;&gt;Node11 -->
<g id="edge13_Node000005_Node000011" class="edge">
<title>Node5&#45;&gt;Node11</title>
<g id="a_edge13_Node000005_Node000011"><a xlink:title=" ">
<path fill="none" stroke="#63b8ff" d="M272.52,-100.53C268.31,-91.6 263.41,-81.22 260.05,-74.09"/>
<polygon fill="#63b8ff" stroke="#63b8ff" points="269.44,-102.2 276.87,-109.75 275.77,-99.21 269.44,-102.2"/>
</a>
</g>
</g>
<!-- Node7&#45;&gt;Node6 -->
<g id="edge7_Node000007_Node000006" class="edge">
<title>Node7&#45;&gt;Node6</title>
<g id="a_edge7_Node000007_Node000006"><a xlink:title=" ">
<path fill="none" stroke="#63b8ff" d="M483.16,-46.1C488.97,-37.04 495.82,-26.37 500.49,-19.09"/>
<polygon fill="#63b8ff" stroke="#63b8ff" points="480.07,-44.44 477.61,-54.75 485.96,-48.22 480.07,-44.44"/>
</a>
</g>
</g>
<!-- Node8&#45;&gt;Node6 -->
<g id="edge9_Node000008_Node000006" class="edge">
<title>Node8&#45;&gt;Node6</title>
<g id="a_edge9_Node000008_Node000006"><a xlink:title=" ">
<path fill="none" stroke="#63b8ff" d="M222.13,-54.86C321.29,-37.47 426.79,-21.88 476.81,-14.66"/>
<polygon fill="#63b8ff" stroke="#63b8ff" points="221.48,-51.42 212.24,-56.6 222.7,-58.31 221.48,-51.42"/>
</a>
</g>
</g>
<!-- Node9 -->
<g id="Node000009" class="node">
<title>Node9</title>
<g id="a_Node000009"><a xlink:href="_m_q_t_t_device_8cpp.html" target="_top" xlink:title=" ">
<polygon fill="white" stroke="#666666" points="217.5,-19 118.5,-19 118.5,0 217.5,0 217.5,-19"/>
<text text-anchor="middle" x="168" y="-7" font-family="Helvetica,sans-Serif" font-size="10.00">MQTTDevice.cpp</text>
</a>
</g>
</g>
<!-- Node8&#45;&gt;Node9 -->
<g id="edge10_Node000008_Node000009" class="edge">
<title>Node8&#45;&gt;Node9</title>
<g id="a_edge10_Node000008_Node000009"><a xlink:title=" ">
<path fill="none" stroke="#63b8ff" d="M174.45,-44.66C172.8,-35.93 170.92,-25.99 169.62,-19.09"/>
<polygon fill="#63b8ff" stroke="#63b8ff" points="171.06,-45.57 176.35,-54.75 177.93,-44.27 171.06,-45.57"/>
</a>
</g>
</g>
<!-- Node10&#45;&gt;Node6 -->
<g id="edge12_Node000010_Node000006" class="edge">
<title>Node10&#45;&gt;Node6</title>
<g id="a_edge12_Node000010_Node000006"><a xlink:title=" ">
<path fill="none" stroke="#63b8ff" d="M406.27,-51.16C430.34,-41.35 463.4,-27.87 484.73,-19.17"/>
<polygon fill="#63b8ff" stroke="#63b8ff" points="404.83,-47.97 396.89,-54.98 407.47,-54.45 404.83,-47.97"/>
</a>
</g>
</g>
<!-- Node12 -->
<g id="Node000012" class="node">
<title>Node12</title>
<g id="a_Node000012"><a xlink:href="_uniot_8cpp.html" target="_top" xlink:title=" ">
<polygon fill="white" stroke="#666666" points="298.5,-19 235.5,-19 235.5,0 298.5,0 298.5,-19"/>
<text text-anchor="middle" x="267" y="-7" font-family="Helvetica,sans-Serif" font-size="10.00">Uniot.cpp</text>
</a>
</g>
</g>
<!-- Node11&#45;&gt;Node12 -->
<g id="edge14_Node000011_Node000012" class="edge">
<title>Node11&#45;&gt;Node12</title>
<g id="a_edge14_Node000011_Node000012"><a xlink:title=" ">
<path fill="none" stroke="#63b8ff" d="M259.85,-44.95C261.68,-36.15 263.77,-26.06 265.22,-19.09"/>
<polygon fill="#63b8ff" stroke="#63b8ff" points="256.42,-44.25 257.82,-54.75 263.28,-45.67 256.42,-44.25"/>
</a>
</g>
</g>
<!-- Node14&#45;&gt;Node3 -->
<g id="edge21_Node000014_Node000003" class="edge">
<title>Node14&#45;&gt;Node3</title>
<g id="a_edge21_Node000014_Node000003"><a xlink:title=" ">
<path fill="none" stroke="#63b8ff" d="M335.12,-163.04C284.24,-152.98 208.35,-137.97 161.63,-128.73"/>
<polygon fill="#63b8ff" stroke="#63b8ff" points="334.45,-166.48 344.94,-164.98 335.81,-159.61 334.45,-166.48"/>
</a>
</g>
</g>
<!-- Node14&#45;&gt;Node7 -->
<g id="edge23_Node000014_Node000007" class="edge">
<title>Node14&#45;&gt;Node7</title>
<g id="a_edge23_Node000014_Node000007"><a xlink:title=" ">
<path fill="none" stroke="#63b8ff" d="M369.56,-157.96C356.19,-144.77 342.2,-125.56 353,-110 362.84,-95.82 405.12,-82.35 436.5,-74.01"/>
<polygon fill="#63b8ff" stroke="#63b8ff" points="367.43,-160.76 377.16,-164.96 372.17,-155.61 367.43,-160.76"/>
</a>
</g>
</g>
<!-- Node14&#45;&gt;Node8 -->
<g id="edge24_Node000014_Node000008" class="edge">
<title>Node14&#45;&gt;Node8</title>
<g id="a_edge24_Node000014_Node000008"><a xlink:title=" ">
<path fill="none" stroke="#63b8ff" d="M331.88,-170.38C295.14,-165.81 247.85,-154.88 214,-129 195.48,-114.84 184.98,-88.23 180.55,-74.38"/>
<polygon fill="#63b8ff" stroke="#63b8ff" points="331.61,-173.87 341.94,-171.5 332.39,-166.91 331.61,-173.87"/>
</a>
</g>
</g>
<!-- Node15 -->
<g id="Node000015" class="node">
<title>Node15</title>
<g id="a_Node000015"><a xlink:href="_callback_event_listener_8h.html" target="_top" xlink:title=" ">
<polygon fill="white" stroke="#666666" points="618,-129 484,-129 484,-110 618,-110 618,-129"/>
<text text-anchor="middle" x="551" y="-117" font-family="Helvetica,sans-Serif" font-size="10.00">CallbackEventListener.h</text>
</a>
</g>
</g>
<!-- Node14&#45;&gt;Node15 -->
<g id="edge18_Node000014_Node000015" class="edge">
<title>Node14&#45;&gt;Node15</title>
<g id="a_edge18_Node000014_Node000015"><a xlink:title=" ">
<path fill="none" stroke="#63b8ff" d="M423.99,-161.8C454.41,-151.91 497.28,-137.97 524.61,-129.08"/>
<polygon fill="#63b8ff" stroke="#63b8ff" points="422.62,-158.56 414.19,-164.98 424.78,-165.22 422.62,-158.56"/>
</a>
</g>
</g>
<!-- Node17 -->
<g id="Node000017" class="node">
<title>Node17</title>
<g id="a_Node000017"><a xlink:href="_event_listener_8cpp.html" target="_top" xlink:title=" ">
<polygon fill="white" stroke="#666666" points="465.5,-129 362.5,-129 362.5,-110 465.5,-110 465.5,-129"/>
<text text-anchor="middle" x="414" y="-117" font-family="Helvetica,sans-Serif" font-size="10.00">EventListener.cpp</text>
</a>
</g>
</g>
<!-- Node14&#45;&gt;Node17 -->
<g id="edge22_Node000014_Node000017" class="edge">
<title>Node14&#45;&gt;Node17</title>
<g id="a_edge22_Node000014_Node000017"><a xlink:title=" ">
<path fill="none" stroke="#63b8ff" d="M396.82,-155.53C401.2,-146.6 406.29,-136.22 409.79,-129.09"/>
<polygon fill="#63b8ff" stroke="#63b8ff" points="393.56,-154.23 392.29,-164.75 399.84,-157.31 393.56,-154.23"/>
</a>
</g>
</g>
<!-- Node18 -->
<g id="Node000018" class="node">
<title>Node18</title>
<g id="a_Node000018"><a xlink:href="_network_controller_8h.html" target="_top" xlink:title=" ">
<polygon fill="white" stroke="#666666" points="826,-129 712,-129 712,-110 826,-110 826,-129"/>
<text text-anchor="middle" x="769" y="-117" font-family="Helvetica,sans-Serif" font-size="10.00">NetworkController.h</text>
</a>
</g>
</g>
<!-- Node14&#45;&gt;Node18 -->
<g id="edge25_Node000014_Node000018" class="edge">
<title>Node14&#45;&gt;Node18</title>
<g id="a_edge25_Node000014_Node000018"><a xlink:title=" ">
<path fill="none" stroke="#63b8ff" d="M444.17,-164.85C544.13,-150.36 648.81,-136.32 711.83,-127.99"/>
<polygon fill="#63b8ff" stroke="#63b8ff" points="443.6,-161.4 434.2,-166.3 444.6,-168.32 443.6,-161.4"/>
</a>
</g>
</g>
<!-- Node19 -->
<g id="Node000019" class="node">
<title>Node19</title>
<g id="a_Node000019"><a xlink:href="un_lisp_8h.html" target="_top" xlink:title=" ">
<polygon fill="white" stroke="#666666" points="693.5,-129 636.5,-129 636.5,-110 693.5,-110 693.5,-129"/>
<text text-anchor="middle" x="665" y="-117" font-family="Helvetica,sans-Serif" font-size="10.00">unLisp.h</text>
</a>
</g>
</g>
<!-- Node14&#45;&gt;Node19 -->
<g id="edge27_Node000014_Node000019" class="edge">
<title>Node14&#45;&gt;Node19</title>
<g id="a_edge27_Node000014_Node000019"><a xlink:title=" ">
<path fill="none" stroke="#63b8ff" d="M444.34,-163.6C492.85,-154.94 564.66,-141.77 627,-129 630.05,-128.38 633.22,-127.7 636.39,-127.02"/>
<polygon fill="#63b8ff" stroke="#63b8ff" points="443.59,-160.18 434.36,-165.38 444.82,-167.07 443.59,-160.18"/>
</a>
</g>
</g>
<!-- Node15&#45;&gt;Node6 -->
<g id="edge19_Node000015_Node000006" class="edge">
<title>Node15&#45;&gt;Node6</title>
<g id="a_edge19_Node000015_Node000006"><a xlink:title=" ">
<path fill="none" stroke="#63b8ff" d="M543.34,-100.12C533.53,-76.56 516.9,-36.66 509.61,-19.16"/>
<polygon fill="#63b8ff" stroke="#63b8ff" points="540.24,-101.78 547.32,-109.66 546.7,-99.08 540.24,-101.78"/>
</a>
</g>
</g>
<!-- Node16 -->
<g id="Node000016" class="node">
<title>Node16</title>
<g id="a_Node000016"><a xlink:href="_callback_event_listener_8cpp.html" target="_top" xlink:title=" ">
<polygon fill="white" stroke="#666666" points="713.5,-74 568.5,-74 568.5,-55 713.5,-55 713.5,-74"/>
<text text-anchor="middle" x="641" y="-62" font-family="Helvetica,sans-Serif" font-size="10.00">CallbackEventListener.cpp</text>
</a>
</g>
</g>
<!-- Node15&#45;&gt;Node16 -->
<g id="edge20_Node000015_Node000016" class="edge">
<title>Node15&#45;&gt;Node16</title>
<g id="a_edge20_Node000015_Node000016"><a xlink:title=" ">
<path fill="none" stroke="#63b8ff" d="M574.44,-104.7C590.84,-95.04 612.23,-82.44 626.28,-74.17"/>
<polygon fill="#63b8ff" stroke="#63b8ff" points="572.3,-101.89 565.46,-109.98 575.85,-107.93 572.3,-101.89"/>
</a>
</g>
</g>
<!-- Node18&#45;&gt;Node6 -->
<g id="edge26_Node000018_Node000006" class="edge">
<title>Node18&#45;&gt;Node6</title>
<g id="a_edge26_Node000018_Node000006"><a xlink:title=" ">
<path fill="none" stroke="#63b8ff" d="M765.12,-100.1C761.09,-85.61 753.29,-66.07 739,-55 707.5,-30.6 590.5,-17.66 535.25,-12.8"/>
<polygon fill="#63b8ff" stroke="#63b8ff" points="761.76,-101.08 767.52,-109.97 768.56,-99.42 761.76,-101.08"/>
</a>
</g>
</g>
<!-- Node19&#45;&gt;Node6 -->
<g id="edge28_Node000019_Node000006" class="edge">
<title>Node19&#45;&gt;Node6</title>
<g id="a_edge28_Node000019_Node000006"><a xlink:title=" ">
<path fill="none" stroke="#63b8ff" d="M691.84,-104.99C713.32,-92.4 737.62,-72.92 723,-55 699.6,-26.32 588.69,-15.61 535.11,-12.06"/>
<polygon fill="#63b8ff" stroke="#63b8ff" points="689.97,-102.02 682.93,-109.94 693.37,-108.14 689.97,-102.02"/>
</a>
</g>
</g>
<!-- Node19&#45;&gt;Node7 -->
<g id="edge29_Node000019_Node000007" class="edge">
<title>Node19&#45;&gt;Node7</title>
<g id="a_edge29_Node000019_Node000007"><a xlink:title=" ">
<path fill="none" stroke="#63b8ff" d="M626.37,-107.89C590.11,-97.93 536.56,-83.23 503.01,-74.02"/>
<polygon fill="#63b8ff" stroke="#63b8ff" points="625.54,-111.29 636.11,-110.57 627.39,-104.54 625.54,-111.29"/>
</a>
</g>
</g>
<!-- Node20&#45;&gt;Node8 -->
<g id="edge31_Node000020_Node000008" class="edge">
<title>Node20&#45;&gt;Node8</title>
<g id="a_edge31_Node000020_Node000008"><a xlink:title=" ">
<path fill="none" stroke="#63b8ff" d="M441.41,-164.05C369.66,-153.7 264.22,-137.45 247,-129 219.81,-115.66 195.71,-88.19 184.56,-74.16"/>
<polygon fill="#63b8ff" stroke="#63b8ff" points="441.34,-167.58 451.74,-165.54 442.34,-160.65 441.34,-167.58"/>
</a>
</g>
</g>
<!-- Node20&#45;&gt;Node18 -->
<g id="edge32_Node000020_Node000018" class="edge">
<title>Node20&#45;&gt;Node18</title>
<g id="a_edge32_Node000020_Node000018"><a xlink:title=" ">
<path fill="none" stroke="#63b8ff" d="M560.8,-162.94C609.54,-153.01 681.61,-138.31 726.9,-129.08"/>
<polygon fill="#63b8ff" stroke="#63b8ff" points="559.87,-159.56 550.77,-164.98 561.27,-166.42 559.87,-159.56"/>
</a>
</g>
</g>
<!-- Node23 -->
<g id="Node000023" class="node">
<title>Node23</title>
<g id="a_Node000023"><a xlink:href="_button_8h.html" target="_top" xlink:title=" ">
<polygon fill="white" stroke="#666666" points="799,-184 741,-184 741,-165 799,-165 799,-184"/>
<text text-anchor="middle" x="770" y="-172" font-family="Helvetica,sans-Serif" font-size="10.00">Button.h</text>
</a>
</g>
</g>
<!-- Node22&#45;&gt;Node23 -->
<g id="edge35_Node000022_Node000023" class="edge">
<title>Node22&#45;&gt;Node23</title>
<g id="a_edge35_Node000022_Node000023"><a xlink:title=" ">
<path fill="none" stroke="#63b8ff" d="M689.91,-379.64C701.53,-372 714.61,-361.52 723,-349 759.83,-294.04 767.89,-211.12 769.58,-184.24"/>
<polygon fill="#63b8ff" stroke="#63b8ff" points="688.06,-376.66 681.41,-384.91 691.75,-382.61 688.06,-376.66"/>
</a>
</g>
</g>
<!-- Node25 -->
<g id="Node000025" class="node">
<title>Node25</title>
<g id="a_Node000025"><a xlink:href="_object_register_8h.html" target="_top" xlink:title=" ">
<polygon fill="white" stroke="#666666" points="713.5,-349 616.5,-349 616.5,-330 713.5,-330 713.5,-349"/>
<text text-anchor="middle" x="665" y="-337" font-family="Helvetica,sans-Serif" font-size="10.00">ObjectRegister.h</text>
</a>
</g>
</g>
<!-- Node22&#45;&gt;Node25 -->
<g id="edge39_Node000022_Node000025" class="edge">
<title>Node22&#45;&gt;Node25</title>
<g id="a_edge39_Node000022_Node000025"><a xlink:title=" ">
<path fill="none" stroke="#63b8ff" d="M665,-374.66C665,-365.93 665,-355.99 665,-349.09"/>
<polygon fill="#63b8ff" stroke="#63b8ff" points="661.5,-374.75 665,-384.75 668.5,-374.75 661.5,-374.75"/>
</a>
</g>
</g>
<!-- Node23&#45;&gt;Node18 -->
<g id="edge38_Node000023_Node000018" class="edge">
<title>Node23&#45;&gt;Node18</title>
<g id="a_edge38_Node000023_Node000018"><a xlink:title=" ">
<path fill="none" stroke="#63b8ff" d="M769.64,-154.66C769.48,-145.93 769.29,-135.99 769.16,-129.09"/>
<polygon fill="#63b8ff" stroke="#63b8ff" points="766.15,-154.82 769.83,-164.75 773.15,-154.68 766.15,-154.82"/>
</a>
</g>
</g>
<!-- Node24 -->
<g id="Node000024" class="node">
<title>Node24</title>
<g id="a_Node000024"><a xlink:href="_lisp_primitives_8h.html" target="_top" xlink:title=" ">
<polygon fill="white" stroke="#666666" points="939.5,-129 844.5,-129 844.5,-110 939.5,-110 939.5,-129"/>
<text text-anchor="middle" x="892" y="-117" font-family="Helvetica,sans-Serif" font-size="10.00">LispPrimitives.h</text>
</a>
</g>
</g>
<!-- Node23&#45;&gt;Node24 -->
<g id="edge36_Node000023_Node000024" class="edge">
<title>Node23&#45;&gt;Node24</title>
<g id="a_edge36_Node000023_Node000024"><a xlink:title=" ">
<path fill="none" stroke="#63b8ff" d="M799.01,-160.9C821.54,-151.11 852.2,-137.79 872.04,-129.17"/>
<polygon fill="#63b8ff" stroke="#63b8ff" points="797.38,-157.79 789.6,-164.98 800.17,-164.21 797.38,-157.79"/>
</a>
</g>
</g>
<!-- Node24&#45;&gt;Node6 -->
<g id="edge37_Node000024_Node000006" class="edge">
<title>Node24&#45;&gt;Node6</title>
<g id="a_edge37_Node000024_Node000006"><a xlink:title=" ">
<path fill="none" stroke="#63b8ff" d="M868.51,-104.75C842.73,-90.24 799.72,-67.76 760,-55 680.94,-29.59 583.09,-17.64 535.19,-12.99"/>
<polygon fill="#63b8ff" stroke="#63b8ff" points="867.09,-107.96 877.51,-109.88 870.56,-101.88 867.09,-107.96"/>
</a>
</g>
</g>
<!-- Node26 -->
<g id="Node000026" class="node">
<title>Node26</title>
<g id="a_Node000026"><a xlink:href="_register_manager_8h.html" target="_top" xlink:title=" ">
<polygon fill="white" stroke="#666666" points="719,-294 611,-294 611,-275 719,-275 719,-294"/>
<text text-anchor="middle" x="665" y="-282" font-family="Helvetica,sans-Serif" font-size="10.00">RegisterManager.h</text>
</a>
</g>
</g>
<!-- Node25&#45;&gt;Node26 -->
<g id="edge40_Node000025_Node000026" class="edge">
<title>Node25&#45;&gt;Node26</title>
<g id="a_edge40_Node000025_Node000026"><a xlink:title=" ">
<path fill="none" stroke="#63b8ff" d="M665,-319.66C665,-310.93 665,-300.99 665,-294.09"/>
<polygon fill="#63b8ff" stroke="#63b8ff" points="661.5,-319.75 665,-329.75 668.5,-319.75 661.5,-319.75"/>
</a>
</g>
</g>
<!-- Node27 -->
<g id="Node000027" class="node">
<title>Node27</title>
<g id="a_Node000027"><a xlink:href="_register_manager_proxy_8h.html" target="_top" xlink:title=" ">
<polygon fill="white" stroke="#666666" points="732.5,-239 597.5,-239 597.5,-220 732.5,-220 732.5,-239"/>
<text text-anchor="middle" x="665" y="-227" font-family="Helvetica,sans-Serif" font-size="10.00">RegisterManagerProxy.h</text>
</a>
</g>
</g>
<!-- Node26&#45;&gt;Node27 -->
<g id="edge41_Node000026_Node000027" class="edge">
<title>Node26&#45;&gt;Node27</title>
<g id="a_edge41_Node000026_Node000027"><a xlink:title=" ">
<path fill="none" stroke="#63b8ff" d="M665,-264.66C665,-255.93 665,-245.99 665,-239.09"/>
<polygon fill="#63b8ff" stroke="#63b8ff" points="661.5,-264.75 665,-274.75 668.5,-264.75 661.5,-264.75"/>
</a>
</g>
</g>
<!-- Node28 -->
<g id="Node000028" class="node">
<title>Node28</title>
<g id="a_Node000028"><a xlink:href="_primitive_expeditor_8h.html" target="_top" xlink:title=" ">
<polygon fill="white" stroke="#666666" points="723,-184 607,-184 607,-165 723,-165 723,-184"/>
<text text-anchor="middle" x="665" y="-172" font-family="Helvetica,sans-Serif" font-size="10.00">PrimitiveExpeditor.h</text>
</a>
</g>
</g>
<!-- Node27&#45;&gt;Node28 -->
<g id="edge42_Node000027_Node000028" class="edge">
<title>Node27&#45;&gt;Node28</title>
<g id="a_edge42_Node000027_Node000028"><a xlink:title=" ">
<path fill="none" stroke="#63b8ff" d="M665,-209.66C665,-200.93 665,-190.99 665,-184.09"/>
<polygon fill="#63b8ff" stroke="#63b8ff" points="661.5,-209.75 665,-219.75 668.5,-209.75 661.5,-209.75"/>
</a>
</g>
</g>
<!-- Node28&#45;&gt;Node19 -->
<g id="edge44_Node000028_Node000019" class="edge">
<title>Node28&#45;&gt;Node19</title>
<g id="a_edge44_Node000028_Node000019"><a xlink:title=" ">
<path fill="none" stroke="#63b8ff" d="M665,-154.66C665,-145.93 665,-135.99 665,-129.09"/>
<polygon fill="#63b8ff" stroke="#63b8ff" points="661.5,-154.75 665,-164.75 668.5,-154.75 661.5,-154.75"/>
</a>
</g>
</g>
<!-- Node28&#45;&gt;Node24 -->
<g id="edge43_Node000028_Node000024" class="edge">
<title>Node28&#45;&gt;Node24</title>
<g id="a_edge43_Node000028_Node000024"><a xlink:title=" ">
<path fill="none" stroke="#63b8ff" d="M711.3,-162.69C753.83,-152.76 816.03,-138.24 855.24,-129.08"/>
<polygon fill="#63b8ff" stroke="#63b8ff" points="710.41,-159.3 701.47,-164.98 712.01,-166.12 710.41,-159.3"/>
</a>
</g>
</g>
</g>
</svg>
