<?xml version="1.0" encoding="UTF-8" standalone="no"?>
<!DOCTYPE svg PUBLIC "-//W3C//DTD SVG 1.1//EN"
 "http://www.w3.org/Graphics/SVG/1.1/DTD/svg11.dtd">
<!-- Generated by graphviz version 2.43.0 (0)
 -->
<!-- Title: uniot::IWithType Pages: 1 -->
<svg width="821pt" height="283pt"
 viewBox="0.00 0.00 821.00 282.50" xmlns="http://www.w3.org/2000/svg" xmlns:xlink="http://www.w3.org/1999/xlink">
<g id="graph0" class="graph" transform="scale(1 1) rotate(0) translate(4 278.5)">
<title>uniot::IWithType</title>
<!-- Node1 -->
<g id="Node000001" class="node">
<title>Node1</title>
<g id="a_Node000001"><a xlink:title="Interface for objects that expose their runtime type information.">
<polygon fill="#999999" stroke="#666666" points="95,-43 0,-43 0,-24 95,-24 95,-43"/>
<text text-anchor="middle" x="47.5" y="-31" font-family="Helvetica,sans-Serif" font-size="10.00">uniot::IWithType</text>
</a>
</g>
</g>
<!-- Node2 -->
<g id="Node000002" class="node">
<title>Node2</title>
<g id="a_Node000002"><a xlink:href="classuniot_1_1_event_entity.html" target="_top" xlink:title="Entity that can connect to and interact with EventBus instances.">
<polygon fill="white" stroke="#666666" points="264,-78 151,-78 151,-37 264,-37 264,-78"/>
<text text-anchor="start" x="159" y="-66" font-family="Helvetica,sans-Serif" font-size="10.00">uniot::EventEntity</text>
<text text-anchor="start" x="159" y="-55" font-family="Helvetica,sans-Serif" font-size="10.00">&lt; T_topic, T_msg, T</text>
<text text-anchor="middle" x="207.5" y="-44" font-family="Helvetica,sans-Serif" font-size="10.00">_data &gt;</text>
</a>
</g>
</g>
<!-- Node1&#45;&gt;Node2 -->
<g id="edge1_Node000001_Node000002" class="edge">
<title>Node1&#45;&gt;Node2</title>
<g id="a_edge1_Node000001_Node000002"><a xlink:title=" ">
<path fill="none" stroke="#63b8ff" d="M105.12,-42.1C119.98,-44.36 135.99,-46.79 150.8,-49.04"/>
<polygon fill="#63b8ff" stroke="#63b8ff" points="105.46,-38.61 95.05,-40.57 104.41,-45.53 105.46,-38.61"/>
</a>
</g>
</g>
<!-- Node15 -->
<g id="Node000015" class="node">
<title>Node15</title>
<g id="a_Node000015"><a xlink:href="classuniot_1_1_object_register_record.html" target="_top" xlink:title=" ">
<polygon fill="white" stroke="#666666" points="284,-19 131,-19 131,0 284,0 284,-19"/>
<text text-anchor="middle" x="207.5" y="-7" font-family="Helvetica,sans-Serif" font-size="10.00">uniot::ObjectRegisterRecord</text>
</a>
</g>
</g>
<!-- Node1&#45;&gt;Node15 -->
<g id="edge14_Node000001_Node000015" class="edge">
<title>Node1&#45;&gt;Node15</title>
<g id="a_edge14_Node000001_Node000015"><a xlink:title=" ">
<path fill="none" stroke="#63b8ff" d="M104.96,-24.92C117.58,-23.01 131.03,-20.96 143.88,-19.01"/>
<polygon fill="#63b8ff" stroke="#63b8ff" points="104.41,-21.47 95.05,-26.43 105.46,-28.39 104.41,-21.47"/>
</a>
</g>
</g>
<!-- Node3 -->
<g id="Node000003" class="node">
<title>Node3</title>
<g id="a_Node000003"><a xlink:href="classuniot_1_1_event_emitter.html" target="_top" xlink:title=" ">
<polygon fill="white" stroke="#666666" points="432,-147 321,-147 321,-106 432,-106 432,-147"/>
<text text-anchor="start" x="329" y="-135" font-family="Helvetica,sans-Serif" font-size="10.00">uniot::EventEmitter</text>
<text text-anchor="start" x="329" y="-124" font-family="Helvetica,sans-Serif" font-size="10.00">&lt; unsigned int, int,</text>
<text text-anchor="middle" x="376.5" y="-113" font-family="Helvetica,sans-Serif" font-size="10.00"> Bytes &gt;</text>
</a>
</g>
</g>
<!-- Node2&#45;&gt;Node3 -->
<g id="edge2_Node000002_Node000003" class="edge">
<title>Node2&#45;&gt;Node3</title>
<g id="a_edge2_Node000002_Node000003"><a xlink:title=" ">
<path fill="none" stroke="#63b8ff" d="M267.61,-81.92C286.62,-89.78 307.48,-98.4 325.75,-105.94"/>
<polygon fill="#63b8ff" stroke="#63b8ff" points="268.73,-78.6 258.15,-78.02 266.06,-85.07 268.73,-78.6"/>
</a>
</g>
</g>
<!-- Node12 -->
<g id="Node000012" class="node">
<title>Node12</title>
<g id="a_Node000012"><a xlink:href="classuniot_1_1_event_emitter.html" target="_top" xlink:title=" ">
<polygon fill="white" stroke="#666666" points="433,-78 320,-78 320,-37 433,-37 433,-78"/>
<text text-anchor="start" x="328" y="-66" font-family="Helvetica,sans-Serif" font-size="10.00">uniot::EventEmitter</text>
<text text-anchor="start" x="328" y="-55" font-family="Helvetica,sans-Serif" font-size="10.00">&lt; T_topic, T_msg, T</text>
<text text-anchor="middle" x="376.5" y="-44" font-family="Helvetica,sans-Serif" font-size="10.00">_data &gt;</text>
</a>
</g>
</g>
<!-- Node2&#45;&gt;Node12 -->
<g id="edge11_Node000002_Node000012" class="edge">
<title>Node2&#45;&gt;Node12</title>
<g id="a_edge11_Node000002_Node000012"><a xlink:title=" ">
<path fill="none" stroke="#63b8ff" d="M274.37,-57.5C289.43,-57.5 305.28,-57.5 319.85,-57.5"/>
<polygon fill="#63b8ff" stroke="#63b8ff" points="274.11,-54 264.11,-57.5 274.11,-61 274.11,-54"/>
</a>
</g>
</g>
<!-- Node4 -->
<g id="Node000004" class="node">
<title>Node4</title>
<g id="a_Node000004"><a xlink:href="classuniot_1_1_event_listener.html" target="_top" xlink:title=" ">
<polygon fill="white" stroke="#666666" points="602,-200 488,-200 488,-159 602,-159 602,-200"/>
<text text-anchor="start" x="496" y="-188" font-family="Helvetica,sans-Serif" font-size="10.00">uniot::EventListener</text>
<text text-anchor="start" x="496" y="-177" font-family="Helvetica,sans-Serif" font-size="10.00">&lt; unsigned int, int,</text>
<text text-anchor="middle" x="545" y="-166" font-family="Helvetica,sans-Serif" font-size="10.00"> Bytes &gt;</text>
</a>
</g>
</g>
<!-- Node3&#45;&gt;Node4 -->
<g id="edge3_Node000003_Node000004" class="edge">
<title>Node3&#45;&gt;Node4</title>
<g id="a_edge3_Node000003_Node000004"><a xlink:title=" ">
<path fill="none" stroke="#63b8ff" d="M441.85,-146.99C457.05,-151.82 473.13,-156.94 487.93,-161.65"/>
<polygon fill="#63b8ff" stroke="#63b8ff" points="442.61,-143.55 432.02,-143.85 440.49,-150.22 442.61,-143.55"/>
</a>
</g>
</g>
<!-- Node10 -->
<g id="Node000010" class="node">
<title>Node10</title>
<g id="a_Node000010"><a xlink:href="classuniot_1_1_date.html" target="_top" xlink:title=" ">
<polygon fill="white" stroke="#666666" points="580.5,-141 509.5,-141 509.5,-122 580.5,-122 580.5,-141"/>
<text text-anchor="middle" x="545" y="-129" font-family="Helvetica,sans-Serif" font-size="10.00">uniot::Date</text>
</a>
</g>
</g>
<!-- Node3&#45;&gt;Node10 -->
<g id="edge9_Node000003_Node000010" class="edge">
<title>Node3&#45;&gt;Node10</title>
<g id="a_edge9_Node000003_Node000010"><a xlink:title=" ">
<path fill="none" stroke="#63b8ff" d="M442.03,-128.44C464.92,-129.13 489.8,-129.87 509.26,-130.46"/>
<polygon fill="#63b8ff" stroke="#63b8ff" points="442.12,-124.94 432.02,-128.14 441.91,-131.94 442.12,-124.94"/>
</a>
</g>
</g>
<!-- Node11 -->
<g id="Node000011" class="node">
<title>Node11</title>
<g id="a_Node000011"><a xlink:href="classuniot_1_1_network_scheduler.html" target="_top" xlink:title=" ">
<polygon fill="white" stroke="#666666" points="613.5,-104 476.5,-104 476.5,-85 613.5,-85 613.5,-104"/>
<text text-anchor="middle" x="545" y="-92" font-family="Helvetica,sans-Serif" font-size="10.00">uniot::NetworkScheduler</text>
</a>
</g>
</g>
<!-- Node3&#45;&gt;Node11 -->
<g id="edge10_Node000003_Node000011" class="edge">
<title>Node3&#45;&gt;Node11</title>
<g id="a_edge10_Node000003_Node000011"><a xlink:title=" ">
<path fill="none" stroke="#63b8ff" d="M442.1,-114.09C459.48,-110.74 478,-107.18 494.42,-104.03"/>
<polygon fill="#63b8ff" stroke="#63b8ff" points="441.18,-110.7 432.02,-116.02 442.5,-117.57 441.18,-110.7"/>
</a>
</g>
</g>
<!-- Node5 -->
<g id="Node000005" class="node">
<title>Node5</title>
<g id="a_Node000005"><a xlink:href="classuniot_1_1_callback_event_listener.html" target="_top" xlink:title=" ">
<polygon fill="white" stroke="#666666" points="813,-274.5 657,-274.5 657,-244.5 813,-244.5 813,-274.5"/>
<text text-anchor="start" x="665" y="-262.5" font-family="Helvetica,sans-Serif" font-size="10.00">uniot::CallbackEventListener</text>
<text text-anchor="middle" x="735" y="-251.5" font-family="Helvetica,sans-Serif" font-size="10.00">&lt; unsigned int, int, Bytes &gt;</text>
</a>
</g>
</g>
<!-- Node4&#45;&gt;Node5 -->
<g id="edge4_Node000004_Node000005" class="edge">
<title>Node4&#45;&gt;Node5</title>
<g id="a_edge4_Node000004_Node000005"><a xlink:title=" ">
<path fill="none" stroke="#63b8ff" d="M592.08,-204.9C611.74,-215.16 635.15,-226.65 657,-235.5 664.79,-238.65 673.15,-241.65 681.4,-244.38"/>
<polygon fill="#63b8ff" stroke="#63b8ff" points="593.52,-201.7 583.05,-200.13 590.26,-207.89 593.52,-201.7"/>
</a>
</g>
</g>
<!-- Node6 -->
<g id="Node000006" class="node">
<title>Node6</title>
<g id="a_Node000006"><a xlink:href="classuniot_1_1_lisp_device.html" target="_top" xlink:title=" ">
<polygon fill="white" stroke="#666666" points="785.5,-226 684.5,-226 684.5,-207 785.5,-207 785.5,-226"/>
<text text-anchor="middle" x="735" y="-214" font-family="Helvetica,sans-Serif" font-size="10.00">uniot::LispDevice</text>
</a>
</g>
</g>
<!-- Node4&#45;&gt;Node6 -->
<g id="edge5_Node000004_Node000006" class="edge">
<title>Node4&#45;&gt;Node6</title>
<g id="a_edge5_Node000004_Node000006"><a xlink:title=" ">
<path fill="none" stroke="#63b8ff" d="M611.97,-192.48C636.16,-197.24 663.07,-202.54 685.46,-206.95"/>
<polygon fill="#63b8ff" stroke="#63b8ff" points="612.64,-189.05 602.15,-190.55 611.29,-195.92 612.64,-189.05"/>
</a>
</g>
</g>
<!-- Node7 -->
<g id="Node000007" class="node">
<title>Node7</title>
<g id="a_Node000007"><a xlink:href="classuniot_1_1_m_q_t_t_kit.html" target="_top" xlink:title=" ">
<polygon fill="white" stroke="#666666" points="779.5,-189 690.5,-189 690.5,-170 779.5,-170 779.5,-189"/>
<text text-anchor="middle" x="735" y="-177" font-family="Helvetica,sans-Serif" font-size="10.00">uniot::MQTTKit</text>
</a>
</g>
</g>
<!-- Node4&#45;&gt;Node7 -->
<g id="edge6_Node000004_Node000007" class="edge">
<title>Node4&#45;&gt;Node7</title>
<g id="a_edge6_Node000004_Node000007"><a xlink:title=" ">
<path fill="none" stroke="#63b8ff" d="M612.28,-179.5C638.19,-179.5 667.18,-179.5 690.37,-179.5"/>
<polygon fill="#63b8ff" stroke="#63b8ff" points="612.15,-176 602.15,-179.5 612.15,-183 612.15,-176"/>
</a>
</g>
</g>
<!-- Node8 -->
<g id="Node000008" class="node">
<title>Node8</title>
<g id="a_Node000008"><a xlink:href="classuniot_1_1_network_controller.html" target="_top" xlink:title=" ">
<polygon fill="white" stroke="#666666" points="803.5,-152 666.5,-152 666.5,-133 803.5,-133 803.5,-152"/>
<text text-anchor="middle" x="735" y="-140" font-family="Helvetica,sans-Serif" font-size="10.00">uniot::NetworkController</text>
</a>
</g>
</g>
<!-- Node4&#45;&gt;Node8 -->
<g id="edge7_Node000004_Node000008" class="edge">
<title>Node4&#45;&gt;Node8</title>
<g id="a_edge7_Node000004_Node000008"><a xlink:title=" ">
<path fill="none" stroke="#63b8ff" d="M611.97,-166.52C636.16,-161.76 663.07,-156.46 685.46,-152.05"/>
<polygon fill="#63b8ff" stroke="#63b8ff" points="611.29,-163.08 602.15,-168.45 612.64,-169.95 611.29,-163.08"/>
</a>
</g>
</g>
<!-- Node9 -->
<g id="Node000009" class="node">
<title>Node9</title>
<g id="a_Node000009"><a xlink:href="classuniot_1_1un_lisp.html" target="_top" xlink:title=" ">
<polygon fill="white" stroke="#666666" points="774.5,-115 695.5,-115 695.5,-96 774.5,-96 774.5,-115"/>
<text text-anchor="middle" x="735" y="-103" font-family="Helvetica,sans-Serif" font-size="10.00">uniot::unLisp</text>
</a>
</g>
</g>
<!-- Node4&#45;&gt;Node9 -->
<g id="edge8_Node000004_Node000009" class="edge">
<title>Node4&#45;&gt;Node9</title>
<g id="a_edge8_Node000004_Node000009"><a xlink:title=" ">
<path fill="none" stroke="#63b8ff" d="M611.4,-155.39C614.68,-153.82 617.9,-152.18 621,-150.5 638.35,-141.09 639.09,-132.79 657,-124.5 668.99,-118.95 682.82,-114.88 695.42,-111.98"/>
<polygon fill="#63b8ff" stroke="#63b8ff" points="609.66,-152.34 602.02,-159.68 612.57,-158.71 609.66,-152.34"/>
</a>
</g>
</g>
<!-- Node13 -->
<g id="Node000013" class="node">
<title>Node13</title>
<g id="a_Node000013"><a xlink:href="classuniot_1_1_event_listener.html" target="_top" xlink:title=" ">
<polygon fill="white" stroke="#666666" points="621,-66.5 469,-66.5 469,-36.5 621,-36.5 621,-66.5"/>
<text text-anchor="start" x="477" y="-54.5" font-family="Helvetica,sans-Serif" font-size="10.00">uniot::EventListener</text>
<text text-anchor="middle" x="545" y="-43.5" font-family="Helvetica,sans-Serif" font-size="10.00">&lt; T_topic, T_msg, T_data &gt;</text>
</a>
</g>
</g>
<!-- Node12&#45;&gt;Node13 -->
<g id="edge12_Node000012_Node000013" class="edge">
<title>Node12&#45;&gt;Node13</title>
<g id="a_edge12_Node000012_Node000013"><a xlink:title=" ">
<path fill="none" stroke="#63b8ff" d="M443.4,-55.13C451.72,-54.83 460.27,-54.52 468.72,-54.21"/>
<polygon fill="#63b8ff" stroke="#63b8ff" points="443.27,-51.63 433.41,-55.49 443.52,-58.62 443.27,-51.63"/>
</a>
</g>
</g>
<!-- Node14 -->
<g id="Node000014" class="node">
<title>Node14</title>
<g id="a_Node000014"><a xlink:href="classuniot_1_1_callback_event_listener.html" target="_top" xlink:title=" ">
<polygon fill="white" stroke="#666666" points="813,-66.5 657,-66.5 657,-36.5 813,-36.5 813,-66.5"/>
<text text-anchor="start" x="665" y="-54.5" font-family="Helvetica,sans-Serif" font-size="10.00">uniot::CallbackEventListener</text>
<text text-anchor="middle" x="735" y="-43.5" font-family="Helvetica,sans-Serif" font-size="10.00">&lt; T_topic, T_msg, T_data &gt;</text>
</a>
</g>
</g>
<!-- Node13&#45;&gt;Node14 -->
<g id="edge13_Node000013_Node000014" class="edge">
<title>Node13&#45;&gt;Node14</title>
<g id="a_edge13_Node000013_Node000014"><a xlink:title=" ">
<path fill="none" stroke="#63b8ff" d="M631.12,-51.5C639.69,-51.5 648.37,-51.5 656.85,-51.5"/>
<polygon fill="#63b8ff" stroke="#63b8ff" points="631.11,-48 621.11,-51.5 631.11,-55 631.11,-48"/>
</a>
</g>
</g>
<!-- Node16 -->
<g id="Node000016" class="node">
<title>Node16</title>
<g id="a_Node000016"><a xlink:href="classuniot_1_1_button.html" target="_top" xlink:title=" ">
<polygon fill="white" stroke="#666666" points="416.5,-19 336.5,-19 336.5,0 416.5,0 416.5,-19"/>
<text text-anchor="middle" x="376.5" y="-7" font-family="Helvetica,sans-Serif" font-size="10.00">uniot::Button</text>
</a>
</g>
</g>
<!-- Node15&#45;&gt;Node16 -->
<g id="edge15_Node000015_Node000016" class="edge">
<title>Node15&#45;&gt;Node16</title>
<g id="a_edge15_Node000015_Node000016"><a xlink:title=" ">
<path fill="none" stroke="#63b8ff" d="M294.31,-9.5C308.95,-9.5 323.49,-9.5 336.13,-9.5"/>
<polygon fill="#63b8ff" stroke="#63b8ff" points="294.18,-6 284.18,-9.5 294.18,-13 294.18,-6"/>
</a>
</g>
</g>
</g>
</svg>
