<?xml version="1.0" encoding="UTF-8" standalone="no"?>
<!DOCTYPE svg PUBLIC "-//W3C//DTD SVG 1.1//EN"
 "http://www.w3.org/Graphics/SVG/1.1/DTD/svg11.dtd">
<!-- Generated by graphviz version 2.43.0 (0)
 -->
<!-- Title: Core Pages: 1 -->
<svg width="466pt" height="479pt"
 viewBox="0.00 0.00 466.00 479.00" xmlns="http://www.w3.org/2000/svg" xmlns:xlink="http://www.w3.org/1999/xlink">
<g id="graph0" class="graph" transform="scale(1 1) rotate(0) translate(4 475)">
<title>Core</title>
<g id="clust1" class="cluster">
<title>clusterdir_97aefd0d527b934f1d99a682da8fe6a9</title>
<g id="a_clust1"><a xlink:href="dir_97aefd0d527b934f1d99a682da8fe6a9.html" target="_top" xlink:title="lib">
<polygon fill="#daedff" stroke="#404040" stroke-dasharray="5,2" points="8,-8 8,-463 450,-463 450,-8 8,-8"/>
<text text-anchor="middle" x="229" y="-451" font-family="Helvetica,sans-Serif" font-size="10.00">lib</text>
</a>
</g>
</g>
<g id="clust2" class="cluster">
<title>clusterdir_a7e9f68611f01b5eb6ddd8cd40b75845</title>
<g id="a_clust2"><a xlink:href="dir_a7e9f68611f01b5eb6ddd8cd40b75845.html" target="_top">
<polygon fill="#daedff" stroke="#404040" stroke-width="2" points="16,-16 16,-436 442,-436 442,-16 16,-16"/>
</a>
</g>
</g>
<!-- dir_a7e9f68611f01b5eb6ddd8cd40b75845 -->
<g id="node1" class="node">
<title>dir_a7e9f68611f01b5eb6ddd8cd40b75845</title>
<text text-anchor="middle" x="361" y="-251" font-family="Helvetica,sans-Serif" font-size="10.00">Core</text>
</g>
<!-- dir_5744949ff81cd51244f4e9eb2964eaae -->
<g id="node2" class="node">
<title>dir_5744949ff81cd51244f4e9eb2964eaae</title>
<g id="a_node2"><a xlink:href="dir_5744949ff81cd51244f4e9eb2964eaae.html" target="_top" xlink:title="CBORWrapper">
<polygon fill="#4ea9ff" stroke="#404040" points="386,-153 300,-153 300,-134 386,-134 386,-153"/>
<text text-anchor="middle" x="343" y="-141" font-family="Helvetica,sans-Serif" font-size="10.00">CBORWrapper</text>
</a>
</g>
</g>
<!-- dir_a7e9f68611f01b5eb6ddd8cd40b75845&#45;&gt;dir_5744949ff81cd51244f4e9eb2964eaae -->
<g id="edge2" class="edge">
<title>dir_a7e9f68611f01b5eb6ddd8cd40b75845&#45;&gt;dir_5744949ff81cd51244f4e9eb2964eaae</title>
<g id="a_edge2"><a xlink:href="dir_000002_000001.html" target="_top">
<path fill="none" stroke="#63b8ff" d="M367.95,-243.81C376.89,-231.52 390.43,-208.39 383,-189 378.76,-177.94 370.36,-167.91 362.36,-160.18"/>
<polygon fill="#63b8ff" stroke="#63b8ff" points="364.42,-157.33 354.64,-153.27 359.75,-162.55 364.42,-157.33"/>
</a>
</g>
<g id="a_edge2&#45;headlabel"><a xlink:href="dir_000002_000001.html" target="_top" xlink:title="6">
<text text-anchor="middle" x="369" y="-155.12" font-family="Helvetica,sans-Serif" font-size="10.00" fill="#63b8ff">6</text>
</a>
</g>
</g>
<!-- dir_53788d271d5e379cf5a6be5d6c342eea -->
<g id="node11" class="node">
<title>dir_53788d271d5e379cf5a6be5d6c342eea</title>
<g id="a_node11"><a xlink:href="dir_53788d271d5e379cf5a6be5d6c342eea.html" target="_top" xlink:title="Storage">
<polygon fill="#4ea9ff" stroke="#404040" points="374,-208 320,-208 320,-189 374,-189 374,-208"/>
<text text-anchor="middle" x="347" y="-196" font-family="Helvetica,sans-Serif" font-size="10.00">Storage</text>
</a>
</g>
</g>
<!-- dir_a7e9f68611f01b5eb6ddd8cd40b75845&#45;&gt;dir_53788d271d5e379cf5a6be5d6c342eea -->
<g id="edge1" class="edge">
<title>dir_a7e9f68611f01b5eb6ddd8cd40b75845&#45;&gt;dir_53788d271d5e379cf5a6be5d6c342eea</title>
<g id="a_edge1"><a xlink:href="dir_000002_000012.html" target="_top">
<path fill="none" stroke="#63b8ff" d="M358.69,-243.75C356.83,-236.72 354.16,-226.62 351.85,-217.84"/>
<polygon fill="#63b8ff" stroke="#63b8ff" points="355.21,-216.86 349.27,-208.09 348.44,-218.65 355.21,-216.86"/>
</a>
</g>
<g id="a_edge1&#45;headlabel"><a xlink:href="dir_000002_000012.html" target="_top" xlink:title="4">
<text text-anchor="middle" x="358.87" y="-217.11" font-family="Helvetica,sans-Serif" font-size="10.00" fill="#63b8ff">4</text>
</a>
</g>
</g>
<!-- dir_dd066fa2eddb65de909f14ca2875dae8 -->
<g id="node12" class="node">
<title>dir_dd066fa2eddb65de909f14ca2875dae8</title>
<g id="a_node12"><a xlink:href="dir_dd066fa2eddb65de909f14ca2875dae8.html" target="_top" xlink:title="Utils">
<polygon fill="#4ea9ff" stroke="#404040" points="283.5,-43 244.5,-43 244.5,-24 283.5,-24 283.5,-43"/>
<text text-anchor="middle" x="264" y="-31" font-family="Helvetica,sans-Serif" font-size="10.00">Utils</text>
</a>
</g>
</g>
<!-- dir_5744949ff81cd51244f4e9eb2964eaae&#45;&gt;dir_dd066fa2eddb65de909f14ca2875dae8 -->
<g id="edge3" class="edge">
<title>dir_5744949ff81cd51244f4e9eb2964eaae&#45;&gt;dir_dd066fa2eddb65de909f14ca2875dae8</title>
<g id="a_edge3"><a xlink:href="dir_000001_000014.html" target="_top">
<path fill="none" stroke="#63b8ff" d="M336.54,-133.66C323.39,-115.69 293.36,-74.64 276.35,-51.38"/>
<polygon fill="#63b8ff" stroke="#63b8ff" points="279.06,-49.16 270.33,-43.16 273.41,-53.3 279.06,-49.16"/>
</a>
</g>
<g id="a_edge3&#45;headlabel"><a xlink:href="dir_000001_000014.html" target="_top" xlink:title="3">
<text text-anchor="middle" x="283.48" y="-47.89" font-family="Helvetica,sans-Serif" font-size="10.00" fill="#63b8ff">3</text>
</a>
</g>
</g>
<!-- dir_b1477d39e5aeaf2b48640a6db10eb27c -->
<g id="node3" class="node">
<title>dir_b1477d39e5aeaf2b48640a6db10eb27c</title>
<g id="a_node3"><a xlink:href="dir_b1477d39e5aeaf2b48640a6db10eb27c.html" target="_top" xlink:title="Date">
<polygon fill="#4ea9ff" stroke="#404040" points="66,-263 26,-263 26,-244 66,-244 66,-263"/>
<text text-anchor="middle" x="46" y="-251" font-family="Helvetica,sans-Serif" font-size="10.00">Date</text>
</a>
</g>
</g>
<!-- dir_7709acc89a6a31d0650f4c2cca19d0cc -->
<g id="node4" class="node">
<title>dir_7709acc89a6a31d0650f4c2cca19d0cc</title>
<g id="a_node4"><a xlink:href="dir_7709acc89a6a31d0650f4c2cca19d0cc.html" target="_top" xlink:title="EventBus">
<polygon fill="#4ea9ff" stroke="#404040" points="126,-153 64,-153 64,-134 126,-134 126,-153"/>
<text text-anchor="middle" x="95" y="-141" font-family="Helvetica,sans-Serif" font-size="10.00">EventBus</text>
</a>
</g>
</g>
<!-- dir_b1477d39e5aeaf2b48640a6db10eb27c&#45;&gt;dir_7709acc89a6a31d0650f4c2cca19d0cc -->
<g id="edge6" class="edge">
<title>dir_b1477d39e5aeaf2b48640a6db10eb27c&#45;&gt;dir_7709acc89a6a31d0650f4c2cca19d0cc</title>
<g id="a_edge6"><a xlink:href="dir_000003_000004.html" target="_top">
<path fill="none" stroke="#63b8ff" d="M50.01,-243.66C58.05,-225.93 76.3,-185.73 86.92,-162.32"/>
<polygon fill="#63b8ff" stroke="#63b8ff" points="90.13,-163.71 91.07,-153.16 83.75,-160.82 90.13,-163.71"/>
</a>
</g>
<g id="a_edge6&#45;headlabel"><a xlink:href="dir_000003_000004.html" target="_top" xlink:title="1">
<text text-anchor="middle" x="91.23" y="-165.66" font-family="Helvetica,sans-Serif" font-size="10.00" fill="#63b8ff">1</text>
</a>
</g>
</g>
<!-- dir_7701f59d9393e5ddc689932b0e266d1c -->
<g id="node10" class="node">
<title>dir_7701f59d9393e5ddc689932b0e266d1c</title>
<g id="a_node10"><a xlink:href="dir_7701f59d9393e5ddc689932b0e266d1c.html" target="_top" xlink:title="Scheduler">
<polygon fill="#4ea9ff" stroke="#404040" points="197.5,-98 132.5,-98 132.5,-79 197.5,-79 197.5,-98"/>
<text text-anchor="middle" x="165" y="-86" font-family="Helvetica,sans-Serif" font-size="10.00">Scheduler</text>
</a>
</g>
</g>
<!-- dir_b1477d39e5aeaf2b48640a6db10eb27c&#45;&gt;dir_7701f59d9393e5ddc689932b0e266d1c -->
<g id="edge5" class="edge">
<title>dir_b1477d39e5aeaf2b48640a6db10eb27c&#45;&gt;dir_7701f59d9393e5ddc689932b0e266d1c</title>
<g id="a_edge5"><a xlink:href="dir_000003_000011.html" target="_top">
<path fill="none" stroke="#63b8ff" d="M43.82,-243.71C39.11,-222.51 30.29,-167.82 55,-134 70.74,-112.46 98.7,-101.33 122.5,-95.58"/>
<polygon fill="#63b8ff" stroke="#63b8ff" points="123.36,-98.97 132.39,-93.43 121.88,-92.13 123.36,-98.97"/>
</a>
</g>
<g id="a_edge5&#45;headlabel"><a xlink:href="dir_000003_000011.html" target="_top" xlink:title="1">
<text text-anchor="middle" x="120.45" y="-100.01" font-family="Helvetica,sans-Serif" font-size="10.00" fill="#63b8ff">1</text>
</a>
</g>
</g>
<!-- dir_b1477d39e5aeaf2b48640a6db10eb27c&#45;&gt;dir_53788d271d5e379cf5a6be5d6c342eea -->
<g id="edge4" class="edge">
<title>dir_b1477d39e5aeaf2b48640a6db10eb27c&#45;&gt;dir_53788d271d5e379cf5a6be5d6c342eea</title>
<g id="a_edge4"><a xlink:href="dir_000003_000012.html" target="_top">
<path fill="none" stroke="#63b8ff" d="M66.22,-248.94C116.04,-240.17 245.31,-217.41 309.59,-206.09"/>
<polygon fill="#63b8ff" stroke="#63b8ff" points="310.45,-209.49 319.69,-204.31 309.24,-202.6 310.45,-209.49"/>
</a>
</g>
<g id="a_edge4&#45;headlabel"><a xlink:href="dir_000003_000012.html" target="_top" xlink:title="1">
<text text-anchor="middle" x="307.4" y="-210.41" font-family="Helvetica,sans-Serif" font-size="10.00" fill="#63b8ff">1</text>
</a>
</g>
</g>
<!-- dir_b1477d39e5aeaf2b48640a6db10eb27c&#45;&gt;dir_dd066fa2eddb65de909f14ca2875dae8 -->
<g id="edge7" class="edge">
<title>dir_b1477d39e5aeaf2b48640a6db10eb27c&#45;&gt;dir_dd066fa2eddb65de909f14ca2875dae8</title>
<g id="a_edge7"><a xlink:href="dir_000003_000014.html" target="_top">
<path fill="none" stroke="#63b8ff" d="M42.91,-243.79C36.18,-223.23 22.29,-170.61 42,-134 79.84,-63.69 182.86,-42.96 234.16,-36.93"/>
<polygon fill="#63b8ff" stroke="#63b8ff" points="234.7,-40.39 244.28,-35.85 233.96,-33.43 234.7,-40.39"/>
</a>
</g>
<g id="a_edge7&#45;headlabel"><a xlink:href="dir_000003_000014.html" target="_top" xlink:title="1">
<text text-anchor="middle" x="231.43" y="-41.09" font-family="Helvetica,sans-Serif" font-size="10.00" fill="#63b8ff">1</text>
</a>
</g>
</g>
<!-- dir_7709acc89a6a31d0650f4c2cca19d0cc&#45;&gt;dir_7701f59d9393e5ddc689932b0e266d1c -->
<g id="edge8" class="edge">
<title>dir_7709acc89a6a31d0650f4c2cca19d0cc&#45;&gt;dir_7701f59d9393e5ddc689932b0e266d1c</title>
<g id="a_edge8"><a xlink:href="dir_000004_000011.html" target="_top">
<path fill="none" stroke="#63b8ff" d="M106.25,-133.98C116.8,-126 132.8,-113.88 145.44,-104.31"/>
<polygon fill="#63b8ff" stroke="#63b8ff" points="147.69,-107 153.55,-98.17 143.46,-101.42 147.69,-107"/>
</a>
</g>
<g id="a_edge8&#45;headlabel"><a xlink:href="dir_000004_000011.html" target="_top" xlink:title="1">
<text text-anchor="middle" x="146.54" y="-108.93" font-family="Helvetica,sans-Serif" font-size="10.00" fill="#63b8ff">1</text>
</a>
</g>
</g>
<!-- dir_7709acc89a6a31d0650f4c2cca19d0cc&#45;&gt;dir_dd066fa2eddb65de909f14ca2875dae8 -->
<g id="edge9" class="edge">
<title>dir_7709acc89a6a31d0650f4c2cca19d0cc&#45;&gt;dir_dd066fa2eddb65de909f14ca2875dae8</title>
<g id="a_edge9"><a xlink:href="dir_000004_000014.html" target="_top">
<path fill="none" stroke="#63b8ff" d="M96.63,-133.77C99.63,-120.12 107.31,-93.79 124,-79 155.08,-51.46 203.25,-40.95 234.2,-36.95"/>
<polygon fill="#63b8ff" stroke="#63b8ff" points="234.84,-40.4 244.38,-35.79 234.04,-33.45 234.84,-40.4"/>
</a>
</g>
<g id="a_edge9&#45;headlabel"><a xlink:href="dir_000004_000014.html" target="_top" xlink:title="13">
<text text-anchor="middle" x="231.59" y="-41.13" font-family="Helvetica,sans-Serif" font-size="10.00" fill="#63b8ff">13</text>
</a>
</g>
</g>
<!-- dir_81b89e177fc6eda5675f134952eb7638 -->
<g id="node5" class="node">
<title>dir_81b89e177fc6eda5675f134952eb7638</title>
<g id="a_node5"><a xlink:href="dir_81b89e177fc6eda5675f134952eb7638.html" target="_top" xlink:title="Hardware">
<polygon fill="#4ea9ff" stroke="#404040" points="228,-318 164,-318 164,-299 228,-299 228,-318"/>
<text text-anchor="middle" x="196" y="-306" font-family="Helvetica,sans-Serif" font-size="10.00">Hardware</text>
</a>
</g>
</g>
<!-- dir_f6b86849232e01d1d9477c4c6d3656c6 -->
<g id="node9" class="node">
<title>dir_f6b86849232e01d1d9477c4c6d3656c6</title>
<g id="a_node9"><a xlink:href="dir_f6b86849232e01d1d9477c4c6d3656c6.html" target="_top" xlink:title="Register">
<polygon fill="#4ea9ff" stroke="#404040" points="251.5,-263 194.5,-263 194.5,-244 251.5,-244 251.5,-263"/>
<text text-anchor="middle" x="223" y="-251" font-family="Helvetica,sans-Serif" font-size="10.00">Register</text>
</a>
</g>
</g>
<!-- dir_81b89e177fc6eda5675f134952eb7638&#45;&gt;dir_f6b86849232e01d1d9477c4c6d3656c6 -->
<g id="edge11" class="edge">
<title>dir_81b89e177fc6eda5675f134952eb7638&#45;&gt;dir_f6b86849232e01d1d9477c4c6d3656c6</title>
<g id="a_edge11"><a xlink:href="dir_000005_000010.html" target="_top">
<path fill="none" stroke="#63b8ff" d="M200.46,-298.75C204.12,-291.57 209.41,-281.18 213.95,-272.27"/>
<polygon fill="#63b8ff" stroke="#63b8ff" points="217.2,-273.59 218.62,-263.09 210.97,-270.41 217.2,-273.59"/>
</a>
</g>
<g id="a_edge11&#45;headlabel"><a xlink:href="dir_000005_000010.html" target="_top" xlink:title="1">
<text text-anchor="middle" x="218.1" y="-275.58" font-family="Helvetica,sans-Serif" font-size="10.00" fill="#63b8ff">1</text>
</a>
</g>
</g>
<!-- dir_81b89e177fc6eda5675f134952eb7638&#45;&gt;dir_7701f59d9393e5ddc689932b0e266d1c -->
<g id="edge10" class="edge">
<title>dir_81b89e177fc6eda5675f134952eb7638&#45;&gt;dir_7701f59d9393e5ddc689932b0e266d1c</title>
<g id="a_edge10"><a xlink:href="dir_000005_000011.html" target="_top">
<path fill="none" stroke="#63b8ff" d="M193.98,-298.99C191.88,-290.05 188.55,-275.57 186,-263 181.05,-238.65 179.23,-232.63 176,-208 171.71,-175.28 173.18,-166.84 170,-134 169.18,-125.48 168.14,-116.06 167.22,-108.08"/>
<polygon fill="#63b8ff" stroke="#63b8ff" points="170.68,-107.55 166.04,-98.02 163.73,-108.36 170.68,-107.55"/>
</a>
</g>
<g id="a_edge10&#45;headlabel"><a xlink:href="dir_000005_000011.html" target="_top" xlink:title="2">
<text text-anchor="middle" x="173.92" y="-108.29" font-family="Helvetica,sans-Serif" font-size="10.00" fill="#63b8ff">2</text>
</a>
</g>
</g>
<!-- dir_8b459f05ca4bee01aa453528929bcc6b -->
<g id="node6" class="node">
<title>dir_8b459f05ca4bee01aa453528929bcc6b</title>
<g id="a_node6"><a xlink:href="dir_8b459f05ca4bee01aa453528929bcc6b.html" target="_top" xlink:title="LispWrapper">
<polygon fill="#4ea9ff" stroke="#404040" points="261.5,-208 184.5,-208 184.5,-189 261.5,-189 261.5,-208"/>
<text text-anchor="middle" x="223" y="-196" font-family="Helvetica,sans-Serif" font-size="10.00">LispWrapper</text>
</a>
</g>
</g>
<!-- dir_8b459f05ca4bee01aa453528929bcc6b&#45;&gt;dir_5744949ff81cd51244f4e9eb2964eaae -->
<g id="edge12" class="edge">
<title>dir_8b459f05ca4bee01aa453528929bcc6b&#45;&gt;dir_5744949ff81cd51244f4e9eb2964eaae</title>
<g id="a_edge12"><a xlink:href="dir_000007_000001.html" target="_top">
<path fill="none" stroke="#63b8ff" d="M242.28,-188.98C261.67,-180.42 291.81,-167.11 314.07,-157.28"/>
<polygon fill="#63b8ff" stroke="#63b8ff" points="315.64,-160.41 323.37,-153.17 312.81,-154.01 315.64,-160.41"/>
</a>
</g>
<g id="a_edge12&#45;headlabel"><a xlink:href="dir_000007_000001.html" target="_top" xlink:title="1">
<text text-anchor="middle" x="313.49" y="-161.96" font-family="Helvetica,sans-Serif" font-size="10.00" fill="#63b8ff">1</text>
</a>
</g>
</g>
<!-- dir_8b459f05ca4bee01aa453528929bcc6b&#45;&gt;dir_7709acc89a6a31d0650f4c2cca19d0cc -->
<g id="edge14" class="edge">
<title>dir_8b459f05ca4bee01aa453528929bcc6b&#45;&gt;dir_7709acc89a6a31d0650f4c2cca19d0cc</title>
<g id="a_edge14"><a xlink:href="dir_000007_000004.html" target="_top">
<path fill="none" stroke="#63b8ff" d="M202.43,-188.98C181.57,-180.34 149.03,-166.87 125.23,-157.02"/>
<polygon fill="#63b8ff" stroke="#63b8ff" points="126.52,-153.76 115.94,-153.17 123.84,-160.23 126.52,-153.76"/>
</a>
</g>
<g id="a_edge14&#45;headlabel"><a xlink:href="dir_000007_000004.html" target="_top" xlink:title="1">
<text text-anchor="middle" x="130.93" y="-150.01" font-family="Helvetica,sans-Serif" font-size="10.00" fill="#63b8ff">1</text>
</a>
</g>
</g>
<!-- dir_8b459f05ca4bee01aa453528929bcc6b&#45;&gt;dir_f6b86849232e01d1d9477c4c6d3656c6 -->
<g id="edge16" class="edge">
<title>dir_8b459f05ca4bee01aa453528929bcc6b&#45;&gt;dir_f6b86849232e01d1d9477c4c6d3656c6</title>
<g id="a_edge16"><a xlink:href="dir_000007_000010.html" target="_top">
<path fill="none" stroke="#63b8ff" d="M228.13,-208.09C229.64,-214.99 230.09,-224.93 229.49,-233.66"/>
<polygon fill="#63b8ff" stroke="#63b8ff" points="226,-233.38 228.17,-243.75 232.94,-234.29 226,-233.38"/>
</a>
</g>
<g id="a_edge16&#45;headlabel"><a xlink:href="dir_000007_000010.html" target="_top" xlink:title="1">
<text text-anchor="middle" x="223.65" y="-226.94" font-family="Helvetica,sans-Serif" font-size="10.00" fill="#63b8ff">1</text>
</a>
</g>
</g>
<!-- dir_8b459f05ca4bee01aa453528929bcc6b&#45;&gt;dir_7701f59d9393e5ddc689932b0e266d1c -->
<g id="edge13" class="edge">
<title>dir_8b459f05ca4bee01aa453528929bcc6b&#45;&gt;dir_7701f59d9393e5ddc689932b0e266d1c</title>
<g id="a_edge13"><a xlink:href="dir_000007_000011.html" target="_top">
<path fill="none" stroke="#63b8ff" d="M218.61,-188.83C212.36,-176.55 200.52,-153.45 190,-134 185.21,-125.13 179.74,-115.36 175.14,-107.24"/>
<polygon fill="#63b8ff" stroke="#63b8ff" points="178.05,-105.28 170.07,-98.32 171.97,-108.74 178.05,-105.28"/>
</a>
</g>
<g id="a_edge13&#45;headlabel"><a xlink:href="dir_000007_000011.html" target="_top" xlink:title="1">
<text text-anchor="middle" x="182.3" y="-104.5" font-family="Helvetica,sans-Serif" font-size="10.00" fill="#63b8ff">1</text>
</a>
</g>
</g>
<!-- dir_8b459f05ca4bee01aa453528929bcc6b&#45;&gt;dir_dd066fa2eddb65de909f14ca2875dae8 -->
<g id="edge15" class="edge">
<title>dir_8b459f05ca4bee01aa453528929bcc6b&#45;&gt;dir_dd066fa2eddb65de909f14ca2875dae8</title>
<g id="a_edge15"><a xlink:href="dir_000007_000014.html" target="_top">
<path fill="none" stroke="#63b8ff" d="M225.2,-188.74C231.63,-163.2 250.43,-88.43 259.29,-53.23"/>
<polygon fill="#63b8ff" stroke="#63b8ff" points="262.74,-53.86 261.78,-43.31 255.95,-52.15 262.74,-53.86"/>
</a>
</g>
<g id="a_edge15&#45;headlabel"><a xlink:href="dir_000007_000014.html" target="_top" xlink:title="3">
<text text-anchor="middle" x="264.62" y="-55.54" font-family="Helvetica,sans-Serif" font-size="10.00" fill="#63b8ff">3</text>
</a>
</g>
</g>
<!-- dir_a9dd503c4a2f53b8740674fc20c3b69a -->
<g id="node7" class="node">
<title>dir_a9dd503c4a2f53b8740674fc20c3b69a</title>
<g id="a_node7"><a xlink:href="dir_a9dd503c4a2f53b8740674fc20c3b69a.html" target="_top" xlink:title="MQTTWrapper">
<polygon fill="#4ea9ff" stroke="#404040" points="172,-428 86,-428 86,-409 172,-409 172,-428"/>
<text text-anchor="middle" x="129" y="-416" font-family="Helvetica,sans-Serif" font-size="10.00">MQTTWrapper</text>
</a>
</g>
</g>
<!-- dir_a9dd503c4a2f53b8740674fc20c3b69a&#45;&gt;dir_5744949ff81cd51244f4e9eb2964eaae -->
<g id="edge17" class="edge">
<title>dir_a9dd503c4a2f53b8740674fc20c3b69a&#45;&gt;dir_5744949ff81cd51244f4e9eb2964eaae</title>
<g id="a_edge17"><a xlink:href="dir_000008_000001.html" target="_top">
<path fill="none" stroke="#63b8ff" d="M172.13,-410.35C251.58,-395.94 413,-360.4 413,-309.5 413,-309.5 413,-309.5 413,-252.5 413,-222.33 405.58,-214.21 389,-189 381.8,-178.05 371.48,-167.75 362.43,-159.82"/>
<polygon fill="#63b8ff" stroke="#63b8ff" points="364.52,-157 354.61,-153.25 360.02,-162.37 364.52,-157"/>
</a>
</g>
<g id="a_edge17&#45;headlabel"><a xlink:href="dir_000008_000001.html" target="_top" xlink:title="2">
<text text-anchor="middle" x="369.1" y="-154.64" font-family="Helvetica,sans-Serif" font-size="10.00" fill="#63b8ff">2</text>
</a>
</g>
</g>
<!-- dir_a9dd503c4a2f53b8740674fc20c3b69a&#45;&gt;dir_b1477d39e5aeaf2b48640a6db10eb27c -->
<g id="edge21" class="edge">
<title>dir_a9dd503c4a2f53b8740674fc20c3b69a&#45;&gt;dir_b1477d39e5aeaf2b48640a6db10eb27c</title>
<g id="a_edge21"><a xlink:href="dir_000008_000003.html" target="_top">
<path fill="none" stroke="#63b8ff" d="M115.88,-408.78C104.77,-400.74 89.23,-387.83 80,-373 60.29,-341.31 51.65,-297.81 48.15,-273.29"/>
<polygon fill="#63b8ff" stroke="#63b8ff" points="51.6,-272.66 46.85,-263.19 44.66,-273.56 51.6,-272.66"/>
</a>
</g>
<g id="a_edge21&#45;headlabel"><a xlink:href="dir_000008_000003.html" target="_top" xlink:title="1">
<text text-anchor="middle" x="54.88" y="-273.37" font-family="Helvetica,sans-Serif" font-size="10.00" fill="#63b8ff">1</text>
</a>
</g>
</g>
<!-- dir_a9dd503c4a2f53b8740674fc20c3b69a&#45;&gt;dir_7709acc89a6a31d0650f4c2cca19d0cc -->
<g id="edge20" class="edge">
<title>dir_a9dd503c4a2f53b8740674fc20c3b69a&#45;&gt;dir_7709acc89a6a31d0650f4c2cca19d0cc</title>
<g id="a_edge20"><a xlink:href="dir_000008_000004.html" target="_top">
<path fill="none" stroke="#63b8ff" d="M122.03,-408.82C115.44,-400.2 105.74,-386.39 100,-373 88.58,-346.34 85,-338.5 85,-309.5 85,-309.5 85,-309.5 85,-252.5 85,-221.06 89.25,-184.68 92.21,-163.19"/>
<polygon fill="#63b8ff" stroke="#63b8ff" points="95.7,-163.55 93.65,-153.15 88.77,-162.56 95.7,-163.55"/>
</a>
</g>
<g id="a_edge20&#45;headlabel"><a xlink:href="dir_000008_000004.html" target="_top" xlink:title="1">
<text text-anchor="middle" x="98" y="-165.01" font-family="Helvetica,sans-Serif" font-size="10.00" fill="#63b8ff">1</text>
</a>
</g>
</g>
<!-- dir_6d8a861c12abf7befdc85482ddacc44a -->
<g id="node8" class="node">
<title>dir_6d8a861c12abf7befdc85482ddacc44a</title>
<g id="a_node8"><a xlink:href="dir_6d8a861c12abf7befdc85482ddacc44a.html" target="_top" xlink:title="Network">
<polygon fill="#4ea9ff" stroke="#404040" points="182,-373 124,-373 124,-354 182,-354 182,-373"/>
<text text-anchor="middle" x="153" y="-361" font-family="Helvetica,sans-Serif" font-size="10.00">Network</text>
</a>
</g>
</g>
<!-- dir_a9dd503c4a2f53b8740674fc20c3b69a&#45;&gt;dir_6d8a861c12abf7befdc85482ddacc44a -->
<g id="edge18" class="edge">
<title>dir_a9dd503c4a2f53b8740674fc20c3b69a&#45;&gt;dir_6d8a861c12abf7befdc85482ddacc44a</title>
<g id="a_edge18"><a xlink:href="dir_000008_000009.html" target="_top">
<path fill="none" stroke="#63b8ff" d="M132.96,-408.75C136.21,-401.57 140.92,-391.18 144.95,-382.27"/>
<polygon fill="#63b8ff" stroke="#63b8ff" points="148.17,-383.64 149.11,-373.09 141.8,-380.75 148.17,-383.64"/>
</a>
</g>
<g id="a_edge18&#45;headlabel"><a xlink:href="dir_000008_000009.html" target="_top" xlink:title="1">
<text text-anchor="middle" x="149.28" y="-385.59" font-family="Helvetica,sans-Serif" font-size="10.00" fill="#63b8ff">1</text>
</a>
</g>
</g>
<!-- dir_a9dd503c4a2f53b8740674fc20c3b69a&#45;&gt;dir_7701f59d9393e5ddc689932b0e266d1c -->
<g id="edge19" class="edge">
<title>dir_a9dd503c4a2f53b8740674fc20c3b69a&#45;&gt;dir_7701f59d9393e5ddc689932b0e266d1c</title>
<g id="a_edge19"><a xlink:href="dir_000008_000011.html" target="_top">
<path fill="none" stroke="#63b8ff" d="M125.4,-408.82C121.94,-399.99 116.97,-385.81 115,-373 113.72,-364.65 114.21,-362.41 115,-354 123.76,-260.46 149.6,-150.72 160.29,-107.91"/>
<polygon fill="#63b8ff" stroke="#63b8ff" points="163.71,-108.65 162.77,-98.09 156.92,-106.93 163.71,-108.65"/>
</a>
</g>
<g id="a_edge19&#45;headlabel"><a xlink:href="dir_000008_000011.html" target="_top" xlink:title="1">
<text text-anchor="middle" x="165.58" y="-110.33" font-family="Helvetica,sans-Serif" font-size="10.00" fill="#63b8ff">1</text>
</a>
</g>
</g>
<!-- dir_a9dd503c4a2f53b8740674fc20c3b69a&#45;&gt;dir_dd066fa2eddb65de909f14ca2875dae8 -->
<g id="edge22" class="edge">
<title>dir_a9dd503c4a2f53b8740674fc20c3b69a&#45;&gt;dir_dd066fa2eddb65de909f14ca2875dae8</title>
<g id="a_edge22"><a xlink:href="dir_000008_000014.html" target="_top">
<path fill="none" stroke="#63b8ff" d="M172.33,-414.83C218.66,-410.64 293.35,-399.96 352,-373 393.56,-353.89 433,-355.24 433,-309.5 433,-309.5 433,-309.5 433,-142.5 433,-77.13 342.12,-49.56 293.65,-39.5"/>
<polygon fill="#63b8ff" stroke="#63b8ff" points="294.2,-36.04 283.72,-37.56 292.86,-42.91 294.2,-36.04"/>
</a>
</g>
<g id="a_edge22&#45;headlabel"><a xlink:href="dir_000008_000014.html" target="_top" xlink:title="4">
<text text-anchor="middle" x="298.27" y="-31.44" font-family="Helvetica,sans-Serif" font-size="10.00" fill="#63b8ff">4</text>
</a>
</g>
</g>
<!-- dir_6d8a861c12abf7befdc85482ddacc44a&#45;&gt;dir_7709acc89a6a31d0650f4c2cca19d0cc -->
<g id="edge25" class="edge">
<title>dir_6d8a861c12abf7befdc85482ddacc44a&#45;&gt;dir_7709acc89a6a31d0650f4c2cca19d0cc</title>
<g id="a_edge25"><a xlink:href="dir_000009_000004.html" target="_top">
<path fill="none" stroke="#63b8ff" d="M150.43,-353.99C147.75,-345.05 143.47,-330.57 140,-318 124.53,-261.89 107.65,-195.16 99.67,-163.28"/>
<polygon fill="#63b8ff" stroke="#63b8ff" points="102.97,-162.05 97.15,-153.19 96.18,-163.74 102.97,-162.05"/>
</a>
</g>
<g id="a_edge25&#45;headlabel"><a xlink:href="dir_000009_000004.html" target="_top" xlink:title="3">
<text text-anchor="middle" x="106.6" y="-162.35" font-family="Helvetica,sans-Serif" font-size="10.00" fill="#63b8ff">3</text>
</a>
</g>
</g>
<!-- dir_6d8a861c12abf7befdc85482ddacc44a&#45;&gt;dir_81b89e177fc6eda5675f134952eb7638 -->
<g id="edge26" class="edge">
<title>dir_6d8a861c12abf7befdc85482ddacc44a&#45;&gt;dir_81b89e177fc6eda5675f134952eb7638</title>
<g id="a_edge26"><a xlink:href="dir_000009_000005.html" target="_top">
<path fill="none" stroke="#63b8ff" d="M160.1,-353.75C166.17,-346.26 175.09,-335.28 182.51,-326.13"/>
<polygon fill="#63b8ff" stroke="#63b8ff" points="185.45,-328.06 189.03,-318.09 180.01,-323.65 185.45,-328.06"/>
</a>
</g>
<g id="a_edge26&#45;headlabel"><a xlink:href="dir_000009_000005.html" target="_top" xlink:title="1">
<text text-anchor="middle" x="185.39" y="-330.14" font-family="Helvetica,sans-Serif" font-size="10.00" fill="#63b8ff">1</text>
</a>
</g>
</g>
<!-- dir_6d8a861c12abf7befdc85482ddacc44a&#45;&gt;dir_7701f59d9393e5ddc689932b0e266d1c -->
<g id="edge24" class="edge">
<title>dir_6d8a861c12abf7befdc85482ddacc44a&#45;&gt;dir_7701f59d9393e5ddc689932b0e266d1c</title>
<g id="a_edge24"><a xlink:href="dir_000009_000011.html" target="_top">
<path fill="none" stroke="#63b8ff" d="M153.23,-353.87C153.56,-341.65 154.22,-318.62 155,-299 157.78,-228.74 162.06,-145.28 163.99,-108.5"/>
<polygon fill="#63b8ff" stroke="#63b8ff" points="167.5,-108.45 164.53,-98.28 160.51,-108.08 167.5,-108.45"/>
</a>
</g>
<g id="a_edge24&#45;headlabel"><a xlink:href="dir_000009_000011.html" target="_top" xlink:title="3">
<text text-anchor="middle" x="170.14" y="-109.69" font-family="Helvetica,sans-Serif" font-size="10.00" fill="#63b8ff">3</text>
</a>
</g>
</g>
<!-- dir_6d8a861c12abf7befdc85482ddacc44a&#45;&gt;dir_53788d271d5e379cf5a6be5d6c342eea -->
<g id="edge23" class="edge">
<title>dir_6d8a861c12abf7befdc85482ddacc44a&#45;&gt;dir_53788d271d5e379cf5a6be5d6c342eea</title>
<g id="a_edge23"><a xlink:href="dir_000009_000012.html" target="_top">
<path fill="none" stroke="#63b8ff" d="M173.48,-354C191.22,-346.1 217.1,-333.28 237,-318 277.25,-287.09 315.51,-240.74 334.52,-216.17"/>
<polygon fill="#63b8ff" stroke="#63b8ff" points="337.34,-218.25 340.62,-208.17 331.77,-214 337.34,-218.25"/>
</a>
</g>
<g id="a_edge23&#45;headlabel"><a xlink:href="dir_000009_000012.html" target="_top" xlink:title="2">
<text text-anchor="middle" x="337.41" y="-220.33" font-family="Helvetica,sans-Serif" font-size="10.00" fill="#63b8ff">2</text>
</a>
</g>
</g>
<!-- dir_f6b86849232e01d1d9477c4c6d3656c6&#45;&gt;dir_5744949ff81cd51244f4e9eb2964eaae -->
<g id="edge27" class="edge">
<title>dir_f6b86849232e01d1d9477c4c6d3656c6&#45;&gt;dir_5744949ff81cd51244f4e9eb2964eaae</title>
<g id="a_edge27"><a xlink:href="dir_000010_000001.html" target="_top">
<path fill="none" stroke="#63b8ff" d="M236.93,-243.95C250.16,-235.55 270.29,-221.98 286,-208 302.34,-193.46 318.79,-174.57 329.79,-161.18"/>
<polygon fill="#63b8ff" stroke="#63b8ff" points="332.62,-163.26 336.18,-153.28 327.17,-158.86 332.62,-163.26"/>
</a>
</g>
<g id="a_edge27&#45;headlabel"><a xlink:href="dir_000010_000001.html" target="_top" xlink:title="1">
<text text-anchor="middle" x="332.57" y="-165.34" font-family="Helvetica,sans-Serif" font-size="10.00" fill="#63b8ff">1</text>
</a>
</g>
</g>
<!-- dir_f6b86849232e01d1d9477c4c6d3656c6&#45;&gt;dir_8b459f05ca4bee01aa453528929bcc6b -->
<g id="edge28" class="edge">
<title>dir_f6b86849232e01d1d9477c4c6d3656c6&#45;&gt;dir_8b459f05ca4bee01aa453528929bcc6b</title>
<g id="a_edge28"><a xlink:href="dir_000010_000007.html" target="_top">
<path fill="none" stroke="#63b8ff" d="M217.83,-243.75C216.34,-236.8 215.9,-226.85 216.52,-218.13"/>
<polygon fill="#63b8ff" stroke="#63b8ff" points="220.01,-218.47 217.87,-208.09 213.07,-217.53 220.01,-218.47"/>
</a>
</g>
<g id="a_edge28&#45;headlabel"><a xlink:href="dir_000010_000007.html" target="_top" xlink:title="1">
<text text-anchor="middle" x="222.34" y="-219.91" font-family="Helvetica,sans-Serif" font-size="10.00" fill="#63b8ff">1</text>
</a>
</g>
</g>
<!-- dir_f6b86849232e01d1d9477c4c6d3656c6&#45;&gt;dir_dd066fa2eddb65de909f14ca2875dae8 -->
<g id="edge29" class="edge">
<title>dir_f6b86849232e01d1d9477c4c6d3656c6&#45;&gt;dir_dd066fa2eddb65de909f14ca2875dae8</title>
<g id="a_edge29"><a xlink:href="dir_000010_000014.html" target="_top">
<path fill="none" stroke="#63b8ff" d="M237.37,-243.96C248.87,-236.21 264.18,-223.62 271,-208 293.86,-155.63 279.03,-85.68 269.79,-52.9"/>
<polygon fill="#63b8ff" stroke="#63b8ff" points="273.14,-51.88 266.93,-43.29 266.43,-53.88 273.14,-51.88"/>
</a>
</g>
<g id="a_edge29&#45;headlabel"><a xlink:href="dir_000010_000014.html" target="_top" xlink:title="4">
<text text-anchor="middle" x="276.88" y="-52.02" font-family="Helvetica,sans-Serif" font-size="10.00" fill="#63b8ff">4</text>
</a>
</g>
</g>
<!-- dir_7701f59d9393e5ddc689932b0e266d1c&#45;&gt;dir_dd066fa2eddb65de909f14ca2875dae8 -->
<g id="edge30" class="edge">
<title>dir_7701f59d9393e5ddc689932b0e266d1c&#45;&gt;dir_dd066fa2eddb65de909f14ca2875dae8</title>
<g id="a_edge30"><a xlink:href="dir_000011_000014.html" target="_top">
<path fill="none" stroke="#63b8ff" d="M180.91,-78.98C196.55,-70.61 220.66,-57.7 238.88,-47.95"/>
<polygon fill="#63b8ff" stroke="#63b8ff" points="240.64,-50.98 247.8,-43.17 237.34,-44.8 240.64,-50.98"/>
</a>
</g>
<g id="a_edge30&#45;headlabel"><a xlink:href="dir_000011_000014.html" target="_top" xlink:title="1">
<text text-anchor="middle" x="238.81" y="-52.68" font-family="Helvetica,sans-Serif" font-size="10.00" fill="#63b8ff">1</text>
</a>
</g>
</g>
<!-- dir_53788d271d5e379cf5a6be5d6c342eea&#45;&gt;dir_5744949ff81cd51244f4e9eb2964eaae -->
<g id="edge31" class="edge">
<title>dir_53788d271d5e379cf5a6be5d6c342eea&#45;&gt;dir_5744949ff81cd51244f4e9eb2964eaae</title>
<g id="a_edge31"><a xlink:href="dir_000012_000001.html" target="_top">
<path fill="none" stroke="#63b8ff" d="M346.34,-188.75C345.82,-181.8 345.06,-171.85 344.41,-163.13"/>
<polygon fill="#63b8ff" stroke="#63b8ff" points="347.89,-162.8 343.65,-153.09 340.91,-163.32 347.89,-162.8"/>
</a>
</g>
<g id="a_edge31&#45;headlabel"><a xlink:href="dir_000012_000001.html" target="_top" xlink:title="1">
<text text-anchor="middle" x="350.99" y="-163.67" font-family="Helvetica,sans-Serif" font-size="10.00" fill="#63b8ff">1</text>
</a>
</g>
</g>
<!-- dir_53788d271d5e379cf5a6be5d6c342eea&#45;&gt;dir_dd066fa2eddb65de909f14ca2875dae8 -->
<g id="edge32" class="edge">
<title>dir_53788d271d5e379cf5a6be5d6c342eea&#45;&gt;dir_dd066fa2eddb65de909f14ca2875dae8</title>
<g id="a_edge32"><a xlink:href="dir_000012_000014.html" target="_top">
<path fill="none" stroke="#63b8ff" d="M361.6,-188.96C379.37,-177.38 405.75,-155.66 395,-134 373.83,-91.34 324.66,-62.04 292.95,-46.79"/>
<polygon fill="#63b8ff" stroke="#63b8ff" points="294.26,-43.54 283.72,-42.51 291.32,-49.9 294.26,-43.54"/>
</a>
</g>
<g id="a_edge32&#45;headlabel"><a xlink:href="dir_000012_000014.html" target="_top" xlink:title="1">
<text text-anchor="middle" x="298.72" y="-39.98" font-family="Helvetica,sans-Serif" font-size="10.00" fill="#63b8ff">1</text>
</a>
</g>
</g>
</g>
</svg>
