<?xml version="1.0" encoding="UTF-8" standalone="no"?>
<!DOCTYPE svg PUBLIC "-//W3C//DTD SVG 1.1//EN"
 "http://www.w3.org/Graphics/SVG/1.1/DTD/svg11.dtd">
<!-- Generated by graphviz version 2.43.0 (0)
 -->
<!-- Title: Utilities Pages: 1 -->
<svg width="255pt" height="495pt"
 viewBox="0.00 0.00 255.00 495.00" xmlns="http://www.w3.org/2000/svg" xmlns:xlink="http://www.w3.org/1999/xlink">
<g id="graph0" class="graph" transform="scale(1 1) rotate(0) translate(4 491)">
<title>Utilities</title>
<!-- Node4 -->
<g id="Node000004" class="node">
<title>Node4</title>
<g id="a_Node000004"><a xlink:href="group__common.html" target="_top" xlink:title="Common utilities and macros for the Uniot Core.">
<polygon fill="white" stroke="#666666" points="199.5,-487 138.5,-487 138.5,-468 199.5,-468 199.5,-487"/>
<text text-anchor="middle" x="169" y="-475" font-family="Helvetica,sans-Serif" font-size="10.00">Common</text>
</a>
</g>
</g>
<!-- Node5 -->
<g id="Node000005" class="node">
<title>Node5</title>
<g id="a_Node000005"><a xlink:href="group__date-time.html" target="_top" xlink:title="A class for managing date and time in Uniot devices.">
<polygon fill="white" stroke="#666666" points="247,-450 91,-450 91,-431 247,-431 247,-450"/>
<text text-anchor="middle" x="169" y="-438" font-family="Helvetica,sans-Serif" font-size="10.00">Date and Time Management</text>
</a>
</g>
</g>
<!-- Node1 -->
<g id="Node000001" class="node">
<title>Node1</title>
<g id="a_Node000001"><a xlink:title="Common utility components and functions for the Uniot Core.">
<polygon fill="#999999" stroke="#666666" points="55,-247 0,-247 0,-228 55,-228 55,-247"/>
<text text-anchor="middle" x="27.5" y="-235" font-family="Helvetica,sans-Serif" font-size="10.00">Utilities</text>
</a>
</g>
</g>
<!-- Node1&#45;&gt;Node4 -->
<g id="edge3" class="edge">
<title>Node1&#45;&gt;Node4</title>
<path fill="none" stroke="black" d="M27.85,-257.3C27.58,-300.62 33.35,-404.38 91,-459.5 103.5,-471.45 122.35,-476 138.27,-477.54"/>
<polygon fill="black" stroke="black" points="31.35,-257.27 28.04,-247.21 24.35,-257.14 31.35,-257.27"/>
</g>
<!-- Node1&#45;&gt;Node5 -->
<g id="edge4" class="edge">
<title>Node1&#45;&gt;Node5</title>
<path fill="none" stroke="black" d="M29.19,-257.59C31.63,-295.67 42.56,-378.5 91,-422.5 94.66,-425.82 98.81,-428.57 103.25,-430.83"/>
<polygon fill="black" stroke="black" points="32.67,-257.11 28.67,-247.3 25.68,-257.46 32.67,-257.11"/>
</g>
<!-- Node6 -->
<g id="Node000006" class="node">
<title>Node6</title>
<g id="a_Node000006"><a xlink:href="group__utils__array.html" target="_top" xlink:title="A simple Array class that manages a dynamically allocated array and its size.">
<polygon fill="white" stroke="#666666" points="190.5,-413 147.5,-413 147.5,-394 190.5,-394 190.5,-413"/>
<text text-anchor="middle" x="169" y="-401" font-family="Helvetica,sans-Serif" font-size="10.00">Array</text>
</a>
</g>
</g>
<!-- Node1&#45;&gt;Node6 -->
<g id="edge5" class="edge">
<title>Node1&#45;&gt;Node6</title>
<path fill="none" stroke="black" d="M31.06,-257.11C36.31,-289.04 51.32,-352.05 91,-385.5 106.74,-398.77 130.47,-402.67 147.43,-403.62"/>
<polygon fill="black" stroke="black" points="34.52,-256.59 29.59,-247.21 27.6,-257.62 34.52,-256.59"/>
</g>
<!-- Node7 -->
<g id="Node000007" class="node">
<title>Node7</title>
<g id="a_Node000007"><a xlink:href="group__utils__bytes.html" target="_top" xlink:title="A class for managing and manipulating byte arrays.">
<polygon fill="white" stroke="#666666" points="191,-376 147,-376 147,-357 191,-357 191,-376"/>
<text text-anchor="middle" x="169" y="-364" font-family="Helvetica,sans-Serif" font-size="10.00">Bytes</text>
</a>
</g>
</g>
<!-- Node1&#45;&gt;Node7 -->
<g id="edge6" class="edge">
<title>Node1&#45;&gt;Node7</title>
<path fill="none" stroke="black" d="M34.22,-256.93C42.56,-281.8 60.49,-324.4 91,-347.5 107.14,-359.72 130.13,-364.17 146.79,-365.74"/>
<polygon fill="black" stroke="black" points="37.49,-255.66 31.14,-247.18 30.81,-257.77 37.49,-255.66"/>
</g>
<!-- Node2 -->
<g id="Node000002" class="node">
<title>Node2</title>
<g id="a_Node000002"><a xlink:href="group__utils__cbor__wrapper.html" target="_top" xlink:title="A wrapper class for CBOR (Concise Binary Object Representation) data manipulation.">
<polygon fill="white" stroke="#666666" points="235,-338.5 103,-338.5 103,-308.5 235,-308.5 235,-338.5"/>
<text text-anchor="start" x="111" y="-326.5" font-family="Helvetica,sans-Serif" font-size="10.00">CBOR (Concise Binary</text>
<text text-anchor="middle" x="169" y="-315.5" font-family="Helvetica,sans-Serif" font-size="10.00"> Object Representation)</text>
</a>
</g>
</g>
<!-- Node1&#45;&gt;Node2 -->
<g id="edge1" class="edge">
<title>Node1&#45;&gt;Node2</title>
<path fill="none" stroke="black" d="M42.28,-255.23C53.9,-269.09 71.7,-287.88 91,-299.5 96.64,-302.89 102.8,-305.85 109.11,-308.42"/>
<polygon fill="black" stroke="black" points="44.9,-252.91 35.88,-247.35 39.47,-257.32 44.9,-252.91"/>
</g>
<!-- Node8 -->
<g id="Node000008" class="node">
<title>Node8</title>
<g id="a_Node000008"><a xlink:href="group__utils__clearqueue.html" target="_top" xlink:title="A lightweight queue implementation optimized for resource&#45;constrained environments.">
<polygon fill="white" stroke="#666666" points="206,-290 132,-290 132,-271 206,-271 206,-290"/>
<text text-anchor="middle" x="169" y="-278" font-family="Helvetica,sans-Serif" font-size="10.00">ClearQueue</text>
</a>
</g>
</g>
<!-- Node1&#45;&gt;Node8 -->
<g id="edge7" class="edge">
<title>Node1&#45;&gt;Node8</title>
<path fill="none" stroke="black" d="M60.97,-250.85C70.55,-254.55 81.12,-258.4 91,-261.5 104.14,-265.63 118.76,-269.43 131.7,-272.53"/>
<polygon fill="black" stroke="black" points="62,-247.49 51.41,-247.09 59.43,-254.01 62,-247.49"/>
</g>
<!-- Node3 -->
<g id="Node000003" class="node">
<title>Node3</title>
<g id="a_Node000003"><a xlink:href="group__utils__cose.html" target="_top" xlink:title="CBOR Object Signing and Encryption (COSE) implementation.">
<polygon fill="white" stroke="#666666" points="244.5,-252.5 93.5,-252.5 93.5,-222.5 244.5,-222.5 244.5,-252.5"/>
<text text-anchor="start" x="101.5" y="-240.5" font-family="Helvetica,sans-Serif" font-size="10.00">COSE (CBOR Object Signing</text>
<text text-anchor="middle" x="169" y="-229.5" font-family="Helvetica,sans-Serif" font-size="10.00"> and Encryption)</text>
</a>
</g>
</g>
<!-- Node1&#45;&gt;Node3 -->
<g id="edge2" class="edge">
<title>Node1&#45;&gt;Node3</title>
<path fill="none" stroke="black" d="M65.21,-237.5C73.94,-237.5 83.56,-237.5 93.31,-237.5"/>
<polygon fill="black" stroke="black" points="65.07,-234 55.07,-237.5 65.07,-241 65.07,-234"/>
</g>
<!-- Node10 -->
<g id="Node000010" class="node">
<title>Node10</title>
<g id="a_Node000010"><a xlink:href="group__utils__iterablequeue.html" target="_top" xlink:title="A queue implementation with iteration capabilities.">
<polygon fill="white" stroke="#666666" points="212,-204 126,-204 126,-185 212,-185 212,-204"/>
<text text-anchor="middle" x="169" y="-192" font-family="Helvetica,sans-Serif" font-size="10.00">IterableQueue</text>
</a>
</g>
</g>
<!-- Node1&#45;&gt;Node10 -->
<g id="edge9" class="edge">
<title>Node1&#45;&gt;Node10</title>
<path fill="none" stroke="black" d="M60.97,-224.15C70.55,-220.45 81.12,-216.6 91,-213.5 102.17,-209.99 114.41,-206.72 125.78,-203.91"/>
<polygon fill="black" stroke="black" points="59.43,-220.99 51.41,-227.91 62,-227.51 59.43,-220.99"/>
</g>
<!-- Node11 -->
<g id="Node000011" class="node">
<title>Node11</title>
<g id="a_Node000011"><a xlink:href="group__utils__limitedqueue.html" target="_top" xlink:title="A queue with a maximum size limit that automatically removes oldest elements when full.">
<polygon fill="white" stroke="#666666" points="211.5,-167 126.5,-167 126.5,-148 211.5,-148 211.5,-167"/>
<text text-anchor="middle" x="169" y="-155" font-family="Helvetica,sans-Serif" font-size="10.00">LimitedQueue</text>
</a>
</g>
</g>
<!-- Node1&#45;&gt;Node11 -->
<g id="edge10" class="edge">
<title>Node1&#45;&gt;Node11</title>
<path fill="none" stroke="black" d="M42.15,-219.75C53.71,-205.94 71.47,-187.36 91,-176.5 101.71,-170.54 114.28,-166.43 126.12,-163.6"/>
<polygon fill="black" stroke="black" points="39.36,-217.64 35.8,-227.62 44.81,-222.03 39.36,-217.64"/>
</g>
<!-- Node12 -->
<g id="Node000012" class="node">
<title>Node12</title>
<g id="a_Node000012"><a xlink:href="group__utils__map.html" target="_top" xlink:title="A simple map class that associates keys with values using an iterable queue.">
<polygon fill="white" stroke="#666666" points="188,-130 150,-130 150,-111 188,-111 188,-130"/>
<text text-anchor="middle" x="169" y="-118" font-family="Helvetica,sans-Serif" font-size="10.00">Map</text>
</a>
</g>
</g>
<!-- Node1&#45;&gt;Node12 -->
<g id="edge11" class="edge">
<title>Node1&#45;&gt;Node12</title>
<path fill="none" stroke="black" d="M35.47,-218.55C44.7,-196.18 63.12,-159.51 91,-139.5 108.45,-126.98 133.23,-122.66 149.92,-121.2"/>
<polygon fill="black" stroke="black" points="32.17,-217.39 31.78,-227.98 38.69,-219.94 32.17,-217.39"/>
</g>
<!-- Node9 -->
<g id="Node000009" class="node">
<title>Node9</title>
<g id="a_Node000009"><a xlink:href="group__utils__memory__manager.html" target="_top" xlink:title="Memory manager for a global static buffer with dynamic allocation capabilities.">
<polygon fill="white" stroke="#666666" points="220.5,-93 117.5,-93 117.5,-74 220.5,-74 220.5,-93"/>
<text text-anchor="middle" x="169" y="-81" font-family="Helvetica,sans-Serif" font-size="10.00">Memory Manager</text>
</a>
</g>
</g>
<!-- Node1&#45;&gt;Node9 -->
<g id="edge8" class="edge">
<title>Node1&#45;&gt;Node9</title>
<path fill="none" stroke="black" d="M31.99,-218C38.33,-188.43 54.6,-132.51 91,-102.5 98.54,-96.28 107.82,-92.05 117.3,-89.18"/>
<polygon fill="black" stroke="black" points="28.53,-217.45 30.02,-227.94 35.4,-218.8 28.53,-217.45"/>
</g>
<!-- Node13 -->
<g id="Node000013" class="node">
<title>Node13</title>
<g id="a_Node000013"><a xlink:href="group__utils__singleton.html" target="_top" xlink:title="Template class implementing the Singleton design pattern.">
<polygon fill="white" stroke="#666666" points="200,-56 138,-56 138,-37 200,-37 200,-56"/>
<text text-anchor="middle" x="169" y="-44" font-family="Helvetica,sans-Serif" font-size="10.00">Singleton</text>
</a>
</g>
</g>
<!-- Node1&#45;&gt;Node13 -->
<g id="edge12" class="edge">
<title>Node1&#45;&gt;Node13</title>
<path fill="none" stroke="black" d="M29.8,-217.88C33.25,-182.08 45.79,-106.13 91,-65.5 103.7,-54.09 122.16,-49.27 137.82,-47.34"/>
<polygon fill="black" stroke="black" points="26.3,-217.74 28.96,-227.99 33.27,-218.31 26.3,-217.74"/>
</g>
<!-- Node14 -->
<g id="Node000014" class="node">
<title>Node14</title>
<g id="a_Node000014"><a xlink:href="group__utils__typeid.html" target="_top" xlink:title="Provides a lightweight type identification system for runtime type checking and safe casting.">
<polygon fill="white" stroke="#666666" points="193,-19 145,-19 145,0 193,0 193,-19"/>
<text text-anchor="middle" x="169" y="-7" font-family="Helvetica,sans-Serif" font-size="10.00">TypeId</text>
</a>
</g>
</g>
<!-- Node1&#45;&gt;Node14 -->
<g id="edge13" class="edge">
<title>Node1&#45;&gt;Node14</title>
<path fill="none" stroke="black" d="M28.32,-217.79C29.05,-176.41 36.86,-80.07 91,-28.5 105.36,-14.83 127.93,-10.52 144.93,-9.38"/>
<polygon fill="black" stroke="black" points="24.81,-217.9 28.26,-227.92 31.81,-217.94 24.81,-217.9"/>
</g>
</g>
</svg>
