<?xml version="1.0" encoding="UTF-8" standalone="no"?>
<!DOCTYPE svg PUBLIC "-//W3C//DTD SVG 1.1//EN"
 "http://www.w3.org/Graphics/SVG/1.1/DTD/svg11.dtd">
<!-- Generated by graphviz version 2.43.0 (0)
 -->
<!-- Title: Date and Time Management Pages: 1 -->
<svg width="391pt" height="64pt"
 viewBox="0.00 0.00 391.00 64.00" xmlns="http://www.w3.org/2000/svg" xmlns:xlink="http://www.w3.org/1999/xlink">
<g id="graph0" class="graph" transform="scale(1 1) rotate(0) translate(4 60)">
<title>Date and Time Management</title>
<!-- Node1 -->
<g id="Node000001" class="node">
<title>Node1</title>
<g id="a_Node000001"><a xlink:title="A class for managing date and time in Uniot devices.">
<polygon fill="#999999" stroke="#666666" points="247,-37 91,-37 91,-18 247,-18 247,-37"/>
<text text-anchor="middle" x="169" y="-25" font-family="Helvetica,sans-Serif" font-size="10.00">Date and Time Management</text>
</a>
</g>
</g>
<!-- Node3 -->
<g id="Node000003" class="node">
<title>Node3</title>
<g id="a_Node000003"><a xlink:href="group__date-time-main.html" target="_top" xlink:title="Time and date management class for Uniot devices.">
<polygon fill="white" stroke="#666666" points="383,-56 283,-56 283,-37 383,-37 383,-56"/>
<text text-anchor="middle" x="333" y="-44" font-family="Helvetica,sans-Serif" font-size="10.00">Main Component</text>
</a>
</g>
</g>
<!-- Node1&#45;&gt;Node3 -->
<g id="edge2" class="edge">
<title>Node1&#45;&gt;Node3</title>
<path fill="none" stroke="black" d="M257.38,-37.75C266.04,-38.76 274.59,-39.77 282.65,-40.71"/>
<polygon fill="black" stroke="black" points="257.54,-34.24 247.2,-36.55 256.73,-41.2 257.54,-34.24"/>
</g>
<!-- Node4 -->
<g id="Node000004" class="node">
<title>Node4</title>
<g id="a_Node000004"><a xlink:href="group__date-time-ntp.html" target="_top" xlink:title="Simple Network Time Protocol client for obtaining time from NTP servers.">
<polygon fill="white" stroke="#666666" points="369.5,-19 296.5,-19 296.5,0 369.5,0 369.5,-19"/>
<text text-anchor="middle" x="333" y="-7" font-family="Helvetica,sans-Serif" font-size="10.00">Simple NTP</text>
</a>
</g>
</g>
<!-- Node1&#45;&gt;Node4 -->
<g id="edge3" class="edge">
<title>Node1&#45;&gt;Node4</title>
<path fill="none" stroke="black" d="M257.23,-17.81C270.98,-16.28 284.49,-14.78 296.16,-13.48"/>
<polygon fill="black" stroke="black" points="256.76,-14.34 247.2,-18.92 257.53,-21.3 256.76,-14.34"/>
</g>
<!-- Node2 -->
<g id="Node000002" class="node">
<title>Node2</title>
<g id="a_Node000002"><a xlink:href="group__utils.html" target="_top" xlink:title="Common utility components and functions for the Uniot Core.">
<polygon fill="white" stroke="#666666" points="55,-37 0,-37 0,-18 55,-18 55,-37"/>
<text text-anchor="middle" x="27.5" y="-25" font-family="Helvetica,sans-Serif" font-size="10.00">Utilities</text>
</a>
</g>
</g>
<!-- Node2&#45;&gt;Node1 -->
<g id="edge1" class="edge">
<title>Node2&#45;&gt;Node1</title>
<path fill="none" stroke="black" d="M65.15,-27.5C73.19,-27.5 81.99,-27.5 90.96,-27.5"/>
<polygon fill="black" stroke="black" points="65.07,-24 55.07,-27.5 65.07,-31 65.07,-24"/>
</g>
</g>
</svg>
