<?xml version="1.0" encoding="UTF-8" standalone="no"?>
<!DOCTYPE svg PUBLIC "-//W3C//DTD SVG 1.1//EN"
 "http://www.w3.org/Graphics/SVG/1.1/DTD/svg11.dtd">
<!-- Generated by graphviz version 2.43.0 (0)
 -->
<!-- Title: Graphical Class Hierarchy Pages: 1 -->
<svg width="453pt" height="123pt"
 viewBox="0.00 0.00 453.00 123.00" xmlns="http://www.w3.org/2000/svg" xmlns:xlink="http://www.w3.org/1999/xlink">
<g id="graph0" class="graph" transform="scale(1 1) rotate(0) translate(4 119)">
<title>Graphical Class Hierarchy</title>
<!-- Node0 -->
<g id="Node000000" class="node">
<title>Node0</title>
<g id="a_Node000000"><a xlink:href="class_clear_queue.html" target="_top" xlink:title=" ">
<polygon fill="white" stroke="#666666" points="102,-56 0,-56 0,-37 102,-37 102,-56"/>
<text text-anchor="middle" x="51" y="-44" font-family="Helvetica,sans-Serif" font-size="10.00">ClearQueue&lt; T &gt;</text>
</a>
</g>
</g>
<!-- Node1 -->
<g id="Node000001" class="node">
<title>Node1</title>
<g id="a_Node000001"><a xlink:href="class_iterable_queue.html" target="_top" xlink:title=" ">
<polygon fill="white" stroke="#666666" points="285,-115 138,-115 138,-74 285,-74 285,-115"/>
<text text-anchor="start" x="146" y="-103" font-family="Helvetica,sans-Serif" font-size="10.00">IterableQueue&lt; Pair</text>
<text text-anchor="start" x="146" y="-92" font-family="Helvetica,sans-Serif" font-size="10.00">&lt; String, SharedPointer</text>
<text text-anchor="middle" x="211.5" y="-81" font-family="Helvetica,sans-Serif" font-size="10.00">&lt; uniot::Array&lt; T &gt; &gt; &gt; &gt;</text>
</a>
</g>
</g>
<!-- Node0&#45;&gt;Node1 -->
<g id="edge14_Node000000_Node000001" class="edge">
<title>Node0&#45;&gt;Node1</title>
<g id="a_edge14_Node000000_Node000001"><a xlink:title=" ">
<path fill="none" stroke="#63b8ff" d="M93.64,-59.11C108.6,-63.64 125.89,-68.88 142.5,-73.91"/>
<polygon fill="#63b8ff" stroke="#63b8ff" points="94.28,-55.65 83.69,-56.1 92.25,-62.35 94.28,-55.65"/>
</a>
</g>
</g>
<!-- Node3 -->
<g id="Node000003" class="node">
<title>Node3</title>
<g id="a_Node000003"><a xlink:href="class_iterable_queue.html" target="_top" xlink:title=" ">
<polygon fill="white" stroke="#666666" points="268.5,-56 154.5,-56 154.5,-37 268.5,-37 268.5,-56"/>
<text text-anchor="middle" x="211.5" y="-44" font-family="Helvetica,sans-Serif" font-size="10.00">IterableQueue&lt; T &gt;</text>
</a>
</g>
</g>
<!-- Node0&#45;&gt;Node3 -->
<g id="edge16_Node000000_Node000003" class="edge">
<title>Node0&#45;&gt;Node3</title>
<g id="a_edge16_Node000000_Node000003"><a xlink:title=" ">
<path fill="none" stroke="#63b8ff" d="M112.48,-46.5C126.23,-46.5 140.78,-46.5 154.34,-46.5"/>
<polygon fill="#63b8ff" stroke="#63b8ff" points="112.15,-43 102.15,-46.5 112.15,-50 112.15,-43"/>
</a>
</g>
</g>
<!-- Node4 -->
<g id="Node000004" class="node">
<title>Node4</title>
<g id="a_Node000004"><a xlink:href="class_limited_queue.html" target="_top" xlink:title=" ">
<polygon fill="white" stroke="#666666" points="268,-19 155,-19 155,0 268,0 268,-19"/>
<text text-anchor="middle" x="211.5" y="-7" font-family="Helvetica,sans-Serif" font-size="10.00">LimitedQueue&lt; T &gt;</text>
</a>
</g>
</g>
<!-- Node0&#45;&gt;Node4 -->
<g id="edge17_Node000000_Node000004" class="edge">
<title>Node0&#45;&gt;Node4</title>
<g id="a_edge17_Node000000_Node000004"><a xlink:title=" ">
<path fill="none" stroke="#63b8ff" d="M102.79,-34.64C124.36,-29.61 149.18,-23.82 169.55,-19.06"/>
<polygon fill="#63b8ff" stroke="#63b8ff" points="101.76,-31.29 92.82,-36.97 103.35,-38.11 101.76,-31.29"/>
</a>
</g>
</g>
<!-- Node2 -->
<g id="Node000002" class="node">
<title>Node2</title>
<g id="a_Node000002"><a xlink:href="classuniot_1_1_map.html" target="_top" xlink:title=" ">
<polygon fill="white" stroke="#666666" points="445,-115 321,-115 321,-74 445,-74 445,-115"/>
<text text-anchor="start" x="329" y="-103" font-family="Helvetica,sans-Serif" font-size="10.00">uniot::Map&lt; String,</text>
<text text-anchor="start" x="329" y="-92" font-family="Helvetica,sans-Serif" font-size="10.00"> SharedPointer&lt; uniot</text>
<text text-anchor="middle" x="383" y="-81" font-family="Helvetica,sans-Serif" font-size="10.00">::Array&lt; T &gt; &gt; &gt;</text>
</a>
</g>
</g>
<!-- Node1&#45;&gt;Node2 -->
<g id="edge15_Node000001_Node000002" class="edge">
<title>Node1&#45;&gt;Node2</title>
<g id="a_edge15_Node000001_Node000002"><a xlink:title=" ">
<path fill="none" stroke="#63b8ff" d="M295.41,-94.5C304,-94.5 312.61,-94.5 320.9,-94.5"/>
<polygon fill="#63b8ff" stroke="#63b8ff" points="295.37,-91 285.37,-94.5 295.37,-98 295.37,-91"/>
</a>
</g>
</g>
</g>
</svg>
