<?xml version="1.0" encoding="UTF-8" standalone="no"?>
<!DOCTYPE svg PUBLIC "-//W3C//DTD SVG 1.1//EN"
 "http://www.w3.org/Graphics/SVG/1.1/DTD/svg11.dtd">
<!-- Generated by graphviz version 2.43.0 (0)
 -->
<!-- Title: Graphical Class Hierarchy Pages: 1 -->
<svg width="572pt" height="60pt"
 viewBox="0.00 0.00 572.00 60.00" xmlns="http://www.w3.org/2000/svg" xmlns:xlink="http://www.w3.org/1999/xlink">
<g id="graph0" class="graph" transform="scale(1 1) rotate(0) translate(4 56)">
<title>Graphical Class Hierarchy</title>
<!-- Node0 -->
<g id="Node000000" class="node">
<title>Node0</title>
<g id="a_Node000000"><a xlink:href="class_clear_queue.html" target="_top" xlink:title=" ">
<polygon fill="white" stroke="#666666" points="140,-52 0,-52 0,0 140,0 140,-52"/>
<text text-anchor="start" x="8" y="-40" font-family="Helvetica,sans-Serif" font-size="10.00">ClearQueue&lt; Pair&lt; T</text>
<text text-anchor="start" x="8" y="-29" font-family="Helvetica,sans-Serif" font-size="10.00">_channel, SharedPointer</text>
<text text-anchor="start" x="8" y="-18" font-family="Helvetica,sans-Serif" font-size="10.00">&lt; LimitedQueue&lt; T_data</text>
<text text-anchor="middle" x="70" y="-7" font-family="Helvetica,sans-Serif" font-size="10.00"> &gt; &gt; &gt; &gt;</text>
</a>
</g>
</g>
<!-- Node1 -->
<g id="Node000001" class="node">
<title>Node1</title>
<g id="a_Node000001"><a xlink:href="class_iterable_queue.html" target="_top" xlink:title=" ">
<polygon fill="white" stroke="#666666" points="361,-46.5 176,-46.5 176,-5.5 361,-5.5 361,-46.5"/>
<text text-anchor="start" x="184" y="-34.5" font-family="Helvetica,sans-Serif" font-size="10.00">IterableQueue&lt; Pair</text>
<text text-anchor="start" x="184" y="-23.5" font-family="Helvetica,sans-Serif" font-size="10.00">&lt; T_channel, SharedPointer</text>
<text text-anchor="middle" x="268.5" y="-12.5" font-family="Helvetica,sans-Serif" font-size="10.00">&lt; LimitedQueue&lt; T_data &gt; &gt; &gt; &gt;</text>
</a>
</g>
</g>
<!-- Node0&#45;&gt;Node1 -->
<g id="edge7_Node000000_Node000001" class="edge">
<title>Node0&#45;&gt;Node1</title>
<g id="a_edge7_Node000000_Node000001"><a xlink:title=" ">
<path fill="none" stroke="#63b8ff" d="M150.2,-26C158.66,-26 167.32,-26 175.9,-26"/>
<polygon fill="#63b8ff" stroke="#63b8ff" points="150,-22.5 140,-26 150,-29.5 150,-22.5"/>
</a>
</g>
</g>
<!-- Node2 -->
<g id="Node000002" class="node">
<title>Node2</title>
<g id="a_Node000002"><a xlink:href="classuniot_1_1_map.html" target="_top" xlink:title=" ">
<polygon fill="white" stroke="#666666" points="564,-46.5 397,-46.5 397,-5.5 564,-5.5 564,-46.5"/>
<text text-anchor="start" x="405" y="-34.5" font-family="Helvetica,sans-Serif" font-size="10.00">uniot::Map&lt; T_channel,</text>
<text text-anchor="start" x="405" y="-23.5" font-family="Helvetica,sans-Serif" font-size="10.00"> SharedPointer&lt; LimitedQueue</text>
<text text-anchor="middle" x="480.5" y="-12.5" font-family="Helvetica,sans-Serif" font-size="10.00">&lt; T_data &gt; &gt; &gt;</text>
</a>
</g>
</g>
<!-- Node1&#45;&gt;Node2 -->
<g id="edge8_Node000001_Node000002" class="edge">
<title>Node1&#45;&gt;Node2</title>
<g id="a_edge8_Node000001_Node000002"><a xlink:title=" ">
<path fill="none" stroke="#63b8ff" d="M371.31,-26C379.85,-26 388.43,-26 396.8,-26"/>
<polygon fill="#63b8ff" stroke="#63b8ff" points="371.3,-22.5 361.3,-26 371.3,-29.5 371.3,-22.5"/>
</a>
</g>
</g>
</g>
</svg>
