<?xml version="1.0" encoding="UTF-8" standalone="no"?>
<!DOCTYPE svg PUBLIC "-//W3C//DTD SVG 1.1//EN"
 "http://www.w3.org/Graphics/SVG/1.1/DTD/svg11.dtd">
<!-- Generated by graphviz version 2.43.0 (0)
 -->
<!-- Title: Graphical Class Hierarchy Pages: 1 -->
<svg width="872pt" height="623pt"
 viewBox="0.00 0.00 872.00 623.00" xmlns="http://www.w3.org/2000/svg" xmlns:xlink="http://www.w3.org/1999/xlink">
<g id="graph0" class="graph" transform="scale(1 1) rotate(0) translate(4 619)">
<title>Graphical Class Hierarchy</title>
<!-- Node0 -->
<g id="Node000000" class="node">
<title>Node0</title>
<g id="a_Node000000"><a xlink:href="classuniot_1_1_i_c_o_s_e_signer.html" target="_top" xlink:title="Interface for CBOR Object Signing and Encryption (COSE) signing operations.">
<polygon fill="white" stroke="#666666" points="448,-340 341,-340 341,-321 448,-321 448,-340"/>
<text text-anchor="middle" x="394.5" y="-328" font-family="Helvetica,sans-Serif" font-size="10.00">uniot::ICOSESigner</text>
</a>
</g>
</g>
<!-- Node1 -->
<g id="Node000001" class="node">
<title>Node1</title>
<g id="a_Node000001"><a xlink:href="classuniot_1_1_credentials.html" target="_top" xlink:title="Manages device identity and cryptographic credentials for Uniot devices.">
<polygon fill="white" stroke="#666666" points="640,-336 537,-336 537,-317 640,-317 640,-336"/>
<text text-anchor="middle" x="588.5" y="-324" font-family="Helvetica,sans-Serif" font-size="10.00">uniot::Credentials</text>
</a>
</g>
</g>
<!-- Node0&#45;&gt;Node1 -->
<g id="edge20_Node000000_Node000001" class="edge">
<title>Node0&#45;&gt;Node1</title>
<g id="a_edge20_Node000000_Node000001"><a xlink:title=" ">
<path fill="none" stroke="#63b8ff" d="M458.51,-329.19C483.93,-328.66 512.87,-328.05 536.89,-327.55"/>
<polygon fill="#63b8ff" stroke="#63b8ff" points="458.14,-325.69 448.22,-329.4 458.29,-332.69 458.14,-325.69"/>
</a>
</g>
</g>
<!-- Node20 -->
<g id="Node000020" class="node">
<title>Node20</title>
<g id="a_Node000020"><a xlink:href="classuniot_1_1_i_event_bus_connection_kit.html" target="_top" xlink:title=" ">
<polygon fill="white" stroke="#666666" points="664,-578 513,-578 513,-537 664,-537 664,-578"/>
<text text-anchor="start" x="521" y="-566" font-family="Helvetica,sans-Serif" font-size="10.00">uniot::IEventBusConnection</text>
<text text-anchor="start" x="521" y="-555" font-family="Helvetica,sans-Serif" font-size="10.00">Kit&lt; unsigned int, int,</text>
<text text-anchor="middle" x="588.5" y="-544" font-family="Helvetica,sans-Serif" font-size="10.00"> Bytes &gt;</text>
</a>
</g>
</g>
<!-- Node19 -->
<g id="Node000019" class="node">
<title>Node19</title>
<g id="a_Node000019"><a xlink:href="classuniot_1_1_app_kit.html" target="_top" xlink:title=" ">
<polygon fill="white" stroke="#666666" points="826,-567 746,-567 746,-548 826,-548 826,-567"/>
<text text-anchor="middle" x="786" y="-555" font-family="Helvetica,sans-Serif" font-size="10.00">uniot::AppKit</text>
</a>
</g>
</g>
<!-- Node20&#45;&gt;Node19 -->
<g id="edge21_Node000020_Node000019" class="edge">
<title>Node20&#45;&gt;Node19</title>
<g id="a_edge21_Node000020_Node000019"><a xlink:title=" ">
<path fill="none" stroke="#63b8ff" d="M674.45,-557.5C699.33,-557.5 725.33,-557.5 745.86,-557.5"/>
<polygon fill="#63b8ff" stroke="#63b8ff" points="674.25,-554 664.25,-557.5 674.25,-561 674.25,-554"/>
</a>
</g>
</g>
<!-- Node4 -->
<g id="Node000004" class="node">
<title>Node4</title>
<g id="a_Node000004"><a xlink:href="classuniot_1_1_i_executor.html" target="_top" xlink:title="Interface for executing tasks in the scheduler system.">
<polygon fill="white" stroke="#666666" points="253.5,-143 161.5,-143 161.5,-124 253.5,-124 253.5,-143"/>
<text text-anchor="middle" x="207.5" y="-131" font-family="Helvetica,sans-Serif" font-size="10.00">uniot::IExecutor</text>
</a>
</g>
</g>
<!-- Node5 -->
<g id="Node000005" class="node">
<title>Node5</title>
<g id="a_Node000005"><a xlink:href="classuniot_1_1_event_bus.html" target="_top" xlink:title=" ">
<polygon fill="white" stroke="#666666" points="469,-67.5 320,-67.5 320,-37.5 469,-37.5 469,-67.5"/>
<text text-anchor="start" x="328" y="-55.5" font-family="Helvetica,sans-Serif" font-size="10.00">uniot::EventBus&lt; unsigned</text>
<text text-anchor="middle" x="394.5" y="-44.5" font-family="Helvetica,sans-Serif" font-size="10.00"> int, int, Bytes &gt;</text>
</a>
</g>
</g>
<!-- Node4&#45;&gt;Node5 -->
<g id="edge22_Node000004_Node000005" class="edge">
<title>Node4&#45;&gt;Node5</title>
<g id="a_edge22_Node000004_Node000005"><a xlink:title=" ">
<path fill="none" stroke="#63b8ff" d="M233.92,-119.05C256.18,-106.76 289.61,-89.14 320,-76.5 327.56,-73.36 335.69,-70.35 343.69,-67.59"/>
<polygon fill="#63b8ff" stroke="#63b8ff" points="232.14,-116.04 225.11,-123.96 235.55,-122.15 232.14,-116.04"/>
</a>
</g>
</g>
<!-- Node6 -->
<g id="Node000006" class="node">
<title>Node6</title>
<g id="a_Node000006"><a xlink:href="classuniot_1_1_button.html" target="_top" xlink:title=" ">
<polygon fill="white" stroke="#666666" points="434.5,-19 354.5,-19 354.5,0 434.5,0 434.5,-19"/>
<text text-anchor="middle" x="394.5" y="-7" font-family="Helvetica,sans-Serif" font-size="10.00">uniot::Button</text>
</a>
</g>
</g>
<!-- Node4&#45;&gt;Node6 -->
<g id="edge23_Node000004_Node000006" class="edge">
<title>Node4&#45;&gt;Node6</title>
<g id="a_edge23_Node000004_Node000006"><a xlink:title=" ">
<path fill="none" stroke="#63b8ff" d="M229.71,-117.8C245.35,-105.82 266.82,-88.52 284,-71.5 301.71,-53.96 298.93,-41.81 320,-28.5 330.25,-22.02 342.63,-17.75 354.28,-14.93"/>
<polygon fill="#63b8ff" stroke="#63b8ff" points="227.54,-115.05 221.68,-123.87 231.76,-120.63 227.54,-115.05"/>
</a>
</g>
</g>
<!-- Node29 -->
<g id="Node000029" class="node">
<title>Node29</title>
<g id="a_Node000029"><a xlink:href="classuniot_1_1_config_captive_portal.html" target="_top" xlink:title=" ">
<polygon fill="white" stroke="#666666" points="466.5,-229 322.5,-229 322.5,-210 466.5,-210 466.5,-229"/>
<text text-anchor="middle" x="394.5" y="-217" font-family="Helvetica,sans-Serif" font-size="10.00">uniot::ConfigCaptivePortal</text>
</a>
</g>
</g>
<!-- Node4&#45;&gt;Node29 -->
<g id="edge24_Node000004_Node000029" class="edge">
<title>Node4&#45;&gt;Node29</title>
<g id="a_edge24_Node000004_Node000029"><a xlink:title=" ">
<path fill="none" stroke="#63b8ff" d="M230.03,-149.02C251.78,-164.06 286.83,-186.59 320,-200.5 328.87,-204.22 338.66,-207.36 348.12,-209.96"/>
<polygon fill="#63b8ff" stroke="#63b8ff" points="231.76,-145.96 221.56,-143.07 227.74,-151.68 231.76,-145.96"/>
</a>
</g>
</g>
<!-- Node3 -->
<g id="Node000003" class="node">
<title>Node3</title>
<g id="a_Node000003"><a xlink:href="classuniot_1_1_date.html" target="_top" xlink:title=" ">
<polygon fill="white" stroke="#666666" points="624,-147 553,-147 553,-128 624,-128 624,-147"/>
<text text-anchor="middle" x="588.5" y="-135" font-family="Helvetica,sans-Serif" font-size="10.00">uniot::Date</text>
</a>
</g>
</g>
<!-- Node4&#45;&gt;Node3 -->
<g id="edge25_Node000004_Node000003" class="edge">
<title>Node4&#45;&gt;Node3</title>
<g id="a_edge25_Node000004_Node000003"><a xlink:title=" ">
<path fill="none" stroke="#63b8ff" d="M264.13,-134.09C343.5,-134.92 486.91,-136.44 552.75,-137.13"/>
<polygon fill="#63b8ff" stroke="#63b8ff" points="263.88,-130.58 253.84,-133.98 263.8,-137.58 263.88,-130.58"/>
</a>
</g>
</g>
<!-- Node30 -->
<g id="Node000030" class="node">
<title>Node30</title>
<g id="a_Node000030"><a xlink:href="classuniot_1_1_event_bus.html" target="_top" xlink:title=" ">
<polygon fill="white" stroke="#666666" points="461.5,-191.5 327.5,-191.5 327.5,-161.5 461.5,-161.5 461.5,-191.5"/>
<text text-anchor="start" x="335.5" y="-179.5" font-family="Helvetica,sans-Serif" font-size="10.00">uniot::EventBus&lt; T</text>
<text text-anchor="middle" x="394.5" y="-168.5" font-family="Helvetica,sans-Serif" font-size="10.00">_topic, T_msg, T_data &gt;</text>
</a>
</g>
</g>
<!-- Node4&#45;&gt;Node30 -->
<g id="edge26_Node000004_Node000030" class="edge">
<title>Node4&#45;&gt;Node30</title>
<g id="a_edge26_Node000004_Node000030"><a xlink:title=" ">
<path fill="none" stroke="#63b8ff" d="M259.45,-145.34C280.93,-150.34 306.18,-156.2 328.94,-161.49"/>
<polygon fill="#63b8ff" stroke="#63b8ff" points="260.09,-141.9 249.56,-143.04 258.51,-148.72 260.09,-141.9"/>
</a>
</g>
</g>
<!-- Node18 -->
<g id="Node000018" class="node">
<title>Node18</title>
<g id="a_Node000018"><a xlink:href="classuniot_1_1_i_scheduler_connection_kit.html" target="_top" xlink:title="Interface for connecting components to the TaskScheduler.">
<polygon fill="white" stroke="#666666" points="672,-432 505,-432 505,-413 672,-413 672,-432"/>
<text text-anchor="middle" x="588.5" y="-420" font-family="Helvetica,sans-Serif" font-size="10.00">uniot::ISchedulerConnectionKit</text>
</a>
</g>
</g>
<!-- Node18&#45;&gt;Node19 -->
<g id="edge27_Node000018_Node000019" class="edge">
<title>Node18&#45;&gt;Node19</title>
<g id="a_edge27_Node000018_Node000019"><a xlink:title=" ">
<path fill="none" stroke="#63b8ff" d="M615.38,-437.35C632.49,-447.87 654.85,-463 672,-479.5 691.22,-497.99 686.76,-511.37 708,-527.5 719.88,-536.52 734.82,-543.17 748.37,-547.87"/>
<polygon fill="#63b8ff" stroke="#63b8ff" points="616.85,-434.16 606.48,-432 613.25,-440.15 616.85,-434.16"/>
</a>
</g>
</g>
<!-- Node17 -->
<g id="Node000017" class="node">
<title>Node17</title>
<g id="a_Node000017"><a xlink:href="classuniot_1_1_m_q_t_t_kit.html" target="_top" xlink:title=" ">
<polygon fill="white" stroke="#666666" points="830.5,-427 741.5,-427 741.5,-408 830.5,-408 830.5,-427"/>
<text text-anchor="middle" x="786" y="-415" font-family="Helvetica,sans-Serif" font-size="10.00">uniot::MQTTKit</text>
</a>
</g>
</g>
<!-- Node18&#45;&gt;Node17 -->
<g id="edge28_Node000018_Node000017" class="edge">
<title>Node18&#45;&gt;Node17</title>
<g id="a_edge28_Node000018_Node000017"><a xlink:title=" ">
<path fill="none" stroke="#63b8ff" d="M682.21,-420.13C702.82,-419.6 723.74,-419.07 741.27,-418.62"/>
<polygon fill="#63b8ff" stroke="#63b8ff" points="682.03,-416.63 672.13,-420.39 682.21,-423.63 682.03,-416.63"/>
</a>
</g>
</g>
<!-- Node22 -->
<g id="Node000022" class="node">
<title>Node22</title>
<g id="a_Node000022"><a xlink:href="classuniot_1_1_network_controller.html" target="_top" xlink:title=" ">
<polygon fill="white" stroke="#666666" points="854.5,-387 717.5,-387 717.5,-368 854.5,-368 854.5,-387"/>
<text text-anchor="middle" x="786" y="-375" font-family="Helvetica,sans-Serif" font-size="10.00">uniot::NetworkController</text>
</a>
</g>
</g>
<!-- Node18&#45;&gt;Node22 -->
<g id="edge29_Node000018_Node000022" class="edge">
<title>Node18&#45;&gt;Node22</title>
<g id="a_edge29_Node000018_Node000022"><a xlink:title=" ">
<path fill="none" stroke="#63b8ff" d="M644.05,-410.76C653.38,-408.7 662.97,-406.56 672,-404.5 696.58,-398.88 724.1,-392.31 745.82,-387.06"/>
<polygon fill="#63b8ff" stroke="#63b8ff" points="643.08,-407.39 634.06,-412.95 644.58,-414.22 643.08,-407.39"/>
</a>
</g>
</g>
<!-- Node23 -->
<g id="Node000023" class="node">
<title>Node23</title>
<g id="a_Node000023"><a xlink:href="classuniot_1_1_network_scheduler.html" target="_top" xlink:title=" ">
<polygon fill="white" stroke="#666666" points="854.5,-467 717.5,-467 717.5,-448 854.5,-448 854.5,-467"/>
<text text-anchor="middle" x="786" y="-455" font-family="Helvetica,sans-Serif" font-size="10.00">uniot::NetworkScheduler</text>
</a>
</g>
</g>
<!-- Node18&#45;&gt;Node23 -->
<g id="edge30_Node000018_Node000023" class="edge">
<title>Node18&#45;&gt;Node23</title>
<g id="a_edge30_Node000018_Node000023"><a xlink:title=" ">
<path fill="none" stroke="#63b8ff" d="M652.63,-433.8C678.2,-438.38 707.39,-443.61 731.85,-447.98"/>
<polygon fill="#63b8ff" stroke="#63b8ff" points="653.12,-430.33 642.66,-432.02 651.89,-437.23 653.12,-430.33"/>
</a>
</g>
</g>
<!-- Node8 -->
<g id="Node000008" class="node">
<title>Node8</title>
<g id="a_Node000008"><a xlink:href="classuniot_1_1_i_with_type.html" target="_top" xlink:title="Interface for objects that expose their runtime type information.">
<polygon fill="white" stroke="#666666" points="95,-204 0,-204 0,-185 95,-185 95,-204"/>
<text text-anchor="middle" x="47.5" y="-192" font-family="Helvetica,sans-Serif" font-size="10.00">uniot::IWithType</text>
</a>
</g>
</g>
<!-- Node9 -->
<g id="Node000009" class="node">
<title>Node9</title>
<g id="a_Node000009"><a xlink:href="classuniot_1_1_event_entity.html" target="_top" xlink:title="Entity that can connect to and interact with EventBus instances.">
<polygon fill="white" stroke="#666666" points="264,-399 151,-399 151,-358 264,-358 264,-399"/>
<text text-anchor="start" x="159" y="-387" font-family="Helvetica,sans-Serif" font-size="10.00">uniot::EventEntity</text>
<text text-anchor="start" x="159" y="-376" font-family="Helvetica,sans-Serif" font-size="10.00">&lt; T_topic, T_msg, T</text>
<text text-anchor="middle" x="207.5" y="-365" font-family="Helvetica,sans-Serif" font-size="10.00">_data &gt;</text>
</a>
</g>
</g>
<!-- Node8&#45;&gt;Node9 -->
<g id="edge31_Node000008_Node000009" class="edge">
<title>Node8&#45;&gt;Node9</title>
<g id="a_edge31_Node000008_Node000009"><a xlink:title=" ">
<path fill="none" stroke="#63b8ff" d="M62.83,-212.03C79.15,-231.93 106.72,-265.28 131,-293.5 150.05,-315.64 172.31,-340.59 187.7,-357.7"/>
<polygon fill="#63b8ff" stroke="#63b8ff" points="65.41,-209.66 56.36,-204.14 59.99,-214.09 65.41,-209.66"/>
</a>
</g>
</g>
<!-- Node7 -->
<g id="Node000007" class="node">
<title>Node7</title>
<g id="a_Node000007"><a xlink:href="classuniot_1_1_object_register_record.html" target="_top" xlink:title=" ">
<polygon fill="white" stroke="#666666" points="284,-63 131,-63 131,-44 284,-44 284,-63"/>
<text text-anchor="middle" x="207.5" y="-51" font-family="Helvetica,sans-Serif" font-size="10.00">uniot::ObjectRegisterRecord</text>
</a>
</g>
</g>
<!-- Node8&#45;&gt;Node7 -->
<g id="edge44_Node000008_Node000007" class="edge">
<title>Node8&#45;&gt;Node7</title>
<g id="a_edge44_Node000008_Node000007"><a xlink:title=" ">
<path fill="none" stroke="#63b8ff" d="M65.1,-177.53C81.47,-161.01 107.38,-135.42 131,-114.5 152.45,-95.51 178.7,-74.84 193.92,-63.1"/>
<polygon fill="#63b8ff" stroke="#63b8ff" points="62.41,-175.27 57.89,-184.85 67.4,-180.19 62.41,-175.27"/>
</a>
</g>
</g>
<!-- Node10 -->
<g id="Node000010" class="node">
<title>Node10</title>
<g id="a_Node000010"><a xlink:href="classuniot_1_1_event_emitter.html" target="_top" xlink:title=" ">
<polygon fill="white" stroke="#666666" points="450,-399 339,-399 339,-358 450,-358 450,-399"/>
<text text-anchor="start" x="347" y="-387" font-family="Helvetica,sans-Serif" font-size="10.00">uniot::EventEmitter</text>
<text text-anchor="start" x="347" y="-376" font-family="Helvetica,sans-Serif" font-size="10.00">&lt; unsigned int, int,</text>
<text text-anchor="middle" x="394.5" y="-365" font-family="Helvetica,sans-Serif" font-size="10.00"> Bytes &gt;</text>
</a>
</g>
</g>
<!-- Node9&#45;&gt;Node10 -->
<g id="edge32_Node000009_Node000010" class="edge">
<title>Node9&#45;&gt;Node10</title>
<g id="a_edge32_Node000009_Node000010"><a xlink:title=" ">
<path fill="none" stroke="#63b8ff" d="M274.23,-378.5C295.43,-378.5 318.69,-378.5 338.99,-378.5"/>
<polygon fill="#63b8ff" stroke="#63b8ff" points="274.01,-375 264.01,-378.5 274.01,-382 274.01,-375"/>
</a>
</g>
</g>
<!-- Node26 -->
<g id="Node000026" class="node">
<title>Node26</title>
<g id="a_Node000026"><a xlink:href="classuniot_1_1_event_emitter.html" target="_top" xlink:title=" ">
<polygon fill="white" stroke="#666666" points="451,-491 338,-491 338,-450 451,-450 451,-491"/>
<text text-anchor="start" x="346" y="-479" font-family="Helvetica,sans-Serif" font-size="10.00">uniot::EventEmitter</text>
<text text-anchor="start" x="346" y="-468" font-family="Helvetica,sans-Serif" font-size="10.00">&lt; T_topic, T_msg, T</text>
<text text-anchor="middle" x="394.5" y="-457" font-family="Helvetica,sans-Serif" font-size="10.00">_data &gt;</text>
</a>
</g>
</g>
<!-- Node9&#45;&gt;Node26 -->
<g id="edge41_Node000009_Node000026" class="edge">
<title>Node9&#45;&gt;Node26</title>
<g id="a_edge41_Node000009_Node000026"><a xlink:title=" ">
<path fill="none" stroke="#63b8ff" d="M259.23,-403.73C288.43,-418.25 324.66,-436.26 352.12,-449.92"/>
<polygon fill="#63b8ff" stroke="#63b8ff" points="260.53,-400.47 250.02,-399.15 257.41,-406.73 260.53,-400.47"/>
</a>
</g>
</g>
<!-- Node10&#45;&gt;Node3 -->
<g id="edge39_Node000010_Node000003" class="edge">
<title>Node10&#45;&gt;Node3</title>
<g id="a_edge39_Node000010_Node000003"><a xlink:title=" ">
<path fill="none" stroke="#63b8ff" d="M458.92,-358.9C462.65,-356.17 466.07,-353.05 469,-349.5 524.77,-281.82 443.97,-218.47 505,-155.5 517.24,-142.87 536.14,-138.12 552.75,-136.65"/>
<polygon fill="#63b8ff" stroke="#63b8ff" points="456.92,-356.03 450.31,-364.31 460.64,-361.96 456.92,-356.03"/>
</a>
</g>
</g>
<!-- Node10&#45;&gt;Node23 -->
<g id="edge40_Node000010_Node000023" class="edge">
<title>Node10&#45;&gt;Node23</title>
<g id="a_edge40_Node000010_Node000023"><a xlink:title=" ">
<path fill="none" stroke="#63b8ff" d="M431.47,-404.92C451.95,-418.44 478.7,-433.66 505,-441.5 575.23,-462.43 659.66,-464.28 717.32,-462.25"/>
<polygon fill="#63b8ff" stroke="#63b8ff" points="433.34,-401.96 423.1,-399.25 429.42,-407.76 433.34,-401.96"/>
</a>
</g>
</g>
<!-- Node11 -->
<g id="Node000011" class="node">
<title>Node11</title>
<g id="a_Node000011"><a xlink:href="classuniot_1_1_event_listener.html" target="_top" xlink:title=" ">
<polygon fill="white" stroke="#666666" points="645.5,-395 531.5,-395 531.5,-354 645.5,-354 645.5,-395"/>
<text text-anchor="start" x="539.5" y="-383" font-family="Helvetica,sans-Serif" font-size="10.00">uniot::EventListener</text>
<text text-anchor="start" x="539.5" y="-372" font-family="Helvetica,sans-Serif" font-size="10.00">&lt; unsigned int, int,</text>
<text text-anchor="middle" x="588.5" y="-361" font-family="Helvetica,sans-Serif" font-size="10.00"> Bytes &gt;</text>
</a>
</g>
</g>
<!-- Node10&#45;&gt;Node11 -->
<g id="edge33_Node000010_Node000011" class="edge">
<title>Node10&#45;&gt;Node11</title>
<g id="a_edge33_Node000010_Node000011"><a xlink:title=" ">
<path fill="none" stroke="#63b8ff" d="M460.04,-377.16C483.1,-376.68 508.88,-376.14 531.19,-375.67"/>
<polygon fill="#63b8ff" stroke="#63b8ff" points="459.93,-373.66 450.01,-377.36 460.08,-380.66 459.93,-373.66"/>
</a>
</g>
</g>
<!-- Node11&#45;&gt;Node17 -->
<g id="edge36_Node000011_Node000017" class="edge">
<title>Node11&#45;&gt;Node17</title>
<g id="a_edge36_Node000011_Node000017"><a xlink:title=" ">
<path fill="none" stroke="#63b8ff" d="M655.4,-389C683.86,-395.26 716.37,-402.41 741.71,-407.98"/>
<polygon fill="#63b8ff" stroke="#63b8ff" points="656.04,-385.55 645.52,-386.82 654.54,-392.39 656.04,-385.55"/>
</a>
</g>
</g>
<!-- Node11&#45;&gt;Node22 -->
<g id="edge37_Node000011_Node000022" class="edge">
<title>Node11&#45;&gt;Node22</title>
<g id="a_edge37_Node000011_Node000022"><a xlink:title=" ">
<path fill="none" stroke="#63b8ff" d="M655.69,-375.52C675.5,-375.82 697.26,-376.15 717.17,-376.46"/>
<polygon fill="#63b8ff" stroke="#63b8ff" points="655.58,-372.01 645.52,-375.36 655.47,-379.01 655.58,-372.01"/>
</a>
</g>
</g>
<!-- Node12 -->
<g id="Node000012" class="node">
<title>Node12</title>
<g id="a_Node000012"><a xlink:href="classuniot_1_1_callback_event_listener.html" target="_top" xlink:title=" ">
<polygon fill="white" stroke="#666666" points="864,-349.5 708,-349.5 708,-319.5 864,-319.5 864,-349.5"/>
<text text-anchor="start" x="716" y="-337.5" font-family="Helvetica,sans-Serif" font-size="10.00">uniot::CallbackEventListener</text>
<text text-anchor="middle" x="786" y="-326.5" font-family="Helvetica,sans-Serif" font-size="10.00">&lt; unsigned int, int, Bytes &gt;</text>
</a>
</g>
</g>
<!-- Node11&#45;&gt;Node12 -->
<g id="edge34_Node000011_Node000012" class="edge">
<title>Node11&#45;&gt;Node12</title>
<g id="a_edge34_Node000011_Node000012"><a xlink:title=" ">
<path fill="none" stroke="#63b8ff" d="M655.35,-361.03C673.38,-357.34 693.03,-353.32 711.46,-349.55"/>
<polygon fill="#63b8ff" stroke="#63b8ff" points="654.62,-357.6 645.52,-363.04 656.02,-364.46 654.62,-357.6"/>
</a>
</g>
</g>
<!-- Node13 -->
<g id="Node000013" class="node">
<title>Node13</title>
<g id="a_Node000013"><a xlink:href="classuniot_1_1_lisp_device.html" target="_top" xlink:title=" ">
<polygon fill="white" stroke="#666666" points="836.5,-222 735.5,-222 735.5,-203 836.5,-203 836.5,-222"/>
<text text-anchor="middle" x="786" y="-210" font-family="Helvetica,sans-Serif" font-size="10.00">uniot::LispDevice</text>
</a>
</g>
</g>
<!-- Node11&#45;&gt;Node13 -->
<g id="edge35_Node000011_Node000013" class="edge">
<title>Node11&#45;&gt;Node13</title>
<g id="a_edge35_Node000011_Node000013"><a xlink:title=" ">
<path fill="none" stroke="#63b8ff" d="M654.99,-357.73C661.2,-354.37 667.03,-350.34 672,-345.5 704.07,-314.31 678.04,-284.72 708,-251.5 720.34,-237.81 738.6,-228.28 754.24,-222.06"/>
<polygon fill="#63b8ff" stroke="#63b8ff" points="653.17,-354.72 645.66,-362.2 656.19,-361.04 653.17,-354.72"/>
</a>
</g>
</g>
<!-- Node24 -->
<g id="Node000024" class="node">
<title>Node24</title>
<g id="a_Node000024"><a xlink:href="classuniot_1_1un_lisp.html" target="_top" xlink:title=" ">
<polygon fill="white" stroke="#666666" points="825.5,-280 746.5,-280 746.5,-261 825.5,-261 825.5,-280"/>
<text text-anchor="middle" x="786" y="-268" font-family="Helvetica,sans-Serif" font-size="10.00">uniot::unLisp</text>
</a>
</g>
</g>
<!-- Node11&#45;&gt;Node24 -->
<g id="edge38_Node000011_Node000024" class="edge">
<title>Node11&#45;&gt;Node24</title>
<g id="a_edge38_Node000011_Node000024"><a xlink:title=" ">
<path fill="none" stroke="#63b8ff" d="M654.99,-354.5C660.9,-351.8 666.66,-348.81 672,-345.5 690.97,-333.75 689.91,-323.56 708,-310.5 725.1,-298.16 746.53,-287.35 762.43,-280.09"/>
<polygon fill="#63b8ff" stroke="#63b8ff" points="653.43,-351.35 645.61,-358.49 656.18,-357.79 653.43,-351.35"/>
</a>
</g>
</g>
<!-- Node27 -->
<g id="Node000027" class="node">
<title>Node27</title>
<g id="a_Node000027"><a xlink:href="classuniot_1_1_event_listener.html" target="_top" xlink:title=" ">
<polygon fill="white" stroke="#666666" points="664.5,-518.5 512.5,-518.5 512.5,-488.5 664.5,-488.5 664.5,-518.5"/>
<text text-anchor="start" x="520.5" y="-506.5" font-family="Helvetica,sans-Serif" font-size="10.00">uniot::EventListener</text>
<text text-anchor="middle" x="588.5" y="-495.5" font-family="Helvetica,sans-Serif" font-size="10.00">&lt; T_topic, T_msg, T_data &gt;</text>
</a>
</g>
</g>
<!-- Node26&#45;&gt;Node27 -->
<g id="edge42_Node000026_Node000027" class="edge">
<title>Node26&#45;&gt;Node27</title>
<g id="a_edge42_Node000026_Node000027"><a xlink:title=" ">
<path fill="none" stroke="#63b8ff" d="M461.13,-481.78C477.65,-484.62 495.5,-487.69 512.45,-490.6"/>
<polygon fill="#63b8ff" stroke="#63b8ff" points="461.48,-478.29 451.03,-480.04 460.3,-485.19 461.48,-478.29"/>
</a>
</g>
</g>
<!-- Node28 -->
<g id="Node000028" class="node">
<title>Node28</title>
<g id="a_Node000028"><a xlink:href="classuniot_1_1_callback_event_listener.html" target="_top" xlink:title=" ">
<polygon fill="white" stroke="#666666" points="864,-518.5 708,-518.5 708,-488.5 864,-488.5 864,-518.5"/>
<text text-anchor="start" x="716" y="-506.5" font-family="Helvetica,sans-Serif" font-size="10.00">uniot::CallbackEventListener</text>
<text text-anchor="middle" x="786" y="-495.5" font-family="Helvetica,sans-Serif" font-size="10.00">&lt; T_topic, T_msg, T_data &gt;</text>
</a>
</g>
</g>
<!-- Node27&#45;&gt;Node28 -->
<g id="edge43_Node000027_Node000028" class="edge">
<title>Node27&#45;&gt;Node28</title>
<g id="a_edge43_Node000027_Node000028"><a xlink:title=" ">
<path fill="none" stroke="#63b8ff" d="M674.62,-503.5C685.69,-503.5 696.98,-503.5 707.91,-503.5"/>
<polygon fill="#63b8ff" stroke="#63b8ff" points="674.53,-500 664.53,-503.5 674.53,-507 674.53,-500"/>
</a>
</g>
</g>
<!-- Node7&#45;&gt;Node6 -->
<g id="edge45_Node000007_Node000006" class="edge">
<title>Node7&#45;&gt;Node6</title>
<g id="a_edge45_Node000007_Node000006"><a xlink:title=" ">
<path fill="none" stroke="#63b8ff" d="M258.54,-41.6C288.66,-34.43 326.46,-25.44 354.39,-18.8"/>
<polygon fill="#63b8ff" stroke="#63b8ff" points="257.56,-38.23 248.64,-43.95 259.18,-45.04 257.56,-38.23"/>
</a>
</g>
</g>
<!-- Node14 -->
<g id="Node000014" class="node">
<title>Node14</title>
<g id="a_Node000014"><a xlink:href="classuniot_1_1_m_q_t_t_device.html" target="_top" xlink:title=" ">
<polygon fill="white" stroke="#666666" points="643.5,-110 533.5,-110 533.5,-91 643.5,-91 643.5,-110"/>
<text text-anchor="middle" x="588.5" y="-98" font-family="Helvetica,sans-Serif" font-size="10.00">uniot::MQTTDevice</text>
</a>
</g>
</g>
<!-- Node14&#45;&gt;Node13 -->
<g id="edge47_Node000014_Node000013" class="edge">
<title>Node14&#45;&gt;Node13</title>
<g id="a_edge47_Node000014_Node000013"><a xlink:title=" ">
<path fill="none" stroke="#63b8ff" d="M653.62,-111.27C659.97,-113.28 666.21,-115.67 672,-118.5 716.71,-140.34 758.87,-183.45 776.43,-202.75"/>
<polygon fill="#63b8ff" stroke="#63b8ff" points="654.15,-107.78 643.57,-108.4 652.23,-114.51 654.15,-107.78"/>
</a>
</g>
</g>
<!-- Node15 -->
<g id="Node000015" class="node">
<title>Node15</title>
<g id="a_Node000015"><a xlink:href="classuniot_1_1_callback_m_q_t_t_device.html" target="_top" xlink:title=" ">
<polygon fill="white" stroke="#666666" points="862,-129 710,-129 710,-110 862,-110 862,-129"/>
<text text-anchor="middle" x="786" y="-117" font-family="Helvetica,sans-Serif" font-size="10.00">uniot::CallbackMQTTDevice</text>
</a>
</g>
</g>
<!-- Node14&#45;&gt;Node15 -->
<g id="edge46_Node000014_Node000015" class="edge">
<title>Node14&#45;&gt;Node15</title>
<g id="a_edge46_Node000014_Node000015"><a xlink:title=" ">
<path fill="none" stroke="#63b8ff" d="M653.75,-106.74C671.69,-108.49 691.33,-110.4 709.83,-112.19"/>
<polygon fill="#63b8ff" stroke="#63b8ff" points="653.99,-103.25 643.7,-105.77 653.31,-110.22 653.99,-103.25"/>
</a>
</g>
</g>
<!-- Node16 -->
<g id="Node000016" class="node">
<title>Node16</title>
<g id="a_Node000016"><a xlink:href="classuniot_1_1_top_device.html" target="_top" xlink:title=" ">
<polygon fill="white" stroke="#666666" points="835,-92 737,-92 737,-73 835,-73 835,-92"/>
<text text-anchor="middle" x="786" y="-80" font-family="Helvetica,sans-Serif" font-size="10.00">uniot::TopDevice</text>
</a>
</g>
</g>
<!-- Node14&#45;&gt;Node16 -->
<g id="edge48_Node000014_Node000016" class="edge">
<title>Node14&#45;&gt;Node16</title>
<g id="a_edge48_Node000014_Node000016"><a xlink:title=" ">
<path fill="none" stroke="#63b8ff" d="M653.84,-94.58C680.83,-92.09 711.7,-89.25 736.7,-86.95"/>
<polygon fill="#63b8ff" stroke="#63b8ff" points="653.33,-91.11 643.7,-95.51 653.98,-98.08 653.33,-91.11"/>
</a>
</g>
</g>
<!-- Node21 -->
<g id="Node000021" class="node">
<title>Node21</title>
<g id="a_Node000021"><a xlink:href="classuniot_1_1_singleton.html" target="_top" xlink:title=" ">
<polygon fill="white" stroke="#666666" points="662.5,-615 514.5,-615 514.5,-596 662.5,-596 662.5,-615"/>
<text text-anchor="middle" x="588.5" y="-603" font-family="Helvetica,sans-Serif" font-size="10.00">uniot::Singleton&lt; AppKit &gt;</text>
</a>
</g>
</g>
<!-- Node21&#45;&gt;Node19 -->
<g id="edge49_Node000021_Node000019" class="edge">
<title>Node21&#45;&gt;Node19</title>
<g id="a_edge49_Node000021_Node000019"><a xlink:title=" ">
<path fill="none" stroke="#63b8ff" d="M644.74,-593.8C653.87,-591.77 663.21,-589.62 672,-587.5 698.44,-581.11 728.16,-573.19 750.48,-567.09"/>
<polygon fill="#63b8ff" stroke="#63b8ff" points="643.98,-590.39 634.97,-595.96 645.49,-597.22 643.98,-590.39"/>
</a>
</g>
</g>
<!-- Node31 -->
<g id="Node000031" class="node">
<title>Node31</title>
<g id="a_Node000031"><a xlink:href="classuniot_1_1_singleton.html" target="_top" xlink:title=" ">
<polygon fill="white" stroke="#666666" points="464,-105 325,-105 325,-86 464,-86 464,-105"/>
<text text-anchor="middle" x="394.5" y="-93" font-family="Helvetica,sans-Serif" font-size="10.00">uniot::Singleton&lt; Date &gt;</text>
</a>
</g>
</g>
<!-- Node31&#45;&gt;Node3 -->
<g id="edge50_Node000031_Node000003" class="edge">
<title>Node31&#45;&gt;Node3</title>
<g id="a_edge50_Node000031_Node000003"><a xlink:title=" ">
<path fill="none" stroke="#63b8ff" d="M449.06,-107.22C482.22,-114.47 523.84,-123.57 552.74,-129.9"/>
<polygon fill="#63b8ff" stroke="#63b8ff" points="449.58,-103.75 439.07,-105.03 448.09,-110.59 449.58,-103.75"/>
</a>
</g>
</g>
<!-- Node25 -->
<g id="Node000025" class="node">
<title>Node25</title>
<g id="a_Node000025"><a xlink:href="classuniot_1_1_singleton.html" target="_top" xlink:title=" ">
<polygon fill="white" stroke="#666666" points="662,-260 515,-260 515,-241 662,-241 662,-260"/>
<text text-anchor="middle" x="588.5" y="-248" font-family="Helvetica,sans-Serif" font-size="10.00">uniot::Singleton&lt; unLisp &gt;</text>
</a>
</g>
</g>
<!-- Node25&#45;&gt;Node24 -->
<g id="edge51_Node000025_Node000024" class="edge">
<title>Node25&#45;&gt;Node24</title>
<g id="a_edge51_Node000025_Node000024"><a xlink:title=" ">
<path fill="none" stroke="#63b8ff" d="M672.18,-258.96C697.92,-261.59 725.08,-264.37 746.31,-266.54"/>
<polygon fill="#63b8ff" stroke="#63b8ff" points="672.32,-255.45 662.02,-257.92 671.61,-262.42 672.32,-255.45"/>
</a>
</g>
</g>
<!-- Node33 -->
<g id="Node000033" class="node">
<title>Node33</title>
<g id="a_Node000033"><a xlink:href="classuniot_1_1_storage.html" target="_top" xlink:title=" ">
<polygon fill="white" stroke="#666666" points="250,-284 165,-284 165,-265 250,-265 250,-284"/>
<text text-anchor="middle" x="207.5" y="-272" font-family="Helvetica,sans-Serif" font-size="10.00">uniot::Storage</text>
</a>
</g>
</g>
<!-- Node2 -->
<g id="Node000002" class="node">
<title>Node2</title>
<g id="a_Node000002"><a xlink:href="classuniot_1_1_c_b_o_r_storage.html" target="_top" xlink:title=" ">
<polygon fill="white" stroke="#666666" points="451,-266 338,-266 338,-247 451,-247 451,-266"/>
<text text-anchor="middle" x="394.5" y="-254" font-family="Helvetica,sans-Serif" font-size="10.00">uniot::CBORStorage</text>
</a>
</g>
</g>
<!-- Node33&#45;&gt;Node2 -->
<g id="edge52_Node000033_Node000002" class="edge">
<title>Node33&#45;&gt;Node2</title>
<g id="a_edge52_Node000033_Node000002"><a xlink:title=" ">
<path fill="none" stroke="#63b8ff" d="M260.06,-269.48C284.23,-267.13 313.06,-264.33 337.74,-261.93"/>
<polygon fill="#63b8ff" stroke="#63b8ff" points="259.63,-266.01 250.02,-270.46 260.31,-272.98 259.63,-266.01"/>
</a>
</g>
</g>
<!-- Node34 -->
<g id="Node000034" class="node">
<title>Node34</title>
<g id="a_Node000034"><a xlink:href="classuniot_1_1_crash_storage.html" target="_top" xlink:title="Handles crash data storage and retrieval for ESP8266.">
<polygon fill="white" stroke="#666666" points="451,-303 338,-303 338,-284 451,-284 451,-303"/>
<text text-anchor="middle" x="394.5" y="-291" font-family="Helvetica,sans-Serif" font-size="10.00">uniot::CrashStorage</text>
</a>
</g>
</g>
<!-- Node33&#45;&gt;Node34 -->
<g id="edge58_Node000033_Node000034" class="edge">
<title>Node33&#45;&gt;Node34</title>
<g id="a_edge58_Node000033_Node000034"><a xlink:title=" ">
<path fill="none" stroke="#63b8ff" d="M260.06,-279.8C284.23,-282.28 313.06,-285.24 337.74,-287.77"/>
<polygon fill="#63b8ff" stroke="#63b8ff" points="260.32,-276.3 250.02,-278.76 259.61,-283.27 260.32,-276.3"/>
</a>
</g>
</g>
<!-- Node2&#45;&gt;Node1 -->
<g id="edge53_Node000002_Node000001" class="edge">
<title>Node2&#45;&gt;Node1</title>
<g id="a_edge53_Node000002_Node000001"><a xlink:title=" ">
<path fill="none" stroke="#63b8ff" d="M453.3,-269.12C458.71,-270.99 464.03,-273.11 469,-275.5 487.02,-284.17 487.11,-293.56 505,-302.5 517.01,-308.5 530.77,-313.25 543.57,-316.88"/>
<polygon fill="#63b8ff" stroke="#63b8ff" points="454.11,-265.7 443.52,-266.02 451.99,-272.38 454.11,-265.7"/>
</a>
</g>
</g>
<!-- Node2&#45;&gt;Node3 -->
<g id="edge54_Node000002_Node000003" class="edge">
<title>Node2&#45;&gt;Node3</title>
<g id="a_edge54_Node000002_Node000003"><a xlink:title=" ">
<path fill="none" stroke="#63b8ff" d="M460.28,-243.59C463.37,-241.81 466.31,-239.79 469,-237.5 499.31,-211.71 474.2,-180.71 505,-155.5 518.27,-144.64 536.65,-139.94 552.68,-138.05"/>
<polygon fill="#63b8ff" stroke="#63b8ff" points="458.66,-240.48 451.19,-247.99 461.72,-246.78 458.66,-240.48"/>
</a>
</g>
</g>
<!-- Node2&#45;&gt;Node22 -->
<g id="edge56_Node000002_Node000022" class="edge">
<title>Node2&#45;&gt;Node22</title>
<g id="a_edge56_Node000002_Node000022"><a xlink:title=" ">
<path fill="none" stroke="#63b8ff" d="M461.2,-263.18C531.58,-271.33 637.77,-286.74 672,-308.5 695.11,-323.19 685.31,-343.17 708,-358.5 713.7,-362.36 720.12,-365.43 726.74,-367.88"/>
<polygon fill="#63b8ff" stroke="#63b8ff" points="461.43,-259.69 451.09,-262.04 460.64,-266.64 461.43,-259.69"/>
</a>
</g>
</g>
<!-- Node2&#45;&gt;Node13 -->
<g id="edge55_Node000002_Node000013" class="edge">
<title>Node2&#45;&gt;Node13</title>
<g id="a_edge55_Node000002_Node000013"><a xlink:title=" ">
<path fill="none" stroke="#63b8ff" d="M440.64,-244.52C460.28,-239.74 483.64,-234.64 505,-231.5 585.14,-219.71 679.28,-215.22 735.44,-213.52"/>
<polygon fill="#63b8ff" stroke="#63b8ff" points="439.6,-241.17 430.74,-246.98 441.29,-247.96 439.6,-241.17"/>
</a>
</g>
</g>
<!-- Node32 -->
<g id="Node000032" class="node">
<title>Node32</title>
<g id="a_Node000032"><a xlink:href="classuniot_1_1_wifi_storage.html" target="_top" xlink:title=" ">
<polygon fill="white" stroke="#666666" points="640.5,-184 536.5,-184 536.5,-165 640.5,-165 640.5,-184"/>
<text text-anchor="middle" x="588.5" y="-172" font-family="Helvetica,sans-Serif" font-size="10.00">uniot::WifiStorage</text>
</a>
</g>
</g>
<!-- Node2&#45;&gt;Node32 -->
<g id="edge57_Node000002_Node000032" class="edge">
<title>Node2&#45;&gt;Node32</title>
<g id="a_edge57_Node000002_Node000032"><a xlink:title=" ">
<path fill="none" stroke="#63b8ff" d="M457.51,-243.3C461.5,-241.59 465.37,-239.67 469,-237.5 489.24,-225.39 484.94,-210.91 505,-198.5 515.15,-192.22 527.01,-187.52 538.52,-184.03"/>
<polygon fill="#63b8ff" stroke="#63b8ff" points="456.12,-240.08 448,-246.9 458.6,-246.63 456.12,-240.08"/>
</a>
</g>
</g>
</g>
</svg>
