<?xml version="1.0" encoding="UTF-8" standalone="no"?>
<!DOCTYPE svg PUBLIC "-//W3C//DTD SVG 1.1//EN"
 "http://www.w3.org/Graphics/SVG/1.1/DTD/svg11.dtd">
<!-- Generated by graphviz version 2.43.0 (0)
 -->
<!-- Title: Button.h Pages: 1 -->
<svg width="241pt" height="247pt"
 viewBox="0.00 0.00 241.00 247.00" xmlns="http://www.w3.org/2000/svg" xmlns:xlink="http://www.w3.org/1999/xlink">
<g id="graph0" class="graph" transform="scale(1 1) rotate(0) translate(4 243)">
<title>Button.h</title>
<!-- Node1 -->
<g id="Node000001" class="node">
<title>Node1</title>
<g id="a_Node000001"><a xlink:title=" ">
<polygon fill="#999999" stroke="#666666" points="147,-239 89,-239 89,-220 147,-220 147,-239"/>
<text text-anchor="middle" x="118" y="-227" font-family="Helvetica,sans-Serif" font-size="10.00">Button.h</text>
</a>
</g>
</g>
<!-- Node2 -->
<g id="Node000002" class="node">
<title>Node2</title>
<g id="a_Node000002"><a xlink:href="_lisp_primitives_8h.html" target="_top" xlink:title=" ">
<polygon fill="white" stroke="#666666" points="227.5,-184 132.5,-184 132.5,-165 227.5,-165 227.5,-184"/>
<text text-anchor="middle" x="180" y="-172" font-family="Helvetica,sans-Serif" font-size="10.00">LispPrimitives.h</text>
</a>
</g>
</g>
<!-- Node1&#45;&gt;Node2 -->
<g id="edge1_Node000001_Node000002" class="edge">
<title>Node1&#45;&gt;Node2</title>
<g id="a_edge1_Node000001_Node000002"><a xlink:title=" ">
<path fill="none" stroke="#63b8ff" d="M135.75,-213.32C146.81,-203.87 160.63,-192.06 169.86,-184.17"/>
<polygon fill="#63b8ff" stroke="#63b8ff" points="133.29,-210.83 127.96,-219.98 137.84,-216.15 133.29,-210.83"/>
</a>
</g>
</g>
<!-- Node7 -->
<g id="Node000007" class="node">
<title>Node7</title>
<g id="a_Node000007"><a xlink:href="_network_controller_8h.html" target="_top" xlink:title="High&#45;level network management controller with user interface.">
<polygon fill="white" stroke="#666666" points="114,-184 0,-184 0,-165 114,-165 114,-184"/>
<text text-anchor="middle" x="57" y="-172" font-family="Helvetica,sans-Serif" font-size="10.00">NetworkController.h</text>
</a>
</g>
</g>
<!-- Node1&#45;&gt;Node7 -->
<g id="edge6_Node000001_Node000007" class="edge">
<title>Node1&#45;&gt;Node7</title>
<g id="a_edge6_Node000001_Node000007"><a xlink:title=" ">
<path fill="none" stroke="#63b8ff" d="M100.53,-213.32C89.66,-203.87 76.06,-192.06 66.98,-184.17"/>
<polygon fill="#63b8ff" stroke="#63b8ff" points="98.35,-216.07 108.2,-219.98 102.95,-210.78 98.35,-216.07"/>
</a>
</g>
</g>
<!-- Node3 -->
<g id="Node000003" class="node">
<title>Node3</title>
<g id="a_Node000003"><a xlink:href="_app_kit_8h.html" target="_top" xlink:title=" ">
<polygon fill="white" stroke="#666666" points="98,-129 40,-129 40,-110 98,-110 98,-129"/>
<text text-anchor="middle" x="69" y="-117" font-family="Helvetica,sans-Serif" font-size="10.00">AppKit.h</text>
</a>
</g>
</g>
<!-- Node2&#45;&gt;Node3 -->
<g id="edge2_Node000002_Node000003" class="edge">
<title>Node2&#45;&gt;Node3</title>
<g id="a_edge2_Node000002_Node000003"><a xlink:title=" ">
<path fill="none" stroke="#63b8ff" d="M153.05,-160.63C132.61,-150.87 105.05,-137.71 87.16,-129.17"/>
<polygon fill="#63b8ff" stroke="#63b8ff" points="151.63,-163.83 162.17,-164.98 154.65,-157.52 151.63,-163.83"/>
</a>
</g>
</g>
<!-- Node6 -->
<g id="Node000006" class="node">
<title>Node6</title>
<g id="a_Node000006"><a xlink:href="_lisp_primitives_8cpp.html" target="_top" xlink:title=" ">
<polygon fill="white" stroke="#666666" points="233,-129 127,-129 127,-110 233,-110 233,-129"/>
<text text-anchor="middle" x="180" y="-117" font-family="Helvetica,sans-Serif" font-size="10.00">LispPrimitives.cpp</text>
</a>
</g>
</g>
<!-- Node2&#45;&gt;Node6 -->
<g id="edge5_Node000002_Node000006" class="edge">
<title>Node2&#45;&gt;Node6</title>
<g id="a_edge5_Node000002_Node000006"><a xlink:title=" ">
<path fill="none" stroke="#63b8ff" d="M180,-154.66C180,-145.93 180,-135.99 180,-129.09"/>
<polygon fill="#63b8ff" stroke="#63b8ff" points="176.5,-154.75 180,-164.75 183.5,-154.75 176.5,-154.75"/>
</a>
</g>
</g>
<!-- Node4 -->
<g id="Node000004" class="node">
<title>Node4</title>
<g id="a_Node000004"><a xlink:href="_uniot_8h.html" target="_top" xlink:title="Main API interface for the Uniot IoT platform.">
<polygon fill="white" stroke="#666666" points="95,-74 43,-74 43,-55 95,-55 95,-74"/>
<text text-anchor="middle" x="69" y="-62" font-family="Helvetica,sans-Serif" font-size="10.00">Uniot.h</text>
</a>
</g>
</g>
<!-- Node3&#45;&gt;Node4 -->
<g id="edge3_Node000003_Node000004" class="edge">
<title>Node3&#45;&gt;Node4</title>
<g id="a_edge3_Node000003_Node000004"><a xlink:title=" ">
<path fill="none" stroke="#63b8ff" d="M69,-99.66C69,-90.93 69,-80.99 69,-74.09"/>
<polygon fill="#63b8ff" stroke="#63b8ff" points="65.5,-99.75 69,-109.75 72.5,-99.75 65.5,-99.75"/>
</a>
</g>
</g>
<!-- Node5 -->
<g id="Node000005" class="node">
<title>Node5</title>
<g id="a_Node000005"><a xlink:href="_uniot_8cpp.html" target="_top" xlink:title=" ">
<polygon fill="white" stroke="#666666" points="100.5,-19 37.5,-19 37.5,0 100.5,0 100.5,-19"/>
<text text-anchor="middle" x="69" y="-7" font-family="Helvetica,sans-Serif" font-size="10.00">Uniot.cpp</text>
</a>
</g>
</g>
<!-- Node4&#45;&gt;Node5 -->
<g id="edge4_Node000004_Node000005" class="edge">
<title>Node4&#45;&gt;Node5</title>
<g id="a_edge4_Node000004_Node000005"><a xlink:title=" ">
<path fill="none" stroke="#63b8ff" d="M69,-44.66C69,-35.93 69,-25.99 69,-19.09"/>
<polygon fill="#63b8ff" stroke="#63b8ff" points="65.5,-44.75 69,-54.75 72.5,-44.75 65.5,-44.75"/>
</a>
</g>
</g>
<!-- Node7&#45;&gt;Node3 -->
<g id="edge7_Node000007_Node000003" class="edge">
<title>Node7&#45;&gt;Node3</title>
<g id="a_edge7_Node000007_Node000003"><a xlink:title=" ">
<path fill="none" stroke="#63b8ff" d="M61.2,-154.95C63.19,-146.15 65.48,-136.06 67.06,-129.09"/>
<polygon fill="#63b8ff" stroke="#63b8ff" points="57.78,-154.22 58.98,-164.75 64.6,-155.77 57.78,-154.22"/>
</a>
</g>
</g>
</g>
</svg>
