<?xml version="1.0" encoding="UTF-8" standalone="no"?>
<!DOCTYPE svg PUBLIC "-//W3C//DTD SVG 1.1//EN"
 "http://www.w3.org/Graphics/SVG/1.1/DTD/svg11.dtd">
<!-- Generated by graphviz version 2.43.0 (0)
 -->
<!-- Title: CBORObject.h Pages: 1 -->
<svg width="927pt" height="467pt"
 viewBox="0.00 0.00 926.50 467.00" xmlns="http://www.w3.org/2000/svg" xmlns:xlink="http://www.w3.org/1999/xlink">
<g id="graph0" class="graph" transform="scale(1 1) rotate(0) translate(4 463)">
<title>CBORObject.h</title>
<!-- Node1 -->
<g id="Node000001" class="node">
<title>Node1</title>
<g id="a_Node000001"><a xlink:title=" ">
<polygon fill="#999999" stroke="#666666" points="394,-459 309,-459 309,-440 394,-440 394,-459"/>
<text text-anchor="middle" x="351.5" y="-447" font-family="Helvetica,sans-Serif" font-size="10.00">CBORObject.h</text>
</a>
</g>
</g>
<!-- Node2 -->
<g id="Node000002" class="node">
<title>Node2</title>
<g id="a_Node000002"><a xlink:href="_c_b_o_r_storage_8h.html" target="_top" xlink:title=" ">
<polygon fill="white" stroke="#666666" points="474,-349 383,-349 383,-330 474,-330 474,-349"/>
<text text-anchor="middle" x="428.5" y="-337" font-family="Helvetica,sans-Serif" font-size="10.00">CBORStorage.h</text>
</a>
</g>
</g>
<!-- Node1&#45;&gt;Node2 -->
<g id="edge1_Node000001_Node000002" class="edge">
<title>Node1&#45;&gt;Node2</title>
<g id="a_edge1_Node000001_Node000002"><a xlink:title=" ">
<path fill="none" stroke="#63b8ff" d="M363.7,-431.38C380.37,-408.01 409.63,-366.97 422.33,-349.16"/>
<polygon fill="#63b8ff" stroke="#63b8ff" points="360.76,-429.49 357.8,-439.66 366.46,-433.55 360.76,-429.49"/>
</a>
</g>
</g>
<!-- Node5 -->
<g id="Node000005" class="node">
<title>Node5</title>
<g id="a_Node000005"><a xlink:href="_m_q_t_t_kit_8h.html" target="_top" xlink:title=" ">
<polygon fill="white" stroke="#666666" points="263.5,-184 195.5,-184 195.5,-165 263.5,-165 263.5,-184"/>
<text text-anchor="middle" x="229.5" y="-172" font-family="Helvetica,sans-Serif" font-size="10.00">MQTTKit.h</text>
</a>
</g>
</g>
<!-- Node1&#45;&gt;Node5 -->
<g id="edge28_Node000001_Node000005" class="edge">
<title>Node1&#45;&gt;Node5</title>
<g id="a_edge28_Node000001_Node000005"><a xlink:title=" ">
<path fill="none" stroke="#63b8ff" d="M298.85,-446.06C231.52,-439.78 123.5,-417.68 123.5,-340.5 123.5,-340.5 123.5,-340.5 123.5,-283.5 123.5,-234.37 180.06,-199.39 210.55,-184.1"/>
<polygon fill="#63b8ff" stroke="#63b8ff" points="298.62,-449.55 308.88,-446.9 299.21,-442.58 298.62,-449.55"/>
</a>
</g>
</g>
<!-- Node14 -->
<g id="Node000014" class="node">
<title>Node14</title>
<g id="a_Node000014"><a xlink:href="_top_device_8h.html" target="_top" xlink:title=" ">
<polygon fill="white" stroke="#666666" points="357.5,-184 281.5,-184 281.5,-165 357.5,-165 357.5,-184"/>
<text text-anchor="middle" x="319.5" y="-172" font-family="Helvetica,sans-Serif" font-size="10.00">TopDevice.h</text>
</a>
</g>
</g>
<!-- Node1&#45;&gt;Node14 -->
<g id="edge39_Node000001_Node000014" class="edge">
<title>Node1&#45;&gt;Node14</title>
<g id="a_edge39_Node000001_Node000014"><a xlink:title=" ">
<path fill="none" stroke="#63b8ff" d="M336.19,-432.29C319,-412.33 293.5,-376.63 293.5,-340.5 293.5,-340.5 293.5,-340.5 293.5,-283.5 293.5,-245.51 308.9,-202.03 315.99,-184.01"/>
<polygon fill="#63b8ff" stroke="#63b8ff" points="333.66,-434.72 342.94,-439.83 338.88,-430.05 333.66,-434.72"/>
</a>
</g>
</g>
<!-- Node16 -->
<g id="Node000016" class="node">
<title>Node16</title>
<g id="a_Node000016"><a xlink:href="_c_o_s_e_message_8h.html" target="_top" xlink:title=" ">
<polygon fill="white" stroke="#666666" points="95,-404 0,-404 0,-385 95,-385 95,-404"/>
<text text-anchor="middle" x="47.5" y="-392" font-family="Helvetica,sans-Serif" font-size="10.00">COSEMessage.h</text>
</a>
</g>
</g>
<!-- Node1&#45;&gt;Node16 -->
<g id="edge26_Node000001_Node000016" class="edge">
<title>Node1&#45;&gt;Node16</title>
<g id="a_edge26_Node000001_Node000016"><a xlink:title=" ">
<path fill="none" stroke="#63b8ff" d="M298.95,-439.34C241.54,-429.33 150.41,-413.44 95.05,-403.79"/>
<polygon fill="#63b8ff" stroke="#63b8ff" points="298.46,-442.81 308.91,-441.07 299.66,-435.91 298.46,-442.81"/>
</a>
</g>
</g>
<!-- Node17 -->
<g id="Node000017" class="node">
<title>Node17</title>
<g id="a_Node000017"><a xlink:href="_register_manager_8h.html" target="_top" xlink:title=" ">
<polygon fill="white" stroke="#666666" points="759.5,-404 651.5,-404 651.5,-385 759.5,-385 759.5,-404"/>
<text text-anchor="middle" x="705.5" y="-392" font-family="Helvetica,sans-Serif" font-size="10.00">RegisterManager.h</text>
</a>
</g>
</g>
<!-- Node1&#45;&gt;Node17 -->
<g id="edge29_Node000001_Node000017" class="edge">
<title>Node1&#45;&gt;Node17</title>
<g id="a_edge29_Node000001_Node000017"><a xlink:title=" ">
<path fill="none" stroke="#63b8ff" d="M404.45,-440.57C470.92,-430.62 584.33,-413.64 651.36,-403.61"/>
<polygon fill="#63b8ff" stroke="#63b8ff" points="403.57,-437.16 394.2,-442.11 404.61,-444.09 403.57,-437.16"/>
</a>
</g>
</g>
<!-- Node23 -->
<g id="Node000023" class="node">
<title>Node23</title>
<g id="a_Node000023"><a xlink:href="un_lisp_8h.html" target="_top" xlink:title=" ">
<polygon fill="white" stroke="#666666" points="655,-239 598,-239 598,-220 655,-220 655,-239"/>
<text text-anchor="middle" x="626.5" y="-227" font-family="Helvetica,sans-Serif" font-size="10.00">unLisp.h</text>
</a>
</g>
</g>
<!-- Node1&#45;&gt;Node23 -->
<g id="edge40_Node000001_Node000023" class="edge">
<title>Node1&#45;&gt;Node23</title>
<g id="a_edge40_Node000001_Node000023"><a xlink:title=" ">
<path fill="none" stroke="#63b8ff" d="M371.6,-433.79C397.67,-414.62 444.43,-379.89 483.5,-349 534.09,-309.01 592.91,-259.18 616.23,-239.29"/>
<polygon fill="#63b8ff" stroke="#63b8ff" points="369.28,-431.16 363.29,-439.89 373.42,-436.8 369.28,-431.16"/>
</a>
</g>
</g>
<!-- Node3 -->
<g id="Node000003" class="node">
<title>Node3</title>
<g id="a_Node000003"><a xlink:href="_credentials_8h.html" target="_top" xlink:title=" ">
<polygon fill="white" stroke="#666666" points="265,-294 184,-294 184,-275 265,-275 265,-294"/>
<text text-anchor="middle" x="224.5" y="-282" font-family="Helvetica,sans-Serif" font-size="10.00">Credentials.h</text>
</a>
</g>
</g>
<!-- Node2&#45;&gt;Node3 -->
<g id="edge2_Node000002_Node000003" class="edge">
<title>Node2&#45;&gt;Node3</title>
<g id="a_edge2_Node000002_Node000003"><a xlink:title=" ">
<path fill="none" stroke="#63b8ff" d="M385.92,-327.44C347.73,-317.52 292.48,-303.16 257.53,-294.08"/>
<polygon fill="#63b8ff" stroke="#63b8ff" points="385.17,-330.86 395.72,-329.98 386.93,-324.08 385.17,-330.86"/>
</a>
</g>
</g>
<!-- Node11 -->
<g id="Node000011" class="node">
<title>Node11</title>
<g id="a_Node000011"><a xlink:href="_network_controller_8h.html" target="_top" xlink:title="High&#45;level network management controller with user interface.">
<polygon fill="white" stroke="#666666" points="565.5,-184 451.5,-184 451.5,-165 565.5,-165 565.5,-184"/>
<text text-anchor="middle" x="508.5" y="-172" font-family="Helvetica,sans-Serif" font-size="10.00">NetworkController.h</text>
</a>
</g>
</g>
<!-- Node2&#45;&gt;Node11 -->
<g id="edge23_Node000002_Node000011" class="edge">
<title>Node2&#45;&gt;Node11</title>
<g id="a_edge23_Node000002_Node000011"><a xlink:title=" ">
<path fill="none" stroke="#63b8ff" d="M447.63,-323.39C468.27,-305.73 499.88,-274.37 512.5,-239 519.18,-220.27 514.49,-196.49 511.12,-184.02"/>
<polygon fill="#63b8ff" stroke="#63b8ff" points="445.26,-320.81 439.8,-329.89 449.73,-326.2 445.26,-320.81"/>
</a>
</g>
</g>
<!-- Node12 -->
<g id="Node000012" class="node">
<title>Node12</title>
<g id="a_Node000012"><a xlink:href="_date_8h.html" target="_top" xlink:title=" ">
<polygon fill="white" stroke="#666666" points="503,-239 454,-239 454,-220 503,-220 503,-239"/>
<text text-anchor="middle" x="478.5" y="-227" font-family="Helvetica,sans-Serif" font-size="10.00">Date.h</text>
</a>
</g>
</g>
<!-- Node2&#45;&gt;Node12 -->
<g id="edge14_Node000002_Node000012" class="edge">
<title>Node2&#45;&gt;Node12</title>
<g id="a_edge14_Node000002_Node000012"><a xlink:title=" ">
<path fill="none" stroke="#63b8ff" d="M436.86,-320.44C447.75,-296.92 466.35,-256.73 474.49,-239.16"/>
<polygon fill="#63b8ff" stroke="#63b8ff" points="433.62,-319.12 432.59,-329.66 439.97,-322.06 433.62,-319.12"/>
</a>
</g>
</g>
<!-- Node13 -->
<g id="Node000013" class="node">
<title>Node13</title>
<g id="a_Node000013"><a xlink:href="_lisp_device_8h.html" target="_top" xlink:title=" ">
<polygon fill="white" stroke="#666666" points="663,-184 584,-184 584,-165 663,-165 663,-184"/>
<text text-anchor="middle" x="623.5" y="-172" font-family="Helvetica,sans-Serif" font-size="10.00">LispDevice.h</text>
</a>
</g>
</g>
<!-- Node2&#45;&gt;Node13 -->
<g id="edge22_Node000002_Node000013" class="edge">
<title>Node2&#45;&gt;Node13</title>
<g id="a_edge22_Node000002_Node000013"><a xlink:title=" ">
<path fill="none" stroke="#63b8ff" d="M452.74,-324.67C466.59,-316.39 484.02,-305.3 498.5,-294 546.13,-256.85 596.42,-204.55 615.52,-184.13"/>
<polygon fill="#63b8ff" stroke="#63b8ff" points="450.66,-321.83 443.81,-329.92 454.21,-327.87 450.66,-321.83"/>
</a>
</g>
</g>
<!-- Node15 -->
<g id="Node000015" class="node">
<title>Node15</title>
<g id="a_Node000015"><a xlink:href="_wifi_storage_8h.html" target="_top" xlink:title=" ">
<polygon fill="white" stroke="#666666" points="427.5,-294 345.5,-294 345.5,-275 427.5,-275 427.5,-294"/>
<text text-anchor="middle" x="386.5" y="-282" font-family="Helvetica,sans-Serif" font-size="10.00">WifiStorage.h</text>
</a>
</g>
</g>
<!-- Node2&#45;&gt;Node15 -->
<g id="edge24_Node000002_Node000015" class="edge">
<title>Node2&#45;&gt;Node15</title>
<g id="a_edge24_Node000002_Node000015"><a xlink:title=" ">
<path fill="none" stroke="#63b8ff" d="M415.17,-321.67C407.89,-312.5 399.2,-301.52 393.31,-294.09"/>
<polygon fill="#63b8ff" stroke="#63b8ff" points="412.61,-324.08 421.56,-329.75 418.1,-319.74 412.61,-324.08"/>
</a>
</g>
</g>
<!-- Node4 -->
<g id="Node000004" class="node">
<title>Node4</title>
<g id="a_Node000004"><a xlink:href="_m_q_t_t_path_8h.html" target="_top" xlink:title=" ">
<polygon fill="white" stroke="#666666" points="265,-239 190,-239 190,-220 265,-220 265,-239"/>
<text text-anchor="middle" x="227.5" y="-227" font-family="Helvetica,sans-Serif" font-size="10.00">MQTTPath.h</text>
</a>
</g>
</g>
<!-- Node3&#45;&gt;Node4 -->
<g id="edge3_Node000003_Node000004" class="edge">
<title>Node3&#45;&gt;Node4</title>
<g id="a_edge3_Node000003_Node000004"><a xlink:title=" ">
<path fill="none" stroke="#63b8ff" d="M225.57,-264.66C226.06,-255.93 226.62,-245.99 227.01,-239.09"/>
<polygon fill="#63b8ff" stroke="#63b8ff" points="222.07,-264.57 225,-274.75 229.06,-264.96 222.07,-264.57"/>
</a>
</g>
</g>
<!-- Node7 -->
<g id="Node000007" class="node">
<title>Node7</title>
<g id="a_Node000007"><a xlink:href="_uniot_8h.html" target="_top" xlink:title="Main API interface for the Uniot IoT platform.">
<polygon fill="white" stroke="#666666" points="411.5,-74 359.5,-74 359.5,-55 411.5,-55 411.5,-74"/>
<text text-anchor="middle" x="385.5" y="-62" font-family="Helvetica,sans-Serif" font-size="10.00">Uniot.h</text>
</a>
</g>
</g>
<!-- Node3&#45;&gt;Node7 -->
<g id="edge13_Node000003_Node000007" class="edge">
<title>Node3&#45;&gt;Node7</title>
<g id="a_edge13_Node000003_Node000007"><a xlink:title=" ">
<path fill="none" stroke="#63b8ff" d="M204.26,-268.57C195.5,-260.84 186.19,-250.59 181.5,-239 160.01,-185.84 145.54,-154.65 181.5,-110 203.56,-82.62 309.34,-71.18 359.28,-67.25"/>
<polygon fill="#63b8ff" stroke="#63b8ff" points="202.06,-271.29 212.01,-274.93 206.5,-265.88 202.06,-271.29"/>
</a>
</g>
</g>
<!-- Node10 -->
<g id="Node000010" class="node">
<title>Node10</title>
<g id="a_Node000010"><a xlink:href="_network_scheduler_8h.html" target="_top" xlink:title="Complete WiFi network management and configuration system.">
<polygon fill="white" stroke="#666666" points="435.5,-239 321.5,-239 321.5,-220 435.5,-220 435.5,-239"/>
<text text-anchor="middle" x="378.5" y="-227" font-family="Helvetica,sans-Serif" font-size="10.00">NetworkScheduler.h</text>
</a>
</g>
</g>
<!-- Node3&#45;&gt;Node10 -->
<g id="edge9_Node000003_Node000010" class="edge">
<title>Node3&#45;&gt;Node10</title>
<g id="a_edge9_Node000003_Node000010"><a xlink:title=" ">
<path fill="none" stroke="#63b8ff" d="M258.88,-271.67C287.59,-261.79 327.86,-247.93 353.56,-239.08"/>
<polygon fill="#63b8ff" stroke="#63b8ff" points="257.56,-268.42 249.24,-274.98 259.84,-275.04 257.56,-268.42"/>
</a>
</g>
</g>
<!-- Node4&#45;&gt;Node5 -->
<g id="edge4_Node000004_Node000005" class="edge">
<title>Node4&#45;&gt;Node5</title>
<g id="a_edge4_Node000004_Node000005"><a xlink:title=" ">
<path fill="none" stroke="#63b8ff" d="M228.21,-209.66C228.54,-200.93 228.92,-190.99 229.18,-184.09"/>
<polygon fill="#63b8ff" stroke="#63b8ff" points="224.71,-209.62 227.83,-219.75 231.7,-209.89 224.71,-209.62"/>
</a>
</g>
</g>
<!-- Node6 -->
<g id="Node000006" class="node">
<title>Node6</title>
<g id="a_Node000006"><a xlink:href="_app_kit_8h.html" target="_top" xlink:title=" ">
<polygon fill="white" stroke="#666666" points="504.5,-129 446.5,-129 446.5,-110 504.5,-110 504.5,-129"/>
<text text-anchor="middle" x="475.5" y="-117" font-family="Helvetica,sans-Serif" font-size="10.00">AppKit.h</text>
</a>
</g>
</g>
<!-- Node5&#45;&gt;Node6 -->
<g id="edge5_Node000005_Node000006" class="edge">
<title>Node5&#45;&gt;Node6</title>
<g id="a_edge5_Node000005_Node000006"><a xlink:title=" ">
<path fill="none" stroke="#63b8ff" d="M273.57,-164.01C323.48,-153.25 403.4,-136.03 446.19,-126.81"/>
<polygon fill="#63b8ff" stroke="#63b8ff" points="272.74,-160.6 263.71,-166.13 274.22,-167.45 272.74,-160.6"/>
</a>
</g>
</g>
<!-- Node9 -->
<g id="Node000009" class="node">
<title>Node9</title>
<g id="a_Node000009"><a xlink:href="_m_q_t_t_device_8cpp.html" target="_top" xlink:title=" ">
<polygon fill="white" stroke="#666666" points="289,-129 190,-129 190,-110 289,-110 289,-129"/>
<text text-anchor="middle" x="239.5" y="-117" font-family="Helvetica,sans-Serif" font-size="10.00">MQTTDevice.cpp</text>
</a>
</g>
</g>
<!-- Node5&#45;&gt;Node9 -->
<g id="edge8_Node000005_Node000009" class="edge">
<title>Node5&#45;&gt;Node9</title>
<g id="a_edge8_Node000005_Node000009"><a xlink:title=" ">
<path fill="none" stroke="#63b8ff" d="M233.05,-154.66C234.7,-145.93 236.58,-135.99 237.88,-129.09"/>
<polygon fill="#63b8ff" stroke="#63b8ff" points="229.57,-154.27 231.15,-164.75 236.44,-155.57 229.57,-154.27"/>
</a>
</g>
</g>
<!-- Node6&#45;&gt;Node7 -->
<g id="edge6_Node000006_Node000007" class="edge">
<title>Node6&#45;&gt;Node7</title>
<g id="a_edge6_Node000006_Node000007"><a xlink:title=" ">
<path fill="none" stroke="#63b8ff" d="M452.06,-104.7C435.66,-95.04 414.27,-82.44 400.22,-74.17"/>
<polygon fill="#63b8ff" stroke="#63b8ff" points="450.65,-107.93 461.04,-109.98 454.2,-101.89 450.65,-107.93"/>
</a>
</g>
</g>
<!-- Node8 -->
<g id="Node000008" class="node">
<title>Node8</title>
<g id="a_Node000008"><a xlink:href="_uniot_8cpp.html" target="_top" xlink:title=" ">
<polygon fill="white" stroke="#666666" points="417,-19 354,-19 354,0 417,0 417,-19"/>
<text text-anchor="middle" x="385.5" y="-7" font-family="Helvetica,sans-Serif" font-size="10.00">Uniot.cpp</text>
</a>
</g>
</g>
<!-- Node7&#45;&gt;Node8 -->
<g id="edge7_Node000007_Node000008" class="edge">
<title>Node7&#45;&gt;Node8</title>
<g id="a_edge7_Node000007_Node000008"><a xlink:title=" ">
<path fill="none" stroke="#63b8ff" d="M385.5,-44.66C385.5,-35.93 385.5,-25.99 385.5,-19.09"/>
<polygon fill="#63b8ff" stroke="#63b8ff" points="382,-44.75 385.5,-54.75 389,-44.75 382,-44.75"/>
</a>
</g>
</g>
<!-- Node10&#45;&gt;Node5 -->
<g id="edge10_Node000010_Node000005" class="edge">
<title>Node10&#45;&gt;Node5</title>
<g id="a_edge10_Node000010_Node000005"><a xlink:title=" ">
<path fill="none" stroke="#63b8ff" d="M344.91,-216.55C317.24,-206.71 278.66,-192.98 253.88,-184.17"/>
<polygon fill="#63b8ff" stroke="#63b8ff" points="343.97,-219.93 354.56,-219.98 346.31,-213.34 343.97,-219.93"/>
</a>
</g>
</g>
<!-- Node10&#45;&gt;Node11 -->
<g id="edge11_Node000010_Node000011" class="edge">
<title>Node10&#45;&gt;Node11</title>
<g id="a_edge11_Node000010_Node000011"><a xlink:title=" ">
<path fill="none" stroke="#63b8ff" d="M408.77,-216.16C432.84,-206.35 465.9,-192.87 487.23,-184.17"/>
<polygon fill="#63b8ff" stroke="#63b8ff" points="407.33,-212.97 399.39,-219.98 409.97,-219.45 407.33,-212.97"/>
</a>
</g>
</g>
<!-- Node11&#45;&gt;Node6 -->
<g id="edge12_Node000011_Node000006" class="edge">
<title>Node11&#45;&gt;Node6</title>
<g id="a_edge12_Node000011_Node000006"><a xlink:title=" ">
<path fill="none" stroke="#63b8ff" d="M497.67,-156.1C492.03,-147.04 485.38,-136.37 480.85,-129.09"/>
<polygon fill="#63b8ff" stroke="#63b8ff" points="494.79,-158.11 503.05,-164.75 500.74,-154.41 494.79,-158.11"/>
</a>
</g>
</g>
<!-- Node12&#45;&gt;Node5 -->
<g id="edge18_Node000012_Node000005" class="edge">
<title>Node12&#45;&gt;Node5</title>
<g id="a_edge18_Node000012_Node000005"><a xlink:title=" ">
<path fill="none" stroke="#63b8ff" d="M443.8,-219.93C397.32,-209.55 311.62,-192.1 263.68,-182.4"/>
<polygon fill="#63b8ff" stroke="#63b8ff" points="443.12,-223.37 453.65,-222.16 444.67,-216.54 443.12,-223.37"/>
</a>
</g>
</g>
<!-- Node12&#45;&gt;Node6 -->
<g id="edge15_Node000012_Node000006" class="edge">
<title>Node12&#45;&gt;Node6</title>
<g id="a_edge15_Node000012_Node000006"><a xlink:title=" ">
<path fill="none" stroke="#63b8ff" d="M460.87,-212.29C453.71,-204.51 446.25,-194.59 442.5,-184 435.21,-163.39 453.54,-141.1 465.71,-129.19"/>
<polygon fill="#63b8ff" stroke="#63b8ff" points="458.81,-215.18 468.34,-219.81 463.78,-210.24 458.81,-215.18"/>
</a>
</g>
</g>
<!-- Node12&#45;&gt;Node7 -->
<g id="edge21_Node000012_Node000007" class="edge">
<title>Node12&#45;&gt;Node7</title>
<g id="a_edge21_Node000012_Node000007"><a xlink:title=" ">
<path fill="none" stroke="#63b8ff" d="M461.09,-212.82C452.88,-204.79 443.4,-194.49 436.5,-184 411.65,-146.19 394.26,-94.27 388.03,-74.05"/>
<polygon fill="#63b8ff" stroke="#63b8ff" points="458.77,-215.45 468.45,-219.77 463.58,-210.36 458.77,-215.45"/>
</a>
</g>
</g>
<!-- Node12&#45;&gt;Node13 -->
<g id="edge16_Node000012_Node000013" class="edge">
<title>Node12&#45;&gt;Node13</title>
<g id="a_edge16_Node000012_Node000013"><a xlink:title=" ">
<path fill="none" stroke="#63b8ff" d="M511.19,-216.55C538.12,-206.71 575.66,-192.98 599.78,-184.17"/>
<polygon fill="#63b8ff" stroke="#63b8ff" points="509.99,-213.26 501.8,-219.98 512.39,-219.84 509.99,-213.26"/>
</a>
</g>
</g>
<!-- Node12&#45;&gt;Node14 -->
<g id="edge19_Node000012_Node000014" class="edge">
<title>Node12&#45;&gt;Node14</title>
<g id="a_edge19_Node000012_Node000014"><a xlink:title=" ">
<path fill="none" stroke="#63b8ff" d="M444.1,-217.03C414.38,-207.13 372.09,-193.03 345.22,-184.07"/>
<polygon fill="#63b8ff" stroke="#63b8ff" points="443.06,-220.38 453.66,-220.22 445.28,-213.74 443.06,-220.38"/>
</a>
</g>
</g>
<!-- Node13&#45;&gt;Node6 -->
<g id="edge17_Node000013_Node000006" class="edge">
<title>Node13&#45;&gt;Node6</title>
<g id="a_edge17_Node000013_Node000006"><a xlink:title=" ">
<path fill="none" stroke="#63b8ff" d="M590.13,-161.55C562.65,-151.71 524.33,-137.98 499.71,-129.17"/>
<polygon fill="#63b8ff" stroke="#63b8ff" points="589.13,-164.91 599.72,-164.98 591.49,-158.32 589.13,-164.91"/>
</a>
</g>
</g>
<!-- Node14&#45;&gt;Node6 -->
<g id="edge20_Node000014_Node000006" class="edge">
<title>Node14&#45;&gt;Node6</title>
<g id="a_edge20_Node000014_Node000006"><a xlink:title=" ">
<path fill="none" stroke="#63b8ff" d="M354.32,-161.67C383.41,-151.79 424.2,-137.93 450.24,-129.08"/>
<polygon fill="#63b8ff" stroke="#63b8ff" points="352.91,-158.45 344.56,-164.98 355.16,-165.08 352.91,-158.45"/>
</a>
</g>
</g>
<!-- Node15&#45;&gt;Node10 -->
<g id="edge25_Node000015_Node000010" class="edge">
<title>Node15&#45;&gt;Node10</title>
<g id="a_edge25_Node000015_Node000010"><a xlink:title=" ">
<path fill="none" stroke="#63b8ff" d="M383.66,-264.66C382.34,-255.93 380.84,-245.99 379.8,-239.09"/>
<polygon fill="#63b8ff" stroke="#63b8ff" points="380.23,-265.38 385.18,-274.75 387.15,-264.34 380.23,-265.38"/>
</a>
</g>
</g>
<!-- Node16&#45;&gt;Node5 -->
<g id="edge27_Node000016_Node000005" class="edge">
<title>Node16&#45;&gt;Node5</title>
<g id="a_edge27_Node000016_Node000005"><a xlink:title=" ">
<path fill="none" stroke="#63b8ff" d="M49.08,-374.73C53,-339.65 66.27,-263.75 109.5,-220 132.46,-196.77 168.62,-185.54 195.25,-180.2"/>
<polygon fill="#63b8ff" stroke="#63b8ff" points="45.57,-374.66 48.07,-384.95 52.53,-375.34 45.57,-374.66"/>
</a>
</g>
</g>
<!-- Node18 -->
<g id="Node000018" class="node">
<title>Node18</title>
<g id="a_Node000018"><a xlink:href="_register_manager_proxy_8h.html" target="_top" xlink:title=" ">
<polygon fill="white" stroke="#666666" points="786,-349 651,-349 651,-330 786,-330 786,-349"/>
<text text-anchor="middle" x="718.5" y="-337" font-family="Helvetica,sans-Serif" font-size="10.00">RegisterManagerProxy.h</text>
</a>
</g>
</g>
<!-- Node17&#45;&gt;Node18 -->
<g id="edge30_Node000017_Node000018" class="edge">
<title>Node17&#45;&gt;Node18</title>
<g id="a_edge30_Node000017_Node000018"><a xlink:title=" ">
<path fill="none" stroke="#63b8ff" d="M710.05,-374.95C712.21,-366.15 714.68,-356.06 716.39,-349.09"/>
<polygon fill="#63b8ff" stroke="#63b8ff" points="706.63,-374.2 707.65,-384.75 713.43,-375.87 706.63,-374.2"/>
</a>
</g>
</g>
<!-- Node19 -->
<g id="Node000019" class="node">
<title>Node19</title>
<g id="a_Node000019"><a xlink:href="_primitive_expeditor_8h.html" target="_top" xlink:title=" ">
<polygon fill="white" stroke="#666666" points="788.5,-294 672.5,-294 672.5,-275 788.5,-275 788.5,-294"/>
<text text-anchor="middle" x="730.5" y="-282" font-family="Helvetica,sans-Serif" font-size="10.00">PrimitiveExpeditor.h</text>
</a>
</g>
</g>
<!-- Node18&#45;&gt;Node19 -->
<g id="edge31_Node000018_Node000019" class="edge">
<title>Node18&#45;&gt;Node19</title>
<g id="a_edge31_Node000018_Node000019"><a xlink:title=" ">
<path fill="none" stroke="#63b8ff" d="M722.7,-319.95C724.69,-311.15 726.98,-301.06 728.56,-294.09"/>
<polygon fill="#63b8ff" stroke="#63b8ff" points="719.28,-319.22 720.48,-329.75 726.1,-320.77 719.28,-319.22"/>
</a>
</g>
</g>
<!-- Node20 -->
<g id="Node000020" class="node">
<title>Node20</title>
<g id="a_Node000020"><a xlink:href="_lisp_primitives_8h.html" target="_top" xlink:title=" ">
<polygon fill="white" stroke="#666666" points="913,-239 818,-239 818,-220 913,-220 913,-239"/>
<text text-anchor="middle" x="865.5" y="-227" font-family="Helvetica,sans-Serif" font-size="10.00">LispPrimitives.h</text>
</a>
</g>
</g>
<!-- Node19&#45;&gt;Node20 -->
<g id="edge32_Node000019_Node000020" class="edge">
<title>Node19&#45;&gt;Node20</title>
<g id="a_edge32_Node000019_Node000020"><a xlink:title=" ">
<path fill="none" stroke="#63b8ff" d="M761.6,-271.29C786.62,-261.47 821.16,-247.91 843.42,-239.17"/>
<polygon fill="#63b8ff" stroke="#63b8ff" points="760.22,-268.07 752.19,-274.98 762.78,-274.59 760.22,-268.07"/>
</a>
</g>
</g>
<!-- Node22 -->
<g id="Node000022" class="node">
<title>Node22</title>
<g id="a_Node000022"><a xlink:href="_primitive_expeditor_8cpp.html" target="_top" xlink:title=" ">
<polygon fill="white" stroke="#666666" points="800,-239 673,-239 673,-220 800,-220 800,-239"/>
<text text-anchor="middle" x="736.5" y="-227" font-family="Helvetica,sans-Serif" font-size="10.00">PrimitiveExpeditor.cpp</text>
</a>
</g>
</g>
<!-- Node19&#45;&gt;Node22 -->
<g id="edge35_Node000019_Node000022" class="edge">
<title>Node19&#45;&gt;Node22</title>
<g id="a_edge35_Node000019_Node000022"><a xlink:title=" ">
<path fill="none" stroke="#63b8ff" d="M732.63,-264.66C733.62,-255.93 734.75,-245.99 735.53,-239.09"/>
<polygon fill="#63b8ff" stroke="#63b8ff" points="729.14,-264.42 731.49,-274.75 736.09,-265.21 729.14,-264.42"/>
</a>
</g>
</g>
<!-- Node19&#45;&gt;Node23 -->
<g id="edge36_Node000019_Node000023" class="edge">
<title>Node19&#45;&gt;Node23</title>
<g id="a_edge36_Node000019_Node000023"><a xlink:title=" ">
<path fill="none" stroke="#63b8ff" d="M704.73,-270.37C685.63,-260.63 660.13,-247.64 643.51,-239.17"/>
<polygon fill="#63b8ff" stroke="#63b8ff" points="703.29,-273.56 713.79,-274.98 706.47,-267.33 703.29,-273.56"/>
</a>
</g>
</g>
<!-- Node20&#45;&gt;Node6 -->
<g id="edge33_Node000020_Node000006" class="edge">
<title>Node20&#45;&gt;Node6</title>
<g id="a_edge33_Node000020_Node000006"><a xlink:title=" ">
<path fill="none" stroke="#63b8ff" d="M834.94,-216.07C799.99,-202.21 740.83,-179.78 688.5,-165 623.79,-146.73 546.09,-132.35 504.75,-125.29"/>
<polygon fill="#63b8ff" stroke="#63b8ff" points="833.97,-219.45 844.56,-219.91 836.57,-212.95 833.97,-219.45"/>
</a>
</g>
</g>
<!-- Node21 -->
<g id="Node000021" class="node">
<title>Node21</title>
<g id="a_Node000021"><a xlink:href="_lisp_primitives_8cpp.html" target="_top" xlink:title=" ">
<polygon fill="white" stroke="#666666" points="918.5,-184 812.5,-184 812.5,-165 918.5,-165 918.5,-184"/>
<text text-anchor="middle" x="865.5" y="-172" font-family="Helvetica,sans-Serif" font-size="10.00">LispPrimitives.cpp</text>
</a>
</g>
</g>
<!-- Node20&#45;&gt;Node21 -->
<g id="edge34_Node000020_Node000021" class="edge">
<title>Node20&#45;&gt;Node21</title>
<g id="a_edge34_Node000020_Node000021"><a xlink:title=" ">
<path fill="none" stroke="#63b8ff" d="M865.5,-209.66C865.5,-200.93 865.5,-190.99 865.5,-184.09"/>
<polygon fill="#63b8ff" stroke="#63b8ff" points="862,-209.75 865.5,-219.75 869,-209.75 862,-209.75"/>
</a>
</g>
</g>
<!-- Node23&#45;&gt;Node6 -->
<g id="edge37_Node000023_Node000006" class="edge">
<title>Node23&#45;&gt;Node6</title>
<g id="a_edge37_Node000023_Node000006"><a xlink:title=" ">
<path fill="none" stroke="#63b8ff" d="M648.88,-214.05C666.33,-200.98 685.57,-181.36 672.5,-165 651.81,-139.12 554.29,-127.2 504.67,-122.73"/>
<polygon fill="#63b8ff" stroke="#63b8ff" points="646.76,-211.26 640.61,-219.89 650.8,-216.98 646.76,-211.26"/>
</a>
</g>
</g>
<!-- Node23&#45;&gt;Node13 -->
<g id="edge38_Node000023_Node000013" class="edge">
<title>Node23&#45;&gt;Node13</title>
<g id="a_edge38_Node000023_Node000013"><a xlink:title=" ">
<path fill="none" stroke="#63b8ff" d="M625.43,-209.66C624.94,-200.93 624.38,-190.99 623.99,-184.09"/>
<polygon fill="#63b8ff" stroke="#63b8ff" points="621.94,-209.96 626,-219.75 628.93,-209.57 621.94,-209.96"/>
</a>
</g>
</g>
</g>
</svg>
