<?xml version="1.0" encoding="UTF-8" standalone="no"?>
<!DOCTYPE svg PUBLIC "-//W3C//DTD SVG 1.1//EN"
 "http://www.w3.org/Graphics/SVG/1.1/DTD/svg11.dtd">
<!-- Generated by graphviz version 2.43.0 (0)
 -->
<!-- Title: CBORStorage.h Pages: 1 -->
<svg width="496pt" height="357pt"
 viewBox="0.00 0.00 496.14 357.00" xmlns="http://www.w3.org/2000/svg" xmlns:xlink="http://www.w3.org/1999/xlink">
<g id="graph0" class="graph" transform="scale(1 1) rotate(0) translate(4 353)">
<title>CBORStorage.h</title>
<!-- Node1 -->
<g id="Node000001" class="node">
<title>Node1</title>
<g id="a_Node000001"><a xlink:title=" ">
<polygon fill="#999999" stroke="#666666" points="264.81,-349 173.81,-349 173.81,-330 264.81,-330 264.81,-349"/>
<text text-anchor="middle" x="219.31" y="-337" font-family="Helvetica,sans-Serif" font-size="10.00">CBORStorage.h</text>
</a>
</g>
</g>
<!-- Node2 -->
<g id="Node000002" class="node">
<title>Node2</title>
<g id="a_Node000002"><a xlink:href="_credentials_8h.html" target="_top" xlink:title=" ">
<polygon fill="white" stroke="#666666" points="446.81,-294 365.81,-294 365.81,-275 446.81,-275 446.81,-294"/>
<text text-anchor="middle" x="406.31" y="-282" font-family="Helvetica,sans-Serif" font-size="10.00">Credentials.h</text>
</a>
</g>
</g>
<!-- Node1&#45;&gt;Node2 -->
<g id="edge1_Node000001_Node000002" class="edge">
<title>Node1&#45;&gt;Node2</title>
<g id="a_edge1_Node000001_Node000002"><a xlink:title=" ">
<path fill="none" stroke="#63b8ff" d="M259.23,-327.18C294.21,-317.27 344.27,-303.08 376.03,-294.08"/>
<polygon fill="#63b8ff" stroke="#63b8ff" points="258.02,-323.89 249.35,-329.98 259.93,-330.63 258.02,-323.89"/>
</a>
</g>
</g>
<!-- Node10 -->
<g id="Node000010" class="node">
<title>Node10</title>
<g id="a_Node000010"><a xlink:href="_network_controller_8h.html" target="_top" xlink:title="High&#45;level network management controller with user interface.">
<polygon fill="white" stroke="#666666" points="357.31,-184 243.31,-184 243.31,-165 357.31,-165 357.31,-184"/>
<text text-anchor="middle" x="300.31" y="-172" font-family="Helvetica,sans-Serif" font-size="10.00">NetworkController.h</text>
</a>
</g>
</g>
<!-- Node1&#45;&gt;Node10 -->
<g id="edge22_Node000001_Node000010" class="edge">
<title>Node1&#45;&gt;Node10</title>
<g id="a_edge22_Node000001_Node000010"><a xlink:title=" ">
<path fill="none" stroke="#63b8ff" d="M218.05,-319.84C217.29,-295.13 219.11,-251.06 238.31,-220 248.41,-203.66 266.96,-191.55 281.14,-184.13"/>
<polygon fill="#63b8ff" stroke="#63b8ff" points="214.57,-320.18 218.55,-329.99 221.56,-319.83 214.57,-320.18"/>
</a>
</g>
</g>
<!-- Node11 -->
<g id="Node000011" class="node">
<title>Node11</title>
<g id="a_Node000011"><a xlink:href="_date_8h.html" target="_top" xlink:title=" ">
<polygon fill="white" stroke="#666666" points="149.81,-239 100.81,-239 100.81,-220 149.81,-220 149.81,-239"/>
<text text-anchor="middle" x="125.31" y="-227" font-family="Helvetica,sans-Serif" font-size="10.00">Date.h</text>
</a>
</g>
</g>
<!-- Node1&#45;&gt;Node11 -->
<g id="edge13_Node000001_Node000011" class="edge">
<title>Node1&#45;&gt;Node11</title>
<g id="a_edge13_Node000001_Node000011"><a xlink:title=" ">
<path fill="none" stroke="#63b8ff" d="M199.34,-323.59C189.14,-315.46 176.89,-304.85 167.31,-294 151.55,-276.17 137.19,-252.02 130.05,-239.25"/>
<polygon fill="#63b8ff" stroke="#63b8ff" points="197.27,-326.42 207.32,-329.79 201.57,-320.89 197.27,-326.42"/>
</a>
</g>
</g>
<!-- Node12 -->
<g id="Node000012" class="node">
<title>Node12</title>
<g id="a_Node000012"><a xlink:href="_lisp_device_8h.html" target="_top" xlink:title=" ">
<polygon fill="white" stroke="#666666" points="224.81,-184 145.81,-184 145.81,-165 224.81,-165 224.81,-184"/>
<text text-anchor="middle" x="185.31" y="-172" font-family="Helvetica,sans-Serif" font-size="10.00">LispDevice.h</text>
</a>
</g>
</g>
<!-- Node1&#45;&gt;Node12 -->
<g id="edge21_Node000001_Node000012" class="edge">
<title>Node1&#45;&gt;Node12</title>
<g id="a_edge21_Node000001_Node000012"><a xlink:title=" ">
<path fill="none" stroke="#63b8ff" d="M212.87,-320.04C210.27,-312.1 207.39,-302.66 205.31,-294 195.55,-253.43 188.83,-203.92 186.36,-184.21"/>
<polygon fill="#63b8ff" stroke="#63b8ff" points="209.63,-321.39 216.15,-329.74 216.26,-319.14 209.63,-321.39"/>
</a>
</g>
</g>
<!-- Node14 -->
<g id="Node000014" class="node">
<title>Node14</title>
<g id="a_Node000014"><a xlink:href="_wifi_storage_8h.html" target="_top" xlink:title=" ">
<polygon fill="white" stroke="#666666" points="337.31,-294 255.31,-294 255.31,-275 337.31,-275 337.31,-294"/>
<text text-anchor="middle" x="296.31" y="-282" font-family="Helvetica,sans-Serif" font-size="10.00">WifiStorage.h</text>
</a>
</g>
</g>
<!-- Node1&#45;&gt;Node14 -->
<g id="edge23_Node000001_Node000014" class="edge">
<title>Node1&#45;&gt;Node14</title>
<g id="a_edge23_Node000001_Node000014"><a xlink:title=" ">
<path fill="none" stroke="#63b8ff" d="M240.15,-324.15C254.07,-314.57 271.91,-302.29 283.71,-294.17"/>
<polygon fill="#63b8ff" stroke="#63b8ff" points="237.93,-321.43 231.68,-329.98 241.9,-327.2 237.93,-321.43"/>
</a>
</g>
</g>
<!-- Node3 -->
<g id="Node000003" class="node">
<title>Node3</title>
<g id="a_Node000003"><a xlink:href="_m_q_t_t_path_8h.html" target="_top" xlink:title=" ">
<polygon fill="white" stroke="#666666" points="454.81,-239 379.81,-239 379.81,-220 454.81,-220 454.81,-239"/>
<text text-anchor="middle" x="417.31" y="-227" font-family="Helvetica,sans-Serif" font-size="10.00">MQTTPath.h</text>
</a>
</g>
</g>
<!-- Node2&#45;&gt;Node3 -->
<g id="edge2_Node000002_Node000003" class="edge">
<title>Node2&#45;&gt;Node3</title>
<g id="a_edge2_Node000002_Node000003"><a xlink:title=" ">
<path fill="none" stroke="#63b8ff" d="M410.16,-264.95C411.98,-256.15 414.08,-246.06 415.52,-239.09"/>
<polygon fill="#63b8ff" stroke="#63b8ff" points="406.73,-264.25 408.12,-274.75 413.58,-265.67 406.73,-264.25"/>
</a>
</g>
</g>
<!-- Node6 -->
<g id="Node000006" class="node">
<title>Node6</title>
<g id="a_Node000006"><a xlink:href="_uniot_8h.html" target="_top" xlink:title="Main API interface for the Uniot IoT platform.">
<polygon fill="white" stroke="#666666" points="211.31,-74 159.31,-74 159.31,-55 211.31,-55 211.31,-74"/>
<text text-anchor="middle" x="185.31" y="-62" font-family="Helvetica,sans-Serif" font-size="10.00">Uniot.h</text>
</a>
</g>
</g>
<!-- Node2&#45;&gt;Node6 -->
<g id="edge12_Node000002_Node000006" class="edge">
<title>Node2&#45;&gt;Node6</title>
<g id="a_edge12_Node000002_Node000006"><a xlink:title=" ">
<path fill="none" stroke="#63b8ff" d="M433.67,-269.89C445.37,-262.5 457.82,-252.15 464.31,-239 489.66,-187.58 501.52,-153.62 464.31,-110 431.91,-72.03 274.72,-66.31 211.61,-65.56"/>
<polygon fill="#63b8ff" stroke="#63b8ff" points="431.84,-266.9 424.97,-274.97 435.37,-272.95 431.84,-266.9"/>
</a>
</g>
</g>
<!-- Node9 -->
<g id="Node000009" class="node">
<title>Node9</title>
<g id="a_Node000009"><a xlink:href="_network_scheduler_8h.html" target="_top" xlink:title="Complete WiFi network management and configuration system.">
<polygon fill="white" stroke="#666666" points="361.31,-239 247.31,-239 247.31,-220 361.31,-220 361.31,-239"/>
<text text-anchor="middle" x="304.31" y="-227" font-family="Helvetica,sans-Serif" font-size="10.00">NetworkScheduler.h</text>
</a>
</g>
</g>
<!-- Node2&#45;&gt;Node9 -->
<g id="edge8_Node000002_Node000009" class="edge">
<title>Node2&#45;&gt;Node9</title>
<g id="a_edge8_Node000002_Node000009"><a xlink:title=" ">
<path fill="none" stroke="#63b8ff" d="M381.03,-270.37C362.3,-260.63 337.29,-247.64 320.99,-239.17"/>
<polygon fill="#63b8ff" stroke="#63b8ff" points="379.43,-273.48 389.92,-274.98 382.66,-267.27 379.43,-273.48"/>
</a>
</g>
</g>
<!-- Node4 -->
<g id="Node000004" class="node">
<title>Node4</title>
<g id="a_Node000004"><a xlink:href="_m_q_t_t_kit_8h.html" target="_top" xlink:title=" ">
<polygon fill="white" stroke="#666666" points="443.31,-184 375.31,-184 375.31,-165 443.31,-165 443.31,-184"/>
<text text-anchor="middle" x="409.31" y="-172" font-family="Helvetica,sans-Serif" font-size="10.00">MQTTKit.h</text>
</a>
</g>
</g>
<!-- Node3&#45;&gt;Node4 -->
<g id="edge3_Node000003_Node000004" class="edge">
<title>Node3&#45;&gt;Node4</title>
<g id="a_edge3_Node000003_Node000004"><a xlink:title=" ">
<path fill="none" stroke="#63b8ff" d="M414.46,-209.66C413.14,-200.93 411.64,-190.99 410.6,-184.09"/>
<polygon fill="#63b8ff" stroke="#63b8ff" points="411.03,-210.38 415.98,-219.75 417.95,-209.34 411.03,-210.38"/>
</a>
</g>
</g>
<!-- Node5 -->
<g id="Node000005" class="node">
<title>Node5</title>
<g id="a_Node000005"><a xlink:href="_app_kit_8h.html" target="_top" xlink:title=" ">
<polygon fill="white" stroke="#666666" points="214.31,-129 156.31,-129 156.31,-110 214.31,-110 214.31,-129"/>
<text text-anchor="middle" x="185.31" y="-117" font-family="Helvetica,sans-Serif" font-size="10.00">AppKit.h</text>
</a>
</g>
</g>
<!-- Node4&#45;&gt;Node5 -->
<g id="edge4_Node000004_Node000005" class="edge">
<title>Node4&#45;&gt;Node5</title>
<g id="a_edge4_Node000004_Node000005"><a xlink:title=" ">
<path fill="none" stroke="#63b8ff" d="M365.32,-163.09C320.75,-152.55 253.05,-136.53 214.64,-127.44"/>
<polygon fill="#63b8ff" stroke="#63b8ff" points="364.75,-166.55 375.28,-165.45 366.36,-159.74 364.75,-166.55"/>
</a>
</g>
</g>
<!-- Node8 -->
<g id="Node000008" class="node">
<title>Node8</title>
<g id="a_Node000008"><a xlink:href="_m_q_t_t_device_8cpp.html" target="_top" xlink:title=" ">
<polygon fill="white" stroke="#666666" points="454.81,-129 355.81,-129 355.81,-110 454.81,-110 454.81,-129"/>
<text text-anchor="middle" x="405.31" y="-117" font-family="Helvetica,sans-Serif" font-size="10.00">MQTTDevice.cpp</text>
</a>
</g>
</g>
<!-- Node4&#45;&gt;Node8 -->
<g id="edge7_Node000004_Node000008" class="edge">
<title>Node4&#45;&gt;Node8</title>
<g id="a_edge7_Node000004_Node000008"><a xlink:title=" ">
<path fill="none" stroke="#63b8ff" d="M407.88,-154.66C407.22,-145.93 406.47,-135.99 405.95,-129.09"/>
<polygon fill="#63b8ff" stroke="#63b8ff" points="404.4,-155.04 408.64,-164.75 411.38,-154.51 404.4,-155.04"/>
</a>
</g>
</g>
<!-- Node5&#45;&gt;Node6 -->
<g id="edge5_Node000005_Node000006" class="edge">
<title>Node5&#45;&gt;Node6</title>
<g id="a_edge5_Node000005_Node000006"><a xlink:title=" ">
<path fill="none" stroke="#63b8ff" d="M185.31,-99.66C185.31,-90.93 185.31,-80.99 185.31,-74.09"/>
<polygon fill="#63b8ff" stroke="#63b8ff" points="181.81,-99.75 185.31,-109.75 188.81,-99.75 181.81,-99.75"/>
</a>
</g>
</g>
<!-- Node7 -->
<g id="Node000007" class="node">
<title>Node7</title>
<g id="a_Node000007"><a xlink:href="_uniot_8cpp.html" target="_top" xlink:title=" ">
<polygon fill="white" stroke="#666666" points="216.81,-19 153.81,-19 153.81,0 216.81,0 216.81,-19"/>
<text text-anchor="middle" x="185.31" y="-7" font-family="Helvetica,sans-Serif" font-size="10.00">Uniot.cpp</text>
</a>
</g>
</g>
<!-- Node6&#45;&gt;Node7 -->
<g id="edge6_Node000006_Node000007" class="edge">
<title>Node6&#45;&gt;Node7</title>
<g id="a_edge6_Node000006_Node000007"><a xlink:title=" ">
<path fill="none" stroke="#63b8ff" d="M185.31,-44.66C185.31,-35.93 185.31,-25.99 185.31,-19.09"/>
<polygon fill="#63b8ff" stroke="#63b8ff" points="181.81,-44.75 185.31,-54.75 188.81,-44.75 181.81,-44.75"/>
</a>
</g>
</g>
<!-- Node9&#45;&gt;Node4 -->
<g id="edge9_Node000009_Node000004" class="edge">
<title>Node9&#45;&gt;Node4</title>
<g id="a_edge9_Node000009_Node000004"><a xlink:title=" ">
<path fill="none" stroke="#63b8ff" d="M330.32,-215.37C349.61,-205.63 375.35,-192.64 392.13,-184.17"/>
<polygon fill="#63b8ff" stroke="#63b8ff" points="328.53,-212.35 321.18,-219.98 331.68,-218.6 328.53,-212.35"/>
</a>
</g>
</g>
<!-- Node9&#45;&gt;Node10 -->
<g id="edge10_Node000009_Node000010" class="edge">
<title>Node9&#45;&gt;Node10</title>
<g id="a_edge10_Node000009_Node000010"><a xlink:title=" ">
<path fill="none" stroke="#63b8ff" d="M302.88,-209.66C302.22,-200.93 301.47,-190.99 300.95,-184.09"/>
<polygon fill="#63b8ff" stroke="#63b8ff" points="299.4,-210.04 303.64,-219.75 306.38,-209.51 299.4,-210.04"/>
</a>
</g>
</g>
<!-- Node10&#45;&gt;Node5 -->
<g id="edge11_Node000010_Node000005" class="edge">
<title>Node10&#45;&gt;Node5</title>
<g id="a_edge11_Node000010_Node000005"><a xlink:title=" ">
<path fill="none" stroke="#63b8ff" d="M272.67,-160.77C251.46,-150.99 222.74,-137.75 204.12,-129.17"/>
<polygon fill="#63b8ff" stroke="#63b8ff" points="271.28,-163.98 281.83,-164.98 274.21,-157.62 271.28,-163.98"/>
</a>
</g>
</g>
<!-- Node11&#45;&gt;Node4 -->
<g id="edge17_Node000011_Node000004" class="edge">
<title>Node11&#45;&gt;Node4</title>
<g id="a_edge17_Node000011_Node000004"><a xlink:title=" ">
<path fill="none" stroke="#63b8ff" d="M159.88,-222.26C206.71,-213.77 292.87,-198.04 366.31,-184 369.15,-183.46 372.09,-182.89 375.05,-182.31"/>
<polygon fill="#63b8ff" stroke="#63b8ff" points="159.17,-218.83 149.96,-224.05 160.42,-225.72 159.17,-218.83"/>
</a>
</g>
</g>
<!-- Node11&#45;&gt;Node5 -->
<g id="edge14_Node000011_Node000005" class="edge">
<title>Node11&#45;&gt;Node5</title>
<g id="a_edge14_Node000011_Node000005"><a xlink:title=" ">
<path fill="none" stroke="#63b8ff" d="M125.4,-209.44C126.21,-196.23 128.8,-178.65 136.31,-165 144.61,-149.89 160,-137.21 171.33,-129.3"/>
<polygon fill="#63b8ff" stroke="#63b8ff" points="121.89,-209.59 125.07,-219.7 128.89,-209.82 121.89,-209.59"/>
</a>
</g>
</g>
<!-- Node11&#45;&gt;Node6 -->
<g id="edge20_Node000011_Node000006" class="edge">
<title>Node11&#45;&gt;Node6</title>
<g id="a_edge20_Node000011_Node000006"><a xlink:title=" ">
<path fill="none" stroke="#63b8ff" d="M90.67,-224.25C47.86,-217.39 -16.89,-200.84 4.31,-165 38.08,-107.9 117.56,-81.37 159.05,-71.04"/>
<polygon fill="#63b8ff" stroke="#63b8ff" points="90.34,-227.74 100.75,-225.75 91.38,-220.81 90.34,-227.74"/>
</a>
</g>
</g>
<!-- Node11&#45;&gt;Node12 -->
<g id="edge15_Node000011_Node000012" class="edge">
<title>Node11&#45;&gt;Node12</title>
<g id="a_edge15_Node000011_Node000012"><a xlink:title=" ">
<path fill="none" stroke="#63b8ff" d="M142.49,-213.32C153.18,-203.87 166.56,-192.06 175.49,-184.17"/>
<polygon fill="#63b8ff" stroke="#63b8ff" points="140.12,-210.74 134.95,-219.98 144.76,-215.99 140.12,-210.74"/>
</a>
</g>
</g>
<!-- Node13 -->
<g id="Node000013" class="node">
<title>Node13</title>
<g id="a_Node000013"><a xlink:href="_top_device_8h.html" target="_top" xlink:title=" ">
<polygon fill="white" stroke="#666666" points="89.31,-184 13.31,-184 13.31,-165 89.31,-165 89.31,-184"/>
<text text-anchor="middle" x="51.31" y="-172" font-family="Helvetica,sans-Serif" font-size="10.00">TopDevice.h</text>
</a>
</g>
</g>
<!-- Node11&#45;&gt;Node13 -->
<g id="edge18_Node000011_Node000013" class="edge">
<title>Node11&#45;&gt;Node13</title>
<g id="a_edge18_Node000011_Node000013"><a xlink:title=" ">
<path fill="none" stroke="#63b8ff" d="M105.27,-214.15C91.9,-204.57 74.75,-192.29 63.41,-184.17"/>
<polygon fill="#63b8ff" stroke="#63b8ff" points="103.25,-217.01 113.42,-219.98 107.32,-211.32 103.25,-217.01"/>
</a>
</g>
</g>
<!-- Node12&#45;&gt;Node5 -->
<g id="edge16_Node000012_Node000005" class="edge">
<title>Node12&#45;&gt;Node5</title>
<g id="a_edge16_Node000012_Node000005"><a xlink:title=" ">
<path fill="none" stroke="#63b8ff" d="M185.31,-154.66C185.31,-145.93 185.31,-135.99 185.31,-129.09"/>
<polygon fill="#63b8ff" stroke="#63b8ff" points="181.81,-154.75 185.31,-164.75 188.81,-154.75 181.81,-154.75"/>
</a>
</g>
</g>
<!-- Node13&#45;&gt;Node5 -->
<g id="edge19_Node000013_Node000005" class="edge">
<title>Node13&#45;&gt;Node5</title>
<g id="a_edge19_Node000013_Node000005"><a xlink:title=" ">
<path fill="none" stroke="#63b8ff" d="M82.17,-161.29C107.01,-151.47 141.29,-137.91 163.38,-129.17"/>
<polygon fill="#63b8ff" stroke="#63b8ff" points="80.85,-158.05 72.83,-164.98 83.42,-164.56 80.85,-158.05"/>
</a>
</g>
</g>
<!-- Node14&#45;&gt;Node9 -->
<g id="edge24_Node000014_Node000009" class="edge">
<title>Node14&#45;&gt;Node9</title>
<g id="a_edge24_Node000014_Node000009"><a xlink:title=" ">
<path fill="none" stroke="#63b8ff" d="M299.15,-264.66C300.47,-255.93 301.97,-245.99 303.01,-239.09"/>
<polygon fill="#63b8ff" stroke="#63b8ff" points="295.66,-264.34 297.63,-274.75 302.58,-265.38 295.66,-264.34"/>
</a>
</g>
</g>
</g>
</svg>
