<?xml version="1.0" encoding="UTF-8" standalone="no"?>
<!DOCTYPE svg PUBLIC "-//W3C//DTD SVG 1.1//EN"
 "http://www.w3.org/Graphics/SVG/1.1/DTD/svg11.dtd">
<!-- Generated by graphviz version 2.43.0 (0)
 -->
<!-- Title: CBORStorage.h Pages: 1 -->
<svg width="631pt" height="247pt"
 viewBox="0.00 0.00 631.00 247.00" xmlns="http://www.w3.org/2000/svg" xmlns:xlink="http://www.w3.org/1999/xlink">
<g id="graph0" class="graph" transform="scale(1 1) rotate(0) translate(4 243)">
<title>CBORStorage.h</title>
<!-- Node1 -->
<g id="Node000001" class="node">
<title>Node1</title>
<g id="a_Node000001"><a xlink:title=" ">
<polygon fill="#999999" stroke="#666666" points="450,-239 359,-239 359,-220 450,-220 450,-239"/>
<text text-anchor="middle" x="404.5" y="-227" font-family="Helvetica,sans-Serif" font-size="10.00">CBORStorage.h</text>
</a>
</g>
</g>
<!-- Node2 -->
<g id="Node000002" class="node">
<title>Node2</title>
<g id="a_Node000002"><a xlink:href="_storage_8h.html" target="_top" xlink:title=" ">
<polygon fill="white" stroke="#666666" points="390,-184 327,-184 327,-165 390,-165 390,-184"/>
<text text-anchor="middle" x="358.5" y="-172" font-family="Helvetica,sans-Serif" font-size="10.00">Storage.h</text>
</a>
</g>
</g>
<!-- Node1&#45;&gt;Node2 -->
<g id="edge1_Node000001_Node000002" class="edge">
<title>Node1&#45;&gt;Node2</title>
<g id="a_edge1_Node000001_Node000002"><a xlink:title=" ">
<path fill="none" stroke="#63b8ff" d="M396.9,-219.75C390.34,-212.18 380.68,-201.05 372.69,-191.84"/>
<polygon fill="#63b8ff" stroke="#63b8ff" points="375.15,-189.35 365.95,-184.09 369.87,-193.94 375.15,-189.35"/>
</a>
</g>
</g>
<!-- Node15 -->
<g id="Node000015" class="node">
<title>Node15</title>
<g id="a_Node000015"><a xlink:href="_c_b_o_r_object_8h.html" target="_top" xlink:title=" ">
<polygon fill="white" stroke="#666666" points="518,-184 433,-184 433,-165 518,-165 518,-184"/>
<text text-anchor="middle" x="475.5" y="-172" font-family="Helvetica,sans-Serif" font-size="10.00">CBORObject.h</text>
</a>
</g>
</g>
<!-- Node1&#45;&gt;Node15 -->
<g id="edge15_Node000001_Node000015" class="edge">
<title>Node1&#45;&gt;Node15</title>
<g id="a_edge15_Node000001_Node000015"><a xlink:title=" ">
<path fill="none" stroke="#63b8ff" d="M415.91,-219.98C426.61,-212 442.84,-199.88 455.66,-190.31"/>
<polygon fill="#63b8ff" stroke="#63b8ff" points="457.97,-192.96 463.89,-184.17 453.78,-187.35 457.97,-192.96"/>
</a>
</g>
</g>
<!-- Node3 -->
<g id="Node000003" class="node">
<title>Node3</title>
<g id="a_Node000003"><a xlink:title=" ">
<polygon fill="#e0e0e0" stroke="#999999" points="314,-129 277,-129 277,-110 314,-110 314,-129"/>
<text text-anchor="middle" x="295.5" y="-117" font-family="Helvetica,sans-Serif" font-size="10.00">FS.h</text>
</a>
</g>
</g>
<!-- Node2&#45;&gt;Node3 -->
<g id="edge2_Node000002_Node000003" class="edge">
<title>Node2&#45;&gt;Node3</title>
<g id="a_edge2_Node000002_Node000003"><a xlink:title=" ">
<path fill="none" stroke="#63b8ff" d="M348.38,-164.98C339.06,-157.15 325.03,-145.34 313.76,-135.86"/>
<polygon fill="#63b8ff" stroke="#63b8ff" points="315.71,-132.93 305.81,-129.17 311.21,-138.29 315.71,-132.93"/>
</a>
</g>
</g>
<!-- Node4 -->
<g id="Node000004" class="node">
<title>Node4</title>
<g id="a_Node000004"><a xlink:title=" ">
<polygon fill="#e0e0e0" stroke="#999999" points="258.5,-129 200.5,-129 200.5,-110 258.5,-110 258.5,-129"/>
<text text-anchor="middle" x="229.5" y="-117" font-family="Helvetica,sans-Serif" font-size="10.00">SPIFFS.h</text>
</a>
</g>
</g>
<!-- Node2&#45;&gt;Node4 -->
<g id="edge3_Node000002_Node000004" class="edge">
<title>Node2&#45;&gt;Node4</title>
<g id="a_edge3_Node000002_Node000004"><a xlink:title=" ">
<path fill="none" stroke="#63b8ff" d="M337.77,-164.98C316.74,-156.34 283.95,-142.87 259.96,-133.02"/>
<polygon fill="#63b8ff" stroke="#63b8ff" points="261.18,-129.73 250.6,-129.17 258.52,-136.21 261.18,-129.73"/>
</a>
</g>
</g>
<!-- Node5 -->
<g id="Node000005" class="node">
<title>Node5</title>
<g id="a_Node000005"><a xlink:href="_bytes_8h.html" target="_top" xlink:title=" ">
<polygon fill="white" stroke="#666666" points="385,-129 332,-129 332,-110 385,-110 385,-129"/>
<text text-anchor="middle" x="358.5" y="-117" font-family="Helvetica,sans-Serif" font-size="10.00">Bytes.h</text>
</a>
</g>
</g>
<!-- Node2&#45;&gt;Node5 -->
<g id="edge4_Node000002_Node000005" class="edge">
<title>Node2&#45;&gt;Node5</title>
<g id="a_edge4_Node000002_Node000005"><a xlink:title=" ">
<path fill="none" stroke="#63b8ff" d="M358.5,-164.75C358.5,-157.8 358.5,-147.85 358.5,-139.13"/>
<polygon fill="#63b8ff" stroke="#63b8ff" points="362,-139.09 358.5,-129.09 355,-139.09 362,-139.09"/>
</a>
</g>
</g>
<!-- Node9 -->
<g id="Node000009" class="node">
<title>Node9</title>
<g id="a_Node000009"><a xlink:href="_logger_8h.html" target="_top" xlink:title=" ">
<polygon fill="white" stroke="#666666" points="467.5,-74 409.5,-74 409.5,-55 467.5,-55 467.5,-74"/>
<text text-anchor="middle" x="438.5" y="-62" font-family="Helvetica,sans-Serif" font-size="10.00">Logger.h</text>
</a>
</g>
</g>
<!-- Node2&#45;&gt;Node9 -->
<g id="edge14_Node000002_Node000009" class="edge">
<title>Node2&#45;&gt;Node9</title>
<g id="a_edge14_Node000002_Node000009"><a xlink:title=" ">
<path fill="none" stroke="#63b8ff" d="M365.6,-164.74C372.77,-155.83 384.09,-141.6 393.5,-129 405.08,-113.49 417.79,-95.46 426.74,-82.58"/>
<polygon fill="#63b8ff" stroke="#63b8ff" points="429.71,-84.44 432.52,-74.23 423.95,-80.46 429.71,-84.44"/>
</a>
</g>
</g>
<!-- Node6 -->
<g id="Node000006" class="node">
<title>Node6</title>
<g id="a_Node000006"><a xlink:href="_common_8h.html" target="_top" xlink:title=" ">
<polygon fill="white" stroke="#666666" points="239.5,-74 169.5,-74 169.5,-55 239.5,-55 239.5,-74"/>
<text text-anchor="middle" x="204.5" y="-62" font-family="Helvetica,sans-Serif" font-size="10.00">Common.h</text>
</a>
</g>
</g>
<!-- Node5&#45;&gt;Node6 -->
<g id="edge5_Node000005_Node000006" class="edge">
<title>Node5&#45;&gt;Node6</title>
<g id="a_edge5_Node000005_Node000006"><a xlink:title=" ">
<path fill="none" stroke="#63b8ff" d="M333.76,-109.98C308.13,-101.16 267.87,-87.31 239.09,-77.41"/>
<polygon fill="#63b8ff" stroke="#63b8ff" points="240.03,-74.03 229.44,-74.08 237.75,-80.65 240.03,-74.03"/>
</a>
</g>
</g>
<!-- Node5&#45;&gt;Node9 -->
<g id="edge8_Node000005_Node000009" class="edge">
<title>Node5&#45;&gt;Node9</title>
<g id="a_edge8_Node000005_Node000009"><a xlink:title=" ">
<path fill="none" stroke="#63b8ff" d="M371.35,-109.98C383.64,-101.84 402.41,-89.41 416.98,-79.76"/>
<polygon fill="#63b8ff" stroke="#63b8ff" points="419.01,-82.61 425.41,-74.17 415.14,-76.78 419.01,-82.61"/>
</a>
</g>
</g>
<!-- Node11 -->
<g id="Node000011" class="node">
<title>Node11</title>
<g id="a_Node000011"><a xlink:title=" ">
<polygon fill="#e0e0e0" stroke="#999999" points="151.5,-74 87.5,-74 87.5,-55 151.5,-55 151.5,-74"/>
<text text-anchor="middle" x="119.5" y="-62" font-family="Helvetica,sans-Serif" font-size="10.00">WString.h</text>
</a>
</g>
</g>
<!-- Node5&#45;&gt;Node11 -->
<g id="edge10_Node000005_Node000011" class="edge">
<title>Node5&#45;&gt;Node11</title>
<g id="a_edge10_Node000005_Node000011"><a xlink:title=" ">
<path fill="none" stroke="#63b8ff" d="M331.77,-112.14C328.65,-111.41 325.51,-110.68 322.5,-110 266.88,-97.34 202.53,-83.34 161.45,-74.49"/>
<polygon fill="#63b8ff" stroke="#63b8ff" points="162.04,-71.04 151.53,-72.36 160.57,-77.88 162.04,-71.04"/>
</a>
</g>
</g>
<!-- Node12 -->
<g id="Node000012" class="node">
<title>Node12</title>
<g id="a_Node000012"><a xlink:title=" ">
<polygon fill="#e0e0e0" stroke="#999999" points="307.5,-74 257.5,-74 257.5,-55 307.5,-55 307.5,-74"/>
<text text-anchor="middle" x="282.5" y="-62" font-family="Helvetica,sans-Serif" font-size="10.00">stdio.h</text>
</a>
</g>
</g>
<!-- Node5&#45;&gt;Node12 -->
<g id="edge11_Node000005_Node000012" class="edge">
<title>Node5&#45;&gt;Node12</title>
<g id="a_edge11_Node000005_Node000012"><a xlink:title=" ">
<path fill="none" stroke="#63b8ff" d="M346.29,-109.98C334.72,-101.92 317.12,-89.65 303.34,-80.03"/>
<polygon fill="#63b8ff" stroke="#63b8ff" points="305.14,-77.02 294.93,-74.17 301.13,-82.76 305.14,-77.02"/>
</a>
</g>
</g>
<!-- Node13 -->
<g id="Node000013" class="node">
<title>Node13</title>
<g id="a_Node000013"><a xlink:title=" ">
<polygon fill="#e0e0e0" stroke="#999999" points="391,-74 326,-74 326,-55 391,-55 391,-74"/>
<text text-anchor="middle" x="358.5" y="-62" font-family="Helvetica,sans-Serif" font-size="10.00">functional</text>
</a>
</g>
</g>
<!-- Node5&#45;&gt;Node13 -->
<g id="edge12_Node000005_Node000013" class="edge">
<title>Node5&#45;&gt;Node13</title>
<g id="a_edge12_Node000005_Node000013"><a xlink:title=" ">
<path fill="none" stroke="#63b8ff" d="M358.5,-109.75C358.5,-102.8 358.5,-92.85 358.5,-84.13"/>
<polygon fill="#63b8ff" stroke="#63b8ff" points="362,-84.09 358.5,-74.09 355,-84.09 362,-84.09"/>
</a>
</g>
</g>
<!-- Node14 -->
<g id="Node000014" class="node">
<title>Node14</title>
<g id="a_Node000014"><a xlink:title=" ">
<polygon fill="#e0e0e0" stroke="#999999" points="69,-74 0,-74 0,-55 69,-55 69,-74"/>
<text text-anchor="middle" x="34.5" y="-62" font-family="Helvetica,sans-Serif" font-size="10.00">type_traits</text>
</a>
</g>
</g>
<!-- Node5&#45;&gt;Node14 -->
<g id="edge13_Node000005_Node000014" class="edge">
<title>Node5&#45;&gt;Node14</title>
<g id="a_edge13_Node000005_Node000014"><a xlink:title=" ">
<path fill="none" stroke="#63b8ff" d="M331.82,-111.93C328.69,-111.24 325.53,-110.58 322.5,-110 217.99,-89.99 188.29,-92.24 79.16,-74.03"/>
<polygon fill="#63b8ff" stroke="#63b8ff" points="79.5,-70.54 69.06,-72.33 78.34,-77.44 79.5,-70.54"/>
</a>
</g>
</g>
<!-- Node7 -->
<g id="Node000007" class="node">
<title>Node7</title>
<g id="a_Node000007"><a xlink:title=" ">
<polygon fill="#e0e0e0" stroke="#999999" points="393.5,-19 335.5,-19 335.5,0 393.5,0 393.5,-19"/>
<text text-anchor="middle" x="364.5" y="-7" font-family="Helvetica,sans-Serif" font-size="10.00">memory</text>
</a>
</g>
</g>
<!-- Node6&#45;&gt;Node7 -->
<g id="edge6_Node000006_Node000007" class="edge">
<title>Node6&#45;&gt;Node7</title>
<g id="a_edge6_Node000006_Node000007"><a xlink:title=" ">
<path fill="none" stroke="#63b8ff" d="M230.21,-54.98C256.95,-46.13 299.03,-32.19 328.95,-22.28"/>
<polygon fill="#63b8ff" stroke="#63b8ff" points="330.2,-25.55 338.59,-19.08 328,-18.9 330.2,-25.55"/>
</a>
</g>
</g>
<!-- Node8 -->
<g id="Node000008" class="node">
<title>Node8</title>
<g id="a_Node000008"><a xlink:title=" ">
<polygon fill="#e0e0e0" stroke="#999999" points="227,-19 182,-19 182,0 227,0 227,-19"/>
<text text-anchor="middle" x="204.5" y="-7" font-family="Helvetica,sans-Serif" font-size="10.00">utility</text>
</a>
</g>
</g>
<!-- Node6&#45;&gt;Node8 -->
<g id="edge7_Node000006_Node000008" class="edge">
<title>Node6&#45;&gt;Node8</title>
<g id="a_edge7_Node000006_Node000008"><a xlink:title=" ">
<path fill="none" stroke="#63b8ff" d="M204.5,-54.75C204.5,-47.8 204.5,-37.85 204.5,-29.13"/>
<polygon fill="#63b8ff" stroke="#63b8ff" points="208,-29.09 204.5,-19.09 201,-29.09 208,-29.09"/>
</a>
</g>
</g>
<!-- Node10 -->
<g id="Node000010" class="node">
<title>Node10</title>
<g id="a_Node000010"><a xlink:title=" ">
<polygon fill="#e0e0e0" stroke="#999999" points="517,-19 454,-19 454,0 517,0 517,-19"/>
<text text-anchor="middle" x="485.5" y="-7" font-family="Helvetica,sans-Serif" font-size="10.00">Arduino.h</text>
</a>
</g>
</g>
<!-- Node9&#45;&gt;Node10 -->
<g id="edge9_Node000009_Node000010" class="edge">
<title>Node9&#45;&gt;Node10</title>
<g id="a_edge9_Node000009_Node000010"><a xlink:title=" ">
<path fill="none" stroke="#63b8ff" d="M446.26,-54.75C452.97,-47.18 462.84,-36.05 471.01,-26.84"/>
<polygon fill="#63b8ff" stroke="#63b8ff" points="473.87,-28.89 477.88,-19.09 468.63,-24.25 473.87,-28.89"/>
</a>
</g>
</g>
<!-- Node15&#45;&gt;Node5 -->
<g id="edge17_Node000015_Node000005" class="edge">
<title>Node15&#45;&gt;Node5</title>
<g id="a_edge17_Node000015_Node000005"><a xlink:title=" ">
<path fill="none" stroke="#63b8ff" d="M456.7,-164.98C437.88,-156.46 408.68,-143.23 387,-133.41"/>
<polygon fill="#63b8ff" stroke="#63b8ff" points="388.19,-130.11 377.64,-129.17 385.3,-136.48 388.19,-130.11"/>
</a>
</g>
</g>
<!-- Node15&#45;&gt;Node7 -->
<g id="edge20_Node000015_Node000007" class="edge">
<title>Node15&#45;&gt;Node7</title>
<g id="a_edge20_Node000015_Node000007"><a xlink:title=" ">
<path fill="none" stroke="#63b8ff" d="M478.63,-164.81C485.58,-143.82 499.95,-89.56 476.5,-55 460.29,-31.11 429.01,-20.05 403.62,-14.92"/>
<polygon fill="#63b8ff" stroke="#63b8ff" points="403.98,-11.43 393.52,-13.12 402.75,-18.32 403.98,-11.43"/>
</a>
</g>
</g>
<!-- Node15&#45;&gt;Node9 -->
<g id="edge18_Node000015_Node000009" class="edge">
<title>Node15&#45;&gt;Node9</title>
<g id="a_edge18_Node000015_Node000009"><a xlink:title=" ">
<path fill="none" stroke="#63b8ff" d="M472.47,-164.66C466.43,-147.01 452.75,-107.09 444.71,-83.64"/>
<polygon fill="#63b8ff" stroke="#63b8ff" points="448.02,-82.48 441.47,-74.16 441.4,-84.75 448.02,-82.48"/>
</a>
</g>
</g>
<!-- Node15&#45;&gt;Node10 -->
<g id="edge16_Node000015_Node000010" class="edge">
<title>Node15&#45;&gt;Node10</title>
<g id="a_edge16_Node000015_Node000010"><a xlink:title=" ">
<path fill="none" stroke="#63b8ff" d="M485.11,-164.69C493.37,-156.41 504.7,-143.18 509.5,-129 520.04,-97.85 517.55,-86.89 509.5,-55 507.09,-45.44 502.17,-35.7 497.41,-27.78"/>
<polygon fill="#63b8ff" stroke="#63b8ff" points="500.22,-25.68 491.87,-19.16 494.33,-29.46 500.22,-25.68"/>
</a>
</g>
</g>
<!-- Node16 -->
<g id="Node000016" class="node">
<title>Node16</title>
<g id="a_Node000016"><a xlink:title=" ">
<polygon fill="#e0e0e0" stroke="#999999" points="623,-129 562,-129 562,-110 623,-110 623,-129"/>
<text text-anchor="middle" x="592.5" y="-117" font-family="Helvetica,sans-Serif" font-size="10.00">cn&#45;cbor.h</text>
</a>
</g>
</g>
<!-- Node15&#45;&gt;Node16 -->
<g id="edge19_Node000015_Node000016" class="edge">
<title>Node15&#45;&gt;Node16</title>
<g id="a_edge19_Node000015_Node000016"><a xlink:title=" ">
<path fill="none" stroke="#63b8ff" d="M494.3,-164.98C513.12,-156.46 542.32,-143.23 564,-133.41"/>
<polygon fill="#63b8ff" stroke="#63b8ff" points="565.7,-136.48 573.36,-129.17 562.81,-130.11 565.7,-136.48"/>
</a>
</g>
</g>
</g>
</svg>
