<?xml version="1.0" encoding="UTF-8" standalone="no"?>
<!DOCTYPE svg PUBLIC "-//W3C//DTD SVG 1.1//EN"
 "http://www.w3.org/Graphics/SVG/1.1/DTD/svg11.dtd">
<!-- Generated by graphviz version 2.43.0 (0)
 -->
<!-- Title: COSEMessage.h Pages: 1 -->
<svg width="562pt" height="247pt"
 viewBox="0.00 0.00 561.96 247.00" xmlns="http://www.w3.org/2000/svg" xmlns:xlink="http://www.w3.org/1999/xlink">
<g id="graph0" class="graph" transform="scale(1 1) rotate(0) translate(4 243)">
<title>COSEMessage.h</title>
<!-- Node1 -->
<g id="Node000001" class="node">
<title>Node1</title>
<g id="a_Node000001"><a xlink:title=" ">
<polygon fill="#999999" stroke="#666666" points="245.46,-239 150.46,-239 150.46,-220 245.46,-220 245.46,-239"/>
<text text-anchor="middle" x="197.96" y="-227" font-family="Helvetica,sans-Serif" font-size="10.00">COSEMessage.h</text>
</a>
</g>
</g>
<!-- Node2 -->
<g id="Node000002" class="node">
<title>Node2</title>
<g id="a_Node000002"><a xlink:title=" ">
<polygon fill="#e0e0e0" stroke="#999999" points="71.46,-19 8.46,-19 8.46,0 71.46,0 71.46,-19"/>
<text text-anchor="middle" x="39.96" y="-7" font-family="Helvetica,sans-Serif" font-size="10.00">Arduino.h</text>
</a>
</g>
</g>
<!-- Node1&#45;&gt;Node2 -->
<g id="edge1_Node000001_Node000002" class="edge">
<title>Node1&#45;&gt;Node2</title>
<g id="a_edge1_Node000001_Node000002"><a xlink:title=" ">
<path fill="none" stroke="#63b8ff" d="M150.36,-222.61C121.22,-216.9 84.71,-205.74 58.96,-184 16.89,-148.47 15,-127.5 1.96,-74 -0.04,-65.8 -0.96,-62.92 1.96,-55 6.02,-43.99 14.15,-33.86 21.86,-26.05"/>
<polygon fill="#63b8ff" stroke="#63b8ff" points="24.38,-28.48 29.25,-19.07 19.57,-23.39 24.38,-28.48"/>
</a>
</g>
</g>
<!-- Node3 -->
<g id="Node000003" class="node">
<title>Node3</title>
<g id="a_Node000003"><a xlink:href="_bytes_8h.html" target="_top" xlink:title=" ">
<polygon fill="white" stroke="#666666" points="295.46,-129 242.46,-129 242.46,-110 295.46,-110 295.46,-129"/>
<text text-anchor="middle" x="268.96" y="-117" font-family="Helvetica,sans-Serif" font-size="10.00">Bytes.h</text>
</a>
</g>
</g>
<!-- Node1&#45;&gt;Node3 -->
<g id="edge2_Node000001_Node000003" class="edge">
<title>Node1&#45;&gt;Node3</title>
<g id="a_edge2_Node000001_Node000003"><a xlink:title=" ">
<path fill="none" stroke="#63b8ff" d="M199,-219.62C200.86,-206.7 205.66,-182.36 216.96,-165 224.66,-153.17 236.4,-142.74 246.78,-134.96"/>
<polygon fill="#63b8ff" stroke="#63b8ff" points="248.94,-137.72 255.06,-129.07 244.89,-132.01 248.94,-137.72"/>
</a>
</g>
</g>
<!-- Node7 -->
<g id="Node000007" class="node">
<title>Node7</title>
<g id="a_Node000007"><a xlink:href="_logger_8h.html" target="_top" xlink:title=" ">
<polygon fill="white" stroke="#666666" points="68.96,-74 10.96,-74 10.96,-55 68.96,-55 68.96,-74"/>
<text text-anchor="middle" x="39.96" y="-62" font-family="Helvetica,sans-Serif" font-size="10.00">Logger.h</text>
</a>
</g>
</g>
<!-- Node1&#45;&gt;Node7 -->
<g id="edge13_Node000001_Node000007" class="edge">
<title>Node1&#45;&gt;Node7</title>
<g id="a_edge13_Node000001_Node000007"><a xlink:title=" ">
<path fill="none" stroke="#63b8ff" d="M150.2,-221.84C124.68,-215.94 94.58,-204.83 74.96,-184 48.94,-156.37 42.17,-110.34 40.47,-84.53"/>
<polygon fill="#63b8ff" stroke="#63b8ff" points="43.95,-84.07 39.99,-74.24 36.96,-84.39 43.95,-84.07"/>
</a>
</g>
</g>
<!-- Node12 -->
<g id="Node000012" class="node">
<title>Node12</title>
<g id="a_Node000012"><a xlink:title=" ">
<polygon fill="#e0e0e0" stroke="#999999" points="435.96,-184 367.96,-184 367.96,-165 435.96,-165 435.96,-184"/>
<text text-anchor="middle" x="401.96" y="-172" font-family="Helvetica,sans-Serif" font-size="10.00">Ed25519.h</text>
</a>
</g>
</g>
<!-- Node1&#45;&gt;Node12 -->
<g id="edge12_Node000001_Node000012" class="edge">
<title>Node1&#45;&gt;Node12</title>
<g id="a_edge12_Node000001_Node000012"><a xlink:title=" ">
<path fill="none" stroke="#63b8ff" d="M230.74,-219.98C265.58,-210.93 320.83,-196.58 359.1,-186.64"/>
<polygon fill="#63b8ff" stroke="#63b8ff" points="360.13,-189.98 368.93,-184.08 358.37,-183.21 360.13,-189.98"/>
</a>
</g>
</g>
<!-- Node13 -->
<g id="Node000013" class="node">
<title>Node13</title>
<g id="a_Node000013"><a xlink:href="_c_b_o_r_object_8h.html" target="_top" xlink:title=" ">
<polygon fill="white" stroke="#666666" points="169.46,-184 84.46,-184 84.46,-165 169.46,-165 169.46,-184"/>
<text text-anchor="middle" x="126.96" y="-172" font-family="Helvetica,sans-Serif" font-size="10.00">CBORObject.h</text>
</a>
</g>
</g>
<!-- Node1&#45;&gt;Node13 -->
<g id="edge14_Node000001_Node000013" class="edge">
<title>Node1&#45;&gt;Node13</title>
<g id="a_edge14_Node000001_Node000013"><a xlink:title=" ">
<path fill="none" stroke="#63b8ff" d="M186.55,-219.98C175.85,-212 159.62,-199.88 146.8,-190.31"/>
<polygon fill="#63b8ff" stroke="#63b8ff" points="148.68,-187.35 138.58,-184.17 144.5,-192.96 148.68,-187.35"/>
</a>
</g>
</g>
<!-- Node15 -->
<g id="Node000015" class="node">
<title>Node15</title>
<g id="a_Node000015"><a xlink:href="_c_o_s_e_8h.html" target="_top" xlink:title=" ">
<polygon fill="white" stroke="#666666" points="365.96,-129 313.96,-129 313.96,-110 365.96,-110 365.96,-129"/>
<text text-anchor="middle" x="339.96" y="-117" font-family="Helvetica,sans-Serif" font-size="10.00">COSE.h</text>
</a>
</g>
</g>
<!-- Node1&#45;&gt;Node15 -->
<g id="edge20_Node000001_Node000015" class="edge">
<title>Node1&#45;&gt;Node15</title>
<g id="a_edge20_Node000001_Node000015"><a xlink:title=" ">
<path fill="none" stroke="#63b8ff" d="M245.7,-221.82C271.2,-215.9 301.31,-204.79 320.96,-184 332.44,-171.86 337.01,-153.06 338.81,-139.07"/>
<polygon fill="#63b8ff" stroke="#63b8ff" points="342.3,-139.37 339.75,-129.09 335.33,-138.72 342.3,-139.37"/>
</a>
</g>
</g>
<!-- Node16 -->
<g id="Node000016" class="node">
<title>Node16</title>
<g id="a_Node000016"><a xlink:href="_i_c_o_s_e_signer_8h.html" target="_top" xlink:title=" ">
<polygon fill="white" stroke="#666666" points="311.46,-184 226.46,-184 226.46,-165 311.46,-165 311.46,-184"/>
<text text-anchor="middle" x="268.96" y="-172" font-family="Helvetica,sans-Serif" font-size="10.00">ICOSESigner.h</text>
</a>
</g>
</g>
<!-- Node1&#45;&gt;Node16 -->
<g id="edge21_Node000001_Node000016" class="edge">
<title>Node1&#45;&gt;Node16</title>
<g id="a_edge21_Node000001_Node000016"><a xlink:title=" ">
<path fill="none" stroke="#63b8ff" d="M209.37,-219.98C220.07,-212 236.3,-199.88 249.12,-190.31"/>
<polygon fill="#63b8ff" stroke="#63b8ff" points="251.43,-192.96 257.35,-184.17 247.24,-187.35 251.43,-192.96"/>
</a>
</g>
</g>
<!-- Node4 -->
<g id="Node000004" class="node">
<title>Node4</title>
<g id="a_Node000004"><a xlink:href="_common_8h.html" target="_top" xlink:title=" ">
<polygon fill="white" stroke="#666666" points="471.96,-74 401.96,-74 401.96,-55 471.96,-55 471.96,-74"/>
<text text-anchor="middle" x="436.96" y="-62" font-family="Helvetica,sans-Serif" font-size="10.00">Common.h</text>
</a>
</g>
</g>
<!-- Node3&#45;&gt;Node4 -->
<g id="edge3_Node000003_Node000004" class="edge">
<title>Node3&#45;&gt;Node4</title>
<g id="a_edge3_Node000003_Node000004"><a xlink:title=" ">
<path fill="none" stroke="#63b8ff" d="M295.58,-110.1C323.8,-101.2 368.57,-87.08 400.15,-77.11"/>
<polygon fill="#63b8ff" stroke="#63b8ff" points="401.43,-80.38 409.91,-74.03 399.32,-73.71 401.43,-80.38"/>
</a>
</g>
</g>
<!-- Node3&#45;&gt;Node7 -->
<g id="edge6_Node000003_Node000007" class="edge">
<title>Node3&#45;&gt;Node7</title>
<g id="a_edge6_Node000003_Node000007"><a xlink:title=" ">
<path fill="none" stroke="#63b8ff" d="M242.23,-112.17C239.1,-111.44 235.96,-110.7 232.96,-110 179.63,-97.56 117.95,-83.37 78.96,-74.43"/>
<polygon fill="#63b8ff" stroke="#63b8ff" points="79.6,-70.99 69.07,-72.16 78.04,-77.81 79.6,-70.99"/>
</a>
</g>
</g>
<!-- Node8 -->
<g id="Node000008" class="node">
<title>Node8</title>
<g id="a_Node000008"><a xlink:title=" ">
<polygon fill="#e0e0e0" stroke="#999999" points="553.96,-74 489.96,-74 489.96,-55 553.96,-55 553.96,-74"/>
<text text-anchor="middle" x="521.96" y="-62" font-family="Helvetica,sans-Serif" font-size="10.00">WString.h</text>
</a>
</g>
</g>
<!-- Node3&#45;&gt;Node8 -->
<g id="edge8_Node000003_Node000008" class="edge">
<title>Node3&#45;&gt;Node8</title>
<g id="a_edge8_Node000003_Node000008"><a xlink:title=" ">
<path fill="none" stroke="#63b8ff" d="M295.68,-112.1C298.8,-111.38 301.95,-110.66 304.96,-110 379.89,-93.5 401.12,-90.34 479.84,-74.22"/>
<polygon fill="#63b8ff" stroke="#63b8ff" points="480.64,-77.63 489.73,-72.19 479.23,-70.77 480.64,-77.63"/>
</a>
</g>
</g>
<!-- Node9 -->
<g id="Node000009" class="node">
<title>Node9</title>
<g id="a_Node000009"><a xlink:title=" ">
<polygon fill="#e0e0e0" stroke="#999999" points="212.96,-74 162.96,-74 162.96,-55 212.96,-55 212.96,-74"/>
<text text-anchor="middle" x="187.96" y="-62" font-family="Helvetica,sans-Serif" font-size="10.00">stdio.h</text>
</a>
</g>
</g>
<!-- Node3&#45;&gt;Node9 -->
<g id="edge9_Node000003_Node000009" class="edge">
<title>Node3&#45;&gt;Node9</title>
<g id="a_edge9_Node000003_Node000009"><a xlink:title=" ">
<path fill="none" stroke="#63b8ff" d="M255.95,-109.98C243.5,-101.84 224.51,-89.41 209.75,-79.76"/>
<polygon fill="#63b8ff" stroke="#63b8ff" points="211.5,-76.72 201.21,-74.17 207.66,-82.57 211.5,-76.72"/>
</a>
</g>
</g>
<!-- Node10 -->
<g id="Node000010" class="node">
<title>Node10</title>
<g id="a_Node000010"><a xlink:title=" ">
<polygon fill="#e0e0e0" stroke="#999999" points="296.46,-74 231.46,-74 231.46,-55 296.46,-55 296.46,-74"/>
<text text-anchor="middle" x="263.96" y="-62" font-family="Helvetica,sans-Serif" font-size="10.00">functional</text>
</a>
</g>
</g>
<!-- Node3&#45;&gt;Node10 -->
<g id="edge10_Node000003_Node000010" class="edge">
<title>Node3&#45;&gt;Node10</title>
<g id="a_edge10_Node000003_Node000010"><a xlink:title=" ">
<path fill="none" stroke="#63b8ff" d="M268.14,-109.75C267.48,-102.8 266.54,-92.85 265.72,-84.13"/>
<polygon fill="#63b8ff" stroke="#63b8ff" points="269.2,-83.72 264.77,-74.09 262.23,-84.37 269.2,-83.72"/>
</a>
</g>
</g>
<!-- Node11 -->
<g id="Node000011" class="node">
<title>Node11</title>
<g id="a_Node000011"><a xlink:title=" ">
<polygon fill="#e0e0e0" stroke="#999999" points="383.46,-74 314.46,-74 314.46,-55 383.46,-55 383.46,-74"/>
<text text-anchor="middle" x="348.96" y="-62" font-family="Helvetica,sans-Serif" font-size="10.00">type_traits</text>
</a>
</g>
</g>
<!-- Node3&#45;&gt;Node11 -->
<g id="edge11_Node000003_Node000011" class="edge">
<title>Node3&#45;&gt;Node11</title>
<g id="a_edge11_Node000003_Node000011"><a xlink:title=" ">
<path fill="none" stroke="#63b8ff" d="M281.81,-109.98C294.1,-101.84 312.87,-89.41 327.44,-79.76"/>
<polygon fill="#63b8ff" stroke="#63b8ff" points="329.47,-82.61 335.87,-74.17 325.6,-76.78 329.47,-82.61"/>
</a>
</g>
</g>
<!-- Node5 -->
<g id="Node000005" class="node">
<title>Node5</title>
<g id="a_Node000005"><a xlink:title=" ">
<polygon fill="#e0e0e0" stroke="#999999" points="279.96,-19 221.96,-19 221.96,0 279.96,0 279.96,-19"/>
<text text-anchor="middle" x="250.96" y="-7" font-family="Helvetica,sans-Serif" font-size="10.00">memory</text>
</a>
</g>
</g>
<!-- Node4&#45;&gt;Node5 -->
<g id="edge4_Node000004_Node000005" class="edge">
<title>Node4&#45;&gt;Node5</title>
<g id="a_edge4_Node000004_Node000005"><a xlink:title=" ">
<path fill="none" stroke="#63b8ff" d="M407.08,-54.98C375.3,-45.93 324.9,-31.57 290.01,-21.63"/>
<polygon fill="#63b8ff" stroke="#63b8ff" points="290.73,-18.19 280.16,-18.82 288.82,-24.93 290.73,-18.19"/>
</a>
</g>
</g>
<!-- Node6 -->
<g id="Node000006" class="node">
<title>Node6</title>
<g id="a_Node000006"><a xlink:title=" ">
<polygon fill="#e0e0e0" stroke="#999999" points="459.46,-19 414.46,-19 414.46,0 459.46,0 459.46,-19"/>
<text text-anchor="middle" x="436.96" y="-7" font-family="Helvetica,sans-Serif" font-size="10.00">utility</text>
</a>
</g>
</g>
<!-- Node4&#45;&gt;Node6 -->
<g id="edge5_Node000004_Node000006" class="edge">
<title>Node4&#45;&gt;Node6</title>
<g id="a_edge5_Node000004_Node000006"><a xlink:title=" ">
<path fill="none" stroke="#63b8ff" d="M436.96,-54.75C436.96,-47.8 436.96,-37.85 436.96,-29.13"/>
<polygon fill="#63b8ff" stroke="#63b8ff" points="440.46,-29.09 436.96,-19.09 433.46,-29.09 440.46,-29.09"/>
</a>
</g>
</g>
<!-- Node7&#45;&gt;Node2 -->
<g id="edge7_Node000007_Node000002" class="edge">
<title>Node7&#45;&gt;Node2</title>
<g id="a_edge7_Node000007_Node000002"><a xlink:title=" ">
<path fill="none" stroke="#63b8ff" d="M39.96,-54.75C39.96,-47.8 39.96,-37.85 39.96,-29.13"/>
<polygon fill="#63b8ff" stroke="#63b8ff" points="43.46,-29.09 39.96,-19.09 36.46,-29.09 43.46,-29.09"/>
</a>
</g>
</g>
<!-- Node13&#45;&gt;Node2 -->
<g id="edge15_Node000013_Node000002" class="edge">
<title>Node13&#45;&gt;Node2</title>
<g id="a_edge15_Node000013_Node000002"><a xlink:title=" ">
<path fill="none" stroke="#63b8ff" d="M124.38,-164.73C118.21,-144.45 101.33,-93.16 77.96,-55 71.67,-44.73 63.07,-34.44 55.63,-26.34"/>
<polygon fill="#63b8ff" stroke="#63b8ff" points="58.14,-23.9 48.72,-19.05 53.06,-28.72 58.14,-23.9"/>
</a>
</g>
</g>
<!-- Node13&#45;&gt;Node3 -->
<g id="edge16_Node000013_Node000003" class="edge">
<title>Node13&#45;&gt;Node3</title>
<g id="a_edge16_Node000013_Node000003"><a xlink:title=" ">
<path fill="none" stroke="#63b8ff" d="M149.78,-164.98C173.13,-156.27 209.67,-142.63 236.13,-132.75"/>
<polygon fill="#63b8ff" stroke="#63b8ff" points="237.59,-135.95 245.73,-129.17 235.14,-129.39 237.59,-135.95"/>
</a>
</g>
</g>
<!-- Node13&#45;&gt;Node5 -->
<g id="edge19_Node000013_Node000005" class="edge">
<title>Node13&#45;&gt;Node5</title>
<g id="a_edge19_Node000013_Node000005"><a xlink:title=" ">
<path fill="none" stroke="#63b8ff" d="M126.49,-164.95C125.79,-143.82 126.82,-88.41 153.96,-55 168.52,-37.08 191.89,-26.06 212.04,-19.47"/>
<polygon fill="#63b8ff" stroke="#63b8ff" points="213.06,-22.82 221.62,-16.58 211.04,-16.12 213.06,-22.82"/>
</a>
</g>
</g>
<!-- Node13&#45;&gt;Node7 -->
<g id="edge17_Node000013_Node000007" class="edge">
<title>Node13&#45;&gt;Node7</title>
<g id="a_edge17_Node000013_Node000007"><a xlink:title=" ">
<path fill="none" stroke="#63b8ff" d="M117.34,-164.76C108.06,-156.11 93.85,-142.27 82.96,-129 70.72,-114.1 58.57,-95.73 50.32,-82.59"/>
<polygon fill="#63b8ff" stroke="#63b8ff" points="53.29,-80.74 45.06,-74.07 47.33,-84.42 53.29,-80.74"/>
</a>
</g>
</g>
<!-- Node14 -->
<g id="Node000014" class="node">
<title>Node14</title>
<g id="a_Node000014"><a xlink:title=" ">
<polygon fill="#e0e0e0" stroke="#999999" points="224.46,-129 163.46,-129 163.46,-110 224.46,-110 224.46,-129"/>
<text text-anchor="middle" x="193.96" y="-117" font-family="Helvetica,sans-Serif" font-size="10.00">cn&#45;cbor.h</text>
</a>
</g>
</g>
<!-- Node13&#45;&gt;Node14 -->
<g id="edge18_Node000013_Node000014" class="edge">
<title>Node13&#45;&gt;Node14</title>
<g id="a_edge18_Node000013_Node000014"><a xlink:title=" ">
<path fill="none" stroke="#63b8ff" d="M137.73,-164.98C147.73,-157.07 162.85,-145.11 174.89,-135.58"/>
<polygon fill="#63b8ff" stroke="#63b8ff" points="177.33,-138.12 183,-129.17 172.99,-132.63 177.33,-138.12"/>
</a>
</g>
</g>
<!-- Node16&#45;&gt;Node3 -->
<g id="edge22_Node000016_Node000003" class="edge">
<title>Node16&#45;&gt;Node3</title>
<g id="a_edge22_Node000016_Node000003"><a xlink:title=" ">
<path fill="none" stroke="#63b8ff" d="M268.96,-164.75C268.96,-157.8 268.96,-147.85 268.96,-139.13"/>
<polygon fill="#63b8ff" stroke="#63b8ff" points="272.46,-139.09 268.96,-129.09 265.46,-139.09 272.46,-139.09"/>
</a>
</g>
</g>
<!-- Node16&#45;&gt;Node15 -->
<g id="edge23_Node000016_Node000015" class="edge">
<title>Node16&#45;&gt;Node15</title>
<g id="a_edge23_Node000016_Node000015"><a xlink:title=" ">
<path fill="none" stroke="#63b8ff" d="M280.37,-164.98C291.07,-157 307.3,-144.88 320.12,-135.31"/>
<polygon fill="#63b8ff" stroke="#63b8ff" points="322.43,-137.96 328.35,-129.17 318.24,-132.35 322.43,-137.96"/>
</a>
</g>
</g>
</g>
</svg>
