<?xml version="1.0" encoding="UTF-8" standalone="no"?>
<!DOCTYPE svg PUBLIC "-//W3C//DTD SVG 1.1//EN"
 "http://www.w3.org/Graphics/SVG/1.1/DTD/svg11.dtd">
<!-- Generated by graphviz version 2.43.0 (0)
 -->
<!-- Title: CallbackEventListener.h Pages: 1 -->
<svg width="659pt" height="357pt"
 viewBox="0.00 0.00 658.87 357.00" xmlns="http://www.w3.org/2000/svg" xmlns:xlink="http://www.w3.org/1999/xlink">
<g id="graph0" class="graph" transform="scale(1 1) rotate(0) translate(4 353)">
<title>CallbackEventListener.h</title>
<!-- Node1 -->
<g id="Node000001" class="node">
<title>Node1</title>
<g id="a_Node000001"><a xlink:title=" ">
<polygon fill="#999999" stroke="#666666" points="356,-349 222,-349 222,-330 356,-330 356,-349"/>
<text text-anchor="middle" x="289" y="-337" font-family="Helvetica,sans-Serif" font-size="10.00">CallbackEventListener.h</text>
</a>
</g>
</g>
<!-- Node2 -->
<g id="Node000002" class="node">
<title>Node2</title>
<g id="a_Node000002"><a xlink:href="_bytes_8h.html" target="_top" xlink:title=" ">
<polygon fill="white" stroke="#666666" points="315.5,-184 262.5,-184 262.5,-165 315.5,-165 315.5,-184"/>
<text text-anchor="middle" x="289" y="-172" font-family="Helvetica,sans-Serif" font-size="10.00">Bytes.h</text>
</a>
</g>
</g>
<!-- Node1&#45;&gt;Node2 -->
<g id="edge1_Node000001_Node000002" class="edge">
<title>Node1&#45;&gt;Node2</title>
<g id="a_edge1_Node000001_Node000002"><a xlink:title=" ">
<path fill="none" stroke="#63b8ff" d="M289,-329.74C289,-304.31 289,-230.08 289,-194.69"/>
<polygon fill="#63b8ff" stroke="#63b8ff" points="292.5,-194.31 289,-184.31 285.5,-194.31 292.5,-194.31"/>
</a>
</g>
</g>
<!-- Node10 -->
<g id="Node000010" class="node">
<title>Node10</title>
<g id="a_Node000010"><a xlink:title=" ">
<polygon fill="#e0e0e0" stroke="#999999" points="70.5,-19 5.5,-19 5.5,0 70.5,0 70.5,-19"/>
<text text-anchor="middle" x="38" y="-7" font-family="Helvetica,sans-Serif" font-size="10.00">functional</text>
</a>
</g>
</g>
<!-- Node1&#45;&gt;Node10 -->
<g id="edge11_Node000001_Node000010" class="edge">
<title>Node1&#45;&gt;Node10</title>
<g id="a_edge11_Node000001_Node000010"><a xlink:title=" ">
<path fill="none" stroke="#63b8ff" d="M236.66,-329.99C153.38,-314.94 0,-280.45 0,-230.5 0,-230.5 0,-230.5 0,-118.5 0,-85.02 16.45,-48.84 27.7,-28.01"/>
<polygon fill="#63b8ff" stroke="#63b8ff" points="30.87,-29.53 32.72,-19.1 24.76,-26.1 30.87,-29.53"/>
</a>
</g>
</g>
<!-- Node12 -->
<g id="Node000012" class="node">
<title>Node12</title>
<g id="a_Node000012"><a xlink:href="_event_listener_8h.html" target="_top" xlink:title=" ">
<polygon fill="white" stroke="#666666" points="531,-294 439,-294 439,-275 531,-275 531,-294"/>
<text text-anchor="middle" x="485" y="-282" font-family="Helvetica,sans-Serif" font-size="10.00">EventListener.h</text>
</a>
</g>
</g>
<!-- Node1&#45;&gt;Node12 -->
<g id="edge12_Node000001_Node000012" class="edge">
<title>Node1&#45;&gt;Node12</title>
<g id="a_edge12_Node000001_Node000012"><a xlink:title=" ">
<path fill="none" stroke="#63b8ff" d="M320.49,-329.98C353.82,-320.97 406.6,-306.7 443.35,-296.76"/>
<polygon fill="#63b8ff" stroke="#63b8ff" points="444.52,-300.07 453.26,-294.08 442.7,-293.31 444.52,-300.07"/>
</a>
</g>
</g>
<!-- Node3 -->
<g id="Node000003" class="node">
<title>Node3</title>
<g id="a_Node000003"><a xlink:href="_common_8h.html" target="_top" xlink:title=" ">
<polygon fill="white" stroke="#666666" points="136,-129 66,-129 66,-110 136,-110 136,-129"/>
<text text-anchor="middle" x="101" y="-117" font-family="Helvetica,sans-Serif" font-size="10.00">Common.h</text>
</a>
</g>
</g>
<!-- Node2&#45;&gt;Node3 -->
<g id="edge2_Node000002_Node000003" class="edge">
<title>Node2&#45;&gt;Node3</title>
<g id="a_edge2_Node000002_Node000003"><a xlink:title=" ">
<path fill="none" stroke="#63b8ff" d="M262.46,-166.02C230.91,-157.12 177.94,-142.19 141.32,-131.87"/>
<polygon fill="#63b8ff" stroke="#63b8ff" points="142.03,-128.43 131.45,-129.08 140.13,-135.17 142.03,-128.43"/>
</a>
</g>
</g>
<!-- Node6 -->
<g id="Node000006" class="node">
<title>Node6</title>
<g id="a_Node000006"><a xlink:href="_logger_8h.html" target="_top" xlink:title=" ">
<polygon fill="white" stroke="#666666" points="450,-129 392,-129 392,-110 450,-110 450,-129"/>
<text text-anchor="middle" x="421" y="-117" font-family="Helvetica,sans-Serif" font-size="10.00">Logger.h</text>
</a>
</g>
</g>
<!-- Node2&#45;&gt;Node6 -->
<g id="edge5_Node000002_Node000006" class="edge">
<title>Node2&#45;&gt;Node6</title>
<g id="a_edge5_Node000002_Node000006"><a xlink:title=" ">
<path fill="none" stroke="#63b8ff" d="M310.21,-164.98C331.73,-156.34 365.28,-142.87 389.83,-133.02"/>
<polygon fill="#63b8ff" stroke="#63b8ff" points="391.43,-136.14 399.41,-129.17 388.82,-129.65 391.43,-136.14"/>
</a>
</g>
</g>
<!-- Node8 -->
<g id="Node000008" class="node">
<title>Node8</title>
<g id="a_Node000008"><a xlink:title=" ">
<polygon fill="#e0e0e0" stroke="#999999" points="218,-129 154,-129 154,-110 218,-110 218,-129"/>
<text text-anchor="middle" x="186" y="-117" font-family="Helvetica,sans-Serif" font-size="10.00">WString.h</text>
</a>
</g>
</g>
<!-- Node2&#45;&gt;Node8 -->
<g id="edge7_Node000002_Node000008" class="edge">
<title>Node2&#45;&gt;Node8</title>
<g id="a_edge7_Node000002_Node000008"><a xlink:title=" ">
<path fill="none" stroke="#63b8ff" d="M272.45,-164.98C256.11,-156.57 230.87,-143.59 211.87,-133.81"/>
<polygon fill="#63b8ff" stroke="#63b8ff" points="213.34,-130.63 202.85,-129.17 210.14,-136.86 213.34,-130.63"/>
</a>
</g>
</g>
<!-- Node9 -->
<g id="Node000009" class="node">
<title>Node9</title>
<g id="a_Node000009"><a xlink:title=" ">
<polygon fill="#e0e0e0" stroke="#999999" points="286,-129 236,-129 236,-110 286,-110 286,-129"/>
<text text-anchor="middle" x="261" y="-117" font-family="Helvetica,sans-Serif" font-size="10.00">stdio.h</text>
</a>
</g>
</g>
<!-- Node2&#45;&gt;Node9 -->
<g id="edge8_Node000002_Node000009" class="edge">
<title>Node2&#45;&gt;Node9</title>
<g id="a_edge8_Node000002_Node000009"><a xlink:title=" ">
<path fill="none" stroke="#63b8ff" d="M284.38,-164.75C280.54,-157.49 274.98,-146.95 270.24,-137.98"/>
<polygon fill="#63b8ff" stroke="#63b8ff" points="273.3,-136.3 265.54,-129.09 267.11,-139.57 273.3,-136.3"/>
</a>
</g>
</g>
<!-- Node2&#45;&gt;Node10 -->
<g id="edge9_Node000002_Node000010" class="edge">
<title>Node2&#45;&gt;Node10</title>
<g id="a_edge9_Node000002_Node000010"><a xlink:title=" ">
<path fill="none" stroke="#63b8ff" d="M262.19,-172.12C207.35,-168.72 85.13,-158 57,-129 31.1,-102.29 32.09,-55.18 35.05,-29.13"/>
<polygon fill="#63b8ff" stroke="#63b8ff" points="38.54,-29.47 36.42,-19.08 31.6,-28.52 38.54,-29.47"/>
</a>
</g>
</g>
<!-- Node11 -->
<g id="Node000011" class="node">
<title>Node11</title>
<g id="a_Node000011"><a xlink:title=" ">
<polygon fill="#e0e0e0" stroke="#999999" points="373.5,-129 304.5,-129 304.5,-110 373.5,-110 373.5,-129"/>
<text text-anchor="middle" x="339" y="-117" font-family="Helvetica,sans-Serif" font-size="10.00">type_traits</text>
</a>
</g>
</g>
<!-- Node2&#45;&gt;Node11 -->
<g id="edge10_Node000002_Node000011" class="edge">
<title>Node2&#45;&gt;Node11</title>
<g id="a_edge10_Node000002_Node000011"><a xlink:title=" ">
<path fill="none" stroke="#63b8ff" d="M297.26,-164.75C304.46,-157.11 315.11,-145.82 323.85,-136.56"/>
<polygon fill="#63b8ff" stroke="#63b8ff" points="326.58,-138.76 330.9,-129.09 321.49,-133.96 326.58,-138.76"/>
</a>
</g>
</g>
<!-- Node4 -->
<g id="Node000004" class="node">
<title>Node4</title>
<g id="a_Node000004"><a xlink:title=" ">
<polygon fill="#e0e0e0" stroke="#999999" points="127,-74 69,-74 69,-55 127,-55 127,-74"/>
<text text-anchor="middle" x="98" y="-62" font-family="Helvetica,sans-Serif" font-size="10.00">memory</text>
</a>
</g>
</g>
<!-- Node3&#45;&gt;Node4 -->
<g id="edge3_Node000003_Node000004" class="edge">
<title>Node3&#45;&gt;Node4</title>
<g id="a_edge3_Node000003_Node000004"><a xlink:title=" ">
<path fill="none" stroke="#63b8ff" d="M100.5,-109.75C100.11,-102.8 99.55,-92.85 99.05,-84.13"/>
<polygon fill="#63b8ff" stroke="#63b8ff" points="102.55,-83.88 98.49,-74.09 95.56,-84.27 102.55,-83.88"/>
</a>
</g>
</g>
<!-- Node5 -->
<g id="Node000005" class="node">
<title>Node5</title>
<g id="a_Node000005"><a xlink:title=" ">
<polygon fill="#e0e0e0" stroke="#999999" points="190.5,-74 145.5,-74 145.5,-55 190.5,-55 190.5,-74"/>
<text text-anchor="middle" x="168" y="-62" font-family="Helvetica,sans-Serif" font-size="10.00">utility</text>
</a>
</g>
</g>
<!-- Node3&#45;&gt;Node5 -->
<g id="edge4_Node000003_Node000005" class="edge">
<title>Node3&#45;&gt;Node5</title>
<g id="a_edge4_Node000003_Node000005"><a xlink:title=" ">
<path fill="none" stroke="#63b8ff" d="M111.76,-109.98C121.77,-102.07 136.89,-90.11 148.93,-80.58"/>
<polygon fill="#63b8ff" stroke="#63b8ff" points="151.37,-83.12 157.04,-74.17 147.03,-77.63 151.37,-83.12"/>
</a>
</g>
</g>
<!-- Node7 -->
<g id="Node000007" class="node">
<title>Node7</title>
<g id="a_Node000007"><a xlink:title=" ">
<polygon fill="#e0e0e0" stroke="#999999" points="537.5,-19 474.5,-19 474.5,0 537.5,0 537.5,-19"/>
<text text-anchor="middle" x="506" y="-7" font-family="Helvetica,sans-Serif" font-size="10.00">Arduino.h</text>
</a>
</g>
</g>
<!-- Node6&#45;&gt;Node7 -->
<g id="edge6_Node000006_Node000007" class="edge">
<title>Node6&#45;&gt;Node7</title>
<g id="a_edge6_Node000006_Node000007"><a xlink:title=" ">
<path fill="none" stroke="#63b8ff" d="M427.96,-109.66C442.16,-91.61 474.69,-50.28 492.95,-27.08"/>
<polygon fill="#63b8ff" stroke="#63b8ff" points="495.75,-29.18 499.19,-19.16 490.25,-24.85 495.75,-29.18"/>
</a>
</g>
</g>
<!-- Node12&#45;&gt;Node2 -->
<g id="edge13_Node000012_Node000002" class="edge">
<title>Node12&#45;&gt;Node2</title>
<g id="a_edge13_Node000012_Node000002"><a xlink:title=" ">
<path fill="none" stroke="#63b8ff" d="M469.29,-274.84C435.23,-256.08 354.37,-211.52 313.52,-189.01"/>
<polygon fill="#63b8ff" stroke="#63b8ff" points="314.96,-185.81 304.51,-184.05 311.58,-191.94 314.96,-185.81"/>
</a>
</g>
</g>
<!-- Node13 -->
<g id="Node000013" class="node">
<title>Node13</title>
<g id="a_Node000013"><a xlink:href="_clear_queue_8h.html" target="_top" xlink:title=" ">
<polygon fill="white" stroke="#666666" points="607.5,-74 524.5,-74 524.5,-55 607.5,-55 607.5,-74"/>
<text text-anchor="middle" x="566" y="-62" font-family="Helvetica,sans-Serif" font-size="10.00">ClearQueue.h</text>
</a>
</g>
</g>
<!-- Node12&#45;&gt;Node13 -->
<g id="edge14_Node000012_Node000013" class="edge">
<title>Node12&#45;&gt;Node13</title>
<g id="a_edge14_Node000012_Node000013"><a xlink:title=" ">
<path fill="none" stroke="#63b8ff" d="M502.62,-274.93C518.14,-266.89 540.87,-253.91 558,-239 605.65,-197.53 626.76,-188.49 648,-129 650.84,-121.05 652.32,-117.26 648,-110 639.08,-95.02 623.16,-84.76 607.71,-77.91"/>
<polygon fill="#63b8ff" stroke="#63b8ff" points="608.8,-74.58 598.21,-74.08 606.17,-81.07 608.8,-74.58"/>
</a>
</g>
</g>
<!-- Node14 -->
<g id="Node000014" class="node">
<title>Node14</title>
<g id="a_Node000014"><a xlink:href="_iterable_queue_8h.html" target="_top" xlink:title=" ">
<polygon fill="white" stroke="#666666" points="638.5,-129 543.5,-129 543.5,-110 638.5,-110 638.5,-129"/>
<text text-anchor="middle" x="591" y="-117" font-family="Helvetica,sans-Serif" font-size="10.00">IterableQueue.h</text>
</a>
</g>
</g>
<!-- Node12&#45;&gt;Node14 -->
<g id="edge17_Node000012_Node000014" class="edge">
<title>Node12&#45;&gt;Node14</title>
<g id="a_edge17_Node000012_Node000014"><a xlink:title=" ">
<path fill="none" stroke="#63b8ff" d="M498.23,-274.97C509.94,-266.87 526.85,-253.77 538,-239 561.78,-207.49 577.83,-163.62 585.6,-139.06"/>
<polygon fill="#63b8ff" stroke="#63b8ff" points="589.02,-139.83 588.58,-129.24 582.32,-137.79 589.02,-139.83"/>
</a>
</g>
</g>
<!-- Node15 -->
<g id="Node000015" class="node">
<title>Node15</title>
<g id="a_Node000015"><a xlink:href="_event_emitter_8h.html" target="_top" xlink:title=" ">
<polygon fill="white" stroke="#666666" points="529.5,-239 440.5,-239 440.5,-220 529.5,-220 529.5,-239"/>
<text text-anchor="middle" x="485" y="-227" font-family="Helvetica,sans-Serif" font-size="10.00">EventEmitter.h</text>
</a>
</g>
</g>
<!-- Node12&#45;&gt;Node15 -->
<g id="edge19_Node000012_Node000015" class="edge">
<title>Node12&#45;&gt;Node15</title>
<g id="a_edge19_Node000012_Node000015"><a xlink:title=" ">
<path fill="none" stroke="#63b8ff" d="M485,-274.75C485,-267.8 485,-257.85 485,-249.13"/>
<polygon fill="#63b8ff" stroke="#63b8ff" points="488.5,-249.09 485,-239.09 481.5,-249.09 488.5,-249.09"/>
</a>
</g>
</g>
<!-- Node13&#45;&gt;Node7 -->
<g id="edge15_Node000013_Node000007" class="edge">
<title>Node13&#45;&gt;Node7</title>
<g id="a_edge15_Node000013_Node000007"><a xlink:title=" ">
<path fill="none" stroke="#63b8ff" d="M556.36,-54.98C547.49,-47.15 534.13,-35.34 523.39,-25.86"/>
<polygon fill="#63b8ff" stroke="#63b8ff" points="525.63,-23.17 515.82,-19.17 520.99,-28.41 525.63,-23.17"/>
</a>
</g>
</g>
<!-- Node13&#45;&gt;Node10 -->
<g id="edge16_Node000013_Node000010" class="edge">
<title>Node13&#45;&gt;Node10</title>
<g id="a_edge16_Node000013_Node000010"><a xlink:title=" ">
<path fill="none" stroke="#63b8ff" d="M524.13,-59.3C425.54,-49.4 179.64,-24.72 80.47,-14.76"/>
<polygon fill="#63b8ff" stroke="#63b8ff" points="80.8,-11.28 70.5,-13.76 80.1,-18.24 80.8,-11.28"/>
</a>
</g>
</g>
<!-- Node14&#45;&gt;Node13 -->
<g id="edge18_Node000014_Node000013" class="edge">
<title>Node14&#45;&gt;Node13</title>
<g id="a_edge18_Node000014_Node000013"><a xlink:title=" ">
<path fill="none" stroke="#63b8ff" d="M586.87,-109.75C583.49,-102.57 578.58,-92.18 574.38,-83.27"/>
<polygon fill="#63b8ff" stroke="#63b8ff" points="577.48,-81.64 570.05,-74.09 571.15,-84.63 577.48,-81.64"/>
</a>
</g>
</g>
<!-- Node15&#45;&gt;Node2 -->
<g id="edge20_Node000015_Node000002" class="edge">
<title>Node15&#45;&gt;Node2</title>
<g id="a_edge20_Node000015_Node000002"><a xlink:title=" ">
<path fill="none" stroke="#63b8ff" d="M453.51,-219.98C418.59,-210.54 362.35,-195.33 325.53,-185.38"/>
<polygon fill="#63b8ff" stroke="#63b8ff" points="326.26,-181.95 315.69,-182.72 324.43,-188.71 326.26,-181.95"/>
</a>
</g>
</g>
<!-- Node15&#45;&gt;Node14 -->
<g id="edge21_Node000015_Node000014" class="edge">
<title>Node15&#45;&gt;Node14</title>
<g id="a_edge21_Node000015_Node000014"><a xlink:title=" ">
<path fill="none" stroke="#63b8ff" d="M495.03,-219.92C505.14,-211.16 521.04,-197.04 534,-184 549.25,-168.66 565.65,-150.16 576.92,-137.1"/>
<polygon fill="#63b8ff" stroke="#63b8ff" points="579.68,-139.26 583.53,-129.38 574.36,-134.7 579.68,-139.26"/>
</a>
</g>
</g>
<!-- Node16 -->
<g id="Node000016" class="node">
<title>Node16</title>
<g id="a_Node000016"><a xlink:href="_event_entity_8h.html" target="_top" xlink:title=" ">
<polygon fill="white" stroke="#666666" points="525,-184 445,-184 445,-165 525,-165 525,-184"/>
<text text-anchor="middle" x="485" y="-172" font-family="Helvetica,sans-Serif" font-size="10.00">EventEntity.h</text>
</a>
</g>
</g>
<!-- Node15&#45;&gt;Node16 -->
<g id="edge22_Node000015_Node000016" class="edge">
<title>Node15&#45;&gt;Node16</title>
<g id="a_edge22_Node000015_Node000016"><a xlink:title=" ">
<path fill="none" stroke="#63b8ff" d="M485,-219.75C485,-212.8 485,-202.85 485,-194.13"/>
<polygon fill="#63b8ff" stroke="#63b8ff" points="488.5,-194.09 485,-184.09 481.5,-194.09 488.5,-194.09"/>
</a>
</g>
</g>
<!-- Node16&#45;&gt;Node6 -->
<g id="edge24_Node000016_Node000006" class="edge">
<title>Node16&#45;&gt;Node6</title>
<g id="a_edge24_Node000016_Node000006"><a xlink:title=" ">
<path fill="none" stroke="#63b8ff" d="M474.72,-164.98C465.16,-157.07 450.72,-145.11 439.22,-135.58"/>
<polygon fill="#63b8ff" stroke="#63b8ff" points="441.4,-132.85 431.47,-129.17 436.94,-138.24 441.4,-132.85"/>
</a>
</g>
</g>
<!-- Node16&#45;&gt;Node14 -->
<g id="edge23_Node000016_Node000014" class="edge">
<title>Node16&#45;&gt;Node14</title>
<g id="a_edge23_Node000016_Node000014"><a xlink:title=" ">
<path fill="none" stroke="#63b8ff" d="M502.03,-164.98C518.93,-156.54 545.06,-143.47 564.64,-133.68"/>
<polygon fill="#63b8ff" stroke="#63b8ff" points="566.28,-136.77 573.66,-129.17 563.15,-130.51 566.28,-136.77"/>
</a>
</g>
</g>
<!-- Node17 -->
<g id="Node000017" class="node">
<title>Node17</title>
<g id="a_Node000017"><a xlink:href="_type_id_8h.html" target="_top" xlink:title=" ">
<polygon fill="white" stroke="#666666" points="525.5,-129 468.5,-129 468.5,-110 525.5,-110 525.5,-129"/>
<text text-anchor="middle" x="497" y="-117" font-family="Helvetica,sans-Serif" font-size="10.00">TypeId.h</text>
</a>
</g>
</g>
<!-- Node16&#45;&gt;Node17 -->
<g id="edge25_Node000016_Node000017" class="edge">
<title>Node16&#45;&gt;Node17</title>
<g id="a_edge25_Node000016_Node000017"><a xlink:title=" ">
<path fill="none" stroke="#63b8ff" d="M486.98,-164.75C488.57,-157.72 490.86,-147.62 492.85,-138.84"/>
<polygon fill="#63b8ff" stroke="#63b8ff" points="496.26,-139.62 495.06,-129.09 489.43,-138.07 496.26,-139.62"/>
</a>
</g>
</g>
</g>
</svg>
