<?xml version="1.0" encoding="UTF-8" standalone="no"?>
<!DOCTYPE svg PUBLIC "-//W3C//DTD SVG 1.1//EN"
 "http://www.w3.org/Graphics/SVG/1.1/DTD/svg11.dtd">
<!-- Generated by graphviz version 2.43.0 (0)
 -->
<!-- Title: CallbackMQTTDevice.h Pages: 1 -->
<svg width="566pt" height="247pt"
 viewBox="0.00 0.00 566.02 247.00" xmlns="http://www.w3.org/2000/svg" xmlns:xlink="http://www.w3.org/1999/xlink">
<g id="graph0" class="graph" transform="scale(1 1) rotate(0) translate(4 243)">
<title>CallbackMQTTDevice.h</title>
<!-- Node1 -->
<g id="Node000001" class="node">
<title>Node1</title>
<g id="a_Node000001"><a xlink:title=" ">
<polygon fill="#999999" stroke="#666666" points="247.52,-239 117.52,-239 117.52,-220 247.52,-220 247.52,-239"/>
<text text-anchor="middle" x="182.52" y="-227" font-family="Helvetica,sans-Serif" font-size="10.00">CallbackMQTTDevice.h</text>
</a>
</g>
</g>
<!-- Node2 -->
<g id="Node000002" class="node">
<title>Node2</title>
<g id="a_Node000002"><a xlink:title=" ">
<polygon fill="#e0e0e0" stroke="#999999" points="86.02,-19 21.02,-19 21.02,0 86.02,0 86.02,-19"/>
<text text-anchor="middle" x="53.52" y="-7" font-family="Helvetica,sans-Serif" font-size="10.00">functional</text>
</a>
</g>
</g>
<!-- Node1&#45;&gt;Node2 -->
<g id="edge1_Node000001_Node000002" class="edge">
<title>Node1&#45;&gt;Node2</title>
<g id="a_edge1_Node000001_Node000002"><a xlink:title=" ">
<path fill="none" stroke="#63b8ff" d="M163.57,-219.99C123.69,-200.82 32.3,-149.91 2.52,-74 -0.57,-66.14 -0.98,-62.69 2.52,-55 8.14,-42.63 19.09,-32.36 29.4,-24.81"/>
<polygon fill="#63b8ff" stroke="#63b8ff" points="31.48,-27.63 37.79,-19.12 27.55,-21.84 31.48,-27.63"/>
</a>
</g>
</g>
<!-- Node3 -->
<g id="Node000003" class="node">
<title>Node3</title>
<g id="a_Node000003"><a xlink:href="_m_q_t_t_device_8h.html" target="_top" xlink:title=" ">
<polygon fill="white" stroke="#666666" points="226.52,-184 138.52,-184 138.52,-165 226.52,-165 226.52,-184"/>
<text text-anchor="middle" x="182.52" y="-172" font-family="Helvetica,sans-Serif" font-size="10.00">MQTTDevice.h</text>
</a>
</g>
</g>
<!-- Node1&#45;&gt;Node3 -->
<g id="edge2_Node000001_Node000003" class="edge">
<title>Node1&#45;&gt;Node3</title>
<g id="a_edge2_Node000001_Node000003"><a xlink:title=" ">
<path fill="none" stroke="#63b8ff" d="M182.52,-219.75C182.52,-212.8 182.52,-202.85 182.52,-194.13"/>
<polygon fill="#63b8ff" stroke="#63b8ff" points="186.02,-194.09 182.52,-184.09 179.02,-194.09 186.02,-194.09"/>
</a>
</g>
</g>
<!-- Node8 -->
<g id="Node000008" class="node">
<title>Node8</title>
<g id="a_Node000008"><a xlink:href="_logger_8h.html" target="_top" xlink:title=" ">
<polygon fill="white" stroke="#666666" points="447.52,-74 389.52,-74 389.52,-55 447.52,-55 447.52,-74"/>
<text text-anchor="middle" x="418.52" y="-62" font-family="Helvetica,sans-Serif" font-size="10.00">Logger.h</text>
</a>
</g>
</g>
<!-- Node1&#45;&gt;Node8 -->
<g id="edge17_Node000001_Node000008" class="edge">
<title>Node1&#45;&gt;Node8</title>
<g id="a_edge17_Node000001_Node000008"><a xlink:title=" ">
<path fill="none" stroke="#63b8ff" d="M194.87,-219.97C233.1,-193.57 349.72,-113.02 397.63,-79.93"/>
<polygon fill="#63b8ff" stroke="#63b8ff" points="399.76,-82.71 406,-74.15 395.78,-76.95 399.76,-82.71"/>
</a>
</g>
</g>
<!-- Node4 -->
<g id="Node000004" class="node">
<title>Node4</title>
<g id="a_Node000004"><a xlink:href="_bytes_8h.html" target="_top" xlink:title=" ">
<polygon fill="white" stroke="#666666" points="281.02,-129 228.02,-129 228.02,-110 281.02,-110 281.02,-129"/>
<text text-anchor="middle" x="254.52" y="-117" font-family="Helvetica,sans-Serif" font-size="10.00">Bytes.h</text>
</a>
</g>
</g>
<!-- Node3&#45;&gt;Node4 -->
<g id="edge3_Node000003_Node000004" class="edge">
<title>Node3&#45;&gt;Node4</title>
<g id="a_edge3_Node000003_Node000004"><a xlink:title=" ">
<path fill="none" stroke="#63b8ff" d="M194.09,-164.98C204.94,-157 221.4,-144.88 234.4,-135.31"/>
<polygon fill="#63b8ff" stroke="#63b8ff" points="236.76,-137.92 242.74,-129.17 232.61,-132.28 236.76,-137.92"/>
</a>
</g>
</g>
<!-- Node13 -->
<g id="Node000013" class="node">
<title>Node13</title>
<g id="a_Node000013"><a xlink:href="_iterable_queue_8h.html" target="_top" xlink:title=" ">
<polygon fill="white" stroke="#666666" points="158.02,-129 63.02,-129 63.02,-110 158.02,-110 158.02,-129"/>
<text text-anchor="middle" x="110.52" y="-117" font-family="Helvetica,sans-Serif" font-size="10.00">IterableQueue.h</text>
</a>
</g>
</g>
<!-- Node3&#45;&gt;Node13 -->
<g id="edge13_Node000003_Node000013" class="edge">
<title>Node3&#45;&gt;Node13</title>
<g id="a_edge13_Node000003_Node000013"><a xlink:title=" ">
<path fill="none" stroke="#63b8ff" d="M170.95,-164.98C160.1,-157 143.64,-144.88 130.63,-135.31"/>
<polygon fill="#63b8ff" stroke="#63b8ff" points="132.43,-132.28 122.3,-129.17 128.28,-137.92 132.43,-132.28"/>
</a>
</g>
</g>
<!-- Node4&#45;&gt;Node2 -->
<g id="edge11_Node000004_Node000002" class="edge">
<title>Node4&#45;&gt;Node2</title>
<g id="a_edge11_Node000004_Node000002"><a xlink:title=" ">
<path fill="none" stroke="#63b8ff" d="M227.91,-109.97C204.69,-102.05 170.44,-89.22 142.52,-74 116.69,-59.92 89.51,-39.62 72.09,-25.78"/>
<polygon fill="#63b8ff" stroke="#63b8ff" points="73.91,-22.75 63.92,-19.21 69.52,-28.21 73.91,-22.75"/>
</a>
</g>
</g>
<!-- Node5 -->
<g id="Node000005" class="node">
<title>Node5</title>
<g id="a_Node000005"><a xlink:href="_common_8h.html" target="_top" xlink:title=" ">
<polygon fill="white" stroke="#666666" points="535.52,-74 465.52,-74 465.52,-55 535.52,-55 535.52,-74"/>
<text text-anchor="middle" x="500.52" y="-62" font-family="Helvetica,sans-Serif" font-size="10.00">Common.h</text>
</a>
</g>
</g>
<!-- Node4&#45;&gt;Node5 -->
<g id="edge4_Node000004_Node000005" class="edge">
<title>Node4&#45;&gt;Node5</title>
<g id="a_edge4_Node000004_Node000005"><a xlink:title=" ">
<path fill="none" stroke="#63b8ff" d="M281.31,-112.73C323.14,-103.72 404.42,-86.21 455.39,-75.22"/>
<polygon fill="#63b8ff" stroke="#63b8ff" points="456.43,-78.58 465.47,-73.05 454.96,-71.74 456.43,-78.58"/>
</a>
</g>
</g>
<!-- Node4&#45;&gt;Node8 -->
<g id="edge7_Node000004_Node000008" class="edge">
<title>Node4&#45;&gt;Node8</title>
<g id="a_edge7_Node000004_Node000008"><a xlink:title=" ">
<path fill="none" stroke="#63b8ff" d="M280.87,-109.98C308.28,-101.13 351.41,-87.19 382.08,-77.28"/>
<polygon fill="#63b8ff" stroke="#63b8ff" points="383.52,-80.49 391.96,-74.08 381.37,-73.83 383.52,-80.49"/>
</a>
</g>
</g>
<!-- Node10 -->
<g id="Node000010" class="node">
<title>Node10</title>
<g id="a_Node000010"><a xlink:title=" ">
<polygon fill="#e0e0e0" stroke="#999999" points="371.52,-74 307.52,-74 307.52,-55 371.52,-55 371.52,-74"/>
<text text-anchor="middle" x="339.52" y="-62" font-family="Helvetica,sans-Serif" font-size="10.00">WString.h</text>
</a>
</g>
</g>
<!-- Node4&#45;&gt;Node10 -->
<g id="edge9_Node000004_Node000010" class="edge">
<title>Node4&#45;&gt;Node10</title>
<g id="a_edge9_Node000004_Node000010"><a xlink:title=" ">
<path fill="none" stroke="#63b8ff" d="M268.18,-109.98C281.36,-101.77 301.55,-89.18 317.09,-79.49"/>
<polygon fill="#63b8ff" stroke="#63b8ff" points="318.98,-82.43 325.61,-74.17 315.28,-76.49 318.98,-82.43"/>
</a>
</g>
</g>
<!-- Node11 -->
<g id="Node000011" class="node">
<title>Node11</title>
<g id="a_Node000011"><a xlink:title=" ">
<polygon fill="#e0e0e0" stroke="#999999" points="201.52,-74 151.52,-74 151.52,-55 201.52,-55 201.52,-74"/>
<text text-anchor="middle" x="176.52" y="-62" font-family="Helvetica,sans-Serif" font-size="10.00">stdio.h</text>
</a>
</g>
</g>
<!-- Node4&#45;&gt;Node11 -->
<g id="edge10_Node000004_Node000011" class="edge">
<title>Node4&#45;&gt;Node11</title>
<g id="a_edge10_Node000004_Node000011"><a xlink:title=" ">
<path fill="none" stroke="#63b8ff" d="M241.99,-109.98C230.12,-101.92 212.05,-89.65 197.91,-80.03"/>
<polygon fill="#63b8ff" stroke="#63b8ff" points="199.52,-76.9 189.28,-74.17 195.58,-82.69 199.52,-76.9"/>
</a>
</g>
</g>
<!-- Node12 -->
<g id="Node000012" class="node">
<title>Node12</title>
<g id="a_Node000012"><a xlink:title=" ">
<polygon fill="#e0e0e0" stroke="#999999" points="289.02,-74 220.02,-74 220.02,-55 289.02,-55 289.02,-74"/>
<text text-anchor="middle" x="254.52" y="-62" font-family="Helvetica,sans-Serif" font-size="10.00">type_traits</text>
</a>
</g>
</g>
<!-- Node4&#45;&gt;Node12 -->
<g id="edge12_Node000004_Node000012" class="edge">
<title>Node4&#45;&gt;Node12</title>
<g id="a_edge12_Node000004_Node000012"><a xlink:title=" ">
<path fill="none" stroke="#63b8ff" d="M254.52,-109.75C254.52,-102.8 254.52,-92.85 254.52,-84.13"/>
<polygon fill="#63b8ff" stroke="#63b8ff" points="258.02,-84.09 254.52,-74.09 251.02,-84.09 258.02,-84.09"/>
</a>
</g>
</g>
<!-- Node6 -->
<g id="Node000006" class="node">
<title>Node6</title>
<g id="a_Node000006"><a xlink:title=" ">
<polygon fill="#e0e0e0" stroke="#999999" points="494.52,-19 436.52,-19 436.52,0 494.52,0 494.52,-19"/>
<text text-anchor="middle" x="465.52" y="-7" font-family="Helvetica,sans-Serif" font-size="10.00">memory</text>
</a>
</g>
</g>
<!-- Node5&#45;&gt;Node6 -->
<g id="edge5_Node000005_Node000006" class="edge">
<title>Node5&#45;&gt;Node6</title>
<g id="a_edge5_Node000005_Node000006"><a xlink:title=" ">
<path fill="none" stroke="#63b8ff" d="M494.74,-54.75C489.9,-47.42 482.84,-36.73 476.87,-27.7"/>
<polygon fill="#63b8ff" stroke="#63b8ff" points="479.62,-25.5 471.19,-19.09 473.78,-29.36 479.62,-25.5"/>
</a>
</g>
</g>
<!-- Node7 -->
<g id="Node000007" class="node">
<title>Node7</title>
<g id="a_Node000007"><a xlink:title=" ">
<polygon fill="#e0e0e0" stroke="#999999" points="558.02,-19 513.02,-19 513.02,0 558.02,0 558.02,-19"/>
<text text-anchor="middle" x="535.52" y="-7" font-family="Helvetica,sans-Serif" font-size="10.00">utility</text>
</a>
</g>
</g>
<!-- Node5&#45;&gt;Node7 -->
<g id="edge6_Node000005_Node000007" class="edge">
<title>Node5&#45;&gt;Node7</title>
<g id="a_edge6_Node000005_Node000007"><a xlink:title=" ">
<path fill="none" stroke="#63b8ff" d="M506.3,-54.75C511.14,-47.42 518.2,-36.73 524.16,-27.7"/>
<polygon fill="#63b8ff" stroke="#63b8ff" points="527.26,-29.36 529.85,-19.09 521.42,-25.5 527.26,-29.36"/>
</a>
</g>
</g>
<!-- Node9 -->
<g id="Node000009" class="node">
<title>Node9</title>
<g id="a_Node000009"><a xlink:title=" ">
<polygon fill="#e0e0e0" stroke="#999999" points="310.02,-19 247.02,-19 247.02,0 310.02,0 310.02,-19"/>
<text text-anchor="middle" x="278.52" y="-7" font-family="Helvetica,sans-Serif" font-size="10.00">Arduino.h</text>
</a>
</g>
</g>
<!-- Node8&#45;&gt;Node9 -->
<g id="edge8_Node000008_Node000009" class="edge">
<title>Node8&#45;&gt;Node9</title>
<g id="a_edge8_Node000008_Node000009"><a xlink:title=" ">
<path fill="none" stroke="#63b8ff" d="M396.02,-54.98C373,-46.27 336.98,-32.63 310.89,-22.75"/>
<polygon fill="#63b8ff" stroke="#63b8ff" points="312.01,-19.44 301.42,-19.17 309.53,-25.98 312.01,-19.44"/>
</a>
</g>
</g>
<!-- Node14 -->
<g id="Node000014" class="node">
<title>Node14</title>
<g id="a_Node000014"><a xlink:href="_clear_queue_8h.html" target="_top" xlink:title=" ">
<polygon fill="white" stroke="#666666" points="95.02,-74 12.02,-74 12.02,-55 95.02,-55 95.02,-74"/>
<text text-anchor="middle" x="53.52" y="-62" font-family="Helvetica,sans-Serif" font-size="10.00">ClearQueue.h</text>
</a>
</g>
</g>
<!-- Node13&#45;&gt;Node14 -->
<g id="edge14_Node000013_Node000014" class="edge">
<title>Node13&#45;&gt;Node14</title>
<g id="a_edge14_Node000013_Node000014"><a xlink:title=" ">
<path fill="none" stroke="#63b8ff" d="M101.36,-109.98C93.02,-102.23 80.49,-90.58 70.34,-81.14"/>
<polygon fill="#63b8ff" stroke="#63b8ff" points="72.55,-78.42 62.84,-74.17 67.78,-83.54 72.55,-78.42"/>
</a>
</g>
</g>
<!-- Node14&#45;&gt;Node2 -->
<g id="edge16_Node000014_Node000002" class="edge">
<title>Node14&#45;&gt;Node2</title>
<g id="a_edge16_Node000014_Node000002"><a xlink:title=" ">
<path fill="none" stroke="#63b8ff" d="M53.52,-54.75C53.52,-47.8 53.52,-37.85 53.52,-29.13"/>
<polygon fill="#63b8ff" stroke="#63b8ff" points="57.02,-29.09 53.52,-19.09 50.02,-29.09 57.02,-29.09"/>
</a>
</g>
</g>
<!-- Node14&#45;&gt;Node9 -->
<g id="edge15_Node000014_Node000009" class="edge">
<title>Node14&#45;&gt;Node9</title>
<g id="a_edge15_Node000014_Node000009"><a xlink:title=" ">
<path fill="none" stroke="#63b8ff" d="M89.67,-54.98C129.83,-45.52 194.59,-30.27 236.85,-20.31"/>
<polygon fill="#63b8ff" stroke="#63b8ff" points="237.89,-23.67 246.82,-17.97 236.29,-16.85 237.89,-23.67"/>
</a>
</g>
</g>
</g>
</svg>
