<?xml version="1.0" encoding="UTF-8" standalone="no"?>
<!DOCTYPE svg PUBLIC "-//W3C//DTD SVG 1.1//EN"
 "http://www.w3.org/Graphics/SVG/1.1/DTD/svg11.dtd">
<!-- Generated by graphviz version 2.43.0 (0)
 -->
<!-- Title: CrashStorage.cpp Pages: 1 -->
<svg width="536pt" height="302pt"
 viewBox="0.00 0.00 535.50 302.00" xmlns="http://www.w3.org/2000/svg" xmlns:xlink="http://www.w3.org/1999/xlink">
<g id="graph0" class="graph" transform="scale(1 1) rotate(0) translate(4 298)">
<title>CrashStorage.cpp</title>
<!-- Node1 -->
<g id="Node000001" class="node">
<title>Node1</title>
<g id="a_Node000001"><a xlink:title=" ">
<polygon fill="#999999" stroke="#666666" points="156,-294 54,-294 54,-275 156,-275 156,-294"/>
<text text-anchor="middle" x="105" y="-282" font-family="Helvetica,sans-Serif" font-size="10.00">CrashStorage.cpp</text>
</a>
</g>
</g>
<!-- Node2 -->
<g id="Node000002" class="node">
<title>Node2</title>
<g id="a_Node000002"><a xlink:title=" ">
<polygon fill="#e0e0e0" stroke="#999999" points="152.5,-184 57.5,-184 57.5,-165 152.5,-165 152.5,-184"/>
<text text-anchor="middle" x="105" y="-172" font-family="Helvetica,sans-Serif" font-size="10.00">user_interface.h</text>
</a>
</g>
</g>
<!-- Node1&#45;&gt;Node2 -->
<g id="edge1_Node000001_Node000002" class="edge">
<title>Node1&#45;&gt;Node2</title>
<g id="a_edge1_Node000001_Node000002"><a xlink:title=" ">
<path fill="none" stroke="#63b8ff" d="M105,-274.66C105,-257.17 105,-217.8 105,-194.27"/>
<polygon fill="#63b8ff" stroke="#63b8ff" points="108.5,-194.16 105,-184.16 101.5,-194.16 108.5,-194.16"/>
</a>
</g>
</g>
<!-- Node3 -->
<g id="Node000003" class="node">
<title>Node3</title>
<g id="a_Node000003"><a xlink:href="_logger_8h.html" target="_top" xlink:title=" ">
<polygon fill="white" stroke="#666666" points="58,-74 0,-74 0,-55 58,-55 58,-74"/>
<text text-anchor="middle" x="29" y="-62" font-family="Helvetica,sans-Serif" font-size="10.00">Logger.h</text>
</a>
</g>
</g>
<!-- Node1&#45;&gt;Node3 -->
<g id="edge2_Node000001_Node000003" class="edge">
<title>Node1&#45;&gt;Node3</title>
<g id="a_edge2_Node000001_Node000003"><a xlink:title=" ">
<path fill="none" stroke="#63b8ff" d="M98.67,-274.97C86.7,-258.38 60.8,-220.23 48,-184 36.01,-150.07 31.55,-107.97 29.92,-84.18"/>
<polygon fill="#63b8ff" stroke="#63b8ff" points="33.41,-83.87 29.32,-74.09 26.42,-84.28 33.41,-83.87"/>
</a>
</g>
</g>
<!-- Node5 -->
<g id="Node000005" class="node">
<title>Node5</title>
<g id="a_Node000005"><a xlink:href="_crash_storage_8h.html" target="_top" xlink:title=" ">
<polygon fill="white" stroke="#666666" points="235.5,-239 144.5,-239 144.5,-220 235.5,-220 235.5,-239"/>
<text text-anchor="middle" x="190" y="-227" font-family="Helvetica,sans-Serif" font-size="10.00">CrashStorage.h</text>
</a>
</g>
</g>
<!-- Node1&#45;&gt;Node5 -->
<g id="edge4_Node000001_Node000005" class="edge">
<title>Node1&#45;&gt;Node5</title>
<g id="a_edge4_Node000001_Node000005"><a xlink:title=" ">
<path fill="none" stroke="#63b8ff" d="M118.66,-274.98C131.84,-266.77 152.03,-254.18 167.57,-244.49"/>
<polygon fill="#63b8ff" stroke="#63b8ff" points="169.46,-247.43 176.09,-239.17 165.76,-241.49 169.46,-247.43"/>
</a>
</g>
</g>
<!-- Node4 -->
<g id="Node000004" class="node">
<title>Node4</title>
<g id="a_Node000004"><a xlink:title=" ">
<polygon fill="#e0e0e0" stroke="#999999" points="241.5,-19 178.5,-19 178.5,0 241.5,0 241.5,-19"/>
<text text-anchor="middle" x="210" y="-7" font-family="Helvetica,sans-Serif" font-size="10.00">Arduino.h</text>
</a>
</g>
</g>
<!-- Node3&#45;&gt;Node4 -->
<g id="edge3_Node000003_Node000004" class="edge">
<title>Node3&#45;&gt;Node4</title>
<g id="a_edge3_Node000003_Node000004"><a xlink:title=" ">
<path fill="none" stroke="#63b8ff" d="M58.08,-54.98C88.6,-46.05 136.76,-31.94 170.66,-22.02"/>
<polygon fill="#63b8ff" stroke="#63b8ff" points="172.08,-25.25 180.69,-19.08 170.11,-18.53 172.08,-25.25"/>
</a>
</g>
</g>
<!-- Node5&#45;&gt;Node2 -->
<g id="edge5_Node000005_Node000002" class="edge">
<title>Node5&#45;&gt;Node2</title>
<g id="a_edge5_Node000005_Node000002"><a xlink:title=" ">
<path fill="none" stroke="#63b8ff" d="M176.34,-219.98C163.16,-211.77 142.97,-199.18 127.43,-189.49"/>
<polygon fill="#63b8ff" stroke="#63b8ff" points="129.24,-186.49 118.91,-184.17 125.54,-192.43 129.24,-186.49"/>
</a>
</g>
</g>
<!-- Node5&#45;&gt;Node4 -->
<g id="edge19_Node000005_Node000004" class="edge">
<title>Node5&#45;&gt;Node4</title>
<g id="a_edge19_Node000005_Node000004"><a xlink:title=" ">
<path fill="none" stroke="#63b8ff" d="M210.7,-219.96C253.38,-201.07 350.32,-151.19 388,-74 414.33,-20.07 312.15,-10.79 251.67,-9.88"/>
<polygon fill="#63b8ff" stroke="#63b8ff" points="251.66,-6.38 241.63,-9.8 251.6,-13.38 251.66,-6.38"/>
</a>
</g>
</g>
<!-- Node6 -->
<g id="Node000006" class="node">
<title>Node6</title>
<g id="a_Node000006"><a xlink:href="_storage_8h.html" target="_top" xlink:title=" ">
<polygon fill="white" stroke="#666666" points="233.5,-184 170.5,-184 170.5,-165 233.5,-165 233.5,-184"/>
<text text-anchor="middle" x="202" y="-172" font-family="Helvetica,sans-Serif" font-size="10.00">Storage.h</text>
</a>
</g>
</g>
<!-- Node5&#45;&gt;Node6 -->
<g id="edge6_Node000005_Node000006" class="edge">
<title>Node5&#45;&gt;Node6</title>
<g id="a_edge6_Node000005_Node000006"><a xlink:title=" ">
<path fill="none" stroke="#63b8ff" d="M191.98,-219.75C193.57,-212.72 195.86,-202.62 197.85,-193.84"/>
<polygon fill="#63b8ff" stroke="#63b8ff" points="201.26,-194.62 200.06,-184.09 194.43,-193.07 201.26,-194.62"/>
</a>
</g>
</g>
<!-- Node6&#45;&gt;Node3 -->
<g id="edge18_Node000006_Node000003" class="edge">
<title>Node6&#45;&gt;Node3</title>
<g id="a_edge18_Node000006_Node000003"><a xlink:title=" ">
<path fill="none" stroke="#63b8ff" d="M193.54,-164.79C180.44,-151.64 154.01,-126.52 128,-110 107.45,-96.95 82.43,-85.74 62.69,-77.84"/>
<polygon fill="#63b8ff" stroke="#63b8ff" points="63.77,-74.5 53.18,-74.12 61.22,-81.02 63.77,-74.5"/>
</a>
</g>
</g>
<!-- Node7 -->
<g id="Node000007" class="node">
<title>Node7</title>
<g id="a_Node000007"><a xlink:title=" ">
<polygon fill="#e0e0e0" stroke="#999999" points="283.5,-129 246.5,-129 246.5,-110 283.5,-110 283.5,-129"/>
<text text-anchor="middle" x="265" y="-117" font-family="Helvetica,sans-Serif" font-size="10.00">FS.h</text>
</a>
</g>
</g>
<!-- Node6&#45;&gt;Node7 -->
<g id="edge7_Node000006_Node000007" class="edge">
<title>Node6&#45;&gt;Node7</title>
<g id="a_edge7_Node000006_Node000007"><a xlink:title=" ">
<path fill="none" stroke="#63b8ff" d="M212.12,-164.98C221.44,-157.15 235.47,-145.34 246.74,-135.86"/>
<polygon fill="#63b8ff" stroke="#63b8ff" points="249.29,-138.29 254.69,-129.17 244.79,-132.93 249.29,-138.29"/>
</a>
</g>
</g>
<!-- Node8 -->
<g id="Node000008" class="node">
<title>Node8</title>
<g id="a_Node000008"><a xlink:title=" ">
<polygon fill="#e0e0e0" stroke="#999999" points="119,-129 61,-129 61,-110 119,-110 119,-129"/>
<text text-anchor="middle" x="90" y="-117" font-family="Helvetica,sans-Serif" font-size="10.00">SPIFFS.h</text>
</a>
</g>
</g>
<!-- Node6&#45;&gt;Node8 -->
<g id="edge8_Node000006_Node000008" class="edge">
<title>Node6&#45;&gt;Node8</title>
<g id="a_edge8_Node000006_Node000008"><a xlink:title=" ">
<path fill="none" stroke="#63b8ff" d="M184.01,-164.98C166.07,-156.5 138.28,-143.35 117.57,-133.54"/>
<polygon fill="#63b8ff" stroke="#63b8ff" points="118.86,-130.28 108.32,-129.17 115.86,-136.61 118.86,-130.28"/>
</a>
</g>
</g>
<!-- Node9 -->
<g id="Node000009" class="node">
<title>Node9</title>
<g id="a_Node000009"><a xlink:href="_bytes_8h.html" target="_top" xlink:title=" ">
<polygon fill="white" stroke="#666666" points="228.5,-129 175.5,-129 175.5,-110 228.5,-110 228.5,-129"/>
<text text-anchor="middle" x="202" y="-117" font-family="Helvetica,sans-Serif" font-size="10.00">Bytes.h</text>
</a>
</g>
</g>
<!-- Node6&#45;&gt;Node9 -->
<g id="edge9_Node000006_Node000009" class="edge">
<title>Node6&#45;&gt;Node9</title>
<g id="a_edge9_Node000006_Node000009"><a xlink:title=" ">
<path fill="none" stroke="#63b8ff" d="M202,-164.75C202,-157.8 202,-147.85 202,-139.13"/>
<polygon fill="#63b8ff" stroke="#63b8ff" points="205.5,-139.09 202,-129.09 198.5,-139.09 205.5,-139.09"/>
</a>
</g>
</g>
<!-- Node9&#45;&gt;Node3 -->
<g id="edge13_Node000009_Node000003" class="edge">
<title>Node9&#45;&gt;Node3</title>
<g id="a_edge13_Node000009_Node000003"><a xlink:title=" ">
<path fill="none" stroke="#63b8ff" d="M175.35,-110.33C146.23,-101.41 99.36,-87.06 66.53,-77"/>
<polygon fill="#63b8ff" stroke="#63b8ff" points="67.42,-73.61 56.83,-74.03 65.37,-80.3 67.42,-73.61"/>
</a>
</g>
</g>
<!-- Node10 -->
<g id="Node000010" class="node">
<title>Node10</title>
<g id="a_Node000010"><a xlink:href="_common_8h.html" target="_top" xlink:title=" ">
<polygon fill="white" stroke="#666666" points="505,-74 435,-74 435,-55 505,-55 505,-74"/>
<text text-anchor="middle" x="470" y="-62" font-family="Helvetica,sans-Serif" font-size="10.00">Common.h</text>
</a>
</g>
</g>
<!-- Node9&#45;&gt;Node10 -->
<g id="edge10_Node000009_Node000010" class="edge">
<title>Node9&#45;&gt;Node10</title>
<g id="a_edge10_Node000009_Node000010"><a xlink:title=" ">
<path fill="none" stroke="#63b8ff" d="M228.72,-111.87C231.51,-111.22 234.31,-110.58 237,-110 302.06,-95.9 377.85,-81.86 424.88,-73.43"/>
<polygon fill="#63b8ff" stroke="#63b8ff" points="425.53,-76.87 434.76,-71.67 424.3,-69.98 425.53,-76.87"/>
</a>
</g>
</g>
<!-- Node13 -->
<g id="Node000013" class="node">
<title>Node13</title>
<g id="a_Node000013"><a xlink:title=" ">
<polygon fill="#e0e0e0" stroke="#999999" points="311,-74 247,-74 247,-55 311,-55 311,-74"/>
<text text-anchor="middle" x="279" y="-62" font-family="Helvetica,sans-Serif" font-size="10.00">WString.h</text>
</a>
</g>
</g>
<!-- Node9&#45;&gt;Node13 -->
<g id="edge14_Node000009_Node000013" class="edge">
<title>Node9&#45;&gt;Node13</title>
<g id="a_edge14_Node000009_Node000013"><a xlink:title=" ">
<path fill="none" stroke="#63b8ff" d="M214.37,-109.98C226.09,-101.92 243.92,-89.65 257.89,-80.03"/>
<polygon fill="#63b8ff" stroke="#63b8ff" points="260.15,-82.72 266.4,-74.17 256.18,-76.96 260.15,-82.72"/>
</a>
</g>
</g>
<!-- Node14 -->
<g id="Node000014" class="node">
<title>Node14</title>
<g id="a_Node000014"><a xlink:title=" ">
<polygon fill="#e0e0e0" stroke="#999999" points="379,-74 329,-74 329,-55 379,-55 379,-74"/>
<text text-anchor="middle" x="354" y="-62" font-family="Helvetica,sans-Serif" font-size="10.00">stdio.h</text>
</a>
</g>
</g>
<!-- Node9&#45;&gt;Node14 -->
<g id="edge15_Node000009_Node000014" class="edge">
<title>Node9&#45;&gt;Node14</title>
<g id="a_edge15_Node000009_Node000014"><a xlink:title=" ">
<path fill="none" stroke="#63b8ff" d="M226.42,-109.98C251.72,-101.16 291.45,-87.31 319.86,-77.41"/>
<polygon fill="#63b8ff" stroke="#63b8ff" points="321.1,-80.68 329.39,-74.08 318.79,-74.07 321.1,-80.68"/>
</a>
</g>
</g>
<!-- Node15 -->
<g id="Node000015" class="node">
<title>Node15</title>
<g id="a_Node000015"><a xlink:title=" ">
<polygon fill="#e0e0e0" stroke="#999999" points="141.5,-74 76.5,-74 76.5,-55 141.5,-55 141.5,-74"/>
<text text-anchor="middle" x="109" y="-62" font-family="Helvetica,sans-Serif" font-size="10.00">functional</text>
</a>
</g>
</g>
<!-- Node9&#45;&gt;Node15 -->
<g id="edge16_Node000009_Node000015" class="edge">
<title>Node9&#45;&gt;Node15</title>
<g id="a_edge16_Node000009_Node000015"><a xlink:title=" ">
<path fill="none" stroke="#63b8ff" d="M187.06,-109.98C172.5,-101.69 150.13,-88.94 133.07,-79.22"/>
<polygon fill="#63b8ff" stroke="#63b8ff" points="134.64,-76.08 124.21,-74.17 131.17,-82.16 134.64,-76.08"/>
</a>
</g>
</g>
<!-- Node16 -->
<g id="Node000016" class="node">
<title>Node16</title>
<g id="a_Node000016"><a xlink:title=" ">
<polygon fill="#e0e0e0" stroke="#999999" points="228.5,-74 159.5,-74 159.5,-55 228.5,-55 228.5,-74"/>
<text text-anchor="middle" x="194" y="-62" font-family="Helvetica,sans-Serif" font-size="10.00">type_traits</text>
</a>
</g>
</g>
<!-- Node9&#45;&gt;Node16 -->
<g id="edge17_Node000009_Node000016" class="edge">
<title>Node9&#45;&gt;Node16</title>
<g id="a_edge17_Node000009_Node000016"><a xlink:title=" ">
<path fill="none" stroke="#63b8ff" d="M200.68,-109.75C199.63,-102.8 198.13,-92.85 196.81,-84.13"/>
<polygon fill="#63b8ff" stroke="#63b8ff" points="200.25,-83.45 195.3,-74.09 193.33,-84.5 200.25,-83.45"/>
</a>
</g>
</g>
<!-- Node11 -->
<g id="Node000011" class="node">
<title>Node11</title>
<g id="a_Node000011"><a xlink:title=" ">
<polygon fill="#e0e0e0" stroke="#999999" points="464,-19 406,-19 406,0 464,0 464,-19"/>
<text text-anchor="middle" x="435" y="-7" font-family="Helvetica,sans-Serif" font-size="10.00">memory</text>
</a>
</g>
</g>
<!-- Node10&#45;&gt;Node11 -->
<g id="edge11_Node000010_Node000011" class="edge">
<title>Node10&#45;&gt;Node11</title>
<g id="a_edge11_Node000010_Node000011"><a xlink:title=" ">
<path fill="none" stroke="#63b8ff" d="M464.22,-54.75C459.38,-47.42 452.32,-36.73 446.36,-27.7"/>
<polygon fill="#63b8ff" stroke="#63b8ff" points="449.1,-25.5 440.67,-19.09 443.26,-29.36 449.1,-25.5"/>
</a>
</g>
</g>
<!-- Node12 -->
<g id="Node000012" class="node">
<title>Node12</title>
<g id="a_Node000012"><a xlink:title=" ">
<polygon fill="#e0e0e0" stroke="#999999" points="527.5,-19 482.5,-19 482.5,0 527.5,0 527.5,-19"/>
<text text-anchor="middle" x="505" y="-7" font-family="Helvetica,sans-Serif" font-size="10.00">utility</text>
</a>
</g>
</g>
<!-- Node10&#45;&gt;Node12 -->
<g id="edge12_Node000010_Node000012" class="edge">
<title>Node10&#45;&gt;Node12</title>
<g id="a_edge12_Node000010_Node000012"><a xlink:title=" ">
<path fill="none" stroke="#63b8ff" d="M475.78,-54.75C480.62,-47.42 487.68,-36.73 493.64,-27.7"/>
<polygon fill="#63b8ff" stroke="#63b8ff" points="496.74,-29.36 499.33,-19.09 490.9,-25.5 496.74,-29.36"/>
</a>
</g>
</g>
</g>
</svg>
