<?xml version="1.0" encoding="UTF-8" standalone="no"?>
<!DOCTYPE svg PUBLIC "-//W3C//DTD SVG 1.1//EN"
 "http://www.w3.org/Graphics/SVG/1.1/DTD/svg11.dtd">
<!-- Generated by graphviz version 2.43.0 (0)
 -->
<!-- Title: Credentials.h Pages: 1 -->
<svg width="248pt" height="302pt"
 viewBox="0.00 0.00 248.44 302.00" xmlns="http://www.w3.org/2000/svg" xmlns:xlink="http://www.w3.org/1999/xlink">
<g id="graph0" class="graph" transform="scale(1 1) rotate(0) translate(4 298)">
<title>Credentials.h</title>
<!-- Node1 -->
<g id="Node000001" class="node">
<title>Node1</title>
<g id="a_Node000001"><a xlink:title=" ">
<polygon fill="#999999" stroke="#666666" points="108.94,-294 27.94,-294 27.94,-275 108.94,-275 108.94,-294"/>
<text text-anchor="middle" x="68.44" y="-282" font-family="Helvetica,sans-Serif" font-size="10.00">Credentials.h</text>
</a>
</g>
</g>
<!-- Node2 -->
<g id="Node000002" class="node">
<title>Node2</title>
<g id="a_Node000002"><a xlink:href="_m_q_t_t_path_8h.html" target="_top" xlink:title=" ">
<polygon fill="white" stroke="#666666" points="105.94,-239 30.94,-239 30.94,-220 105.94,-220 105.94,-239"/>
<text text-anchor="middle" x="68.44" y="-227" font-family="Helvetica,sans-Serif" font-size="10.00">MQTTPath.h</text>
</a>
</g>
</g>
<!-- Node1&#45;&gt;Node2 -->
<g id="edge1_Node000001_Node000002" class="edge">
<title>Node1&#45;&gt;Node2</title>
<g id="a_edge1_Node000001_Node000002"><a xlink:title=" ">
<path fill="none" stroke="#63b8ff" d="M68.44,-264.66C68.44,-255.93 68.44,-245.99 68.44,-239.09"/>
<polygon fill="#63b8ff" stroke="#63b8ff" points="64.94,-264.75 68.44,-274.75 71.94,-264.75 64.94,-264.75"/>
</a>
</g>
</g>
<!-- Node5 -->
<g id="Node000005" class="node">
<title>Node5</title>
<g id="a_Node000005"><a xlink:href="_uniot_8h.html" target="_top" xlink:title="Main API interface for the Uniot IoT platform.">
<polygon fill="white" stroke="#666666" points="111.44,-74 59.44,-74 59.44,-55 111.44,-55 111.44,-74"/>
<text text-anchor="middle" x="85.44" y="-62" font-family="Helvetica,sans-Serif" font-size="10.00">Uniot.h</text>
</a>
</g>
</g>
<!-- Node1&#45;&gt;Node5 -->
<g id="edge11_Node000001_Node000005" class="edge">
<title>Node1&#45;&gt;Node5</title>
<g id="a_edge11_Node000001_Node000005"><a xlink:title=" ">
<path fill="none" stroke="#63b8ff" d="M46.69,-268.44C37.48,-260.78 27.68,-250.63 22.44,-239 -1.15,-186.7 -9.85,-160.47 17.44,-110 26.76,-92.75 46.01,-81.11 61.65,-74.08"/>
<polygon fill="#63b8ff" stroke="#63b8ff" points="44.78,-271.39 54.83,-274.74 49.07,-265.86 44.78,-271.39"/>
</a>
</g>
</g>
<!-- Node8 -->
<g id="Node000008" class="node">
<title>Node8</title>
<g id="a_Node000008"><a xlink:href="_network_scheduler_8h.html" target="_top" xlink:title="Complete WiFi network management and configuration system.">
<polygon fill="white" stroke="#666666" points="238.44,-239 124.44,-239 124.44,-220 238.44,-220 238.44,-239"/>
<text text-anchor="middle" x="181.44" y="-227" font-family="Helvetica,sans-Serif" font-size="10.00">NetworkScheduler.h</text>
</a>
</g>
</g>
<!-- Node1&#45;&gt;Node8 -->
<g id="edge7_Node000001_Node000008" class="edge">
<title>Node1&#45;&gt;Node8</title>
<g id="a_edge7_Node000001_Node000008"><a xlink:title=" ">
<path fill="none" stroke="#63b8ff" d="M95.87,-270.63C116.68,-260.87 144.73,-247.71 162.95,-239.17"/>
<polygon fill="#63b8ff" stroke="#63b8ff" points="94.16,-267.57 86.59,-274.98 97.13,-273.91 94.16,-267.57"/>
</a>
</g>
</g>
<!-- Node3 -->
<g id="Node000003" class="node">
<title>Node3</title>
<g id="a_Node000003"><a xlink:href="_m_q_t_t_kit_8h.html" target="_top" xlink:title=" ">
<polygon fill="white" stroke="#666666" points="108.44,-184 40.44,-184 40.44,-165 108.44,-165 108.44,-184"/>
<text text-anchor="middle" x="74.44" y="-172" font-family="Helvetica,sans-Serif" font-size="10.00">MQTTKit.h</text>
</a>
</g>
</g>
<!-- Node2&#45;&gt;Node3 -->
<g id="edge2_Node000002_Node000003" class="edge">
<title>Node2&#45;&gt;Node3</title>
<g id="a_edge2_Node000002_Node000003"><a xlink:title=" ">
<path fill="none" stroke="#63b8ff" d="M70.57,-209.66C71.56,-200.93 72.68,-190.99 73.46,-184.09"/>
<polygon fill="#63b8ff" stroke="#63b8ff" points="67.07,-209.42 69.43,-219.75 74.03,-210.21 67.07,-209.42"/>
</a>
</g>
</g>
<!-- Node4 -->
<g id="Node000004" class="node">
<title>Node4</title>
<g id="a_Node000004"><a xlink:href="_app_kit_8h.html" target="_top" xlink:title=" ">
<polygon fill="white" stroke="#666666" points="202.44,-129 144.44,-129 144.44,-110 202.44,-110 202.44,-129"/>
<text text-anchor="middle" x="173.44" y="-117" font-family="Helvetica,sans-Serif" font-size="10.00">AppKit.h</text>
</a>
</g>
</g>
<!-- Node3&#45;&gt;Node4 -->
<g id="edge3_Node000003_Node000004" class="edge">
<title>Node3&#45;&gt;Node4</title>
<g id="a_edge3_Node000003_Node000004"><a xlink:title=" ">
<path fill="none" stroke="#63b8ff" d="M99.22,-160.23C117.37,-150.51 141.5,-137.6 157.24,-129.17"/>
<polygon fill="#63b8ff" stroke="#63b8ff" points="97.51,-157.18 90.34,-164.98 100.81,-163.35 97.51,-157.18"/>
</a>
</g>
</g>
<!-- Node7 -->
<g id="Node000007" class="node">
<title>Node7</title>
<g id="a_Node000007"><a xlink:href="_m_q_t_t_device_8cpp.html" target="_top" xlink:title=" ">
<polygon fill="white" stroke="#666666" points="125.94,-129 26.94,-129 26.94,-110 125.94,-110 125.94,-129"/>
<text text-anchor="middle" x="76.44" y="-117" font-family="Helvetica,sans-Serif" font-size="10.00">MQTTDevice.cpp</text>
</a>
</g>
</g>
<!-- Node3&#45;&gt;Node7 -->
<g id="edge6_Node000003_Node000007" class="edge">
<title>Node3&#45;&gt;Node7</title>
<g id="a_edge6_Node000003_Node000007"><a xlink:title=" ">
<path fill="none" stroke="#63b8ff" d="M75.15,-154.66C75.48,-145.93 75.85,-135.99 76.11,-129.09"/>
<polygon fill="#63b8ff" stroke="#63b8ff" points="71.65,-154.62 74.77,-164.75 78.64,-154.89 71.65,-154.62"/>
</a>
</g>
</g>
<!-- Node4&#45;&gt;Node5 -->
<g id="edge4_Node000004_Node000005" class="edge">
<title>Node4&#45;&gt;Node5</title>
<g id="a_edge4_Node000004_Node000005"><a xlink:title=" ">
<path fill="none" stroke="#63b8ff" d="M150.51,-104.7C134.49,-95.04 113.57,-82.44 99.83,-74.17"/>
<polygon fill="#63b8ff" stroke="#63b8ff" points="148.92,-107.82 159.3,-109.98 152.54,-101.83 148.92,-107.82"/>
</a>
</g>
</g>
<!-- Node6 -->
<g id="Node000006" class="node">
<title>Node6</title>
<g id="a_Node000006"><a xlink:href="_uniot_8cpp.html" target="_top" xlink:title=" ">
<polygon fill="white" stroke="#666666" points="116.94,-19 53.94,-19 53.94,0 116.94,0 116.94,-19"/>
<text text-anchor="middle" x="85.44" y="-7" font-family="Helvetica,sans-Serif" font-size="10.00">Uniot.cpp</text>
</a>
</g>
</g>
<!-- Node5&#45;&gt;Node6 -->
<g id="edge5_Node000005_Node000006" class="edge">
<title>Node5&#45;&gt;Node6</title>
<g id="a_edge5_Node000005_Node000006"><a xlink:title=" ">
<path fill="none" stroke="#63b8ff" d="M85.44,-44.66C85.44,-35.93 85.44,-25.99 85.44,-19.09"/>
<polygon fill="#63b8ff" stroke="#63b8ff" points="81.94,-44.75 85.44,-54.75 88.94,-44.75 81.94,-44.75"/>
</a>
</g>
</g>
<!-- Node8&#45;&gt;Node3 -->
<g id="edge8_Node000008_Node000003" class="edge">
<title>Node8&#45;&gt;Node3</title>
<g id="a_edge8_Node000008_Node000003"><a xlink:title=" ">
<path fill="none" stroke="#63b8ff" d="M155.19,-215.5C135.51,-205.75 109.11,-192.68 91.94,-184.17"/>
<polygon fill="#63b8ff" stroke="#63b8ff" points="153.73,-218.68 164.24,-219.98 156.84,-212.41 153.73,-218.68"/>
</a>
</g>
</g>
<!-- Node9 -->
<g id="Node000009" class="node">
<title>Node9</title>
<g id="a_Node000009"><a xlink:href="_network_controller_8h.html" target="_top" xlink:title="High&#45;level network management controller with user interface.">
<polygon fill="white" stroke="#666666" points="240.44,-184 126.44,-184 126.44,-165 240.44,-165 240.44,-184"/>
<text text-anchor="middle" x="183.44" y="-172" font-family="Helvetica,sans-Serif" font-size="10.00">NetworkController.h</text>
</a>
</g>
</g>
<!-- Node8&#45;&gt;Node9 -->
<g id="edge9_Node000008_Node000009" class="edge">
<title>Node8&#45;&gt;Node9</title>
<g id="a_edge9_Node000008_Node000009"><a xlink:title=" ">
<path fill="none" stroke="#63b8ff" d="M182.15,-209.66C182.48,-200.93 182.85,-190.99 183.11,-184.09"/>
<polygon fill="#63b8ff" stroke="#63b8ff" points="178.65,-209.62 181.77,-219.75 185.64,-209.89 178.65,-209.62"/>
</a>
</g>
</g>
<!-- Node9&#45;&gt;Node4 -->
<g id="edge10_Node000009_Node000004" class="edge">
<title>Node9&#45;&gt;Node4</title>
<g id="a_edge10_Node000009_Node000004"><a xlink:title=" ">
<path fill="none" stroke="#63b8ff" d="M179.88,-154.66C178.23,-145.93 176.36,-135.99 175.06,-129.09"/>
<polygon fill="#63b8ff" stroke="#63b8ff" points="176.49,-155.57 181.78,-164.75 183.37,-154.27 176.49,-155.57"/>
</a>
</g>
</g>
</g>
</svg>
