<?xml version="1.0" encoding="UTF-8" standalone="no"?>
<!DOCTYPE svg PUBLIC "-//W3C//DTD SVG 1.1//EN"
 "http://www.w3.org/Graphics/SVG/1.1/DTD/svg11.dtd">
<!-- Generated by graphviz version 2.43.0 (0)
 -->
<!-- Title: Date.h Pages: 1 -->
<svg width="338pt" height="247pt"
 viewBox="0.00 0.00 338.33 247.00" xmlns="http://www.w3.org/2000/svg" xmlns:xlink="http://www.w3.org/1999/xlink">
<g id="graph0" class="graph" transform="scale(1 1) rotate(0) translate(4 243)">
<title>Date.h</title>
<!-- Node1 -->
<g id="Node000001" class="node">
<title>Node1</title>
<g id="a_Node000001"><a xlink:title=" ">
<polygon fill="#999999" stroke="#666666" points="145.33,-239 96.33,-239 96.33,-220 145.33,-220 145.33,-239"/>
<text text-anchor="middle" x="120.83" y="-227" font-family="Helvetica,sans-Serif" font-size="10.00">Date.h</text>
</a>
</g>
</g>
<!-- Node2 -->
<g id="Node000002" class="node">
<title>Node2</title>
<g id="a_Node000002"><a xlink:href="_app_kit_8h.html" target="_top" xlink:title=" ">
<polygon fill="white" stroke="#666666" points="149.83,-129 91.83,-129 91.83,-110 149.83,-110 149.83,-129"/>
<text text-anchor="middle" x="120.83" y="-117" font-family="Helvetica,sans-Serif" font-size="10.00">AppKit.h</text>
</a>
</g>
</g>
<!-- Node1&#45;&gt;Node2 -->
<g id="edge1_Node000001_Node000002" class="edge">
<title>Node1&#45;&gt;Node2</title>
<g id="a_edge1_Node000001_Node000002"><a xlink:title=" ">
<path fill="none" stroke="#63b8ff" d="M120.83,-209.48C120.83,-185.84 120.83,-146.5 120.83,-129.16"/>
<polygon fill="#63b8ff" stroke="#63b8ff" points="117.33,-209.66 120.83,-219.66 124.33,-209.66 117.33,-209.66"/>
</a>
</g>
</g>
<!-- Node3 -->
<g id="Node000003" class="node">
<title>Node3</title>
<g id="a_Node000003"><a xlink:href="_uniot_8h.html" target="_top" xlink:title="Main API interface for the Uniot IoT platform.">
<polygon fill="white" stroke="#666666" points="80.83,-74 28.83,-74 28.83,-55 80.83,-55 80.83,-74"/>
<text text-anchor="middle" x="54.83" y="-62" font-family="Helvetica,sans-Serif" font-size="10.00">Uniot.h</text>
</a>
</g>
</g>
<!-- Node1&#45;&gt;Node3 -->
<g id="edge11_Node000001_Node000003" class="edge">
<title>Node1&#45;&gt;Node3</title>
<g id="a_edge11_Node000001_Node000003"><a xlink:title=" ">
<path fill="none" stroke="#63b8ff" d="M86.06,-225.06C59.73,-220.42 25.22,-209.54 7.83,-184 -17.33,-147.05 26.48,-94.63 46.08,-74.16"/>
<polygon fill="#63b8ff" stroke="#63b8ff" points="85.64,-228.53 96.06,-226.59 86.71,-221.62 85.64,-228.53"/>
</a>
</g>
</g>
<!-- Node5 -->
<g id="Node000005" class="node">
<title>Node5</title>
<g id="a_Node000005"><a xlink:href="_lisp_device_8h.html" target="_top" xlink:title=" ">
<polygon fill="white" stroke="#666666" points="228.33,-184 149.33,-184 149.33,-165 228.33,-165 228.33,-184"/>
<text text-anchor="middle" x="188.83" y="-172" font-family="Helvetica,sans-Serif" font-size="10.00">LispDevice.h</text>
</a>
</g>
</g>
<!-- Node1&#45;&gt;Node5 -->
<g id="edge4_Node000001_Node000005" class="edge">
<title>Node1&#45;&gt;Node5</title>
<g id="a_edge4_Node000001_Node000005"><a xlink:title=" ">
<path fill="none" stroke="#63b8ff" d="M139.95,-213.6C152.13,-204.11 167.49,-192.13 177.71,-184.17"/>
<polygon fill="#63b8ff" stroke="#63b8ff" points="137.49,-211.08 131.76,-219.98 141.8,-216.6 137.49,-211.08"/>
</a>
</g>
</g>
<!-- Node6 -->
<g id="Node000006" class="node">
<title>Node6</title>
<g id="a_Node000006"><a xlink:href="_m_q_t_t_kit_8h.html" target="_top" xlink:title=" ">
<polygon fill="white" stroke="#666666" points="314.83,-184 246.83,-184 246.83,-165 314.83,-165 314.83,-184"/>
<text text-anchor="middle" x="280.83" y="-172" font-family="Helvetica,sans-Serif" font-size="10.00">MQTTKit.h</text>
</a>
</g>
</g>
<!-- Node1&#45;&gt;Node6 -->
<g id="edge6_Node000001_Node000006" class="edge">
<title>Node1&#45;&gt;Node6</title>
<g id="a_edge6_Node000001_Node000006"><a xlink:title=" ">
<path fill="none" stroke="#63b8ff" d="M155.11,-217.14C185.09,-207.21 227.97,-193.01 255.1,-184.03"/>
<polygon fill="#63b8ff" stroke="#63b8ff" points="153.87,-213.87 145.48,-220.33 156.08,-220.51 153.87,-213.87"/>
</a>
</g>
</g>
<!-- Node8 -->
<g id="Node000008" class="node">
<title>Node8</title>
<g id="a_Node000008"><a xlink:href="_top_device_8h.html" target="_top" xlink:title=" ">
<polygon fill="white" stroke="#666666" points="92.83,-184 16.83,-184 16.83,-165 92.83,-165 92.83,-184"/>
<text text-anchor="middle" x="54.83" y="-172" font-family="Helvetica,sans-Serif" font-size="10.00">TopDevice.h</text>
</a>
</g>
</g>
<!-- Node1&#45;&gt;Node8 -->
<g id="edge9_Node000001_Node000008" class="edge">
<title>Node1&#45;&gt;Node8</title>
<g id="a_edge9_Node000001_Node000008"><a xlink:title=" ">
<path fill="none" stroke="#63b8ff" d="M102.28,-213.6C90.45,-204.11 75.55,-192.13 65.63,-184.17"/>
<polygon fill="#63b8ff" stroke="#63b8ff" points="100.24,-216.45 110.23,-219.98 104.62,-210.99 100.24,-216.45"/>
</a>
</g>
</g>
<!-- Node2&#45;&gt;Node3 -->
<g id="edge2_Node000002_Node000003" class="edge">
<title>Node2&#45;&gt;Node3</title>
<g id="a_edge2_Node000002_Node000003"><a xlink:title=" ">
<path fill="none" stroke="#63b8ff" d="M102.28,-103.6C90.45,-94.11 75.55,-82.13 65.63,-74.17"/>
<polygon fill="#63b8ff" stroke="#63b8ff" points="100.24,-106.45 110.23,-109.98 104.62,-100.99 100.24,-106.45"/>
</a>
</g>
</g>
<!-- Node4 -->
<g id="Node000004" class="node">
<title>Node4</title>
<g id="a_Node000004"><a xlink:href="_uniot_8cpp.html" target="_top" xlink:title=" ">
<polygon fill="white" stroke="#666666" points="86.33,-19 23.33,-19 23.33,0 86.33,0 86.33,-19"/>
<text text-anchor="middle" x="54.83" y="-7" font-family="Helvetica,sans-Serif" font-size="10.00">Uniot.cpp</text>
</a>
</g>
</g>
<!-- Node3&#45;&gt;Node4 -->
<g id="edge3_Node000003_Node000004" class="edge">
<title>Node3&#45;&gt;Node4</title>
<g id="a_edge3_Node000003_Node000004"><a xlink:title=" ">
<path fill="none" stroke="#63b8ff" d="M54.83,-44.66C54.83,-35.93 54.83,-25.99 54.83,-19.09"/>
<polygon fill="#63b8ff" stroke="#63b8ff" points="51.33,-44.75 54.83,-54.75 58.33,-44.75 51.33,-44.75"/>
</a>
</g>
</g>
<!-- Node5&#45;&gt;Node2 -->
<g id="edge5_Node000005_Node000002" class="edge">
<title>Node5&#45;&gt;Node2</title>
<g id="a_edge5_Node000005_Node000002"><a xlink:title=" ">
<path fill="none" stroke="#63b8ff" d="M169.72,-158.6C157.53,-149.11 142.18,-137.13 131.96,-129.17"/>
<polygon fill="#63b8ff" stroke="#63b8ff" points="167.87,-161.6 177.91,-164.98 172.17,-156.08 167.87,-161.6"/>
</a>
</g>
</g>
<!-- Node6&#45;&gt;Node2 -->
<g id="edge7_Node000006_Node000002" class="edge">
<title>Node6&#45;&gt;Node2</title>
<g id="a_edge7_Node000006_Node000002"><a xlink:title=" ">
<path fill="none" stroke="#63b8ff" d="M245.51,-161.8C215.65,-151.91 173.56,-137.97 146.74,-129.08"/>
<polygon fill="#63b8ff" stroke="#63b8ff" points="244.53,-165.16 255.13,-164.98 246.73,-158.52 244.53,-165.16"/>
</a>
</g>
</g>
<!-- Node7 -->
<g id="Node000007" class="node">
<title>Node7</title>
<g id="a_Node000007"><a xlink:href="_m_q_t_t_device_8cpp.html" target="_top" xlink:title=" ">
<polygon fill="white" stroke="#666666" points="330.33,-129 231.33,-129 231.33,-110 330.33,-110 330.33,-129"/>
<text text-anchor="middle" x="280.83" y="-117" font-family="Helvetica,sans-Serif" font-size="10.00">MQTTDevice.cpp</text>
</a>
</g>
</g>
<!-- Node6&#45;&gt;Node7 -->
<g id="edge8_Node000006_Node000007" class="edge">
<title>Node6&#45;&gt;Node7</title>
<g id="a_edge8_Node000006_Node000007"><a xlink:title=" ">
<path fill="none" stroke="#63b8ff" d="M280.83,-154.66C280.83,-145.93 280.83,-135.99 280.83,-129.09"/>
<polygon fill="#63b8ff" stroke="#63b8ff" points="277.33,-154.75 280.83,-164.75 284.33,-154.75 277.33,-154.75"/>
</a>
</g>
</g>
<!-- Node8&#45;&gt;Node2 -->
<g id="edge10_Node000008_Node000002" class="edge">
<title>Node8&#45;&gt;Node2</title>
<g id="a_edge10_Node000008_Node000002"><a xlink:title=" ">
<path fill="none" stroke="#63b8ff" d="M73.39,-158.6C85.21,-149.11 100.12,-137.13 110.04,-129.17"/>
<polygon fill="#63b8ff" stroke="#63b8ff" points="71.04,-155.99 65.44,-164.98 75.43,-161.45 71.04,-155.99"/>
</a>
</g>
</g>
</g>
</svg>
