<?xml version="1.0" encoding="UTF-8" standalone="no"?>
<!DOCTYPE svg PUBLIC "-//W3C//DTD SVG 1.1//EN"
 "http://www.w3.org/Graphics/SVG/1.1/DTD/svg11.dtd">
<!-- Generated by graphviz version 2.43.0 (0)
 -->
<!-- Title: Date.h Pages: 1 -->
<svg width="945pt" height="302pt"
 viewBox="0.00 0.00 944.50 302.00" xmlns="http://www.w3.org/2000/svg" xmlns:xlink="http://www.w3.org/1999/xlink">
<g id="graph0" class="graph" transform="scale(1 1) rotate(0) translate(4 298)">
<title>Date.h</title>
<!-- Node1 -->
<g id="Node000001" class="node">
<title>Node1</title>
<g id="a_Node000001"><a xlink:title=" ">
<polygon fill="#999999" stroke="#666666" points="605.5,-294 556.5,-294 556.5,-275 605.5,-275 605.5,-294"/>
<text text-anchor="middle" x="581" y="-282" font-family="Helvetica,sans-Serif" font-size="10.00">Date.h</text>
</a>
</g>
</g>
<!-- Node2 -->
<g id="Node000002" class="node">
<title>Node2</title>
<g id="a_Node000002"><a xlink:title=" ">
<polygon fill="#e0e0e0" stroke="#999999" points="280.5,-239 191.5,-239 191.5,-220 280.5,-220 280.5,-239"/>
<text text-anchor="middle" x="236" y="-227" font-family="Helvetica,sans-Serif" font-size="10.00">ESP8266WiFi.h</text>
</a>
</g>
</g>
<!-- Node1&#45;&gt;Node2 -->
<g id="edge1_Node000001_Node000002" class="edge">
<title>Node1&#45;&gt;Node2</title>
<g id="a_edge1_Node000001_Node000002"><a xlink:title=" ">
<path fill="none" stroke="#63b8ff" d="M556.47,-279.79C507.94,-272.43 396.02,-255.43 290.93,-239.14"/>
<polygon fill="#63b8ff" stroke="#63b8ff" points="291.21,-235.64 280.79,-237.57 290.13,-242.56 291.21,-235.64"/>
</a>
</g>
</g>
<!-- Node3 -->
<g id="Node000003" class="node">
<title>Node3</title>
<g id="a_Node000003"><a xlink:title=" ">
<polygon fill="#e0e0e0" stroke="#999999" points="371,-239 299,-239 299,-220 371,-220 371,-239"/>
<text text-anchor="middle" x="335" y="-227" font-family="Helvetica,sans-Serif" font-size="10.00">coredecls.h</text>
</a>
</g>
</g>
<!-- Node1&#45;&gt;Node3 -->
<g id="edge2_Node000001_Node000003" class="edge">
<title>Node1&#45;&gt;Node3</title>
<g id="a_edge2_Node000001_Node000003"><a xlink:title=" ">
<path fill="none" stroke="#63b8ff" d="M556.06,-278.13C515.06,-269.29 432.82,-251.58 381.03,-240.42"/>
<polygon fill="#63b8ff" stroke="#63b8ff" points="381.61,-236.96 371.1,-238.28 380.14,-243.8 381.61,-236.96"/>
</a>
</g>
</g>
<!-- Node4 -->
<g id="Node000004" class="node">
<title>Node4</title>
<g id="a_Node000004"><a xlink:href="_date_events_8h.html" target="_top" xlink:title="Date and time event definitions for the Uniot event system.">
<polygon fill="white" stroke="#666666" points="82,-184 0,-184 0,-165 82,-165 82,-184"/>
<text text-anchor="middle" x="41" y="-172" font-family="Helvetica,sans-Serif" font-size="10.00">DateEvents.h</text>
</a>
</g>
</g>
<!-- Node1&#45;&gt;Node4 -->
<g id="edge3_Node000001_Node000004" class="edge">
<title>Node1&#45;&gt;Node4</title>
<g id="a_edge3_Node000001_Node000004"><a xlink:title=" ">
<path fill="none" stroke="#63b8ff" d="M556.5,-278.4C524.18,-271.31 465.81,-257.28 418,-239 400.36,-232.26 398.06,-225.53 380,-220 353.11,-211.77 180.28,-191.34 92.3,-181.28"/>
<polygon fill="#63b8ff" stroke="#63b8ff" points="92.6,-177.79 82.26,-180.14 91.8,-184.75 92.6,-177.79"/>
</a>
</g>
</g>
<!-- Node8 -->
<g id="Node000008" class="node">
<title>Node8</title>
<g id="a_Node000008"><a xlink:href="_c_b_o_r_storage_8h.html" target="_top" xlink:title=" ">
<polygon fill="white" stroke="#666666" points="518.5,-239 427.5,-239 427.5,-220 518.5,-220 518.5,-239"/>
<text text-anchor="middle" x="473" y="-227" font-family="Helvetica,sans-Serif" font-size="10.00">CBORStorage.h</text>
</a>
</g>
</g>
<!-- Node1&#45;&gt;Node8 -->
<g id="edge7_Node000001_Node000008" class="edge">
<title>Node1&#45;&gt;Node8</title>
<g id="a_edge7_Node000001_Node000008"><a xlink:title=" ">
<path fill="none" stroke="#63b8ff" d="M563.65,-274.98C546.43,-266.54 519.8,-253.47 499.85,-243.68"/>
<polygon fill="#63b8ff" stroke="#63b8ff" points="501.19,-240.43 490.67,-239.17 498.1,-246.72 501.19,-240.43"/>
</a>
</g>
</g>
<!-- Node21 -->
<g id="Node000021" class="node">
<title>Node21</title>
<g id="a_Node000021"><a xlink:href="_event_emitter_8h.html" target="_top" xlink:title=" ">
<polygon fill="white" stroke="#666666" points="625.5,-239 536.5,-239 536.5,-220 625.5,-220 625.5,-239"/>
<text text-anchor="middle" x="581" y="-227" font-family="Helvetica,sans-Serif" font-size="10.00">EventEmitter.h</text>
</a>
</g>
</g>
<!-- Node1&#45;&gt;Node21 -->
<g id="edge26_Node000001_Node000021" class="edge">
<title>Node1&#45;&gt;Node21</title>
<g id="a_edge26_Node000001_Node000021"><a xlink:title=" ">
<path fill="none" stroke="#63b8ff" d="M581,-274.75C581,-267.8 581,-257.85 581,-249.13"/>
<polygon fill="#63b8ff" stroke="#63b8ff" points="584.5,-249.09 581,-239.09 577.5,-249.09 584.5,-249.09"/>
</a>
</g>
</g>
<!-- Node26 -->
<g id="Node000026" class="node">
<title>Node26</title>
<g id="a_Node000026"><a xlink:href="_i_executor_8h.html" target="_top" xlink:title=" ">
<polygon fill="white" stroke="#666666" points="847,-239 777,-239 777,-220 847,-220 847,-239"/>
<text text-anchor="middle" x="812" y="-227" font-family="Helvetica,sans-Serif" font-size="10.00">IExecutor.h</text>
</a>
</g>
</g>
<!-- Node1&#45;&gt;Node26 -->
<g id="edge36_Node000001_Node000026" class="edge">
<title>Node1&#45;&gt;Node26</title>
<g id="a_edge36_Node000001_Node000026"><a xlink:title=" ">
<path fill="none" stroke="#63b8ff" d="M605.72,-277.83C644.19,-269 718.94,-251.85 767.11,-240.8"/>
<polygon fill="#63b8ff" stroke="#63b8ff" points="768,-244.19 776.96,-238.54 766.43,-237.36 768,-244.19"/>
</a>
</g>
</g>
<!-- Node27 -->
<g id="Node000027" class="node">
<title>Node27</title>
<g id="a_Node000027"><a xlink:href="_simple_n_t_p_8h.html" target="_top" xlink:title=" ">
<polygon fill="white" stroke="#666666" points="720.5,-239 643.5,-239 643.5,-220 720.5,-220 720.5,-239"/>
<text text-anchor="middle" x="682" y="-227" font-family="Helvetica,sans-Serif" font-size="10.00">SimpleNTP.h</text>
</a>
</g>
</g>
<!-- Node1&#45;&gt;Node27 -->
<g id="edge37_Node000001_Node000027" class="edge">
<title>Node1&#45;&gt;Node27</title>
<g id="a_edge37_Node000001_Node000027"><a xlink:title=" ">
<path fill="none" stroke="#63b8ff" d="M597.23,-274.98C613.18,-266.61 637.78,-253.7 656.38,-243.95"/>
<polygon fill="#63b8ff" stroke="#63b8ff" points="658.25,-246.92 665.48,-239.17 655,-240.72 658.25,-246.92"/>
</a>
</g>
</g>
<!-- Node29 -->
<g id="Node000029" class="node">
<title>Node29</title>
<g id="a_Node000029"><a xlink:title=" ">
<polygon fill="#e0e0e0" stroke="#999999" points="851,-184 803,-184 803,-165 851,-165 851,-184"/>
<text text-anchor="middle" x="827" y="-172" font-family="Helvetica,sans-Serif" font-size="10.00">time.h</text>
</a>
</g>
</g>
<!-- Node1&#45;&gt;Node29 -->
<g id="edge42_Node000001_Node000029" class="edge">
<title>Node1&#45;&gt;Node29</title>
<g id="a_edge42_Node000001_Node000029"><a xlink:title=" ">
<path fill="none" stroke="#63b8ff" d="M605.52,-278.47C635.72,-271.77 688.13,-258.45 730,-239 759,-225.53 789.35,-204.33 808.22,-190.18"/>
<polygon fill="#63b8ff" stroke="#63b8ff" points="810.44,-192.89 816.27,-184.04 806.19,-187.32 810.44,-192.89"/>
</a>
</g>
</g>
<!-- Node30 -->
<g id="Node000030" class="node">
<title>Node30</title>
<g id="a_Node000030"><a xlink:href="_singleton_8h.html" target="_top" xlink:title=" ">
<polygon fill="white" stroke="#666666" points="936.5,-239 865.5,-239 865.5,-220 936.5,-220 936.5,-239"/>
<text text-anchor="middle" x="901" y="-227" font-family="Helvetica,sans-Serif" font-size="10.00">Singleton.h</text>
</a>
</g>
</g>
<!-- Node1&#45;&gt;Node30 -->
<g id="edge41_Node000001_Node000030" class="edge">
<title>Node1&#45;&gt;Node30</title>
<g id="a_edge41_Node000001_Node000030"><a xlink:title=" ">
<path fill="none" stroke="#63b8ff" d="M605.69,-279.73C652.28,-272.56 756.59,-256.29 855.03,-239.13"/>
<polygon fill="#63b8ff" stroke="#63b8ff" points="855.91,-242.53 865.15,-237.36 854.7,-235.63 855.91,-242.53"/>
</a>
</g>
</g>
<!-- Node5 -->
<g id="Node000005" class="node">
<title>Node5</title>
<g id="a_Node000005"><a xlink:href="_common_8h.html" target="_top" xlink:title=" ">
<polygon fill="white" stroke="#666666" points="128,-74 58,-74 58,-55 128,-55 128,-74"/>
<text text-anchor="middle" x="93" y="-62" font-family="Helvetica,sans-Serif" font-size="10.00">Common.h</text>
</a>
</g>
</g>
<!-- Node4&#45;&gt;Node5 -->
<g id="edge4_Node000004_Node000005" class="edge">
<title>Node4&#45;&gt;Node5</title>
<g id="a_edge4_Node000004_Node000005"><a xlink:title=" ">
<path fill="none" stroke="#63b8ff" d="M41.97,-164.87C43.66,-152.26 47.85,-128.3 57,-110 62.14,-99.71 70,-89.62 77.06,-81.66"/>
<polygon fill="#63b8ff" stroke="#63b8ff" points="79.74,-83.92 83.98,-74.22 74.61,-79.16 79.74,-83.92"/>
</a>
</g>
</g>
<!-- Node6 -->
<g id="Node000006" class="node">
<title>Node6</title>
<g id="a_Node000006"><a xlink:title=" ">
<polygon fill="#e0e0e0" stroke="#999999" points="59,-19 1,-19 1,0 59,0 59,-19"/>
<text text-anchor="middle" x="30" y="-7" font-family="Helvetica,sans-Serif" font-size="10.00">memory</text>
</a>
</g>
</g>
<!-- Node5&#45;&gt;Node6 -->
<g id="edge5_Node000005_Node000006" class="edge">
<title>Node5&#45;&gt;Node6</title>
<g id="a_edge5_Node000005_Node000006"><a xlink:title=" ">
<path fill="none" stroke="#63b8ff" d="M82.88,-54.98C73.56,-47.15 59.53,-35.34 48.26,-25.86"/>
<polygon fill="#63b8ff" stroke="#63b8ff" points="50.21,-22.93 40.31,-19.17 45.71,-28.29 50.21,-22.93"/>
</a>
</g>
</g>
<!-- Node7 -->
<g id="Node000007" class="node">
<title>Node7</title>
<g id="a_Node000007"><a xlink:title=" ">
<polygon fill="#e0e0e0" stroke="#999999" points="122.5,-19 77.5,-19 77.5,0 122.5,0 122.5,-19"/>
<text text-anchor="middle" x="100" y="-7" font-family="Helvetica,sans-Serif" font-size="10.00">utility</text>
</a>
</g>
</g>
<!-- Node5&#45;&gt;Node7 -->
<g id="edge6_Node000005_Node000007" class="edge">
<title>Node5&#45;&gt;Node7</title>
<g id="a_edge6_Node000005_Node000007"><a xlink:title=" ">
<path fill="none" stroke="#63b8ff" d="M94.16,-54.75C95.07,-47.8 96.39,-37.85 97.54,-29.13"/>
<polygon fill="#63b8ff" stroke="#63b8ff" points="101.03,-29.46 98.87,-19.09 94.09,-28.54 101.03,-29.46"/>
</a>
</g>
</g>
<!-- Node9 -->
<g id="Node000009" class="node">
<title>Node9</title>
<g id="a_Node000009"><a xlink:href="_storage_8h.html" target="_top" xlink:title=" ">
<polygon fill="white" stroke="#666666" points="392.5,-184 329.5,-184 329.5,-165 392.5,-165 392.5,-184"/>
<text text-anchor="middle" x="361" y="-172" font-family="Helvetica,sans-Serif" font-size="10.00">Storage.h</text>
</a>
</g>
</g>
<!-- Node8&#45;&gt;Node9 -->
<g id="edge8_Node000008_Node000009" class="edge">
<title>Node8&#45;&gt;Node9</title>
<g id="a_edge8_Node000008_Node000009"><a xlink:title=" ">
<path fill="none" stroke="#63b8ff" d="M455.01,-219.98C437.07,-211.5 409.28,-198.35 388.57,-188.54"/>
<polygon fill="#63b8ff" stroke="#63b8ff" points="389.86,-185.28 379.32,-184.17 386.86,-191.61 389.86,-185.28"/>
</a>
</g>
</g>
<!-- Node19 -->
<g id="Node000019" class="node">
<title>Node19</title>
<g id="a_Node000019"><a xlink:href="_c_b_o_r_object_8h.html" target="_top" xlink:title=" ">
<polygon fill="white" stroke="#666666" points="216.5,-184 131.5,-184 131.5,-165 216.5,-165 216.5,-184"/>
<text text-anchor="middle" x="174" y="-172" font-family="Helvetica,sans-Serif" font-size="10.00">CBORObject.h</text>
</a>
</g>
</g>
<!-- Node8&#45;&gt;Node19 -->
<g id="edge20_Node000008_Node000019" class="edge">
<title>Node8&#45;&gt;Node19</title>
<g id="a_edge20_Node000008_Node000019"><a xlink:title=" ">
<path fill="none" stroke="#63b8ff" d="M427.26,-220.39C373.25,-210.82 283.58,-194.92 226.7,-184.84"/>
<polygon fill="#63b8ff" stroke="#63b8ff" points="227.28,-181.39 216.82,-183.09 226.06,-188.28 227.28,-181.39"/>
</a>
</g>
</g>
<!-- Node10 -->
<g id="Node000010" class="node">
<title>Node10</title>
<g id="a_Node000010"><a xlink:title=" ">
<polygon fill="#e0e0e0" stroke="#999999" points="445.5,-129 408.5,-129 408.5,-110 445.5,-110 445.5,-129"/>
<text text-anchor="middle" x="427" y="-117" font-family="Helvetica,sans-Serif" font-size="10.00">FS.h</text>
</a>
</g>
</g>
<!-- Node9&#45;&gt;Node10 -->
<g id="edge9_Node000009_Node000010" class="edge">
<title>Node9&#45;&gt;Node10</title>
<g id="a_edge9_Node000009_Node000010"><a xlink:title=" ">
<path fill="none" stroke="#63b8ff" d="M371.6,-164.98C381.46,-157.07 396.35,-145.11 408.22,-135.58"/>
<polygon fill="#63b8ff" stroke="#63b8ff" points="410.6,-138.16 416.2,-129.17 406.21,-132.7 410.6,-138.16"/>
</a>
</g>
</g>
<!-- Node11 -->
<g id="Node000011" class="node">
<title>Node11</title>
<g id="a_Node000011"><a xlink:title=" ">
<polygon fill="#e0e0e0" stroke="#999999" points="390,-129 332,-129 332,-110 390,-110 390,-129"/>
<text text-anchor="middle" x="361" y="-117" font-family="Helvetica,sans-Serif" font-size="10.00">SPIFFS.h</text>
</a>
</g>
</g>
<!-- Node9&#45;&gt;Node11 -->
<g id="edge10_Node000009_Node000011" class="edge">
<title>Node9&#45;&gt;Node11</title>
<g id="a_edge10_Node000009_Node000011"><a xlink:title=" ">
<path fill="none" stroke="#63b8ff" d="M361,-164.75C361,-157.8 361,-147.85 361,-139.13"/>
<polygon fill="#63b8ff" stroke="#63b8ff" points="364.5,-139.09 361,-129.09 357.5,-139.09 364.5,-139.09"/>
</a>
</g>
</g>
<!-- Node12 -->
<g id="Node000012" class="node">
<title>Node12</title>
<g id="a_Node000012"><a xlink:href="_bytes_8h.html" target="_top" xlink:title=" ">
<polygon fill="white" stroke="#666666" points="237.5,-129 184.5,-129 184.5,-110 237.5,-110 237.5,-129"/>
<text text-anchor="middle" x="211" y="-117" font-family="Helvetica,sans-Serif" font-size="10.00">Bytes.h</text>
</a>
</g>
</g>
<!-- Node9&#45;&gt;Node12 -->
<g id="edge11_Node000009_Node000012" class="edge">
<title>Node9&#45;&gt;Node12</title>
<g id="a_edge11_Node000009_Node000012"><a xlink:title=" ">
<path fill="none" stroke="#63b8ff" d="M336.9,-164.98C312.12,-156.23 273.3,-142.51 245.31,-132.62"/>
<polygon fill="#63b8ff" stroke="#63b8ff" points="246.13,-129.2 235.54,-129.17 243.8,-135.8 246.13,-129.2"/>
</a>
</g>
</g>
<!-- Node13 -->
<g id="Node000013" class="node">
<title>Node13</title>
<g id="a_Node000013"><a xlink:href="_logger_8h.html" target="_top" xlink:title=" ">
<polygon fill="white" stroke="#666666" points="518,-74 460,-74 460,-55 518,-55 518,-74"/>
<text text-anchor="middle" x="489" y="-62" font-family="Helvetica,sans-Serif" font-size="10.00">Logger.h</text>
</a>
</g>
</g>
<!-- Node9&#45;&gt;Node13 -->
<g id="edge19_Node000009_Node000013" class="edge">
<title>Node9&#45;&gt;Node13</title>
<g id="a_edge19_Node000009_Node000013"><a xlink:title=" ">
<path fill="none" stroke="#63b8ff" d="M349.22,-164.88C333.43,-152.29 308.92,-128.35 323,-110 330.83,-99.8 403.36,-83.16 449.92,-73.38"/>
<polygon fill="#63b8ff" stroke="#63b8ff" points="450.64,-76.81 459.72,-71.34 449.21,-69.95 450.64,-76.81"/>
</a>
</g>
</g>
<!-- Node12&#45;&gt;Node5 -->
<g id="edge12_Node000012_Node000005" class="edge">
<title>Node12&#45;&gt;Node5</title>
<g id="a_edge12_Node000012_Node000005"><a xlink:title=" ">
<path fill="none" stroke="#63b8ff" d="M192.04,-109.98C172.97,-101.42 143.34,-88.11 121.45,-78.28"/>
<polygon fill="#63b8ff" stroke="#63b8ff" points="122.86,-75.07 112.3,-74.17 119.99,-81.46 122.86,-75.07"/>
</a>
</g>
</g>
<!-- Node12&#45;&gt;Node13 -->
<g id="edge13_Node000012_Node000013" class="edge">
<title>Node12&#45;&gt;Node13</title>
<g id="a_edge13_Node000012_Node000013"><a xlink:title=" ">
<path fill="none" stroke="#63b8ff" d="M237.89,-112.84C242.59,-111.88 247.43,-110.9 252,-110 338.05,-93.1 359.87,-90.5 446,-74 447.26,-73.76 448.54,-73.51 449.84,-73.26"/>
<polygon fill="#63b8ff" stroke="#63b8ff" points="450.72,-76.66 459.86,-71.31 449.38,-69.78 450.72,-76.66"/>
</a>
</g>
</g>
<!-- Node15 -->
<g id="Node000015" class="node">
<title>Node15</title>
<g id="a_Node000015"><a xlink:title=" ">
<polygon fill="#e0e0e0" stroke="#999999" points="404,-74 340,-74 340,-55 404,-55 404,-74"/>
<text text-anchor="middle" x="372" y="-62" font-family="Helvetica,sans-Serif" font-size="10.00">WString.h</text>
</a>
</g>
</g>
<!-- Node12&#45;&gt;Node15 -->
<g id="edge15_Node000012_Node000015" class="edge">
<title>Node12&#45;&gt;Node15</title>
<g id="a_edge15_Node000012_Node000015"><a xlink:title=" ">
<path fill="none" stroke="#63b8ff" d="M236.87,-109.98C263.78,-101.13 306.12,-87.19 336.23,-77.28"/>
<polygon fill="#63b8ff" stroke="#63b8ff" points="337.53,-80.53 345.93,-74.08 335.34,-73.88 337.53,-80.53"/>
</a>
</g>
</g>
<!-- Node16 -->
<g id="Node000016" class="node">
<title>Node16</title>
<g id="a_Node000016"><a xlink:title=" ">
<polygon fill="#e0e0e0" stroke="#999999" points="234,-74 184,-74 184,-55 234,-55 234,-74"/>
<text text-anchor="middle" x="209" y="-62" font-family="Helvetica,sans-Serif" font-size="10.00">stdio.h</text>
</a>
</g>
</g>
<!-- Node12&#45;&gt;Node16 -->
<g id="edge16_Node000012_Node000016" class="edge">
<title>Node12&#45;&gt;Node16</title>
<g id="a_edge16_Node000012_Node000016"><a xlink:title=" ">
<path fill="none" stroke="#63b8ff" d="M210.67,-109.75C210.41,-102.8 210.03,-92.85 209.7,-84.13"/>
<polygon fill="#63b8ff" stroke="#63b8ff" points="213.2,-83.95 209.32,-74.09 206.2,-84.21 213.2,-83.95"/>
</a>
</g>
</g>
<!-- Node17 -->
<g id="Node000017" class="node">
<title>Node17</title>
<g id="a_Node000017"><a xlink:title=" ">
<polygon fill="#e0e0e0" stroke="#999999" points="606.5,-19 541.5,-19 541.5,0 606.5,0 606.5,-19"/>
<text text-anchor="middle" x="574" y="-7" font-family="Helvetica,sans-Serif" font-size="10.00">functional</text>
</a>
</g>
</g>
<!-- Node12&#45;&gt;Node17 -->
<g id="edge17_Node000012_Node000017" class="edge">
<title>Node12&#45;&gt;Node17</title>
<g id="a_edge17_Node000012_Node000017"><a xlink:title=" ">
<path fill="none" stroke="#63b8ff" d="M237.57,-113.49C284.64,-104.48 380.76,-85.41 413,-74 430.8,-67.7 433.65,-62.45 451,-55 479.8,-42.64 513.28,-30.68 538.04,-22.27"/>
<polygon fill="#63b8ff" stroke="#63b8ff" points="539.38,-25.52 547.74,-19.01 537.15,-18.88 539.38,-25.52"/>
</a>
</g>
</g>
<!-- Node18 -->
<g id="Node000018" class="node">
<title>Node18</title>
<g id="a_Node000018"><a xlink:title=" ">
<polygon fill="#e0e0e0" stroke="#999999" points="321.5,-74 252.5,-74 252.5,-55 321.5,-55 321.5,-74"/>
<text text-anchor="middle" x="287" y="-62" font-family="Helvetica,sans-Serif" font-size="10.00">type_traits</text>
</a>
</g>
</g>
<!-- Node12&#45;&gt;Node18 -->
<g id="edge18_Node000012_Node000018" class="edge">
<title>Node12&#45;&gt;Node18</title>
<g id="a_edge18_Node000012_Node000018"><a xlink:title=" ">
<path fill="none" stroke="#63b8ff" d="M223.21,-109.98C234.78,-101.92 252.38,-89.65 266.16,-80.03"/>
<polygon fill="#63b8ff" stroke="#63b8ff" points="268.37,-82.76 274.57,-74.17 264.36,-77.02 268.37,-82.76"/>
</a>
</g>
</g>
<!-- Node14 -->
<g id="Node000014" class="node">
<title>Node14</title>
<g id="a_Node000014"><a xlink:title=" ">
<polygon fill="#e0e0e0" stroke="#999999" points="520.5,-19 457.5,-19 457.5,0 520.5,0 520.5,-19"/>
<text text-anchor="middle" x="489" y="-7" font-family="Helvetica,sans-Serif" font-size="10.00">Arduino.h</text>
</a>
</g>
</g>
<!-- Node13&#45;&gt;Node14 -->
<g id="edge14_Node000013_Node000014" class="edge">
<title>Node13&#45;&gt;Node14</title>
<g id="a_edge14_Node000013_Node000014"><a xlink:title=" ">
<path fill="none" stroke="#63b8ff" d="M489,-54.75C489,-47.8 489,-37.85 489,-29.13"/>
<polygon fill="#63b8ff" stroke="#63b8ff" points="492.5,-29.09 489,-19.09 485.5,-29.09 492.5,-29.09"/>
</a>
</g>
</g>
<!-- Node19&#45;&gt;Node6 -->
<g id="edge25_Node000019_Node000006" class="edge">
<title>Node19&#45;&gt;Node6</title>
<g id="a_edge25_Node000019_Node000006"><a xlink:title=" ">
<path fill="none" stroke="#63b8ff" d="M131.49,-167.53C106.34,-161.8 75.82,-150.65 57,-129 32.51,-100.83 28.97,-55.01 29.13,-29.38"/>
<polygon fill="#63b8ff" stroke="#63b8ff" points="32.63,-29.25 29.39,-19.16 25.63,-29.07 32.63,-29.25"/>
</a>
</g>
</g>
<!-- Node19&#45;&gt;Node12 -->
<g id="edge22_Node000019_Node000012" class="edge">
<title>Node19&#45;&gt;Node12</title>
<g id="a_edge22_Node000019_Node000012"><a xlink:title=" ">
<path fill="none" stroke="#63b8ff" d="M180.11,-164.75C185.28,-157.34 192.85,-146.5 199.19,-137.41"/>
<polygon fill="#63b8ff" stroke="#63b8ff" points="202.15,-139.29 205,-129.09 196.41,-135.29 202.15,-139.29"/>
</a>
</g>
</g>
<!-- Node19&#45;&gt;Node13 -->
<g id="edge23_Node000019_Node000013" class="edge">
<title>Node19&#45;&gt;Node13</title>
<g id="a_edge23_Node000019_Node000013"><a xlink:title=" ">
<path fill="none" stroke="#63b8ff" d="M190.55,-164.91C216.5,-151.71 268.63,-126.23 315,-110 360.4,-94.11 414.27,-81.21 449.92,-73.47"/>
<polygon fill="#63b8ff" stroke="#63b8ff" points="450.87,-76.84 459.91,-71.33 449.4,-70 450.87,-76.84"/>
</a>
</g>
</g>
<!-- Node19&#45;&gt;Node14 -->
<g id="edge21_Node000019_Node000014" class="edge">
<title>Node19&#45;&gt;Node14</title>
<g id="a_edge21_Node000019_Node000014"><a xlink:title=" ">
<path fill="none" stroke="#63b8ff" d="M170.68,-164.73C163.13,-143.08 147.35,-86.57 175,-55 209.9,-15.14 369.78,-10.06 447.01,-10"/>
<polygon fill="#63b8ff" stroke="#63b8ff" points="447.33,-13.5 457.33,-10.02 447.34,-6.5 447.33,-13.5"/>
</a>
</g>
</g>
<!-- Node20 -->
<g id="Node000020" class="node">
<title>Node20</title>
<g id="a_Node000020"><a xlink:title=" ">
<polygon fill="#e0e0e0" stroke="#999999" points="127.5,-129 66.5,-129 66.5,-110 127.5,-110 127.5,-129"/>
<text text-anchor="middle" x="97" y="-117" font-family="Helvetica,sans-Serif" font-size="10.00">cn&#45;cbor.h</text>
</a>
</g>
</g>
<!-- Node19&#45;&gt;Node20 -->
<g id="edge24_Node000019_Node000020" class="edge">
<title>Node19&#45;&gt;Node20</title>
<g id="a_edge24_Node000019_Node000020"><a xlink:title=" ">
<path fill="none" stroke="#63b8ff" d="M161.63,-164.98C149.91,-156.92 132.08,-144.65 118.11,-135.03"/>
<polygon fill="#63b8ff" stroke="#63b8ff" points="119.82,-131.96 109.6,-129.17 115.85,-137.72 119.82,-131.96"/>
</a>
</g>
</g>
<!-- Node21&#45;&gt;Node12 -->
<g id="edge27_Node000021_Node000012" class="edge">
<title>Node21&#45;&gt;Node12</title>
<g id="a_edge27_Node000021_Node000012"><a xlink:title=" ">
<path fill="none" stroke="#63b8ff" d="M536.25,-221.3C464.35,-209.66 330.09,-187.66 320,-184 286.65,-171.89 251.85,-149.68 230.8,-134.99"/>
<polygon fill="#63b8ff" stroke="#63b8ff" points="232.58,-131.97 222.4,-129.03 228.53,-137.68 232.58,-131.97"/>
</a>
</g>
</g>
<!-- Node22 -->
<g id="Node000022" class="node">
<title>Node22</title>
<g id="a_Node000022"><a xlink:href="_iterable_queue_8h.html" target="_top" xlink:title=" ">
<polygon fill="white" stroke="#666666" points="672.5,-129 577.5,-129 577.5,-110 672.5,-110 672.5,-129"/>
<text text-anchor="middle" x="625" y="-117" font-family="Helvetica,sans-Serif" font-size="10.00">IterableQueue.h</text>
</a>
</g>
</g>
<!-- Node21&#45;&gt;Node22 -->
<g id="edge28_Node000021_Node000022" class="edge">
<title>Node21&#45;&gt;Node22</title>
<g id="a_edge28_Node000021_Node000022"><a xlink:title=" ">
<path fill="none" stroke="#63b8ff" d="M584.6,-219.66C591.79,-202.01 608.06,-162.09 617.61,-138.64"/>
<polygon fill="#63b8ff" stroke="#63b8ff" points="620.94,-139.74 621.47,-129.16 614.46,-137.1 620.94,-139.74"/>
</a>
</g>
</g>
<!-- Node24 -->
<g id="Node000024" class="node">
<title>Node24</title>
<g id="a_Node000024"><a xlink:href="_event_entity_8h.html" target="_top" xlink:title=" ">
<polygon fill="white" stroke="#666666" points="584,-184 504,-184 504,-165 584,-165 584,-184"/>
<text text-anchor="middle" x="544" y="-172" font-family="Helvetica,sans-Serif" font-size="10.00">EventEntity.h</text>
</a>
</g>
</g>
<!-- Node21&#45;&gt;Node24 -->
<g id="edge32_Node000021_Node000024" class="edge">
<title>Node21&#45;&gt;Node24</title>
<g id="a_edge32_Node000021_Node000024"><a xlink:title=" ">
<path fill="none" stroke="#63b8ff" d="M574.89,-219.75C569.72,-212.34 562.15,-201.5 555.81,-192.41"/>
<polygon fill="#63b8ff" stroke="#63b8ff" points="558.59,-190.29 550,-184.09 552.85,-194.29 558.59,-190.29"/>
</a>
</g>
</g>
<!-- Node23 -->
<g id="Node000023" class="node">
<title>Node23</title>
<g id="a_Node000023"><a xlink:href="_clear_queue_8h.html" target="_top" xlink:title=" ">
<polygon fill="white" stroke="#666666" points="619.5,-74 536.5,-74 536.5,-55 619.5,-55 619.5,-74"/>
<text text-anchor="middle" x="578" y="-62" font-family="Helvetica,sans-Serif" font-size="10.00">ClearQueue.h</text>
</a>
</g>
</g>
<!-- Node22&#45;&gt;Node23 -->
<g id="edge29_Node000022_Node000023" class="edge">
<title>Node22&#45;&gt;Node23</title>
<g id="a_edge29_Node000022_Node000023"><a xlink:title=" ">
<path fill="none" stroke="#63b8ff" d="M617.24,-109.75C610.53,-102.18 600.66,-91.05 592.49,-81.84"/>
<polygon fill="#63b8ff" stroke="#63b8ff" points="594.87,-79.25 585.62,-74.09 589.63,-83.89 594.87,-79.25"/>
</a>
</g>
</g>
<!-- Node23&#45;&gt;Node14 -->
<g id="edge30_Node000023_Node000014" class="edge">
<title>Node23&#45;&gt;Node14</title>
<g id="a_edge30_Node000023_Node000014"><a xlink:title=" ">
<path fill="none" stroke="#63b8ff" d="M563.7,-54.98C549.9,-46.77 528.76,-34.18 512.49,-24.49"/>
<polygon fill="#63b8ff" stroke="#63b8ff" points="513.94,-21.28 503.56,-19.17 510.36,-27.29 513.94,-21.28"/>
</a>
</g>
</g>
<!-- Node23&#45;&gt;Node17 -->
<g id="edge31_Node000023_Node000017" class="edge">
<title>Node23&#45;&gt;Node17</title>
<g id="a_edge31_Node000023_Node000017"><a xlink:title=" ">
<path fill="none" stroke="#63b8ff" d="M577.34,-54.75C576.82,-47.8 576.06,-37.85 575.41,-29.13"/>
<polygon fill="#63b8ff" stroke="#63b8ff" points="578.89,-28.8 574.65,-19.09 571.91,-29.32 578.89,-28.8"/>
</a>
</g>
</g>
<!-- Node24&#45;&gt;Node13 -->
<g id="edge34_Node000024_Node000013" class="edge">
<title>Node24&#45;&gt;Node13</title>
<g id="a_edge34_Node000024_Node000013"><a xlink:title=" ">
<path fill="none" stroke="#63b8ff" d="M528.53,-164.75C516.54,-157.03 500.69,-144.6 493,-129 486.2,-115.21 485.61,-97.64 486.49,-84.48"/>
<polygon fill="#63b8ff" stroke="#63b8ff" points="490,-84.55 487.52,-74.25 483.04,-83.85 490,-84.55"/>
</a>
</g>
</g>
<!-- Node24&#45;&gt;Node22 -->
<g id="edge33_Node000024_Node000022" class="edge">
<title>Node24&#45;&gt;Node22</title>
<g id="a_edge33_Node000024_Node000022"><a xlink:title=" ">
<path fill="none" stroke="#63b8ff" d="M557.01,-164.98C569.46,-156.84 588.46,-144.41 603.21,-134.76"/>
<polygon fill="#63b8ff" stroke="#63b8ff" points="605.3,-137.57 611.75,-129.17 601.46,-131.72 605.3,-137.57"/>
</a>
</g>
</g>
<!-- Node25 -->
<g id="Node000025" class="node">
<title>Node25</title>
<g id="a_Node000025"><a xlink:href="_type_id_8h.html" target="_top" xlink:title=" ">
<polygon fill="white" stroke="#666666" points="559.5,-129 502.5,-129 502.5,-110 559.5,-110 559.5,-129"/>
<text text-anchor="middle" x="531" y="-117" font-family="Helvetica,sans-Serif" font-size="10.00">TypeId.h</text>
</a>
</g>
</g>
<!-- Node24&#45;&gt;Node25 -->
<g id="edge35_Node000024_Node000025" class="edge">
<title>Node24&#45;&gt;Node25</title>
<g id="a_edge35_Node000024_Node000025"><a xlink:title=" ">
<path fill="none" stroke="#63b8ff" d="M541.85,-164.75C540.13,-157.72 537.65,-147.62 535.5,-138.84"/>
<polygon fill="#63b8ff" stroke="#63b8ff" points="538.89,-137.97 533.11,-129.09 532.09,-139.63 538.89,-137.97"/>
</a>
</g>
</g>
<!-- Node27&#45;&gt;Node13 -->
<g id="edge38_Node000027_Node000013" class="edge">
<title>Node27&#45;&gt;Node13</title>
<g id="a_edge38_Node000027_Node000013"><a xlink:title=" ">
<path fill="none" stroke="#63b8ff" d="M685.23,-219.88C692.62,-198.59 708.13,-142.84 682,-110 681.39,-109.24 584.43,-87.14 528.19,-74.38"/>
<polygon fill="#63b8ff" stroke="#63b8ff" points="528.72,-70.91 518.2,-72.11 527.17,-77.74 528.72,-70.91"/>
</a>
</g>
</g>
<!-- Node28 -->
<g id="Node000028" class="node">
<title>Node28</title>
<g id="a_Node000028"><a xlink:title=" ">
<polygon fill="#e0e0e0" stroke="#999999" points="785,-184 719,-184 719,-165 785,-165 785,-184"/>
<text text-anchor="middle" x="752" y="-172" font-family="Helvetica,sans-Serif" font-size="10.00">WiFiUdp.h</text>
</a>
</g>
</g>
<!-- Node27&#45;&gt;Node28 -->
<g id="edge39_Node000027_Node000028" class="edge">
<title>Node27&#45;&gt;Node28</title>
<g id="a_edge39_Node000027_Node000028"><a xlink:title=" ">
<path fill="none" stroke="#63b8ff" d="M693.25,-219.98C703.8,-212 719.8,-199.88 732.44,-190.31"/>
<polygon fill="#63b8ff" stroke="#63b8ff" points="734.69,-193 740.55,-184.17 730.46,-187.42 734.69,-193"/>
</a>
</g>
</g>
<!-- Node27&#45;&gt;Node29 -->
<g id="edge40_Node000027_Node000029" class="edge">
<title>Node27&#45;&gt;Node29</title>
<g id="a_edge40_Node000027_Node000029"><a xlink:title=" ">
<path fill="none" stroke="#63b8ff" d="M705.3,-219.98C729.25,-211.23 766.78,-197.51 793.83,-187.62"/>
<polygon fill="#63b8ff" stroke="#63b8ff" points="795.09,-190.89 803.28,-184.17 792.69,-184.32 795.09,-190.89"/>
</a>
</g>
</g>
</g>
</svg>
