<?xml version="1.0" encoding="UTF-8" standalone="no"?>
<!DOCTYPE svg PUBLIC "-//W3C//DTD SVG 1.1//EN"
 "http://www.w3.org/Graphics/SVG/1.1/DTD/svg11.dtd">
<!-- Generated by graphviz version 2.43.0 (0)
 -->
<!-- Title: DefaultPrimitives.h Pages: 1 -->
<svg width="397pt" height="522pt"
 viewBox="0.00 0.00 396.50 522.00" xmlns="http://www.w3.org/2000/svg" xmlns:xlink="http://www.w3.org/1999/xlink">
<g id="graph0" class="graph" transform="scale(1 1) rotate(0) translate(4 518)">
<title>DefaultPrimitives.h</title>
<!-- Node1 -->
<g id="Node000001" class="node">
<title>Node1</title>
<g id="a_Node000001"><a xlink:title="Defines string constants for Lisp primitive function names.">
<polygon fill="#999999" stroke="#666666" points="282,-514 171,-514 171,-495 282,-495 282,-514"/>
<text text-anchor="middle" x="226.5" y="-502" font-family="Helvetica,sans-Serif" font-size="10.00">DefaultPrimitives.h</text>
</a>
</g>
</g>
<!-- Node2 -->
<g id="Node000002" class="node">
<title>Node2</title>
<g id="a_Node000002"><a xlink:href="_gpio_register_8h.html" target="_top" xlink:title=" ">
<polygon fill="white" stroke="#666666" points="234.5,-459 146.5,-459 146.5,-440 234.5,-440 234.5,-459"/>
<text text-anchor="middle" x="190.5" y="-447" font-family="Helvetica,sans-Serif" font-size="10.00">GpioRegister.h</text>
</a>
</g>
</g>
<!-- Node1&#45;&gt;Node2 -->
<g id="edge1_Node000001_Node000002" class="edge">
<title>Node1&#45;&gt;Node2</title>
<g id="a_edge1_Node000001_Node000002"><a xlink:title=" ">
<path fill="none" stroke="#63b8ff" d="M214.88,-486.39C208.68,-477.27 201.33,-466.45 196.33,-459.09"/>
<polygon fill="#63b8ff" stroke="#63b8ff" points="212.04,-488.44 220.56,-494.75 217.83,-484.51 212.04,-488.44"/>
</a>
</g>
</g>
<!-- Node6 -->
<g id="Node000006" class="node">
<title>Node6</title>
<g id="a_Node000006"><a xlink:href="_lisp_primitives_8h.html" target="_top" xlink:title=" ">
<polygon fill="white" stroke="#666666" points="315,-239 220,-239 220,-220 315,-220 315,-239"/>
<text text-anchor="middle" x="267.5" y="-227" font-family="Helvetica,sans-Serif" font-size="10.00">LispPrimitives.h</text>
</a>
</g>
</g>
<!-- Node1&#45;&gt;Node6 -->
<g id="edge15_Node000001_Node000006" class="edge">
<title>Node1&#45;&gt;Node6</title>
<g id="a_edge15_Node000001_Node000006"><a xlink:title=" ">
<path fill="none" stroke="#63b8ff" d="M237.44,-486.38C249.59,-465.69 267.5,-429.43 267.5,-395.5 267.5,-395.5 267.5,-395.5 267.5,-338.5 267.5,-301.56 267.5,-257.52 267.5,-239.18"/>
<polygon fill="#63b8ff" stroke="#63b8ff" points="234.43,-484.6 232.2,-494.96 240.4,-488.25 234.43,-484.6"/>
</a>
</g>
</g>
<!-- Node3 -->
<g id="Node000003" class="node">
<title>Node3</title>
<g id="a_Node000003"><a xlink:href="_register_manager_8h.html" target="_top" xlink:title=" ">
<polygon fill="white" stroke="#666666" points="232.5,-404 124.5,-404 124.5,-385 232.5,-385 232.5,-404"/>
<text text-anchor="middle" x="178.5" y="-392" font-family="Helvetica,sans-Serif" font-size="10.00">RegisterManager.h</text>
</a>
</g>
</g>
<!-- Node2&#45;&gt;Node3 -->
<g id="edge2_Node000002_Node000003" class="edge">
<title>Node2&#45;&gt;Node3</title>
<g id="a_edge2_Node000002_Node000003"><a xlink:title=" ">
<path fill="none" stroke="#63b8ff" d="M186.3,-429.95C184.31,-421.15 182.02,-411.06 180.44,-404.09"/>
<polygon fill="#63b8ff" stroke="#63b8ff" points="182.9,-430.77 188.52,-439.75 189.72,-429.22 182.9,-430.77"/>
</a>
</g>
</g>
<!-- Node4 -->
<g id="Node000004" class="node">
<title>Node4</title>
<g id="a_Node000004"><a xlink:href="_register_manager_proxy_8h.html" target="_top" xlink:title=" ">
<polygon fill="white" stroke="#666666" points="239,-349 104,-349 104,-330 239,-330 239,-349"/>
<text text-anchor="middle" x="171.5" y="-337" font-family="Helvetica,sans-Serif" font-size="10.00">RegisterManagerProxy.h</text>
</a>
</g>
</g>
<!-- Node3&#45;&gt;Node4 -->
<g id="edge3_Node000003_Node000004" class="edge">
<title>Node3&#45;&gt;Node4</title>
<g id="a_edge3_Node000003_Node000004"><a xlink:title=" ">
<path fill="none" stroke="#63b8ff" d="M176.01,-374.66C174.86,-365.93 173.55,-355.99 172.63,-349.09"/>
<polygon fill="#63b8ff" stroke="#63b8ff" points="172.56,-375.29 177.34,-384.75 179.5,-374.38 172.56,-375.29"/>
</a>
</g>
</g>
<!-- Node5 -->
<g id="Node000005" class="node">
<title>Node5</title>
<g id="a_Node000005"><a xlink:href="_primitive_expeditor_8h.html" target="_top" xlink:title=" ">
<polygon fill="white" stroke="#666666" points="230.5,-294 114.5,-294 114.5,-275 230.5,-275 230.5,-294"/>
<text text-anchor="middle" x="172.5" y="-282" font-family="Helvetica,sans-Serif" font-size="10.00">PrimitiveExpeditor.h</text>
</a>
</g>
</g>
<!-- Node4&#45;&gt;Node5 -->
<g id="edge4_Node000004_Node000005" class="edge">
<title>Node4&#45;&gt;Node5</title>
<g id="a_edge4_Node000004_Node000005"><a xlink:title=" ">
<path fill="none" stroke="#63b8ff" d="M171.86,-319.66C172.02,-310.93 172.21,-300.99 172.34,-294.09"/>
<polygon fill="#63b8ff" stroke="#63b8ff" points="168.35,-319.68 171.67,-329.75 175.35,-319.82 168.35,-319.68"/>
</a>
</g>
</g>
<!-- Node5&#45;&gt;Node6 -->
<g id="edge5_Node000005_Node000006" class="edge">
<title>Node5&#45;&gt;Node6</title>
<g id="a_edge5_Node000005_Node000006"><a xlink:title=" ">
<path fill="none" stroke="#63b8ff" d="M196.76,-269.97C214.13,-260.28 236.99,-247.52 251.96,-239.17"/>
<polygon fill="#63b8ff" stroke="#63b8ff" points="194.79,-267.06 187.76,-274.98 198.2,-273.17 194.79,-267.06"/>
</a>
</g>
</g>
<!-- Node11 -->
<g id="Node000011" class="node">
<title>Node11</title>
<g id="a_Node000011"><a xlink:href="_primitive_expeditor_8cpp.html" target="_top" xlink:title=" ">
<polygon fill="white" stroke="#666666" points="127,-239 0,-239 0,-220 127,-220 127,-239"/>
<text text-anchor="middle" x="63.5" y="-227" font-family="Helvetica,sans-Serif" font-size="10.00">PrimitiveExpeditor.cpp</text>
</a>
</g>
</g>
<!-- Node5&#45;&gt;Node11 -->
<g id="edge10_Node000005_Node000011" class="edge">
<title>Node5&#45;&gt;Node11</title>
<g id="a_edge10_Node000005_Node000011"><a xlink:title=" ">
<path fill="none" stroke="#63b8ff" d="M145.77,-270.5C125.71,-260.75 98.82,-247.68 81.33,-239.17"/>
<polygon fill="#63b8ff" stroke="#63b8ff" points="144.46,-273.76 154.99,-274.98 147.52,-267.46 144.46,-273.76"/>
</a>
</g>
</g>
<!-- Node12 -->
<g id="Node000012" class="node">
<title>Node12</title>
<g id="a_Node000012"><a xlink:href="un_lisp_8h.html" target="_top" xlink:title=" ">
<polygon fill="white" stroke="#666666" points="202,-239 145,-239 145,-220 202,-220 202,-239"/>
<text text-anchor="middle" x="173.5" y="-227" font-family="Helvetica,sans-Serif" font-size="10.00">unLisp.h</text>
</a>
</g>
</g>
<!-- Node5&#45;&gt;Node12 -->
<g id="edge11_Node000005_Node000012" class="edge">
<title>Node5&#45;&gt;Node12</title>
<g id="a_edge11_Node000005_Node000012"><a xlink:title=" ">
<path fill="none" stroke="#63b8ff" d="M172.86,-264.66C173.02,-255.93 173.21,-245.99 173.34,-239.09"/>
<polygon fill="#63b8ff" stroke="#63b8ff" points="169.35,-264.68 172.67,-274.75 176.35,-264.82 169.35,-264.68"/>
</a>
</g>
</g>
<!-- Node7 -->
<g id="Node000007" class="node">
<title>Node7</title>
<g id="a_Node000007"><a xlink:href="_app_kit_8h.html" target="_top" xlink:title=" ">
<polygon fill="white" stroke="#666666" points="215.5,-129 157.5,-129 157.5,-110 215.5,-110 215.5,-129"/>
<text text-anchor="middle" x="186.5" y="-117" font-family="Helvetica,sans-Serif" font-size="10.00">AppKit.h</text>
</a>
</g>
</g>
<!-- Node6&#45;&gt;Node7 -->
<g id="edge6_Node000006_Node000007" class="edge">
<title>Node6&#45;&gt;Node7</title>
<g id="a_edge6_Node000006_Node000007"><a xlink:title=" ">
<path fill="none" stroke="#63b8ff" d="M260.06,-210.29C254.18,-197.04 245.2,-179.03 234.5,-165 223.75,-150.9 208.28,-137.46 197.83,-129.11"/>
<polygon fill="#63b8ff" stroke="#63b8ff" points="256.95,-211.91 264.09,-219.74 263.39,-209.16 256.95,-211.91"/>
</a>
</g>
</g>
<!-- Node10 -->
<g id="Node000010" class="node">
<title>Node10</title>
<g id="a_Node000010"><a xlink:href="_lisp_primitives_8cpp.html" target="_top" xlink:title=" ">
<polygon fill="white" stroke="#666666" points="388.5,-184 282.5,-184 282.5,-165 388.5,-165 388.5,-184"/>
<text text-anchor="middle" x="335.5" y="-172" font-family="Helvetica,sans-Serif" font-size="10.00">LispPrimitives.cpp</text>
</a>
</g>
</g>
<!-- Node6&#45;&gt;Node10 -->
<g id="edge9_Node000006_Node000010" class="edge">
<title>Node6&#45;&gt;Node10</title>
<g id="a_edge9_Node000006_Node000010"><a xlink:title=" ">
<path fill="none" stroke="#63b8ff" d="M286.62,-213.6C298.8,-204.11 314.16,-192.13 324.38,-184.17"/>
<polygon fill="#63b8ff" stroke="#63b8ff" points="284.16,-211.08 278.43,-219.98 288.46,-216.6 284.16,-211.08"/>
</a>
</g>
</g>
<!-- Node8 -->
<g id="Node000008" class="node">
<title>Node8</title>
<g id="a_Node000008"><a xlink:href="_uniot_8h.html" target="_top" xlink:title="Main API interface for the Uniot IoT platform.">
<polygon fill="white" stroke="#666666" points="212.5,-74 160.5,-74 160.5,-55 212.5,-55 212.5,-74"/>
<text text-anchor="middle" x="186.5" y="-62" font-family="Helvetica,sans-Serif" font-size="10.00">Uniot.h</text>
</a>
</g>
</g>
<!-- Node7&#45;&gt;Node8 -->
<g id="edge7_Node000007_Node000008" class="edge">
<title>Node7&#45;&gt;Node8</title>
<g id="a_edge7_Node000007_Node000008"><a xlink:title=" ">
<path fill="none" stroke="#63b8ff" d="M186.5,-99.66C186.5,-90.93 186.5,-80.99 186.5,-74.09"/>
<polygon fill="#63b8ff" stroke="#63b8ff" points="183,-99.75 186.5,-109.75 190,-99.75 183,-99.75"/>
</a>
</g>
</g>
<!-- Node9 -->
<g id="Node000009" class="node">
<title>Node9</title>
<g id="a_Node000009"><a xlink:href="_uniot_8cpp.html" target="_top" xlink:title=" ">
<polygon fill="white" stroke="#666666" points="218,-19 155,-19 155,0 218,0 218,-19"/>
<text text-anchor="middle" x="186.5" y="-7" font-family="Helvetica,sans-Serif" font-size="10.00">Uniot.cpp</text>
</a>
</g>
</g>
<!-- Node8&#45;&gt;Node9 -->
<g id="edge8_Node000008_Node000009" class="edge">
<title>Node8&#45;&gt;Node9</title>
<g id="a_edge8_Node000008_Node000009"><a xlink:title=" ">
<path fill="none" stroke="#63b8ff" d="M186.5,-44.66C186.5,-35.93 186.5,-25.99 186.5,-19.09"/>
<polygon fill="#63b8ff" stroke="#63b8ff" points="183,-44.75 186.5,-54.75 190,-44.75 183,-44.75"/>
</a>
</g>
</g>
<!-- Node12&#45;&gt;Node7 -->
<g id="edge12_Node000012_Node000007" class="edge">
<title>Node12&#45;&gt;Node7</title>
<g id="a_edge12_Node000012_Node000007"><a xlink:title=" ">
<path fill="none" stroke="#63b8ff" d="M155.06,-212.71C142.73,-200.13 130.02,-181.89 137.5,-165 144.38,-149.45 159.69,-137.01 171.37,-129.27"/>
<polygon fill="#63b8ff" stroke="#63b8ff" points="152.83,-215.42 162.51,-219.75 157.64,-210.33 152.83,-215.42"/>
</a>
</g>
</g>
<!-- Node13 -->
<g id="Node000013" class="node">
<title>Node13</title>
<g id="a_Node000013"><a xlink:href="_lisp_device_8h.html" target="_top" xlink:title=" ">
<polygon fill="white" stroke="#666666" points="226,-184 147,-184 147,-165 226,-165 226,-184"/>
<text text-anchor="middle" x="186.5" y="-172" font-family="Helvetica,sans-Serif" font-size="10.00">LispDevice.h</text>
</a>
</g>
</g>
<!-- Node12&#45;&gt;Node13 -->
<g id="edge13_Node000012_Node000013" class="edge">
<title>Node12&#45;&gt;Node13</title>
<g id="a_edge13_Node000012_Node000013"><a xlink:title=" ">
<path fill="none" stroke="#63b8ff" d="M178.05,-209.95C180.21,-201.15 182.68,-191.06 184.39,-184.09"/>
<polygon fill="#63b8ff" stroke="#63b8ff" points="174.63,-209.2 175.65,-219.75 181.43,-210.87 174.63,-209.2"/>
</a>
</g>
</g>
<!-- Node13&#45;&gt;Node7 -->
<g id="edge14_Node000013_Node000007" class="edge">
<title>Node13&#45;&gt;Node7</title>
<g id="a_edge14_Node000013_Node000007"><a xlink:title=" ">
<path fill="none" stroke="#63b8ff" d="M186.5,-154.66C186.5,-145.93 186.5,-135.99 186.5,-129.09"/>
<polygon fill="#63b8ff" stroke="#63b8ff" points="183,-154.75 186.5,-164.75 190,-154.75 183,-154.75"/>
</a>
</g>
</g>
</g>
</svg>
