<?xml version="1.0" encoding="UTF-8" standalone="no"?>
<!DOCTYPE svg PUBLIC "-//W3C//DTD SVG 1.1//EN"
 "http://www.w3.org/Graphics/SVG/1.1/DTD/svg11.dtd">
<!-- Generated by graphviz version 2.43.0 (0)
 -->
<!-- Title: ESP8266Task.h Pages: 1 -->
<svg width="524pt" height="412pt"
 viewBox="0.00 0.00 523.89 412.00" xmlns="http://www.w3.org/2000/svg" xmlns:xlink="http://www.w3.org/1999/xlink">
<g id="graph0" class="graph" transform="scale(1 1) rotate(0) translate(4 408)">
<title>ESP8266Task.h</title>
<!-- Node1 -->
<g id="Node000001" class="node">
<title>Node1</title>
<g id="a_Node000001"><a xlink:title=" ">
<polygon fill="#999999" stroke="#666666" points="264.89,-404 175.89,-404 175.89,-385 264.89,-385 264.89,-404"/>
<text text-anchor="middle" x="220.39" y="-392" font-family="Helvetica,sans-Serif" font-size="10.00">ESP8266Task.h</text>
</a>
</g>
</g>
<!-- Node2 -->
<g id="Node000002" class="node">
<title>Node2</title>
<g id="a_Node000002"><a xlink:href="_task_scheduler_8h.html" target="_top" xlink:title=" ">
<polygon fill="white" stroke="#666666" points="267.89,-349 172.89,-349 172.89,-330 267.89,-330 267.89,-349"/>
<text text-anchor="middle" x="220.39" y="-337" font-family="Helvetica,sans-Serif" font-size="10.00">TaskScheduler.h</text>
</a>
</g>
</g>
<!-- Node1&#45;&gt;Node2 -->
<g id="edge1_Node000001_Node000002" class="edge">
<title>Node1&#45;&gt;Node2</title>
<g id="a_edge1_Node000001_Node000002"><a xlink:title=" ">
<path fill="none" stroke="#63b8ff" d="M220.39,-374.66C220.39,-365.93 220.39,-355.99 220.39,-349.09"/>
<polygon fill="#63b8ff" stroke="#63b8ff" points="216.89,-374.75 220.39,-384.75 223.89,-374.75 216.89,-374.75"/>
</a>
</g>
</g>
<!-- Node3 -->
<g id="Node000003" class="node">
<title>Node3</title>
<g id="a_Node000003"><a xlink:href="_button_8h.html" target="_top" xlink:title=" ">
<polygon fill="white" stroke="#666666" points="127.39,-239 69.39,-239 69.39,-220 127.39,-220 127.39,-239"/>
<text text-anchor="middle" x="98.39" y="-227" font-family="Helvetica,sans-Serif" font-size="10.00">Button.h</text>
</a>
</g>
</g>
<!-- Node2&#45;&gt;Node3 -->
<g id="edge2_Node000002_Node000003" class="edge">
<title>Node2&#45;&gt;Node3</title>
<g id="a_edge2_Node000002_Node000003"><a xlink:title=" ">
<path fill="none" stroke="#63b8ff" d="M194.08,-324.83C180.03,-316.86 162.9,-306.02 149.39,-294 130.16,-276.9 112.49,-252.02 103.89,-239.06"/>
<polygon fill="#63b8ff" stroke="#63b8ff" points="192.78,-328.11 203.23,-329.87 196.16,-321.98 192.78,-328.11"/>
</a>
</g>
</g>
<!-- Node6 -->
<g id="Node000006" class="node">
<title>Node6</title>
<g id="a_Node000006"><a xlink:href="_uniot_8h.html" target="_top" xlink:title="Main API interface for the Uniot IoT platform.">
<polygon fill="white" stroke="#666666" points="180.39,-74 128.39,-74 128.39,-55 180.39,-55 180.39,-74"/>
<text text-anchor="middle" x="154.39" y="-62" font-family="Helvetica,sans-Serif" font-size="10.00">Uniot.h</text>
</a>
</g>
</g>
<!-- Node2&#45;&gt;Node6 -->
<g id="edge18_Node000002_Node000006" class="edge">
<title>Node2&#45;&gt;Node6</title>
<g id="a_edge18_Node000002_Node000006"><a xlink:title=" ">
<path fill="none" stroke="#63b8ff" d="M162.48,-334.6C97.3,-326.7 0.39,-302.79 0.39,-230.5 0.39,-230.5 0.39,-230.5 0.39,-173.5 0.39,-144.04 -1.16,-131.12 19.39,-110 48.46,-80.1 97.98,-70.29 128.28,-67.07"/>
<polygon fill="#63b8ff" stroke="#63b8ff" points="162.32,-338.1 172.65,-335.74 163.1,-331.15 162.32,-338.1"/>
</a>
</g>
</g>
<!-- Node10 -->
<g id="Node000010" class="node">
<title>Node10</title>
<g id="a_Node000010"><a xlink:href="_m_q_t_t_kit_8h.html" target="_top" xlink:title=" ">
<polygon fill="white" stroke="#666666" points="342.39,-184 274.39,-184 274.39,-165 342.39,-165 342.39,-184"/>
<text text-anchor="middle" x="308.39" y="-172" font-family="Helvetica,sans-Serif" font-size="10.00">MQTTKit.h</text>
</a>
</g>
</g>
<!-- Node2&#45;&gt;Node10 -->
<g id="edge10_Node000002_Node000010" class="edge">
<title>Node2&#45;&gt;Node10</title>
<g id="a_edge10_Node000002_Node000010"><a xlink:title=" ">
<path fill="none" stroke="#63b8ff" d="M248.91,-325.03C261.65,-317.61 275.71,-307.19 284.39,-294 307.79,-258.39 309.17,-204.74 308.73,-184.06"/>
<polygon fill="#63b8ff" stroke="#63b8ff" points="247.07,-322.05 239.97,-329.9 250.42,-328.19 247.07,-322.05"/>
</a>
</g>
</g>
<!-- Node12 -->
<g id="Node000012" class="node">
<title>Node12</title>
<g id="a_Node000012"><a xlink:href="_network_scheduler_8h.html" target="_top" xlink:title="Complete WiFi network management and configuration system.">
<polygon fill="white" stroke="#666666" points="268.39,-239 154.39,-239 154.39,-220 268.39,-220 268.39,-239"/>
<text text-anchor="middle" x="211.39" y="-227" font-family="Helvetica,sans-Serif" font-size="10.00">NetworkScheduler.h</text>
</a>
</g>
</g>
<!-- Node2&#45;&gt;Node12 -->
<g id="edge13_Node000002_Node000012" class="edge">
<title>Node2&#45;&gt;Node12</title>
<g id="a_edge13_Node000002_Node000012"><a xlink:title=" ">
<path fill="none" stroke="#63b8ff" d="M189.1,-325.24C176.21,-318.03 162.62,-307.73 155.39,-294 143.52,-271.51 173.27,-250.42 193.8,-239.1"/>
<polygon fill="#63b8ff" stroke="#63b8ff" points="187.77,-328.49 198.26,-329.95 190.97,-322.27 187.77,-328.49"/>
</a>
</g>
</g>
<!-- Node13 -->
<g id="Node000013" class="node">
<title>Node13</title>
<g id="a_Node000013"><a xlink:href="_top_device_8h.html" target="_top" xlink:title=" ">
<polygon fill="white" stroke="#666666" points="408.39,-294 332.39,-294 332.39,-275 408.39,-275 408.39,-294"/>
<text text-anchor="middle" x="370.39" y="-282" font-family="Helvetica,sans-Serif" font-size="10.00">TopDevice.h</text>
</a>
</g>
</g>
<!-- Node2&#45;&gt;Node13 -->
<g id="edge16_Node000002_Node000013" class="edge">
<title>Node2&#45;&gt;Node13</title>
<g id="a_edge16_Node000002_Node000013"><a xlink:title=" ">
<path fill="none" stroke="#63b8ff" d="M254.2,-326.55C282.06,-316.71 320.9,-302.98 345.85,-294.17"/>
<polygon fill="#63b8ff" stroke="#63b8ff" points="252.75,-323.35 244.49,-329.98 255.08,-329.95 252.75,-323.35"/>
</a>
</g>
</g>
<!-- Node14 -->
<g id="Node000014" class="node">
<title>Node14</title>
<g id="a_Node000014"><a xlink:href="_wi_fi_network_scan_8h.html" target="_top" xlink:title="Platform&#45;specific WiFi network scanning utilities.">
<polygon fill="white" stroke="#666666" points="275.89,-294 164.89,-294 164.89,-275 275.89,-275 275.89,-294"/>
<text text-anchor="middle" x="220.39" y="-282" font-family="Helvetica,sans-Serif" font-size="10.00">WiFiNetworkScan.h</text>
</a>
</g>
</g>
<!-- Node2&#45;&gt;Node14 -->
<g id="edge19_Node000002_Node000014" class="edge">
<title>Node2&#45;&gt;Node14</title>
<g id="a_edge19_Node000002_Node000014"><a xlink:title=" ">
<path fill="none" stroke="#63b8ff" d="M220.39,-319.66C220.39,-310.93 220.39,-300.99 220.39,-294.09"/>
<polygon fill="#63b8ff" stroke="#63b8ff" points="216.89,-319.75 220.39,-329.75 223.89,-319.75 216.89,-319.75"/>
</a>
</g>
</g>
<!-- Node15 -->
<g id="Node000015" class="node">
<title>Node15</title>
<g id="a_Node000015"><a xlink:href="un_lisp_8h.html" target="_top" xlink:title=" ">
<polygon fill="white" stroke="#666666" points="464.89,-239 407.89,-239 407.89,-220 464.89,-220 464.89,-239"/>
<text text-anchor="middle" x="436.39" y="-227" font-family="Helvetica,sans-Serif" font-size="10.00">unLisp.h</text>
</a>
</g>
</g>
<!-- Node2&#45;&gt;Node15 -->
<g id="edge21_Node000002_Node000015" class="edge">
<title>Node2&#45;&gt;Node15</title>
<g id="a_edge21_Node000002_Node000015"><a xlink:title=" ">
<path fill="none" stroke="#63b8ff" d="M278.16,-331.95C328.82,-325.07 397.42,-312.64 417.39,-294 432.86,-279.55 435.91,-253.07 436.39,-239.31"/>
<polygon fill="#63b8ff" stroke="#63b8ff" points="277.42,-328.51 267.96,-333.29 278.33,-335.45 277.42,-328.51"/>
</a>
</g>
</g>
<!-- Node4 -->
<g id="Node000004" class="node">
<title>Node4</title>
<g id="a_Node000004"><a xlink:href="_lisp_primitives_8h.html" target="_top" xlink:title=" ">
<polygon fill="white" stroke="#666666" points="123.89,-184 28.89,-184 28.89,-165 123.89,-165 123.89,-184"/>
<text text-anchor="middle" x="76.39" y="-172" font-family="Helvetica,sans-Serif" font-size="10.00">LispPrimitives.h</text>
</a>
</g>
</g>
<!-- Node3&#45;&gt;Node4 -->
<g id="edge3_Node000003_Node000004" class="edge">
<title>Node3&#45;&gt;Node4</title>
<g id="a_edge3_Node000003_Node000004"><a xlink:title=" ">
<path fill="none" stroke="#63b8ff" d="M90.81,-210.24C87.13,-201.37 82.88,-191.14 79.95,-184.09"/>
<polygon fill="#63b8ff" stroke="#63b8ff" points="87.69,-211.85 94.75,-219.75 94.15,-209.17 87.69,-211.85"/>
</a>
</g>
</g>
<!-- Node9 -->
<g id="Node000009" class="node">
<title>Node9</title>
<g id="a_Node000009"><a xlink:href="_network_controller_8h.html" target="_top" xlink:title="High&#45;level network management controller with user interface.">
<polygon fill="white" stroke="#666666" points="256.39,-184 142.39,-184 142.39,-165 256.39,-165 256.39,-184"/>
<text text-anchor="middle" x="199.39" y="-172" font-family="Helvetica,sans-Serif" font-size="10.00">NetworkController.h</text>
</a>
</g>
</g>
<!-- Node3&#45;&gt;Node9 -->
<g id="edge8_Node000003_Node000009" class="edge">
<title>Node3&#45;&gt;Node9</title>
<g id="a_edge8_Node000003_Node000009"><a xlink:title=" ">
<path fill="none" stroke="#63b8ff" d="M123.67,-215.23C142.19,-205.51 166.8,-192.6 182.86,-184.17"/>
<polygon fill="#63b8ff" stroke="#63b8ff" points="121.84,-212.24 114.61,-219.98 125.09,-218.44 121.84,-212.24"/>
</a>
</g>
</g>
<!-- Node5 -->
<g id="Node000005" class="node">
<title>Node5</title>
<g id="a_Node000005"><a xlink:href="_app_kit_8h.html" target="_top" xlink:title=" ">
<polygon fill="white" stroke="#666666" points="368.39,-129 310.39,-129 310.39,-110 368.39,-110 368.39,-129"/>
<text text-anchor="middle" x="339.39" y="-117" font-family="Helvetica,sans-Serif" font-size="10.00">AppKit.h</text>
</a>
</g>
</g>
<!-- Node4&#45;&gt;Node5 -->
<g id="edge4_Node000004_Node000005" class="edge">
<title>Node4&#45;&gt;Node5</title>
<g id="a_edge4_Node000004_Node000005"><a xlink:title=" ">
<path fill="none" stroke="#63b8ff" d="M130.56,-163.03C175.96,-154.18 242.47,-141.06 300.39,-129 303.51,-128.35 306.76,-127.66 310.01,-126.96"/>
<polygon fill="#63b8ff" stroke="#63b8ff" points="129.78,-159.61 120.64,-164.96 131.12,-166.49 129.78,-159.61"/>
</a>
</g>
</g>
<!-- Node8 -->
<g id="Node000008" class="node">
<title>Node8</title>
<g id="a_Node000008"><a xlink:href="_lisp_primitives_8cpp.html" target="_top" xlink:title=" ">
<polygon fill="white" stroke="#666666" points="134.39,-129 28.39,-129 28.39,-110 134.39,-110 134.39,-129"/>
<text text-anchor="middle" x="81.39" y="-117" font-family="Helvetica,sans-Serif" font-size="10.00">LispPrimitives.cpp</text>
</a>
</g>
</g>
<!-- Node4&#45;&gt;Node8 -->
<g id="edge7_Node000004_Node000008" class="edge">
<title>Node4&#45;&gt;Node8</title>
<g id="a_edge7_Node000004_Node000008"><a xlink:title=" ">
<path fill="none" stroke="#63b8ff" d="M78.16,-154.66C78.99,-145.93 79.92,-135.99 80.57,-129.09"/>
<polygon fill="#63b8ff" stroke="#63b8ff" points="74.67,-154.46 77.21,-164.75 81.63,-155.12 74.67,-154.46"/>
</a>
</g>
</g>
<!-- Node5&#45;&gt;Node6 -->
<g id="edge5_Node000005_Node000006" class="edge">
<title>Node5&#45;&gt;Node6</title>
<g id="a_edge5_Node000005_Node000006"><a xlink:title=" ">
<path fill="none" stroke="#63b8ff" d="M300.38,-107.32C264.35,-97 211.82,-81.95 180.57,-73"/>
<polygon fill="#63b8ff" stroke="#63b8ff" points="299.49,-110.71 310.07,-110.1 301.42,-103.98 299.49,-110.71"/>
</a>
</g>
</g>
<!-- Node7 -->
<g id="Node000007" class="node">
<title>Node7</title>
<g id="a_Node000007"><a xlink:href="_uniot_8cpp.html" target="_top" xlink:title=" ">
<polygon fill="white" stroke="#666666" points="185.89,-19 122.89,-19 122.89,0 185.89,0 185.89,-19"/>
<text text-anchor="middle" x="154.39" y="-7" font-family="Helvetica,sans-Serif" font-size="10.00">Uniot.cpp</text>
</a>
</g>
</g>
<!-- Node6&#45;&gt;Node7 -->
<g id="edge6_Node000006_Node000007" class="edge">
<title>Node6&#45;&gt;Node7</title>
<g id="a_edge6_Node000006_Node000007"><a xlink:title=" ">
<path fill="none" stroke="#63b8ff" d="M154.39,-44.66C154.39,-35.93 154.39,-25.99 154.39,-19.09"/>
<polygon fill="#63b8ff" stroke="#63b8ff" points="150.89,-44.75 154.39,-54.75 157.89,-44.75 150.89,-44.75"/>
</a>
</g>
</g>
<!-- Node9&#45;&gt;Node5 -->
<g id="edge9_Node000009_Node000005" class="edge">
<title>Node9&#45;&gt;Node5</title>
<g id="a_edge9_Node000009_Node000005"><a xlink:title=" ">
<path fill="none" stroke="#63b8ff" d="M231.29,-161.42C257.27,-151.59 293.3,-137.95 316.48,-129.17"/>
<polygon fill="#63b8ff" stroke="#63b8ff" points="229.99,-158.17 221.88,-164.98 232.47,-164.72 229.99,-158.17"/>
</a>
</g>
</g>
<!-- Node10&#45;&gt;Node5 -->
<g id="edge11_Node000010_Node000005" class="edge">
<title>Node10&#45;&gt;Node5</title>
<g id="a_edge11_Node000010_Node000005"><a xlink:title=" ">
<path fill="none" stroke="#63b8ff" d="M318.56,-156.1C323.86,-147.04 330.1,-136.37 334.36,-129.09"/>
<polygon fill="#63b8ff" stroke="#63b8ff" points="315.53,-154.35 313.5,-164.75 321.57,-157.88 315.53,-154.35"/>
</a>
</g>
</g>
<!-- Node11 -->
<g id="Node000011" class="node">
<title>Node11</title>
<g id="a_Node000011"><a xlink:href="_m_q_t_t_device_8cpp.html" target="_top" xlink:title=" ">
<polygon fill="white" stroke="#666666" points="291.89,-129 192.89,-129 192.89,-110 291.89,-110 291.89,-129"/>
<text text-anchor="middle" x="242.39" y="-117" font-family="Helvetica,sans-Serif" font-size="10.00">MQTTDevice.cpp</text>
</a>
</g>
</g>
<!-- Node10&#45;&gt;Node11 -->
<g id="edge12_Node000010_Node000011" class="edge">
<title>Node10&#45;&gt;Node11</title>
<g id="a_edge12_Node000010_Node000011"><a xlink:title=" ">
<path fill="none" stroke="#63b8ff" d="M289.83,-158.6C278.01,-149.11 263.1,-137.13 253.18,-129.17"/>
<polygon fill="#63b8ff" stroke="#63b8ff" points="287.79,-161.45 297.78,-164.98 292.18,-155.99 287.79,-161.45"/>
</a>
</g>
</g>
<!-- Node12&#45;&gt;Node9 -->
<g id="edge15_Node000012_Node000009" class="edge">
<title>Node12&#45;&gt;Node9</title>
<g id="a_edge15_Node000012_Node000009"><a xlink:title=" ">
<path fill="none" stroke="#63b8ff" d="M207.19,-209.95C205.19,-201.15 202.91,-191.06 201.33,-184.09"/>
<polygon fill="#63b8ff" stroke="#63b8ff" points="203.78,-210.77 209.4,-219.75 210.61,-209.22 203.78,-210.77"/>
</a>
</g>
</g>
<!-- Node12&#45;&gt;Node10 -->
<g id="edge14_Node000012_Node000010" class="edge">
<title>Node12&#45;&gt;Node10</title>
<g id="a_edge14_Node000012_Node000010"><a xlink:title=" ">
<path fill="none" stroke="#63b8ff" d="M236.16,-214.97C253.89,-205.28 277.23,-192.52 292.52,-184.17"/>
<polygon fill="#63b8ff" stroke="#63b8ff" points="234.07,-212.12 226.97,-219.98 237.42,-218.26 234.07,-212.12"/>
</a>
</g>
</g>
<!-- Node13&#45;&gt;Node5 -->
<g id="edge17_Node000013_Node000005" class="edge">
<title>Node13&#45;&gt;Node5</title>
<g id="a_edge17_Node000013_Node000005"><a xlink:title=" ">
<path fill="none" stroke="#63b8ff" d="M368.01,-264.86C364.88,-241.43 358.89,-200.02 351.39,-165 348.7,-152.48 344.68,-138.23 342.05,-129.3"/>
<polygon fill="#63b8ff" stroke="#63b8ff" points="364.54,-265.36 369.31,-274.82 371.49,-264.45 364.54,-265.36"/>
</a>
</g>
</g>
<!-- Node14&#45;&gt;Node12 -->
<g id="edge20_Node000014_Node000012" class="edge">
<title>Node14&#45;&gt;Node12</title>
<g id="a_edge20_Node000014_Node000012"><a xlink:title=" ">
<path fill="none" stroke="#63b8ff" d="M217.19,-264.66C215.7,-255.93 214.01,-245.99 212.84,-239.09"/>
<polygon fill="#63b8ff" stroke="#63b8ff" points="213.77,-265.48 218.9,-274.75 220.68,-264.3 213.77,-265.48"/>
</a>
</g>
</g>
<!-- Node15&#45;&gt;Node5 -->
<g id="edge22_Node000015_Node000005" class="edge">
<title>Node15&#45;&gt;Node5</title>
<g id="a_edge22_Node000015_Node000005"><a xlink:title=" ">
<path fill="none" stroke="#63b8ff" d="M423.3,-211.55C413.05,-198.53 398.26,-180.24 384.39,-165 372.55,-152 357.93,-137.87 348.63,-129.1"/>
<polygon fill="#63b8ff" stroke="#63b8ff" points="420.69,-213.9 429.6,-219.63 426.21,-209.59 420.69,-213.9"/>
</a>
</g>
</g>
<!-- Node16 -->
<g id="Node000016" class="node">
<title>Node16</title>
<g id="a_Node000016"><a xlink:href="_lisp_device_8h.html" target="_top" xlink:title=" ">
<polygon fill="white" stroke="#666666" points="515.89,-184 436.89,-184 436.89,-165 515.89,-165 515.89,-184"/>
<text text-anchor="middle" x="476.39" y="-172" font-family="Helvetica,sans-Serif" font-size="10.00">LispDevice.h</text>
</a>
</g>
</g>
<!-- Node15&#45;&gt;Node16 -->
<g id="edge23_Node000015_Node000016" class="edge">
<title>Node15&#45;&gt;Node16</title>
<g id="a_edge23_Node000015_Node000016"><a xlink:title=" ">
<path fill="none" stroke="#63b8ff" d="M449.08,-211.67C456.01,-202.5 464.29,-191.52 469.9,-184.09"/>
<polygon fill="#63b8ff" stroke="#63b8ff" points="446.22,-209.66 442.99,-219.75 451.81,-213.87 446.22,-209.66"/>
</a>
</g>
</g>
<!-- Node16&#45;&gt;Node5 -->
<g id="edge24_Node000016_Node000005" class="edge">
<title>Node16&#45;&gt;Node5</title>
<g id="a_edge24_Node000016_Node000005"><a xlink:title=" ">
<path fill="none" stroke="#63b8ff" d="M444.82,-161.29C419.43,-151.47 384.38,-137.91 361.8,-129.17"/>
<polygon fill="#63b8ff" stroke="#63b8ff" points="443.78,-164.64 454.37,-164.98 446.31,-158.11 443.78,-164.64"/>
</a>
</g>
</g>
</g>
</svg>
