<?xml version="1.0" encoding="UTF-8" standalone="no"?>
<!DOCTYPE svg PUBLIC "-//W3C//DTD SVG 1.1//EN"
 "http://www.w3.org/Graphics/SVG/1.1/DTD/svg11.dtd">
<!-- Generated by graphviz version 2.43.0 (0)
 -->
<!-- Title: EventListener.h Pages: 1 -->
<svg width="696pt" height="302pt"
 viewBox="0.00 0.00 696.12 302.00" xmlns="http://www.w3.org/2000/svg" xmlns:xlink="http://www.w3.org/1999/xlink">
<g id="graph0" class="graph" transform="scale(1 1) rotate(0) translate(4 298)">
<title>EventListener.h</title>
<!-- Node1 -->
<g id="Node000001" class="node">
<title>Node1</title>
<g id="a_Node000001"><a xlink:title=" ">
<polygon fill="#999999" stroke="#666666" points="313.13,-294 221.13,-294 221.13,-275 313.13,-275 313.13,-294"/>
<text text-anchor="middle" x="267.13" y="-282" font-family="Helvetica,sans-Serif" font-size="10.00">EventListener.h</text>
</a>
</g>
</g>
<!-- Node2 -->
<g id="Node000002" class="node">
<title>Node2</title>
<g id="a_Node000002"><a xlink:href="_callback_event_listener_8h.html" target="_top" xlink:title=" ">
<polygon fill="white" stroke="#666666" points="512.13,-239 378.13,-239 378.13,-220 512.13,-220 512.13,-239"/>
<text text-anchor="middle" x="445.13" y="-227" font-family="Helvetica,sans-Serif" font-size="10.00">CallbackEventListener.h</text>
</a>
</g>
</g>
<!-- Node1&#45;&gt;Node2 -->
<g id="edge1_Node000001_Node000002" class="edge">
<title>Node1&#45;&gt;Node2</title>
<g id="a_edge1_Node000001_Node000002"><a xlink:title=" ">
<path fill="none" stroke="#63b8ff" d="M305.57,-272.06C338.83,-262.15 386.21,-248.04 416.31,-239.08"/>
<polygon fill="#63b8ff" stroke="#63b8ff" points="304.31,-268.78 295.73,-274.98 306.31,-275.49 304.31,-268.78"/>
</a>
</g>
</g>
<!-- Node7 -->
<g id="Node000007" class="node">
<title>Node7</title>
<g id="a_Node000007"><a xlink:href="_event_bus_8cpp.html" target="_top" xlink:title=" ">
<polygon fill="white" stroke="#666666" points="99.63,-239 16.63,-239 16.63,-220 99.63,-220 99.63,-239"/>
<text text-anchor="middle" x="58.13" y="-227" font-family="Helvetica,sans-Serif" font-size="10.00">EventBus.cpp</text>
</a>
</g>
</g>
<!-- Node1&#45;&gt;Node7 -->
<g id="edge6_Node000001_Node000007" class="edge">
<title>Node1&#45;&gt;Node7</title>
<g id="a_edge6_Node000001_Node000007"><a xlink:title=" ">
<path fill="none" stroke="#63b8ff" d="M223.76,-272.5C184.62,-262.58 127.85,-248.18 91.97,-239.08"/>
<polygon fill="#63b8ff" stroke="#63b8ff" points="223,-275.92 233.55,-274.98 224.72,-269.13 223,-275.92"/>
</a>
</g>
</g>
<!-- Node8 -->
<g id="Node000008" class="node">
<title>Node8</title>
<g id="a_Node000008"><a xlink:href="_event_listener_8cpp.html" target="_top" xlink:title=" ">
<polygon fill="white" stroke="#666666" points="220.63,-239 117.63,-239 117.63,-220 220.63,-220 220.63,-239"/>
<text text-anchor="middle" x="169.13" y="-227" font-family="Helvetica,sans-Serif" font-size="10.00">EventListener.cpp</text>
</a>
</g>
</g>
<!-- Node1&#45;&gt;Node8 -->
<g id="edge7_Node000001_Node000008" class="edge">
<title>Node1&#45;&gt;Node8</title>
<g id="a_edge7_Node000001_Node000008"><a xlink:title=" ">
<path fill="none" stroke="#63b8ff" d="M242.1,-269.97C224.19,-260.28 200.6,-247.52 185.16,-239.17"/>
<polygon fill="#63b8ff" stroke="#63b8ff" points="240.92,-273.31 251.39,-274.98 244.25,-267.15 240.92,-273.31"/>
</a>
</g>
</g>
<!-- Node9 -->
<g id="Node000009" class="node">
<title>Node9</title>
<g id="a_Node000009"><a xlink:href="_lisp_device_8h.html" target="_top" xlink:title=" ">
<polygon fill="white" stroke="#666666" points="183.63,-184 104.63,-184 104.63,-165 183.63,-165 183.63,-184"/>
<text text-anchor="middle" x="144.13" y="-172" font-family="Helvetica,sans-Serif" font-size="10.00">LispDevice.h</text>
</a>
</g>
</g>
<!-- Node1&#45;&gt;Node9 -->
<g id="edge8_Node000001_Node000009" class="edge">
<title>Node1&#45;&gt;Node9</title>
<g id="a_edge8_Node000001_Node000009"><a xlink:title=" ">
<path fill="none" stroke="#63b8ff" d="M210.77,-282.04C142.27,-278.94 32.65,-269.26 7.13,-239 -22.78,-203.53 54.16,-186.75 104.5,-179.78"/>
<polygon fill="#63b8ff" stroke="#63b8ff" points="210.84,-285.55 220.97,-282.47 211.13,-278.55 210.84,-285.55"/>
</a>
</g>
</g>
<!-- Node10 -->
<g id="Node000010" class="node">
<title>Node10</title>
<g id="a_Node000010"><a xlink:href="_m_q_t_t_kit_8h.html" target="_top" xlink:title=" ">
<polygon fill="white" stroke="#666666" points="658.13,-239 590.13,-239 590.13,-220 658.13,-220 658.13,-239"/>
<text text-anchor="middle" x="624.13" y="-227" font-family="Helvetica,sans-Serif" font-size="10.00">MQTTKit.h</text>
</a>
</g>
</g>
<!-- Node1&#45;&gt;Node10 -->
<g id="edge10_Node000001_Node000010" class="edge">
<title>Node1&#45;&gt;Node10</title>
<g id="a_edge10_Node000001_Node000010"><a xlink:title=" ">
<path fill="none" stroke="#63b8ff" d="M323.63,-275.11C398.53,-263.99 528.4,-244.71 589.92,-235.58"/>
<polygon fill="#63b8ff" stroke="#63b8ff" points="322.81,-271.69 313.44,-276.63 323.84,-278.62 322.81,-271.69"/>
</a>
</g>
</g>
<!-- Node12 -->
<g id="Node000012" class="node">
<title>Node12</title>
<g id="a_Node000012"><a xlink:href="_network_controller_8h.html" target="_top" xlink:title="High&#45;level network management controller with user interface.">
<polygon fill="white" stroke="#666666" points="354.13,-184 240.13,-184 240.13,-165 354.13,-165 354.13,-184"/>
<text text-anchor="middle" x="297.13" y="-172" font-family="Helvetica,sans-Serif" font-size="10.00">NetworkController.h</text>
</a>
</g>
</g>
<!-- Node1&#45;&gt;Node12 -->
<g id="edge13_Node000001_Node000012" class="edge">
<title>Node1&#45;&gt;Node12</title>
<g id="a_edge13_Node000001_Node000012"><a xlink:title=" ">
<path fill="none" stroke="#63b8ff" d="M285.24,-267.95C292.94,-260.14 301.07,-250.01 305.13,-239 312.05,-220.24 305.29,-196.47 300.66,-184.01"/>
<polygon fill="#63b8ff" stroke="#63b8ff" points="282.71,-265.52 277.84,-274.93 287.52,-270.61 282.71,-265.52"/>
</a>
</g>
</g>
<!-- Node13 -->
<g id="Node000013" class="node">
<title>Node13</title>
<g id="a_Node000013"><a xlink:href="un_lisp_8h.html" target="_top" xlink:title=" ">
<polygon fill="white" stroke="#666666" points="295.63,-239 238.63,-239 238.63,-220 295.63,-220 295.63,-239"/>
<text text-anchor="middle" x="267.13" y="-227" font-family="Helvetica,sans-Serif" font-size="10.00">unLisp.h</text>
</a>
</g>
</g>
<!-- Node1&#45;&gt;Node13 -->
<g id="edge15_Node000001_Node000013" class="edge">
<title>Node1&#45;&gt;Node13</title>
<g id="a_edge15_Node000001_Node000013"><a xlink:title=" ">
<path fill="none" stroke="#63b8ff" d="M267.13,-264.66C267.13,-255.93 267.13,-245.99 267.13,-239.09"/>
<polygon fill="#63b8ff" stroke="#63b8ff" points="263.63,-264.75 267.13,-274.75 270.63,-264.75 263.63,-264.75"/>
</a>
</g>
</g>
<!-- Node3 -->
<g id="Node000003" class="node">
<title>Node3</title>
<g id="a_Node000003"><a xlink:href="_app_kit_8h.html" target="_top" xlink:title=" ">
<polygon fill="white" stroke="#666666" points="326.13,-129 268.13,-129 268.13,-110 326.13,-110 326.13,-129"/>
<text text-anchor="middle" x="297.13" y="-117" font-family="Helvetica,sans-Serif" font-size="10.00">AppKit.h</text>
</a>
</g>
</g>
<!-- Node2&#45;&gt;Node3 -->
<g id="edge2_Node000002_Node000003" class="edge">
<title>Node2&#45;&gt;Node3</title>
<g id="a_edge2_Node000002_Node000003"><a xlink:title=" ">
<path fill="none" stroke="#63b8ff" d="M482.68,-216.29C511.87,-204.83 544.68,-186.28 527.13,-165 501.96,-134.49 382.27,-124.65 326.22,-121.69"/>
<polygon fill="#63b8ff" stroke="#63b8ff" points="481.15,-213.13 473,-219.91 483.59,-219.69 481.15,-213.13"/>
</a>
</g>
</g>
<!-- Node6 -->
<g id="Node000006" class="node">
<title>Node6</title>
<g id="a_Node000006"><a xlink:href="_callback_event_listener_8cpp.html" target="_top" xlink:title=" ">
<polygon fill="white" stroke="#666666" points="517.63,-184 372.63,-184 372.63,-165 517.63,-165 517.63,-184"/>
<text text-anchor="middle" x="445.13" y="-172" font-family="Helvetica,sans-Serif" font-size="10.00">CallbackEventListener.cpp</text>
</a>
</g>
</g>
<!-- Node2&#45;&gt;Node6 -->
<g id="edge5_Node000002_Node000006" class="edge">
<title>Node2&#45;&gt;Node6</title>
<g id="a_edge5_Node000002_Node000006"><a xlink:title=" ">
<path fill="none" stroke="#63b8ff" d="M445.13,-209.66C445.13,-200.93 445.13,-190.99 445.13,-184.09"/>
<polygon fill="#63b8ff" stroke="#63b8ff" points="441.63,-209.75 445.13,-219.75 448.63,-209.75 441.63,-209.75"/>
</a>
</g>
</g>
<!-- Node4 -->
<g id="Node000004" class="node">
<title>Node4</title>
<g id="a_Node000004"><a xlink:href="_uniot_8h.html" target="_top" xlink:title="Main API interface for the Uniot IoT platform.">
<polygon fill="white" stroke="#666666" points="323.13,-74 271.13,-74 271.13,-55 323.13,-55 323.13,-74"/>
<text text-anchor="middle" x="297.13" y="-62" font-family="Helvetica,sans-Serif" font-size="10.00">Uniot.h</text>
</a>
</g>
</g>
<!-- Node3&#45;&gt;Node4 -->
<g id="edge3_Node000003_Node000004" class="edge">
<title>Node3&#45;&gt;Node4</title>
<g id="a_edge3_Node000003_Node000004"><a xlink:title=" ">
<path fill="none" stroke="#63b8ff" d="M297.13,-99.66C297.13,-90.93 297.13,-80.99 297.13,-74.09"/>
<polygon fill="#63b8ff" stroke="#63b8ff" points="293.63,-99.75 297.13,-109.75 300.63,-99.75 293.63,-99.75"/>
</a>
</g>
</g>
<!-- Node5 -->
<g id="Node000005" class="node">
<title>Node5</title>
<g id="a_Node000005"><a xlink:href="_uniot_8cpp.html" target="_top" xlink:title=" ">
<polygon fill="white" stroke="#666666" points="328.63,-19 265.63,-19 265.63,0 328.63,0 328.63,-19"/>
<text text-anchor="middle" x="297.13" y="-7" font-family="Helvetica,sans-Serif" font-size="10.00">Uniot.cpp</text>
</a>
</g>
</g>
<!-- Node4&#45;&gt;Node5 -->
<g id="edge4_Node000004_Node000005" class="edge">
<title>Node4&#45;&gt;Node5</title>
<g id="a_edge4_Node000004_Node000005"><a xlink:title=" ">
<path fill="none" stroke="#63b8ff" d="M297.13,-44.66C297.13,-35.93 297.13,-25.99 297.13,-19.09"/>
<polygon fill="#63b8ff" stroke="#63b8ff" points="293.63,-44.75 297.13,-54.75 300.63,-44.75 293.63,-44.75"/>
</a>
</g>
</g>
<!-- Node9&#45;&gt;Node3 -->
<g id="edge9_Node000009_Node000003" class="edge">
<title>Node9&#45;&gt;Node3</title>
<g id="a_edge9_Node000009_Node000003"><a xlink:title=" ">
<path fill="none" stroke="#63b8ff" d="M178.28,-161.67C206.81,-151.79 246.82,-137.93 272.36,-129.08"/>
<polygon fill="#63b8ff" stroke="#63b8ff" points="177.02,-158.4 168.71,-164.98 179.31,-165.02 177.02,-158.4"/>
</a>
</g>
</g>
<!-- Node10&#45;&gt;Node3 -->
<g id="edge11_Node000010_Node000003" class="edge">
<title>Node10&#45;&gt;Node3</title>
<g id="a_edge11_Node000010_Node000003"><a xlink:title=" ">
<path fill="none" stroke="#63b8ff" d="M651.07,-215.13C673.28,-202.38 698.8,-182.57 683.13,-165 659.43,-138.41 412,-125.4 326.22,-121.67"/>
<polygon fill="#63b8ff" stroke="#63b8ff" points="649.29,-212.11 642.19,-219.98 652.64,-218.26 649.29,-212.11"/>
</a>
</g>
</g>
<!-- Node11 -->
<g id="Node000011" class="node">
<title>Node11</title>
<g id="a_Node000011"><a xlink:href="_m_q_t_t_device_8cpp.html" target="_top" xlink:title=" ">
<polygon fill="white" stroke="#666666" points="673.63,-184 574.63,-184 574.63,-165 673.63,-165 673.63,-184"/>
<text text-anchor="middle" x="624.13" y="-172" font-family="Helvetica,sans-Serif" font-size="10.00">MQTTDevice.cpp</text>
</a>
</g>
</g>
<!-- Node10&#45;&gt;Node11 -->
<g id="edge12_Node000010_Node000011" class="edge">
<title>Node10&#45;&gt;Node11</title>
<g id="a_edge12_Node000010_Node000011"><a xlink:title=" ">
<path fill="none" stroke="#63b8ff" d="M624.13,-209.66C624.13,-200.93 624.13,-190.99 624.13,-184.09"/>
<polygon fill="#63b8ff" stroke="#63b8ff" points="620.63,-209.75 624.13,-219.75 627.63,-209.75 620.63,-209.75"/>
</a>
</g>
</g>
<!-- Node12&#45;&gt;Node3 -->
<g id="edge14_Node000012_Node000003" class="edge">
<title>Node12&#45;&gt;Node3</title>
<g id="a_edge14_Node000012_Node000003"><a xlink:title=" ">
<path fill="none" stroke="#63b8ff" d="M297.13,-154.66C297.13,-145.93 297.13,-135.99 297.13,-129.09"/>
<polygon fill="#63b8ff" stroke="#63b8ff" points="293.63,-154.75 297.13,-164.75 300.63,-154.75 293.63,-154.75"/>
</a>
</g>
</g>
<!-- Node13&#45;&gt;Node3 -->
<g id="edge16_Node000013_Node000003" class="edge">
<title>Node13&#45;&gt;Node3</title>
<g id="a_edge16_Node000013_Node000003"><a xlink:title=" ">
<path fill="none" stroke="#63b8ff" d="M248.82,-213.18C235.88,-200.4 222.28,-181.65 231.13,-165 240.22,-147.92 259.1,-136.21 274.35,-129.11"/>
<polygon fill="#63b8ff" stroke="#63b8ff" points="246.46,-215.76 256.19,-219.95 251.2,-210.61 246.46,-215.76"/>
</a>
</g>
</g>
<!-- Node13&#45;&gt;Node9 -->
<g id="edge17_Node000013_Node000009" class="edge">
<title>Node13&#45;&gt;Node9</title>
<g id="a_edge17_Node000013_Node000009"><a xlink:title=" ">
<path fill="none" stroke="#63b8ff" d="M237.88,-215.9C215.17,-206.11 184.26,-192.79 164.25,-184.17"/>
<polygon fill="#63b8ff" stroke="#63b8ff" points="236.8,-219.24 247.37,-219.98 239.57,-212.81 236.8,-219.24"/>
</a>
</g>
</g>
</g>
</svg>
