<?xml version="1.0" encoding="UTF-8" standalone="no"?>
<!DOCTYPE svg PUBLIC "-//W3C//DTD SVG 1.1//EN"
 "http://www.w3.org/Graphics/SVG/1.1/DTD/svg11.dtd">
<!-- Generated by graphviz version 2.43.0 (0)
 -->
<!-- Title: EventBus.cpp Pages: 1 -->
<svg width="782pt" height="357pt"
 viewBox="0.00 0.00 782.01 357.00" xmlns="http://www.w3.org/2000/svg" xmlns:xlink="http://www.w3.org/1999/xlink">
<g id="graph0" class="graph" transform="scale(1 1) rotate(0) translate(4 353)">
<title>EventBus.cpp</title>
<!-- Node1 -->
<g id="Node000001" class="node">
<title>Node1</title>
<g id="a_Node000001"><a xlink:title=" ">
<polygon fill="#999999" stroke="#666666" points="233.5,-349 150.5,-349 150.5,-330 233.5,-330 233.5,-349"/>
<text text-anchor="middle" x="192" y="-337" font-family="Helvetica,sans-Serif" font-size="10.00">EventBus.cpp</text>
</a>
</g>
</g>
<!-- Node2 -->
<g id="Node000002" class="node">
<title>Node2</title>
<g id="a_Node000002"><a xlink:href="_event_bus_8h.html" target="_top" xlink:title=" ">
<polygon fill="white" stroke="#666666" points="565.5,-294 494.5,-294 494.5,-275 565.5,-275 565.5,-294"/>
<text text-anchor="middle" x="530" y="-282" font-family="Helvetica,sans-Serif" font-size="10.00">EventBus.h</text>
</a>
</g>
</g>
<!-- Node1&#45;&gt;Node2 -->
<g id="edge1_Node000001_Node000002" class="edge">
<title>Node1&#45;&gt;Node2</title>
<g id="a_edge1_Node000001_Node000002"><a xlink:title=" ">
<path fill="none" stroke="#63b8ff" d="M233.78,-331.95C297.49,-321.96 418.45,-302.99 484.38,-292.65"/>
<polygon fill="#63b8ff" stroke="#63b8ff" points="485.13,-296.08 494.47,-291.07 484.05,-289.16 485.13,-296.08"/>
</a>
</g>
</g>
<!-- Node8 -->
<g id="Node000008" class="node">
<title>Node8</title>
<g id="a_Node000008"><a xlink:title=" ">
<polygon fill="#e0e0e0" stroke="#999999" points="164.5,-19 101.5,-19 101.5,0 164.5,0 164.5,-19"/>
<text text-anchor="middle" x="133" y="-7" font-family="Helvetica,sans-Serif" font-size="10.00">Arduino.h</text>
</a>
</g>
</g>
<!-- Node1&#45;&gt;Node8 -->
<g id="edge26_Node000001_Node000008" class="edge">
<title>Node1&#45;&gt;Node8</title>
<g id="a_edge26_Node000001_Node000008"><a xlink:title=" ">
<path fill="none" stroke="#63b8ff" d="M150.34,-333.65C93.87,-324.48 0,-298.96 0,-230.5 0,-230.5 0,-230.5 0,-118.5 0,-68.87 56.5,-38.05 95.85,-22.61"/>
<polygon fill="#63b8ff" stroke="#63b8ff" points="97.31,-25.8 105.44,-19.02 94.85,-19.25 97.31,-25.8"/>
</a>
</g>
</g>
<!-- Node20 -->
<g id="Node000020" class="node">
<title>Node20</title>
<g id="a_Node000020"><a xlink:href="_event_emitter_8h.html" target="_top" xlink:title=" ">
<polygon fill="white" stroke="#666666" points="237.5,-239 148.5,-239 148.5,-220 237.5,-220 237.5,-239"/>
<text text-anchor="middle" x="193" y="-227" font-family="Helvetica,sans-Serif" font-size="10.00">EventEmitter.h</text>
</a>
</g>
</g>
<!-- Node1&#45;&gt;Node20 -->
<g id="edge27_Node000001_Node000020" class="edge">
<title>Node1&#45;&gt;Node20</title>
<g id="a_edge27_Node000001_Node000020"><a xlink:title=" ">
<path fill="none" stroke="#63b8ff" d="M192.08,-329.66C192.24,-312.17 192.61,-272.8 192.83,-249.27"/>
<polygon fill="#63b8ff" stroke="#63b8ff" points="196.33,-249.19 192.92,-239.16 189.33,-249.13 196.33,-249.19"/>
</a>
</g>
</g>
<!-- Node21 -->
<g id="Node000021" class="node">
<title>Node21</title>
<g id="a_Node000021"><a xlink:href="_event_entity_8h.html" target="_top" xlink:title=" ">
<polygon fill="white" stroke="#666666" points="173,-184 93,-184 93,-165 173,-165 173,-184"/>
<text text-anchor="middle" x="133" y="-172" font-family="Helvetica,sans-Serif" font-size="10.00">EventEntity.h</text>
</a>
</g>
</g>
<!-- Node1&#45;&gt;Node21 -->
<g id="edge34_Node000001_Node000021" class="edge">
<title>Node1&#45;&gt;Node21</title>
<g id="a_edge34_Node000001_Node000021"><a xlink:title=" ">
<path fill="none" stroke="#63b8ff" d="M185.92,-329.96C174.47,-313.36 149.87,-275.18 139,-239 134.66,-224.55 133.24,-207.49 132.86,-194.69"/>
<polygon fill="#63b8ff" stroke="#63b8ff" points="136.36,-194.3 132.75,-184.34 129.36,-194.37 136.36,-194.3"/>
</a>
</g>
</g>
<!-- Node23 -->
<g id="Node000023" class="node">
<title>Node23</title>
<g id="a_Node000023"><a xlink:href="_event_listener_8h.html" target="_top" xlink:title=" ">
<polygon fill="white" stroke="#666666" points="312,-294 220,-294 220,-275 312,-275 312,-294"/>
<text text-anchor="middle" x="266" y="-282" font-family="Helvetica,sans-Serif" font-size="10.00">EventListener.h</text>
</a>
</g>
</g>
<!-- Node1&#45;&gt;Node23 -->
<g id="edge35_Node000001_Node000023" class="edge">
<title>Node1&#45;&gt;Node23</title>
<g id="a_edge35_Node000001_Node000023"><a xlink:title=" ">
<path fill="none" stroke="#63b8ff" d="M203.89,-329.98C215.15,-321.92 232.29,-309.65 245.71,-300.03"/>
<polygon fill="#63b8ff" stroke="#63b8ff" points="247.8,-302.84 253.89,-294.17 243.73,-297.15 247.8,-302.84"/>
</a>
</g>
</g>
<!-- Node3 -->
<g id="Node000003" class="node">
<title>Node3</title>
<g id="a_Node000003"><a xlink:href="_bytes_8h.html" target="_top" xlink:title=" ">
<polygon fill="white" stroke="#666666" points="460.5,-184 407.5,-184 407.5,-165 460.5,-165 460.5,-184"/>
<text text-anchor="middle" x="434" y="-172" font-family="Helvetica,sans-Serif" font-size="10.00">Bytes.h</text>
</a>
</g>
</g>
<!-- Node2&#45;&gt;Node3 -->
<g id="edge2_Node000002_Node000003" class="edge">
<title>Node2&#45;&gt;Node3</title>
<g id="a_edge2_Node000002_Node000003"><a xlink:title=" ">
<path fill="none" stroke="#63b8ff" d="M557.03,-274.96C586.92,-264.1 628.57,-243.86 610,-220 593.08,-198.27 517.22,-185.47 470.8,-179.53"/>
<polygon fill="#63b8ff" stroke="#63b8ff" points="471.16,-176.05 460.8,-178.3 470.3,-183 471.16,-176.05"/>
</a>
</g>
</g>
<!-- Node13 -->
<g id="Node000013" class="node">
<title>Node13</title>
<g id="a_Node000013"><a xlink:href="_clear_queue_8h.html" target="_top" xlink:title=" ">
<polygon fill="white" stroke="#666666" points="313.5,-74 230.5,-74 230.5,-55 313.5,-55 313.5,-74"/>
<text text-anchor="middle" x="272" y="-62" font-family="Helvetica,sans-Serif" font-size="10.00">ClearQueue.h</text>
</a>
</g>
</g>
<!-- Node2&#45;&gt;Node13 -->
<g id="edge12_Node000002_Node000013" class="edge">
<title>Node2&#45;&gt;Node13</title>
<g id="a_edge12_Node000002_Node000013"><a xlink:title=" ">
<path fill="none" stroke="#63b8ff" d="M565.53,-281.99C624.04,-278.67 736.62,-268.52 761,-239 781.94,-213.64 773.3,-195.5 761,-165 748.3,-133.52 738.53,-124.85 708,-110 641.51,-77.65 424.64,-68.77 324.08,-66.37"/>
<polygon fill="#63b8ff" stroke="#63b8ff" points="323.93,-62.87 313.85,-66.14 323.77,-69.86 323.93,-62.87"/>
</a>
</g>
</g>
<!-- Node14 -->
<g id="Node000014" class="node">
<title>Node14</title>
<g id="a_Node000014"><a xlink:href="_data_channels_8h.html" target="_top" xlink:title=" ">
<polygon fill="white" stroke="#666666" points="752,-239 658,-239 658,-220 752,-220 752,-239"/>
<text text-anchor="middle" x="705" y="-227" font-family="Helvetica,sans-Serif" font-size="10.00">DataChannels.h</text>
</a>
</g>
</g>
<!-- Node2&#45;&gt;Node14 -->
<g id="edge15_Node000002_Node000014" class="edge">
<title>Node2&#45;&gt;Node14</title>
<g id="a_edge15_Node000002_Node000014"><a xlink:title=" ">
<path fill="none" stroke="#63b8ff" d="M558.12,-274.98C587.62,-266.05 634.19,-251.94 666.97,-242.02"/>
<polygon fill="#63b8ff" stroke="#63b8ff" points="668.11,-245.33 676.66,-239.08 666.08,-238.63 668.11,-245.33"/>
</a>
</g>
</g>
<!-- Node18 -->
<g id="Node000018" class="node">
<title>Node18</title>
<g id="a_Node000018"><a xlink:href="_i_executor_8h.html" target="_top" xlink:title=" ">
<polygon fill="white" stroke="#666666" points="440,-239 370,-239 370,-220 440,-220 440,-239"/>
<text text-anchor="middle" x="405" y="-227" font-family="Helvetica,sans-Serif" font-size="10.00">IExecutor.h</text>
</a>
</g>
</g>
<!-- Node2&#45;&gt;Node18 -->
<g id="edge23_Node000002_Node000018" class="edge">
<title>Node2&#45;&gt;Node18</title>
<g id="a_edge23_Node000002_Node000018"><a xlink:title=" ">
<path fill="none" stroke="#63b8ff" d="M509.92,-274.98C489.63,-266.38 458.04,-252.99 434.83,-243.15"/>
<polygon fill="#63b8ff" stroke="#63b8ff" points="436.02,-239.85 425.45,-239.17 433.29,-246.3 436.02,-239.85"/>
</a>
</g>
</g>
<!-- Node19 -->
<g id="Node000019" class="node">
<title>Node19</title>
<g id="a_Node000019"><a xlink:href="_i_event_bus_connection_kit_8h.html" target="_top" xlink:title="Defines the interface for components that can connect to an EventBus.">
<polygon fill="white" stroke="#666666" points="601.5,-239 458.5,-239 458.5,-220 601.5,-220 601.5,-239"/>
<text text-anchor="middle" x="530" y="-227" font-family="Helvetica,sans-Serif" font-size="10.00">IEventBusConnectionKit.h</text>
</a>
</g>
</g>
<!-- Node2&#45;&gt;Node19 -->
<g id="edge24_Node000002_Node000019" class="edge">
<title>Node2&#45;&gt;Node19</title>
<g id="a_edge24_Node000002_Node000019"><a xlink:title=" ">
<path fill="none" stroke="#63b8ff" d="M524.83,-274.75C523.34,-267.8 522.9,-257.85 523.52,-249.13"/>
<polygon fill="#63b8ff" stroke="#63b8ff" points="527.01,-249.47 524.87,-239.09 520.07,-248.53 527.01,-249.47"/>
</a>
</g>
</g>
<!-- Node4 -->
<g id="Node000004" class="node">
<title>Node4</title>
<g id="a_Node000004"><a xlink:href="_common_8h.html" target="_top" xlink:title=" ">
<polygon fill="white" stroke="#666666" points="678,-129 608,-129 608,-110 678,-110 678,-129"/>
<text text-anchor="middle" x="643" y="-117" font-family="Helvetica,sans-Serif" font-size="10.00">Common.h</text>
</a>
</g>
</g>
<!-- Node3&#45;&gt;Node4 -->
<g id="edge3_Node000003_Node000004" class="edge">
<title>Node3&#45;&gt;Node4</title>
<g id="a_edge3_Node000003_Node000004"><a xlink:title=" ">
<path fill="none" stroke="#63b8ff" d="M460.9,-166.68C495.93,-157.79 557.63,-142.15 599.4,-131.56"/>
<polygon fill="#63b8ff" stroke="#63b8ff" points="600.46,-134.9 609.3,-129.05 598.74,-128.11 600.46,-134.9"/>
</a>
</g>
</g>
<!-- Node7 -->
<g id="Node000007" class="node">
<title>Node7</title>
<g id="a_Node000007"><a xlink:href="_logger_8h.html" target="_top" xlink:title=" ">
<polygon fill="white" stroke="#666666" points="162,-129 104,-129 104,-110 162,-110 162,-129"/>
<text text-anchor="middle" x="133" y="-117" font-family="Helvetica,sans-Serif" font-size="10.00">Logger.h</text>
</a>
</g>
</g>
<!-- Node3&#45;&gt;Node7 -->
<g id="edge6_Node000003_Node000007" class="edge">
<title>Node3&#45;&gt;Node7</title>
<g id="a_edge6_Node000003_Node000007"><a xlink:title=" ">
<path fill="none" stroke="#63b8ff" d="M407.41,-169.47C361.52,-162.42 264.27,-147.04 172.07,-129.12"/>
<polygon fill="#63b8ff" stroke="#63b8ff" points="172.5,-125.64 162.01,-127.15 171.15,-132.51 172.5,-125.64"/>
</a>
</g>
</g>
<!-- Node9 -->
<g id="Node000009" class="node">
<title>Node9</title>
<g id="a_Node000009"><a xlink:title=" ">
<polygon fill="#e0e0e0" stroke="#999999" points="590,-129 526,-129 526,-110 590,-110 590,-129"/>
<text text-anchor="middle" x="558" y="-117" font-family="Helvetica,sans-Serif" font-size="10.00">WString.h</text>
</a>
</g>
</g>
<!-- Node3&#45;&gt;Node9 -->
<g id="edge8_Node000003_Node000009" class="edge">
<title>Node3&#45;&gt;Node9</title>
<g id="a_edge8_Node000003_Node000009"><a xlink:title=" ">
<path fill="none" stroke="#63b8ff" d="M453.92,-164.98C474.05,-156.38 505.38,-142.99 528.41,-133.15"/>
<polygon fill="#63b8ff" stroke="#63b8ff" points="529.9,-136.32 537.71,-129.17 527.14,-129.88 529.9,-136.32"/>
</a>
</g>
</g>
<!-- Node10 -->
<g id="Node000010" class="node">
<title>Node10</title>
<g id="a_Node000010"><a xlink:title=" ">
<polygon fill="#e0e0e0" stroke="#999999" points="420,-129 370,-129 370,-110 420,-110 420,-129"/>
<text text-anchor="middle" x="395" y="-117" font-family="Helvetica,sans-Serif" font-size="10.00">stdio.h</text>
</a>
</g>
</g>
<!-- Node3&#45;&gt;Node10 -->
<g id="edge9_Node000003_Node000010" class="edge">
<title>Node3&#45;&gt;Node10</title>
<g id="a_edge9_Node000003_Node000010"><a xlink:title=" ">
<path fill="none" stroke="#63b8ff" d="M427.56,-164.75C422.11,-157.34 414.14,-146.5 407.44,-137.41"/>
<polygon fill="#63b8ff" stroke="#63b8ff" points="410.07,-135.07 401.32,-129.09 404.43,-139.22 410.07,-135.07"/>
</a>
</g>
</g>
<!-- Node11 -->
<g id="Node000011" class="node">
<title>Node11</title>
<g id="a_Node000011"><a xlink:title=" ">
<polygon fill="#e0e0e0" stroke="#999999" points="339.5,-19 274.5,-19 274.5,0 339.5,0 339.5,-19"/>
<text text-anchor="middle" x="307" y="-7" font-family="Helvetica,sans-Serif" font-size="10.00">functional</text>
</a>
</g>
</g>
<!-- Node3&#45;&gt;Node11 -->
<g id="edge10_Node000003_Node000011" class="edge">
<title>Node3&#45;&gt;Node11</title>
<g id="a_edge10_Node000003_Node000011"><a xlink:title=" ">
<path fill="none" stroke="#63b8ff" d="M413.11,-164.89C397.1,-157.41 375.38,-145.21 361,-129 347.04,-113.26 324.83,-57.76 313.75,-28.64"/>
<polygon fill="#63b8ff" stroke="#63b8ff" points="317.01,-27.35 310.21,-19.23 310.45,-29.82 317.01,-27.35"/>
</a>
</g>
</g>
<!-- Node12 -->
<g id="Node000012" class="node">
<title>Node12</title>
<g id="a_Node000012"><a xlink:title=" ">
<polygon fill="#e0e0e0" stroke="#999999" points="507.5,-129 438.5,-129 438.5,-110 507.5,-110 507.5,-129"/>
<text text-anchor="middle" x="473" y="-117" font-family="Helvetica,sans-Serif" font-size="10.00">type_traits</text>
</a>
</g>
</g>
<!-- Node3&#45;&gt;Node12 -->
<g id="edge11_Node000003_Node000012" class="edge">
<title>Node3&#45;&gt;Node12</title>
<g id="a_edge11_Node000003_Node000012"><a xlink:title=" ">
<path fill="none" stroke="#63b8ff" d="M440.44,-164.75C445.89,-157.34 453.86,-146.5 460.56,-137.41"/>
<polygon fill="#63b8ff" stroke="#63b8ff" points="463.57,-139.22 466.68,-129.09 457.93,-135.07 463.57,-139.22"/>
</a>
</g>
</g>
<!-- Node5 -->
<g id="Node000005" class="node">
<title>Node5</title>
<g id="a_Node000005"><a xlink:title=" ">
<polygon fill="#e0e0e0" stroke="#999999" points="637,-74 579,-74 579,-55 637,-55 637,-74"/>
<text text-anchor="middle" x="608" y="-62" font-family="Helvetica,sans-Serif" font-size="10.00">memory</text>
</a>
</g>
</g>
<!-- Node4&#45;&gt;Node5 -->
<g id="edge4_Node000004_Node000005" class="edge">
<title>Node4&#45;&gt;Node5</title>
<g id="a_edge4_Node000004_Node000005"><a xlink:title=" ">
<path fill="none" stroke="#63b8ff" d="M637.22,-109.75C632.38,-102.42 625.32,-91.73 619.36,-82.7"/>
<polygon fill="#63b8ff" stroke="#63b8ff" points="622.1,-80.5 613.67,-74.09 616.26,-84.36 622.1,-80.5"/>
</a>
</g>
</g>
<!-- Node6 -->
<g id="Node000006" class="node">
<title>Node6</title>
<g id="a_Node000006"><a xlink:title=" ">
<polygon fill="#e0e0e0" stroke="#999999" points="700.5,-74 655.5,-74 655.5,-55 700.5,-55 700.5,-74"/>
<text text-anchor="middle" x="678" y="-62" font-family="Helvetica,sans-Serif" font-size="10.00">utility</text>
</a>
</g>
</g>
<!-- Node4&#45;&gt;Node6 -->
<g id="edge5_Node000004_Node000006" class="edge">
<title>Node4&#45;&gt;Node6</title>
<g id="a_edge5_Node000004_Node000006"><a xlink:title=" ">
<path fill="none" stroke="#63b8ff" d="M648.78,-109.75C653.62,-102.42 660.68,-91.73 666.64,-82.7"/>
<polygon fill="#63b8ff" stroke="#63b8ff" points="669.74,-84.36 672.33,-74.09 663.9,-80.5 669.74,-84.36"/>
</a>
</g>
</g>
<!-- Node7&#45;&gt;Node8 -->
<g id="edge7_Node000007_Node000008" class="edge">
<title>Node7&#45;&gt;Node8</title>
<g id="a_edge7_Node000007_Node000008"><a xlink:title=" ">
<path fill="none" stroke="#63b8ff" d="M133,-109.66C133,-92.17 133,-52.8 133,-29.27"/>
<polygon fill="#63b8ff" stroke="#63b8ff" points="136.5,-29.16 133,-19.16 129.5,-29.16 136.5,-29.16"/>
</a>
</g>
</g>
<!-- Node13&#45;&gt;Node8 -->
<g id="edge13_Node000013_Node000008" class="edge">
<title>Node13&#45;&gt;Node8</title>
<g id="a_edge13_Node000013_Node000008"><a xlink:title=" ">
<path fill="none" stroke="#63b8ff" d="M249.67,-54.98C226.8,-46.27 191.04,-32.63 165.14,-22.75"/>
<polygon fill="#63b8ff" stroke="#63b8ff" points="166.33,-19.46 155.74,-19.17 163.84,-26 166.33,-19.46"/>
</a>
</g>
</g>
<!-- Node13&#45;&gt;Node11 -->
<g id="edge14_Node000013_Node000011" class="edge">
<title>Node13&#45;&gt;Node11</title>
<g id="a_edge14_Node000013_Node000011"><a xlink:title=" ">
<path fill="none" stroke="#63b8ff" d="M277.78,-54.75C282.62,-47.42 289.68,-36.73 295.64,-27.7"/>
<polygon fill="#63b8ff" stroke="#63b8ff" points="298.74,-29.36 301.33,-19.09 292.9,-25.5 298.74,-29.36"/>
</a>
</g>
</g>
<!-- Node14&#45;&gt;Node3 -->
<g id="edge16_Node000014_Node000003" class="edge">
<title>Node14&#45;&gt;Node3</title>
<g id="a_edge16_Node000014_Node000003"><a xlink:title=" ">
<path fill="none" stroke="#63b8ff" d="M661.46,-219.98C608.52,-209.63 520.12,-192.34 470.55,-182.65"/>
<polygon fill="#63b8ff" stroke="#63b8ff" points="471.08,-179.19 460.59,-180.7 469.73,-186.06 471.08,-179.19"/>
</a>
</g>
</g>
<!-- Node15 -->
<g id="Node000015" class="node">
<title>Node15</title>
<g id="a_Node000015"><a xlink:href="_limited_queue_8h.html" target="_top" xlink:title=" ">
<polygon fill="white" stroke="#666666" points="752,-184 658,-184 658,-165 752,-165 752,-184"/>
<text text-anchor="middle" x="705" y="-172" font-family="Helvetica,sans-Serif" font-size="10.00">LimitedQueue.h</text>
</a>
</g>
</g>
<!-- Node14&#45;&gt;Node15 -->
<g id="edge17_Node000014_Node000015" class="edge">
<title>Node14&#45;&gt;Node15</title>
<g id="a_edge17_Node000014_Node000015"><a xlink:title=" ">
<path fill="none" stroke="#63b8ff" d="M705,-219.75C705,-212.8 705,-202.85 705,-194.13"/>
<polygon fill="#63b8ff" stroke="#63b8ff" points="708.5,-194.09 705,-184.09 701.5,-194.09 708.5,-194.09"/>
</a>
</g>
</g>
<!-- Node16 -->
<g id="Node000016" class="node">
<title>Node16</title>
<g id="a_Node000016"><a xlink:href="_map_8h.html" target="_top" xlink:title=" ">
<polygon fill="white" stroke="#666666" points="639.5,-184 592.5,-184 592.5,-165 639.5,-165 639.5,-184"/>
<text text-anchor="middle" x="616" y="-172" font-family="Helvetica,sans-Serif" font-size="10.00">Map.h</text>
</a>
</g>
</g>
<!-- Node14&#45;&gt;Node16 -->
<g id="edge19_Node000014_Node000016" class="edge">
<title>Node14&#45;&gt;Node16</title>
<g id="a_edge19_Node000014_Node000016"><a xlink:title=" ">
<path fill="none" stroke="#63b8ff" d="M690.7,-219.98C676.9,-211.77 655.76,-199.18 639.49,-189.49"/>
<polygon fill="#63b8ff" stroke="#63b8ff" points="640.94,-186.28 630.56,-184.17 637.36,-192.29 640.94,-186.28"/>
</a>
</g>
</g>
<!-- Node15&#45;&gt;Node13 -->
<g id="edge18_Node000015_Node000013" class="edge">
<title>Node15&#45;&gt;Node13</title>
<g id="a_edge18_Node000015_Node000013"><a xlink:title=" ">
<path fill="none" stroke="#63b8ff" d="M705.35,-164.94C705.41,-151.04 703.29,-123.74 687,-110 659.73,-87 428.81,-73.05 323.71,-67.84"/>
<polygon fill="#63b8ff" stroke="#63b8ff" points="323.81,-64.34 313.65,-67.35 323.46,-71.33 323.81,-64.34"/>
</a>
</g>
</g>
<!-- Node16&#45;&gt;Node4 -->
<g id="edge20_Node000016_Node000004" class="edge">
<title>Node16&#45;&gt;Node4</title>
<g id="a_edge20_Node000016_Node000004"><a xlink:title=" ">
<path fill="none" stroke="#63b8ff" d="M620.46,-164.75C624.12,-157.57 629.41,-147.18 633.95,-138.27"/>
<polygon fill="#63b8ff" stroke="#63b8ff" points="637.2,-139.59 638.62,-129.09 630.97,-136.41 637.2,-139.59"/>
</a>
</g>
</g>
<!-- Node17 -->
<g id="Node000017" class="node">
<title>Node17</title>
<g id="a_Node000017"><a xlink:href="_iterable_queue_8h.html" target="_top" xlink:title=" ">
<polygon fill="white" stroke="#666666" points="275.5,-129 180.5,-129 180.5,-110 275.5,-110 275.5,-129"/>
<text text-anchor="middle" x="228" y="-117" font-family="Helvetica,sans-Serif" font-size="10.00">IterableQueue.h</text>
</a>
</g>
</g>
<!-- Node16&#45;&gt;Node17 -->
<g id="edge21_Node000016_Node000017" class="edge">
<title>Node16&#45;&gt;Node17</title>
<g id="a_edge21_Node000016_Node000017"><a xlink:title=" ">
<path fill="none" stroke="#63b8ff" d="M592.31,-170.26C532.17,-162.05 372.22,-140.2 285.62,-128.37"/>
<polygon fill="#63b8ff" stroke="#63b8ff" points="286.07,-124.9 275.69,-127.01 285.13,-131.84 286.07,-124.9"/>
</a>
</g>
</g>
<!-- Node17&#45;&gt;Node13 -->
<g id="edge22_Node000017_Node000013" class="edge">
<title>Node17&#45;&gt;Node13</title>
<g id="a_edge22_Node000017_Node000013"><a xlink:title=" ">
<path fill="none" stroke="#63b8ff" d="M235.27,-109.75C241.54,-102.18 250.79,-91.05 258.43,-81.84"/>
<polygon fill="#63b8ff" stroke="#63b8ff" points="261.17,-84.02 264.87,-74.09 255.79,-79.55 261.17,-84.02"/>
</a>
</g>
</g>
<!-- Node19&#45;&gt;Node2 -->
<g id="edge25_Node000019_Node000002" class="edge">
<title>Node19&#45;&gt;Node2</title>
<g id="a_edge25_Node000019_Node000002"><a xlink:title=" ">
<path fill="none" stroke="#63b8ff" d="M535.13,-239.09C536.64,-245.99 537.09,-255.93 536.49,-264.66"/>
<polygon fill="#63b8ff" stroke="#63b8ff" points="533,-264.38 535.17,-274.75 539.94,-265.29 533,-264.38"/>
</a>
</g>
</g>
<!-- Node20&#45;&gt;Node3 -->
<g id="edge28_Node000020_Node000003" class="edge">
<title>Node20&#45;&gt;Node3</title>
<g id="a_edge28_Node000020_Node000003"><a xlink:title=" ">
<path fill="none" stroke="#63b8ff" d="M231.72,-219.98C277.39,-209.94 352.75,-193.37 397.45,-183.54"/>
<polygon fill="#63b8ff" stroke="#63b8ff" points="398.3,-186.94 407.31,-181.37 396.79,-180.1 398.3,-186.94"/>
</a>
</g>
</g>
<!-- Node20&#45;&gt;Node17 -->
<g id="edge29_Node000020_Node000017" class="edge">
<title>Node20&#45;&gt;Node17</title>
<g id="a_edge29_Node000020_Node000017"><a xlink:title=" ">
<path fill="none" stroke="#63b8ff" d="M195.86,-219.66C201.56,-202.09 214.41,-162.45 222.02,-138.95"/>
<polygon fill="#63b8ff" stroke="#63b8ff" points="225.44,-139.75 225.19,-129.16 218.78,-137.59 225.44,-139.75"/>
</a>
</g>
</g>
<!-- Node20&#45;&gt;Node21 -->
<g id="edge30_Node000020_Node000021" class="edge">
<title>Node20&#45;&gt;Node21</title>
<g id="a_edge30_Node000020_Node000021"><a xlink:title=" ">
<path fill="none" stroke="#63b8ff" d="M183.36,-219.98C174.49,-212.15 161.13,-200.34 150.39,-190.86"/>
<polygon fill="#63b8ff" stroke="#63b8ff" points="152.63,-188.17 142.82,-184.17 147.99,-193.41 152.63,-188.17"/>
</a>
</g>
</g>
<!-- Node21&#45;&gt;Node7 -->
<g id="edge32_Node000021_Node000007" class="edge">
<title>Node21&#45;&gt;Node7</title>
<g id="a_edge32_Node000021_Node000007"><a xlink:title=" ">
<path fill="none" stroke="#63b8ff" d="M133,-164.75C133,-157.8 133,-147.85 133,-139.13"/>
<polygon fill="#63b8ff" stroke="#63b8ff" points="136.5,-139.09 133,-129.09 129.5,-139.09 136.5,-139.09"/>
</a>
</g>
</g>
<!-- Node21&#45;&gt;Node17 -->
<g id="edge31_Node000021_Node000017" class="edge">
<title>Node21&#45;&gt;Node17</title>
<g id="a_edge31_Node000021_Node000017"><a xlink:title=" ">
<path fill="none" stroke="#63b8ff" d="M148.26,-164.98C163.13,-156.69 185.98,-143.94 203.42,-134.22"/>
<polygon fill="#63b8ff" stroke="#63b8ff" points="205.43,-137.1 212.46,-129.17 202.02,-130.99 205.43,-137.1"/>
</a>
</g>
</g>
<!-- Node22 -->
<g id="Node000022" class="node">
<title>Node22</title>
<g id="a_Node000022"><a xlink:href="_type_id_8h.html" target="_top" xlink:title=" ">
<polygon fill="white" stroke="#666666" points="85.5,-129 28.5,-129 28.5,-110 85.5,-110 85.5,-129"/>
<text text-anchor="middle" x="57" y="-117" font-family="Helvetica,sans-Serif" font-size="10.00">TypeId.h</text>
</a>
</g>
</g>
<!-- Node21&#45;&gt;Node22 -->
<g id="edge33_Node000021_Node000022" class="edge">
<title>Node21&#45;&gt;Node22</title>
<g id="a_edge33_Node000021_Node000022"><a xlink:title=" ">
<path fill="none" stroke="#63b8ff" d="M120.79,-164.98C109.22,-156.92 91.62,-144.65 77.84,-135.03"/>
<polygon fill="#63b8ff" stroke="#63b8ff" points="79.64,-132.02 69.43,-129.17 75.63,-137.76 79.64,-132.02"/>
</a>
</g>
</g>
<!-- Node23&#45;&gt;Node3 -->
<g id="edge36_Node000023_Node000003" class="edge">
<title>Node23&#45;&gt;Node3</title>
<g id="a_edge36_Node000023_Node000003"><a xlink:title=" ">
<path fill="none" stroke="#63b8ff" d="M278.49,-274.91C296.55,-262.54 331.07,-239.11 361,-220 377.52,-209.45 396.43,-197.94 410.86,-189.27"/>
<polygon fill="#63b8ff" stroke="#63b8ff" points="412.84,-192.16 419.62,-184.02 409.25,-186.16 412.84,-192.16"/>
</a>
</g>
</g>
<!-- Node23&#45;&gt;Node13 -->
<g id="edge37_Node000023_Node000013" class="edge">
<title>Node23&#45;&gt;Node13</title>
<g id="a_edge37_Node000023_Node000013"><a xlink:title=" ">
<path fill="none" stroke="#63b8ff" d="M268.34,-274.81C274.89,-249.41 292.35,-173.04 284,-110 282.84,-101.27 280.47,-91.83 278.13,-83.9"/>
<polygon fill="#63b8ff" stroke="#63b8ff" points="281.43,-82.72 275.09,-74.23 274.75,-84.82 281.43,-82.72"/>
</a>
</g>
</g>
<!-- Node23&#45;&gt;Node17 -->
<g id="edge38_Node000023_Node000017" class="edge">
<title>Node23&#45;&gt;Node17</title>
<g id="a_edge38_Node000023_Node000017"><a xlink:title=" ">
<path fill="none" stroke="#63b8ff" d="M263.96,-274.74C258,-249.2 240.57,-174.43 232.37,-139.23"/>
<polygon fill="#63b8ff" stroke="#63b8ff" points="235.73,-138.25 230.05,-129.31 228.92,-139.84 235.73,-138.25"/>
</a>
</g>
</g>
<!-- Node23&#45;&gt;Node20 -->
<g id="edge39_Node000023_Node000020" class="edge">
<title>Node23&#45;&gt;Node20</title>
<g id="a_edge39_Node000023_Node000020"><a xlink:title=" ">
<path fill="none" stroke="#63b8ff" d="M254.27,-274.98C243.27,-267 226.58,-254.88 213.4,-245.31"/>
<polygon fill="#63b8ff" stroke="#63b8ff" points="215.09,-242.21 204.94,-239.17 210.98,-247.88 215.09,-242.21"/>
</a>
</g>
</g>
</g>
</svg>
