<?xml version="1.0" encoding="UTF-8" standalone="no"?>
<!DOCTYPE svg PUBLIC "-//W3C//DTD SVG 1.1//EN"
 "http://www.w3.org/Graphics/SVG/1.1/DTD/svg11.dtd">
<!-- Generated by graphviz version 2.43.0 (0)
 -->
<!-- Title: EventListener.cpp Pages: 1 -->
<svg width="744pt" height="357pt"
 viewBox="0.00 0.00 744.07 357.00" xmlns="http://www.w3.org/2000/svg" xmlns:xlink="http://www.w3.org/1999/xlink">
<g id="graph0" class="graph" transform="scale(1 1) rotate(0) translate(4 353)">
<title>EventListener.cpp</title>
<!-- Node1 -->
<g id="Node000001" class="node">
<title>Node1</title>
<g id="a_Node000001"><a xlink:title=" ">
<polygon fill="#999999" stroke="#666666" points="252.5,-349 149.5,-349 149.5,-330 252.5,-330 252.5,-349"/>
<text text-anchor="middle" x="201" y="-337" font-family="Helvetica,sans-Serif" font-size="10.00">EventListener.cpp</text>
</a>
</g>
</g>
<!-- Node2 -->
<g id="Node000002" class="node">
<title>Node2</title>
<g id="a_Node000002"><a xlink:href="_event_listener_8h.html" target="_top" xlink:title=" ">
<polygon fill="white" stroke="#666666" points="632,-294 540,-294 540,-275 632,-275 632,-294"/>
<text text-anchor="middle" x="586" y="-282" font-family="Helvetica,sans-Serif" font-size="10.00">EventListener.h</text>
</a>
</g>
</g>
<!-- Node1&#45;&gt;Node2 -->
<g id="edge1_Node000001_Node000002" class="edge">
<title>Node1&#45;&gt;Node2</title>
<g id="a_edge1_Node000001_Node000002"><a xlink:title=" ">
<path fill="none" stroke="#63b8ff" d="M252.52,-331.41C324.64,-321.48 455.18,-303.51 529.75,-293.24"/>
<polygon fill="#63b8ff" stroke="#63b8ff" points="530.46,-296.68 539.89,-291.85 529.51,-289.74 530.46,-296.68"/>
</a>
</g>
</g>
<!-- Node8 -->
<g id="Node000008" class="node">
<title>Node8</title>
<g id="a_Node000008"><a xlink:title=" ">
<polygon fill="#e0e0e0" stroke="#999999" points="465.5,-19 402.5,-19 402.5,0 465.5,0 465.5,-19"/>
<text text-anchor="middle" x="434" y="-7" font-family="Helvetica,sans-Serif" font-size="10.00">Arduino.h</text>
</a>
</g>
</g>
<!-- Node1&#45;&gt;Node8 -->
<g id="edge24_Node000001_Node000008" class="edge">
<title>Node1&#45;&gt;Node8</title>
<g id="a_edge24_Node000001_Node000008"><a xlink:title=" ">
<path fill="none" stroke="#63b8ff" d="M149.5,-333.13C89.95,-323.75 0,-298.34 0,-230.5 0,-230.5 0,-230.5 0,-118.5 0,-38.19 283.38,-17.15 392.17,-12.03"/>
<polygon fill="#63b8ff" stroke="#63b8ff" points="392.6,-15.52 402.44,-11.57 392.29,-8.52 392.6,-15.52"/>
</a>
</g>
</g>
<!-- Node18 -->
<g id="Node000018" class="node">
<title>Node18</title>
<g id="a_Node000018"><a xlink:href="_event_bus_8h.html" target="_top" xlink:title=" ">
<polygon fill="white" stroke="#666666" points="236.5,-294 165.5,-294 165.5,-275 236.5,-275 236.5,-294"/>
<text text-anchor="middle" x="201" y="-282" font-family="Helvetica,sans-Serif" font-size="10.00">EventBus.h</text>
</a>
</g>
</g>
<!-- Node1&#45;&gt;Node18 -->
<g id="edge25_Node000001_Node000018" class="edge">
<title>Node1&#45;&gt;Node18</title>
<g id="a_edge25_Node000001_Node000018"><a xlink:title=" ">
<path fill="none" stroke="#63b8ff" d="M201,-329.75C201,-322.8 201,-312.85 201,-304.13"/>
<polygon fill="#63b8ff" stroke="#63b8ff" points="204.5,-304.09 201,-294.09 197.5,-304.09 204.5,-304.09"/>
</a>
</g>
</g>
<!-- Node3 -->
<g id="Node000003" class="node">
<title>Node3</title>
<g id="a_Node000003"><a xlink:href="_bytes_8h.html" target="_top" xlink:title=" ">
<polygon fill="white" stroke="#666666" points="349.5,-184 296.5,-184 296.5,-165 349.5,-165 349.5,-184"/>
<text text-anchor="middle" x="323" y="-172" font-family="Helvetica,sans-Serif" font-size="10.00">Bytes.h</text>
</a>
</g>
</g>
<!-- Node2&#45;&gt;Node3 -->
<g id="edge2_Node000002_Node000003" class="edge">
<title>Node2&#45;&gt;Node3</title>
<g id="a_edge2_Node000002_Node000003"><a xlink:title=" ">
<path fill="none" stroke="#63b8ff" d="M539.7,-281.12C496.66,-277.17 431.99,-266.71 383,-239 362.67,-227.5 345.08,-206.85 334.3,-192.22"/>
<polygon fill="#63b8ff" stroke="#63b8ff" points="337.13,-190.17 328.5,-184.03 331.42,-194.22 337.13,-190.17"/>
</a>
</g>
</g>
<!-- Node13 -->
<g id="Node000013" class="node">
<title>Node13</title>
<g id="a_Node000013"><a xlink:href="_clear_queue_8h.html" target="_top" xlink:title=" ">
<polygon fill="white" stroke="#666666" points="557.5,-74 474.5,-74 474.5,-55 557.5,-55 557.5,-74"/>
<text text-anchor="middle" x="516" y="-62" font-family="Helvetica,sans-Serif" font-size="10.00">ClearQueue.h</text>
</a>
</g>
</g>
<!-- Node2&#45;&gt;Node13 -->
<g id="edge12_Node000002_Node000013" class="edge">
<title>Node2&#45;&gt;Node13</title>
<g id="a_edge12_Node000002_Node000013"><a xlink:title=" ">
<path fill="none" stroke="#63b8ff" d="M602.36,-274.98C648.8,-249.7 774.94,-173 724,-110 704.75,-86.19 623.17,-74.56 568.09,-69.31"/>
<polygon fill="#63b8ff" stroke="#63b8ff" points="568.07,-65.8 557.79,-68.38 567.43,-72.77 568.07,-65.8"/>
</a>
</g>
</g>
<!-- Node14 -->
<g id="Node000014" class="node">
<title>Node14</title>
<g id="a_Node000014"><a xlink:href="_iterable_queue_8h.html" target="_top" xlink:title=" ">
<polygon fill="white" stroke="#666666" points="714.5,-129 619.5,-129 619.5,-110 714.5,-110 714.5,-129"/>
<text text-anchor="middle" x="667" y="-117" font-family="Helvetica,sans-Serif" font-size="10.00">IterableQueue.h</text>
</a>
</g>
</g>
<!-- Node2&#45;&gt;Node14 -->
<g id="edge15_Node000002_Node000014" class="edge">
<title>Node2&#45;&gt;Node14</title>
<g id="a_edge15_Node000002_Node000014"><a xlink:title=" ">
<path fill="none" stroke="#63b8ff" d="M600.67,-274.69C612.65,-266.78 629.16,-254.1 639,-239 659.23,-207.97 664.89,-163.89 666.44,-139.17"/>
<polygon fill="#63b8ff" stroke="#63b8ff" points="669.94,-139.16 666.91,-129.01 662.95,-138.84 669.94,-139.16"/>
</a>
</g>
</g>
<!-- Node15 -->
<g id="Node000015" class="node">
<title>Node15</title>
<g id="a_Node000015"><a xlink:href="_event_emitter_8h.html" target="_top" xlink:title=" ">
<polygon fill="white" stroke="#666666" points="630.5,-239 541.5,-239 541.5,-220 630.5,-220 630.5,-239"/>
<text text-anchor="middle" x="586" y="-227" font-family="Helvetica,sans-Serif" font-size="10.00">EventEmitter.h</text>
</a>
</g>
</g>
<!-- Node2&#45;&gt;Node15 -->
<g id="edge17_Node000002_Node000015" class="edge">
<title>Node2&#45;&gt;Node15</title>
<g id="a_edge17_Node000002_Node000015"><a xlink:title=" ">
<path fill="none" stroke="#63b8ff" d="M586,-274.75C586,-267.8 586,-257.85 586,-249.13"/>
<polygon fill="#63b8ff" stroke="#63b8ff" points="589.5,-249.09 586,-239.09 582.5,-249.09 589.5,-249.09"/>
</a>
</g>
</g>
<!-- Node4 -->
<g id="Node000004" class="node">
<title>Node4</title>
<g id="a_Node000004"><a xlink:href="_common_8h.html" target="_top" xlink:title=" ">
<polygon fill="white" stroke="#666666" points="374,-129 304,-129 304,-110 374,-110 374,-129"/>
<text text-anchor="middle" x="339" y="-117" font-family="Helvetica,sans-Serif" font-size="10.00">Common.h</text>
</a>
</g>
</g>
<!-- Node3&#45;&gt;Node4 -->
<g id="edge3_Node000003_Node000004" class="edge">
<title>Node3&#45;&gt;Node4</title>
<g id="a_edge3_Node000003_Node000004"><a xlink:title=" ">
<path fill="none" stroke="#63b8ff" d="M325.64,-164.75C327.76,-157.72 330.81,-147.62 333.46,-138.84"/>
<polygon fill="#63b8ff" stroke="#63b8ff" points="336.87,-139.67 336.41,-129.09 330.17,-137.65 336.87,-139.67"/>
</a>
</g>
</g>
<!-- Node7 -->
<g id="Node000007" class="node">
<title>Node7</title>
<g id="a_Node000007"><a xlink:href="_logger_8h.html" target="_top" xlink:title=" ">
<polygon fill="white" stroke="#666666" points="488,-129 430,-129 430,-110 488,-110 488,-129"/>
<text text-anchor="middle" x="459" y="-117" font-family="Helvetica,sans-Serif" font-size="10.00">Logger.h</text>
</a>
</g>
</g>
<!-- Node3&#45;&gt;Node7 -->
<g id="edge6_Node000003_Node000007" class="edge">
<title>Node3&#45;&gt;Node7</title>
<g id="a_edge6_Node000003_Node000007"><a xlink:title=" ">
<path fill="none" stroke="#63b8ff" d="M344.85,-164.98C367.12,-156.3 401.9,-142.75 427.22,-132.88"/>
<polygon fill="#63b8ff" stroke="#63b8ff" points="428.71,-136.06 436.75,-129.17 426.16,-129.54 428.71,-136.06"/>
</a>
</g>
</g>
<!-- Node9 -->
<g id="Node000009" class="node">
<title>Node9</title>
<g id="a_Node000009"><a xlink:title=" ">
<polygon fill="#e0e0e0" stroke="#999999" points="286,-129 222,-129 222,-110 286,-110 286,-129"/>
<text text-anchor="middle" x="254" y="-117" font-family="Helvetica,sans-Serif" font-size="10.00">WString.h</text>
</a>
</g>
</g>
<!-- Node3&#45;&gt;Node9 -->
<g id="edge8_Node000003_Node000009" class="edge">
<title>Node3&#45;&gt;Node9</title>
<g id="a_edge8_Node000003_Node000009"><a xlink:title=" ">
<path fill="none" stroke="#63b8ff" d="M311.91,-164.98C301.51,-157 285.74,-144.88 273.28,-135.31"/>
<polygon fill="#63b8ff" stroke="#63b8ff" points="275.35,-132.49 265.29,-129.17 271.09,-138.04 275.35,-132.49"/>
</a>
</g>
</g>
<!-- Node10 -->
<g id="Node000010" class="node">
<title>Node10</title>
<g id="a_Node000010"><a xlink:title=" ">
<polygon fill="#e0e0e0" stroke="#999999" points="116,-129 66,-129 66,-110 116,-110 116,-129"/>
<text text-anchor="middle" x="91" y="-117" font-family="Helvetica,sans-Serif" font-size="10.00">stdio.h</text>
</a>
</g>
</g>
<!-- Node3&#45;&gt;Node10 -->
<g id="edge9_Node000003_Node000010" class="edge">
<title>Node3&#45;&gt;Node10</title>
<g id="a_edge9_Node000003_Node000010"><a xlink:title=" ">
<path fill="none" stroke="#63b8ff" d="M296.37,-167.73C260.1,-159.82 192.88,-145 126.08,-129.21"/>
<polygon fill="#63b8ff" stroke="#63b8ff" points="126.77,-125.78 116.23,-126.88 125.16,-132.59 126.77,-125.78"/>
</a>
</g>
</g>
<!-- Node11 -->
<g id="Node000011" class="node">
<title>Node11</title>
<g id="a_Node000011"><a xlink:title=" ">
<polygon fill="#e0e0e0" stroke="#999999" points="548.5,-19 483.5,-19 483.5,0 548.5,0 548.5,-19"/>
<text text-anchor="middle" x="516" y="-7" font-family="Helvetica,sans-Serif" font-size="10.00">functional</text>
</a>
</g>
</g>
<!-- Node3&#45;&gt;Node11 -->
<g id="edge10_Node000003_Node000011" class="edge">
<title>Node3&#45;&gt;Node11</title>
<g id="a_edge10_Node000003_Node000011"><a xlink:title=" ">
<path fill="none" stroke="#63b8ff" d="M335.21,-164.97C347.52,-156.24 366.95,-142.15 383,-129 420.98,-97.9 428.28,-87.58 465,-55 475.99,-45.25 488.4,-34.41 498.23,-25.87"/>
<polygon fill="#63b8ff" stroke="#63b8ff" points="500.53,-28.51 505.8,-19.32 495.95,-23.22 500.53,-28.51"/>
</a>
</g>
</g>
<!-- Node12 -->
<g id="Node000012" class="node">
<title>Node12</title>
<g id="a_Node000012"><a xlink:title=" ">
<polygon fill="#e0e0e0" stroke="#999999" points="203.5,-129 134.5,-129 134.5,-110 203.5,-110 203.5,-129"/>
<text text-anchor="middle" x="169" y="-117" font-family="Helvetica,sans-Serif" font-size="10.00">type_traits</text>
</a>
</g>
</g>
<!-- Node3&#45;&gt;Node12 -->
<g id="edge11_Node000003_Node000012" class="edge">
<title>Node3&#45;&gt;Node12</title>
<g id="a_edge11_Node000003_Node000012"><a xlink:title=" ">
<path fill="none" stroke="#63b8ff" d="M298.26,-164.98C272.63,-156.16 232.37,-142.31 203.59,-132.41"/>
<polygon fill="#63b8ff" stroke="#63b8ff" points="204.53,-129.03 193.94,-129.08 202.25,-135.65 204.53,-129.03"/>
</a>
</g>
</g>
<!-- Node5 -->
<g id="Node000005" class="node">
<title>Node5</title>
<g id="a_Node000005"><a xlink:title=" ">
<polygon fill="#e0e0e0" stroke="#999999" points="304,-74 246,-74 246,-55 304,-55 304,-74"/>
<text text-anchor="middle" x="275" y="-62" font-family="Helvetica,sans-Serif" font-size="10.00">memory</text>
</a>
</g>
</g>
<!-- Node4&#45;&gt;Node5 -->
<g id="edge4_Node000004_Node000005" class="edge">
<title>Node4&#45;&gt;Node5</title>
<g id="a_edge4_Node000004_Node000005"><a xlink:title=" ">
<path fill="none" stroke="#63b8ff" d="M328.72,-109.98C319.16,-102.07 304.72,-90.11 293.22,-80.58"/>
<polygon fill="#63b8ff" stroke="#63b8ff" points="295.4,-77.85 285.47,-74.17 290.94,-83.24 295.4,-77.85"/>
</a>
</g>
</g>
<!-- Node6 -->
<g id="Node000006" class="node">
<title>Node6</title>
<g id="a_Node000006"><a xlink:title=" ">
<polygon fill="#e0e0e0" stroke="#999999" points="367.5,-74 322.5,-74 322.5,-55 367.5,-55 367.5,-74"/>
<text text-anchor="middle" x="345" y="-62" font-family="Helvetica,sans-Serif" font-size="10.00">utility</text>
</a>
</g>
</g>
<!-- Node4&#45;&gt;Node6 -->
<g id="edge5_Node000004_Node000006" class="edge">
<title>Node4&#45;&gt;Node6</title>
<g id="a_edge5_Node000004_Node000006"><a xlink:title=" ">
<path fill="none" stroke="#63b8ff" d="M339.99,-109.75C340.78,-102.8 341.9,-92.85 342.89,-84.13"/>
<polygon fill="#63b8ff" stroke="#63b8ff" points="346.38,-84.42 344.03,-74.09 339.42,-83.63 346.38,-84.42"/>
</a>
</g>
</g>
<!-- Node7&#45;&gt;Node8 -->
<g id="edge7_Node000007_Node000008" class="edge">
<title>Node7&#45;&gt;Node8</title>
<g id="a_edge7_Node000007_Node000008"><a xlink:title=" ">
<path fill="none" stroke="#63b8ff" d="M456.95,-109.66C452.89,-92.09 443.71,-52.45 438.27,-28.95"/>
<polygon fill="#63b8ff" stroke="#63b8ff" points="441.67,-28.11 436,-19.16 434.85,-29.69 441.67,-28.11"/>
</a>
</g>
</g>
<!-- Node13&#45;&gt;Node8 -->
<g id="edge13_Node000013_Node000008" class="edge">
<title>Node13&#45;&gt;Node8</title>
<g id="a_edge13_Node000013_Node000008"><a xlink:title=" ">
<path fill="none" stroke="#63b8ff" d="M502.83,-54.98C490.23,-46.84 471,-34.41 456.06,-24.76"/>
<polygon fill="#63b8ff" stroke="#63b8ff" points="457.71,-21.66 447.41,-19.17 453.91,-27.54 457.71,-21.66"/>
</a>
</g>
</g>
<!-- Node13&#45;&gt;Node11 -->
<g id="edge14_Node000013_Node000011" class="edge">
<title>Node13&#45;&gt;Node11</title>
<g id="a_edge14_Node000013_Node000011"><a xlink:title=" ">
<path fill="none" stroke="#63b8ff" d="M516,-54.75C516,-47.8 516,-37.85 516,-29.13"/>
<polygon fill="#63b8ff" stroke="#63b8ff" points="519.5,-29.09 516,-19.09 512.5,-29.09 519.5,-29.09"/>
</a>
</g>
</g>
<!-- Node14&#45;&gt;Node13 -->
<g id="edge16_Node000014_Node000013" class="edge">
<title>Node14&#45;&gt;Node13</title>
<g id="a_edge16_Node000014_Node000013"><a xlink:title=" ">
<path fill="none" stroke="#63b8ff" d="M642.74,-109.98C617.68,-101.19 578.37,-87.39 550.17,-77.49"/>
<polygon fill="#63b8ff" stroke="#63b8ff" points="551.3,-74.18 540.7,-74.17 548.98,-80.78 551.3,-74.18"/>
</a>
</g>
</g>
<!-- Node15&#45;&gt;Node3 -->
<g id="edge18_Node000015_Node000003" class="edge">
<title>Node15&#45;&gt;Node3</title>
<g id="a_edge18_Node000015_Node000003"><a xlink:title=" ">
<path fill="none" stroke="#63b8ff" d="M541.1,-220.22C497.38,-212.05 428.81,-198.91 359.88,-184.12"/>
<polygon fill="#63b8ff" stroke="#63b8ff" points="360.22,-180.61 349.71,-181.93 358.75,-187.46 360.22,-180.61"/>
</a>
</g>
</g>
<!-- Node15&#45;&gt;Node14 -->
<g id="edge19_Node000015_Node000014" class="edge">
<title>Node15&#45;&gt;Node14</title>
<g id="a_edge19_Node000015_Node000014"><a xlink:title=" ">
<path fill="none" stroke="#63b8ff" d="M597.62,-219.97C608.33,-211.67 624.15,-198.27 635,-184 645.61,-170.04 654.3,-152.03 659.93,-138.75"/>
<polygon fill="#63b8ff" stroke="#63b8ff" points="663.25,-139.87 663.77,-129.29 656.77,-137.24 663.25,-139.87"/>
</a>
</g>
</g>
<!-- Node16 -->
<g id="Node000016" class="node">
<title>Node16</title>
<g id="a_Node000016"><a xlink:href="_event_entity_8h.html" target="_top" xlink:title=" ">
<polygon fill="white" stroke="#666666" points="626,-184 546,-184 546,-165 626,-165 626,-184"/>
<text text-anchor="middle" x="586" y="-172" font-family="Helvetica,sans-Serif" font-size="10.00">EventEntity.h</text>
</a>
</g>
</g>
<!-- Node15&#45;&gt;Node16 -->
<g id="edge20_Node000015_Node000016" class="edge">
<title>Node15&#45;&gt;Node16</title>
<g id="a_edge20_Node000015_Node000016"><a xlink:title=" ">
<path fill="none" stroke="#63b8ff" d="M586,-219.75C586,-212.8 586,-202.85 586,-194.13"/>
<polygon fill="#63b8ff" stroke="#63b8ff" points="589.5,-194.09 586,-184.09 582.5,-194.09 589.5,-194.09"/>
</a>
</g>
</g>
<!-- Node16&#45;&gt;Node7 -->
<g id="edge22_Node000016_Node000007" class="edge">
<title>Node16&#45;&gt;Node7</title>
<g id="a_edge22_Node000016_Node000007"><a xlink:title=" ">
<path fill="none" stroke="#63b8ff" d="M565.6,-164.98C544.98,-156.38 512.89,-142.99 489.31,-133.15"/>
<polygon fill="#63b8ff" stroke="#63b8ff" points="490.35,-129.79 479.78,-129.17 487.66,-136.25 490.35,-129.79"/>
</a>
</g>
</g>
<!-- Node16&#45;&gt;Node14 -->
<g id="edge21_Node000016_Node000014" class="edge">
<title>Node16&#45;&gt;Node14</title>
<g id="a_edge21_Node000016_Node000014"><a xlink:title=" ">
<path fill="none" stroke="#63b8ff" d="M599.01,-164.98C611.46,-156.84 630.46,-144.41 645.21,-134.76"/>
<polygon fill="#63b8ff" stroke="#63b8ff" points="647.3,-137.57 653.75,-129.17 643.46,-131.72 647.3,-137.57"/>
</a>
</g>
</g>
<!-- Node17 -->
<g id="Node000017" class="node">
<title>Node17</title>
<g id="a_Node000017"><a xlink:href="_type_id_8h.html" target="_top" xlink:title=" ">
<polygon fill="white" stroke="#666666" points="601.5,-129 544.5,-129 544.5,-110 601.5,-110 601.5,-129"/>
<text text-anchor="middle" x="573" y="-117" font-family="Helvetica,sans-Serif" font-size="10.00">TypeId.h</text>
</a>
</g>
</g>
<!-- Node16&#45;&gt;Node17 -->
<g id="edge23_Node000016_Node000017" class="edge">
<title>Node16&#45;&gt;Node17</title>
<g id="a_edge23_Node000016_Node000017"><a xlink:title=" ">
<path fill="none" stroke="#63b8ff" d="M583.85,-164.75C582.13,-157.72 579.65,-147.62 577.5,-138.84"/>
<polygon fill="#63b8ff" stroke="#63b8ff" points="580.89,-137.97 575.11,-129.09 574.09,-139.63 580.89,-137.97"/>
</a>
</g>
</g>
<!-- Node18&#45;&gt;Node3 -->
<g id="edge26_Node000018_Node000003" class="edge">
<title>Node18&#45;&gt;Node3</title>
<g id="a_edge26_Node000018_Node000003"><a xlink:title=" ">
<path fill="none" stroke="#63b8ff" d="M165.3,-276.35C126.17,-266.91 71.81,-248.15 95,-220 118.78,-191.13 227.76,-180.74 286.02,-177.2"/>
<polygon fill="#63b8ff" stroke="#63b8ff" points="286.49,-180.68 296.28,-176.62 286.09,-173.69 286.49,-180.68"/>
</a>
</g>
</g>
<!-- Node18&#45;&gt;Node13 -->
<g id="edge27_Node000018_Node000013" class="edge">
<title>Node18&#45;&gt;Node13</title>
<g id="a_edge27_Node000018_Node000013"><a xlink:title=" ">
<path fill="none" stroke="#63b8ff" d="M165.49,-278.48C139.9,-273.03 106.41,-261.82 86,-239 46.83,-195.2 17.5,-153.51 57,-110 70.55,-95.07 346.92,-76.09 464.15,-68.67"/>
<polygon fill="#63b8ff" stroke="#63b8ff" points="464.56,-72.15 474.32,-68.03 464.12,-65.17 464.56,-72.15"/>
</a>
</g>
</g>
<!-- Node19 -->
<g id="Node000019" class="node">
<title>Node19</title>
<g id="a_Node000019"><a xlink:href="_data_channels_8h.html" target="_top" xlink:title=" ">
<polygon fill="white" stroke="#666666" points="486,-239 392,-239 392,-220 486,-220 486,-239"/>
<text text-anchor="middle" x="439" y="-227" font-family="Helvetica,sans-Serif" font-size="10.00">DataChannels.h</text>
</a>
</g>
</g>
<!-- Node18&#45;&gt;Node19 -->
<g id="edge28_Node000018_Node000019" class="edge">
<title>Node18&#45;&gt;Node19</title>
<g id="a_edge28_Node000018_Node000019"><a xlink:title=" ">
<path fill="none" stroke="#63b8ff" d="M236.63,-275.57C277.62,-266.44 345.13,-251.4 390.79,-241.24"/>
<polygon fill="#63b8ff" stroke="#63b8ff" points="391.76,-244.61 400.76,-239.02 390.24,-237.77 391.76,-244.61"/>
</a>
</g>
</g>
<!-- Node22 -->
<g id="Node000022" class="node">
<title>Node22</title>
<g id="a_Node000022"><a xlink:href="_i_executor_8h.html" target="_top" xlink:title=" ">
<polygon fill="white" stroke="#666666" points="174,-239 104,-239 104,-220 174,-220 174,-239"/>
<text text-anchor="middle" x="139" y="-227" font-family="Helvetica,sans-Serif" font-size="10.00">IExecutor.h</text>
</a>
</g>
</g>
<!-- Node18&#45;&gt;Node22 -->
<g id="edge35_Node000018_Node000022" class="edge">
<title>Node18&#45;&gt;Node22</title>
<g id="a_edge35_Node000018_Node000022"><a xlink:title=" ">
<path fill="none" stroke="#63b8ff" d="M191.04,-274.98C181.87,-267.15 168.06,-255.34 156.97,-245.86"/>
<polygon fill="#63b8ff" stroke="#63b8ff" points="159.02,-243.01 149.14,-239.17 154.47,-248.33 159.02,-243.01"/>
</a>
</g>
</g>
<!-- Node23 -->
<g id="Node000023" class="node">
<title>Node23</title>
<g id="a_Node000023"><a xlink:href="_i_event_bus_connection_kit_8h.html" target="_top" xlink:title="Defines the interface for components that can connect to an EventBus.">
<polygon fill="white" stroke="#666666" points="335.5,-239 192.5,-239 192.5,-220 335.5,-220 335.5,-239"/>
<text text-anchor="middle" x="264" y="-227" font-family="Helvetica,sans-Serif" font-size="10.00">IEventBusConnectionKit.h</text>
</a>
</g>
</g>
<!-- Node18&#45;&gt;Node23 -->
<g id="edge36_Node000018_Node000023" class="edge">
<title>Node18&#45;&gt;Node23</title>
<g id="a_edge36_Node000018_Node000023"><a xlink:title=" ">
<path fill="none" stroke="#63b8ff" d="M206.24,-274.75C214.05,-266.72 228.06,-254.67 240.44,-245.18"/>
<polygon fill="#63b8ff" stroke="#63b8ff" points="242.71,-247.85 248.66,-239.09 238.54,-242.23 242.71,-247.85"/>
</a>
</g>
</g>
<!-- Node19&#45;&gt;Node3 -->
<g id="edge29_Node000019_Node000003" class="edge">
<title>Node19&#45;&gt;Node3</title>
<g id="a_edge29_Node000019_Node000003"><a xlink:title=" ">
<path fill="none" stroke="#63b8ff" d="M420.36,-219.98C401.7,-211.46 372.75,-198.23 351.26,-188.41"/>
<polygon fill="#63b8ff" stroke="#63b8ff" points="352.53,-185.14 341.98,-184.17 349.62,-191.51 352.53,-185.14"/>
</a>
</g>
</g>
<!-- Node20 -->
<g id="Node000020" class="node">
<title>Node20</title>
<g id="a_Node000020"><a xlink:href="_limited_queue_8h.html" target="_top" xlink:title=" ">
<polygon fill="white" stroke="#666666" points="462,-184 368,-184 368,-165 462,-165 462,-184"/>
<text text-anchor="middle" x="415" y="-172" font-family="Helvetica,sans-Serif" font-size="10.00">LimitedQueue.h</text>
</a>
</g>
</g>
<!-- Node19&#45;&gt;Node20 -->
<g id="edge30_Node000019_Node000020" class="edge">
<title>Node19&#45;&gt;Node20</title>
<g id="a_edge30_Node000019_Node000020"><a xlink:title=" ">
<path fill="none" stroke="#63b8ff" d="M435.04,-219.75C431.79,-212.57 427.08,-202.18 423.05,-193.27"/>
<polygon fill="#63b8ff" stroke="#63b8ff" points="426.2,-191.75 418.89,-184.09 419.83,-194.64 426.2,-191.75"/>
</a>
</g>
</g>
<!-- Node21 -->
<g id="Node000021" class="node">
<title>Node21</title>
<g id="a_Node000021"><a xlink:href="_map_8h.html" target="_top" xlink:title=" ">
<polygon fill="white" stroke="#666666" points="527.5,-184 480.5,-184 480.5,-165 527.5,-165 527.5,-184"/>
<text text-anchor="middle" x="504" y="-172" font-family="Helvetica,sans-Serif" font-size="10.00">Map.h</text>
</a>
</g>
</g>
<!-- Node19&#45;&gt;Node21 -->
<g id="edge32_Node000019_Node000021" class="edge">
<title>Node19&#45;&gt;Node21</title>
<g id="a_edge32_Node000019_Node000021"><a xlink:title=" ">
<path fill="none" stroke="#63b8ff" d="M449.44,-219.98C459.15,-212.07 473.82,-200.11 485.5,-190.58"/>
<polygon fill="#63b8ff" stroke="#63b8ff" points="487.83,-193.2 493.37,-184.17 483.4,-187.78 487.83,-193.2"/>
</a>
</g>
</g>
<!-- Node20&#45;&gt;Node13 -->
<g id="edge31_Node000020_Node000013" class="edge">
<title>Node20&#45;&gt;Node13</title>
<g id="a_edge31_Node000020_Node000013"><a xlink:title=" ">
<path fill="none" stroke="#63b8ff" d="M442.22,-164.91C460.18,-157.93 482.91,-146.35 497,-129 507.32,-116.3 512.03,-98.12 514.19,-84.46"/>
<polygon fill="#63b8ff" stroke="#63b8ff" points="517.7,-84.63 515.46,-74.28 510.75,-83.76 517.7,-84.63"/>
</a>
</g>
</g>
<!-- Node21&#45;&gt;Node4 -->
<g id="edge33_Node000021_Node000004" class="edge">
<title>Node21&#45;&gt;Node4</title>
<g id="a_edge33_Node000021_Node000004"><a xlink:title=" ">
<path fill="none" stroke="#63b8ff" d="M480.36,-165.91C452.94,-157.1 407.42,-142.48 375.46,-132.21"/>
<polygon fill="#63b8ff" stroke="#63b8ff" points="376.19,-128.77 365.6,-129.05 374.05,-135.44 376.19,-128.77"/>
</a>
</g>
</g>
<!-- Node21&#45;&gt;Node14 -->
<g id="edge34_Node000021_Node000014" class="edge">
<title>Node21&#45;&gt;Node14</title>
<g id="a_edge34_Node000021_Node000014"><a xlink:title=" ">
<path fill="none" stroke="#63b8ff" d="M527.7,-165.79C554.87,-156.96 599.69,-142.38 631.14,-132.16"/>
<polygon fill="#63b8ff" stroke="#63b8ff" points="632.41,-135.43 640.84,-129.01 630.25,-128.77 632.41,-135.43"/>
</a>
</g>
</g>
<!-- Node23&#45;&gt;Node18 -->
<g id="edge37_Node000023_Node000018" class="edge">
<title>Node23&#45;&gt;Node18</title>
<g id="a_edge37_Node000023_Node000018"><a xlink:title=" ">
<path fill="none" stroke="#63b8ff" d="M258.84,-239.17C251.03,-247.21 236.93,-259.34 224.49,-268.88"/>
<polygon fill="#63b8ff" stroke="#63b8ff" points="222.19,-266.22 216.24,-274.98 226.36,-271.85 222.19,-266.22"/>
</a>
</g>
</g>
</g>
</svg>
