<?xml version="1.0" encoding="UTF-8" standalone="no"?>
<!DOCTYPE svg PUBLIC "-//W3C//DTD SVG 1.1//EN"
 "http://www.w3.org/Graphics/SVG/1.1/DTD/svg11.dtd">
<!-- Generated by graphviz version 2.43.0 (0)
 -->
<!-- Title: EventEmitter.h Pages: 1 -->
<svg width="619pt" height="247pt"
 viewBox="0.00 0.00 618.50 247.00" xmlns="http://www.w3.org/2000/svg" xmlns:xlink="http://www.w3.org/1999/xlink">
<g id="graph0" class="graph" transform="scale(1 1) rotate(0) translate(4 243)">
<title>EventEmitter.h</title>
<!-- Node1 -->
<g id="Node000001" class="node">
<title>Node1</title>
<g id="a_Node000001"><a xlink:title=" ">
<polygon fill="#999999" stroke="#666666" points="186,-239 97,-239 97,-220 186,-220 186,-239"/>
<text text-anchor="middle" x="141.5" y="-227" font-family="Helvetica,sans-Serif" font-size="10.00">EventEmitter.h</text>
</a>
</g>
</g>
<!-- Node2 -->
<g id="Node000002" class="node">
<title>Node2</title>
<g id="a_Node000002"><a xlink:href="_bytes_8h.html" target="_top" xlink:title=" ">
<polygon fill="white" stroke="#666666" points="414,-184 361,-184 361,-165 414,-165 414,-184"/>
<text text-anchor="middle" x="387.5" y="-172" font-family="Helvetica,sans-Serif" font-size="10.00">Bytes.h</text>
</a>
</g>
</g>
<!-- Node1&#45;&gt;Node2 -->
<g id="edge1_Node000001_Node000002" class="edge">
<title>Node1&#45;&gt;Node2</title>
<g id="a_edge1_Node000001_Node000002"><a xlink:title=" ">
<path fill="none" stroke="#63b8ff" d="M181.02,-219.98C227.9,-209.89 305.39,-193.19 350.93,-183.38"/>
<polygon fill="#63b8ff" stroke="#63b8ff" points="351.92,-186.75 360.96,-181.22 350.45,-179.9 351.92,-186.75"/>
</a>
</g>
</g>
<!-- Node12 -->
<g id="Node000012" class="node">
<title>Node12</title>
<g id="a_Node000012"><a xlink:href="_iterable_queue_8h.html" target="_top" xlink:title=" ">
<polygon fill="white" stroke="#666666" points="95,-129 0,-129 0,-110 95,-110 95,-129"/>
<text text-anchor="middle" x="47.5" y="-117" font-family="Helvetica,sans-Serif" font-size="10.00">IterableQueue.h</text>
</a>
</g>
</g>
<!-- Node1&#45;&gt;Node12 -->
<g id="edge11_Node000001_Node000012" class="edge">
<title>Node1&#45;&gt;Node12</title>
<g id="a_edge11_Node000001_Node000012"><a xlink:title=" ">
<path fill="none" stroke="#63b8ff" d="M130.75,-219.9C120.38,-211.36 104.54,-197.59 92.5,-184 79.52,-169.35 66.82,-150.95 58.24,-137.73"/>
<polygon fill="#63b8ff" stroke="#63b8ff" points="61.1,-135.71 52.78,-129.15 55.2,-139.47 61.1,-135.71"/>
</a>
</g>
</g>
<!-- Node14 -->
<g id="Node000014" class="node">
<title>Node14</title>
<g id="a_Node000014"><a xlink:href="_event_entity_8h.html" target="_top" xlink:title=" ">
<polygon fill="white" stroke="#666666" points="181.5,-184 101.5,-184 101.5,-165 181.5,-165 181.5,-184"/>
<text text-anchor="middle" x="141.5" y="-172" font-family="Helvetica,sans-Serif" font-size="10.00">EventEntity.h</text>
</a>
</g>
</g>
<!-- Node1&#45;&gt;Node14 -->
<g id="edge15_Node000001_Node000014" class="edge">
<title>Node1&#45;&gt;Node14</title>
<g id="a_edge15_Node000001_Node000014"><a xlink:title=" ">
<path fill="none" stroke="#63b8ff" d="M141.5,-219.75C141.5,-212.8 141.5,-202.85 141.5,-194.13"/>
<polygon fill="#63b8ff" stroke="#63b8ff" points="145,-194.09 141.5,-184.09 138,-194.09 145,-194.09"/>
</a>
</g>
</g>
<!-- Node3 -->
<g id="Node000003" class="node">
<title>Node3</title>
<g id="a_Node000003"><a xlink:href="_common_8h.html" target="_top" xlink:title=" ">
<polygon fill="white" stroke="#666666" points="422.5,-129 352.5,-129 352.5,-110 422.5,-110 422.5,-129"/>
<text text-anchor="middle" x="387.5" y="-117" font-family="Helvetica,sans-Serif" font-size="10.00">Common.h</text>
</a>
</g>
</g>
<!-- Node2&#45;&gt;Node3 -->
<g id="edge2_Node000002_Node000003" class="edge">
<title>Node2&#45;&gt;Node3</title>
<g id="a_edge2_Node000002_Node000003"><a xlink:title=" ">
<path fill="none" stroke="#63b8ff" d="M387.5,-164.75C387.5,-157.8 387.5,-147.85 387.5,-139.13"/>
<polygon fill="#63b8ff" stroke="#63b8ff" points="391,-139.09 387.5,-129.09 384,-139.09 391,-139.09"/>
</a>
</g>
</g>
<!-- Node6 -->
<g id="Node000006" class="node">
<title>Node6</title>
<g id="a_Node000006"><a xlink:href="_logger_8h.html" target="_top" xlink:title=" ">
<polygon fill="white" stroke="#666666" points="246.5,-129 188.5,-129 188.5,-110 246.5,-110 246.5,-129"/>
<text text-anchor="middle" x="217.5" y="-117" font-family="Helvetica,sans-Serif" font-size="10.00">Logger.h</text>
</a>
</g>
</g>
<!-- Node2&#45;&gt;Node6 -->
<g id="edge5_Node000002_Node000006" class="edge">
<title>Node2&#45;&gt;Node6</title>
<g id="a_edge5_Node000002_Node000006"><a xlink:title=" ">
<path fill="none" stroke="#63b8ff" d="M360.94,-165.22C332.46,-156.34 287.01,-142.17 254.91,-132.16"/>
<polygon fill="#63b8ff" stroke="#63b8ff" points="255.59,-128.71 245,-129.07 253.51,-135.39 255.59,-128.71"/>
</a>
</g>
</g>
<!-- Node8 -->
<g id="Node000008" class="node">
<title>Node8</title>
<g id="a_Node000008"><a xlink:title=" ">
<polygon fill="#e0e0e0" stroke="#999999" points="542.5,-129 478.5,-129 478.5,-110 542.5,-110 542.5,-129"/>
<text text-anchor="middle" x="510.5" y="-117" font-family="Helvetica,sans-Serif" font-size="10.00">WString.h</text>
</a>
</g>
</g>
<!-- Node2&#45;&gt;Node8 -->
<g id="edge7_Node000002_Node000008" class="edge">
<title>Node2&#45;&gt;Node8</title>
<g id="a_edge7_Node000002_Node000008"><a xlink:title=" ">
<path fill="none" stroke="#63b8ff" d="M407.26,-164.98C427.23,-156.38 458.3,-142.99 481.15,-133.15"/>
<polygon fill="#63b8ff" stroke="#63b8ff" points="482.58,-136.34 490.38,-129.17 479.81,-129.91 482.58,-136.34"/>
</a>
</g>
</g>
<!-- Node9 -->
<g id="Node000009" class="node">
<title>Node9</title>
<g id="a_Node000009"><a xlink:title=" ">
<polygon fill="#e0e0e0" stroke="#999999" points="610.5,-129 560.5,-129 560.5,-110 610.5,-110 610.5,-129"/>
<text text-anchor="middle" x="585.5" y="-117" font-family="Helvetica,sans-Serif" font-size="10.00">stdio.h</text>
</a>
</g>
</g>
<!-- Node2&#45;&gt;Node9 -->
<g id="edge8_Node000002_Node000009" class="edge">
<title>Node2&#45;&gt;Node9</title>
<g id="a_edge8_Node000002_Node000009"><a xlink:title=" ">
<path fill="none" stroke="#63b8ff" d="M414.2,-166.35C449.47,-156.91 511.67,-140.26 550.62,-129.84"/>
<polygon fill="#63b8ff" stroke="#63b8ff" points="551.71,-133.17 560.47,-127.2 549.9,-126.41 551.71,-133.17"/>
</a>
</g>
</g>
<!-- Node10 -->
<g id="Node000010" class="node">
<title>Node10</title>
<g id="a_Node000010"><a xlink:title=" ">
<polygon fill="#e0e0e0" stroke="#999999" points="390,-19 325,-19 325,0 390,0 390,-19"/>
<text text-anchor="middle" x="357.5" y="-7" font-family="Helvetica,sans-Serif" font-size="10.00">functional</text>
</a>
</g>
</g>
<!-- Node2&#45;&gt;Node10 -->
<g id="edge9_Node000002_Node000010" class="edge">
<title>Node2&#45;&gt;Node10</title>
<g id="a_edge9_Node000002_Node000010"><a xlink:title=" ">
<path fill="none" stroke="#63b8ff" d="M400.28,-165C410.89,-157.1 425.22,-144.27 431.5,-129 438.11,-112.92 435.82,-71.83 425.5,-55 417.05,-41.22 402.55,-30.86 389.1,-23.62"/>
<polygon fill="#63b8ff" stroke="#63b8ff" points="390.55,-20.44 380.04,-19.1 387.43,-26.7 390.55,-20.44"/>
</a>
</g>
</g>
<!-- Node11 -->
<g id="Node000011" class="node">
<title>Node11</title>
<g id="a_Node000011"><a xlink:title=" ">
<polygon fill="#e0e0e0" stroke="#999999" points="334,-129 265,-129 265,-110 334,-110 334,-129"/>
<text text-anchor="middle" x="299.5" y="-117" font-family="Helvetica,sans-Serif" font-size="10.00">type_traits</text>
</a>
</g>
</g>
<!-- Node2&#45;&gt;Node11 -->
<g id="edge10_Node000002_Node000011" class="edge">
<title>Node2&#45;&gt;Node11</title>
<g id="a_edge10_Node000002_Node000011"><a xlink:title=" ">
<path fill="none" stroke="#63b8ff" d="M373.36,-164.98C359.71,-156.77 338.81,-144.18 322.72,-134.49"/>
<polygon fill="#63b8ff" stroke="#63b8ff" points="324.27,-131.33 313.9,-129.17 320.66,-137.33 324.27,-131.33"/>
</a>
</g>
</g>
<!-- Node4 -->
<g id="Node000004" class="node">
<title>Node4</title>
<g id="a_Node000004"><a xlink:title=" ">
<polygon fill="#e0e0e0" stroke="#999999" points="352.5,-74 294.5,-74 294.5,-55 352.5,-55 352.5,-74"/>
<text text-anchor="middle" x="323.5" y="-62" font-family="Helvetica,sans-Serif" font-size="10.00">memory</text>
</a>
</g>
</g>
<!-- Node3&#45;&gt;Node4 -->
<g id="edge3_Node000003_Node000004" class="edge">
<title>Node3&#45;&gt;Node4</title>
<g id="a_edge3_Node000003_Node000004"><a xlink:title=" ">
<path fill="none" stroke="#63b8ff" d="M377.22,-109.98C367.66,-102.07 353.22,-90.11 341.72,-80.58"/>
<polygon fill="#63b8ff" stroke="#63b8ff" points="343.9,-77.85 333.97,-74.17 339.44,-83.24 343.9,-77.85"/>
</a>
</g>
</g>
<!-- Node5 -->
<g id="Node000005" class="node">
<title>Node5</title>
<g id="a_Node000005"><a xlink:title=" ">
<polygon fill="#e0e0e0" stroke="#999999" points="416,-74 371,-74 371,-55 416,-55 416,-74"/>
<text text-anchor="middle" x="393.5" y="-62" font-family="Helvetica,sans-Serif" font-size="10.00">utility</text>
</a>
</g>
</g>
<!-- Node3&#45;&gt;Node5 -->
<g id="edge4_Node000003_Node000005" class="edge">
<title>Node3&#45;&gt;Node5</title>
<g id="a_edge4_Node000003_Node000005"><a xlink:title=" ">
<path fill="none" stroke="#63b8ff" d="M388.49,-109.75C389.28,-102.8 390.4,-92.85 391.39,-84.13"/>
<polygon fill="#63b8ff" stroke="#63b8ff" points="394.88,-84.42 392.53,-74.09 387.92,-83.63 394.88,-84.42"/>
</a>
</g>
</g>
<!-- Node7 -->
<g id="Node000007" class="node">
<title>Node7</title>
<g id="a_Node000007"><a xlink:title=" ">
<polygon fill="#e0e0e0" stroke="#999999" points="214,-19 151,-19 151,0 214,0 214,-19"/>
<text text-anchor="middle" x="182.5" y="-7" font-family="Helvetica,sans-Serif" font-size="10.00">Arduino.h</text>
</a>
</g>
</g>
<!-- Node6&#45;&gt;Node7 -->
<g id="edge6_Node000006_Node000007" class="edge">
<title>Node6&#45;&gt;Node7</title>
<g id="a_edge6_Node000006_Node000007"><a xlink:title=" ">
<path fill="none" stroke="#63b8ff" d="M215.07,-109.83C211.59,-97.56 204.9,-74.46 198.5,-55 195.64,-46.32 192.25,-36.79 189.32,-28.77"/>
<polygon fill="#63b8ff" stroke="#63b8ff" points="192.58,-27.48 185.83,-19.32 186.01,-29.91 192.58,-27.48"/>
</a>
</g>
</g>
<!-- Node13 -->
<g id="Node000013" class="node">
<title>Node13</title>
<g id="a_Node000013"><a xlink:href="_clear_queue_8h.html" target="_top" xlink:title=" ">
<polygon fill="white" stroke="#666666" points="189,-74 106,-74 106,-55 189,-55 189,-74"/>
<text text-anchor="middle" x="147.5" y="-62" font-family="Helvetica,sans-Serif" font-size="10.00">ClearQueue.h</text>
</a>
</g>
</g>
<!-- Node12&#45;&gt;Node13 -->
<g id="edge12_Node000012_Node000013" class="edge">
<title>Node12&#45;&gt;Node13</title>
<g id="a_edge12_Node000012_Node000013"><a xlink:title=" ">
<path fill="none" stroke="#63b8ff" d="M63.57,-109.98C79.36,-101.61 103.72,-88.7 122.13,-78.95"/>
<polygon fill="#63b8ff" stroke="#63b8ff" points="123.94,-81.95 131.14,-74.17 120.67,-75.76 123.94,-81.95"/>
</a>
</g>
</g>
<!-- Node13&#45;&gt;Node7 -->
<g id="edge13_Node000013_Node000007" class="edge">
<title>Node13&#45;&gt;Node7</title>
<g id="a_edge13_Node000013_Node000007"><a xlink:title=" ">
<path fill="none" stroke="#63b8ff" d="M153.28,-54.75C158.12,-47.42 165.18,-36.73 171.14,-27.7"/>
<polygon fill="#63b8ff" stroke="#63b8ff" points="174.24,-29.36 176.83,-19.09 168.4,-25.5 174.24,-29.36"/>
</a>
</g>
</g>
<!-- Node13&#45;&gt;Node10 -->
<g id="edge14_Node000013_Node000010" class="edge">
<title>Node13&#45;&gt;Node10</title>
<g id="a_edge14_Node000013_Node000010"><a xlink:title=" ">
<path fill="none" stroke="#63b8ff" d="M181.24,-54.98C217.61,-45.81 275.58,-31.18 315.03,-21.22"/>
<polygon fill="#63b8ff" stroke="#63b8ff" points="316.04,-24.57 324.88,-18.73 314.33,-17.79 316.04,-24.57"/>
</a>
</g>
</g>
<!-- Node14&#45;&gt;Node6 -->
<g id="edge17_Node000014_Node000006" class="edge">
<title>Node14&#45;&gt;Node6</title>
<g id="a_edge17_Node000014_Node000006"><a xlink:title=" ">
<path fill="none" stroke="#63b8ff" d="M153.71,-164.98C165.28,-156.92 182.88,-144.65 196.66,-135.03"/>
<polygon fill="#63b8ff" stroke="#63b8ff" points="198.87,-137.76 205.07,-129.17 194.86,-132.02 198.87,-137.76"/>
</a>
</g>
</g>
<!-- Node14&#45;&gt;Node12 -->
<g id="edge16_Node000014_Node000012" class="edge">
<title>Node14&#45;&gt;Node12</title>
<g id="a_edge16_Node000014_Node000012"><a xlink:title=" ">
<path fill="none" stroke="#63b8ff" d="M126.4,-164.98C111.68,-156.69 89.08,-143.94 71.83,-134.22"/>
<polygon fill="#63b8ff" stroke="#63b8ff" points="73.31,-131.03 62.88,-129.17 69.87,-137.13 73.31,-131.03"/>
</a>
</g>
</g>
<!-- Node15 -->
<g id="Node000015" class="node">
<title>Node15</title>
<g id="a_Node000015"><a xlink:href="_type_id_8h.html" target="_top" xlink:title=" ">
<polygon fill="white" stroke="#666666" points="170,-129 113,-129 113,-110 170,-110 170,-129"/>
<text text-anchor="middle" x="141.5" y="-117" font-family="Helvetica,sans-Serif" font-size="10.00">TypeId.h</text>
</a>
</g>
</g>
<!-- Node14&#45;&gt;Node15 -->
<g id="edge18_Node000014_Node000015" class="edge">
<title>Node14&#45;&gt;Node15</title>
<g id="a_edge18_Node000014_Node000015"><a xlink:title=" ">
<path fill="none" stroke="#63b8ff" d="M141.5,-164.75C141.5,-157.8 141.5,-147.85 141.5,-139.13"/>
<polygon fill="#63b8ff" stroke="#63b8ff" points="145,-139.09 141.5,-129.09 138,-139.09 145,-139.09"/>
</a>
</g>
</g>
</g>
</svg>
