<?xml version="1.0" encoding="UTF-8" standalone="no"?>
<!DOCTYPE svg PUBLIC "-//W3C//DTD SVG 1.1//EN"
 "http://www.w3.org/Graphics/SVG/1.1/DTD/svg11.dtd">
<!-- Generated by graphviz version 2.43.0 (0)
 -->
<!-- Title: EventBus.h Pages: 1 -->
<svg width="522pt" height="302pt"
 viewBox="0.00 0.00 521.84 302.00" xmlns="http://www.w3.org/2000/svg" xmlns:xlink="http://www.w3.org/1999/xlink">
<g id="graph0" class="graph" transform="scale(1 1) rotate(0) translate(4 298)">
<title>EventBus.h</title>
<!-- Node1 -->
<g id="Node000001" class="node">
<title>Node1</title>
<g id="a_Node000001"><a xlink:title=" ">
<polygon fill="#999999" stroke="#666666" points="308,-294 237,-294 237,-275 308,-275 308,-294"/>
<text text-anchor="middle" x="272.5" y="-282" font-family="Helvetica,sans-Serif" font-size="10.00">EventBus.h</text>
</a>
</g>
</g>
<!-- Node2 -->
<g id="Node000002" class="node">
<title>Node2</title>
<g id="a_Node000002"><a xlink:href="_bytes_8h.html" target="_top" xlink:title=" ">
<polygon fill="white" stroke="#666666" points="308,-184 255,-184 255,-165 308,-165 308,-184"/>
<text text-anchor="middle" x="281.5" y="-172" font-family="Helvetica,sans-Serif" font-size="10.00">Bytes.h</text>
</a>
</g>
</g>
<!-- Node1&#45;&gt;Node2 -->
<g id="edge1_Node000001_Node000002" class="edge">
<title>Node1&#45;&gt;Node2</title>
<g id="a_edge1_Node000001_Node000002"><a xlink:title=" ">
<path fill="none" stroke="#63b8ff" d="M268.62,-274.83C263.64,-262.57 256.13,-239.49 260.5,-220 262.58,-210.74 266.8,-201.14 270.93,-193.23"/>
<polygon fill="#63b8ff" stroke="#63b8ff" points="274.1,-194.72 275.92,-184.28 267.99,-191.31 274.1,-194.72"/>
</a>
</g>
</g>
<!-- Node12 -->
<g id="Node000012" class="node">
<title>Node12</title>
<g id="a_Node000012"><a xlink:href="_clear_queue_8h.html" target="_top" xlink:title=" ">
<polygon fill="white" stroke="#666666" points="83,-74 0,-74 0,-55 83,-55 83,-74"/>
<text text-anchor="middle" x="41.5" y="-62" font-family="Helvetica,sans-Serif" font-size="10.00">ClearQueue.h</text>
</a>
</g>
</g>
<!-- Node1&#45;&gt;Node12 -->
<g id="edge11_Node000001_Node000012" class="edge">
<title>Node1&#45;&gt;Node12</title>
<g id="a_edge11_Node000001_Node000012"><a xlink:title=" ">
<path fill="none" stroke="#63b8ff" d="M236.82,-282.8C176.82,-279.4 57.73,-262.57 11.5,-184 -7.69,-151.38 14.41,-106.71 29.59,-82.6"/>
<polygon fill="#63b8ff" stroke="#63b8ff" points="32.57,-84.44 35.16,-74.16 26.73,-80.58 32.57,-84.44"/>
</a>
</g>
</g>
<!-- Node13 -->
<g id="Node000013" class="node">
<title>Node13</title>
<g id="a_Node000013"><a xlink:href="_data_channels_8h.html" target="_top" xlink:title=" ">
<polygon fill="white" stroke="#666666" points="213.5,-239 119.5,-239 119.5,-220 213.5,-220 213.5,-239"/>
<text text-anchor="middle" x="166.5" y="-227" font-family="Helvetica,sans-Serif" font-size="10.00">DataChannels.h</text>
</a>
</g>
</g>
<!-- Node1&#45;&gt;Node13 -->
<g id="edge14_Node000001_Node000013" class="edge">
<title>Node1&#45;&gt;Node13</title>
<g id="a_edge14_Node000001_Node000013"><a xlink:title=" ">
<path fill="none" stroke="#63b8ff" d="M255.47,-274.98C238.57,-266.54 212.44,-253.47 192.86,-243.68"/>
<polygon fill="#63b8ff" stroke="#63b8ff" points="194.35,-240.51 183.84,-239.17 191.22,-246.77 194.35,-240.51"/>
</a>
</g>
</g>
<!-- Node17 -->
<g id="Node000017" class="node">
<title>Node17</title>
<g id="a_Node000017"><a xlink:href="_i_executor_8h.html" target="_top" xlink:title=" ">
<polygon fill="white" stroke="#666666" points="339.5,-239 269.5,-239 269.5,-220 339.5,-220 339.5,-239"/>
<text text-anchor="middle" x="304.5" y="-227" font-family="Helvetica,sans-Serif" font-size="10.00">IExecutor.h</text>
</a>
</g>
</g>
<!-- Node1&#45;&gt;Node17 -->
<g id="edge22_Node000001_Node000017" class="edge">
<title>Node1&#45;&gt;Node17</title>
<g id="a_edge22_Node000001_Node000017"><a xlink:title=" ">
<path fill="none" stroke="#63b8ff" d="M277.78,-274.75C282.21,-267.42 288.66,-256.73 294.12,-247.7"/>
<polygon fill="#63b8ff" stroke="#63b8ff" points="297.14,-249.46 299.31,-239.09 291.15,-245.84 297.14,-249.46"/>
</a>
</g>
</g>
<!-- Node18 -->
<g id="Node000018" class="node">
<title>Node18</title>
<g id="a_Node000018"><a xlink:href="_i_event_bus_connection_kit_8h.html" target="_top" xlink:title="Defines the interface for components that can connect to an EventBus.">
<polygon fill="white" stroke="#666666" points="501,-239 358,-239 358,-220 501,-220 501,-239"/>
<text text-anchor="middle" x="429.5" y="-227" font-family="Helvetica,sans-Serif" font-size="10.00">IEventBusConnectionKit.h</text>
</a>
</g>
</g>
<!-- Node1&#45;&gt;Node18 -->
<g id="edge23_Node000001_Node000018" class="edge">
<title>Node1&#45;&gt;Node18</title>
<g id="a_edge23_Node000001_Node000018"><a xlink:title=" ">
<path fill="none" stroke="#63b8ff" d="M292.61,-274.98C317.01,-266.09 358.34,-252.07 389.3,-242.15"/>
<polygon fill="#63b8ff" stroke="#63b8ff" points="390.48,-245.44 398.95,-239.08 388.36,-238.77 390.48,-245.44"/>
</a>
</g>
</g>
<!-- Node3 -->
<g id="Node000003" class="node">
<title>Node3</title>
<g id="a_Node000003"><a xlink:href="_common_8h.html" target="_top" xlink:title=" ">
<polygon fill="white" stroke="#666666" points="223.5,-129 153.5,-129 153.5,-110 223.5,-110 223.5,-129"/>
<text text-anchor="middle" x="188.5" y="-117" font-family="Helvetica,sans-Serif" font-size="10.00">Common.h</text>
</a>
</g>
</g>
<!-- Node2&#45;&gt;Node3 -->
<g id="edge2_Node000002_Node000003" class="edge">
<title>Node2&#45;&gt;Node3</title>
<g id="a_edge2_Node000002_Node000003"><a xlink:title=" ">
<path fill="none" stroke="#63b8ff" d="M266.56,-164.98C252,-156.69 229.63,-143.94 212.57,-134.22"/>
<polygon fill="#63b8ff" stroke="#63b8ff" points="214.14,-131.08 203.71,-129.17 210.67,-137.16 214.14,-131.08"/>
</a>
</g>
</g>
<!-- Node6 -->
<g id="Node000006" class="node">
<title>Node6</title>
<g id="a_Node000006"><a xlink:href="_logger_8h.html" target="_top" xlink:title=" ">
<polygon fill="white" stroke="#666666" points="446.5,-74 388.5,-74 388.5,-55 446.5,-55 446.5,-74"/>
<text text-anchor="middle" x="417.5" y="-62" font-family="Helvetica,sans-Serif" font-size="10.00">Logger.h</text>
</a>
</g>
</g>
<!-- Node2&#45;&gt;Node6 -->
<g id="edge5_Node000002_Node000006" class="edge">
<title>Node2&#45;&gt;Node6</title>
<g id="a_edge5_Node000002_Node000006"><a xlink:title=" ">
<path fill="none" stroke="#63b8ff" d="M308.11,-172.37C362.49,-169.43 483.36,-159.54 508.5,-129 527.69,-105.68 489.25,-87.11 456.56,-76.21"/>
<polygon fill="#63b8ff" stroke="#63b8ff" points="457.26,-72.76 446.67,-73.08 455.15,-79.44 457.26,-72.76"/>
</a>
</g>
</g>
<!-- Node8 -->
<g id="Node000008" class="node">
<title>Node8</title>
<g id="a_Node000008"><a xlink:title=" ">
<polygon fill="#e0e0e0" stroke="#999999" points="343.5,-129 279.5,-129 279.5,-110 343.5,-110 343.5,-129"/>
<text text-anchor="middle" x="311.5" y="-117" font-family="Helvetica,sans-Serif" font-size="10.00">WString.h</text>
</a>
</g>
</g>
<!-- Node2&#45;&gt;Node8 -->
<g id="edge7_Node000002_Node000008" class="edge">
<title>Node2&#45;&gt;Node8</title>
<g id="a_edge7_Node000002_Node000008"><a xlink:title=" ">
<path fill="none" stroke="#63b8ff" d="M286.45,-164.75C290.56,-157.49 296.53,-146.95 301.6,-137.98"/>
<polygon fill="#63b8ff" stroke="#63b8ff" points="304.76,-139.52 306.64,-129.09 298.67,-136.07 304.76,-139.52"/>
</a>
</g>
</g>
<!-- Node9 -->
<g id="Node000009" class="node">
<title>Node9</title>
<g id="a_Node000009"><a xlink:title=" ">
<polygon fill="#e0e0e0" stroke="#999999" points="411.5,-129 361.5,-129 361.5,-110 411.5,-110 411.5,-129"/>
<text text-anchor="middle" x="386.5" y="-117" font-family="Helvetica,sans-Serif" font-size="10.00">stdio.h</text>
</a>
</g>
</g>
<!-- Node2&#45;&gt;Node9 -->
<g id="edge8_Node000002_Node000009" class="edge">
<title>Node2&#45;&gt;Node9</title>
<g id="a_edge8_Node000002_Node000009"><a xlink:title=" ">
<path fill="none" stroke="#63b8ff" d="M298.37,-164.98C315.11,-156.54 341,-143.47 360.39,-133.68"/>
<polygon fill="#63b8ff" stroke="#63b8ff" points="361.97,-136.8 369.32,-129.17 358.82,-130.55 361.97,-136.8"/>
</a>
</g>
</g>
<!-- Node10 -->
<g id="Node000010" class="node">
<title>Node10</title>
<g id="a_Node000010"><a xlink:title=" ">
<polygon fill="#e0e0e0" stroke="#999999" points="166,-19 101,-19 101,0 166,0 166,-19"/>
<text text-anchor="middle" x="133.5" y="-7" font-family="Helvetica,sans-Serif" font-size="10.00">functional</text>
</a>
</g>
</g>
<!-- Node2&#45;&gt;Node10 -->
<g id="edge9_Node000002_Node000010" class="edge">
<title>Node2&#45;&gt;Node10</title>
<g id="a_edge9_Node000002_Node000010"><a xlink:title=" ">
<path fill="none" stroke="#63b8ff" d="M278.79,-164.67C271.11,-140.11 248.7,-71.7 232.5,-55 217.12,-39.15 195.08,-28.48 175.69,-21.58"/>
<polygon fill="#63b8ff" stroke="#63b8ff" points="176.73,-18.24 166.14,-18.4 174.52,-24.88 176.73,-18.24"/>
</a>
</g>
</g>
<!-- Node11 -->
<g id="Node000011" class="node">
<title>Node11</title>
<g id="a_Node000011"><a xlink:title=" ">
<polygon fill="#e0e0e0" stroke="#999999" points="499,-129 430,-129 430,-110 499,-110 499,-129"/>
<text text-anchor="middle" x="464.5" y="-117" font-family="Helvetica,sans-Serif" font-size="10.00">type_traits</text>
</a>
</g>
</g>
<!-- Node2&#45;&gt;Node11 -->
<g id="edge10_Node000002_Node000011" class="edge">
<title>Node2&#45;&gt;Node11</title>
<g id="a_edge10_Node000002_Node000011"><a xlink:title=" ">
<path fill="none" stroke="#63b8ff" d="M308.11,-165.79C338.88,-156.88 389.81,-142.13 425.15,-131.9"/>
<polygon fill="#63b8ff" stroke="#63b8ff" points="426.5,-135.15 435.13,-129.01 424.55,-128.43 426.5,-135.15"/>
</a>
</g>
</g>
<!-- Node4 -->
<g id="Node000004" class="node">
<title>Node4</title>
<g id="a_Node000004"><a xlink:title=" ">
<polygon fill="#e0e0e0" stroke="#999999" points="159.5,-74 101.5,-74 101.5,-55 159.5,-55 159.5,-74"/>
<text text-anchor="middle" x="130.5" y="-62" font-family="Helvetica,sans-Serif" font-size="10.00">memory</text>
</a>
</g>
</g>
<!-- Node3&#45;&gt;Node4 -->
<g id="edge3_Node000003_Node000004" class="edge">
<title>Node3&#45;&gt;Node4</title>
<g id="a_edge3_Node000003_Node000004"><a xlink:title=" ">
<path fill="none" stroke="#63b8ff" d="M179.18,-109.98C170.69,-102.23 157.94,-90.58 147.62,-81.14"/>
<polygon fill="#63b8ff" stroke="#63b8ff" points="149.73,-78.33 139.99,-74.17 145.01,-83.5 149.73,-78.33"/>
</a>
</g>
</g>
<!-- Node5 -->
<g id="Node000005" class="node">
<title>Node5</title>
<g id="a_Node000005"><a xlink:title=" ">
<polygon fill="#e0e0e0" stroke="#999999" points="223,-74 178,-74 178,-55 223,-55 223,-74"/>
<text text-anchor="middle" x="200.5" y="-62" font-family="Helvetica,sans-Serif" font-size="10.00">utility</text>
</a>
</g>
</g>
<!-- Node3&#45;&gt;Node5 -->
<g id="edge4_Node000003_Node000005" class="edge">
<title>Node3&#45;&gt;Node5</title>
<g id="a_edge4_Node000003_Node000005"><a xlink:title=" ">
<path fill="none" stroke="#63b8ff" d="M190.48,-109.75C192.07,-102.72 194.36,-92.62 196.35,-83.84"/>
<polygon fill="#63b8ff" stroke="#63b8ff" points="199.76,-84.62 198.56,-74.09 192.93,-83.07 199.76,-84.62"/>
</a>
</g>
</g>
<!-- Node7 -->
<g id="Node000007" class="node">
<title>Node7</title>
<g id="a_Node000007"><a xlink:title=" ">
<polygon fill="#e0e0e0" stroke="#999999" points="293,-19 230,-19 230,0 293,0 293,-19"/>
<text text-anchor="middle" x="261.5" y="-7" font-family="Helvetica,sans-Serif" font-size="10.00">Arduino.h</text>
</a>
</g>
</g>
<!-- Node6&#45;&gt;Node7 -->
<g id="edge6_Node000006_Node000007" class="edge">
<title>Node6&#45;&gt;Node7</title>
<g id="a_edge6_Node000006_Node000007"><a xlink:title=" ">
<path fill="none" stroke="#63b8ff" d="M392.44,-54.98C366.47,-46.16 325.69,-32.31 296.54,-22.41"/>
<polygon fill="#63b8ff" stroke="#63b8ff" points="297.35,-18.99 286.76,-19.08 295.1,-25.61 297.35,-18.99"/>
</a>
</g>
</g>
<!-- Node12&#45;&gt;Node7 -->
<g id="edge12_Node000012_Node000007" class="edge">
<title>Node12&#45;&gt;Node7</title>
<g id="a_edge12_Node000012_Node000007"><a xlink:title=" ">
<path fill="none" stroke="#63b8ff" d="M76.85,-54.98C115.9,-45.58 178.71,-30.44 220.05,-20.49"/>
<polygon fill="#63b8ff" stroke="#63b8ff" points="220.91,-23.88 229.81,-18.13 219.27,-17.07 220.91,-23.88"/>
</a>
</g>
</g>
<!-- Node12&#45;&gt;Node10 -->
<g id="edge13_Node000012_Node000010" class="edge">
<title>Node12&#45;&gt;Node10</title>
<g id="a_edge13_Node000012_Node000010"><a xlink:title=" ">
<path fill="none" stroke="#63b8ff" d="M56.28,-54.98C70.68,-46.69 92.81,-33.94 109.69,-24.22"/>
<polygon fill="#63b8ff" stroke="#63b8ff" points="111.53,-27.19 118.45,-19.17 108.04,-21.13 111.53,-27.19"/>
</a>
</g>
</g>
<!-- Node13&#45;&gt;Node2 -->
<g id="edge15_Node000013_Node000002" class="edge">
<title>Node13&#45;&gt;Node2</title>
<g id="a_edge15_Node000013_Node000002"><a xlink:title=" ">
<path fill="none" stroke="#63b8ff" d="M184.98,-219.98C203.48,-211.46 232.18,-198.23 253.48,-188.41"/>
<polygon fill="#63b8ff" stroke="#63b8ff" points="255.07,-191.53 262.69,-184.17 252.14,-185.18 255.07,-191.53"/>
</a>
</g>
</g>
<!-- Node14 -->
<g id="Node000014" class="node">
<title>Node14</title>
<g id="a_Node000014"><a xlink:href="_limited_queue_8h.html" target="_top" xlink:title=" ">
<polygon fill="white" stroke="#666666" points="114.5,-184 20.5,-184 20.5,-165 114.5,-165 114.5,-184"/>
<text text-anchor="middle" x="67.5" y="-172" font-family="Helvetica,sans-Serif" font-size="10.00">LimitedQueue.h</text>
</a>
</g>
</g>
<!-- Node13&#45;&gt;Node14 -->
<g id="edge16_Node000013_Node000014" class="edge">
<title>Node13&#45;&gt;Node14</title>
<g id="a_edge16_Node000013_Node000014"><a xlink:title=" ">
<path fill="none" stroke="#63b8ff" d="M150.59,-219.98C134.95,-211.61 110.84,-198.7 92.62,-188.95"/>
<polygon fill="#63b8ff" stroke="#63b8ff" points="94.16,-185.8 83.7,-184.17 90.86,-191.98 94.16,-185.8"/>
</a>
</g>
</g>
<!-- Node15 -->
<g id="Node000015" class="node">
<title>Node15</title>
<g id="a_Node000015"><a xlink:href="_map_8h.html" target="_top" xlink:title=" ">
<polygon fill="white" stroke="#666666" points="190,-184 143,-184 143,-165 190,-165 190,-184"/>
<text text-anchor="middle" x="166.5" y="-172" font-family="Helvetica,sans-Serif" font-size="10.00">Map.h</text>
</a>
</g>
</g>
<!-- Node13&#45;&gt;Node15 -->
<g id="edge18_Node000013_Node000015" class="edge">
<title>Node13&#45;&gt;Node15</title>
<g id="a_edge18_Node000013_Node000015"><a xlink:title=" ">
<path fill="none" stroke="#63b8ff" d="M166.5,-219.75C166.5,-212.8 166.5,-202.85 166.5,-194.13"/>
<polygon fill="#63b8ff" stroke="#63b8ff" points="170,-194.09 166.5,-184.09 163,-194.09 170,-194.09"/>
</a>
</g>
</g>
<!-- Node14&#45;&gt;Node12 -->
<g id="edge17_Node000014_Node000012" class="edge">
<title>Node14&#45;&gt;Node12</title>
<g id="a_edge17_Node000014_Node000012"><a xlink:title=" ">
<path fill="none" stroke="#63b8ff" d="M57.06,-164.87C48.08,-156.7 35.76,-143.55 30.5,-129 25.21,-114.37 28.91,-96.89 33.4,-83.98"/>
<polygon fill="#63b8ff" stroke="#63b8ff" points="36.78,-84.96 37.17,-74.38 30.26,-82.41 36.78,-84.96"/>
</a>
</g>
</g>
<!-- Node15&#45;&gt;Node3 -->
<g id="edge19_Node000015_Node000003" class="edge">
<title>Node15&#45;&gt;Node3</title>
<g id="a_edge19_Node000015_Node000003"><a xlink:title=" ">
<path fill="none" stroke="#63b8ff" d="M170.13,-164.75C173.08,-157.65 177.33,-147.4 181.01,-138.56"/>
<polygon fill="#63b8ff" stroke="#63b8ff" points="184.33,-139.67 184.93,-129.09 177.87,-136.98 184.33,-139.67"/>
</a>
</g>
</g>
<!-- Node16 -->
<g id="Node000016" class="node">
<title>Node16</title>
<g id="a_Node000016"><a xlink:href="_iterable_queue_8h.html" target="_top" xlink:title=" ">
<polygon fill="white" stroke="#666666" points="135,-129 40,-129 40,-110 135,-110 135,-129"/>
<text text-anchor="middle" x="87.5" y="-117" font-family="Helvetica,sans-Serif" font-size="10.00">IterableQueue.h</text>
</a>
</g>
</g>
<!-- Node15&#45;&gt;Node16 -->
<g id="edge20_Node000015_Node000016" class="edge">
<title>Node15&#45;&gt;Node16</title>
<g id="a_edge20_Node000015_Node000016"><a xlink:title=" ">
<path fill="none" stroke="#63b8ff" d="M153.81,-164.98C141.67,-156.84 123.14,-144.41 108.75,-134.76"/>
<polygon fill="#63b8ff" stroke="#63b8ff" points="110.68,-131.84 100.42,-129.17 106.78,-137.65 110.68,-131.84"/>
</a>
</g>
</g>
<!-- Node16&#45;&gt;Node12 -->
<g id="edge21_Node000016_Node000012" class="edge">
<title>Node16&#45;&gt;Node12</title>
<g id="a_edge21_Node000016_Node000012"><a xlink:title=" ">
<path fill="none" stroke="#63b8ff" d="M79.9,-109.75C73.34,-102.18 63.68,-91.05 55.69,-81.84"/>
<polygon fill="#63b8ff" stroke="#63b8ff" points="58.15,-79.35 48.95,-74.09 52.87,-83.94 58.15,-79.35"/>
</a>
</g>
</g>
<!-- Node18&#45;&gt;Node1 -->
<g id="edge24_Node000018_Node000001" class="edge">
<title>Node18&#45;&gt;Node1</title>
<g id="a_edge24_Node000018_Node000001"><a xlink:title=" ">
<path fill="none" stroke="#63b8ff" d="M408.96,-239.17C384.45,-248.1 343.25,-262.07 312.44,-271.94"/>
<polygon fill="#63b8ff" stroke="#63b8ff" points="311.31,-268.62 302.84,-274.98 313.43,-275.3 311.31,-268.62"/>
</a>
</g>
</g>
</g>
</svg>
