<?xml version="1.0" encoding="UTF-8" standalone="no"?>
<!DOCTYPE svg PUBLIC "-//W3C//DTD SVG 1.1//EN"
 "http://www.w3.org/Graphics/SVG/1.1/DTD/svg11.dtd">
<!-- Generated by graphviz version 2.43.0 (0)
 -->
<!-- Title: EventListener.h Pages: 1 -->
<svg width="613pt" height="302pt"
 viewBox="0.00 0.00 612.97 302.00" xmlns="http://www.w3.org/2000/svg" xmlns:xlink="http://www.w3.org/1999/xlink">
<g id="graph0" class="graph" transform="scale(1 1) rotate(0) translate(4 298)">
<title>EventListener.h</title>
<!-- Node1 -->
<g id="Node000001" class="node">
<title>Node1</title>
<g id="a_Node000001"><a xlink:title=" ">
<polygon fill="#999999" stroke="#666666" points="560.27,-294 468.27,-294 468.27,-275 560.27,-275 560.27,-294"/>
<text text-anchor="middle" x="514.27" y="-282" font-family="Helvetica,sans-Serif" font-size="10.00">EventListener.h</text>
</a>
</g>
</g>
<!-- Node2 -->
<g id="Node000002" class="node">
<title>Node2</title>
<g id="a_Node000002"><a xlink:href="_bytes_8h.html" target="_top" xlink:title=" ">
<polygon fill="white" stroke="#666666" points="275.77,-184 222.77,-184 222.77,-165 275.77,-165 275.77,-184"/>
<text text-anchor="middle" x="249.27" y="-172" font-family="Helvetica,sans-Serif" font-size="10.00">Bytes.h</text>
</a>
</g>
</g>
<!-- Node1&#45;&gt;Node2 -->
<g id="edge1_Node000001_Node000002" class="edge">
<title>Node1&#45;&gt;Node2</title>
<g id="a_edge1_Node000001_Node000002"><a xlink:title=" ">
<path fill="none" stroke="#63b8ff" d="M493.03,-274.84C446.2,-255.76 333.94,-210.01 279.67,-187.89"/>
<polygon fill="#63b8ff" stroke="#63b8ff" points="280.82,-184.58 270.24,-184.05 278.18,-191.06 280.82,-184.58"/>
</a>
</g>
</g>
<!-- Node12 -->
<g id="Node000012" class="node">
<title>Node12</title>
<g id="a_Node000012"><a xlink:href="_clear_queue_8h.html" target="_top" xlink:title=" ">
<polygon fill="white" stroke="#666666" points="561.77,-74 478.77,-74 478.77,-55 561.77,-55 561.77,-74"/>
<text text-anchor="middle" x="520.27" y="-62" font-family="Helvetica,sans-Serif" font-size="10.00">ClearQueue.h</text>
</a>
</g>
</g>
<!-- Node1&#45;&gt;Node12 -->
<g id="edge11_Node000001_Node000012" class="edge">
<title>Node1&#45;&gt;Node12</title>
<g id="a_edge11_Node000001_Node000012"><a xlink:title=" ">
<path fill="none" stroke="#63b8ff" d="M521.42,-274.83C539.38,-252.45 586.07,-190.17 602.27,-129 604.43,-120.84 606.59,-117.26 602.27,-110 593.35,-95.02 577.43,-84.76 561.98,-77.91"/>
<polygon fill="#63b8ff" stroke="#63b8ff" points="563.06,-74.58 552.48,-74.08 560.44,-81.07 563.06,-74.58"/>
</a>
</g>
</g>
<!-- Node13 -->
<g id="Node000013" class="node">
<title>Node13</title>
<g id="a_Node000013"><a xlink:href="_iterable_queue_8h.html" target="_top" xlink:title=" ">
<polygon fill="white" stroke="#666666" points="592.77,-129 497.77,-129 497.77,-110 592.77,-110 592.77,-129"/>
<text text-anchor="middle" x="545.27" y="-117" font-family="Helvetica,sans-Serif" font-size="10.00">IterableQueue.h</text>
</a>
</g>
</g>
<!-- Node1&#45;&gt;Node13 -->
<g id="edge14_Node000001_Node000013" class="edge">
<title>Node1&#45;&gt;Node13</title>
<g id="a_edge14_Node000001_Node000013"><a xlink:title=" ">
<path fill="none" stroke="#63b8ff" d="M515.93,-274.74C520.79,-249.2 535.01,-174.43 541.7,-139.23"/>
<polygon fill="#63b8ff" stroke="#63b8ff" points="545.16,-139.78 543.59,-129.31 538.29,-138.48 545.16,-139.78"/>
</a>
</g>
</g>
<!-- Node14 -->
<g id="Node000014" class="node">
<title>Node14</title>
<g id="a_Node000014"><a xlink:href="_event_emitter_8h.html" target="_top" xlink:title=" ">
<polygon fill="white" stroke="#666666" points="505.77,-239 416.77,-239 416.77,-220 505.77,-220 505.77,-239"/>
<text text-anchor="middle" x="461.27" y="-227" font-family="Helvetica,sans-Serif" font-size="10.00">EventEmitter.h</text>
</a>
</g>
</g>
<!-- Node1&#45;&gt;Node14 -->
<g id="edge16_Node000001_Node000014" class="edge">
<title>Node1&#45;&gt;Node14</title>
<g id="a_edge16_Node000001_Node000014"><a xlink:title=" ">
<path fill="none" stroke="#63b8ff" d="M505.52,-274.75C497.8,-267.03 486.36,-255.6 477.05,-246.28"/>
<polygon fill="#63b8ff" stroke="#63b8ff" points="479.4,-243.69 469.86,-239.09 474.45,-248.64 479.4,-243.69"/>
</a>
</g>
</g>
<!-- Node3 -->
<g id="Node000003" class="node">
<title>Node3</title>
<g id="a_Node000003"><a xlink:href="_common_8h.html" target="_top" xlink:title=" ">
<polygon fill="white" stroke="#666666" points="328.27,-129 258.27,-129 258.27,-110 328.27,-110 328.27,-129"/>
<text text-anchor="middle" x="293.27" y="-117" font-family="Helvetica,sans-Serif" font-size="10.00">Common.h</text>
</a>
</g>
</g>
<!-- Node2&#45;&gt;Node3 -->
<g id="edge2_Node000002_Node000003" class="edge">
<title>Node2&#45;&gt;Node3</title>
<g id="a_edge2_Node000002_Node000003"><a xlink:title=" ">
<path fill="none" stroke="#63b8ff" d="M256.53,-164.75C262.81,-157.18 272.06,-146.05 279.7,-136.84"/>
<polygon fill="#63b8ff" stroke="#63b8ff" points="282.44,-139.02 286.14,-129.09 277.06,-134.55 282.44,-139.02"/>
</a>
</g>
</g>
<!-- Node6 -->
<g id="Node000006" class="node">
<title>Node6</title>
<g id="a_Node000006"><a xlink:href="_logger_8h.html" target="_top" xlink:title=" ">
<polygon fill="white" stroke="#666666" points="404.27,-129 346.27,-129 346.27,-110 404.27,-110 404.27,-129"/>
<text text-anchor="middle" x="375.27" y="-117" font-family="Helvetica,sans-Serif" font-size="10.00">Logger.h</text>
</a>
</g>
</g>
<!-- Node2&#45;&gt;Node6 -->
<g id="edge5_Node000002_Node000006" class="edge">
<title>Node2&#45;&gt;Node6</title>
<g id="a_edge5_Node000002_Node000006"><a xlink:title=" ">
<path fill="none" stroke="#63b8ff" d="M269.51,-164.98C289.96,-156.38 321.8,-142.99 345.2,-133.15"/>
<polygon fill="#63b8ff" stroke="#63b8ff" points="346.79,-136.27 354.66,-129.17 344.08,-129.82 346.79,-136.27"/>
</a>
</g>
</g>
<!-- Node8 -->
<g id="Node000008" class="node">
<title>Node8</title>
<g id="a_Node000008"><a xlink:title=" ">
<polygon fill="#e0e0e0" stroke="#999999" points="84.27,-129 20.27,-129 20.27,-110 84.27,-110 84.27,-129"/>
<text text-anchor="middle" x="52.27" y="-117" font-family="Helvetica,sans-Serif" font-size="10.00">WString.h</text>
</a>
</g>
</g>
<!-- Node2&#45;&gt;Node8 -->
<g id="edge7_Node000002_Node000008" class="edge">
<title>Node2&#45;&gt;Node8</title>
<g id="a_edge7_Node000002_Node000008"><a xlink:title=" ">
<path fill="none" stroke="#63b8ff" d="M222.7,-166.35C189.63,-157.46 132.78,-142.16 93.9,-131.7"/>
<polygon fill="#63b8ff" stroke="#63b8ff" points="94.51,-128.24 83.94,-129.02 92.69,-135 94.51,-128.24"/>
</a>
</g>
</g>
<!-- Node9 -->
<g id="Node000009" class="node">
<title>Node9</title>
<g id="a_Node000009"><a xlink:title=" ">
<polygon fill="#e0e0e0" stroke="#999999" points="152.27,-129 102.27,-129 102.27,-110 152.27,-110 152.27,-129"/>
<text text-anchor="middle" x="127.27" y="-117" font-family="Helvetica,sans-Serif" font-size="10.00">stdio.h</text>
</a>
</g>
</g>
<!-- Node2&#45;&gt;Node9 -->
<g id="edge8_Node000002_Node000009" class="edge">
<title>Node2&#45;&gt;Node9</title>
<g id="a_edge8_Node000002_Node000009"><a xlink:title=" ">
<path fill="none" stroke="#63b8ff" d="M229.67,-164.98C209.95,-156.42 179.31,-143.11 156.68,-133.28"/>
<polygon fill="#63b8ff" stroke="#63b8ff" points="157.79,-129.94 147.23,-129.17 155,-136.37 157.79,-129.94"/>
</a>
</g>
</g>
<!-- Node10 -->
<g id="Node000010" class="node">
<title>Node10</title>
<g id="a_Node000010"><a xlink:title=" ">
<polygon fill="#e0e0e0" stroke="#999999" points="260.77,-19 195.77,-19 195.77,0 260.77,0 260.77,-19"/>
<text text-anchor="middle" x="228.27" y="-7" font-family="Helvetica,sans-Serif" font-size="10.00">functional</text>
</a>
</g>
</g>
<!-- Node2&#45;&gt;Node10 -->
<g id="edge9_Node000002_Node000010" class="edge">
<title>Node2&#45;&gt;Node10</title>
<g id="a_edge9_Node000002_Node000010"><a xlink:title=" ">
<path fill="none" stroke="#63b8ff" d="M222.67,-172.63C166.33,-170.17 37.92,-161.1 11.27,-129 -41.68,-65.24 108.68,-30.25 185.79,-16.9"/>
<polygon fill="#63b8ff" stroke="#63b8ff" points="186.43,-20.34 195.71,-15.23 185.27,-13.44 186.43,-20.34"/>
</a>
</g>
</g>
<!-- Node11 -->
<g id="Node000011" class="node">
<title>Node11</title>
<g id="a_Node000011"><a xlink:title=" ">
<polygon fill="#e0e0e0" stroke="#999999" points="239.77,-129 170.77,-129 170.77,-110 239.77,-110 239.77,-129"/>
<text text-anchor="middle" x="205.27" y="-117" font-family="Helvetica,sans-Serif" font-size="10.00">type_traits</text>
</a>
</g>
</g>
<!-- Node2&#45;&gt;Node11 -->
<g id="edge10_Node000002_Node000011" class="edge">
<title>Node2&#45;&gt;Node11</title>
<g id="a_edge10_Node000002_Node000011"><a xlink:title=" ">
<path fill="none" stroke="#63b8ff" d="M242,-164.75C235.72,-157.18 226.48,-146.05 218.84,-136.84"/>
<polygon fill="#63b8ff" stroke="#63b8ff" points="221.48,-134.55 212.4,-129.09 216.09,-139.02 221.48,-134.55"/>
</a>
</g>
</g>
<!-- Node4 -->
<g id="Node000004" class="node">
<title>Node4</title>
<g id="a_Node000004"><a xlink:title=" ">
<polygon fill="#e0e0e0" stroke="#999999" points="334.27,-74 276.27,-74 276.27,-55 334.27,-55 334.27,-74"/>
<text text-anchor="middle" x="305.27" y="-62" font-family="Helvetica,sans-Serif" font-size="10.00">memory</text>
</a>
</g>
</g>
<!-- Node3&#45;&gt;Node4 -->
<g id="edge3_Node000003_Node000004" class="edge">
<title>Node3&#45;&gt;Node4</title>
<g id="a_edge3_Node000003_Node000004"><a xlink:title=" ">
<path fill="none" stroke="#63b8ff" d="M295.25,-109.75C296.84,-102.72 299.13,-92.62 301.11,-83.84"/>
<polygon fill="#63b8ff" stroke="#63b8ff" points="304.53,-84.62 303.32,-74.09 297.7,-83.07 304.53,-84.62"/>
</a>
</g>
</g>
<!-- Node5 -->
<g id="Node000005" class="node">
<title>Node5</title>
<g id="a_Node000005"><a xlink:title=" ">
<polygon fill="#e0e0e0" stroke="#999999" points="257.77,-74 212.77,-74 212.77,-55 257.77,-55 257.77,-74"/>
<text text-anchor="middle" x="235.27" y="-62" font-family="Helvetica,sans-Serif" font-size="10.00">utility</text>
</a>
</g>
</g>
<!-- Node3&#45;&gt;Node5 -->
<g id="edge4_Node000003_Node000005" class="edge">
<title>Node3&#45;&gt;Node5</title>
<g id="a_edge4_Node000003_Node000005"><a xlink:title=" ">
<path fill="none" stroke="#63b8ff" d="M283.95,-109.98C275.46,-102.23 262.71,-90.58 252.39,-81.14"/>
<polygon fill="#63b8ff" stroke="#63b8ff" points="254.5,-78.33 244.76,-74.17 249.78,-83.5 254.5,-78.33"/>
</a>
</g>
</g>
<!-- Node7 -->
<g id="Node000007" class="node">
<title>Node7</title>
<g id="a_Node000007"><a xlink:title=" ">
<polygon fill="#e0e0e0" stroke="#999999" points="491.77,-19 428.77,-19 428.77,0 491.77,0 491.77,-19"/>
<text text-anchor="middle" x="460.27" y="-7" font-family="Helvetica,sans-Serif" font-size="10.00">Arduino.h</text>
</a>
</g>
</g>
<!-- Node6&#45;&gt;Node7 -->
<g id="edge6_Node000006_Node000007" class="edge">
<title>Node6&#45;&gt;Node7</title>
<g id="a_edge6_Node000006_Node000007"><a xlink:title=" ">
<path fill="none" stroke="#63b8ff" d="M382.22,-109.66C396.43,-91.61 428.96,-50.28 447.22,-27.08"/>
<polygon fill="#63b8ff" stroke="#63b8ff" points="450.02,-29.18 453.45,-19.16 444.52,-24.85 450.02,-29.18"/>
</a>
</g>
</g>
<!-- Node12&#45;&gt;Node7 -->
<g id="edge12_Node000012_Node000007" class="edge">
<title>Node12&#45;&gt;Node7</title>
<g id="a_edge12_Node000012_Node000007"><a xlink:title=" ">
<path fill="none" stroke="#63b8ff" d="M510.63,-54.98C501.76,-47.15 488.39,-35.34 477.66,-25.86"/>
<polygon fill="#63b8ff" stroke="#63b8ff" points="479.89,-23.17 470.08,-19.17 475.26,-28.41 479.89,-23.17"/>
</a>
</g>
</g>
<!-- Node12&#45;&gt;Node10 -->
<g id="edge13_Node000012_Node000010" class="edge">
<title>Node12&#45;&gt;Node10</title>
<g id="a_edge13_Node000012_Node000010"><a xlink:title=" ">
<path fill="none" stroke="#63b8ff" d="M478.74,-55.96C423.6,-45.95 326.71,-28.37 270.98,-18.25"/>
<polygon fill="#63b8ff" stroke="#63b8ff" points="271.53,-14.8 261.07,-16.45 270.28,-21.68 271.53,-14.8"/>
</a>
</g>
</g>
<!-- Node13&#45;&gt;Node12 -->
<g id="edge15_Node000013_Node000012" class="edge">
<title>Node13&#45;&gt;Node12</title>
<g id="a_edge15_Node000013_Node000012"><a xlink:title=" ">
<path fill="none" stroke="#63b8ff" d="M541.14,-109.75C537.75,-102.57 532.85,-92.18 528.65,-83.27"/>
<polygon fill="#63b8ff" stroke="#63b8ff" points="531.75,-81.64 524.32,-74.09 525.42,-84.63 531.75,-81.64"/>
</a>
</g>
</g>
<!-- Node14&#45;&gt;Node2 -->
<g id="edge17_Node000014_Node000002" class="edge">
<title>Node14&#45;&gt;Node2</title>
<g id="a_edge17_Node000014_Node000002"><a xlink:title=" ">
<path fill="none" stroke="#63b8ff" d="M427.21,-219.98C388.44,-210.29 325.38,-194.53 285.67,-184.6"/>
<polygon fill="#63b8ff" stroke="#63b8ff" points="286.41,-181.18 275.86,-182.15 284.72,-187.97 286.41,-181.18"/>
</a>
</g>
</g>
<!-- Node14&#45;&gt;Node13 -->
<g id="edge18_Node000014_Node000013" class="edge">
<title>Node14&#45;&gt;Node13</title>
<g id="a_edge18_Node000014_Node000013"><a xlink:title=" ">
<path fill="none" stroke="#63b8ff" d="M468.14,-219.66C482.18,-201.61 514.33,-160.28 532.37,-137.08"/>
<polygon fill="#63b8ff" stroke="#63b8ff" points="535.16,-139.2 538.53,-129.16 529.63,-134.9 535.16,-139.2"/>
</a>
</g>
</g>
<!-- Node15 -->
<g id="Node000015" class="node">
<title>Node15</title>
<g id="a_Node000015"><a xlink:href="_event_entity_8h.html" target="_top" xlink:title=" ">
<polygon fill="white" stroke="#666666" points="485.27,-184 405.27,-184 405.27,-165 485.27,-165 485.27,-184"/>
<text text-anchor="middle" x="445.27" y="-172" font-family="Helvetica,sans-Serif" font-size="10.00">EventEntity.h</text>
</a>
</g>
</g>
<!-- Node14&#45;&gt;Node15 -->
<g id="edge19_Node000014_Node000015" class="edge">
<title>Node14&#45;&gt;Node15</title>
<g id="a_edge19_Node000014_Node000015"><a xlink:title=" ">
<path fill="none" stroke="#63b8ff" d="M458.63,-219.75C456.51,-212.72 453.46,-202.62 450.81,-193.84"/>
<polygon fill="#63b8ff" stroke="#63b8ff" points="454.1,-192.65 447.86,-184.09 447.4,-194.67 454.1,-192.65"/>
</a>
</g>
</g>
<!-- Node15&#45;&gt;Node6 -->
<g id="edge21_Node000015_Node000006" class="edge">
<title>Node15&#45;&gt;Node6</title>
<g id="a_edge21_Node000015_Node000006"><a xlink:title=" ">
<path fill="none" stroke="#63b8ff" d="M434.02,-164.98C423.47,-157 407.47,-144.88 394.83,-135.31"/>
<polygon fill="#63b8ff" stroke="#63b8ff" points="396.8,-132.42 386.72,-129.17 392.58,-138 396.8,-132.42"/>
</a>
</g>
</g>
<!-- Node15&#45;&gt;Node13 -->
<g id="edge20_Node000015_Node000013" class="edge">
<title>Node15&#45;&gt;Node13</title>
<g id="a_edge20_Node000015_Node000013"><a xlink:title=" ">
<path fill="none" stroke="#63b8ff" d="M461.33,-164.98C477.13,-156.61 501.48,-143.7 519.9,-133.95"/>
<polygon fill="#63b8ff" stroke="#63b8ff" points="521.71,-136.95 528.91,-129.17 518.43,-130.76 521.71,-136.95"/>
</a>
</g>
</g>
<!-- Node16 -->
<g id="Node000016" class="node">
<title>Node16</title>
<g id="a_Node000016"><a xlink:href="_type_id_8h.html" target="_top" xlink:title=" ">
<polygon fill="white" stroke="#666666" points="479.77,-129 422.77,-129 422.77,-110 479.77,-110 479.77,-129"/>
<text text-anchor="middle" x="451.27" y="-117" font-family="Helvetica,sans-Serif" font-size="10.00">TypeId.h</text>
</a>
</g>
</g>
<!-- Node15&#45;&gt;Node16 -->
<g id="edge22_Node000015_Node000016" class="edge">
<title>Node15&#45;&gt;Node16</title>
<g id="a_edge22_Node000015_Node000016"><a xlink:title=" ">
<path fill="none" stroke="#63b8ff" d="M446.26,-164.75C447.04,-157.8 448.17,-147.85 449.16,-139.13"/>
<polygon fill="#63b8ff" stroke="#63b8ff" points="452.65,-139.42 450.3,-129.09 445.69,-138.63 452.65,-139.42"/>
</a>
</g>
</g>
</g>
</svg>
