<?xml version="1.0" encoding="UTF-8" standalone="no"?>
<!DOCTYPE svg PUBLIC "-//W3C//DTD SVG 1.1//EN"
 "http://www.w3.org/Graphics/SVG/1.1/DTD/svg11.dtd">
<!-- Generated by graphviz version 2.43.0 (0)
 -->
<!-- Title: EventEntity.cpp Pages: 1 -->
<svg width="723pt" height="357pt"
 viewBox="0.00 0.00 722.50 357.00" xmlns="http://www.w3.org/2000/svg" xmlns:xlink="http://www.w3.org/1999/xlink">
<g id="graph0" class="graph" transform="scale(1 1) rotate(0) translate(4 353)">
<title>EventEntity.cpp</title>
<!-- Node1 -->
<g id="Node000001" class="node">
<title>Node1</title>
<g id="a_Node000001"><a xlink:title=" ">
<polygon fill="#999999" stroke="#666666" points="197,-349 105,-349 105,-330 197,-330 197,-349"/>
<text text-anchor="middle" x="151" y="-337" font-family="Helvetica,sans-Serif" font-size="10.00">EventEntity.cpp</text>
</a>
</g>
</g>
<!-- Node2 -->
<g id="Node000002" class="node">
<title>Node2</title>
<g id="a_Node000002"><a xlink:href="_event_entity_8h.html" target="_top" xlink:title=" ">
<polygon fill="white" stroke="#666666" points="191,-184 111,-184 111,-165 191,-165 191,-184"/>
<text text-anchor="middle" x="151" y="-172" font-family="Helvetica,sans-Serif" font-size="10.00">EventEntity.h</text>
</a>
</g>
</g>
<!-- Node1&#45;&gt;Node2 -->
<g id="edge1_Node000001_Node000002" class="edge">
<title>Node1&#45;&gt;Node2</title>
<g id="a_edge1_Node000001_Node000002"><a xlink:title=" ">
<path fill="none" stroke="#63b8ff" d="M151,-329.74C151,-304.31 151,-230.08 151,-194.69"/>
<polygon fill="#63b8ff" stroke="#63b8ff" points="154.5,-194.31 151,-184.31 147.5,-194.31 154.5,-194.31"/>
</a>
</g>
</g>
<!-- Node5 -->
<g id="Node000005" class="node">
<title>Node5</title>
<g id="a_Node000005"><a xlink:title=" ">
<polygon fill="#e0e0e0" stroke="#999999" points="264.5,-19 201.5,-19 201.5,0 264.5,0 264.5,-19"/>
<text text-anchor="middle" x="233" y="-7" font-family="Helvetica,sans-Serif" font-size="10.00">Arduino.h</text>
</a>
</g>
</g>
<!-- Node1&#45;&gt;Node5 -->
<g id="edge9_Node000001_Node000005" class="edge">
<title>Node1&#45;&gt;Node5</title>
<g id="a_edge9_Node000001_Node000005"><a xlink:title=" ">
<path fill="none" stroke="#63b8ff" d="M115.6,-329.96C70.97,-316.83 0,-287.06 0,-230.5 0,-230.5 0,-230.5 0,-118.5 0,-35.34 123.69,-16.03 190.83,-11.67"/>
<polygon fill="#63b8ff" stroke="#63b8ff" points="191.3,-15.15 201.09,-11.09 190.91,-8.16 191.3,-15.15"/>
</a>
</g>
</g>
<!-- Node9 -->
<g id="Node000009" class="node">
<title>Node9</title>
<g id="a_Node000009"><a xlink:href="_event_bus_8h.html" target="_top" xlink:title=" ">
<polygon fill="white" stroke="#666666" points="445.5,-294 374.5,-294 374.5,-275 445.5,-275 445.5,-294"/>
<text text-anchor="middle" x="410" y="-282" font-family="Helvetica,sans-Serif" font-size="10.00">EventBus.h</text>
</a>
</g>
</g>
<!-- Node1&#45;&gt;Node9 -->
<g id="edge10_Node000001_Node000009" class="edge">
<title>Node1&#45;&gt;Node9</title>
<g id="a_edge10_Node000001_Node000009"><a xlink:title=" ">
<path fill="none" stroke="#63b8ff" d="M192.61,-329.98C239.6,-320.37 315.83,-304.77 364.4,-294.83"/>
<polygon fill="#63b8ff" stroke="#63b8ff" points="365.23,-298.23 374.33,-292.8 363.83,-291.38 365.23,-298.23"/>
</a>
</g>
</g>
<!-- Node3 -->
<g id="Node000003" class="node">
<title>Node3</title>
<g id="a_Node000003"><a xlink:href="_iterable_queue_8h.html" target="_top" xlink:title=" ">
<polygon fill="white" stroke="#666666" points="198.5,-129 103.5,-129 103.5,-110 198.5,-110 198.5,-129"/>
<text text-anchor="middle" x="151" y="-117" font-family="Helvetica,sans-Serif" font-size="10.00">IterableQueue.h</text>
</a>
</g>
</g>
<!-- Node2&#45;&gt;Node3 -->
<g id="edge2_Node000002_Node000003" class="edge">
<title>Node2&#45;&gt;Node3</title>
<g id="a_edge2_Node000002_Node000003"><a xlink:title=" ">
<path fill="none" stroke="#63b8ff" d="M151,-164.75C151,-157.8 151,-147.85 151,-139.13"/>
<polygon fill="#63b8ff" stroke="#63b8ff" points="154.5,-139.09 151,-129.09 147.5,-139.09 154.5,-139.09"/>
</a>
</g>
</g>
<!-- Node7 -->
<g id="Node000007" class="node">
<title>Node7</title>
<g id="a_Node000007"><a xlink:href="_logger_8h.html" target="_top" xlink:title=" ">
<polygon fill="white" stroke="#666666" points="351,-129 293,-129 293,-110 351,-110 351,-129"/>
<text text-anchor="middle" x="322" y="-117" font-family="Helvetica,sans-Serif" font-size="10.00">Logger.h</text>
</a>
</g>
</g>
<!-- Node2&#45;&gt;Node7 -->
<g id="edge6_Node000002_Node000007" class="edge">
<title>Node2&#45;&gt;Node7</title>
<g id="a_edge6_Node000002_Node000007"><a xlink:title=" ">
<path fill="none" stroke="#63b8ff" d="M178.47,-164.98C207.18,-156.09 252.42,-142.07 284.42,-132.15"/>
<polygon fill="#63b8ff" stroke="#63b8ff" points="285.8,-135.39 294.31,-129.08 283.72,-128.7 285.8,-135.39"/>
</a>
</g>
</g>
<!-- Node8 -->
<g id="Node000008" class="node">
<title>Node8</title>
<g id="a_Node000008"><a xlink:href="_type_id_8h.html" target="_top" xlink:title=" ">
<polygon fill="white" stroke="#666666" points="85.5,-129 28.5,-129 28.5,-110 85.5,-110 85.5,-129"/>
<text text-anchor="middle" x="57" y="-117" font-family="Helvetica,sans-Serif" font-size="10.00">TypeId.h</text>
</a>
</g>
</g>
<!-- Node2&#45;&gt;Node8 -->
<g id="edge8_Node000002_Node000008" class="edge">
<title>Node2&#45;&gt;Node8</title>
<g id="a_edge8_Node000002_Node000008"><a xlink:title=" ">
<path fill="none" stroke="#63b8ff" d="M135.9,-164.98C121.18,-156.69 98.58,-143.94 81.33,-134.22"/>
<polygon fill="#63b8ff" stroke="#63b8ff" points="82.81,-131.03 72.38,-129.17 79.37,-137.13 82.81,-131.03"/>
</a>
</g>
</g>
<!-- Node4 -->
<g id="Node000004" class="node">
<title>Node4</title>
<g id="a_Node000004"><a xlink:href="_clear_queue_8h.html" target="_top" xlink:title=" ">
<polygon fill="white" stroke="#666666" points="274.5,-74 191.5,-74 191.5,-55 274.5,-55 274.5,-74"/>
<text text-anchor="middle" x="233" y="-62" font-family="Helvetica,sans-Serif" font-size="10.00">ClearQueue.h</text>
</a>
</g>
</g>
<!-- Node3&#45;&gt;Node4 -->
<g id="edge3_Node000003_Node000004" class="edge">
<title>Node3&#45;&gt;Node4</title>
<g id="a_edge3_Node000003_Node000004"><a xlink:title=" ">
<path fill="none" stroke="#63b8ff" d="M164.17,-109.98C176.77,-101.84 196,-89.41 210.94,-79.76"/>
<polygon fill="#63b8ff" stroke="#63b8ff" points="213.09,-82.54 219.59,-74.17 209.29,-76.66 213.09,-82.54"/>
</a>
</g>
</g>
<!-- Node4&#45;&gt;Node5 -->
<g id="edge4_Node000004_Node000005" class="edge">
<title>Node4&#45;&gt;Node5</title>
<g id="a_edge4_Node000004_Node000005"><a xlink:title=" ">
<path fill="none" stroke="#63b8ff" d="M233,-54.75C233,-47.8 233,-37.85 233,-29.13"/>
<polygon fill="#63b8ff" stroke="#63b8ff" points="236.5,-29.09 233,-19.09 229.5,-29.09 236.5,-29.09"/>
</a>
</g>
</g>
<!-- Node6 -->
<g id="Node000006" class="node">
<title>Node6</title>
<g id="a_Node000006"><a xlink:title=" ">
<polygon fill="#e0e0e0" stroke="#999999" points="382.5,-19 317.5,-19 317.5,0 382.5,0 382.5,-19"/>
<text text-anchor="middle" x="350" y="-7" font-family="Helvetica,sans-Serif" font-size="10.00">functional</text>
</a>
</g>
</g>
<!-- Node4&#45;&gt;Node6 -->
<g id="edge5_Node000004_Node000006" class="edge">
<title>Node4&#45;&gt;Node6</title>
<g id="a_edge5_Node000004_Node000006"><a xlink:title=" ">
<path fill="none" stroke="#63b8ff" d="M251.8,-54.98C270.62,-46.46 299.82,-33.23 321.5,-23.41"/>
<polygon fill="#63b8ff" stroke="#63b8ff" points="323.2,-26.48 330.86,-19.17 320.31,-20.11 323.2,-26.48"/>
</a>
</g>
</g>
<!-- Node7&#45;&gt;Node5 -->
<g id="edge7_Node000007_Node000005" class="edge">
<title>Node7&#45;&gt;Node5</title>
<g id="a_edge7_Node000007_Node000005"><a xlink:title=" ">
<path fill="none" stroke="#63b8ff" d="M317.86,-109.72C311.59,-96.93 298.83,-72.74 284,-55 274.81,-44.01 262.82,-33.4 252.76,-25.3"/>
<polygon fill="#63b8ff" stroke="#63b8ff" points="254.92,-22.54 244.88,-19.13 250.6,-28.05 254.92,-22.54"/>
</a>
</g>
</g>
<!-- Node9&#45;&gt;Node4 -->
<g id="edge20_Node000009_Node000004" class="edge">
<title>Node9&#45;&gt;Node4</title>
<g id="a_edge20_Node000009_Node000004"><a xlink:title=" ">
<path fill="none" stroke="#63b8ff" d="M374.5,-278.34C346.13,-272.71 306.67,-261.32 279,-239 231.95,-201.04 229.79,-120.97 231.51,-84.42"/>
<polygon fill="#63b8ff" stroke="#63b8ff" points="235.02,-84.39 232.15,-74.19 228.03,-83.95 235.02,-84.39"/>
</a>
</g>
</g>
<!-- Node10 -->
<g id="Node000010" class="node">
<title>Node10</title>
<g id="a_Node000010"><a xlink:href="_bytes_8h.html" target="_top" xlink:title=" ">
<polygon fill="white" stroke="#666666" points="486.5,-184 433.5,-184 433.5,-165 486.5,-165 486.5,-184"/>
<text text-anchor="middle" x="460" y="-172" font-family="Helvetica,sans-Serif" font-size="10.00">Bytes.h</text>
</a>
</g>
</g>
<!-- Node9&#45;&gt;Node10 -->
<g id="edge11_Node000009_Node000010" class="edge">
<title>Node9&#45;&gt;Node10</title>
<g id="a_edge11_Node000009_Node000010"><a xlink:title=" ">
<path fill="none" stroke="#63b8ff" d="M411.65,-274.97C414.26,-262.47 420,-238.65 429,-220 433.7,-210.27 440.42,-200.31 446.4,-192.3"/>
<polygon fill="#63b8ff" stroke="#63b8ff" points="449.33,-194.23 452.69,-184.18 443.8,-189.94 449.33,-194.23"/>
</a>
</g>
</g>
<!-- Node17 -->
<g id="Node000017" class="node">
<title>Node17</title>
<g id="a_Node000017"><a xlink:href="_data_channels_8h.html" target="_top" xlink:title=" ">
<polygon fill="white" stroke="#666666" points="382,-239 288,-239 288,-220 382,-220 382,-239"/>
<text text-anchor="middle" x="335" y="-227" font-family="Helvetica,sans-Serif" font-size="10.00">DataChannels.h</text>
</a>
</g>
</g>
<!-- Node9&#45;&gt;Node17 -->
<g id="edge21_Node000009_Node000017" class="edge">
<title>Node9&#45;&gt;Node17</title>
<g id="a_edge21_Node000009_Node000017"><a xlink:title=" ">
<path fill="none" stroke="#63b8ff" d="M397.95,-274.98C386.54,-266.92 369.17,-254.65 355.57,-245.03"/>
<polygon fill="#63b8ff" stroke="#63b8ff" points="357.46,-242.08 347.27,-239.17 353.42,-247.8 357.46,-242.08"/>
</a>
</g>
</g>
<!-- Node20 -->
<g id="Node000020" class="node">
<title>Node20</title>
<g id="a_Node000020"><a xlink:href="_i_executor_8h.html" target="_top" xlink:title=" ">
<polygon fill="white" stroke="#666666" points="508,-239 438,-239 438,-220 508,-220 508,-239"/>
<text text-anchor="middle" x="473" y="-227" font-family="Helvetica,sans-Serif" font-size="10.00">IExecutor.h</text>
</a>
</g>
</g>
<!-- Node9&#45;&gt;Node20 -->
<g id="edge28_Node000009_Node000020" class="edge">
<title>Node9&#45;&gt;Node20</title>
<g id="a_edge28_Node000009_Node000020"><a xlink:title=" ">
<path fill="none" stroke="#63b8ff" d="M420.12,-274.98C429.44,-267.15 443.47,-255.34 454.74,-245.86"/>
<polygon fill="#63b8ff" stroke="#63b8ff" points="457.29,-248.29 462.69,-239.17 452.79,-242.93 457.29,-248.29"/>
</a>
</g>
</g>
<!-- Node21 -->
<g id="Node000021" class="node">
<title>Node21</title>
<g id="a_Node000021"><a xlink:href="_i_event_bus_connection_kit_8h.html" target="_top" xlink:title="Defines the interface for components that can connect to an EventBus.">
<polygon fill="white" stroke="#666666" points="669.5,-239 526.5,-239 526.5,-220 669.5,-220 669.5,-239"/>
<text text-anchor="middle" x="598" y="-227" font-family="Helvetica,sans-Serif" font-size="10.00">IEventBusConnectionKit.h</text>
</a>
</g>
</g>
<!-- Node9&#45;&gt;Node21 -->
<g id="edge29_Node000009_Node000021" class="edge">
<title>Node9&#45;&gt;Node21</title>
<g id="a_edge29_Node000009_Node000021"><a xlink:title=" ">
<path fill="none" stroke="#63b8ff" d="M435.09,-274.98C465.08,-265.97 515.52,-251.7 552.41,-241.76"/>
<polygon fill="#63b8ff" stroke="#63b8ff" points="553.67,-245.05 562.43,-239.08 551.86,-238.29 553.67,-245.05"/>
</a>
</g>
</g>
<!-- Node10&#45;&gt;Node6 -->
<g id="edge18_Node000010_Node000006" class="edge">
<title>Node10&#45;&gt;Node6</title>
<g id="a_edge18_Node000010_Node000006"><a xlink:title=" ">
<path fill="none" stroke="#63b8ff" d="M443.23,-164.96C429.46,-157.21 410.29,-144.62 398,-129 373.84,-98.29 360.21,-53.78 354.05,-28.97"/>
<polygon fill="#63b8ff" stroke="#63b8ff" points="357.42,-28.02 351.74,-19.08 350.61,-29.61 357.42,-28.02"/>
</a>
</g>
</g>
<!-- Node10&#45;&gt;Node7 -->
<g id="edge15_Node000010_Node000007" class="edge">
<title>Node10&#45;&gt;Node7</title>
<g id="a_edge15_Node000010_Node000007"><a xlink:title=" ">
<path fill="none" stroke="#63b8ff" d="M437.83,-164.98C415.23,-156.3 379.94,-142.75 354.25,-132.88"/>
<polygon fill="#63b8ff" stroke="#63b8ff" points="355.17,-129.49 344.58,-129.17 352.66,-136.02 355.17,-129.49"/>
</a>
</g>
</g>
<!-- Node11 -->
<g id="Node000011" class="node">
<title>Node11</title>
<g id="a_Node000011"><a xlink:href="_common_8h.html" target="_top" xlink:title=" ">
<polygon fill="white" stroke="#666666" points="477,-129 407,-129 407,-110 477,-110 477,-129"/>
<text text-anchor="middle" x="442" y="-117" font-family="Helvetica,sans-Serif" font-size="10.00">Common.h</text>
</a>
</g>
</g>
<!-- Node10&#45;&gt;Node11 -->
<g id="edge12_Node000010_Node000011" class="edge">
<title>Node10&#45;&gt;Node11</title>
<g id="a_edge12_Node000010_Node000011"><a xlink:title=" ">
<path fill="none" stroke="#63b8ff" d="M457.03,-164.75C454.64,-157.72 451.21,-147.62 448.23,-138.84"/>
<polygon fill="#63b8ff" stroke="#63b8ff" points="451.45,-137.43 444.92,-129.09 444.82,-139.68 451.45,-137.43"/>
</a>
</g>
</g>
<!-- Node14 -->
<g id="Node000014" class="node">
<title>Node14</title>
<g id="a_Node000014"><a xlink:title=" ">
<polygon fill="#e0e0e0" stroke="#999999" points="559,-129 495,-129 495,-110 559,-110 559,-129"/>
<text text-anchor="middle" x="527" y="-117" font-family="Helvetica,sans-Serif" font-size="10.00">WString.h</text>
</a>
</g>
</g>
<!-- Node10&#45;&gt;Node14 -->
<g id="edge16_Node000010_Node000014" class="edge">
<title>Node10&#45;&gt;Node14</title>
<g id="a_edge16_Node000010_Node000014"><a xlink:title=" ">
<path fill="none" stroke="#63b8ff" d="M470.76,-164.98C480.77,-157.07 495.89,-145.11 507.93,-135.58"/>
<polygon fill="#63b8ff" stroke="#63b8ff" points="510.37,-138.12 516.04,-129.17 506.03,-132.63 510.37,-138.12"/>
</a>
</g>
</g>
<!-- Node15 -->
<g id="Node000015" class="node">
<title>Node15</title>
<g id="a_Node000015"><a xlink:title=" ">
<polygon fill="#e0e0e0" stroke="#999999" points="627,-129 577,-129 577,-110 627,-110 627,-129"/>
<text text-anchor="middle" x="602" y="-117" font-family="Helvetica,sans-Serif" font-size="10.00">stdio.h</text>
</a>
</g>
</g>
<!-- Node10&#45;&gt;Node15 -->
<g id="edge17_Node000010_Node000015" class="edge">
<title>Node10&#45;&gt;Node15</title>
<g id="a_edge17_Node000010_Node000015"><a xlink:title=" ">
<path fill="none" stroke="#63b8ff" d="M482.81,-164.98C506.17,-156.27 542.7,-142.63 569.17,-132.75"/>
<polygon fill="#63b8ff" stroke="#63b8ff" points="570.63,-135.95 578.77,-129.17 568.18,-129.39 570.63,-135.95"/>
</a>
</g>
</g>
<!-- Node16 -->
<g id="Node000016" class="node">
<title>Node16</title>
<g id="a_Node000016"><a xlink:title=" ">
<polygon fill="#e0e0e0" stroke="#999999" points="714.5,-129 645.5,-129 645.5,-110 714.5,-110 714.5,-129"/>
<text text-anchor="middle" x="680" y="-117" font-family="Helvetica,sans-Serif" font-size="10.00">type_traits</text>
</a>
</g>
</g>
<!-- Node10&#45;&gt;Node16 -->
<g id="edge19_Node000010_Node000016" class="edge">
<title>Node10&#45;&gt;Node16</title>
<g id="a_edge19_Node000010_Node000016"><a xlink:title=" ">
<path fill="none" stroke="#63b8ff" d="M486.54,-167.11C523.51,-158.2 591.01,-141.94 635.69,-131.18"/>
<polygon fill="#63b8ff" stroke="#63b8ff" points="636.51,-134.58 645.41,-128.83 634.87,-127.77 636.51,-134.58"/>
</a>
</g>
</g>
<!-- Node12 -->
<g id="Node000012" class="node">
<title>Node12</title>
<g id="a_Node000012"><a xlink:title=" ">
<polygon fill="#e0e0e0" stroke="#999999" points="468,-74 410,-74 410,-55 468,-55 468,-74"/>
<text text-anchor="middle" x="439" y="-62" font-family="Helvetica,sans-Serif" font-size="10.00">memory</text>
</a>
</g>
</g>
<!-- Node11&#45;&gt;Node12 -->
<g id="edge13_Node000011_Node000012" class="edge">
<title>Node11&#45;&gt;Node12</title>
<g id="a_edge13_Node000011_Node000012"><a xlink:title=" ">
<path fill="none" stroke="#63b8ff" d="M441.5,-109.75C441.11,-102.8 440.55,-92.85 440.05,-84.13"/>
<polygon fill="#63b8ff" stroke="#63b8ff" points="443.55,-83.88 439.49,-74.09 436.56,-84.27 443.55,-83.88"/>
</a>
</g>
</g>
<!-- Node13 -->
<g id="Node000013" class="node">
<title>Node13</title>
<g id="a_Node000013"><a xlink:title=" ">
<polygon fill="#e0e0e0" stroke="#999999" points="531.5,-74 486.5,-74 486.5,-55 531.5,-55 531.5,-74"/>
<text text-anchor="middle" x="509" y="-62" font-family="Helvetica,sans-Serif" font-size="10.00">utility</text>
</a>
</g>
</g>
<!-- Node11&#45;&gt;Node13 -->
<g id="edge14_Node000011_Node000013" class="edge">
<title>Node11&#45;&gt;Node13</title>
<g id="a_edge14_Node000011_Node000013"><a xlink:title=" ">
<path fill="none" stroke="#63b8ff" d="M452.76,-109.98C462.77,-102.07 477.89,-90.11 489.93,-80.58"/>
<polygon fill="#63b8ff" stroke="#63b8ff" points="492.37,-83.12 498.04,-74.17 488.03,-77.63 492.37,-83.12"/>
</a>
</g>
</g>
<!-- Node17&#45;&gt;Node10 -->
<g id="edge22_Node000017_Node000010" class="edge">
<title>Node17&#45;&gt;Node10</title>
<g id="a_edge22_Node000017_Node000010"><a xlink:title=" ">
<path fill="none" stroke="#63b8ff" d="M355.08,-219.98C375.37,-211.38 406.96,-197.99 430.17,-188.15"/>
<polygon fill="#63b8ff" stroke="#63b8ff" points="431.71,-191.3 439.55,-184.17 428.98,-184.85 431.71,-191.3"/>
</a>
</g>
</g>
<!-- Node18 -->
<g id="Node000018" class="node">
<title>Node18</title>
<g id="a_Node000018"><a xlink:href="_limited_queue_8h.html" target="_top" xlink:title=" ">
<polygon fill="white" stroke="#666666" points="415,-184 321,-184 321,-165 415,-165 415,-184"/>
<text text-anchor="middle" x="368" y="-172" font-family="Helvetica,sans-Serif" font-size="10.00">LimitedQueue.h</text>
</a>
</g>
</g>
<!-- Node17&#45;&gt;Node18 -->
<g id="edge23_Node000017_Node000018" class="edge">
<title>Node17&#45;&gt;Node18</title>
<g id="a_edge23_Node000017_Node000018"><a xlink:title=" ">
<path fill="none" stroke="#63b8ff" d="M340.45,-219.75C345.01,-212.42 351.67,-201.73 357.29,-192.7"/>
<polygon fill="#63b8ff" stroke="#63b8ff" points="360.34,-194.43 362.65,-184.09 354.4,-190.73 360.34,-194.43"/>
</a>
</g>
</g>
<!-- Node19 -->
<g id="Node000019" class="node">
<title>Node19</title>
<g id="a_Node000019"><a xlink:href="_map_8h.html" target="_top" xlink:title=" ">
<polygon fill="white" stroke="#666666" points="302.5,-184 255.5,-184 255.5,-165 302.5,-165 302.5,-184"/>
<text text-anchor="middle" x="279" y="-172" font-family="Helvetica,sans-Serif" font-size="10.00">Map.h</text>
</a>
</g>
</g>
<!-- Node17&#45;&gt;Node19 -->
<g id="edge25_Node000017_Node000019" class="edge">
<title>Node17&#45;&gt;Node19</title>
<g id="a_edge25_Node000017_Node000019"><a xlink:title=" ">
<path fill="none" stroke="#63b8ff" d="M326,-219.98C317.81,-212.23 305.49,-200.58 295.53,-191.14"/>
<polygon fill="#63b8ff" stroke="#63b8ff" points="297.83,-188.5 288.16,-184.17 293.02,-193.59 297.83,-188.5"/>
</a>
</g>
</g>
<!-- Node18&#45;&gt;Node4 -->
<g id="edge24_Node000018_Node000004" class="edge">
<title>Node18&#45;&gt;Node4</title>
<g id="a_edge24_Node000018_Node000004"><a xlink:title=" ">
<path fill="none" stroke="#63b8ff" d="M346.18,-164.89C328.3,-157.17 302.95,-144.66 284,-129 267.88,-115.68 253.37,-96.56 243.98,-82.79"/>
<polygon fill="#63b8ff" stroke="#63b8ff" points="246.78,-80.66 238.35,-74.24 240.93,-84.52 246.78,-80.66"/>
</a>
</g>
</g>
<!-- Node19&#45;&gt;Node3 -->
<g id="edge27_Node000019_Node000003" class="edge">
<title>Node19&#45;&gt;Node3</title>
<g id="a_edge27_Node000019_Node000003"><a xlink:title=" ">
<path fill="none" stroke="#63b8ff" d="M258.43,-164.98C237.57,-156.34 205.03,-142.87 181.23,-133.02"/>
<polygon fill="#63b8ff" stroke="#63b8ff" points="182.52,-129.76 171.94,-129.17 179.84,-136.23 182.52,-129.76"/>
</a>
</g>
</g>
<!-- Node19&#45;&gt;Node11 -->
<g id="edge26_Node000019_Node000011" class="edge">
<title>Node19&#45;&gt;Node11</title>
<g id="a_edge26_Node000019_Node000011"><a xlink:title=" ">
<path fill="none" stroke="#63b8ff" d="M302.7,-165.79C329.87,-156.96 374.69,-142.38 406.14,-132.16"/>
<polygon fill="#63b8ff" stroke="#63b8ff" points="407.41,-135.43 415.84,-129.01 405.25,-128.77 407.41,-135.43"/>
</a>
</g>
</g>
<!-- Node21&#45;&gt;Node9 -->
<g id="edge30_Node000021_Node000009" class="edge">
<title>Node21&#45;&gt;Node9</title>
<g id="a_edge30_Node000021_Node000009"><a xlink:title=" ">
<path fill="none" stroke="#63b8ff" d="M572.69,-239.08C542.6,-248.12 492.14,-262.39 455.32,-272.31"/>
<polygon fill="#63b8ff" stroke="#63b8ff" points="454.08,-269.02 445.32,-274.98 455.89,-275.78 454.08,-269.02"/>
</a>
</g>
</g>
</g>
</svg>
