<?xml version="1.0" encoding="UTF-8" standalone="no"?>
<!DOCTYPE svg PUBLIC "-//W3C//DTD SVG 1.1//EN"
 "http://www.w3.org/Graphics/SVG/1.1/DTD/svg11.dtd">
<!-- Generated by graphviz version 2.43.0 (0)
 -->
<!-- Title: EventEmitter.h Pages: 1 -->
<svg width="810pt" height="357pt"
 viewBox="0.00 0.00 810.00 357.00" xmlns="http://www.w3.org/2000/svg" xmlns:xlink="http://www.w3.org/1999/xlink">
<g id="graph0" class="graph" transform="scale(1 1) rotate(0) translate(4 353)">
<title>EventEmitter.h</title>
<!-- Node1 -->
<g id="Node000001" class="node">
<title>Node1</title>
<g id="a_Node000001"><a xlink:title=" ">
<polygon fill="#999999" stroke="#666666" points="464,-349 375,-349 375,-330 464,-330 464,-349"/>
<text text-anchor="middle" x="419.5" y="-337" font-family="Helvetica,sans-Serif" font-size="10.00">EventEmitter.h</text>
</a>
</g>
</g>
<!-- Node2 -->
<g id="Node000002" class="node">
<title>Node2</title>
<g id="a_Node000002"><a xlink:href="_date_8h.html" target="_top" xlink:title=" ">
<polygon fill="white" stroke="#666666" points="181,-239 132,-239 132,-220 181,-220 181,-239"/>
<text text-anchor="middle" x="156.5" y="-227" font-family="Helvetica,sans-Serif" font-size="10.00">Date.h</text>
</a>
</g>
</g>
<!-- Node1&#45;&gt;Node2 -->
<g id="edge1_Node000001_Node000002" class="edge">
<title>Node1&#45;&gt;Node2</title>
<g id="a_edge1_Node000001_Node000002"><a xlink:title=" ">
<path fill="none" stroke="#63b8ff" d="M400.8,-323.65C382,-309.36 351.68,-288.06 322.5,-275 309.56,-269.21 224.39,-247.5 181.33,-236.69"/>
<polygon fill="#63b8ff" stroke="#63b8ff" points="398.77,-326.5 408.82,-329.85 403.05,-320.96 398.77,-326.5"/>
</a>
</g>
</g>
<!-- Node10 -->
<g id="Node000010" class="node">
<title>Node10</title>
<g id="a_Node000010"><a xlink:href="_event_bus_8cpp.html" target="_top" xlink:title=" ">
<polygon fill="white" stroke="#666666" points="802,-239 719,-239 719,-220 802,-220 802,-239"/>
<text text-anchor="middle" x="760.5" y="-227" font-family="Helvetica,sans-Serif" font-size="10.00">EventBus.cpp</text>
</a>
</g>
</g>
<!-- Node1&#45;&gt;Node10 -->
<g id="edge13_Node000001_Node000010" class="edge">
<title>Node1&#45;&gt;Node10</title>
<g id="a_edge13_Node000001_Node000010"><a xlink:title=" ">
<path fill="none" stroke="#63b8ff" d="M436.76,-323.36C454.51,-308.64 483.58,-286.83 512.5,-275 521.99,-271.12 650.62,-249.05 718.77,-237.52"/>
<polygon fill="#63b8ff" stroke="#63b8ff" points="434.37,-320.8 429.01,-329.94 438.9,-326.14 434.37,-320.8"/>
</a>
</g>
</g>
<!-- Node11 -->
<g id="Node000011" class="node">
<title>Node11</title>
<g id="a_Node000011"><a xlink:href="_event_emitter_8cpp.html" target="_top" xlink:title=" ">
<polygon fill="white" stroke="#666666" points="621.5,-294 521.5,-294 521.5,-275 621.5,-275 621.5,-294"/>
<text text-anchor="middle" x="571.5" y="-282" font-family="Helvetica,sans-Serif" font-size="10.00">EventEmitter.cpp</text>
</a>
</g>
</g>
<!-- Node1&#45;&gt;Node11 -->
<g id="edge14_Node000001_Node000011" class="edge">
<title>Node1&#45;&gt;Node11</title>
<g id="a_edge14_Node000001_Node000011"><a xlink:title=" ">
<path fill="none" stroke="#63b8ff" d="M453.43,-326.67C481.77,-316.79 521.52,-302.93 546.89,-294.08"/>
<polygon fill="#63b8ff" stroke="#63b8ff" points="452.21,-323.39 443.92,-329.98 454.52,-330 452.21,-323.39"/>
</a>
</g>
</g>
<!-- Node12 -->
<g id="Node000012" class="node">
<title>Node12</title>
<g id="a_Node000012"><a xlink:href="_event_listener_8h.html" target="_top" xlink:title=" ">
<polygon fill="white" stroke="#666666" points="465.5,-294 373.5,-294 373.5,-275 465.5,-275 465.5,-294"/>
<text text-anchor="middle" x="419.5" y="-282" font-family="Helvetica,sans-Serif" font-size="10.00">EventListener.h</text>
</a>
</g>
</g>
<!-- Node1&#45;&gt;Node12 -->
<g id="edge15_Node000001_Node000012" class="edge">
<title>Node1&#45;&gt;Node12</title>
<g id="a_edge15_Node000001_Node000012"><a xlink:title=" ">
<path fill="none" stroke="#63b8ff" d="M419.5,-319.66C419.5,-310.93 419.5,-300.99 419.5,-294.09"/>
<polygon fill="#63b8ff" stroke="#63b8ff" points="416,-319.75 419.5,-329.75 423,-319.75 416,-319.75"/>
</a>
</g>
</g>
<!-- Node18 -->
<g id="Node000018" class="node">
<title>Node18</title>
<g id="a_Node000018"><a xlink:href="_network_scheduler_8h.html" target="_top" xlink:title="Complete WiFi network management and configuration system.">
<polygon fill="white" stroke="#666666" points="313.5,-294 199.5,-294 199.5,-275 313.5,-275 313.5,-294"/>
<text text-anchor="middle" x="256.5" y="-282" font-family="Helvetica,sans-Serif" font-size="10.00">NetworkScheduler.h</text>
</a>
</g>
</g>
<!-- Node1&#45;&gt;Node18 -->
<g id="edge28_Node000001_Node000018" class="edge">
<title>Node1&#45;&gt;Node18</title>
<g id="a_edge28_Node000001_Node000018"><a xlink:title=" ">
<path fill="none" stroke="#63b8ff" d="M383.51,-326.8C353.09,-316.91 310.22,-302.97 282.89,-294.08"/>
<polygon fill="#63b8ff" stroke="#63b8ff" points="382.72,-330.22 393.31,-329.98 384.88,-323.56 382.72,-330.22"/>
</a>
</g>
</g>
<!-- Node3 -->
<g id="Node000003" class="node">
<title>Node3</title>
<g id="a_Node000003"><a xlink:href="_app_kit_8h.html" target="_top" xlink:title=" ">
<polygon fill="white" stroke="#666666" points="293.5,-129 235.5,-129 235.5,-110 293.5,-110 293.5,-129"/>
<text text-anchor="middle" x="264.5" y="-117" font-family="Helvetica,sans-Serif" font-size="10.00">AppKit.h</text>
</a>
</g>
</g>
<!-- Node2&#45;&gt;Node3 -->
<g id="edge2_Node000002_Node000003" class="edge">
<title>Node2&#45;&gt;Node3</title>
<g id="a_edge2_Node000002_Node000003"><a xlink:title=" ">
<path fill="none" stroke="#63b8ff" d="M161.21,-209.92C165.45,-196.21 172.84,-177.79 184.5,-165 199.81,-148.21 222.98,-136.29 240.45,-129.04"/>
<polygon fill="#63b8ff" stroke="#63b8ff" points="157.8,-209.14 158.46,-219.71 164.54,-211.03 157.8,-209.14"/>
</a>
</g>
</g>
<!-- Node4 -->
<g id="Node000004" class="node">
<title>Node4</title>
<g id="a_Node000004"><a xlink:href="_uniot_8h.html" target="_top" xlink:title="Main API interface for the Uniot IoT platform.">
<polygon fill="white" stroke="#666666" points="205.5,-74 153.5,-74 153.5,-55 205.5,-55 205.5,-74"/>
<text text-anchor="middle" x="179.5" y="-62" font-family="Helvetica,sans-Serif" font-size="10.00">Uniot.h</text>
</a>
</g>
</g>
<!-- Node2&#45;&gt;Node4 -->
<g id="edge12_Node000002_Node000004" class="edge">
<title>Node2&#45;&gt;Node4</title>
<g id="a_edge12_Node000002_Node000004"><a xlink:title=" ">
<path fill="none" stroke="#63b8ff" d="M159.13,-209.83C164.1,-174.67 174.65,-99.9 178.26,-74.31"/>
<polygon fill="#63b8ff" stroke="#63b8ff" points="155.67,-209.35 157.74,-219.74 162.6,-210.32 155.67,-209.35"/>
</a>
</g>
</g>
<!-- Node6 -->
<g id="Node000006" class="node">
<title>Node6</title>
<g id="a_Node000006"><a xlink:href="_lisp_device_8h.html" target="_top" xlink:title=" ">
<polygon fill="white" stroke="#666666" points="405,-184 326,-184 326,-165 405,-165 405,-184"/>
<text text-anchor="middle" x="365.5" y="-172" font-family="Helvetica,sans-Serif" font-size="10.00">LispDevice.h</text>
</a>
</g>
</g>
<!-- Node2&#45;&gt;Node6 -->
<g id="edge5_Node000002_Node000006" class="edge">
<title>Node2&#45;&gt;Node6</title>
<g id="a_edge5_Node000002_Node000006"><a xlink:title=" ">
<path fill="none" stroke="#63b8ff" d="M191.15,-219.71C230.16,-209.82 293.13,-193.85 331.76,-184.05"/>
<polygon fill="#63b8ff" stroke="#63b8ff" points="190.13,-216.36 181.3,-222.21 191.85,-223.15 190.13,-216.36"/>
</a>
</g>
</g>
<!-- Node7 -->
<g id="Node000007" class="node">
<title>Node7</title>
<g id="a_Node000007"><a xlink:href="_m_q_t_t_kit_8h.html" target="_top" xlink:title=" ">
<polygon fill="white" stroke="#666666" points="99.5,-184 31.5,-184 31.5,-165 99.5,-165 99.5,-184"/>
<text text-anchor="middle" x="65.5" y="-172" font-family="Helvetica,sans-Serif" font-size="10.00">MQTTKit.h</text>
</a>
</g>
</g>
<!-- Node2&#45;&gt;Node7 -->
<g id="edge7_Node000002_Node000007" class="edge">
<title>Node2&#45;&gt;Node7</title>
<g id="a_edge7_Node000002_Node000007"><a xlink:title=" ">
<path fill="none" stroke="#63b8ff" d="M132.8,-214.7C116.22,-205.04 94.59,-192.44 80.39,-184.17"/>
<polygon fill="#63b8ff" stroke="#63b8ff" points="131.48,-217.98 141.88,-219.98 135,-211.93 131.48,-217.98"/>
</a>
</g>
</g>
<!-- Node9 -->
<g id="Node000009" class="node">
<title>Node9</title>
<g id="a_Node000009"><a xlink:href="_top_device_8h.html" target="_top" xlink:title=" ">
<polygon fill="white" stroke="#666666" points="269.5,-184 193.5,-184 193.5,-165 269.5,-165 269.5,-184"/>
<text text-anchor="middle" x="231.5" y="-172" font-family="Helvetica,sans-Serif" font-size="10.00">TopDevice.h</text>
</a>
</g>
</g>
<!-- Node2&#45;&gt;Node9 -->
<g id="edge10_Node000002_Node000009" class="edge">
<title>Node2&#45;&gt;Node9</title>
<g id="a_edge10_Node000002_Node000009"><a xlink:title=" ">
<path fill="none" stroke="#63b8ff" d="M176.81,-214.15C190.36,-204.57 207.74,-192.29 219.23,-184.17"/>
<polygon fill="#63b8ff" stroke="#63b8ff" points="174.7,-211.36 168.55,-219.98 178.74,-217.07 174.7,-211.36"/>
</a>
</g>
</g>
<!-- Node3&#45;&gt;Node4 -->
<g id="edge3_Node000003_Node000004" class="edge">
<title>Node3&#45;&gt;Node4</title>
<g id="a_edge3_Node000003_Node000004"><a xlink:title=" ">
<path fill="none" stroke="#63b8ff" d="M241.93,-104.42C226.5,-94.81 206.55,-82.37 193.41,-74.17"/>
<polygon fill="#63b8ff" stroke="#63b8ff" points="240.51,-107.66 250.84,-109.98 244.21,-101.72 240.51,-107.66"/>
</a>
</g>
</g>
<!-- Node5 -->
<g id="Node000005" class="node">
<title>Node5</title>
<g id="a_Node000005"><a xlink:href="_uniot_8cpp.html" target="_top" xlink:title=" ">
<polygon fill="white" stroke="#666666" points="211,-19 148,-19 148,0 211,0 211,-19"/>
<text text-anchor="middle" x="179.5" y="-7" font-family="Helvetica,sans-Serif" font-size="10.00">Uniot.cpp</text>
</a>
</g>
</g>
<!-- Node4&#45;&gt;Node5 -->
<g id="edge4_Node000004_Node000005" class="edge">
<title>Node4&#45;&gt;Node5</title>
<g id="a_edge4_Node000004_Node000005"><a xlink:title=" ">
<path fill="none" stroke="#63b8ff" d="M179.5,-44.66C179.5,-35.93 179.5,-25.99 179.5,-19.09"/>
<polygon fill="#63b8ff" stroke="#63b8ff" points="176,-44.75 179.5,-54.75 183,-44.75 176,-44.75"/>
</a>
</g>
</g>
<!-- Node6&#45;&gt;Node3 -->
<g id="edge6_Node000006_Node000003" class="edge">
<title>Node6&#45;&gt;Node3</title>
<g id="a_edge6_Node000006_Node000003"><a xlink:title=" ">
<path fill="none" stroke="#63b8ff" d="M340.22,-160.23C321.7,-150.51 297.08,-137.6 281.02,-129.17"/>
<polygon fill="#63b8ff" stroke="#63b8ff" points="338.79,-163.44 349.27,-164.98 342.04,-157.24 338.79,-163.44"/>
</a>
</g>
</g>
<!-- Node7&#45;&gt;Node3 -->
<g id="edge8_Node000007_Node000003" class="edge">
<title>Node7&#45;&gt;Node3</title>
<g id="a_edge8_Node000007_Node000003"><a xlink:title=" ">
<path fill="none" stroke="#63b8ff" d="M107.3,-162.37C145.63,-152.16 201.42,-137.3 235.2,-128.3"/>
<polygon fill="#63b8ff" stroke="#63b8ff" points="106.24,-159.03 97.47,-164.98 108.04,-165.79 106.24,-159.03"/>
</a>
</g>
</g>
<!-- Node8 -->
<g id="Node000008" class="node">
<title>Node8</title>
<g id="a_Node000008"><a xlink:href="_m_q_t_t_device_8cpp.html" target="_top" xlink:title=" ">
<polygon fill="white" stroke="#666666" points="99,-129 0,-129 0,-110 99,-110 99,-129"/>
<text text-anchor="middle" x="49.5" y="-117" font-family="Helvetica,sans-Serif" font-size="10.00">MQTTDevice.cpp</text>
</a>
</g>
</g>
<!-- Node7&#45;&gt;Node8 -->
<g id="edge9_Node000007_Node000008" class="edge">
<title>Node7&#45;&gt;Node8</title>
<g id="a_edge9_Node000007_Node000008"><a xlink:title=" ">
<path fill="none" stroke="#63b8ff" d="M59.9,-154.95C57.24,-146.15 54.2,-136.06 52.09,-129.09"/>
<polygon fill="#63b8ff" stroke="#63b8ff" points="56.62,-156.19 62.86,-164.75 63.32,-154.16 56.62,-156.19"/>
</a>
</g>
</g>
<!-- Node9&#45;&gt;Node3 -->
<g id="edge11_Node000009_Node000003" class="edge">
<title>Node9&#45;&gt;Node3</title>
<g id="a_edge11_Node000009_Node000003"><a xlink:title=" ">
<path fill="none" stroke="#63b8ff" d="M242.33,-156.1C247.97,-147.04 254.62,-136.37 259.15,-129.09"/>
<polygon fill="#63b8ff" stroke="#63b8ff" points="239.26,-154.41 236.95,-164.75 245.21,-158.11 239.26,-154.41"/>
</a>
</g>
</g>
<!-- Node12&#45;&gt;Node6 -->
<g id="edge21_Node000012_Node000006" class="edge">
<title>Node12&#45;&gt;Node6</title>
<g id="a_edge21_Node000012_Node000006"><a xlink:title=" ">
<path fill="none" stroke="#63b8ff" d="M392.14,-269.89C380.43,-262.5 367.99,-252.15 361.5,-239 352.71,-221.17 358.26,-197.02 362.33,-184.25"/>
<polygon fill="#63b8ff" stroke="#63b8ff" points="390.43,-272.95 400.83,-274.97 393.96,-266.9 390.43,-272.95"/>
</a>
</g>
</g>
<!-- Node12&#45;&gt;Node7 -->
<g id="edge22_Node000012_Node000007" class="edge">
<title>Node12&#45;&gt;Node7</title>
<g id="a_edge22_Node000012_Node000007"><a xlink:title=" ">
<path fill="none" stroke="#63b8ff" d="M363.32,-277.16C283.15,-267.8 143.27,-250.19 122.5,-239 98.24,-225.93 79.14,-198.33 70.51,-184.22"/>
<polygon fill="#63b8ff" stroke="#63b8ff" points="362.93,-280.64 373.27,-278.32 363.74,-273.69 362.93,-280.64"/>
</a>
</g>
</g>
<!-- Node12&#45;&gt;Node10 -->
<g id="edge19_Node000012_Node000010" class="edge">
<title>Node12&#45;&gt;Node10</title>
<g id="a_edge19_Node000012_Node000010"><a xlink:title=" ">
<path fill="none" stroke="#63b8ff" d="M475.87,-275.07C534.33,-266.28 628.36,-251.99 709.5,-239 712.51,-238.52 715.63,-238.01 718.76,-237.5"/>
<polygon fill="#63b8ff" stroke="#63b8ff" points="475.11,-271.65 465.74,-276.59 476.15,-278.57 475.11,-271.65"/>
</a>
</g>
</g>
<!-- Node13 -->
<g id="Node000013" class="node">
<title>Node13</title>
<g id="a_Node000013"><a xlink:href="_callback_event_listener_8h.html" target="_top" xlink:title=" ">
<polygon fill="white" stroke="#666666" points="700.5,-239 566.5,-239 566.5,-220 700.5,-220 700.5,-239"/>
<text text-anchor="middle" x="633.5" y="-227" font-family="Helvetica,sans-Serif" font-size="10.00">CallbackEventListener.h</text>
</a>
</g>
</g>
<!-- Node12&#45;&gt;Node13 -->
<g id="edge16_Node000012_Node000013" class="edge">
<title>Node12&#45;&gt;Node13</title>
<g id="a_edge16_Node000012_Node000013"><a xlink:title=" ">
<path fill="none" stroke="#63b8ff" d="M463.66,-272.56C503.74,-262.64 562.04,-248.2 598.85,-239.08"/>
<polygon fill="#63b8ff" stroke="#63b8ff" points="462.75,-269.18 453.88,-274.98 464.43,-275.98 462.75,-269.18"/>
</a>
</g>
</g>
<!-- Node15 -->
<g id="Node000015" class="node">
<title>Node15</title>
<g id="a_Node000015"><a xlink:href="_event_listener_8cpp.html" target="_top" xlink:title=" ">
<polygon fill="white" stroke="#666666" points="473,-239 370,-239 370,-220 473,-220 473,-239"/>
<text text-anchor="middle" x="421.5" y="-227" font-family="Helvetica,sans-Serif" font-size="10.00">EventListener.cpp</text>
</a>
</g>
</g>
<!-- Node12&#45;&gt;Node15 -->
<g id="edge20_Node000012_Node000015" class="edge">
<title>Node12&#45;&gt;Node15</title>
<g id="a_edge20_Node000012_Node000015"><a xlink:title=" ">
<path fill="none" stroke="#63b8ff" d="M420.21,-264.66C420.54,-255.93 420.92,-245.99 421.18,-239.09"/>
<polygon fill="#63b8ff" stroke="#63b8ff" points="416.71,-264.62 419.83,-274.75 423.7,-264.89 416.71,-264.62"/>
</a>
</g>
</g>
<!-- Node16 -->
<g id="Node000016" class="node">
<title>Node16</title>
<g id="a_Node000016"><a xlink:href="_network_controller_8h.html" target="_top" xlink:title="High&#45;level network management controller with user interface.">
<polygon fill="white" stroke="#666666" points="313.5,-239 199.5,-239 199.5,-220 313.5,-220 313.5,-239"/>
<text text-anchor="middle" x="256.5" y="-227" font-family="Helvetica,sans-Serif" font-size="10.00">NetworkController.h</text>
</a>
</g>
</g>
<!-- Node12&#45;&gt;Node16 -->
<g id="edge23_Node000012_Node000016" class="edge">
<title>Node12&#45;&gt;Node16</title>
<g id="a_edge23_Node000012_Node000016"><a xlink:title=" ">
<path fill="none" stroke="#63b8ff" d="M383.51,-271.8C353.09,-261.91 310.22,-247.97 282.89,-239.08"/>
<polygon fill="#63b8ff" stroke="#63b8ff" points="382.72,-275.22 393.31,-274.98 384.88,-268.56 382.72,-275.22"/>
</a>
</g>
</g>
<!-- Node17 -->
<g id="Node000017" class="node">
<title>Node17</title>
<g id="a_Node000017"><a xlink:href="un_lisp_8h.html" target="_top" xlink:title=" ">
<polygon fill="white" stroke="#666666" points="548,-239 491,-239 491,-220 548,-220 548,-239"/>
<text text-anchor="middle" x="519.5" y="-227" font-family="Helvetica,sans-Serif" font-size="10.00">unLisp.h</text>
</a>
</g>
</g>
<!-- Node12&#45;&gt;Node17 -->
<g id="edge25_Node000012_Node000017" class="edge">
<title>Node12&#45;&gt;Node17</title>
<g id="a_edge25_Node000012_Node000017"><a xlink:title=" ">
<path fill="none" stroke="#63b8ff" d="M444.53,-270.23C462.87,-260.51 487.24,-247.6 503.14,-239.17"/>
<polygon fill="#63b8ff" stroke="#63b8ff" points="442.76,-267.21 435.57,-274.98 446.04,-273.39 442.76,-267.21"/>
</a>
</g>
</g>
<!-- Node13&#45;&gt;Node3 -->
<g id="edge17_Node000013_Node000003" class="edge">
<title>Node13&#45;&gt;Node3</title>
<g id="a_edge17_Node000013_Node000003"><a xlink:title=" ">
<path fill="none" stroke="#63b8ff" d="M633.75,-209.7C632.86,-195.27 629.12,-176.01 616.5,-165 568.58,-123.18 368.93,-119.87 293.52,-120.16"/>
<polygon fill="#63b8ff" stroke="#63b8ff" points="630.26,-210.06 633.97,-219.98 637.25,-209.91 630.26,-210.06"/>
</a>
</g>
</g>
<!-- Node14 -->
<g id="Node000014" class="node">
<title>Node14</title>
<g id="a_Node000014"><a xlink:href="_callback_event_listener_8cpp.html" target="_top" xlink:title=" ">
<polygon fill="white" stroke="#666666" points="607,-184 462,-184 462,-165 607,-165 607,-184"/>
<text text-anchor="middle" x="534.5" y="-172" font-family="Helvetica,sans-Serif" font-size="10.00">CallbackEventListener.cpp</text>
</a>
</g>
</g>
<!-- Node13&#45;&gt;Node14 -->
<g id="edge18_Node000013_Node000014" class="edge">
<title>Node13&#45;&gt;Node14</title>
<g id="a_edge18_Node000013_Node000014"><a xlink:title=" ">
<path fill="none" stroke="#63b8ff" d="M608.72,-215.23C590.56,-205.51 566.44,-192.6 550.7,-184.17"/>
<polygon fill="#63b8ff" stroke="#63b8ff" points="607.13,-218.35 617.59,-219.98 610.43,-212.18 607.13,-218.35"/>
</a>
</g>
</g>
<!-- Node16&#45;&gt;Node3 -->
<g id="edge24_Node000016_Node000003" class="edge">
<title>Node16&#45;&gt;Node3</title>
<g id="a_edge24_Node000016_Node000003"><a xlink:title=" ">
<path fill="none" stroke="#63b8ff" d="M267.43,-211.09C271.79,-203.15 276.3,-193.43 278.5,-184 283.07,-164.43 274.52,-141.38 268.88,-129.14"/>
<polygon fill="#63b8ff" stroke="#63b8ff" points="264.38,-209.36 262.34,-219.76 270.42,-212.91 264.38,-209.36"/>
</a>
</g>
</g>
<!-- Node17&#45;&gt;Node3 -->
<g id="edge26_Node000017_Node000003" class="edge">
<title>Node17&#45;&gt;Node3</title>
<g id="a_edge26_Node000017_Node000003"><a xlink:title=" ">
<path fill="none" stroke="#63b8ff" d="M499.2,-214.07C478.65,-199.98 445.56,-178.73 414.5,-165 374.13,-147.16 324.57,-134.04 293.76,-126.83"/>
<polygon fill="#63b8ff" stroke="#63b8ff" points="497.24,-216.97 507.45,-219.8 501.24,-211.22 497.24,-216.97"/>
</a>
</g>
</g>
<!-- Node17&#45;&gt;Node6 -->
<g id="edge27_Node000017_Node000006" class="edge">
<title>Node17&#45;&gt;Node6</title>
<g id="a_edge27_Node000017_Node000006"><a xlink:title=" ">
<path fill="none" stroke="#63b8ff" d="M485.12,-216.67C456.41,-206.79 416.14,-192.93 390.44,-184.08"/>
<polygon fill="#63b8ff" stroke="#63b8ff" points="484.16,-220.04 494.76,-219.98 486.44,-213.42 484.16,-220.04"/>
</a>
</g>
</g>
<!-- Node18&#45;&gt;Node7 -->
<g id="edge29_Node000018_Node000007" class="edge">
<title>Node18&#45;&gt;Node7</title>
<g id="a_edge29_Node000018_Node000007"><a xlink:title=" ">
<path fill="none" stroke="#63b8ff" d="M188.99,-279.79C155.5,-274.7 116.53,-263.43 89.5,-239 73.41,-224.46 68.05,-198.02 66.31,-184.29"/>
<polygon fill="#63b8ff" stroke="#63b8ff" points="188.81,-283.3 199.19,-281.18 189.75,-276.36 188.81,-283.3"/>
</a>
</g>
</g>
<!-- Node18&#45;&gt;Node16 -->
<g id="edge30_Node000018_Node000016" class="edge">
<title>Node18&#45;&gt;Node16</title>
<g id="a_edge30_Node000018_Node000016"><a xlink:title=" ">
<path fill="none" stroke="#63b8ff" d="M256.5,-264.66C256.5,-255.93 256.5,-245.99 256.5,-239.09"/>
<polygon fill="#63b8ff" stroke="#63b8ff" points="253,-264.75 256.5,-274.75 260,-264.75 253,-264.75"/>
</a>
</g>
</g>
</g>
</svg>
