<?xml version="1.0" encoding="UTF-8" standalone="no"?>
<!DOCTYPE svg PUBLIC "-//W3C//DTD SVG 1.1//EN"
 "http://www.w3.org/Graphics/SVG/1.1/DTD/svg11.dtd">
<!-- Generated by graphviz version 2.43.0 (0)
 -->
<!-- Title: EventEmitter.cpp Pages: 1 -->
<svg width="811pt" height="357pt"
 viewBox="0.00 0.00 811.00 357.00" xmlns="http://www.w3.org/2000/svg" xmlns:xlink="http://www.w3.org/1999/xlink">
<g id="graph0" class="graph" transform="scale(1 1) rotate(0) translate(4 353)">
<title>EventEmitter.cpp</title>
<!-- Node1 -->
<g id="Node000001" class="node">
<title>Node1</title>
<g id="a_Node000001"><a xlink:title=" ">
<polygon fill="#999999" stroke="#666666" points="683,-349 583,-349 583,-330 683,-330 683,-349"/>
<text text-anchor="middle" x="633" y="-337" font-family="Helvetica,sans-Serif" font-size="10.00">EventEmitter.cpp</text>
</a>
</g>
</g>
<!-- Node2 -->
<g id="Node000002" class="node">
<title>Node2</title>
<g id="a_Node000002"><a xlink:href="_event_emitter_8h.html" target="_top" xlink:title=" ">
<polygon fill="white" stroke="#666666" points="677.5,-239 588.5,-239 588.5,-220 677.5,-220 677.5,-239"/>
<text text-anchor="middle" x="633" y="-227" font-family="Helvetica,sans-Serif" font-size="10.00">EventEmitter.h</text>
</a>
</g>
</g>
<!-- Node1&#45;&gt;Node2 -->
<g id="edge1_Node000001_Node000002" class="edge">
<title>Node1&#45;&gt;Node2</title>
<g id="a_edge1_Node000001_Node000002"><a xlink:title=" ">
<path fill="none" stroke="#63b8ff" d="M633,-329.66C633,-312.17 633,-272.8 633,-249.27"/>
<polygon fill="#63b8ff" stroke="#63b8ff" points="636.5,-249.16 633,-239.16 629.5,-249.16 636.5,-249.16"/>
</a>
</g>
</g>
<!-- Node8 -->
<g id="Node000008" class="node">
<title>Node8</title>
<g id="a_Node000008"><a xlink:title=" ">
<polygon fill="#e0e0e0" stroke="#999999" points="588.5,-19 525.5,-19 525.5,0 588.5,0 588.5,-19"/>
<text text-anchor="middle" x="557" y="-7" font-family="Helvetica,sans-Serif" font-size="10.00">Arduino.h</text>
</a>
</g>
</g>
<!-- Node1&#45;&gt;Node8 -->
<g id="edge20_Node000001_Node000008" class="edge">
<title>Node1&#45;&gt;Node8</title>
<g id="a_edge20_Node000001_Node000008"><a xlink:title=" ">
<path fill="none" stroke="#63b8ff" d="M679,-329.92C729.35,-317.56 803,-289.42 803,-230.5 803,-230.5 803,-230.5 803,-118.5 803,-30.43 669.19,-13.52 598.95,-10.71"/>
<polygon fill="#63b8ff" stroke="#63b8ff" points="598.76,-7.21 588.66,-10.39 598.54,-14.2 598.76,-7.21"/>
</a>
</g>
</g>
<!-- Node17 -->
<g id="Node000017" class="node">
<title>Node17</title>
<g id="a_Node000017"><a xlink:href="_event_bus_8h.html" target="_top" xlink:title=" ">
<polygon fill="white" stroke="#666666" points="283.5,-294 212.5,-294 212.5,-275 283.5,-275 283.5,-294"/>
<text text-anchor="middle" x="248" y="-282" font-family="Helvetica,sans-Serif" font-size="10.00">EventBus.h</text>
</a>
</g>
</g>
<!-- Node1&#45;&gt;Node17 -->
<g id="edge21_Node000001_Node000017" class="edge">
<title>Node1&#45;&gt;Node17</title>
<g id="a_edge21_Node000001_Node000017"><a xlink:title=" ">
<path fill="none" stroke="#63b8ff" d="M582.67,-331.57C507.39,-321.21 366.57,-301.82 293.94,-291.82"/>
<polygon fill="#63b8ff" stroke="#63b8ff" points="294.12,-288.32 283.73,-290.42 293.16,-295.25 294.12,-288.32"/>
</a>
</g>
</g>
<!-- Node3 -->
<g id="Node000003" class="node">
<title>Node3</title>
<g id="a_Node000003"><a xlink:href="_bytes_8h.html" target="_top" xlink:title=" ">
<polygon fill="white" stroke="#666666" points="411.5,-184 358.5,-184 358.5,-165 411.5,-165 411.5,-184"/>
<text text-anchor="middle" x="385" y="-172" font-family="Helvetica,sans-Serif" font-size="10.00">Bytes.h</text>
</a>
</g>
</g>
<!-- Node2&#45;&gt;Node3 -->
<g id="edge2_Node000002_Node000003" class="edge">
<title>Node2&#45;&gt;Node3</title>
<g id="a_edge2_Node000002_Node000003"><a xlink:title=" ">
<path fill="none" stroke="#63b8ff" d="M593.15,-219.98C545.8,-209.86 467.45,-193.12 421.58,-183.32"/>
<polygon fill="#63b8ff" stroke="#63b8ff" points="422.26,-179.88 411.75,-181.22 420.8,-186.73 422.26,-179.88"/>
</a>
</g>
</g>
<!-- Node13 -->
<g id="Node000013" class="node">
<title>Node13</title>
<g id="a_Node000013"><a xlink:href="_iterable_queue_8h.html" target="_top" xlink:title=" ">
<polygon fill="white" stroke="#666666" points="774.5,-129 679.5,-129 679.5,-110 774.5,-110 774.5,-129"/>
<text text-anchor="middle" x="727" y="-117" font-family="Helvetica,sans-Serif" font-size="10.00">IterableQueue.h</text>
</a>
</g>
</g>
<!-- Node2&#45;&gt;Node13 -->
<g id="edge12_Node000002_Node000013" class="edge">
<title>Node2&#45;&gt;Node13</title>
<g id="a_edge12_Node000002_Node000013"><a xlink:title=" ">
<path fill="none" stroke="#63b8ff" d="M643.75,-219.9C654.12,-211.36 669.96,-197.59 682,-184 694.98,-169.35 707.68,-150.95 716.26,-137.73"/>
<polygon fill="#63b8ff" stroke="#63b8ff" points="719.3,-139.47 721.72,-129.15 713.4,-135.71 719.3,-139.47"/>
</a>
</g>
</g>
<!-- Node15 -->
<g id="Node000015" class="node">
<title>Node15</title>
<g id="a_Node000015"><a xlink:href="_event_entity_8h.html" target="_top" xlink:title=" ">
<polygon fill="white" stroke="#666666" points="673,-184 593,-184 593,-165 673,-165 673,-184"/>
<text text-anchor="middle" x="633" y="-172" font-family="Helvetica,sans-Serif" font-size="10.00">EventEntity.h</text>
</a>
</g>
</g>
<!-- Node2&#45;&gt;Node15 -->
<g id="edge16_Node000002_Node000015" class="edge">
<title>Node2&#45;&gt;Node15</title>
<g id="a_edge16_Node000002_Node000015"><a xlink:title=" ">
<path fill="none" stroke="#63b8ff" d="M633,-219.75C633,-212.8 633,-202.85 633,-194.13"/>
<polygon fill="#63b8ff" stroke="#63b8ff" points="636.5,-194.09 633,-184.09 629.5,-194.09 636.5,-194.09"/>
</a>
</g>
</g>
<!-- Node4 -->
<g id="Node000004" class="node">
<title>Node4</title>
<g id="a_Node000004"><a xlink:href="_common_8h.html" target="_top" xlink:title=" ">
<polygon fill="white" stroke="#666666" points="510,-129 440,-129 440,-110 510,-110 510,-129"/>
<text text-anchor="middle" x="475" y="-117" font-family="Helvetica,sans-Serif" font-size="10.00">Common.h</text>
</a>
</g>
</g>
<!-- Node3&#45;&gt;Node4 -->
<g id="edge3_Node000003_Node000004" class="edge">
<title>Node3&#45;&gt;Node4</title>
<g id="a_edge3_Node000003_Node000004"><a xlink:title=" ">
<path fill="none" stroke="#63b8ff" d="M399.46,-164.98C413.42,-156.77 434.79,-144.18 451.25,-134.49"/>
<polygon fill="#63b8ff" stroke="#63b8ff" points="453.44,-137.26 460.28,-129.17 449.88,-131.23 453.44,-137.26"/>
</a>
</g>
</g>
<!-- Node7 -->
<g id="Node000007" class="node">
<title>Node7</title>
<g id="a_Node000007"><a xlink:href="_logger_8h.html" target="_top" xlink:title=" ">
<polygon fill="white" stroke="#666666" points="586,-129 528,-129 528,-110 586,-110 586,-129"/>
<text text-anchor="middle" x="557" y="-117" font-family="Helvetica,sans-Serif" font-size="10.00">Logger.h</text>
</a>
</g>
</g>
<!-- Node3&#45;&gt;Node7 -->
<g id="edge6_Node000003_Node000007" class="edge">
<title>Node3&#45;&gt;Node7</title>
<g id="a_edge6_Node000003_Node000007"><a xlink:title=" ">
<path fill="none" stroke="#63b8ff" d="M411.88,-165.22C440.82,-156.3 487.07,-142.05 519.57,-132.03"/>
<polygon fill="#63b8ff" stroke="#63b8ff" points="520.65,-135.36 529.17,-129.07 518.59,-128.67 520.65,-135.36"/>
</a>
</g>
</g>
<!-- Node9 -->
<g id="Node000009" class="node">
<title>Node9</title>
<g id="a_Node000009"><a xlink:title=" ">
<polygon fill="#e0e0e0" stroke="#999999" points="316,-129 252,-129 252,-110 316,-110 316,-129"/>
<text text-anchor="middle" x="284" y="-117" font-family="Helvetica,sans-Serif" font-size="10.00">WString.h</text>
</a>
</g>
</g>
<!-- Node3&#45;&gt;Node9 -->
<g id="edge8_Node000003_Node000009" class="edge">
<title>Node3&#45;&gt;Node9</title>
<g id="a_edge8_Node000003_Node000009"><a xlink:title=" ">
<path fill="none" stroke="#63b8ff" d="M368.77,-164.98C352.82,-156.61 328.22,-143.7 309.62,-133.95"/>
<polygon fill="#63b8ff" stroke="#63b8ff" points="311,-130.72 300.52,-129.17 307.75,-136.92 311,-130.72"/>
</a>
</g>
</g>
<!-- Node10 -->
<g id="Node000010" class="node">
<title>Node10</title>
<g id="a_Node000010"><a xlink:title=" ">
<polygon fill="#e0e0e0" stroke="#999999" points="422,-129 372,-129 372,-110 422,-110 422,-129"/>
<text text-anchor="middle" x="397" y="-117" font-family="Helvetica,sans-Serif" font-size="10.00">stdio.h</text>
</a>
</g>
</g>
<!-- Node3&#45;&gt;Node10 -->
<g id="edge9_Node000003_Node000010" class="edge">
<title>Node3&#45;&gt;Node10</title>
<g id="a_edge9_Node000003_Node000010"><a xlink:title=" ">
<path fill="none" stroke="#63b8ff" d="M386.98,-164.75C388.57,-157.72 390.86,-147.62 392.85,-138.84"/>
<polygon fill="#63b8ff" stroke="#63b8ff" points="396.26,-139.62 395.06,-129.09 389.43,-138.07 396.26,-139.62"/>
</a>
</g>
</g>
<!-- Node11 -->
<g id="Node000011" class="node">
<title>Node11</title>
<g id="a_Node000011"><a xlink:title=" ">
<polygon fill="#e0e0e0" stroke="#999999" points="341.5,-19 276.5,-19 276.5,0 341.5,0 341.5,-19"/>
<text text-anchor="middle" x="309" y="-7" font-family="Helvetica,sans-Serif" font-size="10.00">functional</text>
</a>
</g>
</g>
<!-- Node3&#45;&gt;Node11 -->
<g id="edge10_Node000003_Node000011" class="edge">
<title>Node3&#45;&gt;Node11</title>
<g id="a_edge10_Node000003_Node000011"><a xlink:title=" ">
<path fill="none" stroke="#63b8ff" d="M380.53,-164.67C376.03,-155.72 368.92,-141.46 363,-129 346.18,-93.58 327.36,-51.76 316.98,-28.47"/>
<polygon fill="#63b8ff" stroke="#63b8ff" points="320.1,-26.88 312.84,-19.17 313.7,-29.73 320.1,-26.88"/>
</a>
</g>
</g>
<!-- Node12 -->
<g id="Node000012" class="node">
<title>Node12</title>
<g id="a_Node000012"><a xlink:title=" ">
<polygon fill="#e0e0e0" stroke="#999999" points="233.5,-129 164.5,-129 164.5,-110 233.5,-110 233.5,-129"/>
<text text-anchor="middle" x="199" y="-117" font-family="Helvetica,sans-Serif" font-size="10.00">type_traits</text>
</a>
</g>
</g>
<!-- Node3&#45;&gt;Node12 -->
<g id="edge11_Node000003_Node000012" class="edge">
<title>Node3&#45;&gt;Node12</title>
<g id="a_edge11_Node000003_Node000012"><a xlink:title=" ">
<path fill="none" stroke="#63b8ff" d="M358.35,-165.91C327.04,-156.98 274.8,-142.1 238.71,-131.81"/>
<polygon fill="#63b8ff" stroke="#63b8ff" points="239.57,-128.42 228.99,-129.05 237.65,-135.15 239.57,-128.42"/>
</a>
</g>
</g>
<!-- Node5 -->
<g id="Node000005" class="node">
<title>Node5</title>
<g id="a_Node000005"><a xlink:title=" ">
<polygon fill="#e0e0e0" stroke="#999999" points="449,-74 391,-74 391,-55 449,-55 449,-74"/>
<text text-anchor="middle" x="420" y="-62" font-family="Helvetica,sans-Serif" font-size="10.00">memory</text>
</a>
</g>
</g>
<!-- Node4&#45;&gt;Node5 -->
<g id="edge4_Node000004_Node000005" class="edge">
<title>Node4&#45;&gt;Node5</title>
<g id="a_edge4_Node000004_Node000005"><a xlink:title=" ">
<path fill="none" stroke="#63b8ff" d="M465.92,-109.75C457.91,-102.03 446.04,-90.6 436.38,-81.28"/>
<polygon fill="#63b8ff" stroke="#63b8ff" points="438.54,-78.51 428.91,-74.09 433.69,-83.55 438.54,-78.51"/>
</a>
</g>
</g>
<!-- Node6 -->
<g id="Node000006" class="node">
<title>Node6</title>
<g id="a_Node000006"><a xlink:title=" ">
<polygon fill="#e0e0e0" stroke="#999999" points="512.5,-74 467.5,-74 467.5,-55 512.5,-55 512.5,-74"/>
<text text-anchor="middle" x="490" y="-62" font-family="Helvetica,sans-Serif" font-size="10.00">utility</text>
</a>
</g>
</g>
<!-- Node4&#45;&gt;Node6 -->
<g id="edge5_Node000004_Node000006" class="edge">
<title>Node4&#45;&gt;Node6</title>
<g id="a_edge5_Node000004_Node000006"><a xlink:title=" ">
<path fill="none" stroke="#63b8ff" d="M477.48,-109.75C479.46,-102.72 482.32,-92.62 484.81,-83.84"/>
<polygon fill="#63b8ff" stroke="#63b8ff" points="488.21,-84.66 487.57,-74.09 481.48,-82.76 488.21,-84.66"/>
</a>
</g>
</g>
<!-- Node7&#45;&gt;Node8 -->
<g id="edge7_Node000007_Node000008" class="edge">
<title>Node7&#45;&gt;Node8</title>
<g id="a_edge7_Node000007_Node000008"><a xlink:title=" ">
<path fill="none" stroke="#63b8ff" d="M557,-109.66C557,-92.17 557,-52.8 557,-29.27"/>
<polygon fill="#63b8ff" stroke="#63b8ff" points="560.5,-29.16 557,-19.16 553.5,-29.16 560.5,-29.16"/>
</a>
</g>
</g>
<!-- Node14 -->
<g id="Node000014" class="node">
<title>Node14</title>
<g id="a_Node000014"><a xlink:href="_clear_queue_8h.html" target="_top" xlink:title=" ">
<polygon fill="white" stroke="#666666" points="315.5,-74 232.5,-74 232.5,-55 315.5,-55 315.5,-74"/>
<text text-anchor="middle" x="274" y="-62" font-family="Helvetica,sans-Serif" font-size="10.00">ClearQueue.h</text>
</a>
</g>
</g>
<!-- Node13&#45;&gt;Node14 -->
<g id="edge13_Node000013_Node000014" class="edge">
<title>Node13&#45;&gt;Node14</title>
<g id="a_edge13_Node000013_Node000014"><a xlink:title=" ">
<path fill="none" stroke="#63b8ff" d="M679.36,-111.14C676.53,-110.74 673.73,-110.36 671,-110 547.37,-93.7 401.58,-78.34 325.73,-70.65"/>
<polygon fill="#63b8ff" stroke="#63b8ff" points="325.8,-67.14 315.5,-69.61 325.1,-74.1 325.8,-67.14"/>
</a>
</g>
</g>
<!-- Node14&#45;&gt;Node8 -->
<g id="edge14_Node000014_Node000008" class="edge">
<title>Node14&#45;&gt;Node8</title>
<g id="a_edge14_Node000014_Node000008"><a xlink:title=" ">
<path fill="none" stroke="#63b8ff" d="M315.76,-55.68C369.35,-45.64 461.77,-28.34 515.32,-18.31"/>
<polygon fill="#63b8ff" stroke="#63b8ff" points="515.98,-21.74 525.17,-16.46 514.69,-14.86 515.98,-21.74"/>
</a>
</g>
</g>
<!-- Node14&#45;&gt;Node11 -->
<g id="edge15_Node000014_Node000011" class="edge">
<title>Node14&#45;&gt;Node11</title>
<g id="a_edge15_Node000014_Node000011"><a xlink:title=" ">
<path fill="none" stroke="#63b8ff" d="M279.78,-54.75C284.62,-47.42 291.68,-36.73 297.64,-27.7"/>
<polygon fill="#63b8ff" stroke="#63b8ff" points="300.74,-29.36 303.33,-19.09 294.9,-25.5 300.74,-29.36"/>
</a>
</g>
</g>
<!-- Node15&#45;&gt;Node7 -->
<g id="edge18_Node000015_Node000007" class="edge">
<title>Node15&#45;&gt;Node7</title>
<g id="a_edge18_Node000015_Node000007"><a xlink:title=" ">
<path fill="none" stroke="#63b8ff" d="M620.79,-164.98C609.22,-156.92 591.62,-144.65 577.84,-135.03"/>
<polygon fill="#63b8ff" stroke="#63b8ff" points="579.64,-132.02 569.43,-129.17 575.63,-137.76 579.64,-132.02"/>
</a>
</g>
</g>
<!-- Node15&#45;&gt;Node13 -->
<g id="edge17_Node000015_Node000013" class="edge">
<title>Node15&#45;&gt;Node13</title>
<g id="a_edge17_Node000015_Node000013"><a xlink:title=" ">
<path fill="none" stroke="#63b8ff" d="M648.1,-164.98C662.82,-156.69 685.42,-143.94 702.67,-134.22"/>
<polygon fill="#63b8ff" stroke="#63b8ff" points="704.63,-137.13 711.62,-129.17 701.19,-131.03 704.63,-137.13"/>
</a>
</g>
</g>
<!-- Node16 -->
<g id="Node000016" class="node">
<title>Node16</title>
<g id="a_Node000016"><a xlink:href="_type_id_8h.html" target="_top" xlink:title=" ">
<polygon fill="white" stroke="#666666" points="661.5,-129 604.5,-129 604.5,-110 661.5,-110 661.5,-129"/>
<text text-anchor="middle" x="633" y="-117" font-family="Helvetica,sans-Serif" font-size="10.00">TypeId.h</text>
</a>
</g>
</g>
<!-- Node15&#45;&gt;Node16 -->
<g id="edge19_Node000015_Node000016" class="edge">
<title>Node15&#45;&gt;Node16</title>
<g id="a_edge19_Node000015_Node000016"><a xlink:title=" ">
<path fill="none" stroke="#63b8ff" d="M633,-164.75C633,-157.8 633,-147.85 633,-139.13"/>
<polygon fill="#63b8ff" stroke="#63b8ff" points="636.5,-139.09 633,-129.09 629.5,-139.09 636.5,-139.09"/>
</a>
</g>
</g>
<!-- Node17&#45;&gt;Node3 -->
<g id="edge22_Node000017_Node000003" class="edge">
<title>Node17&#45;&gt;Node3</title>
<g id="a_edge22_Node000017_Node000003"><a xlink:title=" ">
<path fill="none" stroke="#63b8ff" d="M220.75,-274.98C190.31,-264.05 147.68,-243.67 167,-220 178.41,-206.03 289.22,-188.75 348.31,-180.44"/>
<polygon fill="#63b8ff" stroke="#63b8ff" points="348.94,-183.88 358.36,-179.04 347.98,-176.95 348.94,-183.88"/>
</a>
</g>
</g>
<!-- Node17&#45;&gt;Node14 -->
<g id="edge23_Node000017_Node000014" class="edge">
<title>Node17&#45;&gt;Node14</title>
<g id="a_edge23_Node000017_Node000014"><a xlink:title=" ">
<path fill="none" stroke="#63b8ff" d="M212.91,-274.91C193.8,-268.33 171.55,-257.21 159,-239 126.35,-191.62 114.77,-156.98 148,-110 164.81,-86.24 195.41,-75.08 222.24,-69.88"/>
<polygon fill="#63b8ff" stroke="#63b8ff" points="223.04,-73.29 232.31,-68.16 221.86,-66.39 223.04,-73.29"/>
</a>
</g>
</g>
<!-- Node18 -->
<g id="Node000018" class="node">
<title>Node18</title>
<g id="a_Node000018"><a xlink:href="_data_channels_8h.html" target="_top" xlink:title=" ">
<polygon fill="white" stroke="#666666" points="432,-239 338,-239 338,-220 432,-220 432,-239"/>
<text text-anchor="middle" x="385" y="-227" font-family="Helvetica,sans-Serif" font-size="10.00">DataChannels.h</text>
</a>
</g>
</g>
<!-- Node17&#45;&gt;Node18 -->
<g id="edge24_Node000017_Node000018" class="edge">
<title>Node17&#45;&gt;Node18</title>
<g id="a_edge24_Node000017_Node000018"><a xlink:title=" ">
<path fill="none" stroke="#63b8ff" d="M270.01,-274.98C292.45,-266.3 327.48,-252.75 352.99,-242.88"/>
<polygon fill="#63b8ff" stroke="#63b8ff" points="354.52,-246.04 362.59,-239.17 352,-239.51 354.52,-246.04"/>
</a>
</g>
</g>
<!-- Node21 -->
<g id="Node000021" class="node">
<title>Node21</title>
<g id="a_Node000021"><a xlink:href="_i_executor_8h.html" target="_top" xlink:title=" ">
<polygon fill="white" stroke="#666666" points="70,-239 0,-239 0,-220 70,-220 70,-239"/>
<text text-anchor="middle" x="35" y="-227" font-family="Helvetica,sans-Serif" font-size="10.00">IExecutor.h</text>
</a>
</g>
</g>
<!-- Node17&#45;&gt;Node21 -->
<g id="edge31_Node000017_Node000021" class="edge">
<title>Node17&#45;&gt;Node21</title>
<g id="a_edge31_Node000017_Node000021"><a xlink:title=" ">
<path fill="none" stroke="#63b8ff" d="M213.78,-274.98C177.24,-265.89 119.22,-251.46 79.24,-241.51"/>
<polygon fill="#63b8ff" stroke="#63b8ff" points="80.04,-238.1 69.49,-239.08 78.35,-244.89 80.04,-238.1"/>
</a>
</g>
</g>
<!-- Node22 -->
<g id="Node000022" class="node">
<title>Node22</title>
<g id="a_Node000022"><a xlink:href="_i_event_bus_connection_kit_8h.html" target="_top" xlink:title="Defines the interface for components that can connect to an EventBus.">
<polygon fill="white" stroke="#666666" points="319.5,-239 176.5,-239 176.5,-220 319.5,-220 319.5,-239"/>
<text text-anchor="middle" x="248" y="-227" font-family="Helvetica,sans-Serif" font-size="10.00">IEventBusConnectionKit.h</text>
</a>
</g>
</g>
<!-- Node17&#45;&gt;Node22 -->
<g id="edge32_Node000017_Node000022" class="edge">
<title>Node17&#45;&gt;Node22</title>
<g id="a_edge32_Node000017_Node000022"><a xlink:title=" ">
<path fill="none" stroke="#63b8ff" d="M242.83,-274.75C241.34,-267.8 240.9,-257.85 241.52,-249.13"/>
<polygon fill="#63b8ff" stroke="#63b8ff" points="245.01,-249.47 242.87,-239.09 238.07,-248.53 245.01,-249.47"/>
</a>
</g>
</g>
<!-- Node18&#45;&gt;Node3 -->
<g id="edge25_Node000018_Node000003" class="edge">
<title>Node18&#45;&gt;Node3</title>
<g id="a_edge25_Node000018_Node000003"><a xlink:title=" ">
<path fill="none" stroke="#63b8ff" d="M385,-219.75C385,-212.8 385,-202.85 385,-194.13"/>
<polygon fill="#63b8ff" stroke="#63b8ff" points="388.5,-194.09 385,-184.09 381.5,-194.09 388.5,-194.09"/>
</a>
</g>
</g>
<!-- Node19 -->
<g id="Node000019" class="node">
<title>Node19</title>
<g id="a_Node000019"><a xlink:href="_limited_queue_8h.html" target="_top" xlink:title=" ">
<polygon fill="white" stroke="#666666" points="274,-184 180,-184 180,-165 274,-165 274,-184"/>
<text text-anchor="middle" x="227" y="-172" font-family="Helvetica,sans-Serif" font-size="10.00">LimitedQueue.h</text>
</a>
</g>
</g>
<!-- Node18&#45;&gt;Node19 -->
<g id="edge26_Node000018_Node000019" class="edge">
<title>Node18&#45;&gt;Node19</title>
<g id="a_edge26_Node000018_Node000019"><a xlink:title=" ">
<path fill="none" stroke="#63b8ff" d="M359.61,-219.98C333.2,-211.13 291.65,-197.19 262.11,-187.28"/>
<polygon fill="#63b8ff" stroke="#63b8ff" points="263.18,-183.94 252.58,-184.08 260.95,-190.58 263.18,-183.94"/>
</a>
</g>
</g>
<!-- Node20 -->
<g id="Node000020" class="node">
<title>Node20</title>
<g id="a_Node000020"><a xlink:href="_map_8h.html" target="_top" xlink:title=" ">
<polygon fill="white" stroke="#666666" points="498.5,-184 451.5,-184 451.5,-165 498.5,-165 498.5,-184"/>
<text text-anchor="middle" x="475" y="-172" font-family="Helvetica,sans-Serif" font-size="10.00">Map.h</text>
</a>
</g>
</g>
<!-- Node18&#45;&gt;Node20 -->
<g id="edge28_Node000018_Node000020" class="edge">
<title>Node18&#45;&gt;Node20</title>
<g id="a_edge28_Node000018_Node000020"><a xlink:title=" ">
<path fill="none" stroke="#63b8ff" d="M399.46,-219.98C413.42,-211.77 434.79,-199.18 451.25,-189.49"/>
<polygon fill="#63b8ff" stroke="#63b8ff" points="453.44,-192.26 460.28,-184.17 449.88,-186.23 453.44,-192.26"/>
</a>
</g>
</g>
<!-- Node19&#45;&gt;Node14 -->
<g id="edge27_Node000019_Node000014" class="edge">
<title>Node19&#45;&gt;Node14</title>
<g id="a_edge27_Node000019_Node000014"><a xlink:title=" ">
<path fill="none" stroke="#63b8ff" d="M203.09,-164.89C176.34,-153.88 138.76,-133.42 155,-110 170.19,-88.1 197.56,-76.96 222.22,-71.3"/>
<polygon fill="#63b8ff" stroke="#63b8ff" points="223.13,-74.69 232.22,-69.26 221.73,-67.83 223.13,-74.69"/>
</a>
</g>
</g>
<!-- Node20&#45;&gt;Node4 -->
<g id="edge29_Node000020_Node000004" class="edge">
<title>Node20&#45;&gt;Node4</title>
<g id="a_edge29_Node000020_Node000004"><a xlink:title=" ">
<path fill="none" stroke="#63b8ff" d="M475,-164.75C475,-157.8 475,-147.85 475,-139.13"/>
<polygon fill="#63b8ff" stroke="#63b8ff" points="478.5,-139.09 475,-129.09 471.5,-139.09 478.5,-139.09"/>
</a>
</g>
</g>
<!-- Node20&#45;&gt;Node13 -->
<g id="edge30_Node000020_Node000013" class="edge">
<title>Node20&#45;&gt;Node13</title>
<g id="a_edge30_Node000020_Node000013"><a xlink:title=" ">
<path fill="none" stroke="#63b8ff" d="M498.71,-168.51C539.11,-160.02 622.16,-142.55 676.17,-131.19"/>
<polygon fill="#63b8ff" stroke="#63b8ff" points="677.17,-134.56 686.23,-129.07 675.73,-127.71 677.17,-134.56"/>
</a>
</g>
</g>
<!-- Node22&#45;&gt;Node17 -->
<g id="edge33_Node000022_Node000017" class="edge">
<title>Node22&#45;&gt;Node17</title>
<g id="a_edge33_Node000022_Node000017"><a xlink:title=" ">
<path fill="none" stroke="#63b8ff" d="M253.13,-239.09C254.64,-245.99 255.09,-255.93 254.49,-264.66"/>
<polygon fill="#63b8ff" stroke="#63b8ff" points="251,-264.38 253.17,-274.75 257.94,-265.29 251,-264.38"/>
</a>
</g>
</g>
</g>
</svg>
