<?xml version="1.0" encoding="UTF-8" standalone="no"?>
<!DOCTYPE svg PUBLIC "-//W3C//DTD SVG 1.1//EN"
 "http://www.w3.org/Graphics/SVG/1.1/DTD/svg11.dtd">
<!-- Generated by graphviz version 2.43.0 (0)
 -->
<!-- Title: EventEntity.h Pages: 1 -->
<svg width="734pt" height="412pt"
 viewBox="0.00 0.00 734.46 412.00" xmlns="http://www.w3.org/2000/svg" xmlns:xlink="http://www.w3.org/1999/xlink">
<g id="graph0" class="graph" transform="scale(1 1) rotate(0) translate(4 408)">
<title>EventEntity.h</title>
<!-- Node1 -->
<g id="Node000001" class="node">
<title>Node1</title>
<g id="a_Node000001"><a xlink:title=" ">
<polygon fill="#999999" stroke="#666666" points="280.93,-404 200.93,-404 200.93,-385 280.93,-385 280.93,-404"/>
<text text-anchor="middle" x="240.93" y="-392" font-family="Helvetica,sans-Serif" font-size="10.00">EventEntity.h</text>
</a>
</g>
</g>
<!-- Node2 -->
<g id="Node000002" class="node">
<title>Node2</title>
<g id="a_Node000002"><a xlink:href="_event_bus_8cpp.html" target="_top" xlink:title=" ">
<polygon fill="white" stroke="#666666" points="154.43,-239 71.43,-239 71.43,-220 154.43,-220 154.43,-239"/>
<text text-anchor="middle" x="112.93" y="-227" font-family="Helvetica,sans-Serif" font-size="10.00">EventBus.cpp</text>
</a>
</g>
</g>
<!-- Node1&#45;&gt;Node2 -->
<g id="edge1_Node000001_Node000002" class="edge">
<title>Node1&#45;&gt;Node2</title>
<g id="a_edge1_Node000001_Node000002"><a xlink:title=" ">
<path fill="none" stroke="#63b8ff" d="M221.4,-378.55C211.05,-370.28 198.35,-359.55 187.93,-349 165.74,-326.53 159.8,-320.7 142.93,-294 131.21,-275.45 121.14,-251.59 116.19,-239.06"/>
<polygon fill="#63b8ff" stroke="#63b8ff" points="219.42,-381.44 229.44,-384.87 223.74,-375.94 219.42,-381.44"/>
</a>
</g>
</g>
<!-- Node3 -->
<g id="Node000003" class="node">
<title>Node3</title>
<g id="a_Node000003"><a xlink:href="_event_emitter_8h.html" target="_top" xlink:title=" ">
<polygon fill="white" stroke="#666666" points="285.43,-349 196.43,-349 196.43,-330 285.43,-330 285.43,-349"/>
<text text-anchor="middle" x="240.93" y="-337" font-family="Helvetica,sans-Serif" font-size="10.00">EventEmitter.h</text>
</a>
</g>
</g>
<!-- Node1&#45;&gt;Node3 -->
<g id="edge2_Node000001_Node000003" class="edge">
<title>Node1&#45;&gt;Node3</title>
<g id="a_edge2_Node000001_Node000003"><a xlink:title=" ">
<path fill="none" stroke="#63b8ff" d="M240.93,-374.66C240.93,-365.93 240.93,-355.99 240.93,-349.09"/>
<polygon fill="#63b8ff" stroke="#63b8ff" points="237.43,-374.75 240.93,-384.75 244.43,-374.75 237.43,-374.75"/>
</a>
</g>
</g>
<!-- Node20 -->
<g id="Node000020" class="node">
<title>Node20</title>
<g id="a_Node000020"><a xlink:href="_event_entity_8cpp.html" target="_top" xlink:title=" ">
<polygon fill="white" stroke="#666666" points="395.93,-349 303.93,-349 303.93,-330 395.93,-330 395.93,-349"/>
<text text-anchor="middle" x="349.93" y="-337" font-family="Helvetica,sans-Serif" font-size="10.00">EventEntity.cpp</text>
</a>
</g>
</g>
<!-- Node1&#45;&gt;Node20 -->
<g id="edge33_Node000001_Node000020" class="edge">
<title>Node1&#45;&gt;Node20</title>
<g id="a_edge33_Node000001_Node000020"><a xlink:title=" ">
<path fill="none" stroke="#63b8ff" d="M267.67,-380.5C287.72,-370.75 314.61,-357.68 332.1,-349.17"/>
<polygon fill="#63b8ff" stroke="#63b8ff" points="265.91,-377.46 258.45,-384.98 268.97,-383.76 265.91,-377.46"/>
</a>
</g>
</g>
<!-- Node3&#45;&gt;Node2 -->
<g id="edge15_Node000003_Node000002" class="edge">
<title>Node3&#45;&gt;Node2</title>
<g id="a_edge15_Node000003_Node000002"><a xlink:title=" ">
<path fill="none" stroke="#63b8ff" d="M254.08,-321.43C262.87,-307.77 271.13,-288.72 260.93,-275 248.16,-257.83 193.86,-244.78 154.72,-237.38"/>
<polygon fill="#63b8ff" stroke="#63b8ff" points="251.02,-319.69 248.13,-329.88 256.75,-323.72 251.02,-319.69"/>
</a>
</g>
</g>
<!-- Node4 -->
<g id="Node000004" class="node">
<title>Node4</title>
<g id="a_Node000004"><a xlink:href="_date_8h.html" target="_top" xlink:title=" ">
<polygon fill="white" stroke="#666666" points="53.43,-239 4.43,-239 4.43,-220 53.43,-220 53.43,-239"/>
<text text-anchor="middle" x="28.93" y="-227" font-family="Helvetica,sans-Serif" font-size="10.00">Date.h</text>
</a>
</g>
</g>
<!-- Node3&#45;&gt;Node4 -->
<g id="edge3_Node000003_Node000004" class="edge">
<title>Node3&#45;&gt;Node4</title>
<g id="a_edge3_Node000003_Node000004"><a xlink:title=" ">
<path fill="none" stroke="#63b8ff" d="M211.48,-325.88C191.87,-317.29 165.62,-305.45 142.93,-294 106.52,-275.63 64.96,-251.7 43.48,-239.11"/>
<polygon fill="#63b8ff" stroke="#63b8ff" points="210.24,-329.16 220.81,-329.94 213.04,-322.74 210.24,-329.16"/>
</a>
</g>
</g>
<!-- Node12 -->
<g id="Node000012" class="node">
<title>Node12</title>
<g id="a_Node000012"><a xlink:href="_event_emitter_8cpp.html" target="_top" xlink:title=" ">
<polygon fill="white" stroke="#666666" points="251.93,-294 151.93,-294 151.93,-275 251.93,-275 251.93,-294"/>
<text text-anchor="middle" x="201.93" y="-282" font-family="Helvetica,sans-Serif" font-size="10.00">EventEmitter.cpp</text>
</a>
</g>
</g>
<!-- Node3&#45;&gt;Node12 -->
<g id="edge16_Node000003_Node000012" class="edge">
<title>Node3&#45;&gt;Node12</title>
<g id="a_edge16_Node000003_Node000012"><a xlink:title=" ">
<path fill="none" stroke="#63b8ff" d="M228.55,-321.67C221.8,-312.5 213.72,-301.52 208.25,-294.09"/>
<polygon fill="#63b8ff" stroke="#63b8ff" points="225.75,-323.77 234.49,-329.75 231.38,-319.62 225.75,-323.77"/>
</a>
</g>
</g>
<!-- Node13 -->
<g id="Node000013" class="node">
<title>Node13</title>
<g id="a_Node000013"><a xlink:href="_event_listener_8h.html" target="_top" xlink:title=" ">
<polygon fill="white" stroke="#666666" points="399.93,-294 307.93,-294 307.93,-275 399.93,-275 399.93,-294"/>
<text text-anchor="middle" x="353.93" y="-282" font-family="Helvetica,sans-Serif" font-size="10.00">EventListener.h</text>
</a>
</g>
</g>
<!-- Node3&#45;&gt;Node13 -->
<g id="edge17_Node000003_Node000013" class="edge">
<title>Node3&#45;&gt;Node13</title>
<g id="a_edge17_Node000003_Node000013"><a xlink:title=" ">
<path fill="none" stroke="#63b8ff" d="M268.37,-325.63C289.18,-315.87 317.23,-302.71 335.45,-294.17"/>
<polygon fill="#63b8ff" stroke="#63b8ff" points="266.66,-322.57 259.09,-329.98 269.63,-328.91 266.66,-322.57"/>
</a>
</g>
</g>
<!-- Node19 -->
<g id="Node000019" class="node">
<title>Node19</title>
<g id="a_Node000019"><a xlink:href="_network_scheduler_8h.html" target="_top" xlink:title="Complete WiFi network management and configuration system.">
<polygon fill="white" stroke="#666666" points="712.93,-294 598.93,-294 598.93,-275 712.93,-275 712.93,-294"/>
<text text-anchor="middle" x="655.93" y="-282" font-family="Helvetica,sans-Serif" font-size="10.00">NetworkScheduler.h</text>
</a>
</g>
</g>
<!-- Node3&#45;&gt;Node19 -->
<g id="edge30_Node000003_Node000019" class="edge">
<title>Node3&#45;&gt;Node19</title>
<g id="a_edge30_Node000003_Node000019"><a xlink:title=" ">
<path fill="none" stroke="#63b8ff" d="M295.95,-329.9C409.32,-314.11 529.47,-299.9 598.65,-291.96"/>
<polygon fill="#63b8ff" stroke="#63b8ff" points="295.12,-326.48 285.7,-331.33 296.09,-333.41 295.12,-326.48"/>
</a>
</g>
</g>
<!-- Node5 -->
<g id="Node000005" class="node">
<title>Node5</title>
<g id="a_Node000005"><a xlink:href="_app_kit_8h.html" target="_top" xlink:title=" ">
<polygon fill="white" stroke="#666666" points="245.93,-129 187.93,-129 187.93,-110 245.93,-110 245.93,-129"/>
<text text-anchor="middle" x="216.93" y="-117" font-family="Helvetica,sans-Serif" font-size="10.00">AppKit.h</text>
</a>
</g>
</g>
<!-- Node4&#45;&gt;Node5 -->
<g id="edge4_Node000004_Node000005" class="edge">
<title>Node4&#45;&gt;Node5</title>
<g id="a_edge4_Node000004_Node000005"><a xlink:title=" ">
<path fill="none" stroke="#63b8ff" d="M51.54,-214.57C72.89,-201.52 105.88,-181.58 134.93,-165 157.44,-152.16 183.85,-137.99 200.48,-129.16"/>
<polygon fill="#63b8ff" stroke="#63b8ff" points="49.58,-211.68 42.88,-219.89 53.24,-217.64 49.58,-211.68"/>
</a>
</g>
</g>
<!-- Node6 -->
<g id="Node000006" class="node">
<title>Node6</title>
<g id="a_Node000006"><a xlink:href="_uniot_8h.html" target="_top" xlink:title="Main API interface for the Uniot IoT platform.">
<polygon fill="white" stroke="#666666" points="108.93,-74 56.93,-74 56.93,-55 108.93,-55 108.93,-74"/>
<text text-anchor="middle" x="82.93" y="-62" font-family="Helvetica,sans-Serif" font-size="10.00">Uniot.h</text>
</a>
</g>
</g>
<!-- Node4&#45;&gt;Node6 -->
<g id="edge14_Node000004_Node000006" class="edge">
<title>Node4&#45;&gt;Node6</title>
<g id="a_edge14_Node000004_Node000006"><a xlink:title=" ">
<path fill="none" stroke="#63b8ff" d="M14.18,-211.37C5.12,-198.72 -3.75,-180.99 1.93,-165 16.04,-125.33 53.46,-90 72.09,-74.23"/>
<polygon fill="#63b8ff" stroke="#63b8ff" points="11.68,-213.87 20.6,-219.59 17.2,-209.56 11.68,-213.87"/>
</a>
</g>
</g>
<!-- Node8 -->
<g id="Node000008" class="node">
<title>Node8</title>
<g id="a_Node000008"><a xlink:href="_lisp_device_8h.html" target="_top" xlink:title=" ">
<polygon fill="white" stroke="#666666" points="222.43,-184 143.43,-184 143.43,-165 222.43,-165 222.43,-184"/>
<text text-anchor="middle" x="182.93" y="-172" font-family="Helvetica,sans-Serif" font-size="10.00">LispDevice.h</text>
</a>
</g>
</g>
<!-- Node4&#45;&gt;Node8 -->
<g id="edge7_Node000004_Node000008" class="edge">
<title>Node4&#45;&gt;Node8</title>
<g id="a_edge7_Node000004_Node000008"><a xlink:title=" ">
<path fill="none" stroke="#63b8ff" d="M63.31,-216.67C92.03,-206.79 132.29,-192.93 158,-184.08"/>
<polygon fill="#63b8ff" stroke="#63b8ff" points="61.99,-213.42 53.68,-219.98 64.27,-220.04 61.99,-213.42"/>
</a>
</g>
</g>
<!-- Node9 -->
<g id="Node000009" class="node">
<title>Node9</title>
<g id="a_Node000009"><a xlink:href="_m_q_t_t_kit_8h.html" target="_top" xlink:title=" ">
<polygon fill="white" stroke="#666666" points="576.93,-184 508.93,-184 508.93,-165 576.93,-165 576.93,-184"/>
<text text-anchor="middle" x="542.93" y="-172" font-family="Helvetica,sans-Serif" font-size="10.00">MQTTKit.h</text>
</a>
</g>
</g>
<!-- Node4&#45;&gt;Node9 -->
<g id="edge9_Node000004_Node000009" class="edge">
<title>Node4&#45;&gt;Node9</title>
<g id="a_edge9_Node000004_Node000009"><a xlink:title=" ">
<path fill="none" stroke="#63b8ff" d="M63.84,-220.13C244.65,-190.24 293.71,-202.51 471.93,-184 483.91,-182.76 497,-181.23 508.65,-179.82"/>
<polygon fill="#63b8ff" stroke="#63b8ff" points="63,-216.72 53.72,-221.82 64.16,-223.63 63,-216.72"/>
</a>
</g>
</g>
<!-- Node11 -->
<g id="Node000011" class="node">
<title>Node11</title>
<g id="a_Node000011"><a xlink:href="_top_device_8h.html" target="_top" xlink:title=" ">
<polygon fill="white" stroke="#666666" points="86.93,-184 10.93,-184 10.93,-165 86.93,-165 86.93,-184"/>
<text text-anchor="middle" x="48.93" y="-172" font-family="Helvetica,sans-Serif" font-size="10.00">TopDevice.h</text>
</a>
</g>
</g>
<!-- Node4&#45;&gt;Node11 -->
<g id="edge12_Node000004_Node000011" class="edge">
<title>Node4&#45;&gt;Node11</title>
<g id="a_edge12_Node000004_Node000011"><a xlink:title=" ">
<path fill="none" stroke="#63b8ff" d="M35.82,-210.24C39.17,-201.37 43.03,-191.14 45.69,-184.09"/>
<polygon fill="#63b8ff" stroke="#63b8ff" points="32.49,-209.16 32.24,-219.75 39.04,-211.63 32.49,-209.16"/>
</a>
</g>
</g>
<!-- Node5&#45;&gt;Node6 -->
<g id="edge5_Node000005_Node000006" class="edge">
<title>Node5&#45;&gt;Node6</title>
<g id="a_edge5_Node000005_Node000006"><a xlink:title=" ">
<path fill="none" stroke="#63b8ff" d="M186.06,-106.29C161.23,-96.47 126.94,-82.91 104.85,-74.17"/>
<polygon fill="#63b8ff" stroke="#63b8ff" points="184.82,-109.56 195.4,-109.98 187.39,-103.05 184.82,-109.56"/>
</a>
</g>
</g>
<!-- Node7 -->
<g id="Node000007" class="node">
<title>Node7</title>
<g id="a_Node000007"><a xlink:href="_uniot_8cpp.html" target="_top" xlink:title=" ">
<polygon fill="white" stroke="#666666" points="114.43,-19 51.43,-19 51.43,0 114.43,0 114.43,-19"/>
<text text-anchor="middle" x="82.93" y="-7" font-family="Helvetica,sans-Serif" font-size="10.00">Uniot.cpp</text>
</a>
</g>
</g>
<!-- Node6&#45;&gt;Node7 -->
<g id="edge6_Node000006_Node000007" class="edge">
<title>Node6&#45;&gt;Node7</title>
<g id="a_edge6_Node000006_Node000007"><a xlink:title=" ">
<path fill="none" stroke="#63b8ff" d="M82.93,-44.66C82.93,-35.93 82.93,-25.99 82.93,-19.09"/>
<polygon fill="#63b8ff" stroke="#63b8ff" points="79.43,-44.75 82.93,-54.75 86.43,-44.75 79.43,-44.75"/>
</a>
</g>
</g>
<!-- Node8&#45;&gt;Node5 -->
<g id="edge8_Node000008_Node000005" class="edge">
<title>Node8&#45;&gt;Node5</title>
<g id="a_edge8_Node000008_Node000005"><a xlink:title=" ">
<path fill="none" stroke="#63b8ff" d="M194.09,-156.1C199.9,-147.04 206.75,-136.37 211.42,-129.09"/>
<polygon fill="#63b8ff" stroke="#63b8ff" points="191,-154.44 188.55,-164.75 196.89,-158.22 191,-154.44"/>
</a>
</g>
</g>
<!-- Node9&#45;&gt;Node5 -->
<g id="edge10_Node000009_Node000005" class="edge">
<title>Node9&#45;&gt;Node5</title>
<g id="a_edge10_Node000009_Node000005"><a xlink:title=" ">
<path fill="none" stroke="#63b8ff" d="M498.72,-166.31C430.96,-155.3 303.28,-134.54 246.01,-125.23"/>
<polygon fill="#63b8ff" stroke="#63b8ff" points="498.23,-169.78 508.66,-167.93 499.35,-162.87 498.23,-169.78"/>
</a>
</g>
</g>
<!-- Node10 -->
<g id="Node000010" class="node">
<title>Node10</title>
<g id="a_Node000010"><a xlink:href="_m_q_t_t_device_8cpp.html" target="_top" xlink:title=" ">
<polygon fill="white" stroke="#666666" points="592.43,-129 493.43,-129 493.43,-110 592.43,-110 592.43,-129"/>
<text text-anchor="middle" x="542.93" y="-117" font-family="Helvetica,sans-Serif" font-size="10.00">MQTTDevice.cpp</text>
</a>
</g>
</g>
<!-- Node9&#45;&gt;Node10 -->
<g id="edge11_Node000009_Node000010" class="edge">
<title>Node9&#45;&gt;Node10</title>
<g id="a_edge11_Node000009_Node000010"><a xlink:title=" ">
<path fill="none" stroke="#63b8ff" d="M542.93,-154.66C542.93,-145.93 542.93,-135.99 542.93,-129.09"/>
<polygon fill="#63b8ff" stroke="#63b8ff" points="539.43,-154.75 542.93,-164.75 546.43,-154.75 539.43,-154.75"/>
</a>
</g>
</g>
<!-- Node11&#45;&gt;Node5 -->
<g id="edge13_Node000011_Node000005" class="edge">
<title>Node11&#45;&gt;Node5</title>
<g id="a_edge13_Node000011_Node000005"><a xlink:title=" ">
<path fill="none" stroke="#63b8ff" d="M85.62,-161.93C116.99,-152.03 161.44,-138.01 189.73,-129.08"/>
<polygon fill="#63b8ff" stroke="#63b8ff" points="84.41,-158.64 75.92,-164.98 86.51,-165.31 84.41,-158.64"/>
</a>
</g>
</g>
<!-- Node13&#45;&gt;Node2 -->
<g id="edge21_Node000013_Node000002" class="edge">
<title>Node13&#45;&gt;Node2</title>
<g id="a_edge21_Node000013_Node000002"><a xlink:title=" ">
<path fill="none" stroke="#63b8ff" d="M305.35,-272.82C260.18,-262.88 193.76,-248.28 151.96,-239.08"/>
<polygon fill="#63b8ff" stroke="#63b8ff" points="304.69,-276.26 315.21,-274.98 306.2,-269.42 304.69,-276.26"/>
</a>
</g>
</g>
<!-- Node13&#45;&gt;Node8 -->
<g id="edge23_Node000013_Node000008" class="edge">
<title>Node13&#45;&gt;Node8</title>
<g id="a_edge23_Node000013_Node000008"><a xlink:title=" ">
<path fill="none" stroke="#63b8ff" d="M298.03,-272.76C260.95,-264.59 216.66,-252.47 202.93,-239 187.76,-224.1 184.06,-197.82 183.19,-184.21"/>
<polygon fill="#63b8ff" stroke="#63b8ff" points="297.76,-276.28 308.27,-274.96 299.23,-269.44 297.76,-276.28"/>
</a>
</g>
</g>
<!-- Node13&#45;&gt;Node9 -->
<g id="edge24_Node000013_Node000009" class="edge">
<title>Node13&#45;&gt;Node9</title>
<g id="a_edge24_Node000013_Node000009"><a xlink:title=" ">
<path fill="none" stroke="#63b8ff" d="M410.23,-278.58C462.38,-272.73 534.44,-260.86 551.93,-239 564.59,-223.18 554.7,-197.76 547.93,-184.38"/>
<polygon fill="#63b8ff" stroke="#63b8ff" points="409.65,-275.13 400.08,-279.68 410.4,-282.09 409.65,-275.13"/>
</a>
</g>
</g>
<!-- Node14 -->
<g id="Node000014" class="node">
<title>Node14</title>
<g id="a_Node000014"><a xlink:href="_callback_event_listener_8h.html" target="_top" xlink:title=" ">
<polygon fill="white" stroke="#666666" points="420.93,-239 286.93,-239 286.93,-220 420.93,-220 420.93,-239"/>
<text text-anchor="middle" x="353.93" y="-227" font-family="Helvetica,sans-Serif" font-size="10.00">CallbackEventListener.h</text>
</a>
</g>
</g>
<!-- Node13&#45;&gt;Node14 -->
<g id="edge18_Node000013_Node000014" class="edge">
<title>Node13&#45;&gt;Node14</title>
<g id="a_edge18_Node000013_Node000014"><a xlink:title=" ">
<path fill="none" stroke="#63b8ff" d="M353.93,-264.66C353.93,-255.93 353.93,-245.99 353.93,-239.09"/>
<polygon fill="#63b8ff" stroke="#63b8ff" points="350.43,-264.75 353.93,-274.75 357.43,-264.75 350.43,-264.75"/>
</a>
</g>
</g>
<!-- Node16 -->
<g id="Node000016" class="node">
<title>Node16</title>
<g id="a_Node000016"><a xlink:href="_event_listener_8cpp.html" target="_top" xlink:title=" ">
<polygon fill="white" stroke="#666666" points="542.43,-239 439.43,-239 439.43,-220 542.43,-220 542.43,-239"/>
<text text-anchor="middle" x="490.93" y="-227" font-family="Helvetica,sans-Serif" font-size="10.00">EventListener.cpp</text>
</a>
</g>
</g>
<!-- Node13&#45;&gt;Node16 -->
<g id="edge22_Node000013_Node000016" class="edge">
<title>Node13&#45;&gt;Node16</title>
<g id="a_edge22_Node000013_Node000016"><a xlink:title=" ">
<path fill="none" stroke="#63b8ff" d="M385.49,-271.29C410.88,-261.47 445.94,-247.91 468.52,-239.17"/>
<polygon fill="#63b8ff" stroke="#63b8ff" points="384.01,-268.11 375.94,-274.98 386.53,-274.64 384.01,-268.11"/>
</a>
</g>
</g>
<!-- Node17 -->
<g id="Node000017" class="node">
<title>Node17</title>
<g id="a_Node000017"><a xlink:href="_network_controller_8h.html" target="_top" xlink:title="High&#45;level network management controller with user interface.">
<polygon fill="white" stroke="#666666" points="712.93,-239 598.93,-239 598.93,-220 712.93,-220 712.93,-239"/>
<text text-anchor="middle" x="655.93" y="-227" font-family="Helvetica,sans-Serif" font-size="10.00">NetworkController.h</text>
</a>
</g>
</g>
<!-- Node13&#45;&gt;Node17 -->
<g id="edge25_Node000013_Node000017" class="edge">
<title>Node13&#45;&gt;Node17</title>
<g id="a_edge25_Node000013_Node000017"><a xlink:title=" ">
<path fill="none" stroke="#63b8ff" d="M410.01,-273.66C466.77,-263.7 553.63,-248.45 607.49,-239"/>
<polygon fill="#63b8ff" stroke="#63b8ff" points="409.37,-270.22 400.13,-275.39 410.58,-277.11 409.37,-270.22"/>
</a>
</g>
</g>
<!-- Node18 -->
<g id="Node000018" class="node">
<title>Node18</title>
<g id="a_Node000018"><a xlink:href="un_lisp_8h.html" target="_top" xlink:title=" ">
<polygon fill="white" stroke="#666666" points="268.43,-239 211.43,-239 211.43,-220 268.43,-220 268.43,-239"/>
<text text-anchor="middle" x="239.93" y="-227" font-family="Helvetica,sans-Serif" font-size="10.00">unLisp.h</text>
</a>
</g>
</g>
<!-- Node13&#45;&gt;Node18 -->
<g id="edge27_Node000013_Node000018" class="edge">
<title>Node13&#45;&gt;Node18</title>
<g id="a_edge27_Node000013_Node000018"><a xlink:title=" ">
<path fill="none" stroke="#63b8ff" d="M326.54,-270.77C305.51,-260.99 277.04,-247.75 258.58,-239.17"/>
<polygon fill="#63b8ff" stroke="#63b8ff" points="325.07,-273.94 335.62,-274.98 328.02,-267.6 325.07,-273.94"/>
</a>
</g>
</g>
<!-- Node14&#45;&gt;Node5 -->
<g id="edge19_Node000014_Node000005" class="edge">
<title>Node14&#45;&gt;Node5</title>
<g id="a_edge19_Node000014_Node000005"><a xlink:title=" ">
<path fill="none" stroke="#63b8ff" d="M334.53,-213.21C305.35,-190.2 251.11,-147.44 227.92,-129.16"/>
<polygon fill="#63b8ff" stroke="#63b8ff" points="332.7,-216.22 342.72,-219.66 337.03,-210.72 332.7,-216.22"/>
</a>
</g>
</g>
<!-- Node15 -->
<g id="Node000015" class="node">
<title>Node15</title>
<g id="a_Node000015"><a xlink:href="_callback_event_listener_8cpp.html" target="_top" xlink:title=" ">
<polygon fill="white" stroke="#666666" points="462.43,-184 317.43,-184 317.43,-165 462.43,-165 462.43,-184"/>
<text text-anchor="middle" x="389.93" y="-172" font-family="Helvetica,sans-Serif" font-size="10.00">CallbackEventListener.cpp</text>
</a>
</g>
</g>
<!-- Node14&#45;&gt;Node15 -->
<g id="edge20_Node000014_Node000015" class="edge">
<title>Node14&#45;&gt;Node15</title>
<g id="a_edge20_Node000014_Node000015"><a xlink:title=" ">
<path fill="none" stroke="#63b8ff" d="M365.56,-211.39C371.75,-202.27 379.1,-191.45 384.1,-184.09"/>
<polygon fill="#63b8ff" stroke="#63b8ff" points="362.6,-209.51 359.88,-219.75 368.39,-213.44 362.6,-209.51"/>
</a>
</g>
</g>
<!-- Node17&#45;&gt;Node5 -->
<g id="edge26_Node000017_Node000005" class="edge">
<title>Node17&#45;&gt;Node5</title>
<g id="a_edge26_Node000017_Node000005"><a xlink:title=" ">
<path fill="none" stroke="#63b8ff" d="M642.77,-211.72C629.98,-196.75 609.14,-175.6 585.93,-165 525.33,-137.32 322.4,-125.34 246.19,-121.74"/>
<polygon fill="#63b8ff" stroke="#63b8ff" points="640.27,-214.19 649.32,-219.7 645.68,-209.75 640.27,-214.19"/>
</a>
</g>
</g>
<!-- Node18&#45;&gt;Node5 -->
<g id="edge28_Node000018_Node000005" class="edge">
<title>Node18&#45;&gt;Node5</title>
<g id="a_edge28_Node000018_Node000005"><a xlink:title=" ">
<path fill="none" stroke="#63b8ff" d="M238.54,-209.51C237.36,-196.8 235.31,-179.76 231.93,-165 229.02,-152.28 223.89,-138.08 220.45,-129.22"/>
<polygon fill="#63b8ff" stroke="#63b8ff" points="235.08,-210.1 239.39,-219.78 242.05,-209.52 235.08,-210.1"/>
</a>
</g>
</g>
<!-- Node18&#45;&gt;Node8 -->
<g id="edge29_Node000018_Node000008" class="edge">
<title>Node18&#45;&gt;Node8</title>
<g id="a_edge29_Node000018_Node000008"><a xlink:title=" ">
<path fill="none" stroke="#63b8ff" d="M223.31,-213.04C213.2,-203.64 200.66,-191.98 192.26,-184.17"/>
<polygon fill="#63b8ff" stroke="#63b8ff" points="221.07,-215.74 230.77,-219.98 225.83,-210.61 221.07,-215.74"/>
</a>
</g>
</g>
<!-- Node19&#45;&gt;Node9 -->
<g id="edge31_Node000019_Node000009" class="edge">
<title>Node19&#45;&gt;Node9</title>
<g id="a_edge31_Node000019_Node000009"><a xlink:title=" ">
<path fill="none" stroke="#63b8ff" d="M686.38,-270.39C710.2,-258.25 736.98,-239.24 721.93,-220 704.28,-197.42 623.8,-184.66 576.98,-179.03"/>
<polygon fill="#63b8ff" stroke="#63b8ff" points="684.64,-267.34 677.15,-274.84 687.68,-273.64 684.64,-267.34"/>
</a>
</g>
</g>
<!-- Node19&#45;&gt;Node17 -->
<g id="edge32_Node000019_Node000017" class="edge">
<title>Node19&#45;&gt;Node17</title>
<g id="a_edge32_Node000019_Node000017"><a xlink:title=" ">
<path fill="none" stroke="#63b8ff" d="M655.93,-264.66C655.93,-255.93 655.93,-245.99 655.93,-239.09"/>
<polygon fill="#63b8ff" stroke="#63b8ff" points="652.43,-264.75 655.93,-274.75 659.43,-264.75 652.43,-264.75"/>
</a>
</g>
</g>
</g>
</svg>
