<?xml version="1.0" encoding="UTF-8" standalone="no"?>
<!DOCTYPE svg PUBLIC "-//W3C//DTD SVG 1.1//EN"
 "http://www.w3.org/Graphics/SVG/1.1/DTD/svg11.dtd">
<!-- Generated by graphviz version 2.43.0 (0)
 -->
<!-- Title: ICOSESigner.h Pages: 1 -->
<svg width="278pt" height="357pt"
 viewBox="0.00 0.00 278.02 357.00" xmlns="http://www.w3.org/2000/svg" xmlns:xlink="http://www.w3.org/1999/xlink">
<g id="graph0" class="graph" transform="scale(1 1) rotate(0) translate(4 353)">
<title>ICOSESigner.h</title>
<!-- Node1 -->
<g id="Node000001" class="node">
<title>Node1</title>
<g id="a_Node000001"><a xlink:title=" ">
<polygon fill="#999999" stroke="#666666" points="143,-349 58,-349 58,-330 143,-330 143,-349"/>
<text text-anchor="middle" x="100.5" y="-337" font-family="Helvetica,sans-Serif" font-size="10.00">ICOSESigner.h</text>
</a>
</g>
</g>
<!-- Node2 -->
<g id="Node000002" class="node">
<title>Node2</title>
<g id="a_Node000002"><a xlink:href="_c_o_s_e_message_8h.html" target="_top" xlink:title=" ">
<polygon fill="white" stroke="#666666" points="95,-294 0,-294 0,-275 95,-275 95,-294"/>
<text text-anchor="middle" x="47.5" y="-282" font-family="Helvetica,sans-Serif" font-size="10.00">COSEMessage.h</text>
</a>
</g>
</g>
<!-- Node1&#45;&gt;Node2 -->
<g id="edge1_Node000001_Node000002" class="edge">
<title>Node1&#45;&gt;Node2</title>
<g id="a_edge1_Node000001_Node000002"><a xlink:title=" ">
<path fill="none" stroke="#63b8ff" d="M84.52,-322.52C75.18,-313.18 63.75,-301.75 56.09,-294.09"/>
<polygon fill="#63b8ff" stroke="#63b8ff" points="82.2,-325.15 91.75,-329.75 87.15,-320.2 82.2,-325.15"/>
</a>
</g>
</g>
<!-- Node8 -->
<g id="Node000008" class="node">
<title>Node8</title>
<g id="a_Node000008"><a xlink:href="_credentials_8h.html" target="_top" xlink:title=" ">
<polygon fill="white" stroke="#666666" points="212,-294 131,-294 131,-275 212,-275 212,-294"/>
<text text-anchor="middle" x="171.5" y="-282" font-family="Helvetica,sans-Serif" font-size="10.00">Credentials.h</text>
</a>
</g>
</g>
<!-- Node1&#45;&gt;Node8 -->
<g id="edge7_Node000001_Node000008" class="edge">
<title>Node1&#45;&gt;Node8</title>
<g id="a_edge7_Node000001_Node000008"><a xlink:title=" ">
<path fill="none" stroke="#63b8ff" d="M120.09,-323.88C132.87,-314.34 149.11,-302.21 159.89,-294.17"/>
<polygon fill="#63b8ff" stroke="#63b8ff" points="117.83,-321.2 111.91,-329.98 122.01,-326.81 117.83,-321.2"/>
</a>
</g>
</g>
<!-- Node3 -->
<g id="Node000003" class="node">
<title>Node3</title>
<g id="a_Node000003"><a xlink:href="_m_q_t_t_kit_8h.html" target="_top" xlink:title=" ">
<polygon fill="white" stroke="#666666" points="113.5,-184 45.5,-184 45.5,-165 113.5,-165 113.5,-184"/>
<text text-anchor="middle" x="79.5" y="-172" font-family="Helvetica,sans-Serif" font-size="10.00">MQTTKit.h</text>
</a>
</g>
</g>
<!-- Node2&#45;&gt;Node3 -->
<g id="edge2_Node000002_Node000003" class="edge">
<title>Node2&#45;&gt;Node3</title>
<g id="a_edge2_Node000002_Node000003"><a xlink:title=" ">
<path fill="none" stroke="#63b8ff" d="M36.69,-266.15C30.01,-253.1 23.87,-234.97 30.5,-220 37.38,-204.45 52.69,-192.01 64.37,-184.27"/>
<polygon fill="#63b8ff" stroke="#63b8ff" points="33.73,-268.02 41.7,-275 39.82,-264.57 33.73,-268.02"/>
</a>
</g>
</g>
<!-- Node4 -->
<g id="Node000004" class="node">
<title>Node4</title>
<g id="a_Node000004"><a xlink:href="_app_kit_8h.html" target="_top" xlink:title=" ">
<polygon fill="white" stroke="#666666" points="219.5,-129 161.5,-129 161.5,-110 219.5,-110 219.5,-129"/>
<text text-anchor="middle" x="190.5" y="-117" font-family="Helvetica,sans-Serif" font-size="10.00">AppKit.h</text>
</a>
</g>
</g>
<!-- Node3&#45;&gt;Node4 -->
<g id="edge3_Node000003_Node000004" class="edge">
<title>Node3&#45;&gt;Node4</title>
<g id="a_edge3_Node000003_Node000004"><a xlink:title=" ">
<path fill="none" stroke="#63b8ff" d="M106.45,-160.63C126.89,-150.87 154.45,-137.71 172.34,-129.17"/>
<polygon fill="#63b8ff" stroke="#63b8ff" points="104.85,-157.52 97.33,-164.98 107.87,-163.83 104.85,-157.52"/>
</a>
</g>
</g>
<!-- Node7 -->
<g id="Node000007" class="node">
<title>Node7</title>
<g id="a_Node000007"><a xlink:href="_m_q_t_t_device_8cpp.html" target="_top" xlink:title=" ">
<polygon fill="white" stroke="#666666" points="129,-129 30,-129 30,-110 129,-110 129,-129"/>
<text text-anchor="middle" x="79.5" y="-117" font-family="Helvetica,sans-Serif" font-size="10.00">MQTTDevice.cpp</text>
</a>
</g>
</g>
<!-- Node3&#45;&gt;Node7 -->
<g id="edge6_Node000003_Node000007" class="edge">
<title>Node3&#45;&gt;Node7</title>
<g id="a_edge6_Node000003_Node000007"><a xlink:title=" ">
<path fill="none" stroke="#63b8ff" d="M79.5,-154.66C79.5,-145.93 79.5,-135.99 79.5,-129.09"/>
<polygon fill="#63b8ff" stroke="#63b8ff" points="76,-154.75 79.5,-164.75 83,-154.75 76,-154.75"/>
</a>
</g>
</g>
<!-- Node5 -->
<g id="Node000005" class="node">
<title>Node5</title>
<g id="a_Node000005"><a xlink:href="_uniot_8h.html" target="_top" xlink:title="Main API interface for the Uniot IoT platform.">
<polygon fill="white" stroke="#666666" points="258.5,-74 206.5,-74 206.5,-55 258.5,-55 258.5,-74"/>
<text text-anchor="middle" x="232.5" y="-62" font-family="Helvetica,sans-Serif" font-size="10.00">Uniot.h</text>
</a>
</g>
</g>
<!-- Node4&#45;&gt;Node5 -->
<g id="edge4_Node000004_Node000005" class="edge">
<title>Node4&#45;&gt;Node5</title>
<g id="a_edge4_Node000004_Node000005"><a xlink:title=" ">
<path fill="none" stroke="#63b8ff" d="M203.83,-101.67C211.11,-92.5 219.8,-81.52 225.69,-74.09"/>
<polygon fill="#63b8ff" stroke="#63b8ff" points="200.9,-99.74 197.44,-109.75 206.39,-104.08 200.9,-99.74"/>
</a>
</g>
</g>
<!-- Node6 -->
<g id="Node000006" class="node">
<title>Node6</title>
<g id="a_Node000006"><a xlink:href="_uniot_8cpp.html" target="_top" xlink:title=" ">
<polygon fill="white" stroke="#666666" points="264,-19 201,-19 201,0 264,0 264,-19"/>
<text text-anchor="middle" x="232.5" y="-7" font-family="Helvetica,sans-Serif" font-size="10.00">Uniot.cpp</text>
</a>
</g>
</g>
<!-- Node5&#45;&gt;Node6 -->
<g id="edge5_Node000005_Node000006" class="edge">
<title>Node5&#45;&gt;Node6</title>
<g id="a_edge5_Node000005_Node000006"><a xlink:title=" ">
<path fill="none" stroke="#63b8ff" d="M232.5,-44.66C232.5,-35.93 232.5,-25.99 232.5,-19.09"/>
<polygon fill="#63b8ff" stroke="#63b8ff" points="229,-44.75 232.5,-54.75 236,-44.75 229,-44.75"/>
</a>
</g>
</g>
<!-- Node8&#45;&gt;Node5 -->
<g id="edge14_Node000008_Node000005" class="edge">
<title>Node8&#45;&gt;Node5</title>
<g id="a_edge14_Node000008_Node000005"><a xlink:title=" ">
<path fill="none" stroke="#63b8ff" d="M215.43,-271.13C231.21,-264.33 247.36,-254.11 256.5,-239 289.88,-183.85 251.52,-101.06 237.34,-74.23"/>
<polygon fill="#63b8ff" stroke="#63b8ff" points="213.76,-268.03 205.72,-274.93 216.31,-274.54 213.76,-268.03"/>
</a>
</g>
</g>
<!-- Node9 -->
<g id="Node000009" class="node">
<title>Node9</title>
<g id="a_Node000009"><a xlink:href="_m_q_t_t_path_8h.html" target="_top" xlink:title=" ">
<polygon fill="white" stroke="#666666" points="115,-239 40,-239 40,-220 115,-220 115,-239"/>
<text text-anchor="middle" x="77.5" y="-227" font-family="Helvetica,sans-Serif" font-size="10.00">MQTTPath.h</text>
</a>
</g>
</g>
<!-- Node8&#45;&gt;Node9 -->
<g id="edge8_Node000008_Node000009" class="edge">
<title>Node8&#45;&gt;Node9</title>
<g id="a_edge8_Node000008_Node000009"><a xlink:title=" ">
<path fill="none" stroke="#63b8ff" d="M147.5,-269.97C130.31,-260.28 107.69,-247.52 92.88,-239.17"/>
<polygon fill="#63b8ff" stroke="#63b8ff" points="145.97,-273.12 156.4,-274.98 149.41,-267.02 145.97,-273.12"/>
</a>
</g>
</g>
<!-- Node10 -->
<g id="Node000010" class="node">
<title>Node10</title>
<g id="a_Node000010"><a xlink:href="_network_scheduler_8h.html" target="_top" xlink:title="Complete WiFi network management and configuration system.">
<polygon fill="white" stroke="#666666" points="247.5,-239 133.5,-239 133.5,-220 247.5,-220 247.5,-239"/>
<text text-anchor="middle" x="190.5" y="-227" font-family="Helvetica,sans-Serif" font-size="10.00">NetworkScheduler.h</text>
</a>
</g>
</g>
<!-- Node8&#45;&gt;Node10 -->
<g id="edge10_Node000008_Node000010" class="edge">
<title>Node8&#45;&gt;Node10</title>
<g id="a_edge10_Node000008_Node000010"><a xlink:title=" ">
<path fill="none" stroke="#63b8ff" d="M178.05,-265.24C181.22,-256.37 184.89,-246.14 187.42,-239.09"/>
<polygon fill="#63b8ff" stroke="#63b8ff" points="174.72,-264.15 174.64,-274.75 181.31,-266.52 174.72,-264.15"/>
</a>
</g>
</g>
<!-- Node9&#45;&gt;Node3 -->
<g id="edge9_Node000009_Node000003" class="edge">
<title>Node9&#45;&gt;Node3</title>
<g id="a_edge9_Node000009_Node000003"><a xlink:title=" ">
<path fill="none" stroke="#63b8ff" d="M78.21,-209.66C78.54,-200.93 78.92,-190.99 79.18,-184.09"/>
<polygon fill="#63b8ff" stroke="#63b8ff" points="74.71,-209.62 77.83,-219.75 81.7,-209.89 74.71,-209.62"/>
</a>
</g>
</g>
<!-- Node10&#45;&gt;Node3 -->
<g id="edge11_Node000010_Node000003" class="edge">
<title>Node10&#45;&gt;Node3</title>
<g id="a_edge11_Node000010_Node000003"><a xlink:title=" ">
<path fill="none" stroke="#63b8ff" d="M163.55,-215.63C143.11,-205.87 115.55,-192.71 97.66,-184.17"/>
<polygon fill="#63b8ff" stroke="#63b8ff" points="162.13,-218.83 172.67,-219.98 165.15,-212.52 162.13,-218.83"/>
</a>
</g>
</g>
<!-- Node11 -->
<g id="Node000011" class="node">
<title>Node11</title>
<g id="a_Node000011"><a xlink:href="_network_controller_8h.html" target="_top" xlink:title="High&#45;level network management controller with user interface.">
<polygon fill="white" stroke="#666666" points="247.5,-184 133.5,-184 133.5,-165 247.5,-165 247.5,-184"/>
<text text-anchor="middle" x="190.5" y="-172" font-family="Helvetica,sans-Serif" font-size="10.00">NetworkController.h</text>
</a>
</g>
</g>
<!-- Node10&#45;&gt;Node11 -->
<g id="edge12_Node000010_Node000011" class="edge">
<title>Node10&#45;&gt;Node11</title>
<g id="a_edge12_Node000010_Node000011"><a xlink:title=" ">
<path fill="none" stroke="#63b8ff" d="M190.5,-209.66C190.5,-200.93 190.5,-190.99 190.5,-184.09"/>
<polygon fill="#63b8ff" stroke="#63b8ff" points="187,-209.75 190.5,-219.75 194,-209.75 187,-209.75"/>
</a>
</g>
</g>
<!-- Node11&#45;&gt;Node4 -->
<g id="edge13_Node000011_Node000004" class="edge">
<title>Node11&#45;&gt;Node4</title>
<g id="a_edge13_Node000011_Node000004"><a xlink:title=" ">
<path fill="none" stroke="#63b8ff" d="M190.5,-154.66C190.5,-145.93 190.5,-135.99 190.5,-129.09"/>
<polygon fill="#63b8ff" stroke="#63b8ff" points="187,-154.75 190.5,-164.75 194,-154.75 187,-154.75"/>
</a>
</g>
</g>
</g>
</svg>
