<?xml version="1.0" encoding="UTF-8" standalone="no"?>
<!DOCTYPE svg PUBLIC "-//W3C//DTD SVG 1.1//EN"
 "http://www.w3.org/Graphics/SVG/1.1/DTD/svg11.dtd">
<!-- Generated by graphviz version 2.43.0 (0)
 -->
<!-- Title: IEventBusConnectionKit.h Pages: 1 -->
<svg width="718pt" height="357pt"
 viewBox="0.00 0.00 718.49 357.00" xmlns="http://www.w3.org/2000/svg" xmlns:xlink="http://www.w3.org/1999/xlink">
<g id="graph0" class="graph" transform="scale(1 1) rotate(0) translate(4 353)">
<title>IEventBusConnectionKit.h</title>
<!-- Node1 -->
<g id="Node000001" class="node">
<title>Node1</title>
<g id="a_Node000001"><a xlink:title="Defines the interface for components that can connect to an EventBus.">
<polygon fill="#999999" stroke="#666666" points="355.49,-349 212.49,-349 212.49,-330 355.49,-330 355.49,-349"/>
<text text-anchor="middle" x="283.99" y="-337" font-family="Helvetica,sans-Serif" font-size="10.00">IEventBusConnectionKit.h</text>
</a>
</g>
</g>
<!-- Node2 -->
<g id="Node000002" class="node">
<title>Node2</title>
<g id="a_Node000002"><a xlink:href="_app_kit_8h.html" target="_top" xlink:title=" ">
<polygon fill="white" stroke="#666666" points="102.99,-129 44.99,-129 44.99,-110 102.99,-110 102.99,-129"/>
<text text-anchor="middle" x="73.99" y="-117" font-family="Helvetica,sans-Serif" font-size="10.00">AppKit.h</text>
</a>
</g>
</g>
<!-- Node1&#45;&gt;Node2 -->
<g id="edge1_Node000001_Node000002" class="edge">
<title>Node1&#45;&gt;Node2</title>
<g id="a_edge1_Node000001_Node000002"><a xlink:title=" ">
<path fill="none" stroke="#63b8ff" d="M231.59,-327.57C178.17,-314.23 95.34,-287.25 38.99,-239 11.64,-215.58 -11.13,-196.68 5.99,-165 15.32,-147.75 34.57,-136.11 50.21,-129.08"/>
<polygon fill="#63b8ff" stroke="#63b8ff" points="231,-331.03 241.54,-329.98 232.65,-324.22 231,-331.03"/>
</a>
</g>
</g>
<!-- Node5 -->
<g id="Node000005" class="node">
<title>Node5</title>
<g id="a_Node000005"><a xlink:href="_event_bus_8h.html" target="_top" xlink:title=" ">
<polygon fill="white" stroke="#666666" points="319.49,-294 248.49,-294 248.49,-275 319.49,-275 319.49,-294"/>
<text text-anchor="middle" x="283.99" y="-282" font-family="Helvetica,sans-Serif" font-size="10.00">EventBus.h</text>
</a>
</g>
</g>
<!-- Node1&#45;&gt;Node5 -->
<g id="edge4_Node000001_Node000005" class="edge">
<title>Node1&#45;&gt;Node5</title>
<g id="a_edge4_Node000001_Node000005"><a xlink:title=" ">
<path fill="none" stroke="#63b8ff" d="M277.5,-319.66C276.9,-310.93 277.35,-300.99 278.86,-294.09"/>
<polygon fill="#63b8ff" stroke="#63b8ff" points="274.05,-320.29 278.83,-329.75 280.99,-319.38 274.05,-320.29"/>
</a>
</g>
</g>
<!-- Node3 -->
<g id="Node000003" class="node">
<title>Node3</title>
<g id="a_Node000003"><a xlink:href="_uniot_8h.html" target="_top" xlink:title="Main API interface for the Uniot IoT platform.">
<polygon fill="white" stroke="#666666" points="186.99,-74 134.99,-74 134.99,-55 186.99,-55 186.99,-74"/>
<text text-anchor="middle" x="160.99" y="-62" font-family="Helvetica,sans-Serif" font-size="10.00">Uniot.h</text>
</a>
</g>
</g>
<!-- Node2&#45;&gt;Node3 -->
<g id="edge2_Node000002_Node000003" class="edge">
<title>Node2&#45;&gt;Node3</title>
<g id="a_edge2_Node000002_Node000003"><a xlink:title=" ">
<path fill="none" stroke="#63b8ff" d="M96.65,-104.7C112.5,-95.04 133.18,-82.44 146.76,-74.17"/>
<polygon fill="#63b8ff" stroke="#63b8ff" points="94.69,-101.79 87.97,-109.98 98.33,-107.77 94.69,-101.79"/>
</a>
</g>
</g>
<!-- Node4 -->
<g id="Node000004" class="node">
<title>Node4</title>
<g id="a_Node000004"><a xlink:href="_uniot_8cpp.html" target="_top" xlink:title=" ">
<polygon fill="white" stroke="#666666" points="192.49,-19 129.49,-19 129.49,0 192.49,0 192.49,-19"/>
<text text-anchor="middle" x="160.99" y="-7" font-family="Helvetica,sans-Serif" font-size="10.00">Uniot.cpp</text>
</a>
</g>
</g>
<!-- Node3&#45;&gt;Node4 -->
<g id="edge3_Node000003_Node000004" class="edge">
<title>Node3&#45;&gt;Node4</title>
<g id="a_edge3_Node000003_Node000004"><a xlink:title=" ">
<path fill="none" stroke="#63b8ff" d="M160.99,-44.66C160.99,-35.93 160.99,-25.99 160.99,-19.09"/>
<polygon fill="#63b8ff" stroke="#63b8ff" points="157.49,-44.75 160.99,-54.75 164.49,-44.75 157.49,-44.75"/>
</a>
</g>
</g>
<!-- Node5&#45;&gt;Node1 -->
<g id="edge10_Node000005_Node000001" class="edge">
<title>Node5&#45;&gt;Node1</title>
<g id="a_edge10_Node000005_Node000001"><a xlink:title=" ">
<path fill="none" stroke="#63b8ff" d="M290.47,-304.13C291.09,-312.85 290.65,-322.8 289.16,-329.75"/>
<polygon fill="#63b8ff" stroke="#63b8ff" points="293.92,-303.53 289.12,-294.09 286.98,-304.47 293.92,-303.53"/>
</a>
</g>
</g>
<!-- Node5&#45;&gt;Node2 -->
<g id="edge5_Node000005_Node000002" class="edge">
<title>Node5&#45;&gt;Node2</title>
<g id="a_edge5_Node000005_Node000002"><a xlink:title=" ">
<path fill="none" stroke="#63b8ff" d="M238.18,-283.41C172.73,-280.39 55.54,-263.54 11.99,-184 -0.73,-160.75 31.63,-140.08 54.24,-129.02"/>
<polygon fill="#63b8ff" stroke="#63b8ff" points="238.1,-286.91 248.23,-283.78 238.36,-279.91 238.1,-286.91"/>
</a>
</g>
</g>
<!-- Node5&#45;&gt;Node3 -->
<g id="edge17_Node000005_Node000003" class="edge">
<title>Node5&#45;&gt;Node3</title>
<g id="a_edge17_Node000005_Node000003"><a xlink:title=" ">
<path fill="none" stroke="#63b8ff" d="M277.78,-265.49C275.03,-257.41 271.79,-247.75 268.99,-239 250.76,-181.95 266.04,-157.83 229.99,-110 217.55,-93.49 197.07,-81.41 181.64,-74.03"/>
<polygon fill="#63b8ff" stroke="#63b8ff" points="274.48,-266.67 281.04,-275 281.1,-264.4 274.48,-266.67"/>
</a>
</g>
</g>
<!-- Node6 -->
<g id="Node000006" class="node">
<title>Node6</title>
<g id="a_Node000006"><a xlink:href="_event_bus_8cpp.html" target="_top" xlink:title=" ">
<polygon fill="white" stroke="#666666" points="360.49,-239 277.49,-239 277.49,-220 360.49,-220 360.49,-239"/>
<text text-anchor="middle" x="318.99" y="-227" font-family="Helvetica,sans-Serif" font-size="10.00">EventBus.cpp</text>
</a>
</g>
</g>
<!-- Node5&#45;&gt;Node6 -->
<g id="edge6_Node000005_Node000006" class="edge">
<title>Node5&#45;&gt;Node6</title>
<g id="a_edge6_Node000005_Node000006"><a xlink:title=" ">
<path fill="none" stroke="#63b8ff" d="M295.29,-266.39C301.31,-257.27 308.46,-246.45 313.32,-239.09"/>
<polygon fill="#63b8ff" stroke="#63b8ff" points="292.36,-264.47 289.77,-274.75 298.2,-268.33 292.36,-264.47"/>
</a>
</g>
</g>
<!-- Node7 -->
<g id="Node000007" class="node">
<title>Node7</title>
<g id="a_Node000007"><a xlink:href="_event_emitter_8cpp.html" target="_top" xlink:title=" ">
<polygon fill="white" stroke="#666666" points="478.99,-239 378.99,-239 378.99,-220 478.99,-220 478.99,-239"/>
<text text-anchor="middle" x="428.99" y="-227" font-family="Helvetica,sans-Serif" font-size="10.00">EventEmitter.cpp</text>
</a>
</g>
</g>
<!-- Node5&#45;&gt;Node7 -->
<g id="edge7_Node000005_Node000007" class="edge">
<title>Node5&#45;&gt;Node7</title>
<g id="a_edge7_Node000005_Node000007"><a xlink:title=" ">
<path fill="none" stroke="#63b8ff" d="M316.69,-271.55C343.61,-261.71 381.16,-247.98 405.27,-239.17"/>
<polygon fill="#63b8ff" stroke="#63b8ff" points="315.48,-268.26 307.29,-274.98 317.88,-274.84 315.48,-268.26"/>
</a>
</g>
</g>
<!-- Node8 -->
<g id="Node000008" class="node">
<title>Node8</title>
<g id="a_Node000008"><a xlink:href="_event_entity_8cpp.html" target="_top" xlink:title=" ">
<polygon fill="white" stroke="#666666" points="588.99,-239 496.99,-239 496.99,-220 588.99,-220 588.99,-239"/>
<text text-anchor="middle" x="542.99" y="-227" font-family="Helvetica,sans-Serif" font-size="10.00">EventEntity.cpp</text>
</a>
</g>
</g>
<!-- Node5&#45;&gt;Node8 -->
<g id="edge8_Node000005_Node000008" class="edge">
<title>Node5&#45;&gt;Node8</title>
<g id="a_edge8_Node000005_Node000008"><a xlink:title=" ">
<path fill="none" stroke="#63b8ff" d="M329.65,-274.16C378.16,-264.23 454.21,-248.67 501.19,-239.05"/>
<polygon fill="#63b8ff" stroke="#63b8ff" points="328.83,-270.75 319.73,-276.19 330.23,-277.61 328.83,-270.75"/>
</a>
</g>
</g>
<!-- Node9 -->
<g id="Node000009" class="node">
<title>Node9</title>
<g id="a_Node000009"><a xlink:href="_event_listener_8cpp.html" target="_top" xlink:title=" ">
<polygon fill="white" stroke="#666666" points="710.49,-239 607.49,-239 607.49,-220 710.49,-220 710.49,-239"/>
<text text-anchor="middle" x="658.99" y="-227" font-family="Helvetica,sans-Serif" font-size="10.00">EventListener.cpp</text>
</a>
</g>
</g>
<!-- Node5&#45;&gt;Node9 -->
<g id="edge9_Node000005_Node000009" class="edge">
<title>Node5&#45;&gt;Node9</title>
<g id="a_edge9_Node000005_Node000009"><a xlink:title=" ">
<path fill="none" stroke="#63b8ff" d="M329.91,-277.01C400.13,-267.09 533.79,-248.2 607.31,-237.8"/>
<polygon fill="#63b8ff" stroke="#63b8ff" points="329.02,-273.6 319.61,-278.47 330,-280.53 329.02,-273.6"/>
</a>
</g>
</g>
<!-- Node10 -->
<g id="Node000010" class="node">
<title>Node10</title>
<g id="a_Node000010"><a xlink:href="_network_scheduler_8h.html" target="_top" xlink:title="Complete WiFi network management and configuration system.">
<polygon fill="white" stroke="#666666" points="220.99,-239 106.99,-239 106.99,-220 220.99,-220 220.99,-239"/>
<text text-anchor="middle" x="163.99" y="-227" font-family="Helvetica,sans-Serif" font-size="10.00">NetworkScheduler.h</text>
</a>
</g>
</g>
<!-- Node5&#45;&gt;Node10 -->
<g id="edge11_Node000005_Node000010" class="edge">
<title>Node5&#45;&gt;Node10</title>
<g id="a_edge11_Node000005_Node000010"><a xlink:title=" ">
<path fill="none" stroke="#63b8ff" d="M255.46,-270.9C233.3,-261.11 203.14,-247.79 183.62,-239.17"/>
<polygon fill="#63b8ff" stroke="#63b8ff" points="254.15,-274.15 264.71,-274.98 256.98,-267.74 254.15,-274.15"/>
</a>
</g>
</g>
<!-- Node11 -->
<g id="Node000011" class="node">
<title>Node11</title>
<g id="a_Node000011"><a xlink:href="_m_q_t_t_kit_8h.html" target="_top" xlink:title=" ">
<polygon fill="white" stroke="#666666" points="220.99,-184 152.99,-184 152.99,-165 220.99,-165 220.99,-184"/>
<text text-anchor="middle" x="186.99" y="-172" font-family="Helvetica,sans-Serif" font-size="10.00">MQTTKit.h</text>
</a>
</g>
</g>
<!-- Node10&#45;&gt;Node11 -->
<g id="edge12_Node000010_Node000011" class="edge">
<title>Node10&#45;&gt;Node11</title>
<g id="a_edge12_Node000010_Node000011"><a xlink:title=" ">
<path fill="none" stroke="#63b8ff" d="M171.79,-210.53C175.67,-201.6 180.17,-191.22 183.27,-184.09"/>
<polygon fill="#63b8ff" stroke="#63b8ff" points="168.56,-209.18 167.79,-219.75 174.98,-211.97 168.56,-209.18"/>
</a>
</g>
</g>
<!-- Node13 -->
<g id="Node000013" class="node">
<title>Node13</title>
<g id="a_Node000013"><a xlink:href="_network_controller_8h.html" target="_top" xlink:title="High&#45;level network management controller with user interface.">
<polygon fill="white" stroke="#666666" points="134.99,-184 20.99,-184 20.99,-165 134.99,-165 134.99,-184"/>
<text text-anchor="middle" x="77.99" y="-172" font-family="Helvetica,sans-Serif" font-size="10.00">NetworkController.h</text>
</a>
</g>
</g>
<!-- Node10&#45;&gt;Node13 -->
<g id="edge15_Node000010_Node000013" class="edge">
<title>Node10&#45;&gt;Node13</title>
<g id="a_edge15_Node000010_Node000013"><a xlink:title=" ">
<path fill="none" stroke="#63b8ff" d="M141.59,-214.7C125.93,-205.04 105.49,-192.44 92.06,-184.17"/>
<polygon fill="#63b8ff" stroke="#63b8ff" points="139.83,-217.72 150.18,-219.98 143.5,-211.76 139.83,-217.72"/>
</a>
</g>
</g>
<!-- Node11&#45;&gt;Node2 -->
<g id="edge13_Node000011_Node000002" class="edge">
<title>Node11&#45;&gt;Node2</title>
<g id="a_edge13_Node000011_Node000002"><a xlink:title=" ">
<path fill="none" stroke="#63b8ff" d="M159.56,-160.63C138.74,-150.87 110.69,-137.71 92.48,-129.17"/>
<polygon fill="#63b8ff" stroke="#63b8ff" points="158.3,-163.91 168.84,-164.98 161.27,-157.57 158.3,-163.91"/>
</a>
</g>
</g>
<!-- Node12 -->
<g id="Node000012" class="node">
<title>Node12</title>
<g id="a_Node000012"><a xlink:href="_m_q_t_t_device_8cpp.html" target="_top" xlink:title=" ">
<polygon fill="white" stroke="#666666" points="220.49,-129 121.49,-129 121.49,-110 220.49,-110 220.49,-129"/>
<text text-anchor="middle" x="170.99" y="-117" font-family="Helvetica,sans-Serif" font-size="10.00">MQTTDevice.cpp</text>
</a>
</g>
</g>
<!-- Node11&#45;&gt;Node12 -->
<g id="edge14_Node000011_Node000012" class="edge">
<title>Node11&#45;&gt;Node12</title>
<g id="a_edge14_Node000011_Node000012"><a xlink:title=" ">
<path fill="none" stroke="#63b8ff" d="M181.39,-154.95C178.74,-146.15 175.69,-136.06 173.59,-129.09"/>
<polygon fill="#63b8ff" stroke="#63b8ff" points="178.11,-156.19 184.35,-164.75 184.81,-154.16 178.11,-156.19"/>
</a>
</g>
</g>
<!-- Node13&#45;&gt;Node2 -->
<g id="edge16_Node000013_Node000002" class="edge">
<title>Node13&#45;&gt;Node2</title>
<g id="a_edge16_Node000013_Node000002"><a xlink:title=" ">
<path fill="none" stroke="#63b8ff" d="M76.57,-154.66C75.91,-145.93 75.16,-135.99 74.64,-129.09"/>
<polygon fill="#63b8ff" stroke="#63b8ff" points="73.09,-155.04 77.33,-164.75 80.07,-154.51 73.09,-155.04"/>
</a>
</g>
</g>
</g>
</svg>
