<?xml version="1.0" encoding="UTF-8" standalone="no"?>
<!DOCTYPE svg PUBLIC "-//W3C//DTD SVG 1.1//EN"
 "http://www.w3.org/Graphics/SVG/1.1/DTD/svg11.dtd">
<!-- Generated by graphviz version 2.43.0 (0)
 -->
<!-- Title: IExecutor.h Pages: 1 -->
<svg width="1302pt" height="412pt"
 viewBox="0.00 0.00 1301.70 412.00" xmlns="http://www.w3.org/2000/svg" xmlns:xlink="http://www.w3.org/1999/xlink">
<g id="graph0" class="graph" transform="scale(1 1) rotate(0) translate(4 408)">
<title>IExecutor.h</title>
<!-- Node1 -->
<g id="Node000001" class="node">
<title>Node1</title>
<g id="a_Node000001"><a xlink:title=" ">
<polygon fill="#999999" stroke="#666666" points="446,-404 376,-404 376,-385 446,-385 446,-404"/>
<text text-anchor="middle" x="411" y="-392" font-family="Helvetica,sans-Serif" font-size="10.00">IExecutor.h</text>
</a>
</g>
</g>
<!-- Node2 -->
<g id="Node000002" class="node">
<title>Node2</title>
<g id="a_Node000002"><a xlink:href="_button_8h.html" target="_top" xlink:title=" ">
<polygon fill="white" stroke="#666666" points="345,-294 287,-294 287,-275 345,-275 345,-294"/>
<text text-anchor="middle" x="316" y="-282" font-family="Helvetica,sans-Serif" font-size="10.00">Button.h</text>
</a>
</g>
</g>
<!-- Node1&#45;&gt;Node2 -->
<g id="edge1_Node000001_Node000002" class="edge">
<title>Node1&#45;&gt;Node2</title>
<g id="a_edge1_Node000001_Node000002"><a xlink:title=" ">
<path fill="none" stroke="#63b8ff" d="M389.16,-378.91C378.13,-370.89 365.01,-360.29 355,-349 339.56,-331.57 326.55,-307.26 320.19,-294.36"/>
<polygon fill="#63b8ff" stroke="#63b8ff" points="387.26,-381.86 397.45,-384.75 391.29,-376.13 387.26,-381.86"/>
</a>
</g>
</g>
<!-- Node9 -->
<g id="Node000009" class="node">
<title>Node9</title>
<g id="a_Node000009"><a xlink:href="_config_captive_portal_8h.html" target="_top" xlink:title="Captive portal implementation for device configuration.">
<polygon fill="white" stroke="#666666" points="657,-349 535,-349 535,-330 657,-330 657,-349"/>
<text text-anchor="middle" x="596" y="-337" font-family="Helvetica,sans-Serif" font-size="10.00">ConfigCaptivePortal.h</text>
</a>
</g>
</g>
<!-- Node1&#45;&gt;Node9 -->
<g id="edge9_Node000001_Node000009" class="edge">
<title>Node1&#45;&gt;Node9</title>
<g id="a_edge9_Node000001_Node000009"><a xlink:title=" ">
<path fill="none" stroke="#63b8ff" d="M450.5,-382.18C485.1,-372.27 534.63,-358.08 566.04,-349.08"/>
<polygon fill="#63b8ff" stroke="#63b8ff" points="449.37,-378.87 440.72,-384.98 451.3,-385.6 449.37,-378.87"/>
</a>
</g>
</g>
<!-- Node13 -->
<g id="Node000013" class="node">
<title>Node13</title>
<g id="a_Node000013"><a xlink:href="_date_8h.html" target="_top" xlink:title=" ">
<polygon fill="white" stroke="#666666" points="269.5,-239 220.5,-239 220.5,-220 269.5,-220 269.5,-239"/>
<text text-anchor="middle" x="245" y="-227" font-family="Helvetica,sans-Serif" font-size="10.00">Date.h</text>
</a>
</g>
</g>
<!-- Node1&#45;&gt;Node13 -->
<g id="edge15_Node000001_Node000013" class="edge">
<title>Node1&#45;&gt;Node13</title>
<g id="a_edge15_Node000001_Node000013"><a xlink:title=" ">
<path fill="none" stroke="#63b8ff" d="M384.96,-379.94C355.34,-363.31 307.29,-332.53 278,-294 264.47,-276.2 253.65,-252.03 248.42,-239.26"/>
<polygon fill="#63b8ff" stroke="#63b8ff" points="383.43,-383.09 393.89,-384.83 386.8,-376.95 383.43,-383.09"/>
</a>
</g>
</g>
<!-- Node16 -->
<g id="Node000016" class="node">
<title>Node16</title>
<g id="a_Node000016"><a xlink:href="_event_bus_8h.html" target="_top" xlink:title=" ">
<polygon fill="white" stroke="#666666" points="887.5,-294 816.5,-294 816.5,-275 887.5,-275 887.5,-294"/>
<text text-anchor="middle" x="852" y="-282" font-family="Helvetica,sans-Serif" font-size="10.00">EventBus.h</text>
</a>
</g>
</g>
<!-- Node1&#45;&gt;Node16 -->
<g id="edge23_Node000001_Node000016" class="edge">
<title>Node1&#45;&gt;Node16</title>
<g id="a_edge23_Node000001_Node000016"><a xlink:title=" ">
<path fill="none" stroke="#63b8ff" d="M456.11,-387.8C507.42,-380.82 593.51,-367.58 666,-349 726.82,-333.41 796.3,-307.43 830.57,-294.04"/>
<polygon fill="#63b8ff" stroke="#63b8ff" points="455.46,-384.36 446.01,-389.15 456.39,-391.29 455.46,-384.36"/>
</a>
</g>
</g>
<!-- Node22 -->
<g id="Node000022" class="node">
<title>Node22</title>
<g id="a_Node000022"><a xlink:href="_task_scheduler_8h.html" target="_top" xlink:title=" ">
<polygon fill="white" stroke="#666666" points="458.5,-349 363.5,-349 363.5,-330 458.5,-330 458.5,-349"/>
<text text-anchor="middle" x="411" y="-337" font-family="Helvetica,sans-Serif" font-size="10.00">TaskScheduler.h</text>
</a>
</g>
</g>
<!-- Node1&#45;&gt;Node22 -->
<g id="edge34_Node000001_Node000022" class="edge">
<title>Node1&#45;&gt;Node22</title>
<g id="a_edge34_Node000001_Node000022"><a xlink:title=" ">
<path fill="none" stroke="#63b8ff" d="M411,-374.66C411,-365.93 411,-355.99 411,-349.09"/>
<polygon fill="#63b8ff" stroke="#63b8ff" points="407.5,-374.75 411,-384.75 414.5,-374.75 407.5,-374.75"/>
</a>
</g>
</g>
<!-- Node3 -->
<g id="Node000003" class="node">
<title>Node3</title>
<g id="a_Node000003"><a xlink:href="_lisp_primitives_8h.html" target="_top" xlink:title=" ">
<polygon fill="white" stroke="#666666" points="202.5,-239 107.5,-239 107.5,-220 202.5,-220 202.5,-239"/>
<text text-anchor="middle" x="155" y="-227" font-family="Helvetica,sans-Serif" font-size="10.00">LispPrimitives.h</text>
</a>
</g>
</g>
<!-- Node2&#45;&gt;Node3 -->
<g id="edge2_Node000002_Node000003" class="edge">
<title>Node2&#45;&gt;Node3</title>
<g id="a_edge2_Node000002_Node000003"><a xlink:title=" ">
<path fill="none" stroke="#63b8ff" d="M280.45,-271.8C250.41,-261.91 208.06,-247.97 181.07,-239.08"/>
<polygon fill="#63b8ff" stroke="#63b8ff" points="279.54,-275.18 290.13,-274.98 281.73,-268.53 279.54,-275.18"/>
</a>
</g>
</g>
<!-- Node8 -->
<g id="Node000008" class="node">
<title>Node8</title>
<g id="a_Node000008"><a xlink:href="_network_controller_8h.html" target="_top" xlink:title="High&#45;level network management controller with user interface.">
<polygon fill="white" stroke="#666666" points="610,-184 496,-184 496,-165 610,-165 610,-184"/>
<text text-anchor="middle" x="553" y="-172" font-family="Helvetica,sans-Serif" font-size="10.00">NetworkController.h</text>
</a>
</g>
</g>
<!-- Node2&#45;&gt;Node8 -->
<g id="edge7_Node000002_Node000008" class="edge">
<title>Node2&#45;&gt;Node8</title>
<g id="a_edge7_Node000002_Node000008"><a xlink:title=" ">
<path fill="none" stroke="#63b8ff" d="M344.38,-270.57C393.45,-248.21 492.85,-202.91 534.24,-184.05"/>
<polygon fill="#63b8ff" stroke="#63b8ff" points="342.64,-267.51 334.99,-274.84 345.55,-273.88 342.64,-267.51"/>
</a>
</g>
</g>
<!-- Node4 -->
<g id="Node000004" class="node">
<title>Node4</title>
<g id="a_Node000004"><a xlink:href="_app_kit_8h.html" target="_top" xlink:title=" ">
<polygon fill="white" stroke="#666666" points="464,-129 406,-129 406,-110 464,-110 464,-129"/>
<text text-anchor="middle" x="435" y="-117" font-family="Helvetica,sans-Serif" font-size="10.00">AppKit.h</text>
</a>
</g>
</g>
<!-- Node3&#45;&gt;Node4 -->
<g id="edge3_Node000003_Node000004" class="edge">
<title>Node3&#45;&gt;Node4</title>
<g id="a_edge3_Node000003_Node000004"><a xlink:title=" ">
<path fill="none" stroke="#63b8ff" d="M172.32,-212.76C189.18,-198.26 216.12,-177.21 243,-165 297.52,-140.23 367.22,-128.53 405.87,-123.61"/>
<polygon fill="#63b8ff" stroke="#63b8ff" points="169.67,-210.43 164.48,-219.66 174.3,-215.68 169.67,-210.43"/>
</a>
</g>
</g>
<!-- Node7 -->
<g id="Node000007" class="node">
<title>Node7</title>
<g id="a_Node000007"><a xlink:href="_lisp_primitives_8cpp.html" target="_top" xlink:title=" ">
<polygon fill="white" stroke="#666666" points="134,-184 28,-184 28,-165 134,-165 134,-184"/>
<text text-anchor="middle" x="81" y="-172" font-family="Helvetica,sans-Serif" font-size="10.00">LispPrimitives.cpp</text>
</a>
</g>
</g>
<!-- Node3&#45;&gt;Node7 -->
<g id="edge6_Node000003_Node000007" class="edge">
<title>Node3&#45;&gt;Node7</title>
<g id="a_edge6_Node000003_Node000007"><a xlink:title=" ">
<path fill="none" stroke="#63b8ff" d="M134.97,-214.15C121.59,-204.57 104.44,-192.29 93.11,-184.17"/>
<polygon fill="#63b8ff" stroke="#63b8ff" points="132.94,-217.01 143.11,-219.98 137.02,-211.32 132.94,-217.01"/>
</a>
</g>
</g>
<!-- Node5 -->
<g id="Node000005" class="node">
<title>Node5</title>
<g id="a_Node000005"><a xlink:href="_uniot_8h.html" target="_top" xlink:title="Main API interface for the Uniot IoT platform.">
<polygon fill="white" stroke="#666666" points="327,-74 275,-74 275,-55 327,-55 327,-74"/>
<text text-anchor="middle" x="301" y="-62" font-family="Helvetica,sans-Serif" font-size="10.00">Uniot.h</text>
</a>
</g>
</g>
<!-- Node4&#45;&gt;Node5 -->
<g id="edge4_Node000004_Node000005" class="edge">
<title>Node4&#45;&gt;Node5</title>
<g id="a_edge4_Node000004_Node000005"><a xlink:title=" ">
<path fill="none" stroke="#63b8ff" d="M404.13,-106.29C379.3,-96.47 345.01,-82.91 322.92,-74.17"/>
<polygon fill="#63b8ff" stroke="#63b8ff" points="402.88,-109.56 413.47,-109.98 405.46,-103.05 402.88,-109.56"/>
</a>
</g>
</g>
<!-- Node6 -->
<g id="Node000006" class="node">
<title>Node6</title>
<g id="a_Node000006"><a xlink:href="_uniot_8cpp.html" target="_top" xlink:title=" ">
<polygon fill="white" stroke="#666666" points="332.5,-19 269.5,-19 269.5,0 332.5,0 332.5,-19"/>
<text text-anchor="middle" x="301" y="-7" font-family="Helvetica,sans-Serif" font-size="10.00">Uniot.cpp</text>
</a>
</g>
</g>
<!-- Node5&#45;&gt;Node6 -->
<g id="edge5_Node000005_Node000006" class="edge">
<title>Node5&#45;&gt;Node6</title>
<g id="a_edge5_Node000005_Node000006"><a xlink:title=" ">
<path fill="none" stroke="#63b8ff" d="M301,-44.66C301,-35.93 301,-25.99 301,-19.09"/>
<polygon fill="#63b8ff" stroke="#63b8ff" points="297.5,-44.75 301,-54.75 304.5,-44.75 297.5,-44.75"/>
</a>
</g>
</g>
<!-- Node8&#45;&gt;Node4 -->
<g id="edge8_Node000008_Node000004" class="edge">
<title>Node8&#45;&gt;Node4</title>
<g id="a_edge8_Node000008_Node000004"><a xlink:title=" ">
<path fill="none" stroke="#63b8ff" d="M524.65,-160.77C502.88,-150.99 473.41,-137.75 454.3,-129.17"/>
<polygon fill="#63b8ff" stroke="#63b8ff" points="523.49,-164.08 534.04,-164.98 526.35,-157.69 523.49,-164.08"/>
</a>
</g>
</g>
<!-- Node10 -->
<g id="Node000010" class="node">
<title>Node10</title>
<g id="a_Node000010"><a xlink:href="_network_scheduler_8h.html" target="_top" xlink:title="Complete WiFi network management and configuration system.">
<polygon fill="white" stroke="#666666" points="589,-239 475,-239 475,-220 589,-220 589,-239"/>
<text text-anchor="middle" x="532" y="-227" font-family="Helvetica,sans-Serif" font-size="10.00">NetworkScheduler.h</text>
</a>
</g>
</g>
<!-- Node9&#45;&gt;Node10 -->
<g id="edge10_Node000009_Node000010" class="edge">
<title>Node9&#45;&gt;Node10</title>
<g id="a_edge10_Node000009_Node000010"><a xlink:title=" ">
<path fill="none" stroke="#63b8ff" d="M601.29,-319.78C603.96,-306.5 605.28,-288.69 598,-275 588.92,-257.92 570.03,-246.21 554.78,-239.11"/>
<polygon fill="#63b8ff" stroke="#63b8ff" points="597.85,-319.12 598.89,-329.67 604.65,-320.78 597.85,-319.12"/>
</a>
</g>
</g>
<!-- Node10&#45;&gt;Node8 -->
<g id="edge14_Node000010_Node000008" class="edge">
<title>Node10&#45;&gt;Node8</title>
<g id="a_edge14_Node000010_Node000008"><a xlink:title=" ">
<path fill="none" stroke="#63b8ff" d="M539.24,-210.24C542.75,-201.37 546.8,-191.14 549.6,-184.09"/>
<polygon fill="#63b8ff" stroke="#63b8ff" points="535.9,-209.16 535.47,-219.75 542.41,-211.74 535.9,-209.16"/>
</a>
</g>
</g>
<!-- Node11 -->
<g id="Node000011" class="node">
<title>Node11</title>
<g id="a_Node000011"><a xlink:href="_m_q_t_t_kit_8h.html" target="_top" xlink:title=" ">
<polygon fill="white" stroke="#666666" points="696,-184 628,-184 628,-165 696,-165 696,-184"/>
<text text-anchor="middle" x="662" y="-172" font-family="Helvetica,sans-Serif" font-size="10.00">MQTTKit.h</text>
</a>
</g>
</g>
<!-- Node10&#45;&gt;Node11 -->
<g id="edge11_Node000010_Node000011" class="edge">
<title>Node10&#45;&gt;Node11</title>
<g id="a_edge11_Node000010_Node000011"><a xlink:title=" ">
<path fill="none" stroke="#63b8ff" d="M562.27,-216.16C586.34,-206.35 619.4,-192.87 640.73,-184.17"/>
<polygon fill="#63b8ff" stroke="#63b8ff" points="560.83,-212.97 552.89,-219.98 563.47,-219.45 560.83,-212.97"/>
</a>
</g>
</g>
<!-- Node11&#45;&gt;Node4 -->
<g id="edge12_Node000011_Node000004" class="edge">
<title>Node11&#45;&gt;Node4</title>
<g id="a_edge12_Node000011_Node000004"><a xlink:title=" ">
<path fill="none" stroke="#63b8ff" d="M617.65,-163.14C572.21,-152.54 502.89,-136.35 464.02,-127.28"/>
<polygon fill="#63b8ff" stroke="#63b8ff" points="616.99,-166.59 627.52,-165.45 618.58,-159.77 616.99,-166.59"/>
</a>
</g>
</g>
<!-- Node12 -->
<g id="Node000012" class="node">
<title>Node12</title>
<g id="a_Node000012"><a xlink:href="_m_q_t_t_device_8cpp.html" target="_top" xlink:title=" ">
<polygon fill="white" stroke="#666666" points="711.5,-129 612.5,-129 612.5,-110 711.5,-110 711.5,-129"/>
<text text-anchor="middle" x="662" y="-117" font-family="Helvetica,sans-Serif" font-size="10.00">MQTTDevice.cpp</text>
</a>
</g>
</g>
<!-- Node11&#45;&gt;Node12 -->
<g id="edge13_Node000011_Node000012" class="edge">
<title>Node11&#45;&gt;Node12</title>
<g id="a_edge13_Node000011_Node000012"><a xlink:title=" ">
<path fill="none" stroke="#63b8ff" d="M662,-154.66C662,-145.93 662,-135.99 662,-129.09"/>
<polygon fill="#63b8ff" stroke="#63b8ff" points="658.5,-154.75 662,-164.75 665.5,-154.75 658.5,-154.75"/>
</a>
</g>
</g>
<!-- Node13&#45;&gt;Node4 -->
<g id="edge16_Node000013_Node000004" class="edge">
<title>Node13&#45;&gt;Node4</title>
<g id="a_edge16_Node000013_Node000004"><a xlink:title=" ">
<path fill="none" stroke="#63b8ff" d="M243.85,-209.74C244.04,-195.65 246.71,-176.81 258,-165 278.15,-143.94 360.77,-130.16 405.65,-124.08"/>
<polygon fill="#63b8ff" stroke="#63b8ff" points="240.35,-209.9 244.11,-219.81 247.35,-209.72 240.35,-209.9"/>
</a>
</g>
</g>
<!-- Node13&#45;&gt;Node5 -->
<g id="edge22_Node000013_Node000005" class="edge">
<title>Node13&#45;&gt;Node5</title>
<g id="a_edge22_Node000013_Node000005"><a xlink:title=" ">
<path fill="none" stroke="#63b8ff" d="M241.57,-209.74C239.92,-196.92 239.04,-179.66 243,-165 253.01,-127.94 280.63,-90.5 293.81,-74.1"/>
<polygon fill="#63b8ff" stroke="#63b8ff" points="238.13,-210.35 243.13,-219.69 245.04,-209.27 238.13,-210.35"/>
</a>
</g>
</g>
<!-- Node13&#45;&gt;Node11 -->
<g id="edge19_Node000013_Node000011" class="edge">
<title>Node13&#45;&gt;Node11</title>
<g id="a_edge19_Node000013_Node000011"><a xlink:title=" ">
<path fill="none" stroke="#63b8ff" d="M279.87,-220.1C430.4,-194.06 471.99,-206.27 619,-184 621.86,-183.57 624.82,-183.08 627.78,-182.55"/>
<polygon fill="#63b8ff" stroke="#63b8ff" points="279.04,-216.7 269.8,-221.88 280.25,-223.59 279.04,-216.7"/>
</a>
</g>
</g>
<!-- Node14 -->
<g id="Node000014" class="node">
<title>Node14</title>
<g id="a_Node000014"><a xlink:href="_lisp_device_8h.html" target="_top" xlink:title=" ">
<polygon fill="white" stroke="#666666" points="345.5,-184 266.5,-184 266.5,-165 345.5,-165 345.5,-184"/>
<text text-anchor="middle" x="306" y="-172" font-family="Helvetica,sans-Serif" font-size="10.00">LispDevice.h</text>
</a>
</g>
</g>
<!-- Node13&#45;&gt;Node14 -->
<g id="edge17_Node000013_Node000014" class="edge">
<title>Node13&#45;&gt;Node14</title>
<g id="a_edge17_Node000013_Node000014"><a xlink:title=" ">
<path fill="none" stroke="#63b8ff" d="M262.47,-213.32C273.34,-203.87 286.94,-192.06 296.02,-184.17"/>
<polygon fill="#63b8ff" stroke="#63b8ff" points="260.05,-210.78 254.8,-219.98 264.65,-216.07 260.05,-210.78"/>
</a>
</g>
</g>
<!-- Node15 -->
<g id="Node000015" class="node">
<title>Node15</title>
<g id="a_Node000015"><a xlink:href="_top_device_8h.html" target="_top" xlink:title=" ">
<polygon fill="white" stroke="#666666" points="440,-184 364,-184 364,-165 440,-165 440,-184"/>
<text text-anchor="middle" x="402" y="-172" font-family="Helvetica,sans-Serif" font-size="10.00">TopDevice.h</text>
</a>
</g>
</g>
<!-- Node13&#45;&gt;Node15 -->
<g id="edge20_Node000013_Node000015" class="edge">
<title>Node13&#45;&gt;Node15</title>
<g id="a_edge20_Node000013_Node000015"><a xlink:title=" ">
<path fill="none" stroke="#63b8ff" d="M279.35,-216.9C308.68,-207 350.19,-192.99 376.6,-184.07"/>
<polygon fill="#63b8ff" stroke="#63b8ff" points="277.89,-213.7 269.53,-220.22 280.13,-220.34 277.89,-213.7"/>
</a>
</g>
</g>
<!-- Node14&#45;&gt;Node4 -->
<g id="edge18_Node000014_Node000004" class="edge">
<title>Node14&#45;&gt;Node4</title>
<g id="a_edge18_Node000014_Node000004"><a xlink:title=" ">
<path fill="none" stroke="#63b8ff" d="M336.04,-161.16C359.92,-151.35 392.72,-137.87 413.9,-129.17"/>
<polygon fill="#63b8ff" stroke="#63b8ff" points="334.65,-157.95 326.73,-164.98 337.31,-164.42 334.65,-157.95"/>
</a>
</g>
</g>
<!-- Node15&#45;&gt;Node4 -->
<g id="edge21_Node000015_Node000004" class="edge">
<title>Node15&#45;&gt;Node4</title>
<g id="a_edge21_Node000015_Node000004"><a xlink:title=" ">
<path fill="none" stroke="#63b8ff" d="M412.83,-156.1C418.47,-147.04 425.12,-136.37 429.65,-129.09"/>
<polygon fill="#63b8ff" stroke="#63b8ff" points="409.76,-154.41 407.45,-164.75 415.71,-158.11 409.76,-154.41"/>
</a>
</g>
</g>
<!-- Node16&#45;&gt;Node4 -->
<g id="edge24_Node000016_Node000004" class="edge">
<title>Node16&#45;&gt;Node4</title>
<g id="a_edge24_Node000016_Node000004"><a xlink:title=" ">
<path fill="none" stroke="#63b8ff" d="M840.17,-266.63C819.98,-239.42 775.96,-186.72 724,-165 634.54,-127.6 517.7,-121.24 464.13,-120.42"/>
<polygon fill="#63b8ff" stroke="#63b8ff" points="837.38,-268.75 846.08,-274.8 843.06,-264.64 837.38,-268.75"/>
</a>
</g>
</g>
<!-- Node16&#45;&gt;Node5 -->
<g id="edge33_Node000016_Node000005" class="edge">
<title>Node16&#45;&gt;Node5</title>
<g id="a_edge33_Node000016_Node000005"><a xlink:title=" ">
<path fill="none" stroke="#63b8ff" d="M897.68,-284.11C1019.34,-284.93 1338.6,-281.36 1288,-220 1161.65,-66.79 471.57,-64.05 327.4,-65.18"/>
<polygon fill="#63b8ff" stroke="#63b8ff" points="897.59,-280.61 887.56,-284.03 897.53,-287.61 897.59,-280.61"/>
</a>
</g>
</g>
<!-- Node16&#45;&gt;Node10 -->
<g id="edge32_Node000016_Node000010" class="edge">
<title>Node16&#45;&gt;Node10</title>
<g id="a_edge32_Node000016_Node000010"><a xlink:title=" ">
<path fill="none" stroke="#63b8ff" d="M806.08,-275.89C747.05,-266.12 644.87,-249.19 583.33,-239"/>
<polygon fill="#63b8ff" stroke="#63b8ff" points="805.79,-279.39 816.22,-277.57 806.93,-272.49 805.79,-279.39"/>
</a>
</g>
</g>
<!-- Node17 -->
<g id="Node000017" class="node">
<title>Node17</title>
<g id="a_Node000017"><a xlink:href="_event_bus_8cpp.html" target="_top" xlink:title=" ">
<polygon fill="white" stroke="#666666" points="928.5,-239 845.5,-239 845.5,-220 928.5,-220 928.5,-239"/>
<text text-anchor="middle" x="887" y="-227" font-family="Helvetica,sans-Serif" font-size="10.00">EventBus.cpp</text>
</a>
</g>
</g>
<!-- Node16&#45;&gt;Node17 -->
<g id="edge25_Node000016_Node000017" class="edge">
<title>Node16&#45;&gt;Node17</title>
<g id="a_edge25_Node000016_Node000017"><a xlink:title=" ">
<path fill="none" stroke="#63b8ff" d="M863.3,-266.39C869.32,-257.27 876.47,-246.45 881.33,-239.09"/>
<polygon fill="#63b8ff" stroke="#63b8ff" points="860.37,-264.47 857.78,-274.75 866.21,-268.33 860.37,-264.47"/>
</a>
</g>
</g>
<!-- Node18 -->
<g id="Node000018" class="node">
<title>Node18</title>
<g id="a_Node000018"><a xlink:href="_event_emitter_8cpp.html" target="_top" xlink:title=" ">
<polygon fill="white" stroke="#666666" points="1047,-239 947,-239 947,-220 1047,-220 1047,-239"/>
<text text-anchor="middle" x="997" y="-227" font-family="Helvetica,sans-Serif" font-size="10.00">EventEmitter.cpp</text>
</a>
</g>
</g>
<!-- Node16&#45;&gt;Node18 -->
<g id="edge26_Node000016_Node000018" class="edge">
<title>Node16&#45;&gt;Node18</title>
<g id="a_edge26_Node000016_Node000018"><a xlink:title=" ">
<path fill="none" stroke="#63b8ff" d="M884.69,-271.55C911.62,-261.71 949.16,-247.98 973.28,-239.17"/>
<polygon fill="#63b8ff" stroke="#63b8ff" points="883.49,-268.26 875.3,-274.98 885.89,-274.84 883.49,-268.26"/>
</a>
</g>
</g>
<!-- Node19 -->
<g id="Node000019" class="node">
<title>Node19</title>
<g id="a_Node000019"><a xlink:href="_event_entity_8cpp.html" target="_top" xlink:title=" ">
<polygon fill="white" stroke="#666666" points="1157,-239 1065,-239 1065,-220 1157,-220 1157,-239"/>
<text text-anchor="middle" x="1111" y="-227" font-family="Helvetica,sans-Serif" font-size="10.00">EventEntity.cpp</text>
</a>
</g>
</g>
<!-- Node16&#45;&gt;Node19 -->
<g id="edge27_Node000016_Node000019" class="edge">
<title>Node16&#45;&gt;Node19</title>
<g id="a_edge27_Node000016_Node000019"><a xlink:title=" ">
<path fill="none" stroke="#63b8ff" d="M897.65,-274.16C946.17,-264.23 1022.21,-248.67 1069.2,-239.05"/>
<polygon fill="#63b8ff" stroke="#63b8ff" points="896.84,-270.75 887.74,-276.19 898.24,-277.61 896.84,-270.75"/>
</a>
</g>
</g>
<!-- Node20 -->
<g id="Node000020" class="node">
<title>Node20</title>
<g id="a_Node000020"><a xlink:href="_event_listener_8cpp.html" target="_top" xlink:title=" ">
<polygon fill="white" stroke="#666666" points="1278.5,-239 1175.5,-239 1175.5,-220 1278.5,-220 1278.5,-239"/>
<text text-anchor="middle" x="1227" y="-227" font-family="Helvetica,sans-Serif" font-size="10.00">EventListener.cpp</text>
</a>
</g>
</g>
<!-- Node16&#45;&gt;Node20 -->
<g id="edge28_Node000016_Node000020" class="edge">
<title>Node16&#45;&gt;Node20</title>
<g id="a_edge28_Node000016_Node000020"><a xlink:title=" ">
<path fill="none" stroke="#63b8ff" d="M897.91,-277.01C968.14,-267.09 1101.79,-248.2 1175.32,-237.8"/>
<polygon fill="#63b8ff" stroke="#63b8ff" points="897.03,-273.6 887.62,-278.47 898.01,-280.53 897.03,-273.6"/>
</a>
</g>
</g>
<!-- Node21 -->
<g id="Node000021" class="node">
<title>Node21</title>
<g id="a_Node000021"><a xlink:href="_i_event_bus_connection_kit_8h.html" target="_top" xlink:title="Defines the interface for components that can connect to an EventBus.">
<polygon fill="white" stroke="#666666" points="788.5,-239 645.5,-239 645.5,-220 788.5,-220 788.5,-239"/>
<text text-anchor="middle" x="717" y="-227" font-family="Helvetica,sans-Serif" font-size="10.00">IEventBusConnectionKit.h</text>
</a>
</g>
</g>
<!-- Node16&#45;&gt;Node21 -->
<g id="edge29_Node000016_Node000021" class="edge">
<title>Node16&#45;&gt;Node21</title>
<g id="a_edge29_Node000016_Node000021"><a xlink:title=" ">
<path fill="none" stroke="#63b8ff" d="M815.46,-271.42C788.93,-261.59 754.39,-247.95 733.94,-239.17"/>
<polygon fill="#63b8ff" stroke="#63b8ff" points="814.6,-274.83 825.2,-274.98 817.01,-268.26 814.6,-274.83"/>
</a>
</g>
</g>
<!-- Node21&#45;&gt;Node4 -->
<g id="edge30_Node000021_Node000004" class="edge">
<title>Node21&#45;&gt;Node4</title>
<g id="a_edge30_Node000021_Node000004"><a xlink:title=" ">
<path fill="none" stroke="#63b8ff" d="M718.75,-209.5C718.95,-195.28 716.65,-176.38 705,-165 671.19,-131.97 526.79,-123.4 464.17,-121.22"/>
<polygon fill="#63b8ff" stroke="#63b8ff" points="715.25,-209.5 718.19,-219.68 722.24,-209.89 715.25,-209.5"/>
</a>
</g>
</g>
<!-- Node21&#45;&gt;Node16 -->
<g id="edge31_Node000021_Node000016" class="edge">
<title>Node21&#45;&gt;Node16</title>
<g id="a_edge31_Node000021_Node000016"><a xlink:title=" ">
<path fill="none" stroke="#63b8ff" d="M753.66,-242.62C780.33,-252.51 815.05,-266.23 835.42,-274.98"/>
<polygon fill="#63b8ff" stroke="#63b8ff" points="754.83,-239.33 744.23,-239.17 752.42,-245.9 754.83,-239.33"/>
</a>
</g>
</g>
<!-- Node22&#45;&gt;Node2 -->
<g id="edge35_Node000022_Node000002" class="edge">
<title>Node22&#45;&gt;Node2</title>
<g id="a_edge35_Node000022_Node000002"><a xlink:title=" ">
<path fill="none" stroke="#63b8ff" d="M386.74,-324.97C369.37,-315.28 346.51,-302.52 331.54,-294.17"/>
<polygon fill="#63b8ff" stroke="#63b8ff" points="385.3,-328.17 395.74,-329.98 388.71,-322.06 385.3,-328.17"/>
</a>
</g>
</g>
<!-- Node22&#45;&gt;Node5 -->
<g id="edge39_Node000022_Node000005" class="edge">
<title>Node22&#45;&gt;Node5</title>
<g id="a_edge39_Node000022_Node000005"><a xlink:title=" ">
<path fill="none" stroke="#63b8ff" d="M353.23,-335.36C240.04,-327.61 0,-302.67 0,-230.5 0,-230.5 0,-230.5 0,-173.5 0,-115.34 201.58,-80.04 274.81,-69.14"/>
<polygon fill="#63b8ff" stroke="#63b8ff" points="353.24,-338.86 363.45,-336.03 353.7,-331.88 353.24,-338.86"/>
</a>
</g>
</g>
<!-- Node22&#45;&gt;Node10 -->
<g id="edge37_Node000022_Node000010" class="edge">
<title>Node22&#45;&gt;Node10</title>
<g id="a_edge37_Node000022_Node000010"><a xlink:title=" ">
<path fill="none" stroke="#63b8ff" d="M424.49,-321.84C435.71,-308.47 452.47,-289.58 469,-275 484.77,-261.09 504.89,-247.51 518.1,-239.08"/>
<polygon fill="#63b8ff" stroke="#63b8ff" points="421.64,-319.79 417.97,-329.73 427.04,-324.25 421.64,-319.79"/>
</a>
</g>
</g>
<!-- Node22&#45;&gt;Node11 -->
<g id="edge36_Node000022_Node000011" class="edge">
<title>Node22&#45;&gt;Node11</title>
<g id="a_edge36_Node000022_Node000011"><a xlink:title=" ">
<path fill="none" stroke="#63b8ff" d="M468.8,-336.99C508.75,-333.23 561.13,-322.6 598,-294 627.38,-271.22 619.23,-252.65 637,-220 643.78,-207.55 651.85,-193.28 656.95,-184.33"/>
<polygon fill="#63b8ff" stroke="#63b8ff" points="468.35,-333.52 458.67,-337.83 468.92,-340.5 468.35,-333.52"/>
</a>
</g>
</g>
<!-- Node22&#45;&gt;Node15 -->
<g id="edge38_Node000022_Node000015" class="edge">
<title>Node22&#45;&gt;Node15</title>
<g id="a_edge38_Node000022_Node000015"><a xlink:title=" ">
<path fill="none" stroke="#63b8ff" d="M409.94,-319.37C407.99,-284.03 403.89,-209.79 402.49,-184.31"/>
<polygon fill="#63b8ff" stroke="#63b8ff" points="406.47,-319.94 410.52,-329.74 413.46,-319.56 406.47,-319.94"/>
</a>
</g>
</g>
<!-- Node23 -->
<g id="Node000023" class="node">
<title>Node23</title>
<g id="a_Node000023"><a xlink:href="_wi_fi_network_scan_8h.html" target="_top" xlink:title="Platform&#45;specific WiFi network scanning utilities.">
<polygon fill="white" stroke="#666666" points="588.5,-294 477.5,-294 477.5,-275 588.5,-275 588.5,-294"/>
<text text-anchor="middle" x="533" y="-282" font-family="Helvetica,sans-Serif" font-size="10.00">WiFiNetworkScan.h</text>
</a>
</g>
</g>
<!-- Node22&#45;&gt;Node23 -->
<g id="edge40_Node000022_Node000023" class="edge">
<title>Node22&#45;&gt;Node23</title>
<g id="a_edge40_Node000022_Node000023"><a xlink:title=" ">
<path fill="none" stroke="#63b8ff" d="M440.01,-325.9C462.54,-316.11 493.2,-302.79 513.04,-294.17"/>
<polygon fill="#63b8ff" stroke="#63b8ff" points="438.38,-322.79 430.6,-329.98 441.17,-329.21 438.38,-322.79"/>
</a>
</g>
</g>
<!-- Node24 -->
<g id="Node000024" class="node">
<title>Node24</title>
<g id="a_Node000024"><a xlink:href="un_lisp_8h.html" target="_top" xlink:title=" ">
<polygon fill="white" stroke="#666666" points="344.5,-239 287.5,-239 287.5,-220 344.5,-220 344.5,-239"/>
<text text-anchor="middle" x="316" y="-227" font-family="Helvetica,sans-Serif" font-size="10.00">unLisp.h</text>
</a>
</g>
</g>
<!-- Node22&#45;&gt;Node24 -->
<g id="edge42_Node000022_Node000024" class="edge">
<title>Node22&#45;&gt;Node24</title>
<g id="a_edge42_Node000022_Node000024"><a xlink:title=" ">
<path fill="none" stroke="#63b8ff" d="M396.48,-322C376.02,-298.73 339.42,-257.13 323.62,-239.16"/>
<polygon fill="#63b8ff" stroke="#63b8ff" points="393.99,-324.47 403.23,-329.66 399.25,-319.84 393.99,-324.47"/>
</a>
</g>
</g>
<!-- Node23&#45;&gt;Node10 -->
<g id="edge41_Node000023_Node000010" class="edge">
<title>Node23&#45;&gt;Node10</title>
<g id="a_edge41_Node000023_Node000010"><a xlink:title=" ">
<path fill="none" stroke="#63b8ff" d="M532.64,-264.66C532.48,-255.93 532.29,-245.99 532.16,-239.09"/>
<polygon fill="#63b8ff" stroke="#63b8ff" points="529.15,-264.82 532.83,-274.75 536.15,-264.68 529.15,-264.82"/>
</a>
</g>
</g>
<!-- Node24&#45;&gt;Node4 -->
<g id="edge43_Node000024_Node000004" class="edge">
<title>Node24&#45;&gt;Node4</title>
<g id="a_edge43_Node000024_Node000004"><a xlink:title=" ">
<path fill="none" stroke="#63b8ff" d="M354.67,-220.78C389.79,-212.89 437.77,-199.6 449,-184 461,-167.33 448.86,-142.27 440.84,-129.17"/>
<polygon fill="#63b8ff" stroke="#63b8ff" points="353.71,-217.4 344.69,-222.96 355.21,-224.24 353.71,-217.4"/>
</a>
</g>
</g>
<!-- Node24&#45;&gt;Node14 -->
<g id="edge44_Node000024_Node000014" class="edge">
<title>Node24&#45;&gt;Node14</title>
<g id="a_edge44_Node000024_Node000014"><a xlink:title=" ">
<path fill="none" stroke="#63b8ff" d="M312.45,-209.66C310.8,-200.93 308.92,-190.99 307.62,-184.09"/>
<polygon fill="#63b8ff" stroke="#63b8ff" points="309.06,-210.57 314.35,-219.75 315.93,-209.27 309.06,-210.57"/>
</a>
</g>
</g>
</g>
</svg>
