<?xml version="1.0" encoding="UTF-8" standalone="no"?>
<!DOCTYPE svg PUBLIC "-//W3C//DTD SVG 1.1//EN"
 "http://www.w3.org/Graphics/SVG/1.1/DTD/svg11.dtd">
<!-- Generated by graphviz version 2.43.0 (0)
 -->
<!-- Title: IEventBusConnectionKit.h Pages: 1 -->
<svg width="651pt" height="357pt"
 viewBox="0.00 0.00 651.18 357.00" xmlns="http://www.w3.org/2000/svg" xmlns:xlink="http://www.w3.org/1999/xlink">
<g id="graph0" class="graph" transform="scale(1 1) rotate(0) translate(4 353)">
<title>IEventBusConnectionKit.h</title>
<!-- Node1 -->
<g id="Node000001" class="node">
<title>Node1</title>
<g id="a_Node000001"><a xlink:title="Defines the interface for components that can connect to an EventBus.">
<polygon fill="#999999" stroke="#666666" points="546.68,-349 403.68,-349 403.68,-330 546.68,-330 546.68,-349"/>
<text text-anchor="middle" x="475.18" y="-337" font-family="Helvetica,sans-Serif" font-size="10.00">IEventBusConnectionKit.h</text>
</a>
</g>
</g>
<!-- Node2 -->
<g id="Node000002" class="node">
<title>Node2</title>
<g id="a_Node000002"><a xlink:href="_event_bus_8h.html" target="_top" xlink:title=" ">
<polygon fill="white" stroke="#666666" points="510.68,-294 439.68,-294 439.68,-275 510.68,-275 510.68,-294"/>
<text text-anchor="middle" x="475.18" y="-282" font-family="Helvetica,sans-Serif" font-size="10.00">EventBus.h</text>
</a>
</g>
</g>
<!-- Node1&#45;&gt;Node2 -->
<g id="edge1_Node000001_Node000002" class="edge">
<title>Node1&#45;&gt;Node2</title>
<g id="a_edge1_Node000001_Node000002"><a xlink:title=" ">
<path fill="none" stroke="#63b8ff" d="M470.01,-329.75C468.52,-322.8 468.08,-312.85 468.7,-304.13"/>
<polygon fill="#63b8ff" stroke="#63b8ff" points="472.19,-304.47 470.05,-294.09 465.25,-303.53 472.19,-304.47"/>
</a>
</g>
</g>
<!-- Node2&#45;&gt;Node1 -->
<g id="edge24_Node000002_Node000001" class="edge">
<title>Node2&#45;&gt;Node1</title>
<g id="a_edge24_Node000002_Node000001"><a xlink:title=" ">
<path fill="none" stroke="#63b8ff" d="M480.31,-294.09C481.82,-300.99 482.28,-310.93 481.67,-319.66"/>
<polygon fill="#63b8ff" stroke="#63b8ff" points="478.18,-319.38 480.35,-329.75 485.12,-320.29 478.18,-319.38"/>
</a>
</g>
</g>
<!-- Node3 -->
<g id="Node000003" class="node">
<title>Node3</title>
<g id="a_Node000003"><a xlink:href="_bytes_8h.html" target="_top" xlink:title=" ">
<polygon fill="white" stroke="#666666" points="262.68,-184 209.68,-184 209.68,-165 262.68,-165 262.68,-184"/>
<text text-anchor="middle" x="236.18" y="-172" font-family="Helvetica,sans-Serif" font-size="10.00">Bytes.h</text>
</a>
</g>
</g>
<!-- Node2&#45;&gt;Node3 -->
<g id="edge2_Node000002_Node000003" class="edge">
<title>Node2&#45;&gt;Node3</title>
<g id="a_edge2_Node000002_Node000003"><a xlink:title=" ">
<path fill="none" stroke="#63b8ff" d="M456.03,-274.84C413.97,-255.84 313.39,-210.39 264.21,-188.17"/>
<polygon fill="#63b8ff" stroke="#63b8ff" points="265.65,-184.98 255.09,-184.05 262.77,-191.35 265.65,-184.98"/>
</a>
</g>
</g>
<!-- Node13 -->
<g id="Node000013" class="node">
<title>Node13</title>
<g id="a_Node000013"><a xlink:href="_clear_queue_8h.html" target="_top" xlink:title=" ">
<polygon fill="white" stroke="#666666" points="523.68,-74 440.68,-74 440.68,-55 523.68,-55 523.68,-74"/>
<text text-anchor="middle" x="482.18" y="-62" font-family="Helvetica,sans-Serif" font-size="10.00">ClearQueue.h</text>
</a>
</g>
</g>
<!-- Node2&#45;&gt;Node13 -->
<g id="edge12_Node000002_Node000013" class="edge">
<title>Node2&#45;&gt;Node13</title>
<g id="a_edge12_Node000002_Node000013"><a xlink:title=" ">
<path fill="none" stroke="#63b8ff" d="M481.51,-274.75C493.12,-258.08 517.44,-220.23 526.18,-184 535.19,-146.69 511.35,-105.05 495.34,-82.41"/>
<polygon fill="#63b8ff" stroke="#63b8ff" points="498.03,-80.16 489.28,-74.19 492.4,-84.32 498.03,-80.16"/>
</a>
</g>
</g>
<!-- Node14 -->
<g id="Node000014" class="node">
<title>Node14</title>
<g id="a_Node000014"><a xlink:href="_data_channels_8h.html" target="_top" xlink:title=" ">
<polygon fill="white" stroke="#666666" points="485.18,-239 391.18,-239 391.18,-220 485.18,-220 485.18,-239"/>
<text text-anchor="middle" x="438.18" y="-227" font-family="Helvetica,sans-Serif" font-size="10.00">DataChannels.h</text>
</a>
</g>
</g>
<!-- Node2&#45;&gt;Node14 -->
<g id="edge15_Node000002_Node000014" class="edge">
<title>Node2&#45;&gt;Node14</title>
<g id="a_edge15_Node000002_Node000014"><a xlink:title=" ">
<path fill="none" stroke="#63b8ff" d="M469.07,-274.75C463.9,-267.34 456.33,-256.5 449.99,-247.41"/>
<polygon fill="#63b8ff" stroke="#63b8ff" points="452.77,-245.29 444.18,-239.09 447.03,-249.29 452.77,-245.29"/>
</a>
</g>
</g>
<!-- Node18 -->
<g id="Node000018" class="node">
<title>Node18</title>
<g id="a_Node000018"><a xlink:href="_i_executor_8h.html" target="_top" xlink:title=" ">
<polygon fill="white" stroke="#666666" points="643.18,-239 573.18,-239 573.18,-220 643.18,-220 643.18,-239"/>
<text text-anchor="middle" x="608.18" y="-227" font-family="Helvetica,sans-Serif" font-size="10.00">IExecutor.h</text>
</a>
</g>
</g>
<!-- Node2&#45;&gt;Node18 -->
<g id="edge23_Node000002_Node000018" class="edge">
<title>Node2&#45;&gt;Node18</title>
<g id="a_edge23_Node000002_Node000018"><a xlink:title=" ">
<path fill="none" stroke="#63b8ff" d="M496.55,-274.98C518.33,-266.3 552.34,-252.75 577.1,-242.88"/>
<polygon fill="#63b8ff" stroke="#63b8ff" points="578.43,-246.12 586.42,-239.17 575.84,-239.62 578.43,-246.12"/>
</a>
</g>
</g>
<!-- Node4 -->
<g id="Node000004" class="node">
<title>Node4</title>
<g id="a_Node000004"><a xlink:href="_common_8h.html" target="_top" xlink:title=" ">
<polygon fill="white" stroke="#666666" points="365.18,-129 295.18,-129 295.18,-110 365.18,-110 365.18,-129"/>
<text text-anchor="middle" x="330.18" y="-117" font-family="Helvetica,sans-Serif" font-size="10.00">Common.h</text>
</a>
</g>
</g>
<!-- Node3&#45;&gt;Node4 -->
<g id="edge3_Node000003_Node000004" class="edge">
<title>Node3&#45;&gt;Node4</title>
<g id="a_edge3_Node000003_Node000004"><a xlink:title=" ">
<path fill="none" stroke="#63b8ff" d="M251.28,-164.98C266,-156.69 288.61,-143.94 305.86,-134.22"/>
<polygon fill="#63b8ff" stroke="#63b8ff" points="307.81,-137.13 314.8,-129.17 304.37,-131.03 307.81,-137.13"/>
</a>
</g>
</g>
<!-- Node7 -->
<g id="Node000007" class="node">
<title>Node7</title>
<g id="a_Node000007"><a xlink:href="_logger_8h.html" target="_top" xlink:title=" ">
<polygon fill="white" stroke="#666666" points="283.18,-74 225.18,-74 225.18,-55 283.18,-55 283.18,-74"/>
<text text-anchor="middle" x="254.18" y="-62" font-family="Helvetica,sans-Serif" font-size="10.00">Logger.h</text>
</a>
</g>
</g>
<!-- Node3&#45;&gt;Node7 -->
<g id="edge6_Node000003_Node000007" class="edge">
<title>Node3&#45;&gt;Node7</title>
<g id="a_edge6_Node000003_Node000007"><a xlink:title=" ">
<path fill="none" stroke="#63b8ff" d="M238.72,-164.71C241.21,-155.79 244.95,-141.54 247.18,-129 249.83,-114.12 251.64,-97.09 252.76,-84.41"/>
<polygon fill="#63b8ff" stroke="#63b8ff" points="256.27,-84.43 253.59,-74.18 249.29,-83.86 256.27,-84.43"/>
</a>
</g>
</g>
<!-- Node9 -->
<g id="Node000009" class="node">
<title>Node9</title>
<g id="a_Node000009"><a xlink:title=" ">
<polygon fill="#e0e0e0" stroke="#999999" points="83.18,-129 19.18,-129 19.18,-110 83.18,-110 83.18,-129"/>
<text text-anchor="middle" x="51.18" y="-117" font-family="Helvetica,sans-Serif" font-size="10.00">WString.h</text>
</a>
</g>
</g>
<!-- Node3&#45;&gt;Node9 -->
<g id="edge8_Node000003_Node000009" class="edge">
<title>Node3&#45;&gt;Node9</title>
<g id="a_edge8_Node000003_Node000009"><a xlink:title=" ">
<path fill="none" stroke="#63b8ff" d="M209.67,-165.91C178.53,-156.98 126.57,-142.1 90.68,-131.81"/>
<polygon fill="#63b8ff" stroke="#63b8ff" points="91.59,-128.43 81.01,-129.05 89.66,-135.16 91.59,-128.43"/>
</a>
</g>
</g>
<!-- Node10 -->
<g id="Node000010" class="node">
<title>Node10</title>
<g id="a_Node000010"><a xlink:title=" ">
<polygon fill="#e0e0e0" stroke="#999999" points="151.18,-129 101.18,-129 101.18,-110 151.18,-110 151.18,-129"/>
<text text-anchor="middle" x="126.18" y="-117" font-family="Helvetica,sans-Serif" font-size="10.00">stdio.h</text>
</a>
</g>
</g>
<!-- Node3&#45;&gt;Node10 -->
<g id="edge9_Node000003_Node000010" class="edge">
<title>Node3&#45;&gt;Node10</title>
<g id="a_edge9_Node000003_Node000010"><a xlink:title=" ">
<path fill="none" stroke="#63b8ff" d="M218.51,-164.98C200.89,-156.5 173.6,-143.35 153.25,-133.54"/>
<polygon fill="#63b8ff" stroke="#63b8ff" points="154.7,-130.36 144.18,-129.17 151.67,-136.66 154.7,-130.36"/>
</a>
</g>
</g>
<!-- Node11 -->
<g id="Node000011" class="node">
<title>Node11</title>
<g id="a_Node000011"><a xlink:title=" ">
<polygon fill="#e0e0e0" stroke="#999999" points="228.68,-19 163.68,-19 163.68,0 228.68,0 228.68,-19"/>
<text text-anchor="middle" x="196.18" y="-7" font-family="Helvetica,sans-Serif" font-size="10.00">functional</text>
</a>
</g>
</g>
<!-- Node3&#45;&gt;Node11 -->
<g id="edge10_Node000003_Node000011" class="edge">
<title>Node3&#45;&gt;Node11</title>
<g id="a_edge10_Node000003_Node000011"><a xlink:title=" ">
<path fill="none" stroke="#63b8ff" d="M209.27,-172.32C154.93,-169.33 35.14,-159.35 10.18,-129 -35.39,-73.58 85.4,-35.8 153.43,-19.53"/>
<polygon fill="#63b8ff" stroke="#63b8ff" points="154.52,-22.87 163.46,-17.2 152.93,-16.06 154.52,-22.87"/>
</a>
</g>
</g>
<!-- Node12 -->
<g id="Node000012" class="node">
<title>Node12</title>
<g id="a_Node000012"><a xlink:title=" ">
<polygon fill="#e0e0e0" stroke="#999999" points="238.68,-129 169.68,-129 169.68,-110 238.68,-110 238.68,-129"/>
<text text-anchor="middle" x="204.18" y="-117" font-family="Helvetica,sans-Serif" font-size="10.00">type_traits</text>
</a>
</g>
</g>
<!-- Node3&#45;&gt;Node12 -->
<g id="edge11_Node000003_Node000012" class="edge">
<title>Node3&#45;&gt;Node12</title>
<g id="a_edge11_Node000003_Node000012"><a xlink:title=" ">
<path fill="none" stroke="#63b8ff" d="M230.9,-164.75C226.47,-157.42 220.02,-146.73 214.56,-137.7"/>
<polygon fill="#63b8ff" stroke="#63b8ff" points="217.53,-135.84 209.37,-129.09 211.54,-139.46 217.53,-135.84"/>
</a>
</g>
</g>
<!-- Node5 -->
<g id="Node000005" class="node">
<title>Node5</title>
<g id="a_Node000005"><a xlink:title=" ">
<polygon fill="#e0e0e0" stroke="#999999" points="359.18,-74 301.18,-74 301.18,-55 359.18,-55 359.18,-74"/>
<text text-anchor="middle" x="330.18" y="-62" font-family="Helvetica,sans-Serif" font-size="10.00">memory</text>
</a>
</g>
</g>
<!-- Node4&#45;&gt;Node5 -->
<g id="edge4_Node000004_Node000005" class="edge">
<title>Node4&#45;&gt;Node5</title>
<g id="a_edge4_Node000004_Node000005"><a xlink:title=" ">
<path fill="none" stroke="#63b8ff" d="M330.18,-109.75C330.18,-102.8 330.18,-92.85 330.18,-84.13"/>
<polygon fill="#63b8ff" stroke="#63b8ff" points="333.68,-84.09 330.18,-74.09 326.68,-84.09 333.68,-84.09"/>
</a>
</g>
</g>
<!-- Node6 -->
<g id="Node000006" class="node">
<title>Node6</title>
<g id="a_Node000006"><a xlink:title=" ">
<polygon fill="#e0e0e0" stroke="#999999" points="422.68,-74 377.68,-74 377.68,-55 422.68,-55 422.68,-74"/>
<text text-anchor="middle" x="400.18" y="-62" font-family="Helvetica,sans-Serif" font-size="10.00">utility</text>
</a>
</g>
</g>
<!-- Node4&#45;&gt;Node6 -->
<g id="edge5_Node000004_Node000006" class="edge">
<title>Node4&#45;&gt;Node6</title>
<g id="a_edge5_Node000004_Node000006"><a xlink:title=" ">
<path fill="none" stroke="#63b8ff" d="M341.43,-109.98C351.98,-102 367.98,-89.88 380.62,-80.31"/>
<polygon fill="#63b8ff" stroke="#63b8ff" points="382.87,-83 388.73,-74.17 378.64,-77.42 382.87,-83"/>
</a>
</g>
</g>
<!-- Node8 -->
<g id="Node000008" class="node">
<title>Node8</title>
<g id="a_Node000008"><a xlink:title=" ">
<polygon fill="#e0e0e0" stroke="#999999" points="399.68,-19 336.68,-19 336.68,0 399.68,0 399.68,-19"/>
<text text-anchor="middle" x="368.18" y="-7" font-family="Helvetica,sans-Serif" font-size="10.00">Arduino.h</text>
</a>
</g>
</g>
<!-- Node7&#45;&gt;Node8 -->
<g id="edge7_Node000007_Node000008" class="edge">
<title>Node7&#45;&gt;Node8</title>
<g id="a_edge7_Node000007_Node000008"><a xlink:title=" ">
<path fill="none" stroke="#63b8ff" d="M272.5,-54.98C290.84,-46.46 319.29,-33.23 340.41,-23.41"/>
<polygon fill="#63b8ff" stroke="#63b8ff" points="341.94,-26.56 349.53,-19.17 338.99,-20.21 341.94,-26.56"/>
</a>
</g>
</g>
<!-- Node13&#45;&gt;Node8 -->
<g id="edge13_Node000013_Node000008" class="edge">
<title>Node13&#45;&gt;Node8</title>
<g id="a_edge13_Node000013_Node000008"><a xlink:title=" ">
<path fill="none" stroke="#63b8ff" d="M463.86,-54.98C445.53,-46.46 417.07,-33.23 395.95,-23.41"/>
<polygon fill="#63b8ff" stroke="#63b8ff" points="397.37,-20.21 386.83,-19.17 394.42,-26.56 397.37,-20.21"/>
</a>
</g>
</g>
<!-- Node13&#45;&gt;Node11 -->
<g id="edge14_Node000013_Node000011" class="edge">
<title>Node13&#45;&gt;Node11</title>
<g id="a_edge14_Node000013_Node000011"><a xlink:title=" ">
<path fill="none" stroke="#63b8ff" d="M440.59,-55.79C386.74,-45.81 293.36,-28.51 238.94,-18.42"/>
<polygon fill="#63b8ff" stroke="#63b8ff" points="239.4,-14.95 228.93,-16.57 238.12,-21.83 239.4,-14.95"/>
</a>
</g>
</g>
<!-- Node14&#45;&gt;Node3 -->
<g id="edge16_Node000014_Node000003" class="edge">
<title>Node14&#45;&gt;Node3</title>
<g id="a_edge16_Node000014_Node000003"><a xlink:title=" ">
<path fill="none" stroke="#63b8ff" d="M405.73,-219.98C369.43,-210.46 310.79,-195.08 272.86,-185.12"/>
<polygon fill="#63b8ff" stroke="#63b8ff" points="273.31,-181.62 262.75,-182.47 271.54,-188.39 273.31,-181.62"/>
</a>
</g>
</g>
<!-- Node15 -->
<g id="Node000015" class="node">
<title>Node15</title>
<g id="a_Node000015"><a xlink:href="_limited_queue_8h.html" target="_top" xlink:title=" ">
<polygon fill="white" stroke="#666666" points="517.18,-184 423.18,-184 423.18,-165 517.18,-165 517.18,-184"/>
<text text-anchor="middle" x="470.18" y="-172" font-family="Helvetica,sans-Serif" font-size="10.00">LimitedQueue.h</text>
</a>
</g>
</g>
<!-- Node14&#45;&gt;Node15 -->
<g id="edge17_Node000014_Node000015" class="edge">
<title>Node14&#45;&gt;Node15</title>
<g id="a_edge17_Node000014_Node000015"><a xlink:title=" ">
<path fill="none" stroke="#63b8ff" d="M443.46,-219.75C447.89,-212.42 454.34,-201.73 459.8,-192.7"/>
<polygon fill="#63b8ff" stroke="#63b8ff" points="462.82,-194.46 464.99,-184.09 456.83,-190.84 462.82,-194.46"/>
</a>
</g>
</g>
<!-- Node16 -->
<g id="Node000016" class="node">
<title>Node16</title>
<g id="a_Node000016"><a xlink:href="_map_8h.html" target="_top" xlink:title=" ">
<polygon fill="white" stroke="#666666" points="404.68,-184 357.68,-184 357.68,-165 404.68,-165 404.68,-184"/>
<text text-anchor="middle" x="381.18" y="-172" font-family="Helvetica,sans-Serif" font-size="10.00">Map.h</text>
</a>
</g>
</g>
<!-- Node14&#45;&gt;Node16 -->
<g id="edge19_Node000014_Node000016" class="edge">
<title>Node14&#45;&gt;Node16</title>
<g id="a_edge19_Node000014_Node000016"><a xlink:title=" ">
<path fill="none" stroke="#63b8ff" d="M429.02,-219.98C420.68,-212.23 408.15,-200.58 398,-191.14"/>
<polygon fill="#63b8ff" stroke="#63b8ff" points="400.21,-188.42 390.51,-184.17 395.45,-193.54 400.21,-188.42"/>
</a>
</g>
</g>
<!-- Node15&#45;&gt;Node13 -->
<g id="edge18_Node000015_Node000013" class="edge">
<title>Node15&#45;&gt;Node13</title>
<g id="a_edge18_Node000015_Node000013"><a xlink:title=" ">
<path fill="none" stroke="#63b8ff" d="M474.8,-164.94C479.24,-156.2 485.63,-142.09 488.18,-129 491.09,-114.04 489.14,-96.8 486.71,-84.07"/>
<polygon fill="#63b8ff" stroke="#63b8ff" points="490.11,-83.23 484.56,-74.2 483.27,-84.72 490.11,-83.23"/>
</a>
</g>
</g>
<!-- Node16&#45;&gt;Node4 -->
<g id="edge20_Node000016_Node000004" class="edge">
<title>Node16&#45;&gt;Node4</title>
<g id="a_edge20_Node000016_Node000004"><a xlink:title=" ">
<path fill="none" stroke="#63b8ff" d="M372.76,-164.75C365.41,-157.11 354.55,-145.82 345.64,-136.56"/>
<polygon fill="#63b8ff" stroke="#63b8ff" points="347.9,-133.87 338.45,-129.09 342.86,-138.72 347.9,-133.87"/>
</a>
</g>
</g>
<!-- Node17 -->
<g id="Node000017" class="node">
<title>Node17</title>
<g id="a_Node000017"><a xlink:href="_iterable_queue_8h.html" target="_top" xlink:title=" ">
<polygon fill="white" stroke="#666666" points="478.68,-129 383.68,-129 383.68,-110 478.68,-110 478.68,-129"/>
<text text-anchor="middle" x="431.18" y="-117" font-family="Helvetica,sans-Serif" font-size="10.00">IterableQueue.h</text>
</a>
</g>
</g>
<!-- Node16&#45;&gt;Node17 -->
<g id="edge21_Node000016_Node000017" class="edge">
<title>Node16&#45;&gt;Node17</title>
<g id="a_edge21_Node000016_Node000017"><a xlink:title=" ">
<path fill="none" stroke="#63b8ff" d="M389.44,-164.75C396.65,-157.11 407.29,-145.82 416.03,-136.56"/>
<polygon fill="#63b8ff" stroke="#63b8ff" points="418.76,-138.76 423.08,-129.09 413.67,-133.96 418.76,-138.76"/>
</a>
</g>
</g>
<!-- Node17&#45;&gt;Node13 -->
<g id="edge22_Node000017_Node000013" class="edge">
<title>Node17&#45;&gt;Node13</title>
<g id="a_edge22_Node000017_Node000013"><a xlink:title=" ">
<path fill="none" stroke="#63b8ff" d="M439.6,-109.75C446.95,-102.11 457.81,-90.82 466.72,-81.56"/>
<polygon fill="#63b8ff" stroke="#63b8ff" points="469.5,-83.72 473.92,-74.09 464.46,-78.87 469.5,-83.72"/>
</a>
</g>
</g>
</g>
</svg>
