<?xml version="1.0" encoding="UTF-8" standalone="no"?>
<!DOCTYPE svg PUBLIC "-//W3C//DTD SVG 1.1//EN"
 "http://www.w3.org/Graphics/SVG/1.1/DTD/svg11.dtd">
<!-- Generated by graphviz version 2.43.0 (0)
 -->
<!-- Title: ISchedulerConnectionKit.h Pages: 1 -->
<svg width="606pt" height="412pt"
 viewBox="0.00 0.00 606.00 412.00" xmlns="http://www.w3.org/2000/svg" xmlns:xlink="http://www.w3.org/1999/xlink">
<g id="graph0" class="graph" transform="scale(1 1) rotate(0) translate(4 408)">
<title>ISchedulerConnectionKit.h</title>
<!-- Node1 -->
<g id="Node000001" class="node">
<title>Node1</title>
<g id="a_Node000001"><a xlink:title=" ">
<polygon fill="#999999" stroke="#666666" points="239.5,-404 94.5,-404 94.5,-385 239.5,-385 239.5,-404"/>
<text text-anchor="middle" x="167" y="-392" font-family="Helvetica,sans-Serif" font-size="10.00">ISchedulerConnectionKit.h</text>
</a>
</g>
</g>
<!-- Node2 -->
<g id="Node000002" class="node">
<title>Node2</title>
<g id="a_Node000002"><a xlink:href="_app_kit_8h.html" target="_top" xlink:title=" ">
<polygon fill="white" stroke="#666666" points="362,-129 304,-129 304,-110 362,-110 362,-129"/>
<text text-anchor="middle" x="333" y="-117" font-family="Helvetica,sans-Serif" font-size="10.00">AppKit.h</text>
</a>
</g>
</g>
<!-- Node1&#45;&gt;Node2 -->
<g id="edge1_Node000001_Node000002" class="edge">
<title>Node1&#45;&gt;Node2</title>
<g id="a_edge1_Node000001_Node000002"><a xlink:title=" ">
<path fill="none" stroke="#63b8ff" d="M156.7,-375.99C145.45,-355.16 129,-318.98 129,-285.5 129,-285.5 129,-285.5 129,-228.5 129,-199.04 126.61,-185.25 148,-165 170.25,-143.94 257.39,-130.03 303.7,-123.97"/>
<polygon fill="#63b8ff" stroke="#63b8ff" points="153.76,-377.9 161.72,-384.9 159.87,-374.47 153.76,-377.9"/>
</a>
</g>
</g>
<!-- Node5 -->
<g id="Node000005" class="node">
<title>Node5</title>
<g id="a_Node000005"><a xlink:href="_network_controller_8h.html" target="_top" xlink:title="High&#45;level network management controller with user interface.">
<polygon fill="white" stroke="#666666" points="271,-184 157,-184 157,-165 271,-165 271,-184"/>
<text text-anchor="middle" x="214" y="-172" font-family="Helvetica,sans-Serif" font-size="10.00">NetworkController.h</text>
</a>
</g>
</g>
<!-- Node1&#45;&gt;Node5 -->
<g id="edge4_Node000001_Node000005" class="edge">
<title>Node1&#45;&gt;Node5</title>
<g id="a_edge4_Node000001_Node000005"><a xlink:title=" ">
<path fill="none" stroke="#63b8ff" d="M166.34,-374.62C165.79,-342.09 167.26,-273.77 186,-220 190.75,-206.38 200.3,-192.62 206.92,-184.08"/>
<polygon fill="#63b8ff" stroke="#63b8ff" points="162.85,-374.99 166.6,-384.9 169.85,-374.81 162.85,-374.99"/>
</a>
</g>
</g>
<!-- Node6 -->
<g id="Node000006" class="node">
<title>Node6</title>
<g id="a_Node000006"><a xlink:href="_task_scheduler_8h.html" target="_top" xlink:title=" ">
<polygon fill="white" stroke="#666666" points="420.5,-349 325.5,-349 325.5,-330 420.5,-330 420.5,-349"/>
<text text-anchor="middle" x="373" y="-337" font-family="Helvetica,sans-Serif" font-size="10.00">TaskScheduler.h</text>
</a>
</g>
</g>
<!-- Node1&#45;&gt;Node6 -->
<g id="edge6_Node000001_Node000006" class="edge">
<title>Node1&#45;&gt;Node6</title>
<g id="a_edge6_Node000001_Node000006"><a xlink:title=" ">
<path fill="none" stroke="#63b8ff" d="M210,-382.44C248.56,-372.52 304.36,-358.16 339.64,-349.08"/>
<polygon fill="#63b8ff" stroke="#63b8ff" points="208.91,-379.1 200.1,-384.98 210.65,-385.88 208.91,-379.1"/>
</a>
</g>
</g>
<!-- Node3 -->
<g id="Node000003" class="node">
<title>Node3</title>
<g id="a_Node000003"><a xlink:href="_uniot_8h.html" target="_top" xlink:title="Main API interface for the Uniot IoT platform.">
<polygon fill="white" stroke="#666666" points="506,-74 454,-74 454,-55 506,-55 506,-74"/>
<text text-anchor="middle" x="480" y="-62" font-family="Helvetica,sans-Serif" font-size="10.00">Uniot.h</text>
</a>
</g>
</g>
<!-- Node2&#45;&gt;Node3 -->
<g id="edge2_Node000002_Node000003" class="edge">
<title>Node2&#45;&gt;Node3</title>
<g id="a_edge2_Node000002_Node000003"><a xlink:title=" ">
<path fill="none" stroke="#63b8ff" d="M366.14,-106.55C393.44,-96.71 431.5,-82.98 455.95,-74.17"/>
<polygon fill="#63b8ff" stroke="#63b8ff" points="364.84,-103.3 356.62,-109.98 367.21,-109.89 364.84,-103.3"/>
</a>
</g>
</g>
<!-- Node4 -->
<g id="Node000004" class="node">
<title>Node4</title>
<g id="a_Node000004"><a xlink:href="_uniot_8cpp.html" target="_top" xlink:title=" ">
<polygon fill="white" stroke="#666666" points="511.5,-19 448.5,-19 448.5,0 511.5,0 511.5,-19"/>
<text text-anchor="middle" x="480" y="-7" font-family="Helvetica,sans-Serif" font-size="10.00">Uniot.cpp</text>
</a>
</g>
</g>
<!-- Node3&#45;&gt;Node4 -->
<g id="edge3_Node000003_Node000004" class="edge">
<title>Node3&#45;&gt;Node4</title>
<g id="a_edge3_Node000003_Node000004"><a xlink:title=" ">
<path fill="none" stroke="#63b8ff" d="M480,-44.66C480,-35.93 480,-25.99 480,-19.09"/>
<polygon fill="#63b8ff" stroke="#63b8ff" points="476.5,-44.75 480,-54.75 483.5,-44.75 476.5,-44.75"/>
</a>
</g>
</g>
<!-- Node5&#45;&gt;Node2 -->
<g id="edge5_Node000005_Node000002" class="edge">
<title>Node5&#45;&gt;Node2</title>
<g id="a_edge5_Node000005_Node000002"><a xlink:title=" ">
<path fill="none" stroke="#63b8ff" d="M242.3,-160.9C264.28,-151.11 294.18,-137.79 313.53,-129.17"/>
<polygon fill="#63b8ff" stroke="#63b8ff" points="240.83,-157.72 233.12,-164.98 243.68,-164.11 240.83,-157.72"/>
</a>
</g>
</g>
<!-- Node6&#45;&gt;Node3 -->
<g id="edge20_Node000006_Node000003" class="edge">
<title>Node6&#45;&gt;Node3</title>
<g id="a_edge20_Node000006_Node000003"><a xlink:title=" ">
<path fill="none" stroke="#63b8ff" d="M430.7,-335.22C497.36,-327.95 598,-304.68 598,-230.5 598,-230.5 598,-230.5 598,-173.5 598,-122.26 536.71,-88.78 502.47,-74.08"/>
<polygon fill="#63b8ff" stroke="#63b8ff" points="430.32,-331.74 420.72,-336.22 431.02,-338.7 430.32,-331.74"/>
</a>
</g>
</g>
<!-- Node7 -->
<g id="Node000007" class="node">
<title>Node7</title>
<g id="a_Node000007"><a xlink:href="_button_8h.html" target="_top" xlink:title=" ">
<polygon fill="white" stroke="#666666" points="253,-239 195,-239 195,-220 253,-220 253,-239"/>
<text text-anchor="middle" x="224" y="-227" font-family="Helvetica,sans-Serif" font-size="10.00">Button.h</text>
</a>
</g>
</g>
<!-- Node6&#45;&gt;Node7 -->
<g id="edge7_Node000006_Node000007" class="edge">
<title>Node6&#45;&gt;Node7</title>
<g id="a_edge7_Node000006_Node000007"><a xlink:title=" ">
<path fill="none" stroke="#63b8ff" d="M315.67,-331.65C289.62,-325.71 260.37,-314.64 241,-294 226.63,-278.69 224.14,-252.58 223.87,-239.11"/>
<polygon fill="#63b8ff" stroke="#63b8ff" points="314.97,-335.07 325.47,-333.68 316.39,-328.22 314.97,-335.07"/>
</a>
</g>
</g>
<!-- Node10 -->
<g id="Node000010" class="node">
<title>Node10</title>
<g id="a_Node000010"><a xlink:href="_m_q_t_t_kit_8h.html" target="_top" xlink:title=" ">
<polygon fill="white" stroke="#666666" points="531,-184 463,-184 463,-165 531,-165 531,-184"/>
<text text-anchor="middle" x="497" y="-172" font-family="Helvetica,sans-Serif" font-size="10.00">MQTTKit.h</text>
</a>
</g>
</g>
<!-- Node6&#45;&gt;Node10 -->
<g id="edge12_Node000006_Node000010" class="edge">
<title>Node6&#45;&gt;Node10</title>
<g id="a_edge12_Node000006_Node000010"><a xlink:title=" ">
<path fill="none" stroke="#63b8ff" d="M430.9,-330.75C473.94,-323.67 527.46,-311.6 541,-294 547.14,-286.02 556.29,-259.26 540,-220 533.74,-204.92 519.76,-192.06 509.43,-184.1"/>
<polygon fill="#63b8ff" stroke="#63b8ff" points="430.11,-327.34 420.78,-332.36 431.21,-334.25 430.11,-327.34"/>
</a>
</g>
</g>
<!-- Node12 -->
<g id="Node000012" class="node">
<title>Node12</title>
<g id="a_Node000012"><a xlink:href="_network_scheduler_8h.html" target="_top" xlink:title="Complete WiFi network management and configuration system.">
<polygon fill="white" stroke="#666666" points="531,-239 417,-239 417,-220 531,-220 531,-239"/>
<text text-anchor="middle" x="474" y="-227" font-family="Helvetica,sans-Serif" font-size="10.00">NetworkScheduler.h</text>
</a>
</g>
</g>
<!-- Node6&#45;&gt;Node12 -->
<g id="edge15_Node000006_Node000012" class="edge">
<title>Node6&#45;&gt;Node12</title>
<g id="a_edge15_Node000006_Node000012"><a xlink:title=" ">
<path fill="none" stroke="#63b8ff" d="M381.43,-320.79C388.4,-307.29 399.22,-288.74 412,-275 425.81,-260.16 445.26,-247.16 458.67,-239.11"/>
<polygon fill="#63b8ff" stroke="#63b8ff" points="378.18,-319.46 376.87,-329.97 384.45,-322.57 378.18,-319.46"/>
</a>
</g>
</g>
<!-- Node13 -->
<g id="Node000013" class="node">
<title>Node13</title>
<g id="a_Node000013"><a xlink:href="_top_device_8h.html" target="_top" xlink:title=" ">
<polygon fill="white" stroke="#666666" points="326,-294 250,-294 250,-275 326,-275 326,-294"/>
<text text-anchor="middle" x="288" y="-282" font-family="Helvetica,sans-Serif" font-size="10.00">TopDevice.h</text>
</a>
</g>
</g>
<!-- Node6&#45;&gt;Node13 -->
<g id="edge18_Node000006_Node000013" class="edge">
<title>Node6&#45;&gt;Node13</title>
<g id="a_edge18_Node000006_Node000013"><a xlink:title=" ">
<path fill="none" stroke="#63b8ff" d="M350.43,-324.42C335,-314.81 315.05,-302.37 301.91,-294.17"/>
<polygon fill="#63b8ff" stroke="#63b8ff" points="349.01,-327.66 359.34,-329.98 352.71,-321.72 349.01,-327.66"/>
</a>
</g>
</g>
<!-- Node14 -->
<g id="Node000014" class="node">
<title>Node14</title>
<g id="a_Node000014"><a xlink:href="_wi_fi_network_scan_8h.html" target="_top" xlink:title="Platform&#45;specific WiFi network scanning utilities.">
<polygon fill="white" stroke="#666666" points="531.5,-294 420.5,-294 420.5,-275 531.5,-275 531.5,-294"/>
<text text-anchor="middle" x="476" y="-282" font-family="Helvetica,sans-Serif" font-size="10.00">WiFiNetworkScan.h</text>
</a>
</g>
</g>
<!-- Node6&#45;&gt;Node14 -->
<g id="edge21_Node000006_Node000014" class="edge">
<title>Node6&#45;&gt;Node14</title>
<g id="a_edge21_Node000006_Node000014"><a xlink:title=" ">
<path fill="none" stroke="#63b8ff" d="M398.52,-325.37C417.44,-315.63 442.7,-302.64 459.15,-294.17"/>
<polygon fill="#63b8ff" stroke="#63b8ff" points="396.84,-322.3 389.55,-329.98 400.04,-328.52 396.84,-322.3"/>
</a>
</g>
</g>
<!-- Node15 -->
<g id="Node000015" class="node">
<title>Node15</title>
<g id="a_Node000015"><a xlink:href="un_lisp_8h.html" target="_top" xlink:title=" ">
<polygon fill="white" stroke="#666666" points="395.5,-239 338.5,-239 338.5,-220 395.5,-220 395.5,-239"/>
<text text-anchor="middle" x="367" y="-227" font-family="Helvetica,sans-Serif" font-size="10.00">unLisp.h</text>
</a>
</g>
</g>
<!-- Node6&#45;&gt;Node15 -->
<g id="edge23_Node000006_Node000015" class="edge">
<title>Node6&#45;&gt;Node15</title>
<g id="a_edge23_Node000006_Node000015"><a xlink:title=" ">
<path fill="none" stroke="#63b8ff" d="M371.94,-319.48C370.63,-295.84 368.44,-256.5 367.48,-239.16"/>
<polygon fill="#63b8ff" stroke="#63b8ff" points="368.46,-319.87 372.51,-329.66 375.45,-319.48 368.46,-319.87"/>
</a>
</g>
</g>
<!-- Node7&#45;&gt;Node5 -->
<g id="edge11_Node000007_Node000005" class="edge">
<title>Node7&#45;&gt;Node5</title>
<g id="a_edge11_Node000007_Node000005"><a xlink:title=" ">
<path fill="none" stroke="#63b8ff" d="M220.45,-209.66C218.8,-200.93 216.92,-190.99 215.62,-184.09"/>
<polygon fill="#63b8ff" stroke="#63b8ff" points="217.06,-210.57 222.35,-219.75 223.93,-209.27 217.06,-210.57"/>
</a>
</g>
</g>
<!-- Node8 -->
<g id="Node000008" class="node">
<title>Node8</title>
<g id="a_Node000008"><a xlink:href="_lisp_primitives_8h.html" target="_top" xlink:title=" ">
<polygon fill="white" stroke="#666666" points="100.5,-184 5.5,-184 5.5,-165 100.5,-165 100.5,-184"/>
<text text-anchor="middle" x="53" y="-172" font-family="Helvetica,sans-Serif" font-size="10.00">LispPrimitives.h</text>
</a>
</g>
</g>
<!-- Node7&#45;&gt;Node8 -->
<g id="edge8_Node000007_Node000008" class="edge">
<title>Node7&#45;&gt;Node8</title>
<g id="a_edge8_Node000007_Node000008"><a xlink:title=" ">
<path fill="none" stroke="#63b8ff" d="M186.66,-216.93C154.72,-207.03 109.48,-193.01 80.69,-184.08"/>
<polygon fill="#63b8ff" stroke="#63b8ff" points="185.94,-220.37 196.53,-219.98 188.01,-213.68 185.94,-220.37"/>
</a>
</g>
</g>
<!-- Node8&#45;&gt;Node2 -->
<g id="edge9_Node000008_Node000002" class="edge">
<title>Node8&#45;&gt;Node2</title>
<g id="a_edge9_Node000008_Node000002"><a xlink:title=" ">
<path fill="none" stroke="#63b8ff" d="M107.85,-163.12C166.65,-151.99 257.76,-134.74 303.98,-125.99"/>
<polygon fill="#63b8ff" stroke="#63b8ff" points="107.16,-159.69 97.99,-164.98 108.46,-166.56 107.16,-159.69"/>
</a>
</g>
</g>
<!-- Node9 -->
<g id="Node000009" class="node">
<title>Node9</title>
<g id="a_Node000009"><a xlink:href="_lisp_primitives_8cpp.html" target="_top" xlink:title=" ">
<polygon fill="white" stroke="#666666" points="106,-129 0,-129 0,-110 106,-110 106,-129"/>
<text text-anchor="middle" x="53" y="-117" font-family="Helvetica,sans-Serif" font-size="10.00">LispPrimitives.cpp</text>
</a>
</g>
</g>
<!-- Node8&#45;&gt;Node9 -->
<g id="edge10_Node000008_Node000009" class="edge">
<title>Node8&#45;&gt;Node9</title>
<g id="a_edge10_Node000008_Node000009"><a xlink:title=" ">
<path fill="none" stroke="#63b8ff" d="M53,-154.66C53,-145.93 53,-135.99 53,-129.09"/>
<polygon fill="#63b8ff" stroke="#63b8ff" points="49.5,-154.75 53,-164.75 56.5,-154.75 49.5,-154.75"/>
</a>
</g>
</g>
<!-- Node10&#45;&gt;Node2 -->
<g id="edge13_Node000010_Node000002" class="edge">
<title>Node10&#45;&gt;Node2</title>
<g id="a_edge13_Node000010_Node000002"><a xlink:title=" ">
<path fill="none" stroke="#63b8ff" d="M460.79,-161.8C430.18,-151.91 387.05,-137.97 359.56,-129.08"/>
<polygon fill="#63b8ff" stroke="#63b8ff" points="460.06,-165.24 470.65,-164.98 462.21,-158.58 460.06,-165.24"/>
</a>
</g>
</g>
<!-- Node11 -->
<g id="Node000011" class="node">
<title>Node11</title>
<g id="a_Node000011"><a xlink:href="_m_q_t_t_device_8cpp.html" target="_top" xlink:title=" ">
<polygon fill="white" stroke="#666666" points="546.5,-129 447.5,-129 447.5,-110 546.5,-110 546.5,-129"/>
<text text-anchor="middle" x="497" y="-117" font-family="Helvetica,sans-Serif" font-size="10.00">MQTTDevice.cpp</text>
</a>
</g>
</g>
<!-- Node10&#45;&gt;Node11 -->
<g id="edge14_Node000010_Node000011" class="edge">
<title>Node10&#45;&gt;Node11</title>
<g id="a_edge14_Node000010_Node000011"><a xlink:title=" ">
<path fill="none" stroke="#63b8ff" d="M497,-154.66C497,-145.93 497,-135.99 497,-129.09"/>
<polygon fill="#63b8ff" stroke="#63b8ff" points="493.5,-154.75 497,-164.75 500.5,-154.75 493.5,-154.75"/>
</a>
</g>
</g>
<!-- Node12&#45;&gt;Node5 -->
<g id="edge17_Node000012_Node000005" class="edge">
<title>Node12&#45;&gt;Node5</title>
<g id="a_edge17_Node000012_Node000005"><a xlink:title=" ">
<path fill="none" stroke="#63b8ff" d="M422.2,-217.94C373.46,-208.01 301.39,-193.31 256.1,-184.08"/>
<polygon fill="#63b8ff" stroke="#63b8ff" points="421.73,-221.42 432.23,-219.98 423.13,-214.56 421.73,-221.42"/>
</a>
</g>
</g>
<!-- Node12&#45;&gt;Node10 -->
<g id="edge16_Node000012_Node000010" class="edge">
<title>Node12&#45;&gt;Node10</title>
<g id="a_edge16_Node000012_Node000010"><a xlink:title=" ">
<path fill="none" stroke="#63b8ff" d="M481.8,-210.53C485.68,-201.6 490.18,-191.22 493.27,-184.09"/>
<polygon fill="#63b8ff" stroke="#63b8ff" points="478.57,-209.18 477.8,-219.75 484.99,-211.97 478.57,-209.18"/>
</a>
</g>
</g>
<!-- Node13&#45;&gt;Node2 -->
<g id="edge19_Node000013_Node000002" class="edge">
<title>Node13&#45;&gt;Node2</title>
<g id="a_edge19_Node000013_Node000002"><a xlink:title=" ">
<path fill="none" stroke="#63b8ff" d="M292.57,-264.9C298.38,-241.5 308.89,-200.12 319,-165 322.59,-152.55 327.16,-138.28 330.08,-129.33"/>
<polygon fill="#63b8ff" stroke="#63b8ff" points="289.11,-264.29 290.11,-274.84 295.91,-265.97 289.11,-264.29"/>
</a>
</g>
</g>
<!-- Node14&#45;&gt;Node12 -->
<g id="edge22_Node000014_Node000012" class="edge">
<title>Node14&#45;&gt;Node12</title>
<g id="a_edge22_Node000014_Node000012"><a xlink:title=" ">
<path fill="none" stroke="#63b8ff" d="M475.29,-264.66C474.96,-255.93 474.58,-245.99 474.32,-239.09"/>
<polygon fill="#63b8ff" stroke="#63b8ff" points="471.8,-264.89 475.67,-274.75 478.79,-264.62 471.8,-264.89"/>
</a>
</g>
</g>
<!-- Node15&#45;&gt;Node2 -->
<g id="edge24_Node000015_Node000002" class="edge">
<title>Node15&#45;&gt;Node2</title>
<g id="a_edge24_Node000015_Node000002"><a xlink:title=" ">
<path fill="none" stroke="#63b8ff" d="M390.81,-214.04C408.09,-201.61 426.72,-182.91 416,-165 404.41,-145.64 381.2,-134.22 362.26,-127.81"/>
<polygon fill="#63b8ff" stroke="#63b8ff" points="388.39,-211.45 382.05,-219.93 392.3,-217.25 388.39,-211.45"/>
</a>
</g>
</g>
<!-- Node16 -->
<g id="Node000016" class="node">
<title>Node16</title>
<g id="a_Node000016"><a xlink:href="_lisp_device_8h.html" target="_top" xlink:title=" ">
<polygon fill="white" stroke="#666666" points="406.5,-184 327.5,-184 327.5,-165 406.5,-165 406.5,-184"/>
<text text-anchor="middle" x="367" y="-172" font-family="Helvetica,sans-Serif" font-size="10.00">LispDevice.h</text>
</a>
</g>
</g>
<!-- Node15&#45;&gt;Node16 -->
<g id="edge25_Node000015_Node000016" class="edge">
<title>Node15&#45;&gt;Node16</title>
<g id="a_edge25_Node000015_Node000016"><a xlink:title=" ">
<path fill="none" stroke="#63b8ff" d="M367,-209.66C367,-200.93 367,-190.99 367,-184.09"/>
<polygon fill="#63b8ff" stroke="#63b8ff" points="363.5,-209.75 367,-219.75 370.5,-209.75 363.5,-209.75"/>
</a>
</g>
</g>
<!-- Node16&#45;&gt;Node2 -->
<g id="edge26_Node000016_Node000002" class="edge">
<title>Node16&#45;&gt;Node2</title>
<g id="a_edge26_Node000016_Node000002"><a xlink:title=" ">
<path fill="none" stroke="#63b8ff" d="M355.84,-156.1C350.03,-147.04 343.18,-136.37 338.51,-129.09"/>
<polygon fill="#63b8ff" stroke="#63b8ff" points="353.04,-158.22 361.39,-164.75 358.93,-154.44 353.04,-158.22"/>
</a>
</g>
</g>
</g>
</svg>
