<?xml version="1.0" encoding="UTF-8" standalone="no"?>
<!DOCTYPE svg PUBLIC "-//W3C//DTD SVG 1.1//EN"
 "http://www.w3.org/Graphics/SVG/1.1/DTD/svg11.dtd">
<!-- Generated by graphviz version 2.43.0 (0)
 -->
<!-- Title: LimitedQueue.h Pages: 1 -->
<svg width="903pt" height="412pt"
 viewBox="0.00 0.00 903.00 412.00" xmlns="http://www.w3.org/2000/svg" xmlns:xlink="http://www.w3.org/1999/xlink">
<g id="graph0" class="graph" transform="scale(1 1) rotate(0) translate(4 408)">
<title>LimitedQueue.h</title>
<!-- Node1 -->
<g id="Node000001" class="node">
<title>Node1</title>
<g id="a_Node000001"><a xlink:title=" ">
<polygon fill="#999999" stroke="#666666" points="587.5,-404 493.5,-404 493.5,-385 587.5,-385 587.5,-404"/>
<text text-anchor="middle" x="540.5" y="-392" font-family="Helvetica,sans-Serif" font-size="10.00">LimitedQueue.h</text>
</a>
</g>
</g>
<!-- Node2 -->
<g id="Node000002" class="node">
<title>Node2</title>
<g id="a_Node000002"><a xlink:href="_data_channels_8h.html" target="_top" xlink:title=" ">
<polygon fill="white" stroke="#666666" points="550.5,-349 456.5,-349 456.5,-330 550.5,-330 550.5,-349"/>
<text text-anchor="middle" x="503.5" y="-337" font-family="Helvetica,sans-Serif" font-size="10.00">DataChannels.h</text>
</a>
</g>
</g>
<!-- Node1&#45;&gt;Node2 -->
<g id="edge1_Node000001_Node000002" class="edge">
<title>Node1&#45;&gt;Node2</title>
<g id="a_edge1_Node000001_Node000002"><a xlink:title=" ">
<path fill="none" stroke="#63b8ff" d="M528.55,-376.39C522.19,-367.27 514.63,-356.45 509.5,-349.09"/>
<polygon fill="#63b8ff" stroke="#63b8ff" points="525.8,-378.55 534.39,-384.75 531.54,-374.55 525.8,-378.55"/>
</a>
</g>
</g>
<!-- Node17 -->
<g id="Node000017" class="node">
<title>Node17</title>
<g id="a_Node000017"><a xlink:href="un_lisp_8h.html" target="_top" xlink:title=" ">
<polygon fill="white" stroke="#666666" points="884,-239 827,-239 827,-220 884,-220 884,-239"/>
<text text-anchor="middle" x="855.5" y="-227" font-family="Helvetica,sans-Serif" font-size="10.00">unLisp.h</text>
</a>
</g>
</g>
<!-- Node1&#45;&gt;Node17 -->
<g id="edge21_Node000001_Node000017" class="edge">
<title>Node1&#45;&gt;Node17</title>
<g id="a_edge21_Node000001_Node000017"><a xlink:title=" ">
<path fill="none" stroke="#63b8ff" d="M566.15,-380.23C628.55,-347.94 786.94,-265.98 838.79,-239.15"/>
<polygon fill="#63b8ff" stroke="#63b8ff" points="564.27,-377.26 556.99,-384.97 567.48,-383.48 564.27,-377.26"/>
</a>
</g>
</g>
<!-- Node3 -->
<g id="Node000003" class="node">
<title>Node3</title>
<g id="a_Node000003"><a xlink:href="_data_channels_8cpp.html" target="_top" xlink:title=" ">
<polygon fill="white" stroke="#666666" points="450,-294 345,-294 345,-275 450,-275 450,-294"/>
<text text-anchor="middle" x="397.5" y="-282" font-family="Helvetica,sans-Serif" font-size="10.00">DataChannels.cpp</text>
</a>
</g>
</g>
<!-- Node2&#45;&gt;Node3 -->
<g id="edge2_Node000002_Node000003" class="edge">
<title>Node2&#45;&gt;Node3</title>
<g id="a_edge2_Node000002_Node000003"><a xlink:title=" ">
<path fill="none" stroke="#63b8ff" d="M477.5,-325.5C458,-315.75 431.85,-302.68 414.84,-294.17"/>
<polygon fill="#63b8ff" stroke="#63b8ff" points="475.96,-328.64 486.47,-329.98 479.09,-322.38 475.96,-328.64"/>
</a>
</g>
</g>
<!-- Node4 -->
<g id="Node000004" class="node">
<title>Node4</title>
<g id="a_Node000004"><a xlink:href="_event_bus_8h.html" target="_top" xlink:title=" ">
<polygon fill="white" stroke="#666666" points="539,-294 468,-294 468,-275 539,-275 539,-294"/>
<text text-anchor="middle" x="503.5" y="-282" font-family="Helvetica,sans-Serif" font-size="10.00">EventBus.h</text>
</a>
</g>
</g>
<!-- Node2&#45;&gt;Node4 -->
<g id="edge3_Node000002_Node000004" class="edge">
<title>Node2&#45;&gt;Node4</title>
<g id="a_edge3_Node000002_Node000004"><a xlink:title=" ">
<path fill="none" stroke="#63b8ff" d="M503.5,-319.66C503.5,-310.93 503.5,-300.99 503.5,-294.09"/>
<polygon fill="#63b8ff" stroke="#63b8ff" points="500,-319.75 503.5,-329.75 507,-319.75 500,-319.75"/>
</a>
</g>
</g>
<!-- Node5 -->
<g id="Node000005" class="node">
<title>Node5</title>
<g id="a_Node000005"><a xlink:href="_app_kit_8h.html" target="_top" xlink:title=" ">
<polygon fill="white" stroke="#666666" points="740.5,-129 682.5,-129 682.5,-110 740.5,-110 740.5,-129"/>
<text text-anchor="middle" x="711.5" y="-117" font-family="Helvetica,sans-Serif" font-size="10.00">AppKit.h</text>
</a>
</g>
</g>
<!-- Node4&#45;&gt;Node5 -->
<g id="edge4_Node000004_Node000005" class="edge">
<title>Node4&#45;&gt;Node5</title>
<g id="a_edge4_Node000004_Node000005"><a xlink:title=" ">
<path fill="none" stroke="#63b8ff" d="M548.92,-272.14C592.82,-258.69 657.66,-231.83 692.5,-184 704.83,-167.07 709.23,-142.12 710.75,-129.11"/>
<polygon fill="#63b8ff" stroke="#63b8ff" points="547.67,-268.86 539.06,-275.04 549.64,-275.57 547.67,-268.86"/>
</a>
</g>
</g>
<!-- Node6 -->
<g id="Node000006" class="node">
<title>Node6</title>
<g id="a_Node000006"><a xlink:href="_uniot_8h.html" target="_top" xlink:title="Main API interface for the Uniot IoT platform.">
<polygon fill="white" stroke="#666666" points="609.5,-74 557.5,-74 557.5,-55 609.5,-55 609.5,-74"/>
<text text-anchor="middle" x="583.5" y="-62" font-family="Helvetica,sans-Serif" font-size="10.00">Uniot.h</text>
</a>
</g>
</g>
<!-- Node4&#45;&gt;Node6 -->
<g id="edge20_Node000004_Node000006" class="edge">
<title>Node4&#45;&gt;Node6</title>
<g id="a_edge20_Node000004_Node000006"><a xlink:title=" ">
<path fill="none" stroke="#63b8ff" d="M492.87,-265.58C474.5,-232.02 441.78,-158.7 474.5,-110 492.85,-82.68 531.23,-72.13 557.19,-68.05"/>
<polygon fill="#63b8ff" stroke="#63b8ff" points="490.04,-267.68 498.02,-274.65 496.13,-264.22 490.04,-267.68"/>
</a>
</g>
</g>
<!-- Node8 -->
<g id="Node000008" class="node">
<title>Node8</title>
<g id="a_Node000008"><a xlink:href="_event_bus_8cpp.html" target="_top" xlink:title=" ">
<polygon fill="white" stroke="#666666" points="83,-239 0,-239 0,-220 83,-220 83,-239"/>
<text text-anchor="middle" x="41.5" y="-227" font-family="Helvetica,sans-Serif" font-size="10.00">EventBus.cpp</text>
</a>
</g>
</g>
<!-- Node4&#45;&gt;Node8 -->
<g id="edge7_Node000004_Node000008" class="edge">
<title>Node4&#45;&gt;Node8</title>
<g id="a_edge7_Node000004_Node000008"><a xlink:title=" ">
<path fill="none" stroke="#63b8ff" d="M457.33,-274.96C294.92,-252.15 251.22,-260.01 92.5,-239 89.47,-238.6 86.35,-238.16 83.21,-237.69"/>
<polygon fill="#63b8ff" stroke="#63b8ff" points="457.29,-278.5 467.69,-276.44 458.28,-271.57 457.29,-278.5"/>
</a>
</g>
</g>
<!-- Node9 -->
<g id="Node000009" class="node">
<title>Node9</title>
<g id="a_Node000009"><a xlink:href="_event_emitter_8cpp.html" target="_top" xlink:title=" ">
<polygon fill="white" stroke="#666666" points="201.5,-239 101.5,-239 101.5,-220 201.5,-220 201.5,-239"/>
<text text-anchor="middle" x="151.5" y="-227" font-family="Helvetica,sans-Serif" font-size="10.00">EventEmitter.cpp</text>
</a>
</g>
</g>
<!-- Node4&#45;&gt;Node9 -->
<g id="edge8_Node000004_Node000009" class="edge">
<title>Node4&#45;&gt;Node9</title>
<g id="a_edge8_Node000004_Node000009"><a xlink:title=" ">
<path fill="none" stroke="#63b8ff" d="M457.52,-275C417.03,-268.86 277.67,-248.72 201.61,-237.74"/>
<polygon fill="#63b8ff" stroke="#63b8ff" points="457.24,-278.5 467.66,-276.59 458.32,-271.59 457.24,-278.5"/>
</a>
</g>
</g>
<!-- Node10 -->
<g id="Node000010" class="node">
<title>Node10</title>
<g id="a_Node000010"><a xlink:href="_event_entity_8cpp.html" target="_top" xlink:title=" ">
<polygon fill="white" stroke="#666666" points="311.5,-239 219.5,-239 219.5,-220 311.5,-220 311.5,-239"/>
<text text-anchor="middle" x="265.5" y="-227" font-family="Helvetica,sans-Serif" font-size="10.00">EventEntity.cpp</text>
</a>
</g>
</g>
<!-- Node4&#45;&gt;Node10 -->
<g id="edge9_Node000004_Node000010" class="edge">
<title>Node4&#45;&gt;Node10</title>
<g id="a_edge9_Node000004_Node000010"><a xlink:title=" ">
<path fill="none" stroke="#63b8ff" d="M457.85,-273.33C413.13,-263.37 345.73,-248.37 303.74,-239.02"/>
<polygon fill="#63b8ff" stroke="#63b8ff" points="457.35,-276.81 467.87,-275.57 458.87,-269.98 457.35,-276.81"/>
</a>
</g>
</g>
<!-- Node11 -->
<g id="Node000011" class="node">
<title>Node11</title>
<g id="a_Node000011"><a xlink:href="_event_listener_8cpp.html" target="_top" xlink:title=" ">
<polygon fill="white" stroke="#666666" points="433,-239 330,-239 330,-220 433,-220 433,-239"/>
<text text-anchor="middle" x="381.5" y="-227" font-family="Helvetica,sans-Serif" font-size="10.00">EventListener.cpp</text>
</a>
</g>
</g>
<!-- Node4&#45;&gt;Node11 -->
<g id="edge10_Node000004_Node000011" class="edge">
<title>Node4&#45;&gt;Node11</title>
<g id="a_edge10_Node000004_Node000011"><a xlink:title=" ">
<path fill="none" stroke="#63b8ff" d="M474.49,-270.9C451.96,-261.11 421.3,-247.79 401.46,-239.17"/>
<polygon fill="#63b8ff" stroke="#63b8ff" points="473.33,-274.21 483.9,-274.98 476.12,-267.79 473.33,-274.21"/>
</a>
</g>
</g>
<!-- Node12 -->
<g id="Node000012" class="node">
<title>Node12</title>
<g id="a_Node000012"><a xlink:href="_i_event_bus_connection_kit_8h.html" target="_top" xlink:title="Defines the interface for components that can connect to an EventBus.">
<polygon fill="white" stroke="#666666" points="809,-239 666,-239 666,-220 809,-220 809,-239"/>
<text text-anchor="middle" x="737.5" y="-227" font-family="Helvetica,sans-Serif" font-size="10.00">IEventBusConnectionKit.h</text>
</a>
</g>
</g>
<!-- Node4&#45;&gt;Node12 -->
<g id="edge11_Node000004_Node000012" class="edge">
<title>Node4&#45;&gt;Node12</title>
<g id="a_edge11_Node000004_Node000012"><a xlink:title=" ">
<path fill="none" stroke="#63b8ff" d="M545.93,-272.63C588.06,-262.7 652.14,-248.22 694.48,-239.08"/>
<polygon fill="#63b8ff" stroke="#63b8ff" points="544.9,-269.27 535.98,-274.98 546.52,-276.08 544.9,-269.27"/>
</a>
</g>
</g>
<!-- Node13 -->
<g id="Node000013" class="node">
<title>Node13</title>
<g id="a_Node000013"><a xlink:href="_network_scheduler_8h.html" target="_top" xlink:title="Complete WiFi network management and configuration system.">
<polygon fill="white" stroke="#666666" points="603.5,-239 489.5,-239 489.5,-220 603.5,-220 603.5,-239"/>
<text text-anchor="middle" x="546.5" y="-227" font-family="Helvetica,sans-Serif" font-size="10.00">NetworkScheduler.h</text>
</a>
</g>
</g>
<!-- Node4&#45;&gt;Node13 -->
<g id="edge14_Node000004_Node000013" class="edge">
<title>Node4&#45;&gt;Node13</title>
<g id="a_edge14_Node000004_Node000013"><a xlink:title=" ">
<path fill="none" stroke="#63b8ff" d="M516.92,-266.96C524.41,-257.72 533.44,-246.6 539.53,-239.09"/>
<polygon fill="#63b8ff" stroke="#63b8ff" points="514.18,-264.78 510.6,-274.75 519.62,-269.19 514.18,-264.78"/>
</a>
</g>
</g>
<!-- Node5&#45;&gt;Node6 -->
<g id="edge5_Node000005_Node000006" class="edge">
<title>Node5&#45;&gt;Node6</title>
<g id="a_edge5_Node000005_Node000006"><a xlink:title=" ">
<path fill="none" stroke="#63b8ff" d="M681.38,-106.03C657.71,-96.23 625.35,-82.83 604.44,-74.17"/>
<polygon fill="#63b8ff" stroke="#63b8ff" points="680.36,-109.39 690.93,-109.98 683.03,-102.93 680.36,-109.39"/>
</a>
</g>
</g>
<!-- Node7 -->
<g id="Node000007" class="node">
<title>Node7</title>
<g id="a_Node000007"><a xlink:href="_uniot_8cpp.html" target="_top" xlink:title=" ">
<polygon fill="white" stroke="#666666" points="615,-19 552,-19 552,0 615,0 615,-19"/>
<text text-anchor="middle" x="583.5" y="-7" font-family="Helvetica,sans-Serif" font-size="10.00">Uniot.cpp</text>
</a>
</g>
</g>
<!-- Node6&#45;&gt;Node7 -->
<g id="edge6_Node000006_Node000007" class="edge">
<title>Node6&#45;&gt;Node7</title>
<g id="a_edge6_Node000006_Node000007"><a xlink:title=" ">
<path fill="none" stroke="#63b8ff" d="M583.5,-44.66C583.5,-35.93 583.5,-25.99 583.5,-19.09"/>
<polygon fill="#63b8ff" stroke="#63b8ff" points="580,-44.75 583.5,-54.75 587,-44.75 580,-44.75"/>
</a>
</g>
</g>
<!-- Node12&#45;&gt;Node4 -->
<g id="edge13_Node000012_Node000004" class="edge">
<title>Node12&#45;&gt;Node4</title>
<g id="a_edge13_Node000012_Node000004"><a xlink:title=" ">
<path fill="none" stroke="#63b8ff" d="M694.78,-241.44C650.09,-251.97 580.92,-267.57 539.08,-276.52"/>
<polygon fill="#63b8ff" stroke="#63b8ff" points="695.82,-244.79 704.75,-239.08 694.21,-237.98 695.82,-244.79"/>
</a>
</g>
</g>
<!-- Node12&#45;&gt;Node5 -->
<g id="edge12_Node000012_Node000005" class="edge">
<title>Node12&#45;&gt;Node5</title>
<g id="a_edge12_Node000012_Node000005"><a xlink:title=" ">
<path fill="none" stroke="#63b8ff" d="M734.52,-209.56C732.38,-196.87 729.22,-179.83 725.5,-165 722.35,-152.43 717.67,-138.19 714.6,-129.28"/>
<polygon fill="#63b8ff" stroke="#63b8ff" points="731.13,-210.49 736.19,-219.8 738.04,-209.37 731.13,-210.49"/>
</a>
</g>
</g>
<!-- Node14 -->
<g id="Node000014" class="node">
<title>Node14</title>
<g id="a_Node000014"><a xlink:href="_m_q_t_t_kit_8h.html" target="_top" xlink:title=" ">
<polygon fill="white" stroke="#666666" points="551.5,-184 483.5,-184 483.5,-165 551.5,-165 551.5,-184"/>
<text text-anchor="middle" x="517.5" y="-172" font-family="Helvetica,sans-Serif" font-size="10.00">MQTTKit.h</text>
</a>
</g>
</g>
<!-- Node13&#45;&gt;Node14 -->
<g id="edge15_Node000013_Node000014" class="edge">
<title>Node13&#45;&gt;Node14</title>
<g id="a_edge15_Node000013_Node000014"><a xlink:title=" ">
<path fill="none" stroke="#63b8ff" d="M536.82,-210.82C531.9,-201.82 526.14,-191.29 522.2,-184.09"/>
<polygon fill="#63b8ff" stroke="#63b8ff" points="533.84,-212.66 541.71,-219.75 539.98,-209.3 533.84,-212.66"/>
</a>
</g>
</g>
<!-- Node16 -->
<g id="Node000016" class="node">
<title>Node16</title>
<g id="a_Node000016"><a xlink:href="_network_controller_8h.html" target="_top" xlink:title="High&#45;level network management controller with user interface.">
<polygon fill="white" stroke="#666666" points="683.5,-184 569.5,-184 569.5,-165 683.5,-165 683.5,-184"/>
<text text-anchor="middle" x="626.5" y="-172" font-family="Helvetica,sans-Serif" font-size="10.00">NetworkController.h</text>
</a>
</g>
</g>
<!-- Node13&#45;&gt;Node16 -->
<g id="edge18_Node000013_Node000016" class="edge">
<title>Node13&#45;&gt;Node16</title>
<g id="a_edge18_Node000013_Node000016"><a xlink:title=" ">
<path fill="none" stroke="#63b8ff" d="M567.75,-214.42C582.26,-204.81 601.04,-192.37 613.41,-184.17"/>
<polygon fill="#63b8ff" stroke="#63b8ff" points="565.76,-211.54 559.35,-219.98 569.62,-217.38 565.76,-211.54"/>
</a>
</g>
</g>
<!-- Node14&#45;&gt;Node5 -->
<g id="edge16_Node000014_Node000005" class="edge">
<title>Node14&#45;&gt;Node5</title>
<g id="a_edge16_Node000014_Node000005"><a xlink:title=" ">
<path fill="none" stroke="#63b8ff" d="M558.67,-162.25C595.79,-152.11 649.44,-137.45 682.31,-128.47"/>
<polygon fill="#63b8ff" stroke="#63b8ff" points="557.39,-158.97 548.67,-164.98 559.24,-165.73 557.39,-158.97"/>
</a>
</g>
</g>
<!-- Node15 -->
<g id="Node000015" class="node">
<title>Node15</title>
<g id="a_Node000015"><a xlink:href="_m_q_t_t_device_8cpp.html" target="_top" xlink:title=" ">
<polygon fill="white" stroke="#666666" points="583,-129 484,-129 484,-110 583,-110 583,-129"/>
<text text-anchor="middle" x="533.5" y="-117" font-family="Helvetica,sans-Serif" font-size="10.00">MQTTDevice.cpp</text>
</a>
</g>
</g>
<!-- Node14&#45;&gt;Node15 -->
<g id="edge17_Node000014_Node000015" class="edge">
<title>Node14&#45;&gt;Node15</title>
<g id="a_edge17_Node000014_Node000015"><a xlink:title=" ">
<path fill="none" stroke="#63b8ff" d="M523.1,-154.95C525.76,-146.15 528.8,-136.06 530.91,-129.09"/>
<polygon fill="#63b8ff" stroke="#63b8ff" points="519.68,-154.16 520.14,-164.75 526.38,-156.19 519.68,-154.16"/>
</a>
</g>
</g>
<!-- Node16&#45;&gt;Node5 -->
<g id="edge19_Node000016_Node000005" class="edge">
<title>Node16&#45;&gt;Node5</title>
<g id="a_edge19_Node000016_Node000005"><a xlink:title=" ">
<path fill="none" stroke="#63b8ff" d="M649.07,-159.42C664.5,-149.81 684.45,-137.37 697.59,-129.17"/>
<polygon fill="#63b8ff" stroke="#63b8ff" points="646.79,-156.72 640.16,-164.98 650.49,-162.66 646.79,-156.72"/>
</a>
</g>
</g>
<!-- Node17&#45;&gt;Node5 -->
<g id="edge22_Node000017_Node000005" class="edge">
<title>Node17&#45;&gt;Node5</title>
<g id="a_edge22_Node000017_Node000005"><a xlink:title=" ">
<path fill="none" stroke="#63b8ff" d="M835.5,-213.5C804.93,-190.57 747.53,-147.52 723.04,-129.16"/>
<polygon fill="#63b8ff" stroke="#63b8ff" points="833.62,-216.46 843.72,-219.66 837.82,-210.86 833.62,-216.46"/>
</a>
</g>
</g>
<!-- Node18 -->
<g id="Node000018" class="node">
<title>Node18</title>
<g id="a_Node000018"><a xlink:href="_lisp_device_8h.html" target="_top" xlink:title=" ">
<polygon fill="white" stroke="#666666" points="895,-184 816,-184 816,-165 895,-165 895,-184"/>
<text text-anchor="middle" x="855.5" y="-172" font-family="Helvetica,sans-Serif" font-size="10.00">LispDevice.h</text>
</a>
</g>
</g>
<!-- Node17&#45;&gt;Node18 -->
<g id="edge23_Node000017_Node000018" class="edge">
<title>Node17&#45;&gt;Node18</title>
<g id="a_edge23_Node000017_Node000018"><a xlink:title=" ">
<path fill="none" stroke="#63b8ff" d="M855.5,-209.66C855.5,-200.93 855.5,-190.99 855.5,-184.09"/>
<polygon fill="#63b8ff" stroke="#63b8ff" points="852,-209.75 855.5,-219.75 859,-209.75 852,-209.75"/>
</a>
</g>
</g>
<!-- Node18&#45;&gt;Node5 -->
<g id="edge24_Node000018_Node000005" class="edge">
<title>Node18&#45;&gt;Node5</title>
<g id="a_edge24_Node000018_Node000005"><a xlink:title=" ">
<path fill="none" stroke="#63b8ff" d="M822.68,-161.42C795.97,-151.59 758.9,-137.95 735.06,-129.17"/>
<polygon fill="#63b8ff" stroke="#63b8ff" points="821.77,-164.82 832.36,-164.98 824.19,-158.25 821.77,-164.82"/>
</a>
</g>
</g>
</g>
</svg>
