<?xml version="1.0" encoding="UTF-8" standalone="no"?>
<!DOCTYPE svg PUBLIC "-//W3C//DTD SVG 1.1//EN"
 "http://www.w3.org/Graphics/SVG/1.1/DTD/svg11.dtd">
<!-- Generated by graphviz version 2.43.0 (0)
 -->
<!-- Title: LispPrimitives.h Pages: 1 -->
<svg width="1563pt" height="522pt"
 viewBox="0.00 0.00 1563.00 522.00" xmlns="http://www.w3.org/2000/svg" xmlns:xlink="http://www.w3.org/1999/xlink">
<g id="graph0" class="graph" transform="scale(1 1) rotate(0) translate(4 518)">
<title>LispPrimitives.h</title>
<!-- Node1 -->
<g id="Node000001" class="node">
<title>Node1</title>
<g id="a_Node000001"><a xlink:title=" ">
<polygon fill="#999999" stroke="#666666" points="1288.5,-514 1193.5,-514 1193.5,-495 1288.5,-495 1288.5,-514"/>
<text text-anchor="middle" x="1241" y="-502" font-family="Helvetica,sans-Serif" font-size="10.00">LispPrimitives.h</text>
</a>
</g>
</g>
<!-- Node2 -->
<g id="Node000002" class="node">
<title>Node2</title>
<g id="a_Node000002"><a xlink:href="_button_8h.html" target="_top" xlink:title=" ">
<polygon fill="white" stroke="#666666" points="569,-239 511,-239 511,-220 569,-220 569,-239"/>
<text text-anchor="middle" x="540" y="-227" font-family="Helvetica,sans-Serif" font-size="10.00">Button.h</text>
</a>
</g>
</g>
<!-- Node1&#45;&gt;Node2 -->
<g id="edge1_Node000001_Node000002" class="edge">
<title>Node1&#45;&gt;Node2</title>
<g id="a_edge1_Node000001_Node000002"><a xlink:title=" ">
<path fill="none" stroke="#63b8ff" d="M1193.42,-502.48C1074.91,-498.65 776,-480.55 776,-395.5 776,-395.5 776,-395.5 776,-338.5 776,-295.75 646.33,-257.04 579.23,-239.86"/>
<polygon fill="#63b8ff" stroke="#63b8ff" points="579.96,-236.44 569.41,-237.39 578.25,-243.23 579.96,-236.44"/>
</a>
</g>
</g>
<!-- Node23 -->
<g id="Node000023" class="node">
<title>Node23</title>
<g id="a_Node000023"><a xlink:href="_default_primitives_8h.html" target="_top" xlink:title="Defines string constants for Lisp primitive function names.">
<polygon fill="white" stroke="#666666" points="1526.5,-239 1415.5,-239 1415.5,-220 1526.5,-220 1526.5,-239"/>
<text text-anchor="middle" x="1471" y="-227" font-family="Helvetica,sans-Serif" font-size="10.00">DefaultPrimitives.h</text>
</a>
</g>
</g>
<!-- Node1&#45;&gt;Node23 -->
<g id="edge27_Node000001_Node000023" class="edge">
<title>Node1&#45;&gt;Node23</title>
<g id="a_edge27_Node000001_Node000023"><a xlink:title=" ">
<path fill="none" stroke="#63b8ff" d="M1288.68,-500.84C1353.65,-494.35 1462,-472.05 1462,-395.5 1462,-395.5 1462,-395.5 1462,-338.5 1462,-307.08 1465.83,-270.7 1468.49,-249.2"/>
<polygon fill="#63b8ff" stroke="#63b8ff" points="1471.98,-249.52 1469.79,-239.16 1465.04,-248.63 1471.98,-249.52"/>
</a>
</g>
</g>
<!-- Node24 -->
<g id="Node000024" class="node">
<title>Node24</title>
<g id="a_Node000024"><a xlink:href="_lisp_helper_8h.html" target="_top" xlink:title=" ">
<polygon fill="white" stroke="#666666" points="1198.5,-404 1121.5,-404 1121.5,-385 1198.5,-385 1198.5,-404"/>
<text text-anchor="middle" x="1160" y="-392" font-family="Helvetica,sans-Serif" font-size="10.00">LispHelper.h</text>
</a>
</g>
</g>
<!-- Node1&#45;&gt;Node24 -->
<g id="edge28_Node000001_Node000024" class="edge">
<title>Node1&#45;&gt;Node24</title>
<g id="a_edge28_Node000001_Node000024"><a xlink:title=" ">
<path fill="none" stroke="#63b8ff" d="M1234.37,-494.66C1220.9,-476.69 1190.11,-435.64 1172.66,-412.38"/>
<polygon fill="#63b8ff" stroke="#63b8ff" points="1175.29,-410.06 1166.49,-404.16 1169.69,-414.26 1175.29,-410.06"/>
</a>
</g>
</g>
<!-- Node26 -->
<g id="Node000026" class="node">
<title>Node26</title>
<g id="a_Node000026"><a xlink:href="_primitive_expeditor_8h.html" target="_top" xlink:title=" ">
<polygon fill="white" stroke="#666666" points="1342,-459 1226,-459 1226,-440 1342,-440 1342,-459"/>
<text text-anchor="middle" x="1284" y="-447" font-family="Helvetica,sans-Serif" font-size="10.00">PrimitiveExpeditor.h</text>
</a>
</g>
</g>
<!-- Node1&#45;&gt;Node26 -->
<g id="edge30_Node000001_Node000026" class="edge">
<title>Node1&#45;&gt;Node26</title>
<g id="a_edge30_Node000001_Node000026"><a xlink:title=" ">
<path fill="none" stroke="#63b8ff" d="M1248.1,-494.75C1254.17,-487.26 1263.09,-476.28 1270.51,-467.13"/>
<polygon fill="#63b8ff" stroke="#63b8ff" points="1273.45,-469.06 1277.03,-459.09 1268.01,-464.65 1273.45,-469.06"/>
</a>
</g>
</g>
<!-- Node3 -->
<g id="Node000003" class="node">
<title>Node3</title>
<g id="a_Node000003"><a xlink:href="_i_executor_8h.html" target="_top" xlink:title=" ">
<polygon fill="white" stroke="#666666" points="116,-129 46,-129 46,-110 116,-110 116,-129"/>
<text text-anchor="middle" x="81" y="-117" font-family="Helvetica,sans-Serif" font-size="10.00">IExecutor.h</text>
</a>
</g>
</g>
<!-- Node2&#45;&gt;Node3 -->
<g id="edge2_Node000002_Node000003" class="edge">
<title>Node2&#45;&gt;Node3</title>
<g id="a_edge2_Node000002_Node000003"><a xlink:title=" ">
<path fill="none" stroke="#63b8ff" d="M510.94,-221.66C433.16,-203.36 219.79,-153.16 126.11,-131.11"/>
<polygon fill="#63b8ff" stroke="#63b8ff" points="126.63,-127.64 116.09,-128.76 125.02,-134.45 126.63,-127.64"/>
</a>
</g>
</g>
<!-- Node4 -->
<g id="Node000004" class="node">
<title>Node4</title>
<g id="a_Node000004"><a xlink:href="_object_register_record_8h.html" target="_top" xlink:title=" ">
<polygon fill="white" stroke="#666666" points="1216.5,-184 1085.5,-184 1085.5,-165 1216.5,-165 1216.5,-184"/>
<text text-anchor="middle" x="1151" y="-172" font-family="Helvetica,sans-Serif" font-size="10.00">ObjectRegisterRecord.h</text>
</a>
</g>
</g>
<!-- Node2&#45;&gt;Node4 -->
<g id="edge3_Node000002_Node000004" class="edge">
<title>Node2&#45;&gt;Node4</title>
<g id="a_edge3_Node000002_Node000004"><a xlink:title=" ">
<path fill="none" stroke="#63b8ff" d="M569.18,-225.68C586.79,-223.99 609.68,-221.83 630,-220 788.22,-205.77 973.57,-190.2 1075.04,-181.77"/>
<polygon fill="#63b8ff" stroke="#63b8ff" points="1075.51,-185.25 1085.19,-180.93 1074.93,-178.27 1075.51,-185.25"/>
</a>
</g>
</g>
<!-- Node10 -->
<g id="Node000010" class="node">
<title>Node10</title>
<g id="a_Node000010"><a xlink:href="_task_scheduler_8h.html" target="_top" xlink:title=" ">
<polygon fill="white" stroke="#666666" points="492.5,-184 397.5,-184 397.5,-165 492.5,-165 492.5,-184"/>
<text text-anchor="middle" x="445" y="-172" font-family="Helvetica,sans-Serif" font-size="10.00">TaskScheduler.h</text>
</a>
</g>
</g>
<!-- Node2&#45;&gt;Node10 -->
<g id="edge10_Node000002_Node000010" class="edge">
<title>Node2&#45;&gt;Node10</title>
<g id="a_edge10_Node000002_Node000010"><a xlink:title=" ">
<path fill="none" stroke="#63b8ff" d="M524.74,-219.98C509.87,-211.69 487.02,-198.94 469.58,-189.22"/>
<polygon fill="#63b8ff" stroke="#63b8ff" points="470.98,-185.99 460.54,-184.17 467.57,-192.1 470.98,-185.99"/>
</a>
</g>
</g>
<!-- Node5 -->
<g id="Node000005" class="node">
<title>Node5</title>
<g id="a_Node000005"><a xlink:href="_clear_queue_8h.html" target="_top" xlink:title=" ">
<polygon fill="white" stroke="#666666" points="962.5,-74 879.5,-74 879.5,-55 962.5,-55 962.5,-74"/>
<text text-anchor="middle" x="921" y="-62" font-family="Helvetica,sans-Serif" font-size="10.00">ClearQueue.h</text>
</a>
</g>
</g>
<!-- Node4&#45;&gt;Node5 -->
<g id="edge4_Node000004_Node000005" class="edge">
<title>Node4&#45;&gt;Node5</title>
<g id="a_edge4_Node000004_Node000005"><a xlink:title=" ">
<path fill="none" stroke="#63b8ff" d="M1151.03,-164.66C1150.58,-150.87 1147.58,-124.34 1132,-110 1109.23,-89.04 1027.85,-76.59 973.07,-70.4"/>
<polygon fill="#63b8ff" stroke="#63b8ff" points="973.16,-66.89 962.84,-69.28 972.4,-73.85 973.16,-66.89"/>
</a>
</g>
</g>
<!-- Node8 -->
<g id="Node000008" class="node">
<title>Node8</title>
<g id="a_Node000008"><a xlink:href="_logger_8h.html" target="_top" xlink:title=" ">
<polygon fill="white" stroke="#666666" points="1035,-129 977,-129 977,-110 1035,-110 1035,-129"/>
<text text-anchor="middle" x="1006" y="-117" font-family="Helvetica,sans-Serif" font-size="10.00">Logger.h</text>
</a>
</g>
</g>
<!-- Node4&#45;&gt;Node8 -->
<g id="edge7_Node000004_Node000008" class="edge">
<title>Node4&#45;&gt;Node8</title>
<g id="a_edge7_Node000004_Node000008"><a xlink:title=" ">
<path fill="none" stroke="#63b8ff" d="M1127.7,-164.98C1103.75,-156.23 1066.22,-142.51 1039.17,-132.62"/>
<polygon fill="#63b8ff" stroke="#63b8ff" points="1040.31,-129.32 1029.72,-129.17 1037.91,-135.89 1040.31,-129.32"/>
</a>
</g>
</g>
<!-- Node9 -->
<g id="Node000009" class="node">
<title>Node9</title>
<g id="a_Node000009"><a xlink:href="_type_id_8h.html" target="_top" xlink:title=" ">
<polygon fill="white" stroke="#666666" points="1236.5,-129 1179.5,-129 1179.5,-110 1236.5,-110 1236.5,-129"/>
<text text-anchor="middle" x="1208" y="-117" font-family="Helvetica,sans-Serif" font-size="10.00">TypeId.h</text>
</a>
</g>
</g>
<!-- Node4&#45;&gt;Node9 -->
<g id="edge9_Node000004_Node000009" class="edge">
<title>Node4&#45;&gt;Node9</title>
<g id="a_edge9_Node000004_Node000009"><a xlink:title=" ">
<path fill="none" stroke="#63b8ff" d="M1160.16,-164.98C1168.5,-157.23 1181.03,-145.58 1191.18,-136.14"/>
<polygon fill="#63b8ff" stroke="#63b8ff" points="1193.74,-138.54 1198.68,-129.17 1188.97,-133.42 1193.74,-138.54"/>
</a>
</g>
</g>
<!-- Node6 -->
<g id="Node000006" class="node">
<title>Node6</title>
<g id="a_Node000006"><a xlink:title=" ">
<polygon fill="#e0e0e0" stroke="#999999" points="1362.5,-19 1299.5,-19 1299.5,0 1362.5,0 1362.5,-19"/>
<text text-anchor="middle" x="1331" y="-7" font-family="Helvetica,sans-Serif" font-size="10.00">Arduino.h</text>
</a>
</g>
</g>
<!-- Node5&#45;&gt;Node6 -->
<g id="edge5_Node000005_Node000006" class="edge">
<title>Node5&#45;&gt;Node6</title>
<g id="a_edge5_Node000005_Node000006"><a xlink:title=" ">
<path fill="none" stroke="#63b8ff" d="M962.57,-58.13C1041.18,-47.96 1210.8,-26.04 1289.42,-15.88"/>
<polygon fill="#63b8ff" stroke="#63b8ff" points="1289.97,-19.33 1299.44,-14.58 1289.08,-12.39 1289.97,-19.33"/>
</a>
</g>
</g>
<!-- Node7 -->
<g id="Node000007" class="node">
<title>Node7</title>
<g id="a_Node000007"><a xlink:title=" ">
<polygon fill="#e0e0e0" stroke="#999999" points="831.5,-19 766.5,-19 766.5,0 831.5,0 831.5,-19"/>
<text text-anchor="middle" x="799" y="-7" font-family="Helvetica,sans-Serif" font-size="10.00">functional</text>
</a>
</g>
</g>
<!-- Node5&#45;&gt;Node7 -->
<g id="edge6_Node000005_Node000007" class="edge">
<title>Node5&#45;&gt;Node7</title>
<g id="a_edge6_Node000005_Node000007"><a xlink:title=" ">
<path fill="none" stroke="#63b8ff" d="M901.4,-54.98C881.68,-46.42 851.05,-33.11 828.42,-23.28"/>
<polygon fill="#63b8ff" stroke="#63b8ff" points="829.52,-19.94 818.96,-19.17 826.74,-26.37 829.52,-19.94"/>
</a>
</g>
</g>
<!-- Node8&#45;&gt;Node6 -->
<g id="edge8_Node000008_Node000006" class="edge">
<title>Node8&#45;&gt;Node6</title>
<g id="a_edge8_Node000008_Node000006"><a xlink:title=" ">
<path fill="none" stroke="#63b8ff" d="M1016.53,-109.81C1033.86,-95.98 1069.95,-69.09 1105,-55 1166.4,-30.31 1242.85,-18.94 1289.25,-14"/>
<polygon fill="#63b8ff" stroke="#63b8ff" points="1289.64,-17.47 1299.24,-12.98 1288.93,-10.51 1289.64,-17.47"/>
</a>
</g>
</g>
<!-- Node10&#45;&gt;Node3 -->
<g id="edge21_Node000010_Node000003" class="edge">
<title>Node10&#45;&gt;Node3</title>
<g id="a_edge21_Node000010_Node000003"><a xlink:title=" ">
<path fill="none" stroke="#63b8ff" d="M397.33,-167.58C336.83,-159.9 229.02,-145.68 126.27,-128.97"/>
<polygon fill="#63b8ff" stroke="#63b8ff" points="126.78,-125.5 116.34,-127.34 125.65,-132.41 126.78,-125.5"/>
</a>
</g>
</g>
<!-- Node10&#45;&gt;Node7 -->
<g id="edge25_Node000010_Node000007" class="edge">
<title>Node10&#45;&gt;Node7</title>
<g id="a_edge25_Node000010_Node000007"><a xlink:title=" ">
<path fill="none" stroke="#63b8ff" d="M446.04,-164.91C449.23,-142.68 461,-83.04 498,-55 537.78,-24.86 682.82,-14.97 756.07,-11.86"/>
<polygon fill="#63b8ff" stroke="#63b8ff" points="756.48,-15.34 766.33,-11.44 756.2,-8.35 756.48,-15.34"/>
</a>
</g>
</g>
<!-- Node11 -->
<g id="Node000011" class="node">
<title>Node11</title>
<g id="a_Node000011"><a xlink:href="_e_s_p8266_task_8h.html" target="_top" xlink:title=" ">
<polygon fill="white" stroke="#666666" points="386.5,-129 297.5,-129 297.5,-110 386.5,-110 386.5,-129"/>
<text text-anchor="middle" x="342" y="-117" font-family="Helvetica,sans-Serif" font-size="10.00">ESP8266Task.h</text>
</a>
</g>
</g>
<!-- Node10&#45;&gt;Node11 -->
<g id="edge11_Node000010_Node000011" class="edge">
<title>Node10&#45;&gt;Node11</title>
<g id="a_edge11_Node000010_Node000011"><a xlink:title=" ">
<path fill="none" stroke="#63b8ff" d="M428.45,-164.98C412.11,-156.57 386.87,-143.59 367.87,-133.81"/>
<polygon fill="#63b8ff" stroke="#63b8ff" points="369.34,-130.63 358.85,-129.17 366.14,-136.86 369.34,-130.63"/>
</a>
</g>
</g>
<!-- Node18 -->
<g id="Node000018" class="node">
<title>Node18</title>
<g id="a_Node000018"><a xlink:href="_common_8h.html" target="_top" xlink:title=" ">
<polygon fill="white" stroke="#666666" points="771,-129 701,-129 701,-110 771,-110 771,-129"/>
<text text-anchor="middle" x="736" y="-117" font-family="Helvetica,sans-Serif" font-size="10.00">Common.h</text>
</a>
</g>
</g>
<!-- Node10&#45;&gt;Node18 -->
<g id="edge18_Node000010_Node000018" class="edge">
<title>Node10&#45;&gt;Node18</title>
<g id="a_edge18_Node000010_Node000018"><a xlink:title=" ">
<path fill="none" stroke="#63b8ff" d="M492.85,-165.06C540.49,-156.62 615.99,-143.13 690.86,-129.19"/>
<polygon fill="#63b8ff" stroke="#63b8ff" points="691.75,-132.59 700.94,-127.31 690.47,-125.71 691.75,-132.59"/>
</a>
</g>
</g>
<!-- Node19 -->
<g id="Node000019" class="node">
<title>Node19</title>
<g id="a_Node000019"><a xlink:title=" ">
<polygon fill="#e0e0e0" stroke="#999999" points="565,-74 507,-74 507,-55 565,-55 565,-74"/>
<text text-anchor="middle" x="536" y="-62" font-family="Helvetica,sans-Serif" font-size="10.00">memory</text>
</a>
</g>
</g>
<!-- Node10&#45;&gt;Node19 -->
<g id="edge26_Node000010_Node000019" class="edge">
<title>Node10&#45;&gt;Node19</title>
<g id="a_edge26_Node000010_Node000019"><a xlink:title=" ">
<path fill="none" stroke="#63b8ff" d="M452.45,-164.66C467.65,-146.61 502.48,-105.28 522.03,-82.08"/>
<polygon fill="#63b8ff" stroke="#63b8ff" points="524.94,-84.06 528.7,-74.16 519.58,-79.55 524.94,-84.06"/>
</a>
</g>
</g>
<!-- Node21 -->
<g id="Node000021" class="node">
<title>Node21</title>
<g id="a_Node000021"><a xlink:href="_i_scheduler_connection_kit_8h.html" target="_top" xlink:title=" ">
<polygon fill="white" stroke="#666666" points="279.5,-129 134.5,-129 134.5,-110 279.5,-110 279.5,-129"/>
<text text-anchor="middle" x="207" y="-117" font-family="Helvetica,sans-Serif" font-size="10.00">ISchedulerConnectionKit.h</text>
</a>
</g>
</g>
<!-- Node10&#45;&gt;Node21 -->
<g id="edge22_Node000010_Node000021" class="edge">
<title>Node10&#45;&gt;Node21</title>
<g id="a_edge22_Node000010_Node000021"><a xlink:title=" ">
<path fill="none" stroke="#63b8ff" d="M406.76,-164.98C365.59,-155.82 300.01,-141.21 255.3,-131.26"/>
<polygon fill="#63b8ff" stroke="#63b8ff" points="256.06,-127.84 245.54,-129.08 254.54,-134.67 256.06,-127.84"/>
</a>
</g>
</g>
<!-- Node22 -->
<g id="Node000022" class="node">
<title>Node22</title>
<g id="a_Node000022"><a xlink:href="_iterable_queue_8h.html" target="_top" xlink:title=" ">
<polygon fill="white" stroke="#666666" points="682.5,-129 587.5,-129 587.5,-110 682.5,-110 682.5,-129"/>
<text text-anchor="middle" x="635" y="-117" font-family="Helvetica,sans-Serif" font-size="10.00">IterableQueue.h</text>
</a>
</g>
</g>
<!-- Node10&#45;&gt;Node22 -->
<g id="edge23_Node000010_Node000022" class="edge">
<title>Node10&#45;&gt;Node22</title>
<g id="a_edge23_Node000010_Node000022"><a xlink:title=" ">
<path fill="none" stroke="#63b8ff" d="M475.53,-164.98C507.7,-156.01 558.56,-141.82 594.17,-131.89"/>
<polygon fill="#63b8ff" stroke="#63b8ff" points="595.54,-135.14 604.23,-129.08 593.66,-128.4 595.54,-135.14"/>
</a>
</g>
</g>
<!-- Node12 -->
<g id="Node000012" class="node">
<title>Node12</title>
<g id="a_Node000012"><a xlink:title=" ">
<polygon fill="#e0e0e0" stroke="#999999" points="206,-74 150,-74 150,-55 206,-55 206,-74"/>
<text text-anchor="middle" x="178" y="-62" font-family="Helvetica,sans-Serif" font-size="10.00">stddef.h</text>
</a>
</g>
</g>
<!-- Node11&#45;&gt;Node12 -->
<g id="edge12_Node000011_Node000012" class="edge">
<title>Node11&#45;&gt;Node12</title>
<g id="a_edge12_Node000011_Node000012"><a xlink:title=" ">
<path fill="none" stroke="#63b8ff" d="M315.65,-109.98C288.24,-101.13 245.11,-87.19 214.44,-77.28"/>
<polygon fill="#63b8ff" stroke="#63b8ff" points="215.15,-73.83 204.56,-74.08 213,-80.49 215.15,-73.83"/>
</a>
</g>
</g>
<!-- Node13 -->
<g id="Node000013" class="node">
<title>Node13</title>
<g id="a_Node000013"><a xlink:title=" ">
<polygon fill="#e0e0e0" stroke="#999999" points="277.5,-74 224.5,-74 224.5,-55 277.5,-55 277.5,-74"/>
<text text-anchor="middle" x="251" y="-62" font-family="Helvetica,sans-Serif" font-size="10.00">stdint.h</text>
</a>
</g>
</g>
<!-- Node11&#45;&gt;Node13 -->
<g id="edge13_Node000011_Node000013" class="edge">
<title>Node11&#45;&gt;Node13</title>
<g id="a_edge13_Node000011_Node000013"><a xlink:title=" ">
<path fill="none" stroke="#63b8ff" d="M327.38,-109.98C313.14,-101.69 291.25,-88.94 274.55,-79.22"/>
<polygon fill="#63b8ff" stroke="#63b8ff" points="276.29,-76.18 265.89,-74.17 272.77,-82.23 276.29,-76.18"/>
</a>
</g>
</g>
<!-- Node14 -->
<g id="Node000014" class="node">
<title>Node14</title>
<g id="a_Node000014"><a xlink:title=" ">
<polygon fill="#e0e0e0" stroke="#999999" points="358.5,-74 295.5,-74 295.5,-55 358.5,-55 358.5,-74"/>
<text text-anchor="middle" x="327" y="-62" font-family="Helvetica,sans-Serif" font-size="10.00">c_types.h</text>
</a>
</g>
</g>
<!-- Node11&#45;&gt;Node14 -->
<g id="edge14_Node000011_Node000014" class="edge">
<title>Node11&#45;&gt;Node14</title>
<g id="a_edge14_Node000011_Node000014"><a xlink:title=" ">
<path fill="none" stroke="#63b8ff" d="M339.52,-109.75C337.54,-102.72 334.68,-92.62 332.19,-83.84"/>
<polygon fill="#63b8ff" stroke="#63b8ff" points="335.52,-82.76 329.43,-74.09 328.79,-84.66 335.52,-82.76"/>
</a>
</g>
</g>
<!-- Node15 -->
<g id="Node000015" class="node">
<title>Node15</title>
<g id="a_Node000015"><a xlink:title=" ">
<polygon fill="#e0e0e0" stroke="#999999" points="451,-74 377,-74 377,-55 451,-55 451,-74"/>
<text text-anchor="middle" x="414" y="-62" font-family="Helvetica,sans-Serif" font-size="10.00">eagle_soc.h</text>
</a>
</g>
</g>
<!-- Node11&#45;&gt;Node15 -->
<g id="edge15_Node000011_Node000015" class="edge">
<title>Node11&#45;&gt;Node15</title>
<g id="a_edge15_Node000011_Node000015"><a xlink:title=" ">
<path fill="none" stroke="#63b8ff" d="M353.57,-109.98C364.42,-102 380.88,-89.88 393.88,-80.31"/>
<polygon fill="#63b8ff" stroke="#63b8ff" points="396.24,-82.92 402.22,-74.17 392.09,-77.28 396.24,-82.92"/>
</a>
</g>
</g>
<!-- Node16 -->
<g id="Node000016" class="node">
<title>Node16</title>
<g id="a_Node000016"><a xlink:title=" ">
<polygon fill="#e0e0e0" stroke="#999999" points="62,-74 0,-74 0,-55 62,-55 62,-74"/>
<text text-anchor="middle" x="31" y="-62" font-family="Helvetica,sans-Serif" font-size="10.00">ets_sys.h</text>
</a>
</g>
</g>
<!-- Node11&#45;&gt;Node16 -->
<g id="edge16_Node000011_Node000016" class="edge">
<title>Node11&#45;&gt;Node16</title>
<g id="a_edge16_Node000011_Node000016"><a xlink:title=" ">
<path fill="none" stroke="#63b8ff" d="M297.47,-111.3C232.45,-100.78 115.3,-81.76 72.43,-74.15"/>
<polygon fill="#63b8ff" stroke="#63b8ff" points="72.88,-70.67 62.42,-72.32 71.62,-77.56 72.88,-70.67"/>
</a>
</g>
</g>
<!-- Node17 -->
<g id="Node000017" class="node">
<title>Node17</title>
<g id="a_Node000017"><a xlink:title=" ">
<polygon fill="#e0e0e0" stroke="#999999" points="132,-74 80,-74 80,-55 132,-55 132,-74"/>
<text text-anchor="middle" x="106" y="-62" font-family="Helvetica,sans-Serif" font-size="10.00">osapi.h</text>
</a>
</g>
</g>
<!-- Node11&#45;&gt;Node17 -->
<g id="edge17_Node000011_Node000017" class="edge">
<title>Node11&#45;&gt;Node17</title>
<g id="a_edge17_Node000011_Node000017"><a xlink:title=" ">
<path fill="none" stroke="#63b8ff" d="M302.28,-109.96C263.76,-101.61 203.4,-88.4 142.19,-74.24"/>
<polygon fill="#63b8ff" stroke="#63b8ff" points="142.89,-70.81 132.36,-71.96 141.31,-77.63 142.89,-70.81"/>
</a>
</g>
</g>
<!-- Node18&#45;&gt;Node19 -->
<g id="edge19_Node000018_Node000019" class="edge">
<title>Node18&#45;&gt;Node19</title>
<g id="a_edge19_Node000018_Node000019"><a xlink:title=" ">
<path fill="none" stroke="#63b8ff" d="M703.87,-109.98C668.84,-100.7 612.79,-85.85 575.21,-75.89"/>
<polygon fill="#63b8ff" stroke="#63b8ff" points="575.69,-72.4 565.13,-73.22 573.9,-79.16 575.69,-72.4"/>
</a>
</g>
</g>
<!-- Node20 -->
<g id="Node000020" class="node">
<title>Node20</title>
<g id="a_Node000020"><a xlink:title=" ">
<polygon fill="#e0e0e0" stroke="#999999" points="1158.5,-74 1113.5,-74 1113.5,-55 1158.5,-55 1158.5,-74"/>
<text text-anchor="middle" x="1136" y="-62" font-family="Helvetica,sans-Serif" font-size="10.00">utility</text>
</a>
</g>
</g>
<!-- Node18&#45;&gt;Node20 -->
<g id="edge20_Node000018_Node000020" class="edge">
<title>Node18&#45;&gt;Node20</title>
<g id="a_edge20_Node000018_Node000020"><a xlink:title=" ">
<path fill="none" stroke="#63b8ff" d="M771.15,-113.84C847.64,-103.71 1028.34,-79.77 1102.92,-69.88"/>
<polygon fill="#63b8ff" stroke="#63b8ff" points="1103.67,-73.31 1113.13,-68.53 1102.75,-66.37 1103.67,-73.31"/>
</a>
</g>
</g>
<!-- Node22&#45;&gt;Node5 -->
<g id="edge24_Node000022_Node000005" class="edge">
<title>Node22&#45;&gt;Node5</title>
<g id="a_edge24_Node000022_Node000005"><a xlink:title=" ">
<path fill="none" stroke="#63b8ff" d="M680.95,-109.98C732.43,-100.45 815.66,-85.02 869.35,-75.07"/>
<polygon fill="#63b8ff" stroke="#63b8ff" points="870.15,-78.48 879.35,-73.22 868.88,-71.6 870.15,-78.48"/>
</a>
</g>
</g>
<!-- Node25 -->
<g id="Node000025" class="node">
<title>Node25</title>
<g id="a_Node000025"><a xlink:title=" ">
<polygon fill="#e0e0e0" stroke="#999999" points="1198.5,-349 1121.5,-349 1121.5,-330 1198.5,-330 1198.5,-349"/>
<text text-anchor="middle" x="1160" y="-337" font-family="Helvetica,sans-Serif" font-size="10.00">libminilisp.h</text>
</a>
</g>
</g>
<!-- Node24&#45;&gt;Node25 -->
<g id="edge29_Node000024_Node000025" class="edge">
<title>Node24&#45;&gt;Node25</title>
<g id="a_edge29_Node000024_Node000025"><a xlink:title=" ">
<path fill="none" stroke="#63b8ff" d="M1160,-384.75C1160,-377.8 1160,-367.85 1160,-359.13"/>
<polygon fill="#63b8ff" stroke="#63b8ff" points="1163.5,-359.09 1160,-349.09 1156.5,-359.09 1163.5,-359.09"/>
</a>
</g>
</g>
<!-- Node26&#45;&gt;Node6 -->
<g id="edge31_Node000026_Node000006" class="edge">
<title>Node26&#45;&gt;Node6</title>
<g id="a_edge31_Node000026_Node000006"><a xlink:title=" ">
<path fill="none" stroke="#63b8ff" d="M1330.28,-439.95C1407.68,-424.32 1555,-388.3 1555,-340.5 1555,-340.5 1555,-340.5 1555,-118.5 1555,-38.55 1437.78,-17.75 1372.93,-12.37"/>
<polygon fill="#63b8ff" stroke="#63b8ff" points="1372.85,-8.85 1362.62,-11.6 1372.33,-15.83 1372.85,-8.85"/>
</a>
</g>
</g>
<!-- Node26&#45;&gt;Node24 -->
<g id="edge32_Node000026_Node000024" class="edge">
<title>Node26&#45;&gt;Node24</title>
<g id="a_edge32_Node000026_Node000024"><a xlink:title=" ">
<path fill="none" stroke="#63b8ff" d="M1264.08,-439.98C1243.95,-431.38 1212.62,-417.99 1189.59,-408.15"/>
<polygon fill="#63b8ff" stroke="#63b8ff" points="1190.86,-404.88 1180.29,-404.17 1188.1,-411.32 1190.86,-404.88"/>
</a>
</g>
</g>
<!-- Node27 -->
<g id="Node000027" class="node">
<title>Node27</title>
<g id="a_Node000027"><a xlink:href="_register_manager_proxy_8h.html" target="_top" xlink:title=" ">
<polygon fill="white" stroke="#666666" points="1351.5,-404 1216.5,-404 1216.5,-385 1351.5,-385 1351.5,-404"/>
<text text-anchor="middle" x="1284" y="-392" font-family="Helvetica,sans-Serif" font-size="10.00">RegisterManagerProxy.h</text>
</a>
</g>
</g>
<!-- Node26&#45;&gt;Node27 -->
<g id="edge33_Node000026_Node000027" class="edge">
<title>Node26&#45;&gt;Node27</title>
<g id="a_edge33_Node000026_Node000027"><a xlink:title=" ">
<path fill="none" stroke="#63b8ff" d="M1284,-439.75C1284,-432.8 1284,-422.85 1284,-414.13"/>
<polygon fill="#63b8ff" stroke="#63b8ff" points="1287.5,-414.09 1284,-404.09 1280.5,-414.09 1287.5,-414.09"/>
</a>
</g>
</g>
<!-- Node41 -->
<g id="Node000041" class="node">
<title>Node41</title>
<g id="a_Node000041"><a xlink:title=" ">
<polygon fill="#e0e0e0" stroke="#999999" points="1428.5,-404 1369.5,-404 1369.5,-385 1428.5,-385 1428.5,-404"/>
<text text-anchor="middle" x="1399" y="-392" font-family="Helvetica,sans-Serif" font-size="10.00">setjmp.h</text>
</a>
</g>
</g>
<!-- Node26&#45;&gt;Node41 -->
<g id="edge65_Node000026_Node000041" class="edge">
<title>Node26&#45;&gt;Node41</title>
<g id="a_edge65_Node000026_Node000041"><a xlink:title=" ">
<path fill="none" stroke="#63b8ff" d="M1302.48,-439.98C1320.98,-431.46 1349.68,-418.23 1370.98,-408.41"/>
<polygon fill="#63b8ff" stroke="#63b8ff" points="1372.57,-411.53 1380.19,-404.17 1369.64,-405.18 1372.57,-411.53"/>
</a>
</g>
</g>
<!-- Node28 -->
<g id="Node000028" class="node">
<title>Node28</title>
<g id="a_Node000028"><a xlink:href="_register_manager_8h.html" target="_top" xlink:title=" ">
<polygon fill="white" stroke="#666666" points="1336,-349 1228,-349 1228,-330 1336,-330 1336,-349"/>
<text text-anchor="middle" x="1282" y="-337" font-family="Helvetica,sans-Serif" font-size="10.00">RegisterManager.h</text>
</a>
</g>
</g>
<!-- Node27&#45;&gt;Node28 -->
<g id="edge34_Node000027_Node000028" class="edge">
<title>Node27&#45;&gt;Node28</title>
<g id="a_edge34_Node000027_Node000028"><a xlink:title=" ">
<path fill="none" stroke="#63b8ff" d="M1283.67,-384.75C1283.41,-377.8 1283.03,-367.85 1282.7,-359.13"/>
<polygon fill="#63b8ff" stroke="#63b8ff" points="1286.2,-358.95 1282.32,-349.09 1279.2,-359.21 1286.2,-358.95"/>
</a>
</g>
</g>
<!-- Node29 -->
<g id="Node000029" class="node">
<title>Node29</title>
<g id="a_Node000029"><a xlink:href="_c_b_o_r_object_8h.html" target="_top" xlink:title=" ">
<polygon fill="white" stroke="#666666" points="723.5,-239 638.5,-239 638.5,-220 723.5,-220 723.5,-239"/>
<text text-anchor="middle" x="681" y="-227" font-family="Helvetica,sans-Serif" font-size="10.00">CBORObject.h</text>
</a>
</g>
</g>
<!-- Node28&#45;&gt;Node29 -->
<g id="edge35_Node000028_Node000029" class="edge">
<title>Node28&#45;&gt;Node29</title>
<g id="a_edge35_Node000028_Node000029"><a xlink:title=" ">
<path fill="none" stroke="#63b8ff" d="M1234.59,-329.98C1124.01,-310.11 849.63,-260.8 733.87,-240"/>
<polygon fill="#63b8ff" stroke="#63b8ff" points="734.29,-236.52 723.83,-238.2 733.05,-243.41 734.29,-236.52"/>
</a>
</g>
</g>
<!-- Node35 -->
<g id="Node000035" class="node">
<title>Node35</title>
<g id="a_Node000035"><a xlink:href="_gpio_register_8h.html" target="_top" xlink:title=" ">
<polygon fill="white" stroke="#666666" points="1425,-294 1337,-294 1337,-275 1425,-275 1425,-294"/>
<text text-anchor="middle" x="1381" y="-282" font-family="Helvetica,sans-Serif" font-size="10.00">GpioRegister.h</text>
</a>
</g>
</g>
<!-- Node28&#45;&gt;Node35 -->
<g id="edge47_Node000028_Node000035" class="edge">
<title>Node28&#45;&gt;Node35</title>
<g id="a_edge47_Node000028_Node000035"><a xlink:title=" ">
<path fill="none" stroke="#63b8ff" d="M1297.91,-329.98C1313.55,-321.61 1337.66,-308.7 1355.88,-298.95"/>
<polygon fill="#63b8ff" stroke="#63b8ff" points="1357.64,-301.98 1364.8,-294.17 1354.34,-295.8 1357.64,-301.98"/>
</a>
</g>
</g>
<!-- Node40 -->
<g id="Node000040" class="node">
<title>Node40</title>
<g id="a_Node000040"><a xlink:href="_object_register_8h.html" target="_top" xlink:title=" ">
<polygon fill="white" stroke="#666666" points="1313.5,-294 1216.5,-294 1216.5,-275 1313.5,-275 1313.5,-294"/>
<text text-anchor="middle" x="1265" y="-282" font-family="Helvetica,sans-Serif" font-size="10.00">ObjectRegister.h</text>
</a>
</g>
</g>
<!-- Node28&#45;&gt;Node40 -->
<g id="edge60_Node000028_Node000040" class="edge">
<title>Node28&#45;&gt;Node40</title>
<g id="a_edge60_Node000028_Node000040"><a xlink:title=" ">
<path fill="none" stroke="#63b8ff" d="M1279.19,-329.75C1276.94,-322.72 1273.7,-312.62 1270.88,-303.84"/>
<polygon fill="#63b8ff" stroke="#63b8ff" points="1274.14,-302.54 1267.75,-294.09 1267.48,-304.68 1274.14,-302.54"/>
</a>
</g>
</g>
<!-- Node29&#45;&gt;Node6 -->
<g id="edge36_Node000029_Node000006" class="edge">
<title>Node29&#45;&gt;Node6</title>
<g id="a_edge36_Node000029_Node000006"><a xlink:title=" ">
<path fill="none" stroke="#63b8ff" d="M672.94,-219.64C661.48,-207.16 639.67,-183.81 620,-165 602.47,-148.24 589,-151.09 579,-129 575.52,-121.31 573.61,-116.5 579,-110 624.77,-54.81 1136.85,-21.51 1288.77,-12.8"/>
<polygon fill="#63b8ff" stroke="#63b8ff" points="1289.28,-16.28 1299.07,-12.22 1288.89,-9.29 1289.28,-16.28"/>
</a>
</g>
</g>
<!-- Node29&#45;&gt;Node8 -->
<g id="edge44_Node000029_Node000008" class="edge">
<title>Node29&#45;&gt;Node8</title>
<g id="a_edge44_Node000029_Node000008"><a xlink:title=" ">
<path fill="none" stroke="#63b8ff" d="M723.61,-222.93C766.16,-216.54 832.98,-204.25 888,-184 923.5,-170.93 961.51,-148.85 984.51,-134.47"/>
<polygon fill="#63b8ff" stroke="#63b8ff" points="986.55,-137.32 993.13,-129.01 982.81,-131.41 986.55,-137.32"/>
</a>
</g>
</g>
<!-- Node29&#45;&gt;Node19 -->
<g id="edge46_Node000029_Node000019" class="edge">
<title>Node29&#45;&gt;Node19</title>
<g id="a_edge46_Node000029_Node000019"><a xlink:title=" ">
<path fill="none" stroke="#63b8ff" d="M638.19,-227.3C605.97,-223.9 563.61,-213.58 541,-184 518.78,-154.93 525,-109.12 530.88,-83.82"/>
<polygon fill="#63b8ff" stroke="#63b8ff" points="534.29,-84.61 533.38,-74.05 527.51,-82.87 534.29,-84.61"/>
</a>
</g>
</g>
<!-- Node30 -->
<g id="Node000030" class="node">
<title>Node30</title>
<g id="a_Node000030"><a xlink:href="_bytes_8h.html" target="_top" xlink:title=" ">
<polygon fill="white" stroke="#666666" points="878.5,-184 825.5,-184 825.5,-165 878.5,-165 878.5,-184"/>
<text text-anchor="middle" x="852" y="-172" font-family="Helvetica,sans-Serif" font-size="10.00">Bytes.h</text>
</a>
</g>
</g>
<!-- Node29&#45;&gt;Node30 -->
<g id="edge37_Node000029_Node000030" class="edge">
<title>Node29&#45;&gt;Node30</title>
<g id="a_edge37_Node000029_Node000030"><a xlink:title=" ">
<path fill="none" stroke="#63b8ff" d="M708.47,-219.98C737.52,-210.98 783.49,-196.73 815.56,-186.8"/>
<polygon fill="#63b8ff" stroke="#63b8ff" points="816.92,-190.04 825.44,-183.73 814.85,-183.35 816.92,-190.04"/>
</a>
</g>
</g>
<!-- Node34 -->
<g id="Node000034" class="node">
<title>Node34</title>
<g id="a_Node000034"><a xlink:title=" ">
<polygon fill="#e0e0e0" stroke="#999999" points="610.5,-184 549.5,-184 549.5,-165 610.5,-165 610.5,-184"/>
<text text-anchor="middle" x="580" y="-172" font-family="Helvetica,sans-Serif" font-size="10.00">cn&#45;cbor.h</text>
</a>
</g>
</g>
<!-- Node29&#45;&gt;Node34 -->
<g id="edge45_Node000029_Node000034" class="edge">
<title>Node29&#45;&gt;Node34</title>
<g id="a_edge45_Node000029_Node000034"><a xlink:title=" ">
<path fill="none" stroke="#63b8ff" d="M664.77,-219.98C648.82,-211.61 624.22,-198.7 605.62,-188.95"/>
<polygon fill="#63b8ff" stroke="#63b8ff" points="607,-185.72 596.52,-184.17 603.75,-191.92 607,-185.72"/>
</a>
</g>
</g>
<!-- Node30&#45;&gt;Node7 -->
<g id="edge42_Node000030_Node000007" class="edge">
<title>Node30&#45;&gt;Node7</title>
<g id="a_edge42_Node000030_Node000007"><a xlink:title=" ">
<path fill="none" stroke="#63b8ff" d="M843.23,-164.81C835.3,-156.41 823.99,-142.94 818,-129 803.8,-95.93 800.11,-53.54 799.21,-29.46"/>
<polygon fill="#63b8ff" stroke="#63b8ff" points="802.71,-29.14 798.97,-19.23 795.71,-29.31 802.71,-29.14"/>
</a>
</g>
</g>
<!-- Node30&#45;&gt;Node8 -->
<g id="edge39_Node000030_Node000008" class="edge">
<title>Node30&#45;&gt;Node8</title>
<g id="a_edge39_Node000030_Node000008"><a xlink:title=" ">
<path fill="none" stroke="#63b8ff" d="M876.74,-164.98C902.37,-156.16 942.63,-142.31 971.41,-132.41"/>
<polygon fill="#63b8ff" stroke="#63b8ff" points="972.75,-135.65 981.06,-129.08 970.47,-129.03 972.75,-135.65"/>
</a>
</g>
</g>
<!-- Node30&#45;&gt;Node18 -->
<g id="edge38_Node000030_Node000018" class="edge">
<title>Node30&#45;&gt;Node18</title>
<g id="a_edge38_Node000030_Node000018"><a xlink:title=" ">
<path fill="none" stroke="#63b8ff" d="M833.36,-164.98C814.7,-156.46 785.75,-143.23 764.26,-133.41"/>
<polygon fill="#63b8ff" stroke="#63b8ff" points="765.53,-130.14 754.98,-129.17 762.62,-136.51 765.53,-130.14"/>
</a>
</g>
</g>
<!-- Node31 -->
<g id="Node000031" class="node">
<title>Node31</title>
<g id="a_Node000031"><a xlink:title=" ">
<polygon fill="#e0e0e0" stroke="#999999" points="959,-129 895,-129 895,-110 959,-110 959,-129"/>
<text text-anchor="middle" x="927" y="-117" font-family="Helvetica,sans-Serif" font-size="10.00">WString.h</text>
</a>
</g>
</g>
<!-- Node30&#45;&gt;Node31 -->
<g id="edge40_Node000030_Node000031" class="edge">
<title>Node30&#45;&gt;Node31</title>
<g id="a_edge40_Node000030_Node000031"><a xlink:title=" ">
<path fill="none" stroke="#63b8ff" d="M864.05,-164.98C875.46,-156.92 892.83,-144.65 906.43,-135.03"/>
<polygon fill="#63b8ff" stroke="#63b8ff" points="908.58,-137.8 914.73,-129.17 904.54,-132.08 908.58,-137.8"/>
</a>
</g>
</g>
<!-- Node32 -->
<g id="Node000032" class="node">
<title>Node32</title>
<g id="a_Node000032"><a xlink:title=" ">
<polygon fill="#e0e0e0" stroke="#999999" points="877,-129 827,-129 827,-110 877,-110 877,-129"/>
<text text-anchor="middle" x="852" y="-117" font-family="Helvetica,sans-Serif" font-size="10.00">stdio.h</text>
</a>
</g>
</g>
<!-- Node30&#45;&gt;Node32 -->
<g id="edge41_Node000030_Node000032" class="edge">
<title>Node30&#45;&gt;Node32</title>
<g id="a_edge41_Node000030_Node000032"><a xlink:title=" ">
<path fill="none" stroke="#63b8ff" d="M852,-164.75C852,-157.8 852,-147.85 852,-139.13"/>
<polygon fill="#63b8ff" stroke="#63b8ff" points="855.5,-139.09 852,-129.09 848.5,-139.09 855.5,-139.09"/>
</a>
</g>
</g>
<!-- Node33 -->
<g id="Node000033" class="node">
<title>Node33</title>
<g id="a_Node000033"><a xlink:title=" ">
<polygon fill="#e0e0e0" stroke="#999999" points="1122.5,-129 1053.5,-129 1053.5,-110 1122.5,-110 1122.5,-129"/>
<text text-anchor="middle" x="1088" y="-117" font-family="Helvetica,sans-Serif" font-size="10.00">type_traits</text>
</a>
</g>
</g>
<!-- Node30&#45;&gt;Node33 -->
<g id="edge43_Node000030_Node000033" class="edge">
<title>Node30&#45;&gt;Node33</title>
<g id="a_edge43_Node000030_Node000033"><a xlink:title=" ">
<path fill="none" stroke="#63b8ff" d="M878.61,-167.52C918.68,-158.53 994.96,-141.39 1043.56,-130.48"/>
<polygon fill="#63b8ff" stroke="#63b8ff" points="1044.49,-133.86 1053.48,-128.25 1042.96,-127.03 1044.49,-133.86"/>
</a>
</g>
</g>
<!-- Node35&#45;&gt;Node6 -->
<g id="edge48_Node000035_Node000006" class="edge">
<title>Node35&#45;&gt;Node6</title>
<g id="a_edge48_Node000035_Node000006"><a xlink:title=" ">
<path fill="none" stroke="#63b8ff" d="M1385.27,-274.74C1400.31,-242.46 1447.52,-128.29 1401,-55 1392.22,-41.17 1377.42,-30.84 1363.69,-23.64"/>
<polygon fill="#63b8ff" stroke="#63b8ff" points="1364.96,-20.37 1354.44,-19.15 1361.9,-26.66 1364.96,-20.37"/>
</a>
</g>
</g>
<!-- Node35&#45;&gt;Node23 -->
<g id="edge49_Node000035_Node000023" class="edge">
<title>Node35&#45;&gt;Node23</title>
<g id="a_edge49_Node000035_Node000023"><a xlink:title=" ">
<path fill="none" stroke="#63b8ff" d="M1395.46,-274.98C1409.42,-266.77 1430.79,-254.18 1447.25,-244.49"/>
<polygon fill="#63b8ff" stroke="#63b8ff" points="1449.44,-247.26 1456.28,-239.17 1445.88,-241.23 1449.44,-247.26"/>
</a>
</g>
</g>
<!-- Node36 -->
<g id="Node000036" class="node">
<title>Node36</title>
<g id="a_Node000036"><a xlink:href="_register_8h.html" target="_top" xlink:title=" ">
<polygon fill="white" stroke="#666666" points="1358.5,-239 1293.5,-239 1293.5,-220 1358.5,-220 1358.5,-239"/>
<text text-anchor="middle" x="1326" y="-227" font-family="Helvetica,sans-Serif" font-size="10.00">Register.h</text>
</a>
</g>
</g>
<!-- Node35&#45;&gt;Node36 -->
<g id="edge50_Node000035_Node000036" class="edge">
<title>Node35&#45;&gt;Node36</title>
<g id="a_edge50_Node000035_Node000036"><a xlink:title=" ">
<path fill="none" stroke="#63b8ff" d="M1371.92,-274.75C1363.91,-267.03 1352.04,-255.6 1342.38,-246.28"/>
<polygon fill="#63b8ff" stroke="#63b8ff" points="1344.54,-243.51 1334.91,-239.09 1339.69,-248.55 1344.54,-243.51"/>
</a>
</g>
</g>
<!-- Node36&#45;&gt;Node6 -->
<g id="edge51_Node000036_Node000006" class="edge">
<title>Node36&#45;&gt;Node6</title>
<g id="a_edge51_Node000036_Node000006"><a xlink:title=" ">
<path fill="none" stroke="#63b8ff" d="M1334.81,-219.95C1350.6,-203.91 1383.08,-167.44 1394,-129 1399.74,-108.8 1388.47,-61.04 1385,-55 1377.88,-42.62 1365.91,-32.22 1355.05,-24.6"/>
<polygon fill="#63b8ff" stroke="#63b8ff" points="1356.96,-21.67 1346.69,-19.1 1353.12,-27.52 1356.96,-21.67"/>
</a>
</g>
</g>
<!-- Node37 -->
<g id="Node000037" class="node">
<title>Node37</title>
<g id="a_Node000037"><a xlink:href="_array_8h.html" target="_top" xlink:title=" ">
<polygon fill="white" stroke="#666666" points="1351,-184 1301,-184 1301,-165 1351,-165 1351,-184"/>
<text text-anchor="middle" x="1326" y="-172" font-family="Helvetica,sans-Serif" font-size="10.00">Array.h</text>
</a>
</g>
</g>
<!-- Node36&#45;&gt;Node37 -->
<g id="edge52_Node000036_Node000037" class="edge">
<title>Node36&#45;&gt;Node37</title>
<g id="a_edge52_Node000036_Node000037"><a xlink:title=" ">
<path fill="none" stroke="#63b8ff" d="M1326,-219.75C1326,-212.8 1326,-202.85 1326,-194.13"/>
<polygon fill="#63b8ff" stroke="#63b8ff" points="1329.5,-194.09 1326,-184.09 1322.5,-194.09 1329.5,-194.09"/>
</a>
</g>
</g>
<!-- Node39 -->
<g id="Node000039" class="node">
<title>Node39</title>
<g id="a_Node000039"><a xlink:href="_map_8h.html" target="_top" xlink:title=" ">
<polygon fill="white" stroke="#666666" points="759.5,-184 712.5,-184 712.5,-165 759.5,-165 759.5,-184"/>
<text text-anchor="middle" x="736" y="-172" font-family="Helvetica,sans-Serif" font-size="10.00">Map.h</text>
</a>
</g>
</g>
<!-- Node36&#45;&gt;Node39 -->
<g id="edge57_Node000036_Node000039" class="edge">
<title>Node36&#45;&gt;Node39</title>
<g id="a_edge57_Node000036_Node000039"><a xlink:title=" ">
<path fill="none" stroke="#63b8ff" d="M1293.23,-225.83C1212.34,-219.21 996.69,-201.28 817,-184 801.48,-182.51 784.31,-180.72 769.78,-179.18"/>
<polygon fill="#63b8ff" stroke="#63b8ff" points="770.05,-175.69 759.74,-178.1 769.31,-182.65 770.05,-175.69"/>
</a>
</g>
</g>
<!-- Node37&#45;&gt;Node6 -->
<g id="edge53_Node000037_Node000006" class="edge">
<title>Node37&#45;&gt;Node6</title>
<g id="a_edge53_Node000037_Node000006"><a xlink:title=" ">
<path fill="none" stroke="#63b8ff" d="M1342.03,-164.95C1354.41,-157.35 1370.65,-144.97 1378,-129 1394.41,-93.35 1365.53,-50.22 1346.23,-27.09"/>
<polygon fill="#63b8ff" stroke="#63b8ff" points="1348.62,-24.51 1339.42,-19.26 1343.34,-29.1 1348.62,-24.51"/>
</a>
</g>
</g>
<!-- Node37&#45;&gt;Node20 -->
<g id="edge56_Node000037_Node000020" class="edge">
<title>Node37&#45;&gt;Node20</title>
<g id="a_edge56_Node000037_Node000020"><a xlink:title=" ">
<path fill="none" stroke="#63b8ff" d="M1316.8,-164.72C1302.55,-151.49 1273.88,-126.25 1246,-110 1221.3,-95.61 1191.07,-83.74 1168.55,-75.9"/>
<polygon fill="#63b8ff" stroke="#63b8ff" points="1169.38,-72.48 1158.79,-72.58 1167.13,-79.11 1169.38,-72.48"/>
</a>
</g>
</g>
<!-- Node37&#45;&gt;Node33 -->
<g id="edge55_Node000037_Node000033" class="edge">
<title>Node37&#45;&gt;Node33</title>
<g id="a_edge55_Node000037_Node000033"><a xlink:title=" ">
<path fill="none" stroke="#63b8ff" d="M1300.98,-167.93C1261.01,-159.03 1182.19,-141.48 1132.46,-130.4"/>
<polygon fill="#63b8ff" stroke="#63b8ff" points="1133.14,-126.97 1122.62,-128.21 1131.62,-133.8 1133.14,-126.97"/>
</a>
</g>
</g>
<!-- Node38 -->
<g id="Node000038" class="node">
<title>Node38</title>
<g id="a_Node000038"><a xlink:title=" ">
<polygon fill="#e0e0e0" stroke="#999999" points="1368.5,-129 1331.5,-129 1331.5,-110 1368.5,-110 1368.5,-129"/>
<text text-anchor="middle" x="1350" y="-117" font-family="Helvetica,sans-Serif" font-size="10.00">new</text>
</a>
</g>
</g>
<!-- Node37&#45;&gt;Node38 -->
<g id="edge54_Node000037_Node000038" class="edge">
<title>Node37&#45;&gt;Node38</title>
<g id="a_edge54_Node000037_Node000038"><a xlink:title=" ">
<path fill="none" stroke="#63b8ff" d="M1329.96,-164.75C1333.21,-157.57 1337.92,-147.18 1341.95,-138.27"/>
<polygon fill="#63b8ff" stroke="#63b8ff" points="1345.17,-139.64 1346.11,-129.09 1338.8,-136.75 1345.17,-139.64"/>
</a>
</g>
</g>
<!-- Node39&#45;&gt;Node18 -->
<g id="edge58_Node000039_Node000018" class="edge">
<title>Node39&#45;&gt;Node18</title>
<g id="a_edge58_Node000039_Node000018"><a xlink:title=" ">
<path fill="none" stroke="#63b8ff" d="M736,-164.75C736,-157.8 736,-147.85 736,-139.13"/>
<polygon fill="#63b8ff" stroke="#63b8ff" points="739.5,-139.09 736,-129.09 732.5,-139.09 739.5,-139.09"/>
</a>
</g>
</g>
<!-- Node39&#45;&gt;Node22 -->
<g id="edge59_Node000039_Node000022" class="edge">
<title>Node39&#45;&gt;Node22</title>
<g id="a_edge59_Node000039_Node000022"><a xlink:title=" ">
<path fill="none" stroke="#63b8ff" d="M719.77,-164.98C703.82,-156.61 679.22,-143.7 660.62,-133.95"/>
<polygon fill="#63b8ff" stroke="#63b8ff" points="662,-130.72 651.52,-129.17 658.75,-136.92 662,-130.72"/>
</a>
</g>
</g>
<!-- Node40&#45;&gt;Node4 -->
<g id="edge63_Node000040_Node000004" class="edge">
<title>Node40&#45;&gt;Node4</title>
<g id="a_edge63_Node000040_Node000004"><a xlink:title=" ">
<path fill="none" stroke="#63b8ff" d="M1255.67,-274.66C1236.37,-256.38 1191.83,-214.18 1167.54,-191.17"/>
<polygon fill="#63b8ff" stroke="#63b8ff" points="1169.81,-188.5 1160.14,-184.16 1164.99,-193.58 1169.81,-188.5"/>
</a>
</g>
</g>
<!-- Node40&#45;&gt;Node6 -->
<g id="edge61_Node000040_Node000006" class="edge">
<title>Node40&#45;&gt;Node6</title>
<g id="a_edge61_Node000040_Node000006"><a xlink:title=" ">
<path fill="none" stroke="#63b8ff" d="M1265,-274.82C1265,-256.48 1265,-212.44 1265,-175.5 1265,-175.5 1265,-175.5 1265,-118.5 1265,-81.23 1293.98,-45.93 1313.53,-26.36"/>
<polygon fill="#63b8ff" stroke="#63b8ff" points="1316.19,-28.65 1320.98,-19.2 1311.34,-23.61 1316.19,-28.65"/>
</a>
</g>
</g>
<!-- Node40&#45;&gt;Node18 -->
<g id="edge62_Node000040_Node000018" class="edge">
<title>Node40&#45;&gt;Node18</title>
<g id="a_edge62_Node000040_Node000018"><a xlink:title=" ">
<path fill="none" stroke="#63b8ff" d="M1216.3,-279.79C1131.49,-271.8 952.77,-248.2 817,-184 791.92,-172.14 767.47,-151.31 752.11,-136.75"/>
<polygon fill="#63b8ff" stroke="#63b8ff" points="754.17,-133.88 744.56,-129.41 749.29,-138.89 754.17,-133.88"/>
</a>
</g>
</g>
<!-- Node40&#45;&gt;Node36 -->
<g id="edge64_Node000040_Node000036" class="edge">
<title>Node40&#45;&gt;Node36</title>
<g id="a_edge64_Node000040_Node000036"><a xlink:title=" ">
<path fill="none" stroke="#63b8ff" d="M1274.8,-274.98C1283.82,-267.15 1297.41,-255.34 1308.32,-245.86"/>
<polygon fill="#63b8ff" stroke="#63b8ff" points="1310.77,-248.37 1316.02,-239.17 1306.18,-243.09 1310.77,-248.37"/>
</a>
</g>
</g>
</g>
</svg>
