<?xml version="1.0" encoding="UTF-8" standalone="no"?>
<!DOCTYPE svg PUBLIC "-//W3C//DTD SVG 1.1//EN"
 "http://www.w3.org/Graphics/SVG/1.1/DTD/svg11.dtd">
<!-- Generated by graphviz version 2.43.0 (0)
 -->
<!-- Title: MQTTPath.h Pages: 1 -->
<svg width="1006pt" height="357pt"
 viewBox="0.00 0.00 1005.50 357.00" xmlns="http://www.w3.org/2000/svg" xmlns:xlink="http://www.w3.org/1999/xlink">
<g id="graph0" class="graph" transform="scale(1 1) rotate(0) translate(4 353)">
<title>MQTTPath.h</title>
<!-- Node1 -->
<g id="Node000001" class="node">
<title>Node1</title>
<g id="a_Node000001"><a xlink:title=" ">
<polygon fill="#999999" stroke="#666666" points="741.5,-349 666.5,-349 666.5,-330 741.5,-330 741.5,-349"/>
<text text-anchor="middle" x="704" y="-337" font-family="Helvetica,sans-Serif" font-size="10.00">MQTTPath.h</text>
</a>
</g>
</g>
<!-- Node2 -->
<g id="Node000002" class="node">
<title>Node2</title>
<g id="a_Node000002"><a xlink:href="_credentials_8h.html" target="_top" xlink:title=" ">
<polygon fill="white" stroke="#666666" points="744.5,-294 663.5,-294 663.5,-275 744.5,-275 744.5,-294"/>
<text text-anchor="middle" x="704" y="-282" font-family="Helvetica,sans-Serif" font-size="10.00">Credentials.h</text>
</a>
</g>
</g>
<!-- Node1&#45;&gt;Node2 -->
<g id="edge1_Node000001_Node000002" class="edge">
<title>Node1&#45;&gt;Node2</title>
<g id="a_edge1_Node000001_Node000002"><a xlink:title=" ">
<path fill="none" stroke="#63b8ff" d="M704,-329.75C704,-322.8 704,-312.85 704,-304.13"/>
<polygon fill="#63b8ff" stroke="#63b8ff" points="707.5,-304.09 704,-294.09 700.5,-304.09 707.5,-304.09"/>
</a>
</g>
</g>
<!-- Node3 -->
<g id="Node000003" class="node">
<title>Node3</title>
<g id="a_Node000003"><a xlink:title=" ">
<polygon fill="#e0e0e0" stroke="#999999" points="640.5,-19 577.5,-19 577.5,0 640.5,0 640.5,-19"/>
<text text-anchor="middle" x="609" y="-7" font-family="Helvetica,sans-Serif" font-size="10.00">Arduino.h</text>
</a>
</g>
</g>
<!-- Node2&#45;&gt;Node3 -->
<g id="edge2_Node000002_Node000003" class="edge">
<title>Node2&#45;&gt;Node3</title>
<g id="a_edge2_Node000002_Node000003"><a xlink:title=" ">
<path fill="none" stroke="#63b8ff" d="M694.61,-274.81C686.03,-266.4 673.58,-252.92 666,-239 651.91,-213.13 647,-204.96 647,-175.5 647,-175.5 647,-175.5 647,-118.5 647,-85.02 630.55,-48.84 619.3,-28.01"/>
<polygon fill="#63b8ff" stroke="#63b8ff" points="622.24,-26.1 614.28,-19.1 616.13,-29.53 622.24,-26.1"/>
</a>
</g>
</g>
<!-- Node4 -->
<g id="Node000004" class="node">
<title>Node4</title>
<g id="a_Node000004"><a xlink:href="_c_b_o_r_storage_8h.html" target="_top" xlink:title=" ">
<polygon fill="white" stroke="#666666" points="515.5,-239 424.5,-239 424.5,-220 515.5,-220 515.5,-239"/>
<text text-anchor="middle" x="470" y="-227" font-family="Helvetica,sans-Serif" font-size="10.00">CBORStorage.h</text>
</a>
</g>
</g>
<!-- Node2&#45;&gt;Node4 -->
<g id="edge3_Node000002_Node000004" class="edge">
<title>Node2&#45;&gt;Node4</title>
<g id="a_edge3_Node000002_Node000004"><a xlink:title=" ">
<path fill="none" stroke="#63b8ff" d="M666.4,-274.98C626.01,-265.84 561.72,-251.27 517.77,-241.32"/>
<polygon fill="#63b8ff" stroke="#63b8ff" points="518.42,-237.88 507.89,-239.08 516.87,-244.7 518.42,-237.88"/>
</a>
</g>
</g>
<!-- Node19 -->
<g id="Node000019" class="node">
<title>Node19</title>
<g id="a_Node000019"><a xlink:title=" ">
<polygon fill="#e0e0e0" stroke="#999999" points="733,-239 675,-239 675,-220 733,-220 733,-239"/>
<text text-anchor="middle" x="704" y="-227" font-family="Helvetica,sans-Serif" font-size="10.00">Crypto.h</text>
</a>
</g>
</g>
<!-- Node2&#45;&gt;Node19 -->
<g id="edge24_Node000002_Node000019" class="edge">
<title>Node2&#45;&gt;Node19</title>
<g id="a_edge24_Node000002_Node000019"><a xlink:title=" ">
<path fill="none" stroke="#63b8ff" d="M704,-274.75C704,-267.8 704,-257.85 704,-249.13"/>
<polygon fill="#63b8ff" stroke="#63b8ff" points="707.5,-249.09 704,-239.09 700.5,-249.09 707.5,-249.09"/>
</a>
</g>
</g>
<!-- Node20 -->
<g id="Node000020" class="node">
<title>Node20</title>
<g id="a_Node000020"><a xlink:title=" ">
<polygon fill="#e0e0e0" stroke="#999999" points="819,-239 751,-239 751,-220 819,-220 819,-239"/>
<text text-anchor="middle" x="785" y="-227" font-family="Helvetica,sans-Serif" font-size="10.00">Ed25519.h</text>
</a>
</g>
</g>
<!-- Node2&#45;&gt;Node20 -->
<g id="edge25_Node000002_Node000020" class="edge">
<title>Node2&#45;&gt;Node20</title>
<g id="a_edge25_Node000002_Node000020"><a xlink:title=" ">
<path fill="none" stroke="#63b8ff" d="M717.01,-274.98C729.46,-266.84 748.46,-254.41 763.21,-244.76"/>
<polygon fill="#63b8ff" stroke="#63b8ff" points="765.3,-247.57 771.75,-239.17 761.46,-241.72 765.3,-247.57"/>
</a>
</g>
</g>
<!-- Node21 -->
<g id="Node000021" class="node">
<title>Node21</title>
<g id="a_Node000021"><a xlink:href="_i_c_o_s_e_signer_8h.html" target="_top" xlink:title=" ">
<polygon fill="white" stroke="#666666" points="618.5,-239 533.5,-239 533.5,-220 618.5,-220 618.5,-239"/>
<text text-anchor="middle" x="576" y="-227" font-family="Helvetica,sans-Serif" font-size="10.00">ICOSESigner.h</text>
</a>
</g>
</g>
<!-- Node2&#45;&gt;Node21 -->
<g id="edge26_Node000002_Node000021" class="edge">
<title>Node2&#45;&gt;Node21</title>
<g id="a_edge26_Node000002_Node000021"><a xlink:title=" ">
<path fill="none" stroke="#63b8ff" d="M683.43,-274.98C662.57,-266.34 630.03,-252.87 606.23,-243.02"/>
<polygon fill="#63b8ff" stroke="#63b8ff" points="607.52,-239.76 596.94,-239.17 604.84,-246.23 607.52,-239.76"/>
</a>
</g>
</g>
<!-- Node23 -->
<g id="Node000023" class="node">
<title>Node23</title>
<g id="a_Node000023"><a xlink:title=" ">
<polygon fill="#e0e0e0" stroke="#999999" points="884.5,-239 837.5,-239 837.5,-220 884.5,-220 884.5,-239"/>
<text text-anchor="middle" x="861" y="-227" font-family="Helvetica,sans-Serif" font-size="10.00">RNG.h</text>
</a>
</g>
</g>
<!-- Node2&#45;&gt;Node23 -->
<g id="edge29_Node000002_Node000023" class="edge">
<title>Node2&#45;&gt;Node23</title>
<g id="a_edge29_Node000002_Node000023"><a xlink:title=" ">
<path fill="none" stroke="#63b8ff" d="M729.22,-274.98C755.9,-265.98 798.11,-251.73 827.55,-241.79"/>
<polygon fill="#63b8ff" stroke="#63b8ff" points="829.02,-244.99 837.38,-238.47 826.78,-238.36 829.02,-244.99"/>
</a>
</g>
</g>
<!-- Node24 -->
<g id="Node000024" class="node">
<title>Node24</title>
<g id="a_Node000024"><a xlink:title=" ">
<polygon fill="#e0e0e0" stroke="#999999" points="997.5,-239 902.5,-239 902.5,-220 997.5,-220 997.5,-239"/>
<text text-anchor="middle" x="950" y="-227" font-family="Helvetica,sans-Serif" font-size="10.00">user_interface.h</text>
</a>
</g>
</g>
<!-- Node2&#45;&gt;Node24 -->
<g id="edge30_Node000002_Node000024" class="edge">
<title>Node2&#45;&gt;Node24</title>
<g id="a_edge30_Node000002_Node000024"><a xlink:title=" ">
<path fill="none" stroke="#63b8ff" d="M743.52,-274.98C786.17,-265.8 854.15,-251.15 900.36,-241.19"/>
<polygon fill="#63b8ff" stroke="#63b8ff" points="901.13,-244.61 910.17,-239.08 899.65,-237.77 901.13,-244.61"/>
</a>
</g>
</g>
<!-- Node5 -->
<g id="Node000005" class="node">
<title>Node5</title>
<g id="a_Node000005"><a xlink:href="_storage_8h.html" target="_top" xlink:title=" ">
<polygon fill="white" stroke="#666666" points="389.5,-184 326.5,-184 326.5,-165 389.5,-165 389.5,-184"/>
<text text-anchor="middle" x="358" y="-172" font-family="Helvetica,sans-Serif" font-size="10.00">Storage.h</text>
</a>
</g>
</g>
<!-- Node4&#45;&gt;Node5 -->
<g id="edge4_Node000004_Node000005" class="edge">
<title>Node4&#45;&gt;Node5</title>
<g id="a_edge4_Node000004_Node000005"><a xlink:title=" ">
<path fill="none" stroke="#63b8ff" d="M452.01,-219.98C434.07,-211.5 406.28,-198.35 385.57,-188.54"/>
<polygon fill="#63b8ff" stroke="#63b8ff" points="386.86,-185.28 376.32,-184.17 383.86,-191.61 386.86,-185.28"/>
</a>
</g>
</g>
<!-- Node17 -->
<g id="Node000017" class="node">
<title>Node17</title>
<g id="a_Node000017"><a xlink:href="_c_b_o_r_object_8h.html" target="_top" xlink:title=" ">
<polygon fill="white" stroke="#666666" points="531.5,-184 446.5,-184 446.5,-165 531.5,-165 531.5,-184"/>
<text text-anchor="middle" x="489" y="-172" font-family="Helvetica,sans-Serif" font-size="10.00">CBORObject.h</text>
</a>
</g>
</g>
<!-- Node4&#45;&gt;Node17 -->
<g id="edge18_Node000004_Node000017" class="edge">
<title>Node4&#45;&gt;Node17</title>
<g id="a_edge18_Node000004_Node000017"><a xlink:title=" ">
<path fill="none" stroke="#63b8ff" d="M473.14,-219.75C475.68,-212.65 479.36,-202.4 482.53,-193.56"/>
<polygon fill="#63b8ff" stroke="#63b8ff" points="485.84,-194.68 485.92,-184.09 479.25,-192.32 485.84,-194.68"/>
</a>
</g>
</g>
<!-- Node6 -->
<g id="Node000006" class="node">
<title>Node6</title>
<g id="a_Node000006"><a xlink:title=" ">
<polygon fill="#e0e0e0" stroke="#999999" points="237.5,-129 200.5,-129 200.5,-110 237.5,-110 237.5,-129"/>
<text text-anchor="middle" x="219" y="-117" font-family="Helvetica,sans-Serif" font-size="10.00">FS.h</text>
</a>
</g>
</g>
<!-- Node5&#45;&gt;Node6 -->
<g id="edge5_Node000005_Node000006" class="edge">
<title>Node5&#45;&gt;Node6</title>
<g id="a_edge5_Node000005_Node000006"><a xlink:title=" ">
<path fill="none" stroke="#63b8ff" d="M335.67,-164.98C311.58,-155.8 273.17,-141.16 247.06,-131.2"/>
<polygon fill="#63b8ff" stroke="#63b8ff" points="248.3,-127.93 237.71,-127.63 245.81,-134.47 248.3,-127.93"/>
</a>
</g>
</g>
<!-- Node7 -->
<g id="Node000007" class="node">
<title>Node7</title>
<g id="a_Node000007"><a xlink:title=" ">
<polygon fill="#e0e0e0" stroke="#999999" points="314,-129 256,-129 256,-110 314,-110 314,-129"/>
<text text-anchor="middle" x="285" y="-117" font-family="Helvetica,sans-Serif" font-size="10.00">SPIFFS.h</text>
</a>
</g>
</g>
<!-- Node5&#45;&gt;Node7 -->
<g id="edge6_Node000005_Node000007" class="edge">
<title>Node5&#45;&gt;Node7</title>
<g id="a_edge6_Node000005_Node000007"><a xlink:title=" ">
<path fill="none" stroke="#63b8ff" d="M346.27,-164.98C335.27,-157 318.58,-144.88 305.4,-135.31"/>
<polygon fill="#63b8ff" stroke="#63b8ff" points="307.09,-132.21 296.94,-129.17 302.98,-137.88 307.09,-132.21"/>
</a>
</g>
</g>
<!-- Node8 -->
<g id="Node000008" class="node">
<title>Node8</title>
<g id="a_Node000008"><a xlink:href="_bytes_8h.html" target="_top" xlink:title=" ">
<polygon fill="white" stroke="#666666" points="385.5,-129 332.5,-129 332.5,-110 385.5,-110 385.5,-129"/>
<text text-anchor="middle" x="359" y="-117" font-family="Helvetica,sans-Serif" font-size="10.00">Bytes.h</text>
</a>
</g>
</g>
<!-- Node5&#45;&gt;Node8 -->
<g id="edge7_Node000005_Node000008" class="edge">
<title>Node5&#45;&gt;Node8</title>
<g id="a_edge7_Node000005_Node000008"><a xlink:title=" ">
<path fill="none" stroke="#63b8ff" d="M358.17,-164.75C358.3,-157.8 358.48,-147.85 358.65,-139.13"/>
<polygon fill="#63b8ff" stroke="#63b8ff" points="362.15,-139.15 358.84,-129.09 355.15,-139.02 362.15,-139.15"/>
</a>
</g>
</g>
<!-- Node12 -->
<g id="Node000012" class="node">
<title>Node12</title>
<g id="a_Node000012"><a xlink:href="_logger_8h.html" target="_top" xlink:title=" ">
<polygon fill="white" stroke="#666666" points="468,-74 410,-74 410,-55 468,-55 468,-74"/>
<text text-anchor="middle" x="439" y="-62" font-family="Helvetica,sans-Serif" font-size="10.00">Logger.h</text>
</a>
</g>
</g>
<!-- Node5&#45;&gt;Node12 -->
<g id="edge17_Node000005_Node000012" class="edge">
<title>Node5&#45;&gt;Node12</title>
<g id="a_edge17_Node000005_Node000012"><a xlink:title=" ">
<path fill="none" stroke="#63b8ff" d="M365.34,-164.77C372.74,-155.89 384.4,-141.67 394,-129 405.69,-113.57 418.38,-95.53 427.3,-82.63"/>
<polygon fill="#63b8ff" stroke="#63b8ff" points="430.28,-84.48 433.06,-74.25 424.51,-80.51 430.28,-84.48"/>
</a>
</g>
</g>
<!-- Node9 -->
<g id="Node000009" class="node">
<title>Node9</title>
<g id="a_Node000009"><a xlink:href="_common_8h.html" target="_top" xlink:title=" ">
<polygon fill="white" stroke="#666666" points="70,-74 0,-74 0,-55 70,-55 70,-74"/>
<text text-anchor="middle" x="35" y="-62" font-family="Helvetica,sans-Serif" font-size="10.00">Common.h</text>
</a>
</g>
</g>
<!-- Node8&#45;&gt;Node9 -->
<g id="edge8_Node000008_Node000009" class="edge">
<title>Node8&#45;&gt;Node9</title>
<g id="a_edge8_Node000008_Node000009"><a xlink:title=" ">
<path fill="none" stroke="#63b8ff" d="M332.32,-111.93C329.19,-111.24 326.03,-110.58 323,-110 218.49,-89.99 188.79,-92.24 80.1,-74.11"/>
<polygon fill="#63b8ff" stroke="#63b8ff" points="80.48,-70.63 70.04,-72.41 79.32,-77.53 80.48,-70.63"/>
</a>
</g>
</g>
<!-- Node8&#45;&gt;Node12 -->
<g id="edge11_Node000008_Node000012" class="edge">
<title>Node8&#45;&gt;Node12</title>
<g id="a_edge11_Node000008_Node000012"><a xlink:title=" ">
<path fill="none" stroke="#63b8ff" d="M371.85,-109.98C384.14,-101.84 402.91,-89.41 417.48,-79.76"/>
<polygon fill="#63b8ff" stroke="#63b8ff" points="419.51,-82.61 425.91,-74.17 415.64,-76.78 419.51,-82.61"/>
</a>
</g>
</g>
<!-- Node13 -->
<g id="Node000013" class="node">
<title>Node13</title>
<g id="a_Node000013"><a xlink:title=" ">
<polygon fill="#e0e0e0" stroke="#999999" points="240,-74 176,-74 176,-55 240,-55 240,-74"/>
<text text-anchor="middle" x="208" y="-62" font-family="Helvetica,sans-Serif" font-size="10.00">WString.h</text>
</a>
</g>
</g>
<!-- Node8&#45;&gt;Node13 -->
<g id="edge13_Node000008_Node000013" class="edge">
<title>Node8&#45;&gt;Node13</title>
<g id="a_edge13_Node000008_Node000013"><a xlink:title=" ">
<path fill="none" stroke="#63b8ff" d="M334.74,-109.98C309.68,-101.19 270.37,-87.39 242.17,-77.49"/>
<polygon fill="#63b8ff" stroke="#63b8ff" points="243.3,-74.18 232.7,-74.17 240.98,-80.78 243.3,-74.18"/>
</a>
</g>
</g>
<!-- Node14 -->
<g id="Node000014" class="node">
<title>Node14</title>
<g id="a_Node000014"><a xlink:title=" ">
<polygon fill="#e0e0e0" stroke="#999999" points="308,-74 258,-74 258,-55 308,-55 308,-74"/>
<text text-anchor="middle" x="283" y="-62" font-family="Helvetica,sans-Serif" font-size="10.00">stdio.h</text>
</a>
</g>
</g>
<!-- Node8&#45;&gt;Node14 -->
<g id="edge14_Node000008_Node000014" class="edge">
<title>Node8&#45;&gt;Node14</title>
<g id="a_edge14_Node000008_Node000014"><a xlink:title=" ">
<path fill="none" stroke="#63b8ff" d="M346.79,-109.98C335.22,-101.92 317.62,-89.65 303.84,-80.03"/>
<polygon fill="#63b8ff" stroke="#63b8ff" points="305.64,-77.02 295.43,-74.17 301.63,-82.76 305.64,-77.02"/>
</a>
</g>
</g>
<!-- Node15 -->
<g id="Node000015" class="node">
<title>Node15</title>
<g id="a_Node000015"><a xlink:title=" ">
<polygon fill="#e0e0e0" stroke="#999999" points="391.5,-74 326.5,-74 326.5,-55 391.5,-55 391.5,-74"/>
<text text-anchor="middle" x="359" y="-62" font-family="Helvetica,sans-Serif" font-size="10.00">functional</text>
</a>
</g>
</g>
<!-- Node8&#45;&gt;Node15 -->
<g id="edge15_Node000008_Node000015" class="edge">
<title>Node8&#45;&gt;Node15</title>
<g id="a_edge15_Node000008_Node000015"><a xlink:title=" ">
<path fill="none" stroke="#63b8ff" d="M359,-109.75C359,-102.8 359,-92.85 359,-84.13"/>
<polygon fill="#63b8ff" stroke="#63b8ff" points="362.5,-84.09 359,-74.09 355.5,-84.09 362.5,-84.09"/>
</a>
</g>
</g>
<!-- Node16 -->
<g id="Node000016" class="node">
<title>Node16</title>
<g id="a_Node000016"><a xlink:title=" ">
<polygon fill="#e0e0e0" stroke="#999999" points="157.5,-74 88.5,-74 88.5,-55 157.5,-55 157.5,-74"/>
<text text-anchor="middle" x="123" y="-62" font-family="Helvetica,sans-Serif" font-size="10.00">type_traits</text>
</a>
</g>
</g>
<!-- Node8&#45;&gt;Node16 -->
<g id="edge16_Node000008_Node000016" class="edge">
<title>Node8&#45;&gt;Node16</title>
<g id="a_edge16_Node000008_Node000016"><a xlink:title=" ">
<path fill="none" stroke="#63b8ff" d="M332.27,-112.15C329.15,-111.42 326,-110.69 323,-110 269.62,-97.76 208.11,-84.15 167.56,-75.24"/>
<polygon fill="#63b8ff" stroke="#63b8ff" points="168.23,-71.81 157.72,-73.08 166.73,-78.64 168.23,-71.81"/>
</a>
</g>
</g>
<!-- Node10 -->
<g id="Node000010" class="node">
<title>Node10</title>
<g id="a_Node000010"><a xlink:title=" ">
<polygon fill="#e0e0e0" stroke="#999999" points="330,-19 272,-19 272,0 330,0 330,-19"/>
<text text-anchor="middle" x="301" y="-7" font-family="Helvetica,sans-Serif" font-size="10.00">memory</text>
</a>
</g>
</g>
<!-- Node9&#45;&gt;Node10 -->
<g id="edge9_Node000009_Node000010" class="edge">
<title>Node9&#45;&gt;Node10</title>
<g id="a_edge9_Node000009_Node000010"><a xlink:title=" ">
<path fill="none" stroke="#63b8ff" d="M70.05,-56.52C119.67,-46.63 210.13,-28.61 261.88,-18.29"/>
<polygon fill="#63b8ff" stroke="#63b8ff" points="262.88,-21.67 272,-16.28 261.51,-14.8 262.88,-21.67"/>
</a>
</g>
</g>
<!-- Node11 -->
<g id="Node000011" class="node">
<title>Node11</title>
<g id="a_Node000011"><a xlink:title=" ">
<polygon fill="#e0e0e0" stroke="#999999" points="57.5,-19 12.5,-19 12.5,0 57.5,0 57.5,-19"/>
<text text-anchor="middle" x="35" y="-7" font-family="Helvetica,sans-Serif" font-size="10.00">utility</text>
</a>
</g>
</g>
<!-- Node9&#45;&gt;Node11 -->
<g id="edge10_Node000009_Node000011" class="edge">
<title>Node9&#45;&gt;Node11</title>
<g id="a_edge10_Node000009_Node000011"><a xlink:title=" ">
<path fill="none" stroke="#63b8ff" d="M35,-54.75C35,-47.8 35,-37.85 35,-29.13"/>
<polygon fill="#63b8ff" stroke="#63b8ff" points="38.5,-29.09 35,-19.09 31.5,-29.09 38.5,-29.09"/>
</a>
</g>
</g>
<!-- Node12&#45;&gt;Node3 -->
<g id="edge12_Node000012_Node000003" class="edge">
<title>Node12&#45;&gt;Node3</title>
<g id="a_edge12_Node000012_Node000003"><a xlink:title=" ">
<path fill="none" stroke="#63b8ff" d="M466.31,-54.98C494.85,-46.09 539.83,-32.07 571.64,-22.15"/>
<polygon fill="#63b8ff" stroke="#63b8ff" points="572.97,-25.4 581.47,-19.08 570.88,-18.72 572.97,-25.4"/>
</a>
</g>
</g>
<!-- Node17&#45;&gt;Node3 -->
<g id="edge19_Node000017_Node000003" class="edge">
<title>Node17&#45;&gt;Node3</title>
<g id="a_edge19_Node000017_Node000003"><a xlink:title=" ">
<path fill="none" stroke="#63b8ff" d="M531.05,-164.98C551.91,-158.57 575.66,-147.58 590,-129 612.52,-99.82 612.99,-54.38 611.13,-29.09"/>
<polygon fill="#63b8ff" stroke="#63b8ff" points="614.6,-28.64 610.18,-19.02 607.63,-29.3 614.6,-28.64"/>
</a>
</g>
</g>
<!-- Node17&#45;&gt;Node8 -->
<g id="edge20_Node000017_Node000008" class="edge">
<title>Node17&#45;&gt;Node8</title>
<g id="a_edge20_Node000017_Node000008"><a xlink:title=" ">
<path fill="none" stroke="#63b8ff" d="M468.11,-164.98C446.92,-156.34 413.87,-142.87 389.7,-133.02"/>
<polygon fill="#63b8ff" stroke="#63b8ff" points="390.85,-129.7 380.27,-129.17 388.21,-136.19 390.85,-129.7"/>
</a>
</g>
</g>
<!-- Node17&#45;&gt;Node10 -->
<g id="edge23_Node000017_Node000010" class="edge">
<title>Node17&#45;&gt;Node10</title>
<g id="a_edge23_Node000017_Node000010"><a xlink:title=" ">
<path fill="none" stroke="#63b8ff" d="M491.13,-164.77C495.82,-143.22 504.56,-86.93 477,-55 459.34,-34.54 386.33,-21.52 340.07,-15.15"/>
<polygon fill="#63b8ff" stroke="#63b8ff" points="340.45,-11.67 330.07,-13.82 339.52,-18.61 340.45,-11.67"/>
</a>
</g>
</g>
<!-- Node17&#45;&gt;Node12 -->
<g id="edge21_Node000017_Node000012" class="edge">
<title>Node17&#45;&gt;Node12</title>
<g id="a_edge21_Node000017_Node000012"><a xlink:title=" ">
<path fill="none" stroke="#63b8ff" d="M484.91,-164.66C476.7,-146.93 458.09,-106.73 447.25,-83.32"/>
<polygon fill="#63b8ff" stroke="#63b8ff" points="450.39,-81.76 443.01,-74.16 444.03,-84.7 450.39,-81.76"/>
</a>
</g>
</g>
<!-- Node18 -->
<g id="Node000018" class="node">
<title>Node18</title>
<g id="a_Node000018"><a xlink:title=" ">
<polygon fill="#e0e0e0" stroke="#999999" points="580.5,-129 519.5,-129 519.5,-110 580.5,-110 580.5,-129"/>
<text text-anchor="middle" x="550" y="-117" font-family="Helvetica,sans-Serif" font-size="10.00">cn&#45;cbor.h</text>
</a>
</g>
</g>
<!-- Node17&#45;&gt;Node18 -->
<g id="edge22_Node000017_Node000018" class="edge">
<title>Node17&#45;&gt;Node18</title>
<g id="a_edge22_Node000017_Node000018"><a xlink:title=" ">
<path fill="none" stroke="#63b8ff" d="M498.8,-164.98C507.82,-157.15 521.41,-145.34 532.32,-135.86"/>
<polygon fill="#63b8ff" stroke="#63b8ff" points="534.77,-138.37 540.02,-129.17 530.18,-133.09 534.77,-138.37"/>
</a>
</g>
</g>
<!-- Node21&#45;&gt;Node8 -->
<g id="edge27_Node000021_Node000008" class="edge">
<title>Node21&#45;&gt;Node8</title>
<g id="a_edge27_Node000021_Node000008"><a xlink:title=" ">
<path fill="none" stroke="#63b8ff" d="M536.07,-219.93C507.39,-212.79 468.41,-201.02 437,-184 413.16,-171.09 389.55,-150.48 374.66,-136.26"/>
<polygon fill="#63b8ff" stroke="#63b8ff" points="376.94,-133.59 367.34,-129.11 372.04,-138.6 376.94,-133.59"/>
</a>
</g>
</g>
<!-- Node22 -->
<g id="Node000022" class="node">
<title>Node22</title>
<g id="a_Node000022"><a xlink:href="_c_o_s_e_8h.html" target="_top" xlink:title=" ">
<polygon fill="white" stroke="#666666" points="602,-184 550,-184 550,-165 602,-165 602,-184"/>
<text text-anchor="middle" x="576" y="-172" font-family="Helvetica,sans-Serif" font-size="10.00">COSE.h</text>
</a>
</g>
</g>
<!-- Node21&#45;&gt;Node22 -->
<g id="edge28_Node000021_Node000022" class="edge">
<title>Node21&#45;&gt;Node22</title>
<g id="a_edge28_Node000021_Node000022"><a xlink:title=" ">
<path fill="none" stroke="#63b8ff" d="M576,-219.75C576,-212.8 576,-202.85 576,-194.13"/>
<polygon fill="#63b8ff" stroke="#63b8ff" points="579.5,-194.09 576,-184.09 572.5,-194.09 579.5,-194.09"/>
</a>
</g>
</g>
</g>
</svg>
