<?xml version="1.0" encoding="UTF-8" standalone="no"?>
<!DOCTYPE svg PUBLIC "-//W3C//DTD SVG 1.1//EN"
 "http://www.w3.org/Graphics/SVG/1.1/DTD/svg11.dtd">
<!-- Generated by graphviz version 2.43.0 (0)
 -->
<!-- Title: Map.h Pages: 1 -->
<svg width="1145pt" height="577pt"
 viewBox="0.00 0.00 1144.50 577.00" xmlns="http://www.w3.org/2000/svg" xmlns:xlink="http://www.w3.org/1999/xlink">
<g id="graph0" class="graph" transform="scale(1 1) rotate(0) translate(4 573)">
<title>Map.h</title>
<!-- Node1 -->
<g id="Node000001" class="node">
<title>Node1</title>
<g id="a_Node000001"><a xlink:title=" ">
<polygon fill="#999999" stroke="#666666" points="723.5,-569 676.5,-569 676.5,-550 723.5,-550 723.5,-569"/>
<text text-anchor="middle" x="700" y="-557" font-family="Helvetica,sans-Serif" font-size="10.00">Map.h</text>
</a>
</g>
</g>
<!-- Node2 -->
<g id="Node000002" class="node">
<title>Node2</title>
<g id="a_Node000002"><a xlink:href="_data_channels_8h.html" target="_top" xlink:title=" ">
<polygon fill="white" stroke="#666666" points="653,-349 559,-349 559,-330 653,-330 653,-349"/>
<text text-anchor="middle" x="606" y="-337" font-family="Helvetica,sans-Serif" font-size="10.00">DataChannels.h</text>
</a>
</g>
</g>
<!-- Node1&#45;&gt;Node2 -->
<g id="edge1_Node000001_Node000002" class="edge">
<title>Node1&#45;&gt;Node2</title>
<g id="a_edge1_Node000001_Node000002"><a xlink:title=" ">
<path fill="none" stroke="#63b8ff" d="M692.32,-540.7C673.17,-496.27 623.78,-381.74 609.76,-349.22"/>
<polygon fill="#63b8ff" stroke="#63b8ff" points="689.14,-542.16 696.32,-549.95 695.57,-539.39 689.14,-542.16"/>
</a>
</g>
</g>
<!-- Node17 -->
<g id="Node000017" class="node">
<title>Node17</title>
<g id="a_Node000017"><a xlink:href="_register_8h.html" target="_top" xlink:title=" ">
<polygon fill="white" stroke="#666666" points="797.5,-514 732.5,-514 732.5,-495 797.5,-495 797.5,-514"/>
<text text-anchor="middle" x="765" y="-502" font-family="Helvetica,sans-Serif" font-size="10.00">Register.h</text>
</a>
</g>
</g>
<!-- Node1&#45;&gt;Node17 -->
<g id="edge21_Node000001_Node000017" class="edge">
<title>Node1&#45;&gt;Node17</title>
<g id="a_edge21_Node000001_Node000017"><a xlink:title=" ">
<path fill="none" stroke="#63b8ff" d="M718.27,-543.6C729.92,-534.11 744.6,-522.13 754.37,-514.17"/>
<polygon fill="#63b8ff" stroke="#63b8ff" points="715.98,-540.95 710.44,-549.98 720.41,-546.38 715.98,-540.95"/>
</a>
</g>
</g>
<!-- Node3 -->
<g id="Node000003" class="node">
<title>Node3</title>
<g id="a_Node000003"><a xlink:href="_data_channels_8cpp.html" target="_top" xlink:title=" ">
<polygon fill="white" stroke="#666666" points="658.5,-294 553.5,-294 553.5,-275 658.5,-275 658.5,-294"/>
<text text-anchor="middle" x="606" y="-282" font-family="Helvetica,sans-Serif" font-size="10.00">DataChannels.cpp</text>
</a>
</g>
</g>
<!-- Node2&#45;&gt;Node3 -->
<g id="edge2_Node000002_Node000003" class="edge">
<title>Node2&#45;&gt;Node3</title>
<g id="a_edge2_Node000002_Node000003"><a xlink:title=" ">
<path fill="none" stroke="#63b8ff" d="M606,-319.66C606,-310.93 606,-300.99 606,-294.09"/>
<polygon fill="#63b8ff" stroke="#63b8ff" points="602.5,-319.75 606,-329.75 609.5,-319.75 602.5,-319.75"/>
</a>
</g>
</g>
<!-- Node4 -->
<g id="Node000004" class="node">
<title>Node4</title>
<g id="a_Node000004"><a xlink:href="_event_bus_8h.html" target="_top" xlink:title=" ">
<polygon fill="white" stroke="#666666" points="531.5,-294 460.5,-294 460.5,-275 531.5,-275 531.5,-294"/>
<text text-anchor="middle" x="496" y="-282" font-family="Helvetica,sans-Serif" font-size="10.00">EventBus.h</text>
</a>
</g>
</g>
<!-- Node2&#45;&gt;Node4 -->
<g id="edge3_Node000002_Node000004" class="edge">
<title>Node2&#45;&gt;Node4</title>
<g id="a_edge3_Node000002_Node000004"><a xlink:title=" ">
<path fill="none" stroke="#63b8ff" d="M579.3,-325.63C559.03,-315.87 531.73,-302.71 513.99,-294.17"/>
<polygon fill="#63b8ff" stroke="#63b8ff" points="577.8,-328.8 588.33,-329.98 580.84,-322.49 577.8,-328.8"/>
</a>
</g>
</g>
<!-- Node5 -->
<g id="Node000005" class="node">
<title>Node5</title>
<g id="a_Node000005"><a xlink:href="_app_kit_8h.html" target="_top" xlink:title=" ">
<polygon fill="white" stroke="#666666" points="747,-129 689,-129 689,-110 747,-110 747,-129"/>
<text text-anchor="middle" x="718" y="-117" font-family="Helvetica,sans-Serif" font-size="10.00">AppKit.h</text>
</a>
</g>
</g>
<!-- Node4&#45;&gt;Node5 -->
<g id="edge4_Node000004_Node000005" class="edge">
<title>Node4&#45;&gt;Node5</title>
<g id="a_edge4_Node000004_Node000005"><a xlink:title=" ">
<path fill="none" stroke="#63b8ff" d="M541.73,-275.38C542.49,-275.25 543.25,-275.13 544,-275 594.81,-266.51 739.52,-278.15 773,-239 788.4,-220.99 742,-153.4 724.44,-129.19"/>
<polygon fill="#63b8ff" stroke="#63b8ff" points="540.9,-271.97 531.64,-277.11 542.08,-278.87 540.9,-271.97"/>
</a>
</g>
</g>
<!-- Node6 -->
<g id="Node000006" class="node">
<title>Node6</title>
<g id="a_Node000006"><a xlink:href="_uniot_8h.html" target="_top" xlink:title="Main API interface for the Uniot IoT platform.">
<polygon fill="white" stroke="#666666" points="544,-74 492,-74 492,-55 544,-55 544,-74"/>
<text text-anchor="middle" x="518" y="-62" font-family="Helvetica,sans-Serif" font-size="10.00">Uniot.h</text>
</a>
</g>
</g>
<!-- Node4&#45;&gt;Node6 -->
<g id="edge20_Node000004_Node000006" class="edge">
<title>Node4&#45;&gt;Node6</title>
<g id="a_edge20_Node000004_Node000006"><a xlink:title=" ">
<path fill="none" stroke="#63b8ff" d="M450.39,-278.65C424.85,-273.33 395.01,-262.22 379,-239 374.21,-232.05 378.54,-228.43 379,-220 381.67,-170.89 360.41,-148.51 391,-110 415.41,-79.26 462.48,-69.71 491.95,-66.76"/>
<polygon fill="#63b8ff" stroke="#63b8ff" points="449.82,-282.1 460.29,-280.47 451.09,-275.22 449.82,-282.1"/>
</a>
</g>
</g>
<!-- Node8 -->
<g id="Node000008" class="node">
<title>Node8</title>
<g id="a_Node000008"><a xlink:href="_event_bus_8cpp.html" target="_top" xlink:title=" ">
<polygon fill="white" stroke="#666666" points="764.5,-239 681.5,-239 681.5,-220 764.5,-220 764.5,-239"/>
<text text-anchor="middle" x="723" y="-227" font-family="Helvetica,sans-Serif" font-size="10.00">EventBus.cpp</text>
</a>
</g>
</g>
<!-- Node4&#45;&gt;Node8 -->
<g id="edge7_Node000004_Node000008" class="edge">
<title>Node4&#45;&gt;Node8</title>
<g id="a_edge7_Node000004_Node000008"><a xlink:title=" ">
<path fill="none" stroke="#63b8ff" d="M541.55,-272.87C584.14,-262.92 646.93,-248.26 686.36,-239.05"/>
<polygon fill="#63b8ff" stroke="#63b8ff" points="540.66,-269.48 531.72,-275.16 542.25,-276.3 540.66,-269.48"/>
</a>
</g>
</g>
<!-- Node9 -->
<g id="Node000009" class="node">
<title>Node9</title>
<g id="a_Node000009"><a xlink:href="_event_emitter_8cpp.html" target="_top" xlink:title=" ">
<polygon fill="white" stroke="#666666" points="100,-239 0,-239 0,-220 100,-220 100,-239"/>
<text text-anchor="middle" x="50" y="-227" font-family="Helvetica,sans-Serif" font-size="10.00">EventEmitter.cpp</text>
</a>
</g>
</g>
<!-- Node4&#45;&gt;Node9 -->
<g id="edge8_Node000004_Node000009" class="edge">
<title>Node4&#45;&gt;Node9</title>
<g id="a_edge8_Node000004_Node000009"><a xlink:title=" ">
<path fill="none" stroke="#63b8ff" d="M450.33,-278.68C377.89,-270.93 232.22,-254.96 109,-239 106.13,-238.63 103.18,-238.24 100.2,-237.83"/>
<polygon fill="#63b8ff" stroke="#63b8ff" points="450.16,-282.18 460.48,-279.76 450.9,-275.22 450.16,-282.18"/>
</a>
</g>
</g>
<!-- Node10 -->
<g id="Node000010" class="node">
<title>Node10</title>
<g id="a_Node000010"><a xlink:href="_event_entity_8cpp.html" target="_top" xlink:title=" ">
<polygon fill="white" stroke="#666666" points="210,-239 118,-239 118,-220 210,-220 210,-239"/>
<text text-anchor="middle" x="164" y="-227" font-family="Helvetica,sans-Serif" font-size="10.00">EventEntity.cpp</text>
</a>
</g>
</g>
<!-- Node4&#45;&gt;Node10 -->
<g id="edge9_Node000004_Node000010" class="edge">
<title>Node4&#45;&gt;Node10</title>
<g id="a_edge9_Node000004_Node000010"><a xlink:title=" ">
<path fill="none" stroke="#63b8ff" d="M450.4,-276.22C387.19,-266.13 273.59,-248 210.11,-237.86"/>
<polygon fill="#63b8ff" stroke="#63b8ff" points="450.04,-279.71 460.47,-277.83 451.15,-272.8 450.04,-279.71"/>
</a>
</g>
</g>
<!-- Node11 -->
<g id="Node000011" class="node">
<title>Node11</title>
<g id="a_Node000011"><a xlink:href="_event_listener_8cpp.html" target="_top" xlink:title=" ">
<polygon fill="white" stroke="#666666" points="331.5,-239 228.5,-239 228.5,-220 331.5,-220 331.5,-239"/>
<text text-anchor="middle" x="280" y="-227" font-family="Helvetica,sans-Serif" font-size="10.00">EventListener.cpp</text>
</a>
</g>
</g>
<!-- Node4&#45;&gt;Node11 -->
<g id="edge10_Node000004_Node000011" class="edge">
<title>Node4&#45;&gt;Node11</title>
<g id="a_edge10_Node000004_Node000011"><a xlink:title=" ">
<path fill="none" stroke="#63b8ff" d="M451.43,-272.56C410.98,-262.64 352.13,-248.2 314.98,-239.08"/>
<polygon fill="#63b8ff" stroke="#63b8ff" points="450.75,-276 461.3,-274.98 452.42,-269.2 450.75,-276"/>
</a>
</g>
</g>
<!-- Node12 -->
<g id="Node000012" class="node">
<title>Node12</title>
<g id="a_Node000012"><a xlink:href="_i_event_bus_connection_kit_8h.html" target="_top" xlink:title="Defines the interface for components that can connect to an EventBus.">
<polygon fill="white" stroke="#666666" points="663.5,-239 520.5,-239 520.5,-220 663.5,-220 663.5,-239"/>
<text text-anchor="middle" x="592" y="-227" font-family="Helvetica,sans-Serif" font-size="10.00">IEventBusConnectionKit.h</text>
</a>
</g>
</g>
<!-- Node4&#45;&gt;Node12 -->
<g id="edge11_Node000004_Node000012" class="edge">
<title>Node4&#45;&gt;Node12</title>
<g id="a_edge11_Node000004_Node000012"><a xlink:title=" ">
<path fill="none" stroke="#63b8ff" d="M515,-269.7C531.26,-260.04 554.37,-247.44 571.15,-239.17"/>
<polygon fill="#63b8ff" stroke="#63b8ff" points="513.03,-266.79 506.31,-274.98 516.67,-272.77 513.03,-266.79"/>
</a>
</g>
</g>
<!-- Node13 -->
<g id="Node000013" class="node">
<title>Node13</title>
<g id="a_Node000013"><a xlink:href="_network_scheduler_8h.html" target="_top" xlink:title="Complete WiFi network management and configuration system.">
<polygon fill="white" stroke="#666666" points="502,-239 388,-239 388,-220 502,-220 502,-239"/>
<text text-anchor="middle" x="445" y="-227" font-family="Helvetica,sans-Serif" font-size="10.00">NetworkScheduler.h</text>
</a>
</g>
</g>
<!-- Node4&#45;&gt;Node13 -->
<g id="edge14_Node000004_Node000013" class="edge">
<title>Node4&#45;&gt;Node13</title>
<g id="a_edge14_Node000004_Node000013"><a xlink:title=" ">
<path fill="none" stroke="#63b8ff" d="M480.62,-267.52C471.63,-258.18 460.64,-246.75 453.26,-239.09"/>
<polygon fill="#63b8ff" stroke="#63b8ff" points="478.12,-269.97 487.58,-274.75 483.17,-265.12 478.12,-269.97"/>
</a>
</g>
</g>
<!-- Node5&#45;&gt;Node6 -->
<g id="edge5_Node000005_Node000006" class="edge">
<title>Node5&#45;&gt;Node6</title>
<g id="a_edge5_Node000005_Node000006"><a xlink:title=" ">
<path fill="none" stroke="#63b8ff" d="M679.04,-108.18C639.27,-97.64 578.65,-81.57 544.25,-72.46"/>
<polygon fill="#63b8ff" stroke="#63b8ff" points="678.36,-111.61 688.92,-110.79 680.15,-104.85 678.36,-111.61"/>
</a>
</g>
</g>
<!-- Node7 -->
<g id="Node000007" class="node">
<title>Node7</title>
<g id="a_Node000007"><a xlink:href="_uniot_8cpp.html" target="_top" xlink:title=" ">
<polygon fill="white" stroke="#666666" points="549.5,-19 486.5,-19 486.5,0 549.5,0 549.5,-19"/>
<text text-anchor="middle" x="518" y="-7" font-family="Helvetica,sans-Serif" font-size="10.00">Uniot.cpp</text>
</a>
</g>
</g>
<!-- Node6&#45;&gt;Node7 -->
<g id="edge6_Node000006_Node000007" class="edge">
<title>Node6&#45;&gt;Node7</title>
<g id="a_edge6_Node000006_Node000007"><a xlink:title=" ">
<path fill="none" stroke="#63b8ff" d="M518,-44.66C518,-35.93 518,-25.99 518,-19.09"/>
<polygon fill="#63b8ff" stroke="#63b8ff" points="514.5,-44.75 518,-54.75 521.5,-44.75 514.5,-44.75"/>
</a>
</g>
</g>
<!-- Node12&#45;&gt;Node4 -->
<g id="edge13_Node000012_Node000004" class="edge">
<title>Node12&#45;&gt;Node4</title>
<g id="a_edge13_Node000012_Node000004"><a xlink:title=" ">
<path fill="none" stroke="#63b8ff" d="M572.7,-244.49C556.35,-254.18 533.24,-266.77 516.54,-274.98"/>
<polygon fill="#63b8ff" stroke="#63b8ff" points="574.72,-247.35 581.44,-239.17 571.08,-241.37 574.72,-247.35"/>
</a>
</g>
</g>
<!-- Node12&#45;&gt;Node5 -->
<g id="edge12_Node000012_Node000005" class="edge">
<title>Node12&#45;&gt;Node5</title>
<g id="a_edge12_Node000012_Node000005"><a xlink:title=" ">
<path fill="none" stroke="#63b8ff" d="M615.4,-214.51C628.44,-206.28 644.69,-195.29 658,-184 678.82,-166.34 700.02,-142.12 710.78,-129.3"/>
<polygon fill="#63b8ff" stroke="#63b8ff" points="613.22,-211.74 606.55,-219.98 616.9,-217.69 613.22,-211.74"/>
</a>
</g>
</g>
<!-- Node14 -->
<g id="Node000014" class="node">
<title>Node14</title>
<g id="a_Node000014"><a xlink:href="_m_q_t_t_kit_8h.html" target="_top" xlink:title=" ">
<polygon fill="white" stroke="#666666" points="484,-184 416,-184 416,-165 484,-165 484,-184"/>
<text text-anchor="middle" x="450" y="-172" font-family="Helvetica,sans-Serif" font-size="10.00">MQTTKit.h</text>
</a>
</g>
</g>
<!-- Node13&#45;&gt;Node14 -->
<g id="edge15_Node000013_Node000014" class="edge">
<title>Node13&#45;&gt;Node14</title>
<g id="a_edge15_Node000013_Node000014"><a xlink:title=" ">
<path fill="none" stroke="#63b8ff" d="M446.78,-209.66C447.6,-200.93 448.54,-190.99 449.19,-184.09"/>
<polygon fill="#63b8ff" stroke="#63b8ff" points="443.28,-209.46 445.83,-219.75 450.25,-210.12 443.28,-209.46"/>
</a>
</g>
</g>
<!-- Node16 -->
<g id="Node000016" class="node">
<title>Node16</title>
<g id="a_Node000016"><a xlink:href="_network_controller_8h.html" target="_top" xlink:title="High&#45;level network management controller with user interface.">
<polygon fill="white" stroke="#666666" points="649,-184 535,-184 535,-165 649,-165 649,-184"/>
<text text-anchor="middle" x="592" y="-172" font-family="Helvetica,sans-Serif" font-size="10.00">NetworkController.h</text>
</a>
</g>
</g>
<!-- Node13&#45;&gt;Node16 -->
<g id="edge18_Node000013_Node000016" class="edge">
<title>Node13&#45;&gt;Node16</title>
<g id="a_edge18_Node000013_Node000016"><a xlink:title=" ">
<path fill="none" stroke="#63b8ff" d="M478.14,-216.55C505.44,-206.71 543.5,-192.98 567.95,-184.17"/>
<polygon fill="#63b8ff" stroke="#63b8ff" points="476.84,-213.3 468.62,-219.98 479.21,-219.89 476.84,-213.3"/>
</a>
</g>
</g>
<!-- Node14&#45;&gt;Node5 -->
<g id="edge16_Node000014_Node000005" class="edge">
<title>Node14&#45;&gt;Node5</title>
<g id="a_edge16_Node000014_Node000005"><a xlink:title=" ">
<path fill="none" stroke="#63b8ff" d="M494.04,-164.79C549.14,-153.89 641.95,-135.54 688.91,-126.25"/>
<polygon fill="#63b8ff" stroke="#63b8ff" points="493.35,-161.36 484.21,-166.73 494.7,-168.23 493.35,-161.36"/>
</a>
</g>
</g>
<!-- Node15 -->
<g id="Node000015" class="node">
<title>Node15</title>
<g id="a_Node000015"><a xlink:href="_m_q_t_t_device_8cpp.html" target="_top" xlink:title=" ">
<polygon fill="white" stroke="#666666" points="499.5,-129 400.5,-129 400.5,-110 499.5,-110 499.5,-129"/>
<text text-anchor="middle" x="450" y="-117" font-family="Helvetica,sans-Serif" font-size="10.00">MQTTDevice.cpp</text>
</a>
</g>
</g>
<!-- Node14&#45;&gt;Node15 -->
<g id="edge17_Node000014_Node000015" class="edge">
<title>Node14&#45;&gt;Node15</title>
<g id="a_edge17_Node000014_Node000015"><a xlink:title=" ">
<path fill="none" stroke="#63b8ff" d="M450,-154.66C450,-145.93 450,-135.99 450,-129.09"/>
<polygon fill="#63b8ff" stroke="#63b8ff" points="446.5,-154.75 450,-164.75 453.5,-154.75 446.5,-154.75"/>
</a>
</g>
</g>
<!-- Node16&#45;&gt;Node5 -->
<g id="edge19_Node000016_Node000005" class="edge">
<title>Node16&#45;&gt;Node5</title>
<g id="a_edge19_Node000016_Node000005"><a xlink:title=" ">
<path fill="none" stroke="#63b8ff" d="M621.65,-161.03C644.95,-151.23 676.8,-137.83 697.39,-129.17"/>
<polygon fill="#63b8ff" stroke="#63b8ff" points="620.1,-157.88 612.24,-164.98 622.82,-164.33 620.1,-157.88"/>
</a>
</g>
</g>
<!-- Node18 -->
<g id="Node000018" class="node">
<title>Node18</title>
<g id="a_Node000018"><a xlink:href="_gpio_register_8h.html" target="_top" xlink:title=" ">
<polygon fill="white" stroke="#666666" points="809,-459 721,-459 721,-440 809,-440 809,-459"/>
<text text-anchor="middle" x="765" y="-447" font-family="Helvetica,sans-Serif" font-size="10.00">GpioRegister.h</text>
</a>
</g>
</g>
<!-- Node17&#45;&gt;Node18 -->
<g id="edge22_Node000017_Node000018" class="edge">
<title>Node17&#45;&gt;Node18</title>
<g id="a_edge22_Node000017_Node000018"><a xlink:title=" ">
<path fill="none" stroke="#63b8ff" d="M765,-484.66C765,-475.93 765,-465.99 765,-459.09"/>
<polygon fill="#63b8ff" stroke="#63b8ff" points="761.5,-484.75 765,-494.75 768.5,-484.75 761.5,-484.75"/>
</a>
</g>
</g>
<!-- Node27 -->
<g id="Node000027" class="node">
<title>Node27</title>
<g id="a_Node000027"><a xlink:href="_object_register_8h.html" target="_top" xlink:title=" ">
<polygon fill="white" stroke="#666666" points="923.5,-459 826.5,-459 826.5,-440 923.5,-440 923.5,-459"/>
<text text-anchor="middle" x="875" y="-447" font-family="Helvetica,sans-Serif" font-size="10.00">ObjectRegister.h</text>
</a>
</g>
</g>
<!-- Node17&#45;&gt;Node27 -->
<g id="edge34_Node000017_Node000027" class="edge">
<title>Node17&#45;&gt;Node27</title>
<g id="a_edge34_Node000017_Node000027"><a xlink:title=" ">
<path fill="none" stroke="#63b8ff" d="M791.7,-490.63C811.97,-480.87 839.27,-467.71 857.01,-459.17"/>
<polygon fill="#63b8ff" stroke="#63b8ff" points="790.16,-487.49 782.67,-494.98 793.2,-493.8 790.16,-487.49"/>
</a>
</g>
</g>
<!-- Node19 -->
<g id="Node000019" class="node">
<title>Node19</title>
<g id="a_Node000019"><a xlink:href="_register_manager_8h.html" target="_top" xlink:title=" ">
<polygon fill="white" stroke="#666666" points="929,-404 821,-404 821,-385 929,-385 929,-404"/>
<text text-anchor="middle" x="875" y="-392" font-family="Helvetica,sans-Serif" font-size="10.00">RegisterManager.h</text>
</a>
</g>
</g>
<!-- Node18&#45;&gt;Node19 -->
<g id="edge23_Node000018_Node000019" class="edge">
<title>Node18&#45;&gt;Node19</title>
<g id="a_edge23_Node000018_Node000019"><a xlink:title=" ">
<path fill="none" stroke="#63b8ff" d="M791.7,-435.63C811.97,-425.87 839.27,-412.71 857.01,-404.17"/>
<polygon fill="#63b8ff" stroke="#63b8ff" points="790.16,-432.49 782.67,-439.98 793.2,-438.8 790.16,-432.49"/>
</a>
</g>
</g>
<!-- Node20 -->
<g id="Node000020" class="node">
<title>Node20</title>
<g id="a_Node000020"><a xlink:href="_register_manager_proxy_8h.html" target="_top" xlink:title=" ">
<polygon fill="white" stroke="#666666" points="957.5,-349 822.5,-349 822.5,-330 957.5,-330 957.5,-349"/>
<text text-anchor="middle" x="890" y="-337" font-family="Helvetica,sans-Serif" font-size="10.00">RegisterManagerProxy.h</text>
</a>
</g>
</g>
<!-- Node19&#45;&gt;Node20 -->
<g id="edge24_Node000019_Node000020" class="edge">
<title>Node19&#45;&gt;Node20</title>
<g id="a_edge24_Node000019_Node000020"><a xlink:title=" ">
<path fill="none" stroke="#63b8ff" d="M880.25,-374.95C882.74,-366.15 885.6,-356.06 887.57,-349.09"/>
<polygon fill="#63b8ff" stroke="#63b8ff" points="876.83,-374.17 877.48,-384.75 883.57,-376.08 876.83,-374.17"/>
</a>
</g>
</g>
<!-- Node21 -->
<g id="Node000021" class="node">
<title>Node21</title>
<g id="a_Node000021"><a xlink:href="_primitive_expeditor_8h.html" target="_top" xlink:title=" ">
<polygon fill="white" stroke="#666666" points="955,-294 839,-294 839,-275 955,-275 955,-294"/>
<text text-anchor="middle" x="897" y="-282" font-family="Helvetica,sans-Serif" font-size="10.00">PrimitiveExpeditor.h</text>
</a>
</g>
</g>
<!-- Node20&#45;&gt;Node21 -->
<g id="edge25_Node000020_Node000021" class="edge">
<title>Node20&#45;&gt;Node21</title>
<g id="a_edge25_Node000020_Node000021"><a xlink:title=" ">
<path fill="none" stroke="#63b8ff" d="M892.49,-319.66C893.64,-310.93 894.95,-300.99 895.87,-294.09"/>
<polygon fill="#63b8ff" stroke="#63b8ff" points="889,-319.38 891.16,-329.75 895.94,-320.29 889,-319.38"/>
</a>
</g>
</g>
<!-- Node22 -->
<g id="Node000022" class="node">
<title>Node22</title>
<g id="a_Node000022"><a xlink:href="_lisp_primitives_8h.html" target="_top" xlink:title=" ">
<polygon fill="white" stroke="#666666" points="991.5,-239 896.5,-239 896.5,-220 991.5,-220 991.5,-239"/>
<text text-anchor="middle" x="944" y="-227" font-family="Helvetica,sans-Serif" font-size="10.00">LispPrimitives.h</text>
</a>
</g>
</g>
<!-- Node21&#45;&gt;Node22 -->
<g id="edge26_Node000021_Node000022" class="edge">
<title>Node21&#45;&gt;Node22</title>
<g id="a_edge26_Node000021_Node000022"><a xlink:title=" ">
<path fill="none" stroke="#63b8ff" d="M911.42,-267.24C919.66,-257.95 929.65,-246.68 936.38,-239.09"/>
<polygon fill="#63b8ff" stroke="#63b8ff" points="908.78,-264.94 904.76,-274.75 914.01,-269.59 908.78,-264.94"/>
</a>
</g>
</g>
<!-- Node24 -->
<g id="Node000024" class="node">
<title>Node24</title>
<g id="a_Node000024"><a xlink:href="_primitive_expeditor_8cpp.html" target="_top" xlink:title=" ">
<polygon fill="white" stroke="#666666" points="1136.5,-239 1009.5,-239 1009.5,-220 1136.5,-220 1136.5,-239"/>
<text text-anchor="middle" x="1073" y="-227" font-family="Helvetica,sans-Serif" font-size="10.00">PrimitiveExpeditor.cpp</text>
</a>
</g>
</g>
<!-- Node21&#45;&gt;Node24 -->
<g id="edge29_Node000021_Node000024" class="edge">
<title>Node21&#45;&gt;Node24</title>
<g id="a_edge29_Node000021_Node000024"><a xlink:title=" ">
<path fill="none" stroke="#63b8ff" d="M935,-272.06C967.9,-262.15 1014.74,-248.04 1044.5,-239.08"/>
<polygon fill="#63b8ff" stroke="#63b8ff" points="933.84,-268.75 925.28,-274.98 935.86,-275.45 933.84,-268.75"/>
</a>
</g>
</g>
<!-- Node25 -->
<g id="Node000025" class="node">
<title>Node25</title>
<g id="a_Node000025"><a xlink:href="un_lisp_8h.html" target="_top" xlink:title=" ">
<polygon fill="white" stroke="#666666" points="878.5,-239 821.5,-239 821.5,-220 878.5,-220 878.5,-239"/>
<text text-anchor="middle" x="850" y="-227" font-family="Helvetica,sans-Serif" font-size="10.00">unLisp.h</text>
</a>
</g>
</g>
<!-- Node21&#45;&gt;Node25 -->
<g id="edge30_Node000021_Node000025" class="edge">
<title>Node21&#45;&gt;Node25</title>
<g id="a_edge30_Node000021_Node000025"><a xlink:title=" ">
<path fill="none" stroke="#63b8ff" d="M882.58,-267.24C874.34,-257.95 864.35,-246.68 857.62,-239.09"/>
<polygon fill="#63b8ff" stroke="#63b8ff" points="879.99,-269.59 889.24,-274.75 885.22,-264.94 879.99,-269.59"/>
</a>
</g>
</g>
<!-- Node22&#45;&gt;Node5 -->
<g id="edge27_Node000022_Node000005" class="edge">
<title>Node22&#45;&gt;Node5</title>
<g id="a_edge27_Node000022_Node000005"><a xlink:title=" ">
<path fill="none" stroke="#63b8ff" d="M929.99,-212.08C916.88,-197.71 896.06,-177.26 874,-165 833.14,-142.29 779.67,-130.32 747.13,-124.71"/>
<polygon fill="#63b8ff" stroke="#63b8ff" points="927.52,-214.57 936.77,-219.74 932.76,-209.93 927.52,-214.57"/>
</a>
</g>
</g>
<!-- Node23 -->
<g id="Node000023" class="node">
<title>Node23</title>
<g id="a_Node000023"><a xlink:href="_lisp_primitives_8cpp.html" target="_top" xlink:title=" ">
<polygon fill="white" stroke="#666666" points="1050,-184 944,-184 944,-165 1050,-165 1050,-184"/>
<text text-anchor="middle" x="997" y="-172" font-family="Helvetica,sans-Serif" font-size="10.00">LispPrimitives.cpp</text>
</a>
</g>
</g>
<!-- Node22&#45;&gt;Node23 -->
<g id="edge28_Node000022_Node000023" class="edge">
<title>Node22&#45;&gt;Node23</title>
<g id="a_edge28_Node000022_Node000023"><a xlink:title=" ">
<path fill="none" stroke="#63b8ff" d="M959.98,-212.52C969.32,-203.18 980.75,-191.75 988.41,-184.09"/>
<polygon fill="#63b8ff" stroke="#63b8ff" points="957.35,-210.2 952.75,-219.75 962.3,-215.15 957.35,-210.2"/>
</a>
</g>
</g>
<!-- Node25&#45;&gt;Node5 -->
<g id="edge31_Node000025_Node000005" class="edge">
<title>Node25&#45;&gt;Node5</title>
<g id="a_edge31_Node000025_Node000005"><a xlink:title=" ">
<path fill="none" stroke="#63b8ff" d="M858.57,-210.38C863.68,-196.66 867.51,-178.01 858,-165 832.7,-130.42 780.32,-122.06 747.29,-120.4"/>
<polygon fill="#63b8ff" stroke="#63b8ff" points="855.28,-209.17 854.61,-219.74 861.73,-211.89 855.28,-209.17"/>
</a>
</g>
</g>
<!-- Node26 -->
<g id="Node000026" class="node">
<title>Node26</title>
<g id="a_Node000026"><a xlink:href="_lisp_device_8h.html" target="_top" xlink:title=" ">
<polygon fill="white" stroke="#666666" points="849.5,-184 770.5,-184 770.5,-165 849.5,-165 849.5,-184"/>
<text text-anchor="middle" x="810" y="-172" font-family="Helvetica,sans-Serif" font-size="10.00">LispDevice.h</text>
</a>
</g>
</g>
<!-- Node25&#45;&gt;Node26 -->
<g id="edge32_Node000025_Node000026" class="edge">
<title>Node25&#45;&gt;Node26</title>
<g id="a_edge32_Node000025_Node000026"><a xlink:title=" ">
<path fill="none" stroke="#63b8ff" d="M837.3,-211.67C830.37,-202.5 822.09,-191.52 816.48,-184.09"/>
<polygon fill="#63b8ff" stroke="#63b8ff" points="834.58,-213.87 843.39,-219.75 840.16,-209.66 834.58,-213.87"/>
</a>
</g>
</g>
<!-- Node26&#45;&gt;Node5 -->
<g id="edge33_Node000026_Node000005" class="edge">
<title>Node26&#45;&gt;Node5</title>
<g id="a_edge33_Node000026_Node000005"><a xlink:title=" ">
<path fill="none" stroke="#63b8ff" d="M786.51,-159.97C769.69,-150.28 747.55,-137.52 733.05,-129.17"/>
<polygon fill="#63b8ff" stroke="#63b8ff" points="784.81,-163.03 795.22,-164.98 788.3,-156.96 784.81,-163.03"/>
</a>
</g>
</g>
<!-- Node27&#45;&gt;Node19 -->
<g id="edge35_Node000027_Node000019" class="edge">
<title>Node27&#45;&gt;Node19</title>
<g id="a_edge35_Node000027_Node000019"><a xlink:title=" ">
<path fill="none" stroke="#63b8ff" d="M875,-429.66C875,-420.93 875,-410.99 875,-404.09"/>
<polygon fill="#63b8ff" stroke="#63b8ff" points="871.5,-429.75 875,-439.75 878.5,-429.75 871.5,-429.75"/>
</a>
</g>
</g>
</g>
</svg>
