<?xml version="1.0" encoding="UTF-8" standalone="no"?>
<!DOCTYPE svg PUBLIC "-//W3C//DTD SVG 1.1//EN"
 "http://www.w3.org/Graphics/SVG/1.1/DTD/svg11.dtd">
<!-- Generated by graphviz version 2.43.0 (0)
 -->
<!-- Title: NVSFS.h Pages: 1 -->
<svg width="507pt" height="192pt"
 viewBox="0.00 0.00 506.50 192.00" xmlns="http://www.w3.org/2000/svg" xmlns:xlink="http://www.w3.org/1999/xlink">
<g id="graph0" class="graph" transform="scale(1 1) rotate(0) translate(4 188)">
<title>NVSFS.h</title>
<!-- Node1 -->
<g id="Node000001" class="node">
<title>Node1</title>
<g id="a_Node000001"><a xlink:title=" ">
<polygon fill="#999999" stroke="#666666" points="214,-184 157,-184 157,-165 214,-165 214,-184"/>
<text text-anchor="middle" x="185.5" y="-172" font-family="Helvetica,sans-Serif" font-size="10.00">NVSFS.h</text>
</a>
</g>
</g>
<!-- Node2 -->
<g id="Node000002" class="node">
<title>Node2</title>
<g id="a_Node000002"><a xlink:href="_bytes_8h.html" target="_top" xlink:title=" ">
<polygon fill="white" stroke="#666666" points="212,-129 159,-129 159,-110 212,-110 212,-129"/>
<text text-anchor="middle" x="185.5" y="-117" font-family="Helvetica,sans-Serif" font-size="10.00">Bytes.h</text>
</a>
</g>
</g>
<!-- Node1&#45;&gt;Node2 -->
<g id="edge1_Node000001_Node000002" class="edge">
<title>Node1&#45;&gt;Node2</title>
<g id="a_edge1_Node000001_Node000002"><a xlink:title=" ">
<path fill="none" stroke="#63b8ff" d="M185.5,-164.75C185.5,-157.8 185.5,-147.85 185.5,-139.13"/>
<polygon fill="#63b8ff" stroke="#63b8ff" points="189,-139.09 185.5,-129.09 182,-139.09 189,-139.09"/>
</a>
</g>
</g>
<!-- Node6 -->
<g id="Node000006" class="node">
<title>Node6</title>
<g id="a_Node000006"><a xlink:href="_logger_8h.html" target="_top" xlink:title=" ">
<polygon fill="white" stroke="#666666" points="60.5,-74 2.5,-74 2.5,-55 60.5,-55 60.5,-74"/>
<text text-anchor="middle" x="31.5" y="-62" font-family="Helvetica,sans-Serif" font-size="10.00">Logger.h</text>
</a>
</g>
</g>
<!-- Node1&#45;&gt;Node6 -->
<g id="edge11_Node000001_Node000006" class="edge">
<title>Node1&#45;&gt;Node6</title>
<g id="a_edge11_Node000001_Node000006"><a xlink:title=" ">
<path fill="none" stroke="#63b8ff" d="M173.16,-164.84C146.8,-146.36 84.77,-102.86 52.24,-80.05"/>
<polygon fill="#63b8ff" stroke="#63b8ff" points="54.1,-77.07 43.9,-74.2 50.08,-82.8 54.1,-77.07"/>
</a>
</g>
</g>
<!-- Node12 -->
<g id="Node000012" class="node">
<title>Node12</title>
<g id="a_Node000012"><a xlink:title=" ">
<polygon fill="#e0e0e0" stroke="#999999" points="313,-129 230,-129 230,-110 313,-110 313,-129"/>
<text text-anchor="middle" x="271.5" y="-117" font-family="Helvetica,sans-Serif" font-size="10.00">Preferences.h</text>
</a>
</g>
</g>
<!-- Node1&#45;&gt;Node12 -->
<g id="edge12_Node000001_Node000012" class="edge">
<title>Node1&#45;&gt;Node12</title>
<g id="a_edge12_Node000001_Node000012"><a xlink:title=" ">
<path fill="none" stroke="#63b8ff" d="M199.32,-164.98C212.65,-156.77 233.08,-144.18 248.81,-134.49"/>
<polygon fill="#63b8ff" stroke="#63b8ff" points="250.75,-137.4 257.43,-129.17 247.08,-131.44 250.75,-137.4"/>
</a>
</g>
</g>
<!-- Node3 -->
<g id="Node000003" class="node">
<title>Node3</title>
<g id="a_Node000003"><a xlink:href="_common_8h.html" target="_top" xlink:title=" ">
<polygon fill="white" stroke="#666666" points="469.5,-74 399.5,-74 399.5,-55 469.5,-55 469.5,-74"/>
<text text-anchor="middle" x="434.5" y="-62" font-family="Helvetica,sans-Serif" font-size="10.00">Common.h</text>
</a>
</g>
</g>
<!-- Node2&#45;&gt;Node3 -->
<g id="edge2_Node000002_Node000003" class="edge">
<title>Node2&#45;&gt;Node3</title>
<g id="a_edge2_Node000002_Node000003"><a xlink:title=" ">
<path fill="none" stroke="#63b8ff" d="M212.22,-112.11C215.34,-111.39 218.49,-110.67 221.5,-110 279.37,-97.13 346.32,-83.31 389.48,-74.55"/>
<polygon fill="#63b8ff" stroke="#63b8ff" points="390.28,-77.96 399.39,-72.55 388.89,-71.1 390.28,-77.96"/>
</a>
</g>
</g>
<!-- Node2&#45;&gt;Node6 -->
<g id="edge5_Node000002_Node000006" class="edge">
<title>Node2&#45;&gt;Node6</title>
<g id="a_edge5_Node000002_Node000006"><a xlink:title=" ">
<path fill="none" stroke="#63b8ff" d="M160.76,-109.98C135.13,-101.16 94.87,-87.31 66.09,-77.41"/>
<polygon fill="#63b8ff" stroke="#63b8ff" points="67.03,-74.03 56.44,-74.08 64.75,-80.65 67.03,-74.03"/>
</a>
</g>
</g>
<!-- Node8 -->
<g id="Node000008" class="node">
<title>Node8</title>
<g id="a_Node000008"><a xlink:title=" ">
<polygon fill="#e0e0e0" stroke="#999999" points="142.5,-74 78.5,-74 78.5,-55 142.5,-55 142.5,-74"/>
<text text-anchor="middle" x="110.5" y="-62" font-family="Helvetica,sans-Serif" font-size="10.00">WString.h</text>
</a>
</g>
</g>
<!-- Node2&#45;&gt;Node8 -->
<g id="edge7_Node000002_Node000008" class="edge">
<title>Node2&#45;&gt;Node8</title>
<g id="a_edge7_Node000002_Node000008"><a xlink:title=" ">
<path fill="none" stroke="#63b8ff" d="M173.45,-109.98C162.04,-101.92 144.67,-89.65 131.07,-80.03"/>
<polygon fill="#63b8ff" stroke="#63b8ff" points="132.96,-77.08 122.77,-74.17 128.92,-82.8 132.96,-77.08"/>
</a>
</g>
</g>
<!-- Node9 -->
<g id="Node000009" class="node">
<title>Node9</title>
<g id="a_Node000009"><a xlink:title=" ">
<polygon fill="#e0e0e0" stroke="#999999" points="210.5,-74 160.5,-74 160.5,-55 210.5,-55 210.5,-74"/>
<text text-anchor="middle" x="185.5" y="-62" font-family="Helvetica,sans-Serif" font-size="10.00">stdio.h</text>
</a>
</g>
</g>
<!-- Node2&#45;&gt;Node9 -->
<g id="edge8_Node000002_Node000009" class="edge">
<title>Node2&#45;&gt;Node9</title>
<g id="a_edge8_Node000002_Node000009"><a xlink:title=" ">
<path fill="none" stroke="#63b8ff" d="M185.5,-109.75C185.5,-102.8 185.5,-92.85 185.5,-84.13"/>
<polygon fill="#63b8ff" stroke="#63b8ff" points="189,-84.09 185.5,-74.09 182,-84.09 189,-84.09"/>
</a>
</g>
</g>
<!-- Node10 -->
<g id="Node000010" class="node">
<title>Node10</title>
<g id="a_Node000010"><a xlink:title=" ">
<polygon fill="#e0e0e0" stroke="#999999" points="294,-74 229,-74 229,-55 294,-55 294,-74"/>
<text text-anchor="middle" x="261.5" y="-62" font-family="Helvetica,sans-Serif" font-size="10.00">functional</text>
</a>
</g>
</g>
<!-- Node2&#45;&gt;Node10 -->
<g id="edge9_Node000002_Node000010" class="edge">
<title>Node2&#45;&gt;Node10</title>
<g id="a_edge9_Node000002_Node000010"><a xlink:title=" ">
<path fill="none" stroke="#63b8ff" d="M197.71,-109.98C209.28,-101.92 226.88,-89.65 240.66,-80.03"/>
<polygon fill="#63b8ff" stroke="#63b8ff" points="242.87,-82.76 249.07,-74.17 238.86,-77.02 242.87,-82.76"/>
</a>
</g>
</g>
<!-- Node11 -->
<g id="Node000011" class="node">
<title>Node11</title>
<g id="a_Node000011"><a xlink:title=" ">
<polygon fill="#e0e0e0" stroke="#999999" points="381,-74 312,-74 312,-55 381,-55 381,-74"/>
<text text-anchor="middle" x="346.5" y="-62" font-family="Helvetica,sans-Serif" font-size="10.00">type_traits</text>
</a>
</g>
</g>
<!-- Node2&#45;&gt;Node11 -->
<g id="edge10_Node000002_Node000011" class="edge">
<title>Node2&#45;&gt;Node11</title>
<g id="a_edge10_Node000002_Node000011"><a xlink:title=" ">
<path fill="none" stroke="#63b8ff" d="M211.37,-109.98C238.28,-101.13 280.62,-87.19 310.73,-77.28"/>
<polygon fill="#63b8ff" stroke="#63b8ff" points="312.03,-80.53 320.43,-74.08 309.84,-73.88 312.03,-80.53"/>
</a>
</g>
</g>
<!-- Node4 -->
<g id="Node000004" class="node">
<title>Node4</title>
<g id="a_Node000004"><a xlink:title=" ">
<polygon fill="#e0e0e0" stroke="#999999" points="498.5,-19 440.5,-19 440.5,0 498.5,0 498.5,-19"/>
<text text-anchor="middle" x="469.5" y="-7" font-family="Helvetica,sans-Serif" font-size="10.00">memory</text>
</a>
</g>
</g>
<!-- Node3&#45;&gt;Node4 -->
<g id="edge3_Node000003_Node000004" class="edge">
<title>Node3&#45;&gt;Node4</title>
<g id="a_edge3_Node000003_Node000004"><a xlink:title=" ">
<path fill="none" stroke="#63b8ff" d="M440.28,-54.75C445.12,-47.42 452.18,-36.73 458.14,-27.7"/>
<polygon fill="#63b8ff" stroke="#63b8ff" points="461.24,-29.36 463.83,-19.09 455.4,-25.5 461.24,-29.36"/>
</a>
</g>
</g>
<!-- Node5 -->
<g id="Node000005" class="node">
<title>Node5</title>
<g id="a_Node000005"><a xlink:title=" ">
<polygon fill="#e0e0e0" stroke="#999999" points="422,-19 377,-19 377,0 422,0 422,-19"/>
<text text-anchor="middle" x="399.5" y="-7" font-family="Helvetica,sans-Serif" font-size="10.00">utility</text>
</a>
</g>
</g>
<!-- Node3&#45;&gt;Node5 -->
<g id="edge4_Node000003_Node000005" class="edge">
<title>Node3&#45;&gt;Node5</title>
<g id="a_edge4_Node000003_Node000005"><a xlink:title=" ">
<path fill="none" stroke="#63b8ff" d="M428.72,-54.75C423.88,-47.42 416.82,-36.73 410.86,-27.7"/>
<polygon fill="#63b8ff" stroke="#63b8ff" points="413.6,-25.5 405.17,-19.09 407.76,-29.36 413.6,-25.5"/>
</a>
</g>
</g>
<!-- Node7 -->
<g id="Node000007" class="node">
<title>Node7</title>
<g id="a_Node000007"><a xlink:title=" ">
<polygon fill="#e0e0e0" stroke="#999999" points="63,-19 0,-19 0,0 63,0 63,-19"/>
<text text-anchor="middle" x="31.5" y="-7" font-family="Helvetica,sans-Serif" font-size="10.00">Arduino.h</text>
</a>
</g>
</g>
<!-- Node6&#45;&gt;Node7 -->
<g id="edge6_Node000006_Node000007" class="edge">
<title>Node6&#45;&gt;Node7</title>
<g id="a_edge6_Node000006_Node000007"><a xlink:title=" ">
<path fill="none" stroke="#63b8ff" d="M31.5,-54.75C31.5,-47.8 31.5,-37.85 31.5,-29.13"/>
<polygon fill="#63b8ff" stroke="#63b8ff" points="35,-29.09 31.5,-19.09 28,-29.09 35,-29.09"/>
</a>
</g>
</g>
</g>
</svg>
