<?xml version="1.0" encoding="UTF-8" standalone="no"?>
<!DOCTYPE svg PUBLIC "-//W3C//DTD SVG 1.1//EN"
 "http://www.w3.org/Graphics/SVG/1.1/DTD/svg11.dtd">
<!-- Generated by graphviz version 2.43.0 (0)
 -->
<!-- Title: NetworkEvents.h Pages: 1 -->
<svg width="224pt" height="302pt"
 viewBox="0.00 0.00 223.50 302.00" xmlns="http://www.w3.org/2000/svg" xmlns:xlink="http://www.w3.org/1999/xlink">
<g id="graph0" class="graph" transform="scale(1 1) rotate(0) translate(4 298)">
<title>NetworkEvents.h</title>
<!-- Node1 -->
<g id="Node000001" class="node">
<title>Node1</title>
<g id="a_Node000001"><a xlink:title="Network event definitions for the Uniot event system.">
<polygon fill="#999999" stroke="#666666" points="154.5,-294 54.5,-294 54.5,-275 154.5,-275 154.5,-294"/>
<text text-anchor="middle" x="104.5" y="-282" font-family="Helvetica,sans-Serif" font-size="10.00">NetworkEvents.h</text>
</a>
</g>
</g>
<!-- Node2 -->
<g id="Node000002" class="node">
<title>Node2</title>
<g id="a_Node000002"><a xlink:href="_m_q_t_t_kit_8h.html" target="_top" xlink:title=" ">
<polygon fill="white" stroke="#666666" points="83.5,-184 15.5,-184 15.5,-165 83.5,-165 83.5,-184"/>
<text text-anchor="middle" x="49.5" y="-172" font-family="Helvetica,sans-Serif" font-size="10.00">MQTTKit.h</text>
</a>
</g>
</g>
<!-- Node1&#45;&gt;Node2 -->
<g id="edge1_Node000001_Node000002" class="edge">
<title>Node1&#45;&gt;Node2</title>
<g id="a_edge1_Node000001_Node000002"><a xlink:title=" ">
<path fill="none" stroke="#63b8ff" d="M72.47,-270.2C59.47,-263.01 45.81,-252.75 38.5,-239 29.04,-221.22 38.32,-197.05 44.67,-184.27"/>
<polygon fill="#63b8ff" stroke="#63b8ff" points="71.22,-273.49 81.72,-274.89 74.39,-267.25 71.22,-273.49"/>
</a>
</g>
</g>
<!-- Node7 -->
<g id="Node000007" class="node">
<title>Node7</title>
<g id="a_Node000007"><a xlink:href="_network_controller_8h.html" target="_top" xlink:title="High&#45;level network management controller with user interface.">
<polygon fill="white" stroke="#666666" points="215.5,-184 101.5,-184 101.5,-165 215.5,-165 215.5,-184"/>
<text text-anchor="middle" x="158.5" y="-172" font-family="Helvetica,sans-Serif" font-size="10.00">NetworkController.h</text>
</a>
</g>
</g>
<!-- Node1&#45;&gt;Node7 -->
<g id="edge6_Node000001_Node000007" class="edge">
<title>Node1&#45;&gt;Node7</title>
<g id="a_edge6_Node000001_Node000007"><a xlink:title=" ">
<path fill="none" stroke="#63b8ff" d="M136.53,-270.2C149.53,-263.01 163.19,-252.75 170.5,-239 179.98,-221.17 170.2,-197.02 163.55,-184.25"/>
<polygon fill="#63b8ff" stroke="#63b8ff" points="134.61,-267.25 127.28,-274.89 137.78,-273.49 134.61,-267.25"/>
</a>
</g>
</g>
<!-- Node8 -->
<g id="Node000008" class="node">
<title>Node8</title>
<g id="a_Node000008"><a xlink:href="_network_scheduler_8h.html" target="_top" xlink:title="Complete WiFi network management and configuration system.">
<polygon fill="white" stroke="#666666" points="161.5,-239 47.5,-239 47.5,-220 161.5,-220 161.5,-239"/>
<text text-anchor="middle" x="104.5" y="-227" font-family="Helvetica,sans-Serif" font-size="10.00">NetworkScheduler.h</text>
</a>
</g>
</g>
<!-- Node1&#45;&gt;Node8 -->
<g id="edge8_Node000001_Node000008" class="edge">
<title>Node1&#45;&gt;Node8</title>
<g id="a_edge8_Node000001_Node000008"><a xlink:title=" ">
<path fill="none" stroke="#63b8ff" d="M104.5,-264.66C104.5,-255.93 104.5,-245.99 104.5,-239.09"/>
<polygon fill="#63b8ff" stroke="#63b8ff" points="101,-264.75 104.5,-274.75 108,-264.75 101,-264.75"/>
</a>
</g>
</g>
<!-- Node3 -->
<g id="Node000003" class="node">
<title>Node3</title>
<g id="a_Node000003"><a xlink:href="_app_kit_8h.html" target="_top" xlink:title=" ">
<polygon fill="white" stroke="#666666" points="181.5,-129 123.5,-129 123.5,-110 181.5,-110 181.5,-129"/>
<text text-anchor="middle" x="152.5" y="-117" font-family="Helvetica,sans-Serif" font-size="10.00">AppKit.h</text>
</a>
</g>
</g>
<!-- Node2&#45;&gt;Node3 -->
<g id="edge2_Node000002_Node000003" class="edge">
<title>Node2&#45;&gt;Node3</title>
<g id="a_edge2_Node000002_Node000003"><a xlink:title=" ">
<path fill="none" stroke="#63b8ff" d="M75.02,-160.37C93.94,-150.63 119.2,-137.64 135.65,-129.17"/>
<polygon fill="#63b8ff" stroke="#63b8ff" points="73.34,-157.3 66.05,-164.98 76.54,-163.52 73.34,-157.3"/>
</a>
</g>
</g>
<!-- Node6 -->
<g id="Node000006" class="node">
<title>Node6</title>
<g id="a_Node000006"><a xlink:href="_m_q_t_t_device_8cpp.html" target="_top" xlink:title=" ">
<polygon fill="white" stroke="#666666" points="99,-129 0,-129 0,-110 99,-110 99,-129"/>
<text text-anchor="middle" x="49.5" y="-117" font-family="Helvetica,sans-Serif" font-size="10.00">MQTTDevice.cpp</text>
</a>
</g>
</g>
<!-- Node2&#45;&gt;Node6 -->
<g id="edge5_Node000002_Node000006" class="edge">
<title>Node2&#45;&gt;Node6</title>
<g id="a_edge5_Node000002_Node000006"><a xlink:title=" ">
<path fill="none" stroke="#63b8ff" d="M49.5,-154.66C49.5,-145.93 49.5,-135.99 49.5,-129.09"/>
<polygon fill="#63b8ff" stroke="#63b8ff" points="46,-154.75 49.5,-164.75 53,-154.75 46,-154.75"/>
</a>
</g>
</g>
<!-- Node4 -->
<g id="Node000004" class="node">
<title>Node4</title>
<g id="a_Node000004"><a xlink:href="_uniot_8h.html" target="_top" xlink:title="Main API interface for the Uniot IoT platform.">
<polygon fill="white" stroke="#666666" points="178.5,-74 126.5,-74 126.5,-55 178.5,-55 178.5,-74"/>
<text text-anchor="middle" x="152.5" y="-62" font-family="Helvetica,sans-Serif" font-size="10.00">Uniot.h</text>
</a>
</g>
</g>
<!-- Node3&#45;&gt;Node4 -->
<g id="edge3_Node000003_Node000004" class="edge">
<title>Node3&#45;&gt;Node4</title>
<g id="a_edge3_Node000003_Node000004"><a xlink:title=" ">
<path fill="none" stroke="#63b8ff" d="M152.5,-99.66C152.5,-90.93 152.5,-80.99 152.5,-74.09"/>
<polygon fill="#63b8ff" stroke="#63b8ff" points="149,-99.75 152.5,-109.75 156,-99.75 149,-99.75"/>
</a>
</g>
</g>
<!-- Node5 -->
<g id="Node000005" class="node">
<title>Node5</title>
<g id="a_Node000005"><a xlink:href="_uniot_8cpp.html" target="_top" xlink:title=" ">
<polygon fill="white" stroke="#666666" points="184,-19 121,-19 121,0 184,0 184,-19"/>
<text text-anchor="middle" x="152.5" y="-7" font-family="Helvetica,sans-Serif" font-size="10.00">Uniot.cpp</text>
</a>
</g>
</g>
<!-- Node4&#45;&gt;Node5 -->
<g id="edge4_Node000004_Node000005" class="edge">
<title>Node4&#45;&gt;Node5</title>
<g id="a_edge4_Node000004_Node000005"><a xlink:title=" ">
<path fill="none" stroke="#63b8ff" d="M152.5,-44.66C152.5,-35.93 152.5,-25.99 152.5,-19.09"/>
<polygon fill="#63b8ff" stroke="#63b8ff" points="149,-44.75 152.5,-54.75 156,-44.75 149,-44.75"/>
</a>
</g>
</g>
<!-- Node7&#45;&gt;Node3 -->
<g id="edge7_Node000007_Node000003" class="edge">
<title>Node7&#45;&gt;Node3</title>
<g id="a_edge7_Node000007_Node000003"><a xlink:title=" ">
<path fill="none" stroke="#63b8ff" d="M156.37,-154.66C155.38,-145.93 154.25,-135.99 153.47,-129.09"/>
<polygon fill="#63b8ff" stroke="#63b8ff" points="152.91,-155.21 157.51,-164.75 159.86,-154.42 152.91,-155.21"/>
</a>
</g>
</g>
<!-- Node8&#45;&gt;Node2 -->
<g id="edge9_Node000008_Node000002" class="edge">
<title>Node8&#45;&gt;Node2</title>
<g id="a_edge9_Node000008_Node000002"><a xlink:title=" ">
<path fill="none" stroke="#63b8ff" d="M88.21,-212.8C78.46,-203.41 66.45,-191.83 58.41,-184.09"/>
<polygon fill="#63b8ff" stroke="#63b8ff" points="85.79,-215.33 95.42,-219.75 90.65,-210.29 85.79,-215.33"/>
</a>
</g>
</g>
<!-- Node8&#45;&gt;Node7 -->
<g id="edge10_Node000008_Node000007" class="edge">
<title>Node8&#45;&gt;Node7</title>
<g id="a_edge10_Node000008_Node000007"><a xlink:title=" ">
<path fill="none" stroke="#63b8ff" d="M120.78,-212.52C130.3,-203.18 141.94,-191.75 149.75,-184.09"/>
<polygon fill="#63b8ff" stroke="#63b8ff" points="118.1,-210.25 113.42,-219.75 123.01,-215.24 118.1,-210.25"/>
</a>
</g>
</g>
</g>
</svg>
