<?xml version="1.0" encoding="UTF-8" standalone="no"?>
<!DOCTYPE svg PUBLIC "-//W3C//DTD SVG 1.1//EN"
 "http://www.w3.org/Graphics/SVG/1.1/DTD/svg11.dtd">
<!-- Generated by graphviz version 2.43.0 (0)
 -->
<!-- Title: ObjectRegisterRecord.h Pages: 1 -->
<svg width="464pt" height="522pt"
 viewBox="0.00 0.00 463.50 522.00" xmlns="http://www.w3.org/2000/svg" xmlns:xlink="http://www.w3.org/1999/xlink">
<g id="graph0" class="graph" transform="scale(1 1) rotate(0) translate(4 518)">
<title>ObjectRegisterRecord.h</title>
<!-- Node1 -->
<g id="Node000001" class="node">
<title>Node1</title>
<g id="a_Node000001"><a xlink:title=" ">
<polygon fill="#999999" stroke="#666666" points="311.5,-514 180.5,-514 180.5,-495 311.5,-495 311.5,-514"/>
<text text-anchor="middle" x="246" y="-502" font-family="Helvetica,sans-Serif" font-size="10.00">ObjectRegisterRecord.h</text>
</a>
</g>
</g>
<!-- Node2 -->
<g id="Node000002" class="node">
<title>Node2</title>
<g id="a_Node000002"><a xlink:href="_button_8h.html" target="_top" xlink:title=" ">
<polygon fill="white" stroke="#666666" points="192,-294 134,-294 134,-275 192,-275 192,-294"/>
<text text-anchor="middle" x="163" y="-282" font-family="Helvetica,sans-Serif" font-size="10.00">Button.h</text>
</a>
</g>
</g>
<!-- Node1&#45;&gt;Node2 -->
<g id="edge1_Node000001_Node000002" class="edge">
<title>Node1&#45;&gt;Node2</title>
<g id="a_edge1_Node000001_Node000002"><a xlink:title=" ">
<path fill="none" stroke="#63b8ff" d="M220.32,-489.57C208.9,-482.03 196.39,-471.66 189,-459 156.45,-403.23 159.98,-320.85 162.16,-294.17"/>
<polygon fill="#63b8ff" stroke="#63b8ff" points="218.78,-492.73 229.13,-494.99 222.45,-486.77 218.78,-492.73"/>
</a>
</g>
</g>
<!-- Node9 -->
<g id="Node000009" class="node">
<title>Node9</title>
<g id="a_Node000009"><a xlink:href="_object_register_8h.html" target="_top" xlink:title=" ">
<polygon fill="white" stroke="#666666" points="294.5,-459 197.5,-459 197.5,-440 294.5,-440 294.5,-459"/>
<text text-anchor="middle" x="246" y="-447" font-family="Helvetica,sans-Serif" font-size="10.00">ObjectRegister.h</text>
</a>
</g>
</g>
<!-- Node1&#45;&gt;Node9 -->
<g id="edge9_Node000001_Node000009" class="edge">
<title>Node1&#45;&gt;Node9</title>
<g id="a_edge9_Node000001_Node000009"><a xlink:title=" ">
<path fill="none" stroke="#63b8ff" d="M246,-484.66C246,-475.93 246,-465.99 246,-459.09"/>
<polygon fill="#63b8ff" stroke="#63b8ff" points="242.5,-484.75 246,-494.75 249.5,-484.75 242.5,-484.75"/>
</a>
</g>
</g>
<!-- Node16 -->
<g id="Node000016" class="node">
<title>Node16</title>
<g id="a_Node000016"><a xlink:href="_object_register_record_8cpp.html" target="_top" xlink:title=" ">
<polygon fill="white" stroke="#666666" points="455.5,-459 312.5,-459 312.5,-440 455.5,-440 455.5,-459"/>
<text text-anchor="middle" x="384" y="-447" font-family="Helvetica,sans-Serif" font-size="10.00">ObjectRegisterRecord.cpp</text>
</a>
</g>
</g>
<!-- Node1&#45;&gt;Node16 -->
<g id="edge19_Node000001_Node000016" class="edge">
<title>Node1&#45;&gt;Node16</title>
<g id="a_edge19_Node000001_Node000016"><a xlink:title=" ">
<path fill="none" stroke="#63b8ff" d="M277.79,-491.29C303.37,-481.47 338.67,-467.91 361.42,-459.17"/>
<polygon fill="#63b8ff" stroke="#63b8ff" points="276.25,-488.13 268.17,-494.98 278.76,-494.67 276.25,-488.13"/>
</a>
</g>
</g>
<!-- Node3 -->
<g id="Node000003" class="node">
<title>Node3</title>
<g id="a_Node000003"><a xlink:href="_lisp_primitives_8h.html" target="_top" xlink:title=" ">
<polygon fill="white" stroke="#666666" points="210.5,-239 115.5,-239 115.5,-220 210.5,-220 210.5,-239"/>
<text text-anchor="middle" x="163" y="-227" font-family="Helvetica,sans-Serif" font-size="10.00">LispPrimitives.h</text>
</a>
</g>
</g>
<!-- Node2&#45;&gt;Node3 -->
<g id="edge2_Node000002_Node000003" class="edge">
<title>Node2&#45;&gt;Node3</title>
<g id="a_edge2_Node000002_Node000003"><a xlink:title=" ">
<path fill="none" stroke="#63b8ff" d="M163,-264.66C163,-255.93 163,-245.99 163,-239.09"/>
<polygon fill="#63b8ff" stroke="#63b8ff" points="159.5,-264.75 163,-274.75 166.5,-264.75 159.5,-264.75"/>
</a>
</g>
</g>
<!-- Node8 -->
<g id="Node000008" class="node">
<title>Node8</title>
<g id="a_Node000008"><a xlink:href="_network_controller_8h.html" target="_top" xlink:title="High&#45;level network management controller with user interface.">
<polygon fill="white" stroke="#666666" points="114,-184 0,-184 0,-165 114,-165 114,-184"/>
<text text-anchor="middle" x="57" y="-172" font-family="Helvetica,sans-Serif" font-size="10.00">NetworkController.h</text>
</a>
</g>
</g>
<!-- Node2&#45;&gt;Node8 -->
<g id="edge7_Node000002_Node000008" class="edge">
<title>Node2&#45;&gt;Node8</title>
<g id="a_edge7_Node000002_Node000008"><a xlink:title=" ">
<path fill="none" stroke="#63b8ff" d="M141.67,-268.83C130.49,-260.67 116.9,-249.96 106,-239 88.33,-221.23 71.28,-197.05 62.72,-184.27"/>
<polygon fill="#63b8ff" stroke="#63b8ff" points="139.85,-271.83 150.02,-274.79 143.92,-266.13 139.85,-271.83"/>
</a>
</g>
</g>
<!-- Node4 -->
<g id="Node000004" class="node">
<title>Node4</title>
<g id="a_Node000004"><a xlink:href="_app_kit_8h.html" target="_top" xlink:title=" ">
<polygon fill="white" stroke="#666666" points="329,-129 271,-129 271,-110 329,-110 329,-129"/>
<text text-anchor="middle" x="300" y="-117" font-family="Helvetica,sans-Serif" font-size="10.00">AppKit.h</text>
</a>
</g>
</g>
<!-- Node3&#45;&gt;Node4 -->
<g id="edge3_Node000003_Node000004" class="edge">
<title>Node3&#45;&gt;Node4</title>
<g id="a_edge3_Node000003_Node000004"><a xlink:title=" ">
<path fill="none" stroke="#63b8ff" d="M193.73,-215.75C210.44,-207.97 230.93,-197.03 247,-184 267.3,-167.54 285.52,-142.39 294.36,-129.22"/>
<polygon fill="#63b8ff" stroke="#63b8ff" points="192.07,-212.65 184.39,-219.95 194.94,-219.04 192.07,-212.65"/>
</a>
</g>
</g>
<!-- Node7 -->
<g id="Node000007" class="node">
<title>Node7</title>
<g id="a_Node000007"><a xlink:href="_lisp_primitives_8cpp.html" target="_top" xlink:title=" ">
<polygon fill="white" stroke="#666666" points="238,-184 132,-184 132,-165 238,-165 238,-184"/>
<text text-anchor="middle" x="185" y="-172" font-family="Helvetica,sans-Serif" font-size="10.00">LispPrimitives.cpp</text>
</a>
</g>
</g>
<!-- Node3&#45;&gt;Node7 -->
<g id="edge6_Node000003_Node000007" class="edge">
<title>Node3&#45;&gt;Node7</title>
<g id="a_edge6_Node000003_Node000007"><a xlink:title=" ">
<path fill="none" stroke="#63b8ff" d="M170.58,-210.24C174.26,-201.37 178.51,-191.14 181.43,-184.09"/>
<polygon fill="#63b8ff" stroke="#63b8ff" points="167.23,-209.17 166.63,-219.75 173.7,-211.85 167.23,-209.17"/>
</a>
</g>
</g>
<!-- Node5 -->
<g id="Node000005" class="node">
<title>Node5</title>
<g id="a_Node000005"><a xlink:href="_uniot_8h.html" target="_top" xlink:title="Main API interface for the Uniot IoT platform.">
<polygon fill="white" stroke="#666666" points="326,-74 274,-74 274,-55 326,-55 326,-74"/>
<text text-anchor="middle" x="300" y="-62" font-family="Helvetica,sans-Serif" font-size="10.00">Uniot.h</text>
</a>
</g>
</g>
<!-- Node4&#45;&gt;Node5 -->
<g id="edge4_Node000004_Node000005" class="edge">
<title>Node4&#45;&gt;Node5</title>
<g id="a_edge4_Node000004_Node000005"><a xlink:title=" ">
<path fill="none" stroke="#63b8ff" d="M300,-99.66C300,-90.93 300,-80.99 300,-74.09"/>
<polygon fill="#63b8ff" stroke="#63b8ff" points="296.5,-99.75 300,-109.75 303.5,-99.75 296.5,-99.75"/>
</a>
</g>
</g>
<!-- Node6 -->
<g id="Node000006" class="node">
<title>Node6</title>
<g id="a_Node000006"><a xlink:href="_uniot_8cpp.html" target="_top" xlink:title=" ">
<polygon fill="white" stroke="#666666" points="331.5,-19 268.5,-19 268.5,0 331.5,0 331.5,-19"/>
<text text-anchor="middle" x="300" y="-7" font-family="Helvetica,sans-Serif" font-size="10.00">Uniot.cpp</text>
</a>
</g>
</g>
<!-- Node5&#45;&gt;Node6 -->
<g id="edge5_Node000005_Node000006" class="edge">
<title>Node5&#45;&gt;Node6</title>
<g id="a_edge5_Node000005_Node000006"><a xlink:title=" ">
<path fill="none" stroke="#63b8ff" d="M300,-44.66C300,-35.93 300,-25.99 300,-19.09"/>
<polygon fill="#63b8ff" stroke="#63b8ff" points="296.5,-44.75 300,-54.75 303.5,-44.75 296.5,-44.75"/>
</a>
</g>
</g>
<!-- Node8&#45;&gt;Node4 -->
<g id="edge8_Node000008_Node000004" class="edge">
<title>Node8&#45;&gt;Node4</title>
<g id="a_edge8_Node000008_Node000004"><a xlink:title=" ">
<path fill="none" stroke="#63b8ff" d="M105.88,-162.84C155.35,-152.05 230.17,-135.73 270.97,-126.83"/>
<polygon fill="#63b8ff" stroke="#63b8ff" points="105.07,-159.43 96.04,-164.98 106.56,-166.27 105.07,-159.43"/>
</a>
</g>
</g>
<!-- Node10 -->
<g id="Node000010" class="node">
<title>Node10</title>
<g id="a_Node000010"><a xlink:href="_register_manager_8h.html" target="_top" xlink:title=" ">
<polygon fill="white" stroke="#666666" points="310,-404 202,-404 202,-385 310,-385 310,-404"/>
<text text-anchor="middle" x="256" y="-392" font-family="Helvetica,sans-Serif" font-size="10.00">RegisterManager.h</text>
</a>
</g>
</g>
<!-- Node9&#45;&gt;Node10 -->
<g id="edge10_Node000009_Node000010" class="edge">
<title>Node9&#45;&gt;Node10</title>
<g id="a_edge10_Node000009_Node000010"><a xlink:title=" ">
<path fill="none" stroke="#63b8ff" d="M249.55,-429.66C251.2,-420.93 253.08,-410.99 254.38,-404.09"/>
<polygon fill="#63b8ff" stroke="#63b8ff" points="246.07,-429.27 247.65,-439.75 252.94,-430.57 246.07,-429.27"/>
</a>
</g>
</g>
<!-- Node11 -->
<g id="Node000011" class="node">
<title>Node11</title>
<g id="a_Node000011"><a xlink:href="_register_manager_proxy_8h.html" target="_top" xlink:title=" ">
<polygon fill="white" stroke="#666666" points="332.5,-349 197.5,-349 197.5,-330 332.5,-330 332.5,-349"/>
<text text-anchor="middle" x="265" y="-337" font-family="Helvetica,sans-Serif" font-size="10.00">RegisterManagerProxy.h</text>
</a>
</g>
</g>
<!-- Node10&#45;&gt;Node11 -->
<g id="edge11_Node000010_Node000011" class="edge">
<title>Node10&#45;&gt;Node11</title>
<g id="a_edge11_Node000010_Node000011"><a xlink:title=" ">
<path fill="none" stroke="#63b8ff" d="M259.2,-374.66C260.68,-365.93 262.37,-355.99 263.54,-349.09"/>
<polygon fill="#63b8ff" stroke="#63b8ff" points="255.71,-374.3 257.49,-384.75 262.61,-375.48 255.71,-374.3"/>
</a>
</g>
</g>
<!-- Node12 -->
<g id="Node000012" class="node">
<title>Node12</title>
<g id="a_Node000012"><a xlink:href="_primitive_expeditor_8h.html" target="_top" xlink:title=" ">
<polygon fill="white" stroke="#666666" points="338,-294 222,-294 222,-275 338,-275 338,-294"/>
<text text-anchor="middle" x="280" y="-282" font-family="Helvetica,sans-Serif" font-size="10.00">PrimitiveExpeditor.h</text>
</a>
</g>
</g>
<!-- Node11&#45;&gt;Node12 -->
<g id="edge12_Node000011_Node000012" class="edge">
<title>Node11&#45;&gt;Node12</title>
<g id="a_edge12_Node000011_Node000012"><a xlink:title=" ">
<path fill="none" stroke="#63b8ff" d="M270.25,-319.95C272.74,-311.15 275.6,-301.06 277.57,-294.09"/>
<polygon fill="#63b8ff" stroke="#63b8ff" points="266.83,-319.17 267.48,-329.75 273.57,-321.08 266.83,-319.17"/>
</a>
</g>
</g>
<!-- Node12&#45;&gt;Node3 -->
<g id="edge13_Node000012_Node000003" class="edge">
<title>Node12&#45;&gt;Node3</title>
<g id="a_edge13_Node000012_Node000003"><a xlink:title=" ">
<path fill="none" stroke="#63b8ff" d="M251.89,-270.77C230.31,-260.99 201.09,-247.75 182.14,-239.17"/>
<polygon fill="#63b8ff" stroke="#63b8ff" points="250.65,-274.05 261.2,-274.98 253.54,-267.67 250.65,-274.05"/>
</a>
</g>
</g>
<!-- Node13 -->
<g id="Node000013" class="node">
<title>Node13</title>
<g id="a_Node000013"><a xlink:href="_primitive_expeditor_8cpp.html" target="_top" xlink:title=" ">
<polygon fill="white" stroke="#666666" points="355.5,-239 228.5,-239 228.5,-220 355.5,-220 355.5,-239"/>
<text text-anchor="middle" x="292" y="-227" font-family="Helvetica,sans-Serif" font-size="10.00">PrimitiveExpeditor.cpp</text>
</a>
</g>
</g>
<!-- Node12&#45;&gt;Node13 -->
<g id="edge14_Node000012_Node000013" class="edge">
<title>Node12&#45;&gt;Node13</title>
<g id="a_edge14_Node000012_Node000013"><a xlink:title=" ">
<path fill="none" stroke="#63b8ff" d="M284.2,-264.95C286.19,-256.15 288.48,-246.06 290.06,-239.09"/>
<polygon fill="#63b8ff" stroke="#63b8ff" points="280.78,-264.22 281.98,-274.75 287.6,-265.77 280.78,-264.22"/>
</a>
</g>
</g>
<!-- Node14 -->
<g id="Node000014" class="node">
<title>Node14</title>
<g id="a_Node000014"><a xlink:href="un_lisp_8h.html" target="_top" xlink:title=" ">
<polygon fill="white" stroke="#666666" points="430.5,-239 373.5,-239 373.5,-220 430.5,-220 430.5,-239"/>
<text text-anchor="middle" x="402" y="-227" font-family="Helvetica,sans-Serif" font-size="10.00">unLisp.h</text>
</a>
</g>
</g>
<!-- Node12&#45;&gt;Node14 -->
<g id="edge15_Node000012_Node000014" class="edge">
<title>Node12&#45;&gt;Node14</title>
<g id="a_edge15_Node000012_Node000014"><a xlink:title=" ">
<path fill="none" stroke="#63b8ff" d="M309.01,-270.9C331.54,-261.11 362.2,-247.79 382.04,-239.17"/>
<polygon fill="#63b8ff" stroke="#63b8ff" points="307.38,-267.79 299.6,-274.98 310.17,-274.21 307.38,-267.79"/>
</a>
</g>
</g>
<!-- Node14&#45;&gt;Node4 -->
<g id="edge16_Node000014_Node000004" class="edge">
<title>Node14&#45;&gt;Node4</title>
<g id="a_edge16_Node000014_Node000004"><a xlink:title=" ">
<path fill="none" stroke="#63b8ff" d="M400.21,-209.52C398.06,-195.86 393.35,-177.67 383,-165 368.73,-147.52 345.73,-135.96 327.55,-129.01"/>
<polygon fill="#63b8ff" stroke="#63b8ff" points="396.77,-210.22 401.48,-219.72 403.72,-209.36 396.77,-210.22"/>
</a>
</g>
</g>
<!-- Node15 -->
<g id="Node000015" class="node">
<title>Node15</title>
<g id="a_Node000015"><a xlink:href="_lisp_device_8h.html" target="_top" xlink:title=" ">
<polygon fill="white" stroke="#666666" points="373.5,-184 294.5,-184 294.5,-165 373.5,-165 373.5,-184"/>
<text text-anchor="middle" x="334" y="-172" font-family="Helvetica,sans-Serif" font-size="10.00">LispDevice.h</text>
</a>
</g>
</g>
<!-- Node14&#45;&gt;Node15 -->
<g id="edge17_Node000014_Node000015" class="edge">
<title>Node14&#45;&gt;Node15</title>
<g id="a_edge17_Node000014_Node000015"><a xlink:title=" ">
<path fill="none" stroke="#63b8ff" d="M382.88,-213.6C370.7,-204.11 355.34,-192.13 345.12,-184.17"/>
<polygon fill="#63b8ff" stroke="#63b8ff" points="381.04,-216.6 391.07,-219.98 385.34,-211.08 381.04,-216.6"/>
</a>
</g>
</g>
<!-- Node15&#45;&gt;Node4 -->
<g id="edge18_Node000015_Node000004" class="edge">
<title>Node15&#45;&gt;Node4</title>
<g id="a_edge18_Node000015_Node000004"><a xlink:title=" ">
<path fill="none" stroke="#63b8ff" d="M322.84,-156.1C317.03,-147.04 310.18,-136.37 305.51,-129.09"/>
<polygon fill="#63b8ff" stroke="#63b8ff" points="320.04,-158.22 328.39,-164.75 325.93,-154.44 320.04,-158.22"/>
</a>
</g>
</g>
</g>
</svg>
