<?xml version="1.0" encoding="UTF-8" standalone="no"?>
<!DOCTYPE svg PUBLIC "-//W3C//DTD SVG 1.1//EN"
 "http://www.w3.org/Graphics/SVG/1.1/DTD/svg11.dtd">
<!-- Generated by graphviz version 2.43.0 (0)
 -->
<!-- Title: PrimitiveExpeditor.cpp Pages: 1 -->
<svg width="1224pt" height="522pt"
 viewBox="0.00 0.00 1224.00 522.00" xmlns="http://www.w3.org/2000/svg" xmlns:xlink="http://www.w3.org/1999/xlink">
<g id="graph0" class="graph" transform="scale(1 1) rotate(0) translate(4 518)">
<title>PrimitiveExpeditor.cpp</title>
<!-- Node1 -->
<g id="Node000001" class="node">
<title>Node1</title>
<g id="a_Node000001"><a xlink:title=" ">
<polygon fill="#999999" stroke="#666666" points="1158,-514 1031,-514 1031,-495 1158,-495 1158,-514"/>
<text text-anchor="middle" x="1094.5" y="-502" font-family="Helvetica,sans-Serif" font-size="10.00">PrimitiveExpeditor.cpp</text>
</a>
</g>
</g>
<!-- Node2 -->
<g id="Node000002" class="node">
<title>Node2</title>
<g id="a_Node000002"><a xlink:href="_primitive_expeditor_8h.html" target="_top" xlink:title=" ">
<polygon fill="white" stroke="#666666" points="1152.5,-459 1036.5,-459 1036.5,-440 1152.5,-440 1152.5,-459"/>
<text text-anchor="middle" x="1094.5" y="-447" font-family="Helvetica,sans-Serif" font-size="10.00">PrimitiveExpeditor.h</text>
</a>
</g>
</g>
<!-- Node1&#45;&gt;Node2 -->
<g id="edge1_Node000001_Node000002" class="edge">
<title>Node1&#45;&gt;Node2</title>
<g id="a_edge1_Node000001_Node000002"><a xlink:title=" ">
<path fill="none" stroke="#63b8ff" d="M1094.5,-494.75C1094.5,-487.8 1094.5,-477.85 1094.5,-469.13"/>
<polygon fill="#63b8ff" stroke="#63b8ff" points="1098,-469.09 1094.5,-459.09 1091,-469.09 1098,-469.09"/>
</a>
</g>
</g>
<!-- Node3 -->
<g id="Node000003" class="node">
<title>Node3</title>
<g id="a_Node000003"><a xlink:title=" ">
<polygon fill="#e0e0e0" stroke="#999999" points="485,-19 422,-19 422,0 485,0 485,-19"/>
<text text-anchor="middle" x="453.5" y="-7" font-family="Helvetica,sans-Serif" font-size="10.00">Arduino.h</text>
</a>
</g>
</g>
<!-- Node2&#45;&gt;Node3 -->
<g id="edge2_Node000002_Node000003" class="edge">
<title>Node2&#45;&gt;Node3</title>
<g id="a_edge2_Node000002_Node000003"><a xlink:title=" ">
<path fill="none" stroke="#63b8ff" d="M1099.23,-439.83C1108.57,-421.87 1128.5,-379.03 1128.5,-340.5 1128.5,-340.5 1128.5,-340.5 1128.5,-118.5 1128.5,8.46 896.53,-48.31 552.5,-19 533.68,-17.4 512.84,-15.61 495.16,-14.09"/>
<polygon fill="#63b8ff" stroke="#63b8ff" points="495.42,-10.6 485.15,-13.23 494.82,-17.57 495.42,-10.6"/>
</a>
</g>
</g>
<!-- Node4 -->
<g id="Node000004" class="node">
<title>Node4</title>
<g id="a_Node000004"><a xlink:href="_lisp_helper_8h.html" target="_top" xlink:title=" ">
<polygon fill="white" stroke="#666666" points="1100,-404 1023,-404 1023,-385 1100,-385 1100,-404"/>
<text text-anchor="middle" x="1061.5" y="-392" font-family="Helvetica,sans-Serif" font-size="10.00">LispHelper.h</text>
</a>
</g>
</g>
<!-- Node2&#45;&gt;Node4 -->
<g id="edge3_Node000002_Node000004" class="edge">
<title>Node2&#45;&gt;Node4</title>
<g id="a_edge3_Node000002_Node000004"><a xlink:title=" ">
<path fill="none" stroke="#63b8ff" d="M1089.05,-439.75C1084.49,-432.42 1077.83,-421.73 1072.21,-412.7"/>
<polygon fill="#63b8ff" stroke="#63b8ff" points="1075.1,-410.73 1066.85,-404.09 1069.16,-414.43 1075.1,-410.73"/>
</a>
</g>
</g>
<!-- Node6 -->
<g id="Node000006" class="node">
<title>Node6</title>
<g id="a_Node000006"><a xlink:href="_register_manager_proxy_8h.html" target="_top" xlink:title=" ">
<polygon fill="white" stroke="#666666" points="842,-404 707,-404 707,-385 842,-385 842,-404"/>
<text text-anchor="middle" x="774.5" y="-392" font-family="Helvetica,sans-Serif" font-size="10.00">RegisterManagerProxy.h</text>
</a>
</g>
</g>
<!-- Node2&#45;&gt;Node6 -->
<g id="edge5_Node000002_Node000006" class="edge">
<title>Node2&#45;&gt;Node6</title>
<g id="a_edge5_Node000002_Node000006"><a xlink:title=" ">
<path fill="none" stroke="#63b8ff" d="M1043.09,-439.98C986.72,-430.65 896.31,-415.67 836.17,-405.71"/>
<polygon fill="#63b8ff" stroke="#63b8ff" points="836.49,-402.22 826.05,-404.04 835.34,-409.13 836.49,-402.22"/>
</a>
</g>
</g>
<!-- Node30 -->
<g id="Node000030" class="node">
<title>Node30</title>
<g id="a_Node000030"><a xlink:title=" ">
<polygon fill="#e0e0e0" stroke="#999999" points="1216,-404 1157,-404 1157,-385 1216,-385 1216,-404"/>
<text text-anchor="middle" x="1186.5" y="-392" font-family="Helvetica,sans-Serif" font-size="10.00">setjmp.h</text>
</a>
</g>
</g>
<!-- Node2&#45;&gt;Node30 -->
<g id="edge46_Node000002_Node000030" class="edge">
<title>Node2&#45;&gt;Node30</title>
<g id="a_edge46_Node000002_Node000030"><a xlink:title=" ">
<path fill="none" stroke="#63b8ff" d="M1109.28,-439.98C1123.68,-431.69 1145.81,-418.94 1162.69,-409.22"/>
<polygon fill="#63b8ff" stroke="#63b8ff" points="1164.53,-412.19 1171.45,-404.17 1161.04,-406.13 1164.53,-412.19"/>
</a>
</g>
</g>
<!-- Node5 -->
<g id="Node000005" class="node">
<title>Node5</title>
<g id="a_Node000005"><a xlink:title=" ">
<polygon fill="#e0e0e0" stroke="#999999" points="1100,-349 1023,-349 1023,-330 1100,-330 1100,-349"/>
<text text-anchor="middle" x="1061.5" y="-337" font-family="Helvetica,sans-Serif" font-size="10.00">libminilisp.h</text>
</a>
</g>
</g>
<!-- Node4&#45;&gt;Node5 -->
<g id="edge4_Node000004_Node000005" class="edge">
<title>Node4&#45;&gt;Node5</title>
<g id="a_edge4_Node000004_Node000005"><a xlink:title=" ">
<path fill="none" stroke="#63b8ff" d="M1061.5,-384.75C1061.5,-377.8 1061.5,-367.85 1061.5,-359.13"/>
<polygon fill="#63b8ff" stroke="#63b8ff" points="1065,-359.09 1061.5,-349.09 1058,-359.09 1065,-359.09"/>
</a>
</g>
</g>
<!-- Node7 -->
<g id="Node000007" class="node">
<title>Node7</title>
<g id="a_Node000007"><a xlink:href="_register_manager_8h.html" target="_top" xlink:title=" ">
<polygon fill="white" stroke="#666666" points="746.5,-349 638.5,-349 638.5,-330 746.5,-330 746.5,-349"/>
<text text-anchor="middle" x="692.5" y="-337" font-family="Helvetica,sans-Serif" font-size="10.00">RegisterManager.h</text>
</a>
</g>
</g>
<!-- Node6&#45;&gt;Node7 -->
<g id="edge6_Node000006_Node000007" class="edge">
<title>Node6&#45;&gt;Node7</title>
<g id="a_edge6_Node000006_Node000007"><a xlink:title=" ">
<path fill="none" stroke="#63b8ff" d="M761.33,-384.98C748.73,-376.84 729.5,-364.41 714.56,-354.76"/>
<polygon fill="#63b8ff" stroke="#63b8ff" points="716.21,-351.66 705.91,-349.17 712.41,-357.54 716.21,-351.66"/>
</a>
</g>
</g>
<!-- Node8 -->
<g id="Node000008" class="node">
<title>Node8</title>
<g id="a_Node000008"><a xlink:href="_c_b_o_r_object_8h.html" target="_top" xlink:title=" ">
<polygon fill="white" stroke="#666666" points="1028,-239 943,-239 943,-220 1028,-220 1028,-239"/>
<text text-anchor="middle" x="985.5" y="-227" font-family="Helvetica,sans-Serif" font-size="10.00">CBORObject.h</text>
</a>
</g>
</g>
<!-- Node7&#45;&gt;Node8 -->
<g id="edge7_Node000007_Node000008" class="edge">
<title>Node7&#45;&gt;Node8</title>
<g id="a_edge7_Node000007_Node000008"><a xlink:title=" ">
<path fill="none" stroke="#63b8ff" d="M715.98,-329.84C767.97,-310.68 892.91,-264.63 952.63,-242.62"/>
<polygon fill="#63b8ff" stroke="#63b8ff" points="954.14,-245.79 962.31,-239.05 951.72,-239.22 954.14,-245.79"/>
</a>
</g>
</g>
<!-- Node19 -->
<g id="Node000019" class="node">
<title>Node19</title>
<g id="a_Node000019"><a xlink:href="_gpio_register_8h.html" target="_top" xlink:title=" ">
<polygon fill="white" stroke="#666666" points="238.5,-294 150.5,-294 150.5,-275 238.5,-275 238.5,-294"/>
<text text-anchor="middle" x="194.5" y="-282" font-family="Helvetica,sans-Serif" font-size="10.00">GpioRegister.h</text>
</a>
</g>
</g>
<!-- Node7&#45;&gt;Node19 -->
<g id="edge22_Node000007_Node000019" class="edge">
<title>Node7&#45;&gt;Node19</title>
<g id="a_edge22_Node000007_Node000019"><a xlink:title=" ">
<path fill="none" stroke="#63b8ff" d="M638.26,-332.73C542.43,-322.53 344.27,-301.44 248.56,-291.25"/>
<polygon fill="#63b8ff" stroke="#63b8ff" points="248.83,-287.76 238.52,-290.18 248.09,-294.72 248.83,-287.76"/>
</a>
</g>
</g>
<!-- Node27 -->
<g id="Node000027" class="node">
<title>Node27</title>
<g id="a_Node000027"><a xlink:href="_object_register_8h.html" target="_top" xlink:title=" ">
<polygon fill="white" stroke="#666666" points="660,-294 563,-294 563,-275 660,-275 660,-294"/>
<text text-anchor="middle" x="611.5" y="-282" font-family="Helvetica,sans-Serif" font-size="10.00">ObjectRegister.h</text>
</a>
</g>
</g>
<!-- Node7&#45;&gt;Node27 -->
<g id="edge38_Node000007_Node000027" class="edge">
<title>Node7&#45;&gt;Node27</title>
<g id="a_edge38_Node000007_Node000027"><a xlink:title=" ">
<path fill="none" stroke="#63b8ff" d="M679.49,-329.98C667.04,-321.84 648.04,-309.41 633.29,-299.76"/>
<polygon fill="#63b8ff" stroke="#63b8ff" points="635.04,-296.72 624.75,-294.17 631.2,-302.57 635.04,-296.72"/>
</a>
</g>
</g>
<!-- Node8&#45;&gt;Node3 -->
<g id="edge8_Node000008_Node000003" class="edge">
<title>Node8&#45;&gt;Node3</title>
<g id="a_edge8_Node000008_Node000003"><a xlink:title=" ">
<path fill="none" stroke="#63b8ff" d="M1002.66,-219.85C1015.81,-212.26 1033.23,-199.96 1042.5,-184 1059.11,-155.39 1068.77,-137.57 1050.5,-110 1015.84,-57.71 981.32,-70.38 920.5,-55 900.01,-49.82 605.77,-23.79 495.14,-14.12"/>
<polygon fill="#63b8ff" stroke="#63b8ff" points="495.29,-10.62 485.02,-13.24 494.68,-17.59 495.29,-10.62"/>
</a>
</g>
</g>
<!-- Node9 -->
<g id="Node000009" class="node">
<title>Node9</title>
<g id="a_Node000009"><a xlink:href="_bytes_8h.html" target="_top" xlink:title=" ">
<polygon fill="white" stroke="#666666" points="758,-184 705,-184 705,-165 758,-165 758,-184"/>
<text text-anchor="middle" x="731.5" y="-172" font-family="Helvetica,sans-Serif" font-size="10.00">Bytes.h</text>
</a>
</g>
</g>
<!-- Node8&#45;&gt;Node9 -->
<g id="edge9_Node000008_Node000009" class="edge">
<title>Node8&#45;&gt;Node9</title>
<g id="a_edge9_Node000008_Node000009"><a xlink:title=" ">
<path fill="none" stroke="#63b8ff" d="M942.6,-220.28C900.53,-212.11 834.33,-198.96 768.38,-184.36"/>
<polygon fill="#63b8ff" stroke="#63b8ff" points="768.75,-180.86 758.23,-182.1 767.23,-187.69 768.75,-180.86"/>
</a>
</g>
</g>
<!-- Node11 -->
<g id="Node000011" class="node">
<title>Node11</title>
<g id="a_Node000011"><a xlink:title=" ">
<polygon fill="#e0e0e0" stroke="#999999" points="911.5,-74 853.5,-74 853.5,-55 911.5,-55 911.5,-74"/>
<text text-anchor="middle" x="882.5" y="-62" font-family="Helvetica,sans-Serif" font-size="10.00">memory</text>
</a>
</g>
</g>
<!-- Node8&#45;&gt;Node11 -->
<g id="edge21_Node000008_Node000011" class="edge">
<title>Node8&#45;&gt;Node11</title>
<g id="a_edge21_Node000008_Node000011"><a xlink:title=" ">
<path fill="none" stroke="#63b8ff" d="M994.59,-219.7C1014.94,-198.93 1060.35,-145.91 1033.5,-110 1007.88,-75.74 957.13,-66.74 921.56,-64.92"/>
<polygon fill="#63b8ff" stroke="#63b8ff" points="921.63,-61.42 911.51,-64.57 921.38,-68.41 921.63,-61.42"/>
</a>
</g>
</g>
<!-- Node13 -->
<g id="Node000013" class="node">
<title>Node13</title>
<g id="a_Node000013"><a xlink:href="_logger_8h.html" target="_top" xlink:title=" ">
<polygon fill="white" stroke="#666666" points="1024.5,-129 966.5,-129 966.5,-110 1024.5,-110 1024.5,-129"/>
<text text-anchor="middle" x="995.5" y="-117" font-family="Helvetica,sans-Serif" font-size="10.00">Logger.h</text>
</a>
</g>
</g>
<!-- Node8&#45;&gt;Node13 -->
<g id="edge19_Node000008_Node000013" class="edge">
<title>Node8&#45;&gt;Node13</title>
<g id="a_edge19_Node000008_Node000013"><a xlink:title=" ">
<path fill="none" stroke="#63b8ff" d="M988.07,-219.73C990.55,-210.83 994.1,-196.59 995.5,-184 997.16,-169.07 997.05,-152.04 996.59,-139.38"/>
<polygon fill="#63b8ff" stroke="#63b8ff" points="1000.07,-138.98 996.1,-129.16 993.08,-139.32 1000.07,-138.98"/>
</a>
</g>
</g>
<!-- Node18 -->
<g id="Node000018" class="node">
<title>Node18</title>
<g id="a_Node000018"><a xlink:title=" ">
<polygon fill="#e0e0e0" stroke="#999999" points="986,-184 925,-184 925,-165 986,-165 986,-184"/>
<text text-anchor="middle" x="955.5" y="-172" font-family="Helvetica,sans-Serif" font-size="10.00">cn&#45;cbor.h</text>
</a>
</g>
</g>
<!-- Node8&#45;&gt;Node18 -->
<g id="edge20_Node000008_Node000018" class="edge">
<title>Node8&#45;&gt;Node18</title>
<g id="a_edge20_Node000008_Node000018"><a xlink:title=" ">
<path fill="none" stroke="#63b8ff" d="M980.55,-219.75C976.44,-212.49 970.47,-201.95 965.4,-192.98"/>
<polygon fill="#63b8ff" stroke="#63b8ff" points="968.33,-191.07 960.36,-184.09 962.24,-194.52 968.33,-191.07"/>
</a>
</g>
</g>
<!-- Node10 -->
<g id="Node000010" class="node">
<title>Node10</title>
<g id="a_Node000010"><a xlink:href="_common_8h.html" target="_top" xlink:title=" ">
<polygon fill="white" stroke="#666666" points="646.5,-129 576.5,-129 576.5,-110 646.5,-110 646.5,-129"/>
<text text-anchor="middle" x="611.5" y="-117" font-family="Helvetica,sans-Serif" font-size="10.00">Common.h</text>
</a>
</g>
</g>
<!-- Node9&#45;&gt;Node10 -->
<g id="edge10_Node000009_Node000010" class="edge">
<title>Node9&#45;&gt;Node10</title>
<g id="a_edge10_Node000009_Node000010"><a xlink:title=" ">
<path fill="none" stroke="#63b8ff" d="M712.22,-164.98C692.83,-156.42 662.69,-143.11 640.43,-133.28"/>
<polygon fill="#63b8ff" stroke="#63b8ff" points="641.69,-130.01 631.13,-129.17 638.86,-136.41 641.69,-130.01"/>
</a>
</g>
</g>
<!-- Node9&#45;&gt;Node13 -->
<g id="edge13_Node000009_Node000013" class="edge">
<title>Node9&#45;&gt;Node13</title>
<g id="a_edge13_Node000009_Node000013"><a xlink:title=" ">
<path fill="none" stroke="#63b8ff" d="M758.22,-166.86C761.01,-166.21 763.81,-165.58 766.5,-165 847.89,-147.46 871.23,-146.48 956.61,-129.12"/>
<polygon fill="#63b8ff" stroke="#63b8ff" points="957.38,-132.53 966.48,-127.1 955.98,-125.68 957.38,-132.53"/>
</a>
</g>
</g>
<!-- Node14 -->
<g id="Node000014" class="node">
<title>Node14</title>
<g id="a_Node000014"><a xlink:title=" ">
<polygon fill="#e0e0e0" stroke="#999999" points="766.5,-129 702.5,-129 702.5,-110 766.5,-110 766.5,-129"/>
<text text-anchor="middle" x="734.5" y="-117" font-family="Helvetica,sans-Serif" font-size="10.00">WString.h</text>
</a>
</g>
</g>
<!-- Node9&#45;&gt;Node14 -->
<g id="edge15_Node000009_Node000014" class="edge">
<title>Node9&#45;&gt;Node14</title>
<g id="a_edge15_Node000009_Node000014"><a xlink:title=" ">
<path fill="none" stroke="#63b8ff" d="M732,-164.75C732.39,-157.8 732.95,-147.85 733.45,-139.13"/>
<polygon fill="#63b8ff" stroke="#63b8ff" points="736.94,-139.27 734.01,-129.09 729.95,-138.88 736.94,-139.27"/>
</a>
</g>
</g>
<!-- Node15 -->
<g id="Node000015" class="node">
<title>Node15</title>
<g id="a_Node000015"><a xlink:title=" ">
<polygon fill="#e0e0e0" stroke="#999999" points="834.5,-129 784.5,-129 784.5,-110 834.5,-110 834.5,-129"/>
<text text-anchor="middle" x="809.5" y="-117" font-family="Helvetica,sans-Serif" font-size="10.00">stdio.h</text>
</a>
</g>
</g>
<!-- Node9&#45;&gt;Node15 -->
<g id="edge16_Node000009_Node000015" class="edge">
<title>Node9&#45;&gt;Node15</title>
<g id="a_edge16_Node000009_Node000015"><a xlink:title=" ">
<path fill="none" stroke="#63b8ff" d="M744.03,-164.98C755.9,-156.92 773.96,-144.65 788.11,-135.03"/>
<polygon fill="#63b8ff" stroke="#63b8ff" points="790.44,-137.69 796.74,-129.17 786.5,-131.9 790.44,-137.69"/>
</a>
</g>
</g>
<!-- Node16 -->
<g id="Node000016" class="node">
<title>Node16</title>
<g id="a_Node000016"><a xlink:title=" ">
<polygon fill="#e0e0e0" stroke="#999999" points="627,-19 562,-19 562,0 627,0 627,-19"/>
<text text-anchor="middle" x="594.5" y="-7" font-family="Helvetica,sans-Serif" font-size="10.00">functional</text>
</a>
</g>
</g>
<!-- Node9&#45;&gt;Node16 -->
<g id="edge17_Node000009_Node000016" class="edge">
<title>Node9&#45;&gt;Node16</title>
<g id="a_edge17_Node000009_Node000016"><a xlink:title=" ">
<path fill="none" stroke="#63b8ff" d="M724.19,-164.99C716.52,-156.05 704.12,-141.57 693.5,-129 662.82,-92.68 627.14,-49.81 608.11,-26.9"/>
<polygon fill="#63b8ff" stroke="#63b8ff" points="610.75,-24.61 601.67,-19.15 605.37,-29.08 610.75,-24.61"/>
</a>
</g>
</g>
<!-- Node17 -->
<g id="Node000017" class="node">
<title>Node17</title>
<g id="a_Node000017"><a xlink:title=" ">
<polygon fill="#e0e0e0" stroke="#999999" points="445,-129 376,-129 376,-110 445,-110 445,-129"/>
<text text-anchor="middle" x="410.5" y="-117" font-family="Helvetica,sans-Serif" font-size="10.00">type_traits</text>
</a>
</g>
</g>
<!-- Node9&#45;&gt;Node17 -->
<g id="edge18_Node000009_Node000017" class="edge">
<title>Node9&#45;&gt;Node17</title>
<g id="a_edge18_Node000009_Node000017"><a xlink:title=" ">
<path fill="none" stroke="#63b8ff" d="M705,-169.59C657.14,-162.45 552.87,-146.58 455.25,-129.26"/>
<polygon fill="#63b8ff" stroke="#63b8ff" points="455.67,-125.78 445.21,-127.47 454.44,-132.68 455.67,-125.78"/>
</a>
</g>
</g>
<!-- Node10&#45;&gt;Node11 -->
<g id="edge11_Node000010_Node000011" class="edge">
<title>Node10&#45;&gt;Node11</title>
<g id="a_edge11_Node000010_Node000011"><a xlink:title=" ">
<path fill="none" stroke="#63b8ff" d="M646.65,-111.63C697.27,-101.73 790.39,-83.51 843.21,-73.18"/>
<polygon fill="#63b8ff" stroke="#63b8ff" points="844.07,-76.58 853.22,-71.23 842.73,-69.71 844.07,-76.58"/>
</a>
</g>
</g>
<!-- Node12 -->
<g id="Node000012" class="node">
<title>Node12</title>
<g id="a_Node000012"><a xlink:title=" ">
<polygon fill="#e0e0e0" stroke="#999999" points="431,-74 386,-74 386,-55 431,-55 431,-74"/>
<text text-anchor="middle" x="408.5" y="-62" font-family="Helvetica,sans-Serif" font-size="10.00">utility</text>
</a>
</g>
</g>
<!-- Node10&#45;&gt;Node12 -->
<g id="edge12_Node000010_Node000012" class="edge">
<title>Node10&#45;&gt;Node12</title>
<g id="a_edge12_Node000010_Node000012"><a xlink:title=" ">
<path fill="none" stroke="#63b8ff" d="M578.88,-109.98C541.08,-100.12 479.14,-83.94 441.27,-74.06"/>
<polygon fill="#63b8ff" stroke="#63b8ff" points="441.83,-70.58 431.27,-71.45 440.06,-77.36 441.83,-70.58"/>
</a>
</g>
</g>
<!-- Node13&#45;&gt;Node3 -->
<g id="edge14_Node000013_Node000003" class="edge">
<title>Node13&#45;&gt;Node3</title>
<g id="a_edge14_Node000013_Node000003"><a xlink:title=" ">
<path fill="none" stroke="#63b8ff" d="M966.47,-111.93C963.44,-111.27 960.41,-110.61 957.5,-110 786.2,-73.94 581.31,-34.69 495.03,-18.33"/>
<polygon fill="#63b8ff" stroke="#63b8ff" points="495.58,-14.88 485.11,-16.45 494.28,-21.75 495.58,-14.88"/>
</a>
</g>
</g>
<!-- Node19&#45;&gt;Node3 -->
<g id="edge23_Node000019_Node000003" class="edge">
<title>Node19&#45;&gt;Node3</title>
<g id="a_edge23_Node000019_Node000003"><a xlink:title=" ">
<path fill="none" stroke="#63b8ff" d="M186.38,-274.75C171.09,-257.29 139.5,-216.32 139.5,-175.5 139.5,-175.5 139.5,-175.5 139.5,-118.5 139.5,-61.57 326.41,-28.2 411.82,-15.92"/>
<polygon fill="#63b8ff" stroke="#63b8ff" points="412.54,-19.35 421.95,-14.49 411.56,-12.42 412.54,-19.35"/>
</a>
</g>
</g>
<!-- Node20 -->
<g id="Node000020" class="node">
<title>Node20</title>
<g id="a_Node000020"><a xlink:href="_default_primitives_8h.html" target="_top" xlink:title="Defines string constants for Lisp primitive function names.">
<polygon fill="white" stroke="#666666" points="111,-239 0,-239 0,-220 111,-220 111,-239"/>
<text text-anchor="middle" x="55.5" y="-227" font-family="Helvetica,sans-Serif" font-size="10.00">DefaultPrimitives.h</text>
</a>
</g>
</g>
<!-- Node19&#45;&gt;Node20 -->
<g id="edge24_Node000019_Node000020" class="edge">
<title>Node19&#45;&gt;Node20</title>
<g id="a_edge24_Node000019_Node000020"><a xlink:title=" ">
<path fill="none" stroke="#63b8ff" d="M172.17,-274.98C149.3,-266.27 113.54,-252.63 87.64,-242.75"/>
<polygon fill="#63b8ff" stroke="#63b8ff" points="88.83,-239.46 78.24,-239.17 86.34,-246 88.83,-239.46"/>
</a>
</g>
</g>
<!-- Node21 -->
<g id="Node000021" class="node">
<title>Node21</title>
<g id="a_Node000021"><a xlink:href="_register_8h.html" target="_top" xlink:title=" ">
<polygon fill="white" stroke="#666666" points="281,-239 216,-239 216,-220 281,-220 281,-239"/>
<text text-anchor="middle" x="248.5" y="-227" font-family="Helvetica,sans-Serif" font-size="10.00">Register.h</text>
</a>
</g>
</g>
<!-- Node19&#45;&gt;Node21 -->
<g id="edge25_Node000019_Node000021" class="edge">
<title>Node19&#45;&gt;Node21</title>
<g id="a_edge25_Node000019_Node000021"><a xlink:title=" ">
<path fill="none" stroke="#63b8ff" d="M203.42,-274.75C211.28,-267.03 222.93,-255.6 232.42,-246.28"/>
<polygon fill="#63b8ff" stroke="#63b8ff" points="235.06,-248.59 239.75,-239.09 230.16,-243.6 235.06,-248.59"/>
</a>
</g>
</g>
<!-- Node21&#45;&gt;Node3 -->
<g id="edge26_Node000021_Node000003" class="edge">
<title>Node21&#45;&gt;Node3</title>
<g id="a_edge26_Node000021_Node000003"><a xlink:title=" ">
<path fill="none" stroke="#63b8ff" d="M241.61,-219.93C235.23,-211.4 226.19,-197.65 222.5,-184 206.91,-126.43 211.71,-90.69 259.5,-55 304.04,-21.74 369.21,-12.71 411.49,-10.59"/>
<polygon fill="#63b8ff" stroke="#63b8ff" points="411.87,-14.08 421.72,-10.19 411.59,-7.08 411.87,-14.08"/>
</a>
</g>
</g>
<!-- Node22 -->
<g id="Node000022" class="node">
<title>Node22</title>
<g id="a_Node000022"><a xlink:href="_array_8h.html" target="_top" xlink:title=" ">
<polygon fill="white" stroke="#666666" points="281.5,-184 231.5,-184 231.5,-165 281.5,-165 281.5,-184"/>
<text text-anchor="middle" x="256.5" y="-172" font-family="Helvetica,sans-Serif" font-size="10.00">Array.h</text>
</a>
</g>
</g>
<!-- Node21&#45;&gt;Node22 -->
<g id="edge27_Node000021_Node000022" class="edge">
<title>Node21&#45;&gt;Node22</title>
<g id="a_edge27_Node000021_Node000022"><a xlink:title=" ">
<path fill="none" stroke="#63b8ff" d="M249.82,-219.75C250.87,-212.8 252.37,-202.85 253.69,-194.13"/>
<polygon fill="#63b8ff" stroke="#63b8ff" points="257.17,-194.5 255.2,-184.09 250.25,-193.45 257.17,-194.5"/>
</a>
</g>
</g>
<!-- Node24 -->
<g id="Node000024" class="node">
<title>Node24</title>
<g id="a_Node000024"><a xlink:href="_map_8h.html" target="_top" xlink:title=" ">
<polygon fill="white" stroke="#666666" points="534,-184 487,-184 487,-165 534,-165 534,-184"/>
<text text-anchor="middle" x="510.5" y="-172" font-family="Helvetica,sans-Serif" font-size="10.00">Map.h</text>
</a>
</g>
</g>
<!-- Node21&#45;&gt;Node24 -->
<g id="edge32_Node000021_Node000024" class="edge">
<title>Node21&#45;&gt;Node24</title>
<g id="a_edge32_Node000021_Node000024"><a xlink:title=" ">
<path fill="none" stroke="#63b8ff" d="M281.15,-221.89C331.1,-211.79 425.99,-192.6 476.65,-182.35"/>
<polygon fill="#63b8ff" stroke="#63b8ff" points="477.65,-185.72 486.75,-180.3 476.26,-178.86 477.65,-185.72"/>
</a>
</g>
</g>
<!-- Node22&#45;&gt;Node3 -->
<g id="edge28_Node000022_Node000003" class="edge">
<title>Node22&#45;&gt;Node3</title>
<g id="a_edge28_Node000022_Node000003"><a xlink:title=" ">
<path fill="none" stroke="#63b8ff" d="M249.27,-164.69C239.99,-152.26 226.06,-128.98 234.5,-110 249.34,-76.65 263.54,-72.63 295.5,-55 332.09,-34.82 378.6,-23.15 411.66,-16.87"/>
<polygon fill="#63b8ff" stroke="#63b8ff" points="412.68,-20.25 421.89,-15.02 411.43,-13.36 412.68,-20.25"/>
</a>
</g>
</g>
<!-- Node22&#45;&gt;Node12 -->
<g id="edge31_Node000022_Node000012" class="edge">
<title>Node22&#45;&gt;Node12</title>
<g id="a_edge31_Node000022_Node000012"><a xlink:title=" ">
<path fill="none" stroke="#63b8ff" d="M268.68,-164.84C294.7,-146.36 355.92,-102.86 388.03,-80.05"/>
<polygon fill="#63b8ff" stroke="#63b8ff" points="390.14,-82.84 396.26,-74.2 386.08,-77.14 390.14,-82.84"/>
</a>
</g>
</g>
<!-- Node22&#45;&gt;Node17 -->
<g id="edge30_Node000022_Node000017" class="edge">
<title>Node22&#45;&gt;Node17</title>
<g id="a_edge30_Node000022_Node000017"><a xlink:title=" ">
<path fill="none" stroke="#63b8ff" d="M281.24,-164.98C306.87,-156.16 347.13,-142.31 375.91,-132.41"/>
<polygon fill="#63b8ff" stroke="#63b8ff" points="377.25,-135.65 385.56,-129.08 374.97,-129.03 377.25,-135.65"/>
</a>
</g>
</g>
<!-- Node23 -->
<g id="Node000023" class="node">
<title>Node23</title>
<g id="a_Node000023"><a xlink:title=" ">
<polygon fill="#e0e0e0" stroke="#999999" points="281,-129 244,-129 244,-110 281,-110 281,-129"/>
<text text-anchor="middle" x="262.5" y="-117" font-family="Helvetica,sans-Serif" font-size="10.00">new</text>
</a>
</g>
</g>
<!-- Node22&#45;&gt;Node23 -->
<g id="edge29_Node000022_Node000023" class="edge">
<title>Node22&#45;&gt;Node23</title>
<g id="a_edge29_Node000022_Node000023"><a xlink:title=" ">
<path fill="none" stroke="#63b8ff" d="M257.49,-164.75C258.28,-157.8 259.4,-147.85 260.39,-139.13"/>
<polygon fill="#63b8ff" stroke="#63b8ff" points="263.88,-139.42 261.53,-129.09 256.92,-138.63 263.88,-139.42"/>
</a>
</g>
</g>
<!-- Node24&#45;&gt;Node10 -->
<g id="edge33_Node000024_Node000010" class="edge">
<title>Node24&#45;&gt;Node10</title>
<g id="a_edge33_Node000024_Node000010"><a xlink:title=" ">
<path fill="none" stroke="#63b8ff" d="M526.73,-164.98C542.68,-156.61 567.28,-143.7 585.88,-133.95"/>
<polygon fill="#63b8ff" stroke="#63b8ff" points="587.75,-136.92 594.98,-129.17 584.5,-130.72 587.75,-136.92"/>
</a>
</g>
</g>
<!-- Node25 -->
<g id="Node000025" class="node">
<title>Node25</title>
<g id="a_Node000025"><a xlink:href="_iterable_queue_8h.html" target="_top" xlink:title=" ">
<polygon fill="white" stroke="#666666" points="558,-129 463,-129 463,-110 558,-110 558,-129"/>
<text text-anchor="middle" x="510.5" y="-117" font-family="Helvetica,sans-Serif" font-size="10.00">IterableQueue.h</text>
</a>
</g>
</g>
<!-- Node24&#45;&gt;Node25 -->
<g id="edge34_Node000024_Node000025" class="edge">
<title>Node24&#45;&gt;Node25</title>
<g id="a_edge34_Node000024_Node000025"><a xlink:title=" ">
<path fill="none" stroke="#63b8ff" d="M510.5,-164.75C510.5,-157.8 510.5,-147.85 510.5,-139.13"/>
<polygon fill="#63b8ff" stroke="#63b8ff" points="514,-139.09 510.5,-129.09 507,-139.09 514,-139.09"/>
</a>
</g>
</g>
<!-- Node26 -->
<g id="Node000026" class="node">
<title>Node26</title>
<g id="a_Node000026"><a xlink:href="_clear_queue_8h.html" target="_top" xlink:title=" ">
<polygon fill="white" stroke="#666666" points="566,-74 483,-74 483,-55 566,-55 566,-74"/>
<text text-anchor="middle" x="524.5" y="-62" font-family="Helvetica,sans-Serif" font-size="10.00">ClearQueue.h</text>
</a>
</g>
</g>
<!-- Node25&#45;&gt;Node26 -->
<g id="edge35_Node000025_Node000026" class="edge">
<title>Node25&#45;&gt;Node26</title>
<g id="a_edge35_Node000025_Node000026"><a xlink:title=" ">
<path fill="none" stroke="#63b8ff" d="M512.81,-109.75C514.67,-102.72 517.34,-92.62 519.65,-83.84"/>
<polygon fill="#63b8ff" stroke="#63b8ff" points="523.06,-84.65 522.23,-74.09 516.29,-82.86 523.06,-84.65"/>
</a>
</g>
</g>
<!-- Node26&#45;&gt;Node3 -->
<g id="edge36_Node000026_Node000003" class="edge">
<title>Node26&#45;&gt;Node3</title>
<g id="a_edge36_Node000026_Node000003"><a xlink:title=" ">
<path fill="none" stroke="#63b8ff" d="M513.09,-54.98C502.39,-47 486.16,-34.88 473.34,-25.31"/>
<polygon fill="#63b8ff" stroke="#63b8ff" points="475.22,-22.35 465.11,-19.17 471.03,-27.96 475.22,-22.35"/>
</a>
</g>
</g>
<!-- Node26&#45;&gt;Node16 -->
<g id="edge37_Node000026_Node000016" class="edge">
<title>Node26&#45;&gt;Node16</title>
<g id="a_edge37_Node000026_Node000016"><a xlink:title=" ">
<path fill="none" stroke="#63b8ff" d="M535.75,-54.98C546.3,-47 562.3,-34.88 574.94,-25.31"/>
<polygon fill="#63b8ff" stroke="#63b8ff" points="577.19,-28 583.05,-19.17 572.96,-22.42 577.19,-28"/>
</a>
</g>
</g>
<!-- Node27&#45;&gt;Node3 -->
<g id="edge39_Node000027_Node000003" class="edge">
<title>Node27&#45;&gt;Node3</title>
<g id="a_edge39_Node000027_Node000003"><a xlink:title=" ">
<path fill="none" stroke="#63b8ff" d="M562.98,-276.43C477.61,-262.62 309.5,-228.68 309.5,-175.5 309.5,-175.5 309.5,-175.5 309.5,-118.5 309.5,-66.75 369.76,-36.76 412.31,-22.03"/>
<polygon fill="#63b8ff" stroke="#63b8ff" points="413.5,-25.32 421.9,-18.86 411.31,-18.68 413.5,-25.32"/>
</a>
</g>
</g>
<!-- Node27&#45;&gt;Node10 -->
<g id="edge40_Node000027_Node000010" class="edge">
<title>Node27&#45;&gt;Node10</title>
<g id="a_edge40_Node000027_Node000010"><a xlink:title=" ">
<path fill="none" stroke="#63b8ff" d="M611.5,-274.74C611.5,-249.31 611.5,-175.08 611.5,-139.69"/>
<polygon fill="#63b8ff" stroke="#63b8ff" points="615,-139.31 611.5,-129.31 608,-139.31 615,-139.31"/>
</a>
</g>
</g>
<!-- Node27&#45;&gt;Node21 -->
<g id="edge45_Node000027_Node000021" class="edge">
<title>Node27&#45;&gt;Node21</title>
<g id="a_edge45_Node000027_Node000021"><a xlink:title=" ">
<path fill="none" stroke="#63b8ff" d="M562.96,-277.26C500.85,-269.14 389.99,-254.19 295.5,-239 294.04,-238.77 292.56,-238.52 291.06,-238.27"/>
<polygon fill="#63b8ff" stroke="#63b8ff" points="291.54,-234.8 281.09,-236.56 290.35,-241.7 291.54,-234.8"/>
</a>
</g>
</g>
<!-- Node28 -->
<g id="Node000028" class="node">
<title>Node28</title>
<g id="a_Node000028"><a xlink:href="_object_register_record_8h.html" target="_top" xlink:title=" ">
<polygon fill="white" stroke="#666666" points="907,-184 776,-184 776,-165 907,-165 907,-184"/>
<text text-anchor="middle" x="841.5" y="-172" font-family="Helvetica,sans-Serif" font-size="10.00">ObjectRegisterRecord.h</text>
</a>
</g>
</g>
<!-- Node27&#45;&gt;Node28 -->
<g id="edge41_Node000027_Node000028" class="edge">
<title>Node27&#45;&gt;Node28</title>
<g id="a_edge41_Node000027_Node000028"><a xlink:title=" ">
<path fill="none" stroke="#63b8ff" d="M629.93,-274.84C670.32,-255.88 766.8,-210.58 814.23,-188.31"/>
<polygon fill="#63b8ff" stroke="#63b8ff" points="815.73,-191.47 823.3,-184.05 812.76,-185.13 815.73,-191.47"/>
</a>
</g>
</g>
<!-- Node28&#45;&gt;Node13 -->
<g id="edge43_Node000028_Node000013" class="edge">
<title>Node28&#45;&gt;Node13</title>
<g id="a_edge43_Node000028_Node000013"><a xlink:title=" ">
<path fill="none" stroke="#63b8ff" d="M866.24,-164.98C891.87,-156.16 932.13,-142.31 960.91,-132.41"/>
<polygon fill="#63b8ff" stroke="#63b8ff" points="962.25,-135.65 970.56,-129.08 959.97,-129.03 962.25,-135.65"/>
</a>
</g>
</g>
<!-- Node28&#45;&gt;Node26 -->
<g id="edge42_Node000028_Node000026" class="edge">
<title>Node28&#45;&gt;Node26</title>
<g id="a_edge42_Node000028_Node000026"><a xlink:title=" ">
<path fill="none" stroke="#63b8ff" d="M845.05,-164.89C849.96,-151.42 856.82,-125.31 843.5,-110 839.14,-104.99 665.57,-82.91 576.34,-71.85"/>
<polygon fill="#63b8ff" stroke="#63b8ff" points="576.5,-68.35 566.15,-70.59 575.65,-75.29 576.5,-68.35"/>
</a>
</g>
</g>
<!-- Node29 -->
<g id="Node000029" class="node">
<title>Node29</title>
<g id="a_Node000029"><a xlink:href="_type_id_8h.html" target="_top" xlink:title=" ">
<polygon fill="white" stroke="#666666" points="948,-129 891,-129 891,-110 948,-110 948,-129"/>
<text text-anchor="middle" x="919.5" y="-117" font-family="Helvetica,sans-Serif" font-size="10.00">TypeId.h</text>
</a>
</g>
</g>
<!-- Node28&#45;&gt;Node29 -->
<g id="edge44_Node000028_Node000029" class="edge">
<title>Node28&#45;&gt;Node29</title>
<g id="a_edge44_Node000028_Node000029"><a xlink:title=" ">
<path fill="none" stroke="#63b8ff" d="M854.03,-164.98C865.9,-156.92 883.96,-144.65 898.11,-135.03"/>
<polygon fill="#63b8ff" stroke="#63b8ff" points="900.44,-137.69 906.74,-129.17 896.5,-131.9 900.44,-137.69"/>
</a>
</g>
</g>
</g>
</svg>
