<?xml version="1.0" encoding="UTF-8" standalone="no"?>
<!DOCTYPE svg PUBLIC "-//W3C//DTD SVG 1.1//EN"
 "http://www.w3.org/Graphics/SVG/1.1/DTD/svg11.dtd">
<!-- Generated by graphviz version 2.43.0 (0)
 -->
<!-- Title: RegisterManager.h Pages: 1 -->
<svg width="1188pt" height="357pt"
 viewBox="0.00 0.00 1188.00 357.00" xmlns="http://www.w3.org/2000/svg" xmlns:xlink="http://www.w3.org/1999/xlink">
<g id="graph0" class="graph" transform="scale(1 1) rotate(0) translate(4 353)">
<title>RegisterManager.h</title>
<!-- Node1 -->
<g id="Node000001" class="node">
<title>Node1</title>
<g id="a_Node000001"><a xlink:title=" ">
<polygon fill="#999999" stroke="#666666" points="820.5,-349 712.5,-349 712.5,-330 820.5,-330 820.5,-349"/>
<text text-anchor="middle" x="766.5" y="-337" font-family="Helvetica,sans-Serif" font-size="10.00">RegisterManager.h</text>
</a>
</g>
</g>
<!-- Node2 -->
<g id="Node000002" class="node">
<title>Node2</title>
<g id="a_Node000002"><a xlink:href="_c_b_o_r_object_8h.html" target="_top" xlink:title=" ">
<polygon fill="white" stroke="#666666" points="350,-239 265,-239 265,-220 350,-220 350,-239"/>
<text text-anchor="middle" x="307.5" y="-227" font-family="Helvetica,sans-Serif" font-size="10.00">CBORObject.h</text>
</a>
</g>
</g>
<!-- Node1&#45;&gt;Node2 -->
<g id="edge1_Node000001_Node000002" class="edge">
<title>Node1&#45;&gt;Node2</title>
<g id="a_edge1_Node000001_Node000002"><a xlink:title=" ">
<path fill="none" stroke="#63b8ff" d="M730.1,-329.94C647.33,-310.46 445.11,-262.88 353.7,-241.37"/>
<polygon fill="#63b8ff" stroke="#63b8ff" points="354.44,-237.95 343.9,-239.07 352.84,-244.76 354.44,-237.95"/>
</a>
</g>
</g>
<!-- Node14 -->
<g id="Node000014" class="node">
<title>Node14</title>
<g id="a_Node000014"><a xlink:href="_gpio_register_8h.html" target="_top" xlink:title=" ">
<polygon fill="white" stroke="#666666" points="1011.5,-294 923.5,-294 923.5,-275 1011.5,-275 1011.5,-294"/>
<text text-anchor="middle" x="967.5" y="-282" font-family="Helvetica,sans-Serif" font-size="10.00">GpioRegister.h</text>
</a>
</g>
</g>
<!-- Node1&#45;&gt;Node14 -->
<g id="edge16_Node000001_Node000014" class="edge">
<title>Node1&#45;&gt;Node14</title>
<g id="a_edge16_Node000001_Node000014"><a xlink:title=" ">
<path fill="none" stroke="#63b8ff" d="M798.79,-329.98C833.12,-320.93 887.56,-306.58 925.27,-296.64"/>
<polygon fill="#63b8ff" stroke="#63b8ff" points="926.18,-300.02 934.95,-294.08 924.39,-293.25 926.18,-300.02"/>
</a>
</g>
</g>
<!-- Node22 -->
<g id="Node000022" class="node">
<title>Node22</title>
<g id="a_Node000022"><a xlink:href="_object_register_8h.html" target="_top" xlink:title=" ">
<polygon fill="white" stroke="#666666" points="815,-294 718,-294 718,-275 815,-275 815,-294"/>
<text text-anchor="middle" x="766.5" y="-282" font-family="Helvetica,sans-Serif" font-size="10.00">ObjectRegister.h</text>
</a>
</g>
</g>
<!-- Node1&#45;&gt;Node22 -->
<g id="edge32_Node000001_Node000022" class="edge">
<title>Node1&#45;&gt;Node22</title>
<g id="a_edge32_Node000001_Node000022"><a xlink:title=" ">
<path fill="none" stroke="#63b8ff" d="M766.5,-329.75C766.5,-322.8 766.5,-312.85 766.5,-304.13"/>
<polygon fill="#63b8ff" stroke="#63b8ff" points="770,-304.09 766.5,-294.09 763,-304.09 770,-304.09"/>
</a>
</g>
</g>
<!-- Node3 -->
<g id="Node000003" class="node">
<title>Node3</title>
<g id="a_Node000003"><a xlink:title=" ">
<polygon fill="#e0e0e0" stroke="#999999" points="838,-19 775,-19 775,0 838,0 838,-19"/>
<text text-anchor="middle" x="806.5" y="-7" font-family="Helvetica,sans-Serif" font-size="10.00">Arduino.h</text>
</a>
</g>
</g>
<!-- Node2&#45;&gt;Node3 -->
<g id="edge2_Node000002_Node000003" class="edge">
<title>Node2&#45;&gt;Node3</title>
<g id="a_edge2_Node000002_Node000003"><a xlink:title=" ">
<path fill="none" stroke="#63b8ff" d="M275.31,-219.9C217.05,-202.81 103.93,-161.71 146.5,-110 225.11,-14.51 631.54,-9.09 764.41,-9.92"/>
<polygon fill="#63b8ff" stroke="#63b8ff" points="764.57,-13.42 774.59,-10 764.62,-6.42 764.57,-13.42"/>
</a>
</g>
</g>
<!-- Node4 -->
<g id="Node000004" class="node">
<title>Node4</title>
<g id="a_Node000004"><a xlink:href="_bytes_8h.html" target="_top" xlink:title=" ">
<polygon fill="white" stroke="#666666" points="306,-184 253,-184 253,-165 306,-165 306,-184"/>
<text text-anchor="middle" x="279.5" y="-172" font-family="Helvetica,sans-Serif" font-size="10.00">Bytes.h</text>
</a>
</g>
</g>
<!-- Node2&#45;&gt;Node4 -->
<g id="edge3_Node000002_Node000004" class="edge">
<title>Node2&#45;&gt;Node4</title>
<g id="a_edge3_Node000002_Node000004"><a xlink:title=" ">
<path fill="none" stroke="#63b8ff" d="M302.88,-219.75C299.04,-212.49 293.48,-201.95 288.74,-192.98"/>
<polygon fill="#63b8ff" stroke="#63b8ff" points="291.8,-191.3 284.04,-184.09 285.61,-194.57 291.8,-191.3"/>
</a>
</g>
</g>
<!-- Node6 -->
<g id="Node000006" class="node">
<title>Node6</title>
<g id="a_Node000006"><a xlink:title=" ">
<polygon fill="#e0e0e0" stroke="#999999" points="553.5,-74 495.5,-74 495.5,-55 553.5,-55 553.5,-74"/>
<text text-anchor="middle" x="524.5" y="-62" font-family="Helvetica,sans-Serif" font-size="10.00">memory</text>
</a>
</g>
</g>
<!-- Node2&#45;&gt;Node6 -->
<g id="edge15_Node000002_Node000006" class="edge">
<title>Node2&#45;&gt;Node6</title>
<g id="a_edge15_Node000002_Node000006"><a xlink:title=" ">
<path fill="none" stroke="#63b8ff" d="M315.61,-219.97C335.53,-199.35 388.95,-145.84 440.5,-110 457.94,-97.87 479.09,-86.69 495.79,-78.57"/>
<polygon fill="#63b8ff" stroke="#63b8ff" points="497.54,-81.61 505.06,-74.15 494.53,-75.29 497.54,-81.61"/>
</a>
</g>
</g>
<!-- Node8 -->
<g id="Node000008" class="node">
<title>Node8</title>
<g id="a_Node000008"><a xlink:href="_logger_8h.html" target="_top" xlink:title=" ">
<polygon fill="white" stroke="#666666" points="363.5,-129 305.5,-129 305.5,-110 363.5,-110 363.5,-129"/>
<text text-anchor="middle" x="334.5" y="-117" font-family="Helvetica,sans-Serif" font-size="10.00">Logger.h</text>
</a>
</g>
</g>
<!-- Node2&#45;&gt;Node8 -->
<g id="edge13_Node000002_Node000008" class="edge">
<title>Node2&#45;&gt;Node8</title>
<g id="a_edge13_Node000002_Node000008"><a xlink:title=" ">
<path fill="none" stroke="#63b8ff" d="M309.71,-219.66C314.1,-202.09 324.01,-162.45 329.89,-138.95"/>
<polygon fill="#63b8ff" stroke="#63b8ff" points="333.31,-139.71 332.34,-129.16 326.51,-138.01 333.31,-139.71"/>
</a>
</g>
</g>
<!-- Node13 -->
<g id="Node000013" class="node">
<title>Node13</title>
<g id="a_Node000013"><a xlink:title=" ">
<polygon fill="#e0e0e0" stroke="#999999" points="61,-184 0,-184 0,-165 61,-165 61,-184"/>
<text text-anchor="middle" x="30.5" y="-172" font-family="Helvetica,sans-Serif" font-size="10.00">cn&#45;cbor.h</text>
</a>
</g>
</g>
<!-- Node2&#45;&gt;Node13 -->
<g id="edge14_Node000002_Node000013" class="edge">
<title>Node2&#45;&gt;Node13</title>
<g id="a_edge14_Node000002_Node000013"><a xlink:title=" ">
<path fill="none" stroke="#63b8ff" d="M264.83,-220.33C212.04,-210.24 122.84,-193.17 71.05,-183.26"/>
<polygon fill="#63b8ff" stroke="#63b8ff" points="71.7,-179.82 61.22,-181.38 70.38,-186.69 71.7,-179.82"/>
</a>
</g>
</g>
<!-- Node5 -->
<g id="Node000005" class="node">
<title>Node5</title>
<g id="a_Node000005"><a xlink:href="_common_8h.html" target="_top" xlink:title=" ">
<polygon fill="white" stroke="#666666" points="603.5,-129 533.5,-129 533.5,-110 603.5,-110 603.5,-129"/>
<text text-anchor="middle" x="568.5" y="-117" font-family="Helvetica,sans-Serif" font-size="10.00">Common.h</text>
</a>
</g>
</g>
<!-- Node4&#45;&gt;Node5 -->
<g id="edge4_Node000004_Node000005" class="edge">
<title>Node4&#45;&gt;Node5</title>
<g id="a_edge4_Node000004_Node000005"><a xlink:title=" ">
<path fill="none" stroke="#63b8ff" d="M306.23,-168.68C349.46,-160.88 437.68,-144.9 523.25,-129.04"/>
<polygon fill="#63b8ff" stroke="#63b8ff" points="523.94,-132.47 533.13,-127.2 522.66,-125.59 523.94,-132.47"/>
</a>
</g>
</g>
<!-- Node4&#45;&gt;Node8 -->
<g id="edge7_Node000004_Node000008" class="edge">
<title>Node4&#45;&gt;Node8</title>
<g id="a_edge7_Node000004_Node000008"><a xlink:title=" ">
<path fill="none" stroke="#63b8ff" d="M288.58,-164.75C296.59,-157.03 308.46,-145.6 318.12,-136.28"/>
<polygon fill="#63b8ff" stroke="#63b8ff" points="320.81,-138.55 325.59,-129.09 315.96,-133.51 320.81,-138.55"/>
</a>
</g>
</g>
<!-- Node9 -->
<g id="Node000009" class="node">
<title>Node9</title>
<g id="a_Node000009"><a xlink:title=" ">
<polygon fill="#e0e0e0" stroke="#999999" points="287.5,-129 223.5,-129 223.5,-110 287.5,-110 287.5,-129"/>
<text text-anchor="middle" x="255.5" y="-117" font-family="Helvetica,sans-Serif" font-size="10.00">WString.h</text>
</a>
</g>
</g>
<!-- Node4&#45;&gt;Node9 -->
<g id="edge9_Node000004_Node000009" class="edge">
<title>Node4&#45;&gt;Node9</title>
<g id="a_edge9_Node000004_Node000009"><a xlink:title=" ">
<path fill="none" stroke="#63b8ff" d="M275.54,-164.75C272.29,-157.57 267.58,-147.18 263.55,-138.27"/>
<polygon fill="#63b8ff" stroke="#63b8ff" points="266.7,-136.75 259.39,-129.09 260.33,-139.64 266.7,-136.75"/>
</a>
</g>
</g>
<!-- Node10 -->
<g id="Node000010" class="node">
<title>Node10</title>
<g id="a_Node000010"><a xlink:title=" ">
<polygon fill="#e0e0e0" stroke="#999999" points="205.5,-129 155.5,-129 155.5,-110 205.5,-110 205.5,-129"/>
<text text-anchor="middle" x="180.5" y="-117" font-family="Helvetica,sans-Serif" font-size="10.00">stdio.h</text>
</a>
</g>
</g>
<!-- Node4&#45;&gt;Node10 -->
<g id="edge10_Node000004_Node000010" class="edge">
<title>Node4&#45;&gt;Node10</title>
<g id="a_edge10_Node000004_Node000010"><a xlink:title=" ">
<path fill="none" stroke="#63b8ff" d="M263.59,-164.98C247.95,-156.61 223.84,-143.7 205.62,-133.95"/>
<polygon fill="#63b8ff" stroke="#63b8ff" points="207.16,-130.8 196.7,-129.17 203.86,-136.98 207.16,-130.8"/>
</a>
</g>
</g>
<!-- Node11 -->
<g id="Node000011" class="node">
<title>Node11</title>
<g id="a_Node000011"><a xlink:title=" ">
<polygon fill="#e0e0e0" stroke="#999999" points="406,-19 341,-19 341,0 406,0 406,-19"/>
<text text-anchor="middle" x="373.5" y="-7" font-family="Helvetica,sans-Serif" font-size="10.00">functional</text>
</a>
</g>
</g>
<!-- Node4&#45;&gt;Node11 -->
<g id="edge11_Node000004_Node000011" class="edge">
<title>Node4&#45;&gt;Node11</title>
<g id="a_edge11_Node000004_Node000011"><a xlink:title=" ">
<path fill="none" stroke="#63b8ff" d="M252.96,-171.21C206.96,-166.12 119.76,-150.91 146.5,-110 187.33,-47.53 277.03,-24.03 330.64,-15.38"/>
<polygon fill="#63b8ff" stroke="#63b8ff" points="331.49,-18.79 340.85,-13.84 330.44,-11.87 331.49,-18.79"/>
</a>
</g>
</g>
<!-- Node12 -->
<g id="Node000012" class="node">
<title>Node12</title>
<g id="a_Node000012"><a xlink:title=" ">
<polygon fill="#e0e0e0" stroke="#999999" points="804,-129 735,-129 735,-110 804,-110 804,-129"/>
<text text-anchor="middle" x="769.5" y="-117" font-family="Helvetica,sans-Serif" font-size="10.00">type_traits</text>
</a>
</g>
</g>
<!-- Node4&#45;&gt;Node12 -->
<g id="edge12_Node000004_Node000012" class="edge">
<title>Node4&#45;&gt;Node12</title>
<g id="a_edge12_Node000004_Node000012"><a xlink:title=" ">
<path fill="none" stroke="#63b8ff" d="M306.25,-171.69C374.26,-166.9 559.46,-152.73 724.62,-128.98"/>
<polygon fill="#63b8ff" stroke="#63b8ff" points="725.57,-132.38 734.96,-127.48 724.56,-125.46 725.57,-132.38"/>
</a>
</g>
</g>
<!-- Node5&#45;&gt;Node6 -->
<g id="edge5_Node000005_Node000006" class="edge">
<title>Node5&#45;&gt;Node6</title>
<g id="a_edge5_Node000005_Node000006"><a xlink:title=" ">
<path fill="none" stroke="#63b8ff" d="M561.23,-109.75C554.96,-102.18 545.71,-91.05 538.07,-81.84"/>
<polygon fill="#63b8ff" stroke="#63b8ff" points="540.71,-79.55 531.63,-74.09 535.33,-84.02 540.71,-79.55"/>
</a>
</g>
</g>
<!-- Node7 -->
<g id="Node000007" class="node">
<title>Node7</title>
<g id="a_Node000007"><a xlink:title=" ">
<polygon fill="#e0e0e0" stroke="#999999" points="880,-74 835,-74 835,-55 880,-55 880,-74"/>
<text text-anchor="middle" x="857.5" y="-62" font-family="Helvetica,sans-Serif" font-size="10.00">utility</text>
</a>
</g>
</g>
<!-- Node5&#45;&gt;Node7 -->
<g id="edge6_Node000005_Node000007" class="edge">
<title>Node5&#45;&gt;Node7</title>
<g id="a_edge6_Node000005_Node000007"><a xlink:title=" ">
<path fill="none" stroke="#63b8ff" d="M603.56,-111.69C606.58,-111.11 609.59,-110.54 612.5,-110 688.54,-95.75 778,-79.68 824.95,-71.29"/>
<polygon fill="#63b8ff" stroke="#63b8ff" points="825.62,-74.73 834.85,-69.53 824.39,-67.84 825.62,-74.73"/>
</a>
</g>
</g>
<!-- Node8&#45;&gt;Node3 -->
<g id="edge8_Node000008_Node000003" class="edge">
<title>Node8&#45;&gt;Node3</title>
<g id="a_edge8_Node000008_Node000003"><a xlink:title=" ">
<path fill="none" stroke="#63b8ff" d="M351.31,-109.78C378.81,-95.9 435.47,-68.96 486.5,-55 583.93,-28.35 702.63,-17.18 764.47,-12.89"/>
<polygon fill="#63b8ff" stroke="#63b8ff" points="764.87,-16.37 774.62,-12.21 764.41,-9.39 764.87,-16.37"/>
</a>
</g>
</g>
<!-- Node14&#45;&gt;Node3 -->
<g id="edge17_Node000014_Node000003" class="edge">
<title>Node14&#45;&gt;Node3</title>
<g id="a_edge17_Node000014_Node000003"><a xlink:title=" ">
<path fill="none" stroke="#63b8ff" d="M978.91,-274.77C999.44,-257.98 1040.5,-218.95 1040.5,-175.5 1040.5,-175.5 1040.5,-175.5 1040.5,-118.5 1040.5,-34.83 915.65,-15.77 848.34,-11.57"/>
<polygon fill="#63b8ff" stroke="#63b8ff" points="848.23,-8.06 838.06,-11.02 847.86,-15.05 848.23,-8.06"/>
</a>
</g>
</g>
<!-- Node15 -->
<g id="Node000015" class="node">
<title>Node15</title>
<g id="a_Node000015"><a xlink:href="_default_primitives_8h.html" target="_top" xlink:title="Defines string constants for Lisp primitive function names.">
<polygon fill="white" stroke="#666666" points="1180,-239 1069,-239 1069,-220 1180,-220 1180,-239"/>
<text text-anchor="middle" x="1124.5" y="-227" font-family="Helvetica,sans-Serif" font-size="10.00">DefaultPrimitives.h</text>
</a>
</g>
</g>
<!-- Node14&#45;&gt;Node15 -->
<g id="edge18_Node000014_Node000015" class="edge">
<title>Node14&#45;&gt;Node15</title>
<g id="a_edge18_Node000014_Node000015"><a xlink:title=" ">
<path fill="none" stroke="#63b8ff" d="M992.72,-274.98C1018.86,-266.16 1059.9,-252.31 1089.23,-242.41"/>
<polygon fill="#63b8ff" stroke="#63b8ff" points="1090.72,-245.6 1099.08,-239.08 1088.48,-238.96 1090.72,-245.6"/>
</a>
</g>
</g>
<!-- Node16 -->
<g id="Node000016" class="node">
<title>Node16</title>
<g id="a_Node000016"><a xlink:href="_register_8h.html" target="_top" xlink:title=" ">
<polygon fill="white" stroke="#666666" points="934,-239 869,-239 869,-220 934,-220 934,-239"/>
<text text-anchor="middle" x="901.5" y="-227" font-family="Helvetica,sans-Serif" font-size="10.00">Register.h</text>
</a>
</g>
</g>
<!-- Node14&#45;&gt;Node16 -->
<g id="edge19_Node000014_Node000016" class="edge">
<title>Node14&#45;&gt;Node16</title>
<g id="a_edge19_Node000014_Node000016"><a xlink:title=" ">
<path fill="none" stroke="#63b8ff" d="M956.9,-274.98C947.04,-267.07 932.15,-255.11 920.28,-245.58"/>
<polygon fill="#63b8ff" stroke="#63b8ff" points="922.29,-242.7 912.3,-239.17 917.9,-248.16 922.29,-242.7"/>
</a>
</g>
</g>
<!-- Node16&#45;&gt;Node3 -->
<g id="edge20_Node000016_Node000003" class="edge">
<title>Node16&#45;&gt;Node3</title>
<g id="a_edge20_Node000016_Node000003"><a xlink:title=" ">
<path fill="none" stroke="#63b8ff" d="M915.52,-219.79C944.15,-200.83 1004.8,-154.01 982.5,-110 956.37,-58.44 891.03,-32.04 847.74,-19.77"/>
<polygon fill="#63b8ff" stroke="#63b8ff" points="848.62,-16.38 838.05,-17.15 846.8,-23.14 848.62,-16.38"/>
</a>
</g>
</g>
<!-- Node17 -->
<g id="Node000017" class="node">
<title>Node17</title>
<g id="a_Node000017"><a xlink:href="_array_8h.html" target="_top" xlink:title=" ">
<polygon fill="white" stroke="#666666" points="926.5,-184 876.5,-184 876.5,-165 926.5,-165 926.5,-184"/>
<text text-anchor="middle" x="901.5" y="-172" font-family="Helvetica,sans-Serif" font-size="10.00">Array.h</text>
</a>
</g>
</g>
<!-- Node16&#45;&gt;Node17 -->
<g id="edge21_Node000016_Node000017" class="edge">
<title>Node16&#45;&gt;Node17</title>
<g id="a_edge21_Node000016_Node000017"><a xlink:title=" ">
<path fill="none" stroke="#63b8ff" d="M901.5,-219.75C901.5,-212.8 901.5,-202.85 901.5,-194.13"/>
<polygon fill="#63b8ff" stroke="#63b8ff" points="905,-194.09 901.5,-184.09 898,-194.09 905,-194.09"/>
</a>
</g>
</g>
<!-- Node19 -->
<g id="Node000019" class="node">
<title>Node19</title>
<g id="a_Node000019"><a xlink:href="_map_8h.html" target="_top" xlink:title=" ">
<polygon fill="white" stroke="#666666" points="693,-184 646,-184 646,-165 693,-165 693,-184"/>
<text text-anchor="middle" x="669.5" y="-172" font-family="Helvetica,sans-Serif" font-size="10.00">Map.h</text>
</a>
</g>
</g>
<!-- Node16&#45;&gt;Node19 -->
<g id="edge26_Node000016_Node000019" class="edge">
<title>Node16&#45;&gt;Node19</title>
<g id="a_edge26_Node000016_Node000019"><a xlink:title=" ">
<path fill="none" stroke="#63b8ff" d="M868.75,-221.02C824.93,-211.01 747.59,-193.34 703.26,-183.21"/>
<polygon fill="#63b8ff" stroke="#63b8ff" points="703.8,-179.74 693.27,-180.93 702.24,-186.57 703.8,-179.74"/>
</a>
</g>
</g>
<!-- Node17&#45;&gt;Node3 -->
<g id="edge22_Node000017_Node000003" class="edge">
<title>Node17&#45;&gt;Node3</title>
<g id="a_edge22_Node000017_Node000003"><a xlink:title=" ">
<path fill="none" stroke="#63b8ff" d="M903.07,-164.85C906.37,-143.95 911.92,-89.88 888.5,-55 878.55,-40.19 861.99,-29.89 846.34,-22.95"/>
<polygon fill="#63b8ff" stroke="#63b8ff" points="847.36,-19.59 836.78,-19.06 844.72,-26.07 847.36,-19.59"/>
</a>
</g>
</g>
<!-- Node17&#45;&gt;Node7 -->
<g id="edge25_Node000017_Node000007" class="edge">
<title>Node17&#45;&gt;Node7</title>
<g id="a_edge25_Node000017_Node000007"><a xlink:title=" ">
<path fill="none" stroke="#63b8ff" d="M897.9,-164.66C890.71,-147.01 874.44,-107.09 864.89,-83.64"/>
<polygon fill="#63b8ff" stroke="#63b8ff" points="868.04,-82.1 861.03,-74.16 861.56,-84.74 868.04,-82.1"/>
</a>
</g>
</g>
<!-- Node17&#45;&gt;Node12 -->
<g id="edge24_Node000017_Node000012" class="edge">
<title>Node17&#45;&gt;Node12</title>
<g id="a_edge24_Node000017_Node000012"><a xlink:title=" ">
<path fill="none" stroke="#63b8ff" d="M880.29,-164.98C858.77,-156.34 825.22,-142.87 800.67,-133.02"/>
<polygon fill="#63b8ff" stroke="#63b8ff" points="801.68,-129.65 791.09,-129.17 799.07,-136.14 801.68,-129.65"/>
</a>
</g>
</g>
<!-- Node18 -->
<g id="Node000018" class="node">
<title>Node18</title>
<g id="a_Node000018"><a xlink:title=" ">
<polygon fill="#e0e0e0" stroke="#999999" points="974,-129 937,-129 937,-110 974,-110 974,-129"/>
<text text-anchor="middle" x="955.5" y="-117" font-family="Helvetica,sans-Serif" font-size="10.00">new</text>
</a>
</g>
</g>
<!-- Node17&#45;&gt;Node18 -->
<g id="edge23_Node000017_Node000018" class="edge">
<title>Node17&#45;&gt;Node18</title>
<g id="a_edge23_Node000017_Node000018"><a xlink:title=" ">
<path fill="none" stroke="#63b8ff" d="M910.42,-164.75C918.28,-157.03 929.93,-145.6 939.42,-136.28"/>
<polygon fill="#63b8ff" stroke="#63b8ff" points="942.06,-138.59 946.75,-129.09 937.16,-133.6 942.06,-138.59"/>
</a>
</g>
</g>
<!-- Node19&#45;&gt;Node5 -->
<g id="edge27_Node000019_Node000005" class="edge">
<title>Node19&#45;&gt;Node5</title>
<g id="a_edge27_Node000019_Node000005"><a xlink:title=" ">
<path fill="none" stroke="#63b8ff" d="M653.27,-164.98C637.32,-156.61 612.72,-143.7 594.12,-133.95"/>
<polygon fill="#63b8ff" stroke="#63b8ff" points="595.5,-130.72 585.02,-129.17 592.25,-136.92 595.5,-130.72"/>
</a>
</g>
</g>
<!-- Node20 -->
<g id="Node000020" class="node">
<title>Node20</title>
<g id="a_Node000020"><a xlink:href="_iterable_queue_8h.html" target="_top" xlink:title=" ">
<polygon fill="white" stroke="#666666" points="717,-129 622,-129 622,-110 717,-110 717,-129"/>
<text text-anchor="middle" x="669.5" y="-117" font-family="Helvetica,sans-Serif" font-size="10.00">IterableQueue.h</text>
</a>
</g>
</g>
<!-- Node19&#45;&gt;Node20 -->
<g id="edge28_Node000019_Node000020" class="edge">
<title>Node19&#45;&gt;Node20</title>
<g id="a_edge28_Node000019_Node000020"><a xlink:title=" ">
<path fill="none" stroke="#63b8ff" d="M669.5,-164.75C669.5,-157.8 669.5,-147.85 669.5,-139.13"/>
<polygon fill="#63b8ff" stroke="#63b8ff" points="673,-139.09 669.5,-129.09 666,-139.09 673,-139.09"/>
</a>
</g>
</g>
<!-- Node21 -->
<g id="Node000021" class="node">
<title>Node21</title>
<g id="a_Node000021"><a xlink:href="_clear_queue_8h.html" target="_top" xlink:title=" ">
<polygon fill="white" stroke="#666666" points="661,-74 578,-74 578,-55 661,-55 661,-74"/>
<text text-anchor="middle" x="619.5" y="-62" font-family="Helvetica,sans-Serif" font-size="10.00">ClearQueue.h</text>
</a>
</g>
</g>
<!-- Node20&#45;&gt;Node21 -->
<g id="edge29_Node000020_Node000021" class="edge">
<title>Node20&#45;&gt;Node21</title>
<g id="a_edge29_Node000020_Node000021"><a xlink:title=" ">
<path fill="none" stroke="#63b8ff" d="M661.24,-109.75C654.04,-102.11 643.39,-90.82 634.65,-81.56"/>
<polygon fill="#63b8ff" stroke="#63b8ff" points="637.01,-78.96 627.6,-74.09 631.92,-83.76 637.01,-78.96"/>
</a>
</g>
</g>
<!-- Node21&#45;&gt;Node3 -->
<g id="edge30_Node000021_Node000003" class="edge">
<title>Node21&#45;&gt;Node3</title>
<g id="a_edge30_Node000021_Node000003"><a xlink:title=" ">
<path fill="none" stroke="#63b8ff" d="M649.54,-54.98C681.21,-46.01 731.27,-31.82 766.31,-21.89"/>
<polygon fill="#63b8ff" stroke="#63b8ff" points="767.55,-25.18 776.22,-19.08 765.64,-18.44 767.55,-25.18"/>
</a>
</g>
</g>
<!-- Node21&#45;&gt;Node11 -->
<g id="edge31_Node000021_Node000011" class="edge">
<title>Node21&#45;&gt;Node11</title>
<g id="a_edge31_Node000021_Node000011"><a xlink:title=" ">
<path fill="none" stroke="#63b8ff" d="M579.98,-54.98C535.15,-45.33 462.32,-29.64 416.21,-19.7"/>
<polygon fill="#63b8ff" stroke="#63b8ff" points="416.75,-16.24 406.24,-17.55 415.27,-23.08 416.75,-16.24"/>
</a>
</g>
</g>
<!-- Node22&#45;&gt;Node3 -->
<g id="edge33_Node000022_Node000003" class="edge">
<title>Node22&#45;&gt;Node3</title>
<g id="a_edge33_Node000022_Node000003"><a xlink:title=" ">
<path fill="none" stroke="#63b8ff" d="M769.99,-274.99C779.23,-251.96 804.15,-186.33 812.5,-129 813.72,-120.64 812.75,-118.44 812.5,-110 811.65,-81.8 809.45,-49.17 807.96,-29.19"/>
<polygon fill="#63b8ff" stroke="#63b8ff" points="811.44,-28.71 807.19,-19.01 804.46,-29.25 811.44,-28.71"/>
</a>
</g>
</g>
<!-- Node22&#45;&gt;Node5 -->
<g id="edge34_Node000022_Node000005" class="edge">
<title>Node22&#45;&gt;Node5</title>
<g id="a_edge34_Node000022_Node000005"><a xlink:title=" ">
<path fill="none" stroke="#63b8ff" d="M754.36,-274.83C731,-257.99 678.38,-219.43 636.5,-184 618.12,-168.45 598.09,-149.48 584.56,-136.34"/>
<polygon fill="#63b8ff" stroke="#63b8ff" points="586.65,-133.49 577.05,-129 581.76,-138.49 586.65,-133.49"/>
</a>
</g>
</g>
<!-- Node22&#45;&gt;Node16 -->
<g id="edge39_Node000022_Node000016" class="edge">
<title>Node22&#45;&gt;Node16</title>
<g id="a_edge39_Node000022_Node000016"><a xlink:title=" ">
<path fill="none" stroke="#63b8ff" d="M788.19,-274.98C810.3,-266.3 844.82,-252.75 869.95,-242.88"/>
<polygon fill="#63b8ff" stroke="#63b8ff" points="871.39,-246.08 879.42,-239.17 868.83,-239.57 871.39,-246.08"/>
</a>
</g>
</g>
<!-- Node23 -->
<g id="Node000023" class="node">
<title>Node23</title>
<g id="a_Node000023"><a xlink:href="_object_register_record_8h.html" target="_top" xlink:title=" ">
<polygon fill="white" stroke="#666666" points="552,-184 421,-184 421,-165 552,-165 552,-184"/>
<text text-anchor="middle" x="486.5" y="-172" font-family="Helvetica,sans-Serif" font-size="10.00">ObjectRegisterRecord.h</text>
</a>
</g>
</g>
<!-- Node22&#45;&gt;Node23 -->
<g id="edge35_Node000022_Node000023" class="edge">
<title>Node22&#45;&gt;Node23</title>
<g id="a_edge35_Node000022_Node000023"><a xlink:title=" ">
<path fill="none" stroke="#63b8ff" d="M717.85,-276.03C680.59,-269.25 628.46,-257.45 585.5,-239 555.54,-226.13 524.43,-204.6 505.27,-190.23"/>
<polygon fill="#63b8ff" stroke="#63b8ff" points="507.18,-187.29 497.11,-184 502.93,-192.86 507.18,-187.29"/>
</a>
</g>
</g>
<!-- Node23&#45;&gt;Node8 -->
<g id="edge37_Node000023_Node000008" class="edge">
<title>Node23&#45;&gt;Node8</title>
<g id="a_edge37_Node000023_Node000008"><a xlink:title=" ">
<path fill="none" stroke="#63b8ff" d="M462.08,-164.98C436.78,-156.16 397.05,-142.31 368.64,-132.41"/>
<polygon fill="#63b8ff" stroke="#63b8ff" points="369.71,-129.07 359.11,-129.08 367.4,-135.68 369.71,-129.07"/>
</a>
</g>
</g>
<!-- Node23&#45;&gt;Node21 -->
<g id="edge36_Node000023_Node000021" class="edge">
<title>Node23&#45;&gt;Node21</title>
<g id="a_edge36_Node000023_Node000021"><a xlink:title=" ">
<path fill="none" stroke="#63b8ff" d="M474.7,-164.87C458.89,-152.26 434.36,-128.3 448.5,-110 455.97,-100.34 520.26,-85.49 567.82,-75.64"/>
<polygon fill="#63b8ff" stroke="#63b8ff" points="568.6,-79.05 577.69,-73.61 567.2,-72.19 568.6,-79.05"/>
</a>
</g>
</g>
<!-- Node24 -->
<g id="Node000024" class="node">
<title>Node24</title>
<g id="a_Node000024"><a xlink:href="_type_id_8h.html" target="_top" xlink:title=" ">
<polygon fill="white" stroke="#666666" points="515,-129 458,-129 458,-110 515,-110 515,-129"/>
<text text-anchor="middle" x="486.5" y="-117" font-family="Helvetica,sans-Serif" font-size="10.00">TypeId.h</text>
</a>
</g>
</g>
<!-- Node23&#45;&gt;Node24 -->
<g id="edge38_Node000023_Node000024" class="edge">
<title>Node23&#45;&gt;Node24</title>
<g id="a_edge38_Node000023_Node000024"><a xlink:title=" ">
<path fill="none" stroke="#63b8ff" d="M486.5,-164.75C486.5,-157.8 486.5,-147.85 486.5,-139.13"/>
<polygon fill="#63b8ff" stroke="#63b8ff" points="490,-139.09 486.5,-129.09 483,-139.09 490,-139.09"/>
</a>
</g>
</g>
</g>
</svg>
