<?xml version="1.0" encoding="UTF-8" standalone="no"?>
<!DOCTYPE svg PUBLIC "-//W3C//DTD SVG 1.1//EN"
 "http://www.w3.org/Graphics/SVG/1.1/DTD/svg11.dtd">
<!-- Generated by graphviz version 2.43.0 (0)
 -->
<!-- Title: RegisterManagerProxy.h Pages: 1 -->
<svg width="334pt" height="357pt"
 viewBox="0.00 0.00 334.00 357.00" xmlns="http://www.w3.org/2000/svg" xmlns:xlink="http://www.w3.org/1999/xlink">
<g id="graph0" class="graph" transform="scale(1 1) rotate(0) translate(4 353)">
<title>RegisterManagerProxy.h</title>
<!-- Node1 -->
<g id="Node000001" class="node">
<title>Node1</title>
<g id="a_Node000001"><a xlink:title=" ">
<polygon fill="#999999" stroke="#666666" points="244,-349 109,-349 109,-330 244,-330 244,-349"/>
<text text-anchor="middle" x="176.5" y="-337" font-family="Helvetica,sans-Serif" font-size="10.00">RegisterManagerProxy.h</text>
</a>
</g>
</g>
<!-- Node2 -->
<g id="Node000002" class="node">
<title>Node2</title>
<g id="a_Node000002"><a xlink:href="_primitive_expeditor_8h.html" target="_top" xlink:title=" ">
<polygon fill="white" stroke="#666666" points="234.5,-294 118.5,-294 118.5,-275 234.5,-275 234.5,-294"/>
<text text-anchor="middle" x="176.5" y="-282" font-family="Helvetica,sans-Serif" font-size="10.00">PrimitiveExpeditor.h</text>
</a>
</g>
</g>
<!-- Node1&#45;&gt;Node2 -->
<g id="edge1_Node000001_Node000002" class="edge">
<title>Node1&#45;&gt;Node2</title>
<g id="a_edge1_Node000001_Node000002"><a xlink:title=" ">
<path fill="none" stroke="#63b8ff" d="M176.5,-319.66C176.5,-310.93 176.5,-300.99 176.5,-294.09"/>
<polygon fill="#63b8ff" stroke="#63b8ff" points="173,-319.75 176.5,-329.75 180,-319.75 173,-319.75"/>
</a>
</g>
</g>
<!-- Node3 -->
<g id="Node000003" class="node">
<title>Node3</title>
<g id="a_Node000003"><a xlink:href="_lisp_primitives_8h.html" target="_top" xlink:title=" ">
<polygon fill="white" stroke="#666666" points="95,-239 0,-239 0,-220 95,-220 95,-239"/>
<text text-anchor="middle" x="47.5" y="-227" font-family="Helvetica,sans-Serif" font-size="10.00">LispPrimitives.h</text>
</a>
</g>
</g>
<!-- Node2&#45;&gt;Node3 -->
<g id="edge2_Node000002_Node000003" class="edge">
<title>Node2&#45;&gt;Node3</title>
<g id="a_edge2_Node000002_Node000003"><a xlink:title=" ">
<path fill="none" stroke="#63b8ff" d="M146.46,-271.16C122.58,-261.35 89.78,-247.87 68.6,-239.17"/>
<polygon fill="#63b8ff" stroke="#63b8ff" points="145.19,-274.42 155.77,-274.98 147.85,-267.95 145.19,-274.42"/>
</a>
</g>
</g>
<!-- Node8 -->
<g id="Node000008" class="node">
<title>Node8</title>
<g id="a_Node000008"><a xlink:href="_primitive_expeditor_8cpp.html" target="_top" xlink:title=" ">
<polygon fill="white" stroke="#666666" points="240,-239 113,-239 113,-220 240,-220 240,-239"/>
<text text-anchor="middle" x="176.5" y="-227" font-family="Helvetica,sans-Serif" font-size="10.00">PrimitiveExpeditor.cpp</text>
</a>
</g>
</g>
<!-- Node2&#45;&gt;Node8 -->
<g id="edge7_Node000002_Node000008" class="edge">
<title>Node2&#45;&gt;Node8</title>
<g id="a_edge7_Node000002_Node000008"><a xlink:title=" ">
<path fill="none" stroke="#63b8ff" d="M176.5,-264.66C176.5,-255.93 176.5,-245.99 176.5,-239.09"/>
<polygon fill="#63b8ff" stroke="#63b8ff" points="173,-264.75 176.5,-274.75 180,-264.75 173,-264.75"/>
</a>
</g>
</g>
<!-- Node9 -->
<g id="Node000009" class="node">
<title>Node9</title>
<g id="a_Node000009"><a xlink:href="un_lisp_8h.html" target="_top" xlink:title=" ">
<polygon fill="white" stroke="#666666" points="315,-239 258,-239 258,-220 315,-220 315,-239"/>
<text text-anchor="middle" x="286.5" y="-227" font-family="Helvetica,sans-Serif" font-size="10.00">unLisp.h</text>
</a>
</g>
</g>
<!-- Node2&#45;&gt;Node9 -->
<g id="edge8_Node000002_Node000009" class="edge">
<title>Node2&#45;&gt;Node9</title>
<g id="a_edge8_Node000002_Node000009"><a xlink:title=" ">
<path fill="none" stroke="#63b8ff" d="M203.2,-270.63C223.47,-260.87 250.77,-247.71 268.51,-239.17"/>
<polygon fill="#63b8ff" stroke="#63b8ff" points="201.66,-267.49 194.17,-274.98 204.7,-273.8 201.66,-267.49"/>
</a>
</g>
</g>
<!-- Node4 -->
<g id="Node000004" class="node">
<title>Node4</title>
<g id="a_Node000004"><a xlink:href="_app_kit_8h.html" target="_top" xlink:title=" ">
<polygon fill="white" stroke="#666666" points="247.5,-129 189.5,-129 189.5,-110 247.5,-110 247.5,-129"/>
<text text-anchor="middle" x="218.5" y="-117" font-family="Helvetica,sans-Serif" font-size="10.00">AppKit.h</text>
</a>
</g>
</g>
<!-- Node3&#45;&gt;Node4 -->
<g id="edge3_Node000003_Node000004" class="edge">
<title>Node3&#45;&gt;Node4</title>
<g id="a_edge3_Node000003_Node000004"><a xlink:title=" ">
<path fill="none" stroke="#63b8ff" d="M48.44,-209.73C50.13,-195.62 54.65,-176.78 66.5,-165 99.55,-132.14 155.47,-123.29 189.49,-121.05"/>
<polygon fill="#63b8ff" stroke="#63b8ff" points="44.94,-209.54 47.6,-219.8 51.92,-210.12 44.94,-209.54"/>
</a>
</g>
</g>
<!-- Node7 -->
<g id="Node000007" class="node">
<title>Node7</title>
<g id="a_Node000007"><a xlink:href="_lisp_primitives_8cpp.html" target="_top" xlink:title=" ">
<polygon fill="white" stroke="#666666" points="181.5,-184 75.5,-184 75.5,-165 181.5,-165 181.5,-184"/>
<text text-anchor="middle" x="128.5" y="-172" font-family="Helvetica,sans-Serif" font-size="10.00">LispPrimitives.cpp</text>
</a>
</g>
</g>
<!-- Node3&#45;&gt;Node7 -->
<g id="edge6_Node000003_Node000007" class="edge">
<title>Node3&#45;&gt;Node7</title>
<g id="a_edge6_Node000003_Node000007"><a xlink:title=" ">
<path fill="none" stroke="#63b8ff" d="M69.01,-214.42C83.71,-204.81 102.72,-192.37 115.25,-184.17"/>
<polygon fill="#63b8ff" stroke="#63b8ff" points="66.97,-211.58 60.51,-219.98 70.8,-217.44 66.97,-211.58"/>
</a>
</g>
</g>
<!-- Node5 -->
<g id="Node000005" class="node">
<title>Node5</title>
<g id="a_Node000005"><a xlink:href="_uniot_8h.html" target="_top" xlink:title="Main API interface for the Uniot IoT platform.">
<polygon fill="white" stroke="#666666" points="244.5,-74 192.5,-74 192.5,-55 244.5,-55 244.5,-74"/>
<text text-anchor="middle" x="218.5" y="-62" font-family="Helvetica,sans-Serif" font-size="10.00">Uniot.h</text>
</a>
</g>
</g>
<!-- Node4&#45;&gt;Node5 -->
<g id="edge4_Node000004_Node000005" class="edge">
<title>Node4&#45;&gt;Node5</title>
<g id="a_edge4_Node000004_Node000005"><a xlink:title=" ">
<path fill="none" stroke="#63b8ff" d="M218.5,-99.66C218.5,-90.93 218.5,-80.99 218.5,-74.09"/>
<polygon fill="#63b8ff" stroke="#63b8ff" points="215,-99.75 218.5,-109.75 222,-99.75 215,-99.75"/>
</a>
</g>
</g>
<!-- Node6 -->
<g id="Node000006" class="node">
<title>Node6</title>
<g id="a_Node000006"><a xlink:href="_uniot_8cpp.html" target="_top" xlink:title=" ">
<polygon fill="white" stroke="#666666" points="250,-19 187,-19 187,0 250,0 250,-19"/>
<text text-anchor="middle" x="218.5" y="-7" font-family="Helvetica,sans-Serif" font-size="10.00">Uniot.cpp</text>
</a>
</g>
</g>
<!-- Node5&#45;&gt;Node6 -->
<g id="edge5_Node000005_Node000006" class="edge">
<title>Node5&#45;&gt;Node6</title>
<g id="a_edge5_Node000005_Node000006"><a xlink:title=" ">
<path fill="none" stroke="#63b8ff" d="M218.5,-44.66C218.5,-35.93 218.5,-25.99 218.5,-19.09"/>
<polygon fill="#63b8ff" stroke="#63b8ff" points="215,-44.75 218.5,-54.75 222,-44.75 215,-44.75"/>
</a>
</g>
</g>
<!-- Node9&#45;&gt;Node4 -->
<g id="edge9_Node000009_Node000004" class="edge">
<title>Node9&#45;&gt;Node4</title>
<g id="a_edge9_Node000009_Node000004"><a xlink:title=" ">
<path fill="none" stroke="#63b8ff" d="M265.33,-213.56C255.62,-205.75 244.7,-195.43 237.5,-184 226.46,-166.47 221.55,-142.2 219.61,-129.33"/>
<polygon fill="#63b8ff" stroke="#63b8ff" points="263.35,-216.46 273.42,-219.75 267.6,-210.9 263.35,-216.46"/>
</a>
</g>
</g>
<!-- Node10 -->
<g id="Node000010" class="node">
<title>Node10</title>
<g id="a_Node000010"><a xlink:href="_lisp_device_8h.html" target="_top" xlink:title=" ">
<polygon fill="white" stroke="#666666" points="326,-184 247,-184 247,-165 326,-165 326,-184"/>
<text text-anchor="middle" x="286.5" y="-172" font-family="Helvetica,sans-Serif" font-size="10.00">LispDevice.h</text>
</a>
</g>
</g>
<!-- Node9&#45;&gt;Node10 -->
<g id="edge10_Node000009_Node000010" class="edge">
<title>Node9&#45;&gt;Node10</title>
<g id="a_edge10_Node000009_Node000010"><a xlink:title=" ">
<path fill="none" stroke="#63b8ff" d="M286.5,-209.66C286.5,-200.93 286.5,-190.99 286.5,-184.09"/>
<polygon fill="#63b8ff" stroke="#63b8ff" points="283,-209.75 286.5,-219.75 290,-209.75 283,-209.75"/>
</a>
</g>
</g>
<!-- Node10&#45;&gt;Node4 -->
<g id="edge11_Node000010_Node000004" class="edge">
<title>Node10&#45;&gt;Node4</title>
<g id="a_edge11_Node000010_Node000004"><a xlink:title=" ">
<path fill="none" stroke="#63b8ff" d="M267.38,-158.6C255.2,-149.11 239.84,-137.13 229.62,-129.17"/>
<polygon fill="#63b8ff" stroke="#63b8ff" points="265.54,-161.6 275.57,-164.98 269.84,-156.08 265.54,-161.6"/>
</a>
</g>
</g>
</g>
</svg>
