<?xml version="1.0" encoding="UTF-8" standalone="no"?>
<!DOCTYPE svg PUBLIC "-//W3C//DTD SVG 1.1//EN"
 "http://www.w3.org/Graphics/SVG/1.1/DTD/svg11.dtd">
<!-- Generated by graphviz version 2.43.0 (0)
 -->
<!-- Title: Singleton.h Pages: 1 -->
<svg width="342pt" height="302pt"
 viewBox="0.00 0.00 341.68 302.00" xmlns="http://www.w3.org/2000/svg" xmlns:xlink="http://www.w3.org/1999/xlink">
<g id="graph0" class="graph" transform="scale(1 1) rotate(0) translate(4 298)">
<title>Singleton.h</title>
<!-- Node1 -->
<g id="Node000001" class="node">
<title>Node1</title>
<g id="a_Node000001"><a xlink:title=" ">
<polygon fill="#999999" stroke="#666666" points="181.8,-294 110.8,-294 110.8,-275 181.8,-275 181.8,-294"/>
<text text-anchor="middle" x="146.3" y="-282" font-family="Helvetica,sans-Serif" font-size="10.00">Singleton.h</text>
</a>
</g>
</g>
<!-- Node2 -->
<g id="Node000002" class="node">
<title>Node2</title>
<g id="a_Node000002"><a xlink:href="_app_kit_8h.html" target="_top" xlink:title=" ">
<polygon fill="white" stroke="#666666" points="198.3,-129 140.3,-129 140.3,-110 198.3,-110 198.3,-129"/>
<text text-anchor="middle" x="169.3" y="-117" font-family="Helvetica,sans-Serif" font-size="10.00">AppKit.h</text>
</a>
</g>
</g>
<!-- Node1&#45;&gt;Node2 -->
<g id="edge1_Node000001_Node000002" class="edge">
<title>Node1&#45;&gt;Node2</title>
<g id="a_edge1_Node000001_Node000002"><a xlink:title=" ">
<path fill="none" stroke="#63b8ff" d="M112.31,-271.35C62.5,-251.65 -20.94,-210.36 13.3,-165 17.2,-159.83 96.08,-139.1 140.14,-127.85"/>
<polygon fill="#63b8ff" stroke="#63b8ff" points="111.2,-274.67 121.78,-275 113.71,-268.14 111.2,-274.67"/>
</a>
</g>
</g>
<!-- Node5 -->
<g id="Node000005" class="node">
<title>Node5</title>
<g id="a_Node000005"><a xlink:href="_date_8h.html" target="_top" xlink:title=" ">
<polygon fill="white" stroke="#666666" points="170.8,-239 121.8,-239 121.8,-220 170.8,-220 170.8,-239"/>
<text text-anchor="middle" x="146.3" y="-227" font-family="Helvetica,sans-Serif" font-size="10.00">Date.h</text>
</a>
</g>
</g>
<!-- Node1&#45;&gt;Node5 -->
<g id="edge4_Node000001_Node000005" class="edge">
<title>Node1&#45;&gt;Node5</title>
<g id="a_edge4_Node000001_Node000005"><a xlink:title=" ">
<path fill="none" stroke="#63b8ff" d="M146.3,-264.66C146.3,-255.93 146.3,-245.99 146.3,-239.09"/>
<polygon fill="#63b8ff" stroke="#63b8ff" points="142.8,-264.75 146.3,-274.75 149.8,-264.75 142.8,-264.75"/>
</a>
</g>
</g>
<!-- Node10 -->
<g id="Node000010" class="node">
<title>Node10</title>
<g id="a_Node000010"><a xlink:href="un_lisp_8h.html" target="_top" xlink:title=" ">
<polygon fill="white" stroke="#666666" points="308.8,-239 251.8,-239 251.8,-220 308.8,-220 308.8,-239"/>
<text text-anchor="middle" x="280.3" y="-227" font-family="Helvetica,sans-Serif" font-size="10.00">unLisp.h</text>
</a>
</g>
</g>
<!-- Node1&#45;&gt;Node10 -->
<g id="edge14_Node000001_Node000010" class="edge">
<title>Node1&#45;&gt;Node10</title>
<g id="a_edge14_Node000001_Node000010"><a xlink:title=" ">
<path fill="none" stroke="#63b8ff" d="M177.16,-271.29C202,-261.47 236.28,-247.91 258.37,-239.17"/>
<polygon fill="#63b8ff" stroke="#63b8ff" points="175.84,-268.05 167.82,-274.98 178.41,-274.56 175.84,-268.05"/>
</a>
</g>
</g>
<!-- Node3 -->
<g id="Node000003" class="node">
<title>Node3</title>
<g id="a_Node000003"><a xlink:href="_uniot_8h.html" target="_top" xlink:title="Main API interface for the Uniot IoT platform.">
<polygon fill="white" stroke="#666666" points="107.3,-74 55.3,-74 55.3,-55 107.3,-55 107.3,-74"/>
<text text-anchor="middle" x="81.3" y="-62" font-family="Helvetica,sans-Serif" font-size="10.00">Uniot.h</text>
</a>
</g>
</g>
<!-- Node2&#45;&gt;Node3 -->
<g id="edge2_Node000002_Node000003" class="edge">
<title>Node2&#45;&gt;Node3</title>
<g id="a_edge2_Node000002_Node000003"><a xlink:title=" ">
<path fill="none" stroke="#63b8ff" d="M146.37,-104.7C130.34,-95.04 109.43,-82.44 95.69,-74.17"/>
<polygon fill="#63b8ff" stroke="#63b8ff" points="144.78,-107.82 155.16,-109.98 148.4,-101.83 144.78,-107.82"/>
</a>
</g>
</g>
<!-- Node4 -->
<g id="Node000004" class="node">
<title>Node4</title>
<g id="a_Node000004"><a xlink:href="_uniot_8cpp.html" target="_top" xlink:title=" ">
<polygon fill="white" stroke="#666666" points="112.8,-19 49.8,-19 49.8,0 112.8,0 112.8,-19"/>
<text text-anchor="middle" x="81.3" y="-7" font-family="Helvetica,sans-Serif" font-size="10.00">Uniot.cpp</text>
</a>
</g>
</g>
<!-- Node3&#45;&gt;Node4 -->
<g id="edge3_Node000003_Node000004" class="edge">
<title>Node3&#45;&gt;Node4</title>
<g id="a_edge3_Node000003_Node000004"><a xlink:title=" ">
<path fill="none" stroke="#63b8ff" d="M81.3,-44.66C81.3,-35.93 81.3,-25.99 81.3,-19.09"/>
<polygon fill="#63b8ff" stroke="#63b8ff" points="77.8,-44.75 81.3,-54.75 84.8,-44.75 77.8,-44.75"/>
</a>
</g>
</g>
<!-- Node5&#45;&gt;Node2 -->
<g id="edge5_Node000005_Node000002" class="edge">
<title>Node5&#45;&gt;Node2</title>
<g id="a_edge5_Node000005_Node000002"><a xlink:title=" ">
<path fill="none" stroke="#63b8ff" d="M168.46,-213.88C178.01,-206.24 188.14,-195.97 193.3,-184 201.59,-164.73 186.74,-141.56 176.93,-129.23"/>
<polygon fill="#63b8ff" stroke="#63b8ff" points="166.31,-211.12 160.37,-219.89 170.48,-216.74 166.31,-211.12"/>
</a>
</g>
</g>
<!-- Node5&#45;&gt;Node3 -->
<g id="edge13_Node000005_Node000003" class="edge">
<title>Node5&#45;&gt;Node3</title>
<g id="a_edge13_Node000005_Node000003"><a xlink:title=" ">
<path fill="none" stroke="#63b8ff" d="M111.62,-227.56C80.21,-224.65 35.53,-214.89 13.3,-184 -5.92,-157.31 -2.35,-138.93 13.3,-110 22.62,-92.75 41.87,-81.11 57.51,-74.08"/>
<polygon fill="#63b8ff" stroke="#63b8ff" points="111.49,-231.06 121.72,-228.31 112,-224.08 111.49,-231.06"/>
</a>
</g>
</g>
<!-- Node6 -->
<g id="Node000006" class="node">
<title>Node6</title>
<g id="a_Node000006"><a xlink:href="_lisp_device_8h.html" target="_top" xlink:title=" ">
<polygon fill="white" stroke="#666666" points="319.8,-184 240.8,-184 240.8,-165 319.8,-165 319.8,-184"/>
<text text-anchor="middle" x="280.3" y="-172" font-family="Helvetica,sans-Serif" font-size="10.00">LispDevice.h</text>
</a>
</g>
</g>
<!-- Node5&#45;&gt;Node6 -->
<g id="edge6_Node000005_Node000006" class="edge">
<title>Node5&#45;&gt;Node6</title>
<g id="a_edge6_Node000005_Node000006"><a xlink:title=" ">
<path fill="none" stroke="#63b8ff" d="M177.16,-216.29C202,-206.47 236.28,-192.91 258.37,-184.17"/>
<polygon fill="#63b8ff" stroke="#63b8ff" points="175.84,-213.05 167.82,-219.98 178.41,-219.56 175.84,-213.05"/>
</a>
</g>
</g>
<!-- Node7 -->
<g id="Node000007" class="node">
<title>Node7</title>
<g id="a_Node000007"><a xlink:href="_m_q_t_t_kit_8h.html" target="_top" xlink:title=" ">
<polygon fill="white" stroke="#666666" points="90.3,-184 22.3,-184 22.3,-165 90.3,-165 90.3,-184"/>
<text text-anchor="middle" x="56.3" y="-172" font-family="Helvetica,sans-Serif" font-size="10.00">MQTTKit.h</text>
</a>
</g>
</g>
<!-- Node5&#45;&gt;Node7 -->
<g id="edge8_Node000005_Node000007" class="edge">
<title>Node5&#45;&gt;Node7</title>
<g id="a_edge8_Node000005_Node000007"><a xlink:title=" ">
<path fill="none" stroke="#63b8ff" d="M122.85,-214.7C106.46,-205.04 85.07,-192.44 71.02,-184.17"/>
<polygon fill="#63b8ff" stroke="#63b8ff" points="121.44,-217.93 131.83,-219.98 124.99,-211.89 121.44,-217.93"/>
</a>
</g>
</g>
<!-- Node9 -->
<g id="Node000009" class="node">
<title>Node9</title>
<g id="a_Node000009"><a xlink:href="_top_device_8h.html" target="_top" xlink:title=" ">
<polygon fill="white" stroke="#666666" points="184.3,-184 108.3,-184 108.3,-165 184.3,-165 184.3,-184"/>
<text text-anchor="middle" x="146.3" y="-172" font-family="Helvetica,sans-Serif" font-size="10.00">TopDevice.h</text>
</a>
</g>
</g>
<!-- Node5&#45;&gt;Node9 -->
<g id="edge11_Node000005_Node000009" class="edge">
<title>Node5&#45;&gt;Node9</title>
<g id="a_edge11_Node000005_Node000009"><a xlink:title=" ">
<path fill="none" stroke="#63b8ff" d="M146.3,-209.66C146.3,-200.93 146.3,-190.99 146.3,-184.09"/>
<polygon fill="#63b8ff" stroke="#63b8ff" points="142.8,-209.75 146.3,-219.75 149.8,-209.75 142.8,-209.75"/>
</a>
</g>
</g>
<!-- Node6&#45;&gt;Node2 -->
<g id="edge7_Node000006_Node000002" class="edge">
<title>Node6&#45;&gt;Node2</title>
<g id="a_edge7_Node000006_Node000002"><a xlink:title=" ">
<path fill="none" stroke="#63b8ff" d="M253.35,-160.63C232.9,-150.87 205.35,-137.71 187.45,-129.17"/>
<polygon fill="#63b8ff" stroke="#63b8ff" points="251.93,-163.83 262.46,-164.98 254.94,-157.52 251.93,-163.83"/>
</a>
</g>
</g>
<!-- Node7&#45;&gt;Node2 -->
<g id="edge9_Node000007_Node000002" class="edge">
<title>Node7&#45;&gt;Node2</title>
<g id="a_edge9_Node000007_Node000002"><a xlink:title=" ">
<path fill="none" stroke="#63b8ff" d="M83.73,-160.63C104.54,-150.87 132.59,-137.71 150.81,-129.17"/>
<polygon fill="#63b8ff" stroke="#63b8ff" points="82.02,-157.57 74.45,-164.98 84.99,-163.91 82.02,-157.57"/>
</a>
</g>
</g>
<!-- Node8 -->
<g id="Node000008" class="node">
<title>Node8</title>
<g id="a_Node000008"><a xlink:href="_m_q_t_t_device_8cpp.html" target="_top" xlink:title=" ">
<polygon fill="white" stroke="#666666" points="121.8,-129 22.8,-129 22.8,-110 121.8,-110 121.8,-129"/>
<text text-anchor="middle" x="72.3" y="-117" font-family="Helvetica,sans-Serif" font-size="10.00">MQTTDevice.cpp</text>
</a>
</g>
</g>
<!-- Node7&#45;&gt;Node8 -->
<g id="edge10_Node000007_Node000008" class="edge">
<title>Node7&#45;&gt;Node8</title>
<g id="a_edge10_Node000007_Node000008"><a xlink:title=" ">
<path fill="none" stroke="#63b8ff" d="M61.89,-154.95C64.55,-146.15 67.6,-136.06 69.7,-129.09"/>
<polygon fill="#63b8ff" stroke="#63b8ff" points="58.48,-154.16 58.94,-164.75 65.18,-156.19 58.48,-154.16"/>
</a>
</g>
</g>
<!-- Node9&#45;&gt;Node2 -->
<g id="edge12_Node000009_Node000002" class="edge">
<title>Node9&#45;&gt;Node2</title>
<g id="a_edge12_Node000009_Node000002"><a xlink:title=" ">
<path fill="none" stroke="#63b8ff" d="M154.09,-155.53C157.97,-146.6 162.47,-136.22 165.57,-129.09"/>
<polygon fill="#63b8ff" stroke="#63b8ff" points="150.86,-154.18 150.09,-164.75 157.28,-156.97 150.86,-154.18"/>
</a>
</g>
</g>
<!-- Node10&#45;&gt;Node2 -->
<g id="edge15_Node000010_Node000002" class="edge">
<title>Node10&#45;&gt;Node2</title>
<g id="a_edge15_Node000010_Node000002"><a xlink:title=" ">
<path fill="none" stroke="#63b8ff" d="M303.98,-214.16C322.17,-201.32 342.18,-181.96 329.3,-165 313.51,-144.22 240.06,-130.58 198.38,-124.37"/>
<polygon fill="#63b8ff" stroke="#63b8ff" points="301.74,-211.45 295.35,-219.9 305.61,-217.28 301.74,-211.45"/>
</a>
</g>
</g>
<!-- Node10&#45;&gt;Node6 -->
<g id="edge16_Node000010_Node000006" class="edge">
<title>Node10&#45;&gt;Node6</title>
<g id="a_edge16_Node000010_Node000006"><a xlink:title=" ">
<path fill="none" stroke="#63b8ff" d="M280.3,-209.66C280.3,-200.93 280.3,-190.99 280.3,-184.09"/>
<polygon fill="#63b8ff" stroke="#63b8ff" points="276.8,-209.75 280.3,-219.75 283.8,-209.75 276.8,-209.75"/>
</a>
</g>
</g>
</g>
</svg>
