<?xml version="1.0" encoding="UTF-8" standalone="no"?>
<!DOCTYPE svg PUBLIC "-//W3C//DTD SVG 1.1//EN"
 "http://www.w3.org/Graphics/SVG/1.1/DTD/svg11.dtd">
<!-- Generated by graphviz version 2.43.0 (0)
 -->
<!-- Title: Storage.h Pages: 1 -->
<svg width="671pt" height="412pt"
 viewBox="0.00 0.00 671.27 412.00" xmlns="http://www.w3.org/2000/svg" xmlns:xlink="http://www.w3.org/1999/xlink">
<g id="graph0" class="graph" transform="scale(1 1) rotate(0) translate(4 408)">
<title>Storage.h</title>
<!-- Node1 -->
<g id="Node000001" class="node">
<title>Node1</title>
<g id="a_Node000001"><a xlink:title=" ">
<polygon fill="#999999" stroke="#666666" points="551.77,-404 488.77,-404 488.77,-385 551.77,-385 551.77,-404"/>
<text text-anchor="middle" x="520.27" y="-392" font-family="Helvetica,sans-Serif" font-size="10.00">Storage.h</text>
</a>
</g>
</g>
<!-- Node2 -->
<g id="Node000002" class="node">
<title>Node2</title>
<g id="a_Node000002"><a xlink:href="_c_b_o_r_storage_8h.html" target="_top" xlink:title=" ">
<polygon fill="white" stroke="#666666" points="340.77,-349 249.77,-349 249.77,-330 340.77,-330 340.77,-349"/>
<text text-anchor="middle" x="295.27" y="-337" font-family="Helvetica,sans-Serif" font-size="10.00">CBORStorage.h</text>
</a>
</g>
</g>
<!-- Node1&#45;&gt;Node2 -->
<g id="edge1_Node000001_Node000002" class="edge">
<title>Node1&#45;&gt;Node2</title>
<g id="a_edge1_Node000001_Node000002"><a xlink:title=" ">
<path fill="none" stroke="#63b8ff" d="M478.57,-383.68C436.4,-373.74 371.89,-358.55 331.72,-349.08"/>
<polygon fill="#63b8ff" stroke="#63b8ff" points="477.98,-387.13 488.52,-386.02 479.58,-380.32 477.98,-387.13"/>
</a>
</g>
</g>
<!-- Node16 -->
<g id="Node000016" class="node">
<title>Node16</title>
<g id="a_Node000016"><a xlink:href="_crash_storage_8h.html" target="_top" xlink:title=" ">
<polygon fill="white" stroke="#666666" points="614.77,-184 523.77,-184 523.77,-165 614.77,-165 614.77,-184"/>
<text text-anchor="middle" x="569.27" y="-172" font-family="Helvetica,sans-Serif" font-size="10.00">CrashStorage.h</text>
</a>
</g>
</g>
<!-- Node1&#45;&gt;Node16 -->
<g id="edge26_Node000001_Node000016" class="edge">
<title>Node1&#45;&gt;Node16</title>
<g id="a_edge26_Node000001_Node000016"><a xlink:title=" ">
<path fill="none" stroke="#63b8ff" d="M524.4,-375.13C534.48,-330.3 560.04,-216.6 567.31,-184.22"/>
<polygon fill="#63b8ff" stroke="#63b8ff" points="520.97,-374.43 522.2,-384.95 527.8,-375.97 520.97,-374.43"/>
</a>
</g>
</g>
<!-- Node18 -->
<g id="Node000018" class="node">
<title>Node18</title>
<g id="a_Node000018"><a xlink:href="_storage_8cpp.html" target="_top" xlink:title=" ">
<polygon fill="white" stroke="#666666" points="622.27,-349 548.27,-349 548.27,-330 622.27,-330 622.27,-349"/>
<text text-anchor="middle" x="585.27" y="-337" font-family="Helvetica,sans-Serif" font-size="10.00">Storage.cpp</text>
</a>
</g>
</g>
<!-- Node1&#45;&gt;Node18 -->
<g id="edge30_Node000001_Node000018" class="edge">
<title>Node1&#45;&gt;Node18</title>
<g id="a_edge30_Node000001_Node000018"><a xlink:title=" ">
<path fill="none" stroke="#63b8ff" d="M538.55,-378.6C550.19,-369.11 564.87,-357.13 574.64,-349.17"/>
<polygon fill="#63b8ff" stroke="#63b8ff" points="536.26,-375.95 530.72,-384.98 540.68,-381.38 536.26,-375.95"/>
</a>
</g>
</g>
<!-- Node3 -->
<g id="Node000003" class="node">
<title>Node3</title>
<g id="a_Node000003"><a xlink:href="_credentials_8h.html" target="_top" xlink:title=" ">
<polygon fill="white" stroke="#666666" points="123.77,-294 42.77,-294 42.77,-275 123.77,-275 123.77,-294"/>
<text text-anchor="middle" x="83.27" y="-282" font-family="Helvetica,sans-Serif" font-size="10.00">Credentials.h</text>
</a>
</g>
</g>
<!-- Node2&#45;&gt;Node3 -->
<g id="edge2_Node000002_Node000003" class="edge">
<title>Node2&#45;&gt;Node3</title>
<g id="a_edge2_Node000002_Node000003"><a xlink:title=" ">
<path fill="none" stroke="#63b8ff" d="M251.28,-327.5C211.58,-317.58 153.99,-303.18 117.6,-294.08"/>
<polygon fill="#63b8ff" stroke="#63b8ff" points="250.66,-330.95 261.21,-329.98 252.36,-324.16 250.66,-330.95"/>
</a>
</g>
</g>
<!-- Node11 -->
<g id="Node000011" class="node">
<title>Node11</title>
<g id="a_Node000011"><a xlink:href="_network_controller_8h.html" target="_top" xlink:title="High&#45;level network management controller with user interface.">
<polygon fill="white" stroke="#666666" points="237.27,-184 123.27,-184 123.27,-165 237.27,-165 237.27,-184"/>
<text text-anchor="middle" x="180.27" y="-172" font-family="Helvetica,sans-Serif" font-size="10.00">NetworkController.h</text>
</a>
</g>
</g>
<!-- Node2&#45;&gt;Node11 -->
<g id="edge23_Node000002_Node000011" class="edge">
<title>Node2&#45;&gt;Node11</title>
<g id="a_edge23_Node000002_Node000011"><a xlink:title=" ">
<path fill="none" stroke="#63b8ff" d="M292.01,-319.83C286.84,-294.8 274.75,-250.03 250.27,-220 236.99,-203.7 216.09,-191.52 200.58,-184.06"/>
<polygon fill="#63b8ff" stroke="#63b8ff" points="288.6,-320.65 293.92,-329.82 295.48,-319.34 288.6,-320.65"/>
</a>
</g>
</g>
<!-- Node12 -->
<g id="Node000012" class="node">
<title>Node12</title>
<g id="a_Node000012"><a xlink:href="_date_8h.html" target="_top" xlink:title=" ">
<polygon fill="white" stroke="#666666" points="352.77,-239 303.77,-239 303.77,-220 352.77,-220 352.77,-239"/>
<text text-anchor="middle" x="328.27" y="-227" font-family="Helvetica,sans-Serif" font-size="10.00">Date.h</text>
</a>
</g>
</g>
<!-- Node2&#45;&gt;Node12 -->
<g id="edge14_Node000002_Node000012" class="edge">
<title>Node2&#45;&gt;Node12</title>
<g id="a_edge14_Node000002_Node000012"><a xlink:title=" ">
<path fill="none" stroke="#63b8ff" d="M300.99,-319.8C308.2,-296.2 320.31,-256.58 325.63,-239.16"/>
<polygon fill="#63b8ff" stroke="#63b8ff" points="297.55,-319.08 297.98,-329.66 304.24,-321.12 297.55,-319.08"/>
</a>
</g>
</g>
<!-- Node13 -->
<g id="Node000013" class="node">
<title>Node13</title>
<g id="a_Node000013"><a xlink:href="_lisp_device_8h.html" target="_top" xlink:title=" ">
<polygon fill="white" stroke="#666666" points="466.77,-184 387.77,-184 387.77,-165 466.77,-165 466.77,-184"/>
<text text-anchor="middle" x="427.27" y="-172" font-family="Helvetica,sans-Serif" font-size="10.00">LispDevice.h</text>
</a>
</g>
</g>
<!-- Node2&#45;&gt;Node13 -->
<g id="edge22_Node000002_Node000013" class="edge">
<title>Node2&#45;&gt;Node13</title>
<g id="a_edge22_Node000002_Node000013"><a xlink:title=" ">
<path fill="none" stroke="#63b8ff" d="M308.95,-321.62C336.76,-287.28 399.06,-210.34 420.14,-184.31"/>
<polygon fill="#63b8ff" stroke="#63b8ff" points="305.95,-319.76 302.37,-329.74 311.39,-324.17 305.95,-319.76"/>
</a>
</g>
</g>
<!-- Node15 -->
<g id="Node000015" class="node">
<title>Node15</title>
<g id="a_Node000015"><a xlink:href="_wifi_storage_8h.html" target="_top" xlink:title=" ">
<polygon fill="white" stroke="#666666" points="238.27,-294 156.27,-294 156.27,-275 238.27,-275 238.27,-294"/>
<text text-anchor="middle" x="197.27" y="-282" font-family="Helvetica,sans-Serif" font-size="10.00">WifiStorage.h</text>
</a>
</g>
</g>
<!-- Node2&#45;&gt;Node15 -->
<g id="edge24_Node000002_Node000015" class="edge">
<title>Node2&#45;&gt;Node15</title>
<g id="a_edge24_Node000002_Node000015"><a xlink:title=" ">
<path fill="none" stroke="#63b8ff" d="M270.25,-324.97C252.33,-315.28 228.75,-302.52 213.31,-294.17"/>
<polygon fill="#63b8ff" stroke="#63b8ff" points="269.07,-328.31 279.53,-329.98 272.4,-322.15 269.07,-328.31"/>
</a>
</g>
</g>
<!-- Node4 -->
<g id="Node000004" class="node">
<title>Node4</title>
<g id="a_Node000004"><a xlink:href="_m_q_t_t_path_8h.html" target="_top" xlink:title=" ">
<polygon fill="white" stroke="#666666" points="108.77,-239 33.77,-239 33.77,-220 108.77,-220 108.77,-239"/>
<text text-anchor="middle" x="71.27" y="-227" font-family="Helvetica,sans-Serif" font-size="10.00">MQTTPath.h</text>
</a>
</g>
</g>
<!-- Node3&#45;&gt;Node4 -->
<g id="edge3_Node000003_Node000004" class="edge">
<title>Node3&#45;&gt;Node4</title>
<g id="a_edge3_Node000003_Node000004"><a xlink:title=" ">
<path fill="none" stroke="#63b8ff" d="M79.08,-264.95C77.08,-256.15 74.8,-246.06 73.22,-239.09"/>
<polygon fill="#63b8ff" stroke="#63b8ff" points="75.67,-265.77 81.29,-274.75 82.5,-264.22 75.67,-265.77"/>
</a>
</g>
</g>
<!-- Node7 -->
<g id="Node000007" class="node">
<title>Node7</title>
<g id="a_Node000007"><a xlink:href="_uniot_8h.html" target="_top" xlink:title="Main API interface for the Uniot IoT platform.">
<polygon fill="white" stroke="#666666" points="431.27,-74 379.27,-74 379.27,-55 431.27,-55 431.27,-74"/>
<text text-anchor="middle" x="405.27" y="-62" font-family="Helvetica,sans-Serif" font-size="10.00">Uniot.h</text>
</a>
</g>
</g>
<!-- Node3&#45;&gt;Node7 -->
<g id="edge13_Node000003_Node000007" class="edge">
<title>Node3&#45;&gt;Node7</title>
<g id="a_edge13_Node000003_Node000007"><a xlink:title=" ">
<path fill="none" stroke="#63b8ff" d="M55.21,-269.84C43.38,-262.48 30.84,-252.18 24.27,-239 -1.3,-187.68 -13.84,-152.83 24.27,-110 47.91,-83.45 297.12,-70.23 379.21,-66.58"/>
<polygon fill="#63b8ff" stroke="#63b8ff" points="53.59,-272.95 64.01,-274.9 57.08,-266.88 53.59,-272.95"/>
</a>
</g>
</g>
<!-- Node10 -->
<g id="Node000010" class="node">
<title>Node10</title>
<g id="a_Node000010"><a xlink:href="_network_scheduler_8h.html" target="_top" xlink:title="Complete WiFi network management and configuration system.">
<polygon fill="white" stroke="#666666" points="241.27,-239 127.27,-239 127.27,-220 241.27,-220 241.27,-239"/>
<text text-anchor="middle" x="184.27" y="-227" font-family="Helvetica,sans-Serif" font-size="10.00">NetworkScheduler.h</text>
</a>
</g>
</g>
<!-- Node3&#45;&gt;Node10 -->
<g id="edge9_Node000003_Node000010" class="edge">
<title>Node3&#45;&gt;Node10</title>
<g id="a_edge9_Node000003_Node000010"><a xlink:title=" ">
<path fill="none" stroke="#63b8ff" d="M108.56,-270.23C127.08,-260.51 151.69,-247.6 167.75,-239.17"/>
<polygon fill="#63b8ff" stroke="#63b8ff" points="106.73,-267.24 99.5,-274.98 109.98,-273.44 106.73,-267.24"/>
</a>
</g>
</g>
<!-- Node5 -->
<g id="Node000005" class="node">
<title>Node5</title>
<g id="a_Node000005"><a xlink:href="_m_q_t_t_kit_8h.html" target="_top" xlink:title=" ">
<polygon fill="white" stroke="#666666" points="105.27,-184 37.27,-184 37.27,-165 105.27,-165 105.27,-184"/>
<text text-anchor="middle" x="71.27" y="-172" font-family="Helvetica,sans-Serif" font-size="10.00">MQTTKit.h</text>
</a>
</g>
</g>
<!-- Node4&#45;&gt;Node5 -->
<g id="edge4_Node000004_Node000005" class="edge">
<title>Node4&#45;&gt;Node5</title>
<g id="a_edge4_Node000004_Node000005"><a xlink:title=" ">
<path fill="none" stroke="#63b8ff" d="M71.27,-209.66C71.27,-200.93 71.27,-190.99 71.27,-184.09"/>
<polygon fill="#63b8ff" stroke="#63b8ff" points="67.78,-209.75 71.27,-219.75 74.78,-209.75 67.78,-209.75"/>
</a>
</g>
</g>
<!-- Node6 -->
<g id="Node000006" class="node">
<title>Node6</title>
<g id="a_Node000006"><a xlink:href="_app_kit_8h.html" target="_top" xlink:title=" ">
<polygon fill="white" stroke="#666666" points="360.27,-129 302.27,-129 302.27,-110 360.27,-110 360.27,-129"/>
<text text-anchor="middle" x="331.27" y="-117" font-family="Helvetica,sans-Serif" font-size="10.00">AppKit.h</text>
</a>
</g>
</g>
<!-- Node5&#45;&gt;Node6 -->
<g id="edge5_Node000005_Node000006" class="edge">
<title>Node5&#45;&gt;Node6</title>
<g id="a_edge5_Node000005_Node000006"><a xlink:title=" ">
<path fill="none" stroke="#63b8ff" d="M115.38,-164.51C168.64,-153.65 256.71,-135.7 302.16,-126.44"/>
<polygon fill="#63b8ff" stroke="#63b8ff" points="114.63,-161.09 105.53,-166.52 116.03,-167.95 114.63,-161.09"/>
</a>
</g>
</g>
<!-- Node9 -->
<g id="Node000009" class="node">
<title>Node9</title>
<g id="a_Node000009"><a xlink:href="_m_q_t_t_device_8cpp.html" target="_top" xlink:title=" ">
<polygon fill="white" stroke="#666666" points="132.77,-129 33.77,-129 33.77,-110 132.77,-110 132.77,-129"/>
<text text-anchor="middle" x="83.27" y="-117" font-family="Helvetica,sans-Serif" font-size="10.00">MQTTDevice.cpp</text>
</a>
</g>
</g>
<!-- Node5&#45;&gt;Node9 -->
<g id="edge8_Node000005_Node000009" class="edge">
<title>Node5&#45;&gt;Node9</title>
<g id="a_edge8_Node000005_Node000009"><a xlink:title=" ">
<path fill="none" stroke="#63b8ff" d="M75.47,-154.95C77.47,-146.15 79.75,-136.06 81.33,-129.09"/>
<polygon fill="#63b8ff" stroke="#63b8ff" points="72.05,-154.22 73.26,-164.75 78.88,-155.77 72.05,-154.22"/>
</a>
</g>
</g>
<!-- Node6&#45;&gt;Node7 -->
<g id="edge6_Node000006_Node000007" class="edge">
<title>Node6&#45;&gt;Node7</title>
<g id="a_edge6_Node000006_Node000007"><a xlink:title=" ">
<path fill="none" stroke="#63b8ff" d="M351.31,-104.15C364.68,-94.57 381.83,-82.29 393.17,-74.17"/>
<polygon fill="#63b8ff" stroke="#63b8ff" points="349.26,-101.32 343.16,-109.98 353.33,-107.01 349.26,-101.32"/>
</a>
</g>
</g>
<!-- Node8 -->
<g id="Node000008" class="node">
<title>Node8</title>
<g id="a_Node000008"><a xlink:href="_uniot_8cpp.html" target="_top" xlink:title=" ">
<polygon fill="white" stroke="#666666" points="463.77,-19 400.77,-19 400.77,0 463.77,0 463.77,-19"/>
<text text-anchor="middle" x="432.27" y="-7" font-family="Helvetica,sans-Serif" font-size="10.00">Uniot.cpp</text>
</a>
</g>
</g>
<!-- Node7&#45;&gt;Node8 -->
<g id="edge7_Node000007_Node000008" class="edge">
<title>Node7&#45;&gt;Node8</title>
<g id="a_edge7_Node000007_Node000008"><a xlink:title=" ">
<path fill="none" stroke="#63b8ff" d="M414.28,-45.82C418.87,-36.82 424.23,-26.29 427.9,-19.09"/>
<polygon fill="#63b8ff" stroke="#63b8ff" points="411.15,-44.25 409.73,-54.75 417.39,-47.43 411.15,-44.25"/>
</a>
</g>
</g>
<!-- Node10&#45;&gt;Node5 -->
<g id="edge10_Node000010_Node000005" class="edge">
<title>Node10&#45;&gt;Node5</title>
<g id="a_edge10_Node000010_Node000005"><a xlink:title=" ">
<path fill="none" stroke="#63b8ff" d="M156.84,-215.63C136.03,-205.87 107.98,-192.71 89.76,-184.17"/>
<polygon fill="#63b8ff" stroke="#63b8ff" points="155.58,-218.91 166.12,-219.98 158.55,-212.57 155.58,-218.91"/>
</a>
</g>
</g>
<!-- Node10&#45;&gt;Node11 -->
<g id="edge11_Node000010_Node000011" class="edge">
<title>Node10&#45;&gt;Node11</title>
<g id="a_edge11_Node000010_Node000011"><a xlink:title=" ">
<path fill="none" stroke="#63b8ff" d="M182.85,-209.66C182.19,-200.93 181.44,-190.99 180.92,-184.09"/>
<polygon fill="#63b8ff" stroke="#63b8ff" points="179.37,-210.04 183.61,-219.75 186.35,-209.51 179.37,-210.04"/>
</a>
</g>
</g>
<!-- Node11&#45;&gt;Node6 -->
<g id="edge12_Node000011_Node000006" class="edge">
<title>Node11&#45;&gt;Node6</title>
<g id="a_edge12_Node000011_Node000006"><a xlink:title=" ">
<path fill="none" stroke="#63b8ff" d="M214.32,-161.55C242.36,-151.71 281.46,-137.98 306.57,-129.17"/>
<polygon fill="#63b8ff" stroke="#63b8ff" points="212.81,-158.37 204.54,-164.98 215.13,-164.98 212.81,-158.37"/>
</a>
</g>
</g>
<!-- Node12&#45;&gt;Node5 -->
<g id="edge18_Node000012_Node000005" class="edge">
<title>Node12&#45;&gt;Node5</title>
<g id="a_edge18_Node000012_Node000005"><a xlink:title=" ">
<path fill="none" stroke="#63b8ff" d="M293.77,-221.38C244.53,-211.23 154.64,-192.69 105.53,-182.56"/>
<polygon fill="#63b8ff" stroke="#63b8ff" points="293.13,-224.83 303.63,-223.42 294.55,-217.97 293.13,-224.83"/>
</a>
</g>
</g>
<!-- Node12&#45;&gt;Node6 -->
<g id="edge15_Node000012_Node000006" class="edge">
<title>Node12&#45;&gt;Node6</title>
<g id="a_edge15_Node000012_Node000006"><a xlink:title=" ">
<path fill="none" stroke="#63b8ff" d="M307.1,-213.78C292.29,-201.52 276.45,-183.19 284.27,-165 290.94,-149.52 305.93,-136.9 317.2,-129.11"/>
<polygon fill="#63b8ff" stroke="#63b8ff" points="305.01,-216.59 315.06,-219.93 309.28,-211.05 305.01,-216.59"/>
</a>
</g>
</g>
<!-- Node12&#45;&gt;Node7 -->
<g id="edge21_Node000012_Node000007" class="edge">
<title>Node12&#45;&gt;Node7</title>
<g id="a_edge21_Node000012_Node000007"><a xlink:title=" ">
<path fill="none" stroke="#63b8ff" d="M363.15,-229.01C398.11,-227.41 450.38,-218.83 476.27,-184 505.04,-145.32 444.86,-94.33 417.68,-74.2"/>
<polygon fill="#63b8ff" stroke="#63b8ff" points="362.79,-225.52 352.9,-229.3 362.99,-232.51 362.79,-225.52"/>
</a>
</g>
</g>
<!-- Node12&#45;&gt;Node13 -->
<g id="edge16_Node000012_Node000013" class="edge">
<title>Node12&#45;&gt;Node13</title>
<g id="a_edge16_Node000012_Node000013"><a xlink:title=" ">
<path fill="none" stroke="#63b8ff" d="M353.06,-215.23C371.21,-205.51 395.34,-192.6 411.08,-184.17"/>
<polygon fill="#63b8ff" stroke="#63b8ff" points="351.35,-212.18 344.18,-219.98 354.65,-218.35 351.35,-212.18"/>
</a>
</g>
</g>
<!-- Node14 -->
<g id="Node000014" class="node">
<title>Node14</title>
<g id="a_Node000014"><a xlink:href="_top_device_8h.html" target="_top" xlink:title=" ">
<polygon fill="white" stroke="#666666" points="369.27,-184 293.27,-184 293.27,-165 369.27,-165 369.27,-184"/>
<text text-anchor="middle" x="331.27" y="-172" font-family="Helvetica,sans-Serif" font-size="10.00">TopDevice.h</text>
</a>
</g>
</g>
<!-- Node12&#45;&gt;Node14 -->
<g id="edge19_Node000012_Node000014" class="edge">
<title>Node12&#45;&gt;Node14</title>
<g id="a_edge19_Node000012_Node000014"><a xlink:title=" ">
<path fill="none" stroke="#63b8ff" d="M329.34,-209.66C329.84,-200.93 330.4,-190.99 330.79,-184.09"/>
<polygon fill="#63b8ff" stroke="#63b8ff" points="325.84,-209.57 328.77,-219.75 332.83,-209.96 325.84,-209.57"/>
</a>
</g>
</g>
<!-- Node13&#45;&gt;Node6 -->
<g id="edge17_Node000013_Node000006" class="edge">
<title>Node13&#45;&gt;Node6</title>
<g id="a_edge17_Node000013_Node000006"><a xlink:title=" ">
<path fill="none" stroke="#63b8ff" d="M402.76,-159.97C385.21,-150.28 362.11,-137.52 346.98,-129.17"/>
<polygon fill="#63b8ff" stroke="#63b8ff" points="401.4,-163.22 411.85,-164.98 404.79,-157.09 401.4,-163.22"/>
</a>
</g>
</g>
<!-- Node14&#45;&gt;Node6 -->
<g id="edge20_Node000014_Node000006" class="edge">
<title>Node14&#45;&gt;Node6</title>
<g id="a_edge20_Node000014_Node000006"><a xlink:title=" ">
<path fill="none" stroke="#63b8ff" d="M331.27,-154.66C331.27,-145.93 331.27,-135.99 331.27,-129.09"/>
<polygon fill="#63b8ff" stroke="#63b8ff" points="327.78,-154.75 331.27,-164.75 334.78,-154.75 327.78,-154.75"/>
</a>
</g>
</g>
<!-- Node15&#45;&gt;Node10 -->
<g id="edge25_Node000015_Node000010" class="edge">
<title>Node15&#45;&gt;Node10</title>
<g id="a_edge25_Node000015_Node000010"><a xlink:title=" ">
<path fill="none" stroke="#63b8ff" d="M192.73,-264.95C190.57,-256.15 188.09,-246.06 186.38,-239.09"/>
<polygon fill="#63b8ff" stroke="#63b8ff" points="189.35,-265.87 195.13,-274.75 196.15,-264.2 189.35,-265.87"/>
</a>
</g>
</g>
<!-- Node16&#45;&gt;Node6 -->
<g id="edge27_Node000016_Node000006" class="edge">
<title>Node16&#45;&gt;Node6</title>
<g id="a_edge27_Node000016_Node000006"><a xlink:title=" ">
<path fill="none" stroke="#63b8ff" d="M521.15,-162.78C472.99,-152.06 400.46,-135.91 360.42,-126.99"/>
<polygon fill="#63b8ff" stroke="#63b8ff" points="520.51,-166.23 531.04,-164.98 522.04,-159.39 520.51,-166.23"/>
</a>
</g>
</g>
<!-- Node16&#45;&gt;Node8 -->
<g id="edge29_Node000016_Node000008" class="edge">
<title>Node16&#45;&gt;Node8</title>
<g id="a_edge29_Node000016_Node000008"><a xlink:title=" ">
<path fill="none" stroke="#63b8ff" d="M555.45,-157.05C526.77,-122.93 461.65,-45.45 439.68,-19.31"/>
<polygon fill="#63b8ff" stroke="#63b8ff" points="552.8,-159.33 561.91,-164.74 558.15,-154.83 552.8,-159.33"/>
</a>
</g>
</g>
<!-- Node17 -->
<g id="Node000017" class="node">
<title>Node17</title>
<g id="a_Node000017"><a xlink:href="_crash_storage_8cpp.html" target="_top" xlink:title=" ">
<polygon fill="white" stroke="#666666" points="663.27,-129 561.27,-129 561.27,-110 663.27,-110 663.27,-129"/>
<text text-anchor="middle" x="612.27" y="-117" font-family="Helvetica,sans-Serif" font-size="10.00">CrashStorage.cpp</text>
</a>
</g>
</g>
<!-- Node16&#45;&gt;Node17 -->
<g id="edge28_Node000016_Node000017" class="edge">
<title>Node16&#45;&gt;Node17</title>
<g id="a_edge28_Node000016_Node000017"><a xlink:title=" ">
<path fill="none" stroke="#63b8ff" d="M582.7,-156.96C590.19,-147.72 599.21,-136.6 605.31,-129.09"/>
<polygon fill="#63b8ff" stroke="#63b8ff" points="579.96,-154.78 576.38,-164.75 585.39,-159.19 579.96,-154.78"/>
</a>
</g>
</g>
</g>
</svg>
