<?xml version="1.0" encoding="UTF-8" standalone="no"?>
<!DOCTYPE svg PUBLIC "-//W3C//DTD SVG 1.1//EN"
 "http://www.w3.org/Graphics/SVG/1.1/DTD/svg11.dtd">
<!-- Generated by graphviz version 2.43.0 (0)
 -->
<!-- Title: TopDevice.h Pages: 1 -->
<svg width="1659pt" height="357pt"
 viewBox="0.00 0.00 1659.14 357.00" xmlns="http://www.w3.org/2000/svg" xmlns:xlink="http://www.w3.org/1999/xlink">
<g id="graph0" class="graph" transform="scale(1 1) rotate(0) translate(4 353)">
<title>TopDevice.h</title>
<!-- Node1 -->
<g id="Node000001" class="node">
<title>Node1</title>
<g id="a_Node000001"><a xlink:title=" ">
<polygon fill="#999999" stroke="#666666" points="584.14,-349 508.14,-349 508.14,-330 584.14,-330 584.14,-349"/>
<text text-anchor="middle" x="546.14" y="-337" font-family="Helvetica,sans-Serif" font-size="10.00">TopDevice.h</text>
</a>
</g>
</g>
<!-- Node2 -->
<g id="Node000002" class="node">
<title>Node2</title>
<g id="a_Node000002"><a xlink:href="_c_b_o_r_object_8h.html" target="_top" xlink:title=" ">
<polygon fill="white" stroke="#666666" points="183.64,-184 98.64,-184 98.64,-165 183.64,-165 183.64,-184"/>
<text text-anchor="middle" x="141.14" y="-172" font-family="Helvetica,sans-Serif" font-size="10.00">CBORObject.h</text>
</a>
</g>
</g>
<!-- Node1&#45;&gt;Node2 -->
<g id="edge1_Node000001_Node000002" class="edge">
<title>Node1&#45;&gt;Node2</title>
<g id="a_edge1_Node000001_Node000002"><a xlink:title=" ">
<path fill="none" stroke="#63b8ff" d="M508,-333.13C443.06,-322.75 308.45,-295.75 209.14,-239 187.57,-226.67 167.37,-206.24 154.68,-191.88"/>
<polygon fill="#63b8ff" stroke="#63b8ff" points="157.29,-189.55 148.12,-184.24 151.98,-194.11 157.29,-189.55"/>
</a>
</g>
</g>
<!-- Node14 -->
<g id="Node000014" class="node">
<title>Node14</title>
<g id="a_Node000014"><a xlink:href="_date_8h.html" target="_top" xlink:title=" ">
<polygon fill="white" stroke="#666666" points="691.64,-294 642.64,-294 642.64,-275 691.64,-275 691.64,-294"/>
<text text-anchor="middle" x="667.14" y="-282" font-family="Helvetica,sans-Serif" font-size="10.00">Date.h</text>
</a>
</g>
</g>
<!-- Node1&#45;&gt;Node14 -->
<g id="edge16_Node000001_Node000014" class="edge">
<title>Node1&#45;&gt;Node14</title>
<g id="a_edge16_Node000001_Node000014"><a xlink:title=" ">
<path fill="none" stroke="#63b8ff" d="M565.58,-329.98C585.13,-321.42 615.52,-308.11 637.96,-298.28"/>
<polygon fill="#63b8ff" stroke="#63b8ff" points="639.59,-301.39 647.34,-294.17 636.78,-294.98 639.59,-301.39"/>
</a>
</g>
</g>
<!-- Node32 -->
<g id="Node000032" class="node">
<title>Node32</title>
<g id="a_Node000032"><a xlink:href="_m_q_t_t_device_8h.html" target="_top" xlink:title=" ">
<polygon fill="white" stroke="#666666" points="440.14,-184 352.14,-184 352.14,-165 440.14,-165 440.14,-184"/>
<text text-anchor="middle" x="396.14" y="-172" font-family="Helvetica,sans-Serif" font-size="10.00">MQTTDevice.h</text>
</a>
</g>
</g>
<!-- Node1&#45;&gt;Node32 -->
<g id="edge45_Node000001_Node000032" class="edge">
<title>Node1&#45;&gt;Node32</title>
<g id="a_edge45_Node000001_Node000032"><a xlink:title=" ">
<path fill="none" stroke="#63b8ff" d="M528.02,-329.98C499.18,-315.47 443.04,-283.18 413.14,-239 404.04,-225.56 399.8,-207.46 397.84,-194.02"/>
<polygon fill="#63b8ff" stroke="#63b8ff" points="401.31,-193.56 396.66,-184.04 394.35,-194.38 401.31,-193.56"/>
</a>
</g>
</g>
<!-- Node33 -->
<g id="Node000033" class="node">
<title>Node33</title>
<g id="a_Node000033"><a xlink:href="_task_scheduler_8h.html" target="_top" xlink:title=" ">
<polygon fill="white" stroke="#666666" points="1181.64,-184 1086.64,-184 1086.64,-165 1181.64,-165 1181.64,-184"/>
<text text-anchor="middle" x="1134.14" y="-172" font-family="Helvetica,sans-Serif" font-size="10.00">TaskScheduler.h</text>
</a>
</g>
</g>
<!-- Node1&#45;&gt;Node33 -->
<g id="edge48_Node000001_Node000033" class="edge">
<title>Node1&#45;&gt;Node33</title>
<g id="a_edge48_Node000001_Node000033"><a xlink:title=" ">
<path fill="none" stroke="#63b8ff" d="M584.34,-337.7C672.59,-334.5 895.65,-318.5 1060.14,-239 1083.84,-227.55 1106.04,-206.58 1119.83,-191.88"/>
<polygon fill="#63b8ff" stroke="#63b8ff" points="1122.79,-193.83 1126.92,-184.07 1117.61,-189.12 1122.79,-193.83"/>
</a>
</g>
</g>
<!-- Node3 -->
<g id="Node000003" class="node">
<title>Node3</title>
<g id="a_Node000003"><a xlink:title=" ">
<polygon fill="#e0e0e0" stroke="#999999" points="487.64,-19 424.64,-19 424.64,0 487.64,0 487.64,-19"/>
<text text-anchor="middle" x="456.14" y="-7" font-family="Helvetica,sans-Serif" font-size="10.00">Arduino.h</text>
</a>
</g>
</g>
<!-- Node2&#45;&gt;Node3 -->
<g id="edge2_Node000002_Node000003" class="edge">
<title>Node2&#45;&gt;Node3</title>
<g id="a_edge2_Node000002_Node000003"><a xlink:title=" ">
<path fill="none" stroke="#63b8ff" d="M98.35,-170.12C50.64,-164.39 -17.22,-149.26 4.14,-110 25.64,-70.47 46.83,-70.32 89.14,-55 201.64,-14.25 344.92,-9.25 414.48,-9.55"/>
<polygon fill="#63b8ff" stroke="#63b8ff" points="414.57,-13.05 424.6,-9.63 414.63,-6.05 414.57,-13.05"/>
</a>
</g>
</g>
<!-- Node4 -->
<g id="Node000004" class="node">
<title>Node4</title>
<g id="a_Node000004"><a xlink:href="_bytes_8h.html" target="_top" xlink:title=" ">
<polygon fill="white" stroke="#666666" points="353.64,-129 300.64,-129 300.64,-110 353.64,-110 353.64,-129"/>
<text text-anchor="middle" x="327.14" y="-117" font-family="Helvetica,sans-Serif" font-size="10.00">Bytes.h</text>
</a>
</g>
</g>
<!-- Node2&#45;&gt;Node4 -->
<g id="edge3_Node000002_Node000004" class="edge">
<title>Node2&#45;&gt;Node4</title>
<g id="a_edge3_Node000002_Node000004"><a xlink:title=" ">
<path fill="none" stroke="#63b8ff" d="M171.02,-164.98C203.55,-155.72 255.57,-140.89 290.53,-130.93"/>
<polygon fill="#63b8ff" stroke="#63b8ff" points="291.69,-134.24 300.35,-128.13 289.77,-127.51 291.69,-134.24"/>
</a>
</g>
</g>
<!-- Node6 -->
<g id="Node000006" class="node">
<title>Node6</title>
<g id="a_Node000006"><a xlink:title=" ">
<polygon fill="#e0e0e0" stroke="#999999" points="1059.14,-19 1001.14,-19 1001.14,0 1059.14,0 1059.14,-19"/>
<text text-anchor="middle" x="1030.14" y="-7" font-family="Helvetica,sans-Serif" font-size="10.00">memory</text>
</a>
</g>
</g>
<!-- Node2&#45;&gt;Node6 -->
<g id="edge15_Node000002_Node000006" class="edge">
<title>Node2&#45;&gt;Node6</title>
<g id="a_edge15_Node000002_Node000006"><a xlink:title=" ">
<path fill="none" stroke="#63b8ff" d="M137.75,-164.88C129.82,-143.07 112.82,-85.32 142.14,-55 173.63,-22.42 883.89,-24.79 990.72,-18.31"/>
<polygon fill="#63b8ff" stroke="#63b8ff" points="991.18,-21.78 1000.84,-17.45 990.58,-14.81 991.18,-21.78"/>
</a>
</g>
</g>
<!-- Node8 -->
<g id="Node000008" class="node">
<title>Node8</title>
<g id="a_Node000008"><a xlink:href="_logger_8h.html" target="_top" xlink:title=" ">
<polygon fill="white" stroke="#666666" points="485.14,-74 427.14,-74 427.14,-55 485.14,-55 485.14,-74"/>
<text text-anchor="middle" x="456.14" y="-62" font-family="Helvetica,sans-Serif" font-size="10.00">Logger.h</text>
</a>
</g>
</g>
<!-- Node2&#45;&gt;Node8 -->
<g id="edge13_Node000002_Node000008" class="edge">
<title>Node2&#45;&gt;Node8</title>
<g id="a_edge13_Node000002_Node000008"><a xlink:title=" ">
<path fill="none" stroke="#63b8ff" d="M140.98,-164.98C141.23,-151.15 143.9,-123.94 160.14,-110 201.92,-74.14 346.1,-83.27 416.49,-73.92"/>
<polygon fill="#63b8ff" stroke="#63b8ff" points="417.38,-77.32 426.73,-72.33 416.31,-70.41 417.38,-77.32"/>
</a>
</g>
</g>
<!-- Node13 -->
<g id="Node000013" class="node">
<title>Node13</title>
<g id="a_Node000013"><a xlink:title=" ">
<polygon fill="#e0e0e0" stroke="#999999" points="74.64,-129 13.64,-129 13.64,-110 74.64,-110 74.64,-129"/>
<text text-anchor="middle" x="44.14" y="-117" font-family="Helvetica,sans-Serif" font-size="10.00">cn&#45;cbor.h</text>
</a>
</g>
</g>
<!-- Node2&#45;&gt;Node13 -->
<g id="edge14_Node000002_Node000013" class="edge">
<title>Node2&#45;&gt;Node13</title>
<g id="a_edge14_Node000002_Node000013"><a xlink:title=" ">
<path fill="none" stroke="#63b8ff" d="M125.55,-164.98C110.37,-156.69 87.04,-143.94 69.24,-134.22"/>
<polygon fill="#63b8ff" stroke="#63b8ff" points="70.46,-130.89 60.01,-129.17 67.1,-137.04 70.46,-130.89"/>
</a>
</g>
</g>
<!-- Node5 -->
<g id="Node000005" class="node">
<title>Node5</title>
<g id="a_Node000005"><a xlink:href="_common_8h.html" target="_top" xlink:title=" ">
<polygon fill="white" stroke="#666666" points="1030.14,-74 960.14,-74 960.14,-55 1030.14,-55 1030.14,-74"/>
<text text-anchor="middle" x="995.14" y="-62" font-family="Helvetica,sans-Serif" font-size="10.00">Common.h</text>
</a>
</g>
</g>
<!-- Node4&#45;&gt;Node5 -->
<g id="edge4_Node000004_Node000005" class="edge">
<title>Node4&#45;&gt;Node5</title>
<g id="a_edge4_Node000004_Node000005"><a xlink:title=" ">
<path fill="none" stroke="#63b8ff" d="M353.74,-116.39C455.46,-108.32 820.6,-79.35 949.6,-69.11"/>
<polygon fill="#63b8ff" stroke="#63b8ff" points="950.22,-72.58 959.91,-68.29 949.66,-65.6 950.22,-72.58"/>
</a>
</g>
</g>
<!-- Node4&#45;&gt;Node8 -->
<g id="edge7_Node000004_Node000008" class="edge">
<title>Node4&#45;&gt;Node8</title>
<g id="a_edge7_Node000004_Node000008"><a xlink:title=" ">
<path fill="none" stroke="#63b8ff" d="M347.86,-109.98C368.9,-101.34 401.69,-87.87 425.67,-78.02"/>
<polygon fill="#63b8ff" stroke="#63b8ff" points="427.11,-81.21 435.03,-74.17 424.45,-74.73 427.11,-81.21"/>
</a>
</g>
</g>
<!-- Node9 -->
<g id="Node000009" class="node">
<title>Node9</title>
<g id="a_Node000009"><a xlink:title=" ">
<polygon fill="#e0e0e0" stroke="#999999" points="215.14,-74 151.14,-74 151.14,-55 215.14,-55 215.14,-74"/>
<text text-anchor="middle" x="183.14" y="-62" font-family="Helvetica,sans-Serif" font-size="10.00">WString.h</text>
</a>
</g>
</g>
<!-- Node4&#45;&gt;Node9 -->
<g id="edge9_Node000004_Node000009" class="edge">
<title>Node4&#45;&gt;Node9</title>
<g id="a_edge9_Node000004_Node000009"><a xlink:title=" ">
<path fill="none" stroke="#63b8ff" d="M304,-109.98C280.31,-101.27 243.27,-87.63 216.43,-77.75"/>
<polygon fill="#63b8ff" stroke="#63b8ff" points="217.29,-74.34 206.69,-74.17 214.87,-80.91 217.29,-74.34"/>
</a>
</g>
</g>
<!-- Node10 -->
<g id="Node000010" class="node">
<title>Node10</title>
<g id="a_Node000010"><a xlink:title=" ">
<polygon fill="#e0e0e0" stroke="#999999" points="409.14,-74 359.14,-74 359.14,-55 409.14,-55 409.14,-74"/>
<text text-anchor="middle" x="384.14" y="-62" font-family="Helvetica,sans-Serif" font-size="10.00">stdio.h</text>
</a>
</g>
</g>
<!-- Node4&#45;&gt;Node10 -->
<g id="edge10_Node000004_Node000010" class="edge">
<title>Node4&#45;&gt;Node10</title>
<g id="a_edge10_Node000004_Node000010"><a xlink:title=" ">
<path fill="none" stroke="#63b8ff" d="M336.29,-109.98C344.64,-102.23 357.17,-90.58 367.31,-81.14"/>
<polygon fill="#63b8ff" stroke="#63b8ff" points="369.87,-83.54 374.81,-74.17 365.11,-78.42 369.87,-83.54"/>
</a>
</g>
</g>
<!-- Node11 -->
<g id="Node000011" class="node">
<title>Node11</title>
<g id="a_Node000011"><a xlink:title=" ">
<polygon fill="#e0e0e0" stroke="#999999" points="590.64,-19 525.64,-19 525.64,0 590.64,0 590.64,-19"/>
<text text-anchor="middle" x="558.14" y="-7" font-family="Helvetica,sans-Serif" font-size="10.00">functional</text>
</a>
</g>
</g>
<!-- Node4&#45;&gt;Node11 -->
<g id="edge11_Node000004_Node000011" class="edge">
<title>Node4&#45;&gt;Node11</title>
<g id="a_edge11_Node000004_Node000011"><a xlink:title=" ">
<path fill="none" stroke="#63b8ff" d="M306.75,-109.94C281.54,-98.17 244.02,-76.04 262.14,-55 264.2,-52.6 434.29,-28.12 515.67,-16.53"/>
<polygon fill="#63b8ff" stroke="#63b8ff" points="516.2,-19.99 525.61,-15.11 515.21,-13.06 516.2,-19.99"/>
</a>
</g>
</g>
<!-- Node12 -->
<g id="Node000012" class="node">
<title>Node12</title>
<g id="a_Node000012"><a xlink:title=" ">
<polygon fill="#e0e0e0" stroke="#999999" points="340.64,-74 271.64,-74 271.64,-55 340.64,-55 340.64,-74"/>
<text text-anchor="middle" x="306.14" y="-62" font-family="Helvetica,sans-Serif" font-size="10.00">type_traits</text>
</a>
</g>
</g>
<!-- Node4&#45;&gt;Node12 -->
<g id="edge12_Node000004_Node000012" class="edge">
<title>Node4&#45;&gt;Node12</title>
<g id="a_edge12_Node000004_Node000012"><a xlink:title=" ">
<path fill="none" stroke="#63b8ff" d="M323.67,-109.75C320.86,-102.65 316.8,-92.4 313.29,-83.56"/>
<polygon fill="#63b8ff" stroke="#63b8ff" points="316.48,-82.1 309.54,-74.09 309.97,-84.68 316.48,-82.1"/>
</a>
</g>
</g>
<!-- Node5&#45;&gt;Node6 -->
<g id="edge5_Node000005_Node000006" class="edge">
<title>Node5&#45;&gt;Node6</title>
<g id="a_edge5_Node000005_Node000006"><a xlink:title=" ">
<path fill="none" stroke="#63b8ff" d="M1000.92,-54.75C1005.76,-47.42 1012.82,-36.73 1018.78,-27.7"/>
<polygon fill="#63b8ff" stroke="#63b8ff" points="1021.87,-29.36 1024.46,-19.09 1016.03,-25.5 1021.87,-29.36"/>
</a>
</g>
</g>
<!-- Node7 -->
<g id="Node000007" class="node">
<title>Node7</title>
<g id="a_Node000007"><a xlink:title=" ">
<polygon fill="#e0e0e0" stroke="#999999" points="982.64,-19 937.64,-19 937.64,0 982.64,0 982.64,-19"/>
<text text-anchor="middle" x="960.14" y="-7" font-family="Helvetica,sans-Serif" font-size="10.00">utility</text>
</a>
</g>
</g>
<!-- Node5&#45;&gt;Node7 -->
<g id="edge6_Node000005_Node000007" class="edge">
<title>Node5&#45;&gt;Node7</title>
<g id="a_edge6_Node000005_Node000007"><a xlink:title=" ">
<path fill="none" stroke="#63b8ff" d="M989.36,-54.75C984.52,-47.42 977.46,-36.73 971.49,-27.7"/>
<polygon fill="#63b8ff" stroke="#63b8ff" points="974.24,-25.5 965.81,-19.09 968.4,-29.36 974.24,-25.5"/>
</a>
</g>
</g>
<!-- Node8&#45;&gt;Node3 -->
<g id="edge8_Node000008_Node000003" class="edge">
<title>Node8&#45;&gt;Node3</title>
<g id="a_edge8_Node000008_Node000003"><a xlink:title=" ">
<path fill="none" stroke="#63b8ff" d="M456.14,-54.75C456.14,-47.8 456.14,-37.85 456.14,-29.13"/>
<polygon fill="#63b8ff" stroke="#63b8ff" points="459.64,-29.09 456.14,-19.09 452.64,-29.09 459.64,-29.09"/>
</a>
</g>
</g>
<!-- Node15 -->
<g id="Node000015" class="node">
<title>Node15</title>
<g id="a_Node000015"><a xlink:title=" ">
<polygon fill="#e0e0e0" stroke="#999999" points="841.64,-239 752.64,-239 752.64,-220 841.64,-220 841.64,-239"/>
<text text-anchor="middle" x="797.14" y="-227" font-family="Helvetica,sans-Serif" font-size="10.00">ESP8266WiFi.h</text>
</a>
</g>
</g>
<!-- Node14&#45;&gt;Node15 -->
<g id="edge17_Node000014_Node000015" class="edge">
<title>Node14&#45;&gt;Node15</title>
<g id="a_edge17_Node000014_Node000015"><a xlink:title=" ">
<path fill="none" stroke="#63b8ff" d="M688.02,-274.98C709.22,-266.34 742.26,-252.87 766.44,-243.02"/>
<polygon fill="#63b8ff" stroke="#63b8ff" points="767.93,-246.19 775.87,-239.17 765.29,-239.7 767.93,-246.19"/>
</a>
</g>
</g>
<!-- Node16 -->
<g id="Node000016" class="node">
<title>Node16</title>
<g id="a_Node000016"><a xlink:title=" ">
<polygon fill="#e0e0e0" stroke="#999999" points="932.14,-239 860.14,-239 860.14,-220 932.14,-220 932.14,-239"/>
<text text-anchor="middle" x="896.14" y="-227" font-family="Helvetica,sans-Serif" font-size="10.00">coredecls.h</text>
</a>
</g>
</g>
<!-- Node14&#45;&gt;Node16 -->
<g id="edge18_Node000014_Node000016" class="edge">
<title>Node14&#45;&gt;Node16</title>
<g id="a_edge18_Node000014_Node000016"><a xlink:title=" ">
<path fill="none" stroke="#63b8ff" d="M691.64,-277.83C729.35,-269.1 802.21,-252.24 850.01,-241.18"/>
<polygon fill="#63b8ff" stroke="#63b8ff" points="850.85,-244.57 859.8,-238.91 849.27,-237.75 850.85,-244.57"/>
</a>
</g>
</g>
<!-- Node17 -->
<g id="Node000017" class="node">
<title>Node17</title>
<g id="a_Node000017"><a xlink:href="_date_events_8h.html" target="_top" xlink:title="Date and time event definitions for the Uniot event system.">
<polygon fill="white" stroke="#666666" points="1032.14,-239 950.14,-239 950.14,-220 1032.14,-220 1032.14,-239"/>
<text text-anchor="middle" x="991.14" y="-227" font-family="Helvetica,sans-Serif" font-size="10.00">DateEvents.h</text>
</a>
</g>
</g>
<!-- Node14&#45;&gt;Node17 -->
<g id="edge19_Node000014_Node000017" class="edge">
<title>Node14&#45;&gt;Node17</title>
<g id="a_edge19_Node000014_Node000017"><a xlink:title=" ">
<path fill="none" stroke="#63b8ff" d="M691.71,-279.57C738.08,-272.14 841.94,-255.45 939.87,-239.2"/>
<polygon fill="#63b8ff" stroke="#63b8ff" points="940.65,-242.62 949.94,-237.53 939.5,-235.71 940.65,-242.62"/>
</a>
</g>
</g>
<!-- Node18 -->
<g id="Node000018" class="node">
<title>Node18</title>
<g id="a_Node000018"><a xlink:href="_c_b_o_r_storage_8h.html" target="_top" xlink:title=" ">
<polygon fill="white" stroke="#666666" points="309.64,-239 218.64,-239 218.64,-220 309.64,-220 309.64,-239"/>
<text text-anchor="middle" x="264.14" y="-227" font-family="Helvetica,sans-Serif" font-size="10.00">CBORStorage.h</text>
</a>
</g>
</g>
<!-- Node14&#45;&gt;Node18 -->
<g id="edge21_Node000014_Node000018" class="edge">
<title>Node14&#45;&gt;Node18</title>
<g id="a_edge21_Node000014_Node000018"><a xlink:title=" ">
<path fill="none" stroke="#63b8ff" d="M642.53,-280.26C579.16,-271.93 409.1,-249.56 320.13,-237.86"/>
<polygon fill="#63b8ff" stroke="#63b8ff" points="320.33,-234.36 309.95,-236.53 319.41,-241.3 320.33,-234.36"/>
</a>
</g>
</g>
<!-- Node22 -->
<g id="Node000022" class="node">
<title>Node22</title>
<g id="a_Node000022"><a xlink:href="_event_emitter_8h.html" target="_top" xlink:title=" ">
<polygon fill="white" stroke="#666666" points="511.64,-239 422.64,-239 422.64,-220 511.64,-220 511.64,-239"/>
<text text-anchor="middle" x="467.14" y="-227" font-family="Helvetica,sans-Serif" font-size="10.00">EventEmitter.h</text>
</a>
</g>
</g>
<!-- Node14&#45;&gt;Node22 -->
<g id="edge28_Node000014_Node000022" class="edge">
<title>Node14&#45;&gt;Node22</title>
<g id="a_edge28_Node000014_Node000022"><a xlink:title=" ">
<path fill="none" stroke="#63b8ff" d="M642.61,-277C609.44,-268.21 549.77,-252.4 509.32,-241.68"/>
<polygon fill="#63b8ff" stroke="#63b8ff" points="510.04,-238.25 499.48,-239.07 508.25,-245.02 510.04,-238.25"/>
</a>
</g>
</g>
<!-- Node27 -->
<g id="Node000027" class="node">
<title>Node27</title>
<g id="a_Node000027"><a xlink:href="_i_executor_8h.html" target="_top" xlink:title=" ">
<polygon fill="white" stroke="#666666" points="904.14,-129 834.14,-129 834.14,-110 904.14,-110 904.14,-129"/>
<text text-anchor="middle" x="869.14" y="-117" font-family="Helvetica,sans-Serif" font-size="10.00">IExecutor.h</text>
</a>
</g>
</g>
<!-- Node14&#45;&gt;Node27 -->
<g id="edge38_Node000014_Node000027" class="edge">
<title>Node14&#45;&gt;Node27</title>
<g id="a_edge38_Node000014_Node000027"><a xlink:title=" ">
<path fill="none" stroke="#63b8ff" d="M691.88,-282.42C771.59,-278.71 1017.88,-265.19 1041.14,-239 1085.13,-189.46 978.7,-150.27 914.16,-131.89"/>
<polygon fill="#63b8ff" stroke="#63b8ff" points="914.76,-128.43 904.19,-129.12 912.89,-135.17 914.76,-128.43"/>
</a>
</g>
</g>
<!-- Node28 -->
<g id="Node000028" class="node">
<title>Node28</title>
<g id="a_Node000028"><a xlink:href="_simple_n_t_p_8h.html" target="_top" xlink:title=" ">
<polygon fill="white" stroke="#666666" points="606.64,-239 529.64,-239 529.64,-220 606.64,-220 606.64,-239"/>
<text text-anchor="middle" x="568.14" y="-227" font-family="Helvetica,sans-Serif" font-size="10.00">SimpleNTP.h</text>
</a>
</g>
</g>
<!-- Node14&#45;&gt;Node28 -->
<g id="edge39_Node000014_Node000028" class="edge">
<title>Node14&#45;&gt;Node28</title>
<g id="a_edge39_Node000014_Node000028"><a xlink:title=" ">
<path fill="none" stroke="#63b8ff" d="M651.23,-274.98C635.59,-266.61 611.48,-253.7 593.25,-243.95"/>
<polygon fill="#63b8ff" stroke="#63b8ff" points="594.8,-240.8 584.33,-239.17 591.5,-246.98 594.8,-240.8"/>
</a>
</g>
</g>
<!-- Node30 -->
<g id="Node000030" class="node">
<title>Node30</title>
<g id="a_Node000030"><a xlink:title=" ">
<polygon fill="#e0e0e0" stroke="#999999" points="774.14,-184 726.14,-184 726.14,-165 774.14,-165 774.14,-184"/>
<text text-anchor="middle" x="750.14" y="-172" font-family="Helvetica,sans-Serif" font-size="10.00">time.h</text>
</a>
</g>
</g>
<!-- Node14&#45;&gt;Node30 -->
<g id="edge44_Node000014_Node000030" class="edge">
<title>Node14&#45;&gt;Node30</title>
<g id="a_edge44_Node000014_Node000030"><a xlink:title=" ">
<path fill="none" stroke="#63b8ff" d="M661.74,-274.98C654.33,-262.07 643.11,-237.26 654.14,-220 661.38,-208.66 691.79,-195.72 716.47,-186.73"/>
<polygon fill="#63b8ff" stroke="#63b8ff" points="717.67,-190.01 725.93,-183.37 715.33,-183.42 717.67,-190.01"/>
</a>
</g>
</g>
<!-- Node31 -->
<g id="Node000031" class="node">
<title>Node31</title>
<g id="a_Node000031"><a xlink:href="_singleton_8h.html" target="_top" xlink:title=" ">
<polygon fill="white" stroke="#666666" points="734.64,-239 663.64,-239 663.64,-220 734.64,-220 734.64,-239"/>
<text text-anchor="middle" x="699.14" y="-227" font-family="Helvetica,sans-Serif" font-size="10.00">Singleton.h</text>
</a>
</g>
</g>
<!-- Node14&#45;&gt;Node31 -->
<g id="edge43_Node000014_Node000031" class="edge">
<title>Node14&#45;&gt;Node31</title>
<g id="a_edge43_Node000014_Node000031"><a xlink:title=" ">
<path fill="none" stroke="#63b8ff" d="M672.42,-274.75C676.85,-267.42 683.3,-256.73 688.75,-247.7"/>
<polygon fill="#63b8ff" stroke="#63b8ff" points="691.78,-249.46 693.95,-239.09 685.79,-245.84 691.78,-249.46"/>
</a>
</g>
</g>
<!-- Node17&#45;&gt;Node5 -->
<g id="edge20_Node000017_Node000005" class="edge">
<title>Node17&#45;&gt;Node5</title>
<g id="a_edge20_Node000017_Node000005"><a xlink:title=" ">
<path fill="none" stroke="#63b8ff" d="M956.94,-219.95C897.15,-203.36 783.7,-163.68 825.14,-110 840.31,-90.34 904.95,-77.69 950,-71.08"/>
<polygon fill="#63b8ff" stroke="#63b8ff" points="950.72,-74.51 960.13,-69.65 949.74,-67.58 950.72,-74.51"/>
</a>
</g>
</g>
<!-- Node18&#45;&gt;Node2 -->
<g id="edge27_Node000018_Node000002" class="edge">
<title>Node18&#45;&gt;Node2</title>
<g id="a_edge27_Node000018_Node000002"><a xlink:title=" ">
<path fill="none" stroke="#63b8ff" d="M244.37,-219.98C224.41,-211.38 193.33,-197.99 170.49,-188.15"/>
<polygon fill="#63b8ff" stroke="#63b8ff" points="171.83,-184.91 161.26,-184.17 169.06,-191.34 171.83,-184.91"/>
</a>
</g>
</g>
<!-- Node19 -->
<g id="Node000019" class="node">
<title>Node19</title>
<g id="a_Node000019"><a xlink:href="_storage_8h.html" target="_top" xlink:title=" ">
<polygon fill="white" stroke="#666666" points="295.64,-184 232.64,-184 232.64,-165 295.64,-165 295.64,-184"/>
<text text-anchor="middle" x="264.14" y="-172" font-family="Helvetica,sans-Serif" font-size="10.00">Storage.h</text>
</a>
</g>
</g>
<!-- Node18&#45;&gt;Node19 -->
<g id="edge22_Node000018_Node000019" class="edge">
<title>Node18&#45;&gt;Node19</title>
<g id="a_edge22_Node000018_Node000019"><a xlink:title=" ">
<path fill="none" stroke="#63b8ff" d="M264.14,-219.75C264.14,-212.8 264.14,-202.85 264.14,-194.13"/>
<polygon fill="#63b8ff" stroke="#63b8ff" points="267.64,-194.09 264.14,-184.09 260.64,-194.09 267.64,-194.09"/>
</a>
</g>
</g>
<!-- Node19&#45;&gt;Node4 -->
<g id="edge25_Node000019_Node000004" class="edge">
<title>Node19&#45;&gt;Node4</title>
<g id="a_edge25_Node000019_Node000004"><a xlink:title=" ">
<path fill="none" stroke="#63b8ff" d="M274.26,-164.98C283.57,-157.15 297.61,-145.34 308.88,-135.86"/>
<polygon fill="#63b8ff" stroke="#63b8ff" points="311.43,-138.29 316.83,-129.17 306.93,-132.93 311.43,-138.29"/>
</a>
</g>
</g>
<!-- Node19&#45;&gt;Node8 -->
<g id="edge26_Node000019_Node000008" class="edge">
<title>Node19&#45;&gt;Node8</title>
<g id="a_edge26_Node000019_Node000008"><a xlink:title=" ">
<path fill="none" stroke="#63b8ff" d="M285.67,-164.95C305.87,-156.65 336.7,-143.23 362.14,-129 388.87,-114.04 417.82,-93.82 436.42,-80.25"/>
<polygon fill="#63b8ff" stroke="#63b8ff" points="438.69,-82.92 444.67,-74.17 434.54,-77.29 438.69,-82.92"/>
</a>
</g>
</g>
<!-- Node20 -->
<g id="Node000020" class="node">
<title>Node20</title>
<g id="a_Node000020"><a xlink:title=" ">
<polygon fill="#e0e0e0" stroke="#999999" points="282.64,-129 245.64,-129 245.64,-110 282.64,-110 282.64,-129"/>
<text text-anchor="middle" x="264.14" y="-117" font-family="Helvetica,sans-Serif" font-size="10.00">FS.h</text>
</a>
</g>
</g>
<!-- Node19&#45;&gt;Node20 -->
<g id="edge23_Node000019_Node000020" class="edge">
<title>Node19&#45;&gt;Node20</title>
<g id="a_edge23_Node000019_Node000020"><a xlink:title=" ">
<path fill="none" stroke="#63b8ff" d="M264.14,-164.75C264.14,-157.8 264.14,-147.85 264.14,-139.13"/>
<polygon fill="#63b8ff" stroke="#63b8ff" points="267.64,-139.09 264.14,-129.09 260.64,-139.09 267.64,-139.09"/>
</a>
</g>
</g>
<!-- Node21 -->
<g id="Node000021" class="node">
<title>Node21</title>
<g id="a_Node000021"><a xlink:title=" ">
<polygon fill="#e0e0e0" stroke="#999999" points="227.14,-129 169.14,-129 169.14,-110 227.14,-110 227.14,-129"/>
<text text-anchor="middle" x="198.14" y="-117" font-family="Helvetica,sans-Serif" font-size="10.00">SPIFFS.h</text>
</a>
</g>
</g>
<!-- Node19&#45;&gt;Node21 -->
<g id="edge24_Node000019_Node000021" class="edge">
<title>Node19&#45;&gt;Node21</title>
<g id="a_edge24_Node000019_Node000021"><a xlink:title=" ">
<path fill="none" stroke="#63b8ff" d="M253.53,-164.98C243.68,-157.07 228.79,-145.11 216.92,-135.58"/>
<polygon fill="#63b8ff" stroke="#63b8ff" points="218.92,-132.7 208.93,-129.17 214.54,-138.16 218.92,-132.7"/>
</a>
</g>
</g>
<!-- Node22&#45;&gt;Node4 -->
<g id="edge29_Node000022_Node000004" class="edge">
<title>Node22&#45;&gt;Node4</title>
<g id="a_edge29_Node000022_Node000004"><a xlink:title=" ">
<path fill="none" stroke="#63b8ff" d="M422.62,-223.1C396,-217.58 363.49,-206.45 343.14,-184 332.16,-171.89 328.46,-153.36 327.34,-139.44"/>
<polygon fill="#63b8ff" stroke="#63b8ff" points="330.82,-138.91 326.89,-129.07 323.82,-139.21 330.82,-138.91"/>
</a>
</g>
</g>
<!-- Node23 -->
<g id="Node000023" class="node">
<title>Node23</title>
<g id="a_Node000023"><a xlink:href="_iterable_queue_8h.html" target="_top" xlink:title=" ">
<polygon fill="white" stroke="#666666" points="618.64,-129 523.64,-129 523.64,-110 618.64,-110 618.64,-129"/>
<text text-anchor="middle" x="571.14" y="-117" font-family="Helvetica,sans-Serif" font-size="10.00">IterableQueue.h</text>
</a>
</g>
</g>
<!-- Node22&#45;&gt;Node23 -->
<g id="edge30_Node000022_Node000023" class="edge">
<title>Node22&#45;&gt;Node23</title>
<g id="a_edge30_Node000022_Node000023"><a xlink:title=" ">
<path fill="none" stroke="#63b8ff" d="M492.2,-219.9C509.71,-212.74 532.49,-200.96 547.14,-184 558.2,-171.19 564.4,-152.77 567.72,-139.06"/>
<polygon fill="#63b8ff" stroke="#63b8ff" points="571.14,-139.79 569.79,-129.28 564.29,-138.34 571.14,-139.79"/>
</a>
</g>
</g>
<!-- Node25 -->
<g id="Node000025" class="node">
<title>Node25</title>
<g id="a_Node000025"><a xlink:href="_event_entity_8h.html" target="_top" xlink:title=" ">
<polygon fill="white" stroke="#666666" points="538.14,-184 458.14,-184 458.14,-165 538.14,-165 538.14,-184"/>
<text text-anchor="middle" x="498.14" y="-172" font-family="Helvetica,sans-Serif" font-size="10.00">EventEntity.h</text>
</a>
</g>
</g>
<!-- Node22&#45;&gt;Node25 -->
<g id="edge34_Node000022_Node000025" class="edge">
<title>Node22&#45;&gt;Node25</title>
<g id="a_edge34_Node000022_Node000025"><a xlink:title=" ">
<path fill="none" stroke="#63b8ff" d="M472.26,-219.75C476.5,-212.49 482.66,-201.95 487.91,-192.98"/>
<polygon fill="#63b8ff" stroke="#63b8ff" points="491.09,-194.49 493.11,-184.09 485.04,-190.95 491.09,-194.49"/>
</a>
</g>
</g>
<!-- Node24 -->
<g id="Node000024" class="node">
<title>Node24</title>
<g id="a_Node000024"><a xlink:href="_clear_queue_8h.html" target="_top" xlink:title=" ">
<polygon fill="white" stroke="#666666" points="599.64,-74 516.64,-74 516.64,-55 599.64,-55 599.64,-74"/>
<text text-anchor="middle" x="558.14" y="-62" font-family="Helvetica,sans-Serif" font-size="10.00">ClearQueue.h</text>
</a>
</g>
</g>
<!-- Node23&#45;&gt;Node24 -->
<g id="edge31_Node000023_Node000024" class="edge">
<title>Node23&#45;&gt;Node24</title>
<g id="a_edge31_Node000023_Node000024"><a xlink:title=" ">
<path fill="none" stroke="#63b8ff" d="M568.99,-109.75C567.27,-102.72 564.79,-92.62 562.64,-83.84"/>
<polygon fill="#63b8ff" stroke="#63b8ff" points="566.03,-82.97 560.24,-74.09 559.23,-84.63 566.03,-82.97"/>
</a>
</g>
</g>
<!-- Node24&#45;&gt;Node3 -->
<g id="edge32_Node000024_Node000003" class="edge">
<title>Node24&#45;&gt;Node3</title>
<g id="a_edge32_Node000024_Node000003"><a xlink:title=" ">
<path fill="none" stroke="#63b8ff" d="M541.75,-54.98C525.56,-46.57 500.57,-33.59 481.76,-23.81"/>
<polygon fill="#63b8ff" stroke="#63b8ff" points="483.31,-20.68 472.82,-19.17 480.08,-26.89 483.31,-20.68"/>
</a>
</g>
</g>
<!-- Node24&#45;&gt;Node11 -->
<g id="edge33_Node000024_Node000011" class="edge">
<title>Node24&#45;&gt;Node11</title>
<g id="a_edge33_Node000024_Node000011"><a xlink:title=" ">
<path fill="none" stroke="#63b8ff" d="M558.14,-54.75C558.14,-47.8 558.14,-37.85 558.14,-29.13"/>
<polygon fill="#63b8ff" stroke="#63b8ff" points="561.64,-29.09 558.14,-19.09 554.64,-29.09 561.64,-29.09"/>
</a>
</g>
</g>
<!-- Node25&#45;&gt;Node8 -->
<g id="edge36_Node000025_Node000008" class="edge">
<title>Node25&#45;&gt;Node8</title>
<g id="a_edge36_Node000025_Node000008"><a xlink:title=" ">
<path fill="none" stroke="#63b8ff" d="M478.87,-164.9C465.01,-157.55 447.38,-145.54 439.14,-129 431.84,-114.35 438.05,-96.18 444.93,-83.04"/>
<polygon fill="#63b8ff" stroke="#63b8ff" points="448.12,-84.51 450.11,-74.11 442.07,-81 448.12,-84.51"/>
</a>
</g>
</g>
<!-- Node25&#45;&gt;Node23 -->
<g id="edge35_Node000025_Node000023" class="edge">
<title>Node25&#45;&gt;Node23</title>
<g id="a_edge35_Node000025_Node000023"><a xlink:title=" ">
<path fill="none" stroke="#63b8ff" d="M509.87,-164.98C520.87,-157 537.56,-144.88 550.74,-135.31"/>
<polygon fill="#63b8ff" stroke="#63b8ff" points="553.16,-137.88 559.19,-129.17 549.05,-132.21 553.16,-137.88"/>
</a>
</g>
</g>
<!-- Node26 -->
<g id="Node000026" class="node">
<title>Node26</title>
<g id="a_Node000026"><a xlink:href="_type_id_8h.html" target="_top" xlink:title=" ">
<polygon fill="white" stroke="#666666" points="505.64,-129 448.64,-129 448.64,-110 505.64,-110 505.64,-129"/>
<text text-anchor="middle" x="477.14" y="-117" font-family="Helvetica,sans-Serif" font-size="10.00">TypeId.h</text>
</a>
</g>
</g>
<!-- Node25&#45;&gt;Node26 -->
<g id="edge37_Node000025_Node000026" class="edge">
<title>Node25&#45;&gt;Node26</title>
<g id="a_edge37_Node000025_Node000026"><a xlink:title=" ">
<path fill="none" stroke="#63b8ff" d="M494.67,-164.75C491.86,-157.65 487.8,-147.4 484.29,-138.56"/>
<polygon fill="#63b8ff" stroke="#63b8ff" points="487.48,-137.1 480.54,-129.09 480.97,-139.68 487.48,-137.1"/>
</a>
</g>
</g>
<!-- Node28&#45;&gt;Node8 -->
<g id="edge40_Node000028_Node000008" class="edge">
<title>Node28&#45;&gt;Node8</title>
<g id="a_edge40_Node000028_Node000008"><a xlink:title=" ">
<path fill="none" stroke="#63b8ff" d="M578.69,-219.81C602.38,-199.28 655.53,-146.73 627.14,-110 618.99,-99.46 543.13,-82.73 495.22,-73.06"/>
<polygon fill="#63b8ff" stroke="#63b8ff" points="495.66,-69.58 485.17,-71.06 494.29,-76.45 495.66,-69.58"/>
</a>
</g>
</g>
<!-- Node29 -->
<g id="Node000029" class="node">
<title>Node29</title>
<g id="a_Node000029"><a xlink:title=" ">
<polygon fill="#e0e0e0" stroke="#999999" points="708.14,-184 642.14,-184 642.14,-165 708.14,-165 708.14,-184"/>
<text text-anchor="middle" x="675.14" y="-172" font-family="Helvetica,sans-Serif" font-size="10.00">WiFiUdp.h</text>
</a>
</g>
</g>
<!-- Node28&#45;&gt;Node29 -->
<g id="edge41_Node000028_Node000029" class="edge">
<title>Node28&#45;&gt;Node29</title>
<g id="a_edge41_Node000028_Node000029"><a xlink:title=" ">
<path fill="none" stroke="#63b8ff" d="M585.33,-219.98C602.39,-211.54 628.77,-198.47 648.53,-188.68"/>
<polygon fill="#63b8ff" stroke="#63b8ff" points="650.23,-191.75 657.63,-184.17 647.12,-185.47 650.23,-191.75"/>
</a>
</g>
</g>
<!-- Node28&#45;&gt;Node30 -->
<g id="edge42_Node000028_Node000030" class="edge">
<title>Node28&#45;&gt;Node30</title>
<g id="a_edge42_Node000028_Node000030"><a xlink:title=" ">
<path fill="none" stroke="#63b8ff" d="M597.38,-219.98C629.71,-210.57 681.72,-195.42 715.92,-185.46"/>
<polygon fill="#63b8ff" stroke="#63b8ff" points="717.29,-188.71 725.92,-182.55 715.34,-181.99 717.29,-188.71"/>
</a>
</g>
</g>
<!-- Node32&#45;&gt;Node4 -->
<g id="edge46_Node000032_Node000004" class="edge">
<title>Node32&#45;&gt;Node4</title>
<g id="a_edge46_Node000032_Node000004"><a xlink:title=" ">
<path fill="none" stroke="#63b8ff" d="M385.05,-164.98C374.65,-157 358.88,-144.88 346.42,-135.31"/>
<polygon fill="#63b8ff" stroke="#63b8ff" points="348.49,-132.49 338.42,-129.17 344.22,-138.04 348.49,-132.49"/>
</a>
</g>
</g>
<!-- Node32&#45;&gt;Node23 -->
<g id="edge47_Node000032_Node000023" class="edge">
<title>Node32&#45;&gt;Node23</title>
<g id="a_edge47_Node000032_Node000023"><a xlink:title=" ">
<path fill="none" stroke="#63b8ff" d="M424.25,-164.98C453.76,-156.05 500.33,-141.94 533.1,-132.02"/>
<polygon fill="#63b8ff" stroke="#63b8ff" points="534.24,-135.33 542.8,-129.08 532.21,-128.63 534.24,-135.33"/>
</a>
</g>
</g>
<!-- Node33&#45;&gt;Node5 -->
<g id="edge56_Node000033_Node000005" class="edge">
<title>Node33&#45;&gt;Node5</title>
<g id="a_edge56_Node000033_Node000005"><a xlink:title=" ">
<path fill="none" stroke="#63b8ff" d="M1133.75,-164.92C1132.7,-151.48 1128.77,-125.43 1114.14,-110 1094.72,-89.54 1065.01,-78.41 1040.13,-72.4"/>
<polygon fill="#63b8ff" stroke="#63b8ff" points="1040.69,-68.94 1030.17,-70.2 1039.17,-75.78 1040.69,-68.94"/>
</a>
</g>
</g>
<!-- Node33&#45;&gt;Node6 -->
<g id="edge61_Node000033_Node000006" class="edge">
<title>Node33&#45;&gt;Node6</title>
<g id="a_edge61_Node000033_Node000006"><a xlink:title=" ">
<path fill="none" stroke="#63b8ff" d="M1136.2,-164.86C1138.77,-152.23 1141.93,-128.25 1134.14,-110 1117.87,-71.93 1079.11,-41.47 1053.78,-24.71"/>
<polygon fill="#63b8ff" stroke="#63b8ff" points="1055.43,-21.61 1045.12,-19.16 1051.65,-27.5 1055.43,-21.61"/>
</a>
</g>
</g>
<!-- Node33&#45;&gt;Node11 -->
<g id="edge60_Node000033_Node000011" class="edge">
<title>Node33&#45;&gt;Node11</title>
<g id="a_edge60_Node000033_Node000011"><a xlink:title=" ">
<path fill="none" stroke="#63b8ff" d="M1086.25,-164.93C1048.82,-157.5 995.81,-145.36 951.14,-129 933.41,-122.51 930.75,-116.8 913.14,-110 803.52,-67.68 668.57,-34.89 600.98,-19.72"/>
<polygon fill="#63b8ff" stroke="#63b8ff" points="601.64,-16.28 591.12,-17.53 600.12,-23.12 601.64,-16.28"/>
</a>
</g>
</g>
<!-- Node33&#45;&gt;Node23 -->
<g id="edge59_Node000033_Node000023" class="edge">
<title>Node33&#45;&gt;Node23</title>
<g id="a_edge59_Node000033_Node000023"><a xlink:title=" ">
<path fill="none" stroke="#63b8ff" d="M1086.62,-169.03C983.66,-159.33 740.3,-136.42 628.77,-125.93"/>
<polygon fill="#63b8ff" stroke="#63b8ff" points="629.01,-122.43 618.72,-124.98 628.35,-129.4 629.01,-122.43"/>
</a>
</g>
</g>
<!-- Node33&#45;&gt;Node27 -->
<g id="edge57_Node000033_Node000027" class="edge">
<title>Node33&#45;&gt;Node27</title>
<g id="a_edge57_Node000033_Node000027"><a xlink:title=" ">
<path fill="none" stroke="#63b8ff" d="M1091.56,-164.98C1042.97,-155.27 963.83,-139.44 914.22,-129.52"/>
<polygon fill="#63b8ff" stroke="#63b8ff" points="914.89,-126.08 904.4,-127.55 913.52,-132.95 914.89,-126.08"/>
</a>
</g>
</g>
<!-- Node34 -->
<g id="Node000034" class="node">
<title>Node34</title>
<g id="a_Node000034"><a xlink:href="_e_s_p8266_task_8h.html" target="_top" xlink:title=" ">
<polygon fill="white" stroke="#666666" points="1415.64,-129 1326.64,-129 1326.64,-110 1415.64,-110 1415.64,-129"/>
<text text-anchor="middle" x="1371.14" y="-117" font-family="Helvetica,sans-Serif" font-size="10.00">ESP8266Task.h</text>
</a>
</g>
</g>
<!-- Node33&#45;&gt;Node34 -->
<g id="edge49_Node000033_Node000034" class="edge">
<title>Node33&#45;&gt;Node34</title>
<g id="a_edge49_Node000033_Node000034"><a xlink:title=" ">
<path fill="none" stroke="#63b8ff" d="M1172.21,-164.98C1213.12,-155.84 1278.25,-141.27 1322.76,-131.32"/>
<polygon fill="#63b8ff" stroke="#63b8ff" points="1323.77,-134.68 1332.76,-129.08 1322.24,-127.85 1323.77,-134.68"/>
</a>
</g>
</g>
<!-- Node41 -->
<g id="Node000041" class="node">
<title>Node41</title>
<g id="a_Node000041"><a xlink:href="_i_scheduler_connection_kit_8h.html" target="_top" xlink:title=" ">
<polygon fill="white" stroke="#666666" points="1105.64,-129 960.64,-129 960.64,-110 1105.64,-110 1105.64,-129"/>
<text text-anchor="middle" x="1033.14" y="-117" font-family="Helvetica,sans-Serif" font-size="10.00">ISchedulerConnectionKit.h</text>
</a>
</g>
</g>
<!-- Node33&#45;&gt;Node41 -->
<g id="edge58_Node000033_Node000041" class="edge">
<title>Node33&#45;&gt;Node41</title>
<g id="a_edge58_Node000033_Node000041"><a xlink:title=" ">
<path fill="none" stroke="#63b8ff" d="M1117.91,-164.98C1101.95,-156.61 1077.36,-143.7 1058.76,-133.95"/>
<polygon fill="#63b8ff" stroke="#63b8ff" points="1060.14,-130.72 1049.66,-129.17 1056.89,-136.92 1060.14,-130.72"/>
</a>
</g>
</g>
<!-- Node35 -->
<g id="Node000035" class="node">
<title>Node35</title>
<g id="a_Node000035"><a xlink:title=" ">
<polygon fill="#e0e0e0" stroke="#999999" points="1326.14,-74 1270.14,-74 1270.14,-55 1326.14,-55 1326.14,-74"/>
<text text-anchor="middle" x="1298.14" y="-62" font-family="Helvetica,sans-Serif" font-size="10.00">stddef.h</text>
</a>
</g>
</g>
<!-- Node34&#45;&gt;Node35 -->
<g id="edge50_Node000034_Node000035" class="edge">
<title>Node34&#45;&gt;Node35</title>
<g id="a_edge50_Node000034_Node000035"><a xlink:title=" ">
<path fill="none" stroke="#63b8ff" d="M1359.41,-109.98C1348.41,-102 1331.72,-89.88 1318.53,-80.31"/>
<polygon fill="#63b8ff" stroke="#63b8ff" points="1320.23,-77.21 1310.08,-74.17 1316.11,-82.88 1320.23,-77.21"/>
</a>
</g>
</g>
<!-- Node36 -->
<g id="Node000036" class="node">
<title>Node36</title>
<g id="a_Node000036"><a xlink:title=" ">
<polygon fill="#e0e0e0" stroke="#999999" points="1397.64,-74 1344.64,-74 1344.64,-55 1397.64,-55 1397.64,-74"/>
<text text-anchor="middle" x="1371.14" y="-62" font-family="Helvetica,sans-Serif" font-size="10.00">stdint.h</text>
</a>
</g>
</g>
<!-- Node34&#45;&gt;Node36 -->
<g id="edge51_Node000034_Node000036" class="edge">
<title>Node34&#45;&gt;Node36</title>
<g id="a_edge51_Node000034_Node000036"><a xlink:title=" ">
<path fill="none" stroke="#63b8ff" d="M1371.14,-109.75C1371.14,-102.8 1371.14,-92.85 1371.14,-84.13"/>
<polygon fill="#63b8ff" stroke="#63b8ff" points="1374.64,-84.09 1371.14,-74.09 1367.64,-84.09 1374.64,-84.09"/>
</a>
</g>
</g>
<!-- Node37 -->
<g id="Node000037" class="node">
<title>Node37</title>
<g id="a_Node000037"><a xlink:title=" ">
<polygon fill="#e0e0e0" stroke="#999999" points="1478.64,-74 1415.64,-74 1415.64,-55 1478.64,-55 1478.64,-74"/>
<text text-anchor="middle" x="1447.14" y="-62" font-family="Helvetica,sans-Serif" font-size="10.00">c_types.h</text>
</a>
</g>
</g>
<!-- Node34&#45;&gt;Node37 -->
<g id="edge52_Node000034_Node000037" class="edge">
<title>Node34&#45;&gt;Node37</title>
<g id="a_edge52_Node000034_Node000037"><a xlink:title=" ">
<path fill="none" stroke="#63b8ff" d="M1383.35,-109.98C1394.91,-101.92 1412.51,-89.65 1426.3,-80.03"/>
<polygon fill="#63b8ff" stroke="#63b8ff" points="1428.5,-82.76 1434.7,-74.17 1424.5,-77.02 1428.5,-82.76"/>
</a>
</g>
</g>
<!-- Node38 -->
<g id="Node000038" class="node">
<title>Node38</title>
<g id="a_Node000038"><a xlink:title=" ">
<polygon fill="#e0e0e0" stroke="#999999" points="1571.14,-74 1497.14,-74 1497.14,-55 1571.14,-55 1571.14,-74"/>
<text text-anchor="middle" x="1534.14" y="-62" font-family="Helvetica,sans-Serif" font-size="10.00">eagle_soc.h</text>
</a>
</g>
</g>
<!-- Node34&#45;&gt;Node38 -->
<g id="edge53_Node000034_Node000038" class="edge">
<title>Node34&#45;&gt;Node38</title>
<g id="a_edge53_Node000034_Node000038"><a xlink:title=" ">
<path fill="none" stroke="#63b8ff" d="M1397.33,-109.98C1424.57,-101.13 1467.44,-87.19 1497.92,-77.28"/>
<polygon fill="#63b8ff" stroke="#63b8ff" points="1499.32,-80.5 1507.74,-74.08 1497.15,-73.85 1499.32,-80.5"/>
</a>
</g>
</g>
<!-- Node39 -->
<g id="Node000039" class="node">
<title>Node39</title>
<g id="a_Node000039"><a xlink:title=" ">
<polygon fill="#e0e0e0" stroke="#999999" points="1651.14,-74 1589.14,-74 1589.14,-55 1651.14,-55 1651.14,-74"/>
<text text-anchor="middle" x="1620.14" y="-62" font-family="Helvetica,sans-Serif" font-size="10.00">ets_sys.h</text>
</a>
</g>
</g>
<!-- Node34&#45;&gt;Node39 -->
<g id="edge54_Node000034_Node000039" class="edge">
<title>Node34&#45;&gt;Node39</title>
<g id="a_edge54_Node000034_Node000039"><a xlink:title=" ">
<path fill="none" stroke="#63b8ff" d="M1411.14,-109.98C1457.15,-100.19 1532.32,-84.19 1578.86,-74.29"/>
<polygon fill="#63b8ff" stroke="#63b8ff" points="1579.85,-77.65 1588.9,-72.15 1578.39,-70.81 1579.85,-77.65"/>
</a>
</g>
</g>
<!-- Node40 -->
<g id="Node000040" class="node">
<title>Node40</title>
<g id="a_Node000040"><a xlink:title=" ">
<polygon fill="#e0e0e0" stroke="#999999" points="1252.14,-74 1200.14,-74 1200.14,-55 1252.14,-55 1252.14,-74"/>
<text text-anchor="middle" x="1226.14" y="-62" font-family="Helvetica,sans-Serif" font-size="10.00">osapi.h</text>
</a>
</g>
</g>
<!-- Node34&#45;&gt;Node40 -->
<g id="edge55_Node000034_Node000040" class="edge">
<title>Node34&#45;&gt;Node40</title>
<g id="a_edge55_Node000034_Node000040"><a xlink:title=" ">
<path fill="none" stroke="#63b8ff" d="M1347.84,-109.98C1323.88,-101.23 1286.36,-87.51 1259.31,-77.62"/>
<polygon fill="#63b8ff" stroke="#63b8ff" points="1260.45,-74.32 1249.86,-74.17 1258.05,-80.89 1260.45,-74.32"/>
</a>
</g>
</g>
</g>
</svg>
