<?xml version="1.0" encoding="UTF-8" standalone="no"?>
<!DOCTYPE svg PUBLIC "-//W3C//DTD SVG 1.1//EN"
 "http://www.w3.org/Graphics/SVG/1.1/DTD/svg11.dtd">
<!-- Generated by graphviz version 2.43.0 (0)
 -->
<!-- Title: TypeId.h Pages: 1 -->
<svg width="1028pt" height="577pt"
 viewBox="0.00 0.00 1027.50 577.00" xmlns="http://www.w3.org/2000/svg" xmlns:xlink="http://www.w3.org/1999/xlink">
<g id="graph0" class="graph" transform="scale(1 1) rotate(0) translate(4 573)">
<title>TypeId.h</title>
<!-- Node1 -->
<g id="Node000001" class="node">
<title>Node1</title>
<g id="a_Node000001"><a xlink:title=" ">
<polygon fill="#999999" stroke="#666666" points="587.5,-569 530.5,-569 530.5,-550 587.5,-550 587.5,-569"/>
<text text-anchor="middle" x="559" y="-557" font-family="Helvetica,sans-Serif" font-size="10.00">TypeId.h</text>
</a>
</g>
</g>
<!-- Node2 -->
<g id="Node000002" class="node">
<title>Node2</title>
<g id="a_Node000002"><a xlink:href="_event_entity_8h.html" target="_top" xlink:title=" ">
<polygon fill="white" stroke="#666666" points="240,-404 160,-404 160,-385 240,-385 240,-404"/>
<text text-anchor="middle" x="200" y="-392" font-family="Helvetica,sans-Serif" font-size="10.00">EventEntity.h</text>
</a>
</g>
</g>
<!-- Node1&#45;&gt;Node2 -->
<g id="edge1_Node000001_Node000002" class="edge">
<title>Node1&#45;&gt;Node2</title>
<g id="a_edge1_Node000001_Node000002"><a xlink:title=" ">
<path fill="none" stroke="#63b8ff" d="M531.07,-545.82C460.88,-513.95 278.5,-431.14 219.04,-404.15"/>
<polygon fill="#63b8ff" stroke="#63b8ff" points="529.65,-549.02 540.2,-549.97 532.55,-542.64 529.65,-549.02"/>
</a>
</g>
</g>
<!-- Node22 -->
<g id="Node000022" class="node">
<title>Node22</title>
<g id="a_Node000022"><a xlink:href="_object_register_record_8h.html" target="_top" xlink:title=" ">
<polygon fill="white" stroke="#666666" points="693.5,-514 562.5,-514 562.5,-495 693.5,-495 693.5,-514"/>
<text text-anchor="middle" x="628" y="-502" font-family="Helvetica,sans-Serif" font-size="10.00">ObjectRegisterRecord.h</text>
</a>
</g>
</g>
<!-- Node1&#45;&gt;Node22 -->
<g id="edge35_Node000001_Node000022" class="edge">
<title>Node1&#45;&gt;Node22</title>
<g id="a_edge35_Node000001_Node000022"><a xlink:title=" ">
<path fill="none" stroke="#63b8ff" d="M578.04,-543.88C590.46,-534.34 606.24,-522.21 616.71,-514.17"/>
<polygon fill="#63b8ff" stroke="#63b8ff" points="575.88,-541.12 570.09,-549.98 580.15,-546.67 575.88,-541.12"/>
</a>
</g>
</g>
<!-- Node3 -->
<g id="Node000003" class="node">
<title>Node3</title>
<g id="a_Node000003"><a xlink:href="_event_bus_8cpp.html" target="_top" xlink:title=" ">
<polygon fill="white" stroke="#666666" points="98.5,-239 15.5,-239 15.5,-220 98.5,-220 98.5,-239"/>
<text text-anchor="middle" x="57" y="-227" font-family="Helvetica,sans-Serif" font-size="10.00">EventBus.cpp</text>
</a>
</g>
</g>
<!-- Node2&#45;&gt;Node3 -->
<g id="edge2_Node000002_Node000003" class="edge">
<title>Node2&#45;&gt;Node3</title>
<g id="a_edge2_Node000002_Node000003"><a xlink:title=" ">
<path fill="none" stroke="#63b8ff" d="M185.57,-377.05C155.64,-342.93 87.67,-265.45 64.73,-239.31"/>
<polygon fill="#63b8ff" stroke="#63b8ff" points="183.09,-379.53 192.31,-384.74 188.35,-374.91 183.09,-379.53"/>
</a>
</g>
</g>
<!-- Node4 -->
<g id="Node000004" class="node">
<title>Node4</title>
<g id="a_Node000004"><a xlink:href="_event_emitter_8h.html" target="_top" xlink:title=" ">
<polygon fill="white" stroke="#666666" points="282.5,-349 193.5,-349 193.5,-330 282.5,-330 282.5,-349"/>
<text text-anchor="middle" x="238" y="-337" font-family="Helvetica,sans-Serif" font-size="10.00">EventEmitter.h</text>
</a>
</g>
</g>
<!-- Node2&#45;&gt;Node4 -->
<g id="edge3_Node000002_Node000004" class="edge">
<title>Node2&#45;&gt;Node4</title>
<g id="a_edge3_Node000002_Node000004"><a xlink:title=" ">
<path fill="none" stroke="#63b8ff" d="M212.27,-376.39C218.81,-367.27 226.57,-356.45 231.84,-349.09"/>
<polygon fill="#63b8ff" stroke="#63b8ff" points="209.26,-374.58 206.27,-384.75 214.95,-378.66 209.26,-374.58"/>
</a>
</g>
</g>
<!-- Node21 -->
<g id="Node000021" class="node">
<title>Node21</title>
<g id="a_Node000021"><a xlink:href="_event_entity_8cpp.html" target="_top" xlink:title=" ">
<polygon fill="white" stroke="#666666" points="92,-349 0,-349 0,-330 92,-330 92,-349"/>
<text text-anchor="middle" x="46" y="-337" font-family="Helvetica,sans-Serif" font-size="10.00">EventEntity.cpp</text>
</a>
</g>
</g>
<!-- Node2&#45;&gt;Node21 -->
<g id="edge34_Node000002_Node000021" class="edge">
<title>Node2&#45;&gt;Node21</title>
<g id="a_edge34_Node000002_Node000021"><a xlink:title=" ">
<path fill="none" stroke="#63b8ff" d="M165.62,-381.67C136.91,-371.79 96.64,-357.93 70.94,-349.08"/>
<polygon fill="#63b8ff" stroke="#63b8ff" points="164.66,-385.04 175.26,-384.98 166.94,-378.42 164.66,-385.04"/>
</a>
</g>
</g>
<!-- Node4&#45;&gt;Node3 -->
<g id="edge16_Node000004_Node000003" class="edge">
<title>Node4&#45;&gt;Node3</title>
<g id="a_edge16_Node000004_Node000003"><a xlink:title=" ">
<path fill="none" stroke="#63b8ff" d="M215.75,-324.7C194.75,-311.73 162.36,-291.85 134,-275 112.63,-262.3 87.68,-247.98 72.11,-239.09"/>
<polygon fill="#63b8ff" stroke="#63b8ff" points="213.92,-327.69 224.27,-329.97 217.61,-321.73 213.92,-327.69"/>
</a>
</g>
</g>
<!-- Node5 -->
<g id="Node000005" class="node">
<title>Node5</title>
<g id="a_Node000005"><a xlink:href="_date_8h.html" target="_top" xlink:title=" ">
<polygon fill="white" stroke="#666666" points="242.5,-239 193.5,-239 193.5,-220 242.5,-220 242.5,-239"/>
<text text-anchor="middle" x="218" y="-227" font-family="Helvetica,sans-Serif" font-size="10.00">Date.h</text>
</a>
</g>
</g>
<!-- Node4&#45;&gt;Node5 -->
<g id="edge4_Node000004_Node000005" class="edge">
<title>Node4&#45;&gt;Node5</title>
<g id="a_edge4_Node000004_Node000005"><a xlink:title=" ">
<path fill="none" stroke="#63b8ff" d="M226.58,-321.15C222.02,-313.22 217.31,-303.49 215,-294 210.36,-274.91 213.62,-251.67 216.04,-239.28"/>
<polygon fill="#63b8ff" stroke="#63b8ff" points="223.68,-323.11 231.9,-329.8 229.64,-319.45 223.68,-323.11"/>
</a>
</g>
</g>
<!-- Node13 -->
<g id="Node000013" class="node">
<title>Node13</title>
<g id="a_Node000013"><a xlink:href="_event_emitter_8cpp.html" target="_top" xlink:title=" ">
<polygon fill="white" stroke="#666666" points="566,-294 466,-294 466,-275 566,-275 566,-294"/>
<text text-anchor="middle" x="516" y="-282" font-family="Helvetica,sans-Serif" font-size="10.00">EventEmitter.cpp</text>
</a>
</g>
</g>
<!-- Node4&#45;&gt;Node13 -->
<g id="edge17_Node000004_Node000013" class="edge">
<title>Node4&#45;&gt;Node13</title>
<g id="a_edge17_Node000004_Node000013"><a xlink:title=" ">
<path fill="none" stroke="#63b8ff" d="M292.73,-328.07C344.85,-318.13 422.35,-303.35 470.98,-294.08"/>
<polygon fill="#63b8ff" stroke="#63b8ff" points="291.83,-324.67 282.67,-329.98 293.14,-331.55 291.83,-324.67"/>
</a>
</g>
</g>
<!-- Node14 -->
<g id="Node000014" class="node">
<title>Node14</title>
<g id="a_Node000014"><a xlink:href="_event_listener_8h.html" target="_top" xlink:title=" ">
<polygon fill="white" stroke="#666666" points="448,-294 356,-294 356,-275 448,-275 448,-294"/>
<text text-anchor="middle" x="402" y="-282" font-family="Helvetica,sans-Serif" font-size="10.00">EventListener.h</text>
</a>
</g>
</g>
<!-- Node4&#45;&gt;Node14 -->
<g id="edge18_Node000004_Node000014" class="edge">
<title>Node4&#45;&gt;Node14</title>
<g id="a_edge18_Node000004_Node000014"><a xlink:title=" ">
<path fill="none" stroke="#63b8ff" d="M274.21,-326.8C304.82,-316.91 347.95,-302.97 375.44,-294.08"/>
<polygon fill="#63b8ff" stroke="#63b8ff" points="272.79,-323.58 264.35,-329.98 274.94,-330.24 272.79,-323.58"/>
</a>
</g>
</g>
<!-- Node20 -->
<g id="Node000020" class="node">
<title>Node20</title>
<g id="a_Node000020"><a xlink:href="_network_scheduler_8h.html" target="_top" xlink:title="Complete WiFi network management and configuration system.">
<polygon fill="white" stroke="#666666" points="338,-294 224,-294 224,-275 338,-275 338,-294"/>
<text text-anchor="middle" x="281" y="-282" font-family="Helvetica,sans-Serif" font-size="10.00">NetworkScheduler.h</text>
</a>
</g>
</g>
<!-- Node4&#45;&gt;Node20 -->
<g id="edge31_Node000004_Node000020" class="edge">
<title>Node4&#45;&gt;Node20</title>
<g id="a_edge31_Node000004_Node000020"><a xlink:title=" ">
<path fill="none" stroke="#63b8ff" d="M251.42,-321.96C258.91,-312.72 267.94,-301.6 274.03,-294.09"/>
<polygon fill="#63b8ff" stroke="#63b8ff" points="248.68,-319.78 245.1,-329.75 254.12,-324.19 248.68,-319.78"/>
</a>
</g>
</g>
<!-- Node6 -->
<g id="Node000006" class="node">
<title>Node6</title>
<g id="a_Node000006"><a xlink:href="_app_kit_8h.html" target="_top" xlink:title=" ">
<polygon fill="white" stroke="#666666" points="581,-129 523,-129 523,-110 581,-110 581,-129"/>
<text text-anchor="middle" x="552" y="-117" font-family="Helvetica,sans-Serif" font-size="10.00">AppKit.h</text>
</a>
</g>
</g>
<!-- Node5&#45;&gt;Node6 -->
<g id="edge5_Node000005_Node000006" class="edge">
<title>Node5&#45;&gt;Node6</title>
<g id="a_edge5_Node000005_Node000006"><a xlink:title=" ">
<path fill="none" stroke="#63b8ff" d="M250.67,-216.41C273.38,-207.82 304.27,-195.75 331,-184 348.65,-176.24 351.87,-171.55 370,-165 422.47,-146.05 486.32,-132.52 522.75,-125.65"/>
<polygon fill="#63b8ff" stroke="#63b8ff" points="249.29,-213.19 241.16,-219.99 251.75,-219.74 249.29,-213.19"/>
</a>
</g>
</g>
<!-- Node7 -->
<g id="Node000007" class="node">
<title>Node7</title>
<g id="a_Node000007"><a xlink:href="_uniot_8h.html" target="_top" xlink:title="Main API interface for the Uniot IoT platform.">
<polygon fill="white" stroke="#666666" points="411,-74 359,-74 359,-55 411,-55 411,-74"/>
<text text-anchor="middle" x="385" y="-62" font-family="Helvetica,sans-Serif" font-size="10.00">Uniot.h</text>
</a>
</g>
</g>
<!-- Node5&#45;&gt;Node7 -->
<g id="edge15_Node000005_Node000007" class="edge">
<title>Node5&#45;&gt;Node7</title>
<g id="a_edge15_Node000005_Node000007"><a xlink:title=" ">
<path fill="none" stroke="#63b8ff" d="M220.17,-209.82C222.51,-196.3 227.3,-178.17 237,-165 270.6,-119.38 331.79,-88.14 363.96,-74.03"/>
<polygon fill="#63b8ff" stroke="#63b8ff" points="216.69,-209.48 218.73,-219.88 223.62,-210.47 216.69,-209.48"/>
</a>
</g>
</g>
<!-- Node9 -->
<g id="Node000009" class="node">
<title>Node9</title>
<g id="a_Node000009"><a xlink:href="_lisp_device_8h.html" target="_top" xlink:title=" ">
<polygon fill="white" stroke="#666666" points="697.5,-184 618.5,-184 618.5,-165 697.5,-165 697.5,-184"/>
<text text-anchor="middle" x="658" y="-172" font-family="Helvetica,sans-Serif" font-size="10.00">LispDevice.h</text>
</a>
</g>
</g>
<!-- Node5&#45;&gt;Node9 -->
<g id="edge8_Node000005_Node000009" class="edge">
<title>Node5&#45;&gt;Node9</title>
<g id="a_edge8_Node000005_Node000009"><a xlink:title=" ">
<path fill="none" stroke="#63b8ff" d="M252.78,-219.9C392.05,-195.03 547.09,-182.74 618.44,-177.94"/>
<polygon fill="#63b8ff" stroke="#63b8ff" points="252,-216.48 242.78,-221.71 253.25,-223.37 252,-216.48"/>
</a>
</g>
</g>
<!-- Node10 -->
<g id="Node000010" class="node">
<title>Node10</title>
<g id="a_Node000010"><a xlink:href="_m_q_t_t_kit_8h.html" target="_top" xlink:title=" ">
<polygon fill="white" stroke="#666666" points="190,-184 122,-184 122,-165 190,-165 190,-184"/>
<text text-anchor="middle" x="156" y="-172" font-family="Helvetica,sans-Serif" font-size="10.00">MQTTKit.h</text>
</a>
</g>
</g>
<!-- Node5&#45;&gt;Node10 -->
<g id="edge10_Node000005_Node000010" class="edge">
<title>Node5&#45;&gt;Node10</title>
<g id="a_edge10_Node000005_Node000010"><a xlink:title=" ">
<path fill="none" stroke="#63b8ff" d="M200.25,-213.32C189.19,-203.87 175.37,-192.06 166.14,-184.17"/>
<polygon fill="#63b8ff" stroke="#63b8ff" points="198.16,-216.15 208.04,-219.98 202.71,-210.83 198.16,-216.15"/>
</a>
</g>
</g>
<!-- Node12 -->
<g id="Node000012" class="node">
<title>Node12</title>
<g id="a_Node000012"><a xlink:href="_top_device_8h.html" target="_top" xlink:title=" ">
<polygon fill="white" stroke="#666666" points="322,-184 246,-184 246,-165 322,-165 322,-184"/>
<text text-anchor="middle" x="284" y="-172" font-family="Helvetica,sans-Serif" font-size="10.00">TopDevice.h</text>
</a>
</g>
</g>
<!-- Node5&#45;&gt;Node12 -->
<g id="edge13_Node000005_Node000012" class="edge">
<title>Node5&#45;&gt;Node12</title>
<g id="a_edge13_Node000005_Node000012"><a xlink:title=" ">
<path fill="none" stroke="#63b8ff" d="M236.55,-213.6C248.38,-204.11 263.29,-192.13 273.2,-184.17"/>
<polygon fill="#63b8ff" stroke="#63b8ff" points="234.21,-210.99 228.6,-219.98 238.59,-216.45 234.21,-210.99"/>
</a>
</g>
</g>
<!-- Node6&#45;&gt;Node7 -->
<g id="edge6_Node000006_Node000007" class="edge">
<title>Node6&#45;&gt;Node7</title>
<g id="a_edge6_Node000006_Node000007"><a xlink:title=" ">
<path fill="none" stroke="#63b8ff" d="M515.45,-106.9C483.95,-96.9 439.26,-82.72 411.21,-73.82"/>
<polygon fill="#63b8ff" stroke="#63b8ff" points="514.58,-110.3 525.17,-109.98 516.7,-103.62 514.58,-110.3"/>
</a>
</g>
</g>
<!-- Node8 -->
<g id="Node000008" class="node">
<title>Node8</title>
<g id="a_Node000008"><a xlink:href="_uniot_8cpp.html" target="_top" xlink:title=" ">
<polygon fill="white" stroke="#666666" points="416.5,-19 353.5,-19 353.5,0 416.5,0 416.5,-19"/>
<text text-anchor="middle" x="385" y="-7" font-family="Helvetica,sans-Serif" font-size="10.00">Uniot.cpp</text>
</a>
</g>
</g>
<!-- Node7&#45;&gt;Node8 -->
<g id="edge7_Node000007_Node000008" class="edge">
<title>Node7&#45;&gt;Node8</title>
<g id="a_edge7_Node000007_Node000008"><a xlink:title=" ">
<path fill="none" stroke="#63b8ff" d="M385,-44.66C385,-35.93 385,-25.99 385,-19.09"/>
<polygon fill="#63b8ff" stroke="#63b8ff" points="381.5,-44.75 385,-54.75 388.5,-44.75 381.5,-44.75"/>
</a>
</g>
</g>
<!-- Node9&#45;&gt;Node6 -->
<g id="edge9_Node000009_Node000006" class="edge">
<title>Node9&#45;&gt;Node6</title>
<g id="a_edge9_Node000009_Node000006"><a xlink:title=" ">
<path fill="none" stroke="#63b8ff" d="M632,-160.5C612.5,-150.75 586.35,-137.68 569.34,-129.17"/>
<polygon fill="#63b8ff" stroke="#63b8ff" points="630.46,-163.64 640.97,-164.98 633.59,-157.38 630.46,-163.64"/>
</a>
</g>
</g>
<!-- Node10&#45;&gt;Node6 -->
<g id="edge11_Node000010_Node000006" class="edge">
<title>Node10&#45;&gt;Node6</title>
<g id="a_edge11_Node000010_Node000006"><a xlink:title=" ">
<path fill="none" stroke="#63b8ff" d="M200.05,-167.6C281.58,-156.69 453.95,-133.62 522.75,-124.42"/>
<polygon fill="#63b8ff" stroke="#63b8ff" points="199.55,-164.14 190.11,-168.94 200.48,-171.08 199.55,-164.14"/>
</a>
</g>
</g>
<!-- Node11 -->
<g id="Node000011" class="node">
<title>Node11</title>
<g id="a_Node000011"><a xlink:href="_m_q_t_t_device_8cpp.html" target="_top" xlink:title=" ">
<polygon fill="white" stroke="#666666" points="189.5,-129 90.5,-129 90.5,-110 189.5,-110 189.5,-129"/>
<text text-anchor="middle" x="140" y="-117" font-family="Helvetica,sans-Serif" font-size="10.00">MQTTDevice.cpp</text>
</a>
</g>
</g>
<!-- Node10&#45;&gt;Node11 -->
<g id="edge12_Node000010_Node000011" class="edge">
<title>Node10&#45;&gt;Node11</title>
<g id="a_edge12_Node000010_Node000011"><a xlink:title=" ">
<path fill="none" stroke="#63b8ff" d="M150.4,-154.95C147.74,-146.15 144.7,-136.06 142.59,-129.09"/>
<polygon fill="#63b8ff" stroke="#63b8ff" points="147.12,-156.19 153.36,-164.75 153.82,-154.16 147.12,-156.19"/>
</a>
</g>
</g>
<!-- Node12&#45;&gt;Node6 -->
<g id="edge14_Node000012_Node000006" class="edge">
<title>Node12&#45;&gt;Node6</title>
<g id="a_edge14_Node000012_Node000006"><a xlink:title=" ">
<path fill="none" stroke="#63b8ff" d="M332.05,-164C387.45,-153.04 476.77,-135.38 522.68,-126.3"/>
<polygon fill="#63b8ff" stroke="#63b8ff" points="331.24,-160.59 322.11,-165.96 332.6,-167.46 331.24,-160.59"/>
</a>
</g>
</g>
<!-- Node14&#45;&gt;Node3 -->
<g id="edge22_Node000014_Node000003" class="edge">
<title>Node14&#45;&gt;Node3</title>
<g id="a_edge22_Node000014_Node000003"><a xlink:title=" ">
<path fill="none" stroke="#63b8ff" d="M345.81,-274.82C251.63,-260.32 153.22,-245.23 98.78,-236.9"/>
<polygon fill="#63b8ff" stroke="#63b8ff" points="345.37,-278.29 355.79,-276.35 346.44,-271.37 345.37,-278.29"/>
</a>
</g>
</g>
<!-- Node14&#45;&gt;Node9 -->
<g id="edge24_Node000014_Node000009" class="edge">
<title>Node14&#45;&gt;Node9</title>
<g id="a_edge24_Node000014_Node000009"><a xlink:title=" ">
<path fill="none" stroke="#63b8ff" d="M458.13,-274.61C532.23,-262.75 653.76,-242.79 657,-239 670.18,-223.57 664.93,-197.52 660.93,-184.08"/>
<polygon fill="#63b8ff" stroke="#63b8ff" points="457.33,-271.2 448.01,-276.23 458.44,-278.11 457.33,-271.2"/>
</a>
</g>
</g>
<!-- Node14&#45;&gt;Node10 -->
<g id="edge25_Node000014_Node000010" class="edge">
<title>Node14&#45;&gt;Node10</title>
<g id="a_edge25_Node000014_Node000010"><a xlink:title=" ">
<path fill="none" stroke="#63b8ff" d="M345.66,-274.75C285.34,-264.95 196.54,-249.11 184,-239 166.74,-225.09 159.83,-198.37 157.3,-184.44"/>
<polygon fill="#63b8ff" stroke="#63b8ff" points="345.4,-278.25 355.83,-276.39 346.51,-271.34 345.4,-278.25"/>
</a>
</g>
</g>
<!-- Node15 -->
<g id="Node000015" class="node">
<title>Node15</title>
<g id="a_Node000015"><a xlink:href="_callback_event_listener_8h.html" target="_top" xlink:title=" ">
<polygon fill="white" stroke="#666666" points="516,-239 382,-239 382,-220 516,-220 516,-239"/>
<text text-anchor="middle" x="449" y="-227" font-family="Helvetica,sans-Serif" font-size="10.00">CallbackEventListener.h</text>
</a>
</g>
</g>
<!-- Node14&#45;&gt;Node15 -->
<g id="edge19_Node000014_Node000015" class="edge">
<title>Node14&#45;&gt;Node15</title>
<g id="a_edge19_Node000014_Node000015"><a xlink:title=" ">
<path fill="none" stroke="#63b8ff" d="M416.42,-267.24C424.66,-257.95 434.65,-246.68 441.38,-239.09"/>
<polygon fill="#63b8ff" stroke="#63b8ff" points="413.78,-264.94 409.76,-274.75 419.01,-269.59 413.78,-264.94"/>
</a>
</g>
</g>
<!-- Node17 -->
<g id="Node000017" class="node">
<title>Node17</title>
<g id="a_Node000017"><a xlink:href="_event_listener_8cpp.html" target="_top" xlink:title=" ">
<polygon fill="white" stroke="#666666" points="363.5,-239 260.5,-239 260.5,-220 363.5,-220 363.5,-239"/>
<text text-anchor="middle" x="312" y="-227" font-family="Helvetica,sans-Serif" font-size="10.00">EventListener.cpp</text>
</a>
</g>
</g>
<!-- Node14&#45;&gt;Node17 -->
<g id="edge23_Node000014_Node000017" class="edge">
<title>Node14&#45;&gt;Node17</title>
<g id="a_edge23_Node000014_Node000017"><a xlink:title=" ">
<path fill="none" stroke="#63b8ff" d="M378.56,-269.7C362.16,-260.04 340.77,-247.44 326.72,-239.17"/>
<polygon fill="#63b8ff" stroke="#63b8ff" points="377.15,-272.93 387.54,-274.98 380.7,-266.89 377.15,-272.93"/>
</a>
</g>
</g>
<!-- Node18 -->
<g id="Node000018" class="node">
<title>Node18</title>
<g id="a_Node000018"><a xlink:href="_network_controller_8h.html" target="_top" xlink:title="High&#45;level network management controller with user interface.">
<polygon fill="white" stroke="#666666" points="648,-239 534,-239 534,-220 648,-220 648,-239"/>
<text text-anchor="middle" x="591" y="-227" font-family="Helvetica,sans-Serif" font-size="10.00">NetworkController.h</text>
</a>
</g>
</g>
<!-- Node14&#45;&gt;Node18 -->
<g id="edge26_Node000014_Node000018" class="edge">
<title>Node14&#45;&gt;Node18</title>
<g id="a_edge26_Node000014_Node000018"><a xlink:title=" ">
<path fill="none" stroke="#63b8ff" d="M442.35,-272.18C477.7,-262.27 528.3,-248.08 560.4,-239.08"/>
<polygon fill="#63b8ff" stroke="#63b8ff" points="441.05,-268.91 432.37,-274.98 442.94,-275.65 441.05,-268.91"/>
</a>
</g>
</g>
<!-- Node19 -->
<g id="Node000019" class="node">
<title>Node19</title>
<g id="a_Node000019"><a xlink:href="un_lisp_8h.html" target="_top" xlink:title=" ">
<polygon fill="white" stroke="#666666" points="761.5,-239 704.5,-239 704.5,-220 761.5,-220 761.5,-239"/>
<text text-anchor="middle" x="733" y="-227" font-family="Helvetica,sans-Serif" font-size="10.00">unLisp.h</text>
</a>
</g>
</g>
<!-- Node14&#45;&gt;Node19 -->
<g id="edge28_Node000014_Node000019" class="edge">
<title>Node14&#45;&gt;Node19</title>
<g id="a_edge28_Node000014_Node000019"><a xlink:title=" ">
<path fill="none" stroke="#63b8ff" d="M458.18,-274.82C562.21,-258.87 589.93,-256.61 690,-239 694.65,-238.18 699.56,-237.26 704.35,-236.34"/>
<polygon fill="#63b8ff" stroke="#63b8ff" points="457.56,-271.38 448.21,-276.36 458.63,-278.3 457.56,-271.38"/>
</a>
</g>
</g>
<!-- Node15&#45;&gt;Node6 -->
<g id="edge20_Node000015_Node000006" class="edge">
<title>Node15&#45;&gt;Node6</title>
<g id="a_edge20_Node000015_Node000006"><a xlink:title=" ">
<path fill="none" stroke="#63b8ff" d="M486.62,-216.14C502.94,-209.05 521.01,-198.61 533,-184 546.29,-167.81 550.28,-142.55 551.49,-129.29"/>
<polygon fill="#63b8ff" stroke="#63b8ff" points="485.23,-212.92 477.28,-219.92 487.86,-219.41 485.23,-212.92"/>
</a>
</g>
</g>
<!-- Node16 -->
<g id="Node000016" class="node">
<title>Node16</title>
<g id="a_Node000016"><a xlink:href="_callback_event_listener_8cpp.html" target="_top" xlink:title=" ">
<polygon fill="white" stroke="#666666" points="523.5,-184 378.5,-184 378.5,-165 523.5,-165 523.5,-184"/>
<text text-anchor="middle" x="451" y="-172" font-family="Helvetica,sans-Serif" font-size="10.00">CallbackEventListener.cpp</text>
</a>
</g>
</g>
<!-- Node15&#45;&gt;Node16 -->
<g id="edge21_Node000015_Node000016" class="edge">
<title>Node15&#45;&gt;Node16</title>
<g id="a_edge21_Node000015_Node000016"><a xlink:title=" ">
<path fill="none" stroke="#63b8ff" d="M449.71,-209.66C450.04,-200.93 450.42,-190.99 450.68,-184.09"/>
<polygon fill="#63b8ff" stroke="#63b8ff" points="446.21,-209.62 449.33,-219.75 453.2,-209.89 446.21,-209.62"/>
</a>
</g>
</g>
<!-- Node18&#45;&gt;Node6 -->
<g id="edge27_Node000018_Node000006" class="edge">
<title>Node18&#45;&gt;Node6</title>
<g id="a_edge27_Node000018_Node000006"><a xlink:title=" ">
<path fill="none" stroke="#63b8ff" d="M584.36,-210.12C575.86,-186.56 561.45,-146.66 555.13,-129.16"/>
<polygon fill="#63b8ff" stroke="#63b8ff" points="581.12,-211.45 587.81,-219.66 587.7,-209.07 581.12,-211.45"/>
</a>
</g>
</g>
<!-- Node19&#45;&gt;Node6 -->
<g id="edge29_Node000019_Node000006" class="edge">
<title>Node19&#45;&gt;Node6</title>
<g id="a_edge29_Node000019_Node000006"><a xlink:title=" ">
<path fill="none" stroke="#63b8ff" d="M729.84,-209.6C726.51,-195.42 719.88,-176.55 707,-165 671.67,-133.32 615.17,-124.09 581.03,-121.46"/>
<polygon fill="#63b8ff" stroke="#63b8ff" points="726.47,-210.61 731.86,-219.73 733.34,-209.24 726.47,-210.61"/>
</a>
</g>
</g>
<!-- Node19&#45;&gt;Node9 -->
<g id="edge30_Node000019_Node000009" class="edge">
<title>Node19&#45;&gt;Node9</title>
<g id="a_edge30_Node000019_Node000009"><a xlink:title=" ">
<path fill="none" stroke="#63b8ff" d="M712.69,-214.15C699.14,-204.57 681.76,-192.29 670.27,-184.17"/>
<polygon fill="#63b8ff" stroke="#63b8ff" points="710.76,-217.07 720.95,-219.98 714.8,-211.36 710.76,-217.07"/>
</a>
</g>
</g>
<!-- Node20&#45;&gt;Node10 -->
<g id="edge32_Node000020_Node000010" class="edge">
<title>Node20&#45;&gt;Node10</title>
<g id="a_edge32_Node000020_Node000010"><a xlink:title=" ">
<path fill="none" stroke="#63b8ff" d="M213.89,-276.59C190.06,-270.53 165.57,-259.38 151,-239 139.3,-222.63 146.76,-197.44 152.05,-184.25"/>
<polygon fill="#63b8ff" stroke="#63b8ff" points="213.14,-280.01 223.67,-278.82 214.7,-273.19 213.14,-280.01"/>
</a>
</g>
</g>
<!-- Node20&#45;&gt;Node18 -->
<g id="edge33_Node000020_Node000018" class="edge">
<title>Node20&#45;&gt;Node18</title>
<g id="a_edge33_Node000020_Node000018"><a xlink:title=" ">
<path fill="none" stroke="#63b8ff" d="M340.96,-273.25C399.18,-263.3 486.51,-248.36 541.06,-239.04"/>
<polygon fill="#63b8ff" stroke="#63b8ff" points="340.07,-269.85 330.81,-274.98 341.25,-276.75 340.07,-269.85"/>
</a>
</g>
</g>
<!-- Node23 -->
<g id="Node000023" class="node">
<title>Node23</title>
<g id="a_Node000023"><a xlink:href="_button_8h.html" target="_top" xlink:title=" ">
<polygon fill="white" stroke="#666666" points="642,-294 584,-294 584,-275 642,-275 642,-294"/>
<text text-anchor="middle" x="613" y="-282" font-family="Helvetica,sans-Serif" font-size="10.00">Button.h</text>
</a>
</g>
</g>
<!-- Node22&#45;&gt;Node23 -->
<g id="edge36_Node000022_Node000023" class="edge">
<title>Node22&#45;&gt;Node23</title>
<g id="a_edge36_Node000022_Node000023"><a xlink:title=" ">
<path fill="none" stroke="#63b8ff" d="M618.57,-485.96C614.79,-477.97 610.89,-468.26 609,-459 596.32,-397.01 607.13,-319.97 611.43,-294.29"/>
<polygon fill="#63b8ff" stroke="#63b8ff" points="615.49,-487.63 623.12,-494.98 621.74,-484.47 615.49,-487.63"/>
</a>
</g>
</g>
<!-- Node26 -->
<g id="Node000026" class="node">
<title>Node26</title>
<g id="a_Node000026"><a xlink:href="_object_register_8h.html" target="_top" xlink:title=" ">
<polygon fill="white" stroke="#666666" points="875.5,-459 778.5,-459 778.5,-440 875.5,-440 875.5,-459"/>
<text text-anchor="middle" x="827" y="-447" font-family="Helvetica,sans-Serif" font-size="10.00">ObjectRegister.h</text>
</a>
</g>
</g>
<!-- Node22&#45;&gt;Node26 -->
<g id="edge41_Node000022_Node000026" class="edge">
<title>Node22&#45;&gt;Node26</title>
<g id="a_edge41_Node000022_Node000026"><a xlink:title=" ">
<path fill="none" stroke="#63b8ff" d="M670.01,-492.31C707.25,-482.39 760.84,-468.12 794.78,-459.08"/>
<polygon fill="#63b8ff" stroke="#63b8ff" points="668.74,-489.03 659.97,-494.98 670.54,-495.79 668.74,-489.03"/>
</a>
</g>
</g>
<!-- Node31 -->
<g id="Node000031" class="node">
<title>Node31</title>
<g id="a_Node000031"><a xlink:href="_object_register_record_8cpp.html" target="_top" xlink:title=" ">
<polygon fill="white" stroke="#666666" points="760.5,-459 617.5,-459 617.5,-440 760.5,-440 760.5,-459"/>
<text text-anchor="middle" x="689" y="-447" font-family="Helvetica,sans-Serif" font-size="10.00">ObjectRegisterRecord.cpp</text>
</a>
</g>
</g>
<!-- Node22&#45;&gt;Node31 -->
<g id="edge48_Node000022_Node000031" class="edge">
<title>Node22&#45;&gt;Node31</title>
<g id="a_edge48_Node000022_Node000031"><a xlink:title=" ">
<path fill="none" stroke="#63b8ff" d="M645.47,-488.32C656.34,-478.87 669.94,-467.06 679.02,-459.17"/>
<polygon fill="#63b8ff" stroke="#63b8ff" points="643.05,-485.78 637.8,-494.98 647.65,-491.07 643.05,-485.78"/>
</a>
</g>
</g>
<!-- Node23&#45;&gt;Node18 -->
<g id="edge40_Node000023_Node000018" class="edge">
<title>Node23&#45;&gt;Node18</title>
<g id="a_edge40_Node000023_Node000018"><a xlink:title=" ">
<path fill="none" stroke="#63b8ff" d="M605.42,-265.24C601.74,-256.37 597.49,-246.14 594.57,-239.09"/>
<polygon fill="#63b8ff" stroke="#63b8ff" points="602.3,-266.85 609.37,-274.75 608.77,-264.17 602.3,-266.85"/>
</a>
</g>
</g>
<!-- Node24 -->
<g id="Node000024" class="node">
<title>Node24</title>
<g id="a_Node000024"><a xlink:href="_lisp_primitives_8h.html" target="_top" xlink:title=" ">
<polygon fill="white" stroke="#666666" points="874.5,-239 779.5,-239 779.5,-220 874.5,-220 874.5,-239"/>
<text text-anchor="middle" x="827" y="-227" font-family="Helvetica,sans-Serif" font-size="10.00">LispPrimitives.h</text>
</a>
</g>
</g>
<!-- Node23&#45;&gt;Node24 -->
<g id="edge37_Node000023_Node000024" class="edge">
<title>Node23&#45;&gt;Node24</title>
<g id="a_edge37_Node000023_Node000024"><a xlink:title=" ">
<path fill="none" stroke="#63b8ff" d="M652.26,-273.78C692.37,-263.84 754.05,-248.57 792.38,-239.07"/>
<polygon fill="#63b8ff" stroke="#63b8ff" points="651.17,-270.44 642.31,-276.24 652.86,-277.23 651.17,-270.44"/>
</a>
</g>
</g>
<!-- Node24&#45;&gt;Node6 -->
<g id="edge38_Node000024_Node000006" class="edge">
<title>Node24&#45;&gt;Node6</title>
<g id="a_edge38_Node000024_Node000006"><a xlink:title=" ">
<path fill="none" stroke="#63b8ff" d="M807.95,-213.79C788.55,-199.46 757.13,-178 727,-165 677.92,-143.82 616.59,-131.12 581.1,-124.99"/>
<polygon fill="#63b8ff" stroke="#63b8ff" points="805.87,-216.61 815.96,-219.81 810.07,-211.01 805.87,-216.61"/>
</a>
</g>
</g>
<!-- Node25 -->
<g id="Node000025" class="node">
<title>Node25</title>
<g id="a_Node000025"><a xlink:href="_lisp_primitives_8cpp.html" target="_top" xlink:title=" ">
<polygon fill="white" stroke="#666666" points="898,-184 792,-184 792,-165 898,-165 898,-184"/>
<text text-anchor="middle" x="845" y="-172" font-family="Helvetica,sans-Serif" font-size="10.00">LispPrimitives.cpp</text>
</a>
</g>
</g>
<!-- Node24&#45;&gt;Node25 -->
<g id="edge39_Node000024_Node000025" class="edge">
<title>Node24&#45;&gt;Node25</title>
<g id="a_edge39_Node000024_Node000025"><a xlink:title=" ">
<path fill="none" stroke="#63b8ff" d="M833.2,-210.24C836.21,-201.37 839.69,-191.14 842.08,-184.09"/>
<polygon fill="#63b8ff" stroke="#63b8ff" points="829.87,-209.15 829.97,-219.75 836.5,-211.4 829.87,-209.15"/>
</a>
</g>
</g>
<!-- Node27 -->
<g id="Node000027" class="node">
<title>Node27</title>
<g id="a_Node000027"><a xlink:href="_register_manager_8h.html" target="_top" xlink:title=" ">
<polygon fill="white" stroke="#666666" points="881,-404 773,-404 773,-385 881,-385 881,-404"/>
<text text-anchor="middle" x="827" y="-392" font-family="Helvetica,sans-Serif" font-size="10.00">RegisterManager.h</text>
</a>
</g>
</g>
<!-- Node26&#45;&gt;Node27 -->
<g id="edge42_Node000026_Node000027" class="edge">
<title>Node26&#45;&gt;Node27</title>
<g id="a_edge42_Node000026_Node000027"><a xlink:title=" ">
<path fill="none" stroke="#63b8ff" d="M827,-429.66C827,-420.93 827,-410.99 827,-404.09"/>
<polygon fill="#63b8ff" stroke="#63b8ff" points="823.5,-429.75 827,-439.75 830.5,-429.75 823.5,-429.75"/>
</a>
</g>
</g>
<!-- Node28 -->
<g id="Node000028" class="node">
<title>Node28</title>
<g id="a_Node000028"><a xlink:href="_register_manager_proxy_8h.html" target="_top" xlink:title=" ">
<polygon fill="white" stroke="#666666" points="894.5,-349 759.5,-349 759.5,-330 894.5,-330 894.5,-349"/>
<text text-anchor="middle" x="827" y="-337" font-family="Helvetica,sans-Serif" font-size="10.00">RegisterManagerProxy.h</text>
</a>
</g>
</g>
<!-- Node27&#45;&gt;Node28 -->
<g id="edge43_Node000027_Node000028" class="edge">
<title>Node27&#45;&gt;Node28</title>
<g id="a_edge43_Node000027_Node000028"><a xlink:title=" ">
<path fill="none" stroke="#63b8ff" d="M827,-374.66C827,-365.93 827,-355.99 827,-349.09"/>
<polygon fill="#63b8ff" stroke="#63b8ff" points="823.5,-374.75 827,-384.75 830.5,-374.75 823.5,-374.75"/>
</a>
</g>
</g>
<!-- Node29 -->
<g id="Node000029" class="node">
<title>Node29</title>
<g id="a_Node000029"><a xlink:href="_primitive_expeditor_8h.html" target="_top" xlink:title=" ">
<polygon fill="white" stroke="#666666" points="885,-294 769,-294 769,-275 885,-275 885,-294"/>
<text text-anchor="middle" x="827" y="-282" font-family="Helvetica,sans-Serif" font-size="10.00">PrimitiveExpeditor.h</text>
</a>
</g>
</g>
<!-- Node28&#45;&gt;Node29 -->
<g id="edge44_Node000028_Node000029" class="edge">
<title>Node28&#45;&gt;Node29</title>
<g id="a_edge44_Node000028_Node000029"><a xlink:title=" ">
<path fill="none" stroke="#63b8ff" d="M827,-319.66C827,-310.93 827,-300.99 827,-294.09"/>
<polygon fill="#63b8ff" stroke="#63b8ff" points="823.5,-319.75 827,-329.75 830.5,-319.75 823.5,-319.75"/>
</a>
</g>
</g>
<!-- Node29&#45;&gt;Node19 -->
<g id="edge47_Node000029_Node000019" class="edge">
<title>Node29&#45;&gt;Node19</title>
<g id="a_edge47_Node000029_Node000019"><a xlink:title=" ">
<path fill="none" stroke="#63b8ff" d="M803,-269.97C785.81,-260.28 763.19,-247.52 748.38,-239.17"/>
<polygon fill="#63b8ff" stroke="#63b8ff" points="801.47,-273.12 811.9,-274.98 804.91,-267.02 801.47,-273.12"/>
</a>
</g>
</g>
<!-- Node29&#45;&gt;Node24 -->
<g id="edge45_Node000029_Node000024" class="edge">
<title>Node29&#45;&gt;Node24</title>
<g id="a_edge45_Node000029_Node000024"><a xlink:title=" ">
<path fill="none" stroke="#63b8ff" d="M827,-264.66C827,-255.93 827,-245.99 827,-239.09"/>
<polygon fill="#63b8ff" stroke="#63b8ff" points="823.5,-264.75 827,-274.75 830.5,-264.75 823.5,-264.75"/>
</a>
</g>
</g>
<!-- Node30 -->
<g id="Node000030" class="node">
<title>Node30</title>
<g id="a_Node000030"><a xlink:href="_primitive_expeditor_8cpp.html" target="_top" xlink:title=" ">
<polygon fill="white" stroke="#666666" points="1019.5,-239 892.5,-239 892.5,-220 1019.5,-220 1019.5,-239"/>
<text text-anchor="middle" x="956" y="-227" font-family="Helvetica,sans-Serif" font-size="10.00">PrimitiveExpeditor.cpp</text>
</a>
</g>
</g>
<!-- Node29&#45;&gt;Node30 -->
<g id="edge46_Node000029_Node000030" class="edge">
<title>Node29&#45;&gt;Node30</title>
<g id="a_edge46_Node000029_Node000030"><a xlink:title=" ">
<path fill="none" stroke="#63b8ff" d="M857.04,-271.16C880.92,-261.35 913.72,-247.87 934.9,-239.17"/>
<polygon fill="#63b8ff" stroke="#63b8ff" points="855.65,-267.95 847.73,-274.98 858.31,-274.42 855.65,-267.95"/>
</a>
</g>
</g>
</g>
</svg>
