<?xml version="1.0" encoding="UTF-8" standalone="no"?>
<!DOCTYPE svg PUBLIC "-//W3C//DTD SVG 1.1//EN"
 "http://www.w3.org/Graphics/SVG/1.1/DTD/svg11.dtd">
<!-- Generated by graphviz version 2.43.0 (0)
 -->
<!-- Title: WiFiNetworkScan.h Pages: 1 -->
<svg width="1025pt" height="247pt"
 viewBox="0.00 0.00 1025.00 247.00" xmlns="http://www.w3.org/2000/svg" xmlns:xlink="http://www.w3.org/1999/xlink">
<g id="graph0" class="graph" transform="scale(1 1) rotate(0) translate(4 243)">
<title>WiFiNetworkScan.h</title>
<!-- Node1 -->
<g id="Node000001" class="node">
<title>Node1</title>
<g id="a_Node000001"><a xlink:title="Platform&#45;specific WiFi network scanning utilities.">
<polygon fill="#999999" stroke="#666666" points="173,-239 62,-239 62,-220 173,-220 173,-239"/>
<text text-anchor="middle" x="117.5" y="-227" font-family="Helvetica,sans-Serif" font-size="10.00">WiFiNetworkScan.h</text>
</a>
</g>
</g>
<!-- Node2 -->
<g id="Node000002" class="node">
<title>Node2</title>
<g id="a_Node000002"><a xlink:title=" ">
<polygon fill="#e0e0e0" stroke="#999999" points="89,-184 0,-184 0,-165 89,-165 89,-184"/>
<text text-anchor="middle" x="44.5" y="-172" font-family="Helvetica,sans-Serif" font-size="10.00">ESP8266WiFi.h</text>
</a>
</g>
</g>
<!-- Node1&#45;&gt;Node2 -->
<g id="edge1_Node000001_Node000002" class="edge">
<title>Node1&#45;&gt;Node2</title>
<g id="a_edge1_Node000001_Node000002"><a xlink:title=" ">
<path fill="none" stroke="#63b8ff" d="M105.77,-219.98C94.77,-212 78.08,-199.88 64.9,-190.31"/>
<polygon fill="#63b8ff" stroke="#63b8ff" points="66.59,-187.21 56.44,-184.17 62.48,-192.88 66.59,-187.21"/>
</a>
</g>
</g>
<!-- Node3 -->
<g id="Node000003" class="node">
<title>Node3</title>
<g id="a_Node000003"><a xlink:title=" ">
<polygon fill="#e0e0e0" stroke="#999999" points="561,-19 498,-19 498,0 561,0 561,-19"/>
<text text-anchor="middle" x="529.5" y="-7" font-family="Helvetica,sans-Serif" font-size="10.00">Arduino.h</text>
</a>
</g>
</g>
<!-- Node1&#45;&gt;Node3 -->
<g id="edge2_Node000001_Node000003" class="edge">
<title>Node1&#45;&gt;Node3</title>
<g id="a_edge2_Node000001_Node000003"><a xlink:title=" ">
<path fill="none" stroke="#63b8ff" d="M115.17,-219.73C108.21,-191.31 90.73,-100.94 136.5,-55 160.97,-30.44 391.36,-16.94 487.59,-12.33"/>
<polygon fill="#63b8ff" stroke="#63b8ff" points="488,-15.82 497.82,-11.85 487.67,-8.82 488,-15.82"/>
</a>
</g>
</g>
<!-- Node4 -->
<g id="Node000004" class="node">
<title>Node4</title>
<g id="a_Node000004"><a xlink:href="_task_scheduler_8h.html" target="_top" xlink:title=" ">
<polygon fill="white" stroke="#666666" points="686,-184 591,-184 591,-165 686,-165 686,-184"/>
<text text-anchor="middle" x="638.5" y="-172" font-family="Helvetica,sans-Serif" font-size="10.00">TaskScheduler.h</text>
</a>
</g>
</g>
<!-- Node1&#45;&gt;Node4 -->
<g id="edge3_Node000001_Node000004" class="edge">
<title>Node1&#45;&gt;Node4</title>
<g id="a_edge3_Node000001_Node000004"><a xlink:title=" ">
<path fill="none" stroke="#63b8ff" d="M173.26,-222.83C272.74,-212.71 479.86,-191.64 580.76,-181.37"/>
<polygon fill="#63b8ff" stroke="#63b8ff" points="581.17,-184.85 590.77,-180.36 580.46,-177.89 581.17,-184.85"/>
</a>
</g>
</g>
<!-- Node5 -->
<g id="Node000005" class="node">
<title>Node5</title>
<g id="a_Node000005"><a xlink:href="_e_s_p8266_task_8h.html" target="_top" xlink:title=" ">
<polygon fill="white" stroke="#666666" points="454,-129 365,-129 365,-110 454,-110 454,-129"/>
<text text-anchor="middle" x="409.5" y="-117" font-family="Helvetica,sans-Serif" font-size="10.00">ESP8266Task.h</text>
</a>
</g>
</g>
<!-- Node4&#45;&gt;Node5 -->
<g id="edge4_Node000004_Node000005" class="edge">
<title>Node4&#45;&gt;Node5</title>
<g id="a_edge4_Node000004_Node000005"><a xlink:title=" ">
<path fill="none" stroke="#63b8ff" d="M601.71,-164.98C562.26,-155.86 499.52,-141.33 456.52,-131.38"/>
<polygon fill="#63b8ff" stroke="#63b8ff" points="457.11,-127.93 446.58,-129.08 455.53,-134.75 457.11,-127.93"/>
</a>
</g>
</g>
<!-- Node12 -->
<g id="Node000012" class="node">
<title>Node12</title>
<g id="a_Node000012"><a xlink:href="_common_8h.html" target="_top" xlink:title=" ">
<polygon fill="white" stroke="#666666" points="629.5,-129 559.5,-129 559.5,-110 629.5,-110 629.5,-129"/>
<text text-anchor="middle" x="594.5" y="-117" font-family="Helvetica,sans-Serif" font-size="10.00">Common.h</text>
</a>
</g>
</g>
<!-- Node4&#45;&gt;Node12 -->
<g id="edge11_Node000004_Node000012" class="edge">
<title>Node4&#45;&gt;Node12</title>
<g id="a_edge11_Node000004_Node000012"><a xlink:title=" ">
<path fill="none" stroke="#63b8ff" d="M631.23,-164.75C624.96,-157.18 615.71,-146.05 608.07,-136.84"/>
<polygon fill="#63b8ff" stroke="#63b8ff" points="610.71,-134.55 601.63,-129.09 605.33,-139.02 610.71,-134.55"/>
</a>
</g>
</g>
<!-- Node13 -->
<g id="Node000013" class="node">
<title>Node13</title>
<g id="a_Node000013"><a xlink:title=" ">
<polygon fill="#e0e0e0" stroke="#999999" points="672.5,-74 614.5,-74 614.5,-55 672.5,-55 672.5,-74"/>
<text text-anchor="middle" x="643.5" y="-62" font-family="Helvetica,sans-Serif" font-size="10.00">memory</text>
</a>
</g>
</g>
<!-- Node4&#45;&gt;Node13 -->
<g id="edge21_Node000004_Node000013" class="edge">
<title>Node4&#45;&gt;Node13</title>
<g id="a_edge21_Node000004_Node000013"><a xlink:title=" ">
<path fill="none" stroke="#63b8ff" d="M606.19,-164.92C574.78,-154.85 534.03,-136.14 550.5,-110 557.29,-99.22 585.3,-86.66 608.82,-77.64"/>
<polygon fill="#63b8ff" stroke="#63b8ff" points="610.08,-80.91 618.22,-74.13 607.63,-74.35 610.08,-80.91"/>
</a>
</g>
</g>
<!-- Node15 -->
<g id="Node000015" class="node">
<title>Node15</title>
<g id="a_Node000015"><a xlink:href="_i_executor_8h.html" target="_top" xlink:title=" ">
<polygon fill="white" stroke="#666666" points="717.5,-129 647.5,-129 647.5,-110 717.5,-110 717.5,-129"/>
<text text-anchor="middle" x="682.5" y="-117" font-family="Helvetica,sans-Serif" font-size="10.00">IExecutor.h</text>
</a>
</g>
</g>
<!-- Node4&#45;&gt;Node15 -->
<g id="edge14_Node000004_Node000015" class="edge">
<title>Node4&#45;&gt;Node15</title>
<g id="a_edge14_Node000004_Node000015"><a xlink:title=" ">
<path fill="none" stroke="#63b8ff" d="M645.77,-164.75C652.04,-157.18 661.29,-146.05 668.93,-136.84"/>
<polygon fill="#63b8ff" stroke="#63b8ff" points="671.67,-139.02 675.37,-129.09 666.29,-134.55 671.67,-139.02"/>
</a>
</g>
</g>
<!-- Node16 -->
<g id="Node000016" class="node">
<title>Node16</title>
<g id="a_Node000016"><a xlink:href="_i_scheduler_connection_kit_8h.html" target="_top" xlink:title=" ">
<polygon fill="white" stroke="#666666" points="881,-129 736,-129 736,-110 881,-110 881,-129"/>
<text text-anchor="middle" x="808.5" y="-117" font-family="Helvetica,sans-Serif" font-size="10.00">ISchedulerConnectionKit.h</text>
</a>
</g>
</g>
<!-- Node4&#45;&gt;Node16 -->
<g id="edge15_Node000004_Node000016" class="edge">
<title>Node4&#45;&gt;Node16</title>
<g id="a_edge15_Node000004_Node000016"><a xlink:title=" ">
<path fill="none" stroke="#63b8ff" d="M665.81,-164.98C694.35,-156.09 739.33,-142.07 771.14,-132.15"/>
<polygon fill="#63b8ff" stroke="#63b8ff" points="772.47,-135.4 780.97,-129.08 770.38,-128.72 772.47,-135.4"/>
</a>
</g>
</g>
<!-- Node17 -->
<g id="Node000017" class="node">
<title>Node17</title>
<g id="a_Node000017"><a xlink:href="_iterable_queue_8h.html" target="_top" xlink:title=" ">
<polygon fill="white" stroke="#666666" points="994,-129 899,-129 899,-110 994,-110 994,-129"/>
<text text-anchor="middle" x="946.5" y="-117" font-family="Helvetica,sans-Serif" font-size="10.00">IterableQueue.h</text>
</a>
</g>
</g>
<!-- Node4&#45;&gt;Node17 -->
<g id="edge16_Node000004_Node000017" class="edge">
<title>Node4&#45;&gt;Node17</title>
<g id="a_edge16_Node000004_Node000017"><a xlink:title=" ">
<path fill="none" stroke="#63b8ff" d="M686.29,-165.28C740.88,-155.88 830.2,-140.51 888.67,-130.45"/>
<polygon fill="#63b8ff" stroke="#63b8ff" points="889.59,-133.84 898.85,-128.7 888.41,-126.95 889.59,-133.84"/>
</a>
</g>
</g>
<!-- Node19 -->
<g id="Node000019" class="node">
<title>Node19</title>
<g id="a_Node000019"><a xlink:title=" ">
<polygon fill="#e0e0e0" stroke="#999999" points="1017,-19 952,-19 952,0 1017,0 1017,-19"/>
<text text-anchor="middle" x="984.5" y="-7" font-family="Helvetica,sans-Serif" font-size="10.00">functional</text>
</a>
</g>
</g>
<!-- Node4&#45;&gt;Node19 -->
<g id="edge20_Node000004_Node000019" class="edge">
<title>Node4&#45;&gt;Node19</title>
<g id="a_edge20_Node000004_Node000019"><a xlink:title=" ">
<path fill="none" stroke="#63b8ff" d="M686.19,-171.15C780.34,-166.03 982.79,-152.39 1003.5,-129 1028.38,-100.91 1008.85,-53.69 995.08,-28.17"/>
<polygon fill="#63b8ff" stroke="#63b8ff" points="998,-26.21 990.02,-19.24 991.91,-29.67 998,-26.21"/>
</a>
</g>
</g>
<!-- Node6 -->
<g id="Node000006" class="node">
<title>Node6</title>
<g id="a_Node000006"><a xlink:title=" ">
<polygon fill="#e0e0e0" stroke="#999999" points="201.5,-74 145.5,-74 145.5,-55 201.5,-55 201.5,-74"/>
<text text-anchor="middle" x="173.5" y="-62" font-family="Helvetica,sans-Serif" font-size="10.00">stddef.h</text>
</a>
</g>
</g>
<!-- Node5&#45;&gt;Node6 -->
<g id="edge5_Node000005_Node000006" class="edge">
<title>Node5&#45;&gt;Node6</title>
<g id="a_edge5_Node000005_Node000006"><a xlink:title=" ">
<path fill="none" stroke="#63b8ff" d="M370.96,-109.95C332.9,-101.49 272.76,-88.09 211.6,-74.24"/>
<polygon fill="#63b8ff" stroke="#63b8ff" points="212.3,-70.81 201.78,-72.01 210.76,-77.64 212.3,-70.81"/>
</a>
</g>
</g>
<!-- Node7 -->
<g id="Node000007" class="node">
<title>Node7</title>
<g id="a_Node000007"><a xlink:title=" ">
<polygon fill="#e0e0e0" stroke="#999999" points="273,-74 220,-74 220,-55 273,-55 273,-74"/>
<text text-anchor="middle" x="246.5" y="-62" font-family="Helvetica,sans-Serif" font-size="10.00">stdint.h</text>
</a>
</g>
</g>
<!-- Node5&#45;&gt;Node7 -->
<g id="edge6_Node000005_Node000007" class="edge">
<title>Node5&#45;&gt;Node7</title>
<g id="a_edge6_Node000005_Node000007"><a xlink:title=" ">
<path fill="none" stroke="#63b8ff" d="M383.31,-109.98C356.06,-101.13 313.2,-87.19 282.72,-77.28"/>
<polygon fill="#63b8ff" stroke="#63b8ff" points="283.49,-73.85 272.89,-74.08 281.32,-80.5 283.49,-73.85"/>
</a>
</g>
</g>
<!-- Node8 -->
<g id="Node000008" class="node">
<title>Node8</title>
<g id="a_Node000008"><a xlink:title=" ">
<polygon fill="#e0e0e0" stroke="#999999" points="354,-74 291,-74 291,-55 354,-55 354,-74"/>
<text text-anchor="middle" x="322.5" y="-62" font-family="Helvetica,sans-Serif" font-size="10.00">c_types.h</text>
</a>
</g>
</g>
<!-- Node5&#45;&gt;Node8 -->
<g id="edge7_Node000005_Node000008" class="edge">
<title>Node5&#45;&gt;Node8</title>
<g id="a_edge7_Node000005_Node000008"><a xlink:title=" ">
<path fill="none" stroke="#63b8ff" d="M395.52,-109.98C382.03,-101.77 361.37,-89.18 345.46,-79.49"/>
<polygon fill="#63b8ff" stroke="#63b8ff" points="347.09,-76.38 336.73,-74.17 343.45,-82.36 347.09,-76.38"/>
</a>
</g>
</g>
<!-- Node9 -->
<g id="Node000009" class="node">
<title>Node9</title>
<g id="a_Node000009"><a xlink:title=" ">
<polygon fill="#e0e0e0" stroke="#999999" points="446.5,-74 372.5,-74 372.5,-55 446.5,-55 446.5,-74"/>
<text text-anchor="middle" x="409.5" y="-62" font-family="Helvetica,sans-Serif" font-size="10.00">eagle_soc.h</text>
</a>
</g>
</g>
<!-- Node5&#45;&gt;Node9 -->
<g id="edge8_Node000005_Node000009" class="edge">
<title>Node5&#45;&gt;Node9</title>
<g id="a_edge8_Node000005_Node000009"><a xlink:title=" ">
<path fill="none" stroke="#63b8ff" d="M409.5,-109.75C409.5,-102.8 409.5,-92.85 409.5,-84.13"/>
<polygon fill="#63b8ff" stroke="#63b8ff" points="413,-84.09 409.5,-74.09 406,-84.09 413,-84.09"/>
</a>
</g>
</g>
<!-- Node10 -->
<g id="Node000010" class="node">
<title>Node10</title>
<g id="a_Node000010"><a xlink:title=" ">
<polygon fill="#e0e0e0" stroke="#999999" points="526.5,-74 464.5,-74 464.5,-55 526.5,-55 526.5,-74"/>
<text text-anchor="middle" x="495.5" y="-62" font-family="Helvetica,sans-Serif" font-size="10.00">ets_sys.h</text>
</a>
</g>
</g>
<!-- Node5&#45;&gt;Node10 -->
<g id="edge9_Node000005_Node000010" class="edge">
<title>Node5&#45;&gt;Node10</title>
<g id="a_edge9_Node000005_Node000010"><a xlink:title=" ">
<path fill="none" stroke="#63b8ff" d="M423.32,-109.98C436.65,-101.77 457.08,-89.18 472.81,-79.49"/>
<polygon fill="#63b8ff" stroke="#63b8ff" points="474.75,-82.4 481.43,-74.17 471.08,-76.44 474.75,-82.4"/>
</a>
</g>
</g>
<!-- Node11 -->
<g id="Node000011" class="node">
<title>Node11</title>
<g id="a_Node000011"><a xlink:title=" ">
<polygon fill="#e0e0e0" stroke="#999999" points="596.5,-74 544.5,-74 544.5,-55 596.5,-55 596.5,-74"/>
<text text-anchor="middle" x="570.5" y="-62" font-family="Helvetica,sans-Serif" font-size="10.00">osapi.h</text>
</a>
</g>
</g>
<!-- Node5&#45;&gt;Node11 -->
<g id="edge10_Node000005_Node000011" class="edge">
<title>Node5&#45;&gt;Node11</title>
<g id="a_edge10_Node000005_Node000011"><a xlink:title=" ">
<path fill="none" stroke="#63b8ff" d="M435.37,-109.98C462.28,-101.13 504.62,-87.19 534.73,-77.28"/>
<polygon fill="#63b8ff" stroke="#63b8ff" points="536.03,-80.53 544.43,-74.08 533.84,-73.88 536.03,-80.53"/>
</a>
</g>
</g>
<!-- Node12&#45;&gt;Node13 -->
<g id="edge12_Node000012_Node000013" class="edge">
<title>Node12&#45;&gt;Node13</title>
<g id="a_edge12_Node000012_Node000013"><a xlink:title=" ">
<path fill="none" stroke="#63b8ff" d="M602.59,-109.75C609.66,-102.11 620.09,-90.82 628.65,-81.56"/>
<polygon fill="#63b8ff" stroke="#63b8ff" points="631.34,-83.81 635.56,-74.09 626.2,-79.06 631.34,-83.81"/>
</a>
</g>
</g>
<!-- Node14 -->
<g id="Node000014" class="node">
<title>Node14</title>
<g id="a_Node000014"><a xlink:title=" ">
<polygon fill="#e0e0e0" stroke="#999999" points="736,-74 691,-74 691,-55 736,-55 736,-74"/>
<text text-anchor="middle" x="713.5" y="-62" font-family="Helvetica,sans-Serif" font-size="10.00">utility</text>
</a>
</g>
</g>
<!-- Node12&#45;&gt;Node14 -->
<g id="edge13_Node000012_Node000014" class="edge">
<title>Node12&#45;&gt;Node14</title>
<g id="a_edge13_Node000012_Node000014"><a xlink:title=" ">
<path fill="none" stroke="#63b8ff" d="M613.62,-109.98C632.85,-101.42 662.73,-88.11 684.81,-78.28"/>
<polygon fill="#63b8ff" stroke="#63b8ff" points="686.32,-81.44 694.03,-74.17 683.47,-75.04 686.32,-81.44"/>
</a>
</g>
</g>
<!-- Node18 -->
<g id="Node000018" class="node">
<title>Node18</title>
<g id="a_Node000018"><a xlink:href="_clear_queue_8h.html" target="_top" xlink:title=" ">
<polygon fill="white" stroke="#666666" points="988,-74 905,-74 905,-55 988,-55 988,-74"/>
<text text-anchor="middle" x="946.5" y="-62" font-family="Helvetica,sans-Serif" font-size="10.00">ClearQueue.h</text>
</a>
</g>
</g>
<!-- Node17&#45;&gt;Node18 -->
<g id="edge17_Node000017_Node000018" class="edge">
<title>Node17&#45;&gt;Node18</title>
<g id="a_edge17_Node000017_Node000018"><a xlink:title=" ">
<path fill="none" stroke="#63b8ff" d="M946.5,-109.75C946.5,-102.8 946.5,-92.85 946.5,-84.13"/>
<polygon fill="#63b8ff" stroke="#63b8ff" points="950,-84.09 946.5,-74.09 943,-84.09 950,-84.09"/>
</a>
</g>
</g>
<!-- Node18&#45;&gt;Node3 -->
<g id="edge18_Node000018_Node000003" class="edge">
<title>Node18&#45;&gt;Node3</title>
<g id="a_edge18_Node000018_Node000003"><a xlink:title=" ">
<path fill="none" stroke="#63b8ff" d="M904.99,-58.22C825.24,-48.09 651.43,-26 571.39,-15.82"/>
<polygon fill="#63b8ff" stroke="#63b8ff" points="571.55,-12.32 561.19,-14.53 570.67,-19.26 571.55,-12.32"/>
</a>
</g>
</g>
<!-- Node18&#45;&gt;Node19 -->
<g id="edge19_Node000018_Node000019" class="edge">
<title>Node18&#45;&gt;Node19</title>
<g id="a_edge19_Node000018_Node000019"><a xlink:title=" ">
<path fill="none" stroke="#63b8ff" d="M952.77,-54.75C958.09,-47.34 965.86,-36.5 972.38,-27.41"/>
<polygon fill="#63b8ff" stroke="#63b8ff" points="975.36,-29.26 978.34,-19.09 969.67,-25.18 975.36,-29.26"/>
</a>
</g>
</g>
</g>
</svg>
