<?xml version="1.0" encoding="UTF-8" standalone="no"?>
<!DOCTYPE svg PUBLIC "-//W3C//DTD SVG 1.1//EN"
 "http://www.w3.org/Graphics/SVG/1.1/DTD/svg11.dtd">
<!-- Generated by graphviz version 2.43.0 (0)
 -->
<!-- Title: uniot::EventEntity&lt; T_topic, T_msg, T_data &gt; Pages: 1 -->
<svg width="781pt" height="246pt"
 viewBox="0.00 0.00 781.00 246.00" xmlns="http://www.w3.org/2000/svg" xmlns:xlink="http://www.w3.org/1999/xlink">
<g id="graph0" class="graph" transform="scale(1 1) rotate(0) translate(4 242)">
<title>uniot::EventEntity&lt; T_topic, T_msg, T_data &gt;</title>
<!-- Node1 -->
<g id="Node000001" class="node">
<title>Node1</title>
<g id="a_Node000001"><a xlink:title="Entity that can connect to and interact with EventBus instances.">
<polygon fill="#999999" stroke="#666666" points="244,-74.5 131,-74.5 131,-33.5 244,-33.5 244,-74.5"/>
<text text-anchor="start" x="139" y="-62.5" font-family="Helvetica,sans-Serif" font-size="10.00">uniot::EventEntity</text>
<text text-anchor="start" x="139" y="-51.5" font-family="Helvetica,sans-Serif" font-size="10.00">&lt; T_topic, T_msg, T</text>
<text text-anchor="middle" x="187.5" y="-40.5" font-family="Helvetica,sans-Serif" font-size="10.00">_data &gt;</text>
</a>
</g>
</g>
<!-- Node3 -->
<g id="Node000003" class="node">
<title>Node3</title>
<g id="a_Node000003"><a xlink:href="classuniot_1_1_event_emitter.html" target="_top" xlink:title=" ">
<polygon fill="white" stroke="#666666" points="392,-109.5 281,-109.5 281,-68.5 392,-68.5 392,-109.5"/>
<text text-anchor="start" x="289" y="-97.5" font-family="Helvetica,sans-Serif" font-size="10.00">uniot::EventEmitter</text>
<text text-anchor="start" x="289" y="-86.5" font-family="Helvetica,sans-Serif" font-size="10.00">&lt; unsigned int, int,</text>
<text text-anchor="middle" x="336.5" y="-75.5" font-family="Helvetica,sans-Serif" font-size="10.00"> Bytes &gt;</text>
</a>
</g>
</g>
<!-- Node1&#45;&gt;Node3 -->
<g id="edge2_Node000001_Node000003" class="edge">
<title>Node1&#45;&gt;Node3</title>
<g id="a_edge2_Node000001_Node000003"><a xlink:title=" ">
<path fill="none" stroke="#63b8ff" d="M254.07,-69.61C263.01,-71.74 272.1,-73.91 280.82,-75.98"/>
<polygon fill="#63b8ff" stroke="#63b8ff" points="254.61,-66.14 244.07,-67.23 252.99,-72.95 254.61,-66.14"/>
</a>
</g>
</g>
<!-- Node12 -->
<g id="Node000012" class="node">
<title>Node12</title>
<g id="a_Node000012"><a xlink:href="classuniot_1_1_event_emitter.html" target="_top" xlink:title=" ">
<polygon fill="white" stroke="#666666" points="393,-45.5 280,-45.5 280,-4.5 393,-4.5 393,-45.5"/>
<text text-anchor="start" x="288" y="-33.5" font-family="Helvetica,sans-Serif" font-size="10.00">uniot::EventEmitter</text>
<text text-anchor="start" x="288" y="-22.5" font-family="Helvetica,sans-Serif" font-size="10.00">&lt; T_topic, T_msg, T</text>
<text text-anchor="middle" x="336.5" y="-11.5" font-family="Helvetica,sans-Serif" font-size="10.00">_data &gt;</text>
</a>
</g>
</g>
<!-- Node1&#45;&gt;Node12 -->
<g id="edge11_Node000001_Node000012" class="edge">
<title>Node1&#45;&gt;Node12</title>
<g id="a_edge11_Node000001_Node000012"><a xlink:title=" ">
<path fill="none" stroke="#63b8ff" d="M254.08,-41.06C262.68,-39.37 271.43,-37.64 279.85,-35.98"/>
<polygon fill="#63b8ff" stroke="#63b8ff" points="253.21,-37.67 244.07,-43.04 254.56,-44.53 253.21,-37.67"/>
</a>
</g>
</g>
<!-- Node2 -->
<g id="Node000002" class="node">
<title>Node2</title>
<g id="a_Node000002"><a xlink:href="classuniot_1_1_i_with_type.html" target="_top" xlink:title="Interface for objects that expose their runtime type information.">
<polygon fill="white" stroke="#666666" points="95,-63.5 0,-63.5 0,-44.5 95,-44.5 95,-63.5"/>
<text text-anchor="middle" x="47.5" y="-51.5" font-family="Helvetica,sans-Serif" font-size="10.00">uniot::IWithType</text>
</a>
</g>
</g>
<!-- Node2&#45;&gt;Node1 -->
<g id="edge1_Node000001_Node000002" class="edge">
<title>Node2&#45;&gt;Node1</title>
<g id="a_edge1_Node000001_Node000002"><a xlink:title=" ">
<path fill="none" stroke="#63b8ff" d="M105.31,-54C113.72,-54 122.37,-54 130.76,-54"/>
<polygon fill="#63b8ff" stroke="#63b8ff" points="105.22,-50.5 95.22,-54 105.22,-57.5 105.22,-50.5"/>
</a>
</g>
</g>
<!-- Node4 -->
<g id="Node000004" class="node">
<title>Node4</title>
<g id="a_Node000004"><a xlink:href="classuniot_1_1_event_listener.html" target="_top" xlink:title=" ">
<polygon fill="white" stroke="#666666" points="562,-163.5 448,-163.5 448,-122.5 562,-122.5 562,-163.5"/>
<text text-anchor="start" x="456" y="-151.5" font-family="Helvetica,sans-Serif" font-size="10.00">uniot::EventListener</text>
<text text-anchor="start" x="456" y="-140.5" font-family="Helvetica,sans-Serif" font-size="10.00">&lt; unsigned int, int,</text>
<text text-anchor="middle" x="505" y="-129.5" font-family="Helvetica,sans-Serif" font-size="10.00"> Bytes &gt;</text>
</a>
</g>
</g>
<!-- Node3&#45;&gt;Node4 -->
<g id="edge3_Node000003_Node000004" class="edge">
<title>Node3&#45;&gt;Node4</title>
<g id="a_edge3_Node000003_Node000004"><a xlink:title=" ">
<path fill="none" stroke="#63b8ff" d="M401.85,-109.87C417.05,-114.8 433.13,-120.02 447.93,-124.82"/>
<polygon fill="#63b8ff" stroke="#63b8ff" points="402.61,-106.44 392.02,-106.68 400.45,-113.1 402.61,-106.44"/>
</a>
</g>
</g>
<!-- Node10 -->
<g id="Node000010" class="node">
<title>Node10</title>
<g id="a_Node000010"><a xlink:href="classuniot_1_1_date.html" target="_top" xlink:title=" ">
<polygon fill="white" stroke="#666666" points="540.5,-104.5 469.5,-104.5 469.5,-85.5 540.5,-85.5 540.5,-104.5"/>
<text text-anchor="middle" x="505" y="-92.5" font-family="Helvetica,sans-Serif" font-size="10.00">uniot::Date</text>
</a>
</g>
</g>
<!-- Node3&#45;&gt;Node10 -->
<g id="edge9_Node000003_Node000010" class="edge">
<title>Node3&#45;&gt;Node10</title>
<g id="a_edge9_Node000003_Node000010"><a xlink:title=" ">
<path fill="none" stroke="#63b8ff" d="M402.03,-91.33C424.92,-92.15 449.8,-93.05 469.26,-93.75"/>
<polygon fill="#63b8ff" stroke="#63b8ff" points="402.14,-87.83 392.02,-90.96 401.89,-94.82 402.14,-87.83"/>
</a>
</g>
</g>
<!-- Node11 -->
<g id="Node000011" class="node">
<title>Node11</title>
<g id="a_Node000011"><a xlink:href="classuniot_1_1_network_scheduler.html" target="_top" xlink:title="Complete WiFi network management and configuration scheduler.">
<polygon fill="white" stroke="#666666" points="573.5,-67.5 436.5,-67.5 436.5,-48.5 573.5,-48.5 573.5,-67.5"/>
<text text-anchor="middle" x="505" y="-55.5" font-family="Helvetica,sans-Serif" font-size="10.00">uniot::NetworkScheduler</text>
</a>
</g>
</g>
<!-- Node3&#45;&gt;Node11 -->
<g id="edge10_Node000003_Node000011" class="edge">
<title>Node3&#45;&gt;Node11</title>
<g id="a_edge10_Node000003_Node000011"><a xlink:title=" ">
<path fill="none" stroke="#63b8ff" d="M402.28,-76.94C419.02,-73.82 436.81,-70.51 452.75,-67.54"/>
<polygon fill="#63b8ff" stroke="#63b8ff" points="401.21,-73.58 392.02,-78.85 402.49,-80.46 401.21,-73.58"/>
</a>
</g>
</g>
<!-- Node5 -->
<g id="Node000005" class="node">
<title>Node5</title>
<g id="a_Node000005"><a xlink:href="classuniot_1_1_callback_event_listener.html" target="_top" xlink:title=" ">
<polygon fill="white" stroke="#666666" points="773,-238 617,-238 617,-208 773,-208 773,-238"/>
<text text-anchor="start" x="625" y="-226" font-family="Helvetica,sans-Serif" font-size="10.00">uniot::CallbackEventListener</text>
<text text-anchor="middle" x="695" y="-215" font-family="Helvetica,sans-Serif" font-size="10.00">&lt; unsigned int, int, Bytes &gt;</text>
</a>
</g>
</g>
<!-- Node4&#45;&gt;Node5 -->
<g id="edge4_Node000004_Node000005" class="edge">
<title>Node4&#45;&gt;Node5</title>
<g id="a_edge4_Node000004_Node000005"><a xlink:title=" ">
<path fill="none" stroke="#63b8ff" d="M552.08,-168.4C571.74,-178.66 595.15,-190.15 617,-199 624.79,-202.15 633.15,-205.15 641.4,-207.88"/>
<polygon fill="#63b8ff" stroke="#63b8ff" points="553.52,-165.2 543.05,-163.63 550.26,-171.39 553.52,-165.2"/>
</a>
</g>
</g>
<!-- Node6 -->
<g id="Node000006" class="node">
<title>Node6</title>
<g id="a_Node000006"><a xlink:href="classuniot_1_1_lisp_device.html" target="_top" xlink:title=" ">
<polygon fill="white" stroke="#666666" points="745.5,-189.5 644.5,-189.5 644.5,-170.5 745.5,-170.5 745.5,-189.5"/>
<text text-anchor="middle" x="695" y="-177.5" font-family="Helvetica,sans-Serif" font-size="10.00">uniot::LispDevice</text>
</a>
</g>
</g>
<!-- Node4&#45;&gt;Node6 -->
<g id="edge5_Node000004_Node000006" class="edge">
<title>Node4&#45;&gt;Node6</title>
<g id="a_edge5_Node000004_Node000006"><a xlink:title=" ">
<path fill="none" stroke="#63b8ff" d="M571.97,-155.98C596.16,-160.74 623.07,-166.04 645.46,-170.45"/>
<polygon fill="#63b8ff" stroke="#63b8ff" points="572.64,-152.55 562.15,-154.05 571.29,-159.42 572.64,-152.55"/>
</a>
</g>
</g>
<!-- Node7 -->
<g id="Node000007" class="node">
<title>Node7</title>
<g id="a_Node000007"><a xlink:href="classuniot_1_1_m_q_t_t_kit.html" target="_top" xlink:title=" ">
<polygon fill="white" stroke="#666666" points="739.5,-152.5 650.5,-152.5 650.5,-133.5 739.5,-133.5 739.5,-152.5"/>
<text text-anchor="middle" x="695" y="-140.5" font-family="Helvetica,sans-Serif" font-size="10.00">uniot::MQTTKit</text>
</a>
</g>
</g>
<!-- Node4&#45;&gt;Node7 -->
<g id="edge6_Node000004_Node000007" class="edge">
<title>Node4&#45;&gt;Node7</title>
<g id="a_edge6_Node000004_Node000007"><a xlink:title=" ">
<path fill="none" stroke="#63b8ff" d="M572.28,-143C598.19,-143 627.18,-143 650.37,-143"/>
<polygon fill="#63b8ff" stroke="#63b8ff" points="572.15,-139.5 562.15,-143 572.15,-146.5 572.15,-139.5"/>
</a>
</g>
</g>
<!-- Node8 -->
<g id="Node000008" class="node">
<title>Node8</title>
<g id="a_Node000008"><a xlink:href="classuniot_1_1_network_controller.html" target="_top" xlink:title="Network management controller with user interface integration.">
<polygon fill="white" stroke="#666666" points="763.5,-115.5 626.5,-115.5 626.5,-96.5 763.5,-96.5 763.5,-115.5"/>
<text text-anchor="middle" x="695" y="-103.5" font-family="Helvetica,sans-Serif" font-size="10.00">uniot::NetworkController</text>
</a>
</g>
</g>
<!-- Node4&#45;&gt;Node8 -->
<g id="edge7_Node000004_Node000008" class="edge">
<title>Node4&#45;&gt;Node8</title>
<g id="a_edge7_Node000004_Node000008"><a xlink:title=" ">
<path fill="none" stroke="#63b8ff" d="M571.97,-130.02C596.16,-125.26 623.07,-119.96 645.46,-115.55"/>
<polygon fill="#63b8ff" stroke="#63b8ff" points="571.29,-126.58 562.15,-131.95 572.64,-133.45 571.29,-126.58"/>
</a>
</g>
</g>
<!-- Node9 -->
<g id="Node000009" class="node">
<title>Node9</title>
<g id="a_Node000009"><a xlink:href="classuniot_1_1un_lisp.html" target="_top" xlink:title=" ">
<polygon fill="white" stroke="#666666" points="734.5,-78.5 655.5,-78.5 655.5,-59.5 734.5,-59.5 734.5,-78.5"/>
<text text-anchor="middle" x="695" y="-66.5" font-family="Helvetica,sans-Serif" font-size="10.00">uniot::unLisp</text>
</a>
</g>
</g>
<!-- Node4&#45;&gt;Node9 -->
<g id="edge8_Node000004_Node000009" class="edge">
<title>Node4&#45;&gt;Node9</title>
<g id="a_edge8_Node000004_Node000009"><a xlink:title=" ">
<path fill="none" stroke="#63b8ff" d="M571.43,-118.96C574.71,-117.37 577.92,-115.71 581,-114 598.49,-104.3 598.88,-95.46 617,-87 628.94,-81.43 642.76,-77.5 655.36,-74.77"/>
<polygon fill="#63b8ff" stroke="#63b8ff" points="569.68,-115.91 562.07,-123.29 572.62,-122.27 569.68,-115.91"/>
</a>
</g>
</g>
<!-- Node13 -->
<g id="Node000013" class="node">
<title>Node13</title>
<g id="a_Node000013"><a xlink:href="classuniot_1_1_event_listener.html" target="_top" xlink:title=" ">
<polygon fill="white" stroke="#666666" points="581,-30 429,-30 429,0 581,0 581,-30"/>
<text text-anchor="start" x="437" y="-18" font-family="Helvetica,sans-Serif" font-size="10.00">uniot::EventListener</text>
<text text-anchor="middle" x="505" y="-7" font-family="Helvetica,sans-Serif" font-size="10.00">&lt; T_topic, T_msg, T_data &gt;</text>
</a>
</g>
</g>
<!-- Node12&#45;&gt;Node13 -->
<g id="edge12_Node000012_Node000013" class="edge">
<title>Node12&#45;&gt;Node13</title>
<g id="a_edge12_Node000012_Node000013"><a xlink:title=" ">
<path fill="none" stroke="#63b8ff" d="M403.4,-21.04C411.72,-20.54 420.27,-20.03 428.72,-19.52"/>
<polygon fill="#63b8ff" stroke="#63b8ff" points="403.18,-17.55 393.41,-21.64 403.6,-24.54 403.18,-17.55"/>
</a>
</g>
</g>
<!-- Node14 -->
<g id="Node000014" class="node">
<title>Node14</title>
<g id="a_Node000014"><a xlink:href="classuniot_1_1_callback_event_listener.html" target="_top" xlink:title=" ">
<polygon fill="white" stroke="#666666" points="773,-30 617,-30 617,0 773,0 773,-30"/>
<text text-anchor="start" x="625" y="-18" font-family="Helvetica,sans-Serif" font-size="10.00">uniot::CallbackEventListener</text>
<text text-anchor="middle" x="695" y="-7" font-family="Helvetica,sans-Serif" font-size="10.00">&lt; T_topic, T_msg, T_data &gt;</text>
</a>
</g>
</g>
<!-- Node13&#45;&gt;Node14 -->
<g id="edge13_Node000013_Node000014" class="edge">
<title>Node13&#45;&gt;Node14</title>
<g id="a_edge13_Node000013_Node000014"><a xlink:title=" ">
<path fill="none" stroke="#63b8ff" d="M591.12,-15C599.69,-15 608.37,-15 616.85,-15"/>
<polygon fill="#63b8ff" stroke="#63b8ff" points="591.11,-11.5 581.11,-15 591.11,-18.5 591.11,-11.5"/>
</a>
</g>
</g>
</g>
</svg>
