<?xml version="1.0" encoding="UTF-8" standalone="no"?>
<!DOCTYPE svg PUBLIC "-//W3C//DTD SVG 1.1//EN"
 "http://www.w3.org/Graphics/SVG/1.1/DTD/svg11.dtd">
<!-- Generated by graphviz version 2.43.0 (0)
 -->
<!-- Title: uniot::MQTTKit Pages: 1 -->
<svg width="302pt" height="291pt"
 viewBox="0.00 0.00 302.00 291.00" xmlns="http://www.w3.org/2000/svg" xmlns:xlink="http://www.w3.org/1999/xlink">
<g id="graph0" class="graph" transform="scale(1 1) rotate(0) translate(4 287)">
<title>uniot::MQTTKit</title>
<!-- Node1 -->
<g id="Node000001" class="node">
<title>Node1</title>
<g id="a_Node000001"><a xlink:title=" ">
<polygon fill="#999999" stroke="#666666" points="205,-19 116,-19 116,0 205,0 205,-19"/>
<text text-anchor="middle" x="160.5" y="-7" font-family="Helvetica,sans-Serif" font-size="10.00">uniot::MQTTKit</text>
</a>
</g>
</g>
<!-- Node2 -->
<g id="Node000002" class="node">
<title>Node2</title>
<g id="a_Node000002"><a xlink:href="classuniot_1_1_i_scheduler_connection_kit.html" target="_top" xlink:title="Interface for connecting components to the TaskScheduler.">
<polygon fill="white" stroke="#666666" points="167,-74 0,-74 0,-55 167,-55 167,-74"/>
<text text-anchor="middle" x="83.5" y="-62" font-family="Helvetica,sans-Serif" font-size="10.00">uniot::ISchedulerConnectionKit</text>
</a>
</g>
</g>
<!-- Node2&#45;&gt;Node1 -->
<g id="edge1_Node000001_Node000002" class="edge">
<title>Node2&#45;&gt;Node1</title>
<g id="a_edge1_Node000001_Node000002"><a xlink:title=" ">
<path fill="none" stroke="#63b8ff" d="M104.35,-49.15C118.26,-39.57 136.11,-27.29 147.9,-19.17"/>
<polygon fill="#63b8ff" stroke="#63b8ff" points="102.12,-46.43 95.87,-54.98 106.09,-52.2 102.12,-46.43"/>
</a>
</g>
</g>
<!-- Node3 -->
<g id="Node000003" class="node">
<title>Node3</title>
<g id="a_Node000003"><a xlink:href="classuniot_1_1_event_listener.html" target="_top" xlink:title=" ">
<polygon fill="white" stroke="#666666" points="290.5,-74 184.5,-74 184.5,-55 290.5,-55 290.5,-74"/>
<text text-anchor="middle" x="237.5" y="-62" font-family="Helvetica,sans-Serif" font-size="10.00">CoreEventListener</text>
</a>
</g>
</g>
<!-- Node3&#45;&gt;Node1 -->
<g id="edge2_Node000001_Node000003" class="edge">
<title>Node3&#45;&gt;Node1</title>
<g id="a_edge2_Node000001_Node000003"><a xlink:title=" ">
<path fill="none" stroke="#63b8ff" d="M216.65,-49.15C202.74,-39.57 184.89,-27.29 173.1,-19.17"/>
<polygon fill="#63b8ff" stroke="#63b8ff" points="214.91,-52.2 225.13,-54.98 218.88,-46.43 214.91,-52.2"/>
</a>
</g>
</g>
<!-- Node4 -->
<g id="Node000004" class="node">
<title>Node4</title>
<g id="a_Node000004"><a xlink:href="classuniot_1_1_event_emitter.html" target="_top" xlink:title=" ">
<polygon fill="white" stroke="#666666" points="293,-151 182,-151 182,-110 293,-110 293,-151"/>
<text text-anchor="start" x="190" y="-139" font-family="Helvetica,sans-Serif" font-size="10.00">uniot::EventEmitter</text>
<text text-anchor="start" x="190" y="-128" font-family="Helvetica,sans-Serif" font-size="10.00">&lt; unsigned int, int,</text>
<text text-anchor="middle" x="237.5" y="-117" font-family="Helvetica,sans-Serif" font-size="10.00"> Bytes &gt;</text>
</a>
</g>
</g>
<!-- Node4&#45;&gt;Node3 -->
<g id="edge3_Node000003_Node000004" class="edge">
<title>Node4&#45;&gt;Node3</title>
<g id="a_edge3_Node000003_Node000004"><a xlink:title=" ">
<path fill="none" stroke="#63b8ff" d="M237.5,-99.74C237.5,-90.45 237.5,-80.9 237.5,-74.26"/>
<polygon fill="#63b8ff" stroke="#63b8ff" points="234,-99.95 237.5,-109.95 241,-99.95 234,-99.95"/>
</a>
</g>
</g>
<!-- Node5 -->
<g id="Node000005" class="node">
<title>Node5</title>
<g id="a_Node000005"><a xlink:href="classuniot_1_1_event_entity.html" target="_top" xlink:title="Entity that can connect to and interact with EventBus instances.">
<polygon fill="white" stroke="#666666" points="294,-228 181,-228 181,-187 294,-187 294,-228"/>
<text text-anchor="start" x="189" y="-216" font-family="Helvetica,sans-Serif" font-size="10.00">uniot::EventEntity</text>
<text text-anchor="start" x="189" y="-205" font-family="Helvetica,sans-Serif" font-size="10.00">&lt; T_topic, T_msg, T</text>
<text text-anchor="middle" x="237.5" y="-194" font-family="Helvetica,sans-Serif" font-size="10.00">_data &gt;</text>
</a>
</g>
</g>
<!-- Node5&#45;&gt;Node4 -->
<g id="edge4_Node000004_Node000005" class="edge">
<title>Node5&#45;&gt;Node4</title>
<g id="a_edge4_Node000004_Node000005"><a xlink:title=" ">
<path fill="none" stroke="#63b8ff" d="M237.5,-176.69C237.5,-168.08 237.5,-158.9 237.5,-151.07"/>
<polygon fill="#63b8ff" stroke="#63b8ff" points="234,-176.79 237.5,-186.79 241,-176.79 234,-176.79"/>
</a>
</g>
</g>
<!-- Node6 -->
<g id="Node000006" class="node">
<title>Node6</title>
<g id="a_Node000006"><a xlink:href="classuniot_1_1_i_with_type.html" target="_top" xlink:title="Interface for objects that expose their runtime type information.">
<polygon fill="white" stroke="#666666" points="285,-283 190,-283 190,-264 285,-264 285,-283"/>
<text text-anchor="middle" x="237.5" y="-271" font-family="Helvetica,sans-Serif" font-size="10.00">uniot::IWithType</text>
</a>
</g>
</g>
<!-- Node6&#45;&gt;Node5 -->
<g id="edge5_Node000005_Node000006" class="edge">
<title>Node6&#45;&gt;Node5</title>
<g id="a_edge5_Node000005_Node000006"><a xlink:title=" ">
<path fill="none" stroke="#63b8ff" d="M237.5,-253.63C237.5,-245.56 237.5,-236.15 237.5,-228.01"/>
<polygon fill="#63b8ff" stroke="#63b8ff" points="234,-253.87 237.5,-263.87 241,-253.87 234,-253.87"/>
</a>
</g>
</g>
</g>
</svg>
