<?xml version="1.0" encoding="UTF-8" standalone="no"?>
<!DOCTYPE svg PUBLIC "-//W3C//DTD SVG 1.1//EN"
 "http://www.w3.org/Graphics/SVG/1.1/DTD/svg11.dtd">
<!-- Generated by graphviz version 2.43.0 (0)
 -->
<!-- Title: uniot::IExecutor Pages: 1 -->
<svg width="285pt" height="198pt"
 viewBox="0.00 0.00 285.00 198.00" xmlns="http://www.w3.org/2000/svg" xmlns:xlink="http://www.w3.org/1999/xlink">
<g id="graph0" class="graph" transform="scale(1 1) rotate(0) translate(4 194)">
<title>uniot::IExecutor</title>
<!-- Node1 -->
<g id="Node000001" class="node">
<title>Node1</title>
<g id="a_Node000001"><a xlink:title="Interface for executing tasks in the scheduler system.">
<polygon fill="#999999" stroke="#666666" points="92,-104.5 0,-104.5 0,-85.5 92,-85.5 92,-104.5"/>
<text text-anchor="middle" x="46" y="-92.5" font-family="Helvetica,sans-Serif" font-size="10.00">uniot::IExecutor</text>
</a>
</g>
</g>
<!-- Node2 -->
<g id="Node000002" class="node">
<title>Node2</title>
<g id="a_Node000002"><a xlink:href="classuniot_1_1_event_bus.html" target="_top" xlink:title=" ">
<polygon fill="white" stroke="#666666" points="277,-190 128,-190 128,-160 277,-160 277,-190"/>
<text text-anchor="start" x="136" y="-178" font-family="Helvetica,sans-Serif" font-size="10.00">uniot::EventBus&lt; unsigned</text>
<text text-anchor="middle" x="202.5" y="-167" font-family="Helvetica,sans-Serif" font-size="10.00"> int, int, Bytes &gt;</text>
</a>
</g>
</g>
<!-- Node1&#45;&gt;Node2 -->
<g id="edge1_Node000001_Node000002" class="edge">
<title>Node1&#45;&gt;Node2</title>
<g id="a_edge1_Node000001_Node000002"><a xlink:title=" ">
<path fill="none" stroke="#63b8ff" d="M66.64,-111C82.45,-123.27 105.64,-139.92 128,-151 134.61,-154.28 141.78,-157.26 148.95,-159.91"/>
<polygon fill="#63b8ff" stroke="#63b8ff" points="68.68,-108.15 58.67,-104.7 64.34,-113.65 68.68,-108.15"/>
</a>
</g>
</g>
<!-- Node3 -->
<g id="Node000003" class="node">
<title>Node3</title>
<g id="a_Node000003"><a xlink:href="classuniot_1_1_button.html" target="_top" xlink:title=" ">
<polygon fill="white" stroke="#666666" points="242.5,-141.5 162.5,-141.5 162.5,-122.5 242.5,-122.5 242.5,-141.5"/>
<text text-anchor="middle" x="202.5" y="-129.5" font-family="Helvetica,sans-Serif" font-size="10.00">uniot::Button</text>
</a>
</g>
</g>
<!-- Node1&#45;&gt;Node3 -->
<g id="edge2_Node000001_Node000003" class="edge">
<title>Node1&#45;&gt;Node3</title>
<g id="a_edge2_Node000001_Node000003"><a xlink:title=" ">
<path fill="none" stroke="#63b8ff" d="M96.63,-106.88C117.91,-111.98 142.41,-117.85 162.38,-122.63"/>
<polygon fill="#63b8ff" stroke="#63b8ff" points="97.33,-103.45 86.79,-104.53 95.7,-110.26 97.33,-103.45"/>
</a>
</g>
</g>
<!-- Node4 -->
<g id="Node000004" class="node">
<title>Node4</title>
<g id="a_Node000004"><a xlink:href="classuniot_1_1_config_captive_portal.html" target="_top" xlink:title="Complete captive portal implementation for device configuration.">
<polygon fill="white" stroke="#666666" points="274.5,-104.5 130.5,-104.5 130.5,-85.5 274.5,-85.5 274.5,-104.5"/>
<text text-anchor="middle" x="202.5" y="-92.5" font-family="Helvetica,sans-Serif" font-size="10.00">uniot::ConfigCaptivePortal</text>
</a>
</g>
</g>
<!-- Node1&#45;&gt;Node4 -->
<g id="edge3_Node000001_Node000004" class="edge">
<title>Node1&#45;&gt;Node4</title>
<g id="a_edge3_Node000001_Node000004"><a xlink:title=" ">
<path fill="none" stroke="#63b8ff" d="M102.22,-95C111.38,-95 120.98,-95 130.47,-95"/>
<polygon fill="#63b8ff" stroke="#63b8ff" points="102.1,-91.5 92.1,-95 102.1,-98.5 102.1,-91.5"/>
</a>
</g>
</g>
<!-- Node5 -->
<g id="Node000005" class="node">
<title>Node5</title>
<g id="a_Node000005"><a xlink:href="classuniot_1_1_date.html" target="_top" xlink:title=" ">
<polygon fill="white" stroke="#666666" points="238,-67.5 167,-67.5 167,-48.5 238,-48.5 238,-67.5"/>
<text text-anchor="middle" x="202.5" y="-55.5" font-family="Helvetica,sans-Serif" font-size="10.00">uniot::Date</text>
</a>
</g>
</g>
<!-- Node1&#45;&gt;Node5 -->
<g id="edge4_Node000001_Node000005" class="edge">
<title>Node1&#45;&gt;Node5</title>
<g id="a_edge4_Node000001_Node000005"><a xlink:title=" ">
<path fill="none" stroke="#63b8ff" d="M96.67,-83.1C119.56,-77.62 146.16,-71.25 166.84,-66.3"/>
<polygon fill="#63b8ff" stroke="#63b8ff" points="95.7,-79.74 86.79,-85.47 97.33,-86.55 95.7,-79.74"/>
</a>
</g>
</g>
<!-- Node6 -->
<g id="Node000006" class="node">
<title>Node6</title>
<g id="a_Node000006"><a xlink:href="classuniot_1_1_event_bus.html" target="_top" xlink:title=" ">
<polygon fill="white" stroke="#666666" points="269.5,-30 135.5,-30 135.5,0 269.5,0 269.5,-30"/>
<text text-anchor="start" x="143.5" y="-18" font-family="Helvetica,sans-Serif" font-size="10.00">uniot::EventBus&lt; T</text>
<text text-anchor="middle" x="202.5" y="-7" font-family="Helvetica,sans-Serif" font-size="10.00">_topic, T_msg, T_data &gt;</text>
</a>
</g>
</g>
<!-- Node1&#45;&gt;Node6 -->
<g id="edge5_Node000001_Node000006" class="edge">
<title>Node1&#45;&gt;Node6</title>
<g id="a_edge5_Node000001_Node000006"><a xlink:title=" ">
<path fill="none" stroke="#63b8ff" d="M67,-79.18C82.84,-67.2 105.92,-51 128,-40 135.36,-36.33 143.38,-33 151.34,-30.04"/>
<polygon fill="#63b8ff" stroke="#63b8ff" points="64.78,-76.46 58.99,-85.33 69.05,-82.01 64.78,-76.46"/>
</a>
</g>
</g>
</g>
</svg>
