<?xml version="1.0" encoding="UTF-8" standalone="no"?>
<!DOCTYPE svg PUBLIC "-//W3C//DTD SVG 1.1//EN"
 "http://www.w3.org/Graphics/SVG/1.1/DTD/svg11.dtd">
<!-- Generated by graphviz version 2.43.0 (0)
 -->
<!-- Title: uniot::Date Pages: 1 -->
<svg width="515pt" height="214pt"
 viewBox="0.00 0.00 514.50 214.00" xmlns="http://www.w3.org/2000/svg" xmlns:xlink="http://www.w3.org/1999/xlink">
<g id="graph0" class="graph" transform="scale(1 1) rotate(0) translate(4 210)">
<title>uniot::Date</title>
<!-- Node1 -->
<g id="Node000001" class="node">
<title>Node1</title>
<g id="a_Node000001"><a xlink:title=" ">
<polygon fill="#999999" stroke="#666666" points="274.5,-19 203.5,-19 203.5,0 274.5,0 274.5,-19"/>
<text text-anchor="middle" x="239" y="-7" font-family="Helvetica,sans-Serif" font-size="10.00">uniot::Date</text>
</a>
</g>
</g>
<!-- Node2 -->
<g id="Node000002" class="node">
<title>Node2</title>
<g id="a_Node000002"><a xlink:href="classuniot_1_1_i_executor.html" target="_top" xlink:title="Interface for executing tasks in the scheduler system.">
<polygon fill="white" stroke="#666666" points="92,-74 0,-74 0,-55 92,-55 92,-74"/>
<text text-anchor="middle" x="46" y="-62" font-family="Helvetica,sans-Serif" font-size="10.00">uniot::IExecutor</text>
</a>
</g>
</g>
<!-- Node2&#45;&gt;Node1 -->
<g id="edge1_Node000001_Node000002" class="edge">
<title>Node2&#45;&gt;Node1</title>
<g id="a_edge1_Node000001_Node000002"><a xlink:title=" ">
<path fill="none" stroke="#63b8ff" d="M86.75,-52.31C122.86,-42.39 174.83,-28.12 207.75,-19.08"/>
<polygon fill="#63b8ff" stroke="#63b8ff" points="85.72,-48.96 77.01,-54.98 87.58,-55.71 85.72,-48.96"/>
</a>
</g>
</g>
<!-- Node3 -->
<g id="Node000003" class="node">
<title>Node3</title>
<g id="a_Node000003"><a xlink:href="classuniot_1_1_c_b_o_r_storage.html" target="_top" xlink:title=" ">
<polygon fill="white" stroke="#666666" points="223.5,-74 110.5,-74 110.5,-55 223.5,-55 223.5,-74"/>
<text text-anchor="middle" x="167" y="-62" font-family="Helvetica,sans-Serif" font-size="10.00">uniot::CBORStorage</text>
</a>
</g>
</g>
<!-- Node3&#45;&gt;Node1 -->
<g id="edge2_Node000001_Node000003" class="edge">
<title>Node3&#45;&gt;Node1</title>
<g id="a_edge2_Node000001_Node000003"><a xlink:title=" ">
<path fill="none" stroke="#63b8ff" d="M186.87,-48.88C199.82,-39.34 216.3,-27.21 227.22,-19.17"/>
<polygon fill="#63b8ff" stroke="#63b8ff" points="184.55,-46.24 178.57,-54.98 188.7,-51.88 184.55,-46.24"/>
</a>
</g>
</g>
<!-- Node4 -->
<g id="Node000004" class="node">
<title>Node4</title>
<g id="a_Node000004"><a xlink:href="classuniot_1_1_storage.html" target="_top" xlink:title=" ">
<polygon fill="white" stroke="#666666" points="209.5,-140 124.5,-140 124.5,-121 209.5,-121 209.5,-140"/>
<text text-anchor="middle" x="167" y="-128" font-family="Helvetica,sans-Serif" font-size="10.00">uniot::Storage</text>
</a>
</g>
</g>
<!-- Node4&#45;&gt;Node3 -->
<g id="edge3_Node000003_Node000004" class="edge">
<title>Node4&#45;&gt;Node3</title>
<g id="a_edge3_Node000003_Node000004"><a xlink:title=" ">
<path fill="none" stroke="#63b8ff" d="M167,-110.58C167,-98.63 167,-83.72 167,-74.41"/>
<polygon fill="#63b8ff" stroke="#63b8ff" points="163.5,-110.87 167,-120.87 170.5,-110.87 163.5,-110.87"/>
</a>
</g>
</g>
<!-- Node5 -->
<g id="Node000005" class="node">
<title>Node5</title>
<g id="a_Node000005"><a xlink:href="classuniot_1_1_singleton.html" target="_top" xlink:title=" ">
<polygon fill="white" stroke="#666666" points="380.5,-74 241.5,-74 241.5,-55 380.5,-55 380.5,-74"/>
<text text-anchor="middle" x="311" y="-62" font-family="Helvetica,sans-Serif" font-size="10.00">uniot::Singleton&lt; Date &gt;</text>
</a>
</g>
</g>
<!-- Node5&#45;&gt;Node1 -->
<g id="edge4_Node000001_Node000005" class="edge">
<title>Node5&#45;&gt;Node1</title>
<g id="a_edge4_Node000001_Node000005"><a xlink:title=" ">
<path fill="none" stroke="#63b8ff" d="M291.13,-48.88C278.18,-39.34 261.7,-27.21 250.78,-19.17"/>
<polygon fill="#63b8ff" stroke="#63b8ff" points="289.3,-51.88 299.43,-54.98 293.45,-46.24 289.3,-51.88"/>
</a>
</g>
</g>
<!-- Node6 -->
<g id="Node000006" class="node">
<title>Node6</title>
<g id="a_Node000006"><a xlink:href="classuniot_1_1_event_emitter.html" target="_top" xlink:title=" ">
<polygon fill="white" stroke="#666666" points="501.5,-74 398.5,-74 398.5,-55 501.5,-55 501.5,-74"/>
<text text-anchor="middle" x="450" y="-62" font-family="Helvetica,sans-Serif" font-size="10.00">CoreEventEmitter</text>
</a>
</g>
</g>
<!-- Node6&#45;&gt;Node1 -->
<g id="edge5_Node000001_Node000006" class="edge">
<title>Node6&#45;&gt;Node1</title>
<g id="a_edge5_Node000001_Node000006"><a xlink:title=" ">
<path fill="none" stroke="#63b8ff" d="M406.21,-52.5C366.7,-42.58 309.38,-28.18 273.17,-19.08"/>
<polygon fill="#63b8ff" stroke="#63b8ff" points="405.55,-55.94 416.1,-54.98 407.25,-49.15 405.55,-55.94"/>
</a>
</g>
</g>
<!-- Node7 -->
<g id="Node000007" class="node">
<title>Node7</title>
<g id="a_Node000007"><a xlink:href="classuniot_1_1_event_entity.html" target="_top" xlink:title="Entity that can connect to and interact with EventBus instances.">
<polygon fill="white" stroke="#666666" points="506.5,-151 393.5,-151 393.5,-110 506.5,-110 506.5,-151"/>
<text text-anchor="start" x="401.5" y="-139" font-family="Helvetica,sans-Serif" font-size="10.00">uniot::EventEntity</text>
<text text-anchor="start" x="401.5" y="-128" font-family="Helvetica,sans-Serif" font-size="10.00">&lt; T_topic, T_msg, T</text>
<text text-anchor="middle" x="450" y="-117" font-family="Helvetica,sans-Serif" font-size="10.00">_data &gt;</text>
</a>
</g>
</g>
<!-- Node7&#45;&gt;Node6 -->
<g id="edge6_Node000006_Node000007" class="edge">
<title>Node7&#45;&gt;Node6</title>
<g id="a_edge6_Node000006_Node000007"><a xlink:title=" ">
<path fill="none" stroke="#63b8ff" d="M450,-99.74C450,-90.45 450,-80.9 450,-74.26"/>
<polygon fill="#63b8ff" stroke="#63b8ff" points="446.5,-99.95 450,-109.95 453.5,-99.95 446.5,-99.95"/>
</a>
</g>
</g>
<!-- Node8 -->
<g id="Node000008" class="node">
<title>Node8</title>
<g id="a_Node000008"><a xlink:href="classuniot_1_1_i_with_type.html" target="_top" xlink:title="Interface for objects that expose their runtime type information.">
<polygon fill="white" stroke="#666666" points="497.5,-206 402.5,-206 402.5,-187 497.5,-187 497.5,-206"/>
<text text-anchor="middle" x="450" y="-194" font-family="Helvetica,sans-Serif" font-size="10.00">uniot::IWithType</text>
</a>
</g>
</g>
<!-- Node8&#45;&gt;Node7 -->
<g id="edge7_Node000007_Node000008" class="edge">
<title>Node8&#45;&gt;Node7</title>
<g id="a_edge7_Node000007_Node000008"><a xlink:title=" ">
<path fill="none" stroke="#63b8ff" d="M450,-176.63C450,-168.56 450,-159.15 450,-151.01"/>
<polygon fill="#63b8ff" stroke="#63b8ff" points="446.5,-176.87 450,-186.87 453.5,-176.87 446.5,-176.87"/>
</a>
</g>
</g>
</g>
</svg>
