<?xml version="1.0" encoding="UTF-8" standalone="no"?>
<!DOCTYPE svg PUBLIC "-//W3C//DTD SVG 1.1//EN"
 "http://www.w3.org/Graphics/SVG/1.1/DTD/svg11.dtd">
<!-- Generated by graphviz version 2.43.0 (0)
 -->
<!-- Title: Core Pages: 1 -->
<svg width="486pt" height="479pt"
 viewBox="0.00 0.00 486.00 479.00" xmlns="http://www.w3.org/2000/svg" xmlns:xlink="http://www.w3.org/1999/xlink">
<g id="graph0" class="graph" transform="scale(1 1) rotate(0) translate(4 475)">
<title>Core</title>
<g id="clust1" class="cluster">
<title>clusterdir_97aefd0d527b934f1d99a682da8fe6a9</title>
<g id="a_clust1"><a xlink:href="dir_97aefd0d527b934f1d99a682da8fe6a9.html" target="_top" xlink:title="lib">
<polygon fill="#daedff" stroke="#404040" stroke-dasharray="5,2" points="8,-8 8,-463 470,-463 470,-8 8,-8"/>
<text text-anchor="middle" x="239" y="-451" font-family="Helvetica,sans-Serif" font-size="10.00">lib</text>
</a>
</g>
</g>
<g id="clust2" class="cluster">
<title>clusterdir_a7e9f68611f01b5eb6ddd8cd40b75845</title>
<g id="a_clust2"><a xlink:href="dir_a7e9f68611f01b5eb6ddd8cd40b75845.html" target="_top">
<polygon fill="#daedff" stroke="#404040" stroke-width="2" points="16,-16 16,-436 462,-436 462,-16 16,-16"/>
</a>
</g>
</g>
<!-- dir_a7e9f68611f01b5eb6ddd8cd40b75845 -->
<g id="node1" class="node">
<title>dir_a7e9f68611f01b5eb6ddd8cd40b75845</title>
<text text-anchor="middle" x="360" y="-251" font-family="Helvetica,sans-Serif" font-size="10.00">Core</text>
</g>
<!-- dir_5744949ff81cd51244f4e9eb2964eaae -->
<g id="node2" class="node">
<title>dir_5744949ff81cd51244f4e9eb2964eaae</title>
<g id="a_node2"><a xlink:href="dir_5744949ff81cd51244f4e9eb2964eaae.html" target="_top" xlink:title="CBORWrapper">
<polygon fill="#4ea9ff" stroke="#404040" points="376,-153 290,-153 290,-134 376,-134 376,-153"/>
<text text-anchor="middle" x="333" y="-141" font-family="Helvetica,sans-Serif" font-size="10.00">CBORWrapper</text>
</a>
</g>
</g>
<!-- dir_a7e9f68611f01b5eb6ddd8cd40b75845&#45;&gt;dir_5744949ff81cd51244f4e9eb2964eaae -->
<g id="edge2" class="edge">
<title>dir_a7e9f68611f01b5eb6ddd8cd40b75845&#45;&gt;dir_5744949ff81cd51244f4e9eb2964eaae</title>
<g id="a_edge2"><a xlink:href="dir_000002_000001.html" target="_top">
<path fill="none" stroke="#63b8ff" d="M357.79,-243.66C353.4,-226.09 343.49,-186.45 337.61,-162.95"/>
<polygon fill="#63b8ff" stroke="#63b8ff" points="340.99,-162.01 335.16,-153.16 334.19,-163.71 340.99,-162.01"/>
</a>
</g>
<g id="a_edge2&#45;headlabel"><a xlink:href="dir_000002_000001.html" target="_top" xlink:title="6">
<text text-anchor="middle" x="344.61" y="-162.31" font-family="Helvetica,sans-Serif" font-size="10.00" fill="#63b8ff">6</text>
</a>
</g>
</g>
<!-- dir_53788d271d5e379cf5a6be5d6c342eea -->
<g id="node11" class="node">
<title>dir_53788d271d5e379cf5a6be5d6c342eea</title>
<g id="a_node11"><a xlink:href="dir_53788d271d5e379cf5a6be5d6c342eea.html" target="_top" xlink:title="Storage">
<polygon fill="#4ea9ff" stroke="#404040" points="414,-208 360,-208 360,-189 414,-189 414,-208"/>
<text text-anchor="middle" x="387" y="-196" font-family="Helvetica,sans-Serif" font-size="10.00">Storage</text>
</a>
</g>
</g>
<!-- dir_a7e9f68611f01b5eb6ddd8cd40b75845&#45;&gt;dir_53788d271d5e379cf5a6be5d6c342eea -->
<g id="edge1" class="edge">
<title>dir_a7e9f68611f01b5eb6ddd8cd40b75845&#45;&gt;dir_53788d271d5e379cf5a6be5d6c342eea</title>
<g id="a_edge1"><a xlink:href="dir_000002_000012.html" target="_top">
<path fill="none" stroke="#63b8ff" d="M364.46,-243.75C368.12,-236.57 373.41,-226.18 377.95,-217.27"/>
<polygon fill="#63b8ff" stroke="#63b8ff" points="381.2,-218.59 382.62,-208.09 374.97,-215.41 381.2,-218.59"/>
</a>
</g>
<g id="a_edge1&#45;headlabel"><a xlink:href="dir_000002_000012.html" target="_top" xlink:title="4">
<text text-anchor="middle" x="382.1" y="-220.58" font-family="Helvetica,sans-Serif" font-size="10.00" fill="#63b8ff">4</text>
</a>
</g>
</g>
<!-- dir_dd066fa2eddb65de909f14ca2875dae8 -->
<g id="node12" class="node">
<title>dir_dd066fa2eddb65de909f14ca2875dae8</title>
<g id="a_node12"><a xlink:href="dir_dd066fa2eddb65de909f14ca2875dae8.html" target="_top" xlink:title="Utils">
<polygon fill="#4ea9ff" stroke="#404040" points="290.5,-43 251.5,-43 251.5,-24 290.5,-24 290.5,-43"/>
<text text-anchor="middle" x="271" y="-31" font-family="Helvetica,sans-Serif" font-size="10.00">Utils</text>
</a>
</g>
</g>
<!-- dir_5744949ff81cd51244f4e9eb2964eaae&#45;&gt;dir_dd066fa2eddb65de909f14ca2875dae8 -->
<g id="edge3" class="edge">
<title>dir_5744949ff81cd51244f4e9eb2964eaae&#45;&gt;dir_dd066fa2eddb65de909f14ca2875dae8</title>
<g id="a_edge3"><a xlink:href="dir_000001_000014.html" target="_top">
<path fill="none" stroke="#63b8ff" d="M327.93,-133.66C317.7,-115.85 294.46,-75.37 281.05,-52.01"/>
<polygon fill="#63b8ff" stroke="#63b8ff" points="283.98,-50.09 275.97,-43.16 277.91,-53.57 283.98,-50.09"/>
</a>
</g>
<g id="a_edge3&#45;headlabel"><a xlink:href="dir_000001_000014.html" target="_top" xlink:title="3">
<text text-anchor="middle" x="288.24" y="-49.29" font-family="Helvetica,sans-Serif" font-size="10.00" fill="#63b8ff">3</text>
</a>
</g>
</g>
<!-- dir_b1477d39e5aeaf2b48640a6db10eb27c -->
<g id="node3" class="node">
<title>dir_b1477d39e5aeaf2b48640a6db10eb27c</title>
<g id="a_node3"><a xlink:href="dir_b1477d39e5aeaf2b48640a6db10eb27c.html" target="_top" xlink:title="Date">
<polygon fill="#4ea9ff" stroke="#404040" points="86,-263 46,-263 46,-244 86,-244 86,-263"/>
<text text-anchor="middle" x="66" y="-251" font-family="Helvetica,sans-Serif" font-size="10.00">Date</text>
</a>
</g>
</g>
<!-- dir_7709acc89a6a31d0650f4c2cca19d0cc -->
<g id="node4" class="node">
<title>dir_7709acc89a6a31d0650f4c2cca19d0cc</title>
<g id="a_node4"><a xlink:href="dir_7709acc89a6a31d0650f4c2cca19d0cc.html" target="_top" xlink:title="EventBus">
<polygon fill="#4ea9ff" stroke="#404040" points="106,-153 44,-153 44,-134 106,-134 106,-153"/>
<text text-anchor="middle" x="75" y="-141" font-family="Helvetica,sans-Serif" font-size="10.00">EventBus</text>
</a>
</g>
</g>
<!-- dir_b1477d39e5aeaf2b48640a6db10eb27c&#45;&gt;dir_7709acc89a6a31d0650f4c2cca19d0cc -->
<g id="edge6" class="edge">
<title>dir_b1477d39e5aeaf2b48640a6db10eb27c&#45;&gt;dir_7709acc89a6a31d0650f4c2cca19d0cc</title>
<g id="a_edge6"><a xlink:href="dir_000003_000004.html" target="_top">
<path fill="none" stroke="#63b8ff" d="M66.74,-243.66C68.19,-226.17 71.47,-186.8 73.44,-163.27"/>
<polygon fill="#63b8ff" stroke="#63b8ff" points="76.94,-163.41 74.28,-153.16 69.96,-162.83 76.94,-163.41"/>
</a>
</g>
<g id="a_edge6&#45;headlabel"><a xlink:href="dir_000003_000004.html" target="_top" xlink:title="1">
<text text-anchor="middle" x="79.47" y="-164.73" font-family="Helvetica,sans-Serif" font-size="10.00" fill="#63b8ff">1</text>
</a>
</g>
</g>
<!-- dir_7701f59d9393e5ddc689932b0e266d1c -->
<g id="node10" class="node">
<title>dir_7701f59d9393e5ddc689932b0e266d1c</title>
<g id="a_node10"><a xlink:href="dir_7701f59d9393e5ddc689932b0e266d1c.html" target="_top" xlink:title="Scheduler">
<polygon fill="#4ea9ff" stroke="#404040" points="197.5,-98 132.5,-98 132.5,-79 197.5,-79 197.5,-98"/>
<text text-anchor="middle" x="165" y="-86" font-family="Helvetica,sans-Serif" font-size="10.00">Scheduler</text>
</a>
</g>
</g>
<!-- dir_b1477d39e5aeaf2b48640a6db10eb27c&#45;&gt;dir_7701f59d9393e5ddc689932b0e266d1c -->
<g id="edge5" class="edge">
<title>dir_b1477d39e5aeaf2b48640a6db10eb27c&#45;&gt;dir_7701f59d9393e5ddc689932b0e266d1c</title>
<g id="a_edge5"><a xlink:href="dir_000003_000011.html" target="_top">
<path fill="none" stroke="#63b8ff" d="M71.32,-243.74C87.04,-217.87 133.43,-141.48 154.44,-106.88"/>
<polygon fill="#63b8ff" stroke="#63b8ff" points="157.45,-108.67 159.65,-98.31 151.47,-105.04 157.45,-108.67"/>
</a>
</g>
<g id="a_edge5&#45;headlabel"><a xlink:href="dir_000003_000011.html" target="_top" xlink:title="1">
<text text-anchor="middle" x="158.01" y="-110.72" font-family="Helvetica,sans-Serif" font-size="10.00" fill="#63b8ff">1</text>
</a>
</g>
</g>
<!-- dir_b1477d39e5aeaf2b48640a6db10eb27c&#45;&gt;dir_53788d271d5e379cf5a6be5d6c342eea -->
<g id="edge4" class="edge">
<title>dir_b1477d39e5aeaf2b48640a6db10eb27c&#45;&gt;dir_53788d271d5e379cf5a6be5d6c342eea</title>
<g id="a_edge4"><a xlink:href="dir_000003_000012.html" target="_top">
<path fill="none" stroke="#63b8ff" d="M86.08,-249.18C138.82,-240.48 281.9,-216.85 350.01,-205.61"/>
<polygon fill="#63b8ff" stroke="#63b8ff" points="350.59,-209.06 359.88,-203.98 349.45,-202.15 350.59,-209.06"/>
</a>
</g>
<g id="a_edge4&#45;headlabel"><a xlink:href="dir_000003_000012.html" target="_top" xlink:title="1">
<text text-anchor="middle" x="347.5" y="-209.95" font-family="Helvetica,sans-Serif" font-size="10.00" fill="#63b8ff">1</text>
</a>
</g>
</g>
<!-- dir_b1477d39e5aeaf2b48640a6db10eb27c&#45;&gt;dir_dd066fa2eddb65de909f14ca2875dae8 -->
<g id="edge7" class="edge">
<title>dir_b1477d39e5aeaf2b48640a6db10eb27c&#45;&gt;dir_dd066fa2eddb65de909f14ca2875dae8</title>
<g id="a_edge7"><a xlink:href="dir_000003_000014.html" target="_top">
<path fill="none" stroke="#63b8ff" d="M59.83,-243.81C46.38,-223.71 17.02,-172.78 35,-134 70.96,-56.48 185.93,-39.27 241.02,-35.51"/>
<polygon fill="#63b8ff" stroke="#63b8ff" points="241.42,-39 251.2,-34.93 241.01,-32.01 241.42,-39"/>
</a>
</g>
<g id="a_edge7&#45;headlabel"><a xlink:href="dir_000003_000014.html" target="_top" xlink:title="1">
<text text-anchor="middle" x="237.99" y="-39.54" font-family="Helvetica,sans-Serif" font-size="10.00" fill="#63b8ff">1</text>
</a>
</g>
</g>
<!-- dir_7709acc89a6a31d0650f4c2cca19d0cc&#45;&gt;dir_7701f59d9393e5ddc689932b0e266d1c -->
<g id="edge8" class="edge">
<title>dir_7709acc89a6a31d0650f4c2cca19d0cc&#45;&gt;dir_7701f59d9393e5ddc689932b0e266d1c</title>
<g id="a_edge8"><a xlink:href="dir_000004_000011.html" target="_top">
<path fill="none" stroke="#63b8ff" d="M89.46,-133.98C103.42,-125.77 124.79,-113.18 141.25,-103.49"/>
<polygon fill="#63b8ff" stroke="#63b8ff" points="143.44,-106.26 150.28,-98.17 139.88,-100.23 143.44,-106.26"/>
</a>
</g>
<g id="a_edge8&#45;headlabel"><a xlink:href="dir_000004_000011.html" target="_top" xlink:title="1">
<text text-anchor="middle" x="141.78" y="-108.03" font-family="Helvetica,sans-Serif" font-size="10.00" fill="#63b8ff">1</text>
</a>
</g>
</g>
<!-- dir_7709acc89a6a31d0650f4c2cca19d0cc&#45;&gt;dir_dd066fa2eddb65de909f14ca2875dae8 -->
<g id="edge9" class="edge">
<title>dir_7709acc89a6a31d0650f4c2cca19d0cc&#45;&gt;dir_dd066fa2eddb65de909f14ca2875dae8</title>
<g id="a_edge9"><a xlink:href="dir_000004_000014.html" target="_top">
<path fill="none" stroke="#63b8ff" d="M79.44,-133.71C86.82,-119.99 102.91,-93.55 124,-79 159.89,-54.25 209.91,-42.96 241.36,-38.03"/>
<polygon fill="#63b8ff" stroke="#63b8ff" points="241.87,-41.5 251.27,-36.6 240.87,-34.57 241.87,-41.5"/>
</a>
</g>
<g id="a_edge9&#45;headlabel"><a xlink:href="dir_000004_000014.html" target="_top" xlink:title="13">
<text text-anchor="middle" x="238.72" y="-42.32" font-family="Helvetica,sans-Serif" font-size="10.00" fill="#63b8ff">13</text>
</a>
</g>
</g>
<!-- dir_81b89e177fc6eda5675f134952eb7638 -->
<g id="node5" class="node">
<title>dir_81b89e177fc6eda5675f134952eb7638</title>
<g id="a_node5"><a xlink:href="dir_81b89e177fc6eda5675f134952eb7638.html" target="_top" xlink:title="Hardware">
<polygon fill="#4ea9ff" stroke="#404040" points="228,-318 164,-318 164,-299 228,-299 228,-318"/>
<text text-anchor="middle" x="196" y="-306" font-family="Helvetica,sans-Serif" font-size="10.00">Hardware</text>
</a>
</g>
</g>
<!-- dir_f6b86849232e01d1d9477c4c6d3656c6 -->
<g id="node9" class="node">
<title>dir_f6b86849232e01d1d9477c4c6d3656c6</title>
<g id="a_node9"><a xlink:href="dir_f6b86849232e01d1d9477c4c6d3656c6.html" target="_top" xlink:title="Register">
<polygon fill="#4ea9ff" stroke="#404040" points="251.5,-263 194.5,-263 194.5,-244 251.5,-244 251.5,-263"/>
<text text-anchor="middle" x="223" y="-251" font-family="Helvetica,sans-Serif" font-size="10.00">Register</text>
</a>
</g>
</g>
<!-- dir_81b89e177fc6eda5675f134952eb7638&#45;&gt;dir_f6b86849232e01d1d9477c4c6d3656c6 -->
<g id="edge11" class="edge">
<title>dir_81b89e177fc6eda5675f134952eb7638&#45;&gt;dir_f6b86849232e01d1d9477c4c6d3656c6</title>
<g id="a_edge11"><a xlink:href="dir_000005_000010.html" target="_top">
<path fill="none" stroke="#63b8ff" d="M200.46,-298.75C204.12,-291.57 209.41,-281.18 213.95,-272.27"/>
<polygon fill="#63b8ff" stroke="#63b8ff" points="217.2,-273.59 218.62,-263.09 210.97,-270.41 217.2,-273.59"/>
</a>
</g>
<g id="a_edge11&#45;headlabel"><a xlink:href="dir_000005_000010.html" target="_top" xlink:title="1">
<text text-anchor="middle" x="218.1" y="-275.58" font-family="Helvetica,sans-Serif" font-size="10.00" fill="#63b8ff">1</text>
</a>
</g>
</g>
<!-- dir_81b89e177fc6eda5675f134952eb7638&#45;&gt;dir_7701f59d9393e5ddc689932b0e266d1c -->
<g id="edge10" class="edge">
<title>dir_81b89e177fc6eda5675f134952eb7638&#45;&gt;dir_7701f59d9393e5ddc689932b0e266d1c</title>
<g id="a_edge10"><a xlink:href="dir_000005_000011.html" target="_top">
<path fill="none" stroke="#63b8ff" d="M193.98,-298.99C191.88,-290.05 188.55,-275.57 186,-263 181.05,-238.65 179.23,-232.63 176,-208 171.71,-175.28 173.18,-166.84 170,-134 169.18,-125.48 168.14,-116.06 167.22,-108.08"/>
<polygon fill="#63b8ff" stroke="#63b8ff" points="170.68,-107.55 166.04,-98.02 163.73,-108.36 170.68,-107.55"/>
</a>
</g>
<g id="a_edge10&#45;headlabel"><a xlink:href="dir_000005_000011.html" target="_top" xlink:title="2">
<text text-anchor="middle" x="173.92" y="-108.29" font-family="Helvetica,sans-Serif" font-size="10.00" fill="#63b8ff">2</text>
</a>
</g>
</g>
<!-- dir_8b459f05ca4bee01aa453528929bcc6b -->
<g id="node6" class="node">
<title>dir_8b459f05ca4bee01aa453528929bcc6b</title>
<g id="a_node6"><a xlink:href="dir_8b459f05ca4bee01aa453528929bcc6b.html" target="_top" xlink:title="LispWrapper">
<polygon fill="#4ea9ff" stroke="#404040" points="261.5,-208 184.5,-208 184.5,-189 261.5,-189 261.5,-208"/>
<text text-anchor="middle" x="223" y="-196" font-family="Helvetica,sans-Serif" font-size="10.00">LispWrapper</text>
</a>
</g>
</g>
<!-- dir_8b459f05ca4bee01aa453528929bcc6b&#45;&gt;dir_5744949ff81cd51244f4e9eb2964eaae -->
<g id="edge12" class="edge">
<title>dir_8b459f05ca4bee01aa453528929bcc6b&#45;&gt;dir_5744949ff81cd51244f4e9eb2964eaae</title>
<g id="a_edge12"><a xlink:href="dir_000007_000001.html" target="_top">
<path fill="none" stroke="#63b8ff" d="M240.67,-188.98C258.29,-180.5 285.58,-167.35 305.93,-157.54"/>
<polygon fill="#63b8ff" stroke="#63b8ff" points="307.52,-160.66 315.01,-153.17 304.48,-154.36 307.52,-160.66"/>
</a>
</g>
<g id="a_edge12&#45;headlabel"><a xlink:href="dir_000007_000001.html" target="_top" xlink:title="1">
<text text-anchor="middle" x="305.51" y="-162.28" font-family="Helvetica,sans-Serif" font-size="10.00" fill="#63b8ff">1</text>
</a>
</g>
</g>
<!-- dir_8b459f05ca4bee01aa453528929bcc6b&#45;&gt;dir_7709acc89a6a31d0650f4c2cca19d0cc -->
<g id="edge14" class="edge">
<title>dir_8b459f05ca4bee01aa453528929bcc6b&#45;&gt;dir_7709acc89a6a31d0650f4c2cca19d0cc</title>
<g id="a_edge14"><a xlink:href="dir_000007_000004.html" target="_top">
<path fill="none" stroke="#63b8ff" d="M199.22,-188.98C174.77,-180.23 136.47,-166.51 108.85,-156.62"/>
<polygon fill="#63b8ff" stroke="#63b8ff" points="109.81,-153.25 99.21,-153.17 107.45,-159.84 109.81,-153.25"/>
</a>
</g>
<g id="a_edge14&#45;headlabel"><a xlink:href="dir_000007_000004.html" target="_top" xlink:title="1">
<text text-anchor="middle" x="114.15" y="-149.29" font-family="Helvetica,sans-Serif" font-size="10.00" fill="#63b8ff">1</text>
</a>
</g>
</g>
<!-- dir_8b459f05ca4bee01aa453528929bcc6b&#45;&gt;dir_f6b86849232e01d1d9477c4c6d3656c6 -->
<g id="edge16" class="edge">
<title>dir_8b459f05ca4bee01aa453528929bcc6b&#45;&gt;dir_f6b86849232e01d1d9477c4c6d3656c6</title>
<g id="a_edge16"><a xlink:href="dir_000007_000010.html" target="_top">
<path fill="none" stroke="#63b8ff" d="M228.13,-208.09C229.64,-214.99 230.09,-224.93 229.49,-233.66"/>
<polygon fill="#63b8ff" stroke="#63b8ff" points="226,-233.38 228.17,-243.75 232.94,-234.29 226,-233.38"/>
</a>
</g>
<g id="a_edge16&#45;headlabel"><a xlink:href="dir_000007_000010.html" target="_top" xlink:title="1">
<text text-anchor="middle" x="223.65" y="-226.94" font-family="Helvetica,sans-Serif" font-size="10.00" fill="#63b8ff">1</text>
</a>
</g>
</g>
<!-- dir_8b459f05ca4bee01aa453528929bcc6b&#45;&gt;dir_7701f59d9393e5ddc689932b0e266d1c -->
<g id="edge13" class="edge">
<title>dir_8b459f05ca4bee01aa453528929bcc6b&#45;&gt;dir_7701f59d9393e5ddc689932b0e266d1c</title>
<g id="a_edge13"><a xlink:href="dir_000007_000011.html" target="_top">
<path fill="none" stroke="#63b8ff" d="M218.61,-188.83C212.36,-176.55 200.52,-153.45 190,-134 185.21,-125.13 179.74,-115.36 175.14,-107.24"/>
<polygon fill="#63b8ff" stroke="#63b8ff" points="178.05,-105.28 170.07,-98.32 171.97,-108.74 178.05,-105.28"/>
</a>
</g>
<g id="a_edge13&#45;headlabel"><a xlink:href="dir_000007_000011.html" target="_top" xlink:title="1">
<text text-anchor="middle" x="182.3" y="-104.5" font-family="Helvetica,sans-Serif" font-size="10.00" fill="#63b8ff">1</text>
</a>
</g>
</g>
<!-- dir_8b459f05ca4bee01aa453528929bcc6b&#45;&gt;dir_dd066fa2eddb65de909f14ca2875dae8 -->
<g id="edge15" class="edge">
<title>dir_8b459f05ca4bee01aa453528929bcc6b&#45;&gt;dir_dd066fa2eddb65de909f14ca2875dae8</title>
<g id="a_edge15"><a xlink:href="dir_000007_000014.html" target="_top">
<path fill="none" stroke="#63b8ff" d="M225.58,-188.74C233.1,-163.2 255.12,-88.43 265.48,-53.23"/>
<polygon fill="#63b8ff" stroke="#63b8ff" points="268.94,-53.89 268.41,-43.31 262.22,-51.91 268.94,-53.89"/>
</a>
</g>
<g id="a_edge15&#45;headlabel"><a xlink:href="dir_000007_000014.html" target="_top" xlink:title="3">
<text text-anchor="middle" x="270.65" y="-55.64" font-family="Helvetica,sans-Serif" font-size="10.00" fill="#63b8ff">3</text>
</a>
</g>
</g>
<!-- dir_a9dd503c4a2f53b8740674fc20c3b69a -->
<g id="node7" class="node">
<title>dir_a9dd503c4a2f53b8740674fc20c3b69a</title>
<g id="a_node7"><a xlink:href="dir_a9dd503c4a2f53b8740674fc20c3b69a.html" target="_top" xlink:title="MQTTWrapper">
<polygon fill="#4ea9ff" stroke="#404040" points="198,-428 112,-428 112,-409 198,-409 198,-428"/>
<text text-anchor="middle" x="155" y="-416" font-family="Helvetica,sans-Serif" font-size="10.00">MQTTWrapper</text>
</a>
</g>
</g>
<!-- dir_a9dd503c4a2f53b8740674fc20c3b69a&#45;&gt;dir_5744949ff81cd51244f4e9eb2964eaae -->
<g id="edge17" class="edge">
<title>dir_a9dd503c4a2f53b8740674fc20c3b69a&#45;&gt;dir_5744949ff81cd51244f4e9eb2964eaae</title>
<g id="a_edge17"><a xlink:href="dir_000008_000001.html" target="_top">
<path fill="none" stroke="#63b8ff" d="M173.44,-408.96C188.38,-401.29 209.14,-388.8 223,-373 280.97,-306.9 315.43,-204.89 327.79,-163.21"/>
<polygon fill="#63b8ff" stroke="#63b8ff" points="331.23,-163.92 330.63,-153.34 324.5,-161.98 331.23,-163.92"/>
</a>
</g>
<g id="a_edge17&#45;headlabel"><a xlink:href="dir_000008_000001.html" target="_top" xlink:title="2">
<text text-anchor="middle" x="332.96" y="-165.66" font-family="Helvetica,sans-Serif" font-size="10.00" fill="#63b8ff">2</text>
</a>
</g>
</g>
<!-- dir_a9dd503c4a2f53b8740674fc20c3b69a&#45;&gt;dir_b1477d39e5aeaf2b48640a6db10eb27c -->
<g id="edge21" class="edge">
<title>dir_a9dd503c4a2f53b8740674fc20c3b69a&#45;&gt;dir_b1477d39e5aeaf2b48640a6db10eb27c</title>
<g id="a_edge21"><a xlink:href="dir_000008_000003.html" target="_top">
<path fill="none" stroke="#63b8ff" d="M147.09,-408.76C139.52,-400.11 128.08,-386.26 120,-373 99.5,-339.34 81.88,-296.58 72.73,-272.72"/>
<polygon fill="#63b8ff" stroke="#63b8ff" points="75.93,-271.31 69.13,-263.18 69.38,-273.78 75.93,-271.31"/>
</a>
</g>
<g id="a_edge21&#45;headlabel"><a xlink:href="dir_000008_000003.html" target="_top" xlink:title="1">
<text text-anchor="middle" x="79.86" y="-271.17" font-family="Helvetica,sans-Serif" font-size="10.00" fill="#63b8ff">1</text>
</a>
</g>
</g>
<!-- dir_a9dd503c4a2f53b8740674fc20c3b69a&#45;&gt;dir_7709acc89a6a31d0650f4c2cca19d0cc -->
<g id="edge20" class="edge">
<title>dir_a9dd503c4a2f53b8740674fc20c3b69a&#45;&gt;dir_7709acc89a6a31d0650f4c2cca19d0cc</title>
<g id="a_edge20"><a xlink:href="dir_000008_000004.html" target="_top">
<path fill="none" stroke="#63b8ff" d="M143.41,-408.79C132.68,-400.37 116.66,-386.88 105,-373 68.03,-328.99 52.71,-318.29 37,-263 26.67,-226.63 48.22,-184.61 62.89,-161.66"/>
<polygon fill="#63b8ff" stroke="#63b8ff" points="65.99,-163.32 68.65,-153.06 60.17,-159.43 65.99,-163.32"/>
</a>
</g>
<g id="a_edge20&#45;headlabel"><a xlink:href="dir_000008_000004.html" target="_top" xlink:title="1">
<text text-anchor="middle" x="66.35" y="-165.39" font-family="Helvetica,sans-Serif" font-size="10.00" fill="#63b8ff">1</text>
</a>
</g>
</g>
<!-- dir_6d8a861c12abf7befdc85482ddacc44a -->
<g id="node8" class="node">
<title>dir_6d8a861c12abf7befdc85482ddacc44a</title>
<g id="a_node8"><a xlink:href="dir_6d8a861c12abf7befdc85482ddacc44a.html" target="_top" xlink:title="Network">
<polygon fill="#4ea9ff" stroke="#404040" points="214,-373 156,-373 156,-354 214,-354 214,-373"/>
<text text-anchor="middle" x="185" y="-361" font-family="Helvetica,sans-Serif" font-size="10.00">Network</text>
</a>
</g>
</g>
<!-- dir_a9dd503c4a2f53b8740674fc20c3b69a&#45;&gt;dir_6d8a861c12abf7befdc85482ddacc44a -->
<g id="edge18" class="edge">
<title>dir_a9dd503c4a2f53b8740674fc20c3b69a&#45;&gt;dir_6d8a861c12abf7befdc85482ddacc44a</title>
<g id="a_edge18"><a xlink:href="dir_000008_000009.html" target="_top">
<path fill="none" stroke="#63b8ff" d="M159.95,-408.75C164.06,-401.49 170.03,-390.95 175.1,-381.98"/>
<polygon fill="#63b8ff" stroke="#63b8ff" points="178.26,-383.52 180.14,-373.09 172.17,-380.07 178.26,-383.52"/>
</a>
</g>
<g id="a_edge18&#45;headlabel"><a xlink:href="dir_000008_000009.html" target="_top" xlink:title="2">
<text text-anchor="middle" x="178.96" y="-385.54" font-family="Helvetica,sans-Serif" font-size="10.00" fill="#63b8ff">2</text>
</a>
</g>
</g>
<!-- dir_a9dd503c4a2f53b8740674fc20c3b69a&#45;&gt;dir_7701f59d9393e5ddc689932b0e266d1c -->
<g id="edge19" class="edge">
<title>dir_a9dd503c4a2f53b8740674fc20c3b69a&#45;&gt;dir_7701f59d9393e5ddc689932b0e266d1c</title>
<g id="a_edge19"><a xlink:href="dir_000008_000011.html" target="_top">
<path fill="none" stroke="#63b8ff" d="M150.83,-408.77C142.59,-390.69 125,-347.64 125,-309.5 125,-309.5 125,-309.5 125,-252.5 125,-198.52 145.95,-137.31 157.52,-107.6"/>
<polygon fill="#63b8ff" stroke="#63b8ff" points="160.84,-108.73 161.31,-98.15 154.34,-106.13 160.84,-108.73"/>
</a>
</g>
<g id="a_edge19&#45;headlabel"><a xlink:href="dir_000008_000011.html" target="_top" xlink:title="1">
<text text-anchor="middle" x="162.14" y="-110.63" font-family="Helvetica,sans-Serif" font-size="10.00" fill="#63b8ff">1</text>
</a>
</g>
</g>
<!-- dir_a9dd503c4a2f53b8740674fc20c3b69a&#45;&gt;dir_dd066fa2eddb65de909f14ca2875dae8 -->
<g id="edge22" class="edge">
<title>dir_a9dd503c4a2f53b8740674fc20c3b69a&#45;&gt;dir_dd066fa2eddb65de909f14ca2875dae8</title>
<g id="a_edge22"><a xlink:href="dir_000008_000014.html" target="_top">
<path fill="none" stroke="#63b8ff" d="M198.01,-411.11C280.54,-397.64 453,-363.08 453,-309.5 453,-309.5 453,-309.5 453,-142.5 453,-72.55 352.34,-46.91 300.74,-38.36"/>
<polygon fill="#63b8ff" stroke="#63b8ff" points="301.24,-34.9 290.82,-36.83 300.17,-41.82 301.24,-34.9"/>
</a>
</g>
<g id="a_edge22&#45;headlabel"><a xlink:href="dir_000008_000014.html" target="_top" xlink:title="4">
<text text-anchor="middle" x="305.23" y="-30.14" font-family="Helvetica,sans-Serif" font-size="10.00" fill="#63b8ff">4</text>
</a>
</g>
</g>
<!-- dir_6d8a861c12abf7befdc85482ddacc44a&#45;&gt;dir_7709acc89a6a31d0650f4c2cca19d0cc -->
<g id="edge25" class="edge">
<title>dir_6d8a861c12abf7befdc85482ddacc44a&#45;&gt;dir_7709acc89a6a31d0650f4c2cca19d0cc</title>
<g id="a_edge25"><a xlink:href="dir_000009_000004.html" target="_top">
<path fill="none" stroke="#63b8ff" d="M173.64,-353.7C163.61,-345.42 149.2,-332.2 140,-318 106.84,-266.8 87.14,-196.25 79.15,-163.11"/>
<polygon fill="#63b8ff" stroke="#63b8ff" points="82.49,-161.99 76.82,-153.04 75.67,-163.57 82.49,-161.99"/>
</a>
</g>
<g id="a_edge25&#45;headlabel"><a xlink:href="dir_000009_000004.html" target="_top" xlink:title="3">
<text text-anchor="middle" x="86.07" y="-162.35" font-family="Helvetica,sans-Serif" font-size="10.00" fill="#63b8ff">3</text>
</a>
</g>
</g>
<!-- dir_6d8a861c12abf7befdc85482ddacc44a&#45;&gt;dir_81b89e177fc6eda5675f134952eb7638 -->
<g id="edge26" class="edge">
<title>dir_6d8a861c12abf7befdc85482ddacc44a&#45;&gt;dir_81b89e177fc6eda5675f134952eb7638</title>
<g id="a_edge26"><a xlink:href="dir_000009_000005.html" target="_top">
<path fill="none" stroke="#63b8ff" d="M186.82,-353.75C188.26,-346.8 190.32,-336.85 192.13,-328.13"/>
<polygon fill="#63b8ff" stroke="#63b8ff" points="195.61,-328.59 194.22,-318.09 188.76,-327.17 195.61,-328.59"/>
</a>
</g>
<g id="a_edge26&#45;headlabel"><a xlink:href="dir_000009_000005.html" target="_top" xlink:title="1">
<text text-anchor="middle" x="197.66" y="-330.19" font-family="Helvetica,sans-Serif" font-size="10.00" fill="#63b8ff">1</text>
</a>
</g>
</g>
<!-- dir_6d8a861c12abf7befdc85482ddacc44a&#45;&gt;dir_7701f59d9393e5ddc689932b0e266d1c -->
<g id="edge24" class="edge">
<title>dir_6d8a861c12abf7befdc85482ddacc44a&#45;&gt;dir_7701f59d9393e5ddc689932b0e266d1c</title>
<g id="a_edge24"><a xlink:href="dir_000009_000011.html" target="_top">
<path fill="none" stroke="#63b8ff" d="M176.79,-353.8C169.46,-345.38 159.25,-331.9 155,-318 132.03,-242.84 150.56,-147.31 160.14,-107.84"/>
<polygon fill="#63b8ff" stroke="#63b8ff" points="163.56,-108.61 162.62,-98.06 156.77,-106.89 163.56,-108.61"/>
</a>
</g>
<g id="a_edge24&#45;headlabel"><a xlink:href="dir_000009_000011.html" target="_top" xlink:title="4">
<text text-anchor="middle" x="165.43" y="-110.29" font-family="Helvetica,sans-Serif" font-size="10.00" fill="#63b8ff">4</text>
</a>
</g>
</g>
<!-- dir_6d8a861c12abf7befdc85482ddacc44a&#45;&gt;dir_53788d271d5e379cf5a6be5d6c342eea -->
<g id="edge23" class="edge">
<title>dir_6d8a861c12abf7befdc85482ddacc44a&#45;&gt;dir_53788d271d5e379cf5a6be5d6c342eea</title>
<g id="a_edge23"><a xlink:href="dir_000009_000012.html" target="_top">
<path fill="none" stroke="#63b8ff" d="M214.08,-358.12C260.55,-349.39 350.27,-324.99 389,-263 397.31,-249.7 395.77,-231.59 392.76,-218.11"/>
<polygon fill="#63b8ff" stroke="#63b8ff" points="396.04,-216.83 390.07,-208.08 389.28,-218.65 396.04,-216.83"/>
</a>
</g>
<g id="a_edge23&#45;headlabel"><a xlink:href="dir_000009_000012.html" target="_top" xlink:title="2">
<text text-anchor="middle" x="399.72" y="-217.07" font-family="Helvetica,sans-Serif" font-size="10.00" fill="#63b8ff">2</text>
</a>
</g>
</g>
<!-- dir_6d8a861c12abf7befdc85482ddacc44a&#45;&gt;dir_dd066fa2eddb65de909f14ca2875dae8 -->
<g id="edge27" class="edge">
<title>dir_6d8a861c12abf7befdc85482ddacc44a&#45;&gt;dir_dd066fa2eddb65de909f14ca2875dae8</title>
<g id="a_edge27"><a xlink:href="dir_000009_000014.html" target="_top">
<path fill="none" stroke="#63b8ff" d="M214.28,-359.39C248.13,-354.71 304.5,-343.52 346,-318 396.83,-286.74 409.5,-266.13 423,-208 437.71,-144.67 402.49,-122.32 354,-79 338.2,-64.89 317.13,-53.66 300.18,-46.01"/>
<polygon fill="#63b8ff" stroke="#63b8ff" points="301.31,-42.69 290.74,-41.93 298.53,-49.11 301.31,-42.69"/>
</a>
</g>
<g id="a_edge27&#45;headlabel"><a xlink:href="dir_000009_000014.html" target="_top" xlink:title="1">
<text text-anchor="middle" x="305.73" y="-39.01" font-family="Helvetica,sans-Serif" font-size="10.00" fill="#63b8ff">1</text>
</a>
</g>
</g>
<!-- dir_f6b86849232e01d1d9477c4c6d3656c6&#45;&gt;dir_5744949ff81cd51244f4e9eb2964eaae -->
<g id="edge28" class="edge">
<title>dir_f6b86849232e01d1d9477c4c6d3656c6&#45;&gt;dir_5744949ff81cd51244f4e9eb2964eaae</title>
<g id="a_edge28"><a xlink:href="dir_000010_000001.html" target="_top">
<path fill="none" stroke="#63b8ff" d="M237.75,-243.96C251.2,-235.76 271.16,-222.51 286,-208 300.2,-194.11 313.38,-175.61 322.14,-162.16"/>
<polygon fill="#63b8ff" stroke="#63b8ff" points="325.3,-163.72 327.7,-153.4 319.39,-159.97 325.3,-163.72"/>
</a>
</g>
<g id="a_edge28&#45;headlabel"><a xlink:href="dir_000010_000001.html" target="_top" xlink:title="1">
<text text-anchor="middle" x="325.77" y="-165.78" font-family="Helvetica,sans-Serif" font-size="10.00" fill="#63b8ff">1</text>
</a>
</g>
</g>
<!-- dir_f6b86849232e01d1d9477c4c6d3656c6&#45;&gt;dir_8b459f05ca4bee01aa453528929bcc6b -->
<g id="edge29" class="edge">
<title>dir_f6b86849232e01d1d9477c4c6d3656c6&#45;&gt;dir_8b459f05ca4bee01aa453528929bcc6b</title>
<g id="a_edge29"><a xlink:href="dir_000010_000007.html" target="_top">
<path fill="none" stroke="#63b8ff" d="M217.83,-243.75C216.34,-236.8 215.9,-226.85 216.52,-218.13"/>
<polygon fill="#63b8ff" stroke="#63b8ff" points="220.01,-218.47 217.87,-208.09 213.07,-217.53 220.01,-218.47"/>
</a>
</g>
<g id="a_edge29&#45;headlabel"><a xlink:href="dir_000010_000007.html" target="_top" xlink:title="1">
<text text-anchor="middle" x="222.34" y="-219.91" font-family="Helvetica,sans-Serif" font-size="10.00" fill="#63b8ff">1</text>
</a>
</g>
</g>
<!-- dir_f6b86849232e01d1d9477c4c6d3656c6&#45;&gt;dir_dd066fa2eddb65de909f14ca2875dae8 -->
<g id="edge30" class="edge">
<title>dir_f6b86849232e01d1d9477c4c6d3656c6&#45;&gt;dir_dd066fa2eddb65de909f14ca2875dae8</title>
<g id="a_edge30"><a xlink:href="dir_000010_000014.html" target="_top">
<path fill="none" stroke="#63b8ff" d="M237.37,-243.96C248.87,-236.21 264.18,-223.62 271,-208 282.9,-180.74 276.44,-92.27 272.86,-53.27"/>
<polygon fill="#63b8ff" stroke="#63b8ff" points="276.34,-52.89 271.91,-43.27 269.38,-53.55 276.34,-52.89"/>
</a>
</g>
<g id="a_edge30&#45;headlabel"><a xlink:href="dir_000010_000014.html" target="_top" xlink:title="4">
<text text-anchor="middle" x="279.51" y="-53.7" font-family="Helvetica,sans-Serif" font-size="10.00" fill="#63b8ff">4</text>
</a>
</g>
</g>
<!-- dir_7701f59d9393e5ddc689932b0e266d1c&#45;&gt;dir_dd066fa2eddb65de909f14ca2875dae8 -->
<g id="edge31" class="edge">
<title>dir_7701f59d9393e5ddc689932b0e266d1c&#45;&gt;dir_dd066fa2eddb65de909f14ca2875dae8</title>
<g id="a_edge31"><a xlink:href="dir_000011_000014.html" target="_top">
<path fill="none" stroke="#63b8ff" d="M182.03,-78.98C198.93,-70.54 225.06,-57.47 244.64,-47.68"/>
<polygon fill="#63b8ff" stroke="#63b8ff" points="246.28,-50.77 253.66,-43.17 243.15,-44.51 246.28,-50.77"/>
</a>
</g>
<g id="a_edge31&#45;headlabel"><a xlink:href="dir_000011_000014.html" target="_top" xlink:title="1">
<text text-anchor="middle" x="244.34" y="-52.42" font-family="Helvetica,sans-Serif" font-size="10.00" fill="#63b8ff">1</text>
</a>
</g>
</g>
<!-- dir_53788d271d5e379cf5a6be5d6c342eea&#45;&gt;dir_5744949ff81cd51244f4e9eb2964eaae -->
<g id="edge32" class="edge">
<title>dir_53788d271d5e379cf5a6be5d6c342eea&#45;&gt;dir_5744949ff81cd51244f4e9eb2964eaae</title>
<g id="a_edge32"><a xlink:href="dir_000012_000001.html" target="_top">
<path fill="none" stroke="#63b8ff" d="M378.08,-188.75C370.22,-181.03 358.57,-169.6 349.08,-160.28"/>
<polygon fill="#63b8ff" stroke="#63b8ff" points="351.34,-157.6 341.75,-153.09 346.44,-162.59 351.34,-157.6"/>
</a>
</g>
<g id="a_edge32&#45;headlabel"><a xlink:href="dir_000012_000001.html" target="_top" xlink:title="1">
<text text-anchor="middle" x="355.89" y="-155.59" font-family="Helvetica,sans-Serif" font-size="10.00" fill="#63b8ff">1</text>
</a>
</g>
</g>
<!-- dir_53788d271d5e379cf5a6be5d6c342eea&#45;&gt;dir_dd066fa2eddb65de909f14ca2875dae8 -->
<g id="edge33" class="edge">
<title>dir_53788d271d5e379cf5a6be5d6c342eea&#45;&gt;dir_dd066fa2eddb65de909f14ca2875dae8</title>
<g id="a_edge33"><a xlink:href="dir_000012_000014.html" target="_top">
<path fill="none" stroke="#63b8ff" d="M388.82,-188.78C391.03,-176.05 393.5,-151.94 385,-134 366.31,-94.54 323.83,-64.38 296.34,-48.07"/>
<polygon fill="#63b8ff" stroke="#63b8ff" points="298.06,-45.02 287.64,-43.08 294.57,-51.09 298.06,-45.02"/>
</a>
</g>
<g id="a_edge33&#45;headlabel"><a xlink:href="dir_000012_000014.html" target="_top" xlink:title="2">
<text text-anchor="middle" x="302.59" y="-41.85" font-family="Helvetica,sans-Serif" font-size="10.00" fill="#63b8ff">2</text>
</a>
</g>
</g>
</g>
</svg>
