<?xml version="1.0" encoding="UTF-8" standalone="no"?>
<!DOCTYPE svg PUBLIC "-//W3C//DTD SVG 1.1//EN"
 "http://www.w3.org/Graphics/SVG/1.1/DTD/svg11.dtd">
<!-- Generated by graphviz version 2.43.0 (0)
 -->
<!-- Title: NVSFS Storage Pages: 1 -->
<svg width="374pt" height="64pt"
 viewBox="0.00 0.00 374.00 64.00" xmlns="http://www.w3.org/2000/svg" xmlns:xlink="http://www.w3.org/1999/xlink">
<g id="graph0" class="graph" transform="scale(1 1) rotate(0) translate(4 60)">
<title>NVSFS Storage</title>
<!-- Node2 -->
<g id="Node000002" class="node">
<title>Node2</title>
<g id="a_Node000002"><a xlink:href="group__fs__storage.html" target="_top" xlink:title="File system storage management for Uniot devices.">
<polygon fill="white" stroke="#666666" points="114,-37 0,-37 0,-18 114,-18 114,-37"/>
<text text-anchor="middle" x="57" y="-25" font-family="Helvetica,sans-Serif" font-size="10.00">File System Storage</text>
</a>
</g>
</g>
<!-- Node1 -->
<g id="Node000001" class="node">
<title>Node1</title>
<g id="a_Node000001"><a xlink:title="Experimental NVS&#45;based file system interface for ESP32 devices.">
<polygon fill="#999999" stroke="#666666" points="239,-37 150,-37 150,-18 239,-18 239,-37"/>
<text text-anchor="middle" x="194.5" y="-25" font-family="Helvetica,sans-Serif" font-size="10.00">NVSFS Storage</text>
</a>
</g>
</g>
<!-- Node2&#45;&gt;Node1 -->
<g id="edge1" class="edge">
<title>Node2&#45;&gt;Node1</title>
<path fill="none" stroke="black" d="M124.43,-27.5C133.11,-27.5 141.82,-27.5 149.99,-27.5"/>
<polygon fill="black" stroke="black" points="124.29,-24 114.29,-27.5 124.29,-31 124.29,-24"/>
</g>
<!-- Node3 -->
<g id="Node000003" class="node">
<title>Node3</title>
<g id="a_Node000003"><a xlink:href="group__nvsfs__file.html" target="_top" xlink:title="Experimental file&#45;like interface for NVS storage operations.">
<polygon fill="white" stroke="#666666" points="347.5,-56 293.5,-56 293.5,-37 347.5,-37 347.5,-56"/>
<text text-anchor="middle" x="320.5" y="-44" font-family="Helvetica,sans-Serif" font-size="10.00">NVSFile</text>
</a>
</g>
</g>
<!-- Node4 -->
<g id="Node000004" class="node">
<title>Node4</title>
<g id="a_Node000004"><a xlink:href="group__nvsfs__filesystem.html" target="_top" xlink:title="Experimental NVS&#45;based file system interface for ESP32.">
<polygon fill="white" stroke="#666666" points="366,-19 275,-19 275,0 366,0 366,-19"/>
<text text-anchor="middle" x="320.5" y="-7" font-family="Helvetica,sans-Serif" font-size="10.00">NVSFileSystem</text>
</a>
</g>
</g>
<!-- Node1&#45;&gt;Node3 -->
<g id="edge2" class="edge">
<title>Node1&#45;&gt;Node3</title>
<path fill="none" stroke="black" d="M249.17,-35.72C264.53,-38.08 280.59,-40.54 293.47,-42.51"/>
<polygon fill="black" stroke="black" points="249.63,-32.25 239.22,-34.2 248.57,-39.17 249.63,-32.25"/>
</g>
<!-- Node1&#45;&gt;Node4 -->
<g id="edge3" class="edge">
<title>Node1&#45;&gt;Node4</title>
<path fill="none" stroke="black" d="M249.16,-19.71C257.76,-18.46 266.57,-17.18 274.92,-15.97"/>
<polygon fill="black" stroke="black" points="248.61,-16.25 239.22,-21.15 249.62,-23.18 248.61,-16.25"/>
</g>
</g>
</svg>
