<?xml version="1.0" encoding="UTF-8" standalone="no"?>
<!DOCTYPE svg PUBLIC "-//W3C//DTD SVG 1.1//EN"
 "http://www.w3.org/Graphics/SVG/1.1/DTD/svg11.dtd">
<!-- Generated by graphviz version 2.43.0 (0)
 -->
<!-- Title: Internal Communication Pages: 1 -->
<svg width="266pt" height="101pt"
 viewBox="0.00 0.00 266.00 101.00" xmlns="http://www.w3.org/2000/svg" xmlns:xlink="http://www.w3.org/1999/xlink">
<g id="graph0" class="graph" transform="scale(1 1) rotate(0) translate(4 97)">
<title>Internal Communication</title>
<!-- Node2 -->
<g id="Node000002" class="node">
<title>Node2</title>
<g id="a_Node000002"><a xlink:href="group__data__channels.html" target="_top" xlink:title="A templated class that manages multiple data channels with queue&#45;like behavior.">
<polygon fill="white" stroke="#666666" points="258,-93 170,-93 170,-74 258,-74 258,-93"/>
<text text-anchor="middle" x="214" y="-81" font-family="Helvetica,sans-Serif" font-size="10.00">Data Channels</text>
</a>
</g>
</g>
<!-- Node1 -->
<g id="Node000001" class="node">
<title>Node1</title>
<g id="a_Node000001"><a xlink:title="Event&#45;driven communication module for component interactions.">
<polygon fill="#999999" stroke="#666666" points="134,-56 0,-56 0,-37 134,-37 134,-56"/>
<text text-anchor="middle" x="67" y="-44" font-family="Helvetica,sans-Serif" font-size="10.00">Internal Communication</text>
</a>
</g>
</g>
<!-- Node1&#45;&gt;Node2 -->
<g id="edge1" class="edge">
<title>Node1&#45;&gt;Node2</title>
<path fill="none" stroke="black" d="M115.27,-58.56C134.81,-63.55 157.15,-69.25 175.53,-73.94"/>
<polygon fill="black" stroke="black" points="115.9,-55.11 105.34,-56.03 114.17,-61.89 115.9,-55.11"/>
</g>
<!-- Node4 -->
<g id="Node000004" class="node">
<title>Node4</title>
<g id="a_Node000004"><a xlink:href="group__event__bus__entity.html" target="_top" xlink:title="Entity that can connect to and interact with EventBus instances.">
<polygon fill="white" stroke="#666666" points="252,-56 176,-56 176,-37 252,-37 252,-56"/>
<text text-anchor="middle" x="214" y="-44" font-family="Helvetica,sans-Serif" font-size="10.00">Event Entity</text>
</a>
</g>
</g>
<!-- Node1&#45;&gt;Node4 -->
<g id="edge3" class="edge">
<title>Node1&#45;&gt;Node4</title>
<path fill="none" stroke="black" d="M144.24,-46.5C155.25,-46.5 166.14,-46.5 175.89,-46.5"/>
<polygon fill="black" stroke="black" points="144.14,-43 134.14,-46.5 144.14,-50 144.14,-43"/>
</g>
<!-- Node3 -->
<g id="Node000003" class="node">
<title>Node3</title>
<g id="a_Node000003"><a xlink:href="group__event__bus__main.html" target="_top" xlink:title="The EventBus is a central communication hub for event&#45;driven architecture.">
<polygon fill="white" stroke="#666666" points="246.5,-19 181.5,-19 181.5,0 246.5,0 246.5,-19"/>
<text text-anchor="middle" x="214" y="-7" font-family="Helvetica,sans-Serif" font-size="10.00">Event Bus</text>
</a>
</g>
</g>
<!-- Node1&#45;&gt;Node3 -->
<g id="edge2" class="edge">
<title>Node1&#45;&gt;Node3</title>
<path fill="none" stroke="black" d="M115.31,-34.43C136.9,-28.92 161.89,-22.54 181.19,-17.62"/>
<polygon fill="black" stroke="black" points="114.17,-31.11 105.34,-36.97 115.9,-37.89 114.17,-31.11"/>
</g>
</g>
</svg>
