<?xml version="1.0" encoding="UTF-8" standalone="no"?>
<!DOCTYPE svg PUBLIC "-//W3C//DTD SVG 1.1//EN"
 "http://www.w3.org/Graphics/SVG/1.1/DTD/svg11.dtd">
<!-- Generated by graphviz version 2.43.0 (0)
 -->
<!-- Title: Network Events Pages: 1 -->
<svg width="331pt" height="305pt"
 viewBox="0.00 0.00 331.00 305.00" xmlns="http://www.w3.org/2000/svg" xmlns:xlink="http://www.w3.org/1999/xlink">
<g id="graph0" class="graph" transform="scale(1 1) rotate(0) translate(4 301)">
<title>Network Events</title>
<!-- Node5 -->
<g id="Node000005" class="node">
<title>Node5</title>
<g id="a_Node000005"><a xlink:href="group__captive__portal.html" target="_top" xlink:title=" ">
<polygon fill="white" stroke="#666666" points="301.5,-297 215.5,-297 215.5,-278 301.5,-278 301.5,-297"/>
<text text-anchor="middle" x="258.5" y="-285" font-family="Helvetica,sans-Serif" font-size="10.00">Captive Portal</text>
</a>
</g>
</g>
<!-- Node2 -->
<g id="Node000002" class="node">
<title>Node2</title>
<g id="a_Node000002"><a xlink:href="group__date__events.html" target="_top" xlink:title=" ">
<polygon fill="white" stroke="#666666" points="296.5,-253 220.5,-253 220.5,-234 296.5,-234 296.5,-253"/>
<text text-anchor="middle" x="258.5" y="-241" font-family="Helvetica,sans-Serif" font-size="10.00">Date Events</text>
</a>
</g>
</g>
<!-- Node9 -->
<g id="Node000009" class="node">
<title>Node9</title>
<g id="a_Node000009"><a xlink:href="group__json.html" target="_top" xlink:title="Lightweight JSON generation utilities for Uniot devices.">
<polygon fill="white" stroke="#666666" points="279,-216 238,-216 238,-197 279,-197 279,-216"/>
<text text-anchor="middle" x="258.5" y="-204" font-family="Helvetica,sans-Serif" font-size="10.00">JSON</text>
</a>
</g>
</g>
<!-- Node3 -->
<g id="Node000003" class="node">
<title>Node3</title>
<g id="a_Node000003"><a xlink:href="group__lisp__events.html" target="_top" xlink:title=" ">
<polygon fill="white" stroke="#666666" points="294.5,-172 222.5,-172 222.5,-153 294.5,-153 294.5,-172"/>
<text text-anchor="middle" x="258.5" y="-160" font-family="Helvetica,sans-Serif" font-size="10.00">Lisp Events</text>
</a>
</g>
</g>
<!-- Node4 -->
<g id="Node000004" class="node">
<title>Node4</title>
<g id="a_Node000004"><a xlink:href="group__mqtt__events.html" target="_top" xlink:title=" ">
<polygon fill="white" stroke="#666666" points="299,-130 218,-130 218,-111 299,-111 299,-130"/>
<text text-anchor="middle" x="258.5" y="-118" font-family="Helvetica,sans-Serif" font-size="10.00">MQTT Events</text>
</a>
</g>
</g>
<!-- Node6 -->
<g id="Node000006" class="node">
<title>Node6</title>
<g id="a_Node000006"><a xlink:href="group__network__controller.html" target="_top" xlink:title=" ">
<polygon fill="white" stroke="#666666" points="313,-93 204,-93 204,-74 313,-74 313,-93"/>
<text text-anchor="middle" x="258.5" y="-81" font-family="Helvetica,sans-Serif" font-size="10.00">Network Controller</text>
</a>
</g>
</g>
<!-- Node1 -->
<g id="Node000001" class="node">
<title>Node1</title>
<g id="a_Node000001"><a xlink:title=" ">
<polygon fill="#999999" stroke="#666666" points="94,-149 0,-149 0,-130 94,-130 94,-149"/>
<text text-anchor="middle" x="47" y="-137" font-family="Helvetica,sans-Serif" font-size="10.00">Network Events</text>
</a>
</g>
</g>
<!-- Node1&#45;&gt;Node5 -->
<g id="edge4" class="edge">
<title>Node1&#45;&gt;Node5</title>
<path fill="none" stroke="blueviolet" stroke-dasharray="5,2" d="M50.17,-149.05C55.91,-171.94 73.72,-230.17 112,-258.5 141.82,-280.56 184.13,-286.98 215.44,-288.37"/>
<text text-anchor="middle" x="144" y="-286.5" font-family="Helvetica,sans-Serif" font-size="10.00">uniot</text>
</g>
<!-- Node1&#45;&gt;Node2 -->
<g id="edge1" class="edge">
<title>Node1&#45;&gt;Node2</title>
<path fill="none" stroke="blueviolet" stroke-dasharray="5,2" d="M53.77,-149.02C63.65,-164.48 85.37,-194.89 112,-210.5 145.41,-230.08 189.42,-238.05 220.25,-241.28"/>
<text text-anchor="middle" x="144" y="-246.5" font-family="Helvetica,sans-Serif" font-size="10.00">uniot</text>
<text text-anchor="middle" x="144" y="-235.5" font-family="Helvetica,sans-Serif" font-size="10.00">uniot::events</text>
</g>
<!-- Node1&#45;&gt;Node9 -->
<g id="edge8" class="edge">
<title>Node1&#45;&gt;Node9</title>
<path fill="none" stroke="blueviolet" stroke-dasharray="5,2" d="M60.53,-149.01C72.94,-157.97 92.82,-171.09 112,-178.5 154.95,-195.1 208.97,-202.17 237.59,-204.93"/>
<text text-anchor="middle" x="144" y="-198.5" font-family="Helvetica,sans-Serif" font-size="10.00">uniot</text>
</g>
<!-- Node1&#45;&gt;Node3 -->
<g id="edge2" class="edge">
<title>Node1&#45;&gt;Node3</title>
<path fill="none" stroke="blueviolet" stroke-dasharray="5,2" d="M94.24,-144.58C132.92,-148.82 187.27,-154.79 222.44,-158.65"/>
<text text-anchor="middle" x="144" y="-166.5" font-family="Helvetica,sans-Serif" font-size="10.00">uniot</text>
<text text-anchor="middle" x="144" y="-155.5" font-family="Helvetica,sans-Serif" font-size="10.00">uniot::events</text>
</g>
<!-- Node1&#45;&gt;Node4 -->
<g id="edge3" class="edge">
<title>Node1&#45;&gt;Node4</title>
<path fill="none" stroke="blueviolet" stroke-dasharray="5,2" d="M71.26,-129.89C83.21,-125.47 98.14,-120.72 112,-118.5 147.42,-112.84 188.32,-114.07 217.71,-116.29"/>
<text text-anchor="middle" x="144" y="-132.5" font-family="Helvetica,sans-Serif" font-size="10.00">uniot</text>
<text text-anchor="middle" x="144" y="-121.5" font-family="Helvetica,sans-Serif" font-size="10.00">uniot::events</text>
</g>
<!-- Node1&#45;&gt;Node6 -->
<g id="edge5" class="edge">
<title>Node1&#45;&gt;Node6</title>
<path fill="none" stroke="blueviolet" stroke-dasharray="5,2" d="M59.39,-129.83C71.55,-120.1 91.82,-105.55 112,-98.5 141.25,-88.28 175.66,-84.39 203.68,-83.12"/>
<text text-anchor="middle" x="144" y="-101.5" font-family="Helvetica,sans-Serif" font-size="10.00">uniot</text>
</g>
<!-- Node7 -->
<g id="Node000007" class="node">
<title>Node7</title>
<g id="a_Node000007"><a xlink:href="group__network__scheduler.html" target="_top" xlink:title=" ">
<polygon fill="white" stroke="#666666" points="313,-56 204,-56 204,-37 313,-37 313,-56"/>
<text text-anchor="middle" x="258.5" y="-44" font-family="Helvetica,sans-Serif" font-size="10.00">Network Scheduler</text>
</a>
</g>
</g>
<!-- Node1&#45;&gt;Node7 -->
<g id="edge6" class="edge">
<title>Node1&#45;&gt;Node7</title>
<path fill="none" stroke="blueviolet" stroke-dasharray="5,2" d="M53.69,-129.92C63.46,-114.39 85.03,-84.01 112,-69.5 140.04,-54.42 175.22,-48.57 203.96,-46.53"/>
<text text-anchor="middle" x="144" y="-72.5" font-family="Helvetica,sans-Serif" font-size="10.00">uniot</text>
</g>
<!-- Node8 -->
<g id="Node000008" class="node">
<title>Node8</title>
<g id="a_Node000008"><a xlink:href="group__wifi__scan.html" target="_top" xlink:title=" ">
<polygon fill="white" stroke="#666666" points="323,-19 194,-19 194,0 323,0 323,-19"/>
<text text-anchor="middle" x="258.5" y="-7" font-family="Helvetica,sans-Serif" font-size="10.00">WiFi Network Scanning</text>
</a>
</g>
</g>
<!-- Node1&#45;&gt;Node8 -->
<g id="edge7" class="edge">
<title>Node1&#45;&gt;Node8</title>
<path fill="none" stroke="blueviolet" stroke-dasharray="5,2" d="M50.88,-129.75C57.68,-108.58 76.86,-58.38 112,-34.5 135.74,-18.37 166.56,-11.57 193.72,-9.02"/>
<text text-anchor="middle" x="144" y="-37.5" font-family="Helvetica,sans-Serif" font-size="10.00">uniot</text>
</g>
</g>
</svg>
