<?xml version="1.0" encoding="UTF-8" standalone="no"?>
<!DOCTYPE svg PUBLIC "-//W3C//DTD SVG 1.1//EN"
 "http://www.w3.org/Graphics/SVG/1.1/DTD/svg11.dtd">
<!-- Generated by graphviz version 2.43.0 (0)
 -->
<!-- Title: Named Registers Pages: 1 -->
<svg width="279pt" height="212pt"
 viewBox="0.00 0.00 279.00 212.00" xmlns="http://www.w3.org/2000/svg" xmlns:xlink="http://www.w3.org/1999/xlink">
<g id="graph0" class="graph" transform="scale(1 1) rotate(0) translate(4 208)">
<title>Named Registers</title>
<!-- Node1 -->
<g id="Node000001" class="node">
<title>Node1</title>
<g id="a_Node000001"><a xlink:title="Named registers for storing and managing collections of values.">
<polygon fill="#999999" stroke="#666666" points="101,-111 0,-111 0,-92 101,-92 101,-111"/>
<text text-anchor="middle" x="50.5" y="-99" font-family="Helvetica,sans-Serif" font-size="10.00">Named Registers</text>
</a>
</g>
</g>
<!-- Node2 -->
<g id="Node000002" class="node">
<title>Node2</title>
<g id="a_Node000002"><a xlink:href="group__registers__gpio__register.html" target="_top" xlink:title="Specialized GpioRegister class for GPIO pin management.">
<polygon fill="white" stroke="#666666" points="246,-204 162,-204 162,-185 246,-185 246,-204"/>
<text text-anchor="middle" x="204" y="-192" font-family="Helvetica,sans-Serif" font-size="10.00">GPIO Register</text>
</a>
</g>
</g>
<!-- Node1&#45;&gt;Node2 -->
<g id="edge1" class="edge">
<title>Node1&#45;&gt;Node2</title>
<path fill="none" stroke="black" d="M66.6,-118.7C82.5,-135.76 109.05,-161.48 137,-176.5 144.64,-180.6 153.29,-183.83 161.75,-186.35"/>
<polygon fill="black" stroke="black" points="69.01,-116.14 59.7,-111.1 63.83,-120.85 69.01,-116.14"/>
</g>
<!-- Node6 -->
<g id="Node000006" class="node">
<title>Node6</title>
<g id="a_Node000006"><a xlink:href="group__registers__manager.html" target="_top" xlink:title="Manages GPIO and Object registers.">
<polygon fill="white" stroke="#666666" points="255.5,-167 152.5,-167 152.5,-148 255.5,-148 255.5,-167"/>
<text text-anchor="middle" x="204" y="-155" font-family="Helvetica,sans-Serif" font-size="10.00">Register Manager</text>
</a>
</g>
</g>
<!-- Node1&#45;&gt;Node6 -->
<g id="edge5" class="edge">
<title>Node1&#45;&gt;Node6</title>
<path fill="none" stroke="black" d="M79.92,-115.44C96.35,-123.16 117.56,-132.57 137,-139.5 145.61,-142.57 155.02,-145.42 163.96,-147.91"/>
<polygon fill="black" stroke="black" points="81.38,-112.26 70.85,-111.12 78.37,-118.58 81.38,-112.26"/>
</g>
<!-- Node3 -->
<g id="Node000003" class="node">
<title>Node3</title>
<g id="a_Node000003"><a xlink:href="group__registers__object__register.html" target="_top" xlink:title="A registry system for managing object references by name.">
<polygon fill="white" stroke="#666666" points="250,-130 158,-130 158,-111 250,-111 250,-130"/>
<text text-anchor="middle" x="204" y="-118" font-family="Helvetica,sans-Serif" font-size="10.00">Object Register</text>
</a>
</g>
</g>
<!-- Node1&#45;&gt;Node3 -->
<g id="edge2" class="edge">
<title>Node1&#45;&gt;Node3</title>
<path fill="none" stroke="black" d="M111.16,-108.98C126.72,-110.93 143.23,-113 157.89,-114.84"/>
<polygon fill="black" stroke="black" points="111.46,-105.49 101.11,-107.72 110.59,-112.44 111.46,-105.49"/>
</g>
<!-- Node4 -->
<g id="Node000004" class="node">
<title>Node4</title>
<g id="a_Node000004"><a xlink:href="group__registers__object__register__record.html" target="_top" xlink:title="Base class for objects that can be registered in the ObjectRegister.">
<polygon fill="white" stroke="#666666" points="268,-93 140,-93 140,-74 268,-74 268,-93"/>
<text text-anchor="middle" x="204" y="-81" font-family="Helvetica,sans-Serif" font-size="10.00">Object Register Record</text>
</a>
</g>
</g>
<!-- Node1&#45;&gt;Node4 -->
<g id="edge3" class="edge">
<title>Node1&#45;&gt;Node4</title>
<path fill="none" stroke="black" d="M111.13,-94.41C120.53,-93.3 130.27,-92.14 139.74,-91.02"/>
<polygon fill="black" stroke="black" points="110.62,-90.95 101.11,-95.61 111.45,-97.9 110.62,-90.95"/>
</g>
<!-- Node7 -->
<g id="Node000007" class="node">
<title>Node7</title>
<g id="a_Node000007"><a xlink:href="group__registers__proxy.html" target="_top" xlink:title="Proxy class for RegisterManager that provides scoped access to a named register.">
<polygon fill="white" stroke="#666666" points="271,-56 137,-56 137,-37 271,-37 271,-56"/>
<text text-anchor="middle" x="204" y="-44" font-family="Helvetica,sans-Serif" font-size="10.00">Register Manager Proxy</text>
</a>
</g>
</g>
<!-- Node1&#45;&gt;Node7 -->
<g id="edge6" class="edge">
<title>Node1&#45;&gt;Node7</title>
<path fill="none" stroke="black" d="M81.8,-87.71C98,-80.6 118.39,-72.07 137,-65.5 146.56,-62.13 157.04,-58.9 166.79,-56.09"/>
<polygon fill="black" stroke="black" points="80.03,-84.67 72.31,-91.92 82.87,-91.06 80.03,-84.67"/>
</g>
<!-- Node5 -->
<g id="Node000005" class="node">
<title>Node5</title>
<g id="a_Node000005"><a xlink:href="group__registers__register.html" target="_top" xlink:title="A generalized Register class template that stores named collections of typed values.">
<polygon fill="white" stroke="#666666" points="232.5,-19 175.5,-19 175.5,0 232.5,0 232.5,-19"/>
<text text-anchor="middle" x="204" y="-7" font-family="Helvetica,sans-Serif" font-size="10.00">Register</text>
</a>
</g>
</g>
<!-- Node1&#45;&gt;Node5 -->
<g id="edge4" class="edge">
<title>Node1&#45;&gt;Node5</title>
<path fill="none" stroke="black" d="M67,-84.59C83.03,-68.06 109.52,-43.28 137,-28.5 148.87,-22.12 163.12,-17.67 175.33,-14.69"/>
<polygon fill="black" stroke="black" points="64.35,-82.3 60.01,-91.97 69.43,-87.12 64.35,-82.3"/>
</g>
</g>
</svg>
