<?xml version="1.0" encoding="UTF-8" standalone="no"?>
<!DOCTYPE svg PUBLIC "-//W3C//DTD SVG 1.1//EN"
 "http://www.w3.org/Graphics/SVG/1.1/DTD/svg11.dtd">
<!-- Generated by graphviz version 2.43.0 (0)
 -->
<!-- Title: WiFi Network Scanning Pages: 1 -->
<svg width="307pt" height="286pt"
 viewBox="0.00 0.00 307.00 286.00" xmlns="http://www.w3.org/2000/svg" xmlns:xlink="http://www.w3.org/1999/xlink">
<g id="graph0" class="graph" transform="scale(1 1) rotate(0) translate(4 282)">
<title>WiFi Network Scanning</title>
<!-- Node5 -->
<g id="Node000005" class="node">
<title>Node5</title>
<g id="a_Node000005"><a xlink:href="group__captive__portal.html" target="_top" xlink:title=" ">
<polygon fill="white" stroke="#666666" points="287.5,-278 201.5,-278 201.5,-259 287.5,-259 287.5,-278"/>
<text text-anchor="middle" x="244.5" y="-266" font-family="Helvetica,sans-Serif" font-size="10.00">Captive Portal</text>
</a>
</g>
</g>
<!-- Node2 -->
<g id="Node000002" class="node">
<title>Node2</title>
<g id="a_Node000002"><a xlink:href="group__date__events.html" target="_top" xlink:title=" ">
<polygon fill="white" stroke="#666666" points="282.5,-241 206.5,-241 206.5,-222 282.5,-222 282.5,-241"/>
<text text-anchor="middle" x="244.5" y="-229" font-family="Helvetica,sans-Serif" font-size="10.00">Date Events</text>
</a>
</g>
</g>
<!-- Node9 -->
<g id="Node000009" class="node">
<title>Node9</title>
<g id="a_Node000009"><a xlink:href="group__json.html" target="_top" xlink:title="Lightweight JSON generation utilities for Uniot devices.">
<polygon fill="white" stroke="#666666" points="265,-204 224,-204 224,-185 265,-185 265,-204"/>
<text text-anchor="middle" x="244.5" y="-192" font-family="Helvetica,sans-Serif" font-size="10.00">JSON</text>
</a>
</g>
</g>
<!-- Node3 -->
<g id="Node000003" class="node">
<title>Node3</title>
<g id="a_Node000003"><a xlink:href="group__lisp__events.html" target="_top" xlink:title=" ">
<polygon fill="white" stroke="#666666" points="280.5,-167 208.5,-167 208.5,-148 280.5,-148 280.5,-167"/>
<text text-anchor="middle" x="244.5" y="-155" font-family="Helvetica,sans-Serif" font-size="10.00">Lisp Events</text>
</a>
</g>
</g>
<!-- Node4 -->
<g id="Node000004" class="node">
<title>Node4</title>
<g id="a_Node000004"><a xlink:href="group__mqtt__events.html" target="_top" xlink:title=" ">
<polygon fill="white" stroke="#666666" points="285,-130 204,-130 204,-111 285,-111 285,-130"/>
<text text-anchor="middle" x="244.5" y="-118" font-family="Helvetica,sans-Serif" font-size="10.00">MQTT Events</text>
</a>
</g>
</g>
<!-- Node6 -->
<g id="Node000006" class="node">
<title>Node6</title>
<g id="a_Node000006"><a xlink:href="group__network__controller.html" target="_top" xlink:title=" ">
<polygon fill="white" stroke="#666666" points="299,-93 190,-93 190,-74 299,-74 299,-93"/>
<text text-anchor="middle" x="244.5" y="-81" font-family="Helvetica,sans-Serif" font-size="10.00">Network Controller</text>
</a>
</g>
</g>
<!-- Node7 -->
<g id="Node000007" class="node">
<title>Node7</title>
<g id="a_Node000007"><a xlink:href="group__network__events.html" target="_top" xlink:title=" ">
<polygon fill="white" stroke="#666666" points="291.5,-56 197.5,-56 197.5,-37 291.5,-37 291.5,-56"/>
<text text-anchor="middle" x="244.5" y="-44" font-family="Helvetica,sans-Serif" font-size="10.00">Network Events</text>
</a>
</g>
</g>
<!-- Node8 -->
<g id="Node000008" class="node">
<title>Node8</title>
<g id="a_Node000008"><a xlink:href="group__network__scheduler.html" target="_top" xlink:title=" ">
<polygon fill="white" stroke="#666666" points="299,-19 190,-19 190,0 299,0 299,-19"/>
<text text-anchor="middle" x="244.5" y="-7" font-family="Helvetica,sans-Serif" font-size="10.00">Network Scheduler</text>
</a>
</g>
</g>
<!-- Node1 -->
<g id="Node000001" class="node">
<title>Node1</title>
<g id="a_Node000001"><a xlink:title=" ">
<polygon fill="#999999" stroke="#666666" points="129,-148 0,-148 0,-129 129,-129 129,-148"/>
<text text-anchor="middle" x="64.5" y="-136" font-family="Helvetica,sans-Serif" font-size="10.00">WiFi Network Scanning</text>
</a>
</g>
</g>
<!-- Node1&#45;&gt;Node5 -->
<g id="edge4" class="edge">
<title>Node1&#45;&gt;Node5</title>
<path fill="none" stroke="blueviolet" stroke-dasharray="5,2" d="M73.4,-148.31C91.56,-170.18 138.68,-223.16 190,-250.5 196.05,-253.73 202.8,-256.53 209.4,-258.91"/>
<text text-anchor="middle" x="159.5" y="-241.5" font-family="Helvetica,sans-Serif" font-size="10.00">uniot</text>
</g>
<!-- Node1&#45;&gt;Node2 -->
<g id="edge1" class="edge">
<title>Node1&#45;&gt;Node2</title>
<path fill="none" stroke="blueviolet" stroke-dasharray="5,2" d="M79.14,-148.08C101.48,-163.46 147.63,-193.9 190,-213.5 196.76,-216.63 204.22,-219.48 211.37,-221.96"/>
<text text-anchor="middle" x="159.5" y="-205.5" font-family="Helvetica,sans-Serif" font-size="10.00">uniot</text>
</g>
<!-- Node1&#45;&gt;Node9 -->
<g id="edge8" class="edge">
<title>Node1&#45;&gt;Node9</title>
<path fill="none" stroke="blueviolet" stroke-dasharray="5,2" d="M95.29,-148.06C110.71,-153 129.86,-159.1 147,-164.5 173.61,-172.88 204.39,-182.42 223.9,-188.45"/>
<text text-anchor="middle" x="159.5" y="-174.5" font-family="Helvetica,sans-Serif" font-size="10.00">uniot</text>
</g>
<!-- Node1&#45;&gt;Node3 -->
<g id="edge2" class="edge">
<title>Node1&#45;&gt;Node3</title>
<path fill="none" stroke="blueviolet" stroke-dasharray="5,2" d="M129.01,-145.28C155.67,-148.12 185.66,-151.33 208.25,-153.74"/>
<text text-anchor="middle" x="159.5" y="-152.5" font-family="Helvetica,sans-Serif" font-size="10.00">uniot</text>
</g>
<!-- Node1&#45;&gt;Node4 -->
<g id="edge3" class="edge">
<title>Node1&#45;&gt;Node4</title>
<path fill="none" stroke="blueviolet" stroke-dasharray="5,2" d="M114.92,-128.96C125.47,-127.22 136.58,-125.61 147,-124.5 165.68,-122.52 186.48,-121.5 203.98,-120.99"/>
<text text-anchor="middle" x="159.5" y="-127.5" font-family="Helvetica,sans-Serif" font-size="10.00">uniot</text>
</g>
<!-- Node1&#45;&gt;Node6 -->
<g id="edge5" class="edge">
<title>Node1&#45;&gt;Node6</title>
<path fill="none" stroke="blueviolet" stroke-dasharray="5,2" d="M88.43,-128.94C104.62,-122.39 126.92,-113.79 147,-107.5 164.3,-102.08 183.64,-97.07 200.44,-93.04"/>
<text text-anchor="middle" x="159.5" y="-110.5" font-family="Helvetica,sans-Serif" font-size="10.00">uniot</text>
</g>
<!-- Node1&#45;&gt;Node7 -->
<g id="edge6" class="edge">
<title>Node1&#45;&gt;Node7</title>
<path fill="none" stroke="blueviolet" stroke-dasharray="5,2" d="M78.98,-128.89C94.85,-117.77 122.2,-99.24 147,-85.5 165.44,-75.28 170.49,-73.48 190,-65.5 198.03,-62.22 206.86,-58.94 214.99,-56.07"/>
<text text-anchor="middle" x="159.5" y="-88.5" font-family="Helvetica,sans-Serif" font-size="10.00">uniot</text>
</g>
<!-- Node1&#45;&gt;Node8 -->
<g id="edge7" class="edge">
<title>Node1&#45;&gt;Node8</title>
<path fill="none" stroke="blueviolet" stroke-dasharray="5,2" d="M73.37,-128.74C91.48,-107.01 138.5,-54.49 190,-28.5 197.04,-24.95 204.9,-21.76 212.39,-19.06"/>
<text text-anchor="middle" x="159.5" y="-57.5" font-family="Helvetica,sans-Serif" font-size="10.00">uniot</text>
</g>
</g>
</svg>
