<?xml version="1.0" encoding="UTF-8" standalone="no"?>
<!DOCTYPE svg PUBLIC "-//W3C//DTD SVG 1.1//EN"
 "http://www.w3.org/Graphics/SVG/1.1/DTD/svg11.dtd">
<!-- Generated by graphviz version 2.43.0 (0)
 -->
<!-- Title: Task Pages: 1 -->
<svg width="296pt" height="64pt"
 viewBox="0.00 0.00 296.00 64.00" xmlns="http://www.w3.org/2000/svg" xmlns:xlink="http://www.w3.org/1999/xlink">
<g id="graph0" class="graph" transform="scale(1 1) rotate(0) translate(4 60)">
<title>Task</title>
<!-- Node1 -->
<g id="Node000001" class="node">
<title>Node1</title>
<g id="a_Node000001"><a xlink:title="Task implementation for the Uniot scheduler system.">
<polygon fill="#999999" stroke="#666666" points="169,-37 131,-37 131,-18 169,-18 169,-37"/>
<text text-anchor="middle" x="150" y="-25" font-family="Helvetica,sans-Serif" font-size="10.00">Task</text>
</a>
</g>
</g>
<!-- Node3 -->
<g id="Node000003" class="node">
<title>Node3</title>
<g id="a_Node000003"><a xlink:href="group__scheduler__task__esp32.html" target="_top" xlink:title="ESP32&#45;specific task implementation for the Uniot Core.">
<polygon fill="white" stroke="#666666" points="282,-56 211,-56 211,-37 282,-37 282,-56"/>
<text text-anchor="middle" x="246.5" y="-44" font-family="Helvetica,sans-Serif" font-size="10.00">ESP32 Task</text>
</a>
</g>
</g>
<!-- Node1&#45;&gt;Node3 -->
<g id="edge2" class="edge">
<title>Node1&#45;&gt;Node3</title>
<path fill="none" stroke="black" d="M179.04,-33.14C189.03,-35.15 200.4,-37.43 210.88,-39.54"/>
<polygon fill="black" stroke="black" points="179.71,-29.7 169.22,-31.16 178.33,-36.57 179.71,-29.7"/>
</g>
<!-- Node4 -->
<g id="Node000004" class="node">
<title>Node4</title>
<g id="a_Node000004"><a xlink:href="group__scheduler__task__esp8266.html" target="_top" xlink:title="ESP8266&#45;specific task implementation for the Uniot Core.">
<polygon fill="white" stroke="#666666" points="288,-19 205,-19 205,0 288,0 288,-19"/>
<text text-anchor="middle" x="246.5" y="-7" font-family="Helvetica,sans-Serif" font-size="10.00">ESP8266 Task</text>
</a>
</g>
</g>
<!-- Node1&#45;&gt;Node4 -->
<g id="edge3" class="edge">
<title>Node1&#45;&gt;Node4</title>
<path fill="none" stroke="black" d="M179.14,-22.14C187.15,-20.61 196.04,-18.92 204.63,-17.28"/>
<polygon fill="black" stroke="black" points="178.39,-18.72 169.22,-24.03 179.7,-25.6 178.39,-18.72"/>
</g>
<!-- Node2 -->
<g id="Node000002" class="node">
<title>Node2</title>
<g id="a_Node000002"><a xlink:href="group__scheduling.html" target="_top" xlink:title="Task scheduling system for the Uniot Core.">
<polygon fill="white" stroke="#666666" points="95,-37 0,-37 0,-18 95,-18 95,-37"/>
<text text-anchor="middle" x="47.5" y="-25" font-family="Helvetica,sans-Serif" font-size="10.00">Task Scheduling</text>
</a>
</g>
</g>
<!-- Node2&#45;&gt;Node1 -->
<g id="edge1" class="edge">
<title>Node2&#45;&gt;Node1</title>
<path fill="none" stroke="black" d="M105.35,-27.5C114.64,-27.5 123.61,-27.5 130.99,-27.5"/>
<polygon fill="black" stroke="black" points="105.22,-24 95.22,-27.5 105.22,-31 105.22,-24"/>
</g>
</g>
</svg>
