<?xml version="1.0" encoding="UTF-8" standalone="no"?>
<!DOCTYPE svg PUBLIC "-//W3C//DTD SVG 1.1//EN"
 "http://www.w3.org/Graphics/SVG/1.1/DTD/svg11.dtd">
<!-- Generated by graphviz version 2.43.0 (0)
 -->
<!-- Title: Event Bus Pages: 1 -->
<svg width="367pt" height="27pt"
 viewBox="0.00 0.00 367.00 27.00" xmlns="http://www.w3.org/2000/svg" xmlns:xlink="http://www.w3.org/1999/xlink">
<g id="graph0" class="graph" transform="scale(1 1) rotate(0) translate(4 23)">
<title>Event Bus</title>
<!-- Node2 -->
<g id="Node000002" class="node">
<title>Node2</title>
<g id="a_Node000002"><a xlink:href="group__event__bus.html" target="_top" xlink:title="Event&#45;driven communication module for component interactions.">
<polygon fill="white" stroke="#666666" points="134,-19 0,-19 0,0 134,0 134,-19"/>
<text text-anchor="middle" x="67" y="-7" font-family="Helvetica,sans-Serif" font-size="10.00">Internal Communication</text>
</a>
</g>
</g>
<!-- Node1 -->
<g id="Node000001" class="node">
<title>Node1</title>
<g id="a_Node000001"><a xlink:title="The EventBus is a central communication hub for event&#45;driven architecture.">
<polygon fill="#999999" stroke="#666666" points="235,-19 170,-19 170,0 235,0 235,-19"/>
<text text-anchor="middle" x="202.5" y="-7" font-family="Helvetica,sans-Serif" font-size="10.00">Event Bus</text>
</a>
</g>
</g>
<!-- Node2&#45;&gt;Node1 -->
<g id="edge1" class="edge">
<title>Node2&#45;&gt;Node1</title>
<path fill="none" stroke="black" d="M144.53,-9.5C153.47,-9.5 162.18,-9.5 169.99,-9.5"/>
<polygon fill="black" stroke="black" points="144.36,-6 134.36,-9.5 144.36,-13 144.36,-6"/>
</g>
<!-- Node3 -->
<g id="Node000003" class="node">
<title>Node3</title>
<g id="a_Node000003"><a xlink:href="group__event__bus__connectionkit.html" target="_top" xlink:title="Interface for components that need to connect to an EventBus.">
<polygon fill="white" stroke="#666666" points="359,-19 271,-19 271,0 359,0 359,-19"/>
<text text-anchor="middle" x="315" y="-7" font-family="Helvetica,sans-Serif" font-size="10.00">Connection Kit</text>
</a>
</g>
</g>
<!-- Node1&#45;&gt;Node3 -->
<g id="edge2" class="edge">
<title>Node1&#45;&gt;Node3</title>
<path fill="none" stroke="black" d="M245.4,-9.5C253.71,-9.5 262.45,-9.5 270.8,-9.5"/>
<polygon fill="black" stroke="black" points="245.16,-6 235.16,-9.5 245.16,-13 245.16,-6"/>
</g>
</g>
</svg>
