<?xml version="1.0" encoding="UTF-8" standalone="no"?>
<!DOCTYPE svg PUBLIC "-//W3C//DTD SVG 1.1//EN"
 "http://www.w3.org/Graphics/SVG/1.1/DTD/svg11.dtd">
<!-- Generated by graphviz version 2.43.0 (0)
 -->
<!-- Title: MQTT Communication Pages: 1 -->
<svg width="373pt" height="138pt"
 viewBox="0.00 0.00 373.00 138.00" xmlns="http://www.w3.org/2000/svg" xmlns:xlink="http://www.w3.org/1999/xlink">
<g id="graph0" class="graph" transform="scale(1 1) rotate(0) translate(4 134)">
<title>MQTT Communication</title>
<!-- Node3 -->
<g id="Node000003" class="node">
<title>Node3</title>
<g id="a_Node000003"><a xlink:href="group__callback__mqtt__device.html" target="_top" xlink:title="MQTT device implementation that delegates message handling to a callback function.">
<polygon fill="white" stroke="#666666" points="365,-130 270,-130 270,-111 365,-111 365,-130"/>
<text text-anchor="middle" x="317.5" y="-118" font-family="Helvetica,sans-Serif" font-size="10.00">Callback Device</text>
</a>
</g>
</g>
<!-- Node1 -->
<g id="Node000001" class="node">
<title>Node1</title>
<g id="a_Node000001"><a xlink:title=" ">
<polygon fill="#999999" stroke="#666666" points="234,-74 109,-74 109,-55 234,-55 234,-74"/>
<text text-anchor="middle" x="171.5" y="-62" font-family="Helvetica,sans-Serif" font-size="10.00">MQTT Communication</text>
</a>
</g>
</g>
<!-- Node1&#45;&gt;Node3 -->
<g id="edge2" class="edge">
<title>Node1&#45;&gt;Node3</title>
<path fill="none" stroke="black" d="M206.25,-77.68C225.02,-85 248.8,-94.27 270,-102.5 277.1,-105.26 284.81,-108.25 291.88,-110.98"/>
<polygon fill="black" stroke="black" points="207.52,-74.42 196.94,-74.04 204.98,-80.94 207.52,-74.42"/>
</g>
<!-- Node4 -->
<g id="Node000004" class="node">
<title>Node4</title>
<g id="a_Node000004"><a xlink:href="group__mqtt__device.html" target="_top" xlink:title="Base class for MQTT&#45;enabled devices in the Uniot ecosystem.">
<polygon fill="white" stroke="#666666" points="358.5,-93 276.5,-93 276.5,-74 358.5,-74 358.5,-93"/>
<text text-anchor="middle" x="317.5" y="-81" font-family="Helvetica,sans-Serif" font-size="10.00">MQTT Device</text>
</a>
</g>
</g>
<!-- Node1&#45;&gt;Node4 -->
<g id="edge3" class="edge">
<title>Node1&#45;&gt;Node4</title>
<path fill="none" stroke="black" d="M244.43,-73.99C255.38,-75.44 266.34,-76.88 276.28,-78.19"/>
<polygon fill="black" stroke="black" points="244.78,-70.51 234.4,-72.67 243.86,-77.45 244.78,-70.51"/>
</g>
<!-- Node5 -->
<g id="Node000005" class="node">
<title>Node5</title>
<g id="a_Node000005"><a xlink:href="group__mqtt__kit.html" target="_top" xlink:title="MQTT communication wrapper that manages devices and their subscriptions.">
<polygon fill="white" stroke="#666666" points="348.5,-56 286.5,-56 286.5,-37 348.5,-37 348.5,-56"/>
<text text-anchor="middle" x="317.5" y="-44" font-family="Helvetica,sans-Serif" font-size="10.00">MQTT Kit</text>
</a>
</g>
</g>
<!-- Node1&#45;&gt;Node5 -->
<g id="edge4" class="edge">
<title>Node1&#45;&gt;Node5</title>
<path fill="none" stroke="black" d="M244.58,-55.49C259.33,-53.65 274.07,-51.8 286.33,-50.27"/>
<polygon fill="black" stroke="black" points="243.89,-52.05 234.4,-56.76 244.76,-58.99 243.89,-52.05"/>
</g>
<!-- Node6 -->
<g id="Node000006" class="node">
<title>Node6</title>
<g id="a_Node000006"><a xlink:href="group__mqtt__path.html" target="_top" xlink:title="Utility class for generating standardized MQTT topic paths.">
<polygon fill="white" stroke="#666666" points="352,-19 283,-19 283,0 352,0 352,-19"/>
<text text-anchor="middle" x="317.5" y="-7" font-family="Helvetica,sans-Serif" font-size="10.00">MQTT Path</text>
</a>
</g>
</g>
<!-- Node1&#45;&gt;Node6 -->
<g id="edge5" class="edge">
<title>Node1&#45;&gt;Node6</title>
<path fill="none" stroke="black" d="M207.04,-51.31C232.96,-41.41 267.86,-28.08 291.22,-19.16"/>
<polygon fill="black" stroke="black" points="205.68,-48.08 197.58,-54.92 208.17,-54.62 205.68,-48.08"/>
</g>
<!-- Node2 -->
<g id="Node000002" class="node">
<title>Node2</title>
<g id="a_Node000002"><a xlink:href="group__networking.html" target="_top" xlink:title="Networking and communication classes for the Uniot project.">
<polygon fill="white" stroke="#666666" points="73,-74 0,-74 0,-55 73,-55 73,-74"/>
<text text-anchor="middle" x="36.5" y="-62" font-family="Helvetica,sans-Serif" font-size="10.00">Networking</text>
</a>
</g>
</g>
<!-- Node2&#45;&gt;Node1 -->
<g id="edge1" class="edge">
<title>Node2&#45;&gt;Node1</title>
<path fill="none" stroke="black" d="M83.28,-64.5C91.52,-64.5 100.23,-64.5 108.83,-64.5"/>
<polygon fill="black" stroke="black" points="83.14,-61 73.14,-64.5 83.14,-68 83.14,-61"/>
</g>
</g>
</svg>
