<?xml version="1.0" encoding="UTF-8" standalone="no"?>
<!DOCTYPE svg PUBLIC "-//W3C//DTD SVG 1.1//EN"
 "http://www.w3.org/Graphics/SVG/1.1/DTD/svg11.dtd">
<!-- Generated by graphviz version 2.43.0 (0)
 -->
<!-- Title: Application Kit Pages: 1 -->
<svg width="239pt" height="138pt"
 viewBox="0.00 0.00 239.00 138.00" xmlns="http://www.w3.org/2000/svg" xmlns:xlink="http://www.w3.org/1999/xlink">
<g id="graph0" class="graph" transform="scale(1 1) rotate(0) translate(4 134)">
<title>Application Kit</title>
<!-- Node1 -->
<g id="Node000001" class="node">
<title>Node1</title>
<g id="a_Node000001"><a xlink:title="Application Kit for Uniot Core.">
<polygon fill="#999999" stroke="#666666" points="88,-74 0,-74 0,-55 88,-55 88,-74"/>
<text text-anchor="middle" x="44" y="-62" font-family="Helvetica,sans-Serif" font-size="10.00">Application Kit</text>
</a>
</g>
</g>
<!-- Node3 -->
<g id="Node000003" class="node">
<title>Node3</title>
<g id="a_Node000003"><a xlink:href="group__app-kit-lisp-device.html" target="_top" xlink:title="A device class that integrates MQTT connectivity with unLisp scripting capabilities.">
<polygon fill="white" stroke="#666666" points="214,-130 141,-130 141,-111 214,-111 214,-130"/>
<text text-anchor="middle" x="177.5" y="-118" font-family="Helvetica,sans-Serif" font-size="10.00">Lisp Device</text>
</a>
</g>
</g>
<!-- Node1&#45;&gt;Node3 -->
<g id="edge2" class="edge">
<title>Node1&#45;&gt;Node3</title>
<path fill="none" stroke="black" d="M72.47,-78.7C87.5,-86.22 106.56,-95.34 124,-102.5 131.22,-105.46 139.13,-108.35 146.56,-110.92"/>
<polygon fill="black" stroke="black" points="73.74,-75.42 63.24,-74.03 70.58,-81.67 73.74,-75.42"/>
</g>
<!-- Node2 -->
<g id="Node000002" class="node">
<title>Node2</title>
<g id="a_Node000002"><a xlink:href="group__app-kit-main.html" target="_top" xlink:title="Main application toolkit that integrates various components of the Uniot system.">
<polygon fill="white" stroke="#666666" points="202,-93 153,-93 153,-74 202,-74 202,-93"/>
<text text-anchor="middle" x="177.5" y="-81" font-family="Helvetica,sans-Serif" font-size="10.00">AppKit</text>
</a>
</g>
</g>
<!-- Node1&#45;&gt;Node2 -->
<g id="edge1" class="edge">
<title>Node1&#45;&gt;Node2</title>
<path fill="none" stroke="black" d="M98.14,-72.18C117.17,-74.93 137.66,-77.89 152.91,-80.09"/>
<polygon fill="black" stroke="black" points="98.46,-68.69 88.06,-70.72 97.45,-75.62 98.46,-68.69"/>
</g>
<!-- Node4 -->
<g id="Node000004" class="node">
<title>Node4</title>
<g id="a_Node000004"><a xlink:href="group__app-kit-primitives.html" target="_top" xlink:title="Contains Lisp primitive functions for hardware interaction.">
<polygon fill="white" stroke="#666666" points="210.5,-56 144.5,-56 144.5,-37 210.5,-37 210.5,-56"/>
<text text-anchor="middle" x="177.5" y="-44" font-family="Helvetica,sans-Serif" font-size="10.00">Primitives</text>
</a>
</g>
</g>
<!-- Node1&#45;&gt;Node4 -->
<g id="edge3" class="edge">
<title>Node1&#45;&gt;Node4</title>
<path fill="none" stroke="black" d="M98.13,-57.23C113.73,-55.09 130.32,-52.82 144.19,-50.92"/>
<polygon fill="black" stroke="black" points="97.49,-53.78 88.06,-58.61 98.44,-60.72 97.49,-53.78"/>
</g>
<!-- Node5 -->
<g id="Node000005" class="node">
<title>Node5</title>
<g id="a_Node000005"><a xlink:href="group__app-kit-top-device.html" target="_top" xlink:title="Device class for system monitoring and diagnostics.">
<polygon fill="white" stroke="#666666" points="231,-19 124,-19 124,0 231,0 231,-19"/>
<text text-anchor="middle" x="177.5" y="-7" font-family="Helvetica,sans-Serif" font-size="10.00">Table of Processes</text>
</a>
</g>
</g>
<!-- Node1&#45;&gt;Node5 -->
<g id="edge4" class="edge">
<title>Node1&#45;&gt;Node5</title>
<path fill="none" stroke="black" d="M74.11,-50.56C88.92,-43.64 107.29,-35.32 124,-28.5 131.99,-25.24 140.77,-21.95 148.82,-19.05"/>
<polygon fill="black" stroke="black" points="72.49,-47.45 64.94,-54.88 75.48,-53.78 72.49,-47.45"/>
</g>
</g>
</svg>
