<?xml version="1.0" encoding="UTF-8" standalone="no"?>
<!DOCTYPE svg PUBLIC "-//W3C//DTD SVG 1.1//EN"
 "http://www.w3.org/Graphics/SVG/1.1/DTD/svg11.dtd">
<!-- Generated by graphviz version 2.43.0 (0)
 -->
<!-- Title: File System Storage Pages: 1 -->
<svg width="247pt" height="175pt"
 viewBox="0.00 0.00 247.00 175.00" xmlns="http://www.w3.org/2000/svg" xmlns:xlink="http://www.w3.org/1999/xlink">
<g id="graph0" class="graph" transform="scale(1 1) rotate(0) translate(4 171)">
<title>File System Storage</title>
<!-- Node1 -->
<g id="Node000001" class="node">
<title>Node1</title>
<g id="a_Node000001"><a xlink:title="File system storage management for Uniot devices.">
<polygon fill="#999999" stroke="#666666" points="114,-93 0,-93 0,-74 114,-74 114,-93"/>
<text text-anchor="middle" x="57" y="-81" font-family="Helvetica,sans-Serif" font-size="10.00">File System Storage</text>
</a>
</g>
</g>
<!-- Node5 -->
<g id="Node000005" class="node">
<title>Node5</title>
<g id="a_Node000005"><a xlink:href="group__fs__storage__base.html" target="_top" xlink:title="Manages data persistence to file system on ESP8266/ESP32 devices.">
<polygon fill="white" stroke="#666666" points="221.5,-167 167.5,-167 167.5,-148 221.5,-148 221.5,-167"/>
<text text-anchor="middle" x="194.5" y="-155" font-family="Helvetica,sans-Serif" font-size="10.00">Storage</text>
</a>
</g>
</g>
<!-- Node1&#45;&gt;Node5 -->
<g id="edge4" class="edge">
<title>Node1&#45;&gt;Node5</title>
<path fill="none" stroke="black" d="M80.77,-98.72C99.05,-110.61 125.61,-127.12 150,-139.5 155.83,-142.46 162.27,-145.33 168.36,-147.87"/>
<polygon fill="black" stroke="black" points="82.54,-95.7 72.26,-93.14 78.7,-101.55 82.54,-95.7"/>
</g>
<!-- Node2 -->
<g id="Node000002" class="node">
<title>Node2</title>
<g id="a_Node000002"><a xlink:href="group__fs__storage__cbor.html" target="_top" xlink:title="Storage implementation for CBOR formatted data.">
<polygon fill="white" stroke="#666666" points="237,-130 152,-130 152,-111 237,-111 237,-130"/>
<text text-anchor="middle" x="194.5" y="-118" font-family="Helvetica,sans-Serif" font-size="10.00">CBOR Storage</text>
</a>
</g>
</g>
<!-- Node1&#45;&gt;Node2 -->
<g id="edge1" class="edge">
<title>Node1&#45;&gt;Node2</title>
<path fill="none" stroke="black" d="M102.64,-95.69C120.71,-100.62 141.27,-106.24 158.25,-110.88"/>
<polygon fill="black" stroke="black" points="103.46,-92.29 92.89,-93.03 101.62,-99.04 103.46,-92.29"/>
</g>
<!-- Node3 -->
<g id="Node000003" class="node">
<title>Node3</title>
<g id="a_Node000003"><a xlink:href="group__fs__storage__crash.html" target="_top" xlink:title="Handles crash data storage and retrieval for ESP8266.">
<polygon fill="white" stroke="#666666" points="237,-93 152,-93 152,-74 237,-74 237,-93"/>
<text text-anchor="middle" x="194.5" y="-81" font-family="Helvetica,sans-Serif" font-size="10.00">Crash Storage</text>
</a>
</g>
</g>
<!-- Node1&#45;&gt;Node3 -->
<g id="edge2" class="edge">
<title>Node1&#45;&gt;Node3</title>
<path fill="none" stroke="black" d="M124.33,-83.5C133.64,-83.5 142.97,-83.5 151.64,-83.5"/>
<polygon fill="black" stroke="black" points="124.29,-80 114.29,-83.5 124.29,-87 124.29,-80"/>
</g>
<!-- Node6 -->
<g id="Node000006" class="node">
<title>Node6</title>
<g id="a_Node000006"><a xlink:href="group__fs__storage__wifi.html" target="_top" xlink:title="Storage class for WiFi credentials.">
<polygon fill="white" stroke="#666666" points="233.5,-56 155.5,-56 155.5,-37 233.5,-37 233.5,-56"/>
<text text-anchor="middle" x="194.5" y="-44" font-family="Helvetica,sans-Serif" font-size="10.00">WiFi Storage</text>
</a>
</g>
</g>
<!-- Node1&#45;&gt;Node6 -->
<g id="edge5" class="edge">
<title>Node1&#45;&gt;Node6</title>
<path fill="none" stroke="black" d="M102.64,-71.31C120.71,-66.38 141.27,-60.76 158.25,-56.12"/>
<polygon fill="black" stroke="black" points="101.62,-67.96 92.89,-73.97 103.46,-74.71 101.62,-67.96"/>
</g>
<!-- Node4 -->
<g id="Node000004" class="node">
<title>Node4</title>
<g id="a_Node000004"><a xlink:href="group__nvsfs__storage.html" target="_top" xlink:title="Experimental NVS&#45;based file system interface for ESP32 devices.">
<polygon fill="white" stroke="#666666" points="239,-19 150,-19 150,0 239,0 239,-19"/>
<text text-anchor="middle" x="194.5" y="-7" font-family="Helvetica,sans-Serif" font-size="10.00">NVSFS Storage</text>
</a>
</g>
</g>
<!-- Node1&#45;&gt;Node4 -->
<g id="edge3" class="edge">
<title>Node1&#45;&gt;Node4</title>
<path fill="none" stroke="black" d="M81.2,-68.51C99.52,-56.95 125.94,-40.88 150,-28.5 156.45,-25.18 163.6,-21.9 170.22,-19.02"/>
<polygon fill="black" stroke="black" points="79.21,-65.63 72.65,-73.95 82.96,-71.54 79.21,-65.63"/>
</g>
</g>
</svg>
