<?xml version="1.0" encoding="UTF-8" standalone="no"?>
<!DOCTYPE svg PUBLIC "-//W3C//DTD SVG 1.1//EN"
 "http://www.w3.org/Graphics/SVG/1.1/DTD/svg11.dtd">
<!-- Generated by graphviz version 2.43.0 (0)
 -->
<!-- Title: Network Controller Pages: 1 -->
<svg width="307pt" height="286pt"
 viewBox="0.00 0.00 307.00 286.00" xmlns="http://www.w3.org/2000/svg" xmlns:xlink="http://www.w3.org/1999/xlink">
<g id="graph0" class="graph" transform="scale(1 1) rotate(0) translate(4 282)">
<title>Network Controller</title>
<!-- Node5 -->
<g id="Node000005" class="node">
<title>Node5</title>
<g id="a_Node000005"><a xlink:href="group__captive__portal.html" target="_top" xlink:title=" ">
<polygon fill="white" stroke="#666666" points="277.5,-278 191.5,-278 191.5,-259 277.5,-259 277.5,-278"/>
<text text-anchor="middle" x="234.5" y="-266" font-family="Helvetica,sans-Serif" font-size="10.00">Captive Portal</text>
</a>
</g>
</g>
<!-- Node2 -->
<g id="Node000002" class="node">
<title>Node2</title>
<g id="a_Node000002"><a xlink:href="group__date__events.html" target="_top" xlink:title=" ">
<polygon fill="white" stroke="#666666" points="272.5,-241 196.5,-241 196.5,-222 272.5,-222 272.5,-241"/>
<text text-anchor="middle" x="234.5" y="-229" font-family="Helvetica,sans-Serif" font-size="10.00">Date Events</text>
</a>
</g>
</g>
<!-- Node9 -->
<g id="Node000009" class="node">
<title>Node9</title>
<g id="a_Node000009"><a xlink:href="group__json.html" target="_top" xlink:title="Lightweight JSON generation utilities for Uniot devices.">
<polygon fill="white" stroke="#666666" points="255,-204 214,-204 214,-185 255,-185 255,-204"/>
<text text-anchor="middle" x="234.5" y="-192" font-family="Helvetica,sans-Serif" font-size="10.00">JSON</text>
</a>
</g>
</g>
<!-- Node3 -->
<g id="Node000003" class="node">
<title>Node3</title>
<g id="a_Node000003"><a xlink:href="group__lisp__events.html" target="_top" xlink:title=" ">
<polygon fill="white" stroke="#666666" points="270.5,-167 198.5,-167 198.5,-148 270.5,-148 270.5,-167"/>
<text text-anchor="middle" x="234.5" y="-155" font-family="Helvetica,sans-Serif" font-size="10.00">Lisp Events</text>
</a>
</g>
</g>
<!-- Node4 -->
<g id="Node000004" class="node">
<title>Node4</title>
<g id="a_Node000004"><a xlink:href="group__mqtt__events.html" target="_top" xlink:title=" ">
<polygon fill="white" stroke="#666666" points="275,-130 194,-130 194,-111 275,-111 275,-130"/>
<text text-anchor="middle" x="234.5" y="-118" font-family="Helvetica,sans-Serif" font-size="10.00">MQTT Events</text>
</a>
</g>
</g>
<!-- Node1 -->
<g id="Node000001" class="node">
<title>Node1</title>
<g id="a_Node000001"><a xlink:title=" ">
<polygon fill="#999999" stroke="#666666" points="109,-148 0,-148 0,-129 109,-129 109,-148"/>
<text text-anchor="middle" x="54.5" y="-136" font-family="Helvetica,sans-Serif" font-size="10.00">Network Controller</text>
</a>
</g>
</g>
<!-- Node1&#45;&gt;Node5 -->
<g id="edge4" class="edge">
<title>Node1&#45;&gt;Node5</title>
<path fill="none" stroke="blueviolet" stroke-dasharray="5,2" d="M61.91,-148.03C77.46,-170.29 119.62,-225.66 170,-250.5 176.78,-253.84 184.29,-256.66 191.7,-259"/>
<text text-anchor="middle" x="139.5" y="-242.5" font-family="Helvetica,sans-Serif" font-size="10.00">uniot</text>
</g>
<!-- Node1&#45;&gt;Node2 -->
<g id="edge1" class="edge">
<title>Node1&#45;&gt;Node2</title>
<path fill="none" stroke="blueviolet" stroke-dasharray="5,2" d="M67.48,-148.15C87.55,-163.9 129.76,-195.21 170,-213.5 178.24,-217.25 187.44,-220.39 196.23,-222.96"/>
<text text-anchor="middle" x="139.5" y="-206.5" font-family="Helvetica,sans-Serif" font-size="10.00">uniot</text>
</g>
<!-- Node1&#45;&gt;Node9 -->
<g id="edge8" class="edge">
<title>Node1&#45;&gt;Node9</title>
<path fill="none" stroke="blueviolet" stroke-dasharray="5,2" d="M81.89,-148.03C95.35,-152.81 112,-158.61 127,-163.5 145.98,-169.69 150.84,-170.89 170,-176.5 184.63,-180.78 201.19,-185.47 213.74,-188.99"/>
<text text-anchor="middle" x="139.5" y="-173.5" font-family="Helvetica,sans-Serif" font-size="10.00">uniot</text>
</g>
<!-- Node1&#45;&gt;Node3 -->
<g id="edge2" class="edge">
<title>Node1&#45;&gt;Node3</title>
<path fill="none" stroke="blueviolet" stroke-dasharray="5,2" d="M109.39,-144.25C138.24,-147.33 172.96,-151.04 198.33,-153.75"/>
<text text-anchor="middle" x="139.5" y="-151.5" font-family="Helvetica,sans-Serif" font-size="10.00">uniot</text>
</g>
<!-- Node1&#45;&gt;Node4 -->
<g id="edge3" class="edge">
<title>Node1&#45;&gt;Node4</title>
<path fill="none" stroke="blueviolet" stroke-dasharray="5,2" d="M98.43,-128.97C107.81,-127.2 117.7,-125.58 127,-124.5 149.06,-121.94 173.83,-120.9 193.94,-120.52"/>
<text text-anchor="middle" x="139.5" y="-127.5" font-family="Helvetica,sans-Serif" font-size="10.00">uniot</text>
</g>
<!-- Node6 -->
<g id="Node000006" class="node">
<title>Node6</title>
<g id="a_Node000006"><a xlink:href="group__network__events.html" target="_top" xlink:title=" ">
<polygon fill="white" stroke="#666666" points="281.5,-93 187.5,-93 187.5,-74 281.5,-74 281.5,-93"/>
<text text-anchor="middle" x="234.5" y="-81" font-family="Helvetica,sans-Serif" font-size="10.00">Network Events</text>
</a>
</g>
</g>
<!-- Node1&#45;&gt;Node6 -->
<g id="edge5" class="edge">
<title>Node1&#45;&gt;Node6</title>
<path fill="none" stroke="blueviolet" stroke-dasharray="5,2" d="M73.9,-128.99C88.09,-121.96 108.39,-112.6 127,-106.5 146.41,-100.14 168.4,-95.05 187.34,-91.29"/>
<text text-anchor="middle" x="139.5" y="-109.5" font-family="Helvetica,sans-Serif" font-size="10.00">uniot</text>
</g>
<!-- Node7 -->
<g id="Node000007" class="node">
<title>Node7</title>
<g id="a_Node000007"><a xlink:href="group__network__scheduler.html" target="_top" xlink:title=" ">
<polygon fill="white" stroke="#666666" points="289,-56 180,-56 180,-37 289,-37 289,-56"/>
<text text-anchor="middle" x="234.5" y="-44" font-family="Helvetica,sans-Serif" font-size="10.00">Network Scheduler</text>
</a>
</g>
</g>
<!-- Node1&#45;&gt;Node7 -->
<g id="edge6" class="edge">
<title>Node1&#45;&gt;Node7</title>
<path fill="none" stroke="blueviolet" stroke-dasharray="5,2" d="M66.57,-128.85C80.15,-117.32 104.2,-97.9 127,-84.5 145.01,-73.91 150.4,-72.73 170,-65.5 179.18,-62.11 189.26,-58.88 198.64,-56.08"/>
<text text-anchor="middle" x="139.5" y="-87.5" font-family="Helvetica,sans-Serif" font-size="10.00">uniot</text>
</g>
<!-- Node8 -->
<g id="Node000008" class="node">
<title>Node8</title>
<g id="a_Node000008"><a xlink:href="group__wifi__scan.html" target="_top" xlink:title=" ">
<polygon fill="white" stroke="#666666" points="299,-19 170,-19 170,0 299,0 299,-19"/>
<text text-anchor="middle" x="234.5" y="-7" font-family="Helvetica,sans-Serif" font-size="10.00">WiFi Network Scanning</text>
</a>
</g>
</g>
<!-- Node1&#45;&gt;Node8 -->
<g id="edge7" class="edge">
<title>Node1&#45;&gt;Node8</title>
<path fill="none" stroke="blueviolet" stroke-dasharray="5,2" d="M62.47,-128.89C74.48,-112.74 100.34,-79.67 127,-56.5 144.21,-41.54 149.31,-38.09 170,-28.5 177.93,-24.82 186.75,-21.65 195.24,-19.02"/>
<text text-anchor="middle" x="139.5" y="-59.5" font-family="Helvetica,sans-Serif" font-size="10.00">uniot</text>
</g>
</g>
</svg>
