<?xml version="1.0" encoding="UTF-8" standalone="no"?>
<!DOCTYPE svg PUBLIC "-//W3C//DTD SVG 1.1//EN"
 "http://www.w3.org/Graphics/SVG/1.1/DTD/svg11.dtd">
<!-- Generated by graphviz version 2.43.0 (0)
 -->
<!-- Title: MQTT Events Pages: 1 -->
<svg width="318pt" height="303pt"
 viewBox="0.00 0.00 318.00 303.00" xmlns="http://www.w3.org/2000/svg" xmlns:xlink="http://www.w3.org/1999/xlink">
<g id="graph0" class="graph" transform="scale(1 1) rotate(0) translate(4 299)">
<title>MQTT Events</title>
<!-- Node4 -->
<g id="Node000004" class="node">
<title>Node4</title>
<g id="a_Node000004"><a xlink:href="group__captive__portal.html" target="_top" xlink:title=" ">
<polygon fill="white" stroke="#666666" points="288.5,-295 202.5,-295 202.5,-276 288.5,-276 288.5,-295"/>
<text text-anchor="middle" x="245.5" y="-283" font-family="Helvetica,sans-Serif" font-size="10.00">Captive Portal</text>
</a>
</g>
</g>
<!-- Node2 -->
<g id="Node000002" class="node">
<title>Node2</title>
<g id="a_Node000002"><a xlink:href="group__date__events.html" target="_top" xlink:title=" ">
<polygon fill="white" stroke="#666666" points="283.5,-251 207.5,-251 207.5,-232 283.5,-232 283.5,-251"/>
<text text-anchor="middle" x="245.5" y="-239" font-family="Helvetica,sans-Serif" font-size="10.00">Date Events</text>
</a>
</g>
</g>
<!-- Node9 -->
<g id="Node000009" class="node">
<title>Node9</title>
<g id="a_Node000009"><a xlink:href="group__json.html" target="_top" xlink:title="Lightweight JSON generation utilities for Uniot devices.">
<polygon fill="white" stroke="#666666" points="266,-214 225,-214 225,-195 266,-195 266,-214"/>
<text text-anchor="middle" x="245.5" y="-202" font-family="Helvetica,sans-Serif" font-size="10.00">JSON</text>
</a>
</g>
</g>
<!-- Node3 -->
<g id="Node000003" class="node">
<title>Node3</title>
<g id="a_Node000003"><a xlink:href="group__lisp__events.html" target="_top" xlink:title=" ">
<polygon fill="white" stroke="#666666" points="281.5,-172 209.5,-172 209.5,-153 281.5,-153 281.5,-172"/>
<text text-anchor="middle" x="245.5" y="-160" font-family="Helvetica,sans-Serif" font-size="10.00">Lisp Events</text>
</a>
</g>
</g>
<!-- Node1 -->
<g id="Node000001" class="node">
<title>Node1</title>
<g id="a_Node000001"><a xlink:title=" ">
<polygon fill="#999999" stroke="#666666" points="81,-153 0,-153 0,-134 81,-134 81,-153"/>
<text text-anchor="middle" x="40.5" y="-141" font-family="Helvetica,sans-Serif" font-size="10.00">MQTT Events</text>
</a>
</g>
</g>
<!-- Node1&#45;&gt;Node4 -->
<g id="edge3" class="edge">
<title>Node1&#45;&gt;Node4</title>
<path fill="none" stroke="blueviolet" stroke-dasharray="5,2" d="M43.25,-153.17C47.88,-175.78 62.68,-232.25 99,-259.5 128.56,-281.68 170.9,-287.13 202.29,-287.66"/>
<text text-anchor="middle" x="131" y="-286.5" font-family="Helvetica,sans-Serif" font-size="10.00">uniot</text>
</g>
<!-- Node1&#45;&gt;Node2 -->
<g id="edge1" class="edge">
<title>Node1&#45;&gt;Node2</title>
<path fill="none" stroke="blueviolet" stroke-dasharray="5,2" d="M46.78,-153.16C55.54,-168.2 74.54,-196.97 99,-211.5 132.26,-231.26 176.5,-238.16 207.43,-240.49"/>
<text text-anchor="middle" x="131" y="-247.5" font-family="Helvetica,sans-Serif" font-size="10.00">uniot</text>
<text text-anchor="middle" x="131" y="-236.5" font-family="Helvetica,sans-Serif" font-size="10.00">uniot::events</text>
</g>
<!-- Node1&#45;&gt;Node9 -->
<g id="edge8" class="edge">
<title>Node1&#45;&gt;Node9</title>
<path fill="none" stroke="blueviolet" stroke-dasharray="5,2" d="M53.49,-153.31C64.6,-161.87 81.94,-173.93 99,-180.5 141.77,-196.97 195.86,-202.14 224.54,-203.76"/>
<text text-anchor="middle" x="131" y="-199.5" font-family="Helvetica,sans-Serif" font-size="10.00">uniot</text>
</g>
<!-- Node1&#45;&gt;Node3 -->
<g id="edge2" class="edge">
<title>Node1&#45;&gt;Node3</title>
<path fill="none" stroke="blueviolet" stroke-dasharray="5,2" d="M81.12,-147.21C118.39,-150.7 173.66,-155.87 209.38,-159.21"/>
<text text-anchor="middle" x="131" y="-168.5" font-family="Helvetica,sans-Serif" font-size="10.00">uniot</text>
<text text-anchor="middle" x="131" y="-157.5" font-family="Helvetica,sans-Serif" font-size="10.00">uniot::events</text>
</g>
<!-- Node5 -->
<g id="Node000005" class="node">
<title>Node5</title>
<g id="a_Node000005"><a xlink:href="group__network__controller.html" target="_top" xlink:title=" ">
<polygon fill="white" stroke="#666666" points="300,-135 191,-135 191,-116 300,-116 300,-135"/>
<text text-anchor="middle" x="245.5" y="-123" font-family="Helvetica,sans-Serif" font-size="10.00">Network Controller</text>
</a>
</g>
</g>
<!-- Node1&#45;&gt;Node5 -->
<g id="edge4" class="edge">
<title>Node1&#45;&gt;Node5</title>
<path fill="none" stroke="blueviolet" stroke-dasharray="5,2" d="M70.15,-133.97C79.26,-131.36 89.46,-128.87 99,-127.5 129.13,-123.17 163.14,-122.48 190.69,-122.95"/>
<text text-anchor="middle" x="131" y="-130.5" font-family="Helvetica,sans-Serif" font-size="10.00">uniot</text>
</g>
<!-- Node6 -->
<g id="Node000006" class="node">
<title>Node6</title>
<g id="a_Node000006"><a xlink:href="group__network__events.html" target="_top" xlink:title=" ">
<polygon fill="white" stroke="#666666" points="292.5,-93 198.5,-93 198.5,-74 292.5,-74 292.5,-93"/>
<text text-anchor="middle" x="245.5" y="-81" font-family="Helvetica,sans-Serif" font-size="10.00">Network Events</text>
</a>
</g>
</g>
<!-- Node1&#45;&gt;Node6 -->
<g id="edge5" class="edge">
<title>Node1&#45;&gt;Node6</title>
<path fill="none" stroke="blueviolet" stroke-dasharray="5,2" d="M49.74,-133.95C60.01,-122.79 78.7,-104.78 99,-96.5 130.47,-83.67 168.86,-80.71 198.3,-80.8"/>
<text text-anchor="middle" x="131" y="-110.5" font-family="Helvetica,sans-Serif" font-size="10.00">uniot</text>
<text text-anchor="middle" x="131" y="-99.5" font-family="Helvetica,sans-Serif" font-size="10.00">uniot::events</text>
</g>
<!-- Node7 -->
<g id="Node000007" class="node">
<title>Node7</title>
<g id="a_Node000007"><a xlink:href="group__network__scheduler.html" target="_top" xlink:title=" ">
<polygon fill="white" stroke="#666666" points="300,-56 191,-56 191,-37 300,-37 300,-56"/>
<text text-anchor="middle" x="245.5" y="-44" font-family="Helvetica,sans-Serif" font-size="10.00">Network Scheduler</text>
</a>
</g>
</g>
<!-- Node1&#45;&gt;Node7 -->
<g id="edge6" class="edge">
<title>Node1&#45;&gt;Node7</title>
<path fill="none" stroke="blueviolet" stroke-dasharray="5,2" d="M45.55,-134C53.25,-117.22 71.7,-82.61 99,-66.5 126.45,-50.31 161.78,-45.16 190.76,-44.13"/>
<text text-anchor="middle" x="131" y="-69.5" font-family="Helvetica,sans-Serif" font-size="10.00">uniot</text>
</g>
<!-- Node8 -->
<g id="Node000008" class="node">
<title>Node8</title>
<g id="a_Node000008"><a xlink:href="group__wifi__scan.html" target="_top" xlink:title=" ">
<polygon fill="white" stroke="#666666" points="310,-19 181,-19 181,0 310,0 310,-19"/>
<text text-anchor="middle" x="245.5" y="-7" font-family="Helvetica,sans-Serif" font-size="10.00">WiFi Network Scanning</text>
</a>
</g>
</g>
<!-- Node1&#45;&gt;Node8 -->
<g id="edge7" class="edge">
<title>Node1&#45;&gt;Node8</title>
<path fill="none" stroke="blueviolet" stroke-dasharray="5,2" d="M43.38,-133.76C48.23,-111.56 63.33,-57.14 99,-31.5 122.44,-14.65 153.54,-8.39 180.96,-6.65"/>
<text text-anchor="middle" x="131" y="-34.5" font-family="Helvetica,sans-Serif" font-size="10.00">uniot</text>
</g>
</g>
</svg>
