<?xml version="1.0" encoding="UTF-8" standalone="no"?>
<!DOCTYPE svg PUBLIC "-//W3C//DTD SVG 1.1//EN"
 "http://www.w3.org/Graphics/SVG/1.1/DTD/svg11.dtd">
<!-- Generated by graphviz version 2.43.0 (0)
 -->
<!-- Title: Date Events Pages: 1 -->
<svg width="313pt" height="305pt"
 viewBox="0.00 0.00 313.00 305.00" xmlns="http://www.w3.org/2000/svg" xmlns:xlink="http://www.w3.org/1999/xlink">
<g id="graph0" class="graph" transform="scale(1 1) rotate(0) translate(4 301)">
<title>Date Events</title>
<!-- Node4 -->
<g id="Node000004" class="node">
<title>Node4</title>
<g id="a_Node000004"><a xlink:href="group__captive__portal.html" target="_top" xlink:title=" ">
<polygon fill="white" stroke="#666666" points="283.5,-297 197.5,-297 197.5,-278 283.5,-278 283.5,-297"/>
<text text-anchor="middle" x="240.5" y="-285" font-family="Helvetica,sans-Serif" font-size="10.00">Captive Portal</text>
</a>
</g>
</g>
<!-- Node1 -->
<g id="Node000001" class="node">
<title>Node1</title>
<g id="a_Node000001"><a xlink:title=" ">
<polygon fill="#999999" stroke="#666666" points="76,-153 0,-153 0,-134 76,-134 76,-153"/>
<text text-anchor="middle" x="38" y="-141" font-family="Helvetica,sans-Serif" font-size="10.00">Date Events</text>
</a>
</g>
</g>
<!-- Node1&#45;&gt;Node4 -->
<g id="edge3" class="edge">
<title>Node1&#45;&gt;Node4</title>
<path fill="none" stroke="blueviolet" stroke-dasharray="5,2" d="M40.52,-153.22C44.62,-175.97 58.11,-232.79 94,-260.5 123.39,-283.19 165.96,-288.86 197.46,-289.51"/>
<text text-anchor="middle" x="126" y="-288.5" font-family="Helvetica,sans-Serif" font-size="10.00">uniot</text>
</g>
<!-- Node9 -->
<g id="Node000009" class="node">
<title>Node9</title>
<g id="a_Node000009"><a xlink:href="group__json.html" target="_top" xlink:title="Lightweight JSON generation utilities for Uniot devices.">
<polygon fill="white" stroke="#666666" points="261,-260 220,-260 220,-241 261,-241 261,-260"/>
<text text-anchor="middle" x="240.5" y="-248" font-family="Helvetica,sans-Serif" font-size="10.00">JSON</text>
</a>
</g>
</g>
<!-- Node1&#45;&gt;Node9 -->
<g id="edge8" class="edge">
<title>Node1&#45;&gt;Node9</title>
<path fill="none" stroke="blueviolet" stroke-dasharray="5,2" d="M42.77,-153.09C49.98,-170.06 67.38,-205.2 94,-222.5 133.25,-248.01 190.23,-251.4 219.9,-251.23"/>
<text text-anchor="middle" x="126" y="-248.5" font-family="Helvetica,sans-Serif" font-size="10.00">uniot</text>
</g>
<!-- Node2 -->
<g id="Node000002" class="node">
<title>Node2</title>
<g id="a_Node000002"><a xlink:href="group__lisp__events.html" target="_top" xlink:title=" ">
<polygon fill="white" stroke="#666666" points="276.5,-215 204.5,-215 204.5,-196 276.5,-196 276.5,-215"/>
<text text-anchor="middle" x="240.5" y="-203" font-family="Helvetica,sans-Serif" font-size="10.00">Lisp Events</text>
</a>
</g>
</g>
<!-- Node1&#45;&gt;Node2 -->
<g id="edge1" class="edge">
<title>Node1&#45;&gt;Node2</title>
<path fill="none" stroke="blueviolet" stroke-dasharray="5,2" d="M50.4,-153.3C60.99,-161.86 77.55,-173.91 94,-180.5 129.92,-194.9 174.09,-201.01 204.28,-203.6"/>
<text text-anchor="middle" x="126" y="-210.5" font-family="Helvetica,sans-Serif" font-size="10.00">uniot</text>
<text text-anchor="middle" x="126" y="-199.5" font-family="Helvetica,sans-Serif" font-size="10.00">uniot::events</text>
</g>
<!-- Node3 -->
<g id="Node000003" class="node">
<title>Node3</title>
<g id="a_Node000003"><a xlink:href="group__mqtt__events.html" target="_top" xlink:title=" ">
<polygon fill="white" stroke="#666666" points="281,-172 200,-172 200,-153 281,-153 281,-172"/>
<text text-anchor="middle" x="240.5" y="-160" font-family="Helvetica,sans-Serif" font-size="10.00">MQTT Events</text>
</a>
</g>
</g>
<!-- Node1&#45;&gt;Node3 -->
<g id="edge2" class="edge">
<title>Node1&#45;&gt;Node3</title>
<path fill="none" stroke="blueviolet" stroke-dasharray="5,2" d="M76.24,-147.03C111.35,-150.36 163.79,-155.33 199.71,-158.73"/>
<text text-anchor="middle" x="126" y="-168.5" font-family="Helvetica,sans-Serif" font-size="10.00">uniot</text>
<text text-anchor="middle" x="126" y="-157.5" font-family="Helvetica,sans-Serif" font-size="10.00">uniot::events</text>
</g>
<!-- Node5 -->
<g id="Node000005" class="node">
<title>Node5</title>
<g id="a_Node000005"><a xlink:href="group__network__controller.html" target="_top" xlink:title=" ">
<polygon fill="white" stroke="#666666" points="295,-135 186,-135 186,-116 295,-116 295,-135"/>
<text text-anchor="middle" x="240.5" y="-123" font-family="Helvetica,sans-Serif" font-size="10.00">Network Controller</text>
</a>
</g>
</g>
<!-- Node1&#45;&gt;Node5 -->
<g id="edge4" class="edge">
<title>Node1&#45;&gt;Node5</title>
<path fill="none" stroke="blueviolet" stroke-dasharray="5,2" d="M66.37,-133.96C75.09,-131.35 84.85,-128.87 94,-127.5 124.11,-123 158.11,-122.29 185.67,-122.8"/>
<text text-anchor="middle" x="126" y="-130.5" font-family="Helvetica,sans-Serif" font-size="10.00">uniot</text>
</g>
<!-- Node6 -->
<g id="Node000006" class="node">
<title>Node6</title>
<g id="a_Node000006"><a xlink:href="group__network__events.html" target="_top" xlink:title=" ">
<polygon fill="white" stroke="#666666" points="287.5,-93 193.5,-93 193.5,-74 287.5,-74 287.5,-93"/>
<text text-anchor="middle" x="240.5" y="-81" font-family="Helvetica,sans-Serif" font-size="10.00">Network Events</text>
</a>
</g>
</g>
<!-- Node1&#45;&gt;Node6 -->
<g id="edge5" class="edge">
<title>Node1&#45;&gt;Node6</title>
<path fill="none" stroke="blueviolet" stroke-dasharray="5,2" d="M46.79,-133.95C56.52,-122.79 74.32,-104.78 94,-96.5 125.33,-83.32 163.72,-80.38 193.2,-80.57"/>
<text text-anchor="middle" x="126" y="-110.5" font-family="Helvetica,sans-Serif" font-size="10.00">uniot</text>
<text text-anchor="middle" x="126" y="-99.5" font-family="Helvetica,sans-Serif" font-size="10.00">uniot::events</text>
</g>
<!-- Node7 -->
<g id="Node000007" class="node">
<title>Node7</title>
<g id="a_Node000007"><a xlink:href="group__network__scheduler.html" target="_top" xlink:title=" ">
<polygon fill="white" stroke="#666666" points="295,-56 186,-56 186,-37 295,-37 295,-56"/>
<text text-anchor="middle" x="240.5" y="-44" font-family="Helvetica,sans-Serif" font-size="10.00">Network Scheduler</text>
</a>
</g>
</g>
<!-- Node1&#45;&gt;Node7 -->
<g id="edge6" class="edge">
<title>Node1&#45;&gt;Node7</title>
<path fill="none" stroke="blueviolet" stroke-dasharray="5,2" d="M42.87,-133.74C50.11,-116.88 67.43,-82.56 94,-66.5 121.39,-49.95 156.89,-44.82 185.97,-43.89"/>
<text text-anchor="middle" x="126" y="-69.5" font-family="Helvetica,sans-Serif" font-size="10.00">uniot</text>
</g>
<!-- Node8 -->
<g id="Node000008" class="node">
<title>Node8</title>
<g id="a_Node000008"><a xlink:href="group__wifi__scan.html" target="_top" xlink:title=" ">
<polygon fill="white" stroke="#666666" points="305,-19 176,-19 176,0 305,0 305,-19"/>
<text text-anchor="middle" x="240.5" y="-7" font-family="Helvetica,sans-Serif" font-size="10.00">WiFi Network Scanning</text>
</a>
</g>
</g>
<!-- Node1&#45;&gt;Node8 -->
<g id="edge7" class="edge">
<title>Node1&#45;&gt;Node8</title>
<path fill="none" stroke="blueviolet" stroke-dasharray="5,2" d="M40.62,-133.67C44.87,-111.27 58.58,-56.36 94,-30.5 117.29,-13.5 148.37,-7.41 175.83,-5.92"/>
<text text-anchor="middle" x="126" y="-33.5" font-family="Helvetica,sans-Serif" font-size="10.00">uniot</text>
</g>
</g>
</svg>
