<?xml version="1.0" encoding="UTF-8" standalone="no"?>
<!DOCTYPE svg PUBLIC "-//W3C//DTD SVG 1.1//EN"
 "http://www.w3.org/Graphics/SVG/1.1/DTD/svg11.dtd">
<!-- Generated by graphviz version 2.43.0 (0)
 -->
<!-- Title: Utilities Pages: 1 -->
<svg width="255pt" height="532pt"
 viewBox="0.00 0.00 255.00 532.00" xmlns="http://www.w3.org/2000/svg" xmlns:xlink="http://www.w3.org/1999/xlink">
<g id="graph0" class="graph" transform="scale(1 1) rotate(0) translate(4 528)">
<title>Utilities</title>
<!-- Node4 -->
<g id="Node000004" class="node">
<title>Node4</title>
<g id="a_Node000004"><a xlink:href="group__common.html" target="_top" xlink:title="Common utilities and macros for the Uniot Core.">
<polygon fill="white" stroke="#666666" points="199.5,-524 138.5,-524 138.5,-505 199.5,-505 199.5,-524"/>
<text text-anchor="middle" x="169" y="-512" font-family="Helvetica,sans-Serif" font-size="10.00">Common</text>
</a>
</g>
</g>
<!-- Node5 -->
<g id="Node000005" class="node">
<title>Node5</title>
<g id="a_Node000005"><a xlink:href="group__date-time.html" target="_top" xlink:title="A class for managing date and time in Uniot devices.">
<polygon fill="white" stroke="#666666" points="247,-487 91,-487 91,-468 247,-468 247,-487"/>
<text text-anchor="middle" x="169" y="-475" font-family="Helvetica,sans-Serif" font-size="10.00">Date and Time Management</text>
</a>
</g>
</g>
<!-- Node13 -->
<g id="Node000013" class="node">
<title>Node13</title>
<g id="a_Node000013"><a xlink:href="group__json.html" target="_top" xlink:title="Lightweight JSON generation utilities for Uniot devices.">
<polygon fill="white" stroke="#666666" points="189.5,-450 148.5,-450 148.5,-431 189.5,-431 189.5,-450"/>
<text text-anchor="middle" x="169" y="-438" font-family="Helvetica,sans-Serif" font-size="10.00">JSON</text>
</a>
</g>
</g>
<!-- Node1 -->
<g id="Node000001" class="node">
<title>Node1</title>
<g id="a_Node000001"><a xlink:title="Common utility components and functions for the Uniot Core.">
<polygon fill="#999999" stroke="#666666" points="55,-268 0,-268 0,-249 55,-249 55,-268"/>
<text text-anchor="middle" x="27.5" y="-256" font-family="Helvetica,sans-Serif" font-size="10.00">Utilities</text>
</a>
</g>
</g>
<!-- Node1&#45;&gt;Node4 -->
<g id="edge3" class="edge">
<title>Node1&#45;&gt;Node4</title>
<path fill="none" stroke="black" d="M31.07,-278.39C38.13,-329.89 59.41,-465.75 91,-496.5 103.4,-508.56 122.24,-513.11 138.19,-514.62"/>
<polygon fill="black" stroke="black" points="34.51,-277.68 29.72,-268.23 27.57,-278.6 34.51,-277.68"/>
</g>
<!-- Node1&#45;&gt;Node5 -->
<g id="edge4" class="edge">
<title>Node1&#45;&gt;Node5</title>
<path fill="none" stroke="black" d="M28.55,-278.34C29.78,-318.71 38.54,-410.68 91,-459.5 94.62,-462.87 98.74,-465.64 103.16,-467.93"/>
<polygon fill="black" stroke="black" points="32.04,-278.13 28.37,-268.2 25.05,-278.26 32.04,-278.13"/>
</g>
<!-- Node1&#45;&gt;Node13 -->
<g id="edge12" class="edge">
<title>Node1&#45;&gt;Node13</title>
<path fill="none" stroke="black" d="M30.21,-278.71C34.28,-313.52 47.71,-384.67 91,-422.5 106.82,-436.32 131.23,-440.05 148.32,-440.82"/>
<polygon fill="black" stroke="black" points="33.66,-278 29.16,-268.4 26.69,-278.71 33.66,-278"/>
</g>
<!-- Node6 -->
<g id="Node000006" class="node">
<title>Node6</title>
<g id="a_Node000006"><a xlink:href="group__utils__array.html" target="_top" xlink:title="A simple Array class that manages a dynamically allocated array and its size.">
<polygon fill="white" stroke="#666666" points="190.5,-413 147.5,-413 147.5,-394 190.5,-394 190.5,-413"/>
<text text-anchor="middle" x="169" y="-401" font-family="Helvetica,sans-Serif" font-size="10.00">Array</text>
</a>
</g>
</g>
<!-- Node1&#45;&gt;Node6 -->
<g id="edge5" class="edge">
<title>Node1&#45;&gt;Node6</title>
<path fill="none" stroke="black" d="M32.59,-278.11C39.52,-306.32 56.35,-357.96 91,-385.5 107.01,-398.23 130.47,-402.24 147.28,-403.37"/>
<polygon fill="black" stroke="black" points="35.97,-277.2 30.33,-268.23 29.15,-278.76 35.97,-277.2"/>
</g>
<!-- Node7 -->
<g id="Node000007" class="node">
<title>Node7</title>
<g id="a_Node000007"><a xlink:href="group__utils__bytes.html" target="_top" xlink:title="A class for managing and manipulating byte arrays.">
<polygon fill="white" stroke="#666666" points="191,-376 147,-376 147,-357 191,-357 191,-376"/>
<text text-anchor="middle" x="169" y="-364" font-family="Helvetica,sans-Serif" font-size="10.00">Bytes</text>
</a>
</g>
</g>
<!-- Node1&#45;&gt;Node7 -->
<g id="edge6" class="edge">
<title>Node1&#45;&gt;Node7</title>
<path fill="none" stroke="black" d="M36.81,-277.53C46.74,-297.98 65.28,-329.89 91,-347.5 107.59,-358.85 130.3,-363.44 146.76,-365.28"/>
<polygon fill="black" stroke="black" points="39.91,-275.88 32.53,-268.28 33.55,-278.82 39.91,-275.88"/>
</g>
<!-- Node2 -->
<g id="Node000002" class="node">
<title>Node2</title>
<g id="a_Node000002"><a xlink:href="group__utils__cbor__wrapper.html" target="_top" xlink:title="A wrapper class for CBOR (Concise Binary Object Representation) data manipulation.">
<polygon fill="white" stroke="#666666" points="235,-338.5 103,-338.5 103,-308.5 235,-308.5 235,-338.5"/>
<text text-anchor="start" x="111" y="-326.5" font-family="Helvetica,sans-Serif" font-size="10.00">CBOR (Concise Binary</text>
<text text-anchor="middle" x="169" y="-315.5" font-family="Helvetica,sans-Serif" font-size="10.00"> Object Representation)</text>
</a>
</g>
</g>
<!-- Node1&#45;&gt;Node2 -->
<g id="edge1" class="edge">
<title>Node1&#45;&gt;Node2</title>
<path fill="none" stroke="black" d="M49.07,-274.1C60.87,-282.49 76.23,-292.52 91,-299.5 97.96,-302.79 105.49,-305.77 113.01,-308.43"/>
<polygon fill="black" stroke="black" points="50.96,-271.14 40.81,-268.07 46.83,-276.79 50.96,-271.14"/>
</g>
<!-- Node8 -->
<g id="Node000008" class="node">
<title>Node8</title>
<g id="a_Node000008"><a xlink:href="group__utils__clearqueue.html" target="_top" xlink:title="A lightweight queue implementation optimized for resource&#45;constrained environments.">
<polygon fill="white" stroke="#666666" points="206,-290 132,-290 132,-271 206,-271 206,-290"/>
<text text-anchor="middle" x="169" y="-278" font-family="Helvetica,sans-Serif" font-size="10.00">ClearQueue</text>
</a>
</g>
</g>
<!-- Node1&#45;&gt;Node8 -->
<g id="edge7" class="edge">
<title>Node1&#45;&gt;Node8</title>
<path fill="none" stroke="black" d="M65.02,-264.26C85.61,-267.51 111.24,-271.55 131.78,-274.79"/>
<polygon fill="black" stroke="black" points="65.49,-260.79 55.07,-262.69 64.4,-267.7 65.49,-260.79"/>
</g>
<!-- Node3 -->
<g id="Node000003" class="node">
<title>Node3</title>
<g id="a_Node000003"><a xlink:href="group__utils__cose.html" target="_top" xlink:title="CBOR Object Signing and Encryption (COSE) implementation.">
<polygon fill="white" stroke="#666666" points="244.5,-252.5 93.5,-252.5 93.5,-222.5 244.5,-222.5 244.5,-252.5"/>
<text text-anchor="start" x="101.5" y="-240.5" font-family="Helvetica,sans-Serif" font-size="10.00">COSE (CBOR Object Signing</text>
<text text-anchor="middle" x="169" y="-229.5" font-family="Helvetica,sans-Serif" font-size="10.00"> and Encryption)</text>
</a>
</g>
</g>
<!-- Node1&#45;&gt;Node3 -->
<g id="edge2" class="edge">
<title>Node1&#45;&gt;Node3</title>
<path fill="none" stroke="black" d="M65.21,-252.97C73.94,-251.66 83.56,-250.21 93.31,-248.74"/>
<polygon fill="black" stroke="black" points="64.43,-249.55 55.07,-254.5 65.48,-256.47 64.43,-249.55"/>
</g>
<!-- Node10 -->
<g id="Node000010" class="node">
<title>Node10</title>
<g id="a_Node000010"><a xlink:href="group__utils__iterablequeue.html" target="_top" xlink:title="A queue implementation with iteration capabilities.">
<polygon fill="white" stroke="#666666" points="212,-204 126,-204 126,-185 212,-185 212,-204"/>
<text text-anchor="middle" x="169" y="-192" font-family="Helvetica,sans-Serif" font-size="10.00">IterableQueue</text>
</a>
</g>
</g>
<!-- Node1&#45;&gt;Node10 -->
<g id="edge9" class="edge">
<title>Node1&#45;&gt;Node10</title>
<path fill="none" stroke="black" d="M47.02,-242.26C58.87,-232.63 74.98,-220.9 91,-213.5 101.87,-208.47 114.25,-204.67 125.85,-201.84"/>
<polygon fill="black" stroke="black" points="44.62,-239.7 39.2,-248.81 49.12,-245.07 44.62,-239.7"/>
</g>
<!-- Node11 -->
<g id="Node000011" class="node">
<title>Node11</title>
<g id="a_Node000011"><a xlink:href="group__utils__limitedqueue.html" target="_top" xlink:title="A queue with a maximum size limit that automatically removes oldest elements when full.">
<polygon fill="white" stroke="#666666" points="211.5,-167 126.5,-167 126.5,-148 211.5,-148 211.5,-167"/>
<text text-anchor="middle" x="169" y="-155" font-family="Helvetica,sans-Serif" font-size="10.00">LimitedQueue</text>
</a>
</g>
</g>
<!-- Node1&#45;&gt;Node11 -->
<g id="edge10" class="edge">
<title>Node1&#45;&gt;Node11</title>
<path fill="none" stroke="black" d="M37.8,-239.85C48.19,-220.99 66.77,-192.4 91,-176.5 101.48,-169.63 114.23,-165.24 126.33,-162.44"/>
<polygon fill="black" stroke="black" points="34.57,-238.47 33.01,-248.95 40.77,-241.73 34.57,-238.47"/>
</g>
<!-- Node12 -->
<g id="Node000012" class="node">
<title>Node12</title>
<g id="a_Node000012"><a xlink:href="group__utils__map.html" target="_top" xlink:title="A simple map class that associates keys with values using an iterable queue.">
<polygon fill="white" stroke="#666666" points="188,-130 150,-130 150,-111 188,-111 188,-130"/>
<text text-anchor="middle" x="169" y="-118" font-family="Helvetica,sans-Serif" font-size="10.00">Map</text>
</a>
</g>
</g>
<!-- Node1&#45;&gt;Node12 -->
<g id="edge11" class="edge">
<title>Node1&#45;&gt;Node12</title>
<path fill="none" stroke="black" d="M33.32,-239.02C40.95,-212.4 58.39,-165.05 91,-139.5 108.02,-126.17 133.12,-122.04 149.99,-120.85"/>
<polygon fill="black" stroke="black" points="29.93,-238.16 30.72,-248.73 36.69,-239.98 29.93,-238.16"/>
</g>
<!-- Node9 -->
<g id="Node000009" class="node">
<title>Node9</title>
<g id="a_Node000009"><a xlink:href="group__utils__memory__manager.html" target="_top" xlink:title="Memory manager for a global static buffer with dynamic allocation capabilities.">
<polygon fill="white" stroke="#666666" points="220.5,-93 117.5,-93 117.5,-74 220.5,-74 220.5,-93"/>
<text text-anchor="middle" x="169" y="-81" font-family="Helvetica,sans-Serif" font-size="10.00">Memory Manager</text>
</a>
</g>
</g>
<!-- Node1&#45;&gt;Node9 -->
<g id="edge8" class="edge">
<title>Node1&#45;&gt;Node9</title>
<path fill="none" stroke="black" d="M30.7,-238.39C35.47,-205.01 49.84,-138.3 91,-102.5 98.48,-95.99 107.84,-91.64 117.44,-88.75"/>
<polygon fill="black" stroke="black" points="27.18,-238.34 29.39,-248.7 34.13,-239.22 27.18,-238.34"/>
</g>
<!-- Node14 -->
<g id="Node000014" class="node">
<title>Node14</title>
<g id="a_Node000014"><a xlink:href="group__utils__singleton.html" target="_top" xlink:title="Template class implementing the Singleton design pattern.">
<polygon fill="white" stroke="#666666" points="200,-56 138,-56 138,-37 200,-37 200,-56"/>
<text text-anchor="middle" x="169" y="-44" font-family="Helvetica,sans-Serif" font-size="10.00">Singleton</text>
</a>
</g>
</g>
<!-- Node1&#45;&gt;Node14 -->
<g id="edge13" class="edge">
<title>Node1&#45;&gt;Node14</title>
<path fill="none" stroke="black" d="M28.9,-238.68C30.81,-199.58 40.8,-112.25 91,-65.5 103.5,-53.86 121.95,-49.04 137.66,-47.16"/>
<polygon fill="black" stroke="black" points="25.4,-238.65 28.54,-248.77 32.39,-238.9 25.4,-238.65"/>
</g>
<!-- Node15 -->
<g id="Node000015" class="node">
<title>Node15</title>
<g id="a_Node000015"><a xlink:href="group__utils__typeid.html" target="_top" xlink:title="Provides a lightweight type identification system for runtime type checking and safe casting.">
<polygon fill="white" stroke="#666666" points="193,-19 145,-19 145,0 193,0 193,-19"/>
<text text-anchor="middle" x="169" y="-7" font-family="Helvetica,sans-Serif" font-size="10.00">TypeId</text>
</a>
</g>
</g>
<!-- Node1&#45;&gt;Node15 -->
<g id="edge14" class="edge">
<title>Node1&#45;&gt;Node15</title>
<path fill="none" stroke="black" d="M27.67,-238.96C26.93,-194.77 31.64,-86.49 91,-28.5 105.18,-14.64 127.77,-10.37 144.83,-9.27"/>
<polygon fill="black" stroke="black" points="24.17,-239.07 27.96,-248.97 31.17,-238.87 24.17,-239.07"/>
</g>
</g>
</svg>
