<?xml version="1.0" encoding="UTF-8" standalone="no"?>
<!DOCTYPE svg PUBLIC "-//W3C//DTD SVG 1.1//EN"
 "http://www.w3.org/Graphics/SVG/1.1/DTD/svg11.dtd">
<!-- Generated by graphviz version 2.43.0 (0)
 -->
<!-- Title: Graphical Class Hierarchy Pages: 1 -->
<svg width="584pt" height="49pt"
 viewBox="0.00 0.00 584.00 49.00" xmlns="http://www.w3.org/2000/svg" xmlns:xlink="http://www.w3.org/1999/xlink">
<g id="graph0" class="graph" transform="scale(1 1) rotate(0) translate(4 45)">
<title>Graphical Class Hierarchy</title>
<!-- Node0 -->
<g id="Node000000" class="node">
<title>Node0</title>
<g id="a_Node000000"><a xlink:href="class_clear_queue.html" target="_top" xlink:title=" ">
<polygon fill="white" stroke="#666666" points="192,-35.5 0,-35.5 0,-5.5 192,-5.5 192,-35.5"/>
<text text-anchor="start" x="8" y="-23.5" font-family="Helvetica,sans-Serif" font-size="10.00">ClearQueue&lt; Pair&lt; String,</text>
<text text-anchor="middle" x="96" y="-12.5" font-family="Helvetica,sans-Serif" font-size="10.00"> SharedPointer&lt; EventQueue &gt; &gt; &gt;</text>
</a>
</g>
</g>
<!-- Node1 -->
<g id="Node000001" class="node">
<title>Node1</title>
<g id="a_Node000001"><a xlink:href="class_iterable_queue.html" target="_top" xlink:title=" ">
<polygon fill="white" stroke="#666666" points="359,-41 228,-41 228,0 359,0 359,-41"/>
<text text-anchor="start" x="236" y="-29" font-family="Helvetica,sans-Serif" font-size="10.00">IterableQueue&lt; Pair</text>
<text text-anchor="start" x="236" y="-18" font-family="Helvetica,sans-Serif" font-size="10.00">&lt; String, SharedPointer</text>
<text text-anchor="middle" x="293.5" y="-7" font-family="Helvetica,sans-Serif" font-size="10.00">&lt; EventQueue &gt; &gt; &gt;</text>
</a>
</g>
</g>
<!-- Node0&#45;&gt;Node1 -->
<g id="edge5_Node000000_Node000001" class="edge">
<title>Node0&#45;&gt;Node1</title>
<g id="a_edge5_Node000000_Node000001"><a xlink:title=" ">
<path fill="none" stroke="#63b8ff" d="M202.41,-20.5C211.11,-20.5 219.74,-20.5 228,-20.5"/>
<polygon fill="#63b8ff" stroke="#63b8ff" points="202.17,-17 192.17,-20.5 202.17,-24 202.17,-17"/>
</a>
</g>
</g>
<!-- Node2 -->
<g id="Node000002" class="node">
<title>Node2</title>
<g id="a_Node000002"><a xlink:href="classuniot_1_1_map.html" target="_top" xlink:title=" ">
<polygon fill="white" stroke="#666666" points="576,-35.5 395,-35.5 395,-5.5 576,-5.5 576,-35.5"/>
<text text-anchor="start" x="403" y="-23.5" font-family="Helvetica,sans-Serif" font-size="10.00">uniot::Map&lt; String,</text>
<text text-anchor="middle" x="485.5" y="-12.5" font-family="Helvetica,sans-Serif" font-size="10.00"> SharedPointer&lt; EventQueue &gt; &gt;</text>
</a>
</g>
</g>
<!-- Node1&#45;&gt;Node2 -->
<g id="edge6_Node000001_Node000002" class="edge">
<title>Node1&#45;&gt;Node2</title>
<g id="a_edge6_Node000001_Node000002"><a xlink:title=" ">
<path fill="none" stroke="#63b8ff" d="M369.22,-20.5C377.63,-20.5 386.27,-20.5 394.84,-20.5"/>
<polygon fill="#63b8ff" stroke="#63b8ff" points="369.09,-17 359.09,-20.5 369.09,-24 369.09,-17"/>
</a>
</g>
</g>
</g>
</svg>
