<?xml version="1.0" encoding="UTF-8" standalone="no"?>
<!DOCTYPE svg PUBLIC "-//W3C//DTD SVG 1.1//EN"
 "http://www.w3.org/Graphics/SVG/1.1/DTD/svg11.dtd">
<!-- Generated by graphviz version 2.43.0 (0)
 -->
<!-- Title: Graphical Class Hierarchy Pages: 1 -->
<svg width="527pt" height="49pt"
 viewBox="0.00 0.00 527.00 49.00" xmlns="http://www.w3.org/2000/svg" xmlns:xlink="http://www.w3.org/1999/xlink">
<g id="graph0" class="graph" transform="scale(1 1) rotate(0) translate(4 45)">
<title>Graphical Class Hierarchy</title>
<!-- Node0 -->
<g id="Node000000" class="node">
<title>Node0</title>
<g id="a_Node000000"><a xlink:href="class_clear_queue.html" target="_top" xlink:title=" ">
<polygon fill="white" stroke="#666666" points="155,-41 0,-41 0,0 155,0 155,-41"/>
<text text-anchor="start" x="8" y="-29" font-family="Helvetica,sans-Serif" font-size="10.00">ClearQueue&lt; Pair&lt; TimerId,</text>
<text text-anchor="start" x="8" y="-18" font-family="Helvetica,sans-Serif" font-size="10.00"> uniot::TaskScheduler::</text>
<text text-anchor="middle" x="77.5" y="-7" font-family="Helvetica,sans-Serif" font-size="10.00">TaskPtr &gt; &gt;</text>
</a>
</g>
</g>
<!-- Node1 -->
<g id="Node000001" class="node">
<title>Node1</title>
<g id="a_Node000001"><a xlink:href="class_iterable_queue.html" target="_top" xlink:title=" ">
<polygon fill="white" stroke="#666666" points="363,-41 191,-41 191,0 363,0 363,-41"/>
<text text-anchor="start" x="199" y="-29" font-family="Helvetica,sans-Serif" font-size="10.00">IterableQueue&lt; Pair</text>
<text text-anchor="start" x="199" y="-18" font-family="Helvetica,sans-Serif" font-size="10.00">&lt; TimerId, uniot::TaskScheduler</text>
<text text-anchor="middle" x="277" y="-7" font-family="Helvetica,sans-Serif" font-size="10.00">::TaskPtr &gt; &gt;</text>
</a>
</g>
</g>
<!-- Node0&#45;&gt;Node1 -->
<g id="edge17_Node000000_Node000001" class="edge">
<title>Node0&#45;&gt;Node1</title>
<g id="a_edge17_Node000000_Node000001"><a xlink:title=" ">
<path fill="none" stroke="#63b8ff" d="M165.39,-20.5C173.85,-20.5 182.43,-20.5 190.88,-20.5"/>
<polygon fill="#63b8ff" stroke="#63b8ff" points="165.14,-17 155.14,-20.5 165.14,-24 165.14,-17"/>
</a>
</g>
</g>
<!-- Node2 -->
<g id="Node000002" class="node">
<title>Node2</title>
<g id="a_Node000002"><a xlink:href="classuniot_1_1_map.html" target="_top" xlink:title=" ">
<polygon fill="white" stroke="#666666" points="519,-41 399,-41 399,0 519,0 519,-41"/>
<text text-anchor="start" x="407" y="-29" font-family="Helvetica,sans-Serif" font-size="10.00">uniot::Map&lt; TimerId,</text>
<text text-anchor="start" x="407" y="-18" font-family="Helvetica,sans-Serif" font-size="10.00"> uniot::TaskScheduler</text>
<text text-anchor="middle" x="459" y="-7" font-family="Helvetica,sans-Serif" font-size="10.00">::TaskPtr &gt;</text>
</a>
</g>
</g>
<!-- Node1&#45;&gt;Node2 -->
<g id="edge18_Node000001_Node000002" class="edge">
<title>Node1&#45;&gt;Node2</title>
<g id="a_edge18_Node000001_Node000002"><a xlink:title=" ">
<path fill="none" stroke="#63b8ff" d="M373.46,-20.5C382.14,-20.5 390.76,-20.5 398.98,-20.5"/>
<polygon fill="#63b8ff" stroke="#63b8ff" points="373.26,-17 363.26,-20.5 373.26,-24 373.26,-17"/>
</a>
</g>
</g>
</g>
</svg>
